,midi,velocity,duration,relativeTime,chordPitch,chordForte,chordQuality
0,76,83,17,0,9.0,4-26,minor
1,75,76,18,28,9.0,4-26,minor
2,72,88,16,430,7.0,3-9,other
3,74,115,21,44,7.0,3-9,other
4,77,73,113,76,4.0,3-8B,other
5,76,106,15,173,1.0,3-10,diminished
6,74,46,13,68,0.0,4-18A,major
7,71,90,11,146,9.0,4-23,minor
8,72,120,11,26,9.0,4-23,minor
9,64,58,48,84,2.0,4-21,major
10,60,42,61,174,0.0,2-4,major
11,62,64,66,60,0.0,2-4,major
12,50,60,131,66,0.0,2-4,major
13,53,51,15,51,0.0,2-4,major
14,65,82,53,136,3.0,2-4,other
15,70,79,12,627,1.0,4-12A,minor
16,64,45,18,78,5.0,4-20,major
17,74,85,111,484,9.0,4-26,minor
18,57,42,74,541,0.0,4-14B,major
19,86,70,46,120,4.0,3-5B,other
20,81,53,9,38,4.0,3-5B,other
21,83,61,32,119,11.0,3-2A,minor
22,82,76,27,35,11.0,3-2A,minor
23,53,42,43,731,9.0,4-26,minor
24,69,70,28,563,1.0,3-10,other
25,69,72,22,47,1.0,3-10,other
26,76,110,27,186,9.0,3-11A,minor
27,74,93,39,76,9.0,4-26,minor
28,69,82,38,76,4.0,2-3,minor
29,74,80,12,81,0.0,4-8,major
30,71,79,13,1146,5.0,4-24,augmented
31,69,48,125,72,6.0,3-8B,other
32,71,29,88,50,6.0,3-8B,other
33,62,62,11,79,2.0,3-8A,major
34,69,66,103,138,0.0,4-8,major
35,60,44,26,63,0.0,4-8,major
36,60,70,9,36,0.0,4-8,major
37,69,75,32,142,9.0,4-23,minor
38,60,57,32,232,10.0,2-1,other
39,60,69,11,89,11.0,3-7A,minor
40,62,108,31,29,11.0,3-7A,minor
41,64,43,38,64,0.0,3-11A,minor
42,67,66,36,53,0.0,3-11A,minor
43,72,69,11,91,2.0,2-5,other
44,69,50,48,28,2.0,2-5,other
45,68,57,38,114,0.0,3-8A,major
46,64,43,9,41,0.0,3-8A,major
47,84,93,17,319,4.0,1-1,other
48,84,123,34,243,5.0,3-8B,other
49,81,64,30,70,9.0,5-37,minor
50,76,76,23,35,9.0,5-37,minor
51,74,61,22,74,9.0,2-6,other
52,72,48,26,70,3.0,2-1,other
53,69,52,10,28,3.0,2-1,other
54,74,92,36,28,3.0,2-1,other
55,72,74,46,60,3.0,2-1,other
56,68,71,109,39,3.0,2-1,other
57,72,72,27,443,3.0,3-11A,other
58,73,81,15,31,3.0,3-11A,other
59,74,50,23,28,3.0,3-11A,other
60,76,60,20,57,3.0,4-18B,other
61,72,76,29,117,5.0,2-1,other
62,67,60,11,37,5.0,2-1,other
63,65,30,17,31,5.0,2-1,other
64,56,79,30,296,0.0,2-2,other
65,54,72,23,38,0.0,2-2,other
66,53,70,33,26,0.0,2-2,other
67,69,37,14,416,5.0,5-30B,other
68,57,37,7,614,5.0,3-4B,other
69,69,81,25,585,10.0,4-20,major
70,67,56,36,57,9.0,3-5B,other
71,72,71,16,98,10.0,2-1,other
72,73,45,25,26,10.0,2-1,other
73,81,75,13,177,9.0,4-23,minor
74,79,107,17,85,5.0,2-1,other
75,65,60,20,212,8.0,2-6,other
76,69,95,23,57,7.0,3-5B,other
77,69,76,52,56,10.0,4-16A,major
78,67,69,59,71,10.0,4-16A,major
79,67,78,53,119,10.0,5-30B,augmented
80,52,56,15,1227,1.0,4-13B,other
81,55,53,43,213,9.0,3-11A,minor
82,71,87,28,237,5.0,3-12,augmented
83,72,66,49,68,9.0,4-14A,minor
84,69,58,111,51,9.0,4-14A,minor
85,84,107,10,461,9.0,4-22B,minor
86,82,71,14,29,9.0,4-22B,minor
87,73,69,17,34,9.0,4-22B,minor
88,72,55,24,28,9.0,4-22B,minor
89,70,73,16,31,9.0,4-22B,minor
90,69,50,27,27,9.0,4-22B,minor
91,64,49,69,296,4.0,5-25B,minor
92,76,67,18,931,7.0,4-27A,minor
93,55,25,16,71,9.0,5-35,minor
94,73,108,19,305,6.0,3-8B,other
95,81,59,23,158,5.0,4-22A,major
96,77,41,31,50,5.0,4-22A,major
97,71,48,20,173,0.0,4-8,major
98,72,102,21,55,0.0,4-8,major
99,65,78,37,185,4.0,4-26,minor
100,72,52,50,1042,1.0,3-1,other
101,77,63,10,432,4.0,2-3,minor
102,64,56,9,78,4.0,2-3,minor
103,72,91,20,314,2.0,2-3,minor
104,65,88,33,161,10.0,2-4,major
105,52,46,20,341,4.0,4-25,other
106,65,56,36,214,9.0,4-26,minor
107,81,95,32,475,10.0,3-4A,major
108,82,79,26,79,5.0,4-16A,other
109,81,77,13,35,5.0,4-16A,other
110,69,54,15,113,0.0,2-2,other
111,70,73,18,283,6.0,4-27A,diminished
112,72,75,58,91,7.0,4-16B,major
113,84,60,24,1441,0.0,2-4,major
114,67,65,10,938,4.0,4-29A,minor
115,36,48,13,263,4.0,4-23,minor
116,53,27,896,0,2.0,2-2,other
117,53,36,1576,1888,2.0,2-2,other
118,62,37,1576,760,2.0,2-2,other
119,68,53,1480,80,2.0,2-2,other
120,71,65,1720,104,2.0,2-2,other
121,79,66,1040,120,2.0,2-3,minor
122,53,32,1608,904,2.0,2-3,minor
123,77,94,368,1624,2.0,2-3,minor
124,53,20,1504,408,2.0,2-3,minor
125,79,95,272,256,2.0,2-3,minor
126,63,30,456,664,2.0,2-3,minor
127,53,37,1528,968,5.0,2-4,major
128,91,62,216,904,5.0,2-4,major
129,65,30,800,88,3.0,2-1,other
130,53,46,1576,840,3.0,2-1,other
131,70,67,1304,856,3.0,2-1,other
132,73,52,1600,72,3.0,2-1,other
133,64,62,1144,32,3.0,2-1,other
134,76,61,1592,32,3.0,2-1,other
135,81,75,1416,40,3.0,2-1,other
136,53,39,1464,912,3.0,2-1,other
137,73,37,1296,976,4.0,3-10,diminished
138,53,36,1520,880,4.0,3-10,diminished
139,81,83,136,536,4.0,3-10,diminished
140,80,30,48,56,4.0,3-10,diminished
141,74,56,2424,368,4.0,3-10,diminished
142,65,40,1552,120,2.0,2-5,other
143,53,31,1072,888,2.0,2-5,other
144,53,41,64,1816,2.0,2-5,other
145,70,50,600,784,2.0,2-5,other
146,77,64,1256,40,2.0,2-5,other
147,72,53,472,40,2.0,2-5,other
148,81,66,1088,72,2.0,2-5,other
149,74,53,320,56,2.0,2-5,other
150,84,80,1008,48,2.0,2-5,other
151,53,32,880,1488,2.0,2-5,other
152,82,62,624,504,2.0,2-5,other
153,70,34,712,32,2.0,2-5,other
154,65,4,664,136,2.0,2-5,other
155,53,25,1648,704,2.0,2-5,other
156,74,51,120,520,2.0,2-5,other
157,67,56,1160,432,2.0,2-5,other
158,75,65,2736,96,3.0,2-5,other
159,77,59,2568,40,3.0,2-5,other
160,53,54,864,880,3.0,2-5,other
161,53,34,1384,1816,3.0,2-5,other
162,53,16,1152,1928,6.0,2-3,minor
163,63,36,152,960,6.0,2-3,minor
164,72,27,72,72,6.0,2-3,minor
165,65,38,104,1544,6.0,2-3,minor
166,69,37,256,1232,5.0,2-5,other
167,70,43,560,680,4.0,3-9,other
168,60,18,128,2952,5.0,2-4,major
169,54,21,104,976,8.0,2-3,other
170,62,29,288,512,3.0,3-6,major
171,46,23,128,1496,3.0,3-11B,other
172,55,18,168,240,10.0,2-4,major
173,36,57,48,560,10.0,2-4,major
174,62,77,1144,1480,3.0,4-19B,augmented
175,67,31,304,1304,3.0,4-19B,augmented
176,63,32,120,248,3.0,4-19B,augmented
177,41,46,72,1216,5.0,2-5,other
178,77,79,216,1512,0.0,3-11A,minor
179,70,45,456,440,0.0,3-11A,minor
180,69,60,216,512,2.0,4-15B,other
181,66,50,320,2760,2.0,2-4,major
182,67,66,288,480,2.0,2-4,major
183,69,87,264,504,2.0,2-4,major
184,64,49,608,1096,7.0,3-9,other
185,72,50,56,936,2.0,2-3,minor
186,48,54,472,2000,11.0,1-1,other
187,62,25,312,96,11.0,1-1,other
188,66,49,304,48,11.0,1-1,other
189,69,44,208,72,11.0,1-1,other
190,86,70,224,584,10.0,2-4,major
191,86,62,232,880,10.0,2-4,other
192,67,62,128,1808,0.0,5-34,major
193,71,49,176,272,0.0,5-34,major
194,53,33,1272,5160,2.0,2-2,other
195,82,69,224,480,2.0,2-2,other
196,70,35,88,432,2.0,2-3,minor
197,60,18,1088,32,2.0,2-3,minor
198,82,36,168,1448,10.0,2-5,other
199,62,29,1360,424,10.0,2-5,other
200,53,42,1280,1008,8.0,2-3,minor
201,67,68,112,480,8.0,2-3,minor
202,59,44,1120,520,8.0,3-5B,other
203,79,73,152,1504,5.0,1-1,other
204,65,33,96,480,9.0,2-6,other
205,57,32,2200,40,9.0,2-6,other
206,81,76,304,448,9.0,2-6,other
207,74,57,224,40,9.0,2-6,other
208,53,51,64,1904,6.0,2-3,minor
209,53,39,912,944,6.0,2-3,minor
210,81,72,1384,544,4.0,1-1,other
211,53,24,1336,784,4.0,1-1,other
212,53,22,1640,1864,1.0,3-10,diminished
213,81,82,120,552,1.0,3-10,diminished
214,74,50,96,408,1.0,3-10,diminished
215,53,43,1352,936,2.0,3-11A,minor
216,62,20,1432,960,5.0,2-4,major
217,65,19,72,976,5.0,2-4,major
218,53,38,1096,480,5.0,2-4,major
219,58,38,1216,432,5.0,2-4,major
220,70,67,1464,32,5.0,2-4,major
221,84,67,1800,144,2.0,2-3,minor
222,53,27,1416,824,2.0,2-3,minor
223,82,87,312,1592,10.0,2-5,other
224,53,19,1752,376,10.0,2-5,other
225,82,74,136,168,10.0,2-5,other
226,74,60,136,400,10.0,2-5,other
227,58,43,816,320,10.0,2-5,other
228,75,61,2168,216,10.0,2-5,other
229,77,51,2312,40,10.0,2-5,other
230,53,44,1256,848,10.0,2-5,other
231,67,28,984,912,3.0,3-9,other
232,53,40,144,896,3.0,3-9,other
233,41,43,64,848,3.0,3-9,other
234,51,35,64,696,2.0,3-11B,major
235,57,44,64,1040,2.0,3-3A,major
236,69,22,48,32,2.0,3-3A,major
237,72,37,1008,944,2.0,3-3A,major
238,51,38,368,1000,5.0,4-27B,major
239,70,44,440,352,5.0,4-27B,major
240,70,52,400,1800,6.0,4-23,minor
241,60,15,248,72,7.0,2-2,other
242,57,36,896,912,0.0,3-9,other
243,74,48,304,896,0.0,3-9,other
244,71,45,160,960,7.0,2-5,other
245,56,32,424,88,7.0,2-5,other
246,69,40,480,864,7.0,4-18A,minor
247,53,35,912,48,7.0,4-18A,minor
248,65,33,584,32,7.0,4-18A,minor
249,60,4,488,136,7.0,4-18A,minor
250,39,35,232,1816,1.0,2-6,other
251,46,23,328,96,1.0,2-6,other
252,50,20,480,1536,1.0,3-5A,other
253,53,31,304,320,7.0,2-4,major
254,59,48,144,936,7.0,2-4,major
255,66,55,192,832,11.0,2-6,other
256,73,47,168,1720,4.0,3-10,diminished
257,74,26,112,1912,8.0,2-3,minor
258,50,52,792,728,2.0,3-7A,minor
259,64,50,112,624,2.0,3-7A,minor
260,65,60,328,312,2.0,3-7A,minor
261,67,49,504,984,5.0,2-1,other
262,53,32,240,624,2.0,2-3,minor
263,62,26,80,328,2.0,2-3,minor
264,48,36,616,448,0.0,2-3,minor
265,58,20,104,40,0.0,2-3,minor
266,58,77,3504,3928,9.0,3-11B,major
267,81,64,136,520,9.0,3-11B,major
268,73,25,48,792,9.0,3-11B,major
269,76,45,144,192,9.0,3-11B,major
270,81,62,184,256,9.0,3-11B,major
271,85,63,80,232,9.0,3-11B,major
272,88,69,144,232,9.0,3-11B,major
273,93,73,152,256,9.0,3-11B,major
274,100,82,168,240,9.0,3-11B,major
275,70,25,584,272,1.0,2-3,minor
276,58,34,536,952,1.0,2-3,minor
277,64,1,320,1224,1.0,2-3,other
278,58,33,352,672,1.0,2-3,other
279,58,30,96,904,1.0,2-3,other
280,65,42,200,584,1.0,2-3,other
281,65,9,2648,336,1.0,2-3,other
282,58,31,1416,32,1.0,2-3,other
283,53,25,392,32,1.0,2-3,other
284,53,39,144,536,1.0,2-3,other
285,41,24,1664,368,1.0,2-3,other
286,58,25,768,896,1.0,2-3,other
287,53,55,256,640,7.0,2-2,other
288,41,46,72,320,7.0,2-2,other
289,53,49,1976,1632,8.0,2-3,minor
290,59,28,1152,1304,8.0,2-6,other
291,53,43,1360,960,8.0,2-6,other
292,63,33,1504,912,8.0,2-6,other
293,57,44,1360,48,8.0,2-6,other
294,53,35,1176,920,8.0,2-6,other
295,57,43,1064,944,0.0,2-3,minor
296,69,42,184,272,0.0,2-3,minor
297,70,46,160,256,0.0,2-3,minor
298,72,74,176,264,0.0,2-3,minor
299,53,46,1216,184,0.0,2-3,minor
300,74,62,176,56,0.0,2-3,minor
301,75,53,128,264,0.0,2-3,minor
302,76,53,112,224,0.0,2-3,minor
303,77,65,160,240,0.0,2-3,minor
304,61,29,1200,160,0.0,2-3,minor
305,79,51,200,72,4.0,2-6,other
306,81,68,112,248,4.0,2-6,other
307,82,52,144,216,4.0,2-6,other
308,58,25,1408,1376,1.0,2-3,minor
309,91,85,216,1216,5.0,2-1,other
310,88,67,984,248,5.0,2-1,other
311,53,55,1544,1360,2.0,2-5,other
312,88,84,256,40,2.0,2-5,other
313,89,75,160,256,2.0,2-5,other
314,86,59,192,248,2.0,2-5,other
315,53,31,1416,1408,2.0,2-5,other
316,81,31,120,48,2.0,2-5,other
317,58,36,1256,792,2.0,2-5,other
318,77,45,1296,112,2.0,1-1,other
319,65,33,728,40,2.0,1-1,other
320,84,80,1000,56,2.0,1-1,other
321,53,22,1288,896,2.0,1-1,other
322,53,49,648,1864,10.0,2-5,other
323,53,38,1656,1832,10.0,2-5,other
324,58,49,904,680,10.0,2-5,other
325,63,39,832,56,10.0,2-5,other
326,75,69,224,264,2.0,2-3,minor
327,74,49,176,152,2.0,2-3,minor
328,71,51,184,192,2.0,2-3,minor
329,72,75,320,248,2.0,2-3,minor
330,74,80,184,240,2.0,2-3,minor
331,53,58,1968,72,2.0,2-3,minor
332,75,61,96,176,2.0,2-3,minor
333,77,62,184,240,2.0,2-3,minor
334,78,65,152,216,2.0,2-3,minor
335,81,71,184,248,2.0,2-3,minor
336,57,35,272,112,3.0,2-5,other
337,86,62,192,144,3.0,2-5,other
338,90,60,88,224,3.0,2-5,other
339,93,74,184,224,3.0,2-5,other
340,98,68,248,232,3.0,2-5,other
341,63,29,416,1152,5.0,2-4,major
342,53,54,272,992,5.0,2-4,major
343,60,18,312,1000,7.0,3-7A,minor
344,69,30,72,576,7.0,3-7A,minor
345,62,24,64,1008,9.0,2-3,minor
346,65,18,544,384,0.0,3-7B,other
347,59,24,304,912,6.0,3-7A,minor
348,63,39,824,1808,5.0,3-11A,other
349,60,39,544,72,8.0,2-2,other
350,50,31,184,680,8.0,2-2,other
351,62,24,400,1320,7.0,2-4,major
352,48,30,1032,848,3.0,3-11B,major
353,77,89,288,704,3.0,3-11B,major
354,36,37,64,184,3.0,3-11B,major
355,74,35,128,200,3.0,3-11B,major
356,75,59,96,216,3.0,3-11B,major
357,79,63,136,240,3.0,3-11B,major
358,83,82,152,224,3.0,3-11B,major
359,84,87,464,760,10.0,2-4,major
360,64,64,48,368,10.0,2-4,major
361,53,35,80,48,10.0,2-4,major
362,42,43,136,600,10.0,2-4,major
363,44,33,160,2008,9.0,3-8A,major
364,38,39,200,944,9.0,3-7A,minor
365,43,51,224,1232,10.0,3-11B,major
366,74,91,272,696,10.0,3-11B,major
367,74,69,152,968,1.0,2-3,other
368,81,71,320,1072,9.0,2-2,other
369,79,63,208,464,10.0,2-4,major
370,79,50,248,440,10.0,2-4,major
371,62,24,656,288,10.0,2-4,major
372,74,50,2736,40,10.0,2-4,major
373,53,25,600,40,10.0,2-4,major
374,58,25,552,848,10.0,2-4,major
375,43,42,72,1840,11.0,3-10,diminished
376,74,60,168,1208,10.0,5-26B,augmented
377,74,60,200,488,2.0,3-11B,major
378,48,50,56,2144,4.0,3-10,diminished
379,74,69,632,1184,3.0,4-19B,augmented
380,60,42,296,776,0.0,3-11A,minor
381,65,28,1016,1048,5.0,4-27B,major
382,41,67,136,920,5.0,4-27B,major
383,82,55,128,1560,2.0,2-2,other
384,84,80,168,264,2.0,2-2,other
385,53,49,1408,152,2.0,2-2,other
386,81,40,192,56,2.0,2-2,other
387,77,45,72,272,2.0,2-2,other
388,79,39,104,232,2.0,2-2,other
389,81,58,112,280,2.0,2-2,other
390,74,50,88,464,2.0,3-7A,minor
391,75,46,128,216,2.0,3-7A,minor
392,77,63,136,248,2.0,3-7A,minor
393,53,34,1656,128,2.0,3-7A,minor
394,74,50,168,80,2.0,3-7A,minor
395,67,37,1424,320,2.0,3-7A,minor
396,68,55,136,1432,8.0,3-10,diminished
397,53,25,1496,112,8.0,3-10,diminished
398,70,52,48,112,8.0,3-10,diminished
399,71,54,56,168,8.0,3-10,diminished
400,74,54,128,288,8.0,3-10,diminished
401,76,54,112,136,8.0,3-10,diminished
402,77,54,56,160,8.0,3-10,diminished
403,81,54,64,400,11.0,2-3,minor
404,82,59,120,288,11.0,2-3,minor
405,84,67,120,248,11.0,2-3,minor
406,53,46,496,240,11.0,2-3,minor
407,85,70,96,96,11.0,2-3,minor
408,86,64,96,264,11.0,2-3,minor
409,87,60,112,224,11.0,2-3,minor
410,88,57,136,272,11.0,2-3,minor
411,91,76,176,224,11.0,2-3,minor
412,89,64,200,280,5.0,2-2,other
413,86,68,112,256,5.0,2-2,other
414,53,40,1416,136,5.0,2-2,other
415,87,70,192,88,5.0,2-2,other
416,83,57,88,208,5.0,2-2,other
417,86,65,240,240,5.0,2-2,other
418,83,45,72,224,5.0,2-2,other
419,53,47,2096,1160,5.0,3-7B,other
420,70,55,1488,1032,5.0,3-7B,other
421,78,27,64,1296,9.0,2-5,other
422,78,27,64,1024,1.0,3-10,diminished
423,69,43,272,448,5.0,4-19B,augmented
424,74,49,2960,912,5.0,4-19B,augmented
425,53,43,1392,968,2.0,3-11A,minor
426,62,32,1288,944,2.0,3-11A,minor
427,53,54,1352,952,2.0,3-11A,minor
428,53,44,1432,1864,2.0,3-11A,minor
429,58,34,1312,760,2.0,3-11A,minor
430,62,45,1168,48,2.0,3-11A,minor
431,72,68,1064,64,2.0,3-11A,minor
432,84,87,456,112,5.0,1-1,other
433,82,78,232,608,5.0,1-1,other
434,53,51,1776,256,5.0,1-1,other
435,74,75,176,360,5.0,1-1,other
436,58,49,864,472,5.0,1-1,other
437,67,53,1752,72,5.0,1-1,other
438,77,53,2440,160,5.0,2-2,other
439,53,42,1296,952,5.0,2-2,other
440,58,30,648,944,5.0,2-2,other
441,53,45,72,920,3.0,3-11B,major
442,65,20,48,208,3.0,3-11B,major
443,67,36,48,80,3.0,3-11B,major
444,69,55,48,72,3.0,3-11B,major
445,71,38,56,88,3.0,3-11B,major
446,72,43,48,88,3.0,3-11B,major
447,74,46,56,72,3.0,3-11B,major
448,76,52,48,80,3.0,3-11B,major
449,77,36,64,96,3.0,3-11B,major
450,79,48,56,64,3.0,3-11B,major
451,81,40,64,72,3.0,3-11B,major
452,84,80,392,1112,3.0,3-4A,major
453,51,18,224,1944,2.0,3-11A,minor
454,70,42,272,952,2.0,3-11A,minor
455,67,43,56,1680,2.0,3-7B,other
456,65,24,456,392,0.0,3-7B,other
457,46,27,1160,1872,0.0,2-4,other
458,69,80,424,2840,7.0,3-11B,major
459,68,62,304,568,7.0,3-11B,major
460,59,34,168,2384,2.0,2-3,minor
461,71,54,120,240,2.0,2-3,minor
462,74,47,152,264,2.0,2-3,minor
463,77,53,96,224,2.0,2-3,minor
464,83,71,240,280,7.0,2-2,other
465,86,85,496,288,7.0,2-2,other
466,58,25,392,640,1.0,2-3,minor
467,66,38,192,1216,9.0,2-3,minor
468,64,40,120,592,7.0,3-11B,major
469,73,37,432,296,10.0,2-4,other
470,63,28,504,32,10.0,2-4,other
471,77,55,560,560,10.0,2-4,other
472,73,51,680,1864,1.0,4-13B,other
473,79,68,360,272,1.0,4-13B,other
474,60,38,384,40,1.0,4-13B,other
475,50,40,256,32,1.0,4-13B,other
476,69,22,56,5656,2.0,3-8A,major
477,57,41,56,872,1.0,3-10,minor
478,65,57,216,3144,9.0,4-18A,major
479,61,35,656,176,9.0,4-18A,major
480,41,35,64,2032,7.0,2-2,other
481,66,29,616,1296,7.0,2-2,other
482,61,28,928,72,3.0,2-5,other
483,84,95,200,656,3.0,2-5,other
484,65,18,136,312,2.0,2-2,other
485,82,51,272,96,2.0,2-2,other
486,86,75,176,552,2.0,2-2,other
487,74,60,88,1256,2.0,2-2,other
488,77,60,144,584,2.0,2-2,other
489,53,28,1392,312,2.0,2-2,other
490,65,32,552,48,2.0,2-2,other
491,56,31,248,936,2.0,2-2,other
492,59,30,136,32,2.0,2-2,other
493,56,64,192,800,2.0,2-2,other
494,55,61,136,848,10.0,2-5,other
495,56,58,176,232,10.0,2-5,other
496,53,55,1608,80,10.0,2-5,other
497,58,57,136,112,10.0,2-5,other
498,59,54,128,248,10.0,2-5,other
499,61,65,152,184,10.0,2-5,other
500,62,61,144,240,10.0,2-5,other
501,56,26,616,184,10.0,2-5,other
502,64,44,120,312,3.0,2-4,other
503,65,29,176,216,3.0,2-4,other
504,67,62,152,256,3.0,2-4,other
505,65,56,176,232,3.0,2-4,other
506,57,34,232,40,3.0,2-4,other
507,53,36,744,56,3.0,2-4,other
508,62,38,96,168,3.0,2-4,other
509,63,55,224,200,3.0,2-4,other
510,59,40,56,288,3.0,2-4,other
511,59,50,80,472,2.0,2-3,minor
512,60,54,144,208,2.0,2-3,minor
513,62,62,176,232,2.0,2-3,minor
514,63,47,48,232,2.0,2-3,minor
515,65,41,80,264,9.0,2-3,minor
516,67,58,144,192,9.0,2-3,minor
517,69,53,104,240,9.0,2-3,minor
518,71,48,64,520,2.0,2-3,minor
519,72,47,168,184,2.0,2-3,minor
520,74,49,120,256,2.0,2-3,minor
521,61,35,1040,144,2.0,2-3,minor
522,76,46,96,320,4.0,3-5B,other
523,78,46,128,200,4.0,3-5B,other
524,79,65,136,248,4.0,3-5B,other
525,53,42,1136,72,4.0,3-5B,other
526,81,48,120,176,4.0,3-5B,other
527,82,60,96,232,4.0,3-5B,other
528,84,68,80,192,4.0,3-5B,other
529,85,37,48,160,4.0,3-5B,other
530,87,60,48,136,4.0,3-5B,other
531,61,33,1064,48,4.0,3-5B,other
532,88,64,104,96,4.0,2-6,other
533,90,37,56,176,4.0,2-6,other
534,91,62,144,144,4.0,2-6,other
535,93,39,104,176,4.0,2-6,other
536,94,56,48,128,4.0,2-6,other
537,96,63,136,160,4.0,2-6,other
538,53,46,1472,80,4.0,2-6,other
539,97,51,184,64,4.0,2-6,other
540,99,32,80,208,4.0,2-6,other
541,100,42,120,144,4.0,2-6,other
542,103,88,296,176,4.0,2-6,other
543,101,77,648,368,4.0,2-6,other
544,98,69,240,600,2.0,3-7A,minor
545,53,38,1336,376,2.0,3-7A,minor
546,53,16,1448,2048,2.0,3-7A,minor
547,58,45,1280,688,2.0,3-7A,minor
548,62,31,1248,96,2.0,3-7A,minor
549,70,57,912,64,2.0,3-7A,minor
550,84,50,1120,240,5.0,1-1,other
551,53,32,1120,840,5.0,1-1,other
552,62,24,736,912,10.0,2-5,other
553,53,30,104,920,10.0,2-5,other
554,53,45,72,1592,3.0,4-22A,major
555,41,40,128,936,3.0,4-22A,major
556,29,37,80,1000,3.0,4-22A,major
557,41,51,64,1008,5.0,2-2,other
558,64,51,48,1992,10.0,5-22,augmented
559,57,34,336,1360,2.0,2-4,major
560,56,40,160,2928,7.0,5-35,minor
561,71,67,240,2280,6.0,5-25B,minor
562,58,30,304,3224,10.0,2-5,other
563,48,36,72,32,10.0,2-5,other
564,71,47,1448,1952,3.0,3-4A,major
565,61,31,160,312,3.0,3-4A,major
566,60,51,192,136,3.0,3-4A,major
567,59,43,72,288,3.0,3-4A,major
568,62,58,168,376,3.0,3-4A,major
569,60,49,56,312,3.0,3-4A,major
570,41,58,816,504,3.0,3-4A,major
571,42,31,184,904,3.0,3-4A,major
572,43,30,120,176,3.0,3-4A,major
573,44,56,152,200,3.0,3-4A,major
574,45,58,224,408,3.0,3-4A,major
575,49,65,400,680,3.0,3-4A,major
576,45,40,104,840,2.0,4-15B,other
577,42,43,216,320,2.0,4-15B,other
578,53,31,256,352,7.0,3-11A,minor
579,31,53,96,424,7.0,3-11A,minor
580,57,30,72,1048,7.0,2-5,other
581,54,36,176,224,7.0,2-5,other
582,57,42,280,288,7.0,2-5,other
583,69,55,96,1432,7.0,2-5,other
584,53,31,240,392,7.0,3-11B,major
585,53,34,256,960,11.0,2-6,other
586,53,26,152,1904,3.0,2-5,other
587,52,36,440,1976,10.0,3-4A,major
588,84,80,160,200,10.0,3-4A,major
589,82,64,288,256,10.0,3-4A,major
590,78,69,272,240,10.0,3-4A,major
591,63,37,464,184,10.0,3-4A,major
592,81,68,272,312,4.0,2-6,other
593,79,60,200,208,4.0,2-6,other
594,75,54,184,280,4.0,2-6,other
595,65,28,160,256,1.0,2-6,other
596,48,53,208,584,1.0,2-6,other
597,41,62,64,336,1.0,2-6,other
598,86,82,200,344,1.0,2-6,other
599,89,94,264,272,1.0,2-6,other
600,83,65,424,624,9.0,3-8B,other
601,81,74,296,344,9.0,3-8B,other
602,66,49,448,312,9.0,3-8B,other
603,84,62,192,368,8.0,2-6,other
604,65,15,336,632,1.0,2-6,other
605,78,33,400,248,1.0,2-6,other
606,77,49,280,400,1.0,2-6,other
607,62,25,1328,352,10.0,2-5,other
608,60,32,1336,32,10.0,2-5,other
609,74,49,144,264,10.0,2-5,other
610,74,50,144,304,10.0,2-5,other
611,53,25,1232,352,10.0,2-5,other
612,74,66,64,328,10.0,2-5,other
613,74,72,136,296,10.0,2-5,other
614,79,59,144,624,2.0,2-2,other
615,79,63,120,328,2.0,2-2,other
616,77,46,112,640,7.0,2-2,other
617,77,48,1816,304,7.0,2-2,other
618,59,24,1104,352,8.0,3-10,diminished
619,53,42,2152,864,8.0,3-10,diminished
620,59,40,440,944,8.0,2-6,other
621,77,55,288,680,11.0,2-6,other
622,74,53,112,952,8.0,2-6,other
623,53,24,544,40,8.0,2-6,other
624,53,55,688,824,8.0,2-6,other
625,53,34,704,1024,2.0,3-11B,major
626,53,39,280,1264,2.0,4-18A,major
627,53,31,816,640,2.0,4-18A,major
628,58,45,1168,168,2.0,4-18A,major
629,69,68,1512,64,2.0,4-18A,major
630,81,74,1264,176,4.0,1-1,other
631,53,30,1304,824,4.0,1-1,other
632,58,20,1080,1056,4.0,2-3,minor
633,53,33,1744,840,4.0,2-3,minor
634,81,84,136,584,4.0,2-3,minor
635,67,25,264,688,2.0,2-5,other
636,68,33,128,72,2.0,2-5,other
637,69,41,88,200,2.0,2-5,other
638,57,28,872,1544,2.0,2-3,minor
639,69,19,808,40,2.0,2-3,minor
640,53,31,1896,888,2.0,2-3,minor
641,58,32,1136,704,2.0,2-3,minor
642,62,40,1048,40,2.0,2-3,minor
643,70,38,152,88,2.0,2-3,minor
644,84,39,472,224,5.0,1-1,other
645,84,68,440,760,5.0,1-1,other
646,41,42,152,536,5.0,1-1,other
647,41,46,176,480,5.0,1-1,other
648,53,30,152,488,5.0,1-1,other
649,53,65,832,920,10.0,3-11B,major
650,53,56,96,968,3.0,4-22A,major
651,53,35,104,952,3.0,4-22A,major
652,53,50,56,440,3.0,4-22A,major
653,41,47,384,504,3.0,4-22A,major
654,29,39,56,496,3.0,4-22A,major
655,63,46,696,920,2.0,3-11B,major
656,57,42,888,40,2.0,3-11B,major
657,69,25,64,1928,2.0,3-8A,major
658,53,35,208,1544,2.0,3-8A,major
659,67,31,72,1056,8.0,4-27B,other
660,91,24,208,2288,6.0,5-31B,diminished
661,81,46,384,1712,6.0,5-25B,minor
662,85,50,232,2752,6.0,1-1,other
663,55,35,184,408,5.0,3-4A,other
664,55,28,456,1840,7.0,4-27B,major
665,65,28,184,960,7.0,3-11B,major
666,62,45,344,936,3.0,3-11B,major
667,58,31,608,2024,5.0,3-3B,other
668,61,31,224,888,6.0,2-5,other
669,58,30,208,32,6.0,2-5,other
670,57,36,128,1792,2.0,4-26,minor
671,50,38,376,600,5.0,2-5,other
672,47,54,216,2120,11.0,2-6,other
673,39,27,184,1808,3.0,2-5,other
674,63,25,128,384,5.0,2-5,other
675,69,36,296,712,2.0,4-15B,other
676,57,42,96,1568,9.0,4-18A,major
677,61,28,136,144,9.0,4-18A,major
678,57,39,104,176,4.0,2-6,other
679,61,34,144,136,4.0,2-6,other
680,64,32,112,40,4.0,2-6,other
681,61,36,136,296,10.0,2-1,other
682,64,18,56,56,10.0,2-1,other
683,57,34,136,80,10.0,2-1,other
684,58,33,120,128,10.0,2-1,other
685,61,27,96,72,10.0,2-1,other
686,57,36,144,136,10.0,2-1,other
687,57,36,144,352,1.0,2-3,other
688,61,33,136,152,1.0,2-3,other
689,57,36,128,200,4.0,2-6,other
690,61,43,152,128,4.0,2-6,other
691,58,57,120,96,4.0,2-6,other
692,57,35,112,120,4.0,2-6,other
693,61,53,160,112,4.0,2-6,other
694,64,32,80,64,4.0,2-6,other
695,58,60,112,56,4.0,2-6,other
696,57,44,136,80,4.0,2-6,other
697,61,50,168,120,4.0,2-6,other
698,64,30,80,64,4.0,2-6,other
699,58,69,128,40,4.0,2-6,other
700,57,50,144,104,4.0,2-6,other
701,61,50,176,112,4.0,2-6,other
702,64,39,128,40,4.0,2-6,other
703,58,67,112,72,4.0,2-6,other
704,57,53,144,120,4.0,2-6,other
705,61,50,184,104,4.0,2-6,other
706,64,34,88,64,4.0,2-6,other
707,58,48,112,56,4.0,2-6,other
708,57,46,144,112,4.0,2-6,other
709,61,40,176,120,4.0,2-6,other
710,64,36,96,48,4.0,2-6,other
711,58,53,112,40,4.0,2-6,other
712,57,39,152,136,4.0,2-6,other
713,61,33,208,104,4.0,2-6,other
714,64,28,80,88,4.0,2-6,other
715,58,49,128,32,4.0,2-6,other
716,57,41,160,144,4.0,2-6,other
717,61,35,192,112,4.0,2-6,other
718,64,26,96,64,4.0,2-6,other
719,58,42,136,32,4.0,2-6,other
720,57,38,152,160,4.0,2-6,other
721,61,32,200,96,4.0,2-6,other
722,64,26,104,72,4.0,2-6,other
723,58,42,104,40,4.0,2-6,other
724,57,40,144,160,4.0,2-6,other
725,61,30,200,104,4.0,2-6,other
726,64,24,104,72,4.0,2-6,other
727,58,34,80,40,4.0,2-6,other
728,57,35,136,160,4.0,2-6,other
729,61,33,216,72,4.0,2-6,other
730,58,34,112,88,4.0,2-6,other
731,57,38,136,208,4.0,2-6,other
732,61,33,232,72,4.0,2-6,other
733,58,33,144,64,4.0,2-6,other
734,57,45,160,248,4.0,2-6,other
735,61,42,264,80,4.0,2-6,other
736,58,4,96,216,4.0,2-6,other
737,57,40,176,120,4.0,2-6,other
738,61,38,264,96,4.0,2-6,other
739,58,35,152,104,4.0,2-6,other
740,57,39,184,216,4.0,2-6,other
741,61,33,280,88,4.0,2-6,other
742,57,42,192,344,4.0,2-6,other
743,61,30,264,104,4.0,2-6,other
744,57,43,192,336,4.0,2-6,other
745,61,31,272,88,4.0,2-6,other
746,58,34,152,152,4.0,2-6,other
747,57,43,192,184,4.0,2-6,other
748,61,37,280,96,4.0,2-6,other
749,58,37,168,120,4.0,2-6,other
750,57,41,200,224,4.0,2-6,other
751,61,29,296,96,4.0,2-6,other
752,58,36,120,152,4.0,2-6,other
753,57,40,216,192,4.0,2-6,other
754,61,31,272,112,4.0,2-6,other
755,58,36,168,136,4.0,2-6,other
756,57,36,1160,208,4.0,2-6,other
757,61,33,1280,128,4.0,2-6,other
758,64,19,1096,144,4.0,2-6,other
759,52,55,82,0,10.0,2-4,major
760,53,55,81,83,10.0,2-4,major
761,52,47,105,86,10.0,2-4,major
762,53,52,186,93,10.0,2-4,major
763,46,49,50,99,10.0,2-4,major
764,53,60,104,193,3.0,2-5,other
765,53,56,107,208,10.0,3-4A,other
766,54,64,245,102,10.0,3-4A,other
767,54,89,109,378,10.0,4-19B,augmented
768,55,95,119,100,10.0,4-19B,augmented
769,54,77,146,101,10.0,4-19B,augmented
770,55,72,322,120,10.0,4-19B,augmented
771,46,76,171,153,10.0,4-19B,augmented
772,53,69,128,424,3.0,2-5,other
773,53,57,119,237,10.0,3-4A,other
774,46,67,72,219,10.0,2-4,other
775,52,77,86,182,10.0,3-4A,major
776,53,82,94,86,10.0,3-4A,major
777,52,62,93,89,10.0,3-4A,major
778,53,68,109,93,10.0,3-4A,major
779,46,66,66,97,10.0,3-4A,major
780,54,60,303,221,3.0,2-5,other
781,70,67,83,333,3.0,3-9,other
782,86,92,20,486,9.0,4-27A,diminished
783,93,110,25,99,9.0,4-27A,diminished
784,86,113,46,109,9.0,4-27A,diminished
785,84,74,26,114,3.0,2-1,other
786,82,88,20,66,3.0,2-1,other
787,74,50,35,235,3.0,2-5,other
788,73,56,15,67,3.0,2-5,other
789,72,50,31,74,3.0,2-5,other
790,70,56,187,88,3.0,2-5,other
791,66,50,85,101,3.0,2-5,other
792,65,60,67,87,3.0,2-5,other
793,63,64,119,78,3.0,2-5,other
794,62,79,58,65,3.0,2-5,other
795,60,62,51,66,3.0,2-5,other
796,59,67,70,62,3.0,2-5,other
797,50,50,215,191,7.0,2-3,minor
798,50,54,145,259,7.0,4-14A,minor
799,57,55,146,138,7.0,4-14A,minor
800,62,43,29,131,7.0,4-14A,minor
801,58,33,122,2292,7.0,3-11A,minor
802,70,58,138,186,2.0,2-3,minor
803,55,41,548,221,10.0,4-22A,major
804,64,77,55,282,0.0,3-8A,major
805,67,88,236,116,0.0,3-8A,major
806,72,57,92,211,0.0,3-8A,major
807,58,49,80,251,2.0,3-2A,minor
808,77,50,71,184,3.0,2-5,other
809,77,86,23,87,3.0,2-5,other
810,79,67,45,39,3.0,2-5,other
811,89,94,46,307,3.0,3-9,other
812,89,76,41,102,3.0,3-9,other
813,89,63,23,113,3.0,3-9,other
814,57,47,219,288,2.0,5-16A,other
815,74,56,113,242,2.0,4-18A,major
816,62,49,24,280,2.0,4-18A,major
817,64,51,340,704,2.0,5-16A,other
818,63,58,105,339,2.0,5-16A,other
819,52,50,43,279,10.0,2-4,major
820,52,56,56,178,5.0,3-11B,major
821,46,55,22,184,2.0,5-35,minor
822,51,49,52,137,0.0,5-29B,minor
823,70,83,15,454,10.0,4-16A,other
824,74,63,36,134,2.0,4-4A,minor
825,72,66,30,121,5.0,2-4,major
826,70,64,30,58,5.0,2-4,major
827,62,59,22,250,5.0,1-1,other
828,51,68,13,132,1.0,3-7B,other
829,51,56,51,192,3.0,4-14A,other
830,51,46,58,193,3.0,4-14A,other
831,50,75,19,287,10.0,4-20,major
832,53,76,275,61,10.0,4-20,major
833,57,74,32,52,10.0,4-20,major
834,60,83,32,51,10.0,4-20,major
835,57,67,35,50,10.0,4-20,major
836,62,73,28,98,10.0,2-1,other
837,65,85,33,46,10.0,2-1,other
838,77,80,26,158,2.0,3-8A,major
839,82,104,39,39,2.0,3-8A,major
840,84,111,33,55,2.0,3-8A,major
841,82,56,16,115,6.0,4-18A,diminished
842,78,64,28,193,5.0,2-5,other
843,82,79,11,66,5.0,2-5,other
844,86,74,26,130,3.0,3-9,other
845,84,64,38,611,1.0,4-22B,minor
846,79,44,44,261,1.0,2-3,other
847,76,53,44,326,2.0,4-26,minor
848,53,65,225,60,2.0,4-26,minor
849,74,78,44,205,2.0,4-4A,minor
850,69,69,22,59,2.0,4-4A,minor
851,53,77,23,65,2.0,4-4A,minor
852,53,58,17,67,2.0,4-4A,minor
853,42,61,15,137,0.0,4-27A,minor
854,49,57,43,71,0.0,4-27A,minor
855,53,77,200,133,3.0,3-11A,other
856,54,63,67,200,10.0,2-4,other
857,55,52,12,77,10.0,2-4,other
858,50,48,64,142,7.0,3-11A,minor
859,43,56,261,66,7.0,3-11A,minor
860,50,39,150,97,3.0,3-9,other
861,57,1,96,36,3.0,3-9,other
862,86,73,28,874,0.0,1-1,other
863,82,18,32,160,3.0,5-27A,major
864,60,50,275,53,3.0,5-27A,major
865,69,84,82,204,3.0,2-4,major
866,70,79,79,99,3.0,2-4,major
867,72,71,23,98,3.0,2-4,major
868,51,44,396,219,5.0,1-1,other
869,62,45,39,639,10.0,3-11B,major
870,61,39,18,45,10.0,3-11B,major
871,62,48,66,39,10.0,3-11B,major
872,62,47,76,206,9.0,1-1,other
873,46,46,18,126,9.0,1-1,other
874,51,68,107,201,0.0,5-29B,minor
875,53,54,122,648,10.0,3-4A,major
876,54,72,106,207,2.0,3-11A,minor
877,46,76,78,215,7.0,3-7B,other
878,46,81,232,239,0.0,4-26,minor
879,65,79,42,209,0.0,4-27A,minor
880,65,49,12,104,0.0,4-27A,minor
881,70,67,28,114,0.0,4-27A,minor
882,53,54,430,237,10.0,3-4A,major
883,72,74,52,220,2.0,3-11A,minor
884,72,61,28,118,2.0,3-11A,minor
885,72,67,18,117,2.0,3-11A,minor
886,65,69,131,255,10.0,4-20,other
887,70,71,134,262,3.0,3-11A,other
888,66,67,90,135,3.0,3-11A,other
889,63,57,167,158,3.0,3-11A,other
890,81,55,20,968,7.0,5-23A,minor
891,86,59,11,93,7.0,5-23A,minor
892,91,58,669,0,,,
893,88,57,674,68,,,
894,86,66,600,70,,,
895,55,24,196,758,4.0,4-26,minor
896,67,70,479,1287,4.0,4-26,minor
897,36,24,2185,985,7.0,5-23B,major
898,67,54,505,688,7.0,5-23B,major
899,67,54,574,747,7.0,5-23B,major
900,67,44,267,803,7.0,5-23B,major
901,53,28,182,4940,3.0,3-11B,major
902,59,33,381,1562,7.0,2-3,minor
903,59,27,741,947,3.0,3-11B,major
904,62,87,654,1750,3.0,3-11B,major
905,61,52,322,535,3.0,3-11B,major
906,60,51,220,139,3.0,3-11B,major
907,59,51,136,233,3.0,3-11B,major
908,58,48,220,150,3.0,3-11B,major
909,57,63,146,211,3.0,3-11B,major
910,58,53,924,192,3.0,3-11B,major
911,50,31,1706,869,7.0,2-2,other
912,67,53,519,691,7.0,2-2,other
913,55,28,1707,66,10.0,2-4,major
914,67,53,929,1653,10.0,2-4,major
915,68,32,55,1119,10.0,2-4,major
916,69,29,210,138,10.0,2-4,major
917,55,29,1415,1430,0.0,2-2,other
918,64,41,1039,726,0.0,2-2,other
919,69,48,247,677,0.0,2-2,other
920,55,34,129,1399,3.0,3-7A,other
921,48,24,683,40,3.0,3-7A,other
922,56,38,152,166,3.0,3-7A,other
923,58,42,92,164,3.0,3-7A,other
924,55,22,427,56,3.0,3-7A,other
925,60,73,125,83,3.0,3-7A,other
926,62,74,168,150,3.0,3-7A,other
927,63,71,101,160,3.0,3-7A,other
928,65,68,145,146,3.0,3-7A,other
929,67,65,155,142,3.0,3-7A,other
930,68,45,124,89,3.0,3-7A,other
931,70,40,43,126,3.0,3-7A,other
932,72,36,97,117,3.0,3-7A,other
933,74,49,174,141,3.0,3-7A,other
934,75,48,162,145,3.0,3-7A,other
935,76,29,59,191,3.0,3-7A,other
936,77,40,180,90,3.0,3-7A,other
937,80,47,140,659,8.0,3-5B,other
938,80,38,218,458,8.0,3-5B,other
939,80,39,249,485,8.0,3-5B,other
940,80,40,558,533,8.0,3-5B,other
941,82,88,264,1093,8.0,3-5B,other
942,82,85,247,421,8.0,3-5B,other
943,80,68,118,306,8.0,3-5B,other
944,79,45,1172,413,8.0,3-5B,other
945,52,25,185,43,8.0,3-5B,other
946,59,31,256,322,8.0,3-5B,other
947,62,43,99,316,8.0,3-5B,other
948,67,24,247,327,8.0,3-5B,other
949,74,32,344,342,8.0,3-5B,other
950,79,42,115,331,8.0,3-5B,other
951,83,26,267,347,8.0,3-5B,other
952,84,52,352,311,8.0,3-5B,other
953,86,43,238,379,8.0,3-5B,other
954,45,20,537,40,8.0,3-5B,other
955,52,28,2484,389,8.0,3-5B,other
956,59,24,286,528,8.0,3-5B,other
957,57,37,253,519,8.0,3-5B,other
958,56,32,376,567,0.0,2-4,major
959,71,55,586,499,0.0,2-4,major
960,55,33,695,32,0.0,2-4,major
961,52,28,670,611,9.0,3-11A,minor
962,45,39,181,616,9.0,3-11A,minor
963,26,87,490,1192,9.0,3-11A,minor
964,58,52,73,1210,9.0,3-11A,minor
965,57,38,59,39,9.0,3-11A,minor
966,59,62,146,32,9.0,3-11A,minor
967,59,40,80,402,5.0,4-20,major
968,58,51,156,84,5.0,4-20,major
969,53,24,558,990,2.0,4-26,minor
970,53,18,2477,2364,3.0,3-12,augmented
971,67,49,445,1894,3.0,3-12,augmented
972,65,34,3889,2877,11.0,2-6,other
973,74,37,222,2790,4.0,4-26,minor
974,43,34,233,1566,2.0,1-1,other
975,67,44,947,347,2.0,1-1,other
976,87,32,41,3117,3.0,3-8B,other
977,91,62,140,87,3.0,3-8B,other
978,87,51,112,87,3.0,3-8B,other
979,83,50,63,111,3.0,3-8B,other
980,89,68,88,137,3.0,3-8B,other
981,87,68,112,218,3.0,3-8B,other
982,83,55,115,219,3.0,3-8B,other
983,79,31,59,187,3.0,3-8B,other
984,77,38,73,174,3.0,3-8B,other
985,75,47,160,198,3.0,3-8B,other
986,74,44,196,221,3.0,3-8B,other
987,75,47,115,226,3.0,3-8B,other
988,76,55,120,209,3.0,3-8B,other
989,77,38,98,150,3.0,3-8B,other
990,78,50,84,131,3.0,3-8B,other
991,81,60,103,205,3.0,3-8B,other
992,58,29,286,91,7.0,2-5,other
993,79,29,403,66,7.0,2-5,other
994,74,44,136,327,7.0,2-5,other
995,43,20,162,505,7.0,2-5,other
996,67,35,75,217,7.0,2-5,other
997,69,44,100,81,7.0,2-5,other
998,67,42,119,71,7.0,2-5,other
999,66,48,80,106,7.0,2-5,other
1000,67,18,90,147,7.0,2-5,other
1001,70,48,101,250,7.0,2-5,other
1002,70,62,128,433,0.0,2-4,major
1003,64,54,294,297,0.0,2-4,major
1004,57,50,195,1086,10.0,2-4,other
1005,48,19,567,776,3.0,3-7A,other
1006,46,59,196,2297,8.0,5-31B,other
1007,67,36,167,1531,7.0,2-5,other
1008,69,45,105,529,7.0,1-1,other
1009,67,57,124,76,7.0,1-1,other
1010,66,48,102,115,7.0,1-1,other
1011,67,47,109,211,7.0,1-1,other
1012,74,75,134,204,7.0,1-1,other
1013,69,35,773,274,2.0,4-12A,major
1014,60,49,495,464,2.0,4-12A,major
1015,51,46,463,936,6.0,3-10,minor
1016,50,51,88,480,6.0,3-10,minor
1017,78,43,60,4124,4.0,3-8A,major
1018,80,42,136,221,4.0,3-8A,major
1019,83,57,58,219,4.0,3-8A,major
1020,72,31,114,486,10.0,2-4,major
1021,74,31,154,194,10.0,2-4,major
1022,77,62,105,239,10.0,2-4,major
1023,77,47,110,478,6.0,3-7A,other
1024,82,59,122,452,6.0,3-7A,other
1025,45,47,94,248,6.0,3-7A,other
1026,71,53,130,260,6.0,3-7A,other
1027,73,31,418,240,6.0,3-7A,other
1028,76,48,116,248,6.0,3-7A,other
1029,70,55,159,519,6.0,4-29A,other
1030,72,37,199,239,6.0,4-29A,other
1031,75,55,166,243,6.0,4-29A,other
1032,76,50,178,494,2.0,3-8A,major
1033,78,49,261,224,2.0,3-8A,major
1034,81,53,154,269,2.0,3-8A,major
1035,43,29,144,217,2.0,3-8A,major
1036,75,54,189,285,1.0,2-2,other
1037,77,38,210,224,1.0,2-2,other
1038,80,52,163,242,1.0,2-2,other
1039,53,20,203,260,4.0,3-11A,minor
1040,81,48,157,231,4.0,3-11A,minor
1041,83,52,84,217,4.0,3-11A,minor
1042,91,75,151,263,4.0,3-11A,minor
1043,87,46,109,289,2.0,2-2,other
1044,88,33,91,115,2.0,2-2,other
1045,86,46,172,182,2.0,2-2,other
1046,87,33,90,75,2.0,2-2,other
1047,88,42,49,89,2.0,2-2,other
1048,86,45,200,159,2.0,2-2,other
1049,87,53,80,68,2.0,2-2,other
1050,88,46,59,89,2.0,2-2,other
1051,86,28,218,178,4.0,3-7A,minor
1052,88,59,103,137,4.0,3-7A,minor
1053,79,29,147,405,4.0,3-7A,minor
1054,81,37,102,490,0.0,2-5,other
1055,79,34,85,87,0.0,2-5,other
1056,78,52,74,78,0.0,2-5,other
1057,79,49,932,160,0.0,2-5,other
1058,55,58,276,1771,1.0,3-8A,other
1059,56,81,321,309,1.0,3-8A,other
1060,56,68,322,674,3.0,4-19B,other
1061,56,53,301,630,3.0,4-19B,other
1062,67,35,304,317,3.0,3-4A,other
1063,56,48,330,277,3.0,3-4A,other
1064,62,44,133,945,3.0,3-7B,other
1065,61,47,46,124,3.0,3-7B,other
1066,60,40,120,87,3.0,3-7B,other
1067,59,63,83,121,3.0,3-7B,other
1068,62,45,79,1055,7.0,3-7A,minor
1069,58,37,73,29,7.0,3-7A,minor
1070,69,36,64,176,7.0,3-7A,minor
1071,67,46,85,73,7.0,3-7A,minor
1072,66,51,88,76,7.0,3-7A,minor
1073,67,31,126,109,7.0,3-7A,minor
1074,69,32,106,125,7.0,3-7A,minor
1075,70,44,86,114,7.0,3-7A,minor
1076,71,28,43,108,7.0,3-7A,minor
1077,72,44,131,114,7.0,3-7A,minor
1078,36,59,113,423,7.0,3-7A,minor
1079,69,64,193,991,1.0,3-10,minor
1080,68,37,203,1958,5.0,3-7B,other
1081,66,62,393,941,8.0,4-29A,other
1082,62,6,265,582,8.0,2-3,other
1083,55,24,325,895,4.0,3-7A,minor
1084,62,33,212,895,4.0,3-7A,minor
1085,67,51,91,325,4.0,3-11A,minor
1086,67,62,81,293,4.0,3-11A,minor
1087,60,32,228,1431,10.0,5-27A,major
1088,50,48,753,1377,0.0,5-30B,augmented
1089,64,62,129,1432,7.0,2-2,other
1090,63,46,179,251,7.0,2-2,other
1091,69,54,397,716,11.0,2-3,minor
1092,43,34,552,1453,0.0,4-22A,major
1093,43,22,391,3320,6.0,2-5,other
1094,62,34,466,60,9.0,4-26,minor
1095,67,76,182,1195,9.0,4-26,minor
1096,69,84,156,284,9.0,4-26,minor
1097,64,36,589,366,7.0,4-14A,minor
1098,61,46,473,963,7.0,4-14A,minor
1099,52,63,442,2435,2.0,4-26,minor
1100,57,51,258,926,2.0,4-26,minor
1101,72,38,404,492,5.0,3-4A,major
1102,31,24,97,1448,11.0,2-6,other
1103,71,40,163,896,1.0,3-8A,other
1104,62,27,555,3399,2.0,3-9,other
1105,77,56,83,126,9.0,2-5,other
1106,76,58,133,89,9.0,2-5,other
1107,75,42,104,125,9.0,2-5,other
1108,76,54,85,164,9.0,2-5,other
1109,88,67,73,233,9.0,2-5,other
1110,57,19,375,1218,7.0,2-2,other
1111,60,20,217,29,7.0,2-2,other
1112,86,71,303,364,7.0,2-2,other
1113,85,44,95,286,7.0,2-2,other
1114,84,46,119,102,7.0,2-2,other
1115,83,68,85,116,7.0,2-2,other
1116,67,31,249,78,7.0,2-2,other
1117,84,72,209,66,4.0,2-2,other
1118,83,58,102,262,4.0,2-2,other
1119,79,61,108,210,4.0,2-2,other
1120,55,36,559,50,4.0,2-2,other
1121,76,35,128,183,4.0,2-2,other
1122,72,26,225,242,4.0,2-2,other
1123,71,58,115,224,4.0,2-2,other
1124,71,50,167,449,7.0,2-5,other
1125,52,26,104,1055,9.0,2-3,minor
1126,45,59,129,529,0.0,3-11B,major
1127,72,31,106,1643,6.0,4-27A,diminished
1128,69,35,55,30,6.0,4-27A,diminished
1129,60,31,86,745,9.0,3-11A,minor
1130,42,47,323,491,9.0,3-11A,minor
1131,69,68,232,1115,4.0,2-3,minor
1132,72,43,551,1627,9.0,2-3,minor
1133,69,24,93,35,9.0,2-3,minor
1134,62,35,78,245,9.0,2-3,minor
1135,41,35,581,1152,6.0,2-3,minor
1136,48,41,498,46,6.0,2-3,minor
1137,63,49,691,39,6.0,2-3,minor
1138,72,57,202,563,11.0,2-3,minor
1139,77,67,111,2649,1.0,4-15B,other
1140,79,44,157,221,1.0,4-15B,other
1141,82,72,110,238,1.0,4-15B,other
1142,69,42,160,251,1.0,4-15B,other
1143,71,50,107,246,1.0,4-15B,other
1144,73,39,249,205,1.0,4-15B,other
1145,76,58,107,254,1.0,4-15B,other
1146,70,46,140,474,0.0,3-8B,other
1147,72,36,199,216,0.0,3-8B,other
1148,75,52,103,237,0.0,3-8B,other
1149,64,51,159,501,2.0,2-2,other
1150,66,49,231,220,2.0,2-2,other
1151,69,51,158,256,2.0,2-2,other
1152,67,63,190,719,7.0,2-2,other
1153,69,73,158,272,7.0,2-2,other
1154,53,24,736,243,3.0,2-4,other
1155,73,43,142,240,3.0,2-4,other
1156,74,68,104,434,3.0,2-4,other
1157,75,70,210,164,3.0,2-4,other
1158,76,64,257,180,2.0,3-9,other
1159,67,54,83,239,2.0,3-9,other
1160,67,55,154,369,2.0,3-9,other
1161,69,40,98,166,2.0,3-9,other
1162,67,44,96,74,2.0,3-9,other
1163,66,50,72,88,2.0,3-9,other
1164,76,69,99,566,7.0,3-9,other
1165,38,44,84,1857,2.0,2-5,other
1166,67,87,270,990,1.0,2-5,other
1167,53,24,948,351,3.0,2-4,other
1168,67,61,212,51,3.0,2-4,other
1169,69,42,88,267,3.0,2-4,other
1170,67,40,140,40,3.0,2-4,other
1171,66,46,98,122,3.0,2-4,other
1172,67,44,52,177,3.0,2-4,other
1173,79,67,85,172,3.0,2-4,other
1174,75,62,123,404,3.0,2-4,other
1175,67,54,708,288,3.0,2-4,other
1176,63,43,124,415,3.0,2-4,other
1177,56,36,119,44,3.0,2-4,other
1178,53,20,157,1943,10.0,3-4A,major
1179,86,64,229,365,10.0,3-4A,major
1180,82,67,223,282,10.0,3-4A,major
1181,73,33,235,545,1.0,2-3,minor
1182,72,32,238,279,1.0,2-3,minor
1183,70,67,164,1024,0.0,2-2,other
1184,70,36,115,529,8.0,2-3,other
1185,68,35,81,85,8.0,2-3,other
1186,68,53,153,215,8.0,2-3,other
1187,63,37,533,489,8.0,2-3,other
1188,47,22,176,2861,4.0,3-11A,minor
1189,62,18,87,39,4.0,3-11A,minor
1190,54,70,1005,4176,9.0,3-11A,minor
1191,72,43,185,559,9.0,3-11A,minor
1192,71,31,96,561,6.0,4-4A,minor
1193,74,54,626,461,11.0,2-6,other
1194,64,41,360,852,11.0,2-6,other
1195,59,33,352,26,11.0,2-6,other
1196,81,42,119,719,11.0,2-6,other
1197,90,56,107,547,2.0,3-9,other
1198,92,58,119,236,2.0,3-9,other
1199,90,44,179,924,4.0,2-4,major
1200,88,44,127,260,4.0,2-4,major
1201,81,62,225,753,6.0,3-11A,minor
1202,83,35,129,718,5.0,4-24,augmented
1203,85,57,198,184,5.0,4-24,augmented
1204,74,65,231,953,2.0,2-4,major
1205,76,43,126,303,2.0,2-4,major
1206,68,52,303,650,5.0,3-5B,other
1207,53,19,89,513,4.0,3-5A,other
1208,72,43,158,267,4.0,3-5A,other
1209,67,36,291,173,4.0,3-5A,other
1210,71,36,219,730,9.0,2-2,other
1211,72,36,198,233,9.0,2-2,other
1212,74,50,96,255,9.0,2-2,other
1213,36,34,91,212,9.0,2-2,other
1214,83,54,433,77,9.0,2-2,other
1215,76,43,401,946,4.0,2-3,minor
1216,62,22,370,73,4.0,2-3,minor
1217,71,46,294,408,4.0,2-3,minor
1218,53,24,322,536,7.0,2-4,major
1219,43,19,1088,1852,7.0,2-2,other
1220,42,25,236,3545,11.0,2-6,other
1221,43,27,195,278,11.0,2-6,other
1222,62,34,217,74,10.0,2-5,other
1223,69,32,84,1070,0.0,2-4,other
1224,70,56,112,110,0.0,2-4,other
1225,69,33,64,132,0.0,2-4,other
1226,67,44,124,62,0.0,2-4,other
1227,70,47,44,228,0.0,2-4,other
1228,72,24,78,165,0.0,2-4,other
1229,73,31,51,110,0.0,2-4,other
1230,75,46,112,68,0.0,2-4,other
1231,76,58,116,138,0.0,2-4,other
1232,78,46,52,141,0.0,2-4,other
1233,81,24,51,317,0.0,2-4,other
1234,82,47,100,55,0.0,2-4,other
1235,83,37,84,123,0.0,2-4,other
1236,84,51,111,125,4.0,2-6,other
1237,82,55,123,269,4.0,2-6,other
1238,80,50,178,232,4.0,2-6,other
1239,79,39,104,212,4.0,2-6,other
1240,63,36,1532,205,0.0,2-2,other
1241,53,15,1385,35,0.0,2-2,other
1242,80,59,233,330,0.0,2-2,other
1243,77,46,138,264,0.0,2-2,other
1244,75,62,168,340,0.0,2-2,other
1245,73,33,245,588,0.0,2-2,other
1246,62,25,104,377,7.0,3-5B,other
1247,77,48,169,307,7.0,3-5B,other
1248,65,26,158,322,7.0,3-5B,other
1249,47,34,711,969,8.0,2-2,other
1250,58,37,374,1496,4.0,4-26,minor
1251,59,35,302,565,4.0,3-7B,other
1252,72,34,654,1285,6.0,3-10,other
1253,82,82,251,6169,7.0,3-5B,other
1254,55,27,1502,368,6.0,4-14A,minor
1255,75,60,261,907,9.0,2-1,other
1256,76,32,211,62,9.0,2-1,other
1257,69,27,227,1559,2.0,2-2,other
1258,70,35,117,285,2.0,2-2,other
1259,71,54,174,64,2.0,2-2,other
1260,72,32,261,60,2.0,2-2,other
1261,71,50,169,503,2.0,2-2,other
1262,70,39,135,42,2.0,2-2,other
1263,72,40,260,59,2.0,2-2,other
1264,53,17,238,451,4.0,2-5,other
1265,71,55,149,497,4.0,2-5,other
1266,53,24,353,417,3.0,2-4,major
1267,63,34,265,548,3.0,2-4,major
1268,59,20,164,33,3.0,2-4,major
1269,36,30,476,328,3.0,2-4,major
1270,43,32,270,581,3.0,2-4,major
1271,52,34,258,372,3.0,2-4,major
1272,43,26,281,295,7.0,4-22A,major
1273,43,27,323,606,4.0,5-35,minor
1274,43,30,336,624,4.0,5-35,minor
1275,36,32,309,391,7.0,4-22A,major
1276,43,32,334,258,7.0,4-22A,major
1277,59,22,224,353,4.0,4-23,minor
1278,43,29,312,292,4.0,4-23,minor
1279,44,33,301,619,4.0,4-19A,minor
1280,37,30,303,360,3.0,3-12,augmented
1281,44,37,155,280,3.0,3-12,augmented
1282,44,28,292,629,3.0,2-4,major
1283,44,38,331,567,7.0,2-2,other
1284,53,40,227,342,3.0,3-12,augmented
1285,44,37,313,275,3.0,3-12,augmented
1286,53,35,359,344,3.0,3-12,augmented
1287,62,34,128,1447,7.0,4-14A,minor
1288,58,38,142,33,7.0,4-14A,minor
1289,62,32,160,257,7.0,4-14A,minor
1290,65,42,141,271,7.0,4-14A,minor
1291,52,20,168,378,0.0,3-8A,major
1292,72,25,791,978,4.0,3-6,major
1293,41,32,182,892,4.0,3-6,major
1294,56,17,230,90,0.0,4-16A,other
1295,68,59,241,1444,0.0,4-16A,other
1296,65,34,636,481,0.0,2-3,minor
1297,46,55,612,431,0.0,2-3,minor
1298,46,37,109,919,7.0,2-5,other
1299,52,46,148,531,4.0,3-7A,minor
1300,55,57,315,552,4.0,4-26,minor
1301,79,54,311,2313,9.0,6-32,minor
1302,57,57,137,489,0.0,3-11B,major
1303,59,40,74,1563,5.0,3-11B,major
1304,58,37,110,90,5.0,3-11B,major
1305,57,52,293,138,5.0,3-11B,major
1306,72,51,119,39,5.0,3-11B,major
1307,43,26,246,1440,5.0,2-2,other
1308,69,55,123,633,5.0,2-2,other
1309,62,40,684,2223,4.0,4-22B,minor
1310,36,24,403,41,4.0,4-22B,minor
1311,62,34,467,987,4.0,2-5,other
1312,62,35,269,978,7.0,1-1,other
1313,69,46,139,1166,4.0,2-6,other
1314,70,59,77,156,4.0,2-6,other
1315,72,27,56,190,4.0,2-6,other
1316,73,36,110,79,4.0,2-6,other
1317,75,50,106,110,4.0,2-6,other
1318,61,29,139,175,4.0,1-1,other
1319,58,38,146,27,4.0,1-1,other
1320,78,50,45,78,4.0,1-1,other
1321,79,36,112,142,4.0,1-1,other
1322,81,47,104,118,4.0,1-1,other
1323,82,49,44,110,4.0,1-1,other
1324,84,39,101,146,4.0,1-1,other
1325,85,31,96,124,4.0,1-1,other
1326,87,34,137,107,4.0,1-1,other
1327,91,66,157,279,9.0,3-7B,other
1328,89,60,166,247,9.0,3-7B,other
1329,88,62,155,215,9.0,3-7B,other
1330,87,58,169,249,9.0,3-7B,other
1331,50,19,632,168,9.0,2-3,minor
1332,88,58,299,52,9.0,2-3,minor
1333,53,38,213,992,2.0,2-2,other
1334,57,31,196,32,2.0,2-2,other
1335,61,37,241,356,1.0,4-28,diminished
1336,52,32,115,1554,2.0,5-27B,minor
1337,31,57,183,863,2.0,4-26,minor
1338,56,59,496,2440,11.0,2-3,minor
1339,58,39,415,957,9.0,2-2,other
1340,48,39,1111,922,11.0,4-23,minor
1341,55,29,879,472,11.0,4-23,minor
1342,60,35,887,472,11.0,4-23,minor
1343,72,26,820,520,2.0,2-3,minor
1344,57,34,609,456,2.0,2-3,minor
1345,58,33,277,1012,1.0,2-3,other
1346,54,23,220,37,1.0,2-3,other
1347,67,44,586,392,4.0,3-7B,other
1348,48,14,314,1957,7.0,1-1,other
1349,67,59,186,2982,6.0,2-6,other
1350,71,48,64,50,6.0,2-6,other
1351,72,45,132,250,6.0,2-6,other
1352,60,35,690,429,4.0,3-7B,other
1353,64,29,143,964,11.0,2-3,minor
1354,66,56,199,1696,11.0,2-2,other
1355,59,44,186,158,11.0,2-2,other
1356,57,24,105,155,11.0,2-2,other
1357,67,55,191,59,11.0,2-2,other
1358,59,43,149,161,11.0,2-2,other
1359,69,46,146,183,11.0,2-2,other
1360,59,37,132,186,11.0,2-2,other
1361,71,64,156,160,11.0,2-2,other
1362,59,44,88,223,11.0,2-2,other
1363,72,47,178,162,11.0,2-2,other
1364,72,53,168,299,11.0,2-2,other
1365,59,32,952,285,11.0,2-2,other
1366,57,47,176,388,11.0,2-2,other
1367,47,40,393,621,11.0,2-2,other
1368,55,36,303,384,4.0,3-7B,other
1369,62,40,519,791,4.0,3-7B,other
1370,67,61,348,550,7.0,2-4,major
1371,55,19,384,1286,5.0,2-4,other
1372,67,51,223,356,5.0,2-4,other
1373,68,60,243,291,5.0,2-4,other
1374,50,24,1460,331,9.0,2-3,minor
1375,64,46,688,263,9.0,2-3,minor
1376,66,60,690,1263,5.0,2-4,major
1377,64,42,224,325,5.0,2-4,major
1378,59,36,276,28,5.0,2-4,major
1379,53,17,301,30,5.0,2-4,major
1380,67,55,325,312,5.0,2-4,major
1381,68,67,362,288,5.0,2-4,major
1382,53,20,283,397,3.0,2-4,major
1383,71,46,216,252,3.0,2-4,major
1384,52,24,427,680,2.0,2-2,other
1385,67,44,678,348,2.0,2-2,other
1386,57,33,308,640,11.0,2-3,minor
1387,52,7,708,86,11.0,2-3,minor
1388,62,16,264,263,11.0,2-3,minor
1389,51,46,384,1173,4.0,3-7A,minor
1390,52,32,327,434,4.0,3-7A,minor
1391,48,27,43,480,4.0,3-7A,minor
1392,65,27,877,505,1.0,6-34B,other
1393,62,33,153,3782,7.0,3-7A,minor
1394,69,59,132,1359,5.0,1-1,other
1395,57,34,179,28,5.0,1-1,other
1396,67,36,227,1486,1.0,3-10,minor
1397,57,35,394,538,0.0,3-11B,major
1398,63,40,692,1342,0.0,2-4,other
1399,53,19,1036,32,0.0,2-4,other
1400,62,26,418,1874,11.0,2-6,other
1401,55,19,317,997,4.0,3-7A,minor
1402,58,27,404,2946,1.0,4-26,other
1403,57,28,340,912,2.0,4-26,minor
1404,43,66,466,4267,0.0,3-6,major
1405,50,81,409,435,0.0,3-6,major
1406,52,76,1050,464,0.0,3-6,major
1407,55,83,1112,984,1.0,4-28,diminished
1408,52,45,535,988,1.0,4-28,diminished
1409,55,49,759,976,5.0,2-4,major
1410,43,49,1454,442,5.0,2-4,major
1411,65,8,380,511,9.0,3-7A,minor
1412,63,30,603,1502,7.0,2-4,major
1413,64,36,384,1883,0.0,3-6,major
1414,81,53,401,490,0.0,2-1,other
1415,79,26,108,141,0.0,2-1,other
1416,78,46,112,99,0.0,2-1,other
1417,79,50,123,183,0.0,2-1,other
1418,86,68,135,184,0.0,2-1,other
1419,86,58,141,314,0.0,2-1,other
1420,86,72,148,316,0.0,2-1,other
1421,64,19,154,307,7.0,2-5,other
1422,62,19,156,50,7.0,2-5,other
1423,84,45,185,211,7.0,2-5,other
1424,86,57,256,278,7.0,2-5,other
1425,53,14,293,355,3.0,3-12,augmented
1426,55,41,294,2127,3.0,3-12,augmented
1427,56,63,349,360,3.0,3-12,augmented
1428,56,46,269,664,3.0,4-19B,other
1429,56,43,232,650,3.0,4-19B,other
1430,43,34,688,698,10.0,2-5,other
1431,57,74,361,324,10.0,2-5,other
1432,50,33,272,34,10.0,2-5,other
1433,58,82,396,251,10.0,2-5,other
1434,53,25,81,106,10.0,2-5,other
1435,62,74,216,195,10.0,2-5,other
1436,65,71,194,214,10.0,2-5,other
1437,58,57,526,265,0.0,2-4,major
1438,61,30,47,600,0.0,2-4,major
1439,48,33,300,1201,5.0,3-11A,other
1440,60,74,629,894,3.0,3-11B,major
1441,55,24,266,2898,4.0,3-7A,minor
1442,58,51,401,2297,4.0,4-26,minor
1443,67,40,139,469,9.0,3-11A,minor
1444,62,45,395,971,5.0,4-20,major
1445,61,57,331,463,5.0,4-20,major
1446,72,66,559,470,9.0,3-7B,other
1447,62,52,658,468,9.0,3-7B,other
1448,74,38,421,1521,7.0,1-1,other
1449,77,43,350,464,7.0,1-1,other
1450,76,51,166,971,4.0,3-8A,major
1451,67,20,404,485,4.0,3-8A,major
1452,74,55,209,441,4.0,3-8A,major
1453,72,38,154,256,4.0,3-8A,major
1454,65,28,266,263,1.0,3-10,other
1455,65,18,83,508,1.0,2-3,other
1456,55,25,299,448,9.0,3-11B,major
1457,50,53,1412,838,9.0,3-11B,major
1458,74,81,251,675,2.0,2-2,other
1459,60,28,571,43,2.0,2-2,other
1460,70,57,222,887,2.0,2-2,other
1461,43,35,160,1399,7.0,2-5,other
1462,53,26,126,26,7.0,2-5,other
1463,65,55,283,503,7.0,2-5,other
1464,64,60,223,937,0.0,2-4,major
1465,63,42,155,246,0.0,2-4,major
1466,64,45,253,205,0.0,2-4,major
1467,71,61,587,297,0.0,2-4,major
1468,64,63,214,1072,0.0,2-4,major
1469,63,45,156,242,0.0,2-4,major
1470,64,60,575,215,0.0,2-4,major
1471,71,58,696,319,2.0,2-5,other
1472,65,60,270,667,2.0,2-5,other
1473,65,59,227,470,1.0,2-5,other
1474,64,50,210,262,1.0,2-5,other
1475,65,32,120,224,1.0,2-5,other
1476,53,24,326,40,1.0,2-5,other
1477,75,64,1623,263,1.0,2-5,other
1478,67,39,398,1726,3.0,2-1,other
1479,55,28,578,969,2.0,2-3,minor
1480,43,30,457,599,2.0,2-3,minor
1481,53,27,256,398,10.0,2-4,major
1482,65,61,542,304,10.0,2-4,major
1483,36,29,160,589,10.0,2-4,major
1484,61,33,385,59,4.0,2-6,other
1485,61,37,724,897,4.0,2-6,other
1486,49,30,549,80,4.0,4-21,other
1487,48,30,205,969,5.0,3-11A,other
1488,77,32,266,2410,10.0,3-3A,major
1489,77,32,137,484,8.0,3-10,diminished
1490,66,46,240,3204,1.0,2-2,other
1491,69,29,264,34,1.0,2-2,other
1492,60,28,420,458,6.0,3-10,other
1493,63,49,211,442,6.0,3-10,other
1494,54,46,915,1045,9.0,4-22B,minor
1495,60,48,315,490,4.0,3-11B,major
1496,71,45,103,512,9.0,4-19A,minor
1497,43,36,700,933,5.0,3-11B,major
1498,53,28,543,513,3.0,3-11A,other
1499,43,19,67,507,3.0,3-11A,other
1500,57,32,1774,471,7.0,2-5,other
1501,43,34,1575,444,7.0,2-5,other
1502,52,43,361,487,7.0,2-5,other
1503,52,48,226,466,7.0,2-5,other
1504,36,50,181,483,7.0,2-5,other
1505,52,36,202,2956,4.0,4-23,minor
1506,67,58,143,366,4.0,4-23,minor
1507,69,58,186,233,4.0,4-23,minor
1508,72,49,179,516,4.0,2-6,other
1509,73,51,110,223,4.0,2-6,other
1510,77,66,153,241,4.0,2-6,other
1511,81,57,136,214,5.0,2-4,other
1512,55,10,206,44,5.0,2-4,other
1513,84,64,133,164,5.0,2-4,other
1514,88,55,170,211,5.0,2-4,other
1515,86,25,43,32,5.0,2-4,other
1516,91,64,195,205,5.0,2-4,other
1517,89,45,135,307,2.0,3-11A,minor
1518,53,20,573,947,9.0,2-3,minor
1519,89,65,131,233,9.0,2-3,minor
1520,88,67,179,51,9.0,2-3,minor
1521,88,71,154,432,9.0,2-3,minor
1522,86,62,200,506,5.0,4-20,major
1523,86,67,185,352,5.0,4-20,major
1524,81,51,155,235,5.0,4-20,major
1525,57,24,561,308,9.0,2-3,minor
1526,84,60,239,216,9.0,2-3,minor
1527,81,47,265,277,9.0,2-3,minor
1528,83,24,1083,682,11.0,2-6,other
1529,91,71,716,280,11.0,2-6,other
1530,43,30,231,347,11.0,2-6,other
1531,61,38,294,1932,11.0,2-6,other
1532,50,44,139,825,7.0,3-8A,major
1533,51,40,141,103,7.0,3-8A,major
1534,53,22,499,1951,4.0,4-17,other
1535,64,17,205,1356,5.0,2-1,other
1536,67,65,221,995,0.0,2-4,major
1537,67,80,348,457,0.0,2-4,major
1538,62,80,264,458,0.0,2-4,major
1539,62,88,393,479,0.0,2-4,major
1540,57,52,633,985,9.0,3-7B,other
1541,43,30,181,488,9.0,3-7B,other
1542,60,30,649,1534,6.0,3-7A,minor
1543,69,75,359,435,7.0,2-4,major
1544,72,59,327,27,7.0,2-4,major
1545,64,32,134,513,9.0,2-3,minor
1546,60,18,595,64,9.0,2-3,minor
1547,69,39,193,370,7.0,2-4,major
1548,64,28,99,511,6.0,2-3,minor
1549,60,25,154,30,6.0,2-3,minor
1550,57,27,389,1828,0.0,2-4,major
1551,47,45,215,1822,9.0,3-8A,other
1552,70,53,220,951,9.0,3-8A,other
1553,72,49,180,291,4.0,3-8B,other
1554,74,43,152,240,4.0,3-8B,other
1555,76,61,175,278,4.0,3-8B,other
1556,69,43,199,233,4.0,3-8B,other
1557,62,17,133,44,4.0,3-8B,other
1558,58,26,167,30,4.0,3-8B,other
1559,55,17,726,944,5.0,2-4,other
1560,70,55,310,2115,0.0,3-8B,other
1561,72,40,193,264,0.0,3-8B,other
1562,75,67,239,220,0.0,3-8B,other
1563,60,31,490,223,0.0,3-8B,other
1564,67,44,222,30,0.0,3-8B,other
1565,67,54,199,457,0.0,3-8B,other
1566,59,33,321,484,5.0,2-1,other
1567,53,18,279,1016,3.0,3-12,augmented
1568,51,42,135,1823,0.0,2-4,major
1569,66,51,155,406,4.0,4-23,minor
1570,51,28,202,40,4.0,4-23,minor
1571,51,40,360,1169,4.0,4-23,minor
1572,66,21,116,89,4.0,4-23,minor
1573,44,33,144,1389,1.0,5-30A,other
1574,63,20,74,1044,7.0,2-4,major
1575,53,44,365,625,3.0,4-19A,other
1576,37,34,68,782,3.0,4-19A,other
1577,44,35,100,92,3.0,4-19A,other
1578,53,33,375,762,3.0,3-12,augmented
1579,54,40,282,953,7.0,4-26,minor
1580,43,39,148,938,7.0,3-11A,minor
1581,68,20,62,420,1.0,4-12A,minor
1582,60,36,252,1923,3.0,3-7A,other
1583,51,18,292,27,3.0,3-7A,other
1584,56,21,70,2805,8.0,3-8A,other
1585,69,15,270,1097,7.0,1-1,other
1586,67,44,157,238,7.0,1-1,other
1587,66,30,118,164,7.0,1-1,other
1588,67,34,57,229,7.0,1-1,other
1589,79,53,147,518,7.0,1-1,other
1590,79,42,163,294,7.0,1-1,other
1591,79,40,1364,314,6.0,2-3,other
1592,60,29,338,1011,6.0,2-3,other
1593,77,78,159,609,6.0,2-3,other
1594,73,23,126,305,6.0,2-3,other
1595,72,24,389,188,5.0,2-4,major
1596,65,29,411,823,9.0,2-3,minor
1597,54,30,200,962,4.0,3-11B,major
1598,62,35,1870,1882,9.0,2-2,other
1599,51,53,465,509,9.0,2-2,other
1600,52,42,969,493,9.0,2-2,other
1601,43,33,236,425,9.0,2-2,other
1602,43,35,953,458,9.0,2-2,other
1603,52,37,410,534,9.0,3-11B,major
1604,43,52,383,503,9.0,3-11B,major
1605,43,35,743,480,9.0,3-11B,major
1606,57,48,999,450,0.0,2-5,other
1607,43,65,394,477,0.0,2-5,other
1608,43,34,698,504,0.0,2-5,other
1609,43,58,340,907,4.0,4-17,other
1610,43,66,418,522,4.0,4-17,other
1611,53,49,287,480,4.0,3-11B,major
1612,43,42,768,448,4.0,3-11B,major
1613,36,62,426,266,4.0,3-11B,major
1614,52,44,394,186,4.0,3-11B,major
1615,67,45,264,2890,4.0,3-11A,minor
1616,79,27,106,3118,11.0,2-6,other
1617,79,24,227,724,3.0,2-4,other
1618,70,37,264,214,3.0,2-4,other
1619,43,32,174,1685,7.0,2-3,minor
1620,62,47,43,348,7.0,2-3,minor
1621,65,55,106,215,7.0,2-3,minor
1622,69,74,120,229,7.0,2-3,minor
1623,36,26,1322,205,7.0,2-3,minor
1624,70,60,139,322,0.0,3-11B,major
1625,66,48,153,226,0.0,3-11B,major
1626,64,60,125,210,0.0,3-11B,major
1627,63,58,130,238,0.0,3-11B,major
1628,62,60,138,239,0.0,3-11B,major
1629,61,52,183,165,0.0,3-11B,major
1630,60,44,98,186,0.0,3-11B,major
1631,58,38,107,188,0.0,3-11B,major
1632,57,41,125,156,0.0,3-11B,major
1633,56,53,1013,157,0.0,3-11B,major
1634,41,30,2953,40,0.0,3-11B,major
1635,51,31,723,773,0.0,3-11B,major
1636,58,46,166,273,0.0,3-11B,major
1637,56,35,122,83,0.0,3-11B,major
1638,55,28,79,117,0.0,3-11B,major
1639,56,21,102,160,0.0,3-11B,major
1640,58,34,65,142,0.0,3-11B,major
1641,60,53,52,138,0.0,3-11B,major
1642,51,29,418,49,0.0,3-11B,major
1643,63,48,175,96,0.0,3-11B,major
1644,60,44,56,243,0.0,3-11B,major
1645,62,44,99,180,0.0,3-11B,major
1646,63,63,95,214,0.0,3-11B,major
1647,67,56,112,397,5.0,2-2,other
1648,69,53,114,216,5.0,2-2,other
1649,70,31,93,209,5.0,2-2,other
1650,71,24,109,138,5.0,2-2,other
1651,74,66,180,140,5.0,2-2,other
1652,62,34,300,64,5.0,2-2,other
1653,52,17,1081,62,7.0,2-4,major
1654,71,45,183,57,7.0,2-4,major
1655,71,60,147,288,7.0,2-4,major
1656,71,60,147,256,7.0,2-4,major
1657,71,60,147,256,7.0,2-4,major
1658,59,22,230,51,7.0,2-4,major
1659,67,45,219,206,7.0,2-4,major
1660,64,50,126,301,7.0,2-4,major
1661,62,36,590,533,2.0,3-3A,major
1662,54,27,795,1951,0.0,3-12,augmented
1663,68,18,330,1083,6.0,2-6,other
1664,55,33,520,788,11.0,3-5A,other
1665,53,22,261,950,0.0,4-19B,other
1666,74,56,188,506,0.0,4-19B,other
1667,56,34,681,1433,2.0,2-3,minor
1668,76,55,189,469,2.0,2-3,minor
1669,70,32,764,526,1.0,3-8A,other
1670,45,52,63,495,1.0,3-8A,other
1671,64,67,363,974,10.0,3-11A,other
1672,60,53,444,1007,2.0,4-27A,minor
1673,52,37,84,963,5.0,2-5,other
1674,62,35,649,2376,0.0,3-4B,other
1675,55,69,1688,1422,7.0,4-22A,major
1676,59,22,519,522,7.0,3-9,other
1677,52,45,50,473,7.0,3-9,other
1678,59,30,571,458,7.0,3-9,other
1679,55,69,922,442,7.0,3-9,other
1680,63,64,702,485,7.0,3-9,other
1681,67,29,767,67,7.0,3-9,other
1682,58,9,466,48,7.0,3-9,other
1683,53,54,445,342,7.0,3-9,other
1684,58,35,460,526,3.0,2-4,major
1685,49,43,1013,459,3.0,2-4,major
1686,59,54,756,451,3.0,2-5,other
1687,67,29,749,38,3.0,2-5,other
1688,55,54,366,394,3.0,2-5,other
1689,54,47,264,798,3.0,3-12,augmented
1690,59,35,105,262,3.0,3-4B,other
1691,54,23,44,374,3.0,3-4B,other
1692,55,60,422,550,7.0,4-26,minor
1693,54,57,435,483,7.0,4-26,minor
1694,48,54,784,1457,1.0,3-10,minor
1695,63,47,671,1414,0.0,2-4,other
1696,65,34,615,54,0.0,2-4,other
1697,65,33,703,903,0.0,3-11B,other
1698,46,43,141,1914,8.0,2-3,minor
1699,67,45,114,2191,4.0,3-11A,minor
1700,67,55,120,209,4.0,3-11A,minor
1701,67,57,159,224,4.0,3-11A,minor
1702,63,25,115,277,7.0,3-9,other
1703,69,31,380,459,7.0,2-5,other
1704,67,17,93,1023,0.0,2-3,minor
1705,62,47,89,333,0.0,2-3,minor
1706,72,45,70,532,5.0,3-4A,major
1707,60,50,105,947,2.0,3-7A,minor
1708,63,46,390,1937,8.0,2-2,other
1709,62,34,303,1449,0.0,2-5,other
1710,35,32,261,436,0.0,2-5,other
1711,65,40,192,1005,10.0,2-4,major
1712,67,43,92,3665,4.0,3-8B,other
1713,69,28,145,240,4.0,3-8B,other
1714,70,57,143,231,4.0,3-8B,other
1715,58,34,238,206,1.0,2-3,minor
1716,72,28,175,41,1.0,2-3,minor
1717,73,58,124,221,1.0,2-3,minor
1718,75,53,144,219,1.0,2-3,minor
1719,76,61,130,231,1.0,2-3,minor
1720,50,38,91,170,1.0,2-3,minor
1721,79,57,169,37,1.0,2-3,minor
1722,76,52,136,250,1.0,2-3,minor
1723,77,53,127,186,1.0,2-3,minor
1724,81,44,183,244,1.0,2-3,minor
1725,64,29,152,137,1.0,2-3,minor
1726,57,38,170,34,1.0,2-3,minor
1727,84,43,114,40,1.0,2-3,minor
1728,88,55,130,238,1.0,2-3,minor
1729,88,56,167,223,7.0,1-1,other
1730,79,24,64,300,4.0,2-3,minor
1731,53,24,318,1140,2.0,4-26,minor
1732,53,24,302,993,4.0,3-4B,other
1733,43,42,360,919,7.0,2-4,major
1734,53,28,467,992,4.0,3-11A,minor
1735,79,33,187,444,5.0,2-4,major
1736,75,47,143,41,5.0,2-4,major
1737,53,33,544,479,3.0,2-4,major
1738,67,41,135,1469,2.0,3-9,other
1739,67,54,82,284,2.0,3-9,other
1740,69,32,99,452,7.0,3-9,other
1741,67,41,142,76,7.0,3-9,other
1742,66,51,170,84,7.0,3-9,other
1743,67,37,131,237,7.0,3-9,other
1744,76,74,1302,206,7.0,3-9,other
1745,67,70,279,1699,4.0,3-5B,other
1746,52,18,169,428,2.0,3-9,other
1747,43,38,795,510,2.0,3-9,other
1748,43,41,182,901,2.0,3-9,other
1749,68,51,806,390,9.0,5-27B,minor
1750,45,36,115,1544,9.0,4-26,minor
1751,67,55,216,917,6.0,2-3,minor
1752,71,38,162,615,6.0,2-6,other
1753,72,49,189,272,6.0,2-6,other
1754,74,64,200,249,6.0,2-6,other
1755,64,42,156,186,6.0,2-6,other
1756,60,25,523,37,6.0,2-6,other
1757,76,61,191,47,6.0,2-6,other
1758,78,48,143,287,6.0,2-6,other
1759,79,64,190,211,6.0,2-6,other
1760,81,65,166,232,6.0,2-6,other
1761,60,22,184,118,6.0,2-2,other
1762,83,59,112,119,6.0,2-2,other
1763,84,53,172,203,6.0,2-2,other
1764,86,54,205,220,6.0,2-2,other
1765,88,62,1098,241,6.0,2-2,other
1766,35,46,187,223,6.0,2-2,other
1767,47,57,914,969,6.0,2-2,other
1768,57,66,1173,500,6.0,2-2,other
1769,51,57,670,458,0.0,4-16A,major
1770,55,25,287,1969,11.0,2-3,minor
1771,72,33,52,1233,4.0,2-5,other
1772,71,57,182,60,4.0,2-5,other
1773,70,37,145,142,4.0,2-5,other
1774,71,52,60,278,4.0,2-5,other
1775,84,64,99,239,5.0,3-8B,other
1776,84,69,154,332,5.0,3-8B,other
1777,73,42,806,280,5.0,3-8B,other
1778,61,46,264,267,5.0,3-8B,other
1779,65,43,154,29,5.0,3-8B,other
1780,72,51,930,618,5.0,3-8B,other
1781,57,28,426,347,2.0,2-2,other
1782,73,58,256,610,2.0,2-2,other
1783,77,52,114,654,2.0,3-8A,major
1784,81,85,208,313,2.0,3-8A,major
1785,59,32,237,349,4.0,3-5A,other
1786,83,69,201,338,4.0,3-5A,other
1787,84,80,582,306,4.0,3-5A,other
1788,43,38,175,292,4.0,3-5A,other
1789,85,71,225,303,4.0,3-5A,other
1790,86,62,205,229,4.0,3-5A,other
1791,87,56,131,191,4.0,3-5A,other
1792,88,49,125,150,4.0,3-5A,other
1793,52,38,502,174,5.0,3-9,other
1794,90,62,123,134,5.0,3-9,other
1795,91,68,213,176,5.0,3-9,other
1796,62,40,674,645,5.0,3-9,other
1797,67,80,149,628,9.0,2-5,other
1798,57,39,1195,405,4.0,3-7A,minor
1799,69,35,53,326,4.0,3-7A,minor
1800,71,53,44,61,4.0,3-7A,minor
1801,72,57,43,70,4.0,3-7A,minor
1802,74,65,44,39,4.0,3-7A,minor
1803,76,54,51,43,4.0,3-7A,minor
1804,81,51,44,469,7.0,2-2,other
1805,83,71,44,36,7.0,2-2,other
1806,84,71,89,42,7.0,2-2,other
1807,86,51,66,59,7.0,2-2,other
1808,88,45,45,77,7.0,2-2,other
1809,89,75,43,42,7.0,2-2,other
1810,91,66,397,45,7.0,2-2,other
1811,90,27,45,1513,7.0,1-1,other
1812,59,31,554,429,7.0,1-1,other
1813,63,40,592,482,3.0,3-12,augmented
1814,59,31,941,473,3.0,3-12,augmented
1815,56,39,64,949,3.0,4-27A,other
1816,62,57,147,1832,7.0,2-3,minor
1817,48,48,137,986,1.0,3-10,minor
1818,65,39,267,1577,0.0,3-11B,other
1819,60,40,287,984,3.0,3-7A,other
1820,65,45,506,1888,8.0,3-10,diminished
1821,55,24,325,924,4.0,4-26,minor
1822,78,33,677,1923,2.0,2-4,major
1823,60,22,269,998,6.0,3-10,diminished
1824,63,33,56,839,6.0,3-10,diminished
1825,72,42,130,931,5.0,3-11B,major
1826,65,35,73,41,5.0,3-11B,major
1827,57,32,189,34,5.0,3-11B,major
1828,65,32,85,1465,3.0,4-16A,other
1829,55,41,415,5303,5.0,3-11B,major
1830,43,57,150,444,5.0,3-11B,major
1831,31,36,58,492,5.0,3-11B,major
1832,43,43,200,1463,5.0,2-1,other
1833,43,20,370,933,5.0,2-1,other
1834,67,43,114,1014,0.0,2-5,other
1835,79,59,96,934,9.0,2-5,other
1836,91,62,101,942,9.0,2-3,minor
1837,101,49,73,498,9.0,2-2,other
1838,103,48,202,452,9.0,2-2,other
1839,58,46,159,2789,3.0,3-6,major
1840,53,19,103,27,3.0,3-6,major
1841,101,58,239,443,3.0,3-6,major
1842,103,25,192,41,3.0,3-6,major
1843,43,50,480,963,3.0,2-5,other
1844,46,57,148,456,3.0,2-5,other
1845,62,36,105,546,3.0,2-5,other
1846,89,39,164,439,10.0,2-1,other
1847,98,39,121,29,10.0,2-1,other
1848,58,34,134,1474,1.0,2-3,minor
1849,99,60,127,273,1.0,2-3,minor
1850,98,25,157,194,1.0,2-3,minor
1851,97,43,215,129,1.0,2-3,minor
1852,96,31,101,155,1.0,2-3,minor
1853,95,54,101,110,1.0,2-3,minor
1854,93,62,142,282,10.0,2-5,other
1855,92,67,174,144,10.0,2-5,other
1856,92,58,143,342,10.0,2-5,other
1857,63,38,186,261,10.0,2-5,other
1858,94,40,167,209,8.0,2-3,other
1859,92,35,111,119,8.0,2-3,other
1860,91,33,85,129,8.0,2-3,other
1861,92,51,127,132,8.0,2-3,other
1862,40,43,167,2246,8.0,2-2,other
1863,55,35,306,31,8.0,2-2,other
1864,91,77,188,494,8.0,2-2,other
1865,93,44,130,678,4.0,3-11A,minor
1866,91,41,148,88,4.0,3-11A,minor
1867,90,39,143,120,4.0,3-11A,minor
1868,91,46,115,311,4.0,3-11A,minor
1869,86,50,118,1116,2.0,3-3A,major
1870,97,55,144,257,2.0,3-3A,major
1871,96,40,164,229,2.0,3-3A,major
1872,92,46,149,250,2.0,3-3A,major
1873,38,34,119,152,2.0,3-3A,major
1874,93,60,155,565,5.0,2-5,other
1875,84,36,87,868,5.0,2-4,major
1876,54,25,889,640,5.0,2-5,other
1877,106,81,193,518,5.0,2-5,other
1878,104,72,206,293,5.0,2-5,other
1879,64,37,616,197,5.0,2-5,other
1880,53,22,650,31,5.0,2-5,other
1881,95,56,123,294,3.0,2-4,other
1882,98,60,168,213,3.0,2-4,other
1883,99,69,138,248,3.0,2-4,other
1884,100,60,171,231,8.0,2-6,other
1885,101,62,160,249,8.0,2-6,other
1886,103,71,169,196,8.0,2-6,other
1887,96,38,157,751,8.0,2-6,other
1888,98,58,156,205,8.0,2-6,other
1889,95,60,165,766,6.0,3-11A,minor
1890,97,64,126,192,6.0,3-11A,minor
1891,89,46,154,774,9.0,3-8B,other
1892,91,40,119,219,9.0,3-8B,other
1893,94,33,114,116,9.0,3-8B,other
1894,89,59,171,318,9.0,3-8B,other
1895,91,53,138,307,2.0,2-2,other
1896,93,54,205,168,2.0,2-2,other
1897,96,56,121,281,2.0,2-2,other
1898,99,64,160,978,0.0,2-4,other
1899,64,37,213,185,0.0,2-4,other
1900,98,53,168,294,11.0,2-6,other
1901,100,54,211,170,11.0,2-6,other
1902,103,68,147,255,11.0,2-6,other
1903,101,47,230,765,7.0,3-1,other
1904,99,57,128,254,7.0,3-1,other
1905,100,54,252,178,7.0,3-1,other
1906,96,48,131,272,7.0,3-1,other
1907,91,41,115,172,7.0,3-1,other
1908,91,57,125,274,7.0,3-1,other
1909,60,31,291,255,4.0,2-3,minor
1910,91,62,212,458,4.0,2-3,minor
1911,90,47,132,251,4.0,2-3,minor
1912,98,58,156,499,4.0,4-23,minor
1913,91,55,142,183,4.0,4-23,minor
1914,91,47,99,302,4.0,4-23,minor
1915,59,28,169,247,0.0,3-11B,major
1916,90,42,135,211,0.0,3-11B,major
1917,91,40,72,211,0.0,3-11B,major
1918,103,72,132,237,0.0,3-11B,major
1919,91,57,99,531,7.0,2-2,other
1920,91,55,214,183,7.0,2-2,other
1921,90,51,132,236,7.0,2-2,other
1922,101,60,113,480,1.0,3-5A,other
1923,91,64,126,220,1.0,3-5A,other
1924,90,48,113,260,1.0,3-5A,other
1925,59,31,73,241,3.0,2-4,major
1926,101,57,109,230,3.0,2-4,major
1927,91,65,117,211,3.0,2-4,major
1928,90,50,128,224,3.0,2-4,major
1929,91,60,76,205,3.0,2-4,major
1930,103,70,101,264,1.0,2-5,other
1931,93,32,136,243,1.0,2-5,other
1932,90,37,93,237,1.0,2-5,other
1933,103,80,177,742,4.0,2-3,minor
1934,101,36,63,33,4.0,2-3,minor
1935,102,74,147,226,4.0,2-3,minor
1936,101,31,150,175,4.0,2-3,minor
1937,98,64,270,517,5.0,2-4,major
1938,99,81,361,988,0.0,3-8A,major
1939,97,60,219,278,0.0,3-8A,major
1940,96,62,160,214,0.0,3-8A,major
1941,58,38,753,60,1.0,2-3,minor
1942,94,63,128,215,1.0,2-3,minor
1943,93,48,132,246,1.0,2-3,minor
1944,91,64,139,226,1.0,2-3,minor
1945,53,24,1325,261,0.0,2-4,other
1946,89,35,97,263,0.0,2-4,other
1947,91,66,188,206,0.0,2-4,other
1948,88,29,109,292,0.0,2-4,other
1949,89,54,190,653,6.0,2-3,other
1950,87,42,144,316,6.0,2-3,other
1951,63,25,390,214,8.0,2-1,other
1952,63,43,312,933,0.0,2-4,other
1953,53,42,143,577,0.0,2-4,other
1954,58,50,250,998,6.0,3-7A,other
1955,62,71,767,992,9.0,5-29B,diminished
1956,60,28,123,858,9.0,5-29B,diminished
1957,69,35,479,78,3.0,3-4A,major
1958,67,35,133,609,0.0,2-3,minor
1959,54,28,993,644,0.0,2-4,other
1960,65,24,416,1025,9.0,2-3,minor
1961,55,30,641,916,9.0,2-3,minor
1962,53,19,328,1031,3.0,4-24,augmented
1963,48,51,275,3719,7.0,3-9,other
1964,54,36,88,810,5.0,2-1,other
1965,55,68,175,28,5.0,2-1,other
1966,62,44,392,1078,4.0,3-10,diminished
1967,55,36,1033,951,10.0,3-11B,other
1968,45,51,152,923,10.0,3-11B,other
1969,69,60,103,507,10.0,3-11B,other
1970,64,91,564,965,2.0,3-11A,minor
1971,62,68,553,528,5.0,3-4A,major
1972,61,63,491,496,5.0,3-4A,major
1973,59,46,960,1542,5.0,4-16A,major
1974,62,41,493,1468,3.0,3-12,augmented
1975,61,48,435,464,3.0,3-12,augmented
1976,53,19,72,1450,3.0,3-12,augmented
1977,59,30,467,442,3.0,2-5,other
1978,43,24,68,469,7.0,2-2,other
1979,36,36,1255,533,7.0,3-9,other
1980,43,32,1024,434,7.0,3-9,other
1981,52,36,469,509,7.0,3-9,other
1982,57,51,101,460,7.0,3-9,other
1983,57,32,196,508,5.0,3-9,other
1984,57,36,67,1697,5.0,3-9,other
1985,43,40,557,526,7.0,3-11B,major
1986,59,42,626,1407,7.0,2-5,other
1987,60,51,93,1010,9.0,3-7B,other
1988,43,50,294,449,9.0,3-11A,minor
1989,43,39,149,393,9.0,3-11A,minor
1990,42,55,265,196,9.0,3-11A,minor
1991,57,40,334,2863,9.0,3-2B,minor
1992,51,25,83,2942,11.0,2-2,other
1993,41,34,739,573,11.0,2-2,other
1994,48,40,578,152,11.0,2-2,other
1995,63,42,709,61,11.0,2-2,other
1996,71,60,459,87,9.0,2-2,other
1997,74,58,372,32,9.0,2-2,other
1998,72,63,252,485,9.0,2-2,other
1999,47,32,350,438,9.0,2-2,other
2000,66,51,531,1008,1.0,3-7A,other
2001,69,39,396,970,9.0,4-27B,major
2002,79,61,172,6345,0.0,2-4,major
2003,67,32,136,658,7.0,3-9,other
2004,79,47,84,290,7.0,3-9,other
2005,91,46,238,608,7.0,2-5,other
2006,79,45,90,291,7.0,2-5,other
2007,103,62,150,688,2.0,3-9,other
2008,103,63,253,310,2.0,3-9,other
2009,91,44,168,614,1.0,3-5A,other
2010,103,62,99,298,1.0,3-5A,other
2011,91,55,214,648,10.0,2-5,other
2012,79,40,1092,322,10.0,2-5,other
2013,63,28,488,343,10.0,2-5,other
2014,59,41,515,29,10.0,2-5,other
2015,63,42,499,934,10.0,2-5,other
2016,53,17,661,63,11.0,2-1,other
2017,43,36,511,1486,7.0,4-14A,minor
2018,67,57,161,755,10.0,2-5,other
2019,67,57,108,273,10.0,2-5,other
2020,58,39,262,384,1.0,3-10,minor
2021,48,49,160,384,1.0,3-10,minor
2022,64,53,221,1084,6.0,5-32B,minor
2023,48,66,381,935,3.0,3-7A,other
2024,55,64,374,304,3.0,3-7A,other
2025,56,73,1070,333,3.0,3-7A,other
2026,60,1,392,1026,3.0,3-7A,other
2027,63,37,886,739,3.0,3-7A,other
2028,46,25,212,60,0.0,2-4,other
2029,69,38,337,2030,4.0,3-11A,minor
2030,67,46,132,115,4.0,3-11A,minor
2031,66,38,149,155,4.0,3-11A,minor
2032,67,48,265,122,4.0,3-11A,minor
2033,63,35,545,594,7.0,2-5,other
2034,50,24,1072,1760,5.0,4-20,major
2035,57,53,570,419,5.0,4-20,major
2036,69,59,336,919,5.0,2-5,other
2037,53,17,793,523,7.0,1-1,other
2038,69,53,1185,1464,7.0,1-1,other
2039,40,55,138,1457,7.0,1-1,other
2040,52,50,400,471,7.0,1-1,other
2041,62,33,67,446,0.0,2-4,major
2042,67,68,1077,427,0.0,2-4,major
2043,84,94,226,494,0.0,2-4,major
2044,62,29,576,42,0.0,2-4,major
2045,55,1,1167,2175,5.0,4-19B,other
2046,83,46,364,786,4.0,2-4,major
2047,57,58,583,2345,2.0,4-26,minor
2048,64,85,394,509,2.0,4-26,minor
2049,60,63,441,959,2.0,5-27B,minor
2050,72,53,176,468,2.0,5-27B,minor
2051,57,64,140,930,5.0,2-5,other
2052,64,47,1258,2438,5.0,5-27A,major
2053,36,26,50,1855,7.0,4-12A,major
2054,43,27,71,419,7.0,4-12A,major
2055,52,37,148,445,7.0,4-12A,major
2056,62,31,174,1478,9.0,2-2,other
2057,43,24,200,457,9.0,2-2,other
2058,43,30,295,524,9.0,2-2,other
2059,36,27,577,961,9.0,2-2,other
2060,43,24,1985,454,9.0,2-2,other
2061,50,26,265,492,9.0,2-2,other
2062,62,30,161,486,9.0,3-7B,other
2063,62,22,98,529,9.0,3-7B,other
2064,79,101,2226,0,,,
2065,52,29,712,2387,0.0,3-4A,major
2066,43,51,159,781,0.0,3-4A,major
2067,55,33,1835,901,7.0,2-5,other
2068,65,57,918,1835,11.0,1-1,other
2069,57,49,1389,973,9.0,2-3,minor
2070,60,39,1205,933,9.0,2-3,minor
2071,74,83,476,2005,0.0,2-1,other
2072,88,96,308,880,0.0,2-1,other
2073,64,37,860,1128,7.0,2-5,other
2074,55,42,437,1058,7.0,2-5,other
2075,65,46,1512,1279,7.0,3-11B,major
2076,57,40,823,1273,9.0,2-3,minor
2077,60,28,651,1340,9.0,1-1,other
2078,67,55,837,5039,9.0,1-1,other
2079,43,24,121,119,4.0,1-1,other
2080,43,74,178,718,4.0,1-1,other
2081,55,73,3486,1005,4.0,4-26,minor
2082,69,70,646,3400,4.0,4-26,minor
2083,57,101,1220,912,5.0,3-11B,major
2084,60,73,2125,883,9.0,2-3,minor
2085,57,56,1433,1113,5.0,2-4,major
2086,48,47,3563,1263,5.0,3-11B,major
2087,57,37,2122,1085,5.0,3-11B,major
2088,62,43,3698,8504,11.0,2-3,minor
2089,64,53,2695,928,11.0,2-3,minor
2090,79,111,455,1686,7.0,2-5,other
2091,74,81,278,1285,7.0,2-4,major
2092,57,57,1956,764,2.0,3-7A,minor
2093,48,55,1273,832,2.0,3-7A,minor
2094,70,69,414,852,2.0,3-7A,minor
2095,69,60,147,845,2.0,3-7A,minor
2096,48,35,756,1071,7.0,4-22B,minor
2097,72,59,231,987,7.0,4-22B,minor
2098,58,38,442,1092,1.0,3-7A,other
2099,49,23,161,924,1.0,3-7A,other
2100,75,75,373,81,1.0,3-7A,other
2101,64,62,280,1226,9.0,2-3,minor
2102,84,79,335,1075,0.0,3-11B,major
2103,79,79,341,42,0.0,3-11B,major
2104,89,36,86,42,0.0,3-11B,major
2105,57,52,667,961,5.0,4-20,major
2106,57,59,205,960,5.0,3-4B,other
2107,88,80,874,2134,7.0,1-1,other
2108,62,56,741,1428,0.0,3-4A,other
2109,84,52,450,2718,9.0,3-7B,other
2110,79,50,418,32,9.0,3-7B,other
2111,60,47,80,2175,9.0,4-26,minor
2112,65,58,456,3700,2.0,2-3,minor
2113,52,39,491,788,0.0,4-27B,major
2114,61,43,418,48,0.0,4-27B,major
2115,58,66,808,1374,1.0,3-11A,minor
2116,62,25,2173,2231,2.0,5-27B,minor
2117,48,64,557,1901,2.0,5-27B,minor
2118,50,76,268,779,5.0,4-20,major
2119,48,66,801,1299,5.0,4-20,major
2120,48,52,96,1981,2.0,4-26,minor
2121,76,76,1985,1528,2.0,3-11A,minor
2122,60,19,115,1420,5.0,2-4,major
2123,57,80,295,463,5.0,2-4,major
2124,64,101,598,615,5.0,2-4,major
2125,61,71,805,1347,2.0,2-5,other
2126,65,57,597,1483,9.0,3-11A,minor
2127,57,54,44,1218,9.0,3-11A,minor
2128,31,52,200,4170,5.0,4-22A,major
2129,43,75,1830,732,5.0,4-22A,major
2130,31,70,902,1353,5.0,4-22A,major
2131,43,75,268,768,5.0,4-22A,major
2132,43,48,713,1513,5.0,4-22A,major
2133,78,93,469,897,0.0,2-4,major
2134,79,60,341,504,0.0,2-4,major
2135,78,60,973,423,0.0,2-4,major
2136,74,62,379,414,0.0,2-4,major
2137,60,40,952,496,0.0,2-4,major
2138,67,62,458,833,11.0,2-2,other
2139,64,39,82,552,11.0,2-2,other
2140,54,44,212,569,11.0,2-2,other
2141,43,57,933,1285,7.0,2-2,other
2142,43,47,1246,2105,4.0,4-18A,major
2143,52,33,1438,2110,7.0,3-6,major
2144,62,56,405,2137,7.0,3-6,major
2145,48,72,2419,1874,9.0,2-3,minor
2146,68,34,88,843,5.0,2-5,other
2147,48,75,1106,2009,5.0,2-4,major
2148,48,62,5724,1326,5.0,2-4,major
2149,69,58,690,791,5.0,2-4,major
2150,60,58,502,38,5.0,2-4,major
2151,81,111,519,1876,5.0,2-4,major
2152,77,75,831,1052,9.0,2-3,minor
2153,69,60,881,109,9.0,2-3,minor
2154,57,36,972,32,9.0,2-3,minor
2155,72,58,272,1734,9.0,2-3,minor
2156,71,60,982,855,9.0,2-5,other
2157,48,42,6394,76,4.0,2-2,other
2158,55,37,831,50,4.0,2-2,other
2159,78,31,84,1239,4.0,2-2,other
2160,71,63,235,778,4.0,2-3,minor
2161,83,82,705,770,4.0,2-3,minor
2162,74,101,674,31,4.0,2-3,minor
2163,74,96,659,1128,4.0,2-5,other
2164,55,51,1000,2065,7.0,2-5,other
2165,64,25,2330,2674,7.0,4-26,minor
2166,58,60,1638,985,7.0,4-26,minor
2167,50,49,297,1341,7.0,2-5,other
2168,72,116,276,1969,0.0,5-31B,major
2169,73,79,529,705,0.0,5-31B,major
2170,73,65,280,701,4.0,3-8B,other
2171,64,33,106,46,4.0,3-8B,other
2172,64,55,268,698,3.0,2-5,other
2173,41,46,720,672,3.0,2-5,other
2174,79,75,987,720,9.0,3-11A,minor
2175,72,63,756,35,9.0,3-11A,minor
2176,57,29,142,1339,0.0,4-14B,major
2177,28,48,395,2078,4.0,2-4,major
2178,45,60,816,4326,0.0,2-5,other
2179,68,32,148,2946,8.0,3-7A,minor
2180,68,8,371,282,8.0,3-7A,minor
2181,52,53,572,3023,9.0,4-3,other
2182,64,54,592,46,9.0,4-3,other
2183,54,35,88,5402,9.0,3-11A,minor
2184,62,71,521,94,9.0,4-4A,minor
2185,41,70,1880,2130,5.0,4-20,major
2186,50,57,148,681,5.0,4-20,major
2187,50,70,620,1319,0.0,2-4,major
2188,38,83,501,930,0.0,2-4,major
2189,60,77,1094,2251,2.0,3-11A,minor
2190,50,59,1056,1169,2.0,3-11A,minor
2191,54,24,123,649,2.0,3-11A,minor
2192,55,55,219,44,2.0,3-11A,minor
2193,72,65,778,31,2.0,3-11A,minor
2194,71,16,117,184,2.0,3-11A,minor
2195,50,55,984,1119,2.0,3-11A,minor
2196,50,43,98,2067,2.0,2-5,other
2197,50,38,847,946,5.0,4-22A,major
2198,53,52,152,3092,2.0,5-35,minor
2199,43,46,930,835,9.0,3-7A,minor
2200,43,37,763,3313,9.0,2-2,other
2201,43,48,705,2175,0.0,3-6,major
2202,71,71,1157,748,4.0,2-3,minor
2203,55,34,1332,1252,4.0,2-3,minor
2204,64,43,684,3048,11.0,2-3,minor
2205,41,59,611,2157,9.0,2-5,other
2206,48,22,567,79,9.0,2-5,other
2207,60,35,410,1209,0.0,3-11B,major
2208,48,33,2691,2839,5.0,3-11B,major
2209,71,75,523,1352,5.0,5-27A,major
2210,62,66,364,48,5.0,5-27A,major
2211,57,41,332,36,5.0,5-27A,major
2212,62,65,410,805,11.0,2-2,other
2213,48,34,840,1353,7.0,2-5,other
2214,71,45,2566,734,2.0,2-2,other
2215,48,48,2670,1162,2.0,2-2,other
2216,57,48,688,812,7.0,2-5,other
2217,41,67,653,1098,7.0,2-5,other
2218,48,58,1006,2074,5.0,4-20,major
2219,43,32,734,2098,2.0,4-26,minor
2220,52,57,1345,833,2.0,4-27B,major
2221,43,26,521,1274,2.0,4-27B,major
2222,66,25,71,707,4.0,4-26,minor
2223,34,81,243,1847,4.0,4-26,minor
2224,56,80,1128,1387,0.0,3-11B,major
2225,77,35,82,94,7.0,2-5,other
2226,34,67,402,1896,7.0,2-5,other
2227,33,79,202,788,7.0,2-5,other
2228,78,96,502,4110,6.0,3-5B,other
2229,73,101,902,1221,6.0,3-5B,other
2230,75,46,40,101,6.0,3-5B,other
2231,70,66,429,1343,6.0,3-5B,other
2232,68,64,216,598,6.0,3-5B,other
2233,81,62,389,1503,2.0,2-5,other
2234,78,57,525,1223,2.0,2-5,other
2235,50,66,939,802,9.0,1-1,other
2236,64,69,508,1236,9.0,2-4,major
2237,62,83,1740,726,9.0,2-4,major
2238,57,72,566,1804,6.0,3-11A,minor
2239,50,60,211,646,6.0,3-11A,minor
2240,61,45,1638,759,3.0,4-29B,major
2241,58,51,1353,2005,4.0,2-3,minor
2242,61,46,1310,43,4.0,2-3,minor
2243,33,53,79,1138,4.0,2-3,minor
2244,45,45,631,946,7.0,4-18A,minor
2245,45,57,2102,1286,7.0,4-18A,minor
2246,52,50,273,2095,4.0,3-10,diminished
2247,62,19,226,404,4.0,3-10,diminished
2248,61,1,479,289,4.0,3-10,diminished
2249,38,50,681,103,2.0,3-11B,major
2250,69,62,449,1389,6.0,2-5,other
2251,76,83,356,637,6.0,2-5,other
2252,76,83,303,676,6.0,5-35,minor
2253,73,67,306,619,10.0,2-1,other
2254,50,60,1516,2086,2.0,2-5,other
2255,78,52,58,2101,9.0,5-35,minor
2256,76,84,1075,769,9.0,5-35,minor
2257,57,73,475,2361,2.0,4-26,minor
2258,71,21,296,108,2.0,4-26,minor
2259,69,56,548,3757,7.0,1-1,other
2260,68,48,534,1210,7.0,1-1,other
2261,64,45,594,63,11.0,2-6,other
2262,91,54,2983,1948,7.0,1-1,other
2263,79,76,681,9107,4.0,2-3,minor
2264,62,46,420,732,4.0,2-3,minor
2265,71,51,186,709,4.0,2-3,minor
2266,77,67,54,1468,9.0,2-3,minor
2267,60,88,1164,705,9.0,2-3,minor
2268,68,43,836,2108,5.0,3-11B,major
2269,48,55,1935,50,5.0,3-11B,major
2270,48,93,2257,2642,5.0,3-11B,major
2271,65,78,1416,691,5.0,3-11B,major
2272,64,27,973,116,9.0,2-3,minor
2273,36,76,3022,1174,9.0,2-3,minor
2274,48,96,1118,2054,5.0,3-11B,major
2275,43,53,781,1829,5.0,3-11B,major
2276,59,68,293,839,0.0,4-22A,major
2277,57,70,249,1155,0.0,4-22A,major
2278,72,35,594,149,4.0,3-11A,minor
2279,55,51,356,1954,4.0,4-26,minor
2280,71,51,226,73,4.0,4-26,minor
2281,64,69,333,1881,7.0,2-5,other
2282,62,44,486,889,7.0,1-1,other
2283,58,73,559,2358,7.0,4-26,minor
2284,65,47,573,59,2.0,2-5,other
2285,58,69,207,659,2.0,2-5,other
2286,65,31,90,92,7.0,2-5,other
2287,71,20,121,726,2.0,4-26,minor
2288,72,64,161,495,2.0,4-26,minor
2289,65,51,382,689,10.0,3-4A,major
2290,76,82,818,1383,1.0,3-10,diminished
2291,76,66,1454,1288,1.0,3-10,diminished
2292,68,62,1512,30,1.0,3-10,diminished
2293,58,49,898,77,1.0,2-3,minor
2294,64,62,584,1864,1.0,2-3,other
2295,72,53,270,82,9.0,2-5,other
2296,79,67,167,1029,9.0,2-5,other
2297,41,53,1473,686,9.0,2-3,minor
2298,72,54,582,75,9.0,2-5,other
2299,48,44,153,1199,9.0,2-5,other
2300,40,49,562,670,9.0,2-5,other
2301,74,52,629,1450,4.0,4-18A,major
2302,72,41,442,1334,8.0,4-28,diminished
2303,52,47,1151,1130,9.0,3-7A,minor
2304,70,22,133,2881,8.0,3-7A,minor
2305,70,1,257,386,8.0,3-7A,minor
2306,70,32,138,2072,3.0,4-19B,other
2307,74,48,51,1498,0.0,3-8A,major
2308,49,21,222,674,0.0,3-8A,major
2309,48,50,62,1674,9.0,3-11A,minor
2310,50,48,727,1998,9.0,3-11A,minor
2311,60,44,1418,759,5.0,3-4A,major
2312,50,51,799,1178,5.0,3-4A,major
2313,64,45,1651,744,5.0,3-4A,major
2314,50,58,84,1233,0.0,2-4,major
2315,60,48,1509,761,2.0,4-14A,minor
2316,45,53,364,1239,2.0,4-14A,minor
2317,51,75,566,1367,5.0,4-20,major
2318,57,64,1923,707,2.0,3-7A,minor
2319,64,44,2007,31,2.0,3-7A,minor
2320,49,80,1052,1187,2.0,3-7A,minor
2321,45,71,190,2388,5.0,4-20,major
2322,43,90,558,793,5.0,4-20,major
2323,57,79,349,38,5.0,4-20,major
2324,53,48,206,383,5.0,3-9,other
2325,60,36,265,207,5.0,3-9,other
2326,57,31,222,43,5.0,3-9,other
2327,53,37,238,162,5.0,3-9,other
2328,43,31,218,102,5.0,3-9,other
2329,31,43,289,278,9.0,2-3,minor
2330,53,37,224,113,9.0,2-3,minor
2331,43,33,236,262,9.0,2-3,minor
2332,53,37,308,192,9.0,2-3,minor
2333,31,43,241,180,9.0,2-3,minor
2334,57,48,270,65,9.0,2-3,minor
2335,53,37,258,184,0.0,2-5,other
2336,57,27,274,230,0.0,2-5,other
2337,60,54,196,30,0.0,2-5,other
2338,53,32,217,209,0.0,2-5,other
2339,53,41,274,433,9.0,2-3,minor
2340,60,37,293,274,9.0,2-3,minor
2341,50,42,450,148,9.0,2-3,minor
2342,53,28,188,70,9.0,2-3,minor
2343,59,51,552,523,8.0,3-2B,other
2344,53,39,301,2079,8.0,3-2B,other
2345,83,50,157,661,8.0,3-2B,other
2346,91,59,1688,561,8.0,3-2B,other
2347,36,51,402,696,8.0,3-2B,other
2348,52,42,569,53,8.0,3-2B,other
2349,88,55,515,1228,8.0,3-2B,other
2350,67,39,324,745,8.0,3-2B,other
2351,64,28,265,59,11.0,2-3,minor
2352,83,49,278,629,11.0,2-3,minor
2353,79,60,867,596,11.0,2-3,minor
2354,76,116,256,4126,4.0,3-5B,other
2355,78,76,346,663,4.0,3-5B,other
2356,67,45,253,394,0.0,4-29B,major
2357,79,52,184,326,0.0,4-29B,major
2358,67,49,201,213,0.0,4-29B,major
2359,79,42,184,239,0.0,4-29B,major
2360,67,43,171,308,0.0,4-29B,major
2361,79,51,242,184,0.0,4-29B,major
2362,67,53,237,265,0.0,4-29B,major
2363,79,50,225,233,0.0,2-4,major
2364,67,45,209,288,0.0,2-4,major
2365,79,49,216,209,0.0,2-4,major
2366,67,48,285,216,0.0,2-4,major
2367,79,49,287,299,0.0,2-4,major
2368,67,42,130,257,0.0,2-4,major
2369,57,70,666,1402,5.0,2-5,other
2370,68,48,429,596,9.0,2-3,minor
2371,57,61,1077,593,9.0,2-3,minor
2372,72,88,318,667,11.0,2-2,other
2373,60,57,1518,38,11.0,2-2,other
2374,57,69,1584,646,5.0,2-4,major
2375,76,19,57,121,5.0,2-4,major
2376,71,45,349,1166,5.0,2-5,other
2377,57,55,230,569,5.0,3-11B,major
2378,69,78,605,631,5.0,3-11B,major
2379,63,25,115,111,9.0,2-3,minor
2380,63,1,170,387,9.0,2-3,minor
2381,48,75,763,145,9.0,2-3,minor
2382,65,80,1508,1326,9.0,2-3,minor
2383,48,31,130,123,9.0,2-3,minor
2384,48,96,1883,544,9.0,2-3,minor
2385,43,92,558,2061,5.0,3-11B,major
2386,43,86,654,667,5.0,3-11B,major
2387,64,50,764,654,5.0,3-11B,major
2388,43,69,114,1348,0.0,3-4B,other
2389,64,83,479,1999,9.0,3-7A,minor
2390,50,51,144,1948,4.0,4-26,minor
2391,59,65,341,104,4.0,3-7A,minor
2392,59,65,876,718,4.0,3-7A,minor
2393,53,56,475,1299,7.0,2-3,minor
2394,65,62,964,741,10.0,3-4A,major
2395,74,72,500,1889,7.0,3-11A,minor
2396,72,51,75,640,4.0,4-27A,diminished
2397,74,58,494,659,7.0,3-7A,minor
2398,76,51,166,623,7.0,3-7A,minor
2399,70,76,391,1178,7.0,3-7A,minor
2400,71,81,263,103,9.0,2-4,major
2401,76,64,269,726,9.0,4-12A,major
2402,67,7,186,969,1.0,2-6,other
2403,53,50,264,970,5.0,3-11B,major
2404,72,68,307,624,5.0,3-11B,major
2405,64,46,17,123,7.0,4-5B,other
2406,66,40,102,881,6.0,2-3,other
2407,50,62,1037,1131,5.0,3-11B,major
2408,41,73,487,546,5.0,3-11B,major
2409,76,116,640,2001,4.0,3-8A,major
2410,68,48,124,1382,2.0,2-1,other
2411,74,79,258,633,2.0,2-1,other
2412,44,46,875,2836,10.0,3-4A,other
2413,75,39,176,4028,5.0,2-4,major
2414,64,57,816,46,5.0,2-4,major
2415,67,57,473,2037,2.0,4-26,minor
2416,69,71,548,900,4.0,4-25,other
2417,72,66,374,1048,4.0,4-25,other
2418,50,54,163,1909,0.0,2-4,major
2419,63,20,90,209,9.0,2-5,other
2420,61,58,537,1793,1.0,4-28,diminished
2421,68,25,82,1443,2.0,4-26,minor
2422,64,60,433,2352,5.0,2-4,major
2423,57,55,1134,2876,5.0,3-12,augmented
2424,31,43,1728,8075,5.0,5-26B,augmented
2425,43,48,142,1819,5.0,5-26B,augmented
2426,52,48,1092,1169,0.0,5-27A,major
2427,43,86,1177,3033,7.0,3-9,other
2428,41,60,714,4974,2.0,2-1,other
2429,71,36,82,136,9.0,4-23,minor
2430,57,57,318,2048,0.0,4-14B,major
2431,74,43,462,1952,5.0,3-4B,other
2432,66,37,144,1247,5.0,3-4B,other
2433,52,101,601,1397,5.0,5-27A,major
2434,53,101,609,649,5.0,5-27A,major
2435,53,76,651,1812,0.0,2-5,other
2436,63,46,77,331,0.0,2-5,other
2437,65,43,816,506,9.0,5-32A,other
2438,48,47,155,1159,9.0,5-32A,other
2439,41,43,2175,831,9.0,2-3,minor
2440,43,43,1649,3263,9.0,4-26,minor
2441,66,40,1594,833,2.0,2-5,other
2442,52,30,335,94,2.0,2-5,other
2443,43,54,1034,1092,2.0,2-5,other
2444,47,83,502,1465,2.0,4-22A,major
2445,35,69,226,550,2.0,4-22A,major
2446,64,65,371,698,2.0,4-22A,major
2447,66,60,619,4045,7.0,2-5,other
2448,57,46,958,8607,2.0,2-1,other
2449,88,77,337,560,2.0,2-1,other
2450,81,75,540,40,2.0,2-1,other
2451,57,35,253,726,6.0,2-5,other
2452,57,50,1050,588,6.0,2-5,other
2453,62,52,830,655,6.0,2-3,minor
2454,57,48,457,1286,6.0,2-5,other
2455,57,77,1866,584,6.0,2-5,other
2456,50,75,371,1322,2.0,3-11B,major
2457,50,60,262,544,2.0,3-11B,major
2458,55,55,77,674,6.0,2-3,minor
2459,45,75,1871,1209,1.0,2-3,other
2460,52,109,2486,1968,1.0,3-10,other
2461,57,111,1609,1982,10.0,3-11B,other
2462,49,9,397,463,10.0,3-11B,other
2463,52,58,82,1393,1.0,2-3,other
2464,45,36,64,1946,2.0,2-5,other
2465,59,73,733,1995,6.0,4-26,minor
2466,58,62,173,4212,9.0,4-22A,major
2467,59,62,241,125,9.0,4-22A,major
2468,74,33,88,239,5.0,4-20,major
2469,59,22,182,985,5.0,4-20,major
2470,56,43,387,362,5.0,4-20,major
2471,58,32,107,247,5.0,4-20,major
2472,65,68,1286,247,2.0,2-5,other
2473,72,57,1207,31,2.0,2-5,other
2474,53,48,116,1322,2.0,2-5,other
2475,31,43,342,1272,5.0,4-22A,major
2476,55,49,80,1546,7.0,1-1,other
2477,91,52,651,1715,7.0,1-1,other
2478,75,47,332,50,7.0,1-1,other
2479,67,39,313,46,7.0,1-1,other
2480,103,37,358,3631,7.0,1-1,other
2481,64,49,224,11469,9.0,6-32,minor
2482,67,57,165,672,0.0,2-1,other
2483,76,116,531,648,0.0,2-1,other
2484,69,72,968,786,2.0,2-2,other
2485,81,78,845,2093,5.0,3-11B,major
2486,60,30,1583,104,9.0,2-3,minor
2487,48,74,3485,1064,9.0,2-3,minor
2488,69,88,1376,868,2.0,2-5,other
2489,48,61,238,3195,9.0,2-3,minor
2490,36,39,1770,4659,9.0,2-3,minor
2491,64,83,1262,33,9.0,2-3,minor
2492,43,79,939,1030,11.0,4-23,minor
2493,63,46,61,922,4.0,4-23,minor
2494,69,48,395,1055,11.0,3-7A,minor
2495,72,83,535,1820,0.0,3-4A,major
2496,46,57,412,1983,7.0,2-5,other
2497,64,32,595,2075,10.0,3-11B,major
2498,50,39,257,771,10.0,3-11B,major
2499,55,44,165,1184,7.0,3-11A,minor
2500,74,63,1278,2778,4.0,2-3,minor
2501,48,43,1464,1220,1.0,4-27A,minor
2502,41,56,491,887,9.0,3-11A,minor
2503,57,51,133,2019,5.0,4-20,major
2504,68,62,756,3905,4.0,2-4,major
2505,56,51,354,90,4.0,3-7B,other
2506,52,57,199,1261,4.0,3-7B,other
2507,67,90,638,773,4.0,3-7B,other
2508,65,28,89,107,6.0,5-25A,diminished
2509,61,23,74,3232,3.0,4-26,other
2510,55,52,168,1864,10.0,4-29B,major
2511,69,61,422,82,10.0,4-20,major
2512,48,61,154,2113,0.0,2-4,major
2513,48,48,668,2077,5.0,4-20,major
2514,48,51,872,1927,5.0,4-20,major
2515,50,71,1692,2019,2.0,3-7B,other
2516,48,60,170,1958,2.0,4-26,minor
2517,64,66,498,762,2.0,4-26,minor
2518,45,59,62,1260,2.0,4-26,minor
2519,69,44,128,5202,2.0,2-3,minor
2520,69,55,210,1203,2.0,2-3,minor
2521,61,16,87,622,5.0,2-5,other
2522,67,54,266,5414,0.0,3-11B,major
2523,67,50,3483,2720,0.0,3-11B,major
2524,59,40,3258,29,0.0,3-11B,major
2525,52,32,580,12653,11.0,3-7A,minor
2526,67,33,762,2113,11.0,3-7A,minor
2527,76,51,201,741,4.0,2-2,other
2528,79,92,566,652,4.0,2-2,other
2529,65,31,856,793,5.0,3-11B,major
2530,60,48,535,28,5.0,3-11B,major
2531,60,53,730,680,5.0,3-11B,major
2532,65,57,1456,1397,5.0,3-11B,major
2533,60,53,728,701,9.0,2-3,minor
2534,48,33,273,653,9.0,2-3,minor
2535,55,44,1247,985,0.0,5-27A,major
2536,65,50,628,4326,7.0,2-4,major
2537,65,67,529,1182,9.0,2-3,minor
2538,65,56,601,2279,0.0,1-1,other
2539,60,51,454,31,0.0,1-1,other
2540,60,31,1316,6015,5.0,2-4,major
2541,57,37,1381,36,5.0,2-4,major
2542,69,55,217,1084,5.0,2-4,major
2543,57,33,235,1188,5.0,3-11B,major
2544,69,51,234,1316,5.0,3-11B,major
2545,39,44,2518,0,,,
2546,56,59,99,631,0.0,3-7A,minor
2547,51,83,577,1264,5.0,3-11B,other
2548,55,27,70,1817,6.0,2-1,other
2549,63,53,89,4272,7.0,2-1,other
2550,65,45,152,106,7.0,2-1,other
2551,63,40,149,113,7.0,2-1,other
2552,62,45,98,160,7.0,2-1,other
2553,39,39,198,856,3.0,2-4,major
2554,63,43,93,2236,5.0,2-5,other
2555,62,68,169,2239,0.0,4-19B,other
2556,61,58,317,280,0.0,4-19B,other
2557,45,50,50,976,0.0,3-12,augmented
2558,63,37,891,394,0.0,3-4A,other
2559,65,34,96,1253,3.0,2-4,major
2560,63,45,206,43,3.0,2-4,major
2561,62,51,200,134,3.0,2-4,major
2562,63,60,132,293,3.0,2-4,major
2563,65,29,339,1174,3.0,4-14A,other
2564,55,34,108,748,3.0,4-14A,other
2565,72,41,200,203,0.0,3-7B,other
2566,89,92,279,702,0.0,3-7B,other
2567,86,51,355,279,0.0,3-7B,other
2568,67,24,44,39,0.0,3-7B,other
2569,87,56,174,249,0.0,3-7B,other
2570,88,74,255,329,0.0,3-7B,other
2571,57,19,261,371,3.0,4-11A,major
2572,87,71,321,621,3.0,4-11A,major
2573,84,51,594,368,0.0,4-23,minor
2574,85,42,114,562,0.0,4-23,minor
2575,86,62,120,137,0.0,4-23,minor
2576,87,83,708,178,0.0,4-23,minor
2577,56,31,1789,122,5.0,3-4A,other
2578,60,17,770,975,5.0,2-4,other
2579,45,50,123,3420,7.0,4-27A,minor
2580,63,40,623,1279,7.0,2-4,major
2581,37,52,150,555,7.0,2-4,major
2582,63,50,807,380,8.0,2-3,minor
2583,46,40,247,653,8.0,2-3,minor
2584,48,20,109,361,4.0,2-6,other
2585,73,44,190,1028,0.0,3-8A,major
2586,72,38,147,144,0.0,3-8A,major
2587,71,48,164,160,0.0,3-8A,major
2588,72,69,160,226,0.0,3-8A,major
2589,73,56,1570,217,0.0,3-8A,major
2590,71,115,312,1707,0.0,2-2,other
2591,72,85,280,371,2.0,3-5B,other
2592,75,68,1112,320,2.0,3-5B,other
2593,63,46,853,357,2.0,3-5B,other
2594,62,45,41,331,2.0,3-5B,other
2595,41,44,53,571,2.0,3-5B,other
2596,62,50,479,362,6.0,3-10,minor
2597,47,34,106,1495,5.0,3-12,augmented
2598,79,45,87,1174,11.0,3-7B,other
2599,77,49,213,867,10.0,1-1,other
2600,79,35,245,33,10.0,1-1,other
2601,77,33,91,344,10.0,1-1,other
2602,84,63,130,286,10.0,1-1,other
2603,72,22,117,26,10.0,1-1,other
2604,77,36,145,1511,0.0,1-1,other
2605,27,38,43,582,0.0,1-1,other
2606,52,32,1188,1314,1.0,4-27A,diminished
2607,59,39,394,949,9.0,3-8A,major
2608,75,38,43,2003,8.0,2-2,other
2609,80,59,150,266,8.0,2-2,other
2610,77,44,51,331,8.0,2-2,other
2611,39,46,169,1872,5.0,2-5,other
2612,77,42,84,944,8.0,2-3,minor
2613,59,40,460,1303,3.0,2-5,other
2614,82,60,125,261,3.0,2-5,other
2615,70,32,92,28,3.0,2-5,other
2616,48,50,720,622,8.0,1-1,other
2617,45,39,205,713,4.0,3-5B,other
2618,34,64,243,971,10.0,2-5,other
2619,49,47,934,1362,5.0,3-11B,other
2620,56,28,362,919,11.0,3-10,diminished
2621,51,23,805,1400,3.0,2-5,other
2622,39,81,764,2062,1.0,5-26A,other
2623,55,26,980,372,1.0,5-26A,other
2624,39,83,854,574,1.0,5-26A,other
2625,49,73,395,1623,3.0,3-11B,other
2626,56,50,960,5364,0.0,4-22A,other
2627,67,62,522,73,11.0,2-3,minor
2628,51,37,99,609,11.0,2-3,minor
2629,63,62,196,753,0.0,3-4A,other
2630,65,50,128,267,0.0,3-4A,other
2631,63,37,180,68,0.0,3-4A,other
2632,62,54,273,108,0.0,3-4A,other
2633,63,56,157,317,0.0,3-4A,other
2634,64,57,140,247,0.0,3-4A,other
2635,59,39,786,1006,4.0,4-21,major
2636,57,34,79,352,4.0,4-21,major
2637,50,27,123,632,4.0,4-21,major
2638,49,25,285,358,5.0,2-5,other
2639,37,39,650,925,5.0,2-5,other
2640,31,36,126,636,5.0,2-5,other
2641,44,33,1990,2279,4.0,2-6,other
2642,51,25,1749,32,4.0,2-6,other
2643,63,33,62,1250,0.0,2-4,other
2644,68,68,190,282,0.0,2-4,other
2645,64,40,212,657,9.0,2-2,other
2646,61,48,160,301,9.0,2-2,other
2647,37,38,267,305,9.0,2-2,other
2648,62,36,156,28,9.0,2-2,other
2649,65,27,150,345,9.0,2-2,other
2650,71,55,170,244,9.0,2-2,other
2651,58,35,262,354,0.0,1-1,other
2652,61,47,150,390,0.0,1-1,other
2653,63,55,69,151,0.0,1-1,other
2654,64,55,119,99,0.0,1-1,other
2655,65,37,73,154,0.0,1-1,other
2656,66,52,106,72,0.0,1-1,other
2657,58,34,255,60,0.0,1-1,other
2658,60,20,133,30,0.0,1-1,other
2659,67,53,90,48,0.0,1-1,other
2660,69,52,57,254,0.0,1-1,other
2661,70,32,135,86,0.0,1-1,other
2662,72,58,138,216,0.0,1-1,other
2663,74,69,145,142,0.0,1-1,other
2664,69,67,129,465,0.0,4-14A,minor
2665,66,62,206,210,0.0,4-14A,minor
2666,65,54,141,258,0.0,4-14A,minor
2667,48,28,393,278,5.0,2-2,other
2668,60,25,157,245,5.0,2-2,other
2669,61,56,127,238,5.0,2-2,other
2670,62,53,169,258,5.0,2-2,other
2671,27,51,137,5130,5.0,3-8B,other
2672,57,50,72,1249,3.0,4-19B,other
2673,56,52,194,92,3.0,4-19B,other
2674,55,61,455,218,3.0,3-12,augmented
2675,49,44,184,396,3.0,3-12,augmented
2676,63,56,119,295,3.0,3-12,augmented
2677,37,60,280,276,3.0,3-12,augmented
2678,52,57,145,325,3.0,3-12,augmented
2679,36,61,132,40,3.0,3-12,augmented
2680,71,77,525,997,0.0,3-8A,major
2681,72,87,263,583,0.0,3-8A,major
2682,48,48,217,269,0.0,3-8A,major
2683,72,70,476,85,0.0,3-8A,major
2684,73,60,288,594,0.0,3-8A,major
2685,52,44,301,285,0.0,3-8A,major
2686,72,76,1345,661,3.0,3-4A,other
2687,57,17,1463,380,3.0,3-4A,major
2688,73,77,401,1563,3.0,3-4A,major
2689,65,42,373,992,5.0,2-5,other
2690,41,50,134,321,5.0,2-5,other
2691,79,36,48,1369,10.0,2-4,major
2692,86,42,48,438,10.0,2-4,major
2693,79,31,46,699,10.0,2-4,major
2694,56,45,186,417,2.0,3-4A,major
2695,74,29,61,243,7.0,3-11A,minor
2696,84,26,52,468,7.0,2-3,minor
2697,79,38,57,191,2.0,4-16A,major
2698,74,33,48,656,10.0,2-4,major
2699,84,24,72,275,1.0,5-14B,other
2700,39,51,84,596,1.0,5-14B,other
2701,63,78,482,364,3.0,4-16A,other
2702,55,27,610,1845,9.0,3-11B,major
2703,51,35,181,644,9.0,3-11B,major
2704,60,24,165,368,3.0,2-5,other
2705,51,30,376,971,5.0,2-5,other
2706,56,30,558,26,5.0,2-5,other
2707,63,64,203,599,5.0,2-5,other
2708,49,36,899,372,5.0,3-11B,other
2709,56,32,57,837,5.0,3-11B,other
2710,83,54,133,1353,0.0,2-4,major
2711,88,34,44,1750,5.0,2-4,major
2712,41,53,257,926,5.0,2-4,major
2713,54,15,111,789,5.0,2-4,major
2714,56,18,73,91,5.0,2-4,major
2715,71,44,246,674,9.0,4-23,minor
2716,56,40,312,33,9.0,4-23,minor
2717,39,57,96,2174,5.0,4-16A,other
2718,63,50,118,369,5.0,4-16A,other
2719,84,76,145,909,0.0,1-1,other
2720,72,53,227,328,0.0,1-1,other
2721,55,22,206,333,1.0,4-12A,minor
2722,74,38,185,261,1.0,4-12A,minor
2723,77,33,181,339,1.0,4-12A,minor
2724,62,33,405,240,1.0,4-12A,minor
2725,75,39,149,368,3.0,3-3B,major
2726,77,60,920,253,3.0,3-3B,major
2727,76,78,174,964,3.0,3-9,other
2728,75,76,104,186,3.0,3-9,other
2729,74,61,227,147,3.0,3-9,other
2730,72,68,479,375,1.0,2-6,other
2731,84,75,215,360,1.0,2-6,other
2732,84,66,178,926,2.0,2-2,other
2733,56,45,1282,380,2.0,3-8A,major
2734,72,46,184,975,6.0,2-6,other
2735,56,44,74,628,6.0,2-6,other
2736,72,44,433,2238,5.0,3-4A,other
2737,51,20,321,67,4.0,2-1,other
2738,61,4,240,66,4.0,2-1,other
2739,39,46,174,509,0.0,3-3A,major
2740,51,18,100,47,0.0,3-3A,major
2741,63,32,453,4153,10.0,4-14B,other
2742,47,34,1322,1863,4.0,4-16A,other
2743,57,51,166,2200,9.0,4-21,other
2744,58,64,206,289,9.0,4-21,other
2745,60,35,129,653,8.0,2-3,minor
2746,63,67,387,293,8.0,2-3,minor
2747,60,36,658,353,8.0,2-3,minor
2748,63,59,1197,663,8.0,2-3,minor
2749,44,34,184,2215,0.0,3-7B,other
2750,51,25,173,34,0.0,3-7B,other
2751,84,57,119,1572,3.0,1-1,other
2752,72,30,87,33,3.0,1-1,other
2753,89,57,148,898,1.0,4-15B,other
2754,77,46,123,47,1.0,4-15B,other
2755,75,47,195,329,6.0,3-5B,other
2756,44,30,1554,882,1.0,1-1,other
2757,55,24,357,59,0.0,2-3,minor
2758,70,71,247,615,0.0,2-3,minor
2759,63,64,164,28,0.0,2-3,minor
2760,62,62,123,4429,0.0,4-19B,other
2761,61,67,160,144,0.0,4-19B,other
2762,60,58,128,183,0.0,3-12,augmented
2763,67,34,59,791,1.0,4-28,diminished
2764,52,32,212,233,1.0,4-28,diminished
2765,48,30,167,361,1.0,4-28,diminished
2766,45,35,50,328,1.0,4-28,diminished
2767,39,48,110,2233,0.0,4-26,minor
2768,46,32,163,37,0.0,4-26,minor
2769,36,41,193,2113,3.0,1-1,other
2770,79,87,450,705,4.0,3-10,diminished
2771,64,44,226,282,4.0,3-10,diminished
2772,75,52,187,363,10.0,3-6,major
2773,76,85,246,281,10.0,3-6,major
2774,77,15,696,1119,5.0,2-4,major
2775,75,71,212,517,0.0,3-7A,minor
2776,72,58,280,283,0.0,3-7A,minor
2777,61,42,834,361,0.0,4-26,other
2778,74,66,142,415,0.0,4-26,other
2779,73,52,226,87,0.0,4-26,other
2780,72,60,414,140,0.0,4-26,other
2781,61,32,419,393,5.0,2-4,other
2782,51,33,126,2808,5.0,2-4,other
2783,27,47,48,607,5.0,2-4,other
2784,55,33,116,928,5.0,2-4,other
2785,59,38,473,1264,3.0,3-11A,other
2786,37,30,362,621,3.0,3-11A,other
2787,36,36,129,284,3.0,3-11A,other
2788,94,49,49,1231,0.0,3-8A,major
2789,98,68,127,158,0.0,3-8A,major
2790,94,60,146,70,0.0,3-8A,major
2791,87,59,44,381,0.0,3-8A,major
2792,86,58,144,66,0.0,3-8A,major
2793,85,62,89,183,0.0,2-2,other
2794,84,42,88,135,0.0,2-2,other
2795,83,43,90,139,0.0,2-2,other
2796,82,37,61,172,0.0,2-2,other
2797,86,41,96,162,0.0,2-2,other
2798,82,39,155,70,0.0,2-2,other
2799,76,42,81,265,4.0,3-8B,other
2800,75,38,133,174,4.0,3-8B,other
2801,74,27,67,187,4.0,3-8B,other
2802,73,37,109,101,4.0,3-8B,other
2803,72,48,88,149,4.0,3-8B,other
2804,72,60,170,673,9.0,1-1,other
2805,69,69,108,250,9.0,1-1,other
2806,57,25,163,190,9.0,1-1,other
2807,65,48,125,48,9.0,1-1,other
2808,63,25,107,256,9.0,1-1,other
2809,60,22,59,203,9.0,1-1,other
2810,62,67,134,169,9.0,1-1,other
2811,65,64,132,688,5.0,3-1,other
2812,63,35,110,235,5.0,3-1,other
2813,60,27,94,283,5.0,3-1,other
2814,62,49,106,429,1.0,2-2,other
2815,63,64,176,210,1.0,2-2,other
2816,64,47,177,230,1.0,2-2,other
2817,70,49,78,1467,7.0,3-5B,other
2818,72,64,161,36,7.0,3-5B,other
2819,70,34,180,132,7.0,3-5B,other
2820,69,36,126,213,7.0,3-5B,other
2821,70,57,110,254,7.0,3-5B,other
2822,56,33,1596,120,2.0,2-4,major
2823,72,63,303,174,2.0,2-4,major
2824,72,80,194,492,2.0,2-4,major
2825,72,60,171,328,2.0,2-4,major
2826,70,35,187,259,2.0,2-4,major
2827,72,69,1691,310,2.0,2-4,major
2828,65,43,479,1355,1.0,2-2,other
2829,78,69,184,1366,9.0,2-2,other
2830,77,66,96,145,9.0,2-2,other
2831,75,58,156,270,9.0,2-2,other
2832,70,71,116,472,1.0,4-28,diminished
2833,69,65,110,242,1.0,4-28,diminished
2834,68,45,108,169,1.0,4-28,diminished
2835,67,30,126,174,1.0,4-28,diminished
2836,55,30,512,159,3.0,3-7B,other
2837,65,48,190,178,3.0,3-7B,other
2838,72,66,161,262,3.0,3-7B,other
2839,68,60,150,255,3.0,3-7B,other
2840,60,31,231,234,3.0,3-7B,other
2841,55,28,110,31,3.0,3-7B,other
2842,63,51,149,278,3.0,3-7B,other
2843,65,71,223,263,3.0,3-7B,other
2844,65,35,391,1309,0.0,2-4,other
2845,49,37,2940,889,3.0,3-12,augmented
2846,56,29,166,660,3.0,3-11A,other
2847,70,40,118,344,3.0,4-19B,other
2848,59,27,115,1780,3.0,2-5,other
2849,46,32,679,950,1.0,2-5,other
2850,63,68,1574,304,1.0,2-5,other
2851,48,52,989,628,1.0,2-5,other
2852,49,62,1015,965,1.0,2-5,other
2853,65,71,566,318,1.0,2-5,other
2854,56,52,258,334,1.0,2-5,other
2855,50,48,519,345,1.0,2-5,other
2856,67,50,198,305,1.0,2-5,other
2857,50,53,329,327,8.0,2-3,minor
2858,63,32,529,5134,3.0,1-1,other
2859,87,84,247,644,0.0,2-4,other
2860,85,68,244,361,0.0,2-4,other
2861,80,53,143,273,0.0,2-4,other
2862,56,42,733,341,5.0,3-6,other
2863,79,108,204,1893,3.0,2-5,other
2864,75,74,131,318,0.0,3-11B,other
2865,72,54,150,283,0.0,3-11B,other
2866,69,30,91,389,0.0,3-11B,other
2867,56,37,1075,313,5.0,3-11B,other
2868,73,65,322,572,5.0,3-11B,other
2869,51,49,243,968,5.0,3-6,other
2870,44,40,1231,308,5.0,3-6,other
2871,55,17,170,69,0.0,2-3,minor
2872,59,38,131,2176,4.0,4-21,major
2873,59,31,111,517,4.0,2-4,major
2874,59,38,110,448,9.0,3-4B,other
2875,59,38,132,444,4.0,2-4,major
2876,60,28,127,982,8.0,2-3,other
2877,60,30,113,458,8.0,3-7B,other
2878,60,40,83,448,8.0,2-3,other
2879,48,37,237,1852,4.0,3-8A,other
2880,63,48,444,1357,0.0,5-27A,other
2881,72,63,165,306,0.0,2-4,other
2882,75,84,262,303,0.0,2-4,other
2883,89,90,282,2805,0.0,2-4,major
2884,86,60,180,271,0.0,2-4,major
2885,87,59,92,110,0.0,2-4,major
2886,89,77,150,369,9.0,2-2,other
2887,87,70,323,238,9.0,2-2,other
2888,83,51,111,260,9.0,2-2,other
2889,85,62,111,478,3.0,3-4A,major
2890,84,60,156,209,3.0,3-4A,major
2891,86,42,64,40,3.0,3-4A,major
2892,81,68,119,206,3.0,3-4A,major
2893,60,22,366,226,5.0,3-2B,other
2894,77,58,111,244,5.0,3-2B,other
2895,75,18,147,272,5.0,3-2B,other
2896,75,61,195,672,5.0,3-11A,other
2897,63,55,83,36,5.0,3-11A,other
2898,72,51,158,270,5.0,3-11A,other
2899,72,48,171,590,3.0,2-5,other
2900,75,60,166,275,3.0,2-5,other
2901,63,50,140,33,3.0,2-5,other
2902,70,45,161,623,8.0,3-8A,other
2903,56,48,364,316,2.0,3-4A,major
2904,70,47,194,285,2.0,3-4A,major
2905,60,32,797,957,5.0,4-19B,other
2906,58,40,181,1037,10.0,3-11A,other
2907,56,28,553,1007,3.0,3-12,augmented
2908,49,23,702,54,3.0,3-12,augmented
2909,61,55,935,935,3.0,3-12,augmented
2910,43,24,432,638,3.0,3-12,augmented
2911,36,38,153,330,3.0,3-12,augmented
2912,83,58,122,1332,0.0,2-5,other
2913,84,74,140,72,0.0,2-5,other
2914,84,79,152,282,0.0,2-5,other
2915,84,70,271,315,0.0,2-2,other
2916,85,62,182,297,0.0,2-2,other
2917,84,62,854,289,0.0,2-2,other
2918,58,45,125,322,3.0,2-1,other
2919,83,57,268,623,3.0,2-1,other
2920,85,49,132,982,0.0,4-14A,minor
2921,73,25,93,29,0.0,4-14A,minor
2922,41,54,163,258,0.0,4-14A,minor
2923,79,43,43,1698,5.0,1-1,other
2924,63,37,428,318,5.0,2-5,other
2925,76,49,223,51,5.0,2-5,other
2926,85,43,360,872,3.0,1-1,other
2927,56,33,1486,67,1.0,3-5A,other
2928,86,65,235,1499,1.0,3-5A,other
2929,74,34,152,42,1.0,3-5A,other
2930,66,46,187,1206,2.0,2-4,major
2931,62,40,165,28,2.0,2-4,major
2932,75,64,918,911,2.0,2-4,major
2933,44,34,241,5979,5.0,3-4A,other
2934,41,47,170,3621,2.0,3-11B,major
2935,81,40,206,690,6.0,2-5,other
2936,72,49,400,318,6.0,3-10,diminished
2937,81,25,516,30,6.0,3-10,diminished
2938,82,45,232,1852,7.0,4-16A,major
2939,57,44,133,2695,6.0,6-17A,other
2940,58,53,161,27,6.0,6-17A,other
2941,59,74,181,98,6.0,6-17A,other
2942,48,46,159,1065,0.0,2-4,major
2943,65,66,118,974,5.0,5-33,augmented
2944,75,37,209,954,5.0,4-24,augmented
2945,56,33,96,2854,10.0,4-24,augmented
2946,56,39,424,944,10.0,4-24,augmented
2947,51,38,96,1420,10.0,4-14A,other
2948,51,40,195,462,10.0,4-14A,other
2949,72,58,274,941,10.0,4-14A,other
2950,67,29,98,544,3.0,2-1,other
2951,39,35,165,434,1.0,4-3,other
2952,67,27,176,37,1.0,4-3,other
2953,51,31,1152,1005,7.0,2-3,minor
2954,55,31,44,1592,3.0,2-5,other
2955,52,17,266,2265,1.0,4-14A,other
2956,52,19,299,595,1.0,4-14A,other
2957,58,39,864,2888,0.0,4-20,other
2958,32,40,789,2299,0.0,4-20,other
2959,91,64,8,0,8.0,2-1,other
2960,103,44,33,102,9.0,2-2,other
2961,103,48,40,56,9.0,2-2,other
2962,103,28,28,59,9.0,2-2,other
2963,22,31,58,59,9.0,2-2,other
2964,82,45,40,203,9.0,2-2,other
2965,79,53,19,348,3.0,3-11B,major
2966,79,57,24,94,3.0,4-20,major
2967,82,65,112,105,0.0,4-26,minor
2968,58,49,117,76,0.0,4-26,minor
2969,70,78,97,106,0.0,4-26,minor
2970,72,46,179,1056,0.0,5-30B,other
2971,60,24,148,54,0.0,5-30B,other
2972,67,37,76,44,0.0,5-30B,other
2973,74,71,42,38,0.0,5-30B,other
2974,75,75,36,37,0.0,5-30B,other
2975,72,49,289,37,0.0,5-30B,other
2976,56,33,171,95,0.0,2-4,other
2977,60,28,116,60,0.0,2-4,other
2978,80,47,32,128,0.0,2-4,other
2979,79,46,11,69,0.0,2-4,other
2980,59,31,27,36,0.0,2-4,other
2981,62,43,11,36,0.0,2-4,other
2982,77,57,20,35,0.0,2-4,other
2983,75,45,20,32,0.0,2-4,other
2984,58,34,26,32,0.0,2-4,other
2985,63,35,18,37,0.0,2-4,other
2986,79,51,16,79,0.0,2-4,other
2987,77,50,17,33,0.0,2-4,other
2988,57,43,48,31,0.0,2-4,other
2989,65,33,12,37,0.0,2-4,other
2990,75,42,24,36,0.0,2-4,other
2991,74,48,28,36,0.0,2-4,other
2992,56,47,62,38,0.0,2-4,other
2993,65,32,11,49,0.0,2-4,other
2994,72,46,47,54,0.0,2-4,other
2995,62,43,47,95,7.0,2-3,minor
2996,67,59,75,35,7.0,2-3,minor
2997,77,68,36,34,7.0,2-3,minor
2998,55,33,112,91,0.0,2-3,minor
2999,67,40,47,49,0.0,2-3,minor
3000,67,40,19,53,0.0,2-3,minor
3001,60,80,22,274,0.0,3-11B,other
3002,63,90,23,28,0.0,3-11B,other
3003,68,85,55,28,0.0,3-11B,other
3004,63,76,33,32,0.0,3-11B,other
3005,55,37,79,138,7.0,3-11B,major
3006,71,36,152,273,7.0,2-5,other
3007,74,44,154,70,7.0,2-5,other
3008,84,46,29,115,7.0,2-5,other
3009,83,51,19,39,7.0,2-5,other
3010,84,51,30,255,3.0,4-19B,augmented
3011,79,37,15,33,3.0,4-19B,augmented
3012,60,31,30,76,10.0,2-5,other
3013,67,34,38,34,10.0,2-5,other
3014,68,29,141,42,10.0,2-5,other
3015,70,31,137,42,10.0,2-5,other
3016,72,61,42,775,0.0,3-11B,other
3017,70,62,36,45,0.0,3-11B,other
3018,77,74,33,42,0.0,3-11B,other
3019,79,55,152,108,10.0,2-4,major
3020,77,60,86,164,10.0,2-4,major
3021,75,60,30,337,7.0,2-5,other
3022,77,92,24,54,7.0,2-5,other
3023,68,87,47,76,7.0,2-5,other
3024,67,71,43,108,8.0,2-3,minor
3025,65,62,95,45,8.0,2-3,minor
3026,62,30,33,91,8.0,2-3,minor
3027,67,47,36,58,8.0,2-3,minor
3028,71,69,31,37,8.0,2-3,minor
3029,77,78,50,51,8.0,2-3,minor
3030,74,58,65,53,8.0,2-3,minor
3031,55,24,18,251,0.0,1-1,other
3032,70,56,49,128,0.0,1-1,other
3033,67,47,27,32,0.0,1-1,other
3034,67,43,141,101,7.0,3-7A,minor
3035,46,38,250,66,7.0,3-7A,minor
3036,62,49,23,225,7.0,3-7A,minor
3037,63,59,100,107,3.0,3-5A,other
3038,60,29,11,105,0.0,2-3,minor
3039,57,30,53,144,2.0,5-35,minor
3040,82,60,30,318,5.0,4-22A,major
3041,55,33,8,98,0.0,1-1,other
3042,48,33,65,343,0.0,2-2,other
3043,62,29,53,84,0.0,2-2,other
3044,39,70,99,332,3.0,4-22A,major
3045,46,35,58,83,3.0,4-22A,major
3046,58,33,424,105,0.0,3-9,other
3047,75,45,44,179,7.0,4-26,minor
3048,82,80,42,53,7.0,4-26,minor
3049,79,62,23,44,7.0,4-26,minor
3050,84,94,49,42,7.0,4-26,minor
3051,82,71,46,53,7.0,4-26,minor
3052,75,46,59,49,7.0,4-26,minor
3053,44,43,21,100,5.0,2-4,other
3054,63,32,196,533,0.0,1-1,other
3055,63,34,88,248,5.0,3-11A,other
3056,70,73,27,61,5.0,3-11A,other
3057,72,66,30,38,5.0,3-11A,other
3058,46,47,34,85,0.0,2-3,minor
3059,58,51,337,77,7.0,3-11A,minor
3060,67,43,227,93,7.0,2-5,other
3061,69,77,27,107,0.0,2-2,other
3062,70,90,39,34,0.0,2-2,other
3063,58,42,13,196,0.0,3-11B,other
3064,46,49,11,179,0.0,3-11B,other
3065,56,51,71,323,0.0,4-22A,other
3066,60,44,171,77,0.0,4-22A,other
3067,47,45,24,149,0.0,4-22A,other
3068,67,69,55,232,0.0,3-11B,other
3069,65,69,21,50,0.0,3-11B,other
3070,72,62,20,182,10.0,3-11B,major
3071,75,73,25,103,3.0,3-4A,major
3072,74,69,41,151,0.0,4-26,other
3073,55,35,55,165,7.0,3-11A,minor
3074,58,32,40,52,7.0,3-11A,minor
3075,72,67,21,32,7.0,3-11A,minor
3076,74,81,20,27,7.0,3-11A,minor
3077,73,7,41,110,3.0,2-4,major
3078,67,42,16,129,3.0,3-11B,major
3079,68,58,28,99,0.0,4-22A,other
3080,63,59,329,96,0.0,2-4,other
3081,68,48,68,329,0.0,2-4,other
3082,56,36,31,399,7.0,5-31B,major
3083,71,42,280,170,7.0,2-5,other
3084,76,49,75,104,7.0,2-2,other
3085,75,51,70,74,7.0,2-2,other
3086,74,46,58,73,7.0,2-2,other
3087,71,44,47,57,7.0,2-2,other
3088,68,56,37,42,7.0,2-2,other
3089,67,58,44,44,7.0,2-2,other
3090,65,40,51,46,7.0,2-2,other
3091,55,22,61,117,0.0,2-3,minor
3092,60,24,73,64,0.0,2-3,minor
3093,74,40,38,312,5.0,1-1,other
3094,50,49,66,213,7.0,3-11A,minor
3095,67,64,40,83,7.0,2-3,minor
3096,55,37,12,96,0.0,2-3,minor
3097,77,64,18,108,3.0,3-11B,major
3098,79,68,16,30,3.0,3-11B,major
3099,51,44,119,81,5.0,4-14A,other
3100,56,54,78,41,5.0,4-14A,other
3101,53,58,98,146,5.0,2-4,major
3102,45,61,11,101,5.0,2-4,major
3103,46,59,61,153,0.0,5-35,other
3104,46,39,39,77,0.0,5-35,other
3105,46,32,37,253,3.0,3-9,other
3106,67,64,180,153,3.0,3-9,other
3107,70,43,135,182,3.0,3-9,other
3108,72,52,11,334,10.0,3-11B,major
3109,63,56,22,255,0.0,4-26,minor
3110,70,80,20,99,0.0,3-11B,other
3111,75,71,12,103,0.0,3-11A,minor
3112,70,52,24,273,0.0,4-22A,other
3113,72,52,32,27,0.0,4-22A,other
3114,46,49,20,71,3.0,4-20,major
3115,55,51,24,26,3.0,4-20,major
3116,58,55,254,26,3.0,4-20,major
3117,63,42,38,715,6.0,3-11A,minor
3118,100,56,15,405,1.0,2-2,other
3119,101,51,13,26,1.0,2-2,other
3120,102,48,26,64,1.0,2-2,other
3121,46,38,12,78,7.0,2-3,minor
3122,56,51,102,46,7.0,2-3,minor
3123,72,28,11,229,0.0,5-35,other
3124,82,70,9,67,8.0,2-1,other
3125,80,52,11,32,8.0,2-1,other
3126,72,42,20,60,3.0,2-5,other
3127,72,47,14,66,3.0,3-4B,other
3128,68,46,10,60,0.0,2-3,minor
3129,53,22,44,69,5.0,3-11A,other
3130,53,32,5,67,0.0,3-11B,other
3131,41,31,44,81,0.0,4-22A,other
3132,34,25,41,213,8.0,4-22B,other
3133,72,87,41,538,3.0,2-5,other
3134,70,75,47,33,3.0,2-5,other
3135,70,53,51,100,7.0,3-11A,minor
3136,63,68,14,244,0.0,4-26,minor
3137,56,50,297,485,7.0,4-18A,major
3138,59,37,211,82,7.0,4-18A,major
3139,79,44,170,203,7.0,4-27B,major
3140,75,42,88,316,0.0,6-33A,other
3141,51,23,42,195,3.0,2-5,other
3142,55,33,41,45,3.0,2-5,other
3143,56,35,225,46,3.0,2-5,other
3144,60,29,29,48,3.0,2-5,other
3145,60,26,118,52,3.0,2-5,other
3146,63,38,22,48,3.0,2-5,other
3147,74,66,18,41,3.0,2-5,other
3148,75,78,13,33,3.0,2-5,other
3149,50,41,36,79,7.0,2-3,minor
3150,55,44,28,41,7.0,2-3,minor
3151,55,42,95,139,0.0,3-7A,minor
3152,58,30,43,56,0.0,3-7A,minor
3153,70,59,24,51,0.0,3-7A,minor
3154,43,66,34,235,5.0,2-5,other
3155,72,72,30,214,5.0,3-11A,other
3156,71,77,27,33,5.0,3-11A,other
3157,72,78,32,32,5.0,3-11A,other
3158,74,55,7,170,0.0,4-26,other
3159,50,46,108,135,7.0,4-26,minor
3160,55,51,69,59,7.0,4-26,minor
3161,72,65,17,45,7.0,4-26,minor
3162,74,71,16,33,7.0,4-26,minor
3163,55,36,133,93,0.0,2-3,minor
3164,68,45,12,248,0.0,2-4,other
3165,56,34,22,121,8.0,2-3,other
3166,44,31,120,133,0.0,5-27A,other
3167,56,39,193,70,0.0,5-27A,other
3168,75,58,50,159,0.0,5-27A,other
3169,63,33,25,186,0.0,3-11B,other
3170,63,33,27,59,0.0,3-11B,other
3171,50,33,182,197,10.0,3-11B,major
3172,77,64,18,194,2.0,2-3,minor
3173,72,58,31,145,0.0,3-11A,minor
3174,67,44,135,222,5.0,1-1,other
3175,72,1,37,174,0.0,2-4,other
3176,77,54,32,61,0.0,2-4,other
3177,55,22,151,195,0.0,2-3,minor
3178,60,51,33,62,0.0,2-3,minor
3179,63,82,27,45,0.0,2-3,minor
3180,65,81,22,39,0.0,2-3,minor
3181,67,63,13,29,0.0,2-3,minor
3182,56,50,28,206,0.0,3-11B,other
3183,60,55,35,231,0.0,3-11A,minor
3184,67,66,13,130,5.0,2-5,other
3185,72,47,34,159,0.0,4-26,other
3186,74,47,25,329,5.0,3-11A,other
3187,72,45,12,31,5.0,3-11A,other
3188,55,30,42,84,7.0,2-3,minor
3189,58,32,46,43,7.0,2-3,minor
3190,55,32,141,146,10.0,4-22A,major
3191,48,27,32,134,0.0,3-7A,minor
3192,89,62,19,460,3.0,3-9,other
3193,84,71,30,76,1.0,3-9,other
3194,80,57,34,36,1.0,3-9,other
3195,58,39,250,176,7.0,3-11A,minor
3196,44,53,29,592,5.0,3-4A,other
3197,53,43,28,37,5.0,3-4A,other
3198,60,30,5,131,0.0,4-22A,other
3199,101,53,25,391,0.0,2-3,minor
3200,101,47,21,35,0.0,2-3,minor
3201,58,36,266,142,7.0,4-26,minor
3202,67,34,67,70,10.0,2-4,major
3203,72,58,23,663,10.0,2-5,other
3204,44,40,35,77,5.0,3-4A,other
3205,53,45,33,37,5.0,3-4A,other
3206,72,53,33,199,5.0,2-5,other
3207,46,51,25,70,3.0,4-20,major
3208,58,44,123,62,7.0,2-5,other
3209,67,43,45,73,10.0,4-20,major
3210,58,45,5,74,10.0,2-4,major
3211,39,51,39,40,10.0,2-4,major
3212,46,43,35,37,10.0,2-4,major
3213,58,33,63,84,7.0,3-11A,minor
3214,58,35,6,86,10.0,3-11B,major
3215,37,56,41,129,7.0,4-26,minor
3216,44,46,35,41,7.0,4-26,minor
3217,56,35,161,88,8.0,2-3,other
3218,63,37,49,99,5.0,2-5,other
3219,56,42,14,105,5.0,3-11A,other
3220,62,41,276,118,0.0,3-11A,minor
3221,63,35,34,56,0.0,3-11A,minor
3222,74,65,19,58,0.0,3-11A,minor
3223,75,64,27,41,0.0,3-11A,minor
3224,72,31,79,215,0.0,3-11A,minor
3225,56,38,53,73,0.0,2-4,other
3226,60,31,57,51,0.0,2-4,other
3227,63,31,96,50,0.0,2-4,other
3228,68,36,64,50,0.0,2-4,other
3229,80,52,19,46,0.0,2-4,other
3230,77,51,32,191,7.0,3-11B,major
3231,79,64,18,93,0.0,5-27B,minor
3232,75,59,24,94,5.0,2-4,major
3233,72,54,15,105,8.0,4-27B,other
3234,77,57,13,115,7.0,3-7A,minor
3235,67,62,50,122,0.0,3-11A,minor
3236,60,52,34,129,0.0,3-11B,other
3237,67,69,15,313,0.0,4-26,minor
3238,63,48,39,119,5.0,3-11B,major
3239,60,49,53,122,8.0,4-27B,other
3240,65,64,24,111,7.0,3-11A,minor
3241,48,91,57,238,0.0,3-11B,other
3242,48,96,51,70,0.0,3-11B,other
3243,65,74,49,212,7.0,3-11B,major
3244,63,83,48,290,5.0,3-11B,major
3245,60,81,41,174,8.0,4-27B,other
3246,65,92,49,176,7.0,3-7A,minor
3247,108,48,25,868,8.0,2-2,other
3248,108,45,25,35,8.0,2-2,other
3249,108,40,24,37,8.0,2-2,other
3250,108,40,25,37,8.0,2-2,other
3251,74,73,150,0,,,
3252,58,41,817,553,7.0,2-5,other
3253,70,67,20,467,2.0,2-5,other
3254,74,62,21,58,2.0,2-5,other
3255,73,54,38,730,2.0,1-1,other
3256,74,66,59,45,2.0,1-1,other
3257,91,63,132,700,2.0,1-1,other
3258,42,60,72,2235,10.0,3-12,augmented
3259,55,85,168,1165,9.0,4-27A,diminished
3260,50,63,198,1895,10.0,3-4A,major
3261,67,48,45,917,7.0,5-27B,minor
3262,77,111,200,219,0.0,5-27B,minor
3263,58,68,38,752,0.0,4-29B,other
3264,56,66,89,393,8.0,2-6,other
3265,46,51,29,109,8.0,2-6,other
3266,27,53,15,233,0.0,4-23,minor
3267,74,111,74,554,7.0,4-23,minor
3268,63,15,237,141,7.0,3-9,other
3269,50,48,644,119,7.0,3-9,other
3270,67,56,78,531,3.0,4-16A,major
3271,63,40,42,52,3.0,4-16A,major
3272,74,4,287,135,6.0,3-10,other
3273,50,45,121,94,6.0,3-10,other
3274,50,51,167,171,6.0,3-10,other
3275,81,70,57,287,6.0,3-10,other
3276,62,46,383,696,2.0,3-11B,major
3277,54,71,233,376,10.0,2-4,other
3278,54,58,32,394,10.0,2-4,other
3279,53,58,172,388,10.0,3-11B,major
3280,57,55,48,1119,2.0,4-29A,minor
3281,75,78,81,106,2.0,4-29A,minor
3282,53,54,443,292,8.0,3-8A,other
3283,44,64,32,586,8.0,3-10,other
3284,44,57,59,688,10.0,5-30B,other
3285,50,70,100,610,11.0,3-8B,other
3286,53,55,12,111,11.0,3-8B,other
3287,59,68,78,1029,0.0,5-27B,minor
3288,60,82,123,111,0.0,5-27B,minor
3289,59,80,117,247,3.0,3-4A,major
3290,70,1,282,378,3.0,4-20,major
3291,46,85,67,471,3.0,2-4,major
3292,45,92,32,154,3.0,2-4,major
3293,38,42,314,1008,10.0,5-30B,other
3294,38,52,20,377,10.0,4-24,augmented
3295,50,72,214,398,7.0,4-14A,minor
3296,55,80,212,176,7.0,4-14A,minor
3297,50,89,148,187,7.0,4-14A,minor
3298,74,68,79,800,9.0,4-27A,diminished
3299,62,38,430,361,7.0,1-1,other
3300,67,57,255,191,7.0,1-1,other
3301,69,64,119,141,7.0,1-1,other
3302,70,77,114,122,7.0,1-1,other
3303,75,94,69,378,10.0,2-4,major
3304,77,111,83,69,10.0,2-4,major
3305,80,92,94,181,7.0,4-13B,other
3306,82,87,41,64,7.0,4-13B,other
3307,84,72,55,51,7.0,4-13B,other
3308,86,76,42,52,7.0,4-13B,other
3309,87,85,48,56,7.0,4-13B,other
3310,46,62,62,163,3.0,2-1,other
3311,55,57,78,82,3.0,2-1,other
3312,58,58,210,80,3.0,2-1,other
3313,58,61,16,300,7.0,3-11A,minor
3314,45,66,41,725,0.0,3-11A,minor
3315,65,88,106,1180,8.0,5-31B,diminished
3316,59,61,12,369,8.0,4-28,diminished
3317,55,56,291,399,0.0,4-26,minor
3318,58,62,94,173,0.0,4-26,minor
3319,62,50,48,64,0.0,4-26,minor
3320,63,45,36,48,0.0,4-26,minor
3321,67,61,41,59,0.0,4-26,minor
3322,72,66,44,55,0.0,4-26,minor
3323,75,85,26,52,0.0,4-26,minor
3324,79,96,50,51,0.0,4-26,minor
3325,87,90,70,117,9.0,3-7A,minor
3326,91,84,130,64,9.0,3-7A,minor
3327,86,64,66,64,9.0,3-7A,minor
3328,84,70,90,321,9.0,4-27A,diminished
3329,86,72,67,82,9.0,4-27A,diminished
3330,87,68,45,101,9.0,4-27A,diminished
3331,55,55,16,590,5.0,3-12,augmented
3332,39,55,43,123,5.0,3-12,augmented
3333,38,45,28,733,2.0,4-27B,major
3334,69,63,35,393,7.0,4-14A,minor
3335,56,38,46,435,10.0,4-19B,augmented
3336,55,59,63,61,10.0,4-19B,augmented
3337,54,66,647,57,10.0,4-19B,augmented
3338,57,92,112,555,10.0,4-19B,augmented
3339,54,78,114,122,10.0,4-19B,augmented
3340,43,88,355,248,10.0,3-11B,major
3341,58,49,424,3111,10.0,4-20,major
3342,72,25,20,438,10.0,3-11B,major
3343,74,56,38,30,10.0,3-11B,major
3344,75,71,18,36,10.0,3-11B,major
3345,77,82,42,32,10.0,3-11B,major
3346,79,88,63,34,10.0,3-11B,major
3347,82,72,27,80,3.0,5-20B,major
3348,84,75,46,40,3.0,5-20B,major
3349,86,77,97,38,3.0,5-20B,major
3350,87,83,64,105,3.0,5-20B,major
3351,89,85,66,67,3.0,5-20B,major
3352,86,75,81,175,9.0,3-8B,other
3353,87,77,61,85,9.0,3-8B,other
3354,89,63,24,83,9.0,3-8B,other
3355,38,48,32,603,1.0,3-5B,other
3356,26,63,21,120,1.0,3-5B,other
3357,74,127,74,3115,10.0,3-4A,major
3358,74,67,42,387,10.0,2-4,major
3359,70,1,223,189,10.0,3-12,augmented
3360,54,56,89,56,10.0,3-12,augmented
3361,54,62,71,139,10.0,3-12,augmented
3362,74,122,57,591,10.0,2-4,major
3363,77,127,69,91,10.0,2-4,major
3364,77,127,61,117,10.0,2-4,major
3365,72,64,15,212,5.0,5-34,major
3366,44,66,34,553,6.0,3-10,minor
3367,54,92,157,593,10.0,3-12,augmented
3368,54,54,22,368,10.0,4-19B,augmented
3369,50,77,230,377,10.0,2-4,major
3370,43,78,86,138,10.0,2-4,major
3371,74,127,46,636,7.0,3-11A,minor
3372,77,127,60,85,7.0,3-11A,minor
3373,77,92,32,94,7.0,3-11A,minor
3374,68,43,15,55,7.0,3-11A,minor
3375,41,68,26,301,3.0,2-1,other
3376,70,57,75,411,9.0,2-3,minor
3377,73,70,124,90,9.0,2-3,minor
3378,72,50,105,200,8.0,4-15B,other
3379,65,38,16,130,8.0,4-15B,other
3380,70,84,110,67,8.0,4-15B,other
3381,72,74,60,123,8.0,4-15B,other
3382,70,66,84,72,8.0,4-15B,other
3383,39,73,60,120,8.0,4-15B,other
3384,70,62,38,694,5.0,4-16A,other
3385,74,85,63,422,9.0,4-27A,diminished
3386,75,83,30,54,9.0,4-27A,diminished
3387,79,82,25,59,9.0,4-27A,diminished
3388,84,120,29,53,9.0,4-27A,diminished
3389,87,117,40,48,9.0,4-27A,diminished
3390,87,68,29,115,9.0,4-27A,diminished
3391,90,102,92,163,2.0,4-16B,major
3392,82,85,77,672,6.0,3-5B,other
3393,50,56,406,198,9.0,2-2,other
3394,50,73,84,588,10.0,3-12,augmented
3395,66,3,79,640,7.0,4-19A,minor
3396,69,81,61,517,10.0,3-4A,major
3397,70,85,28,53,10.0,3-4A,major
3398,74,88,24,55,10.0,3-4A,major
3399,77,115,26,52,10.0,3-4A,major
3400,81,127,36,54,10.0,3-4A,major
3401,84,102,43,116,10.0,3-6,major
3402,82,85,49,56,10.0,3-6,major
3403,81,48,21,26,10.0,3-6,major
3404,55,63,42,159,0.0,4-26,minor
3405,70,71,80,75,0.0,4-26,minor
3406,69,75,52,120,0.0,4-26,minor
3407,74,71,31,121,5.0,4-24,augmented
3408,73,75,62,250,2.0,2-5,other
3409,46,55,74,187,8.0,3-5B,other
3410,44,45,52,605,2.0,1-1,other
3411,50,71,54,364,8.0,4-28,diminished
3412,47,63,64,381,8.0,4-28,diminished
3413,74,83,42,204,0.0,3-11A,minor
3414,74,77,44,129,0.0,3-11A,minor
3415,74,62,24,660,3.0,3-11B,major
3416,86,63,32,119,3.0,3-11B,major
3417,84,57,45,253,7.0,2-5,other
3418,46,45,57,139,7.0,2-5,other
3419,69,89,215,2164,10.0,3-4A,major
3420,51,92,225,359,9.0,4-27A,diminished
3421,63,85,150,384,0.0,3-11A,minor
3422,45,50,39,141,0.0,3-11A,minor
3423,72,66,36,743,7.0,3-11A,minor
3424,75,75,38,62,7.0,3-11A,minor
3425,58,49,37,196,0.0,4-20,other
3426,70,68,72,158,0.0,4-20,other
3427,46,94,196,1023,7.0,3-11A,minor
3428,34,80,73,134,7.0,3-11A,minor
3429,53,57,473,1061,10.0,3-11B,major
3430,46,59,62,343,10.0,3-11B,major
3431,47,77,36,146,10.0,3-11B,major
3432,86,73,35,752,8.0,2-3,minor
3433,55,60,127,253,0.0,3-11A,minor
3434,48,38,43,518,0.0,3-11A,minor
3435,45,82,117,96,11.0,2-1,other
3436,33,68,9,126,11.0,2-1,other
3437,75,52,47,2098,10.0,5-30B,other
3438,81,44,157,224,10.0,3-4A,major
3439,55,52,141,444,10.0,3-4A,major
3440,50,49,304,1921,3.0,4-16A,major
3441,50,48,283,388,6.0,3-10,other
3442,50,78,260,373,7.0,3-11A,minor
3443,50,87,177,377,7.0,3-11A,minor
3444,50,83,234,391,7.0,5-17,minor
3445,75,58,26,1556,0.0,5-35,minor
3446,74,30,143,1010,1.0,4-9,other
3447,39,35,110,483,5.0,4-16A,other
3448,46,63,216,99,5.0,4-16A,other
3449,46,85,88,241,7.0,4-26,minor
3450,46,63,96,118,7.0,4-26,minor
3451,81,66,31,1585,2.0,4-21,major
3452,82,81,95,2222,10.0,4-20,major
3453,55,78,197,372,9.0,4-13A,diminished
3454,44,55,50,1914,10.0,5-30B,other
3455,46,96,98,392,8.0,5-31B,diminished
3456,47,94,102,113,8.0,5-31B,diminished
3457,51,85,99,250,8.0,3-10,diminished
3458,52,82,108,108,8.0,3-10,diminished
3459,77,83,79,629,8.0,4-28,diminished
3460,75,50,14,120,8.0,4-28,diminished
3461,62,57,106,332,0.0,4-14A,minor
3462,55,48,16,374,0.0,3-11A,minor
3463,46,52,256,388,3.0,4-20,major
3464,46,49,56,354,3.0,3-11B,major
3465,62,52,85,418,3.0,4-16A,major
3466,54,40,398,748,2.0,4-12A,major
3467,65,26,26,884,2.0,3-7B,other
3468,43,62,584,1250,9.0,5-29B,diminished
3469,50,57,452,182,9.0,5-29B,diminished
3470,57,66,432,85,9.0,5-29B,diminished
3471,58,70,61,70,9.0,5-29B,diminished
3472,62,74,77,67,9.0,5-29B,diminished
3473,66,66,58,63,9.0,5-29B,diminished
3474,69,81,28,61,9.0,5-29B,diminished
3475,74,81,140,71,9.0,5-29B,diminished
3476,78,78,96,72,9.0,5-29B,diminished
3477,81,78,167,79,9.0,5-29B,diminished
3478,81,1,30,251,7.0,4-19A,minor
3479,69,47,35,47,7.0,4-19A,minor
3480,70,51,68,98,7.0,4-19A,minor
3481,74,34,72,79,7.0,4-19A,minor
3482,81,46,67,188,2.0,3-11B,major
3483,81,47,265,171,2.0,2-5,other
3484,43,51,240,0,8.0,1-1,other
3485,55,50,184,32,8.0,1-1,other
3486,36,60,1280,232,8.0,1-1,other
3487,43,44,272,1288,8.0,1-1,other
3488,55,50,184,32,8.0,1-1,other
3489,44,43,72,2880,4.0,3-5B,other
3490,57,71,136,32,4.0,3-5B,other
3491,45,64,192,32,4.0,3-5B,other
3492,56,59,176,120,4.0,3-5B,other
3493,44,45,168,56,4.0,3-5B,other
3494,45,55,160,544,9.0,2-1,other
3495,43,60,288,864,8.0,1-1,other
3496,55,54,216,40,8.0,1-1,other
3497,56,26,120,1184,3.0,3-5B,other
3498,48,71,40,1368,7.0,1-1,other
3499,46,57,24,64,7.0,1-1,other
3500,47,49,48,32,7.0,1-1,other
3501,48,59,24,80,7.0,1-1,other
3502,50,47,32,56,7.0,1-1,other
3503,52,66,24,32,7.0,1-1,other
3504,53,66,24,32,7.0,1-1,other
3505,55,71,24,32,7.0,1-1,other
3506,57,59,32,32,7.0,1-1,other
3507,59,43,32,48,7.0,1-1,other
3508,60,57,32,40,7.0,1-1,other
3509,62,64,32,32,7.0,1-1,other
3510,61,38,30,1543,5.0,3-4A,other
3511,61,36,207,1129,5.0,3-11A,other
3512,73,39,77,178,5.0,3-11A,other
3513,68,64,105,190,5.0,3-11A,other
3514,62,24,274,91,5.0,3-11A,other
3515,59,32,237,43,5.0,3-11A,other
3516,79,60,58,243,7.0,1-1,other
3517,60,26,43,1162,1.0,2-2,other
3518,58,25,37,28,1.0,2-2,other
3519,72,24,163,185,1.0,2-2,other
3520,84,73,58,528,1.0,2-2,other
3521,84,71,69,200,1.0,2-2,other
3522,72,48,36,196,1.0,2-2,other
3523,72,45,88,126,1.0,2-2,other
3524,77,53,164,395,0.0,4-26,other
3525,77,62,31,212,0.0,4-26,other
3526,76,54,33,1025,5.0,1-1,other
3527,76,54,58,278,9.0,2-2,other
3528,60,1,309,56,9.0,2-2,other
3529,76,59,69,203,5.0,1-1,other
3530,79,36,112,550,6.0,1-1,other
3531,67,61,29,57,6.0,1-1,other
3532,83,66,95,322,8.0,3-10,minor
3533,71,40,73,63,8.0,3-10,minor
3534,52,34,846,302,7.0,4-29B,major
3535,74,22,92,33,7.0,4-29B,major
3536,59,46,93,707,7.0,4-29B,major
3537,60,60,100,110,7.0,4-29B,major
3538,64,53,113,113,7.0,4-29B,major
3539,67,60,59,99,7.0,4-29B,major
3540,63,64,120,88,7.0,4-29B,major
3541,64,66,124,83,7.0,4-29B,major
3542,68,52,115,112,7.0,4-29B,major
3543,71,62,72,100,7.0,4-29B,major
3544,58,33,275,80,5.0,2-2,other
3545,67,46,106,37,5.0,2-2,other
3546,68,59,117,76,5.0,2-2,other
3547,72,54,96,112,5.0,2-2,other
3548,75,67,80,91,5.0,2-2,other
3549,71,64,117,93,4.0,3-9,other
3550,72,64,102,120,4.0,3-9,other
3551,76,61,106,91,4.0,3-9,other
3552,79,71,57,86,4.0,3-9,other
3553,75,55,91,100,5.0,3-9,other
3554,76,32,80,95,5.0,3-9,other
3555,80,48,136,61,5.0,3-9,other
3556,83,63,66,108,5.0,3-9,other
3557,79,55,82,112,8.0,3-10,other
3558,80,46,169,51,8.0,3-10,other
3559,83,54,70,188,8.0,3-10,other
3560,86,76,50,90,8.0,3-10,other
3561,87,74,994,128,3.0,4-20,major
3562,86,62,133,1026,3.0,4-20,major
3563,87,80,80,121,3.0,4-20,major
3564,81,36,99,1933,2.0,4-29B,major
3565,81,35,137,397,2.0,4-29B,major
3566,86,44,113,2350,2.0,4-23,minor
3567,53,1,101,1220,0.0,4-26,minor
3568,60,17,1382,89,0.0,4-26,minor
3569,75,59,152,147,2.0,2-5,other
3570,74,45,89,113,2.0,2-5,other
3571,72,58,46,104,2.0,2-5,other
3572,63,32,708,61,2.0,2-5,other
3573,57,17,600,67,7.0,3-9,other
3574,75,56,157,85,7.0,3-9,other
3575,74,33,99,97,7.0,3-9,other
3576,72,54,35,105,7.0,3-9,other
3577,75,51,108,276,2.0,2-5,other
3578,74,47,99,43,2.0,2-5,other
3579,72,39,179,127,2.0,2-5,other
3580,70,65,108,244,2.0,2-5,other
3581,69,28,155,200,2.0,3-8A,major
3582,66,25,202,353,7.0,2-5,other
3583,71,65,65,220,7.0,2-5,other
3584,54,33,49,28,7.0,2-5,other
3585,66,30,238,120,7.0,2-5,other
3586,62,36,271,363,11.0,3-2B,minor
3587,62,42,307,354,11.0,3-2B,minor
3588,50,72,1092,257,11.0,3-2B,minor
3589,74,67,91,517,11.0,3-2B,minor
3590,74,74,69,283,11.0,3-2B,minor
3591,79,54,66,199,11.0,3-2B,minor
3592,79,66,63,193,11.0,3-2B,minor
3593,83,46,38,155,11.0,3-2B,minor
3594,82,62,26,299,0.0,2-1,other
3595,74,61,80,195,2.0,2-2,other
3596,86,56,201,243,1.0,4-4A,minor
3597,74,59,137,66,1.0,4-4A,minor
3598,74,49,88,759,0.0,3-6,major
3599,68,33,26,1892,2.0,2-4,major
3600,71,35,92,156,11.0,4-4A,minor
3601,59,17,146,2476,7.0,2-4,major
3602,71,71,71,27,7.0,2-4,major
3603,57,57,281,278,2.0,3-6,major
3604,58,29,207,2401,2.0,2-5,other
3605,59,54,61,227,2.0,2-5,other
3606,56,39,687,456,4.0,3-11B,major
3607,60,22,356,3071,0.0,4-24,augmented
3608,72,47,252,108,3.0,4-11B,other
3609,87,34,71,1162,0.0,4-20,other
3610,92,32,51,822,5.0,3-4A,other
3611,94,33,26,389,5.0,4-11A,other
3612,55,6,81,767,7.0,4-20,major
3613,86,39,32,44,7.0,4-20,major
3614,55,24,104,267,7.0,4-20,major
3615,86,36,31,1436,0.0,5-35,minor
3616,72,51,26,2250,3.0,3-7A,other
3617,61,37,244,137,3.0,3-7A,other
3618,68,35,157,763,1.0,3-10,minor
3619,58,21,67,264,1.0,3-10,minor
3620,48,49,448,775,0.0,4-26,minor
3621,51,29,76,1532,0.0,4-26,minor
3622,54,28,35,64,0.0,4-26,minor
3623,54,37,103,265,7.0,4-18A,major
3624,53,32,659,158,7.0,4-18A,major
3625,59,41,334,56,8.0,3-10,other
3626,65,37,43,843,8.0,3-10,other
3627,74,94,145,117,8.0,3-10,other
3628,60,22,141,1063,5.0,2-4,other
3629,61,25,110,232,5.0,3-11A,other
3630,75,75,113,2691,0.0,4-26,other
3631,72,71,86,280,0.0,4-26,other
3632,66,51,60,221,0.0,4-26,other
3633,67,55,171,325,0.0,4-26,other
3634,68,60,81,192,0.0,4-26,other
3635,67,36,34,94,0.0,4-26,other
3636,65,59,236,47,0.0,4-26,other
3637,48,35,36,283,4.0,2-6,other
3638,63,42,110,135,4.0,2-6,other
3639,61,46,101,212,4.0,2-6,other
3640,60,30,165,141,4.0,2-6,other
3641,56,37,239,395,10.0,2-5,other
3642,53,43,36,260,10.0,2-5,other
3643,55,55,232,104,10.0,2-5,other
3644,52,44,48,283,10.0,2-5,other
3645,53,36,235,107,10.0,2-5,other
3646,48,64,47,260,10.0,2-5,other
3647,89,46,38,2308,9.0,1-1,other
3648,85,57,26,1529,0.0,4-23,minor
3649,53,28,221,432,0.0,3-7A,minor
3650,82,69,143,219,0.0,3-7A,minor
3651,79,63,182,249,0.0,3-7A,minor
3652,75,56,167,492,0.0,4-26,other
3653,72,70,88,242,0.0,2-4,other
3654,65,51,205,497,0.0,3-11B,other
3655,68,62,214,277,3.0,2-5,other
3656,70,78,181,512,2.0,4-26,minor
3657,71,75,174,252,2.0,4-26,minor
3658,64,55,27,231,2.0,4-26,minor
3659,70,53,225,211,11.0,4-13A,diminished
3660,70,35,104,426,11.0,2-3,minor
3661,71,27,74,348,4.0,2-3,minor
3662,54,49,108,154,7.0,2-1,other
3663,83,65,115,683,2.0,3-9,other
3664,71,22,68,26,2.0,3-9,other
3665,75,50,140,2278,7.0,2-5,other
3666,74,36,68,99,7.0,2-5,other
3667,75,36,145,351,7.0,2-5,other
3668,74,30,82,83,7.0,2-5,other
3669,72,29,128,107,7.0,2-5,other
3670,75,38,177,471,7.0,2-3,minor
3671,74,45,82,114,7.0,2-3,minor
3672,72,60,80,103,7.0,2-3,minor
3673,72,48,77,363,3.0,2-5,other
3674,53,46,29,411,3.0,2-5,other
3675,54,47,93,32,3.0,2-5,other
3676,79,73,108,1686,0.0,5-30B,other
3677,77,60,101,416,0.0,4-16A,other
3678,62,44,190,644,2.0,2-2,other
3679,70,46,197,129,0.0,2-5,other
3680,55,18,122,47,0.0,2-5,other
3681,60,47,75,586,3.0,2-4,major
3682,65,36,32,137,3.0,2-4,major
3683,60,31,789,215,3.0,4-19A,other
3684,60,53,67,1166,3.0,2-4,major
3685,62,39,65,116,3.0,2-4,major
3686,63,37,43,97,3.0,2-4,major
3687,65,54,75,109,3.0,2-4,major
3688,67,48,111,109,0.0,2-5,other
3689,63,1,265,65,0.0,2-5,other
3690,60,17,60,192,0.0,2-5,other
3691,54,23,631,340,10.0,3-9,other
3692,82,63,109,242,10.0,3-9,other
3693,87,67,51,106,10.0,3-9,other
3694,65,42,54,39,10.0,3-9,other
3695,89,78,64,67,10.0,3-9,other
3696,94,62,120,98,10.0,3-9,other
3697,99,64,83,98,10.0,3-9,other
3698,101,85,97,97,10.0,3-9,other
3699,95,85,68,375,2.0,2-2,other
3700,90,62,96,170,2.0,2-2,other
3701,88,51,70,121,2.0,2-2,other
3702,59,24,155,188,2.0,2-4,major
3703,86,69,70,178,2.0,2-4,major
3704,88,66,91,125,2.0,2-4,major
3705,83,52,163,138,11.0,2-2,other
3706,57,28,34,290,11.0,2-3,minor
3707,57,19,113,403,11.0,2-3,minor
3708,81,28,101,112,11.0,2-3,minor
3709,82,31,76,71,11.0,2-3,minor
3710,83,49,36,95,11.0,2-3,minor
3711,81,30,115,270,2.0,1-1,other
3712,82,31,54,34,2.0,1-1,other
3713,83,55,63,77,2.0,1-1,other
3714,86,81,108,78,2.0,1-1,other
3715,62,43,46,40,2.0,1-1,other
3716,82,42,53,79,2.0,1-1,other
3717,83,44,44,178,10.0,2-1,other
3718,86,77,111,78,10.0,2-1,other
3719,59,27,65,59,0.0,3-6,major
3720,81,29,101,91,0.0,3-6,major
3721,82,35,57,63,0.0,3-6,major
3722,83,36,46,88,0.0,3-6,major
3723,86,78,102,84,0.0,3-6,major
3724,74,42,142,28,0.0,3-6,major
3725,59,29,64,71,0.0,2-4,major
3726,81,30,71,70,0.0,2-4,major
3727,82,33,57,34,0.0,2-4,major
3728,74,11,329,734,0.0,4-20,major
3729,76,83,106,1484,6.0,3-8B,other
3730,74,54,91,102,6.0,3-8B,other
3731,71,54,69,90,6.0,3-8B,other
3732,81,50,93,311,11.0,2-2,other
3733,78,35,90,89,11.0,2-2,other
3734,86,72,115,193,4.0,2-5,other
3735,83,24,32,224,4.0,2-5,other
3736,88,78,127,595,11.0,3-7A,minor
3737,86,53,95,88,11.0,3-7A,minor
3738,83,52,43,105,11.0,3-7A,minor
3739,95,77,140,164,11.0,2-2,other
3740,93,54,98,99,11.0,2-2,other
3741,90,46,95,72,11.0,2-2,other
3742,88,50,52,106,11.0,2-2,other
3743,93,50,115,538,11.0,3-7A,minor
3744,89,32,129,382,7.0,4-22A,major
3745,60,34,34,255,6.0,3-7A,minor
3746,64,66,121,3238,3.0,4-20,other
3747,68,57,131,109,3.0,4-20,other
3748,71,65,59,105,3.0,4-20,other
3749,67,58,124,104,3.0,4-20,other
3750,68,47,107,77,3.0,4-20,other
3751,72,31,83,119,3.0,4-20,other
3752,75,69,79,75,3.0,4-20,other
3753,72,60,126,212,10.0,2-1,other
3754,76,53,105,100,10.0,2-1,other
3755,75,64,147,173,7.0,2-1,other
3756,76,44,61,109,7.0,2-1,other
3757,80,50,131,55,7.0,2-1,other
3758,83,71,60,109,7.0,2-1,other
3759,79,65,99,111,7.0,2-1,other
3760,80,45,110,75,7.0,2-1,other
3761,84,53,93,114,7.0,2-1,other
3762,65,24,29,128,1.0,3-10,diminished
3763,83,55,124,62,1.0,3-10,diminished
3764,84,55,102,98,1.0,3-10,diminished
3765,88,44,99,119,1.0,3-10,diminished
3766,90,23,25,109,3.0,4-24,augmented
3767,86,44,98,100,3.0,4-24,augmented
3768,90,44,98,407,10.0,4-29B,major
3769,56,34,104,401,0.0,1-1,other
3770,79,51,176,1112,8.0,2-1,other
3771,65,39,182,1399,0.0,4-11B,other
3772,55,41,90,889,11.0,4-23,minor
3773,58,35,72,309,11.0,4-23,minor
3774,58,34,130,262,5.0,4-19B,other
3775,60,30,34,579,0.0,4-26,minor
3776,63,29,53,335,0.0,3-11A,minor
3777,65,25,203,1569,0.0,3-11B,other
3778,53,32,34,273,0.0,3-11B,other
3779,56,49,71,370,0.0,3-11B,other
3780,63,37,132,2091,10.0,3-6,major
3781,62,26,92,103,10.0,3-6,major
3782,60,43,69,78,10.0,3-6,major
3783,63,57,269,118,10.0,3-6,major
3784,59,29,31,292,10.0,3-6,major
3785,62,57,223,103,10.0,3-6,major
3786,60,47,51,276,10.0,3-6,major
3787,62,45,169,150,10.0,3-6,major
3788,65,37,98,435,3.0,3-11A,other
3789,68,36,146,331,11.0,3-10,diminished
3790,71,66,79,204,11.0,3-10,diminished
3791,74,52,181,134,8.0,2-3,minor
3792,59,34,34,271,8.0,3-10,other
3793,80,34,152,111,8.0,3-10,other
3794,82,38,167,778,1.0,5-27A,other
3795,87,44,27,1039,1.0,4-13B,diminished
3796,92,32,27,403,6.0,4-29A,minor
3797,94,42,26,1550,0.0,2-2,other
3798,55,71,343,1150,10.0,3-11B,major
3799,70,53,190,501,0.0,3-8B,other
3800,67,43,153,419,0.0,3-6,other
3801,65,46,95,209,0.0,3-6,other
3802,64,36,168,152,0.0,3-6,other
3803,60,45,200,361,3.0,3-7A,other
3804,56,58,90,226,3.0,3-7A,other
3805,48,42,90,31,3.0,3-7A,other
3806,55,28,287,121,3.0,3-7A,other
3807,51,27,37,249,3.0,3-7A,other
3808,56,55,326,104,3.0,3-7A,other
3809,53,43,32,281,3.0,3-7A,other
3810,55,53,207,98,3.0,3-7A,other
3811,58,26,145,469,8.0,2-2,other
3812,78,58,138,1564,7.0,5-27A,major
3813,74,62,80,117,7.0,5-27A,major
3814,62,26,147,69,7.0,5-27A,major
3815,71,68,46,44,7.0,5-27A,major
3816,66,58,59,158,7.0,5-27A,major
3817,84,94,110,680,6.0,3-5B,other
3818,83,28,26,26,6.0,3-5B,other
3819,81,61,68,98,6.0,3-5B,other
3820,77,39,118,78,6.0,3-5B,other
3821,58,25,185,155,0.0,3-2A,minor
3822,79,43,91,187,10.0,2-5,other
3823,75,52,63,88,10.0,2-5,other
3824,58,20,248,44,10.0,2-5,other
3825,72,52,26,45,10.0,2-5,other
3826,87,84,78,82,10.0,2-5,other
3827,84,53,89,138,10.0,2-5,other
3828,89,88,90,977,0.0,4-26,other
3829,87,60,86,95,0.0,4-26,other
3830,87,64,107,231,5.0,2-5,other
3831,84,40,49,104,5.0,2-5,other
3832,80,47,38,88,5.0,2-5,other
3833,87,77,127,284,0.0,3-11B,other
3834,84,62,71,118,0.0,3-11B,other
3835,80,35,68,92,0.0,3-11B,other
3836,81,62,79,932,0.0,1-1,other
3837,77,49,112,120,0.0,1-1,other
3838,72,62,31,135,0.0,1-1,other
3839,69,62,66,535,8.0,3-10,minor
3840,56,27,46,235,3.0,3-11A,other
3841,78,21,209,155,7.0,2-5,other
3842,52,1,1213,340,7.0,2-5,other
3843,59,26,106,321,7.0,2-5,other
3844,74,87,152,53,7.0,2-5,other
3845,73,48,97,143,7.0,2-5,other
3846,72,49,75,57,7.0,2-5,other
3847,71,74,235,223,11.0,1-1,other
3848,67,68,100,239,11.0,1-1,other
3849,64,33,131,181,11.0,1-1,other
3850,59,37,130,205,11.0,1-1,other
3851,55,33,98,158,11.0,1-1,other
3852,53,27,25,237,11.0,1-1,other
3853,59,69,178,106,11.0,1-1,other
3854,55,42,72,242,11.0,1-1,other
3855,57,28,209,134,11.0,1-1,other
3856,60,48,119,409,0.0,2-2,other
3857,65,61,119,142,0.0,2-2,other
3858,70,64,61,122,0.0,2-2,other
3859,72,72,87,127,0.0,2-2,other
3860,63,40,190,48,0.0,2-2,other
3861,58,34,109,26,0.0,2-2,other
3862,77,70,102,41,0.0,2-2,other
3863,82,69,56,112,0.0,2-2,other
3864,84,80,83,128,0.0,2-2,other
3865,89,78,81,118,0.0,2-2,other
3866,94,83,92,123,0.0,2-2,other
3867,94,53,60,261,0.0,2-5,other
3868,94,60,73,236,0.0,1-1,other
3869,54,37,108,4131,7.0,4-23,minor
3870,69,51,178,2439,0.0,2-3,minor
3871,58,46,84,620,2.0,3-3A,major
3872,56,33,53,396,11.0,4-26,minor
3873,51,32,76,745,11.0,3-11A,minor
3874,64,64,309,2056,7.0,3-11B,major
3875,50,43,545,269,7.0,3-11B,major
3876,62,53,399,407,7.0,2-5,other
3877,62,51,314,474,2.0,3-9,other
3878,70,37,89,423,2.0,2-3,minor
3879,75,64,38,114,2.0,2-3,minor
3880,77,37,81,138,6.0,2-6,other
3881,82,48,99,108,6.0,2-6,other
3882,87,65,66,112,6.0,2-6,other
3883,50,67,617,92,6.0,2-6,other
3884,89,91,82,39,6.0,2-6,other
3885,87,57,57,134,6.0,2-6,other
3886,89,96,145,125,6.0,2-6,other
3887,87,77,156,112,6.0,2-6,other
3888,60,32,501,60,6.0,2-6,other
3889,82,61,102,69,6.0,2-6,other
3890,77,26,72,138,6.0,2-6,other
3891,87,78,137,369,3.0,2-1,other
3892,82,53,94,112,3.0,2-1,other
3893,57,1,478,289,11.0,3-10,diminished
3894,86,80,93,35,11.0,3-10,diminished
3895,50,38,1659,166,11.0,3-10,diminished
3896,86,87,129,88,11.0,3-10,diminished
3897,81,64,93,126,11.0,3-10,diminished
3898,78,48,103,122,11.0,3-10,diminished
3899,76,24,60,148,11.0,3-10,diminished
3900,81,74,114,114,11.0,3-10,diminished
3901,78,49,51,135,11.0,3-7A,minor
3902,81,88,131,110,11.0,3-7A,minor
3903,78,61,160,117,11.0,3-7A,minor
3904,71,43,70,251,4.0,3-7B,other
3905,50,55,499,606,11.0,3-7A,minor
3906,69,50,84,524,11.0,3-7A,minor
3907,70,38,67,74,11.0,3-7A,minor
3908,71,57,65,80,11.0,3-7A,minor
3909,74,95,125,102,11.0,3-7A,minor
3910,69,29,87,141,9.0,2-3,minor
3911,70,31,102,31,9.0,2-3,minor
3912,71,35,92,114,9.0,2-3,minor
3913,60,24,179,151,9.0,2-3,minor
3914,71,65,223,84,9.0,2-3,minor
3915,71,69,70,280,9.0,2-3,minor
3916,71,49,192,139,9.0,2-3,minor
3917,69,65,91,230,9.0,2-3,minor
3918,57,24,69,76,0.0,2-4,major
3919,69,31,164,78,0.0,2-4,major
3920,57,36,33,265,2.0,3-5B,other
3921,63,57,26,471,2.0,3-5B,other
3922,65,58,73,65,2.0,3-5B,other
3923,67,49,97,41,2.0,3-5B,other
3924,69,54,43,52,2.0,3-5B,other
3925,71,72,40,42,2.0,3-5B,other
3926,75,69,26,61,2.0,3-5B,other
3927,77,66,54,55,2.0,3-5B,other
3928,79,58,60,54,2.0,3-5B,other
3929,81,62,26,32,2.0,3-5B,other
3930,84,61,25,69,2.0,3-5B,other
3931,87,39,27,51,2.0,3-5B,other
3932,89,60,56,53,2.0,3-5B,other
3933,91,34,59,64,2.0,3-5B,other
3934,93,54,92,29,2.0,3-5B,other
3935,95,64,67,97,2.0,3-5B,other
3936,96,91,131,2347,4.0,5-15,other
3937,88,58,62,225,8.0,2-2,other
3938,84,53,67,75,8.0,2-2,other
3939,94,77,190,93,8.0,2-2,other
3940,90,45,91,92,8.0,2-2,other
3941,92,82,113,276,4.0,3-8B,other
3942,84,40,34,231,4.0,3-8B,other
3943,80,49,35,74,4.0,3-8B,other
3944,87,53,100,198,8.0,3-2B,other
3945,84,44,54,89,8.0,3-2B,other
3946,87,74,92,188,8.0,1-1,other
3947,56,35,544,1033,5.0,3-4A,other
3948,82,51,175,243,5.0,3-4A,other
3949,77,52,87,94,5.0,3-4A,other
3950,73,52,36,70,5.0,3-4A,other
3951,72,22,196,136,5.0,3-4A,other
3952,68,34,174,386,0.0,2-1,other
3953,65,37,67,216,0.0,2-1,other
3954,66,34,167,147,0.0,2-1,other
3955,69,33,124,416,7.0,2-4,major
3956,71,43,128,343,7.0,2-4,major
3957,75,48,175,387,2.0,4-8,major
3958,81,39,163,394,1.0,4-13B,diminished
3959,63,42,146,1074,0.0,4-23,minor
3960,62,46,44,697,10.0,3-9,other
3961,72,57,38,84,3.0,3-7A,other
3962,62,47,81,105,3.0,3-7A,other
3963,63,72,135,65,3.0,3-7A,other
3964,56,37,69,896,5.0,3-11B,other
3965,51,40,225,2381,0.0,3-11A,minor
3966,49,49,33,266,0.0,3-11A,minor
3967,48,29,42,409,0.0,4-26,minor
3968,53,11,892,828,8.0,4-28,diminished
3969,68,25,164,57,8.0,4-28,diminished
3970,71,63,70,242,8.0,4-28,diminished
3971,59,28,69,449,2.0,1-1,other
3972,62,9,219,30,2.0,1-1,other
3973,75,56,63,276,5.0,1-1,other
3974,84,71,62,2820,1.0,4-18A,diminished
3975,53,36,74,1296,0.0,3-7A,minor
3976,104,57,138,641,1.0,3-10,other
3977,106,62,173,188,1.0,3-10,other
3978,58,26,255,42,1.0,3-10,other
3979,104,53,137,42,1.0,3-10,other
3980,102,50,108,70,1.0,3-10,other
3981,100,37,95,122,1.0,3-10,other
3982,97,36,191,325,4.0,1-1,other
3983,96,71,70,227,4.0,1-1,other
3984,94,62,194,156,4.0,1-1,other
3985,91,51,111,404,0.0,4-20,other
3986,92,39,106,153,0.0,4-20,other
3987,91,51,97,56,0.0,4-20,other
3988,88,50,97,110,0.0,4-20,other
3989,91,72,172,135,0.0,4-20,other
3990,89,74,181,320,0.0,2-4,major
3991,84,74,64,222,0.0,2-4,major
3992,80,39,151,131,0.0,2-4,major
3993,84,35,37,395,0.0,2-1,other
3994,85,62,80,61,0.0,2-1,other
3995,84,38,59,80,0.0,2-1,other
3996,82,46,83,212,5.0,3-12,augmented
3997,79,54,98,477,0.0,2-1,other
3998,72,30,27,188,0.0,2-1,other
3999,85,31,26,1306,11.0,3-11A,minor
4000,86,54,65,27,11.0,3-11A,minor
4001,59,38,39,212,7.0,2-5,other
4002,88,83,106,77,7.0,2-5,other
4003,85,52,125,95,7.0,2-5,other
4004,82,32,157,66,7.0,2-5,other
4005,87,70,84,210,6.0,3-5B,other
4006,84,54,98,90,6.0,3-5B,other
4007,84,80,100,291,3.0,2-5,other
4008,82,44,138,110,3.0,2-5,other
4009,80,47,25,28,3.0,2-5,other
4010,72,26,32,199,0.0,2-2,other
4011,82,79,123,77,0.0,2-2,other
4012,79,48,73,102,0.0,2-2,other
4013,75,25,79,110,0.0,2-2,other
4014,79,73,148,180,0.0,2-2,other
4015,75,44,132,104,0.0,2-2,other
4016,72,37,136,81,0.0,2-2,other
4017,77,76,113,208,0.0,2-4,other
4018,75,34,48,100,0.0,2-4,other
4019,53,26,568,217,0.0,3-11B,other
4020,63,33,26,803,5.0,3-11A,other
4021,64,51,98,393,2.0,4-26,minor
4022,65,44,89,114,2.0,4-26,minor
4023,67,44,86,105,2.0,4-26,minor
4024,57,31,89,73,2.0,4-26,minor
4025,69,61,94,26,2.0,4-26,minor
4026,65,37,78,103,2.0,4-26,minor
4027,67,34,83,94,2.0,4-26,minor
4028,69,51,94,85,2.0,4-26,minor
4029,67,44,95,181,11.0,2-6,other
4030,69,34,92,117,11.0,2-6,other
4031,71,45,96,96,11.0,2-6,other
4032,53,33,76,147,8.0,2-3,minor
4033,70,15,41,113,8.0,2-3,minor
4034,69,42,133,62,8.0,2-3,minor
4035,71,47,109,68,8.0,2-3,minor
4036,70,46,92,193,0.0,5-27A,major
4037,71,30,127,113,0.0,5-27A,major
4038,72,43,98,67,0.0,5-27A,major
4039,71,35,98,222,11.0,2-3,minor
4040,72,40,132,73,11.0,2-3,minor
4041,74,60,104,102,11.0,2-3,minor
4042,59,34,167,97,0.0,2-4,major
4043,73,37,83,99,0.0,2-4,major
4044,74,49,199,83,0.0,2-4,major
4045,76,43,166,115,0.0,2-4,major
4046,77,64,83,83,0.0,2-4,major
4047,75,42,79,116,0.0,2-4,major
4048,76,36,126,98,0.0,2-4,major
4049,77,46,101,69,0.0,2-4,major
4050,76,34,129,206,4.0,4-29A,minor
4051,77,36,174,84,4.0,4-29A,minor
4052,79,43,115,110,4.0,4-29A,minor
4053,78,11,106,238,9.0,2-1,other
4054,79,18,85,133,9.0,2-1,other
4055,81,49,88,33,9.0,2-1,other
4056,83,68,63,73,4.0,4-26,minor
4057,80,35,84,106,4.0,4-26,minor
4058,81,28,110,109,4.0,4-26,minor
4059,82,69,72,107,4.0,4-26,minor
4060,83,46,40,117,7.0,3-11B,major
4061,84,37,89,99,7.0,3-11B,major
4062,86,58,62,104,7.0,3-11B,major
4063,86,68,111,310,0.0,2-1,other
4064,84,81,81,79,0.0,2-1,other
4065,63,23,173,63,0.0,2-1,other
4066,79,56,30,50,0.0,2-1,other
4067,74,71,66,824,3.0,3-4A,major
4068,79,39,95,44,3.0,3-4A,major
4069,75,62,150,28,3.0,3-4A,major
4070,74,40,72,103,3.0,3-4A,major
4071,72,54,51,105,3.0,3-4A,major
4072,60,24,107,63,3.0,2-4,major
4073,75,45,80,202,7.0,2-5,other
4074,74,40,52,66,7.0,2-5,other
4075,60,19,64,102,0.0,2-3,minor
4076,68,56,226,85,0.0,2-3,minor
4077,67,44,186,377,5.0,2-2,other
4078,68,37,105,219,5.0,2-2,other
4079,67,36,80,62,5.0,2-2,other
4080,65,36,178,112,5.0,2-2,other
4081,62,45,272,402,3.0,2-5,other
4082,46,35,25,214,3.0,2-5,other
4083,57,53,47,121,3.0,2-5,other
4084,62,51,83,86,3.0,2-5,other
4085,66,62,48,92,3.0,2-5,other
4086,69,71,76,109,3.0,2-5,other
4087,74,64,90,109,3.0,2-5,other
4088,78,58,62,102,3.0,2-5,other
4089,76,64,26,93,3.0,2-5,other
4090,94,55,56,1448,0.0,2-1,other
4091,89,55,104,293,7.0,2-3,minor
4092,84,55,38,133,7.0,2-3,minor
4093,96,88,101,79,7.0,2-3,minor
4094,58,43,516,143,0.0,3-7A,minor
4095,84,66,96,60,5.0,2-5,other
4096,94,64,143,95,5.0,2-5,other
4097,89,44,65,103,5.0,2-5,other
4098,84,58,32,86,5.0,2-5,other
4099,96,80,108,74,5.0,2-5,other
4100,94,34,26,132,5.0,2-5,other
4101,89,47,93,289,10.0,1-1,other
4102,84,54,34,110,10.0,1-1,other
4103,96,83,87,73,10.0,1-1,other
4104,63,48,116,49,10.0,1-1,other
4105,94,49,176,250,0.0,1-1,other
4106,90,32,25,64,0.0,1-1,other
4107,84,67,58,130,0.0,1-1,other
4108,96,82,85,74,9.0,4-27A,diminished
4109,94,50,54,104,9.0,4-27A,diminished
4110,94,55,134,185,0.0,2-3,minor
4111,89,53,80,101,0.0,2-3,minor
4112,84,51,34,100,0.0,2-3,minor
4113,96,79,103,77,0.0,2-3,minor
4114,94,55,39,105,10.0,4-16A,other
4115,96,81,108,96,10.0,4-16A,other
4116,94,57,141,74,10.0,4-16A,other
4117,89,40,58,95,10.0,4-16A,other
4118,84,54,37,89,10.0,4-16A,other
4119,57,34,445,494,11.0,2-3,minor
4120,53,15,754,38,11.0,2-3,minor
4121,57,1,135,670,11.0,2-3,minor
4122,94,45,34,142,0.0,1-1,other
4123,57,14,1028,154,11.0,3-2A,minor
4124,94,36,107,31,11.0,3-2A,minor
4125,90,44,26,60,11.0,3-2A,minor
4126,84,57,34,142,11.0,3-2A,minor
4127,91,59,65,216,11.0,2-3,minor
4128,84,44,30,110,11.0,2-3,minor
4129,79,57,33,184,11.0,2-3,minor
4130,86,35,33,189,11.0,2-3,minor
4131,64,55,27,755,11.0,3-7A,minor
4132,67,58,29,119,11.0,3-7A,minor
4133,67,24,65,654,0.0,2-4,major
4134,60,34,171,1277,0.0,6-17A,augmented
4135,60,47,374,532,0.0,4-24,augmented
4136,59,56,33,1615,1.0,4-26,other
4137,49,32,42,667,10.0,3-11B,other
4138,63,35,478,124,1.0,4-26,other
4139,76,53,33,1086,6.0,6-29,diminished
4140,76,48,80,179,0.0,5-18A,other
4141,79,33,40,27,0.0,5-18A,other
4142,76,57,40,221,0.0,5-18A,other
4143,60,56,127,185,3.0,4-14B,other
4144,76,60,66,58,3.0,4-14B,other
4145,60,36,31,385,6.0,3-7A,minor
4146,75,36,158,2839,3.0,2-5,other
4147,70,38,58,671,3.0,3-11A,other
4148,65,32,61,1725,0.0,2-4,other
4149,65,34,200,654,8.0,2-3,other
4150,65,37,39,252,8.0,2-3,other
4151,61,21,50,775,5.0,2-4,other
4152,82,38,130,901,0.0,5-27A,other
4153,86,34,194,826,7.0,2-4,major
4154,79,37,124,47,7.0,2-4,major
4155,89,27,287,313,7.0,4-16A,major
4156,86,45,203,63,7.0,4-16A,major
4157,79,32,143,26,7.0,4-16A,major
4158,89,35,277,678,6.0,3-5B,other
4159,94,33,29,551,0.0,6-32,minor
4160,58,31,115,965,5.0,3-7B,other
4161,77,30,74,276,0.0,3-11A,minor
4162,53,36,83,857,5.0,3-11A,other
4163,61,53,61,292,5.0,3-11A,other
4164,61,45,129,387,0.0,5-13B,other
4165,62,26,31,52,0.0,5-13B,other
4166,58,19,43,739,1.0,3-11A,minor
4167,60,53,431,710,1.0,5-38B,other
4168,51,49,376,29,1.0,5-38B,other
4169,50,45,32,396,1.0,5-38B,other
4170,60,48,289,92,3.0,3-11B,major
4171,50,24,32,328,3.0,3-11B,major
4172,51,20,104,559,3.0,3-11B,major
4173,54,39,47,79,3.0,3-11B,major
4174,49,32,793,1607,10.0,3-11A,other
4175,67,70,140,2291,5.0,3-8B,other
4176,61,28,73,39,5.0,3-8B,other
4177,57,90,157,706,5.0,3-8B,other
4178,56,49,356,156,5.0,3-8B,other
4179,49,62,79,249,5.0,3-8B,other
4180,37,69,1007,355,5.0,3-8B,other
4181,43,39,270,2377,8.0,1-1,other
4182,55,32,170,57,8.0,1-1,other
4183,36,39,529,1778,7.0,1-1,other
4184,56,45,226,1294,9.0,1-1,other
4185,44,13,229,52,9.0,1-1,other
4186,49,59,51,189,9.0,1-1,other
4187,37,35,1385,40,9.0,1-1,other
4188,51,51,32,1498,8.0,1-1,other
4189,37,32,614,28,8.0,1-1,other
4190,56,25,301,516,9.0,1-1,other
4191,44,1,160,84,9.0,1-1,other
4192,43,42,245,660,8.0,1-1,other
4193,55,24,140,53,8.0,1-1,other
4194,43,33,212,1517,8.0,1-1,other
4195,36,48,549,221,8.0,1-1,other
4196,43,37,250,528,3.0,2-5,other
4197,36,32,359,233,3.0,2-5,other
4198,56,15,111,558,9.0,1-1,other
4199,44,3,152,59,9.0,1-1,other
4200,37,35,1445,148,9.0,1-1,other
4201,44,10,168,1363,4.0,3-5B,other
4202,37,30,683,165,4.0,3-5B,other
4203,45,34,71,387,4.0,3-5B,other
4204,44,31,275,163,4.0,3-5B,other
4205,37,33,388,237,4.0,3-5B,other
4206,44,34,134,354,4.0,3-5B,other
4207,43,33,208,173,4.0,3-5B,other
4208,36,29,1406,243,4.0,3-5B,other
4209,63,21,2901,379,4.0,3-5B,other
4210,58,23,2876,38,4.0,3-5B,other
4211,44,25,82,703,4.0,3-5B,other
4212,43,28,1300,164,4.0,3-5B,other
4213,36,31,951,219,4.0,3-5B,other
4214,45,31,49,1228,4.0,3-5B,other
4215,44,25,178,151,4.0,3-5B,other
4216,37,29,2637,229,4.0,3-5B,other
4217,44,25,103,2629,4.0,3-5B,other
4218,43,35,248,162,4.0,3-5B,other
4219,36,34,1553,270,4.0,3-5B,other
4220,63,23,1061,371,4.0,3-5B,other
4221,76,41,76,0,8.0,2-3,minor
4222,60,34,580,1464,5.0,2-5,other
4223,68,72,80,1040,4.0,4-22A,major
4224,68,71,60,124,4.0,4-22A,major
4225,68,64,36,100,4.0,4-22A,major
4226,68,70,184,424,5.0,3-11B,other
4227,67,63,96,668,4.0,4-26,minor
4228,67,68,80,308,3.0,4-19B,augmented
4229,72,83,188,336,0.0,4-22A,major
4230,38,63,312,168,0.0,4-22A,major
4231,71,57,124,1856,5.0,4-29A,other
4232,71,54,40,232,5.0,4-29A,other
4233,65,54,132,236,5.0,4-29A,other
4234,76,57,100,876,2.0,3-9,other
4235,52,32,1192,404,2.0,3-9,other
4236,59,34,968,212,2.0,3-9,other
4237,64,35,604,228,2.0,3-9,other
4238,69,24,440,300,2.0,3-9,other
4239,76,31,104,296,2.0,3-9,other
4240,61,39,372,1192,6.0,3-7A,other
4241,71,59,128,188,6.0,3-7A,other
4242,56,46,388,476,0.0,2-4,other
4243,74,67,120,1248,8.0,3-8A,other
4244,72,62,80,2600,5.0,2-5,other
4245,50,42,468,424,0.0,4-14A,minor
4246,74,77,48,112,0.0,4-14A,minor
4247,75,79,52,92,0.0,4-14A,minor
4248,50,36,392,320,2.0,4-12A,major
4249,72,46,76,392,2.0,4-12A,major
4250,76,49,68,528,11.0,2-2,other
4251,64,48,16,356,9.0,3-9,other
4252,59,36,212,388,9.0,3-9,other
4253,72,1,76,2692,3.0,3-4A,major
4254,61,57,124,432,10.0,4-19A,augmented
4255,51,55,96,380,0.0,4-27A,minor
4256,63,82,168,440,2.0,3-8A,major
4257,49,43,80,1304,3.0,3-11B,other
4258,56,74,276,1628,0.0,4-19B,augmented
4259,48,82,100,512,9.0,3-11A,minor
4260,63,61,812,700,6.0,5-29B,diminished
4261,69,67,132,316,6.0,5-29B,diminished
4262,53,47,116,928,0.0,4-22A,other
4263,56,45,156,116,0.0,4-22A,other
4264,60,36,68,80,0.0,4-22A,other
4265,63,58,56,76,0.0,4-22A,other
4266,68,77,72,128,5.0,2-5,other
4267,70,84,36,60,5.0,2-5,other
4268,72,80,56,52,5.0,2-5,other
4269,75,78,48,48,5.0,2-5,other
4270,80,66,68,116,0.0,4-26,other
4271,82,68,40,60,0.0,4-26,other
4272,84,67,44,56,0.0,4-26,other
4273,89,63,56,128,3.0,2-5,other
4274,92,66,100,72,3.0,2-5,other
4275,94,71,76,80,3.0,2-5,other
4276,96,75,48,92,3.0,2-5,other
4277,97,48,84,96,3.0,2-5,other
4278,80,60,128,396,0.0,3-11B,other
4279,79,73,56,804,0.0,5-30B,other
4280,80,80,60,148,0.0,5-30B,other
4281,82,78,136,140,0.0,5-30B,other
4282,79,63,280,148,0.0,5-30B,other
4283,81,64,124,308,0.0,5-30B,other
4284,60,42,384,312,8.0,2-3,other
4285,78,1,272,68,8.0,2-3,other
4286,65,44,16,280,0.0,2-5,other
4287,57,62,120,352,8.0,4-26,other
4288,68,63,44,592,10.0,3-11A,other
4289,67,68,72,412,4.0,4-26,minor
4290,67,66,76,412,9.0,4-21,major
4291,44,57,16,1360,5.0,3-4A,other
4292,60,67,180,324,5.0,3-7B,other
4293,61,82,28,376,0.0,5-17,other
4294,73,62,88,1320,6.0,1-1,other
4295,63,74,92,504,0.0,4-26,minor
4296,63,60,64,200,0.0,4-26,minor
4297,63,49,268,240,0.0,4-26,minor
4298,47,48,64,496,0.0,4-26,minor
4299,27,57,160,3232,8.0,1-1,other
4300,89,56,96,556,8.0,1-1,other
4301,89,60,96,240,8.0,1-1,other
4302,89,50,68,244,8.0,1-1,other
4303,51,41,738,1808,1.0,4-18A,diminished
4304,85,74,1304,3072,8.0,1-1,other
4305,61,48,2316,48,8.0,1-1,other
4306,79,52,236,1512,8.0,1-1,other
4307,79,58,180,392,7.0,2-2,other
4308,65,20,108,32,7.0,2-2,other
4309,78,46,76,196,7.0,2-2,other
4310,79,55,180,164,7.0,2-2,other
4311,61,40,176,236,7.0,2-2,other
4312,79,74,196,120,7.0,2-2,other
4313,78,42,100,252,7.0,2-2,other
4314,53,38,356,168,0.0,4-26,minor
4315,84,56,48,260,0.0,4-26,minor
4316,63,46,104,512,0.0,4-26,minor
4317,58,38,64,40,0.0,4-26,minor
4318,53,29,1492,652,3.0,3-11A,other
4319,63,39,56,660,3.0,3-11A,other
4320,59,41,144,36,3.0,3-11A,other
4321,79,82,264,120,3.0,3-11A,other
4322,78,73,132,216,3.0,3-11A,other
4323,59,41,76,28,3.0,3-11A,other
4324,77,52,164,168,3.0,3-11A,other
4325,77,66,208,368,3.0,3-11A,other
4326,77,65,148,764,4.0,3-5B,other
4327,77,60,176,396,4.0,3-5B,other
4328,74,57,52,232,4.0,3-5B,other
4329,55,31,84,60,4.0,3-5B,other
4330,67,38,64,340,4.0,3-5B,other
4331,55,33,72,28,4.0,3-5B,other
4332,76,45,144,136,4.0,3-5B,other
4333,77,86,188,188,4.0,3-5B,other
4334,76,68,208,160,4.0,3-5B,other
4335,72,68,112,204,4.0,3-5B,other
4336,67,43,132,184,4.0,3-5B,other
4337,65,49,147,197,4.0,3-5B,other
4338,64,31,164,207,4.0,3-5B,other
4339,64,51,232,308,4.0,3-5B,other
4340,64,54,640,416,4.0,3-5B,other
4341,56,48,44,572,4.0,3-5B,other
4342,63,46,132,184,4.0,3-5B,other
4343,63,53,148,268,4.0,3-5B,other
4344,62,36,180,144,4.0,3-5B,other
4345,63,57,124,216,4.0,3-5B,other
4346,65,56,276,168,4.0,3-5B,other
4347,70,73,360,340,4.0,3-5B,other
4348,68,58,360,400,4.0,3-5B,other
4349,67,55,316,372,4.0,3-5B,other
4350,65,41,596,408,4.0,3-5B,other
4351,63,59,148,592,4.0,3-5B,other
4352,62,43,236,232,4.0,3-5B,other
4353,60,56,320,344,4.0,3-5B,other
4354,58,58,572,372,4.0,3-5B,other
4355,46,31,60,376,4.0,3-5B,other
4356,56,70,156,236,4.0,3-5B,other
4357,55,48,616,180,4.0,3-5B,other
4358,39,56,44,300,4.0,3-5B,other
4359,58,63,144,408,4.0,3-5B,other
4360,65,115,316,384,4.0,3-5B,other
4361,60,59,244,772,3.0,2-5,other
4362,55,49,192,404,3.0,2-5,other
4363,54,58,712,1136,3.0,2-5,other
4364,60,41,780,28,3.0,2-5,other
4365,75,88,220,408,3.0,2-5,other
4366,72,56,100,272,3.0,2-5,other
4367,71,56,88,732,11.0,2-5,other
4368,72,68,140,352,11.0,2-5,other
4369,71,43,216,184,11.0,2-5,other
4370,66,63,356,332,11.0,2-5,other
4371,62,44,380,408,11.0,2-5,other
4372,62,31,572,624,11.0,2-5,other
4373,74,83,160,480,11.0,2-5,other
4374,71,49,152,260,11.0,2-5,other
4375,59,38,820,128,0.0,2-4,major
4376,74,71,156,244,0.0,2-5,other
4377,71,59,188,176,0.0,2-5,other
4378,60,31,124,224,0.0,2-5,other
4379,71,57,212,160,0.0,2-5,other
4380,72,75,180,376,0.0,3-4B,other
4381,74,79,140,228,0.0,3-4B,other
4382,75,68,176,188,6.0,3-8B,other
4383,72,55,112,220,6.0,3-8B,other
4384,75,46,128,208,6.0,3-8B,other
4385,60,40,120,132,6.0,3-8B,other
4386,77,69,124,44,6.0,3-8B,other
4387,80,48,224,160,6.0,3-8B,other
4388,82,72,116,192,6.0,3-8B,other
4389,84,62,203,204,6.0,2-6,other
4390,87,81,188,172,6.0,2-6,other
4391,89,55,140,232,11.0,3-11A,minor
4392,90,96,240,608,11.0,2-3,minor
4393,93,120,208,328,11.0,2-3,minor
4394,59,47,160,32,11.0,2-3,minor
4395,90,73,148,292,11.0,2-3,minor
4396,91,80,184,220,11.0,3-11A,minor
4397,59,42,152,208,11.0,3-11A,minor
4398,90,81,176,136,11.0,3-11A,minor
4399,86,68,116,220,11.0,3-11A,minor
4400,83,55,124,188,11.0,3-11A,minor
4401,62,20,80,268,6.0,1-1,other
4402,76,48,144,136,6.0,1-1,other
4403,57,23,112,1072,1.0,2-3,minor
4404,57,9,144,224,1.0,2-3,minor
4405,57,54,1176,512,3.0,4-19B,augmented
4406,81,68,144,1164,2.0,1-1,other
4407,59,58,68,1080,9.0,3-8A,other
4408,53,37,912,2464,0.0,3-11B,other
4409,60,48,260,624,0.0,3-11B,other
4410,65,46,400,848,8.0,1-1,other
4411,85,32,60,136,1.0,2-5,other
4412,85,63,120,304,1.0,2-5,other
4413,73,43,108,28,1.0,2-5,other
4414,75,49,76,1052,8.0,1-1,other
4415,79,51,532,196,7.0,2-4,major
4416,89,117,184,3304,0.0,4-26,other
4417,87,71,120,244,0.0,4-26,other
4418,84,35,60,188,0.0,4-26,other
4419,52,37,96,768,3.0,2-5,other
4420,87,89,140,732,3.0,2-5,other
4421,87,82,112,408,1.0,3-10,minor
4422,85,60,52,224,1.0,3-10,minor
4423,87,70,144,160,1.0,3-10,minor
4424,58,26,108,400,3.0,3-4A,major
4425,62,40,52,656,3.0,3-11B,major
4426,65,51,384,464,3.0,3-11B,major
4427,89,117,204,384,8.0,3-10,diminished
4428,62,33,136,240,8.0,3-10,diminished
4429,86,80,128,28,8.0,3-10,diminished
4430,62,37,64,408,8.0,3-10,minor
4431,80,50,176,124,8.0,3-10,minor
4432,65,39,56,224,8.0,3-10,minor
4433,84,79,156,176,5.0,2-5,other
4434,61,30,76,196,5.0,2-5,other
4435,80,48,48,64,5.0,2-5,other
4436,82,85,192,148,5.0,2-5,other
4437,79,79,96,1880,5.0,3-8B,other
4438,79,70,108,216,1.0,2-6,other
4439,75,60,76,172,1.0,2-6,other
4440,75,66,108,208,1.0,2-6,other
4441,63,42,60,32,1.0,2-6,other
4442,77,63,100,164,0.0,2-2,other
4443,60,22,260,124,0.0,2-2,other
4444,77,82,144,68,0.0,2-2,other
4445,72,48,112,176,0.0,2-2,other
4446,75,61,96,404,0.0,1-1,other
4447,75,79,172,184,0.0,1-1,other
4448,60,41,68,36,0.0,1-1,other
4449,68,60,52,168,0.0,1-1,other
4450,72,55,60,372,0.0,2-4,other
4451,72,63,108,188,0.0,2-4,other
4452,67,42,56,176,0.0,2-4,other
4453,70,66,104,360,7.0,2-4,major
4454,70,81,132,196,7.0,2-4,major
4455,58,50,44,28,7.0,2-4,major
4456,67,39,64,180,7.0,2-4,major
4457,62,37,60,208,7.0,2-4,major
4458,67,63,48,28,7.0,2-4,major
4459,68,64,184,152,7.0,2-4,major
4460,60,32,68,172,7.0,2-4,major
4461,65,57,52,32,7.0,2-4,major
4462,67,57,168,192,7.0,2-4,major
4463,65,63,298,366,4.0,2-4,major
4464,56,46,60,214,4.0,2-4,major
4465,53,32,56,52,4.0,2-4,major
4466,60,57,376,92,4.0,2-4,major
4467,56,53,44,984,4.0,2-4,major
4468,58,58,120,176,10.0,2-5,other
4469,60,42,48,216,10.0,2-5,other
4470,57,43,136,196,10.0,2-5,other
4471,53,34,60,232,10.0,1-1,other
4472,60,57,152,136,10.0,1-1,other
4473,61,66,140,224,10.0,1-1,other
4474,58,23,48,96,10.0,1-1,other
4475,63,61,120,68,10.0,1-1,other
4476,64,79,120,192,10.0,1-1,other
4477,51,34,60,96,1.0,2-3,other
4478,65,81,148,76,1.0,2-3,other
4479,66,76,116,220,1.0,2-3,other
4480,67,68,108,156,1.0,2-3,other
4481,44,52,53,268,8.0,2-1,other
4482,70,78,172,148,8.0,2-1,other
4483,68,72,36,208,8.0,2-1,other
4484,51,36,60,32,8.0,2-1,other
4485,67,62,168,44,8.0,2-1,other
4486,63,50,164,188,8.0,2-1,other
4487,60,78,100,160,8.0,2-1,other
4488,63,70,248,188,8.0,2-1,other
4489,51,28,64,164,8.0,2-1,other
4490,60,62,224,156,8.0,2-1,other
4491,60,50,312,340,8.0,2-1,other
4492,53,35,144,76,5.0,3-11B,other
4493,65,71,156,720,5.0,3-11A,other
4494,64,31,120,244,5.0,3-11A,other
4495,65,60,164,136,5.0,3-11A,other
4496,66,75,144,220,5.0,3-11A,other
4497,53,38,52,68,11.0,2-3,minor
4498,67,56,148,132,11.0,2-3,minor
4499,59,37,60,184,11.0,2-3,minor
4500,70,66,132,32,11.0,2-3,minor
4501,69,56,168,204,11.0,2-3,minor
4502,59,42,68,152,11.0,2-3,minor
4503,70,61,176,32,11.0,2-3,minor
4504,71,48,108,180,11.0,2-3,minor
4505,74,58,132,372,2.0,2-3,minor
4506,76,94,236,196,2.0,2-3,minor
4507,55,41,60,84,11.0,2-3,minor
4508,72,74,312,104,11.0,2-3,minor
4509,67,54,261,355,11.0,2-3,minor
4510,55,34,76,329,11.0,2-3,minor
4511,67,49,268,76,11.0,2-3,minor
4512,59,45,76,264,11.0,2-3,minor
4513,65,63,292,456,7.0,2-2,other
4514,55,36,72,280,7.0,2-2,other
4515,64,56,300,96,7.0,2-2,other
4516,55,31,68,256,7.0,2-2,other
4517,60,24,160,212,7.0,2-2,other
4518,55,54,44,160,7.0,2-2,other
4519,62,58,116,956,10.0,2-4,major
4520,65,60,128,224,10.0,2-4,major
4521,70,64,148,152,10.0,2-4,major
4522,72,83,148,216,10.0,2-4,major
4523,63,42,56,40,10.0,2-4,major
4524,65,66,120,148,10.0,2-4,major
4525,75,66,156,380,3.0,3-9,other
4526,77,72,96,220,3.0,3-9,other
4527,76,47,44,28,3.0,3-9,other
4528,72,68,168,120,3.0,3-9,other
4529,77,81,176,200,3.0,3-9,other
4530,62,84,584,40,3.0,3-9,other
4531,82,66,176,152,9.0,3-5B,other
4532,56,3,144,172,9.0,3-5B,other
4533,84,89,248,40,9.0,3-5B,other
4534,82,75,296,172,9.0,3-5B,other
4535,80,77,164,216,9.0,3-5B,other
4536,56,44,156,96,9.0,3-5B,other
4537,62,38,264,48,9.0,3-5B,other
4538,79,57,200,72,9.0,3-5B,other
4539,79,68,144,320,9.0,3-5B,other
4540,56,30,72,272,7.0,2-5,other
4541,79,68,164,100,7.0,2-5,other
4542,77,70,112,200,7.0,2-5,other
4543,75,39,200,192,8.0,2-2,other
4544,72,52,128,208,8.0,2-2,other
4545,73,51,132,140,2.0,2-3,minor
4546,74,56,124,168,2.0,2-3,minor
4547,62,39,120,128,2.0,2-3,minor
4548,77,81,144,68,2.0,2-3,minor
4549,77,81,144,244,2.0,2-3,minor
4550,62,48,121,104,2.0,2-3,minor
4551,60,30,56,52,2.0,2-3,minor
4552,73,63,112,84,2.0,2-3,minor
4553,74,67,144,124,2.0,2-3,minor
4554,70,73,360,192,2.0,2-3,minor
4555,67,66,148,312,2.0,2-3,minor
4556,58,32,96,168,0.0,2-3,minor
4557,72,63,148,72,0.0,2-3,minor
4558,53,24,88,56,0.0,2-3,minor
4559,72,55,168,220,0.0,2-3,minor
4560,60,39,150,208,0.0,2-3,minor
4561,72,69,916,56,0.0,2-3,minor
4562,58,37,120,380,0.0,2-3,minor
4563,54,45,760,508,0.0,2-3,minor
4564,72,72,140,388,0.0,2-3,minor
4565,72,57,124,384,0.0,2-1,other
4566,60,46,112,224,6.0,2-5,other
4567,74,72,164,148,6.0,2-5,other
4568,71,73,160,204,6.0,2-5,other
4569,59,43,180,364,11.0,3-11A,minor
4570,66,63,244,160,11.0,3-11A,minor
4571,59,41,164,244,11.0,3-11A,minor
4572,66,64,400,140,11.0,3-11A,minor
4573,59,31,120,280,11.0,3-11A,minor
4574,62,54,148,124,11.0,3-11A,minor
4575,64,55,372,228,11.0,3-11A,minor
4576,59,34,136,36,11.0,3-11A,minor
4577,54,28,80,28,11.0,3-11A,minor
4578,83,48,48,1136,2.0,1-1,other
4579,55,35,404,408,0.0,2-1,other
4580,83,55,196,168,0.0,2-1,other
4581,83,51,48,564,7.0,2-4,major
4582,83,49,236,556,0.0,5-27A,major
4583,84,52,48,640,6.0,4-12B,other
4584,84,53,152,548,6.0,4-12B,other
4585,75,24,60,28,6.0,4-12B,other
4586,54,71,144,284,6.0,4-12B,other
4587,54,48,188,260,4.0,2-2,other
4588,88,78,144,352,11.0,3-2A,minor
4589,86,36,60,284,11.0,4-22B,minor
4590,86,70,108,572,11.0,4-22B,minor
4591,76,70,56,332,11.0,4-22B,minor
4592,86,37,104,1320,4.0,2-5,other
4593,54,55,316,932,9.0,3-11B,major
4594,60,64,132,4376,4.0,2-6,other
4595,61,72,164,216,4.0,2-6,other
4596,63,57,136,184,4.0,2-6,other
4597,64,68,136,188,4.0,2-6,other
4598,62,49,128,60,4.0,2-6,other
4599,70,87,232,552,8.0,3-2B,other
4600,68,68,248,384,0.0,2-5,other
4601,70,66,116,224,0.0,2-5,other
4602,60,24,112,76,0.0,2-5,other
4603,72,46,160,116,0.0,2-5,other
4604,75,64,124,360,0.0,3-2A,minor
4605,77,70,132,192,0.0,3-2A,minor
4606,60,17,228,316,0.0,2-1,other
4607,84,61,64,840,0.0,2-4,other
4608,82,52,128,52,0.0,2-4,other
4609,58,10,164,80,0.0,2-4,other
4610,81,57,160,32,0.0,2-4,other
4611,82,67,144,200,0.0,2-4,other
4612,84,61,112,164,5.0,2-4,other
4613,85,70,144,204,5.0,2-4,other
4614,87,66,168,164,5.0,2-4,other
4615,55,30,232,320,11.0,2-3,minor
4616,90,52,274,40,11.0,2-3,minor
4617,87,60,132,264,11.0,2-3,minor
4618,88,61,192,180,6.0,3-5B,other
4619,85,71,112,216,6.0,3-5B,other
4620,84,66,128,504,5.0,2-2,other
4621,79,63,148,456,10.0,2-5,other
4622,79,77,104,324,0.0,2-3,minor
4623,53,47,164,896,0.0,4-26,other
4624,88,24,140,352,5.0,3-11A,other
4625,87,18,100,1188,4.0,3-5A,other
4626,58,54,88,1604,3.0,4-20,major
4627,58,56,72,776,10.0,2-4,major
4628,65,66,204,244,3.0,2-5,other
4629,71,42,76,1160,11.0,2-6,other
4630,80,32,72,964,5.0,4-20,other
4631,55,56,336,1080,1.0,3-10,minor
4632,64,31,88,764,1.0,5-18A,diminished
4633,77,37,61,67,5.0,2-5,other
4634,84,56,96,337,0.0,4-22B,minor
4635,58,39,336,32,0.0,4-22B,minor
4636,87,49,172,196,0.0,2-5,other
4637,87,37,80,388,0.0,3-6,other
4638,58,49,232,600,0.0,2-3,minor
4639,53,31,284,40,0.0,2-3,minor
4640,87,52,56,128,10.0,1-1,other
4641,88,54,44,616,11.0,1-1,other
4642,96,36,72,972,1.0,2-5,other
4643,97,46,64,356,0.0,4-26,other
4644,96,86,140,612,0.0,4-26,other
4645,92,70,164,196,0.0,4-26,other
4646,89,61,180,328,0.0,4-26,other
4647,60,34,176,384,5.0,2-4,other
4648,56,30,164,32,5.0,2-4,other
4649,60,30,60,592,5.0,2-4,other
4650,55,30,64,920,6.0,2-5,other
4651,55,31,64,628,6.0,2-5,other
4652,94,88,204,108,6.0,2-5,other
4653,91,82,280,356,6.0,2-5,other
4654,63,41,72,320,6.0,2-5,other
4655,60,21,84,252,0.0,3-7A,minor
4656,84,54,36,112,0.0,3-7A,minor
4657,60,56,124,1092,0.0,3-7A,minor
4658,56,48,172,36,0.0,3-7A,minor
4659,92,99,180,124,0.0,3-7A,minor
4660,89,73,184,360,0.0,3-7A,minor
4661,56,42,168,272,0.0,2-3,minor
4662,85,66,200,120,0.0,2-3,minor
4663,56,48,468,1192,3.0,2-4,other
4664,53,26,404,40,3.0,2-4,other
4665,85,82,172,320,3.0,2-4,other
4666,56,45,60,264,11.0,4-12B,diminished
4667,89,90,172,96,11.0,4-12B,diminished
4668,88,71,192,392,4.0,2-3,minor
4669,79,50,168,388,4.0,2-3,minor
4670,59,38,60,224,4.0,2-3,minor
4671,55,22,80,64,4.0,2-3,minor
4672,62,55,76,304,4.0,2-3,minor
4673,57,49,44,32,4.0,2-3,minor
4674,52,37,268,556,2.0,3-4B,other
4675,74,45,160,164,2.0,3-4B,other
4676,86,38,68,184,2.0,3-4B,other
4677,74,60,120,100,2.0,3-4B,other
4678,86,44,116,132,2.0,3-4B,other
4679,74,42,148,116,2.0,3-4B,other
4680,86,45,88,172,2.0,3-4B,other
4681,86,49,120,272,2.0,2-5,other
4682,74,52,124,120,2.0,2-5,other
4683,82,40,92,652,0.0,1-1,other
4684,58,32,196,380,0.0,4-14A,minor
4685,80,29,64,1160,0.0,4-20,other
4686,60,45,316,2736,7.0,2-2,other
4687,60,65,136,1448,3.0,2-5,other
4688,56,38,204,412,7.0,1-1,other
4689,68,46,120,48,7.0,1-1,other
4690,68,47,404,232,0.0,3-7A,minor
4691,55,60,276,112,0.0,3-7A,minor
4692,67,77,264,28,0.0,3-7A,minor
4693,54,54,152,664,5.0,3-7B,other
4694,66,55,576,84,9.0,3-10,diminished
4695,49,74,276,1840,6.0,2-3,minor
4696,50,76,676,324,6.0,2-3,minor
4697,54,82,716,692,11.0,3-7A,minor
4698,57,98,596,812,11.0,3-7A,minor
4699,56,72,380,536,11.0,2-3,minor
4700,43,66,52,732,4.0,3-7A,minor
4701,82,33,52,492,9.0,4-23,minor
4702,60,63,548,728,3.0,5-10A,other
4703,59,11,176,1500,11.0,4-29A,minor
4704,62,42,143,2625,2.0,2-5,other
4705,61,48,48,679,6.0,4-23,minor
4706,57,48,140,528,1.0,4-23,minor
4707,57,41,56,284,1.0,4-23,minor
4708,90,39,64,588,7.0,2-5,other
4709,51,60,124,292,7.0,4-22A,major
4710,57,66,48,264,3.0,3-4A,major
4711,92,40,60,1180,4.0,2-5,other
4712,56,35,136,576,4.0,4-20,major
4713,92,54,44,560,10.0,5-24B,major
4714,75,48,52,1656,0.0,4-26,other
4715,65,44,264,2284,1.0,3-4B,other
4716,66,57,311,1509,7.0,2-4,major
4717,79,45,148,835,5.0,2-5,other
4718,77,31,56,1904,0.0,4-26,other
4719,72,39,60,1428,3.0,2-5,other
4720,60,52,120,1804,0.0,4-26,minor
4721,60,56,136,240,0.0,4-26,minor
4722,51,55,464,264,0.0,3-7A,minor
4723,63,32,140,228,0.0,3-7A,minor
4724,67,78,668,156,7.0,3-3B,other
4725,62,31,704,32,7.0,3-3B,other
4726,54,78,428,404,7.0,3-3B,other
4727,53,46,722,1212,1.0,3-7A,other
4728,53,39,48,948,8.0,3-7B,other
4729,68,60,48,108,8.0,3-7B,other
4730,51,42,828,472,7.0,4-27A,minor
4731,64,48,1284,1524,7.0,4-27A,minor
4732,64,56,56,1764,8.0,3-7A,minor
4733,66,58,216,176,8.0,3-7A,minor
4734,68,65,96,192,8.0,3-7A,minor
4735,64,46,160,76,8.0,3-7A,minor
4736,71,63,132,120,8.0,3-7A,minor
4737,73,71,116,184,8.0,3-7A,minor
4738,64,43,96,112,8.0,3-7A,minor
4739,76,82,132,80,8.0,3-7A,minor
4740,78,83,192,200,8.0,3-7A,minor
4741,80,64,132,232,8.0,3-7A,minor
4742,54,46,68,32,8.0,3-7A,minor
4743,65,46,108,704,8.0,3-7A,minor
4744,82,81,196,768,6.0,2-6,other
4745,80,51,52,244,6.0,2-6,other
4746,80,45,92,588,6.0,3-8A,other
4747,82,63,168,352,6.0,3-8A,other
4748,83,78,172,1104,8.0,2-2,other
4749,80,54,84,248,8.0,2-2,other
4750,54,32,360,896,4.0,3-11B,major
4751,72,30,144,3112,5.0,3-11A,other
4752,80,43,128,36,5.0,3-11A,other
4753,80,42,120,596,0.0,2-4,other
4754,54,50,112,48,0.0,2-4,other
4755,80,20,296,516,4.0,4-22A,major
4756,71,46,76,32,4.0,4-22A,major
4757,64,39,140,360,4.0,2-5,other
4758,59,46,144,32,4.0,2-5,other
4759,59,41,204,568,4.0,2-4,major
4760,54,25,180,40,4.0,2-4,major
4761,80,36,148,116,4.0,2-4,major
4762,59,48,312,388,4.0,4-22A,major
4763,59,45,332,628,4.0,3-6,major
4764,76,39,52,524,4.0,3-11B,major
4765,60,38,56,316,8.0,2-3,other
4766,80,52,88,1312,6.0,4-29A,other
4767,72,9,164,248,8.0,3-2A,other
4768,80,38,136,304,8.0,3-2A,other
4769,80,35,72,620,5.0,2-5,other
4770,65,19,160,180,6.0,3-8A,other
4771,80,18,2264,1240,4.0,4-22A,major
4772,55,45,352,0,0.0,1-1,other
4773,79,92,11,130,7.0,2-5,other
4774,78,96,111,43,7.0,2-5,other
4775,56,57,296,56,7.0,2-5,other
4776,77,55,10,146,8.0,2-6,other
4777,57,59,221,96,0.0,2-3,minor
4778,63,54,96,64,0.0,2-3,minor
4779,60,91,23,448,9.0,5-29B,diminished
4780,63,105,41,34,9.0,5-29B,diminished
4781,67,95,17,50,9.0,5-29B,diminished
4782,51,59,40,240,0.0,3-11A,minor
4783,80,67,27,360,10.0,2-1,other
4784,79,44,28,35,10.0,2-1,other
4785,74,49,45,30,10.0,2-1,other
4786,77,64,60,57,10.0,2-1,other
4787,71,46,30,122,7.0,1-1,other
4788,74,60,26,29,7.0,1-1,other
4789,67,91,15,81,0.0,3-11A,minor
4790,36,66,240,195,2.0,3-11B,major
4791,48,64,39,178,0.0,3-11A,minor
4792,46,73,63,112,0.0,3-11A,minor
4793,33,73,5,119,9.0,3-8B,other
4794,60,57,24,241,3.0,2-5,other
4795,60,45,51,125,6.0,3-10,other
4796,63,65,27,124,3.0,4-24,augmented
4797,63,63,25,117,3.0,2-4,major
4798,72,60,24,205,0.0,3-8B,other
4799,68,66,27,28,0.0,3-8B,other
4800,67,39,77,34,0.0,3-8B,other
4801,70,82,69,33,0.0,3-8B,other
4802,63,67,29,94,8.0,2-1,other
4803,56,56,36,67,7.0,4-15B,other
4804,55,42,30,43,7.0,4-15B,other
4805,55,54,392,101,0.0,1-1,other
4806,62,49,152,56,0.0,1-1,other
4807,67,85,8,67,0.0,1-1,other
4808,48,55,60,116,6.0,3-10,diminished
4809,48,74,36,116,5.0,3-11B,other
4810,36,60,99,119,0.0,3-11A,minor
4811,60,52,80,64,0.0,3-11A,minor
4812,46,60,57,56,0.0,3-11A,minor
4813,48,73,48,302,0.0,5-29B,minor
4814,60,86,48,63,0.0,5-29B,minor
4815,63,95,40,58,0.0,5-29B,minor
4816,67,84,10,44,0.0,5-29B,minor
4817,73,88,40,133,11.0,2-3,minor
4818,72,79,135,59,11.0,2-3,minor
4819,79,58,23,152,0.0,4-16A,other
4820,77,60,13,34,0.0,4-16A,other
4821,82,101,23,107,0.0,3-4A,other
4822,65,64,29,193,8.0,2-1,other
4823,63,56,35,43,8.0,2-1,other
4824,62,50,41,36,8.0,2-1,other
4825,60,56,103,157,0.0,2-5,other
4826,67,72,55,59,0.0,2-5,other
4827,48,74,108,121,2.0,3-11B,major
4828,57,64,29,61,2.0,3-11B,major
4829,36,82,49,169,0.0,3-11A,minor
4830,46,74,7,71,0.0,3-11A,minor
4831,33,74,152,182,6.0,4-28,diminished
4832,63,60,38,65,6.0,4-28,diminished
4833,31,96,9,350,9.0,3-3A,minor
4834,55,56,329,296,0.0,2-5,other
4835,74,50,46,124,3.0,3-4A,major
4836,72,104,13,388,10.0,3-11A,other
4837,71,44,19,72,5.0,3-4A,other
4838,70,69,8,159,1.0,2-6,other
4839,55,46,81,43,1.0,2-6,other
4840,65,77,31,248,3.0,2-4,major
4841,66,76,22,38,3.0,2-4,major
4842,68,75,31,38,3.0,2-4,major
4843,71,68,25,78,6.0,3-10,minor
4844,72,77,30,37,6.0,3-10,minor
4845,75,73,21,79,2.0,3-8A,major
4846,77,77,24,38,2.0,3-8A,major
4847,50,67,36,602,3.0,2-5,other
4848,50,54,35,124,3.0,3-11B,major
4849,59,79,91,310,9.0,5-27B,minor
4850,57,69,86,86,0.0,4-20,major
4851,59,88,113,81,0.0,4-20,major
4852,50,93,113,83,0.0,4-18A,minor
4853,50,102,105,278,7.0,4-22A,major
4854,52,72,21,113,11.0,3-7A,minor
4855,64,60,19,248,2.0,3-9,other
4856,42,72,11,231,4.0,3-9,other
4857,51,66,32,130,4.0,3-8A,other
4858,51,67,36,118,4.0,3-8A,other
4859,60,44,19,600,0.0,3-11A,minor
4860,55,54,108,40,0.0,3-11A,minor
4861,60,57,13,34,0.0,3-11A,minor
4862,67,110,35,41,0.0,3-11A,minor
4863,56,56,113,170,2.0,4-25,major
4864,60,44,18,192,9.0,3-10,diminished
4865,67,52,14,451,0.0,4-14A,minor
4866,67,63,10,36,0.0,4-14A,minor
4867,67,83,22,243,9.0,2-6,other
4868,79,106,20,60,3.0,4-16A,major
4869,83,97,24,28,3.0,4-16A,major
4870,55,61,79,625,0.0,2-3,minor
4871,60,69,12,45,0.0,2-3,minor
4872,60,50,15,38,0.0,2-3,minor
4873,67,81,22,39,0.0,2-3,minor
4874,36,70,238,123,2.0,4-27B,major
4875,43,53,23,113,5.0,3-11B,other
4876,60,53,25,122,0.0,3-11A,minor
4877,33,97,73,229,9.0,3-8B,other
4878,55,57,9,121,9.0,3-8B,other
4879,43,92,127,605,0.0,2-5,other
4880,50,109,46,44,0.0,2-5,other
4881,82,69,20,442,5.0,2-5,other
4882,84,72,23,81,5.0,4-20,other
4883,82,75,10,114,0.0,4-18A,major
4884,76,74,24,141,5.0,3-3B,other
4885,72,74,17,121,3.0,3-4B,other
4886,74,85,24,61,1.0,2-6,other
4887,75,91,15,38,1.0,2-6,other
4888,61,69,15,481,0.0,3-6,other
4889,63,60,17,26,0.0,3-6,other
4890,65,80,22,31,0.0,3-6,other
4891,73,70,12,90,9.0,2-2,other
4892,76,90,17,33,9.0,2-2,other
4893,73,51,7,83,9.0,2-2,other
4894,44,71,17,497,0.0,4-22B,minor
4895,50,70,13,469,6.0,4-28,diminished
4896,50,64,20,32,6.0,4-28,diminished
4897,54,82,30,100,7.0,4-20,major
4898,43,58,49,114,4.0,5-27B,minor
4899,66,84,42,113,2.0,5-34,major
4900,64,90,34,117,6.0,2-2,other
4901,66,95,43,122,1.0,4-23,minor
4902,66,93,39,60,1.0,4-23,minor
4903,66,76,25,56,1.0,4-23,minor
4904,66,65,32,124,4.0,3-8A,other
4905,66,65,20,57,4.0,3-8A,other
4906,66,63,19,59,4.0,3-8A,other
4907,79,49,19,362,0.0,4-16A,other
4908,79,40,8,120,8.0,5-4A,minor
4909,55,58,220,118,0.0,1-1,other
4910,67,87,112,62,0.0,1-1,other
4911,48,60,29,54,0.0,1-1,other
4912,56,56,183,122,6.0,2-6,other
4913,65,74,60,125,2.0,2-5,other
4914,57,92,184,118,0.0,2-3,minor
4915,60,68,108,58,0.0,2-3,minor
4916,63,71,44,58,0.0,2-3,minor
4917,48,54,32,301,0.0,4-27B,other
4918,60,54,38,61,0.0,4-27B,other
4919,63,60,48,51,0.0,4-27B,other
4920,67,70,13,55,0.0,4-27B,other
4921,82,96,9,500,5.0,3-11A,other
4922,79,88,19,56,3.0,6-25B,other
4923,77,86,12,31,3.0,6-25B,other
4924,71,46,19,55,3.0,2-4,major
4925,65,69,25,121,7.0,2-3,minor
4926,55,54,112,92,0.0,2-3,minor
4927,60,60,69,57,0.0,2-3,minor
4928,67,76,42,52,0.0,2-3,minor
4929,36,59,224,130,2.0,4-27B,major
4930,48,96,120,117,5.0,3-11B,other
4931,48,95,121,125,0.0,3-11A,minor
4932,46,104,133,113,0.0,2-5,other
4933,45,100,153,124,3.0,2-4,major
4934,33,94,24,114,3.0,2-4,major
4935,60,60,71,134,0.0,4-27B,other
4936,60,60,36,109,6.0,2-3,other
4937,48,79,105,370,0.0,3-11A,minor
4938,48,71,28,118,0.0,3-11A,minor
4939,34,85,17,210,0.0,2-5,other
4940,60,37,39,651,0.0,3-11A,minor
4941,63,48,55,42,0.0,3-11A,minor
4942,74,77,22,150,3.0,2-4,other
4943,79,82,36,33,3.0,2-4,other
4944,95,101,30,122,7.0,2-5,other
4945,95,95,32,52,7.0,2-5,other
4946,95,84,42,58,7.0,2-5,other
4947,95,64,45,58,7.0,2-5,other
4948,95,67,29,60,7.0,2-5,other
4949,95,63,60,68,7.0,2-5,other
4950,95,57,115,111,7.0,2-5,other
4951,82,53,41,0,7.0,3-7A,minor
4952,84,87,17,269,10.0,1-1,other
4953,58,29,97,220,10.0,2-4,major
4954,63,62,28,52,10.0,2-4,major
4955,62,35,13,53,10.0,2-4,major
4956,62,57,55,608,7.0,2-3,minor
4957,63,71,69,56,7.0,2-3,minor
4958,67,61,23,51,7.0,2-3,minor
4959,65,50,24,383,0.0,5-35,other
4960,63,80,37,111,7.0,4-26,minor
4961,46,72,112,117,3.0,3-11B,major
4962,46,98,29,123,6.0,5-31B,diminished
4963,62,83,17,99,0.0,5-35,other
4964,34,60,91,42,0.0,5-35,other
4965,58,57,28,156,8.0,5-31B,other
4966,60,72,46,659,10.0,2-1,other
4967,62,78,28,61,10.0,2-1,other
4968,63,67,20,59,10.0,2-1,other
4969,70,65,40,725,3.0,3-11A,other
4970,51,77,64,228,3.0,3-11B,major
4971,53,51,39,68,3.0,3-11B,major
4972,55,55,17,57,3.0,3-11B,major
4973,65,68,18,183,0.0,4-26,other
4974,67,86,14,26,0.0,4-26,other
4975,72,93,10,58,3.0,2-5,other
4976,68,89,96,36,3.0,2-5,other
4977,65,55,15,63,3.0,2-5,other
4978,63,67,35,114,7.0,3-7A,minor
4979,63,52,58,66,7.0,3-7A,minor
4980,46,56,30,47,7.0,3-7A,minor
4981,59,58,151,368,10.0,2-4,major
4982,70,52,22,160,7.0,2-5,other
4983,46,62,41,94,3.0,1-1,other
4984,55,66,57,52,3.0,1-1,other
4985,58,58,202,52,3.0,1-1,other
4986,66,45,16,128,7.0,2-5,other
4987,67,61,36,117,7.0,2-5,other
4988,70,74,45,177,2.0,2-3,minor
4989,48,58,68,241,3.0,2-4,major
4990,50,53,55,303,3.0,2-4,major
4991,58,64,185,111,3.0,2-4,major
4992,67,59,114,64,3.0,2-4,major
4993,58,41,55,186,7.0,2-5,other
4994,61,45,64,115,7.0,2-5,other
4995,55,54,13,665,3.0,2-1,other
4996,24,72,14,63,3.0,2-1,other
4997,86,92,17,121,10.0,4-16A,major
4998,53,62,26,230,3.0,2-4,major
4999,72,67,27,102,2.0,6-22A,minor
5000,71,50,16,45,2.0,6-22A,minor
5001,53,61,6,208,8.0,2-3,other
5002,22,54,10,128,0.0,4-22A,other
5003,85,107,36,388,7.0,2-3,minor
5004,89,120,52,221,10.0,2-4,major
5005,87,98,35,54,10.0,2-4,major
5006,82,98,33,74,2.0,1-1,other
5007,80,79,32,31,2.0,1-1,other
5008,79,64,25,35,2.0,1-1,other
5009,80,69,31,59,0.0,3-6,other
5010,82,76,60,97,0.0,2-4,other
5011,71,58,64,96,8.0,3-2B,other
5012,70,56,141,139,8.0,2-2,other
5013,79,82,128,127,7.0,1-1,other
5014,67,55,62,64,7.0,1-1,other
5015,79,34,31,66,7.0,2-3,minor
5016,75,68,31,472,7.0,4-26,minor
5017,59,55,23,108,3.0,3-11B,major
5018,74,57,21,262,0.0,5-35,other
5019,77,73,33,168,7.0,3-11B,major
5020,59,85,61,301,4.0,2-3,minor
5021,60,80,32,61,4.0,2-3,minor
5022,55,43,143,301,7.0,2-4,major
5023,67,50,88,63,7.0,2-4,major
5024,47,54,32,61,7.0,2-4,major
5025,76,78,43,229,8.0,3-10,other
5026,79,58,16,147,2.0,5-29B,minor
5027,76,75,23,94,0.0,4-14B,major
5028,52,43,83,123,4.0,2-3,minor
5029,64,90,22,236,2.0,5-35,minor
5030,69,76,6,149,5.0,4-22A,major
5031,62,48,33,123,5.0,4-22A,major
5032,36,50,30,32,5.0,4-22A,major
5033,60,64,14,65,5.0,4-22A,major
5034,31,51,5,87,0.0,3-11B,major
5035,55,54,27,149,2.0,5-18A,major
5036,71,55,49,301,2.0,2-3,minor
5037,55,46,137,186,3.0,2-4,major
5038,60,50,114,53,3.0,2-4,major
5039,63,70,52,425,10.0,2-4,major
5040,55,45,67,111,10.0,2-4,major
5041,48,58,145,67,10.0,2-4,major
5042,72,48,50,171,8.0,1-1,other
5043,63,71,212,355,7.0,2-3,minor
5044,67,64,78,66,7.0,2-3,minor
5045,70,53,23,60,7.0,2-3,minor
5046,84,84,11,237,8.0,2-3,other
5047,77,48,15,141,3.0,3-9,other
5048,75,76,36,100,7.0,3-7A,minor
5049,60,74,57,126,2.0,4-18A,major
5050,58,41,98,420,8.0,3-8A,other
5051,86,81,34,665,7.0,2-3,minor
5052,79,76,11,108,10.0,2-4,major
5053,55,53,396,120,5.0,2-5,other
5054,67,55,107,67,5.0,2-5,other
5055,75,68,139,62,5.0,2-5,other
5056,57,84,121,355,7.0,2-5,other
5057,62,62,88,61,7.0,2-5,other
5058,73,71,47,61,7.0,2-5,other
5059,62,48,108,119,7.0,2-5,other
5060,62,48,56,124,10.0,3-4A,major
5061,62,55,12,113,4.0,3-8B,other
5062,67,88,55,126,7.0,2-5,other
5063,70,97,55,171,2.0,2-3,minor
5064,55,72,145,187,10.0,4-22A,major
5065,48,84,19,118,0.0,3-7A,minor
5066,38,83,37,57,0.0,3-7A,minor
5067,25,75,13,27,0.0,3-7A,minor
5068,22,65,12,515,0.0,5-35,other
5069,83,76,21,119,0.0,4-20,other
5070,59,56,136,723,7.0,3-11B,major
5071,79,70,21,481,5.0,3-11A,other
5072,60,55,163,240,0.0,3-11B,major
5073,67,52,87,61,0.0,3-11B,major
5074,76,92,30,181,2.0,4-22B,minor
5075,77,97,29,58,2.0,4-22B,minor
5076,81,86,16,61,2.0,4-22B,minor
5077,77,73,14,60,2.0,4-22B,minor
5078,74,70,17,57,2.0,4-22B,minor
5079,43,62,118,241,0.0,3-11B,major
5080,43,58,30,122,2.0,4-18A,major
5081,71,66,13,115,5.0,4-22A,major
5082,63,56,43,127,3.0,3-12,augmented
5083,62,49,18,122,7.0,3-11B,major
5084,43,62,38,119,0.0,4-20,major
5085,60,46,177,111,4.0,2-3,minor
5086,36,61,39,185,4.0,2-5,other
5087,45,54,49,62,4.0,2-5,other
5088,57,56,133,111,5.0,3-11B,major
5089,36,58,108,192,9.0,2-3,minor
5090,43,49,55,57,9.0,2-3,minor
5091,52,45,63,118,7.0,4-22A,major
5092,67,43,53,126,0.0,3-11B,major
5093,76,43,62,114,0.0,3-11B,major
5094,83,52,5,98,6.0,3-2A,minor
5095,60,84,40,0,,,
5096,60,71,48,59,,,
5097,60,59,38,58,,,
5098,60,49,33,60,,,
5099,60,50,59,52,,,
5100,48,46,371,186,5.0,2-4,major
5101,60,87,51,237,2.0,4-26,minor
5102,54,71,122,242,8.0,4-18A,diminished
5103,65,78,41,245,4.0,4-18A,major
5104,40,74,12,238,0.0,3-11B,major
5105,72,84,49,240,4.0,4-26,minor
5106,61,71,68,237,0.0,4-14A,minor
5107,61,67,117,126,0.0,4-14A,minor
5108,60,55,31,124,0.0,4-14A,minor
5109,50,70,219,223,7.0,3-11A,minor
5110,62,90,95,255,10.0,3-4A,major
5111,55,70,112,233,0.0,3-8A,major
5112,56,61,63,183,10.0,4-20,major
5113,74,98,18,117,4.0,3-10,diminished
5114,48,73,251,183,2.0,5-35,minor
5115,57,78,91,122,2.0,5-35,minor
5116,65,108,104,112,2.0,5-35,minor
5117,65,56,34,242,3.0,4-22A,major
5118,72,107,71,483,2.0,5-27B,minor
5119,69,88,76,242,5.0,4-20,major
5120,59,92,43,237,7.0,3-11B,major
5121,72,87,27,237,5.0,2-4,major
5122,74,92,26,54,5.0,2-4,major
5123,79,77,31,432,4.0,4-26,minor
5124,63,59,51,179,9.0,4-26,minor
5125,61,56,57,115,9.0,4-23,minor
5126,59,67,70,114,9.0,4-26,minor
5127,61,86,94,318,2.0,5-27B,minor
5128,60,87,88,118,2.0,5-27B,minor
5129,65,67,34,355,2.0,5-35,minor
5130,64,63,55,233,8.0,5-31B,diminished
5131,65,64,19,44,8.0,5-31B,diminished
5132,44,61,409,140,1.0,4-24,other
5133,94,73,43,300,9.0,2-1,other
5134,92,82,54,48,9.0,2-1,other
5135,60,61,18,402,9.0,4-29A,minor
5136,60,56,6,29,9.0,4-29A,minor
5137,60,59,18,55,9.0,4-29A,minor
5138,48,73,136,185,5.0,3-11B,major
5139,50,94,282,487,8.0,4-28,diminished
5140,64,89,59,117,8.0,4-28,diminished
5141,48,71,227,366,4.0,2-3,minor
5142,60,75,34,217,4.0,2-3,minor
5143,50,38,79,248,0.0,2-3,minor
5144,50,47,87,131,0.0,2-3,minor
5145,50,70,121,352,7.0,2-3,minor
5146,55,75,17,487,0.0,3-8A,major
5147,45,99,24,360,7.0,1-1,other
5148,55,27,33,435,0.0,4-26,minor
5149,56,66,17,225,6.0,4-28,diminished
5150,60,8,93,56,6.0,4-12B,minor
5151,43,92,11,192,2.0,2-2,other
5152,47,73,40,651,4.0,6-24B,diminished
5153,64,64,16,302,4.0,2-3,minor
5154,65,75,147,414,9.0,4-26,minor
5155,52,83,74,245,4.0,3-11B,major
5156,52,78,107,116,4.0,3-11B,major
5157,49,96,113,360,7.0,4-26,minor
5158,50,90,183,124,7.0,4-26,minor
5159,46,12,43,189,7.0,3-11A,minor
5160,58,96,110,762,0.0,4-20,major
5161,50,71,273,370,6.0,4-27A,diminished
5162,63,112,53,230,6.0,3-10,other
5163,63,76,26,76,6.0,3-10,other
5164,50,68,145,163,7.0,4-26,minor
5165,55,63,25,247,10.0,3-4A,major
5166,24,81,14,719,1.0,4-28,diminished
5167,73,56,79,238,1.0,4-27A,minor
5168,46,66,35,204,2.0,5-35,minor
5169,47,59,139,43,2.0,5-35,minor
5170,36,79,39,236,10.0,4-22A,major
5171,60,57,17,84,10.0,4-22A,major
5172,48,66,35,351,8.0,5-31A,diminished
5173,65,78,13,116,4.0,5-31B,major
5174,79,88,77,90,4.0,3-7A,minor
5175,74,70,17,148,4.0,4-26,minor
5176,61,57,18,81,3.0,3-4A,major
5177,55,75,36,91,0.0,3-11A,minor
5178,44,84,14,68,0.0,3-11A,minor
5179,55,99,116,101,7.0,3-11A,minor
5180,62,49,31,150,10.0,2-4,major
5181,65,74,18,200,0.0,3-8A,major
5182,67,82,9,38,0.0,3-8A,major
5183,77,89,14,329,3.0,4-22A,major
5184,69,71,27,355,5.0,3-11B,major
5185,67,74,21,124,7.0,4-22A,major
5186,67,77,58,36,7.0,4-22A,major
5187,72,109,24,72,11.0,3-10,diminished
5188,74,110,24,38,11.0,3-10,diminished
5189,51,68,37,800,2.0,5-35,minor
5190,52,74,48,42,2.0,5-35,minor
5191,65,87,13,102,5.0,5-13B,augmented
5192,44,73,41,113,1.0,4-24,other
5193,55,56,40,99,3.0,4-24,augmented
5194,48,73,101,131,10.0,4-20,major
5195,74,70,27,156,1.0,3-10,minor
5196,60,59,12,240,5.0,4-20,major
5197,53,78,81,118,8.0,4-18A,diminished
5198,64,70,28,86,8.0,4-18A,diminished
5199,52,72,20,266,7.0,3-11B,major
5200,72,84,30,215,0.0,3-11A,minor
5201,71,81,28,39,0.0,3-11A,minor
5202,50,67,35,78,7.0,2-3,minor
5203,57,97,88,37,7.0,2-3,minor
5204,62,86,45,125,7.0,2-1,other
5205,46,106,175,83,0.0,3-8A,major
5206,52,86,23,976,7.0,5-17,minor
5207,43,76,13,699,10.0,3-11B,major
5208,50,71,34,41,10.0,3-11B,major
5209,56,62,34,79,10.0,3-4A,major
5210,50,92,37,118,10.0,2-4,major
5211,50,66,261,736,3.0,3-4A,major
5212,70,76,41,121,10.0,3-4A,major
5213,36,111,95,118,10.0,3-6,major
5214,84,69,19,241,0.0,4-27B,major
5215,74,68,174,0,,,
5216,57,30,103,1323,2.0,3-11A,minor
5217,55,50,65,4518,1.0,2-3,minor
5218,57,67,233,2865,2.0,2-3,minor
5219,54,29,84,2773,2.0,2-5,other
5220,52,40,180,2052,9.0,2-5,other
5221,49,31,141,932,7.0,4-18A,minor
5222,64,58,388,263,1.0,2-3,other
5223,49,32,679,108,1.0,2-3,other
5224,62,49,220,954,5.0,2-5,other
5225,65,72,216,2691,5.0,2-4,other
5226,84,95,334,3954,6.0,3-8B,other
5227,81,55,205,318,6.0,3-8B,other
5228,82,77,309,309,6.0,3-8B,other
5229,57,50,2279,98,10.0,3-11B,major
5230,78,42,210,220,10.0,3-11B,major
5231,81,55,287,297,10.0,3-11B,major
5232,78,29,210,268,10.0,3-11B,major
5233,79,51,134,338,10.0,3-11B,major
5234,67,84,203,664,10.0,3-11B,major
5235,82,57,347,2309,1.0,1-1,other
5236,74,56,216,229,1.0,1-1,other
5237,86,33,88,266,1.0,1-1,other
5238,74,48,177,86,1.0,1-1,other
5239,86,48,154,204,1.0,1-1,other
5240,74,36,218,97,1.0,1-1,other
5241,86,47,174,243,1.0,1-1,other
5242,74,22,169,155,1.0,1-1,other
5243,62,51,572,3511,5.0,3-4A,major
5244,62,34,183,1584,0.0,5-26A,augmented
5245,56,27,78,379,2.0,2-3,minor
5246,53,46,284,650,4.0,3-8B,other
5247,83,63,61,192,4.0,3-8B,other
5248,81,26,134,610,9.0,2-1,other
5249,81,32,75,1400,0.0,5-33,augmented
5250,81,49,155,542,0.0,3-8A,major
5251,64,49,939,1010,4.0,2-6,other
5252,71,28,76,92,5.0,3-11B,major
5253,74,55,545,1155,9.0,3-7B,other
5254,72,48,74,734,5.0,4-16A,major
5255,74,62,68,929,4.0,2-3,minor
5256,64,30,302,4130,9.0,4-27B,major
5257,59,49,1399,968,6.0,4-26,minor
5258,64,46,220,1637,6.0,2-5,other
5259,59,43,224,43,6.0,2-5,other
5260,61,59,131,2763,1.0,2-3,minor
5261,64,80,603,296,1.0,2-3,minor
5262,67,66,203,1370,10.0,4-24,augmented
5263,69,63,228,296,10.0,4-24,augmented
5264,61,28,93,201,10.0,4-24,augmented
5265,70,52,155,125,10.0,4-24,augmented
5266,72,60,148,289,10.0,4-24,augmented
5267,75,64,246,310,10.0,4-24,augmented
5268,79,71,257,558,4.0,2-2,other
5269,76,42,174,298,4.0,2-2,other
5270,77,64,192,246,4.0,2-2,other
5271,74,58,565,272,4.0,2-2,other
5272,53,43,184,1560,9.0,2-3,minor
5273,74,39,166,621,5.0,1-1,other
5274,76,76,248,272,5.0,1-1,other
5275,76,74,431,611,5.0,1-1,other
5276,62,59,379,62,7.0,2-1,other
5277,48,47,257,3367,5.0,3-11B,other
5278,55,51,235,5020,10.0,4-16A,major
5279,49,42,261,1568,9.0,3-7B,other
5280,60,46,91,954,2.0,3-11A,minor
5281,88,42,166,6982,6.0,5-31A,diminished
5282,69,67,582,2884,10.0,3-12,augmented
5283,57,60,1052,1973,2.0,1-1,other
5284,43,47,68,1562,2.0,1-1,other
5285,62,51,718,312,2.0,1-1,other
5286,57,61,72,631,2.0,1-1,other
5287,62,50,163,1537,1.0,2-3,minor
5288,85,44,484,661,6.0,4-26,minor
5289,83,35,100,2250,10.0,2-4,major
5290,81,34,91,618,8.0,4-5A,other
5291,53,31,259,408,2.0,2-5,other
5292,81,45,99,224,2.0,2-5,other
5293,81,43,211,1795,0.0,5-33,augmented
5294,55,62,148,2044,9.0,2-1,other
5295,67,56,1171,90,9.0,3-11A,minor
5296,67,1,242,2749,9.0,3-11A,minor
5297,67,47,1184,380,9.0,3-11A,minor
5298,49,18,223,2415,10.0,4-16A,major
5299,48,50,191,1247,1.0,4-28,diminished
5300,49,50,106,337,6.0,3-11A,minor
5301,50,53,650,112,6.0,3-11A,minor
5302,49,36,148,695,6.0,3-11A,minor
5303,49,40,736,1946,2.0,4-20,major
5304,50,53,2360,745,6.0,3-11A,minor
5305,49,37,280,1912,6.0,3-11A,minor
5306,62,113,570,312,6.0,3-11A,minor
5307,64,62,124,568,6.0,3-11A,minor
5308,62,44,242,118,6.0,3-11A,minor
5309,61,67,540,160,6.0,3-11A,minor
5310,62,61,88,681,6.0,3-11A,minor
5311,84,82,582,348,6.0,3-11A,minor
5312,72,37,85,630,6.0,3-11A,minor
5313,81,61,256,3844,6.0,3-8B,other
5314,69,55,182,31,6.0,3-8B,other
5315,83,52,74,959,0.0,1-1,other
5316,60,42,141,295,6.0,2-2,other
5317,60,47,165,837,3.0,1-1,other
5318,75,37,61,159,1.0,1-1,other
5319,74,60,201,399,1.0,1-1,other
5320,86,51,230,206,1.0,1-1,other
5321,74,33,192,200,1.0,1-1,other
5322,82,50,162,429,1.0,1-1,other
5323,70,34,79,29,1.0,1-1,other
5324,62,38,182,636,1.0,1-1,other
5325,58,38,219,1274,2.0,2-4,major
5326,58,37,420,662,2.0,2-4,major
5327,53,34,135,614,10.0,2-4,major
5328,53,47,192,1329,10.0,2-4,major
5329,58,39,256,1167,2.0,2-4,major
5330,74,49,265,1428,0.0,2-1,other
5331,58,48,64,240,0.0,2-1,other
5332,73,30,439,3912,0.0,3-11B,major
5333,51,29,54,2214,1.0,5-31B,diminished
5334,69,64,554,1265,5.0,4-20,major
5335,78,34,534,28,5.0,4-20,major
5336,67,53,136,1213,0.0,2-4,major
5337,67,56,218,985,0.0,3-11B,major
5338,60,51,158,59,9.0,2-2,other
5339,64,37,73,31,9.0,2-2,other
5340,52,46,206,290,9.0,2-2,other
5341,61,19,519,233,9.0,2-2,other
5342,46,51,225,1868,2.0,5-35,minor
5343,60,25,60,715,4.0,2-3,minor
5344,46,57,295,290,4.0,2-3,minor
5345,69,58,355,1033,5.0,2-4,other
5346,52,44,373,40,5.0,2-4,other
5347,67,42,319,298,5.0,2-4,other
5348,45,39,238,626,5.0,2-4,other
5349,50,49,551,290,5.0,3-11B,major
5350,62,32,388,49,5.0,3-11B,major
5351,38,51,138,564,5.0,3-11B,major
5352,69,53,442,429,4.0,2-2,other
5353,57,57,61,1528,4.0,2-2,other
5354,83,32,91,1014,2.0,1-1,other
5355,62,59,134,921,4.0,3-3B,other
5356,45,88,298,2897,1.0,5-31B,diminished
5357,38,63,737,314,1.0,5-31B,diminished
5358,45,62,195,618,1.0,5-31B,diminished
5359,60,37,566,290,2.0,3-11A,minor
5360,49,23,180,743,2.0,3-11A,minor
5361,64,44,597,211,5.0,4-20,major
5362,51,47,262,614,5.0,4-20,major
5363,62,57,314,279,5.0,3-11B,major
5364,55,50,213,736,5.0,3-11B,major
5365,64,55,955,240,10.0,3-4A,major
5366,57,45,87,3845,5.0,2-5,other
5367,53,36,98,27,5.0,2-5,other
5368,53,54,614,1920,5.0,3-11B,major
5369,64,66,55,686,7.0,3-11B,major
5370,69,27,208,40,7.0,3-11B,major
5371,53,31,78,5722,2.0,3-9,other
5372,81,60,3079,1319,2.0,3-11A,minor
5373,55,27,88,3452,1.0,3-10,minor
5374,92,49,256,579,1.0,3-10,minor
5375,93,61,185,258,1.0,3-10,minor
5376,98,83,219,277,1.0,3-10,minor
5377,55,29,134,90,1.0,3-10,minor
5378,91,64,146,249,1.0,3-10,minor
5379,92,64,214,143,1.0,3-10,minor
5380,91,47,130,177,1.0,3-10,minor
5381,89,35,160,155,1.0,3-10,minor
5382,88,57,132,158,1.0,3-10,minor
5383,91,74,216,207,1.0,3-10,minor
5384,89,77,171,432,1.0,3-10,minor
5385,86,68,152,275,1.0,3-10,minor
5386,81,30,302,287,1.0,3-10,minor
5387,77,34,501,838,7.0,2-5,other
5388,74,56,199,616,7.0,2-5,other
5389,69,33,448,341,7.0,2-5,other
5390,76,95,214,3557,1.0,3-10,minor
5391,79,83,340,386,1.0,3-10,minor
5392,65,50,450,976,2.0,3-11A,minor
5393,69,47,162,586,2.0,3-11A,minor
5394,68,52,212,985,7.0,2-5,other
5395,69,35,280,228,7.0,2-5,other
5396,67,62,464,248,7.0,2-5,other
5397,55,40,116,554,2.0,2-2,other
5398,65,75,549,219,2.0,2-2,other
5399,67,69,167,630,2.0,2-2,other
5400,52,48,85,53,10.0,2-4,major
5401,64,66,616,216,10.0,2-4,major
5402,62,66,672,890,10.0,2-4,major
5403,55,36,192,64,10.0,2-4,major
5404,61,58,946,897,11.0,2-2,other
5405,52,52,69,715,11.0,2-2,other
5406,67,66,208,31,11.0,2-2,other
5407,58,52,606,322,11.0,2-2,other
5408,65,66,1274,1159,9.0,2-3,minor
5409,62,51,672,720,9.0,2-3,minor
5410,57,35,177,730,9.0,2-3,minor
5411,63,42,908,2142,9.0,2-3,minor
5412,60,34,629,778,9.0,3-7A,minor
5413,89,94,180,271,9.0,3-7A,minor
5414,87,57,145,284,9.0,3-7A,minor
5415,89,88,315,234,9.0,3-7A,minor
5416,87,70,256,253,9.0,3-7A,minor
5417,54,36,1576,125,5.0,2-5,other
5418,84,62,201,93,5.0,2-5,other
5419,78,53,226,236,5.0,2-5,other
5420,77,43,181,255,5.0,2-5,other
5421,75,68,209,239,5.0,2-5,other
5422,74,46,162,247,5.0,2-5,other
5423,72,41,176,227,5.0,2-5,other
5424,70,31,230,191,5.0,2-5,other
5425,69,46,131,274,5.0,2-5,other
5426,69,26,86,502,5.0,3-11B,major
5427,70,62,1324,140,5.0,3-11B,major
5428,62,58,138,268,5.0,3-11B,major
5429,62,53,312,305,5.0,3-11B,major
5430,62,63,152,523,5.0,3-11B,major
5431,57,33,817,363,10.0,2-4,major
5432,53,41,1866,1639,10.0,3-4A,major
5433,106,60,229,373,10.0,3-4A,major
5434,105,53,168,161,10.0,3-4A,major
5435,103,50,121,159,10.0,3-4A,major
5436,102,74,182,234,10.0,3-4A,major
5437,62,33,170,74,10.0,3-4A,major
5438,105,76,274,166,10.0,3-4A,major
5439,102,57,109,268,10.0,3-4A,major
5440,103,77,207,235,10.0,3-4A,major
5441,98,63,162,245,10.0,3-4A,major
5442,58,28,129,278,10.0,2-4,major
5443,93,61,284,275,10.0,2-4,major
5444,62,34,78,609,10.0,2-4,major
5445,58,25,154,28,10.0,2-4,major
5446,98,84,257,74,10.0,2-4,major
5447,94,69,214,253,10.0,2-4,major
5448,91,66,191,244,10.0,2-4,major
5449,86,61,85,252,10.0,2-4,major
5450,88,71,350,242,10.0,2-4,major
5451,62,66,665,613,2.0,4-22A,major
5452,81,32,450,375,2.0,4-22A,major
5453,57,34,78,607,6.0,2-6,other
5454,62,33,79,46,6.0,2-6,other
5455,52,58,1131,3803,1.0,2-3,other
5456,87,85,210,682,1.0,2-3,other
5457,85,46,138,364,1.0,2-3,other
5458,85,73,352,557,3.0,2-5,other
5459,82,56,213,254,3.0,2-5,other
5460,75,32,62,292,9.0,2-3,minor
5461,53,1,1294,73,9.0,2-3,minor
5462,84,91,252,200,9.0,2-3,minor
5463,83,47,76,505,9.0,2-3,minor
5464,76,60,484,286,9.0,2-3,minor
5465,72,65,248,521,9.0,2-3,minor
5466,64,37,72,60,9.0,2-3,minor
5467,67,58,115,925,11.0,2-2,other
5468,60,19,98,347,9.0,2-5,other
5469,80,33,62,1941,9.0,1-1,other
5470,78,39,182,288,9.0,1-1,other
5471,84,85,259,336,6.0,4-9,other
5472,81,37,160,379,6.0,4-9,other
5473,81,39,107,641,6.0,4-9,other
5474,82,32,210,717,1.0,4-15B,other
5475,82,44,174,676,6.0,3-5B,other
5476,59,54,292,297,6.0,1-1,other
5477,86,46,183,349,6.0,1-1,other
5478,59,68,400,242,6.0,3-7B,other
5479,59,40,78,2479,6.0,3-7B,other
5480,59,66,707,967,7.0,4-20,major
5481,55,74,208,1926,1.0,4-23,other
5482,98,55,213,403,7.0,1-1,other
5483,53,44,771,2745,2.0,4-26,minor
5484,62,50,292,1897,7.0,2-1,other
5485,91,101,421,960,7.0,2-1,other
5486,93,29,133,400,8.0,2-6,other
5487,98,85,247,334,8.0,2-6,other
5488,92,50,293,961,7.0,2-5,other
5489,91,41,223,174,7.0,2-5,other
5490,89,35,240,240,7.0,2-5,other
5491,92,38,248,2141,7.0,2-5,other
5492,93,32,121,259,7.0,2-5,other
5493,92,62,216,720,7.0,2-5,other
5494,91,49,199,160,7.0,2-5,other
5495,89,57,163,165,7.0,2-5,other
5496,86,57,618,232,7.0,2-5,other
5497,79,45,379,1368,7.0,2-5,other
5498,83,42,119,671,5.0,2-4,other
5499,57,50,169,2524,2.0,3-3A,minor
5500,69,50,408,422,2.0,3-3A,minor
5501,60,37,75,5286,2.0,2-4,major
5502,86,65,274,545,0.0,2-1,other
5503,91,94,196,414,0.0,2-1,other
5504,60,26,92,238,2.0,2-4,major
5505,85,86,136,173,2.0,2-4,major
5506,84,59,125,653,5.0,2-4,other
5507,82,39,276,219,10.0,2-4,major
5508,79,29,115,313,10.0,2-4,major
5509,84,85,248,180,10.0,2-4,major
5510,79,32,139,263,10.0,2-4,major
5511,82,76,436,203,10.0,2-4,major
5512,78,56,208,294,10.0,2-4,major
5513,74,56,178,277,10.0,2-4,major
5514,58,25,86,220,10.0,2-4,major
5515,70,55,238,111,10.0,2-4,major
5516,72,70,278,628,10.0,2-4,major
5517,62,24,96,185,10.0,2-4,major
5518,58,25,116,55,10.0,2-4,major
5519,67,41,256,115,10.0,2-4,major
5520,70,63,215,312,10.0,2-4,major
5521,66,67,268,318,10.0,2-4,major
5522,69,56,305,306,10.0,2-4,major
5523,66,54,192,337,10.0,2-4,major
5524,62,57,91,280,10.0,2-4,major
5525,62,35,496,413,7.0,2-3,minor
5526,62,54,228,621,7.0,2-3,minor
5527,69,27,147,1304,9.0,2-2,other
5528,62,52,62,994,6.0,4-26,minor
5529,62,32,71,353,6.0,4-26,minor
5530,62,47,72,325,6.0,4-26,minor
5531,64,45,80,283,6.0,4-26,minor
5532,62,34,79,38,6.0,4-26,minor
5533,62,51,230,1008,1.0,4-22B,minor
5534,58,36,65,1460,4.0,2-2,other
5535,67,34,64,396,11.0,2-2,other
5536,60,50,168,599,10.0,5-27A,major
5537,60,38,68,2889,1.0,4-23,other
5538,57,68,663,325,0.0,3-9,other
5539,50,52,870,925,5.0,4-20,major
5540,67,40,422,947,4.0,2-2,other
5541,64,37,425,39,4.0,2-2,other
5542,57,2,182,142,4.0,2-2,other
5543,52,48,643,720,0.0,2-1,other
5544,55,58,386,1899,9.0,2-5,other
5545,52,39,96,1733,9.0,5-31B,major
5546,67,41,599,221,1.0,2-3,other
5547,55,37,281,32,1.0,2-3,other
5548,49,35,140,763,0.0,2-1,other
5549,57,48,395,151,2.0,3-4A,major
5550,38,63,163,646,2.0,3-4A,major
5551,59,35,1949,1387,6.0,3-7B,other
5552,71,61,173,1861,1.0,2-3,minor
5553,76,59,331,267,1.0,2-3,minor
5554,78,64,236,263,1.0,2-3,minor
5555,61,30,264,83,1.0,2-3,minor
5556,83,76,163,203,1.0,2-3,minor
5557,73,45,169,271,1.0,2-3,minor
5558,73,51,162,919,1.0,2-3,minor
5559,76,60,175,256,1.0,2-3,minor
5560,78,65,278,274,1.0,2-3,minor
5561,54,37,293,253,1.0,2-3,minor
5562,85,69,174,440,1.0,2-2,other
5563,57,47,1392,2265,3.0,2-4,major
5564,54,67,255,1795,3.0,2-4,major
5565,73,13,340,3105,11.0,2-5,other
5566,59,53,268,501,10.0,3-11B,major
5567,58,56,219,316,10.0,3-11B,major
5568,70,59,359,329,10.0,3-11B,major
5569,67,50,216,66,2.0,2-5,other
5570,43,51,189,549,2.0,2-5,other
5571,53,24,74,1024,10.0,2-1,other
5572,62,25,331,298,7.0,3-7A,minor
5573,58,51,116,572,7.0,3-7A,minor
5574,62,61,1094,962,7.0,3-3A,minor
5575,50,44,204,952,7.0,3-3A,minor
5576,64,53,1783,302,4.0,3-10,diminished
5577,50,55,143,644,7.0,3-11A,minor
5578,32,32,59,1995,7.0,1-1,other
5579,44,49,176,579,7.0,1-1,other
5580,46,50,241,157,7.0,1-1,other
5581,44,49,190,136,7.0,1-1,other
5582,43,53,135,155,7.0,1-1,other
5583,44,38,148,153,7.0,1-1,other
5584,46,53,115,124,7.0,1-1,other
5585,48,35,91,192,7.0,1-1,other
5586,49,51,156,127,7.0,1-1,other
5587,51,50,129,130,7.0,1-1,other
5588,53,58,138,178,7.0,1-1,other
5589,55,28,130,214,7.0,1-1,other
5590,56,64,153,99,7.0,1-1,other
5591,58,53,55,210,7.0,1-1,other
5592,60,58,55,163,7.0,1-1,other
5593,61,56,173,141,7.0,1-1,other
5594,63,42,55,165,7.0,1-1,other
5595,64,40,117,161,7.0,1-1,other
5596,65,9,138,133,7.0,1-1,other
5597,66,55,61,165,7.0,1-1,other
5598,67,62,127,128,7.0,1-1,other
5599,68,47,252,200,7.0,1-1,other
5600,63,35,378,445,10.0,2-1,other
5601,71,61,221,70,4.0,2-6,other
5602,72,72,215,151,4.0,2-6,other
5603,60,67,154,352,4.0,2-6,other
5604,60,66,237,374,4.0,2-6,other
5605,48,71,58,626,4.0,2-6,other
5606,90,20,201,587,4.0,2-6,other
5607,91,48,324,1699,5.0,4-20,major
5608,86,25,54,1013,4.0,1-1,other
5609,63,62,79,3056,4.0,3-8B,other
5610,62,82,364,72,8.0,2-1,other
5611,61,62,1001,1278,7.0,2-1,other
5612,93,70,132,909,0.0,1-1,other
5613,88,78,174,352,6.0,2-5,other
5614,85,53,153,325,6.0,2-5,other
5615,86,57,64,34,6.0,2-5,other
5616,83,42,178,292,6.0,2-5,other
5617,50,29,469,77,9.0,2-3,minor
5618,91,91,239,645,9.0,2-3,minor
5619,57,25,206,291,9.0,2-3,minor
5620,89,73,209,29,9.0,2-3,minor
5621,88,69,186,306,9.0,2-3,minor
5622,86,71,206,307,9.0,2-3,minor
5623,81,60,186,284,9.0,2-3,minor
5624,53,24,211,90,9.0,2-3,minor
5625,77,62,216,207,9.0,2-3,minor
5626,74,38,86,309,9.0,2-3,minor
5627,72,30,146,55,9.0,2-3,minor
5628,91,74,196,2183,0.0,1-1,other
5629,88,70,201,326,0.0,1-1,other
5630,85,53,172,283,0.0,1-1,other
5631,82,63,195,630,6.0,4-9,other
5632,84,60,136,322,6.0,4-9,other
5633,82,57,272,51,6.0,4-9,other
5634,81,48,199,187,6.0,4-9,other
5635,80,64,210,290,6.0,4-9,other
5636,79,44,181,201,6.0,2-5,other
5637,77,52,175,223,6.0,2-5,other
5638,76,18,257,236,6.0,2-5,other
5639,74,55,113,226,6.0,2-5,other
5640,53,14,459,249,7.0,2-5,other
5641,77,59,219,466,4.0,2-2,other
5642,69,57,555,337,4.0,2-2,other
5643,69,56,124,675,4.0,2-2,other
5644,74,67,544,1362,2.0,2-3,minor
5645,58,55,241,646,2.0,3-9,other
5646,73,64,160,357,2.0,3-9,other
5647,81,68,175,254,2.0,3-9,other
5648,73,48,195,223,2.0,3-9,other
5649,58,26,210,128,2.0,3-9,other
5650,72,53,136,106,2.0,3-9,other
5651,71,55,162,226,2.0,3-9,other
5652,79,59,132,266,2.0,3-9,other
5653,71,14,195,197,2.0,3-9,other
5654,70,37,151,215,2.0,3-9,other
5655,58,25,187,153,2.0,3-9,other
5656,69,53,163,592,7.0,2-2,other
5657,68,57,226,222,7.0,2-2,other
5658,63,53,159,79,7.0,2-2,other
5659,67,47,157,182,4.0,2-6,other
5660,66,60,173,224,4.0,2-6,other
5661,65,34,102,223,4.0,2-6,other
5662,64,44,75,259,4.0,2-6,other
5663,53,30,265,151,9.0,2-3,minor
5664,67,59,250,39,9.0,2-3,minor
5665,64,37,90,309,9.0,2-3,minor
5666,65,64,247,169,9.0,2-3,minor
5667,62,64,162,312,9.0,2-3,minor
5668,57,50,404,230,9.0,2-3,minor
5669,57,47,171,544,9.0,2-3,minor
5670,57,45,89,512,9.0,2-3,minor
5671,57,30,100,805,2.0,2-2,other
5672,80,54,352,2906,6.0,3-5B,other
5673,77,52,67,970,4.0,3-11A,minor
5674,63,37,144,1430,5.0,4-19B,augmented
5675,62,56,172,158,5.0,4-19B,augmented
5676,62,57,673,1302,5.0,4-19B,augmented
5677,69,56,103,629,5.0,2-4,other
5678,52,62,301,988,7.0,3-11A,minor
5679,52,51,231,931,7.0,3-11A,minor
5680,45,53,1072,1000,6.0,3-5B,other
5681,52,60,272,924,6.0,3-5B,other
5682,72,29,324,367,6.0,3-5B,other
5683,73,38,158,71,6.0,3-5B,other
5684,74,49,228,175,6.0,3-5B,other
5685,77,87,285,443,6.0,3-5B,other
5686,60,49,67,66,6.0,3-5B,other
5687,57,29,179,76,6.0,3-5B,other
5688,53,20,232,35,6.0,3-5B,other
5689,77,68,387,381,6.0,3-5B,other
5690,74,53,610,659,6.0,3-5B,other
5691,60,34,71,643,6.0,3-5B,other
5692,53,17,133,93,6.0,3-5B,other
5693,77,59,490,222,6.0,3-5B,other
5694,65,51,342,75,6.0,3-5B,other
5695,74,43,133,1591,6.0,3-5B,other
5696,62,45,74,968,8.0,4-13B,other
5697,67,34,224,217,8.0,4-13B,other
5698,62,38,216,60,8.0,4-13B,other
5699,48,80,535,4488,2.0,1-1,other
5700,64,69,1817,1970,10.0,3-4A,major
5701,52,24,94,1993,10.0,3-4A,major
5702,49,31,158,858,1.0,2-3,minor
5703,63,50,625,255,1.0,4-26,other
5704,57,46,195,2625,2.0,2-3,minor
5705,51,35,334,918,5.0,3-12,augmented
5706,62,44,269,280,5.0,3-11B,major
5707,63,60,137,901,5.0,3-11B,major
5708,69,36,107,363,5.0,5-34,major
5709,77,28,91,162,9.0,2-6,other
5710,69,30,108,126,9.0,2-6,other
5711,81,33,150,136,9.0,2-6,other
5712,69,26,87,166,5.0,2-2,other
5713,54,47,67,1757,6.0,3-8B,other
5714,81,37,244,564,7.0,2-1,other
5715,86,76,177,392,7.0,2-1,other
5716,89,55,75,416,7.0,1-1,other
5717,57,33,148,610,7.0,1-1,other
5718,57,32,138,1181,10.0,2-4,major
5719,57,40,117,711,10.0,2-4,major
5720,94,52,90,909,10.0,4-20,major
5721,98,70,395,627,10.0,6-16A,major
5722,86,10,252,141,10.0,6-16A,major
5723,96,33,478,542,10.0,4-20,major
5724,62,64,915,2529,6.0,4-18B,minor
5725,83,63,413,433,6.0,3-7A,minor
5726,86,36,429,30,6.0,3-7A,minor
5727,81,33,235,3935,7.0,2-2,other
5728,62,24,414,656,7.0,6-32,minor
5729,84,30,462,35,7.0,6-32,minor
5730,74,51,307,5713,5.0,5-27A,major
5731,58,23,158,1953,7.0,2-5,other
5732,62,57,676,619,9.0,5-38B,major
5733,59,24,5526,1951,9.0,3-11B,major
5734,71,58,156,2714,9.0,3-11B,major
5735,78,63,230,287,9.0,3-11B,major
5736,73,39,284,292,9.0,3-11B,major
5737,73,47,177,402,9.0,3-11B,major
5738,73,60,210,416,9.0,3-11B,major
5739,73,57,240,456,9.0,3-11B,major
5740,71,38,156,315,9.0,3-11B,major
5741,73,42,290,219,9.0,3-11B,major
5742,78,38,154,302,9.0,3-11B,major
5743,59,36,122,1325,6.0,3-7B,other
5744,74,75,389,277,6.0,3-7B,other
5745,75,40,155,330,6.0,3-7B,other
5746,76,51,180,151,6.0,3-7B,other
5747,79,74,207,203,6.0,3-7B,other
5748,76,34,86,269,6.0,3-7B,other
5749,67,34,125,476,5.0,1-1,other
5750,77,57,555,501,5.0,1-1,other
5751,65,49,94,642,5.0,1-1,other
5752,60,40,67,28,5.0,1-1,other
5753,57,22,93,60,5.0,1-1,other
5754,74,70,189,1785,5.0,2-4,major
5755,67,45,233,1247,7.0,3-5B,other
5756,56,69,515,6857,9.0,3-11A,minor
5757,46,35,152,659,9.0,3-11A,minor
5758,65,52,520,275,10.0,3-4A,major
5759,67,54,797,698,9.0,5-31B,major
5760,64,70,325,4109,2.0,3-11A,minor
5761,63,56,293,318,2.0,3-11A,minor
5762,62,57,606,332,1.0,4-18B,minor
5763,60,55,119,1055,5.0,2-5,other
5764,89,69,225,2650,5.0,3-5B,other
5765,84,60,194,302,5.0,3-5B,other
5766,80,59,285,473,5.0,3-5B,other
5767,79,46,259,295,5.0,3-5B,other
5768,78,38,231,328,10.0,2-4,major
5769,53,1,3175,197,10.0,2-4,major
5770,78,42,222,356,9.0,1-1,other
5771,79,59,227,323,9.0,1-1,other
5772,74,44,190,301,9.0,1-1,other
5773,72,49,265,317,9.0,1-1,other
5774,62,30,170,98,9.0,1-1,other
5775,70,34,242,274,9.0,1-1,other
5776,69,36,171,306,9.0,1-1,other
5777,72,65,311,291,9.0,1-1,other
5778,62,32,114,106,9.0,1-1,other
5779,69,56,135,233,9.0,1-1,other
5780,70,52,232,240,9.0,1-1,other
5781,62,39,170,304,9.0,1-1,other
5782,60,46,222,244,9.0,1-1,other
5783,58,37,204,277,9.0,1-1,other
5784,57,41,222,236,9.0,1-1,other
5785,60,57,157,287,9.0,1-1,other
5786,57,35,148,227,9.0,1-1,other
5787,58,55,276,211,9.0,1-1,other
5788,50,26,108,432,9.0,1-1,other
5789,50,50,161,419,9.0,1-1,other
5790,50,50,275,400,9.0,1-1,other
5791,50,51,67,563,9.0,1-1,other
5792,63,37,165,1015,9.0,3-11B,major
5793,66,59,445,934,9.0,3-11B,major
5794,74,74,230,2613,8.0,2-6,other
5795,64,31,67,2867,7.0,3-11A,minor
5796,54,30,419,935,7.0,3-11A,minor
5797,56,44,282,42,7.0,3-11A,minor
5798,56,44,245,946,9.0,3-11A,minor
5799,64,35,558,1224,9.0,3-11A,minor
5800,51,35,164,516,9.0,3-11A,minor
5801,67,61,280,132,9.0,3-11A,minor
5802,53,44,593,352,9.0,3-7A,minor
5803,45,72,1317,1904,10.0,4-16A,major
5804,45,66,214,1616,1.0,4-28,diminished
5805,58,43,498,272,1.0,4-28,diminished
5806,36,52,197,692,2.0,4-20,major
5807,86,24,191,3228,2.0,4-11A,major
5808,84,78,54,610,1.0,4-23,minor
5809,76,33,213,1921,11.0,2-3,minor
5810,87,57,205,1501,7.0,2-5,other
5811,86,63,133,146,7.0,2-5,other
5812,84,50,158,111,7.0,2-5,other
5813,83,55,134,195,7.0,2-5,other
5814,86,68,217,175,7.0,2-5,other
5815,63,35,926,60,7.0,2-5,other
5816,83,48,100,146,0.0,2-5,other
5817,84,71,142,207,0.0,2-5,other
5818,72,44,140,395,0.0,2-5,other
5819,63,56,253,1165,0.0,2-5,other
5820,82,55,270,2972,2.0,2-5,other
5821,84,48,152,608,6.0,3-8B,other
5822,50,52,64,905,6.0,3-8B,other
5823,60,53,205,1031,6.0,3-7B,other
5824,86,60,218,75,6.0,3-7B,other
5825,74,60,184,61,6.0,3-7B,other
5826,84,22,88,53,6.0,3-7B,other
5827,57,42,394,429,10.0,3-11B,major
5828,55,38,807,1295,7.0,2-5,other
5829,54,74,1908,906,7.0,2-5,other
5830,62,56,152,1961,7.0,2-5,other
5831,53,45,584,26,7.0,2-5,other
5832,79,61,192,282,7.0,2-5,other
5833,53,38,201,942,11.0,2-1,other
5834,58,56,908,1579,10.0,3-6,major
5835,72,32,64,438,11.0,2-6,other
5836,55,34,428,1908,10.0,2-5,other
5837,55,15,93,617,10.0,2-5,other
5838,79,56,256,3872,0.0,4-15B,other
5839,74,35,67,43,0.0,4-15B,other
5840,63,50,58,525,10.0,1-1,other
5841,58,37,192,314,3.0,2-1,other
5842,57,48,563,382,5.0,2-5,other
5843,57,20,429,1917,4.0,1-1,other
5844,60,22,382,50,4.0,1-1,other
5845,65,25,751,837,0.0,2-4,major
5846,45,50,892,1895,4.0,2-2,other
5847,52,40,261,692,1.0,4-28,diminished
5848,58,38,300,1391,2.0,6-48,minor
5849,81,47,248,3717,2.0,2-2,other
5850,52,37,464,1000,0.0,4-21,major
5851,38,76,365,3731,7.0,2-3,minor
5852,57,43,432,1028,2.0,2-3,minor
5853,52,41,487,949,1.0,4-28,diminished
5854,65,32,136,13737,2.0,4-14A,minor
5855,69,30,80,192,2.0,4-14A,minor
5856,65,33,156,98,2.0,4-14A,minor
5857,69,38,94,194,2.0,4-14A,minor
5858,65,38,167,108,2.0,4-14A,minor
5859,64,88,2181,88,2.0,4-14A,minor
5860,69,51,152,77,2.0,4-14A,minor
5861,65,44,149,144,2.0,4-14A,minor
5862,69,38,102,158,2.0,4-14A,minor
5863,65,47,146,133,2.0,4-14A,minor
5864,69,41,87,185,2.0,4-14A,minor
5865,65,38,155,103,2.0,4-14A,minor
5866,69,34,77,200,2.0,4-14A,minor
5867,65,42,147,96,2.0,4-14A,minor
5868,69,33,80,193,2.0,4-14A,minor
5869,65,39,146,98,2.0,4-14A,minor
5870,69,37,89,183,2.0,4-14A,minor
5871,65,32,0,128,2.0,4-14A,minor
5872,69,33,82,156,2.0,4-14A,minor
5873,65,43,141,128,2.0,4-14A,minor
5874,65,38,145,279,2.0,2-5,other
5875,69,41,109,143,2.0,2-5,other
5876,65,34,147,149,2.0,2-5,other
5877,69,41,121,142,2.0,2-5,other
5878,65,36,158,156,2.0,2-5,other
5879,65,41,159,293,9.0,2-4,major
5880,69,47,87,169,9.0,2-4,major
5881,65,33,151,138,9.0,2-4,major
5882,69,38,91,160,9.0,2-4,major
5883,65,33,143,148,9.0,2-4,major
5884,69,43,88,166,9.0,2-4,major
5885,65,29,143,134,9.0,2-4,major
5886,69,46,89,153,9.0,2-4,major
5887,64,54,1002,61,9.0,2-4,major
5888,65,30,141,68,9.0,2-4,major
5889,69,43,113,168,9.0,2-4,major
5890,65,34,157,136,9.0,2-4,major
5891,69,39,99,164,9.0,2-4,major
5892,65,34,161,150,9.0,2-4,major
5893,69,48,90,167,9.0,2-4,major
5894,62,40,470,113,9.0,2-4,major
5895,65,40,134,51,9.0,2-4,major
5896,69,43,136,141,9.0,2-4,major
5897,65,35,161,168,9.0,2-4,major
5898,69,38,160,139,9.0,2-4,major
5899,65,40,189,188,9.0,2-4,major
5900,65,38,174,338,9.0,1-1,other
5901,69,32,146,152,9.0,1-1,other
5902,65,37,166,185,9.0,1-1,other
5903,69,34,167,144,9.0,1-1,other
5904,65,33,204,188,9.0,1-1,other
5905,50,42,187,88,9.0,1-1,other
5906,69,36,162,53,9.0,1-1,other
5907,65,31,172,211,9.0,1-1,other
5908,69,26,171,128,9.0,1-1,other
5909,65,33,405,223,9.0,1-1,other
5910,69,37,185,153,9.0,1-1,other
5911,45,50,92,83,9.0,1-1,other
5912,69,24,120,263,9.0,1-1,other
5913,65,29,150,107,9.0,1-1,other
5914,69,25,138,185,9.0,1-1,other
5915,65,26,153,148,9.0,1-1,other
5916,69,33,117,185,9.0,1-1,other
5917,65,27,159,142,9.0,1-1,other
5918,69,27,90,239,9.0,1-1,other
5919,65,34,145,146,9.0,1-1,other
5920,26,29,184,54,9.0,1-1,other
5921,26,41,125,395,2.0,2-3,minor
5922,65,36,185,173,9.0,2-4,major
5923,38,24,92,68,9.0,2-4,major
5924,65,32,185,260,2.0,3-4B,other
5925,38,31,128,107,2.0,3-4B,other
5926,38,24,175,444,9.0,2-4,major
5927,65,32,182,109,9.0,2-4,major
5928,73,25,182,183,9.0,2-4,major
5929,69,36,99,37,9.0,2-4,major
5930,31,72,376,179,7.0,2-2,other
5931,65,50,182,274,9.0,3-11B,major
5932,31,33,196,251,9.0,2-4,major
5933,65,35,220,75,9.0,2-4,major
5934,43,24,174,167,9.0,2-4,major
5935,31,38,84,170,9.0,2-4,major
5936,65,36,204,55,9.0,2-4,major
5937,65,33,190,362,9.0,2-4,major
5938,43,43,253,147,9.0,2-4,major
5939,65,33,195,207,9.0,2-4,major
5940,55,33,110,103,9.0,2-4,major
5941,43,34,168,150,9.0,2-4,major
5942,65,44,181,121,9.0,2-4,major
5943,55,38,77,102,9.0,2-4,major
5944,43,48,134,159,9.0,2-4,major
5945,65,45,171,86,9.0,2-4,major
5946,55,51,117,78,9.0,2-4,major
5947,43,63,134,178,9.0,3-11B,major
5948,65,58,170,110,9.0,3-11B,major
5949,55,56,122,47,9.0,3-11B,major
5950,65,50,190,272,4.0,2-3,minor
5951,55,66,129,53,4.0,2-3,minor
5952,65,53,177,291,4.0,2-3,minor
5953,55,60,131,27,4.0,2-3,minor
5954,43,63,186,150,9.0,3-11B,major
5955,65,50,192,130,9.0,3-11B,major
5956,55,60,130,44,9.0,3-11B,major
5957,43,58,199,146,9.0,3-11B,major
5958,65,49,175,134,9.0,3-11B,major
5959,55,49,138,52,9.0,3-11B,major
5960,65,44,179,279,9.0,2-2,other
5961,55,37,142,84,9.0,2-2,other
5962,43,45,223,180,9.0,3-11B,major
5963,65,34,157,74,9.0,3-11B,major
5964,65,31,150,314,9.0,2-5,other
5965,43,40,353,47,9.0,2-5,other
5966,43,39,512,493,9.0,2-4,major
5967,65,27,144,85,9.0,2-4,major
5968,61,40,28,0,1.0,1-1,other
5969,59,56,64,128,11.0,1-1,other
5970,75,66,112,1204,7.0,1-1,other
5971,55,52,80,228,7.0,1-1,other
5972,51,43,92,100,3.0,1-1,other
5973,48,47,80,112,0.0,1-1,other
5974,48,40,32,596,0.0,1-1,other
5975,67,41,32,1040,0.0,2-5,other
5976,55,42,84,44,0.0,2-5,other
5977,72,41,244,260,0.0,3-11A,minor
5978,74,67,144,392,2.0,4-27B,major
5979,71,32,48,320,0.0,3-8B,other
5980,66,60,200,52,0.0,3-8B,other
5981,71,50,24,804,8.0,3-10,other
5982,60,68,136,760,3.0,3-11B,major
5983,48,76,384,192,3.0,3-11B,major
5984,67,56,28,320,0.0,3-11A,minor
5985,75,74,84,1916,11.0,3-10,diminished
5986,74,67,104,84,11.0,3-10,diminished
5987,58,34,84,72,11.0,3-10,diminished
5988,55,17,360,184,3.0,2-4,major
5989,76,60,60,848,0.0,4-27B,major
5990,79,57,20,116,0.0,4-27B,major
5991,80,68,88,272,0.0,4-27B,major
5992,79,68,52,104,0.0,4-27B,major
5993,79,52,48,196,5.0,3-11A,other
5994,56,56,300,200,0.0,3-4A,other
5995,48,39,412,36,0.0,3-4A,other
5996,81,51,48,1052,0.0,2-3,minor
5997,82,63,80,356,9.0,1-1,other
5998,58,54,72,48,9.0,1-1,other
5999,84,68,40,60,9.0,1-1,other
6000,86,90,328,80,10.0,2-4,major
6001,84,30,28,780,2.0,1-1,other
6002,59,57,80,232,8.0,2-3,minor
6003,46,52,116,1464,3.0,3-11B,major
6004,80,57,24,1076,11.0,3-10,diminished
6005,77,68,80,768,8.0,2-3,minor
6006,75,61,48,84,8.0,2-3,minor
6007,71,45,24,60,8.0,2-3,minor
6008,59,31,48,28,8.0,2-3,minor
6009,74,39,132,136,4.0,2-4,major
6010,63,38,180,1496,8.0,3-10,diminished
6011,67,56,40,468,0.0,3-11A,minor
6012,72,52,28,108,0.0,3-11A,minor
6013,60,46,104,2536,3.0,2-4,major
6014,72,46,32,548,0.0,3-11A,minor
6015,63,54,56,96,0.0,3-11A,minor
6016,71,54,84,1364,8.0,3-10,other
6017,65,49,88,244,7.0,3-5B,other
6018,74,36,28,192,5.0,3-11A,other
6019,60,56,96,1164,0.0,4-27B,major
6020,64,42,28,548,3.0,2-4,major
6021,56,36,172,60,5.0,3-11A,other
6022,66,61,84,1384,6.0,3-10,other
6023,56,67,404,1084,8.0,3-10,other
6024,68,72,52,292,2.0,2-3,minor
6025,74,79,56,180,8.0,4-28,diminished
6026,54,50,28,488,0.0,2-3,minor
6027,59,17,20,148,0.0,2-3,minor
6028,54,27,24,60,9.0,3-8A,other
6029,66,49,88,1372,3.0,4-17,major
6030,46,59,112,120,3.0,4-17,major
6031,68,61,68,336,11.0,4-18A,diminished
6032,65,76,76,736,8.0,2-3,minor
6033,49,38,28,176,8.0,2-3,minor
6034,46,20,40,440,3.0,2-4,major
6035,62,48,44,1684,0.0,3-11A,minor
6036,63,48,72,88,0.0,3-11A,minor
6037,60,57,92,192,0.0,3-11A,minor
6038,60,57,64,196,0.0,3-11A,minor
6039,72,96,52,1456,11.0,3-5A,other
6040,60,57,244,1228,0.0,4-14A,minor
6041,55,52,60,1160,2.0,4-16B,major
6042,56,56,160,188,2.0,4-27A,minor
6043,72,50,548,1148,2.0,1-1,other
6044,48,49,68,188,2.0,1-1,other
6045,76,63,56,496,3.0,1-1,other
6046,79,78,64,192,6.0,1-1,other
6047,55,55,96,52,6.0,1-1,other
6048,81,80,72,32,6.0,1-1,other
6049,84,87,112,108,4.0,3-8B,other
6050,60,63,28,32,4.0,3-8B,other
6051,53,20,360,128,0.0,2-4,other
6052,77,48,352,328,7.0,1-1,other
6053,57,56,72,396,2.0,4-27B,major
6054,82,74,60,72,2.0,4-27B,major
6055,84,78,48,160,11.0,1-1,other
6056,59,43,32,1860,0.0,4-19B,other
6057,84,71,76,308,6.0,3-10,other
6058,69,40,80,296,6.0,3-10,diminished
6059,87,99,352,552,3.0,3-11B,major
6060,82,67,156,196,3.0,3-11B,major
6061,46,58,108,796,3.0,3-11B,major
6062,50,43,20,208,3.0,3-11B,major
6063,62,86,316,172,3.0,4-16A,other
6064,62,63,72,860,3.0,4-27A,other
6065,66,13,56,80,3.0,4-27A,other
6066,47,49,96,124,3.0,4-27A,other
6067,52,57,204,92,4.0,4-15B,other
6068,41,42,188,676,4.0,2-4,major
6069,57,44,88,64,4.0,2-4,major
6070,67,39,32,1264,6.0,2-6,other
6071,72,53,28,76,6.0,2-6,other
6072,75,75,52,96,6.0,2-6,other
6073,55,46,36,404,5.0,3-9,other
6074,48,74,512,60,5.0,3-9,other
6075,50,67,164,408,2.0,3-11B,major
6076,53,63,144,768,5.0,3-11A,other
6077,67,63,100,376,0.0,3-11A,minor
6078,74,64,36,80,0.0,3-11A,minor
6079,72,49,56,104,0.0,3-11A,minor
6080,79,57,20,868,0.0,3-11A,minor
6081,87,73,52,188,0.0,3-11A,minor
6082,90,47,32,128,0.0,2-5,other
6083,62,50,156,184,6.0,3-10,diminished
6084,86,66,56,180,6.0,3-10,diminished
6085,48,54,40,2388,4.0,3-10,diminished
6086,49,61,64,60,4.0,3-10,diminished
6087,52,72,44,104,0.0,4-15B,other
6088,54,69,36,52,0.0,4-15B,other
6089,55,75,36,64,0.0,4-15B,other
6090,57,70,48,56,0.0,4-15B,other
6091,60,72,48,100,0.0,4-15B,other
6092,64,62,80,136,5.0,2-2,other
6093,67,85,104,112,5.0,2-2,other
6094,65,77,112,64,5.0,2-2,other
6095,55,18,284,528,2.0,3-11B,major
6096,54,66,72,288,2.0,3-11B,major
6097,56,71,68,196,2.0,4-14B,major
6098,57,80,64,148,2.0,2-4,major
6099,57,48,68,308,7.0,2-5,other
6100,58,61,24,756,8.0,4-12A,minor
6101,61,63,20,128,8.0,4-12A,minor
6102,63,58,16,128,8.0,4-28,diminished
6103,66,35,80,192,8.0,2-3,other
6104,68,54,20,64,8.0,2-3,other
6105,66,56,76,192,11.0,2-6,other
6106,68,57,24,64,11.0,2-6,other
6107,69,45,60,64,11.0,2-6,other
6108,71,49,80,64,11.0,2-6,other
6109,75,75,84,128,2.0,5-31B,major
6110,72,66,56,128,2.0,5-31B,major
6111,75,47,44,128,2.0,2-4,major
6112,77,81,92,92,4.0,4-18A,diminished
6113,55,46,232,52,4.0,4-18A,diminished
6114,75,37,244,32,4.0,4-18A,diminished
6115,67,55,100,316,4.0,4-18A,diminished
6116,55,30,40,28,4.0,4-18A,diminished
6117,75,84,152,124,4.0,4-18A,diminished
6118,73,31,108,36,4.0,4-18A,diminished
6119,63,39,68,548,3.0,3-9,other
6120,65,49,84,420,3.0,3-4A,other
6121,80,61,60,476,3.0,6-29,other
6122,57,56,40,1440,8.0,2-3,other
6123,57,18,24,72,8.0,2-3,other
6124,58,22,80,216,10.0,2-4,other
6125,31,49,28,416,7.0,2-4,major
6126,55,49,20,132,7.0,2-4,major
6127,59,43,56,92,7.0,2-4,major
6128,65,68,56,88,7.0,2-4,major
6129,60,59,36,204,0.0,3-11A,minor
6130,55,12,148,432,3.0,1-1,other
6131,47,27,32,936,10.0,2-4,other
6132,77,69,104,56,5.0,3-11A,other
6133,74,68,96,384,8.0,4-12B,diminished
6134,71,61,36,128,8.0,4-12B,diminished
6135,36,52,188,72,8.0,4-12B,diminished
6136,60,39,96,184,0.0,3-11A,minor
6137,57,63,144,32,0.0,3-11A,minor
6138,67,66,28,1404,0.0,2-5,other
6139,62,41,200,888,8.0,4-18B,minor
6140,83,59,24,672,0.0,2-5,other
6141,59,58,172,92,0.0,3-11A,minor
6142,83,31,36,400,0.0,3-11A,minor
6143,55,48,28,728,0.0,3-11B,major
6144,52,50,156,164,0.0,3-11B,major
6145,72,122,76,80,0.0,3-11B,major
6146,67,70,88,316,5.0,3-11A,other
6147,65,69,128,120,5.0,3-11A,other
6148,60,45,28,40,5.0,3-11A,other
6149,56,38,92,28,5.0,3-11A,other
6150,62,57,64,108,5.0,2-5,other
6151,66,81,452,120,5.0,2-5,other
6152,54,54,252,184,5.0,2-5,other
6153,45,37,404,32,5.0,2-5,other
6154,62,55,56,284,2.0,3-11B,major
6155,49,34,44,28,2.0,3-11B,major
6156,56,47,52,360,6.0,1-1,other
6157,62,27,48,332,0.0,3-7B,other
6158,54,42,100,28,0.0,3-7B,other
6159,62,31,120,140,7.0,2-3,minor
6160,43,39,36,168,7.0,2-5,other
6161,70,58,60,472,11.0,3-10,diminished
6162,52,38,36,36,11.0,3-10,diminished
6163,75,78,24,1748,3.0,3-11B,major
6164,55,37,24,232,3.0,2-5,other
6165,59,43,12,1644,3.0,2-5,other
6166,46,57,272,72,3.0,2-5,other
6167,47,41,52,100,3.0,2-5,other
6168,40,38,60,876,9.0,2-1,other
6169,60,36,308,1128,0.0,3-11A,minor
6170,72,44,28,216,7.0,1-1,other
6171,48,63,44,944,2.0,2-4,major
6172,74,56,48,676,8.0,3-10,other
6173,48,57,592,84,8.0,3-10,other
6174,55,42,224,416,0.0,3-11A,minor
6175,72,44,28,180,0.0,3-11A,minor
6176,73,2,132,796,0.0,3-11A,minor
6177,77,15,100,588,2.0,3-11B,major
6178,48,58,104,512,2.0,2-4,major
6179,71,4,244,300,8.0,4-18B,minor
6180,48,51,112,476,8.0,4-28,diminished
6181,75,68,568,204,0.0,4-18B,minor
6182,50,62,108,568,0.0,3-11A,minor
6183,51,61,52,104,0.0,3-11A,minor
6184,52,70,368,84,0.0,3-11A,minor
6185,76,48,56,296,7.0,1-1,other
6186,58,50,188,80,7.0,1-1,other
6187,82,60,40,152,7.0,1-1,other
6188,52,45,192,36,7.0,1-1,other
6189,53,49,368,220,5.0,3-11A,other
6190,78,72,68,868,2.0,2-4,major
6191,81,56,56,444,2.0,4-27B,major
6192,71,40,28,1368,8.0,4-28,diminished
6193,57,69,388,380,6.0,3-10,other
6194,82,74,368,1068,3.0,3-11B,major
6195,78,41,36,900,3.0,3-11B,major
6196,80,36,32,500,2.0,2-3,minor
6197,62,49,164,192,8.0,3-10,minor
6198,64,40,32,392,3.0,4-27A,other
6199,46,53,76,40,3.0,4-27A,other
6200,63,57,60,128,8.0,1-1,other
6201,59,37,28,92,8.0,1-1,other
6202,74,32,28,32,8.0,1-1,other
6203,47,58,24,72,8.0,1-1,other
6204,60,56,36,36,8.0,1-1,other
6205,56,64,68,656,0.0,3-11A,minor
6206,67,88,1226,0,,,
6207,69,46,179,1396,,,
6208,70,51,220,894,,,
6209,67,35,201,2854,7.0,2-5,other
6210,62,38,103,65,3.0,2-5,other
6211,62,35,125,3501,3.0,2-4,major
6212,77,53,258,396,3.0,2-4,major
6213,79,88,244,538,3.0,2-4,major
6214,81,90,381,405,3.0,2-4,major
6215,84,84,339,578,3.0,2-4,major
6216,55,30,105,164,2.0,3-7A,minor
6217,65,45,106,1731,2.0,1-1,other
6218,86,29,345,657,2.0,2-2,other
6219,74,27,432,36,2.0,2-2,other
6220,60,41,117,1368,10.0,2-4,major
6221,55,32,112,47,10.0,2-4,major
6222,65,57,91,1721,10.0,2-4,major
6223,58,43,107,47,10.0,2-4,major
6224,60,43,83,38,10.0,2-4,major
6225,75,57,291,354,10.0,2-4,major
6226,77,66,547,604,10.0,2-4,major
6227,79,63,312,430,10.0,2-4,major
6228,63,56,268,572,10.0,2-4,major
6229,57,34,209,156,2.0,2-2,other
6230,84,48,372,549,2.0,2-2,other
6231,84,55,477,601,2.0,2-2,other
6232,60,36,157,936,3.0,2-4,major
6233,57,29,225,42,3.0,2-4,major
6234,63,53,237,1443,3.0,2-4,major
6235,63,52,197,1962,6.0,2-6,other
6236,53,32,157,1996,10.0,2-4,major
6237,74,57,202,2802,10.0,2-4,major
6238,76,60,435,421,10.0,2-4,major
6239,57,42,88,605,10.0,3-12,augmented
6240,53,36,96,36,10.0,3-12,augmented
6241,82,81,448,379,10.0,3-12,augmented
6242,58,41,156,587,10.0,3-12,augmented
6243,82,76,504,197,10.0,3-12,augmented
6244,82,60,522,999,10.0,2-1,other
6245,57,44,89,625,10.0,3-6,major
6246,53,41,79,33,10.0,3-6,major
6247,86,73,517,312,10.0,3-6,major
6248,89,99,339,604,10.0,3-6,major
6249,58,49,280,79,10.0,3-6,major
6250,87,61,542,432,3.0,3-4A,major
6251,79,59,274,589,3.0,3-4A,major
6252,74,44,576,1308,3.0,3-4B,other
6253,75,48,583,717,3.0,3-4B,other
6254,63,38,333,650,0.0,2-5,other
6255,57,30,144,2060,3.0,3-4A,major
6256,65,52,430,1277,3.0,3-4A,major
6257,55,35,242,110,2.0,2-2,other
6258,65,54,227,1384,2.0,2-2,other
6259,55,27,115,130,2.0,2-2,other
6260,65,67,103,1237,2.0,2-2,other
6261,86,127,488,952,2.0,2-2,other
6262,87,89,466,575,2.0,2-2,other
6263,65,81,173,45,2.0,2-2,other
6264,55,46,76,59,0.0,2-2,other
6265,86,57,372,423,0.0,2-2,other
6266,82,70,249,497,0.0,2-2,other
6267,79,39,278,428,0.0,2-2,other
6268,74,35,301,983,0.0,2-2,other
6269,75,85,289,500,0.0,2-2,other
6270,74,56,446,358,0.0,2-2,other
6271,72,68,204,569,0.0,2-2,other
6272,58,45,206,32,0.0,2-2,other
6273,60,46,88,40,0.0,2-2,other
6274,67,34,305,410,0.0,2-2,other
6275,63,63,309,448,0.0,2-2,other
6276,62,24,143,632,0.0,2-2,other
6277,60,46,85,403,0.0,2-2,other
6278,62,75,526,296,0.0,2-2,other
6279,63,63,334,595,0.0,2-2,other
6280,57,22,110,56,0.0,2-2,other
6281,62,47,524,368,0.0,2-2,other
6282,60,39,231,649,0.0,2-2,other
6283,54,37,238,150,0.0,2-2,other
6284,62,50,569,191,0.0,2-2,other
6285,62,54,385,907,0.0,2-2,other
6286,57,38,244,2462,6.0,2-6,other
6287,58,36,126,60,7.0,2-5,other
6288,71,99,703,1264,7.0,2-5,other
6289,70,57,159,616,7.0,2-5,other
6290,69,54,287,199,7.0,2-5,other
6291,68,50,442,331,7.0,2-5,other
6292,71,66,351,478,7.0,2-5,other
6293,58,29,130,100,7.0,2-5,other
6294,68,56,470,323,7.0,2-5,other
6295,69,63,367,538,7.0,2-5,other
6296,58,28,118,94,7.0,2-5,other
6297,66,61,589,329,7.0,2-5,other
6298,58,36,112,538,7.0,2-5,other
6299,66,58,511,232,7.0,2-5,other
6300,58,41,117,681,7.0,2-5,other
6301,62,37,363,464,7.0,2-5,other
6302,62,58,76,567,7.0,2-5,other
6303,63,39,300,1160,7.0,2-5,other
6304,63,53,101,1588,0.0,2-5,other
6305,72,76,193,986,0.0,2-5,other
6306,74,120,381,428,0.0,2-5,other
6307,75,92,316,544,0.0,2-5,other
6308,60,55,87,146,0.0,2-5,other
6309,63,38,110,38,0.0,2-5,other
6310,74,69,349,273,0.0,2-5,other
6311,72,70,240,526,0.0,2-5,other
6312,70,61,298,410,0.0,2-5,other
6313,69,66,280,551,0.0,2-5,other
6314,63,54,121,45,0.0,2-5,other
6315,67,42,309,482,6.0,2-6,other
6316,66,57,85,419,6.0,2-6,other
6317,54,39,151,53,6.0,2-6,other
6318,63,51,365,370,6.0,2-6,other
6319,60,37,94,616,6.0,2-6,other
6320,50,26,372,63,6.0,2-6,other
6321,62,69,387,244,6.0,2-6,other
6322,63,39,157,546,6.0,2-6,other
6323,62,60,253,48,6.0,2-6,other
6324,50,27,374,154,6.0,2-6,other
6325,60,43,486,123,6.0,2-6,other
6326,58,59,331,603,6.0,2-6,other
6327,50,39,273,47,6.0,2-6,other
6328,57,49,482,412,6.0,2-6,other
6329,60,66,417,540,6.0,2-6,other
6330,50,34,222,85,6.0,2-6,other
6331,58,50,527,329,6.0,2-6,other
6332,50,39,208,473,6.0,2-6,other
6333,54,55,244,139,6.0,2-6,other
6334,57,52,445,455,6.0,2-6,other
6335,50,29,159,524,6.0,2-6,other
6336,54,30,147,45,6.0,2-6,other
6337,55,48,374,309,6.0,2-6,other
6338,57,63,222,517,6.0,2-6,other
6339,50,39,103,146,6.0,2-6,other
6340,58,58,247,239,6.0,2-6,other
6341,59,57,230,348,6.0,2-6,other
6342,60,63,265,322,6.0,2-6,other
6343,61,42,107,381,6.0,2-6,other
6344,62,57,117,150,6.0,2-6,other
6345,63,56,242,226,6.0,2-6,other
6346,64,66,137,240,6.0,2-6,other
6347,65,83,380,175,6.0,2-6,other
6348,58,46,88,107,6.0,2-6,other
6349,48,25,146,121,6.0,2-6,other
6350,62,76,392,117,6.0,2-6,other
6351,63,63,322,506,6.0,2-6,other
6352,55,58,504,426,6.0,2-6,other
6353,55,52,415,754,6.0,2-6,other
6354,65,57,227,1951,6.0,2-6,other
6355,66,54,80,321,6.0,2-6,other
6356,67,69,160,212,6.0,2-6,other
6357,68,57,69,274,6.0,2-6,other
6358,69,69,130,190,6.0,2-6,other
6359,70,57,130,229,6.0,2-6,other
6360,71,50,179,257,6.0,2-6,other
6361,70,56,188,233,6.0,2-6,other
6362,68,65,153,235,6.0,2-6,other
6363,69,52,201,227,6.0,2-6,other
6364,70,56,76,242,6.0,2-6,other
6365,69,40,121,257,6.0,2-6,other
6366,71,31,108,58,6.0,2-6,other
6367,72,48,159,162,6.0,2-6,other
6368,73,58,246,190,6.0,2-6,other
6369,74,71,278,260,6.0,2-6,other
6370,73,48,267,226,6.0,2-6,other
6371,72,48,152,177,6.0,2-6,other
6372,71,41,240,231,6.0,2-6,other
6373,72,38,170,255,6.0,2-6,other
6374,73,39,112,197,6.0,2-6,other
6375,74,57,109,180,6.0,2-6,other
6376,75,33,183,253,6.0,2-6,other
6377,76,55,208,226,6.0,2-6,other
6378,77,83,435,253,6.0,2-6,other
6379,74,69,319,284,6.0,2-6,other
6380,70,70,286,628,6.0,2-6,other
6381,69,33,486,475,6.0,2-6,other
6382,70,57,256,586,6.0,2-6,other
6383,60,30,123,193,6.0,2-6,other
6384,72,55,315,294,6.0,2-6,other
6385,75,65,258,492,6.0,2-6,other
6386,60,33,114,74,6.0,2-6,other
6387,67,41,477,323,6.0,2-6,other
6388,63,46,305,2692,5.0,2-5,other
6389,57,31,195,164,0.0,2-5,other
6390,63,66,125,1465,0.0,2-5,other
6391,57,49,249,71,0.0,2-5,other
6392,60,26,92,32,0.0,2-5,other
6393,89,122,495,253,0.0,2-5,other
6394,86,71,233,672,0.0,2-5,other
6395,87,85,457,417,0.0,2-5,other
6396,84,51,368,528,0.0,2-5,other
6397,54,33,114,137,0.0,2-3,minor
6398,86,83,516,369,0.0,2-3,minor
6399,85,78,264,433,0.0,2-3,minor
6400,85,43,74,365,0.0,2-3,minor
6401,84,47,314,134,0.0,2-3,minor
6402,80,74,294,477,0.0,2-3,minor
6403,60,39,424,56,0.0,2-3,minor
6404,54,28,132,50,0.0,2-3,minor
6405,80,63,392,510,0.0,2-3,minor
6406,63,49,105,408,0.0,2-3,minor
6407,80,66,428,258,6.0,2-6,other
6408,81,67,342,587,6.0,2-6,other
6409,62,43,679,134,6.0,2-6,other
6410,57,40,309,27,6.0,2-6,other
6411,82,72,289,477,6.0,2-6,other
6412,82,71,417,694,6.0,2-6,other
6413,81,66,266,563,6.0,2-6,other
6414,58,46,1277,67,6.0,2-6,other
6415,62,44,1355,36,6.0,2-6,other
6416,52,24,1046,132,6.0,2-6,other
6417,82,70,2036,271,6.0,2-6,other
6418,67,65,244,1767,6.0,2-6,other
6419,56,44,146,45,6.0,2-6,other
6420,63,45,289,29,6.0,2-6,other
6421,60,40,137,36,6.0,2-6,other
6422,80,92,562,827,6.0,2-6,other
6423,66,65,1550,656,6.0,2-6,other
6424,79,77,237,636,0.0,2-4,other
6425,79,80,2289,735,0.0,2-4,other
6426,65,52,1651,627,0.0,2-4,other
6427,62,48,1492,47,0.0,2-4,other
6428,60,46,1499,31,0.0,2-4,other
6429,55,39,2977,34,0.0,2-4,other
6430,75,82,276,1653,0.0,2-4,other
6431,72,44,283,432,0.0,2-4,other
6432,67,62,267,531,0.0,2-4,other
6433,63,41,372,430,0.0,2-4,other
6434,63,58,751,981,0.0,2-4,other
6435,54,46,125,608,0.0,2-4,other
6436,50,23,105,112,0.0,2-4,other
6437,62,77,827,185,0.0,2-4,other
6438,60,52,430,973,0.0,2-4,other
6439,57,44,452,990,10.0,3-3B,major
6440,60,66,280,582,10.0,3-3B,major
6441,50,39,154,63,10.0,3-3B,major
6442,58,57,524,352,10.0,3-3B,major
6443,50,34,157,593,10.0,3-3B,major
6444,54,51,157,45,10.0,3-3B,major
6445,57,62,591,318,10.0,3-3B,major
6446,55,54,466,1001,2.0,2-4,major
6447,56,54,72,493,2.0,2-4,major
6448,57,59,300,81,2.0,2-4,major
6449,50,48,85,83,2.0,2-4,major
6450,58,60,504,329,2.0,2-4,major
6451,59,74,260,517,2.0,2-4,major
6452,50,47,87,70,2.0,2-4,major
6453,60,71,441,367,2.0,2-4,major
6454,58,48,269,542,2.0,2-4,major
6455,50,48,130,85,2.0,2-4,major
6456,59,23,396,361,2.0,2-4,major
6457,60,75,282,475,2.0,2-4,major
6458,61,57,428,416,2.0,2-4,major
6459,62,62,229,522,2.0,2-4,major
6460,64,52,86,47,2.0,2-4,major
6461,63,74,381,345,2.0,2-4,major
6462,64,84,289,531,2.0,2-4,major
6463,65,94,565,403,2.0,2-4,major
6464,58,50,230,50,2.0,2-4,major
6465,63,60,535,943,7.0,2-5,other
6466,59,50,157,573,7.0,2-5,other
6467,60,49,600,381,7.0,2-5,other
6468,62,62,253,569,7.0,2-5,other
6469,63,56,441,435,7.0,2-5,other
6470,65,66,454,533,7.0,2-5,other
6471,57,41,459,188,3.0,2-1,other
6472,66,57,732,307,3.0,2-1,other
6473,62,56,154,1429,3.0,2-1,other
6474,57,49,99,1021,9.0,2-6,other
6475,65,74,1492,379,9.0,2-6,other
6476,64,46,144,1527,9.0,2-6,other
6477,65,41,312,399,9.0,2-6,other
6478,67,57,250,536,9.0,2-6,other
6479,62,35,155,35,9.0,2-6,other
6480,69,81,466,327,9.0,2-6,other
6481,62,31,123,621,9.0,2-6,other
6482,69,57,495,320,9.0,2-6,other
6483,70,70,229,569,9.0,2-6,other
6484,74,54,358,446,9.0,2-6,other
6485,77,77,244,486,9.0,2-6,other
6486,65,52,71,99,9.0,2-6,other
6487,60,52,186,47,9.0,2-6,other
6488,81,122,414,269,9.0,2-6,other
6489,84,115,282,546,9.0,2-6,other
6490,60,45,94,184,9.0,2-6,other
6491,82,72,361,273,9.0,2-6,other
6492,78,66,311,565,9.0,2-6,other
6493,65,46,90,33,9.0,2-6,other
6494,60,44,101,43,9.0,2-6,other
6495,74,50,448,389,9.0,2-6,other
6496,60,23,112,697,9.0,2-6,other
6497,63,43,453,2119,9.0,2-6,other
6498,60,42,313,90,9.0,2-6,other
6499,57,39,354,42,9.0,2-6,other
6500,55,29,177,72,9.0,2-6,other
6501,65,52,105,3192,0.0,2-2,other
6502,60,29,112,128,10.0,2-4,other
6503,65,63,74,900,10.0,2-4,other
6504,60,38,110,96,10.0,2-4,other
6505,91,94,253,283,10.0,2-4,other
6506,90,84,387,376,10.0,2-4,other
6507,58,39,840,195,10.0,2-4,other
6508,57,35,334,65,10.0,2-4,other
6509,85,66,313,110,10.0,2-4,other
6510,84,74,238,322,10.0,2-4,other
6511,89,81,365,390,10.0,2-4,other
6512,62,1,260,27,10.0,2-4,other
6513,83,44,248,383,10.0,2-4,other
6514,88,68,392,367,10.0,2-4,other
6515,82,59,329,708,3.0,2-5,other
6516,81,57,202,392,3.0,2-5,other
6517,58,33,179,137,3.0,2-5,other
6518,86,63,239,197,3.0,2-5,other
6519,81,41,222,338,3.0,2-5,other
6520,84,72,339,358,3.0,2-5,other
6521,82,73,293,341,10.0,2-4,major
6522,78,56,269,412,10.0,2-4,major
6523,81,68,363,361,10.0,2-4,major
6524,80,67,155,398,10.0,2-4,major
6525,79,85,273,856,10.0,2-4,major
6526,78,83,333,576,10.0,2-4,major
6527,62,36,146,116,10.0,2-4,major
6528,59,29,132,72,10.0,2-4,major
6529,77,59,414,251,10.0,2-4,major
6530,74,63,274,546,10.0,2-4,major
6531,67,46,115,47,10.0,2-4,major
6532,63,39,309,34,10.0,2-4,major
6533,75,67,516,387,10.0,2-4,major
6534,67,57,141,502,10.0,2-4,major
6535,67,42,293,399,10.0,2-4,major
6536,67,56,210,502,10.0,2-4,major
6537,67,52,313,421,3.0,2-5,other
6538,69,57,251,531,3.0,2-5,other
6539,63,30,155,69,3.0,2-5,other
6540,67,39,477,379,3.0,2-5,other
6541,65,47,562,898,6.0,2-3,other
6542,63,34,135,544,6.0,2-3,other
6543,65,63,566,377,6.0,2-3,other
6544,63,43,116,578,6.0,2-3,other
6545,65,54,383,378,6.0,2-3,other
6546,67,61,255,560,6.0,2-3,other
6547,63,55,240,36,6.0,2-3,other
6548,68,72,425,408,6.0,2-3,other
6549,69,81,339,539,6.0,2-3,other
6550,60,47,336,77,2.0,2-3,minor
6551,72,76,405,376,2.0,2-3,minor
6552,60,49,275,1548,2.0,2-3,minor
6553,74,47,103,316,2.0,2-3,minor
6554,77,68,195,338,2.0,2-3,minor
6555,81,73,224,287,2.0,2-3,minor
6556,84,66,199,338,2.0,2-3,minor
6557,79,65,117,300,2.0,2-3,minor
6558,82,68,112,343,2.0,2-3,minor
6559,86,56,226,331,2.0,2-3,minor
6560,89,70,74,303,2.0,2-3,minor
6561,93,66,175,311,2.0,2-3,minor
6562,65,54,114,1886,0.0,1-1,other
6563,58,42,213,36,0.0,1-1,other
6564,60,42,87,54,0.0,1-1,other
6565,63,37,509,1160,0.0,1-1,other
6566,60,31,425,43,0.0,1-1,other
6567,55,39,347,33,0.0,1-1,other
6568,63,60,98,1452,0.0,1-1,other
6569,60,39,101,67,0.0,1-1,other
6570,67,41,163,390,0.0,1-1,other
6571,72,66,203,549,0.0,1-1,other
6572,74,107,345,450,0.0,1-1,other
6573,75,98,372,580,0.0,1-1,other
6574,75,86,410,649,6.0,3-10,other
6575,60,24,181,415,6.0,3-10,other
6576,74,76,405,231,6.0,3-10,other
6577,74,68,336,627,6.0,3-10,other
6578,63,57,228,45,6.0,3-10,other
6579,72,65,368,537,6.0,2-6,other
6580,72,66,504,665,6.0,2-6,other
6581,70,62,432,592,6.0,2-6,other
6582,62,47,215,42,6.0,2-6,other
6583,58,41,354,27,6.0,2-6,other
6584,57,35,141,36,6.0,2-6,other
6585,55,24,195,114,6.0,2-6,other
6586,70,58,610,410,6.0,2-6,other
6587,62,31,112,484,6.0,2-6,other
6588,58,31,143,56,6.0,2-6,other
6589,69,53,415,150,6.0,2-6,other
6590,69,51,5582,677,6.0,2-6,other
6591,58,32,1147,29,6.0,2-6,other
6592,62,29,1124,27,6.0,2-6,other
6593,57,28,1014,38,6.0,2-6,other
6594,55,31,983,83,6.0,2-6,other
6595,57,50,92,1662,10.0,2-4,major
6596,57,36,233,663,10.0,2-4,major
6597,57,31,147,764,10.0,2-4,major
6598,57,33,865,696,10.0,2-4,major
6599,66,66,356,1669,10.0,2-4,major
6600,60,40,616,81,10.0,2-4,major
6601,67,71,323,284,10.0,2-4,major
6602,69,87,601,432,10.0,2-4,major
6603,63,41,168,406,10.0,2-4,major
6604,60,26,869,54,10.0,2-4,major
6605,67,57,479,208,10.0,2-4,major
6606,69,72,401,585,10.0,2-4,major
6607,72,66,596,600,10.0,2-4,major
6608,63,48,94,175,10.0,2-4,major
6609,60,25,191,165,10.0,2-4,major
6610,66,57,565,372,10.0,2-4,major
6611,63,43,302,968,10.0,2-4,major
6612,60,31,235,92,10.0,2-4,major
6613,57,19,162,89,10.0,2-4,major
6614,63,48,408,1335,10.0,2-4,major
6615,62,29,558,1958,10.0,2-1,other
6616,55,38,620,43,10.0,2-1,other
6617,57,39,202,1901,10.0,2-4,major
6618,55,31,143,106,10.0,2-4,major
6619,70,90,544,222,10.0,2-4,major
6620,69,50,204,624,10.0,2-4,major
6621,58,28,139,88,10.0,2-4,major
6622,70,79,609,264,10.0,2-4,major
6623,57,35,618,1600,10.0,2-4,major
6624,55,42,1827,56,10.0,2-4,major
6625,58,35,343,799,10.0,2-4,major
6626,72,88,511,390,10.0,2-4,major
6627,70,60,356,596,10.0,2-4,major
6628,58,46,139,33,10.0,2-4,major
6629,62,39,181,32,10.0,2-4,major
6630,71,52,497,338,10.0,2-4,major
6631,74,81,325,623,10.0,2-4,major
6632,58,30,3712,159,3.0,2-4,major
6633,62,33,1028,52,3.0,2-4,major
6634,71,49,374,277,3.0,2-4,major
6635,72,67,284,518,3.0,2-4,major
6636,74,63,372,414,3.0,2-4,major
6637,75,70,235,486,3.0,2-4,major
6638,62,30,573,108,3.0,2-4,major
6639,79,66,398,327,3.0,2-4,major
6640,83,78,195,548,3.0,2-4,major
6641,63,39,421,74,3.0,2-4,major
6642,86,115,589,312,3.0,2-4,major
6643,84,70,319,575,3.0,2-4,major
6644,78,63,555,1170,6.0,2-3,minor
6645,78,67,791,871,6.0,2-3,minor
6646,57,31,1178,157,3.0,2-4,major
6647,86,79,345,741,3.0,2-4,major
6648,78,49,519,471,3.0,2-4,major
6649,77,57,338,522,3.0,2-4,major
6650,55,29,1055,219,2.0,2-3,minor
6651,76,31,291,406,2.0,2-3,minor
6652,65,46,786,1207,2.0,2-3,minor
6653,62,39,481,74,2.0,2-3,minor
6654,60,37,470,31,2.0,2-3,minor
6655,55,34,1303,45,2.0,2-3,minor
6656,84,89,307,746,2.0,2-3,minor
6657,76,48,594,425,2.0,2-3,minor
6658,75,63,323,538,2.0,2-3,minor
6659,65,43,1170,51,2.0,2-3,minor
6660,60,40,1373,48,2.0,2-3,minor
6661,55,37,1906,40,2.0,2-3,minor
6662,74,43,349,363,2.0,2-3,minor
6663,82,77,275,457,2.0,2-3,minor
6664,74,57,421,374,2.0,2-3,minor
6665,73,52,298,540,2.0,2-3,minor
6666,72,36,343,481,2.0,2-3,minor
6667,81,77,237,484,2.0,2-3,minor
6668,65,31,118,81,2.0,2-3,minor
6669,60,22,188,114,2.0,2-3,minor
6670,72,48,354,152,2.0,2-3,minor
6671,60,57,327,652,0.0,2-1,other
6672,70,46,501,426,0.0,2-1,other
6673,55,25,179,764,9.0,2-6,other
6674,57,22,289,87,9.0,2-6,other
6675,75,78,417,58,9.0,2-6,other
6676,74,67,450,930,9.0,2-6,other
6677,67,43,381,943,0.0,2-3,minor
6678,63,52,386,537,0.0,2-3,minor
6679,60,47,454,422,0.0,2-3,minor
6680,62,58,298,629,0.0,2-3,minor
6681,60,47,96,43,0.0,2-3,minor
6682,54,34,137,73,0.0,2-3,minor
6683,63,48,385,312,0.0,2-3,minor
6684,64,56,204,479,0.0,2-3,minor
6685,65,48,123,54,0.0,2-3,minor
6686,54,26,136,90,0.0,2-3,minor
6687,66,57,294,192,0.0,2-3,minor
6688,68,63,123,370,0.0,2-3,minor
6689,54,38,282,365,0.0,2-1,other
6690,73,63,177,251,0.0,2-1,other
6691,74,58,222,403,0.0,2-1,other
6692,77,92,348,311,0.0,2-1,other
6693,74,63,329,379,0.0,2-1,other
6694,58,21,137,105,0.0,2-1,other
6695,70,63,246,305,0.0,2-1,other
6696,69,38,130,414,0.0,2-1,other
6697,60,47,280,1902,6.0,2-2,other
6698,66,61,1214,2545,0.0,2-4,other
6699,60,34,602,166,8.0,2-6,other
6700,62,19,216,1025,8.0,2-6,other
6701,65,42,233,753,8.0,2-6,other
6702,62,43,311,27,8.0,2-6,other
6703,55,23,381,96,8.0,2-6,other
6704,74,51,92,298,8.0,2-6,other
6705,86,43,89,32,8.0,2-6,other
6706,82,59,74,324,8.0,2-6,other
6707,74,62,161,334,2.0,2-3,minor
6708,82,63,233,280,2.0,2-3,minor
6709,79,33,94,394,2.0,2-3,minor
6710,74,62,146,188,2.0,2-3,minor
6711,60,22,170,238,2.0,2-3,minor
6712,70,54,287,103,2.0,2-3,minor
6713,55,28,195,1006,2.0,2-2,other
6714,63,43,262,808,2.0,2-2,other
6715,55,40,242,34,2.0,2-2,other
6716,60,35,121,42,2.0,2-2,other
6717,57,25,134,50,2.0,2-2,other
6718,60,52,352,1460,5.0,2-1,other
6719,87,63,94,336,5.0,2-1,other
6720,75,50,85,45,5.0,2-1,other
6721,84,41,87,379,5.0,2-1,other
6722,87,75,265,230,5.0,2-1,other
6723,60,48,148,108,5.0,2-1,other
6724,58,31,143,67,5.0,2-1,other
6725,84,45,229,215,5.0,2-1,other
6726,80,38,264,285,5.0,2-1,other
6727,58,41,222,315,3.0,2-1,other
6728,57,45,96,30,3.0,2-1,other
6729,55,27,159,103,3.0,2-1,other
6730,82,48,81,613,2.0,1-1,other
6731,86,79,282,274,2.0,1-1,other
6732,74,63,182,33,2.0,1-1,other
6733,57,39,127,97,10.0,2-4,major
6734,82,54,280,192,10.0,2-4,major
6735,79,39,145,343,10.0,2-4,major
6736,74,43,99,313,10.0,2-4,major
6737,58,37,119,146,10.0,2-4,major
6738,94,79,202,2072,3.0,2-4,other
6739,92,56,181,276,3.0,2-4,other
6740,92,68,309,712,3.0,3-4A,other
6741,87,60,257,307,3.0,3-4A,other
6742,83,49,164,376,3.0,2-4,other
6743,82,63,247,291,3.0,2-4,other
6744,80,83,184,632,3.0,2-4,other
6745,79,75,233,372,3.0,2-4,other
6746,80,48,114,403,3.0,2-4,other
6747,79,54,275,119,3.0,2-4,other
6748,67,36,121,257,3.0,2-4,other
6749,75,72,419,717,5.0,2-2,other
6750,67,43,106,114,5.0,2-2,other
6751,63,36,143,50,5.0,2-2,other
6752,74,48,394,329,5.0,2-2,other
6753,77,68,277,502,5.0,2-2,other
6754,67,50,80,38,5.0,2-2,other
6755,63,36,137,69,5.0,2-2,other
6756,75,49,478,291,5.0,2-2,other
6757,67,54,300,538,5.0,2-2,other
6758,63,34,123,54,5.0,2-2,other
6759,66,50,567,311,5.0,2-2,other
6760,60,52,103,614,5.0,2-2,other
6761,65,59,500,320,5.0,2-2,other
6762,60,59,132,587,5.0,2-2,other
6763,56,56,74,34,5.0,2-2,other
6764,64,71,710,273,5.0,2-2,other
6765,63,68,672,999,0.0,2-2,other
6766,61,70,748,939,6.0,2-6,other
6767,57,55,130,696,6.0,2-6,other
6768,53,42,101,36,6.0,2-6,other
6769,62,66,802,255,6.0,2-6,other
6770,60,68,565,979,5.0,2-4,major
6771,53,50,94,670,5.0,2-4,major
6772,46,39,105,63,5.0,2-4,major
6773,57,72,475,237,5.0,2-4,major
6774,46,49,96,643,5.0,2-4,major
6775,50,39,97,56,5.0,2-4,major
6776,54,69,74,119,5.0,2-4,major
6777,55,77,560,103,5.0,2-4,major
6778,39,99,184,616,5.0,2-4,major
6779,27,75,78,45,5.0,2-4,major
6780,50,42,94,42,5.0,2-4,major
6781,50,49,574,1380,0.0,2-1,other
6782,39,48,90,493,0.0,2-1,other
6783,51,68,287,40,0.0,2-1,other
6784,53,38,316,439,0.0,2-1,other
6785,55,67,280,451,0.0,2-1,other
6786,57,49,378,504,0.0,2-1,other
6787,58,63,265,454,0.0,2-1,other
6788,45,50,107,79,0.0,2-1,other
6789,55,37,101,31,0.0,2-1,other
6790,60,33,318,376,0.0,2-1,other
6791,63,60,231,491,0.0,2-1,other
6792,67,49,271,457,0.0,2-1,other
6793,72,85,229,526,0.0,2-1,other
6794,63,64,78,36,0.0,2-1,other
6795,75,74,139,412,9.0,2-3,minor
6796,84,85,191,934,3.0,2-4,major
6797,89,79,538,1046,10.0,2-5,other
6798,60,46,455,27,10.0,2-5,other
6799,54,54,437,836,5.0,1-1,other
6800,60,46,295,1391,10.0,3-4A,other
6801,60,29,119,730,10.0,2-5,other
6802,55,47,345,1322,10.0,3-4A,major
6803,91,65,298,38,10.0,3-4A,major
6804,79,60,258,60,10.0,3-4A,major
6805,89,31,186,85,10.0,3-4A,major
6806,55,29,130,1111,10.0,2-4,major
6807,62,48,351,1078,10.0,2-1,other
6808,86,40,260,103,9.0,2-2,other
6809,55,56,233,468,9.0,2-2,other
6810,57,31,105,54,9.0,2-2,other
6811,94,73,477,329,9.0,2-2,other
6812,92,22,166,161,7.0,4-14A,minor
6813,94,61,468,542,7.0,4-14A,minor
6814,86,39,215,146,9.0,2-2,other
6815,62,39,104,593,7.0,2-3,minor
6816,56,46,354,560,4.0,3-3A,major
6817,56,38,335,814,5.0,2-1,other
6818,51,53,89,569,5.0,2-1,other
6819,61,3,1322,4464,9.0,3-5B,other
6820,56,59,1362,1698,6.0,2-3,other
6821,61,43,1025,43,6.0,2-3,other
6822,50,78,685,1805,1.0,3-9,other
6823,50,82,1778,1024,1.0,2-5,other
6824,74,127,1131,970,1.0,2-5,other
6825,68,81,884,681,1.0,2-5,other
6826,65,70,457,654,1.0,2-5,other
6827,51,37,2432,215,1.0,2-5,other
6828,67,60,522,436,10.0,2-4,major
6829,60,34,224,740,10.0,2-4,major
6830,51,45,83,1639,10.0,2-4,major
6831,58,53,83,36,10.0,2-4,major
6832,63,50,168,1243,10.0,2-4,major
6833,60,44,200,45,10.0,2-4,major
6834,59,34,121,63,10.0,2-4,major
6835,63,68,86,1451,10.0,2-4,major
6836,60,49,146,83,10.0,2-4,major
6837,72,52,117,318,10.0,2-4,major
6838,55,55,303,997,5.0,4-19B,other
6839,55,56,146,679,5.0,4-19B,other
6840,61,58,396,372,5.0,4-19B,other
6841,55,33,116,157,5.0,3-11B,major
6842,60,49,87,522,6.0,2-2,other
6843,60,54,1332,1214,4.0,4-21,major
6844,65,54,193,1796,4.0,4-21,major
6845,60,47,94,65,8.0,4-5A,other
6846,60,46,71,652,10.0,4-20,major
6847,58,51,275,356,2.0,3-11A,minor
6848,60,39,101,74,2.0,3-11A,minor
6849,60,45,78,567,2.0,2-5,other
6850,65,33,565,369,2.0,2-5,other
6851,58,48,406,27,2.0,2-5,other
6852,60,40,135,58,2.0,2-5,other
6853,60,41,132,742,7.0,3-11A,minor
6854,65,48,177,562,7.0,3-11A,minor
6855,60,39,97,1057,4.0,3-10,diminished
6856,74,74,632,2050,2.0,2-2,other
6857,67,51,419,634,2.0,2-2,other
6858,63,49,526,562,2.0,2-2,other
6859,63,50,280,755,2.0,2-2,other
6860,63,43,500,974,2.0,2-2,other
6861,60,37,314,76,2.0,2-2,other
6862,65,50,2126,1604,9.0,2-2,other
6863,60,48,681,83,10.0,2-4,other
6864,60,26,1532,914,10.0,2-4,other
6865,82,102,389,332,10.0,2-4,other
6866,83,83,275,553,10.0,2-4,other
6867,80,54,368,479,10.0,2-4,other
6868,76,66,262,529,10.0,2-4,other
6869,58,32,401,107,6.0,3-8B,other
6870,72,40,414,305,6.0,3-8B,other
6871,69,36,472,939,10.0,1-1,other
6872,72,63,294,548,10.0,1-1,other
6873,57,24,253,184,10.0,2-4,major
6874,69,33,430,220,10.0,2-4,major
6875,70,58,269,537,10.0,2-4,major
6876,58,39,210,81,10.0,2-4,major
6877,66,59,471,282,10.0,2-4,major
6878,69,72,283,553,10.0,2-4,major
6879,62,42,87,52,10.0,2-4,major
6880,58,43,197,38,10.0,2-4,major
6881,67,43,408,347,10.0,2-4,major
6882,64,47,119,603,10.0,2-4,major
6883,55,42,132,31,10.0,2-4,major
6884,62,66,524,285,10.0,2-4,major
6885,50,54,237,1539,10.0,2-4,major
6886,53,35,142,73,10.0,2-4,major
6887,53,53,92,890,10.0,2-4,major
6888,50,51,80,38,10.0,2-4,major
6889,58,54,110,1859,10.0,2-4,major
6890,55,56,309,36,10.0,2-4,major
6891,60,49,96,329,10.0,2-4,major
6892,58,52,274,244,10.0,2-4,major
6893,62,63,244,410,10.0,2-4,major
6894,58,27,94,90,0.0,2-5,other
6895,63,68,249,683,0.0,2-5,other
6896,55,49,228,137,0.0,2-5,other
6897,60,49,97,174,0.0,2-5,other
6898,65,76,289,350,0.0,2-5,other
6899,62,40,101,401,0.0,2-5,other
6900,67,63,287,365,0.0,2-5,other
6901,51,33,119,701,0.0,2-5,other
6902,69,74,269,49,0.0,2-5,other
6903,70,71,300,722,0.0,2-5,other
6904,51,37,108,165,0.0,2-5,other
6905,72,71,267,457,0.0,2-5,other
6906,60,44,110,397,0.0,2-5,other
6907,74,68,244,338,9.0,2-6,other
6908,72,39,130,54,9.0,2-6,other
6909,75,82,298,681,9.0,2-6,other
6910,63,46,130,387,9.0,2-6,other
6911,76,76,318,383,9.0,2-6,other
6912,60,40,136,43,9.0,2-6,other
6913,64,31,110,416,9.0,2-6,other
6914,77,79,294,224,9.0,2-6,other
6915,60,38,105,944,2.0,2-3,minor
6916,55,31,110,35,2.0,2-3,minor
6917,67,58,145,1069,0.0,2-5,other
6918,69,33,109,876,7.0,2-1,other
6919,82,85,419,289,7.0,2-1,other
6920,65,57,76,85,7.0,2-1,other
6921,60,49,87,38,7.0,2-1,other
6922,70,38,121,213,7.0,2-1,other
6923,84,85,381,329,7.0,2-1,other
6924,55,45,152,137,5.0,2-5,other
6925,72,48,123,239,5.0,2-5,other
6926,86,85,351,323,5.0,2-5,other
6927,74,50,81,412,7.0,2-3,minor
6928,75,56,213,683,0.0,2-5,other
6929,89,94,345,419,0.0,2-5,other
6930,57,45,244,148,3.0,2-4,major
6931,63,63,360,3721,0.0,2-5,other
6932,87,68,278,44,0.0,2-5,other
6933,86,58,403,569,10.0,4-24,augmented
6934,65,53,452,1844,3.0,3-7B,other
6935,74,42,126,967,5.0,2-5,other
6936,70,60,1301,4588,8.0,2-2,other
6937,60,36,1038,60,3.0,3-4B,other
6938,64,48,1089,1974,8.0,3-8A,other
6939,58,41,463,1826,8.0,3-8A,other
6940,63,59,538,3167,0.0,2-5,other
6941,60,26,356,139,10.0,2-4,other
6942,57,21,157,67,10.0,2-4,other
6943,70,41,1230,2486,6.0,2-6,other
6944,74,57,170,1537,6.0,2-6,other
6945,79,46,540,410,7.0,2-3,minor
6946,74,41,202,412,1.0,2-6,other
6947,74,41,121,1151,9.0,2-2,other
6948,55,35,434,1011,7.0,3-11A,minor
6949,67,1,10,1132,7.0,3-11A,minor
6950,67,65,226,1646,7.0,3-11A,minor
6951,69,64,266,441,7.0,3-11A,minor
6952,70,68,349,905,7.0,3-11A,minor
6953,58,44,923,903,7.0,3-11A,minor
6954,67,41,294,3811,3.0,2-1,other
6955,63,45,264,44,3.0,2-1,other
6956,67,68,147,1523,2.0,2-5,other
6957,57,38,128,98,3.0,2-1,other
6958,77,84,446,359,3.0,2-1,other
6959,79,98,308,598,3.0,2-1,other
6960,81,113,403,359,3.0,2-1,other
6961,79,37,87,36,3.0,2-1,other
6962,86,89,277,552,3.0,2-1,other
6963,86,80,435,500,0.0,2-5,other
6964,86,76,340,843,0.0,2-5,other
6965,65,53,112,593,0.0,2-5,other
6966,60,47,128,47,0.0,2-5,other
6967,62,32,136,46,0.0,2-5,other
6968,65,55,207,2113,0.0,2-5,other
6969,58,43,237,49,0.0,2-5,other
6970,55,28,133,139,0.0,2-5,other
6971,65,59,95,1428,0.0,2-5,other
6972,58,49,142,27,0.0,2-5,other
6973,60,38,127,85,0.0,2-5,other
6974,75,73,253,758,0.0,2-5,other
6975,77,75,365,441,0.0,2-5,other
6976,79,90,248,628,0.0,2-5,other
6977,63,91,424,28,0.0,2-5,other
6978,60,64,444,59,0.0,2-5,other
6979,57,52,525,41,0.0,2-5,other
6980,55,39,226,68,0.0,2-5,other
6981,84,111,476,332,0.0,2-5,other
6982,84,54,403,1289,0.0,1-1,other
6983,72,61,324,82,0.0,1-1,other
6984,63,40,256,296,0.0,1-1,other
6985,84,52,394,311,0.0,1-1,other
6986,72,55,365,51,0.0,1-1,other
6987,84,48,392,691,0.0,1-1,other
6988,72,55,319,54,0.0,1-1,other
6989,63,51,242,664,0.0,1-1,other
6990,63,58,277,1804,6.0,2-6,other
6991,54,49,239,27,6.0,2-6,other
6992,58,28,141,144,6.0,2-6,other
6993,62,53,266,3615,9.0,2-2,other
6994,58,40,160,41,9.0,2-2,other
6995,62,66,263,1817,9.0,2-2,other
6996,58,47,136,59,9.0,2-2,other
6997,74,55,120,955,9.0,2-2,other
6998,76,59,389,411,9.0,2-2,other
6999,79,70,307,1009,10.0,2-1,other
7000,81,104,294,492,10.0,2-1,other
7001,58,59,117,101,2.0,2-5,other
7002,82,94,400,345,2.0,2-5,other
7003,84,93,324,563,2.0,2-5,other
7004,86,86,318,422,3.0,2-4,major
7005,84,33,139,245,3.0,2-4,major
7006,63,51,125,272,3.0,2-4,major
7007,62,47,223,30,3.0,2-4,major
7008,87,78,481,1202,3.0,2-1,other
7009,75,60,384,65,3.0,2-1,other
7010,67,50,142,544,3.0,2-1,other
7011,87,68,500,335,3.0,2-5,other
7012,75,58,530,49,3.0,2-5,other
7013,57,25,179,1050,3.0,1-1,other
7014,57,47,242,1455,3.0,2-4,major
7015,65,51,158,3968,2.0,2-2,other
7016,62,41,136,33,2.0,2-2,other
7017,65,60,217,2122,2.0,2-2,other
7018,58,47,174,73,2.0,2-2,other
7019,60,46,112,49,2.0,2-2,other
7020,55,26,117,87,2.0,2-2,other
7021,65,65,92,1439,2.0,2-2,other
7022,58,44,144,57,2.0,2-2,other
7023,60,45,103,44,2.0,2-2,other
7024,75,67,429,212,2.0,2-2,other
7025,75,65,359,726,2.0,2-2,other
7026,74,61,495,250,2.0,2-2,other
7027,60,64,95,697,3.0,1-1,other
7028,57,41,251,108,3.0,1-1,other
7029,85,32,112,468,2.0,2-2,other
7030,60,45,188,359,2.0,2-2,other
7031,83,68,384,381,2.0,2-2,other
7032,84,74,263,539,2.0,2-2,other
7033,63,69,846,92,2.0,2-2,other
7034,60,38,413,93,2.0,2-2,other
7035,57,29,392,127,2.0,2-2,other
7036,82,58,381,286,2.0,2-2,other
7037,60,41,411,446,2.0,2-2,other
7038,54,30,166,1281,0.0,2-3,minor
7039,54,35,165,1668,0.0,2-3,minor
7040,81,123,481,220,0.0,2-3,minor
7041,60,60,204,489,0.0,2-3,minor
7042,81,76,403,487,8.0,2-2,other
7043,82,94,359,531,8.0,2-2,other
7044,81,70,416,492,10.0,3-4A,major
7045,80,84,224,481,10.0,3-4A,major
7046,79,46,452,419,10.0,3-4A,major
7047,55,1,427,523,10.0,3-4A,major
7048,78,43,168,49,10.0,3-4A,major
7049,80,88,560,345,10.0,3-4A,major
7050,79,72,375,944,10.0,2-4,other
7051,74,79,240,451,10.0,2-4,other
7052,58,53,261,131,10.0,2-4,other
7053,72,44,435,305,10.0,2-4,other
7054,70,68,272,519,10.0,2-4,other
7055,69,59,479,462,10.0,2-4,other
7056,62,39,155,509,10.0,2-4,other
7057,58,35,139,38,10.0,2-4,other
7058,69,73,876,362,10.0,2-4,other
7059,67,65,1067,976,10.0,2-4,other
7060,55,49,291,999,10.0,2-4,other
7061,63,60,710,30,10.0,2-4,other
7062,60,22,275,51,10.0,2-4,other
7063,63,58,517,887,10.0,2-4,other
7064,57,43,247,1061,0.0,3-11A,minor
7065,65,55,299,1423,0.0,3-11A,minor
7066,54,51,188,29,0.0,3-11A,minor
7067,60,51,215,41,0.0,3-11A,minor
7068,54,53,299,1287,0.0,3-11A,minor
7069,65,39,169,35,0.0,3-11A,minor
7070,60,44,125,57,0.0,3-11A,minor
7071,60,42,125,1529,6.0,2-1,other
7072,58,25,152,79,6.0,2-1,other
7073,62,44,354,1229,6.0,2-1,other
7074,58,46,294,52,6.0,2-1,other
7075,57,40,169,46,6.0,2-1,other
7076,55,40,145,35,6.0,2-1,other
7077,57,38,127,1467,10.0,2-4,major
7078,55,30,150,73,10.0,2-4,major
7079,57,51,120,1757,10.0,2-4,major
7080,55,39,125,57,10.0,2-4,major
7081,72,126,572,250,10.0,2-4,major
7082,69,69,137,631,10.0,2-4,major
7083,57,29,150,123,10.0,2-4,major
7084,55,23,133,101,10.0,2-4,major
7085,70,50,332,220,10.0,2-4,major
7086,74,64,215,536,10.0,4-11A,major
7087,77,73,364,340,10.0,4-11A,major
7088,81,92,236,522,10.0,4-11A,major
7089,57,57,81,98,10.0,2-4,major
7090,82,83,446,302,10.0,2-4,major
7091,83,92,291,606,10.0,2-4,major
7092,62,58,92,153,10.0,2-4,major
7093,86,122,528,258,10.0,2-4,major
7094,83,60,253,669,10.0,2-4,major
7095,84,91,544,378,10.0,2-4,major
7096,67,62,640,503,10.0,2-4,major
7097,75,59,604,531,10.0,2-4,major
7098,63,28,264,506,10.0,2-4,major
7099,74,70,1455,351,10.0,2-4,major
7100,61,38,145,652,3.0,2-4,major
7101,57,29,136,52,3.0,2-4,major
7102,75,68,318,770,3.0,2-4,major
7103,63,41,134,81,3.0,2-4,major
7104,76,65,501,340,3.0,2-4,major
7105,78,84,397,531,3.0,2-4,major
7106,66,64,90,87,3.0,2-4,major
7107,63,40,144,98,3.0,2-4,major
7108,80,68,384,250,3.0,2-4,major
7109,83,68,419,568,3.0,2-4,major
7110,57,51,136,93,6.0,2-3,other
7111,85,62,416,329,6.0,2-3,other
7112,86,102,718,514,6.0,2-3,other
7113,60,56,726,136,2.0,2-3,minor
7114,55,57,1534,63,2.0,2-3,minor
7115,87,80,378,329,2.0,2-3,minor
7116,62,48,566,508,2.0,2-3,minor
7117,88,109,667,33,2.0,2-3,minor
7118,60,16,457,38,2.0,2-3,minor
7119,89,111,539,525,2.0,2-3,minor
7120,60,47,335,560,2.0,1-1,other
7121,82,20,495,580,2.0,1-1,other
7122,62,45,209,370,2.0,1-1,other
7123,60,53,139,35,2.0,1-1,other
7124,81,69,443,207,2.0,1-1,other
7125,86,88,411,544,2.0,1-1,other
7126,60,55,438,201,10.0,2-5,other
7127,55,35,2032,71,10.0,2-5,other
7128,84,65,528,239,10.0,2-5,other
7129,60,48,158,615,10.0,2-5,other
7130,82,64,340,120,10.0,2-5,other
7131,60,41,234,601,10.0,2-5,other
7132,79,49,337,79,10.0,2-5,other
7133,74,55,473,476,10.0,2-5,other
7134,65,35,152,348,10.0,2-5,other
7135,60,37,141,79,10.0,2-5,other
7136,74,64,397,321,10.0,2-5,other
7137,74,67,928,720,10.0,2-5,other
7138,75,72,406,963,0.0,2-2,other
7139,74,50,381,476,0.0,2-2,other
7140,72,48,122,580,0.0,2-2,other
7141,74,73,408,274,0.0,2-2,other
7142,75,58,305,479,0.0,2-2,other
7143,74,85,338,152,0.0,2-2,other
7144,72,64,386,332,0.0,2-2,other
7145,74,104,444,544,0.0,2-2,other
7146,54,51,144,74,0.0,2-3,minor
7147,75,46,251,516,0.0,2-3,minor
7148,74,70,266,156,0.0,2-3,minor
7149,60,54,435,160,0.0,2-3,minor
7150,72,67,185,120,0.0,2-3,minor
7151,74,105,408,356,0.0,2-3,minor
7152,75,70,288,503,0.0,2-3,minor
7153,63,43,130,74,0.0,2-3,minor
7154,60,35,452,32,0.0,2-3,minor
7155,74,67,386,49,0.0,2-3,minor
7156,54,34,165,36,0.0,2-3,minor
7157,72,68,487,312,0.0,2-3,minor
7158,70,83,318,493,0.0,2-3,minor
7159,69,54,373,451,6.0,2-3,other
7160,72,85,360,492,6.0,2-3,other
7161,58,46,256,155,6.0,2-3,other
7162,69,66,631,226,6.0,2-3,other
7163,62,49,144,618,6.0,2-3,other
7164,58,46,133,27,6.0,2-3,other
7165,55,29,157,150,6.0,2-3,other
7166,70,76,3743,81,6.0,2-3,other
7167,67,56,683,2886,10.0,2-4,major
7168,60,45,1565,141,3.0,2-5,other
7169,67,31,155,901,3.0,2-5,other
7170,68,57,239,269,3.0,2-5,other
7171,70,62,117,275,3.0,2-5,other
7172,71,76,269,253,3.0,2-5,other
7173,72,73,338,323,3.0,2-5,other
7174,66,62,625,161,3.0,2-5,other
7175,56,48,1093,71,3.0,2-5,other
7176,62,39,802,35,3.0,2-5,other
7177,73,70,90,65,3.0,2-5,other
7178,74,80,194,231,3.0,2-5,other
7179,75,55,218,343,3.0,2-5,other
7180,76,75,247,248,3.0,2-5,other
7181,77,105,482,239,3.0,2-5,other
7182,55,46,772,346,2.0,2-2,other
7183,70,67,373,753,2.0,2-2,other
7184,67,57,256,710,2.0,2-2,other
7185,70,55,270,462,2.0,2-3,minor
7186,63,62,395,1439,2.0,2-3,minor
7187,55,40,245,74,2.0,2-3,minor
7188,60,31,234,81,2.0,2-3,minor
7189,63,53,117,2835,6.0,3-10,other
7190,54,41,221,32,6.0,3-10,other
7191,60,41,117,36,6.0,3-10,other
7192,84,66,542,301,0.0,2-4,other
7193,78,53,120,44,0.0,2-4,other
7194,62,43,144,517,0.0,2-4,other
7195,58,30,142,92,0.0,2-4,other
7196,78,50,112,446,0.0,2-4,other
7197,81,60,180,310,0.0,2-4,other
7198,62,52,123,147,0.0,2-4,other
7199,58,46,161,41,0.0,2-4,other
7200,57,24,158,158,0.0,2-4,other
7201,57,48,109,884,10.0,2-4,major
7202,63,70,1447,1227,10.0,2-4,major
7203,59,64,1099,43,10.0,2-4,major
7204,59,57,593,1355,10.0,2-5,other
7205,67,65,281,70,10.0,2-5,other
7206,68,59,378,417,10.0,2-5,other
7207,58,40,262,603,3.0,3-4A,other
7208,71,64,367,300,3.0,3-4A,other
7209,63,72,188,606,1.0,2-2,other
7210,58,44,122,33,1.0,2-2,other
7211,74,82,302,364,1.0,2-2,other
7212,75,98,291,536,1.0,2-2,other
7213,62,59,599,114,3.0,3-11B,major
7214,61,32,215,136,3.0,3-11B,major
7215,76,92,359,185,3.0,3-11B,major
7216,77,104,226,563,3.0,3-11B,major
7217,77,90,327,430,3.0,3-11B,major
7218,77,95,381,517,3.0,3-11B,major
7219,62,32,179,155,3.0,2-4,major
7220,76,67,340,332,3.0,2-4,major
7221,63,53,365,530,7.0,2-2,other
7222,62,40,202,38,7.0,2-2,other
7223,58,22,158,79,7.0,2-2,other
7224,77,93,278,299,7.0,2-2,other
7225,77,93,370,531,7.0,2-2,other
7226,57,43,163,250,3.0,2-4,major
7227,75,82,492,174,3.0,2-4,major
7228,57,6,403,370,3.0,2-4,major
7229,63,44,141,82,3.0,2-4,major
7230,72,46,628,416,3.0,2-4,major
7231,63,50,150,549,3.0,2-4,major
7232,57,25,152,142,3.0,2-4,major
7233,63,58,163,889,3.0,2-4,major
7234,57,47,144,63,3.0,2-4,major
7235,62,44,1002,1215,5.0,2-5,other
7236,55,29,531,90,5.0,2-5,other
7237,60,51,225,1513,2.0,2-3,minor
7238,72,88,338,350,2.0,2-3,minor
7239,62,54,139,615,2.0,2-3,minor
7240,63,52,416,327,2.0,2-3,minor
7241,64,70,267,535,2.0,2-3,minor
7242,60,43,131,120,2.0,2-3,minor
7243,66,53,498,343,2.0,2-3,minor
7244,68,75,274,547,2.0,2-3,minor
7245,71,52,302,476,2.0,2-3,minor
7246,56,45,177,516,1.0,3-5A,other
7247,75,67,411,457,1.0,3-5A,other
7248,62,52,106,495,1.0,3-5A,other
7249,71,41,152,44,1.0,3-5A,other
7250,72,73,387,421,1.0,3-5A,other
7251,74,93,288,509,1.0,3-5A,other
7252,75,68,381,454,1.0,3-5A,other
7253,77,87,332,501,1.0,3-5A,other
7254,63,68,329,71,1.0,3-5A,other
7255,55,32,247,133,9.0,2-3,minor
7256,81,61,424,245,9.0,2-3,minor
7257,86,81,250,590,9.0,2-3,minor
7258,60,51,362,54,9.0,2-3,minor
7259,79,60,561,367,9.0,2-3,minor
7260,63,61,87,583,9.0,2-3,minor
7261,60,44,136,70,9.0,2-3,minor
7262,58,50,1566,909,5.0,3-5B,other
7263,60,60,514,1001,5.0,3-5B,other
7264,80,79,283,1158,10.0,2-5,other
7265,86,97,318,384,10.0,2-5,other
7266,54,60,501,179,10.0,2-5,other
7267,58,51,398,68,10.0,2-5,other
7268,60,47,114,33,10.0,2-5,other
7269,79,92,672,147,10.0,2-5,other
7270,78,90,381,726,10.0,2-5,other
7271,58,43,145,46,10.0,2-5,other
7272,62,28,136,55,10.0,2-5,other
7273,85,94,389,362,10.0,2-5,other
7274,77,67,452,432,10.0,2-5,other
7275,58,60,327,87,10.0,2-5,other
7276,62,30,166,90,10.0,2-5,other
7277,76,75,312,373,10.0,2-5,other
7278,58,43,136,505,0.0,2-1,other
7279,75,76,315,863,10.0,2-4,major
7280,83,72,188,484,10.0,2-4,major
7281,74,80,484,362,10.0,2-4,major
7282,73,77,406,516,10.0,2-4,major
7283,81,88,261,517,10.0,2-4,major
7284,72,83,501,408,10.0,2-4,major
7285,58,38,138,520,10.0,2-4,major
7286,71,74,258,46,10.0,2-4,major
7287,79,63,204,441,10.0,2-4,major
7288,77,69,90,27,10.0,2-4,major
7289,70,46,220,231,10.0,2-4,major
7290,70,69,449,389,10.0,2-4,major
7291,69,67,443,601,10.0,2-4,major
7292,62,51,182,2709,3.0,2-4,major
7293,58,29,136,123,3.0,2-4,major
7294,63,67,489,2682,3.0,3-11B,major
7295,57,65,436,1098,3.0,2-4,major
7296,65,75,895,1445,3.0,2-4,major
7297,55,51,715,98,2.0,2-2,other
7298,62,35,176,816,2.0,2-2,other
7299,81,72,92,446,0.0,1-1,other
7300,84,102,335,285,0.0,1-1,other
7301,72,80,323,36,0.0,1-1,other
7302,65,58,114,321,0.0,1-1,other
7303,62,54,367,46,0.0,1-1,other
7304,60,40,256,95,0.0,1-1,other
7305,81,92,231,207,0.0,1-1,other
7306,69,44,122,98,0.0,1-1,other
7307,77,57,95,348,0.0,1-1,other
7308,81,93,321,231,0.0,1-1,other
7309,60,40,130,139,2.0,3-11A,minor
7310,65,35,144,680,7.0,2-2,other
7311,55,32,185,51,7.0,2-2,other
7312,60,30,183,30,7.0,2-2,other
7313,74,51,98,169,7.0,2-2,other
7314,77,92,536,250,7.0,2-2,other
7315,65,81,406,57,7.0,2-2,other
7316,60,58,508,213,7.0,2-2,other
7317,60,43,199,1074,2.0,2-3,minor
7318,55,43,147,1066,5.0,2-5,other
7319,60,21,1237,1208,9.0,2-6,other
7320,55,39,737,117,9.0,2-6,other
7321,57,32,498,68,9.0,2-6,other
7322,63,66,98,1308,9.0,2-6,other
7323,60,60,525,30,9.0,2-6,other
7324,68,97,422,424,9.0,2-6,other
7325,69,79,365,547,9.0,2-6,other
7326,60,55,155,46,9.0,2-6,other
7327,68,64,384,427,9.0,2-6,other
7328,66,76,395,446,9.0,2-6,other
7329,60,54,98,30,9.0,2-6,other
7330,58,48,96,30,9.0,2-6,other
7331,55,41,122,134,9.0,2-6,other
7332,65,56,359,288,9.0,2-6,other
7333,62,50,346,1028,1.0,2-2,other
7334,60,85,353,403,1.0,2-2,other
7335,58,57,479,383,2.0,2-1,other
7336,50,43,400,522,2.0,2-1,other
7337,49,42,114,55,2.0,2-1,other
7338,60,83,490,386,9.0,2-3,minor
7339,58,72,478,966,2.0,2-5,other
7340,50,46,327,557,2.0,2-5,other
7341,54,60,128,79,2.0,2-5,other
7342,57,59,536,316,2.0,2-5,other
7343,50,46,248,473,2.0,2-5,other
7344,54,57,147,166,2.0,2-5,other
7345,55,67,672,351,2.0,2-5,other
7346,50,78,481,846,2.0,2-5,other
7347,43,60,288,1148,2.0,2-5,other
7348,50,38,125,149,2.0,2-5,other
7349,63,67,175,3620,7.0,2-5,other
7350,57,37,182,142,7.0,2-5,other
7351,63,72,106,1382,7.0,2-5,other
7352,69,120,528,391,9.0,2-3,minor
7353,68,75,286,544,9.0,2-3,minor
7354,69,87,497,406,9.0,2-3,minor
7355,68,89,188,511,9.0,2-3,minor
7356,63,67,111,71,9.0,2-3,minor
7357,60,46,411,103,9.0,2-3,minor
7358,66,84,547,261,9.0,2-3,minor
7359,60,44,128,533,9.0,2-3,minor
7360,66,99,555,392,9.0,2-3,minor
7361,66,97,362,1017,5.0,2-5,other
7362,65,77,267,555,5.0,2-5,other
7363,63,71,639,427,10.0,2-4,major
7364,62,59,101,416,10.0,2-4,major
7365,58,55,163,28,10.0,2-4,major
7366,62,98,422,530,10.0,2-4,major
7367,58,56,220,566,10.0,2-4,major
7368,62,82,503,239,10.0,2-4,major
7369,61,64,218,560,10.0,2-4,major
7370,58,36,139,125,10.0,2-4,major
7371,62,74,416,313,10.0,2-4,major
7372,60,65,399,561,10.0,2-4,major
7373,58,44,108,68,10.0,2-4,major
7374,58,55,585,367,10.0,2-4,major
7375,58,83,511,1017,10.0,2-4,major
7376,50,39,348,615,10.0,2-4,major
7377,57,93,429,302,10.0,2-4,major
7378,58,71,346,576,10.0,2-4,major
7379,50,36,155,90,10.0,2-4,major
7380,57,58,427,356,10.0,2-4,major
7381,55,65,294,544,10.0,2-4,major
7382,50,61,90,68,10.0,2-4,major
7383,54,55,481,349,10.0,2-4,major
7384,48,68,468,987,10.0,2-4,major
7385,48,72,198,1412,10.0,2-4,major
7386,77,125,530,457,10.0,2-4,major
7387,76,58,160,609,10.0,2-4,major
7388,57,71,2399,998,3.0,3-4A,major
7389,63,60,318,1023,3.0,3-4A,major
7390,63,46,133,827,7.0,2-2,other
7391,75,80,304,41,7.0,2-2,other
7392,77,87,397,435,7.0,2-2,other
7393,62,41,174,604,3.0,2-4,major
7394,57,40,218,100,3.0,2-4,major
7395,74,71,568,275,3.0,2-4,major
7396,72,86,264,517,3.0,2-4,major
7397,65,48,123,138,3.0,2-4,major
7398,74,113,664,419,2.0,2-2,other
7399,65,49,115,563,2.0,2-2,other
7400,62,39,147,82,2.0,2-2,other
7401,60,44,169,30,2.0,2-2,other
7402,72,65,478,90,2.0,2-2,other
7403,69,77,656,617,2.0,2-2,other
7404,65,73,340,808,2.0,2-2,other
7405,62,61,631,462,2.0,2-2,other
7406,58,33,362,751,2.0,2-2,other
7407,55,34,161,84,2.0,2-2,other
7408,65,62,255,1660,2.0,2-2,other
7409,58,46,406,40,2.0,2-2,other
7410,60,50,125,28,2.0,2-2,other
7411,55,27,141,98,2.0,2-2,other
7412,63,64,362,2162,2.0,2-2,other
7413,60,34,218,125,2.0,2-2,other
7414,57,29,157,131,2.0,2-2,other
7415,55,40,126,1226,2.0,2-2,other
7416,55,62,90,351,2.0,2-2,other
7417,60,66,269,283,2.0,2-2,other
7418,63,70,84,365,2.0,2-2,other
7419,67,102,291,312,2.0,2-2,other
7420,72,120,247,640,2.0,2-2,other
7421,75,118,394,424,2.0,2-2,other
7422,73,68,92,68,2.0,2-2,other
7423,77,125,327,500,2.0,2-2,other
7424,65,72,299,41,2.0,2-2,other
7425,54,51,441,35,2.0,2-2,other
7426,74,83,419,335,0.0,2-2,other
7427,77,41,125,161,0.0,2-2,other
7428,72,90,288,421,0.0,2-2,other
7429,58,40,166,131,5.0,2-5,other
7430,54,37,213,837,10.0,2-5,other
7431,58,39,489,39,10.0,2-5,other
7432,69,69,675,293,10.0,2-5,other
7433,74,75,712,1037,10.0,2-4,major
7434,69,61,188,565,9.0,2-2,other
7435,70,73,515,378,9.0,2-2,other
7436,74,42,329,128,9.0,2-2,other
7437,68,47,862,1589,4.0,2-6,other
7438,73,61,715,226,4.0,2-6,other
7439,61,47,680,57,4.0,2-6,other
7440,70,49,321,70,4.0,2-6,other
7441,60,64,664,827,5.0,3-11A,other
7442,58,62,669,634,5.0,3-11A,other
7443,60,51,202,356,5.0,3-11A,other
7444,62,47,530,1649,8.0,2-2,other
7445,77,70,667,198,11.0,3-11A,minor
7446,62,26,1218,898,11.0,3-11A,minor
7447,70,67,1710,1567,7.0,2-3,minor
7448,67,46,1425,43,7.0,2-3,minor
7449,60,49,1135,65,7.0,3-7B,other
7450,63,64,332,2182,7.0,3-7B,other
7451,55,48,150,46,7.0,3-7B,other
7452,57,49,115,2676,6.0,2-6,other
7453,85,91,569,272,0.0,2-5,other
7454,62,44,210,2519,10.0,2-1,other
7455,63,80,275,1270,10.0,2-1,other
7456,53,59,245,33,10.0,2-1,other
7457,59,56,100,44,10.0,2-1,other
7458,63,87,264,1422,10.0,2-1,other
7459,90,73,462,1295,3.0,3-4A,other
7460,78,97,465,57,3.0,3-4A,other
7461,79,73,250,487,3.0,3-4A,other
7462,91,64,305,299,3.0,3-4A,other
7463,79,64,400,242,3.0,3-4A,other
7464,91,67,272,411,3.0,3-4A,other
7465,62,44,117,196,3.0,2-4,major
7466,79,46,98,130,3.0,2-4,major
7467,89,88,416,232,3.0,2-4,major
7468,77,46,384,149,3.0,2-4,major
7469,62,44,255,596,3.0,2-4,major
7470,87,83,607,152,3.0,2-4,major
7471,75,75,639,41,3.0,2-4,major
7472,63,47,242,653,3.0,2-4,major
7473,62,43,160,27,3.0,2-4,major
7474,86,57,321,245,3.0,2-4,major
7475,74,68,381,38,3.0,2-4,major
7476,67,58,139,636,3.0,1-1,other
7477,58,47,253,60,3.0,1-1,other
7478,63,44,150,41,3.0,1-1,other
7479,84,64,2926,683,3.0,1-1,other
7480,72,64,2269,62,3.0,1-1,other
7481,57,36,141,164,3.0,2-4,major
7482,65,58,1153,4044,1.0,2-2,other
7483,62,61,1324,44,1.0,2-2,other
7484,55,44,1134,98,0.0,2-4,major
7485,65,64,139,1563,2.0,2-1,other
7486,83,72,394,542,0.0,2-5,other
7487,62,50,285,487,0.0,2-5,other
7488,80,78,324,32,0.0,2-5,other
7489,74,72,89,950,0.0,2-5,other
7490,62,38,152,43,0.0,2-5,other
7491,60,40,153,27,0.0,2-5,other
7492,84,107,410,297,0.0,2-5,other
7493,81,84,338,546,0.0,2-5,other
7494,82,84,343,460,0.0,2-5,other
7495,81,68,359,449,0.0,2-5,other
7496,60,50,133,98,0.0,2-5,other
7497,79,50,389,332,0.0,2-5,other
7498,77,81,226,470,0.0,2-5,other
7499,60,67,248,98,0.0,2-5,other
7500,75,44,481,327,0.0,2-5,other
7501,74,87,220,582,0.0,2-5,other
7502,75,97,484,408,0.0,2-5,other
7503,63,44,617,144,0.0,2-5,other
7504,60,1,576,332,0.0,2-5,other
7505,79,91,446,119,0.0,2-5,other
7506,78,76,536,463,0.0,2-5,other
7507,73,81,384,454,0.0,2-5,other
7508,60,45,296,109,0.0,2-5,other
7509,72,56,413,313,0.0,2-5,other
7510,71,61,92,533,0.0,2-5,other
7511,77,97,381,288,0.0,2-5,other
7512,71,46,302,460,0.0,2-5,other
7513,60,36,429,166,0.0,2-5,other
7514,76,83,364,253,0.0,2-5,other
7515,77,65,278,43,0.0,2-5,other
7516,75,83,515,492,0.0,2-5,other
7517,60,48,356,161,0.0,2-5,other
7518,54,43,160,49,0.0,2-5,other
7519,70,59,528,179,0.0,2-5,other
7520,69,60,243,514,0.0,2-5,other
7521,74,89,620,403,6.0,2-6,other
7522,69,35,201,680,6.0,2-6,other
7523,54,43,539,163,6.0,2-6,other
7524,72,76,650,185,6.0,2-6,other
7525,70,80,318,596,6.0,2-6,other
7526,57,39,266,177,6.0,2-6,other
7527,62,21,250,73,6.0,2-6,other
7528,66,62,411,171,6.0,2-6,other
7529,69,79,367,534,6.0,2-6,other
7530,66,39,193,514,6.0,2-6,other
7531,58,53,142,538,7.0,2-5,other
7532,62,52,348,365,7.0,2-5,other
7533,60,79,435,511,7.0,2-5,other
7534,50,35,125,114,7.0,2-5,other
7535,49,29,128,68,7.0,2-5,other
7536,58,73,501,215,7.0,2-5,other
7537,49,29,117,1638,0.0,2-5,other
7538,48,48,729,46,0.0,2-5,other
7539,58,59,454,250,0.0,2-5,other
7540,61,53,198,664,1.0,2-6,other
7541,48,49,264,933,0.0,2-5,other
7542,58,72,384,285,0.0,2-5,other
7543,59,53,286,1961,0.0,2-5,other
7544,55,21,285,1630,2.0,2-3,minor
7545,63,51,443,253,2.0,2-3,minor
7546,60,70,299,30,2.0,2-3,minor
7547,41,62,136,652,2.0,2-3,minor
7548,48,49,580,827,2.0,2-3,minor
7549,63,58,460,397,2.0,2-3,minor
7550,61,68,283,629,9.0,2-4,major
7551,41,44,204,81,5.0,2-2,other
7552,57,64,389,517,5.0,2-4,other
7553,51,55,106,321,5.0,2-4,other
7554,48,48,177,128,5.0,2-4,other
7555,65,84,299,865,9.0,2-6,other
7556,46,62,419,46,9.0,2-6,other
7557,53,39,299,104,3.0,2-1,other
7558,57,56,373,500,2.0,2-3,minor
7559,46,50,897,158,2.0,2-3,minor
7560,53,40,1744,152,2.0,2-3,minor
7561,62,70,424,359,2.0,2-3,minor
7562,65,58,319,677,10.0,2-1,other
7563,57,76,830,841,2.0,2-5,other
7564,65,67,359,413,2.0,2-5,other
7565,62,45,109,101,2.0,2-5,other
7566,58,6,459,528,5.0,2-5,other
7567,51,55,2740,51,5.0,2-5,other
7568,65,64,554,515,5.0,2-5,other
7569,72,70,392,32,5.0,2-5,other
7570,58,48,849,185,5.0,2-5,other
7571,58,38,601,1047,2.0,2-5,other
7572,70,51,111,123,7.0,2-5,other
7573,74,75,574,538,7.0,2-5,other
7574,70,74,394,691,10.0,2-4,major
7575,65,59,315,52,10.0,2-4,major
7576,63,71,1390,587,10.0,2-4,major
7577,72,43,362,653,5.0,2-5,other
7578,72,67,280,620,5.0,2-5,other
7579,65,70,473,1143,0.0,1-1,other
7580,77,52,169,103,9.0,3-3B,other
7581,72,35,128,745,1.0,2-6,other
7582,84,93,414,563,1.0,2-6,other
7583,60,66,361,738,5.0,2-5,other
7584,60,62,251,641,5.0,2-5,other
7585,82,43,179,1374,0.0,2-2,other
7586,54,68,525,549,0.0,2-2,other
7587,57,76,746,759,10.0,3-11B,major
7588,91,68,233,3009,10.0,4-20,major
7589,62,57,1037,992,5.0,2-4,major
7590,57,40,666,1736,10.0,2-4,major
7591,53,40,626,51,10.0,2-4,major
7592,55,41,672,2119,0.0,2-3,minor
7593,57,27,680,155,0.0,2-3,minor
7594,63,64,87,1349,0.0,2-3,minor
7595,60,38,166,115,0.0,2-3,minor
7596,86,75,179,193,0.0,2-3,minor
7597,87,64,297,228,0.0,2-3,minor
7598,86,62,198,210,0.0,2-3,minor
7599,84,50,136,245,0.0,2-3,minor
7600,86,76,270,282,0.0,2-3,minor
7601,87,72,237,272,0.0,2-3,minor
7602,86,52,95,297,0.0,2-3,minor
7603,84,68,196,160,0.0,2-3,minor
7604,63,60,1017,411,2.0,3-8A,major
7605,87,57,397,1251,2.0,3-8A,major
7606,86,89,408,191,2.0,3-8A,major
7607,84,56,343,465,6.0,2-6,other
7608,82,79,258,522,6.0,2-6,other
7609,60,51,106,136,6.0,2-3,other
7610,81,48,343,408,6.0,2-3,other
7611,84,97,342,422,6.0,2-3,other
7612,55,29,160,272,10.0,3-4A,major
7613,82,70,509,179,10.0,3-4A,major
7614,58,33,128,536,10.0,3-4A,major
7615,78,70,272,35,10.0,3-4A,major
7616,57,27,152,44,10.0,3-4A,major
7617,81,85,471,329,10.0,3-4A,major
7618,78,56,109,568,10.0,3-4A,major
7619,58,29,123,90,10.0,3-4A,major
7620,57,24,149,112,10.0,3-4A,major
7621,79,66,503,147,10.0,3-4A,major
7622,57,33,158,1876,10.0,2-4,major
7623,57,63,114,1524,10.0,2-4,major
7624,55,46,117,51,10.0,2-4,major
7625,84,33,163,2103,7.0,3-11A,minor
7626,74,76,316,397,7.0,3-11A,minor
7627,86,60,277,294,3.0,3-4A,major
7628,74,40,125,343,7.0,2-3,minor
7629,58,35,144,46,7.0,2-3,minor
7630,87,62,87,3171,5.0,3-11B,major
7631,79,68,89,36,5.0,3-11B,major
7632,84,62,98,707,8.0,2-6,other
7633,81,66,120,356,9.0,3-8B,other
7634,84,80,814,427,9.0,3-8B,other
7635,78,54,106,106,9.0,2-1,other
7636,81,41,142,536,9.0,2-1,other
7637,81,86,468,990,9.0,2-1,other
7638,55,48,402,724,5.0,2-5,other
7639,60,58,1033,786,2.0,2-5,other
7640,65,65,242,1444,2.0,2-5,other
7641,60,57,130,74,7.0,2-5,other
7642,60,68,281,1846,7.0,2-3,minor
7643,86,85,85,740,0.0,2-2,other
7644,58,57,854,2728,3.0,3-11B,major
7645,57,59,740,41,3.0,3-11B,major
7646,100,34,234,74,3.0,3-11B,major
7647,94,28,465,100,3.0,3-11B,major
7648,55,67,280,1684,9.0,3-2A,minor
7649,58,39,367,82,9.0,3-2A,minor
7650,86,58,248,568,3.0,2-1,other
7651,57,32,142,133,9.0,2-2,other
7652,84,70,520,582,0.0,3-11B,other
7653,54,66,555,33,0.0,3-11B,other
7654,95,29,267,117,0.0,3-11B,other
7655,94,80,291,699,0.0,3-11B,other
7656,87,29,389,544,6.0,3-10,minor
7657,90,37,362,109,6.0,3-10,minor
7658,54,48,544,598,6.0,3-10,minor
7659,79,79,324,144,3.0,2-4,major
7660,54,57,365,631,6.0,2-3,other
7661,78,50,117,55,6.0,2-3,other
7662,91,67,1807,1150,10.0,3-6,major
7663,62,68,1172,36,10.0,3-6,major
7664,52,44,900,1994,3.0,2-5,other
7665,60,48,2002,1784,3.0,2-5,other
7666,65,58,212,106,3.0,2-5,other
7667,67,60,343,247,3.0,2-5,other
7668,68,78,378,218,3.0,2-5,other
7669,70,70,356,297,3.0,2-5,other
7670,67,50,323,291,3.0,2-5,other
7671,68,69,305,334,3.0,2-5,other
7672,69,76,234,373,3.0,2-5,other
7673,70,67,266,310,3.0,2-5,other
7674,71,45,220,367,3.0,2-5,other
7675,72,37,421,74,3.0,2-5,other
7676,62,50,337,250,7.0,2-1,other
7677,73,76,190,114,7.0,2-1,other
7678,74,31,278,318,7.0,2-1,other
7679,75,62,264,82,7.0,2-1,other
7680,76,51,326,299,7.0,2-1,other
7681,74,26,125,49,7.0,2-1,other
7682,77,95,506,160,7.0,2-1,other
7683,55,47,2603,283,2.0,2-3,minor
7684,60,52,1064,49,2.0,2-3,minor
7685,74,68,323,74,2.0,2-3,minor
7686,77,74,327,508,2.0,2-3,minor
7687,70,84,448,58,2.0,2-3,minor
7688,67,67,215,557,2.0,2-3,minor
7689,62,41,182,199,2.0,2-3,minor
7690,70,81,1020,264,2.0,2-3,minor
7691,62,41,444,146,2.0,2-3,minor
7692,67,61,574,680,2.0,2-3,minor
7693,63,51,900,659,2.0,2-3,minor
7694,69,78,398,40,2.0,2-3,minor
7695,57,39,659,147,0.0,2-5,other
7696,60,34,163,729,0.0,2-5,other
7697,70,86,397,47,0.0,2-5,other
7698,69,58,408,489,0.0,2-5,other
7699,67,73,242,520,0.0,2-5,other
7700,49,41,264,198,0.0,2-5,other
7701,50,53,2774,41,0.0,2-5,other
7702,65,32,493,231,0.0,2-5,other
7703,63,54,732,797,0.0,2-5,other
7704,43,51,1820,944,0.0,2-5,other
7705,62,60,419,101,0.0,2-5,other
7706,60,70,457,930,0.0,2-5,other
7707,50,40,138,528,0.0,2-5,other
7708,58,62,927,424,0.0,2-5,other
7709,57,65,1042,914,0.0,2-5,other
7710,38,47,797,32,0.0,2-5,other
7711,55,68,331,1622,7.0,2-1,other
7712,56,70,541,424,7.0,2-1,other
7713,58,93,383,539,7.0,2-1,other
7714,59,76,378,435,7.0,2-1,other
7715,60,85,346,481,7.0,2-1,other
7716,61,67,452,408,7.0,2-1,other
7717,62,73,245,492,7.0,2-1,other
7718,65,60,498,457,7.0,2-1,other
7719,72,38,424,3728,0.0,4-18B,minor
7720,57,38,269,33,0.0,4-18B,minor
7721,50,63,676,1554,5.0,3-9,other
7722,61,59,71,524,5.0,3-9,other
7723,67,72,245,44,5.0,3-9,other
7724,69,56,176,664,2.0,2-2,other
7725,53,58,114,27,2.0,2-2,other
7726,65,42,85,37,2.0,2-2,other
7727,57,66,196,734,2.0,3-7A,minor
7728,69,43,90,52,2.0,3-7A,minor
7729,60,66,231,524,2.0,3-7A,minor
7730,70,58,202,63,7.0,3-7B,other
7731,70,45,562,3415,7.0,4-26,minor
7732,65,42,533,79,3.0,3-4B,other
7733,55,56,112,2120,10.0,3-11B,major
7734,63,30,127,85,10.0,3-11B,major
7735,71,33,100,1870,5.0,5-30B,other
7736,69,55,1117,1776,5.0,2-4,other
7737,55,56,720,27,5.0,2-4,other
7738,68,43,597,1747,5.0,2-4,other
7739,50,51,362,1889,2.0,2-4,major
7740,57,47,339,29,2.0,2-4,major
7741,52,62,412,678,6.0,3-7A,minor
7742,54,54,441,337,6.0,3-7A,minor
7743,62,61,1061,732,9.0,4-4A,major
7744,66,48,642,1311,10.0,2-4,other
7745,62,36,270,48,10.0,2-4,other
7746,58,56,62,570,10.0,2-4,other
7747,77,72,243,1832,10.0,1-1,other
7748,81,75,605,443,10.0,2-4,major
7749,67,42,91,930,7.0,2-3,minor
7750,57,46,73,1870,2.0,2-5,other
7751,82,76,154,476,2.0,2-5,other
7752,70,41,89,50,2.0,2-5,other
7753,62,50,358,516,3.0,1-1,other
7754,63,44,383,31,3.0,1-1,other
7755,62,38,210,755,3.0,2-4,major
7756,58,31,153,36,3.0,2-4,major
7757,87,57,226,599,3.0,2-4,major
7758,58,39,139,87,3.0,3-4A,major
7759,87,58,287,545,3.0,3-4A,major
7760,58,51,335,634,3.0,1-1,other
7761,67,31,135,48,3.0,1-1,other
7762,57,41,526,722,3.0,4-7,major
7763,60,31,166,2336,2.0,4-23,minor
7764,65,52,69,711,2.0,4-26,minor
7765,57,63,174,826,2.0,3-7A,minor
7766,69,35,109,45,2.0,3-7A,minor
7767,67,40,119,693,0.0,2-2,other
7768,69,38,129,707,7.0,2-5,other
7769,68,55,424,3441,2.0,3-11A,minor
7770,56,45,684,37,2.0,3-11A,minor
7771,58,30,287,33,2.0,3-11A,minor
7772,55,44,913,691,7.0,3-11A,minor
7773,69,46,310,4393,3.0,3-4A,major
7774,66,60,1693,1379,0.0,2-3,minor
7775,63,54,1490,39,0.0,2-3,minor
7776,63,37,312,3118,2.0,2-5,other
7777,66,26,187,127,0.0,1-1,other
7778,54,43,341,1479,7.0,2-3,minor
7779,69,68,393,393,7.0,2-3,minor
7780,57,58,495,29,7.0,2-3,minor
7781,62,43,289,61,7.0,2-3,minor
7782,54,44,198,559,7.0,2-3,minor
7783,50,42,1741,1254,10.0,2-4,major
7784,74,66,280,6293,9.0,1-1,other
7785,81,70,2812,624,9.0,1-1,other
7786,79,60,133,4850,5.0,3-5B,other
7787,81,98,204,337,5.0,3-5B,other
7788,82,81,261,349,5.0,3-5B,other
7789,58,35,6123,61,5.0,3-5B,other
7790,81,57,102,310,7.0,3-9,other
7791,82,84,239,268,7.0,3-9,other
7792,81,50,147,404,7.0,3-9,other
7793,79,56,129,1649,7.0,3-9,other
7794,74,45,420,1007,7.0,3-9,other
7795,70,45,248,640,7.0,3-9,other
7796,67,39,393,402,7.0,3-9,other
7797,70,89,572,1529,7.0,3-9,other
7798,69,61,179,678,7.0,3-9,other
7799,70,70,237,330,7.0,3-9,other
7800,67,54,1018,445,0.0,2-3,minor
7801,48,56,113,2463,0.0,2-2,other
7802,57,38,641,1383,2.0,3-3A,major
7803,65,60,254,3264,3.0,2-5,other
7804,60,49,535,35,3.0,2-5,other
7805,58,48,753,726,2.0,3-11A,minor
7806,69,66,599,2209,2.0,3-11A,minor
7807,65,68,528,63,2.0,3-11A,minor
7808,57,46,122,54,2.0,3-11A,minor
7809,62,30,408,41,2.0,3-11A,minor
7810,60,28,428,144,2.0,3-11A,minor
7811,55,23,422,1125,10.0,2-4,major
7812,73,59,121,2417,1.0,1-1,other
7813,62,57,105,608,1.0,1-1,other
7814,57,50,320,3392,9.0,2-3,minor
7815,60,34,284,666,5.0,3-6,major
7816,72,52,1015,605,5.0,2-4,major
7817,54,50,915,64,0.0,2-4,major
7818,58,47,1157,3742,2.0,4-22B,minor
7819,73,61,206,3172,8.0,2-2,other
7820,56,50,816,653,4.0,2-4,major
7821,67,57,433,69,0.0,3-7A,minor
7822,60,36,487,27,0.0,3-7A,minor
7823,69,47,244,5778,0.0,4-14A,minor
7824,63,49,225,545,0.0,4-14A,minor
7825,70,47,233,58,0.0,4-14A,minor
7826,50,37,1423,870,6.0,2-6,other
7827,62,51,242,3032,7.0,2-5,other
7828,67,57,666,1011,7.0,2-5,other
7829,43,49,414,34,7.0,2-5,other
7830,89,45,206,4933,0.0,4-11A,other
7831,77,36,133,48,0.0,4-11A,other
7832,94,63,214,1219,8.0,1-1,other
7833,82,39,88,58,8.0,1-1,other
7834,96,56,196,539,8.0,1-1,other
7835,84,37,104,54,8.0,1-1,other
7836,31,52,538,660,7.0,2-5,other
7837,65,57,909,2177,7.0,2-5,other
7838,60,43,665,82,10.0,4-11A,major
7839,72,54,225,2518,0.0,4-11A,other
7840,72,56,156,857,0.0,4-11A,other
7841,72,56,264,755,0.0,4-11A,other
7842,72,50,634,720,0.0,4-11A,other
7843,70,48,1075,886,0.0,4-11A,other
7844,43,38,630,38,0.0,4-11A,other
7845,31,36,493,31,0.0,4-11A,other
7846,58,42,100,2833,2.0,4-26,minor
7847,31,37,711,4792,7.0,2-1,other
7848,58,35,3900,3384,3.0,2-5,other
7849,60,24,846,0,5.0,2-4,major
7850,65,24,3095,635,5.0,2-4,major
7851,60,32,893,588,5.0,2-4,major
7852,67,55,920,654,5.0,2-4,major
7853,60,32,365,495,5.0,2-4,major
7854,69,70,485,457,5.0,2-4,major
7855,60,36,605,429,5.0,2-4,major
7856,82,78,4225,548,5.0,2-4,major
7857,53,38,4289,37,5.0,2-4,major
7858,62,29,474,596,5.0,2-4,major
7859,70,45,841,546,5.0,2-4,major
7860,62,30,1150,565,5.0,2-4,major
7861,70,31,806,615,5.0,2-4,major
7862,62,24,1181,720,2.0,2-5,other
7863,70,35,1019,667,2.0,2-5,other
7864,67,24,886,26,2.0,2-5,other
7865,57,41,439,2688,0.0,2-4,major
7866,58,52,2409,457,0.0,2-4,major
7867,60,48,2167,365,0.0,2-4,major
7868,64,51,678,366,0.0,2-4,major
7869,67,47,578,400,0.0,2-4,major
7870,70,39,413,492,0.0,2-4,major
7871,67,37,471,444,0.0,2-4,major
7872,60,29,727,933,5.0,2-4,major
7873,81,44,270,551,5.0,2-4,major
7874,86,66,326,1405,2.0,2-2,other
7875,65,30,965,41,2.0,2-2,other
7876,60,27,1550,428,2.0,2-2,other
7877,84,55,370,26,2.0,2-2,other
7878,81,64,487,452,2.0,2-2,other
7879,57,39,864,1788,5.0,1-1,other
7880,62,33,521,532,5.0,1-1,other
7881,57,37,706,515,5.0,1-1,other
7882,57,36,557,1193,2.0,3-11A,minor
7883,62,47,498,556,2.0,3-11A,minor
7884,64,65,267,571,2.0,3-11A,minor
7885,57,33,700,41,2.0,3-11A,minor
7886,65,80,315,270,2.0,3-11A,minor
7887,55,41,3878,896,7.0,2-2,other
7888,59,47,551,463,7.0,2-2,other
7889,62,32,508,505,7.0,2-2,other
7890,71,25,640,590,11.0,2-2,other
7891,62,17,1959,560,11.0,2-2,other
7892,67,26,400,592,7.0,2-4,major
7893,53,16,358,641,7.0,2-4,major
7894,86,64,321,392,7.0,2-4,major
7895,60,25,538,928,0.0,2-4,major
7896,67,40,671,495,0.0,2-4,major
7897,60,26,182,559,0.0,2-4,major
7898,60,71,307,1283,0.0,2-4,major
7899,64,77,302,1116,4.0,2-2,other
7900,53,48,2870,1007,5.0,2-1,other
7901,57,59,478,457,5.0,2-1,other
7902,60,29,1660,1493,5.0,2-4,major
7903,65,40,1780,544,5.0,2-4,major
7904,57,25,395,82,5.0,2-4,major
7905,52,26,323,459,5.0,2-4,major
7906,57,34,796,1142,2.0,2-3,minor
7907,65,35,682,549,2.0,2-3,minor
7908,57,37,1100,643,2.0,2-5,other
7909,50,32,585,1383,5.0,3-11B,major
7910,52,41,414,555,1.0,3-10,other
7911,69,68,213,427,1.0,3-10,other
7912,55,32,446,497,11.0,2-3,minor
7913,43,31,489,450,11.0,2-3,minor
7914,50,25,55,532,11.0,2-3,minor
7915,65,17,230,570,9.0,3-9,other
7916,55,19,1111,1110,7.0,4-27B,major
7917,62,24,370,579,7.0,4-27B,major
7918,74,46,630,536,7.0,4-27B,major
7919,55,18,537,1252,0.0,2-4,major
7920,64,55,767,399,0.0,2-4,major
7921,55,24,419,362,0.0,2-4,major
7922,67,48,1938,396,0.0,2-4,major
7923,60,20,362,41,0.0,2-4,major
7924,64,43,758,645,0.0,2-4,major
7925,55,15,307,373,0.0,2-4,major
7926,60,34,279,298,0.0,2-4,major
7927,48,29,2925,32,0.0,2-4,major
7928,55,22,344,371,0.0,2-4,major
7929,55,19,354,748,0.0,2-4,major
7930,55,16,260,797,0.0,2-5,other
7931,64,33,918,413,0.0,2-5,other
7932,55,15,431,441,0.0,2-5,other
7933,69,50,1056,429,0.0,2-5,other
7934,48,32,1027,29,0.0,2-5,other
7935,54,45,618,1313,0.0,2-5,other
7936,54,35,352,992,6.0,4-28,diminished
7937,55,41,229,3155,10.0,1-1,other
7938,58,51,2482,466,10.0,1-1,other
7939,62,35,777,484,10.0,1-1,other
7940,74,57,1141,536,10.0,1-1,other
7941,67,30,443,28,10.0,1-1,other
7942,62,28,354,530,10.0,1-1,other
7943,65,34,680,621,10.0,1-1,other
7944,62,17,629,82,10.0,1-1,other
7945,58,33,869,553,10.0,1-1,other
7946,52,35,412,2062,7.0,2-3,minor
7947,55,31,418,449,7.0,2-3,minor
7948,58,39,3431,484,7.0,2-3,minor
7949,70,51,275,1823,4.0,2-3,minor
7950,64,24,433,1102,10.0,2-4,major
7951,60,29,2600,1167,9.0,2-3,minor
7952,65,33,1051,666,9.0,2-3,minor
7953,72,57,280,585,9.0,2-3,minor
7954,74,47,194,278,9.0,2-3,minor
7955,72,44,164,144,9.0,2-3,minor
7956,71,54,201,196,9.0,2-3,minor
7957,72,57,108,243,9.0,2-3,minor
7958,84,64,443,864,2.0,2-3,minor
7959,81,66,612,505,2.0,2-2,other
7960,65,32,555,44,2.0,2-2,other
7961,77,58,349,544,2.0,2-2,other
7962,60,1,355,228,2.0,2-2,other
7963,58,43,1713,1210,5.0,2-4,major
7964,62,28,558,580,5.0,2-4,major
7965,65,41,677,580,5.0,2-4,major
7966,57,52,1720,619,5.0,2-4,major
7967,79,60,162,1244,10.0,3-4B,other
7968,62,32,654,1467,10.0,2-4,major
7969,69,20,523,597,10.0,2-4,major
7970,72,52,263,2382,10.0,2-4,major
7971,74,43,197,614,7.0,1-1,other
7972,76,55,1343,754,7.0,1-1,other
7973,48,26,791,36,7.0,1-1,other
7974,55,11,956,714,7.0,1-1,other
7975,62,31,405,635,7.0,1-1,other
7976,74,58,369,870,7.0,1-1,other
7977,48,17,1196,966,0.0,3-8A,major
7978,55,31,1389,569,0.0,3-8A,major
7979,48,28,299,1265,7.0,2-3,minor
7980,69,24,1609,876,5.0,2-5,other
7981,48,34,601,609,5.0,2-5,other
7982,55,38,478,590,5.0,2-5,other
7983,57,57,484,479,5.0,2-5,other
7984,60,40,328,513,5.0,2-5,other
7985,65,46,534,543,5.0,2-5,other
7986,69,40,1020,525,5.0,2-5,other
7987,72,47,289,557,5.0,2-5,other
7988,65,43,598,679,5.0,2-5,other
7989,53,24,1147,48,5.0,2-5,other
7990,72,58,414,404,5.0,2-5,other
7991,64,60,609,383,5.0,2-5,other
7992,60,16,740,91,5.0,2-5,other
7993,72,49,553,283,5.0,2-5,other
7994,63,64,775,423,5.0,2-5,other
7995,53,29,2347,44,5.0,2-5,other
7996,60,32,625,447,5.0,2-5,other
7997,60,30,360,1008,9.0,3-10,diminished
7998,60,38,1820,589,9.0,3-10,diminished
7999,69,50,272,1917,5.0,3-8A,major
8000,74,60,6220,621,5.0,3-8A,major
8001,46,37,1003,30,5.0,3-8A,major
8002,53,36,497,487,5.0,3-8A,major
8003,62,39,846,496,5.0,3-8A,major
8004,57,35,686,48,5.0,3-8A,major
8005,58,36,1765,615,5.0,3-8A,major
8006,62,46,880,582,5.0,3-8A,major
8007,60,48,1795,567,5.0,3-8A,major
8008,62,32,606,603,5.0,3-8A,major
8009,58,37,520,614,5.0,3-8A,major
8010,62,36,141,1163,11.0,2-6,other
8011,47,53,2707,509,11.0,2-6,other
8012,56,68,728,480,11.0,2-6,other
8013,65,66,927,1800,8.0,2-6,other
8014,59,35,1387,31,8.0,2-6,other
8015,47,55,260,560,8.0,2-6,other
8016,55,48,424,1439,5.0,2-5,other
8017,56,31,498,674,5.0,3-11A,other
8018,56,37,739,635,5.0,3-11A,other
8019,56,38,366,1191,5.0,2-5,other
8020,56,55,1283,598,5.0,2-5,other
8021,65,75,483,620,5.0,2-5,other
8022,57,77,526,1234,5.0,2-4,other
8023,58,77,1046,549,5.0,2-4,other
8024,61,82,1342,544,5.0,2-4,other
8025,65,74,550,584,5.0,2-4,other
8026,58,25,302,56,5.0,2-4,other
8027,58,30,604,1901,10.0,1-1,other
8028,79,41,3900,754,10.0,1-1,other
8029,48,32,1284,50,10.0,1-1,other
8030,55,22,583,575,10.0,1-1,other
8031,67,29,2865,633,10.0,1-1,other
8032,60,26,265,49,10.0,1-1,other
8033,64,32,256,634,10.0,1-1,other
8034,64,30,311,734,10.0,1-1,other
8035,64,31,1427,688,10.0,1-1,other
8036,77,54,573,542,10.0,1-1,other
8037,76,37,223,585,10.0,1-1,other
8038,57,36,645,1353,0.0,1-1,other
8039,60,22,335,569,5.0,2-5,other
8040,57,43,373,418,5.0,2-5,other
8041,69,48,2205,419,5.0,2-5,other
8042,57,43,386,1198,5.0,3-11B,major
8043,57,49,199,642,5.0,3-11B,major
8044,58,35,725,1151,2.0,2-3,minor
8045,48,32,2780,54,2.0,2-3,minor
8046,55,27,923,650,2.0,2-3,minor
8047,58,23,622,809,2.0,2-3,minor
8048,82,63,879,989,2.0,2-3,minor
8049,74,57,745,48,2.0,2-3,minor
8050,58,25,1243,46,2.0,2-3,minor
8051,76,30,487,4155,4.0,2-3,minor
8052,70,31,455,1609,0.0,1-1,other
8053,70,43,452,1099,0.0,1-1,other
8054,48,13,440,1654,0.0,1-1,other
8055,48,33,5295,758,0.0,1-1,other
8056,56,36,4850,487,0.0,1-1,other
8057,59,38,4587,317,0.0,1-1,other
8058,62,34,210,252,0.0,1-1,other
8059,65,45,169,260,0.0,1-1,other
8060,68,52,153,247,0.0,1-1,other
8061,71,60,158,245,0.0,1-1,other
8062,72,61,255,245,0.0,1-1,other
8063,74,74,1009,335,0.0,1-1,other
8064,74,62,330,1498,0.0,1-1,other
8065,65,58,295,43,0.0,1-1,other
8066,48,39,2456,2078,5.0,2-4,major
8067,72,55,922,86,5.0,2-4,major
8068,57,47,2221,35,5.0,2-4,major
8069,60,47,1973,55,5.0,2-4,major
8070,81,71,736,30,5.0,2-4,major
8071,65,29,292,2428,9.0,2-3,minor
8072,55,24,989,1624,0.0,2-2,other
8073,67,5,315,971,10.0,3-11B,major
8074,84,60,703,3700,11.0,2-3,minor
8075,70,42,639,63,11.0,2-3,minor
8076,72,32,2083,3544,0.0,2-4,major
8077,58,34,584,40,0.0,2-4,major
8078,53,22,3319,2145,5.0,2-4,major
8079,60,24,885,574,5.0,2-4,major
8080,65,24,901,581,5.0,2-4,major
8081,60,31,3144,614,5.0,2-4,major
8082,65,32,2432,710,5.0,2-4,major
8083,81,72,519,696,5.0,2-4,major
8084,77,64,2553,1116,7.0,2-2,other
8085,74,51,1098,1107,5.0,2-2,other
8086,62,20,827,46,5.0,2-2,other
8087,70,45,645,476,5.0,2-2,other
8088,65,24,529,65,5.0,2-2,other
8089,62,24,455,503,5.0,2-2,other
8090,65,38,255,593,5.0,2-2,other
8091,62,1,249,365,5.0,2-2,other
8092,67,54,1819,212,5.0,2-2,other
8093,65,27,1316,36,5.0,2-2,other
8094,70,48,1199,580,5.0,2-2,other
8095,62,14,1075,81,5.0,2-2,other
8096,74,54,576,489,5.0,2-2,other
8097,53,24,325,30,5.0,2-2,other
8098,76,31,937,640,5.0,2-5,other
8099,60,24,605,515,5.0,2-5,other
8100,84,46,570,1615,0.0,1-1,other
8101,60,26,831,576,5.0,2-1,other
8102,60,24,892,1323,0.0,3-8A,major
8103,60,24,736,1464,5.0,3-11B,major
8104,77,32,4038,610,5.0,3-11B,major
8105,60,32,747,670,5.0,2-4,major
8106,60,27,540,1270,5.0,2-4,major
8107,60,24,915,1417,5.0,2-4,major
8108,57,46,451,491,5.0,2-4,major
8109,53,27,333,662,9.0,2-3,minor
8110,53,24,213,1400,9.0,2-3,minor
8111,53,25,454,537,9.0,2-3,minor
8112,53,26,295,866,9.0,2-3,minor
8113,62,41,366,1040,7.0,4-26,minor
8114,62,41,339,814,7.0,2-3,minor
8115,58,32,308,27,7.0,2-3,minor
8116,60,45,304,5735,4.0,3-10,diminished
8117,53,30,988,502,9.0,2-3,minor
8118,70,64,154,193,9.0,2-3,minor
8119,69,63,4381,212,9.0,2-3,minor
8120,53,24,262,1029,9.0,2-3,minor
8121,53,22,338,1080,9.0,2-3,minor
8122,57,34,247,806,9.0,2-3,minor
8123,60,18,187,35,9.0,2-3,minor
8124,53,37,962,484,9.0,2-3,minor
8125,53,28,264,1424,2.0,2-5,other
8126,62,84,278,470,2.0,2-5,other
8127,65,101,389,1196,4.0,2-2,other
8128,69,54,177,1167,7.0,4-27B,major
8129,67,54,247,147,7.0,4-27B,major
8130,66,53,89,180,7.0,4-27B,major
8131,67,65,432,220,7.0,4-27B,major
8132,74,68,3026,473,7.0,4-27B,major
8133,62,26,162,30,7.0,4-27B,major
8134,67,50,820,402,7.0,4-27B,major
8135,62,30,309,494,7.0,4-27B,major
8136,59,15,1083,46,7.0,4-27B,major
8137,53,26,294,878,7.0,4-27B,major
8138,64,46,201,965,0.0,2-4,major
8139,67,45,121,273,0.0,2-4,major
8140,72,60,165,251,0.0,2-4,major
8141,76,54,144,1386,0.0,3-11B,major
8142,79,44,108,274,0.0,3-11B,major
8143,84,89,226,711,0.0,2-5,other
8144,81,79,2120,1498,9.0,1-1,other
8145,57,35,1705,422,9.0,1-1,other
8146,77,59,480,27,9.0,1-1,other
8147,60,32,575,1020,0.0,1-1,other
8148,52,38,160,859,0.0,1-1,other
8149,50,32,3455,502,0.0,1-1,other
8150,57,20,1120,36,0.0,1-1,other
8151,53,15,3545,38,0.0,1-1,other
8152,60,31,684,384,0.0,1-1,other
8153,57,32,1393,1931,9.0,2-3,minor
8154,60,32,474,26,9.0,2-3,minor
8155,62,37,50,538,9.0,2-3,minor
8156,65,76,106,223,9.0,2-3,minor
8157,69,94,197,243,9.0,2-3,minor
8158,72,78,207,246,9.0,2-3,minor
8159,50,45,3611,43,9.0,2-3,minor
8160,71,73,2344,228,9.0,2-3,minor
8161,59,24,101,60,9.0,2-3,minor
8162,53,29,2868,405,7.0,2-4,major
8163,62,32,833,1359,7.0,2-4,major
8164,59,33,1219,466,7.0,2-4,major
8165,55,24,960,26,7.0,2-4,major
8166,65,87,246,970,7.0,2-4,major
8167,67,56,185,187,7.0,2-4,major
8168,65,46,188,130,7.0,2-4,major
8169,62,47,140,182,7.0,2-4,major
8170,64,57,2944,166,0.0,2-5,other
8171,60,49,2083,699,0.0,2-5,other
8172,48,29,262,506,4.0,2-3,minor
8173,48,35,500,1073,4.0,2-3,minor
8174,48,34,220,944,4.0,2-3,minor
8175,59,74,175,2096,6.0,3-10,diminished
8176,62,67,147,459,0.0,2-1,other
8177,63,70,142,237,9.0,2-3,minor
8178,65,75,131,220,9.0,2-3,minor
8179,66,71,250,188,9.0,2-3,minor
8180,68,70,145,199,9.0,2-3,minor
8181,69,63,133,185,6.0,2-3,minor
8182,70,65,135,169,6.0,2-3,minor
8183,71,66,117,175,6.0,2-3,minor
8184,74,47,180,192,6.0,2-3,minor
8185,70,61,441,655,0.0,3-7B,other
8186,46,36,382,939,7.0,1-1,other
8187,62,36,51,73,7.0,1-1,other
8188,55,16,255,470,10.0,1-1,other
8189,62,40,266,421,10.0,1-1,other
8190,55,20,208,27,10.0,1-1,other
8191,55,39,780,447,10.0,1-1,other
8192,46,55,229,455,10.0,1-1,other
8193,46,58,1205,473,10.0,1-1,other
8194,52,60,645,487,10.0,1-1,other
8195,57,62,198,291,10.0,1-1,other
8196,58,69,181,208,10.0,1-1,other
8197,55,40,292,123,10.0,1-1,other
8198,60,64,176,76,10.0,1-1,other
8199,61,72,189,159,10.0,1-1,other
8200,58,55,233,61,10.0,1-1,other
8201,63,65,131,111,10.0,1-1,other
8202,64,65,135,141,10.0,1-1,other
8203,60,50,180,27,10.0,1-1,other
8204,66,71,89,148,10.0,1-1,other
8205,63,35,145,47,10.0,1-1,other
8206,67,63,159,106,10.0,1-1,other
8207,64,17,205,106,10.0,1-1,other
8208,69,65,173,33,10.0,1-1,other
8209,72,67,136,301,7.0,2-3,minor
8210,68,39,248,114,7.0,2-3,minor
8211,73,63,156,26,7.0,2-3,minor
8212,75,63,133,143,7.0,2-3,minor
8213,72,27,278,83,7.0,2-3,minor
8214,76,66,156,55,7.0,2-3,minor
8215,78,63,117,173,7.0,2-3,minor
8216,79,62,184,182,7.0,2-3,minor
8217,81,65,188,161,7.0,2-3,minor
8218,82,68,152,187,7.0,2-3,minor
8219,84,69,356,191,7.0,2-3,minor
8220,81,59,443,297,7.0,2-3,minor
8221,57,33,3388,115,7.0,2-3,minor
8222,60,40,679,340,7.0,2-3,minor
8223,69,49,452,401,7.0,2-3,minor
8224,65,30,413,32,7.0,2-3,minor
8225,60,25,1691,408,7.0,2-3,minor
8226,65,31,534,503,7.0,2-3,minor
8227,72,49,148,52,7.0,2-3,minor
8228,74,58,171,131,7.0,2-3,minor
8229,72,39,187,118,7.0,2-3,minor
8230,71,67,263,163,7.0,2-3,minor
8231,72,74,136,307,7.0,2-3,minor
8232,65,37,781,43,7.0,2-3,minor
8233,84,92,335,294,7.0,2-3,minor
8234,82,64,585,1702,10.0,2-1,other
8235,62,33,414,33,10.0,2-1,other
8236,74,54,426,409,10.0,2-1,other
8237,65,33,520,30,10.0,2-1,other
8238,57,52,385,1430,10.0,2-5,other
8239,69,48,225,506,10.0,2-5,other
8240,70,42,144,528,7.0,3-11A,minor
8241,72,53,181,165,7.0,3-11A,minor
8242,70,48,175,130,7.0,3-11A,minor
8243,69,58,174,151,7.0,3-11A,minor
8244,66,57,285,251,7.0,3-11A,minor
8245,69,73,268,327,7.0,3-11A,minor
8246,62,19,148,74,7.0,3-11A,minor
8247,66,55,169,168,7.0,3-11A,minor
8248,67,71,209,215,7.0,3-11A,minor
8249,62,60,128,233,7.0,3-11A,minor
8250,65,75,206,219,7.0,3-11A,minor
8251,67,41,142,242,7.0,3-11A,minor
8252,65,56,200,67,7.0,3-11A,minor
8253,62,43,249,160,7.0,3-11A,minor
8254,63,71,159,276,7.0,3-11A,minor
8255,62,18,461,137,7.0,3-11A,minor
8256,64,53,174,95,7.0,3-11A,minor
8257,67,66,164,238,7.0,3-11A,minor
8258,70,65,184,233,7.0,3-11A,minor
8259,72,55,202,244,7.0,3-11A,minor
8260,48,38,1669,222,7.0,3-11A,minor
8261,76,68,432,43,7.0,3-11A,minor
8262,64,54,319,448,7.0,3-11A,minor
8263,67,47,197,414,7.0,3-11A,minor
8264,60,26,2285,4284,5.0,3-11B,major
8265,69,74,193,544,5.0,3-11B,major
8266,68,58,169,212,5.0,3-11B,major
8267,69,60,347,215,5.0,3-11B,major
8268,65,44,155,740,7.0,2-2,other
8269,67,61,396,215,7.0,2-2,other
8270,65,49,243,478,7.0,2-2,other
8271,53,32,845,29,7.0,2-2,other
8272,65,57,529,501,7.0,2-2,other
8273,57,50,796,1413,5.0,2-2,other
8274,41,27,802,50,5.0,2-2,other
8275,53,17,636,467,5.0,2-2,other
8276,60,33,69,406,5.0,2-2,other
8277,74,60,403,514,5.0,2-2,other
8278,60,25,1462,1503,2.0,2-3,minor
8279,65,29,87,340,2.0,2-3,minor
8280,67,41,171,183,2.0,2-3,minor
8281,69,64,107,145,2.0,2-3,minor
8282,72,73,152,150,2.0,2-3,minor
8283,69,38,123,166,2.0,2-3,minor
8284,53,25,1482,81,2.0,2-3,minor
8285,70,54,86,78,2.0,2-3,minor
8286,74,66,113,176,2.0,2-3,minor
8287,77,53,159,128,2.0,2-3,minor
8288,81,57,100,164,2.0,2-3,minor
8289,84,85,216,167,2.0,2-3,minor
8290,77,74,224,531,9.0,2-3,minor
8291,74,49,289,275,9.0,2-3,minor
8292,71,36,827,443,9.0,2-3,minor
8293,56,36,2202,1204,8.0,3-10,diminished
8294,58,48,117,424,8.0,3-10,diminished
8295,59,57,132,147,8.0,3-10,diminished
8296,60,48,147,148,8.0,3-10,diminished
8297,61,58,124,139,8.0,3-10,diminished
8298,62,58,107,152,8.0,3-10,diminished
8299,63,53,129,162,8.0,3-10,diminished
8300,64,45,130,119,8.0,3-10,diminished
8301,65,85,1439,180,8.0,3-10,diminished
8302,62,39,198,27,8.0,3-10,diminished
8303,48,24,3007,1115,8.0,3-10,diminished
8304,56,48,1586,298,8.0,3-10,diminished
8305,60,46,135,496,8.0,3-10,diminished
8306,65,66,114,258,8.0,3-10,diminished
8307,68,78,163,196,8.0,3-10,diminished
8308,72,75,217,253,8.0,3-10,diminished
8309,60,30,252,48,8.0,3-10,diminished
8310,68,48,147,180,8.0,3-10,diminished
8311,59,22,56,314,8.0,3-10,diminished
8312,56,30,320,82,8.0,3-10,diminished
8313,65,46,182,96,8.0,3-10,diminished
8314,68,68,169,249,8.0,3-10,diminished
8315,68,42,133,529,0.0,2-4,other
8316,68,40,135,474,0.0,1-1,other
8317,73,62,2643,212,0.0,1-1,other
8318,49,38,1996,389,0.0,1-1,other
8319,61,40,1301,469,0.0,1-1,other
8320,55,38,263,41,0.0,1-1,other
8321,57,62,426,454,0.0,1-1,other
8322,58,56,1121,479,0.0,1-1,other
8323,61,43,557,514,0.0,1-1,other
8324,65,46,453,448,0.0,1-1,other
8325,73,37,151,485,0.0,1-1,other
8326,52,37,3734,457,0.0,1-1,other
8327,60,37,1460,528,0.0,1-1,other
8328,91,50,56,430,0.0,1-1,other
8329,94,61,190,104,0.0,1-1,other
8330,91,47,64,156,0.0,1-1,other
8331,88,52,105,129,0.0,1-1,other
8332,87,38,91,200,0.0,1-1,other
8333,86,62,107,96,0.0,1-1,other
8334,85,32,72,138,0.0,1-1,other
8335,84,33,102,86,0.0,1-1,other
8336,83,41,64,162,0.0,1-1,other
8337,82,45,140,153,0.0,1-1,other
8338,79,40,59,129,0.0,1-1,other
8339,76,40,113,133,0.0,1-1,other
8340,75,48,86,152,0.0,1-1,other
8341,74,47,134,113,0.0,1-1,other
8342,73,44,100,139,0.0,1-1,other
8343,72,28,123,145,0.0,1-1,other
8344,71,53,139,131,0.0,1-1,other
8345,60,26,984,51,0.0,1-1,other
8346,70,39,102,112,0.0,1-1,other
8347,69,34,188,150,0.0,1-1,other
8348,67,36,206,214,0.0,1-1,other
8349,69,55,1714,243,0.0,1-1,other
8350,60,40,411,1461,0.0,1-1,other
8351,72,70,1576,473,0.0,1-1,other
8352,69,60,1044,469,0.0,1-1,other
8353,60,52,466,466,0.0,1-1,other
8354,48,57,3821,477,0.0,1-1,other
8355,55,58,308,943,8.0,2-2,other
8356,53,54,175,528,8.0,2-2,other
8357,55,59,151,243,8.0,2-2,other
8358,58,77,120,212,8.0,2-2,other
8359,60,74,133,189,8.0,2-2,other
8360,62,44,91,188,8.0,2-2,other
8361,65,62,174,174,8.0,2-2,other
8362,55,1,1845,33,8.0,2-2,other
8363,67,48,143,123,8.0,2-2,other
8364,70,56,89,140,8.0,2-2,other
8365,72,58,146,142,8.0,2-2,other
8366,74,66,102,128,8.0,2-2,other
8367,77,66,157,179,8.0,2-2,other
8368,82,68,169,270,7.0,2-3,minor
8369,86,75,413,197,7.0,2-3,minor
8370,82,67,275,364,7.0,2-3,minor
8371,48,40,171,46,7.0,2-3,minor
8372,84,66,436,261,7.0,2-3,minor
8373,48,38,877,56,7.0,2-3,minor
8374,55,35,504,382,7.0,2-3,minor
8375,64,42,288,1007,0.0,2-5,other
8376,64,40,489,1001,4.0,2-3,minor
8377,67,32,239,513,4.0,2-3,minor
8378,67,37,92,462,4.0,2-3,minor
8379,68,34,448,481,2.0,3-7A,minor
8380,56,75,3594,433,2.0,3-7A,minor
8381,59,74,208,380,2.0,3-7A,minor
8382,60,74,242,336,2.0,3-7A,minor
8383,61,75,221,280,2.0,3-7A,minor
8384,62,80,274,242,2.0,3-7A,minor
8385,64,70,200,495,3.0,2-4,other
8386,65,62,169,227,3.0,2-4,other
8387,68,64,165,247,3.0,2-4,other
8388,74,62,176,525,0.0,2-1,other
8389,77,71,213,253,0.0,2-1,other
8390,74,61,203,260,0.0,2-1,other
8391,77,61,192,307,0.0,2-1,other
8392,81,66,177,376,9.0,2-3,minor
8393,69,41,499,415,9.0,2-3,minor
8394,57,49,412,484,9.0,2-3,minor
8395,57,49,691,977,5.0,2-4,major
8396,55,19,631,1912,0.0,3-9,other
8397,55,17,529,929,2.0,2-3,minor
8398,58,17,456,576,2.0,2-2,other
8399,74,55,154,1307,4.0,2-3,minor
8400,60,33,122,1042,0.0,2-4,major
8401,60,30,417,1379,4.0,2-3,minor
8402,58,36,118,522,0.0,2-4,major
8403,53,24,2819,1401,5.0,2-5,other
8404,60,24,822,419,5.0,2-5,other
8405,65,37,809,508,5.0,2-5,other
8406,60,25,2409,517,5.0,2-5,other
8407,74,47,144,700,5.0,2-5,other
8408,72,24,205,89,5.0,2-5,other
8409,71,52,151,182,5.0,2-5,other
8410,72,54,164,225,5.0,2-5,other
8411,72,45,306,722,5.0,1-1,other
8412,62,34,3431,500,5.0,2-5,other
8413,74,53,1004,473,5.0,2-5,other
8414,65,48,975,450,5.0,2-5,other
8415,53,25,1345,466,5.0,2-5,other
8416,70,72,1529,449,5.0,2-5,other
8417,74,71,993,492,5.0,2-5,other
8418,73,34,50,39,5.0,2-5,other
8419,67,71,675,411,5.0,2-5,other
8420,53,30,301,520,5.0,2-5,other
8421,64,79,549,476,5.0,2-5,other
8422,53,39,3622,39,5.0,2-5,other
8423,60,34,754,1399,0.0,3-11B,major
8424,60,36,1721,999,0.0,3-11B,major
8425,70,60,93,529,0.0,3-11B,major
8426,72,48,205,109,0.0,3-11B,major
8427,70,37,237,120,0.0,3-11B,major
8428,69,62,302,174,0.0,3-11B,major
8429,70,73,261,364,0.0,3-11B,major
8430,60,44,1312,1158,5.0,2-5,other
8431,53,27,212,408,5.0,2-5,other
8432,53,29,1241,518,5.0,2-5,other
8433,48,37,292,446,5.0,2-5,other
8434,48,30,198,514,5.0,2-5,other
8435,69,49,289,935,5.0,2-5,other
8436,68,34,130,295,5.0,2-5,other
8437,69,40,2192,188,5.0,2-5,other
8438,65,24,1514,1052,5.0,2-5,other
8439,60,35,1109,913,5.0,2-5,other
8440,69,87,256,519,5.0,2-5,other
8441,68,69,130,231,5.0,2-5,other
8442,69,74,178,213,5.0,2-5,other
8443,70,81,163,238,5.0,2-5,other
8444,70,51,1955,703,10.0,4-22A,major
8445,58,45,279,2938,2.0,2-3,minor
8446,60,55,132,1303,0.0,3-8A,major
8447,61,64,160,157,0.0,3-8A,major
8448,63,72,87,141,0.0,3-8A,major
8449,64,74,108,133,0.0,3-8A,major
8450,66,73,85,117,0.0,3-8A,major
8451,67,66,136,149,0.0,3-8A,major
8452,60,31,2178,105,0.0,3-8A,major
8453,69,40,123,32,0.0,3-8A,major
8454,70,69,50,135,0.0,3-8A,major
8455,72,50,80,151,0.0,3-8A,major
8456,73,50,96,112,0.0,3-8A,major
8457,75,56,45,135,0.0,3-8A,major
8458,76,62,110,101,0.0,3-8A,major
8459,78,46,44,151,0.0,3-8A,major
8460,79,44,140,124,0.0,3-8A,major
8461,52,29,865,35,0.0,3-8A,major
8462,81,64,158,107,0.0,3-8A,major
8463,82,37,43,186,0.0,3-8A,major
8464,84,62,102,110,0.0,3-8A,major
8465,85,54,200,163,0.0,3-8A,major
8466,87,43,112,184,0.0,3-8A,major
8467,88,57,135,86,0.0,3-8A,major
8468,91,80,251,163,0.0,3-8A,major
8469,53,39,1295,130,0.0,3-8A,major
8470,89,60,244,45,0.0,3-8A,major
8471,88,64,197,350,0.0,3-8A,major
8472,84,58,190,370,0.0,3-8A,major
8473,60,17,921,44,0.0,3-8A,major
8474,81,49,266,219,0.0,3-8A,major
8475,77,48,2316,404,0.0,3-8A,major
8476,60,30,850,992,5.0,3-11B,major
8477,62,35,1041,1418,5.0,2-5,other
8478,70,83,317,517,5.0,2-4,major
8479,68,67,162,258,5.0,2-4,major
8480,69,46,181,236,5.0,2-4,major
8481,77,94,172,475,2.0,1-1,other
8482,77,80,165,250,2.0,1-1,other
8483,74,75,138,695,2.0,3-11A,minor
8484,69,68,178,264,2.0,3-11A,minor
8485,66,77,196,1643,11.0,2-6,other
8486,69,57,228,251,11.0,2-6,other
8487,66,67,211,236,11.0,2-6,other
8488,67,68,196,243,11.0,2-3,minor
8489,69,66,209,235,11.0,2-3,minor
8490,70,75,185,251,11.0,2-3,minor
8491,74,68,149,455,11.0,2-3,minor
8492,77,64,154,218,11.0,2-3,minor
8493,60,32,744,1512,4.0,2-2,other
8494,89,80,405,407,4.0,2-2,other
8495,88,67,257,301,4.0,2-2,other
8496,60,36,2953,239,4.0,2-2,other
8497,84,69,237,77,4.0,2-2,other
8498,79,46,198,255,4.0,2-2,other
8499,86,80,242,270,4.0,2-2,other
8500,84,68,338,280,4.0,2-2,other
8501,79,59,216,251,4.0,2-2,other
8502,76,35,233,268,4.0,2-2,other
8503,79,63,512,587,9.0,2-5,other
8504,76,66,493,256,9.0,2-5,other
8505,72,48,338,245,9.0,2-5,other
8506,52,51,3778,437,9.0,2-5,other
8507,53,35,3397,438,9.0,2-5,other
8508,57,53,2948,434,9.0,2-5,other
8509,60,54,1450,480,9.0,2-5,other
8510,64,41,243,567,9.0,2-5,other
8511,65,66,180,260,9.0,2-5,other
8512,65,101,250,384,9.0,2-5,other
8513,67,77,395,669,5.0,2-5,other
8514,65,41,60,26,5.0,2-5,other
8515,65,85,266,305,5.0,2-5,other
8516,65,76,1625,352,5.0,2-5,other
8517,50,36,3801,311,5.0,2-5,other
8518,57,26,2320,994,2.0,2-5,other
8519,62,40,313,437,2.0,2-5,other
8520,65,37,77,444,2.0,2-5,other
8521,67,59,162,70,2.0,2-5,other
8522,65,61,142,116,2.0,2-5,other
8523,64,54,180,156,2.0,2-5,other
8524,65,83,199,256,2.0,2-5,other
8525,69,80,215,623,7.0,2-5,other
8526,55,18,3362,376,11.0,1-1,other
8527,59,27,795,901,11.0,1-1,other
8528,71,60,178,223,2.0,2-5,other
8529,69,55,180,147,2.0,2-5,other
8530,67,33,318,169,2.0,2-5,other
8531,62,33,304,917,11.0,2-6,other
8532,59,40,171,959,11.0,2-3,minor
8533,59,40,169,291,11.0,2-3,minor
8534,55,18,121,686,0.0,1-1,other
8535,55,18,1023,360,0.0,1-1,other
8536,63,51,164,108,0.0,1-1,other
8537,64,58,133,244,0.0,1-1,other
8538,66,46,126,229,0.0,1-1,other
8539,67,56,105,247,0.0,1-1,other
8540,60,22,70,30,0.0,1-1,other
8541,72,54,119,173,0.0,1-1,other
8542,75,72,109,240,0.0,1-1,other
8543,76,75,113,214,0.0,1-1,other
8544,77,74,91,267,0.0,1-1,other
8545,78,62,131,230,0.0,2-5,other
8546,79,74,118,258,0.0,2-5,other
8547,60,27,185,78,0.0,2-5,other
8548,76,50,163,170,0.0,2-5,other
8549,72,57,177,228,0.0,2-5,other
8550,75,73,168,502,9.0,2-3,minor
8551,72,30,159,210,9.0,2-3,minor
8552,69,59,148,227,9.0,2-3,minor
8553,57,33,872,93,9.0,2-3,minor
8554,66,23,168,142,9.0,2-3,minor
8555,63,63,159,239,9.0,2-3,minor
8556,54,32,175,53,9.0,2-3,minor
8557,62,34,174,182,9.0,2-3,minor
8558,54,40,189,257,9.0,2-3,minor
8559,57,39,378,209,9.0,2-3,minor
8560,48,46,370,1482,9.0,2-3,minor
8561,62,43,191,957,7.0,2-5,other
8562,62,32,617,505,7.0,2-5,other
8563,58,37,634,38,7.0,2-5,other
8564,69,34,155,445,7.0,2-5,other
8565,70,46,82,250,7.0,2-5,other
8566,77,70,99,471,10.0,2-4,major
8567,81,90,148,210,10.0,2-4,major
8568,57,1,699,27,10.0,2-4,major
8569,62,20,262,46,10.0,2-4,major
8570,82,75,149,166,10.0,2-4,major
8571,84,84,146,231,10.0,2-4,major
8572,62,22,350,34,10.0,2-4,major
8573,82,71,165,218,10.0,2-4,major
8574,81,64,189,223,10.0,2-4,major
8575,79,59,146,243,10.0,2-4,major
8576,55,27,3382,261,1.0,3-10,minor
8577,73,49,191,311,1.0,3-10,minor
8578,72,53,53,335,1.0,3-10,minor
8579,96,88,177,722,1.0,2-3,minor
8580,93,76,119,196,1.0,2-3,minor
8581,94,56,196,178,1.0,2-3,minor
8582,91,57,172,140,1.0,2-3,minor
8583,88,56,173,176,1.0,2-3,minor
8584,85,46,136,145,1.0,2-3,minor
8585,93,78,148,164,1.0,2-3,minor
8586,64,33,405,61,1.0,2-3,minor
8587,90,51,123,109,1.0,2-3,minor
8588,91,61,214,151,1.0,2-3,minor
8589,85,39,260,324,5.0,2-1,other
8590,82,46,114,144,5.0,2-1,other
8591,90,67,179,153,5.0,2-1,other
8592,89,62,924,301,5.0,2-1,other
8593,81,54,161,952,9.0,2-3,minor
8594,77,24,385,293,9.0,2-3,minor
8595,60,24,412,960,10.0,2-5,other
8596,69,44,349,447,10.0,2-5,other
8597,57,38,67,957,5.0,3-11B,major
8598,57,55,3502,478,5.0,3-11B,major
8599,70,61,117,706,2.0,2-3,minor
8600,74,73,169,213,2.0,2-3,minor
8601,77,73,159,222,2.0,2-3,minor
8602,81,85,162,242,2.0,2-3,minor
8603,65,34,498,264,10.0,2-4,major
8604,84,78,201,212,10.0,2-4,major
8605,81,70,137,245,10.0,2-4,major
8606,65,20,239,255,2.0,2-3,minor
8607,74,49,150,190,2.0,2-3,minor
8608,71,31,122,270,2.0,2-3,minor
8609,69,30,133,219,2.0,2-3,minor
8610,77,60,160,240,2.0,2-3,minor
8611,74,41,135,254,2.0,2-3,minor
8612,75,64,170,228,2.0,2-3,minor
8613,74,57,188,246,2.0,2-3,minor
8614,67,51,145,483,7.0,2-3,minor
8615,57,35,217,309,7.0,2-3,minor
8616,57,33,525,487,7.0,3-11A,minor
8617,55,25,119,1711,10.0,2-4,major
8618,58,36,88,406,10.0,2-4,major
8619,58,37,599,298,0.0,2-4,major
8620,60,33,2434,895,4.0,2-6,other
8621,77,103,280,443,4.0,2-6,other
8622,75,70,183,260,4.0,2-6,other
8623,71,71,186,689,4.0,1-1,other
8624,72,52,196,753,4.0,2-2,other
8625,64,19,229,65,4.0,2-2,other
8626,70,55,227,192,4.0,2-2,other
8627,67,48,128,270,4.0,2-2,other
8628,53,20,2094,201,9.0,2-3,minor
8629,70,62,246,39,9.0,2-3,minor
8630,68,34,117,285,9.0,2-3,minor
8631,69,43,334,205,9.0,2-3,minor
8632,65,49,149,253,9.0,2-3,minor
8633,60,37,329,213,9.0,2-3,minor
8634,60,37,330,474,9.0,2-3,minor
8635,60,37,786,495,9.0,2-3,minor
8636,53,27,855,453,9.0,2-3,minor
8637,60,24,174,943,9.0,2-3,minor
8638,63,34,1590,480,9.0,2-3,minor
8639,57,46,1370,26,9.0,2-3,minor
8640,53,22,1249,32,9.0,2-3,minor
8641,96,72,149,447,9.0,2-3,minor
8642,99,73,227,190,9.0,2-3,minor
8643,96,63,126,169,9.0,2-3,minor
8644,93,59,101,163,9.0,2-3,minor
8645,92,48,158,159,9.0,2-3,minor
8646,91,60,123,135,9.0,2-3,minor
8647,90,56,101,145,9.0,2-3,minor
8648,89,45,125,113,9.0,2-3,minor
8649,88,59,109,174,9.0,2-3,minor
8650,87,46,99,157,9.0,2-3,minor
8651,63,31,1102,124,9.0,2-3,minor
8652,87,45,140,150,7.0,2-2,other
8653,84,45,78,128,7.0,2-2,other
8654,81,42,109,119,7.0,2-2,other
8655,80,38,83,174,7.0,2-2,other
8656,79,40,115,103,7.0,2-2,other
8657,78,56,102,128,7.0,2-2,other
8658,77,46,98,128,7.0,2-2,other
8659,76,46,122,120,7.0,2-2,other
8660,60,20,266,69,7.0,2-2,other
8661,75,51,97,64,7.0,2-2,other
8662,74,36,83,151,7.0,2-2,other
8663,72,19,98,186,7.0,2-2,other
8664,73,35,106,130,7.0,2-2,other
8665,74,52,151,130,7.0,2-2,other
8666,62,24,503,116,7.0,2-2,other
8667,74,68,226,358,10.0,2-5,other
8668,72,58,217,717,9.0,2-2,other
8669,71,51,138,215,9.0,2-2,other
8670,70,43,130,144,9.0,2-2,other
8671,69,36,119,108,9.0,2-2,other
8672,76,48,147,388,2.0,2-2,other
8673,75,45,135,106,2.0,2-2,other
8674,74,51,109,128,2.0,2-2,other
8675,84,68,1236,171,2.0,2-2,other
8676,53,37,4184,443,2.0,2-2,other
8677,83,58,170,664,2.0,2-2,other
8678,82,51,227,101,2.0,2-2,other
8679,81,46,128,141,2.0,2-2,other
8680,56,25,3701,75,2.0,2-2,other
8681,86,67,238,112,11.0,2-3,minor
8682,83,70,127,298,11.0,2-3,minor
8683,80,60,153,225,11.0,2-3,minor
8684,77,58,114,186,11.0,2-3,minor
8685,74,50,185,223,11.0,2-3,minor
8686,71,45,116,250,11.0,2-3,minor
8687,79,64,208,185,11.0,2-3,minor
8688,74,50,83,220,11.0,2-3,minor
8689,77,70,180,186,11.0,2-3,minor
8690,74,61,146,244,11.0,2-3,minor
8691,71,29,204,215,11.0,2-3,minor
8692,72,60,168,941,2.0,1-1,other
8693,53,30,92,301,2.0,1-1,other
8694,77,71,769,197,2.0,1-1,other
8695,53,22,1266,32,2.0,1-1,other
8696,60,30,320,514,8.0,2-3,other
8697,53,28,1829,932,5.0,2-5,other
8698,56,46,534,522,0.0,2-4,other
8699,68,64,139,247,0.0,2-4,other
8700,68,62,147,208,0.0,2-4,other
8701,68,70,124,293,0.0,2-4,other
8702,56,45,1162,255,5.0,2-5,other
8703,77,73,161,247,5.0,2-5,other
8704,65,64,167,213,5.0,2-5,other
8705,53,24,106,49,5.0,2-5,other
8706,65,67,128,216,5.0,2-5,other
8707,65,73,355,218,5.0,2-5,other
8708,53,40,630,29,5.0,2-5,other
8709,65,75,314,934,10.0,3-11A,other
8710,61,56,148,1381,7.0,4-27A,minor
8711,58,37,145,39,7.0,4-27A,minor
8712,70,75,231,516,7.0,4-27A,minor
8713,67,58,42,919,0.0,4-16B,major
8714,67,54,497,983,0.0,4-27B,major
8715,52,53,187,433,0.0,4-27B,major
8716,60,30,144,1937,4.0,2-6,other
8717,57,49,1258,979,5.0,3-11B,major
8718,60,38,333,458,5.0,3-11B,major
8719,57,28,983,1459,5.0,3-11B,major
8720,48,46,229,921,5.0,3-11B,major
8721,48,40,3651,500,5.0,3-11B,major
8722,58,49,3336,335,5.0,3-11B,major
8723,62,61,252,309,5.0,3-11B,major
8724,65,77,233,322,5.0,3-11B,major
8725,67,73,165,268,5.0,3-11B,major
8726,70,71,131,241,5.0,3-11B,major
8727,72,71,138,217,5.0,3-11B,major
8728,74,68,89,199,5.0,3-11B,major
8729,77,66,167,181,5.0,3-11B,major
8730,79,40,121,171,5.0,3-11B,major
8731,77,22,52,35,5.0,3-11B,major
8732,82,69,92,93,5.0,3-11B,major
8733,84,62,111,171,5.0,3-11B,major
8734,86,50,65,123,5.0,3-11B,major
8735,89,60,138,168,5.0,3-11B,major
8736,91,41,158,144,5.0,3-11B,major
8737,94,48,155,149,5.0,3-11B,major
8738,98,68,261,207,5.0,3-11B,major
8739,94,49,184,228,5.0,3-11B,major
8740,96,58,480,228,5.0,3-11B,major
8741,48,40,3001,46,5.0,3-11B,major
8742,58,27,1042,485,5.0,3-11B,major
8743,60,35,335,452,5.0,3-11B,major
8744,58,23,411,1488,0.0,3-11B,major
8745,48,39,824,884,0.0,2-5,other
8746,48,47,169,1015,8.0,4-28,diminished
8747,56,50,687,425,7.0,3-11B,major
8748,65,53,44,350,4.0,4-15A,other
8749,68,62,320,1027,8.0,2-3,other
8750,71,66,169,311,8.0,2-3,other
8751,83,62,327,325,8.0,3-10,other
8752,80,25,107,396,11.0,2-3,minor
8753,48,41,2569,969,5.0,2-4,major
8754,57,51,635,505,5.0,2-4,major
8755,57,50,1434,950,5.0,3-11B,major
8756,60,47,787,475,5.0,3-11B,major
8757,77,82,441,509,5.0,3-11B,major
8758,72,63,172,281,5.0,3-11B,major
8759,69,52,151,203,5.0,3-11B,major
8760,67,64,183,236,5.0,3-11B,major
8761,55,17,1264,332,10.0,3-9,other
8762,67,40,132,699,10.0,3-9,other
8763,65,57,199,60,10.0,3-9,other
8764,62,36,465,150,10.0,3-9,other
8765,64,59,385,498,10.0,3-9,other
8766,55,1,576,248,10.0,3-9,other
8767,48,41,1193,227,10.0,3-9,other
8768,74,71,178,470,10.0,3-9,other
8769,55,9,978,43,10.0,3-9,other
8770,74,58,166,241,10.0,3-9,other
8771,76,71,300,253,10.0,3-9,other
8772,74,60,399,428,10.0,3-9,other
8773,48,37,3455,47,10.0,3-9,other
8774,72,58,419,418,10.0,3-9,other
8775,58,28,689,32,10.0,3-9,other
8776,60,1,552,161,10.0,3-9,other
8777,67,10,1029,389,10.0,3-9,other
8778,58,21,270,431,0.0,2-5,other
8779,58,6,424,557,0.0,2-5,other
8780,58,23,637,813,0.0,3-11B,major
8781,70,43,227,988,0.0,1-1,other
8782,60,28,2236,524,5.0,2-4,major
8783,70,40,167,183,5.0,2-4,major
8784,69,40,153,112,5.0,2-4,major
8785,68,42,101,151,5.0,2-4,major
8786,69,36,160,223,5.0,2-4,major
8787,69,57,505,717,10.0,2-5,other
8788,65,49,1475,962,10.0,2-5,other
8789,60,33,779,386,10.0,2-5,other
8790,53,29,338,524,10.0,2-5,other
8791,58,30,3926,542,2.0,2-3,minor
8792,64,51,130,902,2.0,2-3,minor
8793,65,62,114,250,2.0,2-3,minor
8794,69,73,155,234,2.0,2-3,minor
8795,70,69,106,255,2.0,2-3,minor
8796,73,58,134,252,2.0,2-3,minor
8797,74,60,112,248,2.0,2-3,minor
8798,77,60,128,205,2.0,2-3,minor
8799,79,55,128,251,2.0,2-3,minor
8800,81,58,181,252,2.0,2-3,minor
8801,82,53,122,247,2.0,2-3,minor
8802,84,58,155,219,2.0,2-3,minor
8803,82,59,139,255,2.0,2-3,minor
8804,84,60,336,216,2.0,2-3,minor
8805,82,56,166,234,2.0,2-3,minor
8806,53,17,3271,87,2.0,2-3,minor
8807,79,51,203,149,2.0,2-3,minor
8808,76,54,129,252,2.0,2-3,minor
8809,72,50,390,222,2.0,2-3,minor
8810,60,19,1172,40,2.0,2-3,minor
8811,60,17,349,1351,4.0,2-3,minor
8812,72,53,151,738,0.0,2-2,other
8813,74,57,194,221,0.0,2-2,other
8814,60,20,1123,32,0.0,2-2,other
8815,70,36,189,242,0.0,2-2,other
8816,53,22,3524,162,0.0,2-2,other
8817,69,50,2108,69,0.0,2-2,other
8818,60,31,1684,1937,5.0,2-5,other
8819,84,33,89,1275,2.0,1-1,other
8820,84,24,94,505,2.0,1-1,other
8821,84,38,217,620,2.0,3-7A,minor
8822,72,43,1026,473,2.0,3-7A,minor
8823,65,24,712,39,2.0,3-7A,minor
8824,70,36,99,3366,7.0,4-26,minor
8825,72,57,174,110,7.0,4-26,minor
8826,70,46,131,121,7.0,4-26,minor
8827,69,47,65,142,7.0,4-26,minor
8828,70,64,127,139,7.0,4-26,minor
8829,72,57,124,126,7.0,4-26,minor
8830,70,43,105,107,7.0,4-26,minor
8831,69,34,61,158,7.0,4-26,minor
8832,70,57,128,108,7.0,4-26,minor
8833,72,51,128,125,7.0,4-26,minor
8834,70,34,100,126,7.0,4-26,minor
8835,69,34,73,126,7.0,4-26,minor
8836,70,50,1071,120,7.0,4-26,minor
8837,72,42,128,1120,7.0,4-26,minor
8838,70,48,139,90,7.0,4-26,minor
8839,69,33,100,152,7.0,4-26,minor
8840,70,52,183,133,7.0,4-26,minor
8841,72,62,142,188,7.0,4-26,minor
8842,74,54,227,162,7.0,4-26,minor
8843,72,47,1404,190,0.0,3-8A,major
8844,52,53,2086,1215,0.0,3-8A,major
8845,58,51,1684,463,0.0,3-8A,major
8846,60,54,194,261,0.0,3-8A,major
8847,61,67,181,207,0.0,3-8A,major
8848,63,72,125,188,0.0,3-8A,major
8849,64,68,123,146,0.0,3-8A,major
8850,66,68,111,172,0.0,3-8A,major
8851,60,30,867,26,0.0,3-8A,major
8852,67,51,151,163,0.0,3-8A,major
8853,69,48,150,147,0.0,3-8A,major
8854,70,54,43,164,0.0,3-8A,major
8855,72,54,141,124,0.0,3-8A,major
8856,75,42,180,151,0.0,3-8A,major
8857,76,44,145,200,0.0,3-8A,major
8858,79,57,202,194,5.0,2-5,other
8859,76,38,110,264,5.0,2-5,other
8860,77,52,184,173,5.0,2-5,other
8861,72,43,151,207,5.0,2-5,other
8862,69,25,173,206,5.0,2-5,other
8863,74,99,169,1361,5.0,2-5,other
8864,72,60,119,249,5.0,2-5,other
8865,74,89,170,232,5.0,2-5,other
8866,72,64,183,230,5.0,2-5,other
8867,69,58,203,208,5.0,2-5,other
8868,65,58,163,242,5.0,2-5,other
8869,62,43,1659,244,5.0,2-5,other
8870,60,26,107,54,5.0,2-5,other
8871,57,22,129,28,5.0,2-5,other
8872,50,15,89,961,5.0,3-11B,major
8873,53,15,178,2428,2.0,3-7B,other
8874,58,67,152,1159,11.0,2-6,other
8875,59,51,151,228,11.0,2-6,other
8876,61,75,138,212,11.0,2-6,other
8877,62,43,154,224,7.0,2-4,major
8878,66,72,120,222,7.0,2-4,major
8879,62,40,83,38,7.0,2-4,major
8880,67,64,134,172,7.0,2-4,major
8881,70,67,115,215,7.0,2-4,major
8882,62,31,48,35,7.0,2-4,major
8883,71,44,110,196,7.0,2-4,major
8884,62,33,46,282,11.0,2-3,minor
8885,77,67,91,169,11.0,2-3,minor
8886,62,40,332,271,7.0,2-3,minor
8887,83,71,142,196,7.0,2-3,minor
8888,86,88,176,289,7.0,2-3,minor
8889,84,78,1016,235,7.0,2-3,minor
8890,86,33,56,37,7.0,2-3,minor
8891,53,30,127,29,7.0,2-3,minor
8892,52,24,338,438,0.0,2-5,other
8893,55,27,2402,955,0.0,2-4,major
8894,52,7,1679,42,0.0,2-4,major
8895,52,24,245,1935,0.0,2-5,other
8896,52,34,3508,487,0.0,2-5,other
8897,53,28,3075,459,0.0,2-5,other
8898,57,44,2097,493,0.0,2-5,other
8899,60,38,1666,492,0.0,2-5,other
8900,70,80,221,453,0.0,2-5,other
8901,68,55,145,262,0.0,2-5,other
8902,69,66,216,233,0.0,2-5,other
8903,64,61,133,300,0.0,2-5,other
8904,67,71,219,203,0.0,2-5,other
8905,64,54,130,282,0.0,2-5,other
8906,65,68,312,212,9.0,2-3,minor
8907,64,77,197,259,9.0,2-3,minor
8908,57,39,3470,139,9.0,2-3,minor
8909,53,27,3362,46,9.0,2-3,minor
8910,50,22,3290,36,9.0,2-3,minor
8911,62,45,323,41,9.0,2-3,minor
8912,62,64,1200,412,9.0,2-3,minor
8913,60,36,615,1406,9.0,2-3,minor
8914,65,88,279,530,9.0,2-3,minor
8915,64,68,148,236,9.0,2-3,minor
8916,60,20,184,236,9.0,2-3,minor
8917,69,83,840,27,9.0,2-3,minor
8918,60,29,89,361,9.0,2-3,minor
8919,67,60,186,404,9.0,2-3,minor
8920,67,57,385,685,7.0,5-38B,major
8921,70,59,400,458,7.0,5-38B,major
8922,71,57,866,473,7.0,5-38B,major
8923,74,50,106,1227,1.0,2-2,other
8924,76,34,64,32,1.0,2-2,other
8925,79,38,107,227,1.0,2-2,other
8926,83,87,134,229,1.0,2-2,other
8927,86,91,197,232,11.0,2-3,minor
8928,83,24,70,303,11.0,2-3,minor
8929,86,90,323,212,11.0,2-3,minor
8930,52,39,2564,37,11.0,2-3,minor
8931,60,17,337,41,11.0,2-3,minor
8932,84,72,220,335,11.0,2-3,minor
8933,79,61,152,261,11.0,2-3,minor
8934,72,41,195,510,0.0,2-4,major
8935,52,31,372,2115,0.0,2-4,major
8936,59,37,89,1695,6.0,2-3,minor
8937,60,57,210,151,6.0,2-3,minor
8938,62,53,150,138,6.0,2-3,minor
8939,63,72,100,129,6.0,2-3,minor
8940,65,71,129,160,6.0,2-3,minor
8941,60,11,350,69,6.0,2-3,minor
8942,66,62,132,71,6.0,2-3,minor
8943,68,48,51,161,6.0,2-3,minor
8944,69,59,127,114,6.0,2-3,minor
8945,71,58,135,143,6.0,2-3,minor
8946,72,60,157,133,6.0,2-3,minor
8947,74,54,118,178,6.0,2-3,minor
8948,60,28,768,383,6.0,2-3,minor
8949,57,19,585,46,6.0,2-3,minor
8950,72,30,137,388,6.0,2-3,minor
8951,74,57,155,155,6.0,2-3,minor
8952,75,57,88,152,6.0,2-3,minor
8953,76,59,114,64,6.0,2-3,minor
8954,77,82,388,188,6.0,2-3,minor
8955,74,68,169,302,6.0,2-3,minor
8956,55,10,2496,166,10.0,2-4,major
8957,70,49,186,119,10.0,2-4,major
8958,69,33,151,220,10.0,2-4,major
8959,74,58,198,210,10.0,2-4,major
8960,62,22,255,71,10.0,2-4,major
8961,70,35,111,149,10.0,2-4,major
8962,72,49,134,182,10.0,2-4,major
8963,62,38,150,221,10.0,2-4,major
8964,62,40,224,275,10.0,2-4,major
8965,58,27,169,40,10.0,2-4,major
8966,62,34,845,347,10.0,2-4,major
8967,58,36,1430,444,10.0,2-4,major
8968,53,22,112,465,10.0,2-4,major
8969,63,55,127,922,1.0,2-3,minor
8970,60,29,208,57,1.0,2-3,minor
8971,64,57,83,150,1.0,2-3,minor
8972,61,56,190,69,1.0,2-3,minor
8973,66,52,92,111,1.0,2-3,minor
8974,63,67,89,97,1.0,2-3,minor
8975,67,54,122,63,1.0,2-3,minor
8976,64,36,123,87,1.0,2-3,minor
8977,69,56,139,68,1.0,2-3,minor
8978,66,58,169,45,1.0,2-3,minor
8979,70,60,85,117,1.0,2-3,minor
8980,67,48,101,36,1.0,2-3,minor
8981,72,62,106,95,1.0,2-3,minor
8982,71,29,76,83,1.0,2-3,minor
8983,73,55,110,48,1.0,2-3,minor
8984,75,56,94,124,1.0,2-3,minor
8985,75,58,169,251,4.0,2-2,other
8986,81,55,142,293,7.0,2-2,other
8987,82,56,78,166,7.0,2-2,other
8988,87,47,104,423,1.0,2-3,other
8989,89,53,153,316,0.0,2-4,major
8990,90,59,146,148,0.0,2-4,major
8991,91,32,197,188,0.0,2-4,major
8992,92,60,158,180,0.0,2-4,major
8993,93,59,364,200,0.0,2-4,major
8994,65,56,170,3330,5.0,3-11B,major
8995,58,74,381,531,2.0,2-5,other
8996,57,54,1304,1833,10.0,3-4A,major
8997,70,72,131,200,10.0,3-4A,major
8998,72,78,275,208,10.0,3-4A,major
8999,58,51,489,538,2.0,2-5,other
9000,70,59,131,211,2.0,2-5,other
9001,72,70,735,239,2.0,2-5,other
9002,58,40,651,491,7.0,2-5,other
9003,69,35,129,261,7.0,2-5,other
9004,70,67,368,214,7.0,2-5,other
9005,69,30,115,747,10.0,2-1,other
9006,70,65,456,196,10.0,2-1,other
9007,64,48,132,824,10.0,2-1,other
9008,65,54,311,190,10.0,2-1,other
9009,55,22,618,472,10.0,2-1,other
9010,69,54,157,267,7.0,4-14A,minor
9011,70,67,411,232,7.0,4-14A,minor
9012,65,39,138,752,0.0,3-8A,major
9013,67,52,293,217,0.0,3-8A,major
9014,60,39,215,440,0.0,3-8A,major
9015,62,36,238,281,4.0,2-6,other
9016,64,48,296,206,4.0,2-6,other
9017,58,43,243,438,4.0,2-6,other
9018,52,24,510,46,4.0,2-6,other
9019,60,38,173,212,4.0,2-6,other
9020,62,35,304,225,4.0,2-6,other
9021,55,30,231,459,4.0,2-6,other
9022,52,17,202,32,4.0,2-6,other
9023,57,61,141,231,4.0,2-6,other
9024,58,60,424,213,4.0,2-6,other
9025,48,26,1985,540,5.0,2-4,major
9026,58,46,156,169,5.0,2-4,major
9027,57,50,159,123,5.0,2-4,major
9028,56,59,115,115,5.0,2-4,major
9029,57,67,954,155,5.0,2-4,major
9030,53,26,317,453,5.0,2-4,major
9031,53,34,255,461,5.0,2-4,major
9032,53,25,512,508,5.0,2-4,major
9033,48,30,129,516,5.0,2-4,major
9034,84,83,178,916,5.0,2-4,major
9035,83,62,157,258,5.0,2-4,major
9036,63,33,2988,674,5.0,2-5,other
9037,65,32,2592,512,5.0,2-5,other
9038,89,90,151,1253,5.0,2-5,other
9039,87,80,146,378,5.0,2-5,other
9040,86,79,149,316,5.0,2-5,other
9041,84,72,172,325,5.0,2-5,other
9042,82,65,157,319,5.0,2-5,other
9043,81,64,155,220,5.0,2-5,other
9044,84,67,208,255,2.0,3-7A,minor
9045,81,68,126,256,2.0,3-7A,minor
9046,82,69,203,205,2.0,3-7A,minor
9047,53,26,2277,32,2.0,3-7A,minor
9048,77,54,165,203,2.0,3-7A,minor
9049,74,59,159,454,2.0,3-7A,minor
9050,72,51,117,260,2.0,3-7A,minor
9051,75,75,235,231,2.0,3-7A,minor
9052,73,43,119,224,2.0,2-3,minor
9053,74,75,346,211,2.0,2-3,minor
9054,65,29,85,52,2.0,2-3,minor
9055,72,62,159,186,2.0,2-3,minor
9056,69,61,227,225,2.0,2-3,minor
9057,62,38,586,26,2.0,2-3,minor
9058,60,36,518,31,2.0,2-3,minor
9059,65,45,142,210,2.0,2-3,minor
9060,70,62,151,451,5.0,2-4,major
9061,71,48,155,195,5.0,2-4,major
9062,72,59,294,107,5.0,2-4,major
9063,62,36,1177,135,5.0,2-4,major
9064,74,71,259,77,8.0,2-3,minor
9065,74,51,167,387,8.0,2-3,minor
9066,74,62,461,315,8.0,2-3,minor
9067,77,33,56,971,11.0,2-3,minor
9068,80,69,194,62,11.0,2-3,minor
9069,77,36,101,118,11.0,2-3,minor
9070,74,46,111,137,11.0,2-3,minor
9071,73,46,168,142,11.0,2-3,minor
9072,72,51,110,106,11.0,2-3,minor
9073,71,49,192,160,11.0,2-3,minor
9074,70,35,138,191,11.0,2-3,minor
9075,69,68,178,438,11.0,2-3,minor
9076,68,56,119,225,11.0,2-3,minor
9077,65,35,120,274,11.0,2-3,minor
9078,68,68,827,169,11.0,2-3,minor
9079,60,62,311,399,11.0,2-3,minor
9080,48,41,3036,39,11.0,2-3,minor
9081,65,66,211,307,11.0,2-3,minor
9082,56,32,506,52,11.0,2-3,minor
9083,68,74,312,235,11.0,2-3,minor
9084,60,45,520,48,11.0,2-3,minor
9085,72,63,126,244,11.0,2-3,minor
9086,85,32,66,677,5.0,2-5,other
9087,95,30,47,988,0.0,2-4,other
9088,84,64,121,276,0.0,2-4,other
9089,56,57,273,270,0.0,2-4,other
9090,53,38,825,864,1.0,1-1,other
9091,60,79,376,940,10.0,3-11A,other
9092,49,71,519,909,10.0,3-11A,other
9093,61,56,540,504,10.0,3-11A,other
9094,49,64,183,467,10.0,3-11A,other
9095,55,54,439,956,0.0,4-27B,major
9096,60,56,110,483,0.0,4-27B,major
9097,62,20,397,513,0.0,4-27B,major
9098,60,28,62,1884,4.0,2-6,other
9099,48,49,1639,999,5.0,3-11B,major
9100,57,36,1237,1441,5.0,2-5,other
9101,48,44,354,422,5.0,2-5,other
9102,48,51,1225,917,5.0,2-5,other
9103,70,50,1499,402,5.0,2-5,other
9104,58,25,596,54,5.0,2-5,other
9105,82,65,1433,110,0.0,2-4,major
9106,48,40,74,1344,0.0,2-4,major
9107,60,36,358,1254,9.0,3-5B,other
9108,78,28,48,26,9.0,3-5B,other
9109,62,36,305,4930,0.0,2-2,other
9110,53,22,3488,60,8.0,2-3,minor
9111,77,35,54,1800,11.0,2-3,minor
9112,80,63,203,94,11.0,2-3,minor
9113,77,51,115,116,11.0,2-3,minor
9114,74,54,106,154,11.0,2-3,minor
9115,73,37,140,148,11.0,2-3,minor
9116,72,37,91,100,11.0,2-3,minor
9117,71,49,93,136,11.0,2-3,minor
9118,70,37,111,142,11.0,2-3,minor
9119,69,31,110,156,11.0,2-3,minor
9120,68,53,161,118,11.0,2-3,minor
9121,65,49,114,194,11.0,2-3,minor
9122,62,34,129,167,11.0,2-3,minor
9123,61,25,68,161,11.0,2-3,minor
9124,60,26,57,342,11.0,2-3,minor
9125,62,46,488,122,11.0,2-3,minor
9126,57,56,252,890,0.0,1-1,other
9127,48,45,1747,499,0.0,1-1,other
9128,57,49,406,448,0.0,1-1,other
9129,57,42,272,517,5.0,2-4,major
9130,69,55,163,902,9.0,2-3,minor
9131,58,38,846,568,0.0,3-9,other
9132,48,42,1506,1476,0.0,3-9,other
9133,74,64,228,427,0.0,3-9,other
9134,74,66,140,1380,4.0,2-6,other
9135,48,34,150,32,4.0,2-6,other
9136,70,37,147,2810,0.0,3-8A,major
9137,58,35,119,777,4.0,2-3,minor
9138,64,43,144,204,4.0,2-3,minor
9139,58,21,68,40,4.0,2-3,minor
9140,53,15,1284,410,5.0,2-4,major
9141,48,18,680,61,5.0,2-4,major
9142,41,31,1292,1912,5.0,2-4,major
9143,48,19,1311,45,5.0,2-4,major
9144,69,74,214,826,5.0,2-4,major
9145,68,58,209,211,5.0,2-4,major
9146,69,62,189,236,5.0,2-4,major
9147,67,39,170,233,5.0,2-4,major
9148,69,54,207,216,5.0,2-4,major
9149,65,54,439,234,5.0,2-4,major
9150,62,33,216,538,5.0,2-4,major
9151,58,59,502,453,5.0,2-4,major
9152,69,83,212,1477,10.0,2-4,major
9153,68,62,155,238,10.0,2-4,major
9154,67,51,159,457,2.0,2-5,other
9155,69,65,206,229,2.0,2-5,other
9156,52,26,1229,225,0.0,2-2,other
9157,69,63,150,259,0.0,2-2,other
9158,64,58,199,221,0.0,2-2,other
9159,67,54,182,241,0.0,2-2,other
9160,62,22,132,308,0.0,2-2,other
9161,64,43,168,213,0.0,2-2,other
9162,58,39,764,1752,0.0,2-4,major
9163,52,37,205,478,0.0,2-4,major
9164,62,35,143,699,5.0,2-5,other
9165,60,40,182,85,5.0,2-5,other
9166,59,54,257,148,5.0,2-5,other
9167,60,59,117,293,5.0,2-5,other
9168,65,76,397,198,5.0,2-5,other
9169,60,25,215,424,5.0,2-5,other
9170,64,62,294,39,5.0,2-5,other
9171,65,64,95,288,5.0,2-5,other
9172,60,17,1728,95,5.0,2-5,other
9173,69,72,424,109,5.0,2-5,other
9174,65,37,474,38,5.0,2-5,other
9175,68,46,213,392,5.0,2-5,other
9176,69,43,163,236,5.0,2-5,other
9177,53,36,188,724,5.0,2-5,other
9178,53,47,1569,538,2.0,2-2,other
9179,72,68,41,472,2.0,2-2,other
9180,69,70,437,491,2.0,2-2,other
9181,65,53,424,493,2.0,2-2,other
9182,60,50,2530,494,2.0,2-2,other
9183,41,49,2860,1899,2.0,2-2,other
9184,58,92,265,966,2.0,2-2,other
9185,57,55,140,275,2.0,2-2,other
9186,58,46,91,223,2.0,2-2,other
9187,62,63,137,235,2.0,2-2,other
9188,69,76,100,511,5.0,2-1,other
9189,70,91,384,191,5.0,2-1,other
9190,72,88,506,458,5.0,2-1,other
9191,70,72,426,484,5.0,2-1,other
9192,60,38,1173,532,4.0,2-3,minor
9193,48,44,1971,455,4.0,2-3,minor
9194,76,71,431,473,4.0,2-3,minor
9195,67,47,157,500,4.0,2-3,minor
9196,79,64,1446,512,4.0,2-3,minor
9197,70,53,691,1017,4.0,2-3,minor
9198,77,46,1107,935,4.0,2-3,minor
9199,43,38,973,0,0.0,3-11B,major
9200,50,32,94,365,0.0,3-11B,major
9201,70,45,26,1092,0.0,3-4B,other
9202,67,74,89,236,0.0,3-4B,other
9203,67,55,50,593,9.0,2-4,major
9204,57,19,233,172,2.0,3-7B,other
9205,67,46,65,170,2.0,3-7B,other
9206,74,55,134,377,6.0,4-28,diminished
9207,59,27,830,939,4.0,4-26,minor
9208,52,45,72,878,3.0,2-4,major
9209,71,60,220,820,9.0,3-11B,major
9210,55,42,164,1073,0.0,3-11B,major
9211,55,47,315,972,3.0,2-4,major
9212,48,52,118,226,3.0,2-4,major
9213,45,55,201,1217,4.0,3-11A,minor
9214,67,72,83,674,9.0,4-27B,major
9215,64,14,57,3434,9.0,3-11B,major
9216,69,65,74,341,9.0,2-5,other
9217,73,51,55,113,9.0,2-5,other
9218,74,50,120,111,9.0,2-5,other
9219,50,37,211,512,2.0,3-11B,major
9220,62,53,35,1034,7.0,3-11B,major
9221,50,41,85,230,7.0,3-11B,major
9222,50,26,44,1360,7.0,3-11B,major
9223,55,39,182,817,7.0,2-5,other
9224,43,48,101,711,7.0,3-11B,major
9225,67,56,133,471,0.0,4-20,major
9226,67,41,66,495,9.0,4-27B,major
9227,67,36,510,2183,3.0,3-12,augmented
9228,52,49,99,447,3.0,3-12,augmented
9229,48,41,98,3118,3.0,3-4A,major
9230,69,73,59,956,7.0,3-11B,major
9231,55,42,263,633,9.0,2-4,major
9232,45,38,171,287,9.0,2-4,major
9233,64,60,58,38,9.0,2-4,major
9234,31,49,28,1669,7.0,2-4,major
9235,64,34,120,477,7.0,2-4,major
9236,36,67,61,3196,0.0,3-11B,major
9237,48,55,66,2343,0.0,2-4,major
9238,79,85,109,1705,9.0,3-8A,major
9239,77,47,106,105,9.0,3-8A,major
9240,72,80,140,831,2.0,2-2,other
9241,69,72,27,228,2.0,2-2,other
9242,71,65,120,372,7.0,2-3,minor
9243,74,92,120,120,7.0,2-3,minor
9244,72,94,120,240,7.0,2-3,minor
9245,69,73,120,240,7.0,2-3,minor
9246,67,38,120,120,7.0,2-3,minor
9247,62,54,120,360,7.0,2-4,major
9248,59,50,120,360,7.0,2-3,minor
9249,55,75,240,120,7.0,2-3,minor
9250,50,73,21,1560,7.0,2-3,minor
9251,67,74,56,120,7.0,2-3,minor
9252,72,75,45,120,7.0,2-3,minor
9253,76,81,81,120,7.0,2-3,minor
9254,77,84,80,120,7.0,2-3,minor
9255,72,64,84,240,9.0,3-11A,minor
9256,67,39,110,120,9.0,3-11A,minor
9257,73,74,77,480,1.0,3-10,minor
9258,76,82,65,120,1.0,3-10,minor
9259,78,61,113,240,7.0,3-9,other
9260,50,27,38,480,9.0,2-3,minor
9261,78,62,75,120,9.0,2-3,minor
9262,81,95,161,120,9.0,2-3,minor
9263,78,62,54,240,4.0,5-32B,other
9264,79,80,112,120,4.0,5-32B,other
9265,76,59,143,120,4.0,5-32B,other
9266,67,55,33,240,0.0,2-1,other
9267,70,45,140,240,9.0,2-5,other
9268,66,67,128,360,9.0,2-2,other
9269,69,90,245,240,9.0,2-2,other
9270,67,64,96,120,9.0,2-2,other
9271,64,52,121,120,9.0,2-2,other
9272,62,36,76,138,9.0,2-2,other
9273,64,62,99,374,9.0,2-4,major
9274,60,59,98,242,9.0,2-4,major
9275,60,58,97,249,9.0,2-4,major
9276,59,26,48,144,9.0,2-4,major
9277,60,55,114,99,9.0,2-4,major
9278,62,63,79,135,9.0,2-4,major
9279,60,36,120,89,9.0,2-4,major
9280,59,71,56,170,9.0,2-4,major
9281,60,78,125,86,9.0,2-4,major
9282,60,84,94,240,9.0,2-4,major
9283,60,54,117,228,7.0,2-4,major
9284,67,57,96,256,3.0,2-4,major
9285,70,64,80,116,3.0,2-4,major
9286,71,63,89,108,3.0,2-4,major
9287,58,35,21,155,7.0,2-5,other
9288,71,52,90,89,7.0,2-5,other
9289,72,70,105,131,7.0,2-5,other
9290,73,47,87,114,7.0,2-5,other
9291,74,65,93,116,7.0,2-5,other
9292,78,36,23,89,7.0,2-5,other
9293,79,19,76,41,7.0,2-5,other
9294,83,65,64,113,7.0,2-5,other
9295,78,60,104,1712,2.0,4-27B,major
9296,74,43,88,107,2.0,4-27B,major
9297,76,75,93,478,0.0,3-11B,major
9298,69,61,33,139,0.0,3-11B,major
9299,72,33,44,258,11.0,2-3,minor
9300,67,49,109,72,11.0,2-3,minor
9301,62,50,56,140,11.0,2-3,minor
9302,60,32,160,100,11.0,2-3,minor
9303,55,56,55,678,0.0,3-11B,major
9304,60,57,58,137,0.0,3-11B,major
9305,55,55,75,355,7.0,3-11B,major
9306,67,74,70,709,9.0,2-2,other
9307,72,74,59,132,9.0,2-2,other
9308,75,68,64,103,9.0,2-2,other
9309,67,60,134,493,4.0,2-3,minor
9310,57,44,63,156,4.0,2-3,minor
9311,67,62,57,412,7.0,4-20,major
9312,50,22,25,359,7.0,2-3,minor
9313,59,53,68,1019,7.0,2-5,other
9314,62,54,63,129,7.0,2-5,other
9315,60,81,96,349,9.0,2-5,other
9316,62,75,77,137,9.0,2-5,other
9317,59,65,130,346,11.0,1-1,other
9318,69,88,53,703,7.0,2-5,other
9319,71,62,100,62,7.0,2-5,other
9320,74,57,54,121,7.0,2-5,other
9321,76,94,106,154,7.0,2-5,other
9322,74,82,117,152,7.0,2-5,other
9323,71,66,98,194,7.0,2-5,other
9324,67,68,56,155,7.0,2-5,other
9325,62,38,114,112,7.0,2-5,other
9326,50,19,28,140,7.0,2-5,other
9327,48,37,49,218,0.0,2-5,other
9328,59,44,69,134,7.0,2-3,minor
9329,50,41,26,135,7.0,2-3,minor
9330,67,64,40,594,0.0,2-5,other
9331,72,66,51,131,0.0,2-5,other
9332,79,82,84,249,9.0,3-11B,major
9333,78,76,137,228,9.0,3-11B,major
9334,69,44,142,355,2.0,2-5,other
9335,75,77,89,482,0.0,2-3,minor
9336,69,24,21,164,0.0,2-3,minor
9337,73,30,30,117,4.0,4-26,minor
9338,71,71,82,199,4.0,4-26,minor
9339,67,65,61,144,4.0,4-26,minor
9340,64,48,110,116,4.0,4-26,minor
9341,59,33,71,121,4.0,4-26,minor
9342,64,45,102,27,4.0,4-26,minor
9343,55,33,577,340,3.0,3-4B,other
9344,75,82,145,211,3.0,3-4B,other
9345,76,44,61,28,3.0,3-4B,other
9346,59,35,70,387,3.0,3-4B,other
9347,55,19,46,29,3.0,3-4B,other
9348,76,90,222,64,3.0,3-4B,other
9349,73,62,417,215,3.0,3-4B,other
9350,61,31,72,172,3.0,3-4B,other
9351,72,69,201,319,9.0,2-4,major
9352,67,66,399,214,9.0,2-4,major
9353,65,61,166,454,9.0,2-4,major
9354,64,50,143,242,9.0,2-4,major
9355,60,35,323,160,9.0,2-4,major
9356,62,63,88,463,0.0,3-11A,minor
9357,60,42,152,126,0.0,3-11A,minor
9358,60,48,217,234,0.0,3-11A,minor
9359,55,51,40,164,0.0,3-11A,minor
9360,48,17,35,39,0.0,3-11A,minor
9361,59,82,128,512,7.0,2-4,major
9362,58,58,105,142,7.0,2-4,major
9363,53,18,32,272,7.0,2-4,major
9364,60,80,135,62,7.0,2-4,major
9365,45,47,48,720,1.0,2-6,other
9366,60,60,55,147,1.0,2-6,other
9367,61,64,154,97,1.0,2-6,other
9368,63,45,90,460,2.0,2-5,other
9369,64,61,65,136,2.0,2-5,other
9370,67,63,67,108,2.0,2-5,other
9371,50,19,54,428,2.0,2-2,other
9372,72,83,86,190,2.0,2-2,other
9373,50,31,27,44,2.0,2-2,other
9374,71,62,81,73,2.0,2-2,other
9375,50,39,30,125,2.0,2-2,other
9376,67,77,134,86,2.0,2-2,other
9377,53,32,71,385,4.0,2-2,other
9378,51,51,78,952,7.0,3-11B,major
9379,49,32,91,488,5.0,3-11B,major
9380,74,71,83,1097,2.0,4-4A,minor
9381,77,81,284,123,2.0,4-4A,minor
9382,72,77,197,570,0.0,3-6,major
9383,65,44,267,395,4.0,2-3,minor
9384,53,37,42,270,4.0,2-3,minor
9385,60,52,56,439,5.0,3-11B,major
9386,90,21,24,2324,2.0,4-26,minor
9387,95,66,38,2216,4.0,6-30B,other
9388,49,43,21,515,2.0,2-1,other
9389,55,64,113,555,7.0,2-4,major
9390,55,61,140,247,7.0,2-4,major
9391,31,91,183,1649,7.0,2-4,major
9392,59,63,80,327,10.0,3-4A,major
9393,59,55,123,725,10.0,3-4A,major
9394,55,74,196,176,10.0,3-4A,major
9395,52,58,94,141,10.0,3-4A,major
9396,36,60,482,54,10.0,3-4A,major
9397,48,79,493,279,10.0,3-4A,major
9398,55,68,47,237,10.0,3-4A,major
9399,60,64,56,145,10.0,3-4A,major
9400,62,30,34,459,1.0,1-1,other
9401,66,47,48,240,2.0,2-5,other
9402,67,54,95,120,2.0,2-5,other
9403,69,64,56,120,2.0,2-5,other
9404,70,37,67,120,2.0,2-5,other
9405,74,32,56,240,6.0,5-31A,other
9406,75,60,62,120,6.0,5-31A,other
9407,79,60,54,251,4.0,4-26,minor
9408,83,57,79,109,4.0,4-26,minor
9409,55,48,367,640,4.0,3-4B,other
9410,88,83,108,139,4.0,3-4B,other
9411,83,50,102,156,4.0,3-4B,other
9412,83,60,97,488,4.0,2-3,minor
9413,76,24,37,30,4.0,2-3,minor
9414,85,56,89,346,9.0,3-11B,major
9415,81,40,55,107,9.0,3-11B,major
9416,76,35,63,149,9.0,3-11B,major
9417,83,110,140,825,0.0,3-4A,major
9418,84,75,143,120,0.0,3-4A,major
9419,79,60,83,240,0.0,3-4A,major
9420,76,38,95,120,0.0,3-4A,major
9421,75,62,62,120,0.0,3-4A,major
9422,75,37,80,240,3.0,4-16A,major
9423,71,76,61,240,2.0,2-2,other
9424,71,58,25,240,2.0,3-5B,other
9425,72,65,141,120,2.0,3-5B,other
9426,67,60,54,120,2.0,3-5B,other
9427,62,79,126,360,7.0,3-11B,major
9428,59,26,25,120,7.0,3-11B,major
9429,60,78,142,360,9.0,3-7A,minor
9430,61,47,64,875,9.0,2-2,other
9431,62,59,74,82,9.0,2-2,other
9432,38,54,276,377,2.0,3-11B,major
9433,42,64,221,353,0.0,4-22A,major
9434,58,31,24,29,0.0,4-22A,major
9435,31,88,204,459,7.0,4-27B,major
9436,31,87,402,261,7.0,4-27B,major
9437,76,45,86,310,3.0,3-4A,major
9438,76,10,95,267,3.0,3-4A,major
9439,67,63,125,367,0.0,2-5,other
9440,71,68,109,380,7.0,3-11B,major
9441,67,47,107,107,7.0,3-11B,major
9442,62,52,59,140,7.0,3-11B,major
9443,52,39,53,939,9.0,2-2,other
9444,62,49,66,178,9.0,3-7A,minor
9445,57,45,64,115,0.0,2-4,major
9446,58,44,66,80,0.0,2-4,major
9447,59,53,31,76,0.0,2-4,major
9448,61,40,53,136,0.0,1-1,other
9449,62,53,54,71,0.0,1-1,other
9450,50,37,273,50,0.0,1-1,other
9451,63,43,28,31,0.0,1-1,other
9452,64,60,60,64,0.0,1-1,other
9453,65,60,60,98,0.0,1-1,other
9454,66,50,60,38,0.0,1-1,other
9455,67,69,64,40,0.0,1-1,other
9456,54,44,41,39,0.0,1-1,other
9457,50,34,110,209,11.0,2-3,minor
9458,69,63,182,41,11.0,2-3,minor
9459,50,33,72,166,11.0,2-3,minor
9460,50,60,90,428,7.0,2-1,other
9461,71,60,92,409,10.0,2-1,other
9462,74,80,160,115,10.0,2-1,other
9463,72,55,89,113,9.0,2-2,other
9464,67,65,79,139,9.0,2-2,other
9465,64,24,105,136,9.0,2-2,other
9466,53,32,59,124,9.0,2-2,other
9467,67,58,112,341,7.0,2-4,major
9468,62,42,90,494,7.0,2-4,major
9469,49,20,43,162,1.0,2-6,other
9470,62,29,95,57,1.0,2-6,other
9471,55,55,170,470,11.0,3-2B,minor
9472,62,69,135,714,7.0,2-5,other
9473,55,46,44,155,7.0,2-5,other
9474,69,54,30,772,9.0,2-4,major
9475,73,31,64,69,9.0,2-4,major
9476,76,41,26,91,9.0,2-4,major
9477,79,77,126,55,9.0,2-4,major
9478,74,71,61,257,2.0,3-11B,major
9479,57,45,159,261,0.0,2-2,other
9480,54,26,26,50,0.0,2-2,other
9481,54,27,164,160,9.0,3-10,diminished
9482,75,36,64,50,9.0,3-10,diminished
9483,78,45,52,105,9.0,3-10,diminished
9484,81,90,252,77,9.0,3-10,diminished
9485,79,69,173,94,4.0,4-26,minor
9486,76,70,77,217,4.0,4-26,minor
9487,71,76,106,233,4.0,4-26,minor
9488,67,49,33,150,4.0,4-26,minor
9489,69,62,83,96,4.0,4-26,minor
9490,59,24,29,167,9.0,2-6,other
9491,70,49,121,90,9.0,2-6,other
9492,67,53,40,148,11.0,2-2,other
9493,69,80,111,70,11.0,2-2,other
9494,66,46,45,152,11.0,2-2,other
9495,67,74,212,85,11.0,2-3,minor
9496,59,22,61,78,11.0,2-3,minor
9497,55,31,51,36,11.0,2-3,minor
9498,64,60,158,126,11.0,2-3,minor
9499,57,42,155,480,9.0,3-8A,major
9500,60,73,242,238,9.0,3-8A,major
9501,50,37,26,213,9.0,3-8A,major
9502,55,36,47,43,9.0,3-8A,major
9503,52,70,437,465,0.0,2-5,other
9504,55,60,105,247,0.0,2-5,other
9505,60,48,93,152,0.0,2-5,other
9506,62,65,83,90,0.0,2-5,other
9507,48,51,746,174,7.0,2-5,other
9508,63,40,159,109,7.0,2-5,other
9509,62,36,77,75,7.0,2-5,other
9510,60,36,38,60,7.0,2-5,other
9511,60,68,285,325,7.0,2-5,other
9512,35,66,453,632,7.0,2-4,major
9513,47,75,171,330,7.0,2-4,major
9514,48,61,51,1311,1.0,4-28,diminished
9515,49,53,77,26,1.0,4-28,diminished
9516,59,64,264,827,7.0,3-11A,minor
9517,81,60,78,713,7.0,2-1,other
9518,81,56,62,333,0.0,2-2,other
9519,81,32,62,1583,0.0,1-1,other
9520,64,30,57,2198,6.0,3-10,other
9521,60,49,56,455,5.0,3-11B,major
9522,52,62,207,156,0.0,3-11B,major
9523,49,45,70,208,0.0,3-11B,major
9524,50,70,164,557,2.0,3-11A,minor
9525,36,41,30,503,0.0,3-11B,major
9526,50,60,48,866,10.0,1-1,other
9527,53,39,118,115,10.0,1-1,other
9528,57,65,70,116,10.0,1-1,other
9529,57,49,90,253,9.0,2-3,minor
9530,58,34,100,97,9.0,2-3,minor
9531,60,67,85,121,9.0,2-3,minor
9532,45,46,208,37,9.0,2-3,minor
9533,61,51,108,70,9.0,2-3,minor
9534,63,46,66,126,9.0,2-3,minor
9535,64,14,50,131,9.0,2-3,minor
9536,65,62,52,108,9.0,2-3,minor
9537,65,87,206,325,2.0,3-8A,major
9538,63,52,83,143,2.0,3-8A,major
9539,60,41,81,99,2.0,3-8A,major
9540,50,50,28,377,10.0,2-5,other
9541,55,42,172,348,11.0,2-6,other
9542,50,28,72,103,11.0,2-6,other
9543,43,28,103,387,7.0,2-2,other
9544,50,26,44,1349,7.0,3-11B,major
9545,55,39,182,817,7.0,3-11B,major
9546,43,48,101,711,7.0,3-11B,major
9547,67,56,133,471,0.0,4-20,major
9548,67,41,66,495,9.0,4-27B,major
9549,67,36,510,2183,3.0,3-12,augmented
9550,52,49,99,447,3.0,3-12,augmented
9551,48,41,98,3118,3.0,3-4A,major
9552,69,73,59,956,7.0,3-11B,major
9553,55,42,263,633,9.0,2-4,major
9554,45,38,171,287,9.0,2-4,major
9555,67,60,58,38,9.0,2-4,major
9556,31,49,28,1669,7.0,2-4,major
9557,55,64,102,4100,11.0,2-3,minor
9558,50,62,92,127,11.0,2-3,minor
9559,61,46,49,1784,9.0,4-27B,major
9560,31,30,255,2070,0.0,2-5,other
9561,43,54,2051,2957,11.0,1-1,other
9562,60,71,107,4559,7.0,1-1,other
9563,62,69,90,123,7.0,1-1,other
9564,65,64,93,116,7.0,1-1,other
9565,67,75,62,126,7.0,1-1,other
9566,67,105,123,3495,9.0,4-27B,major
9567,65,31,73,130,9.0,4-27B,major
9568,62,35,103,110,9.0,4-27B,major
9569,62,46,26,483,2.0,2-3,minor
9570,55,22,138,471,10.0,2-4,major
9571,53,22,45,174,10.0,2-4,major
9572,34,37,42,1039,7.0,2-5,other
9573,34,39,30,236,7.0,2-5,other
9574,32,42,60,625,7.0,3-5B,other
9575,26,71,285,830,6.0,4-29A,minor
9576,71,64,70,385,10.0,2-4,major
9577,67,12,64,139,10.0,2-4,major
9578,62,47,73,82,10.0,2-4,major
9579,55,46,57,1056,7.0,2-4,major
9580,31,64,98,1173,4.0,4-15B,other
9581,32,48,77,144,4.0,4-15B,other
9582,27,49,464,596,9.0,3-8A,major
9583,26,55,457,461,9.0,3-8A,major
9584,30,37,47,412,9.0,3-8A,major
9585,30,34,266,271,1.0,2-3,other
9586,27,21,40,247,11.0,2-3,minor
9587,31,48,495,46,11.0,2-3,minor
9588,55,36,27,258,11.0,2-3,minor
9589,31,38,70,607,7.0,3-11B,major
9590,62,24,25,128,4.0,3-3B,other
9591,83,60,88,2388,8.0,4-21,other
9592,79,59,91,95,8.0,4-21,other
9593,74,56,68,118,8.0,4-21,other
9594,72,26,91,117,8.0,4-21,other
9595,70,55,70,133,8.0,4-21,other
9596,31,40,62,340,7.0,2-4,major
9597,31,35,74,492,7.0,2-4,major
9598,28,42,92,232,7.0,2-4,major
9599,28,36,41,255,7.0,2-4,major
9600,56,11,421,280,7.0,2-5,other
9601,27,27,60,334,7.0,2-5,other
9602,33,28,168,101,7.0,2-5,other
9603,33,33,112,248,7.0,2-5,other
9604,60,31,842,520,2.0,3-3B,other
9605,26,33,101,864,2.0,3-3B,other
9606,53,58,103,0,10.0,4-22A,major
9607,48,48,470,1175,3.0,4-22A,major
9608,67,78,128,358,3.0,4-22A,major
9609,68,51,141,539,9.0,4-16A,other
9610,67,51,343,233,9.0,4-16A,other
9611,53,39,9,481,10.0,2-5,other
9612,60,50,439,90,10.0,2-5,other
9613,62,54,322,88,10.0,2-5,other
9614,65,61,202,91,10.0,2-5,other
9615,72,72,101,123,10.0,2-5,other
9616,74,75,70,73,10.0,2-5,other
9617,77,65,25,73,10.0,2-5,other
9618,85,50,122,328,8.0,4-15B,other
9619,82,71,110,173,8.0,4-15B,other
9620,80,1,73,133,8.0,4-15B,other
9621,70,73,51,28,8.0,4-15B,other
9622,70,76,33,71,8.0,4-15B,other
9623,69,81,39,52,8.0,4-15B,other
9624,70,87,37,47,8.0,4-15B,other
9625,46,62,219,238,3.0,2-5,other
9626,70,63,36,975,10.0,4-16A,other
9627,72,65,120,213,10.0,4-16A,other
9628,74,50,117,350,2.0,2-2,other
9629,77,66,182,189,2.0,2-2,other
9630,53,41,701,33,2.0,2-2,other
9631,73,61,117,163,2.0,2-2,other
9632,74,83,99,215,2.0,2-2,other
9633,73,71,122,375,7.0,3-11A,minor
9634,81,65,64,952,2.0,3-11B,major
9635,81,61,87,395,5.0,4-24,augmented
9636,26,78,65,571,10.0,1-1,other
9637,89,115,72,1686,5.0,4-20,other
9638,87,89,52,87,5.0,4-20,other
9639,84,75,26,57,5.0,4-20,other
9640,82,77,43,49,5.0,4-20,other
9641,75,52,26,109,3.0,4-23,other
9642,72,44,13,34,3.0,4-23,other
9643,70,60,28,34,3.0,4-23,other
9644,68,55,21,29,3.0,4-23,other
9645,65,49,12,27,3.0,4-23,other
9646,63,63,22,34,3.0,4-23,other
9647,61,50,18,58,2.0,2-4,major
9648,48,50,382,284,5.0,2-2,other
9649,66,51,90,392,5.0,4-24,augmented
9650,53,57,41,385,10.0,4-20,major
9651,58,40,968,191,10.0,4-20,major
9652,62,54,65,178,10.0,4-20,major
9653,62,43,55,409,10.0,2-5,other
9654,74,48,132,213,7.0,3-11A,minor
9655,55,57,183,544,0.0,4-23,minor
9656,58,54,121,194,0.0,4-23,minor
9657,67,67,58,190,0.0,4-23,minor
9658,70,46,26,192,0.0,4-23,minor
9659,69,64,43,30,0.0,4-23,minor
9660,68,50,81,189,9.0,3-5B,other
9661,68,55,210,159,9.0,3-5B,other
9662,67,54,189,187,9.0,3-5B,other
9663,53,59,179,415,10.0,2-5,other
9664,71,39,62,390,0.0,1-1,other
9665,58,60,39,131,0.0,1-1,other
9666,59,75,189,234,2.0,4-26,minor
9667,58,76,152,185,2.0,4-26,minor
9668,96,60,83,1343,5.0,3-11B,major
9669,33,49,82,193,5.0,3-11B,major
9670,69,117,153,1313,11.0,3-7A,minor
9671,67,107,166,221,11.0,3-7A,minor
9672,66,87,96,162,11.0,3-7A,minor
9673,53,4,78,1066,4.0,4-18A,major
9674,43,68,333,113,4.0,4-18A,major
9675,43,69,51,382,8.0,4-28,diminished
9676,73,36,112,1000,6.0,2-3,minor
9677,58,32,48,2319,1.0,4-26,other
9678,73,84,117,881,6.0,4-28,diminished
9679,70,63,81,403,11.0,4-14B,other
9680,66,70,108,766,9.0,2-1,other
9681,69,60,310,388,11.0,3-8B,other
9682,68,57,43,385,4.0,3-11B,major
9683,49,63,175,383,1.0,4-26,other
9684,54,66,153,204,1.0,4-26,other
9685,56,70,135,196,1.0,4-26,other
9686,54,76,179,392,6.0,5-29B,minor
9687,53,63,244,188,6.0,5-29B,minor
9688,63,1,228,59,6.0,5-29B,minor
9689,52,13,44,908,7.0,4-20,major
9690,27,62,50,183,7.0,4-20,major
9691,71,70,108,2682,4.0,6-32,minor
9692,74,61,57,322,4.0,6-32,minor
9693,73,53,76,38,4.0,6-32,minor
9694,72,49,103,66,6.0,3-5B,other
9695,72,56,129,147,6.0,3-5B,other
9696,72,53,171,195,6.0,3-5B,other
9697,62,77,171,583,6.0,2-3,minor
9698,86,117,75,183,6.0,2-3,minor
9699,87,87,85,125,6.0,2-3,minor
9700,86,83,59,94,6.0,2-3,minor
9701,84,80,40,74,6.0,2-3,minor
9702,75,72,49,239,5.0,2-1,other
9703,74,67,25,41,5.0,2-1,other
9704,72,72,30,38,5.0,2-1,other
9705,70,75,63,49,5.0,2-1,other
9706,66,66,55,35,5.0,2-1,other
9707,63,46,49,119,6.0,2-2,other
9708,62,41,55,51,6.0,2-2,other
9709,61,56,35,62,6.0,2-2,other
9710,60,49,42,55,6.0,2-2,other
9711,50,46,275,364,7.0,3-4A,major
9712,62,50,92,766,0.0,4-21,major
9713,62,55,297,192,0.0,4-21,major
9714,64,65,99,120,0.0,4-21,major
9715,65,64,50,264,0.0,4-21,major
9716,57,56,606,26,0.0,4-21,major
9717,66,50,149,158,0.0,4-21,major
9718,65,51,164,326,2.0,3-11B,major
9719,66,57,127,121,2.0,3-11B,major
9720,71,70,391,137,2.0,3-11B,major
9721,66,62,373,412,5.0,3-3B,other
9722,73,67,106,550,11.0,4-11B,minor
9723,73,47,32,376,6.0,2-5,other
9724,73,57,77,400,5.0,4-24,augmented
9725,69,39,117,198,5.0,3-8B,other
9726,74,76,58,170,5.0,3-8B,other
9727,76,75,71,407,6.0,4-26,minor
9728,76,84,81,359,6.0,4-26,minor
9729,74,27,44,35,6.0,4-26,minor
9730,86,127,218,351,0.0,3-8A,major
9731,70,57,128,397,4.0,3-8B,other
9732,60,57,321,393,5.0,5-27A,major
9733,67,106,19,0,0.0,5-27A,other
9734,72,119,70,50,0.0,5-27A,other
9735,63,90,52,110,0.0,5-27A,other
9736,68,78,26,294,0.0,4-26,minor
9737,66,71,23,120,7.0,4-22A,major
9738,57,74,141,1267,0.0,3-7B,other
9739,70,7,30,171,0.0,3-11B,other
9740,63,100,47,254,2.0,4-14A,minor
9741,62,86,55,56,2.0,4-14A,minor
9742,61,88,52,56,2.0,4-14A,minor
9743,57,71,69,115,5.0,3-11B,major
9744,74,72,251,67,5.0,3-11B,major
9745,43,85,19,57,5.0,3-11B,major
9746,68,66,40,120,4.0,4-18A,major
9747,43,60,4,112,0.0,4-22A,major
9748,67,77,55,313,7.0,1-1,other
9749,72,68,21,92,9.0,3-7A,minor
9750,64,89,63,326,2.0,4-26,minor
9751,61,98,107,122,2.0,3-11A,minor
9752,60,89,52,116,5.0,2-4,major
9753,43,72,57,494,0.0,4-22A,major
9754,76,109,35,111,4.0,2-5,other
9755,67,64,20,115,4.0,2-1,other
9756,56,61,68,124,0.0,2-4,major
9757,56,64,70,122,9.0,2-5,other
9758,55,57,58,61,4.0,3-7A,minor
9759,47,75,49,596,9.0,4-16A,other
9760,47,65,59,308,3.0,3-4B,other
9761,46,82,532,293,3.0,3-11A,other
9762,64,76,27,66,0.0,2-4,other
9763,68,83,9,27,0.0,2-4,other
9764,80,77,14,78,0.0,2-4,major
9765,80,73,14,31,0.0,2-4,major
9766,80,60,12,38,0.0,2-4,major
9767,80,62,11,30,0.0,2-4,major
9768,80,53,10,35,0.0,2-4,major
9769,80,57,8,28,0.0,2-4,major
9770,54,78,30,326,1.0,3-7A,minor
9771,52,92,68,479,0.0,2-4,other
9772,54,77,68,120,5.0,3-4B,other
9773,49,76,45,119,0.0,4-26,minor
9774,48,89,19,62,0.0,4-26,minor
9775,53,69,11,423,8.0,3-7B,other
9776,57,84,120,123,10.0,4-14A,other
9777,56,91,47,59,10.0,4-14A,other
9778,56,81,49,56,10.0,4-14A,other
9779,55,80,156,61,10.0,4-14A,other
9780,55,86,22,175,10.0,2-5,other
9781,45,85,21,111,1.0,4-24,other
9782,51,100,78,133,0.0,4-20,other
9783,42,91,51,179,0.0,2-5,other
9784,63,85,7,29,0.0,2-5,other
9785,58,70,30,151,0.0,3-7A,minor
9786,73,74,16,62,0.0,3-7A,minor
9787,75,71,22,29,0.0,3-7A,minor
9788,57,100,74,269,8.0,4-26,other
9789,56,101,70,130,5.0,4-20,other
9790,56,97,62,111,5.0,2-4,other
9791,72,94,37,119,5.0,3-8B,other
9792,72,90,284,61,5.0,3-8B,other
9793,27,96,57,59,5.0,3-8B,other
9794,61,69,40,63,5.0,3-8B,other
9795,48,68,317,124,5.0,2-4,other
9796,61,55,37,78,0.0,2-2,other
9797,63,72,39,32,0.0,2-2,other
9798,65,71,76,52,0.0,2-2,other
9799,77,67,19,225,5.0,3-3A,major
9800,57,84,62,386,10.0,2-5,other
9801,59,76,55,124,0.0,2-2,other
9802,59,72,34,111,5.0,3-4A,other
9803,58,65,36,33,5.0,3-4A,other
9804,56,60,59,93,5.0,3-12,augmented
9805,77,75,30,116,5.0,3-8B,other
9806,67,69,36,101,5.0,2-2,other
9807,51,73,47,146,0.0,4-26,other
9808,52,87,51,58,0.0,4-26,other
9809,53,84,49,56,0.0,4-26,other
9810,53,65,11,62,0.0,4-26,other
9811,42,62,111,177,3.0,4-29A,other
9812,52,57,80,59,3.0,4-29A,other
9813,58,55,33,49,3.0,4-29A,other
9814,79,99,14,0,7.0,5-17,minor
9815,79,95,14,34,7.0,5-17,minor
9816,79,90,18,39,7.0,5-17,minor
9817,76,45,8,34,7.0,5-17,minor
9818,76,88,72,374,9.0,2-5,other
9819,74,44,18,81,9.0,2-5,other
9820,76,58,16,32,9.0,2-5,other
9821,57,68,34,456,2.0,5-27B,minor
9822,43,47,6,664,10.0,5-27A,major
9823,70,59,17,316,2.0,3-11A,minor
9824,48,36,153,252,9.0,5-31B,major
9825,65,46,22,120,1.0,3-10,other
9826,48,34,47,112,1.0,3-10,other
9827,77,4,17,1031,9.0,4-23,minor
9828,50,38,189,165,5.0,3-11B,major
9829,62,59,31,637,7.0,4-14A,minor
9830,67,32,10,165,0.0,4-27B,major
9831,72,58,20,32,0.0,4-27B,major
9832,79,74,13,34,0.0,4-27B,major
9833,84,65,5,40,0.0,4-27B,major
9834,88,83,13,37,0.0,4-27B,major
9835,56,38,31,255,4.0,4-15B,other
9836,45,66,16,125,5.0,4-24,augmented
9837,60,58,60,439,5.0,4-19B,augmented
9838,57,50,16,315,5.0,2-5,other
9839,50,47,61,78,5.0,2-5,other
9840,73,57,11,78,9.0,3-7B,other
9841,46,52,20,888,0.0,5-30B,other
9842,45,47,103,43,0.0,5-30B,other
9843,79,101,37,1046,5.0,3-8B,other
9844,77,64,69,46,5.0,3-8B,other
9845,45,58,6,67,5.0,3-8B,other
9846,72,60,17,146,5.0,4-24,augmented
9847,76,72,20,40,5.0,4-24,augmented
9848,79,83,17,34,5.0,4-24,augmented
9849,45,41,22,496,9.0,2-2,other
9850,50,37,68,130,2.0,2-4,major
9851,60,44,29,36,2.0,2-4,major
9852,61,56,21,39,2.0,2-4,major
9853,44,49,18,291,6.0,2-6,other
9854,43,54,7,37,6.0,2-6,other
9855,74,79,15,163,10.0,2-1,other
9856,77,90,18,30,10.0,2-1,other
9857,82,53,139,68,10.0,4-11A,major
9858,53,45,18,163,7.0,3-11A,minor
9859,77,54,12,458,1.0,4-28,diminished
9860,79,65,9,36,1.0,4-28,diminished
9861,48,41,19,116,9.0,4-22B,minor
9862,41,66,51,234,2.0,4-23,minor
9863,68,80,26,965,2.0,3-7A,minor
9864,65,52,24,76,9.0,2-3,minor
9865,28,53,5,633,0.0,2-4,major
9866,56,46,17,279,0.0,3-11B,major
9867,74,89,22,1375,1.0,5-31A,diminished
9868,68,75,31,31,1.0,5-31A,diminished
9869,67,52,29,38,1.0,5-31A,diminished
9870,62,37,18,41,1.0,5-31A,diminished
9871,67,64,32,34,1.0,5-31A,diminished
9872,56,57,40,168,2.0,2-3,minor
9873,55,80,37,115,2.0,2-3,minor
9874,53,62,16,91,8.0,2-1,other
9875,52,58,70,33,8.0,2-1,other
9876,55,64,26,78,8.0,2-1,other
9877,53,41,73,39,8.0,2-1,other
9878,50,44,415,76,8.0,2-1,other
9879,44,64,30,374,8.0,2-1,other
9880,45,47,146,42,8.0,2-1,other
9881,57,88,208,201,10.0,4-16A,major
9882,45,47,143,157,10.0,4-16A,major
9883,45,65,29,193,7.0,4-18A,minor
9884,84,110,53,48,7.0,4-18A,minor
9885,81,62,47,131,7.0,5-29B,minor
9886,73,50,25,111,5.0,3-4A,major
9887,76,89,35,71,5.0,3-4A,major
9888,69,53,19,79,2.0,3-11A,minor
9889,67,40,29,74,8.0,2-6,other
9890,65,47,25,35,8.0,2-6,other
9891,64,54,25,37,8.0,2-6,other
9892,59,45,245,97,2.0,3-11A,minor
9893,50,33,6,78,2.0,3-11A,minor
9894,45,52,6,79,2.0,3-11A,minor
9895,38,53,6,39,2.0,3-11A,minor
9896,62,57,19,122,2.0,3-8A,major
9897,63,60,15,28,2.0,3-8A,major
9898,65,57,18,30,2.0,3-8A,major
9899,66,64,22,30,2.0,3-8A,major
9900,75,64,19,90,6.0,3-8A,other
9901,77,69,19,28,6.0,3-8A,other
9902,82,59,14,60,2.0,4-25,major
9903,84,74,17,28,2.0,4-25,major
9904,86,88,20,30,2.0,4-25,major
9905,81,71,17,61,0.0,3-9,other
9906,77,55,17,30,0.0,3-9,other
9907,74,49,17,28,0.0,3-9,other
9908,65,53,70,207,9.0,1-1,other
9909,63,61,27,106,10.0,2-4,major
9910,52,24,67,94,4.0,2-1,other
9911,48,64,11,70,4.0,2-1,other
9912,70,54,24,320,9.0,3-11A,minor
9913,64,43,15,145,5.0,2-5,other
9914,65,60,14,31,5.0,2-5,other
9915,72,68,13,61,5.0,4-16A,major
9916,68,74,16,29,5.0,4-16A,major
9917,69,70,18,30,5.0,4-16A,major
9918,76,69,14,62,5.0,4-8,other
9919,72,49,19,27,5.0,4-8,other
9920,73,62,40,27,5.0,4-8,other
9921,80,60,17,61,1.0,5-11B,minor
9922,76,36,19,27,1.0,5-11B,minor
9923,77,62,40,28,1.0,5-11B,minor
9924,84,68,20,62,7.0,3-9,other
9925,81,60,25,28,7.0,3-9,other
9926,82,69,21,26,7.0,3-9,other
9927,85,69,17,57,9.0,5-24A,minor
9928,87,67,17,30,9.0,5-24A,minor
9929,91,66,15,95,6.0,2-3,minor
9930,93,75,18,29,6.0,2-3,minor
9931,94,69,19,30,6.0,2-3,minor
9932,97,59,17,62,1.0,5-31B,diminished
9933,99,72,17,28,1.0,5-31B,diminished
9934,100,88,19,31,1.0,5-31B,diminished
9935,101,77,21,63,7.0,3-9,other
9936,97,62,17,30,7.0,3-9,other
9937,100,91,51,29,7.0,3-9,other
9938,95,62,13,58,2.0,2-1,other
9939,89,66,10,136,9.0,2-3,minor
9940,50,49,27,74,9.0,2-3,minor
9941,50,64,29,84,9.0,2-3,minor
9942,43,57,7,42,9.0,2-3,minor
9943,74,99,29,85,9.0,2-3,minor
9944,72,74,26,75,10.0,4-11A,major
9945,70,63,25,39,10.0,4-11A,major
9946,65,38,10,89,10.0,3-4A,major
9947,69,83,33,36,10.0,3-4A,major
9948,62,33,20,81,7.0,2-5,other
9949,46,71,20,398,7.0,3-5B,other
9950,56,74,17,88,7.0,3-5B,other
9951,52,63,27,34,7.0,3-5B,other
9952,45,70,11,37,7.0,3-5B,other
9953,57,33,15,679,2.0,4-26,minor
9954,62,50,68,165,2.0,5-27B,minor
9955,50,44,16,73,2.0,5-27B,minor
9956,47,39,53,45,2.0,5-27B,minor
9957,47,59,205,76,2.0,5-27B,minor
9958,77,82,19,447,0.0,3-11B,major
9959,72,67,25,117,3.0,4-8,other
9960,40,85,35,869,7.0,6-47B,minor
9961,84,108,18,258,9.0,3-1,other
9962,84,87,22,333,5.0,4-16A,other
9963,81,66,19,33,5.0,4-16A,other
9964,72,34,16,35,5.0,4-16A,other
9965,69,71,12,151,6.0,3-5B,other
9966,72,80,14,32,6.0,3-5B,other
9967,69,57,25,397,2.0,3-7B,other
9968,65,52,22,33,2.0,3-7B,other
9969,62,52,20,29,2.0,3-7B,other
9970,38,54,23,62,9.0,2-6,other
9971,69,55,12,162,2.0,4-25,major
9972,75,57,11,100,2.0,4-15B,other
9973,80,71,16,74,6.0,2-2,other
9974,81,45,11,191,7.0,3-7B,other
9975,84,87,22,27,7.0,3-7B,other
9976,82,75,15,29,7.0,3-7B,other
9977,81,68,25,65,10.0,4-24,augmented
9978,79,58,21,28,10.0,4-24,augmented
9979,53,35,16,251,7.0,3-11A,minor
9980,48,58,250,239,9.0,5-31B,major
9981,47,47,23,313,9.0,3-11A,minor
9982,48,65,30,37,9.0,3-11A,minor
9983,48,50,134,44,9.0,3-11A,minor
9984,36,48,14,78,9.0,3-11A,minor
9985,36,56,18,45,9.0,3-11A,minor
9986,48,68,40,76,9.0,3-11A,minor
9987,36,67,5,43,9.0,3-11A,minor
9988,50,46,23,1038,5.0,3-11B,major
9989,43,45,6,42,5.0,3-11B,major
9990,70,51,13,116,10.0,3-4A,major
9991,74,66,14,32,10.0,3-4A,major
9992,77,68,15,30,10.0,3-4A,major
9993,81,94,18,29,10.0,3-4A,major
9994,82,62,21,60,10.0,3-6,major
9995,74,60,15,120,7.0,3-11A,minor
9996,72,48,25,30,7.0,3-11A,minor
9997,69,49,12,33,7.0,3-11A,minor
9998,67,34,24,63,0.0,4-24,augmented
9999,57,35,9,896,5.0,4-16A,other
10000,74,35,18,591,4.0,2-1,other
10001,87,42,12,253,4.0,1-1,other
10002,85,33,7,576,2.0,2-5,other
10003,62,37,8,861,7.0,3-11A,minor
10004,73,31,15,200,1.0,3-10,other
10005,64,48,21,555,5.0,4-19B,augmented
10006,57,43,17,76,5.0,3-11B,major
10007,62,38,24,73,2.0,3-11A,minor
10008,57,51,21,79,2.0,3-11A,minor
10009,58,60,24,40,2.0,3-11A,minor
10010,60,64,32,34,2.0,3-11A,minor
10011,72,68,5,187,11.0,2-2,other
10012,74,74,11,33,11.0,2-2,other
10013,75,72,12,27,11.0,2-2,other
10014,77,77,12,27,11.0,2-2,other
10015,80,59,17,61,6.0,3-5B,other
10016,81,60,16,27,6.0,3-5B,other
10017,82,57,15,27,6.0,3-5B,other
10018,84,64,14,56,4.0,2-5,other
10019,85,69,13,27,4.0,2-5,other
10020,86,68,16,29,4.0,2-5,other
10021,84,34,10,67,7.0,3-7B,other
10022,81,63,52,95,2.0,4-23,minor
10023,84,75,24,71,2.0,4-23,minor
10024,53,58,61,1081,9.0,3-11A,minor
10025,53,41,16,114,9.0,3-11A,minor
10026,67,24,17,115,10.0,2-1,other
10027,69,40,21,85,10.0,3-4A,major
10028,70,59,17,105,9.0,2-2,other
10029,72,60,19,30,9.0,2-2,other
10030,73,60,24,33,9.0,2-2,other
10031,76,50,20,62,1.0,3-8A,other
10032,77,49,20,31,1.0,3-8A,other
10033,80,56,15,102,2.0,3-7B,other
10034,79,59,17,34,2.0,3-7B,other
10035,77,80,26,59,2.0,3-7B,other
10036,74,44,27,68,7.0,2-2,other
10037,69,55,75,117,2.0,3-7B,other
10038,61,60,15,42,2.0,3-7B,other
10039,68,63,15,39,2.0,3-7B,other
10040,56,42,24,361,2.0,4-26,minor
10041,62,57,32,147,10.0,4-20,major
10042,58,49,14,30,10.0,4-20,major
10043,52,65,21,458,0.0,4-16A,other
10044,45,36,10,43,0.0,4-16A,other
10045,64,66,15,425,1.0,2-2,other
10046,65,51,20,59,7.0,3-9,other
10047,60,44,8,32,7.0,3-9,other
10048,69,75,28,33,7.0,3-9,other
10049,62,50,64,53,7.0,3-9,other
10050,65,53,18,30,7.0,3-9,other
10051,43,78,54,330,2.0,4-26,minor
10052,69,77,35,80,5.0,2-1,other
10053,45,66,8,956,5.0,3-8B,other
10054,101,94,24,1193,7.0,5-29B,minor
10055,96,88,29,36,7.0,5-29B,minor
10056,89,58,9,74,9.0,2-4,major
10057,100,94,23,88,2.0,2-5,other
10058,97,77,29,36,2.0,2-5,other
10059,93,74,23,38,2.0,2-5,other
10060,93,84,21,87,2.0,2-5,other
10061,89,68,25,33,2.0,2-5,other
10062,83,47,12,73,2.0,2-2,other
10063,88,91,28,38,2.0,2-2,other
10064,91,87,25,41,2.0,2-2,other
10065,89,75,23,33,2.0,2-2,other
10066,80,52,23,463,9.0,3-11A,minor
10067,78,47,27,31,9.0,3-11A,minor
10068,77,58,19,28,9.0,3-11A,minor
10069,74,50,16,65,3.0,3-4B,other
10070,77,72,23,26,3.0,3-4B,other
10071,72,66,23,123,7.0,2-5,other
10072,70,58,24,37,7.0,2-5,other
10073,69,67,19,178,5.0,3-9,other
10074,65,56,34,36,5.0,3-9,other
10075,48,60,67,244,3.0,2-5,other
10076,57,59,8,1561,5.0,3-11B,major
10077,81,33,8,256,0.0,1-1,other
10078,82,65,185,116,10.0,4-11A,major
10079,74,52,26,229,10.0,3-12,augmented
10080,45,58,59,598,1.0,4-13B,diminished
10081,50,71,30,489,5.0,3-11B,major
10082,50,56,18,51,5.0,3-11B,major
10083,50,64,18,70,5.0,3-11B,major
10084,47,46,126,48,5.0,3-11B,major
10085,62,36,34,118,6.0,3-11A,minor
10086,47,41,15,70,6.0,3-11A,minor
10087,56,60,108,123,8.0,5-34,other
10088,46,33,19,121,8.0,5-34,other
10089,74,91,20,119,9.0,5-31B,major
10090,65,51,23,74,8.0,2-1,other
10091,62,47,7,26,8.0,2-1,other
10092,65,76,19,29,8.0,2-1,other
10093,67,68,19,30,8.0,2-1,other
10094,65,66,41,31,8.0,2-1,other
10095,62,68,13,37,8.0,2-1,other
10096,53,64,28,242,7.0,2-5,other
10097,50,39,63,46,7.0,2-5,other
10098,50,74,11,74,7.0,2-5,other
10099,57,54,93,1771,2.0,4-26,minor
10100,89,92,200,239,5.0,3-5B,other
10101,78,50,19,207,6.0,3-5B,other
10102,77,53,19,36,6.0,3-5B,other
10103,75,72,21,86,6.0,3-5B,other
10104,74,62,15,32,6.0,3-5B,other
10105,73,53,20,28,6.0,3-5B,other
10106,69,17,8,475,10.0,3-11B,major
10107,48,68,6,128,9.0,4-18A,major
10108,68,45,20,130,9.0,4-18A,major
10109,41,51,6,711,5.0,3-11B,major
10110,46,44,28,159,4.0,5-29B,diminished
10111,45,64,5,75,4.0,5-29B,diminished
10112,50,37,41,617,2.0,3-7B,other
10113,50,36,20,120,2.0,5-16B,other
10114,57,69,15,323,10.0,3-11B,major
10115,56,63,31,39,10.0,3-11B,major
10116,55,47,63,45,10.0,3-11B,major
10117,54,64,17,66,10.0,3-11B,major
10118,53,63,15,30,10.0,3-11B,major
10119,52,62,97,34,10.0,3-11B,major
10120,67,67,19,143,10.0,3-11B,major
10121,72,76,14,29,10.0,3-11B,major
10122,79,90,41,32,10.0,3-11B,major
10123,63,74,46,449,1.0,4-28,diminished
10124,50,46,251,320,2.0,3-11A,minor
10125,61,63,35,40,2.0,3-11A,minor
10126,50,80,80,238,5.0,3-11B,major
10127,65,54,8,336,11.0,2-6,other
10128,71,67,24,29,11.0,2-6,other
10129,73,34,6,30,11.0,2-6,other
10130,88,88,56,32,11.0,2-6,other
10131,79,17,18,137,9.0,2-6,other
10132,52,48,20,513,8.0,2-2,other
10133,57,91,216,690,4.0,3-8B,other
10134,45,61,88,155,10.0,4-16A,major
10135,57,90,197,90,4.0,3-8B,other
10136,45,80,182,147,7.0,3-11A,minor
10137,57,99,182,90,10.0,3-11B,major
10138,45,74,191,143,1.0,3-10,minor
10139,57,85,110,116,4.0,2-6,other
10140,45,62,177,116,5.0,2-5,other
10141,57,89,112,123,2.0,2-5,other
10142,45,64,303,79,5.0,3-4A,major
10143,45,54,17,327,5.0,3-11B,major
10144,50,42,9,332,0.0,4-24,augmented
10145,82,38,16,208,10.0,3-6,major
10146,82,30,8,122,7.0,4-22B,minor
10147,65,47,21,565,1.0,3-10,other
10148,48,44,8,70,7.0,2-3,minor
10149,41,58,14,474,2.0,3-9,other
10150,62,89,68,886,2.0,4-26,minor
10151,62,44,16,542,7.0,4-26,minor
10152,74,87,20,1820,9.0,5-31B,major
10153,62,38,28,115,9.0,3-1,other
10154,65,53,49,61,9.0,3-1,other
10155,67,78,46,1373,7.0,5-17,minor
10156,77,67,38,140,5.0,3-8B,other
10157,70,74,23,1783,10.0,3-11B,major
10158,68,9,43,174,9.0,5-16A,other
10159,76,53,160,612,2.0,5-27B,minor
10160,84,62,30,341,10.0,4-16A,major
10161,72,46,23,283,6.0,3-5B,other
10162,70,71,129,757,10.0,5-27A,major
10163,62,57,48,80,10.0,5-27A,major
10164,62,43,26,86,10.0,5-27A,major
10165,69,45,21,1584,1.0,4-21,other
10166,69,28,16,83,1.0,2-2,other
10167,69,32,31,71,1.0,2-2,other
10168,68,46,20,447,10.0,3-6,major
10169,68,47,18,69,10.0,3-6,major
10170,68,55,20,73,10.0,3-6,major
10171,79,60,26,1111,10.0,3-4A,major
10172,50,61,23,3581,5.0,3-11B,major
10173,62,47,32,699,7.0,3-7A,minor
10174,46,45,90,148,7.0,3-7A,minor
10175,55,40,7,56,7.0,3-7A,minor
10176,60,54,22,37,7.0,3-7A,minor
10177,64,66,11,31,7.0,3-7A,minor
10178,72,54,8,42,7.0,3-7A,minor
10179,76,68,18,37,7.0,3-7A,minor
10180,86,80,23,648,5.0,4-16A,other
10181,77,36,26,97,2.0,6-47B,minor
10182,74,41,12,32,2.0,6-47B,minor
10183,77,73,63,36,2.0,6-47B,minor
10184,79,65,30,70,2.0,6-47B,minor
10185,77,48,91,44,2.0,6-47B,minor
10186,74,32,41,359,7.0,2-2,other
10187,74,53,18,227,7.0,2-2,other
10188,77,36,67,40,7.0,2-2,other
10189,65,53,10,172,1.0,3-5A,other
10190,62,58,8,356,7.0,2-5,other
10191,65,64,19,40,7.0,2-5,other
10192,67,45,31,29,7.0,2-5,other
10193,65,38,24,29,7.0,2-5,other
10194,62,42,18,31,7.0,2-5,other
10195,61,38,66,35,7.0,2-5,other
10196,64,78,27,76,7.0,2-5,other
10197,62,33,60,48,7.0,2-5,other
10198,57,54,21,67,7.0,2-5,other
10199,55,47,77,44,7.0,2-5,other
10200,52,26,7,90,7.0,2-5,other
10201,55,60,58,32,7.0,2-5,other
10202,57,38,18,68,7.0,2-5,other
10203,55,62,316,56,7.0,2-1,other
10204,57,46,18,399,4.0,2-6,other
10205,58,47,21,29,4.0,2-6,other
10206,69,73,21,206,7.0,2-1,other
10207,70,74,13,34,7.0,2-1,other
10208,78,53,20,142,3.0,2-1,other
10209,81,71,28,63,2.0,5-35,minor
10210,76,78,16,41,2.0,5-35,minor
10211,79,85,25,36,2.0,5-35,minor
10212,77,74,17,44,2.0,5-35,minor
10213,73,69,21,41,2.0,5-35,minor
10214,76,77,24,39,2.0,5-35,minor
10215,74,71,23,41,2.0,5-35,minor
10216,67,55,67,82,5.0,3-11B,major
10217,65,55,168,77,5.0,3-11B,major
10218,66,37,29,156,2.0,3-8A,major
10219,68,58,26,33,2.0,3-8A,major
10220,70,67,8,33,2.0,3-8A,major
10221,75,37,11,60,6.0,2-6,other
10222,77,55,20,28,6.0,2-6,other
10223,80,59,27,29,6.0,2-6,other
10224,84,76,21,63,4.0,2-6,other
10225,80,72,33,35,4.0,2-6,other
10226,81,80,21,33,4.0,2-6,other
10227,81,60,35,66,10.0,3-4A,major
10228,74,44,54,115,7.0,2-2,other
10229,70,43,38,123,10.0,3-11B,major
10230,69,55,54,245,4.0,3-8B,other
10231,72,74,37,70,4.0,3-8B,other
10232,69,85,92,163,10.0,2-4,other
10233,67,42,25,170,9.0,2-2,other
10234,66,42,24,27,9.0,2-2,other
10235,64,42,24,34,9.0,2-2,other
10236,61,31,35,137,0.0,2-3,minor
10237,58,46,59,120,0.0,1-1,other
10238,56,45,26,67,0.0,1-1,other
10239,57,50,33,41,0.0,1-1,other
10240,48,66,9,76,0.0,1-1,other
10241,67,58,8,170,10.0,3-4A,major
10242,91,70,19,1439,4.0,2-2,other
10243,89,75,25,41,4.0,2-2,other
10244,88,69,29,78,1.0,3-5A,other
10245,81,46,59,125,7.0,2-5,other
10246,84,72,29,70,7.0,2-5,other
10247,82,39,22,103,0.0,2-2,other
10248,79,58,71,68,9.0,2-4,major
10249,76,18,70,124,5.0,2-4,other
10250,73,49,59,117,2.0,2-1,other
10251,74,42,64,119,2.0,5-27B,minor
10252,69,65,21,72,2.0,5-27B,minor
10253,67,54,77,40,2.0,5-27B,minor
10254,65,69,52,107,2.0,5-27B,minor
10255,64,41,72,112,7.0,2-2,other
10256,65,79,72,94,7.0,2-2,other
10257,67,36,29,80,7.0,2-2,other
10258,65,49,24,28,7.0,2-2,other
10259,64,53,13,27,7.0,2-2,other
10260,65,80,62,33,7.0,2-2,other
10261,64,34,63,128,11.0,2-2,other
10262,65,58,60,75,11.0,2-2,other
10263,67,38,27,69,11.0,2-2,other
10264,65,39,24,26,11.0,2-2,other
10265,65,58,58,64,4.0,3-8B,other
10266,38,60,8,2229,2.0,4-26,minor
10267,62,54,14,204,2.0,3-8A,major
10268,63,55,23,38,2.0,3-8A,major
10269,65,51,19,38,2.0,3-8A,major
10270,66,59,19,41,2.0,3-8A,major
10271,69,37,16,86,6.0,4-29A,other
10272,70,68,22,38,6.0,4-29A,other
10273,80,55,28,113,3.0,2-1,other
10274,55,37,87,72,11.0,5-2A,minor
10275,81,57,47,28,11.0,5-2A,minor
10276,81,48,35,115,7.0,5-23A,minor
10277,85,53,10,750,1.0,4-13B,other
10278,84,36,16,171,5.0,4-20,major
10279,88,32,23,189,7.0,3-9,other
10280,58,38,44,288,10.0,4-16A,major
10281,96,91,20,28,10.0,4-16A,major
10282,94,55,17,36,10.0,4-16A,major
10283,96,87,42,31,10.0,4-16A,major
10284,82,50,18,160,1.0,2-1,other
10285,84,68,43,33,1.0,2-1,other
10286,81,55,50,109,2.0,3-11A,minor
10287,76,52,17,78,2.0,3-11A,minor
10288,79,76,54,39,2.0,3-11A,minor
10289,73,42,65,258,9.0,2-5,other
10290,67,31,68,237,10.0,2-1,other
10291,67,51,42,119,10.0,2-5,other
10292,65,30,58,109,9.0,2-2,other
10293,68,56,55,143,7.0,3-5B,other
10294,68,38,61,112,8.0,3-8A,other
10295,65,30,10,72,8.0,3-8A,other
10296,67,44,55,37,8.0,3-8A,other
10297,74,73,32,1476,5.0,3-8B,other
10298,61,53,19,43,5.0,3-8B,other
10299,65,57,68,32,5.0,3-8B,other
10300,65,60,61,244,7.0,2-5,other
10301,62,66,23,80,7.0,2-5,other
10302,57,47,56,41,7.0,2-5,other
10303,57,48,21,77,7.0,2-5,other
10304,55,75,47,56,7.0,2-5,other
10305,49,35,8,56,7.0,2-5,other
10306,53,70,59,42,7.0,2-5,other
10307,53,53,19,83,7.0,2-5,other
10308,49,39,7,119,2.0,2-2,other
10309,52,66,67,34,2.0,2-2,other
10310,55,50,56,136,2.0,2-3,minor
10311,57,65,33,67,2.0,2-3,minor
10312,58,51,47,53,2.0,2-3,minor
10313,61,50,18,553,9.0,3-8A,major
10314,57,66,32,710,2.0,3-7A,minor
10315,95,80,21,297,10.0,4-16A,other
10316,98,89,33,38,10.0,4-16A,other
10317,92,68,181,92,0.0,2-4,major
10318,64,40,14,74,0.0,2-4,major
10319,85,35,29,166,10.0,5-20B,major
10320,86,51,26,36,10.0,5-20B,major
10321,89,74,27,34,10.0,5-20B,major
10322,86,64,65,44,10.0,5-20B,major
10323,84,76,66,116,10.0,3-4A,major
10324,55,1,94,31,10.0,3-4A,major
10325,57,16,28,53,10.0,3-4A,major
10326,82,74,64,26,10.0,3-4A,major
10327,79,48,26,171,9.0,2-2,other
10328,78,38,26,30,9.0,2-2,other
10329,76,26,23,35,9.0,2-2,other
10330,73,54,28,261,4.0,2-6,other
10331,64,67,14,240,9.0,2-1,other
10332,60,55,12,52,9.0,2-1,other
10333,58,47,22,38,9.0,2-1,other
10334,57,37,36,33,9.0,2-1,other
10335,57,71,18,71,9.0,2-1,other
10336,57,57,22,51,9.0,2-1,other
10337,57,70,20,69,9.0,2-1,other
10338,50,38,54,843,2.0,2-3,minor
10339,43,38,111,125,10.0,3-11B,major
10340,58,34,8,143,2.0,2-5,other
10341,62,54,20,35,2.0,2-5,other
10342,77,80,35,787,1.0,4-13B,diminished
10343,69,48,56,277,1.0,3-10,minor
10344,64,58,18,308,0.0,3-9,other
10345,65,56,142,38,0.0,3-9,other
10346,62,53,22,196,2.0,2-5,other
10347,65,54,54,42,2.0,2-5,other
10348,70,67,38,84,2.0,2-5,other
10349,71,51,48,67,2.0,2-5,other
10350,76,44,39,111,1.0,4-21,other
10351,81,70,43,59,1.0,4-21,other
10352,85,56,25,51,1.0,4-21,other
10353,97,52,20,188,5.0,2-4,major
10354,100,50,20,204,0.0,4-16A,other
10355,96,57,19,167,4.0,4-15B,other
10356,93,46,14,155,7.0,6-47B,minor
10357,88,28,13,161,5.0,6-24B,other
10358,88,33,22,151,1.0,3-10,diminished
10359,86,29,13,165,0.0,5-23B,major
10360,82,37,11,156,4.0,3-8B,other
10361,79,36,22,152,4.0,3-8B,other
10362,65,35,20,897,9.0,4-14B,major
10363,57,34,14,76,9.0,4-14B,major
10364,69,59,21,284,8.0,2-2,other
10365,74,72,19,72,0.0,2-1,other
10366,75,65,21,34,0.0,2-1,other
10367,77,62,20,32,0.0,2-1,other
10368,78,68,34,32,0.0,2-1,other
10369,81,57,16,69,6.0,3-8A,other
10370,81,71,27,170,0.0,2-5,other
10371,74,47,33,72,7.0,3-7B,other
10372,69,31,28,115,10.0,1-1,other
10373,72,64,37,118,10.0,2-4,major
10374,69,57,29,152,4.0,2-6,other
10375,65,66,35,170,0.0,3-7B,other
10376,64,38,67,51,0.0,3-7B,other
10377,68,59,53,111,4.0,3-10,diminished
10378,64,48,8,353,2.0,3-9,other
10379,69,65,18,29,2.0,3-9,other
10380,74,68,21,34,2.0,3-9,other
10381,74,62,51,65,0.0,3-4A,major
10382,36,32,8,72,0.0,3-4A,major
10383,72,61,12,160,10.0,3-4A,major
10384,77,60,15,34,10.0,3-4A,major
10385,82,71,91,106,6.0,3-5A,other
10386,72,40,48,107,5.0,3-11B,other
10387,69,62,25,311,2.0,2-2,other
10388,65,36,51,47,2.0,2-2,other
10389,65,40,23,76,2.0,2-2,other
10390,67,65,72,38,2.0,2-2,other
10391,69,38,34,162,7.0,2-1,other
10392,69,42,28,130,7.0,2-1,other
10393,69,28,14,115,7.0,2-1,other
10394,65,36,9,404,7.0,2-5,other
10395,65,62,19,337,9.0,2-2,other
10396,64,58,34,38,9.0,2-2,other
10397,62,55,29,73,9.0,2-2,other
10398,61,64,19,72,9.0,2-2,other
10399,64,53,36,32,9.0,2-2,other
10400,55,35,9,45,9.0,2-2,other
10401,57,45,57,29,9.0,2-2,other
10402,57,54,45,75,9.0,2-2,other
10403,62,59,30,46,9.0,2-2,other
10404,67,40,68,119,2.0,2-3,minor
10405,65,37,9,85,2.0,2-3,minor
10406,68,67,83,37,2.0,2-3,minor
10407,67,68,103,117,2.0,2-3,minor
10408,62,25,23,259,7.0,2-2,other
10409,64,33,59,127,5.0,3-6,major
10410,63,83,90,850,2.0,4-14A,minor
10411,61,80,71,168,2.0,4-14A,minor
10412,58,46,29,121,5.0,2-5,other
10413,70,64,33,478,7.0,5-17,minor
10414,86,83,110,1093,10.0,6-16B,other
10415,60,13,41,117,10.0,6-16B,other
10416,81,35,10,196,6.0,3-8B,other
10417,84,80,31,29,6.0,3-8B,other
10418,85,58,24,806,3.0,1-1,other
10419,85,62,55,76,3.0,3-5B,other
10420,86,62,20,170,5.0,2-1,other
10421,86,64,39,84,4.0,4-23,minor
10422,81,64,32,38,4.0,4-23,minor
10423,76,50,12,42,4.0,4-23,minor
10424,53,54,14,223,0.0,1-1,other
10425,54,55,9,983,2.0,2-3,minor
10426,50,30,12,390,7.0,4-26,minor
10427,56,25,47,496,0.0,3-9,other
10428,84,81,78,1564,0.0,5-30B,other
10429,49,59,37,1962,2.0,4-26,minor
10430,50,69,350,49,2.0,4-26,minor
10431,38,85,77,74,2.0,4-26,minor
10432,38,84,44,118,2.0,4-26,minor
10433,38,89,32,117,2.0,4-26,minor
10434,74,82,75,2049,9.0,5-35,minor
10435,69,60,30,82,9.0,5-35,minor
10436,67,42,22,174,10.0,4-16A,major
10437,53,26,13,1083,10.0,2-4,major
10438,53,37,27,115,0.0,5-26B,other
10439,73,53,22,1187,7.0,3-5B,other
10440,74,64,32,40,7.0,3-5B,other
10441,68,50,32,603,2.0,1-1,other
10442,67,24,29,45,2.0,1-1,other
10443,65,49,18,39,2.0,1-1,other
10444,62,41,44,34,2.0,1-1,other
10445,60,48,28,119,2.0,1-1,other
10446,55,43,33,166,8.0,2-6,other
10447,53,27,20,46,8.0,2-6,other
10448,50,45,76,35,8.0,2-6,other
10449,53,45,48,122,8.0,2-6,other
10450,38,50,14,207,7.0,1-1,other
10451,62,62,22,710,9.0,1-1,other
10452,56,51,20,39,9.0,1-1,other
10453,55,36,34,34,9.0,1-1,other
10454,53,46,19,50,9.0,1-1,other
10455,55,62,46,44,9.0,1-1,other
10456,53,55,28,67,9.0,1-1,other
10457,50,32,61,44,9.0,1-1,other
10458,49,28,21,74,9.0,1-1,other
10459,52,53,80,37,9.0,1-1,other
10460,50,39,245,125,9.0,1-1,other
10461,26,41,152,92,9.0,1-1,other
10462,57,35,644,353,9.0,1-1,other
10463,81,44,19,158,4.0,2-2,other
10464,93,49,53,78,4.0,1-1,other
10465,100,62,45,33,4.0,1-1,other
10466,97,50,24,45,4.0,1-1,other
10467,100,51,36,107,9.0,2-2,other
10468,107,67,34,58,9.0,2-2,other
10469,79,117,620,0,,,
10470,75,72,276,808,3.0,4-11A,major
10471,74,56,204,384,3.0,4-11A,major
10472,70,90,160,1764,3.0,3-4A,major
10473,68,71,240,180,0.0,3-8B,other
10474,60,42,72,240,0.0,3-8B,other
10475,68,68,244,120,0.0,3-8B,other
10476,79,78,212,376,0.0,2-4,other
10477,79,84,224,360,0.0,2-4,other
10478,68,42,64,656,0.0,2-4,other
10479,60,52,52,2392,8.0,4-6,other
10480,84,8,116,96,8.0,4-6,other
10481,80,31,380,316,8.0,2-3,other
10482,75,66,228,1168,3.0,2-5,other
10483,57,42,328,1424,2.0,2-5,other
10484,77,57,160,112,2.0,3-2A,minor
10485,84,48,180,32,2.0,3-2A,minor
10486,57,50,44,260,3.0,2-1,other
10487,54,33,68,2460,10.0,5-20B,other
10488,73,50,424,1532,6.0,3-8B,other
10489,73,59,308,616,6.0,3-10,other
10490,53,32,736,28,6.0,3-10,other
10491,56,32,1120,28,6.0,3-10,other
10492,60,36,212,332,6.0,3-10,other
10493,72,54,52,148,5.0,1-1,other
10494,75,56,248,380,0.0,3-7A,minor
10495,53,31,116,392,0.0,3-7A,minor
10496,55,49,924,1740,5.0,3-11A,other
10497,80,63,168,356,5.0,3-11A,other
10498,79,45,140,216,5.0,3-11A,other
10499,65,27,52,208,5.0,3-11A,other
10500,60,48,80,28,5.0,3-11A,other
10501,82,117,576,88,5.0,3-11A,other
10502,65,58,40,268,5.0,3-11A,other
10503,58,24,68,92,0.0,2-4,other
10504,80,75,180,252,0.0,2-4,other
10505,79,55,192,256,10.0,2-5,other
10506,59,34,200,168,10.0,2-5,other
10507,77,66,180,148,10.0,2-5,other
10508,58,31,160,272,3.0,2-4,other
10509,74,47,136,168,3.0,2-4,other
10510,63,53,52,128,3.0,2-4,other
10511,75,52,168,216,11.0,2-6,other
10512,57,49,164,236,3.0,3-4A,major
10513,74,75,224,120,3.0,3-4A,major
10514,71,46,160,348,9.0,2-2,other
10515,74,79,144,208,9.0,2-2,other
10516,51,48,112,32,9.0,2-2,other
10517,72,50,148,168,9.0,2-2,other
10518,54,48,44,1016,7.0,2-1,other
10519,62,76,192,68,7.0,2-1,other
10520,63,71,104,256,7.0,2-1,other
10521,54,23,56,40,7.0,2-1,other
10522,65,85,180,108,7.0,2-1,other
10523,63,70,96,228,7.0,2-1,other
10524,54,28,76,52,7.0,2-1,other
10525,62,41,208,104,7.0,2-1,other
10526,59,56,64,272,7.0,2-1,other
10527,62,74,252,112,9.0,2-6,other
10528,57,38,120,228,9.0,2-6,other
10529,59,49,192,116,9.0,2-6,other
10530,60,54,300,272,9.0,2-6,other
10531,62,66,100,396,9.0,2-6,other
10532,57,47,60,40,9.0,2-6,other
10533,51,32,56,32,9.0,2-6,other
10534,63,47,104,132,9.0,2-6,other
10535,67,82,124,188,9.0,2-6,other
10536,70,71,112,176,2.0,2-5,other
10537,71,107,128,200,2.0,2-5,other
10538,74,94,192,172,2.0,2-5,other
10539,71,63,48,224,2.0,2-5,other
10540,72,57,172,140,2.0,2-5,other
10541,74,77,108,244,2.0,2-5,other
10542,75,63,204,156,2.0,2-5,other
10543,56,49,112,256,0.0,2-4,major
10544,79,85,172,128,0.0,2-4,major
10545,76,39,52,276,0.0,2-4,major
10546,77,64,212,116,0.0,2-4,major
10547,72,63,128,248,0.0,2-4,major
10548,68,36,180,192,0.0,2-4,other
10549,68,57,184,304,0.0,2-4,other
10550,60,44,196,420,4.0,3-3B,other
10551,56,16,216,56,4.0,3-3B,other
10552,72,35,60,324,4.0,2-4,major
10553,72,52,124,504,8.0,2-3,other
10554,66,56,200,1788,6.0,4-5A,other
10555,63,46,52,308,6.0,4-5A,other
10556,64,72,256,108,5.0,2-1,other
10557,65,64,240,360,9.0,2-3,minor
10558,72,40,64,32,9.0,2-3,minor
10559,60,35,208,32,9.0,2-3,minor
10560,57,57,188,1020,3.0,3-4A,major
10561,54,63,216,672,0.0,2-5,other
10562,55,60,560,36,0.0,2-5,other
10563,60,23,84,48,0.0,2-5,other
10564,60,55,164,1068,7.0,2-1,other
10565,61,35,140,212,7.0,2-1,other
10566,62,52,180,364,7.0,3-1,other
10567,66,75,220,372,6.0,2-3,other
10568,64,54,168,220,6.0,2-3,other
10569,65,42,156,188,10.0,3-11B,other
10570,68,81,160,192,10.0,3-11B,other
10571,61,42,52,36,10.0,3-11B,other
10572,65,44,188,128,10.0,3-11B,other
10573,66,70,120,220,10.0,3-11B,other
10574,70,77,252,156,1.0,2-3,other
10575,58,24,72,260,1.0,2-6,other
10576,68,38,144,172,1.0,2-6,other
10577,54,60,556,224,0.0,2-4,major
10578,69,49,252,140,0.0,2-4,major
10579,70,60,280,248,0.0,2-4,major
10580,73,66,224,104,0.0,2-4,major
10581,71,45,60,272,6.0,3-8B,other
10582,72,36,168,144,6.0,3-8B,other
10583,72,38,180,392,6.0,4-12B,other
10584,73,58,92,184,6.0,4-12B,other
10585,74,46,64,408,3.0,3-9,other
10586,75,45,196,144,3.0,3-9,other
10587,53,31,60,1020,3.0,2-5,other
10588,77,50,120,144,3.0,2-5,other
10589,79,75,116,212,3.0,2-5,other
10590,58,54,56,28,3.0,2-5,other
10591,80,67,148,132,3.0,2-5,other
10592,87,63,164,392,3.0,4-16A,other
10593,91,122,184,376,4.0,2-1,other
10594,89,88,184,220,4.0,2-1,other
10595,65,57,388,60,4.0,2-1,other
10596,84,43,136,128,0.0,3-4A,other
10597,80,63,132,216,0.0,3-4A,other
10598,79,46,128,192,0.0,3-4A,other
10599,65,40,52,160,0.0,3-4A,other
10600,60,44,56,52,0.0,3-4A,other
10601,91,76,160,100,0.0,3-4A,other
10602,79,75,112,32,0.0,3-4A,other
10603,65,47,44,188,0.0,3-4A,other
10604,53,37,352,568,8.0,3-2B,other
10605,63,48,52,944,11.0,3-5B,other
10606,55,42,412,464,9.0,2-6,other
10607,87,56,44,1152,5.0,1-1,other
10608,43,73,48,328,5.0,1-1,other
10609,55,27,72,28,5.0,1-1,other
10610,58,50,280,784,3.0,3-9,other
10611,89,122,148,84,3.0,3-9,other
10612,58,53,276,296,3.0,1-1,other
10613,89,92,156,108,3.0,1-1,other
10614,56,33,88,44,3.0,1-1,other
10615,87,85,164,188,3.0,1-1,other
10616,84,64,232,192,2.0,3-5B,other
10617,84,77,212,364,2.0,3-5B,other
10618,79,66,180,476,7.0,3-9,other
10619,57,49,216,140,7.0,3-9,other
10620,62,23,52,28,7.0,3-9,other
10621,77,74,180,116,7.0,3-9,other
10622,72,49,300,804,9.0,2-6,other
10623,82,83,240,376,2.0,3-5B,other
10624,80,25,88,480,2.0,3-11A,minor
10625,90,17,152,2172,0.0,5-37,other
10626,63,60,356,2728,0.0,2-5,other
10627,58,36,364,732,3.0,2-4,other
10628,94,90,160,40,3.0,2-4,other
10629,56,35,164,220,3.0,2-4,other
10630,87,42,212,220,8.0,2-3,other
10631,51,40,380,248,11.0,3-7A,minor
10632,91,78,200,80,11.0,3-7A,minor
10633,57,39,220,192,11.0,3-7A,minor
10634,89,75,192,184,11.0,3-7A,minor
10635,87,61,172,384,9.0,2-6,other
10636,57,61,160,1820,2.0,3-5B,other
10637,82,57,220,416,1.0,5-27B,other
10638,58,52,168,460,10.0,4-20,other
10639,90,23,100,840,10.0,2-5,other
10640,90,36,548,236,6.0,5-31A,diminished
10641,60,31,148,420,6.0,5-31A,diminished
10642,90,56,340,1240,1.0,2-5,other
10643,65,54,136,2600,0.0,3-4A,other
10644,63,53,136,1036,5.0,3-11A,other
10645,56,53,52,464,5.0,3-11A,other
10646,75,61,164,824,8.0,2-3,minor
10647,56,50,264,588,3.0,4-27A,other
10648,67,55,84,196,3.0,4-27A,other
10649,62,39,52,188,6.0,3-10,minor
10650,65,42,144,148,6.0,3-10,minor
10651,65,66,198,350,2.0,2-5,other
10652,62,57,100,226,2.0,2-5,other
10653,57,51,136,28,2.0,2-5,other
10654,63,60,352,140,2.0,2-5,other
10655,60,75,76,288,2.0,2-5,other
10656,54,48,52,752,7.0,2-1,other
10657,53,49,40,84,7.0,2-1,other
10658,63,63,40,300,5.0,2-5,other
10659,56,37,140,452,11.0,2-6,other
10660,63,50,80,96,11.0,2-6,other
10661,63,68,92,208,11.0,2-6,other
10662,63,50,48,552,5.0,4-27B,major
10663,60,66,304,384,0.0,2-3,minor
10664,57,57,116,200,0.0,2-3,minor
10665,58,58,252,152,0.0,2-3,minor
10666,57,41,148,212,0.0,2-3,minor
10667,60,66,328,80,0.0,2-3,minor
10668,51,44,48,412,9.0,2-6,other
10669,65,51,148,148,9.0,2-6,other
10670,75,63,188,340,10.0,2-1,other
10671,72,63,84,236,10.0,2-1,other
10672,57,39,44,36,10.0,2-1,other
10673,77,56,196,136,10.0,2-1,other
10674,84,87,224,372,8.0,2-3,other
10675,79,63,108,232,8.0,2-3,other
10676,80,66,168,160,8.0,2-3,other
10677,77,66,68,200,8.0,2-3,other
10678,64,54,148,28,8.0,2-3,other
10679,76,35,132,136,8.0,2-3,other
10680,77,51,132,396,4.0,2-3,minor
10681,72,61,88,180,4.0,2-3,minor
10682,68,55,208,160,0.0,3-8B,other
10683,70,63,208,376,0.0,2-5,other
10684,60,31,60,288,7.0,2-1,other
10685,68,51,156,108,7.0,2-1,other
10686,68,58,160,276,8.0,2-2,other
10687,67,50,140,128,8.0,2-2,other
10688,65,72,136,228,8.0,2-2,other
10689,56,43,140,32,8.0,2-2,other
10690,50,31,60,48,8.0,2-2,other
10691,64,47,148,104,8.0,2-2,other
10692,67,68,120,208,8.0,2-2,other
10693,56,33,56,60,8.0,2-2,other
10694,60,68,96,144,8.0,2-2,other
10695,56,36,52,216,8.0,2-2,other
10696,60,66,196,64,8.0,2-2,other
10697,60,72,144,288,8.0,2-2,other
10698,60,63,168,244,8.0,2-6,other
10699,60,66,168,276,8.0,2-6,other
10700,85,43,80,1176,8.0,2-3,other
10701,57,79,256,2684,3.0,3-4A,major
10702,90,40,52,156,3.0,3-4A,major
10703,64,60,120,616,10.0,4-20,other
10704,82,41,44,2628,6.0,4-12B,other
10705,53,45,392,1992,1.0,4-14B,other
10706,60,24,132,300,1.0,4-14B,other
10707,66,70,184,1084,2.0,4-25,major
10708,67,46,112,204,2.0,4-25,major
10709,79,61,104,144,2.0,4-25,major
10710,67,45,144,88,2.0,4-25,major
10711,79,51,140,148,2.0,4-25,major
10712,67,46,172,124,2.0,4-25,major
10713,79,52,104,164,2.0,4-25,major
10714,67,86,424,296,8.0,2-1,other
10715,68,52,140,104,8.0,2-1,other
10716,68,52,128,244,0.0,2-5,other
10717,68,68,132,268,0.0,2-5,other
10718,68,63,140,256,9.0,2-2,other
10719,72,46,172,128,9.0,2-2,other
10720,79,24,136,48,9.0,2-2,other
10721,68,66,132,408,3.0,3-11A,other
10722,68,66,52,264,3.0,2-4,other
10723,67,60,148,420,7.0,2-5,other
10724,67,57,120,280,7.0,2-1,other
10725,67,55,132,248,7.0,2-5,other
10726,67,64,144,284,7.0,2-5,other
10727,67,59,168,248,7.0,2-5,other
10728,54,39,64,368,8.0,2-3,other
10729,79,53,308,84,8.0,2-3,other
10730,56,55,176,564,3.0,3-8B,other
10731,76,40,172,188,10.0,1-1,other
10732,83,21,48,124,7.0,2-4,major
10733,82,42,212,252,6.0,2-5,other
10734,84,43,64,72,7.0,2-5,other
10735,55,49,140,180,2.0,3-5B,other
10736,80,31,132,172,3.0,2-5,other
10737,71,42,56,92,4.0,2-3,minor
10738,55,45,76,108,2.0,3-5B,other
10739,74,43,104,252,7.0,1-1,other
10740,55,45,132,112,2.0,3-5B,other
10741,71,33,68,264,4.0,2-5,other
10742,79,50,84,388,10.0,3-6,major
10743,55,49,160,108,2.0,3-5B,other
10744,81,45,88,212,3.0,4-22B,other
10745,79,40,44,112,4.0,2-5,other
10746,55,46,144,72,2.0,3-5B,other
10747,55,43,108,384,2.0,3-5B,other
10748,76,48,144,220,10.0,1-1,other
10749,55,51,76,168,2.0,3-5B,other
10750,78,47,48,540,0.0,1-1,other
10751,62,54,36,168,0.0,1-1,other
10752,80,66,160,160,0.0,2-4,other
10753,82,34,64,48,0.0,2-4,other
10754,72,46,108,388,2.0,4-27A,minor
10755,70,82,212,720,2.0,4-27A,minor
10756,60,63,88,180,2.0,4-27A,minor
10757,65,50,40,68,2.0,4-27A,minor
10758,68,68,152,116,2.0,4-27A,minor
10759,70,80,120,208,2.0,4-27A,minor
10760,60,42,64,44,2.0,4-27A,minor
10761,68,46,120,64,2.0,4-27A,minor
10762,67,73,132,124,2.0,4-27A,minor
10763,65,75,104,184,2.0,4-27A,minor
10764,63,42,176,204,0.0,2-4,other
10765,60,49,92,192,0.0,2-4,other
10766,50,31,68,48,0.0,2-4,other
10767,62,78,168,112,0.0,2-4,other
10768,56,43,72,212,0.0,2-4,other
10769,63,61,136,32,0.0,2-4,other
10770,62,56,148,140,0.0,2-4,other
10771,62,70,236,376,0.0,2-4,other
10772,56,63,44,208,0.0,2-4,other
10773,50,45,64,44,0.0,2-4,other
10774,60,68,96,108,0.0,2-4,other
10775,43,76,436,756,5.0,4-14A,other
10776,67,51,104,332,3.0,4-29B,other
10777,43,68,232,392,3.0,4-29B,other
10778,62,70,408,320,7.0,2-3,minor
10779,48,67,780,472,7.0,2-3,minor
10780,58,34,72,1468,0.0,3-11A,minor
10781,61,29,48,168,3.0,3-11B,major
10782,85,66,128,2388,10.0,4-20,other
10783,85,56,316,1656,0.0,5-35,other
10784,78,35,80,1756,0.0,4-26,other
10785,77,92,264,1796,0.0,3-8B,other
10786,78,77,140,248,0.0,3-8B,other
10787,75,69,140,408,5.0,3-5B,other
10788,72,46,128,160,5.0,3-5B,other
10789,59,39,52,240,5.0,3-5B,other
10790,63,47,44,764,8.0,3-10,minor
10791,78,57,148,1328,5.0,2-5,other
10792,43,84,88,556,7.0,2-1,other
10793,59,58,236,808,3.0,3-8B,other
10794,84,122,124,128,3.0,3-8B,other
10795,84,94,120,252,3.0,3-8B,other
10796,84,90,160,192,3.0,3-8B,other
10797,56,50,176,188,3.0,3-8B,other
10798,82,82,140,104,3.0,3-8B,other
10799,57,57,172,300,3.0,3-4B,other
10800,82,67,212,176,3.0,3-4B,other
10801,57,41,240,128,3.0,3-4B,other
10802,79,77,164,668,3.0,4-16A,major
10803,77,75,136,284,2.0,3-5B,other
10804,77,80,192,448,2.0,4-29A,minor
10805,75,79,140,312,2.0,2-5,other
10806,75,81,172,400,2.0,3-5B,other
10807,51,33,56,244,2.0,3-7B,other
10808,67,50,148,140,2.0,3-7B,other
10809,62,37,56,228,2.0,3-7B,other
10810,70,71,200,116,0.0,2-4,other
10811,68,72,148,412,0.0,2-5,other
10812,65,48,188,388,0.0,4-16A,other
10813,67,68,164,388,0.0,3-12,augmented
10814,56,26,76,260,0.0,2-4,major
10815,65,46,120,152,0.0,2-4,major
10816,66,74,120,180,0.0,2-4,major
10817,68,55,164,200,0.0,2-4,other
10818,60,56,56,196,0.0,2-4,other
10819,71,78,88,216,8.0,1-1,other
10820,72,75,136,164,8.0,1-1,other
10821,73,61,156,188,0.0,2-4,other
10822,75,56,220,380,0.0,2-5,other
10823,76,71,100,208,0.0,2-5,other
10824,55,56,372,188,5.0,4-14A,other
10825,77,70,180,224,5.0,4-14A,other
10826,72,39,236,152,5.0,4-14A,other
10827,55,35,52,280,0.0,2-4,other
10828,59,51,280,692,3.0,4-24,augmented
10829,82,89,216,128,3.0,4-24,augmented
10830,56,27,104,328,8.0,2-3,minor
10831,82,86,160,88,8.0,2-3,minor
10832,56,42,228,240,3.0,3-11A,other
10833,75,43,272,152,3.0,3-11A,other
10834,71,60,48,224,3.0,3-11A,other
10835,51,55,186,122,2.0,2-5,other
10836,79,68,152,38,2.0,2-5,other
10837,79,66,156,1984,2.0,3-5B,other
10838,85,37,136,400,3.0,1-1,other
10839,82,45,44,1156,10.0,4-20,other
10840,84,50,92,1092,0.0,5-26B,other
10841,58,49,118,270,0.0,4-24,augmented
10842,87,32,108,34,0.0,4-24,augmented
10843,84,22,48,28,0.0,4-24,augmented
10844,84,47,112,268,0.0,6-49,other
10845,58,34,60,580,0.0,2-3,minor
10846,53,30,52,1452,0.0,4-22A,other
10847,92,33,88,308,8.0,2-3,other
10848,53,26,72,244,0.0,2-4,other
10849,99,81,228,1776,2.0,4-27A,minor
10850,50,48,168,256,0.0,2-4,other
10851,92,63,172,164,0.0,2-4,other
10852,91,76,136,256,0.0,3-8B,other
10853,92,83,168,848,11.0,2-1,other
10854,58,45,160,276,3.0,2-4,other
10855,83,48,160,152,3.0,2-4,other
10856,82,57,112,244,3.0,3-4A,other
10857,57,63,208,364,3.0,3-5A,other
10858,82,42,52,708,6.0,2-6,other
10859,79,68,120,136,2.0,2-5,other
10860,72,71,112,156,2.0,2-5,other
10861,43,78,188,548,7.0,2-1,other
10862,77,88,212,2096,2.0,2-5,other
10863,75,56,176,400,2.0,2-5,other
10864,55,27,60,260,9.0,2-5,other
10865,78,66,216,116,9.0,2-5,other
10866,80,72,100,192,9.0,2-5,other
10867,83,66,136,188,9.0,2-5,other
10868,85,84,144,168,9.0,2-5,other
10869,88,72,172,176,3.0,3-8B,other
10870,56,1,184,124,3.0,3-8B,other
10871,86,53,40,88,3.0,3-8B,other
10872,86,44,44,156,4.0,2-2,other
10873,88,68,120,400,4.0,4-14B,other
10874,60,80,516,264,4.0,4-12A,major
10875,90,83,132,124,4.0,4-12A,major
10876,91,85,96,192,4.0,4-12A,major
10877,56,41,48,412,5.0,2-5,other
10878,84,60,136,128,5.0,2-5,other
10879,79,25,172,432,0.0,2-4,other
10880,60,48,120,184,0.0,2-4,other
10881,82,74,148,148,0.0,2-4,other
10882,80,50,152,388,8.0,2-1,other
10883,82,81,132,220,8.0,2-1,other
10884,80,31,92,144,0.0,3-8B,other
10885,62,36,60,264,7.0,2-1,other
10886,77,72,64,124,7.0,2-1,other
10887,75,81,84,204,7.0,2-1,other
10888,74,68,84,148,0.0,3-8B,other
10889,74,50,120,444,5.0,2-5,other
10890,72,56,160,376,8.0,3-2B,other
10891,74,39,104,32,8.0,3-2B,other
10892,65,62,224,340,8.0,3-2B,other
10893,72,60,148,524,7.0,3-2B,other
10894,55,62,96,284,7.0,3-2B,other
10895,74,48,68,288,8.0,4-12A,minor
10896,74,39,76,260,8.0,4-12A,minor
10897,55,57,52,228,8.0,4-12A,minor
10898,74,54,152,472,7.0,3-7A,minor
10899,75,41,68,568,7.0,3-11A,minor
10900,62,71,492,1116,1.0,5-38B,other
10901,66,27,48,1240,0.0,4-26,minor
10902,61,54,120,272,10.0,3-4A,other
10903,51,46,432,88,10.0,3-4A,other
10904,49,46,148,332,10.0,3-4A,other
10905,61,52,164,124,10.0,3-4A,other
10906,61,63,52,376,8.0,2-2,other
10907,66,28,488,1240,0.0,4-24,augmented
10908,44,69,144,900,1.0,3-2A,other
10909,53,66,136,180,1.0,3-2A,other
10910,65,63,420,272,0.0,4-22A,other
10911,56,22,164,584,0.0,4-22A,other
10912,72,45,248,332,3.0,3-7A,other
10913,65,59,216,356,1.0,2-5,other
10914,68,28,64,408,5.0,2-5,other
10915,68,68,128,584,5.0,3-11A,other
10916,56,64,388,408,0.0,3-8B,other
10917,69,55,40,108,0.0,3-11A,minor
10918,75,40,224,388,5.0,3-11A,other
10919,56,38,244,304,5.0,3-11A,other
10920,63,56,168,76,0.0,2-3,minor
10921,70,42,64,32,0.0,2-3,minor
10922,59,63,36,272,2.0,1-1,other
10923,56,32,88,368,3.0,4-16A,other
10924,68,66,272,480,3.0,3-7A,other
10925,56,33,144,448,3.0,5-26B,augmented
10926,84,48,40,1100,2.0,3-5B,other
10927,43,84,316,760,7.0,4-3,minor
10928,51,50,320,1456,8.0,2-3,minor
10929,57,50,432,28,8.0,2-3,minor
10930,91,56,164,60,3.0,2-1,other
10931,57,40,64,640,2.0,2-3,minor
10932,57,40,80,348,0.0,2-3,minor
10933,82,55,176,136,0.0,2-3,minor
10934,86,55,280,32,0.0,2-3,minor
10935,57,46,120,224,0.0,2-3,minor
10936,57,50,92,400,0.0,2-4,other
10937,62,45,236,772,7.0,2-3,minor
10938,53,43,392,1296,0.0,4-16A,other
10939,53,31,56,652,2.0,4-27A,minor
10940,53,44,384,500,0.0,3-8B,other
10941,56,39,52,620,2.0,2-2,other
10942,53,45,500,1980,3.0,2-4,other
10943,71,47,80,272,3.0,2-4,other
10944,59,40,208,72,3.0,2-4,other
10945,55,48,404,1136,3.0,4-16A,major
10946,55,39,44,1216,3.0,6-26,major
10947,57,56,236,1224,3.0,3-4B,other
10948,55,39,220,28,3.0,3-4B,other
10949,85,84,148,1336,1.0,5-27B,other
10950,84,63,140,232,10.0,4-20,other
10951,82,67,100,224,10.0,4-20,other
10952,60,46,276,1616,4.0,3-2B,minor
10953,80,57,184,648,7.0,3-2B,other
10954,56,44,652,392,5.0,3-7B,other
10955,53,16,1040,56,5.0,3-7B,other
10956,60,45,176,300,5.0,3-7B,other
10957,73,68,188,120,5.0,3-7B,other
10958,72,68,256,384,0.0,2-4,other
10959,68,68,308,384,0.0,2-4,other
10960,60,41,128,284,0.0,2-4,other
10961,56,27,88,44,0.0,2-4,other
10962,65,59,244,64,0.0,2-4,other
10963,60,49,116,1408,8.0,3-10,other
10964,72,53,188,512,8.0,3-10,other
10965,43,49,324,964,3.0,5-30B,other
10966,57,47,144,1224,3.0,3-4A,major
10967,55,26,60,360,3.0,3-4A,major
10968,54,50,168,1568,7.0,2-1,other
10969,55,55,576,156,7.0,2-1,other
10970,65,32,560,2924,3.0,4-27A,other
10971,43,30,52,440,3.0,4-27A,other
10972,86,50,308,1036,9.0,2-2,other
10973,60,38,692,852,7.0,2-2,other
10974,56,25,468,1628,0.0,4-26,other
10975,53,13,404,700,0.0,2-4,other
10976,80,26,856,124,0.0,2-4,other
10977,63,24,712,524,0.0,2-4,other
10978,53,19,660,68,11.0,2-1,other
10979,82,27,176,316,11.0,2-1,other
10980,80,21,196,292,11.0,2-1,other
10981,63,20,328,220,11.0,2-1,other
10982,57,15,2772,784,3.0,3-4A,major
10983,86,19,520,448,3.0,3-4A,major
10984,91,15,256,820,3.0,3-4A,major
10985,95,14,144,480,3.0,3-4A,major
10986,98,13,148,408,3.0,3-4A,major
10987,43,50,973,0,0.0,3-11B,major
10988,50,44,94,365,0.0,3-11B,major
10989,70,57,26,1092,0.0,3-4B,other
10990,67,86,89,236,0.0,3-4B,other
10991,67,67,50,593,9.0,2-4,major
10992,57,31,233,172,2.0,3-7B,other
10993,67,58,65,170,2.0,3-7B,other
10994,74,67,134,377,6.0,4-28,diminished
10995,59,39,830,939,4.0,4-26,minor
10996,52,57,72,878,3.0,2-4,major
10997,71,72,220,820,9.0,3-11B,major
10998,55,54,164,1073,0.0,3-11B,major
10999,55,59,315,972,3.0,2-4,major
11000,48,64,118,226,3.0,2-4,major
11001,45,67,201,1217,4.0,3-11A,minor
11002,67,84,83,674,9.0,4-27B,major
11003,64,26,57,3434,9.0,3-11B,major
11004,69,77,74,341,9.0,2-5,other
11005,73,63,55,113,9.0,2-5,other
11006,74,62,120,111,9.0,2-5,other
11007,50,49,211,512,2.0,3-11B,major
11008,62,65,35,1034,7.0,3-11B,major
11009,50,53,85,230,7.0,3-11B,major
11010,50,38,44,1360,7.0,3-11B,major
11011,55,51,182,817,7.0,2-5,other
11012,43,60,101,711,7.0,3-11B,major
11013,67,68,133,471,0.0,4-20,major
11014,67,53,66,495,9.0,4-27B,major
11015,67,48,510,2183,3.0,3-12,augmented
11016,52,61,99,447,3.0,3-12,augmented
11017,48,53,98,3118,3.0,3-4A,major
11018,69,85,59,956,7.0,3-11B,major
11019,55,54,263,633,9.0,2-4,major
11020,45,50,171,287,9.0,2-4,major
11021,64,72,58,38,9.0,2-4,major
11022,31,61,28,1669,7.0,2-4,major
11023,64,46,120,477,7.0,2-4,major
11024,36,79,61,3196,0.0,3-11B,major
11025,48,67,66,2343,0.0,2-4,major
11026,79,97,109,1705,9.0,3-8A,major
11027,77,59,106,105,9.0,3-8A,major
11028,72,92,140,831,2.0,2-2,other
11029,69,84,27,228,2.0,2-2,other
11030,71,77,120,372,7.0,2-3,minor
11031,74,104,120,120,7.0,2-3,minor
11032,72,106,120,240,7.0,2-3,minor
11033,69,85,120,240,7.0,2-3,minor
11034,67,50,120,120,7.0,2-3,minor
11035,62,66,120,360,7.0,2-4,major
11036,59,62,120,360,7.0,2-3,minor
11037,55,87,240,120,7.0,2-3,minor
11038,50,85,21,1560,7.0,2-3,minor
11039,67,86,56,120,7.0,2-3,minor
11040,72,87,45,120,7.0,2-3,minor
11041,76,93,81,120,7.0,2-3,minor
11042,77,96,80,120,7.0,2-3,minor
11043,72,76,84,240,9.0,3-11A,minor
11044,67,51,110,120,9.0,3-11A,minor
11045,73,86,77,480,1.0,3-10,minor
11046,76,94,65,120,1.0,3-10,minor
11047,78,73,113,240,7.0,3-9,other
11048,50,39,38,480,9.0,2-3,minor
11049,78,74,75,120,9.0,2-3,minor
11050,81,107,161,120,9.0,2-3,minor
11051,78,74,54,240,4.0,5-32B,other
11052,79,92,112,120,4.0,5-32B,other
11053,76,71,143,120,4.0,5-32B,other
11054,67,67,33,240,0.0,2-1,other
11055,70,57,140,240,9.0,2-5,other
11056,66,79,128,360,9.0,2-2,other
11057,69,102,245,240,9.0,2-2,other
11058,67,76,96,120,9.0,2-2,other
11059,64,64,121,120,9.0,2-2,other
11060,62,48,76,138,9.0,2-2,other
11061,64,74,99,374,9.0,2-4,major
11062,60,71,98,242,9.0,2-4,major
11063,60,70,97,249,9.0,2-4,major
11064,59,38,48,144,9.0,2-4,major
11065,60,67,114,99,9.0,2-4,major
11066,62,75,79,135,9.0,2-4,major
11067,60,48,120,89,9.0,2-4,major
11068,59,83,56,170,9.0,2-4,major
11069,60,90,125,86,9.0,2-4,major
11070,60,96,94,240,9.0,2-4,major
11071,60,66,117,228,7.0,2-4,major
11072,67,69,96,256,3.0,2-4,major
11073,70,76,80,116,3.0,2-4,major
11074,71,75,89,108,3.0,2-4,major
11075,58,47,21,155,7.0,2-5,other
11076,71,64,90,89,7.0,2-5,other
11077,72,82,105,131,7.0,2-5,other
11078,73,59,87,114,7.0,2-5,other
11079,74,77,93,116,7.0,2-5,other
11080,78,48,23,89,7.0,2-5,other
11081,79,31,76,41,7.0,2-5,other
11082,83,77,64,113,7.0,2-5,other
11083,78,72,104,1712,2.0,4-27B,major
11084,74,55,88,107,2.0,4-27B,major
11085,76,87,93,478,0.0,3-11B,major
11086,69,73,33,139,0.0,3-11B,major
11087,72,45,44,258,11.0,2-3,minor
11088,67,61,109,72,11.0,2-3,minor
11089,62,62,56,140,11.0,2-3,minor
11090,60,44,160,100,11.0,2-3,minor
11091,55,68,55,678,0.0,3-11B,major
11092,60,69,58,137,0.0,3-11B,major
11093,55,67,75,355,7.0,3-11B,major
11094,67,86,70,709,9.0,2-2,other
11095,72,86,59,132,9.0,2-2,other
11096,75,80,64,103,9.0,2-2,other
11097,67,72,134,493,4.0,2-3,minor
11098,57,56,63,156,4.0,2-3,minor
11099,67,74,57,412,7.0,4-20,major
11100,50,34,25,359,7.0,2-3,minor
11101,59,65,68,1019,7.0,2-5,other
11102,62,66,63,129,7.0,2-5,other
11103,60,93,96,349,9.0,2-5,other
11104,62,87,77,137,9.0,2-5,other
11105,59,77,130,346,11.0,1-1,other
11106,69,100,53,703,7.0,2-5,other
11107,71,74,100,62,7.0,2-5,other
11108,74,69,54,121,7.0,2-5,other
11109,76,106,106,154,7.0,2-5,other
11110,74,94,117,152,7.0,2-5,other
11111,71,78,98,194,7.0,2-5,other
11112,67,80,56,155,7.0,2-5,other
11113,62,50,114,112,7.0,2-5,other
11114,50,31,28,140,7.0,2-5,other
11115,48,49,49,218,0.0,2-5,other
11116,59,56,69,134,7.0,2-3,minor
11117,50,53,26,135,7.0,2-3,minor
11118,67,76,40,594,0.0,2-5,other
11119,72,78,51,131,0.0,2-5,other
11120,79,94,84,249,9.0,3-11B,major
11121,78,88,137,228,9.0,3-11B,major
11122,69,56,142,355,2.0,2-5,other
11123,75,89,89,482,0.0,2-3,minor
11124,69,36,21,164,0.0,2-3,minor
11125,73,42,30,117,4.0,4-26,minor
11126,71,83,82,199,4.0,4-26,minor
11127,67,77,61,144,4.0,4-26,minor
11128,64,60,110,116,4.0,4-26,minor
11129,59,45,71,121,4.0,4-26,minor
11130,64,57,102,27,4.0,4-26,minor
11131,55,45,577,340,3.0,3-4B,other
11132,75,94,145,211,3.0,3-4B,other
11133,76,56,61,28,3.0,3-4B,other
11134,59,47,70,387,3.0,3-4B,other
11135,55,31,46,29,3.0,3-4B,other
11136,76,102,222,64,3.0,3-4B,other
11137,73,74,417,215,3.0,3-4B,other
11138,61,43,72,172,3.0,3-4B,other
11139,72,81,201,319,9.0,2-4,major
11140,67,78,399,214,9.0,2-4,major
11141,65,73,166,454,9.0,2-4,major
11142,64,62,143,242,9.0,2-4,major
11143,60,47,323,160,9.0,2-4,major
11144,62,75,88,463,0.0,3-11A,minor
11145,60,54,152,126,0.0,3-11A,minor
11146,60,60,217,234,0.0,3-11A,minor
11147,55,63,40,164,0.0,3-11A,minor
11148,48,29,35,39,0.0,3-11A,minor
11149,59,94,128,512,7.0,2-4,major
11150,58,70,105,142,7.0,2-4,major
11151,53,30,32,272,7.0,2-4,major
11152,60,92,135,62,7.0,2-4,major
11153,45,59,48,720,1.0,2-6,other
11154,60,72,55,147,1.0,2-6,other
11155,61,76,154,97,1.0,2-6,other
11156,63,57,90,460,2.0,2-5,other
11157,64,73,65,136,2.0,2-5,other
11158,67,75,67,108,2.0,2-5,other
11159,50,31,54,428,2.0,2-2,other
11160,72,95,86,190,2.0,2-2,other
11161,50,43,27,44,2.0,2-2,other
11162,71,74,81,73,2.0,2-2,other
11163,50,51,30,125,2.0,2-2,other
11164,67,89,134,86,2.0,2-2,other
11165,53,44,71,385,4.0,2-2,other
11166,51,63,78,952,7.0,3-11B,major
11167,49,44,91,488,5.0,3-11B,major
11168,74,83,83,1097,2.0,4-4A,minor
11169,77,93,284,123,2.0,4-4A,minor
11170,72,89,197,570,0.0,3-6,major
11171,65,56,267,395,4.0,2-3,minor
11172,53,49,42,270,4.0,2-3,minor
11173,60,64,56,439,5.0,3-11B,major
11174,90,33,24,2324,2.0,4-26,minor
11175,95,78,38,2216,4.0,6-30B,other
11176,49,55,21,515,2.0,2-1,other
11177,55,76,113,555,7.0,2-4,major
11178,55,73,140,247,7.0,2-4,major
11179,31,103,183,1649,7.0,2-4,major
11180,59,75,80,327,10.0,3-4A,major
11181,59,67,123,725,10.0,3-4A,major
11182,55,86,196,176,10.0,3-4A,major
11183,52,70,94,141,10.0,3-4A,major
11184,36,72,482,54,10.0,3-4A,major
11185,48,91,493,279,10.0,3-4A,major
11186,55,80,47,237,10.0,3-4A,major
11187,60,76,56,145,10.0,3-4A,major
11188,62,42,34,459,1.0,1-1,other
11189,66,59,48,240,2.0,2-5,other
11190,67,66,95,120,2.0,2-5,other
11191,69,76,56,120,2.0,2-5,other
11192,70,49,67,120,2.0,2-5,other
11193,74,44,56,240,6.0,5-31A,other
11194,75,72,62,120,6.0,5-31A,other
11195,79,72,54,251,4.0,4-26,minor
11196,83,69,79,109,4.0,4-26,minor
11197,55,60,367,640,4.0,3-4B,other
11198,88,95,108,139,4.0,3-4B,other
11199,83,62,102,156,4.0,3-4B,other
11200,83,72,97,488,4.0,2-3,minor
11201,76,36,37,30,4.0,2-3,minor
11202,85,68,89,346,9.0,3-11B,major
11203,81,52,55,107,9.0,3-11B,major
11204,76,47,63,149,9.0,3-11B,major
11205,83,122,140,825,0.0,3-4A,major
11206,84,87,143,120,0.0,3-4A,major
11207,79,72,83,240,0.0,3-4A,major
11208,76,50,95,120,0.0,3-4A,major
11209,75,74,62,120,0.0,3-4A,major
11210,75,49,80,240,3.0,4-16A,major
11211,71,88,61,240,2.0,2-2,other
11212,71,70,25,240,2.0,3-5B,other
11213,72,77,141,120,2.0,3-5B,other
11214,67,72,54,120,2.0,3-5B,other
11215,62,91,126,360,7.0,3-11B,major
11216,59,38,25,120,7.0,3-11B,major
11217,60,90,142,360,9.0,3-7A,minor
11218,61,59,64,875,9.0,2-2,other
11219,62,71,74,82,9.0,2-2,other
11220,38,66,276,377,2.0,3-11B,major
11221,42,76,221,353,0.0,4-22A,major
11222,58,43,24,29,0.0,4-22A,major
11223,31,100,204,459,7.0,4-27B,major
11224,31,99,402,261,7.0,4-27B,major
11225,76,57,86,310,3.0,3-4A,major
11226,76,22,95,267,3.0,3-4A,major
11227,67,75,125,367,0.0,2-5,other
11228,71,80,109,380,7.0,3-11B,major
11229,67,59,107,107,7.0,3-11B,major
11230,62,64,59,140,7.0,3-11B,major
11231,52,51,53,939,9.0,2-2,other
11232,62,61,66,178,9.0,3-7A,minor
11233,57,57,64,115,0.0,2-4,major
11234,58,56,66,80,0.0,2-4,major
11235,59,65,31,76,0.0,2-4,major
11236,61,52,53,136,0.0,1-1,other
11237,62,65,54,71,0.0,1-1,other
11238,50,49,273,50,0.0,1-1,other
11239,63,55,28,31,0.0,1-1,other
11240,64,72,60,64,0.0,1-1,other
11241,65,72,60,98,0.0,1-1,other
11242,66,62,60,38,0.0,1-1,other
11243,67,81,64,40,0.0,1-1,other
11244,54,56,41,39,0.0,1-1,other
11245,50,46,110,209,11.0,2-3,minor
11246,69,75,182,41,11.0,2-3,minor
11247,50,45,72,166,11.0,2-3,minor
11248,50,72,90,428,7.0,2-1,other
11249,71,72,92,409,10.0,2-1,other
11250,74,92,160,115,10.0,2-1,other
11251,72,67,89,113,9.0,2-2,other
11252,67,77,79,139,9.0,2-2,other
11253,64,36,105,136,9.0,2-2,other
11254,53,44,59,124,9.0,2-2,other
11255,67,70,112,341,7.0,2-4,major
11256,62,54,90,494,7.0,2-4,major
11257,49,32,43,162,1.0,2-6,other
11258,62,41,95,57,1.0,2-6,other
11259,55,67,170,470,11.0,3-2B,minor
11260,62,81,135,714,7.0,2-5,other
11261,55,58,44,155,7.0,2-5,other
11262,69,66,30,772,9.0,2-4,major
11263,73,43,64,69,9.0,2-4,major
11264,76,53,26,91,9.0,2-4,major
11265,79,89,126,55,9.0,2-4,major
11266,74,83,61,257,2.0,3-11B,major
11267,57,57,159,261,0.0,2-2,other
11268,54,38,26,50,0.0,2-2,other
11269,54,39,164,160,9.0,3-10,diminished
11270,75,48,64,50,9.0,3-10,diminished
11271,78,57,52,105,9.0,3-10,diminished
11272,81,102,252,77,9.0,3-10,diminished
11273,79,81,173,94,4.0,4-26,minor
11274,76,82,77,217,4.0,4-26,minor
11275,71,88,106,233,4.0,4-26,minor
11276,67,61,33,150,4.0,4-26,minor
11277,69,74,83,96,4.0,4-26,minor
11278,59,36,29,167,9.0,2-6,other
11279,70,61,121,90,9.0,2-6,other
11280,67,65,40,148,11.0,2-2,other
11281,69,92,111,70,11.0,2-2,other
11282,66,58,45,152,11.0,2-2,other
11283,67,86,212,85,11.0,2-3,minor
11284,59,34,61,78,11.0,2-3,minor
11285,55,43,51,36,11.0,2-3,minor
11286,64,72,158,126,11.0,2-3,minor
11287,57,54,155,480,9.0,3-8A,major
11288,60,85,242,238,9.0,3-8A,major
11289,50,49,26,213,9.0,3-8A,major
11290,55,48,47,43,9.0,3-8A,major
11291,52,82,437,465,0.0,2-5,other
11292,55,72,105,247,0.0,2-5,other
11293,60,60,93,152,0.0,2-5,other
11294,62,77,83,90,0.0,2-5,other
11295,48,63,746,174,7.0,2-5,other
11296,63,52,159,109,7.0,2-5,other
11297,62,48,77,75,7.0,2-5,other
11298,60,48,38,60,7.0,2-5,other
11299,60,80,285,325,7.0,2-5,other
11300,35,78,453,632,7.0,2-4,major
11301,47,87,171,330,7.0,2-4,major
11302,48,73,51,1311,1.0,4-28,diminished
11303,49,65,77,26,1.0,4-28,diminished
11304,59,76,264,827,7.0,3-11A,minor
11305,81,72,78,713,7.0,2-1,other
11306,81,68,62,333,0.0,2-2,other
11307,81,44,62,1583,0.0,1-1,other
11308,64,42,57,2198,6.0,3-10,other
11309,60,61,56,455,5.0,3-11B,major
11310,52,74,207,156,0.0,3-11B,major
11311,49,57,70,208,0.0,3-11B,major
11312,50,82,164,557,2.0,3-11A,minor
11313,36,53,30,503,0.0,3-11B,major
11314,50,72,48,866,10.0,1-1,other
11315,53,51,118,115,10.0,1-1,other
11316,57,77,70,116,10.0,1-1,other
11317,57,61,90,253,9.0,2-3,minor
11318,58,46,100,97,9.0,2-3,minor
11319,60,79,85,121,9.0,2-3,minor
11320,45,58,208,37,9.0,2-3,minor
11321,61,63,108,70,9.0,2-3,minor
11322,63,58,66,126,9.0,2-3,minor
11323,64,26,50,131,9.0,2-3,minor
11324,65,74,52,108,9.0,2-3,minor
11325,65,99,206,325,2.0,3-8A,major
11326,63,64,83,143,2.0,3-8A,major
11327,60,53,81,99,2.0,3-8A,major
11328,50,62,28,377,10.0,2-5,other
11329,55,54,172,348,11.0,2-6,other
11330,50,40,72,103,11.0,2-6,other
11331,43,40,103,387,7.0,2-2,other
11332,50,38,44,1349,7.0,3-11B,major
11333,55,51,182,817,7.0,3-11B,major
11334,43,60,101,711,7.0,3-11B,major
11335,67,68,133,471,0.0,4-20,major
11336,67,53,66,495,9.0,4-27B,major
11337,67,48,510,2183,3.0,3-12,augmented
11338,52,61,99,447,3.0,3-12,augmented
11339,48,53,98,3118,3.0,3-4A,major
11340,69,85,59,956,7.0,3-11B,major
11341,55,54,263,633,9.0,2-4,major
11342,45,50,171,287,9.0,2-4,major
11343,67,72,58,38,9.0,2-4,major
11344,31,61,28,1669,7.0,2-4,major
11345,55,76,102,4100,11.0,2-3,minor
11346,50,74,92,127,11.0,2-3,minor
11347,61,58,49,1784,9.0,4-27B,major
11348,31,42,255,2070,0.0,2-5,other
11349,43,66,2051,2957,11.0,1-1,other
11350,60,83,107,4559,7.0,1-1,other
11351,62,81,90,123,7.0,1-1,other
11352,65,76,93,116,7.0,1-1,other
11353,67,87,62,126,7.0,1-1,other
11354,67,117,123,3495,9.0,4-27B,major
11355,65,43,73,130,9.0,4-27B,major
11356,62,47,103,110,9.0,4-27B,major
11357,62,58,26,483,2.0,2-3,minor
11358,55,34,138,471,10.0,2-4,major
11359,53,34,45,174,10.0,2-4,major
11360,34,49,42,1039,7.0,2-5,other
11361,34,51,30,236,7.0,2-5,other
11362,32,54,60,625,7.0,3-5B,other
11363,26,83,285,830,6.0,4-29A,minor
11364,71,76,70,385,10.0,2-4,major
11365,67,24,64,139,10.0,2-4,major
11366,62,59,73,82,10.0,2-4,major
11367,55,58,57,1056,7.0,2-4,major
11368,31,76,98,1173,4.0,4-15B,other
11369,32,60,77,144,4.0,4-15B,other
11370,27,61,464,596,9.0,3-8A,major
11371,26,67,457,461,9.0,3-8A,major
11372,30,49,47,412,9.0,3-8A,major
11373,30,46,266,271,1.0,2-3,other
11374,27,33,40,247,11.0,2-3,minor
11375,31,60,495,46,11.0,2-3,minor
11376,55,48,27,258,11.0,2-3,minor
11377,31,50,70,607,7.0,3-11B,major
11378,62,36,25,128,4.0,3-3B,other
11379,83,72,88,2388,8.0,4-21,other
11380,79,71,91,95,8.0,4-21,other
11381,74,68,68,118,8.0,4-21,other
11382,72,38,91,117,8.0,4-21,other
11383,70,67,70,133,8.0,4-21,other
11384,31,52,62,340,7.0,2-4,major
11385,31,47,74,492,7.0,2-4,major
11386,28,54,92,232,7.0,2-4,major
11387,28,48,41,255,7.0,2-4,major
11388,56,23,421,280,7.0,2-5,other
11389,27,39,60,334,7.0,2-5,other
11390,33,40,168,101,7.0,2-5,other
11391,33,45,112,248,7.0,2-5,other
11392,60,43,842,520,2.0,3-3B,other
11393,26,45,101,864,2.0,3-3B,other
11394,79,117,620,0,,,
11395,75,72,276,808,3.0,4-11A,major
11396,74,56,204,384,3.0,4-11A,major
11397,70,90,160,1764,3.0,3-4A,major
11398,68,71,240,180,0.0,3-8B,other
11399,60,42,72,240,0.0,3-8B,other
11400,68,68,244,120,0.0,3-8B,other
11401,79,78,212,376,0.0,2-4,other
11402,79,84,224,360,0.0,2-4,other
11403,68,42,64,656,0.0,2-4,other
11404,60,52,52,2392,8.0,4-6,other
11405,84,8,116,96,8.0,4-6,other
11406,80,31,380,316,8.0,2-3,other
11407,75,66,228,1168,3.0,2-5,other
11408,57,42,328,1424,2.0,2-5,other
11409,77,57,160,112,2.0,3-2A,minor
11410,84,48,180,32,2.0,3-2A,minor
11411,57,50,44,260,3.0,2-1,other
11412,54,33,68,2460,10.0,5-20B,other
11413,73,50,424,1532,6.0,3-8B,other
11414,73,59,308,616,6.0,3-10,other
11415,53,32,736,28,6.0,3-10,other
11416,56,32,1120,28,6.0,3-10,other
11417,60,36,212,332,6.0,3-10,other
11418,72,54,52,148,5.0,1-1,other
11419,75,56,248,380,0.0,3-7A,minor
11420,53,31,116,392,0.0,3-7A,minor
11421,55,49,924,1740,5.0,3-11A,other
11422,80,63,168,356,5.0,3-11A,other
11423,79,45,140,216,5.0,3-11A,other
11424,65,27,52,208,5.0,3-11A,other
11425,60,48,80,28,5.0,3-11A,other
11426,82,117,576,88,5.0,3-11A,other
11427,65,58,40,268,5.0,3-11A,other
11428,58,24,68,92,0.0,2-4,other
11429,80,75,180,252,0.0,2-4,other
11430,79,55,192,256,10.0,2-5,other
11431,59,34,200,168,10.0,2-5,other
11432,77,66,180,148,10.0,2-5,other
11433,58,31,160,272,3.0,2-4,other
11434,74,47,136,168,3.0,2-4,other
11435,63,53,52,128,3.0,2-4,other
11436,75,52,168,216,11.0,2-6,other
11437,57,49,164,236,3.0,3-4A,major
11438,74,75,224,120,3.0,3-4A,major
11439,71,46,160,348,9.0,2-2,other
11440,74,79,144,208,9.0,2-2,other
11441,51,48,112,32,9.0,2-2,other
11442,72,50,148,168,9.0,2-2,other
11443,54,48,44,1016,7.0,2-1,other
11444,62,76,192,68,7.0,2-1,other
11445,63,71,104,256,7.0,2-1,other
11446,54,23,56,40,7.0,2-1,other
11447,65,85,180,108,7.0,2-1,other
11448,63,70,96,228,7.0,2-1,other
11449,54,28,76,52,7.0,2-1,other
11450,62,41,208,104,7.0,2-1,other
11451,59,56,64,272,7.0,2-1,other
11452,62,74,252,112,9.0,2-6,other
11453,57,38,120,228,9.0,2-6,other
11454,59,49,192,116,9.0,2-6,other
11455,60,54,300,272,9.0,2-6,other
11456,62,66,100,396,9.0,2-6,other
11457,57,47,60,40,9.0,2-6,other
11458,51,32,56,32,9.0,2-6,other
11459,63,47,104,132,9.0,2-6,other
11460,67,82,124,188,9.0,2-6,other
11461,70,71,112,176,2.0,2-5,other
11462,71,107,128,200,2.0,2-5,other
11463,74,94,192,172,2.0,2-5,other
11464,71,63,48,224,2.0,2-5,other
11465,72,57,172,140,2.0,2-5,other
11466,74,77,108,244,2.0,2-5,other
11467,75,63,204,156,2.0,2-5,other
11468,56,49,112,256,0.0,2-4,major
11469,79,85,172,128,0.0,2-4,major
11470,76,39,52,276,0.0,2-4,major
11471,77,64,212,116,0.0,2-4,major
11472,72,63,128,248,0.0,2-4,major
11473,68,36,180,192,0.0,2-4,other
11474,68,57,184,304,0.0,2-4,other
11475,60,44,196,420,4.0,3-3B,other
11476,56,16,216,56,4.0,3-3B,other
11477,72,35,60,324,4.0,2-4,major
11478,72,52,124,504,8.0,2-3,other
11479,66,56,200,1788,6.0,4-5A,other
11480,63,46,52,308,6.0,4-5A,other
11481,64,72,256,108,5.0,2-1,other
11482,65,64,240,360,9.0,2-3,minor
11483,72,40,64,32,9.0,2-3,minor
11484,60,35,208,32,9.0,2-3,minor
11485,57,57,188,1020,3.0,3-4A,major
11486,54,63,216,672,0.0,2-5,other
11487,55,60,560,36,0.0,2-5,other
11488,60,23,84,48,0.0,2-5,other
11489,60,55,164,1068,7.0,2-1,other
11490,61,35,140,212,7.0,2-1,other
11491,62,52,180,364,7.0,3-1,other
11492,66,75,220,372,6.0,2-3,other
11493,64,54,168,220,6.0,2-3,other
11494,65,42,156,188,10.0,3-11B,other
11495,68,81,160,192,10.0,3-11B,other
11496,61,42,52,36,10.0,3-11B,other
11497,65,44,188,128,10.0,3-11B,other
11498,66,70,120,220,10.0,3-11B,other
11499,70,77,252,156,1.0,2-3,other
11500,58,24,72,260,1.0,2-6,other
11501,68,38,144,172,1.0,2-6,other
11502,54,60,556,224,0.0,2-4,major
11503,69,49,252,140,0.0,2-4,major
11504,70,60,280,248,0.0,2-4,major
11505,73,66,224,104,0.0,2-4,major
11506,71,45,60,272,6.0,3-8B,other
11507,72,36,168,144,6.0,3-8B,other
11508,72,38,180,392,6.0,4-12B,other
11509,73,58,92,184,6.0,4-12B,other
11510,74,46,64,408,3.0,3-9,other
11511,75,45,196,144,3.0,3-9,other
11512,53,31,60,1020,3.0,2-5,other
11513,77,50,120,144,3.0,2-5,other
11514,79,75,116,212,3.0,2-5,other
11515,58,54,56,28,3.0,2-5,other
11516,80,67,148,132,3.0,2-5,other
11517,87,63,164,392,3.0,4-16A,other
11518,91,122,184,376,4.0,2-1,other
11519,89,88,184,220,4.0,2-1,other
11520,65,57,388,60,4.0,2-1,other
11521,84,43,136,128,0.0,3-4A,other
11522,80,63,132,216,0.0,3-4A,other
11523,79,46,128,192,0.0,3-4A,other
11524,65,40,52,160,0.0,3-4A,other
11525,60,44,56,52,0.0,3-4A,other
11526,91,76,160,100,0.0,3-4A,other
11527,79,75,112,32,0.0,3-4A,other
11528,65,47,44,188,0.0,3-4A,other
11529,53,37,352,568,8.0,3-2B,other
11530,63,48,52,944,11.0,3-5B,other
11531,55,42,412,464,9.0,2-6,other
11532,87,56,44,1152,5.0,1-1,other
11533,43,73,48,328,5.0,1-1,other
11534,55,27,72,28,5.0,1-1,other
11535,58,50,280,784,3.0,3-9,other
11536,89,122,148,84,3.0,3-9,other
11537,58,53,276,296,3.0,1-1,other
11538,89,92,156,108,3.0,1-1,other
11539,56,33,88,44,3.0,1-1,other
11540,87,85,164,188,3.0,1-1,other
11541,84,64,232,192,2.0,3-5B,other
11542,84,77,212,364,2.0,3-5B,other
11543,79,66,180,476,7.0,3-9,other
11544,57,49,216,140,7.0,3-9,other
11545,62,23,52,28,7.0,3-9,other
11546,77,74,180,116,7.0,3-9,other
11547,72,49,300,804,9.0,2-6,other
11548,82,83,240,376,2.0,3-5B,other
11549,80,25,88,480,2.0,3-11A,minor
11550,90,17,152,2172,0.0,5-37,other
11551,63,60,356,2728,0.0,2-5,other
11552,58,36,364,732,3.0,2-4,other
11553,94,90,160,40,3.0,2-4,other
11554,56,35,164,220,3.0,2-4,other
11555,87,42,212,220,8.0,2-3,other
11556,51,40,380,248,11.0,3-7A,minor
11557,91,78,200,80,11.0,3-7A,minor
11558,57,39,220,192,11.0,3-7A,minor
11559,89,75,192,184,11.0,3-7A,minor
11560,87,61,172,384,9.0,2-6,other
11561,57,61,160,1820,2.0,3-5B,other
11562,82,57,220,416,1.0,5-27B,other
11563,58,52,168,460,10.0,4-20,other
11564,90,23,100,840,10.0,2-5,other
11565,90,36,548,236,6.0,5-31A,diminished
11566,60,31,148,420,6.0,5-31A,diminished
11567,90,56,340,1240,1.0,2-5,other
11568,65,54,136,2600,0.0,3-4A,other
11569,63,53,136,1036,5.0,3-11A,other
11570,56,53,52,464,5.0,3-11A,other
11571,75,61,164,824,8.0,2-3,minor
11572,56,50,264,588,3.0,4-27A,other
11573,67,55,84,196,3.0,4-27A,other
11574,62,39,52,188,6.0,3-10,minor
11575,65,42,144,148,6.0,3-10,minor
11576,65,66,198,350,2.0,2-5,other
11577,62,57,100,226,2.0,2-5,other
11578,57,51,136,28,2.0,2-5,other
11579,63,60,352,140,2.0,2-5,other
11580,60,75,76,288,2.0,2-5,other
11581,54,48,52,752,7.0,2-1,other
11582,53,49,40,84,7.0,2-1,other
11583,63,63,40,300,5.0,2-5,other
11584,56,37,140,452,11.0,2-6,other
11585,63,50,80,96,11.0,2-6,other
11586,63,68,92,208,11.0,2-6,other
11587,63,50,48,552,5.0,4-27B,major
11588,60,66,304,384,0.0,2-3,minor
11589,57,57,116,200,0.0,2-3,minor
11590,58,58,252,152,0.0,2-3,minor
11591,57,41,148,212,0.0,2-3,minor
11592,60,66,328,80,0.0,2-3,minor
11593,51,44,48,412,9.0,2-6,other
11594,65,51,148,148,9.0,2-6,other
11595,75,63,188,340,10.0,2-1,other
11596,72,63,84,236,10.0,2-1,other
11597,57,39,44,36,10.0,2-1,other
11598,77,56,196,136,10.0,2-1,other
11599,84,87,224,372,8.0,2-3,other
11600,79,63,108,232,8.0,2-3,other
11601,80,66,168,160,8.0,2-3,other
11602,77,66,68,200,8.0,2-3,other
11603,64,54,148,28,8.0,2-3,other
11604,76,35,132,136,8.0,2-3,other
11605,77,51,132,396,4.0,2-3,minor
11606,72,61,88,180,4.0,2-3,minor
11607,68,55,208,160,0.0,3-8B,other
11608,70,63,208,376,0.0,2-5,other
11609,60,31,60,288,7.0,2-1,other
11610,68,51,156,108,7.0,2-1,other
11611,68,58,160,276,8.0,2-2,other
11612,67,50,140,128,8.0,2-2,other
11613,65,72,136,228,8.0,2-2,other
11614,56,43,140,32,8.0,2-2,other
11615,50,31,60,48,8.0,2-2,other
11616,64,47,148,104,8.0,2-2,other
11617,67,68,120,208,8.0,2-2,other
11618,56,33,56,60,8.0,2-2,other
11619,60,68,96,144,8.0,2-2,other
11620,56,36,52,216,8.0,2-2,other
11621,60,66,196,64,8.0,2-2,other
11622,60,72,144,288,8.0,2-2,other
11623,60,63,168,244,8.0,2-6,other
11624,60,66,168,276,8.0,2-6,other
11625,85,43,80,1176,8.0,2-3,other
11626,57,79,256,2684,3.0,3-4A,major
11627,90,40,52,156,3.0,3-4A,major
11628,64,60,120,616,10.0,4-20,other
11629,82,41,44,2628,6.0,4-12B,other
11630,53,45,392,1992,1.0,4-14B,other
11631,60,24,132,300,1.0,4-14B,other
11632,66,70,184,1084,2.0,4-25,major
11633,67,46,112,204,2.0,4-25,major
11634,79,61,104,144,2.0,4-25,major
11635,67,45,144,88,2.0,4-25,major
11636,79,51,140,148,2.0,4-25,major
11637,67,46,172,124,2.0,4-25,major
11638,79,52,104,164,2.0,4-25,major
11639,67,86,424,296,8.0,2-1,other
11640,68,52,140,104,8.0,2-1,other
11641,68,52,128,244,0.0,2-5,other
11642,68,68,132,268,0.0,2-5,other
11643,68,63,140,256,9.0,2-2,other
11644,72,46,172,128,9.0,2-2,other
11645,79,24,136,48,9.0,2-2,other
11646,68,66,132,408,3.0,3-11A,other
11647,68,66,52,264,3.0,2-4,other
11648,67,60,148,420,7.0,2-5,other
11649,67,57,120,280,7.0,2-1,other
11650,67,55,132,248,7.0,2-5,other
11651,67,64,144,284,7.0,2-5,other
11652,67,59,168,248,7.0,2-5,other
11653,54,39,64,368,8.0,2-3,other
11654,79,53,308,84,8.0,2-3,other
11655,56,55,176,564,3.0,3-8B,other
11656,76,40,172,188,10.0,1-1,other
11657,83,21,48,124,7.0,2-4,major
11658,82,42,212,252,6.0,2-5,other
11659,84,43,64,72,7.0,2-5,other
11660,55,49,140,180,2.0,3-5B,other
11661,80,31,132,172,3.0,2-5,other
11662,71,42,56,92,4.0,2-3,minor
11663,55,45,76,108,2.0,3-5B,other
11664,74,43,104,252,7.0,1-1,other
11665,55,45,132,112,2.0,3-5B,other
11666,71,33,68,264,4.0,2-5,other
11667,79,50,84,388,10.0,3-6,major
11668,55,49,160,108,2.0,3-5B,other
11669,81,45,88,212,3.0,4-22B,other
11670,79,40,44,112,4.0,2-5,other
11671,55,46,144,72,2.0,3-5B,other
11672,55,43,108,384,2.0,3-5B,other
11673,76,48,144,220,10.0,1-1,other
11674,55,51,76,168,2.0,3-5B,other
11675,78,47,48,540,0.0,1-1,other
11676,62,54,36,168,0.0,1-1,other
11677,80,66,160,160,0.0,2-4,other
11678,82,34,64,48,0.0,2-4,other
11679,72,46,108,388,2.0,4-27A,minor
11680,70,82,212,720,2.0,4-27A,minor
11681,60,63,88,180,2.0,4-27A,minor
11682,65,50,40,68,2.0,4-27A,minor
11683,68,68,152,116,2.0,4-27A,minor
11684,70,80,120,208,2.0,4-27A,minor
11685,60,42,64,44,2.0,4-27A,minor
11686,68,46,120,64,2.0,4-27A,minor
11687,67,73,132,124,2.0,4-27A,minor
11688,65,75,104,184,2.0,4-27A,minor
11689,63,42,176,204,0.0,2-4,other
11690,60,49,92,192,0.0,2-4,other
11691,50,31,68,48,0.0,2-4,other
11692,62,78,168,112,0.0,2-4,other
11693,56,43,72,212,0.0,2-4,other
11694,63,61,136,32,0.0,2-4,other
11695,62,56,148,140,0.0,2-4,other
11696,62,70,236,376,0.0,2-4,other
11697,56,63,44,208,0.0,2-4,other
11698,50,45,64,44,0.0,2-4,other
11699,60,68,96,108,0.0,2-4,other
11700,43,76,436,756,5.0,4-14A,other
11701,67,51,104,332,3.0,4-29B,other
11702,43,68,232,392,3.0,4-29B,other
11703,62,70,408,320,7.0,2-3,minor
11704,48,67,780,472,7.0,2-3,minor
11705,58,34,72,1468,0.0,3-11A,minor
11706,61,29,48,168,3.0,3-11B,major
11707,85,66,128,2388,10.0,4-20,other
11708,85,56,316,1656,0.0,5-35,other
11709,78,35,80,1756,0.0,4-26,other
11710,77,92,264,1796,0.0,3-8B,other
11711,78,77,140,248,0.0,3-8B,other
11712,75,69,140,408,5.0,3-5B,other
11713,72,46,128,160,5.0,3-5B,other
11714,59,39,52,240,5.0,3-5B,other
11715,63,47,44,764,8.0,3-10,minor
11716,78,57,148,1328,5.0,2-5,other
11717,43,84,88,556,7.0,2-1,other
11718,59,58,236,808,3.0,3-8B,other
11719,84,122,124,128,3.0,3-8B,other
11720,84,94,120,252,3.0,3-8B,other
11721,84,90,160,192,3.0,3-8B,other
11722,56,50,176,188,3.0,3-8B,other
11723,82,82,140,104,3.0,3-8B,other
11724,57,57,172,300,3.0,3-4B,other
11725,82,67,212,176,3.0,3-4B,other
11726,57,41,240,128,3.0,3-4B,other
11727,79,77,164,668,3.0,4-16A,major
11728,77,75,136,284,2.0,3-5B,other
11729,77,80,192,448,2.0,4-29A,minor
11730,75,79,140,312,2.0,2-5,other
11731,75,81,172,400,2.0,3-5B,other
11732,51,33,56,244,2.0,3-7B,other
11733,67,50,148,140,2.0,3-7B,other
11734,62,37,56,228,2.0,3-7B,other
11735,70,71,200,116,0.0,2-4,other
11736,68,72,148,412,0.0,2-5,other
11737,65,48,188,388,0.0,4-16A,other
11738,67,68,164,388,0.0,3-12,augmented
11739,56,26,76,260,0.0,2-4,major
11740,65,46,120,152,0.0,2-4,major
11741,66,74,120,180,0.0,2-4,major
11742,68,55,164,200,0.0,2-4,other
11743,60,56,56,196,0.0,2-4,other
11744,71,78,88,216,8.0,1-1,other
11745,72,75,136,164,8.0,1-1,other
11746,73,61,156,188,0.0,2-4,other
11747,75,56,220,380,0.0,2-5,other
11748,76,71,100,208,0.0,2-5,other
11749,55,56,372,188,5.0,4-14A,other
11750,77,70,180,224,5.0,4-14A,other
11751,72,39,236,152,5.0,4-14A,other
11752,55,35,52,280,0.0,2-4,other
11753,59,51,280,692,3.0,4-24,augmented
11754,82,89,216,128,3.0,4-24,augmented
11755,56,27,104,328,8.0,2-3,minor
11756,82,86,160,88,8.0,2-3,minor
11757,56,42,228,240,3.0,3-11A,other
11758,75,43,272,152,3.0,3-11A,other
11759,71,60,48,224,3.0,3-11A,other
11760,51,55,186,122,2.0,2-5,other
11761,79,68,152,38,2.0,2-5,other
11762,79,66,156,1984,2.0,3-5B,other
11763,85,37,136,400,3.0,1-1,other
11764,82,45,44,1156,10.0,4-20,other
11765,84,50,92,1092,0.0,5-26B,other
11766,58,49,118,270,0.0,4-24,augmented
11767,87,32,108,34,0.0,4-24,augmented
11768,84,22,48,28,0.0,4-24,augmented
11769,84,47,112,268,0.0,6-49,other
11770,58,34,60,580,0.0,2-3,minor
11771,53,30,52,1452,0.0,4-22A,other
11772,92,33,88,308,8.0,2-3,other
11773,53,26,72,244,0.0,2-4,other
11774,99,81,228,1776,2.0,4-27A,minor
11775,50,48,168,256,0.0,2-4,other
11776,92,63,172,164,0.0,2-4,other
11777,91,76,136,256,0.0,3-8B,other
11778,92,83,168,848,11.0,2-1,other
11779,58,45,160,276,3.0,2-4,other
11780,83,48,160,152,3.0,2-4,other
11781,82,57,112,244,3.0,3-4A,other
11782,57,63,208,364,3.0,3-5A,other
11783,82,42,52,708,6.0,2-6,other
11784,79,68,120,136,2.0,2-5,other
11785,72,71,112,156,2.0,2-5,other
11786,43,78,188,548,7.0,2-1,other
11787,77,88,212,2096,2.0,2-5,other
11788,75,56,176,400,2.0,2-5,other
11789,55,27,60,260,9.0,2-5,other
11790,78,66,216,116,9.0,2-5,other
11791,80,72,100,192,9.0,2-5,other
11792,83,66,136,188,9.0,2-5,other
11793,85,84,144,168,9.0,2-5,other
11794,88,72,172,176,3.0,3-8B,other
11795,56,1,184,124,3.0,3-8B,other
11796,86,53,40,88,3.0,3-8B,other
11797,86,44,44,156,4.0,2-2,other
11798,88,68,120,400,4.0,4-14B,other
11799,60,80,516,264,4.0,4-12A,major
11800,90,83,132,124,4.0,4-12A,major
11801,91,85,96,192,4.0,4-12A,major
11802,56,41,48,412,5.0,2-5,other
11803,84,60,136,128,5.0,2-5,other
11804,79,25,172,432,0.0,2-4,other
11805,60,48,120,184,0.0,2-4,other
11806,82,74,148,148,0.0,2-4,other
11807,80,50,152,388,8.0,2-1,other
11808,82,81,132,220,8.0,2-1,other
11809,80,31,92,144,0.0,3-8B,other
11810,62,36,60,264,7.0,2-1,other
11811,77,72,64,124,7.0,2-1,other
11812,75,81,84,204,7.0,2-1,other
11813,74,68,84,148,0.0,3-8B,other
11814,74,50,120,444,5.0,2-5,other
11815,72,56,160,376,8.0,3-2B,other
11816,74,39,104,32,8.0,3-2B,other
11817,65,62,224,340,8.0,3-2B,other
11818,72,60,148,524,7.0,3-2B,other
11819,55,62,96,284,7.0,3-2B,other
11820,74,48,68,288,8.0,4-12A,minor
11821,74,39,76,260,8.0,4-12A,minor
11822,55,57,52,228,8.0,4-12A,minor
11823,74,54,152,472,7.0,3-7A,minor
11824,75,41,68,568,7.0,3-11A,minor
11825,62,71,492,1116,1.0,5-38B,other
11826,66,27,48,1240,0.0,4-26,minor
11827,61,54,120,272,10.0,3-4A,other
11828,51,46,432,88,10.0,3-4A,other
11829,49,46,148,332,10.0,3-4A,other
11830,61,52,164,124,10.0,3-4A,other
11831,61,63,52,376,8.0,2-2,other
11832,66,28,488,1240,0.0,4-24,augmented
11833,44,69,144,900,1.0,3-2A,other
11834,53,66,136,180,1.0,3-2A,other
11835,65,63,420,272,0.0,4-22A,other
11836,56,22,164,584,0.0,4-22A,other
11837,72,45,248,332,3.0,3-7A,other
11838,65,59,216,356,1.0,2-5,other
11839,68,28,64,408,5.0,2-5,other
11840,68,68,128,584,5.0,3-11A,other
11841,56,64,388,408,0.0,3-8B,other
11842,69,55,40,108,0.0,3-11A,minor
11843,75,40,224,388,5.0,3-11A,other
11844,56,38,244,304,5.0,3-11A,other
11845,63,56,168,76,0.0,2-3,minor
11846,70,42,64,32,0.0,2-3,minor
11847,59,63,36,272,2.0,1-1,other
11848,56,32,88,368,3.0,4-16A,other
11849,68,66,272,480,3.0,3-7A,other
11850,56,33,144,448,3.0,5-26B,augmented
11851,84,48,40,1100,2.0,3-5B,other
11852,43,84,316,760,7.0,4-3,minor
11853,51,50,320,1456,8.0,2-3,minor
11854,57,50,432,28,8.0,2-3,minor
11855,91,56,164,60,3.0,2-1,other
11856,57,40,64,640,2.0,2-3,minor
11857,57,40,80,348,0.0,2-3,minor
11858,82,55,176,136,0.0,2-3,minor
11859,86,55,280,32,0.0,2-3,minor
11860,57,46,120,224,0.0,2-3,minor
11861,57,50,92,400,0.0,2-4,other
11862,62,45,236,772,7.0,2-3,minor
11863,53,43,392,1296,0.0,4-16A,other
11864,53,31,56,652,2.0,4-27A,minor
11865,53,44,384,500,0.0,3-8B,other
11866,56,39,52,620,2.0,2-2,other
11867,53,45,500,1980,3.0,2-4,other
11868,71,47,80,272,3.0,2-4,other
11869,59,40,208,72,3.0,2-4,other
11870,55,48,404,1136,3.0,4-16A,major
11871,55,39,44,1216,3.0,6-26,major
11872,57,56,236,1224,3.0,3-4B,other
11873,55,39,220,28,3.0,3-4B,other
11874,85,84,148,1336,1.0,5-27B,other
11875,84,63,140,232,10.0,4-20,other
11876,82,67,100,224,10.0,4-20,other
11877,60,46,276,1616,4.0,3-2B,minor
11878,80,57,184,648,7.0,3-2B,other
11879,56,44,652,392,5.0,3-7B,other
11880,53,16,1040,56,5.0,3-7B,other
11881,60,45,176,300,5.0,3-7B,other
11882,73,68,188,120,5.0,3-7B,other
11883,72,68,256,384,0.0,2-4,other
11884,68,68,308,384,0.0,2-4,other
11885,60,41,128,284,0.0,2-4,other
11886,56,27,88,44,0.0,2-4,other
11887,65,59,244,64,0.0,2-4,other
11888,60,49,116,1408,8.0,3-10,other
11889,72,53,188,512,8.0,3-10,other
11890,43,49,324,964,3.0,5-30B,other
11891,57,47,144,1224,3.0,3-4A,major
11892,55,26,60,360,3.0,3-4A,major
11893,54,50,168,1568,7.0,2-1,other
11894,55,55,576,156,7.0,2-1,other
11895,65,32,560,2924,3.0,4-27A,other
11896,43,30,52,440,3.0,4-27A,other
11897,86,50,308,1036,9.0,2-2,other
11898,60,38,692,852,7.0,2-2,other
11899,56,25,468,1628,0.0,4-26,other
11900,53,13,404,700,0.0,2-4,other
11901,80,26,856,124,0.0,2-4,other
11902,63,24,712,524,0.0,2-4,other
11903,53,19,660,68,11.0,2-1,other
11904,82,27,176,316,11.0,2-1,other
11905,80,21,196,292,11.0,2-1,other
11906,63,20,328,220,11.0,2-1,other
11907,57,15,2772,784,3.0,3-4A,major
11908,86,19,520,448,3.0,3-4A,major
11909,91,15,256,820,3.0,3-4A,major
11910,95,14,144,480,3.0,3-4A,major
11911,98,13,148,408,3.0,3-4A,major
11912,62,43,160,0,3.0,3-11B,major
11913,77,90,140,636,3.0,3-11B,major
11914,75,66,180,208,3.0,2-4,major
11915,74,55,68,256,3.0,2-4,major
11916,72,54,980,324,3.0,2-4,major
11917,70,69,240,1260,3.0,2-4,major
11918,60,36,84,1052,5.0,2-5,other
11919,79,99,628,104,5.0,2-5,other
11920,77,69,48,640,5.0,2-5,other
11921,60,56,44,1144,2.0,2-3,minor
11922,56,64,1412,320,2.0,2-3,minor
11923,65,11,620,116,0.0,2-5,other
11924,60,39,524,668,0.0,2-5,other
11925,65,44,412,96,0.0,2-5,other
11926,79,88,140,32,0.0,2-5,other
11927,53,50,464,800,3.0,2-4,other
11928,77,111,288,64,3.0,2-4,other
11929,75,67,180,240,3.0,2-4,other
11930,59,43,148,32,3.0,2-4,other
11931,74,58,152,160,3.0,2-4,other
11932,72,76,124,180,3.0,2-4,other
11933,53,31,356,140,3.0,2-4,other
11934,71,40,212,92,3.0,2-4,other
11935,59,35,68,104,3.0,2-4,other
11936,74,84,248,172,3.0,2-4,other
11937,57,45,500,260,3.0,2-1,other
11938,72,69,160,124,3.0,2-1,other
11939,67,46,68,240,3.0,2-1,other
11940,65,52,208,148,3.0,2-1,other
11941,63,56,148,220,3.0,2-1,other
11942,62,45,230,228,9.0,2-3,minor
11943,57,45,112,188,9.0,2-3,minor
11944,63,49,232,100,9.0,2-3,minor
11945,57,32,140,176,9.0,2-3,minor
11946,60,55,64,80,9.0,2-3,minor
11947,61,50,72,2564,6.0,3-5B,other
11948,54,44,984,620,0.0,3-3B,other
11949,60,43,164,1656,1.0,2-3,other
11950,77,55,40,1348,8.0,2-2,other
11951,53,44,252,220,0.0,3-11B,other
11952,60,51,48,544,3.0,2-5,other
11953,56,35,56,28,3.0,2-5,other
11954,55,60,356,724,0.0,4-26,other
11955,74,64,108,524,5.0,4-14A,other
11956,58,51,216,2004,3.0,3-4A,other
11957,68,56,116,280,3.0,2-5,other
11958,53,46,48,796,7.0,2-1,other
11959,43,68,156,564,7.0,2-1,other
11960,53,43,652,980,3.0,3-4A,other
11961,71,42,176,592,3.0,3-4A,other
11962,74,48,132,224,3.0,3-4A,other
11963,77,99,144,180,3.0,3-4A,other
11964,57,56,820,64,3.0,2-1,other
11965,75,57,276,100,3.0,2-1,other
11966,67,48,64,332,3.0,2-1,other
11967,67,53,122,372,3.0,2-1,other
11968,57,42,56,820,3.0,2-1,other
11969,72,44,76,756,2.0,2-5,other
11970,74,86,84,228,2.0,2-5,other
11971,75,93,140,164,2.0,2-5,other
11972,77,97,136,212,2.0,2-5,other
11973,75,64,168,176,0.0,3-8B,other
11974,74,61,112,224,0.0,3-8B,other
11975,72,54,140,136,0.0,3-8B,other
11976,74,70,216,364,0.0,3-3B,other
11977,71,35,84,252,0.0,3-3B,other
11978,72,50,160,132,0.0,3-3B,other
11979,74,69,132,2708,0.0,2-4,other
11980,75,84,124,208,0.0,2-4,other
11981,76,88,136,176,0.0,2-4,other
11982,75,68,200,404,10.0,3-5B,other
11983,74,111,240,772,3.0,3-4A,other
11984,75,92,164,196,3.0,3-4A,other
11985,76,62,116,172,3.0,3-4A,other
11986,62,48,412,236,5.0,3-8A,major
11987,74,113,216,336,5.0,3-8A,major
11988,73,57,136,208,5.0,3-8A,major
11989,72,40,64,144,5.0,3-8A,major
11990,74,91,216,224,11.0,2-2,other
11991,71,37,52,244,11.0,2-2,other
11992,72,63,172,128,11.0,2-2,other
11993,67,60,108,220,11.0,2-2,other
11994,63,63,48,152,2.0,2-5,other
11995,62,65,200,396,9.0,2-3,minor
11996,63,64,144,228,9.0,2-3,minor
11997,65,48,140,200,9.0,2-6,other
11998,66,70,108,188,9.0,2-6,other
11999,68,64,136,176,9.0,2-6,other
12000,72,59,56,412,10.0,2-4,other
12001,73,68,56,172,10.0,2-4,other
12002,75,63,36,184,10.0,2-4,other
12003,77,68,36,188,10.0,2-4,other
12004,58,40,160,120,5.0,2-4,other
12005,78,56,40,44,5.0,2-4,other
12006,80,55,40,204,5.0,2-4,other
12007,82,62,40,168,5.0,2-4,other
12008,84,75,104,188,5.0,2-4,other
12009,81,55,124,548,9.0,2-3,minor
12010,60,46,136,308,6.0,2-2,other
12011,81,60,228,56,6.0,2-2,other
12012,82,57,84,248,6.0,2-2,other
12013,83,44,108,108,6.0,2-2,other
12014,84,77,140,96,6.0,2-2,other
12015,56,44,56,292,0.0,3-11B,other
12016,80,51,128,192,0.0,3-11B,other
12017,80,60,136,288,0.0,3-11B,other
12018,56,45,180,296,0.0,3-11B,other
12019,56,39,72,832,0.0,2-3,minor
12020,56,43,56,676,0.0,2-3,minor
12021,79,62,172,124,0.0,2-3,minor
12022,80,73,88,224,0.0,2-3,minor
12023,84,89,88,176,0.0,2-3,minor
12024,87,102,220,200,0.0,2-3,minor
12025,88,105,140,184,5.0,4-14A,other
12026,91,123,192,204,5.0,4-14A,other
12027,89,85,156,172,5.0,4-14A,other
12028,88,62,136,412,5.0,3-7B,other
12029,91,68,104,420,0.0,2-4,other
12030,92,101,132,184,0.0,2-4,other
12031,53,46,404,68,4.0,2-5,other
12032,94,105,156,140,4.0,2-5,other
12033,94,92,176,248,4.0,2-5,other
12034,94,99,160,512,8.0,2-3,other
12035,56,53,168,204,8.0,2-3,other
12036,59,37,56,32,8.0,2-3,other
12037,92,83,152,28,8.0,2-3,other
12038,84,51,52,628,3.0,4-16A,major
12039,84,66,148,160,3.0,4-16A,major
12040,84,76,112,252,3.0,4-16A,major
12041,96,89,152,192,3.0,4-16A,major
12042,96,83,152,296,7.0,2-1,other
12043,43,64,72,264,7.0,2-1,other
12044,89,107,176,924,3.0,3-8B,other
12045,90,86,172,216,3.0,3-8B,other
12046,89,60,168,192,3.0,3-8B,other
12047,57,51,68,232,3.0,2-1,other
12048,88,76,148,552,9.0,1-1,other
12049,90,101,156,228,9.0,1-1,other
12050,57,68,64,28,9.0,1-1,other
12051,89,75,176,136,9.0,1-1,other
12052,84,60,76,372,9.0,2-6,other
12053,57,57,88,288,9.0,2-6,other
12054,89,87,132,96,9.0,2-6,other
12055,90,92,156,188,9.0,2-6,other
12056,57,50,40,76,9.0,2-6,other
12057,89,76,184,76,9.0,2-6,other
12058,87,76,160,220,9.0,2-6,other
12059,84,51,116,200,2.0,2-5,other
12060,82,70,84,196,2.0,2-5,other
12061,60,58,344,420,8.0,2-6,other
12062,53,48,472,40,8.0,2-6,other
12063,84,48,48,736,0.0,2-3,minor
12064,87,93,164,148,0.0,2-3,minor
12065,84,75,112,228,0.0,2-3,minor
12066,56,35,80,32,0.0,2-3,minor
12067,82,91,336,320,0.0,2-3,minor
12068,80,47,44,412,0.0,2-3,minor
12069,60,45,88,32,0.0,2-3,minor
12070,56,23,72,76,0.0,2-3,minor
12071,82,83,224,36,0.0,2-3,minor
12072,77,94,276,640,8.0,1-1,other
12073,60,40,58,58,8.0,1-1,other
12074,75,53,52,346,0.0,2-4,other
12075,55,41,496,424,0.0,4-26,other
12076,74,58,152,128,0.0,4-26,other
12077,74,90,260,428,0.0,1-1,other
12078,72,51,200,316,5.0,3-11A,other
12079,53,50,420,308,4.0,2-5,other
12080,56,46,1296,680,3.0,2-4,other
12081,53,8,596,116,3.0,2-4,other
12082,59,45,156,300,3.0,2-4,other
12083,71,61,172,116,3.0,2-4,other
12084,72,30,200,308,8.0,3-10,other
12085,73,39,96,1252,3.0,3-4A,major
12086,70,40,172,44,3.0,3-4A,major
12087,73,50,44,1340,10.0,3-4A,other
12088,63,49,244,112,10.0,3-4A,other
12089,73,44,52,288,10.0,3-4A,other
12090,70,38,212,192,5.0,2-1,other
12091,66,40,60,332,3.0,1-1,other
12092,73,36,52,260,10.0,3-4A,other
12093,65,50,248,172,10.0,3-4A,other
12094,73,30,76,32,10.0,3-4A,other
12095,63,60,44,184,10.0,3-4A,other
12096,70,40,60,96,6.0,2-3,other
12097,53,35,452,1828,0.0,2-4,other
12098,68,47,152,2444,10.0,2-5,other
12099,68,40,48,280,5.0,2-5,other
12100,50,44,440,340,5.0,3-11A,other
12101,60,52,48,1092,7.0,3-2B,other
12102,68,70,48,68,7.0,3-2B,other
12103,72,64,68,180,7.0,3-2B,other
12104,75,51,56,100,7.0,3-2B,other
12105,76,76,88,80,7.0,3-2B,other
12106,77,91,144,440,3.0,4-24,augmented
12107,72,73,112,264,3.0,4-24,augmented
12108,68,58,152,204,3.0,3-8B,other
12109,67,60,108,204,3.0,3-8B,other
12110,53,36,80,68,3.0,2-4,other
12111,65,42,148,124,3.0,2-4,other
12112,63,66,108,180,3.0,2-4,other
12113,62,47,188,192,9.0,2-6,other
12114,57,50,140,188,9.0,2-6,other
12115,65,64,196,112,9.0,2-6,other
12116,57,55,56,220,9.0,2-6,other
12117,63,65,188,188,9.0,2-6,other
12118,55,69,108,236,9.0,2-6,other
12119,43,72,44,360,9.0,2-6,other
12120,53,62,848,424,3.0,3-4A,other
12121,67,51,44,500,3.0,3-4A,other
12122,71,71,84,412,10.0,2-1,other
12123,57,56,68,268,3.0,2-1,other
12124,71,52,148,144,3.0,2-1,other
12125,57,40,68,228,3.0,2-1,other
12126,71,65,152,128,3.0,2-1,other
12127,57,48,60,264,3.0,2-1,other
12128,71,70,264,108,3.0,2-1,other
12129,71,97,256,612,3.0,2-1,other
12130,72,58,168,204,2.0,3-5B,other
12131,73,68,128,124,2.0,3-5B,other
12132,71,99,260,500,2.0,2-5,other
12133,72,61,132,252,2.0,2-5,other
12134,57,57,44,100,2.0,2-5,other
12135,73,71,104,32,2.0,2-5,other
12136,74,75,84,136,2.0,2-5,other
12137,75,93,156,204,2.0,2-5,other
12138,60,33,72,48,2.0,2-5,other
12139,56,28,68,36,2.0,2-5,other
12140,76,70,132,116,2.0,2-5,other
12141,79,109,144,196,2.0,2-5,other
12142,76,59,116,192,0.0,2-4,other
12143,76,68,132,372,8.0,2-3,other
12144,72,53,188,332,0.0,2-4,other
12145,67,38,152,416,0.0,2-4,other
12146,70,68,112,192,0.0,2-4,other
12147,68,48,224,144,0.0,2-4,other
12148,67,60,180,408,4.0,2-4,major
12149,65,58,160,404,0.0,3-12,augmented
12150,67,70,84,240,0.0,3-12,augmented
12151,60,35,60,88,0.0,3-12,augmented
12152,68,64,108,72,0.0,3-12,augmented
12153,68,67,104,196,0.0,3-12,augmented
12154,68,56,104,184,0.0,3-12,augmented
12155,68,69,108,188,0.0,3-12,augmented
12156,68,65,120,192,0.0,2-4,other
12157,60,34,56,260,8.0,3-7B,other
12158,68,70,96,136,8.0,3-7B,other
12159,59,65,164,208,8.0,3-7B,other
12160,67,80,84,212,8.0,2-3,other
12161,67,75,88,184,8.0,2-3,other
12162,67,65,84,192,8.0,2-3,other
12163,67,68,116,396,4.0,3-11A,minor
12164,68,84,116,188,4.0,3-11A,minor
12165,53,33,64,64,3.0,2-4,other
12166,67,70,120,132,3.0,2-4,other
12167,63,61,64,392,9.0,2-6,other
12168,57,52,120,128,9.0,2-6,other
12169,63,71,92,48,9.0,2-6,other
12170,63,70,76,172,9.0,2-6,other
12171,63,66,108,372,9.0,2-6,other
12172,65,78,124,192,9.0,2-6,other
12173,63,62,48,180,9.0,2-6,other
12174,62,75,124,196,9.0,2-6,other
12175,57,61,68,32,9.0,2-6,other
12176,60,58,176,160,9.0,2-6,other
12177,57,39,92,196,9.0,2-6,other
12178,60,75,380,152,9.0,2-6,other
12179,57,48,92,200,9.0,2-6,other
12180,59,57,60,196,9.0,2-6,other
12181,60,34,56,28,9.0,2-6,other
12182,57,62,56,196,9.0,2-6,other
12183,59,76,216,176,9.0,2-6,other
12184,60,67,132,220,9.0,2-6,other
12185,61,55,152,188,9.0,2-6,other
12186,63,60,112,212,9.0,2-6,other
12187,64,52,144,164,9.0,2-6,other
12188,66,80,140,188,9.0,2-6,other
12189,68,60,148,164,4.0,3-9,other
12190,71,79,112,208,4.0,3-9,other
12191,73,64,168,168,4.0,3-9,other
12192,75,78,132,204,4.0,3-9,other
12193,76,60,116,192,4.0,3-9,other
12194,78,44,56,168,4.0,3-9,other
12195,78,58,44,184,4.0,3-9,other
12196,60,62,140,3876,0.0,5-27B,other
12197,53,64,336,1568,3.0,3-4A,other
12198,87,37,360,52,3.0,3-4A,other
12199,53,61,344,540,3.0,4-14A,other
12200,85,69,144,1512,5.0,2-4,major
12201,86,66,120,176,5.0,2-4,major
12202,57,51,148,160,5.0,2-4,major
12203,89,102,180,32,5.0,2-4,major
12204,86,64,116,192,5.0,2-4,major
12205,57,44,64,144,5.0,2-4,major
12206,77,64,132,220,5.0,2-4,major
12207,53,44,44,180,5.0,2-4,major
12208,43,74,484,420,7.0,2-1,other
12209,85,61,184,1420,2.0,1-1,other
12210,84,60,120,100,2.0,1-1,other
12211,59,47,76,104,2.0,1-1,other
12212,83,55,120,64,2.0,1-1,other
12213,83,51,144,1200,3.0,1-1,other
12214,59,33,120,44,3.0,1-1,other
12215,60,60,156,312,2.0,1-1,other
12216,84,67,132,36,2.0,1-1,other
12217,78,62,48,748,7.0,1-1,other
12218,78,67,132,932,7.0,1-1,other
12219,77,70,136,56,7.0,1-1,other
12220,76,61,128,532,7.0,1-1,other
12221,52,44,140,76,7.0,1-1,other
12222,77,87,128,140,7.0,1-1,other
12223,53,71,164,48,7.0,1-1,other
12224,79,57,88,172,7.0,1-1,other
12225,82,73,84,384,8.0,1-1,other
12226,58,65,116,44,8.0,1-1,other
12227,65,36,56,728,7.0,1-1,other
12228,64,55,128,156,7.0,1-1,other
12229,88,80,96,32,7.0,1-1,other
12230,65,67,156,136,7.0,1-1,other
12231,89,98,140,32,7.0,1-1,other
12232,80,41,140,356,0.0,1-1,other
12233,82,90,156,348,7.0,2-2,other
12234,58,77,172,40,7.0,2-2,other
12235,79,40,44,216,7.0,2-2,other
12236,55,70,420,420,8.0,2-1,other
12237,80,51,108,220,8.0,2-1,other
12238,79,70,104,60,8.0,2-1,other
12239,56,43,56,28,8.0,2-1,other
12240,77,74,44,76,8.0,2-1,other
12241,72,77,112,784,5.0,1-1,other
12242,74,79,256,532,2.0,2-1,other
12243,65,50,156,2276,7.0,1-1,other
12244,66,65,104,224,7.0,1-1,other
12245,68,63,160,160,7.0,1-1,other
12246,72,52,56,440,1.0,2-3,other
12247,73,61,40,172,1.0,2-3,other
12248,75,60,36,164,1.0,2-3,other
12249,77,77,40,196,1.0,2-3,other
12250,61,42,56,40,1.0,2-3,other
12251,78,68,40,132,1.0,2-3,other
12252,80,76,40,196,1.0,2-3,other
12253,82,61,40,196,1.0,2-3,other
12254,84,63,38,190,1.0,2-3,other
12255,85,67,40,166,6.0,2-2,other
12256,60,32,48,244,6.0,2-2,other
12257,88,104,84,384,6.0,4-12B,other
12258,60,72,184,596,6.0,3-8B,other
12259,63,69,52,256,0.0,2-4,other
12260,56,19,252,224,3.0,3-6,major
12261,87,89,124,236,3.0,3-6,major
12262,53,32,60,288,0.0,2-4,other
12263,80,69,128,288,0.0,2-4,other
12264,77,61,56,192,0.0,2-4,other
12265,63,58,108,360,0.0,2-4,other
12266,56,40,72,684,0.0,2-3,minor
12267,91,126,176,92,0.0,2-3,minor
12268,89,82,152,240,0.0,2-3,minor
12269,84,58,188,140,0.0,2-3,minor
12270,80,70,172,228,0.0,2-3,minor
12271,79,55,115,209,5.0,4-14A,other
12272,63,61,272,1291,0.0,2-5,other
12273,59,47,212,48,0.0,2-5,other
12274,53,35,156,28,0.0,2-5,other
12275,53,51,112,1068,3.0,3-4A,other
12276,75,70,128,272,3.0,3-9,other
12277,43,80,104,2100,7.0,2-1,other
12278,57,73,628,1168,3.0,2-1,other
12279,55,64,608,32,3.0,2-1,other
12280,55,56,304,916,2.0,3-5B,other
12281,55,45,480,620,9.0,5-29B,diminished
12282,72,38,304,3972,2.0,2-3,minor
12283,62,33,104,1904,0.0,2-4,other
12284,50,25,176,28,0.0,2-4,other
12285,53,62,40,2160,7.0,4-26,minor
12286,51,55,136,336,7.0,4-26,minor
12287,52,44,60,68,7.0,4-26,minor
12288,62,50,112,108,7.0,3-7A,minor
12289,89,69,152,3308,10.0,2-4,other
12290,86,90,196,628,10.0,2-4,other
12291,54,58,208,1200,0.0,5-18A,other
12292,60,46,104,32,0.0,5-18A,other
12293,79,39,184,956,0.0,2-4,other
12294,56,48,228,196,0.0,2-3,minor
12295,56,47,196,788,5.0,3-11A,other
12296,76,55,156,156,5.0,3-11A,other
12297,56,30,104,252,6.0,3-10,other
12298,78,49,68,356,5.0,4-11A,other
12299,56,41,120,28,5.0,4-11A,other
12300,72,19,80,248,5.0,4-11A,other
12301,56,50,72,512,0.0,2-4,major
12302,75,89,148,352,0.0,2-4,other
12303,72,59,152,212,0.0,2-4,other
12304,68,80,144,176,0.0,2-4,other
12305,67,34,104,216,0.0,3-8B,other
12306,63,60,132,192,0.0,3-8B,other
12307,50,33,60,120,0.0,3-8B,other
12308,62,27,124,80,0.0,3-8B,other
12309,61,65,156,160,0.0,3-8B,other
12310,60,45,168,200,7.0,2-2,other
12311,62,91,220,356,11.0,2-3,minor
12312,60,50,184,404,11.0,2-3,minor
12313,48,27,132,268,7.0,3-9,other
12314,63,70,167,132,7.0,3-9,other
12315,48,49,92,188,7.0,3-9,other
12316,62,64,132,44,7.0,3-9,other
12317,60,46,184,164,7.0,3-9,other
12318,55,68,36,204,7.0,3-9,other
12319,55,60,216,160,7.0,3-9,other
12320,43,50,48,232,7.0,3-9,other
12321,55,64,288,116,7.0,3-9,other
12322,58,82,196,376,7.0,3-9,other
12323,59,66,92,240,7.0,3-9,other
12324,55,44,48,60,7.0,3-9,other
12325,62,66,144,108,7.0,3-9,other
12326,59,47,56,224,7.0,3-9,other
12327,60,56,136,160,7.0,3-9,other
12328,62,73,148,208,7.0,3-9,other
12329,63,55,76,184,7.0,3-9,other
12330,64,62,116,200,7.0,3-9,other
12331,66,62,188,152,3.0,3-9,other
12332,68,66,108,204,3.0,3-9,other
12333,71,59,196,180,3.0,3-9,other
12334,73,82,112,228,3.0,3-9,other
12335,76,70,160,204,3.0,3-9,other
12336,78,76,40,196,3.0,3-9,other
12337,57,35,64,40,3.0,3-9,other
12338,80,67,76,124,3.0,3-9,other
12339,82,40,112,412,9.0,1-1,other
12340,86,120,200,348,11.0,2-2,other
12341,57,46,56,656,7.0,2-5,other
12342,77,62,155,140,7.0,2-5,other
12343,74,35,136,436,5.0,3-11A,other
12344,74,60,200,296,5.0,3-11A,other
12345,53,31,64,656,0.0,3-8B,other
12346,91,76,92,820,0.0,3-8B,other
12347,79,43,44,40,0.0,3-8B,other
12348,89,53,56,112,0.0,3-8B,other
12349,89,67,148,428,5.0,3-11A,other
12350,60,44,51,89,5.0,3-11A,other
12351,84,50,44,67,5.0,3-11A,other
12352,89,80,160,112,5.0,3-11A,other
12353,55,44,344,492,5.0,3-11A,other
12354,59,44,220,1608,7.0,1-1,other
12355,89,45,48,128,7.0,1-1,other
12356,63,58,52,304,7.0,1-1,other
12357,59,51,172,32,7.0,1-1,other
12358,91,67,113,59,7.0,1-1,other
12359,79,45,56,45,7.0,1-1,other
12360,89,51,108,96,7.0,1-1,other
12361,91,75,128,444,11.0,2-1,other
12362,79,41,52,56,11.0,2-1,other
12363,89,64,104,88,11.0,2-1,other
12364,57,44,108,448,7.0,1-1,other
12365,89,80,188,64,7.0,1-1,other
12366,57,60,124,268,3.0,2-1,other
12367,89,82,164,176,3.0,2-1,other
12368,57,55,104,164,3.0,2-1,other
12369,87,77,184,144,3.0,2-1,other
12370,57,44,252,292,3.0,3-4A,major
12371,84,58,204,820,3.0,2-1,other
12372,87,101,208,684,2.0,1-1,other
12373,84,53,436,924,10.0,4-20,other
12374,60,57,680,1360,4.0,3-8A,other
12375,84,83,168,356,4.0,3-8A,other
12376,83,66,168,220,4.0,3-8A,other
12377,56,45,460,276,5.0,2-2,other
12378,80,68,124,128,5.0,2-2,other
12379,80,78,240,300,5.0,2-2,other
12380,63,52,144,304,5.0,2-2,other
12381,80,77,208,76,0.0,2-4,other
12382,77,80,104,240,0.0,2-4,other
12383,75,55,208,172,0.0,2-4,other
12384,72,58,112,448,0.0,2-4,other
12385,72,79,152,560,0.0,1-1,other
12386,56,34,232,72,0.0,2-3,minor
12387,70,80,144,240,0.0,2-3,minor
12388,68,68,164,180,0.0,2-3,minor
12389,65,70,64,232,0.0,2-3,minor
12390,55,23,88,112,0.0,2-4,other
12391,67,76,196,56,0.0,2-4,other
12392,60,36,88,272,0.0,2-4,other
12393,67,88,168,72,0.0,2-4,other
12394,60,46,112,292,7.0,3-2B,other
12395,68,80,124,304,7.0,3-2B,other
12396,65,52,40,40,7.0,3-2B,other
12397,60,48,60,28,7.0,3-2B,other
12398,67,57,176,96,7.0,3-2B,other
12399,65,76,108,208,7.0,3-2B,other
12400,59,55,172,32,7.0,3-2B,other
12401,59,34,140,256,5.0,2-2,other
12402,63,73,220,272,5.0,2-2,other
12403,58,38,172,232,5.0,2-2,other
12404,59,34,100,28,5.0,2-2,other
12405,63,64,192,120,5.0,2-2,other
12406,62,65,92,232,5.0,2-2,other
12407,58,43,56,28,5.0,2-2,other
12408,60,56,192,140,5.0,2-2,other
12409,51,41,64,276,11.0,2-2,other
12410,62,72,180,124,11.0,2-2,other
12411,59,55,60,232,11.0,2-2,other
12412,57,25,104,48,11.0,2-2,other
12413,60,56,152,128,11.0,2-2,other
12414,62,76,128,220,11.0,2-2,other
12415,63,55,116,192,11.0,2-2,other
12416,70,39,148,380,9.0,3-8B,other
12417,71,48,60,192,9.0,3-8B,other
12418,54,62,76,96,9.0,3-8B,other
12419,72,76,288,676,7.0,2-4,major
12420,67,80,384,208,7.0,2-4,major
12421,63,51,60,232,7.0,2-4,major
12422,58,52,68,36,7.0,2-4,major
12423,57,46,104,1112,2.0,2-3,minor
12424,57,47,132,352,0.0,2-3,minor
12425,57,40,68,400,10.0,2-4,major
12426,72,63,36,64,10.0,2-4,major
12427,57,55,72,276,10.0,2-4,major
12428,57,66,44,804,2.0,2-5,other
12429,70,83,180,124,2.0,2-5,other
12430,53,42,568,396,0.0,3-8B,other
12431,60,48,76,692,0.0,3-8B,other
12432,63,80,492,84,0.0,4-26,other
12433,63,62,152,720,0.0,4-26,other
12434,75,52,52,1044,0.0,4-26,other
12435,74,56,384,804,5.0,3-11A,other
12436,60,38,52,864,8.0,2-6,other
12437,72,53,176,44,8.0,2-6,other
12438,70,69,536,336,8.0,2-6,other
12439,59,44,208,72,5.0,2-2,other
12440,57,55,48,2532,7.0,2-1,other
12441,70,37,80,176,1.0,4-5A,other
12442,74,35,52,1340,7.0,3-7A,minor
12443,70,30,128,188,3.0,1-1,other
12444,67,24,44,28,3.0,1-1,other
12445,61,51,400,312,10.0,3-4A,other
12446,75,82,172,704,10.0,4-20,other
12447,73,75,136,260,10.0,4-20,other
12448,70,90,456,728,0.0,2-4,major
12449,60,53,184,64,6.0,2-2,other
12450,60,35,152,356,6.0,2-2,other
12451,68,81,228,116,6.0,2-2,other
12452,54,49,256,244,6.0,2-2,other
12453,60,40,316,96,6.0,2-2,other
12454,67,82,244,48,6.0,2-2,other
12455,53,1,340,580,8.0,2-1,other
12456,65,73,860,252,8.0,2-1,other
12457,63,50,48,244,8.0,2-1,other
12458,68,98,400,736,0.0,3-11B,other
12459,56,40,164,424,0.0,2-3,minor
12460,68,71,224,88,0.0,2-3,minor
12461,68,79,164,396,0.0,2-4,other
12462,68,57,140,412,0.0,3-6,other
12463,67,70,168,576,0.0,4-16A,other
12464,65,62,136,168,0.0,4-16A,other
12465,64,55,76,228,0.0,4-16A,other
12466,56,58,132,80,0.0,4-16A,other
12467,50,35,128,36,0.0,4-16A,other
12468,67,67,184,28,0.0,4-16A,other
12469,64,54,128,228,0.0,4-16A,other
12470,65,64,156,156,0.0,4-16A,other
12471,53,44,60,280,0.0,2-5,other
12472,56,56,196,140,0.0,2-5,other
12473,55,62,196,316,0.0,2-5,other
12474,51,64,164,592,7.0,2-2,other
12475,72,67,264,1752,3.0,2-1,other
12476,53,42,260,436,0.0,3-8B,other
12477,87,56,116,2700,2.0,3-7A,minor
12478,57,55,264,1900,3.0,3-4A,major
12479,81,44,176,908,3.0,4-9,other
12480,62,22,88,284,0.0,1-1,other
12481,56,58,256,1152,3.0,5-26B,augmented
12482,65,56,108,996,10.0,5-20A,major
12483,51,28,88,64,10.0,5-20A,major
12484,65,44,128,184,2.0,2-5,other
12485,51,57,126,40,2.0,2-5,other
12486,62,37,60,176,10.0,2-1,other
12487,62,29,60,284,10.0,2-1,other
12488,65,48,128,52,10.0,2-1,other
12489,51,54,120,32,10.0,2-1,other
12490,70,46,76,140,10.0,2-1,other
12491,57,33,60,36,10.0,2-1,other
12492,70,47,88,248,5.0,2-2,other
12493,65,50,124,116,2.0,2-5,other
12494,51,53,148,56,2.0,2-5,other
12495,70,42,104,100,2.0,2-5,other
12496,62,43,160,0,3.0,3-11B,major
12497,77,90,140,636,3.0,3-11B,major
12498,75,66,180,208,3.0,2-4,major
12499,74,55,68,256,3.0,2-4,major
12500,72,54,980,324,3.0,2-4,major
12501,70,69,240,1260,3.0,2-4,major
12502,60,36,84,1052,5.0,2-5,other
12503,79,99,628,104,5.0,2-5,other
12504,77,69,48,640,5.0,2-5,other
12505,60,56,44,1144,2.0,2-3,minor
12506,56,64,1412,320,2.0,2-3,minor
12507,65,11,620,116,0.0,2-5,other
12508,60,39,524,668,0.0,2-5,other
12509,65,44,412,96,0.0,2-5,other
12510,79,88,140,32,0.0,2-5,other
12511,53,50,464,800,3.0,2-4,other
12512,77,111,288,64,3.0,2-4,other
12513,75,67,180,240,3.0,2-4,other
12514,59,43,148,32,3.0,2-4,other
12515,74,58,152,160,3.0,2-4,other
12516,72,76,124,180,3.0,2-4,other
12517,53,31,356,140,3.0,2-4,other
12518,71,40,212,92,3.0,2-4,other
12519,59,35,68,104,3.0,2-4,other
12520,74,84,248,172,3.0,2-4,other
12521,57,45,500,260,3.0,2-1,other
12522,72,69,160,124,3.0,2-1,other
12523,67,46,68,240,3.0,2-1,other
12524,65,52,208,148,3.0,2-1,other
12525,63,56,148,220,3.0,2-1,other
12526,62,45,230,228,9.0,2-3,minor
12527,57,45,112,188,9.0,2-3,minor
12528,63,49,232,100,9.0,2-3,minor
12529,57,32,140,176,9.0,2-3,minor
12530,60,55,64,80,9.0,2-3,minor
12531,61,50,72,2564,6.0,3-5B,other
12532,54,44,984,620,0.0,3-3B,other
12533,60,43,164,1656,1.0,2-3,other
12534,77,55,40,1348,8.0,2-2,other
12535,53,44,252,220,0.0,3-11B,other
12536,60,51,48,544,3.0,2-5,other
12537,56,35,56,28,3.0,2-5,other
12538,55,60,356,724,0.0,4-26,other
12539,74,64,108,524,5.0,4-14A,other
12540,58,51,216,2004,3.0,3-4A,other
12541,68,56,116,280,3.0,2-5,other
12542,53,46,48,796,7.0,2-1,other
12543,43,68,156,564,7.0,2-1,other
12544,53,43,652,980,3.0,3-4A,other
12545,71,42,176,592,3.0,3-4A,other
12546,74,48,132,224,3.0,3-4A,other
12547,77,99,144,180,3.0,3-4A,other
12548,57,56,820,64,3.0,2-1,other
12549,75,57,276,100,3.0,2-1,other
12550,67,48,64,332,3.0,2-1,other
12551,67,53,122,372,3.0,2-1,other
12552,57,42,56,820,3.0,2-1,other
12553,72,44,76,756,2.0,2-5,other
12554,74,86,84,228,2.0,2-5,other
12555,75,93,140,164,2.0,2-5,other
12556,77,97,136,212,2.0,2-5,other
12557,75,64,168,176,0.0,3-8B,other
12558,74,61,112,224,0.0,3-8B,other
12559,72,54,140,136,0.0,3-8B,other
12560,74,70,216,364,0.0,3-3B,other
12561,71,35,84,252,0.0,3-3B,other
12562,72,50,160,132,0.0,3-3B,other
12563,74,69,132,2708,0.0,2-4,other
12564,75,84,124,208,0.0,2-4,other
12565,76,88,136,176,0.0,2-4,other
12566,75,68,200,404,10.0,3-5B,other
12567,74,111,240,772,3.0,3-4A,other
12568,75,92,164,196,3.0,3-4A,other
12569,76,62,116,172,3.0,3-4A,other
12570,62,48,412,236,5.0,3-8A,major
12571,74,113,216,336,5.0,3-8A,major
12572,73,57,136,208,5.0,3-8A,major
12573,72,40,64,144,5.0,3-8A,major
12574,74,91,216,224,11.0,2-2,other
12575,71,37,52,244,11.0,2-2,other
12576,72,63,172,128,11.0,2-2,other
12577,67,60,108,220,11.0,2-2,other
12578,63,63,48,152,2.0,2-5,other
12579,62,65,200,396,9.0,2-3,minor
12580,63,64,144,228,9.0,2-3,minor
12581,65,48,140,200,9.0,2-6,other
12582,66,70,108,188,9.0,2-6,other
12583,68,64,136,176,9.0,2-6,other
12584,72,59,56,412,10.0,2-4,other
12585,73,68,56,172,10.0,2-4,other
12586,75,63,36,184,10.0,2-4,other
12587,77,68,36,188,10.0,2-4,other
12588,58,40,160,120,5.0,2-4,other
12589,78,56,40,44,5.0,2-4,other
12590,80,55,40,204,5.0,2-4,other
12591,82,62,40,168,5.0,2-4,other
12592,84,75,104,188,5.0,2-4,other
12593,81,55,124,548,9.0,2-3,minor
12594,60,46,136,308,6.0,2-2,other
12595,81,60,228,56,6.0,2-2,other
12596,82,57,84,248,6.0,2-2,other
12597,83,44,108,108,6.0,2-2,other
12598,84,77,140,96,6.0,2-2,other
12599,56,44,56,292,0.0,3-11B,other
12600,80,51,128,192,0.0,3-11B,other
12601,80,60,136,288,0.0,3-11B,other
12602,56,45,180,296,0.0,3-11B,other
12603,56,39,72,832,0.0,2-3,minor
12604,56,43,56,676,0.0,2-3,minor
12605,79,62,172,124,0.0,2-3,minor
12606,80,73,88,224,0.0,2-3,minor
12607,84,89,88,176,0.0,2-3,minor
12608,87,102,220,200,0.0,2-3,minor
12609,88,105,140,184,5.0,4-14A,other
12610,91,123,192,204,5.0,4-14A,other
12611,89,85,156,172,5.0,4-14A,other
12612,88,62,136,412,5.0,3-7B,other
12613,91,68,104,420,0.0,2-4,other
12614,92,101,132,184,0.0,2-4,other
12615,53,46,404,68,4.0,2-5,other
12616,94,105,156,140,4.0,2-5,other
12617,94,92,176,248,4.0,2-5,other
12618,94,99,160,512,8.0,2-3,other
12619,56,53,168,204,8.0,2-3,other
12620,59,37,56,32,8.0,2-3,other
12621,92,83,152,28,8.0,2-3,other
12622,84,51,52,628,3.0,4-16A,major
12623,84,66,148,160,3.0,4-16A,major
12624,84,76,112,252,3.0,4-16A,major
12625,96,89,152,192,3.0,4-16A,major
12626,96,83,152,296,7.0,2-1,other
12627,43,64,72,264,7.0,2-1,other
12628,89,107,176,924,3.0,3-8B,other
12629,90,86,172,216,3.0,3-8B,other
12630,89,60,168,192,3.0,3-8B,other
12631,57,51,68,232,3.0,2-1,other
12632,88,76,148,552,9.0,1-1,other
12633,90,101,156,228,9.0,1-1,other
12634,57,68,64,28,9.0,1-1,other
12635,89,75,176,136,9.0,1-1,other
12636,84,60,76,372,9.0,2-6,other
12637,57,57,88,288,9.0,2-6,other
12638,89,87,132,96,9.0,2-6,other
12639,90,92,156,188,9.0,2-6,other
12640,57,50,40,76,9.0,2-6,other
12641,89,76,184,76,9.0,2-6,other
12642,87,76,160,220,9.0,2-6,other
12643,84,51,116,200,2.0,2-5,other
12644,82,70,84,196,2.0,2-5,other
12645,60,58,344,420,8.0,2-6,other
12646,53,48,472,40,8.0,2-6,other
12647,84,48,48,736,0.0,2-3,minor
12648,87,93,164,148,0.0,2-3,minor
12649,84,75,112,228,0.0,2-3,minor
12650,56,35,80,32,0.0,2-3,minor
12651,82,91,336,320,0.0,2-3,minor
12652,80,47,44,412,0.0,2-3,minor
12653,60,45,88,32,0.0,2-3,minor
12654,56,23,72,76,0.0,2-3,minor
12655,82,83,224,36,0.0,2-3,minor
12656,77,94,276,640,8.0,1-1,other
12657,60,40,58,58,8.0,1-1,other
12658,75,53,52,346,0.0,2-4,other
12659,55,41,496,424,0.0,4-26,other
12660,74,58,152,128,0.0,4-26,other
12661,74,90,260,428,0.0,1-1,other
12662,72,51,200,316,5.0,3-11A,other
12663,53,50,420,308,4.0,2-5,other
12664,56,46,1296,680,3.0,2-4,other
12665,53,8,596,116,3.0,2-4,other
12666,59,45,156,300,3.0,2-4,other
12667,71,61,172,116,3.0,2-4,other
12668,72,30,200,308,8.0,3-10,other
12669,73,39,96,1252,3.0,3-4A,major
12670,70,40,172,44,3.0,3-4A,major
12671,73,50,44,1340,10.0,3-4A,other
12672,63,49,244,112,10.0,3-4A,other
12673,73,44,52,288,10.0,3-4A,other
12674,70,38,212,192,5.0,2-1,other
12675,66,40,60,332,3.0,1-1,other
12676,73,36,52,260,10.0,3-4A,other
12677,65,50,248,172,10.0,3-4A,other
12678,73,30,76,32,10.0,3-4A,other
12679,63,60,44,184,10.0,3-4A,other
12680,70,40,60,96,6.0,2-3,other
12681,53,35,452,1828,0.0,2-4,other
12682,68,47,152,2444,10.0,2-5,other
12683,68,40,48,280,5.0,2-5,other
12684,50,44,440,340,5.0,3-11A,other
12685,60,52,48,1092,7.0,3-2B,other
12686,68,70,48,68,7.0,3-2B,other
12687,72,64,68,180,7.0,3-2B,other
12688,75,51,56,100,7.0,3-2B,other
12689,76,76,88,80,7.0,3-2B,other
12690,77,91,144,440,3.0,4-24,augmented
12691,72,73,112,264,3.0,4-24,augmented
12692,68,58,152,204,3.0,3-8B,other
12693,67,60,108,204,3.0,3-8B,other
12694,53,36,80,68,3.0,2-4,other
12695,65,42,148,124,3.0,2-4,other
12696,63,66,108,180,3.0,2-4,other
12697,62,47,188,192,9.0,2-6,other
12698,57,50,140,188,9.0,2-6,other
12699,65,64,196,112,9.0,2-6,other
12700,57,55,56,220,9.0,2-6,other
12701,63,65,188,188,9.0,2-6,other
12702,55,69,108,236,9.0,2-6,other
12703,43,72,44,360,9.0,2-6,other
12704,53,62,848,424,3.0,3-4A,other
12705,67,51,44,500,3.0,3-4A,other
12706,71,71,84,412,10.0,2-1,other
12707,57,56,68,268,3.0,2-1,other
12708,71,52,148,144,3.0,2-1,other
12709,57,40,68,228,3.0,2-1,other
12710,71,65,152,128,3.0,2-1,other
12711,57,48,60,264,3.0,2-1,other
12712,71,70,264,108,3.0,2-1,other
12713,71,97,256,612,3.0,2-1,other
12714,72,58,168,204,2.0,3-5B,other
12715,73,68,128,124,2.0,3-5B,other
12716,71,99,260,500,2.0,2-5,other
12717,72,61,132,252,2.0,2-5,other
12718,57,57,44,100,2.0,2-5,other
12719,73,71,104,32,2.0,2-5,other
12720,74,75,84,136,2.0,2-5,other
12721,75,93,156,204,2.0,2-5,other
12722,60,33,72,48,2.0,2-5,other
12723,56,28,68,36,2.0,2-5,other
12724,76,70,132,116,2.0,2-5,other
12725,79,109,144,196,2.0,2-5,other
12726,76,59,116,192,0.0,2-4,other
12727,76,68,132,372,8.0,2-3,other
12728,72,53,188,332,0.0,2-4,other
12729,67,38,152,416,0.0,2-4,other
12730,70,68,112,192,0.0,2-4,other
12731,68,48,224,144,0.0,2-4,other
12732,67,60,180,408,4.0,2-4,major
12733,65,58,160,404,0.0,3-12,augmented
12734,67,70,84,240,0.0,3-12,augmented
12735,60,35,60,88,0.0,3-12,augmented
12736,68,64,108,72,0.0,3-12,augmented
12737,68,67,104,196,0.0,3-12,augmented
12738,68,56,104,184,0.0,3-12,augmented
12739,68,69,108,188,0.0,3-12,augmented
12740,68,65,120,192,0.0,2-4,other
12741,60,34,56,260,8.0,3-7B,other
12742,68,70,96,136,8.0,3-7B,other
12743,59,65,164,208,8.0,3-7B,other
12744,67,80,84,212,8.0,2-3,other
12745,67,75,88,184,8.0,2-3,other
12746,67,65,84,192,8.0,2-3,other
12747,67,68,116,396,4.0,3-11A,minor
12748,68,84,116,188,4.0,3-11A,minor
12749,53,33,64,64,3.0,2-4,other
12750,67,70,120,132,3.0,2-4,other
12751,63,61,64,392,9.0,2-6,other
12752,57,52,120,128,9.0,2-6,other
12753,63,71,92,48,9.0,2-6,other
12754,63,70,76,172,9.0,2-6,other
12755,63,66,108,372,9.0,2-6,other
12756,65,78,124,192,9.0,2-6,other
12757,63,62,48,180,9.0,2-6,other
12758,62,75,124,196,9.0,2-6,other
12759,57,61,68,32,9.0,2-6,other
12760,60,58,176,160,9.0,2-6,other
12761,57,39,92,196,9.0,2-6,other
12762,60,75,380,152,9.0,2-6,other
12763,57,48,92,200,9.0,2-6,other
12764,59,57,60,196,9.0,2-6,other
12765,60,34,56,28,9.0,2-6,other
12766,57,62,56,196,9.0,2-6,other
12767,59,76,216,176,9.0,2-6,other
12768,60,67,132,220,9.0,2-6,other
12769,61,55,152,188,9.0,2-6,other
12770,63,60,112,212,9.0,2-6,other
12771,64,52,144,164,9.0,2-6,other
12772,66,80,140,188,9.0,2-6,other
12773,68,60,148,164,4.0,3-9,other
12774,71,79,112,208,4.0,3-9,other
12775,73,64,168,168,4.0,3-9,other
12776,75,78,132,204,4.0,3-9,other
12777,76,60,116,192,4.0,3-9,other
12778,78,44,56,168,4.0,3-9,other
12779,78,58,44,184,4.0,3-9,other
12780,60,62,140,3876,0.0,5-27B,other
12781,53,64,336,1568,3.0,3-4A,other
12782,87,37,360,52,3.0,3-4A,other
12783,53,61,344,540,3.0,4-14A,other
12784,85,69,144,1512,5.0,2-4,major
12785,86,66,120,176,5.0,2-4,major
12786,57,51,148,160,5.0,2-4,major
12787,89,102,180,32,5.0,2-4,major
12788,86,64,116,192,5.0,2-4,major
12789,57,44,64,144,5.0,2-4,major
12790,77,64,132,220,5.0,2-4,major
12791,53,44,44,180,5.0,2-4,major
12792,43,74,484,420,7.0,2-1,other
12793,85,61,184,1420,2.0,1-1,other
12794,84,60,120,100,2.0,1-1,other
12795,59,47,76,104,2.0,1-1,other
12796,83,55,120,64,2.0,1-1,other
12797,83,51,144,1200,3.0,1-1,other
12798,59,33,120,44,3.0,1-1,other
12799,60,60,156,312,2.0,1-1,other
12800,84,67,132,36,2.0,1-1,other
12801,78,62,48,748,7.0,1-1,other
12802,78,67,132,932,7.0,1-1,other
12803,77,70,136,56,7.0,1-1,other
12804,76,61,128,532,7.0,1-1,other
12805,52,44,140,76,7.0,1-1,other
12806,77,87,128,140,7.0,1-1,other
12807,53,71,164,48,7.0,1-1,other
12808,79,57,88,172,7.0,1-1,other
12809,82,73,84,384,8.0,1-1,other
12810,58,65,116,44,8.0,1-1,other
12811,65,36,56,728,7.0,1-1,other
12812,64,55,128,156,7.0,1-1,other
12813,88,80,96,32,7.0,1-1,other
12814,65,67,156,136,7.0,1-1,other
12815,89,98,140,32,7.0,1-1,other
12816,80,41,140,356,0.0,1-1,other
12817,82,90,156,348,7.0,2-2,other
12818,58,77,172,40,7.0,2-2,other
12819,79,40,44,216,7.0,2-2,other
12820,55,70,420,420,8.0,2-1,other
12821,80,51,108,220,8.0,2-1,other
12822,79,70,104,60,8.0,2-1,other
12823,56,43,56,28,8.0,2-1,other
12824,77,74,44,76,8.0,2-1,other
12825,72,77,112,784,5.0,1-1,other
12826,74,79,256,532,2.0,2-1,other
12827,65,50,156,2276,7.0,1-1,other
12828,66,65,104,224,7.0,1-1,other
12829,68,63,160,160,7.0,1-1,other
12830,72,52,56,440,1.0,2-3,other
12831,73,61,40,172,1.0,2-3,other
12832,75,60,36,164,1.0,2-3,other
12833,77,77,40,196,1.0,2-3,other
12834,61,42,56,40,1.0,2-3,other
12835,78,68,40,132,1.0,2-3,other
12836,80,76,40,196,1.0,2-3,other
12837,82,61,40,196,1.0,2-3,other
12838,84,63,38,190,1.0,2-3,other
12839,85,67,40,166,6.0,2-2,other
12840,60,32,48,244,6.0,2-2,other
12841,88,104,84,384,6.0,4-12B,other
12842,60,72,184,596,6.0,3-8B,other
12843,63,69,52,256,0.0,2-4,other
12844,56,19,252,224,3.0,3-6,major
12845,87,89,124,236,3.0,3-6,major
12846,53,32,60,288,0.0,2-4,other
12847,80,69,128,288,0.0,2-4,other
12848,77,61,56,192,0.0,2-4,other
12849,63,58,108,360,0.0,2-4,other
12850,56,40,72,684,0.0,2-3,minor
12851,91,126,176,92,0.0,2-3,minor
12852,89,82,152,240,0.0,2-3,minor
12853,84,58,188,140,0.0,2-3,minor
12854,80,70,172,228,0.0,2-3,minor
12855,79,55,115,209,5.0,4-14A,other
12856,63,61,272,1291,0.0,2-5,other
12857,59,47,212,48,0.0,2-5,other
12858,53,35,156,28,0.0,2-5,other
12859,53,51,112,1068,3.0,3-4A,other
12860,75,70,128,272,3.0,3-9,other
12861,43,80,104,2100,7.0,2-1,other
12862,57,73,628,1168,3.0,2-1,other
12863,55,64,608,32,3.0,2-1,other
12864,55,56,304,916,2.0,3-5B,other
12865,55,45,480,620,9.0,5-29B,diminished
12866,72,38,304,3972,2.0,2-3,minor
12867,62,33,104,1904,0.0,2-4,other
12868,50,25,176,28,0.0,2-4,other
12869,53,62,40,2160,7.0,4-26,minor
12870,51,55,136,336,7.0,4-26,minor
12871,52,44,60,68,7.0,4-26,minor
12872,62,50,112,108,7.0,3-7A,minor
12873,89,69,152,3308,10.0,2-4,other
12874,86,90,196,628,10.0,2-4,other
12875,54,58,208,1200,0.0,5-18A,other
12876,60,46,104,32,0.0,5-18A,other
12877,79,39,184,956,0.0,2-4,other
12878,56,48,228,196,0.0,2-3,minor
12879,56,47,196,788,5.0,3-11A,other
12880,76,55,156,156,5.0,3-11A,other
12881,56,30,104,252,6.0,3-10,other
12882,78,49,68,356,5.0,4-11A,other
12883,56,41,120,28,5.0,4-11A,other
12884,72,19,80,248,5.0,4-11A,other
12885,56,50,72,512,0.0,2-4,major
12886,75,89,148,352,0.0,2-4,other
12887,72,59,152,212,0.0,2-4,other
12888,68,80,144,176,0.0,2-4,other
12889,67,34,104,216,0.0,3-8B,other
12890,63,60,132,192,0.0,3-8B,other
12891,50,33,60,120,0.0,3-8B,other
12892,62,27,124,80,0.0,3-8B,other
12893,61,65,156,160,0.0,3-8B,other
12894,60,45,168,200,7.0,2-2,other
12895,62,91,220,356,11.0,2-3,minor
12896,60,50,184,404,11.0,2-3,minor
12897,48,27,132,268,7.0,3-9,other
12898,63,70,167,132,7.0,3-9,other
12899,48,49,92,188,7.0,3-9,other
12900,62,64,132,44,7.0,3-9,other
12901,60,46,184,164,7.0,3-9,other
12902,55,68,36,204,7.0,3-9,other
12903,55,60,216,160,7.0,3-9,other
12904,43,50,48,232,7.0,3-9,other
12905,55,64,288,116,7.0,3-9,other
12906,58,82,196,376,7.0,3-9,other
12907,59,66,92,240,7.0,3-9,other
12908,55,44,48,60,7.0,3-9,other
12909,62,66,144,108,7.0,3-9,other
12910,59,47,56,224,7.0,3-9,other
12911,60,56,136,160,7.0,3-9,other
12912,62,73,148,208,7.0,3-9,other
12913,63,55,76,184,7.0,3-9,other
12914,64,62,116,200,7.0,3-9,other
12915,66,62,188,152,3.0,3-9,other
12916,68,66,108,204,3.0,3-9,other
12917,71,59,196,180,3.0,3-9,other
12918,73,82,112,228,3.0,3-9,other
12919,76,70,160,204,3.0,3-9,other
12920,78,76,40,196,3.0,3-9,other
12921,57,35,64,40,3.0,3-9,other
12922,80,67,76,124,3.0,3-9,other
12923,82,40,112,412,9.0,1-1,other
12924,86,120,200,348,11.0,2-2,other
12925,57,46,56,656,7.0,2-5,other
12926,77,62,155,140,7.0,2-5,other
12927,74,35,136,436,5.0,3-11A,other
12928,74,60,200,296,5.0,3-11A,other
12929,53,31,64,656,0.0,3-8B,other
12930,91,76,92,820,0.0,3-8B,other
12931,79,43,44,40,0.0,3-8B,other
12932,89,53,56,112,0.0,3-8B,other
12933,89,67,148,428,5.0,3-11A,other
12934,60,44,51,89,5.0,3-11A,other
12935,84,50,44,67,5.0,3-11A,other
12936,89,80,160,112,5.0,3-11A,other
12937,55,44,344,492,5.0,3-11A,other
12938,59,44,220,1608,7.0,1-1,other
12939,89,45,48,128,7.0,1-1,other
12940,63,58,52,304,7.0,1-1,other
12941,59,51,172,32,7.0,1-1,other
12942,91,67,113,59,7.0,1-1,other
12943,79,45,56,45,7.0,1-1,other
12944,89,51,108,96,7.0,1-1,other
12945,91,75,128,444,11.0,2-1,other
12946,79,41,52,56,11.0,2-1,other
12947,89,64,104,88,11.0,2-1,other
12948,57,44,108,448,7.0,1-1,other
12949,89,80,188,64,7.0,1-1,other
12950,57,60,124,268,3.0,2-1,other
12951,89,82,164,176,3.0,2-1,other
12952,57,55,104,164,3.0,2-1,other
12953,87,77,184,144,3.0,2-1,other
12954,57,44,252,292,3.0,3-4A,major
12955,84,58,204,820,3.0,2-1,other
12956,87,101,208,684,2.0,1-1,other
12957,84,53,436,924,10.0,4-20,other
12958,60,57,680,1360,4.0,3-8A,other
12959,84,83,168,356,4.0,3-8A,other
12960,83,66,168,220,4.0,3-8A,other
12961,56,45,460,276,5.0,2-2,other
12962,80,68,124,128,5.0,2-2,other
12963,80,78,240,300,5.0,2-2,other
12964,63,52,144,304,5.0,2-2,other
12965,80,77,208,76,0.0,2-4,other
12966,77,80,104,240,0.0,2-4,other
12967,75,55,208,172,0.0,2-4,other
12968,72,58,112,448,0.0,2-4,other
12969,72,79,152,560,0.0,1-1,other
12970,56,34,232,72,0.0,2-3,minor
12971,70,80,144,240,0.0,2-3,minor
12972,68,68,164,180,0.0,2-3,minor
12973,65,70,64,232,0.0,2-3,minor
12974,55,23,88,112,0.0,2-4,other
12975,67,76,196,56,0.0,2-4,other
12976,60,36,88,272,0.0,2-4,other
12977,67,88,168,72,0.0,2-4,other
12978,60,46,112,292,7.0,3-2B,other
12979,68,80,124,304,7.0,3-2B,other
12980,65,52,40,40,7.0,3-2B,other
12981,60,48,60,28,7.0,3-2B,other
12982,67,57,176,96,7.0,3-2B,other
12983,65,76,108,208,7.0,3-2B,other
12984,59,55,172,32,7.0,3-2B,other
12985,59,34,140,256,5.0,2-2,other
12986,63,73,220,272,5.0,2-2,other
12987,58,38,172,232,5.0,2-2,other
12988,59,34,100,28,5.0,2-2,other
12989,63,64,192,120,5.0,2-2,other
12990,62,65,92,232,5.0,2-2,other
12991,58,43,56,28,5.0,2-2,other
12992,60,56,192,140,5.0,2-2,other
12993,51,41,64,276,11.0,2-2,other
12994,62,72,180,124,11.0,2-2,other
12995,59,55,60,232,11.0,2-2,other
12996,57,25,104,48,11.0,2-2,other
12997,60,56,152,128,11.0,2-2,other
12998,62,76,128,220,11.0,2-2,other
12999,63,55,116,192,11.0,2-2,other
13000,70,39,148,380,9.0,3-8B,other
13001,71,48,60,192,9.0,3-8B,other
13002,54,62,76,96,9.0,3-8B,other
13003,72,76,288,676,7.0,2-4,major
13004,67,80,384,208,7.0,2-4,major
13005,63,51,60,232,7.0,2-4,major
13006,58,52,68,36,7.0,2-4,major
13007,57,46,104,1112,2.0,2-3,minor
13008,57,47,132,352,0.0,2-3,minor
13009,57,40,68,400,10.0,2-4,major
13010,72,63,36,64,10.0,2-4,major
13011,57,55,72,276,10.0,2-4,major
13012,57,66,44,804,2.0,2-5,other
13013,70,83,180,124,2.0,2-5,other
13014,53,42,568,396,0.0,3-8B,other
13015,60,48,76,692,0.0,3-8B,other
13016,63,80,492,84,0.0,4-26,other
13017,63,62,152,720,0.0,4-26,other
13018,75,52,52,1044,0.0,4-26,other
13019,74,56,384,804,5.0,3-11A,other
13020,60,38,52,864,8.0,2-6,other
13021,72,53,176,44,8.0,2-6,other
13022,70,69,536,336,8.0,2-6,other
13023,59,44,208,72,5.0,2-2,other
13024,57,55,48,2532,7.0,2-1,other
13025,70,37,80,176,1.0,4-5A,other
13026,74,35,52,1340,7.0,3-7A,minor
13027,70,30,128,188,3.0,1-1,other
13028,67,24,44,28,3.0,1-1,other
13029,61,51,400,312,10.0,3-4A,other
13030,75,82,172,704,10.0,4-20,other
13031,73,75,136,260,10.0,4-20,other
13032,70,90,456,728,0.0,2-4,major
13033,60,53,184,64,6.0,2-2,other
13034,60,35,152,356,6.0,2-2,other
13035,68,81,228,116,6.0,2-2,other
13036,54,49,256,244,6.0,2-2,other
13037,60,40,316,96,6.0,2-2,other
13038,67,82,244,48,6.0,2-2,other
13039,53,1,340,580,8.0,2-1,other
13040,65,73,860,252,8.0,2-1,other
13041,63,50,48,244,8.0,2-1,other
13042,68,98,400,736,0.0,3-11B,other
13043,56,40,164,424,0.0,2-3,minor
13044,68,71,224,88,0.0,2-3,minor
13045,68,79,164,396,0.0,2-4,other
13046,68,57,140,412,0.0,3-6,other
13047,67,70,168,576,0.0,4-16A,other
13048,65,62,136,168,0.0,4-16A,other
13049,64,55,76,228,0.0,4-16A,other
13050,56,58,132,80,0.0,4-16A,other
13051,50,35,128,36,0.0,4-16A,other
13052,67,67,184,28,0.0,4-16A,other
13053,64,54,128,228,0.0,4-16A,other
13054,65,64,156,156,0.0,4-16A,other
13055,53,44,60,280,0.0,2-5,other
13056,56,56,196,140,0.0,2-5,other
13057,55,62,196,316,0.0,2-5,other
13058,51,64,164,592,7.0,2-2,other
13059,72,67,264,1752,3.0,2-1,other
13060,53,42,260,436,0.0,3-8B,other
13061,87,56,116,2700,2.0,3-7A,minor
13062,57,55,264,1900,3.0,3-4A,major
13063,81,44,176,908,3.0,4-9,other
13064,62,22,88,284,0.0,1-1,other
13065,56,58,256,1152,3.0,5-26B,augmented
13066,65,56,108,996,10.0,5-20A,major
13067,51,28,88,64,10.0,5-20A,major
13068,65,44,128,184,2.0,2-5,other
13069,51,57,126,40,2.0,2-5,other
13070,62,37,60,176,10.0,2-1,other
13071,62,29,60,284,10.0,2-1,other
13072,65,48,128,52,10.0,2-1,other
13073,51,54,120,32,10.0,2-1,other
13074,70,46,76,140,10.0,2-1,other
13075,57,33,60,36,10.0,2-1,other
13076,70,47,88,248,5.0,2-2,other
13077,65,50,124,116,2.0,2-5,other
13078,51,53,148,56,2.0,2-5,other
13079,70,42,104,100,2.0,2-5,other
13080,57,30,66,0,9.0,1-1,other
13081,59,31,11,961,11.0,1-1,other
13082,69,82,27,313,0.0,4-20,major
13083,51,45,16,246,3.0,4-18A,major
13084,50,32,7,44,3.0,4-18A,major
13085,57,47,75,914,11.0,2-2,other
13086,62,59,77,52,11.0,2-2,other
13087,83,71,9,245,8.0,2-3,minor
13088,69,54,35,175,9.0,2-4,major
13089,69,60,17,46,9.0,2-4,major
13090,69,49,30,36,9.0,2-4,major
13091,69,50,15,85,11.0,2-3,minor
13092,69,40,12,42,11.0,2-3,minor
13093,69,44,76,39,11.0,2-3,minor
13094,69,41,11,241,9.0,3-10,diminished
13095,69,36,12,35,9.0,3-10,diminished
13096,69,38,34,34,9.0,3-10,diminished
13097,69,40,24,102,1.0,1-1,other
13098,69,37,65,66,1.0,1-1,other
13099,64,24,20,69,1.0,1-1,other
13100,58,33,15,174,0.0,5-26B,augmented
13101,57,37,29,28,0.0,5-26B,augmented
13102,56,25,18,30,0.0,5-26B,augmented
13103,54,43,134,352,11.0,2-3,minor
13104,71,75,34,104,11.0,3-11A,minor
13105,69,65,46,128,7.0,6-25A,major
13106,67,44,8,101,5.0,5-27A,major
13107,45,26,4,63,5.0,5-27A,major
13108,78,62,11,695,4.0,1-1,other
13109,59,29,223,364,5.0,2-1,other
13110,76,59,44,116,7.0,3-4A,major
13111,59,43,100,127,4.0,3-11A,minor
13112,33,60,6,172,7.0,1-1,other
13113,33,48,11,419,1.0,5-29B,diminished
13114,67,40,14,145,5.0,4-22A,major
13115,68,46,32,89,8.0,4-22A,other
13116,70,55,26,122,0.0,4-22A,other
13117,71,48,25,120,9.0,4-22A,major
13118,73,36,43,127,1.0,4-22A,other
13119,74,54,20,112,0.0,4-22A,major
13120,76,24,29,127,2.0,4-22A,major
13121,52,32,6,479,10.0,5-26B,augmented
13122,70,29,86,28,10.0,5-26B,augmented
13123,79,72,26,31,10.0,5-26B,augmented
13124,79,54,21,36,10.0,5-26B,augmented
13125,78,50,16,28,10.0,5-26B,augmented
13126,78,42,20,26,10.0,5-26B,augmented
13127,57,31,102,85,11.0,2-6,other
13128,56,33,104,305,0.0,4-22A,major
13129,50,41,75,1155,7.0,3-4B,other
13130,42,25,3,85,2.0,2-4,major
13131,62,36,5,114,9.0,6-33A,minor
13132,57,24,9,275,11.0,3-7A,minor
13133,69,47,14,87,2.0,2-3,minor
13134,52,28,102,386,11.0,2-2,other
13135,33,32,10,460,1.0,5-30B,other
13136,36,32,81,201,11.0,2-5,other
13137,37,33,148,112,9.0,3-10,diminished
13138,38,37,29,94,9.0,3-11B,major
13139,57,35,59,149,2.0,3-11B,major
13140,62,44,58,38,2.0,3-11B,major
13141,57,37,26,37,2.0,3-11B,major
13142,69,72,79,164,2.0,4-27B,major
13143,54,37,120,177,11.0,2-3,minor
13144,71,57,17,107,11.0,3-11A,minor
13145,67,52,12,198,11.0,5-35,minor
13146,51,37,45,526,6.0,4-27B,minor
13147,59,41,72,110,4.0,2-3,minor
13148,86,65,12,593,2.0,1-1,other
13149,86,68,10,27,2.0,1-1,other
13150,86,76,10,29,2.0,1-1,other
13151,86,69,10,63,4.0,4-15B,other
13152,56,33,225,58,4.0,3-7A,minor
13153,60,24,52,162,9.0,5-27B,minor
13154,26,36,19,230,2.0,2-2,other
13155,81,67,42,306,7.0,5-27A,major
13156,81,64,14,119,11.0,4-26,minor
13157,81,51,36,123,11.0,4-26,minor
13158,81,54,40,87,11.0,4-26,minor
13159,72,51,17,140,5.0,5-26B,other
13160,81,53,25,140,5.0,2-5,other
13161,73,30,50,168,0.0,5-33,augmented
13162,74,47,39,61,0.0,5-33,augmented
13163,67,83,30,457,7.0,5-30A,minor
13164,66,74,30,41,7.0,5-30A,minor
13165,69,52,4,107,5.0,2-1,other
13166,101,65,9,80,2.0,2-5,other
13167,93,51,5,29,2.0,2-5,other
13168,100,71,9,62,7.0,3-5B,other
13169,88,55,6,31,7.0,3-5B,other
13170,28,36,5,28,7.0,3-5B,other
13171,83,64,19,260,11.0,2-2,other
13172,71,41,56,83,0.0,3-4A,major
13173,49,39,73,362,9.0,4-26,minor
13174,59,42,115,79,7.0,2-5,other
13175,30,34,27,120,7.0,2-5,other
13176,86,54,15,280,7.0,3-11B,major
13177,71,58,17,362,10.0,3-12,augmented
13178,70,56,14,35,10.0,3-12,augmented
13179,79,51,9,254,5.0,2-4,major
13180,88,64,20,281,9.0,5-29A,major
13181,83,49,9,74,0.0,2-1,other
13182,95,50,16,68,7.0,4-16A,major
13183,95,47,13,29,7.0,4-16A,major
13184,71,38,23,226,2.0,3-11B,major
13185,71,38,99,28,2.0,3-11B,major
13186,57,38,5,95,9.0,3-10,diminished
13187,63,42,11,161,6.0,4-28,diminished
13188,76,42,15,62,9.0,3-11B,major
13189,64,27,22,79,9.0,3-11B,major
13190,86,60,12,163,2.0,2-2,other
13191,86,78,10,32,2.0,2-2,other
13192,83,46,18,86,0.0,5-21B,other
13193,83,54,34,37,0.0,5-21B,other
13194,26,47,9,1005,0.0,4-20,major
13195,66,44,15,185,2.0,4-21,major
13196,50,45,90,173,11.0,3-11A,minor
13197,67,16,31,205,5.0,5-28A,major
13198,47,29,61,470,4.0,3-7A,minor
13199,81,60,15,686,5.0,5-30B,other
13200,39,54,11,288,5.0,5-30B,other
13201,60,44,35,434,8.0,1-1,other
13202,44,30,56,38,8.0,1-1,other
13203,32,55,11,89,10.0,3-11B,major
13204,31,53,10,75,10.0,3-11B,major
13205,71,69,17,41,10.0,3-11B,major
13206,66,74,15,46,10.0,3-11B,major
13207,69,72,16,77,7.0,5-27A,major
13208,79,69,24,145,0.0,7-34,major
13209,45,35,7,1067,0.0,4-19B,other
13210,67,54,16,34,0.0,4-19B,other
13211,86,72,41,546,7.0,4-20,major
13212,66,62,16,258,0.0,2-5,other
13213,67,80,11,26,0.0,2-5,other
13214,74,53,25,80,10.0,3-12,augmented
13215,69,38,177,119,11.0,3-1,other
13216,76,41,7,319,11.0,4-1,minor
13217,61,57,12,239,7.0,4-16A,major
13218,61,56,50,62,7.0,4-16A,major
13219,62,49,40,105,11.0,3-7A,minor
13220,57,42,79,115,2.0,2-5,other
13221,47,37,21,36,2.0,2-5,other
13222,48,36,173,47,2.0,2-5,other
13223,57,41,13,37,2.0,2-5,other
13224,69,62,76,110,6.0,1-1,other
13225,48,34,8,49,6.0,1-1,other
13226,64,74,29,197,9.0,3-11B,major
13227,57,34,55,117,2.0,3-3B,other
13228,69,40,31,60,2.0,2-4,major
13229,81,60,20,61,9.0,1-1,other
13230,69,33,13,28,9.0,1-1,other
13231,69,32,37,31,9.0,1-1,other
13232,69,36,60,61,6.0,2-6,other
13233,81,76,25,27,6.0,2-6,other
13234,81,78,83,35,6.0,2-6,other
13235,69,48,23,60,9.0,1-1,other
13236,78,63,28,27,9.0,1-1,other
13237,83,92,39,238,2.0,3-11B,major
13238,79,57,10,245,7.0,5-27A,major
13239,47,35,82,357,0.0,4-16A,major
13240,69,74,20,94,6.0,4-28,diminished
13241,69,66,16,38,6.0,4-28,diminished
13242,47,29,102,78,4.0,2-3,minor
13243,55,42,86,27,4.0,2-3,minor
13244,59,56,27,29,4.0,2-3,minor
13245,83,38,24,206,0.0,2-3,minor
13246,86,64,22,29,0.0,2-3,minor
13247,28,40,8,396,2.0,1-1,other
13248,26,24,52,599,2.0,7-34,major
13249,50,37,185,186,2.0,4-14B,major
13250,61,23,83,627,1.0,2-2,other
13251,31,17,5,26,1.0,2-2,other
13252,31,19,7,42,1.0,2-2,other
13253,67,80,359,0,9.0,2-3,minor
13254,77,74,238,1536,1.0,4-28,diminished
13255,44,60,118,600,1.0,4-24,other
13256,53,51,65,168,1.0,4-24,other
13257,56,50,427,59,1.0,4-24,other
13258,59,54,23,35,1.0,4-24,other
13259,61,61,36,27,1.0,4-24,other
13260,91,83,33,337,5.0,2-2,other
13261,93,83,31,29,5.0,2-2,other
13262,95,80,28,33,5.0,2-2,other
13263,96,78,33,39,5.0,2-2,other
13264,97,74,24,36,5.0,2-2,other
13265,98,77,20,35,5.0,2-2,other
13266,99,81,29,42,5.0,2-2,other
13267,100,74,27,41,5.0,2-2,other
13268,70,63,402,315,0.0,2-4,major
13269,84,81,216,124,4.0,2-3,minor
13270,60,94,130,391,4.0,2-3,minor
13271,60,82,59,158,4.0,2-3,minor
13272,67,81,283,603,5.0,5-27A,major
13273,65,75,157,384,5.0,5-27A,major
13274,45,29,1008,400,2.0,4-23,minor
13275,67,72,350,368,2.0,4-23,minor
13276,65,60,143,384,2.0,4-23,minor
13277,65,9,882,476,10.0,3-4A,major
13278,56,75,39,104,10.0,3-4A,major
13279,55,56,74,186,10.0,3-4A,major
13280,54,62,102,176,10.0,3-4A,major
13281,53,45,134,210,10.0,3-4A,major
13282,50,55,186,182,10.0,3-4A,major
13283,50,38,174,398,10.0,4-20,major
13284,24,56,27,562,9.0,3-5B,other
13285,72,75,57,141,9.0,3-5B,other
13286,55,53,976,279,0.0,5-35,minor
13287,79,85,784,334,0.0,5-35,minor
13288,77,69,46,408,0.0,5-35,minor
13289,57,58,196,571,2.0,4-18A,major
13290,72,74,140,389,0.0,3-11A,minor
13291,53,68,161,767,10.0,4-22A,major
13292,58,98,442,371,2.0,3-11A,minor
13293,59,84,233,378,2.0,2-3,minor
13294,59,81,201,404,5.0,4-19B,other
13295,58,74,212,192,5.0,4-19B,other
13296,51,60,431,173,5.0,4-19B,other
13297,70,74,186,383,10.0,3-11A,other
13298,93,117,96,596,9.0,2-3,minor
13299,89,87,59,99,9.0,2-3,minor
13300,85,84,42,67,9.0,2-3,minor
13301,84,68,29,56,9.0,2-3,minor
13302,82,81,38,46,9.0,2-3,minor
13303,81,81,26,44,9.0,2-3,minor
13304,60,56,25,248,5.0,2-4,major
13305,58,58,26,30,5.0,2-4,major
13306,57,60,32,28,5.0,2-4,major
13307,56,62,19,29,5.0,2-4,major
13308,72,75,65,751,2.0,2-4,major
13309,72,78,137,138,2.0,2-4,major
13310,72,62,106,208,2.0,2-4,major
13311,44,45,58,300,5.0,3-4A,other
13312,53,54,91,91,5.0,3-4A,other
13313,56,51,695,87,5.0,3-4A,other
13314,60,46,16,43,5.0,3-4A,other
13315,63,60,16,39,5.0,3-4A,other
13316,70,75,16,100,3.0,2-5,other
13317,72,70,27,27,3.0,2-5,other
13318,77,81,27,74,0.0,2-3,minor
13319,80,80,41,31,0.0,2-3,minor
13320,87,75,24,107,0.0,2-2,other
13321,94,71,17,102,8.0,2-3,other
13322,96,72,28,29,8.0,2-3,other
13323,97,75,36,30,8.0,2-3,other
13324,99,74,28,33,8.0,2-3,other
13325,100,81,33,38,8.0,2-3,other
13326,101,72,27,42,8.0,2-3,other
13327,102,71,35,44,8.0,2-3,other
13328,103,69,42,47,8.0,2-3,other
13329,60,81,98,1024,0.0,3-12,augmented
13330,48,32,462,214,5.0,5-27A,major
13331,67,79,261,387,5.0,5-27A,major
13332,65,78,208,341,5.0,5-27A,major
13333,50,75,163,1762,7.0,3-11A,minor
13334,57,98,649,174,7.0,3-11A,minor
13335,58,78,85,269,7.0,3-11A,minor
13336,60,81,72,97,7.0,3-11A,minor
13337,62,81,189,149,7.0,3-11A,minor
13338,48,43,796,247,0.0,3-8A,major
13339,55,50,632,198,2.0,2-3,minor
13340,52,62,184,1174,9.0,4-26,minor
13341,72,36,51,600,5.0,2-5,other
13342,57,30,434,400,2.0,4-23,minor
13343,79,84,162,312,2.0,4-23,minor
13344,57,47,170,424,5.0,2-5,other
13345,55,82,255,736,7.0,4-22A,major
13346,56,77,183,966,9.0,4-18A,major
13347,46,78,167,564,1.0,4-28,diminished
13348,59,26,32,457,5.0,4-22A,major
13349,67,84,229,314,5.0,4-22A,major
13350,65,82,107,379,5.0,4-22A,major
13351,86,82,181,780,10.0,6-19A,other
13352,34,70,64,756,9.0,4-13B,diminished
13353,60,117,161,2700,9.0,4-26,minor
13354,60,96,109,195,9.0,4-26,minor
13355,60,111,115,189,9.0,4-26,minor
13356,60,82,103,197,9.0,4-26,minor
13357,60,53,165,375,6.0,3-8A,other
13358,60,78,142,191,6.0,3-8A,other
13359,60,96,187,177,6.0,3-8A,other
13360,60,107,137,787,7.0,4-23,minor
13361,60,74,57,375,5.0,2-5,other
13362,60,66,53,379,0.0,4-24,augmented
13363,58,47,615,508,3.0,4-22A,major
13364,75,76,12,243,2.0,2-2,other
13365,77,66,26,26,2.0,2-2,other
13366,82,70,11,59,9.0,2-2,other
13367,84,61,13,31,9.0,2-2,other
13368,88,66,28,74,3.0,2-1,other
13369,53,59,230,91,5.0,2-2,other
13370,74,63,55,242,5.0,2-2,other
13371,77,56,359,95,3.0,2-5,other
13372,82,51,27,1054,1.0,2-3,other
13373,43,60,140,446,1.0,5-19A,minor
13374,86,122,95,252,1.0,5-19A,minor
13375,47,61,89,479,0.0,3-7B,other
13376,36,60,59,497,0.0,4-26,minor
13377,71,84,164,339,0.0,4-26,minor
13378,69,57,75,225,0.0,4-26,minor
13379,73,60,83,1549,10.0,4-20,major
13380,55,31,35,156,2.0,3-7A,minor
13381,77,82,58,221,2.0,3-7A,minor
13382,81,75,79,260,2.0,5-35,minor
13383,80,75,85,124,2.0,5-35,minor
13384,74,64,57,260,7.0,5-27B,minor
13385,43,72,57,121,7.0,5-27B,minor
13386,56,59,101,274,10.0,3-4A,major
13387,55,9,99,272,7.0,3-11A,minor
13388,62,64,110,125,7.0,3-11A,minor
13389,36,57,398,254,7.0,3-11A,minor
13390,82,102,96,270,7.0,3-11A,minor
13391,82,81,56,222,4.0,2-2,other
13392,79,76,46,66,4.0,2-2,other
13393,76,63,48,56,4.0,2-2,other
13394,75,59,39,69,4.0,2-2,other
13395,73,68,50,112,4.0,3-8B,other
13396,72,54,39,70,4.0,3-8B,other
13397,71,51,53,56,4.0,3-8B,other
13398,70,66,50,79,4.0,3-8B,other
13399,74,98,117,83,4.0,3-8B,other
13400,70,83,62,89,0.0,2-2,other
13401,67,72,42,84,0.0,2-2,other
13402,64,43,45,70,0.0,2-2,other
13403,62,47,61,109,0.0,2-2,other
13404,61,56,44,67,0.0,2-2,other
13405,60,44,63,59,0.0,2-2,other
13406,59,68,52,85,0.0,2-2,other
13407,48,32,237,129,10.0,2-1,other
13408,57,72,95,77,10.0,2-1,other
13409,58,80,82,118,10.0,2-1,other
13410,59,82,130,122,10.0,2-1,other
13411,47,31,38,62,10.0,2-1,other
13412,36,63,85,126,0.0,2-5,other
13413,70,13,70,468,0.0,4-19A,minor
13414,75,68,45,312,2.0,4-27A,minor
13415,77,74,51,228,2.0,4-27A,minor
13416,51,31,26,562,9.0,4-27B,major
13417,62,39,64,26,9.0,4-27B,major
13418,57,41,64,204,6.0,3-7A,other
13419,46,57,52,366,2.0,4-26,minor
13420,55,78,113,393,10.0,4-17,major
13421,62,41,31,808,8.0,4-22A,other
13422,65,26,190,143,7.0,5-27B,minor
13423,74,85,70,1750,4.0,3-8B,other
13424,81,102,67,258,7.0,3-11A,minor
13425,82,107,90,122,7.0,3-11A,minor
13426,82,60,47,261,5.0,4-16A,other
13427,84,122,79,114,5.0,4-16A,other
13428,73,75,102,373,5.0,2-5,other
13429,64,26,31,172,0.0,2-1,other
13430,70,61,77,86,0.0,2-1,other
13431,69,63,49,135,0.0,2-1,other
13432,85,66,73,3375,2.0,2-3,minor
13433,82,48,35,109,2.0,2-3,minor
13434,36,66,104,1319,4.0,3-5B,other
13435,50,31,55,600,4.0,3-5B,other
13436,55,27,69,208,2.0,1-1,other
13437,41,63,189,930,3.0,3-12,augmented
13438,46,50,86,351,9.0,4-27A,diminished
13439,48,58,48,83,9.0,4-27A,diminished
13440,49,53,109,174,7.0,5-32A,minor
13441,51,29,38,271,7.0,4-26,minor
13442,53,55,74,174,5.0,4-20,major
13443,52,49,71,104,5.0,4-20,major
13444,70,85,81,1145,7.0,3-11A,minor
13445,55,41,49,92,7.0,3-11A,minor
13446,72,77,70,52,7.0,3-11A,minor
13447,72,69,76,126,7.0,3-11A,minor
13448,70,75,87,118,7.0,3-11A,minor
13449,52,54,145,141,2.0,2-2,other
13450,55,55,55,1032,0.0,3-7B,other
13451,49,85,851,146,0.0,3-7B,other
13452,55,60,34,157,0.0,3-7B,other
13453,57,65,51,69,0.0,3-7B,other
13454,58,71,26,53,0.0,3-7B,other
13455,60,72,23,46,0.0,3-7B,other
13456,63,61,22,97,1.0,2-3,other
13457,66,55,16,111,4.0,2-3,minor
13458,67,65,33,47,4.0,2-3,minor
13459,69,63,53,49,4.0,2-3,minor
13460,70,82,44,53,4.0,2-3,minor
13461,73,82,49,167,0.0,2-2,other
13462,76,76,82,181,1.0,2-2,other
13463,85,41,25,380,2.0,2-3,minor
13464,53,59,289,1156,0.0,4-22A,major
13465,53,65,163,355,2.0,4-26,minor
13466,69,48,24,140,2.0,4-26,minor
13467,78,35,59,1725,10.0,5-30B,augmented
13468,67,57,29,858,4.0,4-27A,diminished
13469,51,85,132,697,0.0,4-19A,augmented
13470,49,56,38,268,0.0,3-12,augmented
13471,51,46,54,1218,2.0,4-18A,major
13472,54,68,56,44,2.0,4-18A,major
13473,54,57,168,388,7.0,4-23,minor
13474,41,76,93,1140,3.0,4-22A,major
13475,41,57,397,168,3.0,4-22A,major
13476,53,48,34,627,2.0,4-18A,major
13477,77,61,28,251,2.0,3-7A,minor
13478,79,72,82,134,2.0,3-7A,minor
13479,74,51,72,271,5.0,2-4,major
13480,75,57,86,118,5.0,2-4,major
13481,70,75,74,391,2.0,3-7A,minor
13482,53,29,140,164,3.0,2-4,other
13483,67,39,69,129,3.0,2-4,other
13484,68,74,129,120,3.0,2-4,other
13485,67,67,179,261,7.0,3-7B,other
13486,59,52,84,870,0.0,2-5,other
13487,59,39,78,188,2.0,2-2,other
13488,60,45,98,100,2.0,2-2,other
13489,62,80,67,76,2.0,2-2,other
13490,63,76,56,89,2.0,2-2,other
13491,48,50,109,39,2.0,2-2,other
13492,65,73,54,54,2.0,2-2,other
13493,66,81,46,83,2.0,2-2,other
13494,67,74,54,75,2.0,2-2,other
13495,70,80,64,86,2.0,2-2,other
13496,74,82,71,193,5.0,4-29B,major
13497,71,46,67,83,5.0,4-29B,major
13498,72,92,70,112,5.0,4-29B,major
13499,75,73,58,201,3.0,4-16A,major
13500,77,82,63,91,3.0,4-16A,major
13501,79,83,64,104,3.0,4-16A,major
13502,86,85,87,223,3.0,3-4A,major
13503,83,81,95,119,3.0,3-4A,major
13504,84,76,104,258,2.0,3-7A,minor
13505,82,80,47,269,5.0,2-4,major
13506,82,72,88,127,5.0,2-4,major
13507,81,84,59,261,0.0,3-9,other
13508,81,81,75,119,0.0,3-9,other
13509,79,85,72,248,2.0,2-3,minor
13510,79,77,96,122,2.0,2-3,minor
13511,50,69,116,266,7.0,2-3,minor
13512,56,68,119,246,10.0,3-4A,major
13513,43,41,98,393,7.0,3-11A,minor
13514,98,120,117,423,0.0,2-4,major
13515,91,70,45,220,0.0,6-45,major
13516,88,62,41,58,0.0,6-45,major
13517,87,49,15,67,0.0,6-45,major
13518,86,52,54,35,0.0,6-45,major
13519,84,57,102,98,10.0,3-3B,major
13520,83,79,68,138,10.0,3-3B,major
13521,82,79,62,104,10.0,3-3B,major
13522,82,72,66,220,4.0,3-8B,other
13523,79,68,19,66,4.0,3-8B,other
13524,76,58,47,54,4.0,3-8B,other
13525,75,49,44,74,4.0,3-8B,other
13526,74,63,58,52,4.0,3-8B,other
13527,71,62,140,152,0.0,1-1,other
13528,70,79,60,123,0.0,1-1,other
13529,74,80,72,71,0.0,1-1,other
13530,70,75,64,60,0.0,1-1,other
13531,58,50,16,28,0.0,1-1,other
13532,67,57,22,26,0.0,1-1,other
13533,64,39,48,50,0.0,1-1,other
13534,63,46,28,54,0.0,1-1,other
13535,62,47,51,40,0.0,1-1,other
13536,61,56,26,55,0.0,1-1,other
13537,60,47,43,44,0.0,1-1,other
13538,36,74,60,375,0.0,1-1,other
13539,57,19,266,2051,10.0,3-4A,major
13540,53,60,772,269,10.0,3-4A,major
13541,57,72,283,156,10.0,3-4A,major
13542,61,66,93,125,10.0,3-4A,major
13543,62,72,98,117,10.0,3-4A,major
13544,69,83,85,233,5.0,2-4,major
13545,72,111,90,119,5.0,2-4,major
13546,70,73,62,245,10.0,3-4A,major
13547,74,81,78,121,10.0,3-4A,major
13548,55,39,200,157,2.0,2-3,minor
13549,81,87,86,105,2.0,2-3,minor
13550,82,99,94,123,2.0,2-3,minor
13551,84,74,73,258,11.0,2-5,other
13552,74,65,74,519,7.0,2-5,other
13553,67,56,65,265,10.0,2-4,major
13554,52,77,109,488,10.0,2-4,major
13555,82,82,77,259,9.0,3-2B,minor
13556,73,77,85,207,5.0,2-5,other
13557,72,56,101,94,5.0,2-5,other
13558,70,71,69,95,5.0,3-8B,other
13559,69,67,159,94,5.0,3-8B,other
13560,69,92,79,782,2.0,2-2,other
13561,68,56,74,106,2.0,2-2,other
13562,69,80,45,208,9.0,2-3,minor
13563,48,69,44,606,11.0,2-6,other
13564,82,30,27,2842,1.0,5-19A,minor
13565,36,60,23,617,7.0,2-3,minor
13566,63,31,96,2073,4.0,2-5,other
13567,53,56,534,515,2.0,2-5,other
13568,53,72,84,726,2.0,4-26,minor
13569,53,70,86,137,2.0,4-26,minor
13570,70,79,96,1026,0.0,2-1,other
13571,50,72,140,358,10.0,4-24,augmented
13572,52,63,226,399,10.0,4-19A,augmented
13573,62,52,350,145,10.0,4-19A,augmented
13574,52,63,90,247,10.0,4-19A,augmented
13575,49,57,889,126,10.0,4-19A,augmented
13576,60,63,49,93,10.0,4-19A,augmented
13577,61,55,66,54,10.0,4-19A,augmented
13578,63,57,27,64,10.0,4-19A,augmented
13579,64,48,36,54,10.0,4-19A,augmented
13580,66,57,19,58,10.0,4-19A,augmented
13581,69,74,24,136,7.0,2-3,minor
13582,70,71,19,86,7.0,2-3,minor
13583,72,64,24,74,7.0,2-3,minor
13584,73,73,45,73,7.0,2-3,minor
13585,75,68,53,76,7.0,2-3,minor
13586,77,66,48,117,4.0,2-6,other
13587,78,66,16,52,4.0,2-6,other
13588,79,58,15,52,4.0,2-6,other
13589,80,37,25,40,4.0,2-6,other
13590,82,45,45,47,4.0,2-6,other
13591,83,56,70,43,4.0,2-6,other
13592,84,66,67,36,4.0,2-6,other
13593,77,68,139,78,2.0,3-7A,minor
13594,89,80,83,74,2.0,3-7A,minor
13595,37,61,64,1780,2.0,4-23,minor
13596,74,82,70,580,0.0,3-8A,major
13597,79,81,72,749,2.0,3-9,other
13598,57,60,184,374,2.0,4-27B,major
13599,58,72,264,203,2.0,4-27B,major
13600,64,50,156,184,2.0,4-27B,major
13601,67,47,46,198,2.0,4-27B,major
13602,79,57,86,164,2.0,4-27B,major
13603,30,61,59,226,2.0,4-27B,major
13604,29,85,101,1135,4.0,4-21,other
13605,58,58,1473,1344,3.0,3-11A,other
13606,60,58,1335,75,3.0,3-11A,other
13607,65,59,951,56,3.0,3-11A,other
13608,70,68,51,65,3.0,3-11A,other
13609,72,70,96,109,3.0,3-11A,other
13610,77,75,96,110,3.0,3-11A,other
13611,82,83,53,87,3.0,3-11A,other
13612,84,85,98,85,3.0,3-11A,other
13613,89,92,115,116,3.0,3-11A,other
13614,94,96,256,128,3.0,3-11A,other
13615,96,88,58,144,3.0,3-11A,other
13616,84,72,86,91,3.0,3-11A,other
13617,89,75,57,98,3.0,3-11A,other
13618,82,66,90,89,3.0,3-11A,other
13619,84,66,94,106,3.0,3-11A,other
13620,77,59,36,85,3.0,3-11A,other
13621,72,77,118,285,3.0,3-11A,other
13622,70,66,131,53,3.0,3-11A,other
13623,65,66,216,121,3.0,3-11A,other
13624,58,46,21,927,4.0,2-6,other
13625,64,57,32,65,4.0,2-6,other
13626,76,68,122,148,0.0,2-5,other
13627,41,64,58,0,,,
13628,48,64,17,64,,,
13629,36,64,38,248,1.0,2-3,other
13630,52,64,414,176,3.0,2-5,other
13631,48,64,45,296,3.0,2-5,other
13632,39,64,33,64,3.0,2-5,other
13633,40,64,46,56,3.0,2-5,other
13634,41,64,105,57,3.0,2-5,other
13635,48,64,44,346,1.0,2-3,other
13636,36,64,10,70,1.0,2-3,other
13637,48,64,19,368,0.0,4-15B,other
13638,39,64,38,54,0.0,4-15B,other
13639,40,64,45,61,0.0,4-15B,other
13640,41,64,34,56,0.0,4-15B,other
13641,41,64,27,60,0.0,4-15B,other
13642,48,64,15,236,1.0,2-3,other
13643,36,64,51,57,1.0,2-3,other
13644,48,64,47,302,3.0,4-5B,other
13645,48,64,17,122,3.0,3-5B,other
13646,48,64,29,122,3.0,3-5B,other
13647,41,64,40,62,3.0,3-5B,other
13648,41,64,30,56,3.0,3-5B,other
13649,48,64,9,240,1.0,2-3,other
13650,51,64,78,54,1.0,2-3,other
13651,39,64,47,554,0.0,3-11B,major
13652,41,64,44,58,0.0,3-11B,major
13653,41,64,19,62,0.0,3-11B,major
13654,48,64,14,234,1.0,2-3,other
13655,52,64,61,127,3.0,2-5,other
13656,36,64,30,115,3.0,2-5,other
13657,48,64,46,364,4.0,2-6,other
13658,41,64,38,55,4.0,2-6,other
13659,48,64,16,62,4.0,2-6,other
13660,53,64,61,233,1.0,2-3,other
13661,24,64,50,120,1.0,2-3,other
13662,36,64,169,248,0.0,2-4,major
13663,24,64,39,116,0.0,2-4,major
13664,36,64,23,123,0.0,2-4,major
13665,41,64,44,56,0.0,2-4,major
13666,41,64,22,61,0.0,2-4,major
13667,48,64,48,249,1.0,3-10,minor
13668,36,64,47,112,1.0,3-10,minor
13669,36,64,30,121,1.0,3-10,minor
13670,52,64,20,59,1.0,3-10,minor
13671,36,64,18,61,1.0,3-10,minor
13672,49,64,31,238,1.0,4-27A,minor
13673,41,64,58,52,1.0,4-27A,minor
13674,48,64,12,66,1.0,4-27A,minor
13675,24,64,74,245,1.0,3-10,minor
13676,24,64,45,120,1.0,3-10,minor
13677,24,64,24,120,1.0,3-10,minor
13678,70,64,44,1265,10.0,3-5B,other
13679,85,64,38,309,9.0,3-5B,other
13680,84,64,40,56,9.0,3-5B,other
13681,79,64,13,75,9.0,3-5B,other
13682,82,64,26,106,9.0,3-5B,other
13683,84,64,25,113,9.0,3-5B,other
13684,88,64,66,220,0.0,2-3,minor
13685,79,64,194,106,0.0,2-3,minor
13686,82,64,71,204,0.0,2-3,minor
13687,84,64,47,1079,3.0,3-5B,other
13688,85,64,43,63,3.0,3-5B,other
13689,84,64,23,68,3.0,3-5B,other
13690,85,64,42,61,3.0,3-5B,other
13691,83,64,48,237,0.0,2-2,other
13692,82,64,1123,183,7.0,2-4,major
13693,41,64,380,3001,0.0,1-1,other
13694,48,64,11,535,3.0,2-5,other
13695,48,64,4,239,0.0,4-20,other
13696,72,64,60,419,0.0,1-1,other
13697,72,64,16,556,6.0,3-5B,other
13698,85,64,37,425,0.0,2-1,other
13699,84,64,23,67,0.0,2-1,other
13700,85,64,23,109,0.0,2-1,other
13701,85,64,32,183,0.0,2-3,minor
13702,84,64,26,30,0.0,2-3,minor
13703,79,64,26,38,0.0,2-3,minor
13704,83,64,65,52,0.0,2-3,minor
13705,79,64,56,113,0.0,2-3,minor
13706,82,64,1047,75,0.0,2-3,minor
13707,84,64,57,1114,3.0,3-5B,other
13708,85,64,71,77,3.0,3-5B,other
13709,84,64,30,111,3.0,3-5B,other
13710,85,64,180,63,3.0,3-5B,other
13711,63,64,10,80,3.0,3-5B,other
13712,84,64,26,100,3.0,3-5B,other
13713,79,64,15,232,3.0,3-4A,other
13714,82,64,37,50,3.0,3-4A,other
13715,82,64,22,64,3.0,3-4A,other
13716,82,64,32,180,3.0,2-5,other
13717,82,64,24,64,3.0,2-5,other
13718,82,64,45,50,3.0,2-5,other
13719,84,64,55,969,3.0,2-5,other
13720,83,64,49,107,3.0,2-5,other
13721,82,64,37,72,3.0,2-5,other
13722,81,64,32,65,3.0,2-5,other
13723,79,64,36,241,3.0,3-9,other
13724,78,64,50,113,3.0,3-9,other
13725,79,64,39,66,3.0,3-9,other
13726,77,64,151,64,3.0,3-9,other
13727,72,64,42,109,3.0,3-9,other
13728,72,64,74,1570,0.0,5-27A,other
13729,73,64,23,71,0.0,5-27A,other
13730,74,64,64,40,0.0,5-27A,other
13731,79,64,30,73,0.0,5-27A,other
13732,77,64,654,56,0.0,5-27A,other
13733,65,64,47,1006,0.0,4-14A,minor
13734,65,64,12,73,0.0,4-14A,minor
13735,57,64,109,472,3.0,3-4A,major
13736,63,64,14,83,3.0,3-4A,major
13737,84,64,54,54,3.0,3-4A,major
13738,86,64,42,125,1.0,2-2,other
13739,89,64,35,61,1.0,2-2,other
13740,98,64,150,69,7.0,3-5B,other
13741,97,64,40,169,7.0,3-5B,other
13742,96,64,36,62,7.0,3-5B,other
13743,95,64,52,180,9.0,3-5B,other
13744,94,64,39,67,9.0,3-5B,other
13745,92,64,27,179,7.0,2-5,other
13746,91,64,20,43,7.0,2-5,other
13747,91,64,45,132,8.0,2-2,other
13748,89,64,42,65,8.0,2-2,other
13749,88,64,49,58,8.0,2-2,other
13750,86,64,12,61,8.0,2-2,other
13751,91,64,60,38,8.0,2-2,other
13752,89,64,95,117,8.0,2-2,other
13753,80,64,23,80,8.0,2-2,other
13754,81,64,67,522,7.0,2-5,other
13755,78,64,26,78,7.0,2-5,other
13756,79,64,79,39,7.0,2-5,other
13757,82,64,59,129,9.0,2-4,major
13758,84,64,24,76,9.0,2-4,major
13759,81,64,76,46,9.0,2-4,major
13760,81,64,88,118,9.0,2-4,major
13761,61,64,24,114,9.0,2-4,major
13762,82,64,66,492,0.0,2-1,other
13763,78,64,38,62,0.0,2-1,other
13764,76,64,42,61,0.0,2-1,other
13765,79,64,81,112,6.0,3-11A,minor
13766,75,64,37,67,6.0,3-11A,minor
13767,76,64,84,168,6.0,2-5,other
13768,72,64,35,63,6.0,2-5,other
13769,70,64,52,54,6.0,2-5,other
13770,73,64,97,124,6.0,3-7A,other
13771,69,64,29,63,6.0,3-7A,other
13772,67,64,41,58,6.0,3-7A,other
13773,70,64,38,121,0.0,3-11B,other
13774,67,64,35,64,0.0,3-11B,other
13775,63,64,38,59,0.0,3-11B,other
13776,56,64,46,118,0.0,3-11B,other
13777,55,64,10,63,0.0,3-11B,other
13778,58,64,72,34,0.0,3-11B,other
13779,56,64,67,132,0.0,3-11B,other
13780,60,64,41,125,7.0,2-3,minor
13781,63,64,39,59,7.0,2-3,minor
13782,65,64,48,54,7.0,2-3,minor
13783,67,64,24,69,7.0,2-3,minor
13784,68,64,40,51,7.0,2-3,minor
13785,70,64,29,42,7.0,2-3,minor
13786,73,64,34,97,0.0,2-1,other
13787,75,64,28,37,0.0,2-1,other
13788,76,64,22,44,0.0,2-1,other
13789,78,64,29,36,0.0,2-1,other
13790,80,64,29,89,1.0,2-6,other
13791,61,64,19,218,1.0,2-6,other
13792,79,64,14,117,1.0,2-6,other
13793,81,64,24,59,1.0,2-6,other
13794,82,64,25,30,1.0,2-6,other
13795,85,64,47,95,0.0,3-7A,minor
13796,87,64,35,67,0.0,3-7A,minor
13797,88,64,47,52,0.0,3-7A,minor
13798,96,64,54,128,7.0,2-3,minor
13799,100,64,147,1810,3.0,2-1,other
13800,61,64,65,924,10.0,1-1,other
13801,55,64,41,3129,5.0,2-5,other
13802,48,64,14,57,5.0,2-5,other
13803,48,64,11,243,0.0,2-4,other
13804,55,64,24,53,0.0,2-4,other
13805,56,64,30,56,0.0,2-4,other
13806,55,64,10,244,0.0,2-4,other
13807,55,64,14,235,5.0,1-1,other
13808,56,64,49,55,5.0,1-1,other
13809,53,64,12,320,10.0,2-4,major
13810,53,64,10,220,10.0,2-4,major
13811,60,64,48,65,10.0,2-4,major
13812,61,64,30,65,10.0,2-4,major
13813,64,64,43,56,10.0,2-4,major
13814,67,64,27,62,10.0,2-4,major
13815,70,64,59,54,10.0,2-4,major
13816,73,64,39,64,10.0,2-4,major
13817,70,64,84,62,10.0,2-4,major
13818,67,64,104,115,10.0,2-4,major
13819,64,64,69,122,10.0,2-4,major
13820,79,64,44,838,3.0,3-5B,other
13821,79,64,34,67,3.0,3-5B,other
13822,82,64,61,53,3.0,3-5B,other
13823,76,64,48,67,3.0,3-5B,other
13824,73,64,92,55,3.0,3-5B,other
13825,73,64,75,123,3.0,3-5B,other
13826,58,64,34,86,3.0,3-5B,other
13827,63,64,9,225,3.0,3-5B,other
13828,82,64,55,45,3.0,3-5B,other
13829,82,64,39,71,3.0,3-5B,other
13830,85,64,56,48,3.0,3-5B,other
13831,79,64,75,118,8.0,2-2,other
13832,79,64,69,115,8.0,2-2,other
13833,76,64,46,123,6.0,2-5,other
13834,76,64,37,68,6.0,2-5,other
13835,79,64,48,54,6.0,2-5,other
13836,73,64,56,127,6.0,3-7B,other
13837,70,64,30,58,6.0,3-7B,other
13838,67,64,50,58,6.0,3-7B,other
13839,65,64,39,67,6.0,3-7B,other
13840,64,64,64,70,6.0,3-7B,other
13841,61,64,38,349,0.0,2-2,other
13842,60,64,37,113,1.0,2-3,minor
13843,56,64,47,117,0.0,2-2,other
13844,55,64,45,71,0.0,2-2,other
13845,52,64,28,120,8.0,2-1,other
13846,53,64,57,54,8.0,2-1,other
13847,55,64,42,73,8.0,2-1,other
13848,56,64,49,62,8.0,2-1,other
13849,58,64,26,69,8.0,2-1,other
13850,60,64,39,67,8.0,2-1,other
13851,61,64,34,280,8.0,2-1,other
13852,64,64,42,56,8.0,2-1,other
13853,67,64,35,59,8.0,2-1,other
13854,64,64,62,49,8.0,2-1,other
13855,65,64,33,66,8.0,2-1,other
13856,67,64,48,54,8.0,2-1,other
13857,68,64,31,72,8.0,2-1,other
13858,70,64,40,58,8.0,2-1,other
13859,72,64,32,68,8.0,2-1,other
13860,76,64,45,76,8.0,2-1,other
13861,79,64,49,52,8.0,2-1,other
13862,77,64,40,117,8.0,2-1,other
13863,72,64,37,107,8.0,2-1,other
13864,68,64,47,61,8.0,2-1,other
13865,67,64,18,65,8.0,2-1,other
13866,70,64,66,50,8.0,2-1,other
13867,68,64,48,117,8.0,2-1,other
13868,67,64,41,120,8.0,2-2,other
13869,65,64,40,66,8.0,2-2,other
13870,64,64,58,57,8.0,2-2,other
13871,67,64,34,70,8.0,2-2,other
13872,65,64,84,53,8.0,2-2,other
13873,60,64,48,112,8.0,2-2,other
13874,65,64,39,69,8.0,2-2,other
13875,67,64,88,69,8.0,2-2,other
13876,65,64,48,98,8.0,2-2,other
13877,67,64,40,69,8.0,2-2,other
13878,68,64,106,58,8.0,2-2,other
13879,67,64,54,113,8.0,2-2,other
13880,68,64,35,69,8.0,2-2,other
13881,67,64,55,56,8.0,2-2,other
13882,65,64,29,62,8.0,2-2,other
13883,60,64,71,59,8.0,2-2,other
13884,67,64,50,600,0.0,2-4,other
13885,65,64,65,121,8.0,2-1,other
13886,64,64,47,104,8.0,2-1,other
13887,65,64,43,66,8.0,2-1,other
13888,61,64,46,56,8.0,2-1,other
13889,60,64,27,56,8.0,2-1,other
13890,58,64,30,55,8.0,2-1,other
13891,56,64,46,75,8.0,2-1,other
13892,55,64,282,86,8.0,2-1,other
13893,53,64,51,300,8.0,2-1,other
13894,51,64,48,62,8.0,2-1,other
13895,52,64,31,57,8.0,2-1,other
13896,54,64,41,52,8.0,2-1,other
13897,57,64,36,93,0.0,2-5,other
13898,58,64,25,43,0.0,2-5,other
13899,60,64,26,35,0.0,2-5,other
13900,64,64,23,88,1.0,2-2,other
13901,66,64,18,30,1.0,2-2,other
13902,67,64,27,31,1.0,2-2,other
13903,69,64,29,26,1.0,2-2,other
13904,70,64,12,30,1.0,2-2,other
13905,72,64,25,30,1.0,2-2,other
13906,73,64,25,26,1.0,2-2,other
13907,75,64,26,30,1.0,2-2,other
13908,75,64,10,153,3.0,4-6,other
13909,73,64,68,90,3.0,4-6,other
13910,55,64,274,135,6.0,3-5A,other
13911,70,64,114,242,6.0,3-5A,other
13912,69,64,28,71,6.0,3-5A,other
13913,67,64,56,55,6.0,3-5A,other
13914,69,64,36,60,6.0,3-5A,other
13915,70,64,111,60,6.0,3-5A,other
13916,67,64,94,110,6.0,3-5A,other
13917,66,64,543,119,6.0,3-5A,other
13918,63,64,15,244,6.0,3-5A,other
13919,58,64,12,185,6.0,3-5A,other
13920,67,64,43,102,6.0,3-5A,other
13921,69,64,66,61,6.0,3-5A,other
13922,67,64,42,70,6.0,3-5A,other
13923,66,64,146,65,6.0,3-5A,other
13924,66,64,98,231,4.0,2-6,other
13925,64,64,31,66,4.0,2-6,other
13926,61,64,64,53,4.0,2-6,other
13927,71,64,23,122,4.0,2-6,other
13928,84,64,20,487,3.0,3-5B,other
13929,83,64,21,88,1.0,2-1,other
13930,82,64,22,38,1.0,2-1,other
13931,79,64,17,28,1.0,2-1,other
13932,76,64,20,39,1.0,2-1,other
13933,84,64,44,226,1.0,2-1,other
13934,85,64,33,63,1.0,2-1,other
13935,84,64,11,33,1.0,2-1,other
13936,83,64,22,26,1.0,2-1,other
13937,82,64,25,37,1.0,2-1,other
13938,79,64,33,53,1.0,2-1,other
13939,76,64,23,60,1.0,2-1,other
13940,73,64,33,46,1.0,2-1,other
13941,72,64,28,54,1.0,2-1,other
13942,71,64,43,45,1.0,2-1,other
13943,70,64,29,62,1.0,2-1,other
13944,67,64,39,53,1.0,2-1,other
13945,64,64,28,62,1.0,2-1,other
13946,61,64,50,48,1.0,2-1,other
13947,60,64,50,67,1.0,2-1,other
13948,58,64,69,178,4.0,2-5,other
13949,55,64,26,75,4.0,2-5,other
13950,52,64,51,47,4.0,2-5,other
13951,55,64,13,69,4.0,2-5,other
13952,58,64,49,57,4.0,2-5,other
13953,60,64,24,136,4.0,2-5,other
13954,61,64,31,47,4.0,2-5,other
13955,64,64,46,53,4.0,2-5,other
13956,67,64,32,192,4.0,2-5,other
13957,64,64,16,54,4.0,2-5,other
13958,65,64,16,37,4.0,2-5,other
13959,67,64,25,35,4.0,2-5,other
13960,68,64,32,39,4.0,2-5,other
13961,65,64,12,31,4.0,2-5,other
13962,67,64,30,44,4.0,2-5,other
13963,68,64,26,35,4.0,2-5,other
13964,70,64,31,39,4.0,2-5,other
13965,67,64,21,37,4.0,2-5,other
13966,67,64,22,244,3.0,2-5,other
13967,68,64,46,55,3.0,2-5,other
13968,72,64,37,117,10.0,3-9,other
13969,75,64,36,60,10.0,3-9,other
13970,76,64,38,59,10.0,3-9,other
13971,77,64,52,114,7.0,2-2,other
13972,77,64,45,72,7.0,2-2,other
13973,72,64,66,50,7.0,2-2,other
13974,58,64,119,448,0.0,4-23,minor
13975,74,64,66,39,0.0,4-23,minor
13976,71,64,18,80,0.0,4-23,minor
13977,72,64,65,37,0.0,4-23,minor
13978,75,64,55,135,7.0,2-5,other
13979,77,64,26,73,7.0,2-5,other
13980,86,64,66,46,7.0,2-5,other
13981,89,64,34,78,7.0,2-5,other
13982,86,64,34,58,7.0,2-5,other
13983,86,64,29,242,3.0,3-4A,major
13984,77,64,32,110,2.0,2-3,minor
13985,85,64,38,70,2.0,2-3,minor
13986,84,64,47,165,5.0,2-4,other
13987,77,64,40,133,5.0,2-5,other
13988,89,64,46,114,7.0,2-4,major
13989,83,64,34,39,7.0,2-4,major
13990,82,64,39,86,7.0,2-4,major
13991,80,64,42,177,3.0,3-4A,major
13992,81,64,42,63,3.0,3-4A,major
13993,82,64,35,58,3.0,3-4A,major
13994,83,64,35,57,3.0,3-4A,major
13995,84,64,38,62,3.0,3-4A,major
13996,81,64,43,55,3.0,3-4A,major
13997,77,64,42,59,3.0,3-4A,major
13998,74,64,44,54,3.0,3-4A,major
13999,72,64,15,73,3.0,3-4A,major
14000,73,64,43,37,3.0,3-4A,major
14001,74,64,23,50,3.0,3-4A,major
14002,68,64,208,66,1.0,3-5B,other
14003,65,64,11,215,1.0,3-5B,other
14004,67,64,61,45,1.0,3-5B,other
14005,65,64,57,112,1.0,3-5B,other
14006,65,64,10,79,1.0,3-5B,other
14007,85,64,34,1479,1.0,4-15B,other
14008,82,64,30,791,0.0,1-1,other
14009,78,64,67,416,6.0,3-5B,other
14010,76,64,14,73,6.0,3-5B,other
14011,78,64,49,48,6.0,3-5B,other
14012,78,64,38,112,1.0,2-6,other
14013,76,64,54,69,1.0,2-6,other
14014,75,64,29,56,1.0,2-6,other
14015,72,64,33,119,1.0,1-1,other
14016,70,64,40,64,1.0,1-1,other
14017,68,64,55,59,1.0,1-1,other
14018,65,64,46,118,7.0,2-1,other
14019,60,64,19,65,7.0,2-1,other
14020,64,64,51,49,7.0,2-1,other
14021,63,64,74,123,8.0,2-3,other
14022,60,64,28,68,8.0,2-3,other
14023,55,64,192,53,8.0,2-3,other
14024,58,64,42,253,3.0,2-5,other
14025,60,64,51,53,3.0,2-5,other
14026,61,64,179,54,3.0,2-5,other
14027,60,64,34,181,3.0,2-5,other
14028,61,64,53,55,3.0,2-5,other
14029,63,64,39,61,3.0,2-5,other
14030,64,64,43,63,3.0,2-5,other
14031,66,64,32,59,3.0,2-5,other
14032,67,64,53,50,3.0,2-5,other
14033,69,64,37,62,3.0,2-5,other
14034,70,64,41,61,3.0,2-5,other
14035,72,64,27,53,3.0,2-5,other
14036,73,64,30,43,3.0,2-5,other
14037,75,64,23,48,3.0,2-5,other
14038,76,64,33,38,3.0,2-5,other
14039,78,64,23,42,3.0,2-5,other
14040,79,64,32,41,3.0,2-5,other
14041,81,64,41,40,3.0,2-5,other
14042,82,64,17,41,3.0,2-5,other
14043,84,64,26,37,3.0,2-5,other
14044,85,64,25,39,3.0,2-5,other
14045,87,64,22,29,3.0,2-5,other
14046,88,64,24,39,3.0,2-5,other
14047,90,64,11,38,3.0,2-5,other
14048,93,64,19,77,3.0,2-5,other
14049,96,64,43,30,3.0,2-5,other
14050,94,64,45,84,3.0,2-5,other
14051,90,64,27,55,3.0,2-5,other
14052,88,64,14,38,3.0,2-5,other
14053,93,64,44,38,3.0,2-5,other
14054,87,64,31,83,4.0,3-10,diminished
14055,85,64,11,46,4.0,3-10,diminished
14056,58,64,26,525,3.0,2-5,other
14057,55,64,84,1089,11.0,1-1,other
14058,76,64,29,3337,7.0,1-1,other
14059,73,64,85,53,7.0,1-1,other
14060,70,64,69,128,7.0,1-1,other
14061,67,64,25,76,7.0,1-1,other
14062,67,64,40,287,8.0,2-2,other
14063,65,64,33,66,8.0,2-2,other
14064,64,64,62,56,8.0,2-2,other
14065,67,64,36,66,8.0,2-2,other
14066,65,64,63,56,8.0,2-2,other
14067,60,64,14,67,8.0,2-2,other
14068,60,64,80,49,8.0,2-2,other
14069,60,64,191,123,8.0,2-2,other
14070,58,64,53,188,8.0,2-2,other
14071,56,64,63,65,8.0,2-2,other
14072,56,64,168,102,8.0,2-2,other
14073,38,64,16,561,5.0,1-1,other
14074,51,64,84,45,5.0,1-1,other
14075,52,64,101,119,5.0,1-1,other
14076,84,64,69,479,5.0,1-1,other
14077,84,64,14,87,5.0,1-1,other
14078,87,64,50,795,1.0,2-2,other
14079,87,64,32,156,4.0,2-2,other
14080,85,64,39,105,4.0,2-2,other
14081,84,64,34,54,4.0,2-2,other
14082,82,64,40,66,4.0,2-2,other
14083,78,64,51,86,4.0,2-2,other
14084,79,64,63,81,4.0,2-2,other
14085,75,64,63,146,4.0,2-1,other
14086,73,64,68,103,4.0,2-1,other
14087,72,64,652,74,4.0,2-1,other
14088,73,64,67,646,9.0,2-5,other
14089,72,64,50,140,3.0,2-5,other
14090,72,64,21,69,3.0,2-5,other
14091,73,64,32,288,3.0,2-5,other
14092,75,64,30,78,3.0,2-5,other
14093,73,64,44,70,3.0,2-5,other
14094,75,64,46,82,3.0,2-5,other
14095,73,64,40,74,3.0,2-5,other
14096,71,64,71,72,3.0,2-5,other
14097,72,64,209,90,3.0,2-5,other
14098,70,64,31,194,3.0,2-5,other
14099,67,64,54,54,3.0,2-5,other
14100,61,64,81,118,4.0,2-6,other
14101,58,64,65,111,4.0,2-6,other
14102,73,64,44,362,4.0,2-6,other
14103,72,64,141,114,4.0,2-6,other
14104,58,64,10,85,4.0,2-6,other
14105,41,64,10,1239,3.0,3-9,other
14106,72,64,16,328,5.0,3-9,other
14107,75,64,30,42,5.0,3-9,other
14108,82,64,15,121,3.0,3-9,other
14109,89,64,82,117,2.0,3-7A,minor
14110,84,64,75,103,2.0,3-7A,minor
14111,82,64,94,130,3.0,2-5,other
14112,79,64,61,111,3.0,2-5,other
14113,77,64,86,125,0.0,2-2,other
14114,75,64,108,111,0.0,2-2,other
14115,72,64,258,119,0.0,2-2,other
14116,63,64,13,121,0.0,2-2,other
14117,70,64,191,128,0.0,2-2,other
14118,71,64,43,197,0.0,2-2,other
14119,72,64,77,63,0.0,2-2,other
14120,60,64,64,101,0.0,2-2,other
14121,60,64,14,85,0.0,2-2,other
14122,59,64,7,368,3.0,2-4,other
14123,76,64,73,151,3.0,2-4,other
14124,82,64,44,85,3.0,2-4,other
14125,73,64,61,65,3.0,2-4,other
14126,73,64,20,81,3.0,2-4,other
14127,85,64,56,608,1.0,3-10,minor
14128,87,64,35,77,1.0,3-10,minor
14129,85,64,39,56,1.0,3-10,minor
14130,84,64,46,131,10.0,1-1,other
14131,84,64,71,96,10.0,1-1,other
14132,83,64,13,93,10.0,1-1,other
14133,84,64,63,41,10.0,1-1,other
14134,75,64,52,1203,3.0,3-9,other
14135,76,64,35,66,3.0,3-9,other
14136,73,64,56,57,3.0,3-9,other
14137,72,64,29,56,3.0,3-9,other
14138,70,64,65,62,3.0,3-9,other
14139,68,64,22,180,3.0,3-9,other
14140,67,64,40,44,3.0,3-9,other
14141,65,64,56,124,8.0,2-1,other
14142,67,64,93,119,4.0,2-6,other
14143,61,64,21,72,4.0,2-6,other
14144,60,64,346,58,4.0,2-6,other
14145,52,64,15,201,4.0,2-6,other
14146,58,64,158,155,4.0,2-6,other
14147,52,64,9,314,7.0,2-3,minor
14148,51,64,18,608,6.0,4-23,minor
14149,53,64,9,225,4.0,4-18A,major
14150,65,64,13,128,0.0,4-20,other
14151,54,64,28,364,3.0,3-4B,other
14152,51,64,27,232,0.0,4-20,other
14153,48,64,95,132,0.0,4-26,other
14154,48,64,28,466,0.0,4-26,other
14155,48,64,29,363,0.0,4-26,other
14156,62,64,52,43,0.0,4-26,other
14157,63,64,28,71,0.0,4-26,other
14158,64,64,54,48,0.0,4-26,other
14159,63,64,186,133,5.0,2-4,major
14160,60,64,14,191,5.0,2-4,major
14161,61,64,59,38,5.0,2-4,major
14162,62,64,26,72,5.0,2-4,major
14163,57,64,214,46,5.0,2-4,major
14164,58,64,71,235,5.0,2-4,major
14165,59,64,40,75,5.0,2-4,major
14166,60,64,33,71,5.0,2-4,major
14167,62,64,29,54,5.0,2-4,major
14168,63,64,40,57,5.0,2-4,major
14169,66,64,41,132,3.0,3-9,other
14170,68,64,30,54,3.0,3-9,other
14171,69,64,38,53,3.0,3-9,other
14172,72,64,44,116,3.0,4-29A,other
14173,74,64,19,61,3.0,4-29A,other
14174,75,64,54,48,3.0,4-29A,other
14175,77,64,17,71,3.0,4-29A,other
14176,63,64,67,261,9.0,3-5B,other
14177,85,64,55,30,9.0,3-5B,other
14178,87,64,31,128,3.0,3-5A,other
14179,89,64,263,131,4.0,4-15B,other
14180,85,64,42,480,2.0,1-1,other
14181,85,64,29,124,2.0,2-2,other
14182,84,64,25,29,2.0,2-2,other
14183,83,64,25,33,2.0,2-2,other
14184,80,64,45,48,2.0,2-2,other
14185,77,64,38,63,2.0,2-2,other
14186,74,64,42,53,2.0,2-2,other
14187,73,64,39,59,2.0,2-2,other
14188,72,64,48,62,2.0,2-2,other
14189,68,64,55,128,11.0,2-3,minor
14190,62,64,17,301,2.0,2-3,minor
14191,65,64,48,37,2.0,2-3,minor
14192,65,64,36,128,8.0,2-6,other
14193,62,64,12,76,8.0,2-6,other
14194,65,64,37,43,8.0,2-6,other
14195,55,64,11,191,8.0,1-1,other
14196,67,64,50,46,8.0,1-1,other
14197,70,64,31,73,8.0,1-1,other
14198,61,64,50,53,8.0,1-1,other
14199,61,64,68,111,8.0,1-1,other
14200,79,64,35,484,6.0,2-5,other
14201,84,64,44,45,6.0,2-5,other
14202,79,64,26,45,6.0,2-5,other
14203,73,64,21,56,6.0,2-5,other
14204,76,64,38,96,6.0,2-5,other
14205,81,64,36,47,6.0,2-5,other
14206,70,64,24,77,1.0,2-3,minor
14207,73,64,32,42,1.0,2-3,minor
14208,78,64,39,39,1.0,2-3,minor
14209,73,64,32,31,1.0,2-3,minor
14210,70,64,22,251,6.0,2-5,other
14211,67,64,24,130,1.0,2-3,minor
14212,63,64,67,178,1.0,2-6,other
14213,63,64,129,170,0.0,2-3,minor
14214,55,64,81,113,0.0,2-3,minor
14215,58,64,98,133,3.0,2-5,other
14216,51,64,13,80,3.0,2-5,other
14217,60,64,83,29,3.0,2-5,other
14218,63,64,68,116,3.0,2-5,other
14219,67,64,30,83,3.0,2-5,other
14220,68,64,54,56,3.0,2-5,other
14221,70,64,32,66,3.0,2-5,other
14222,72,64,56,55,3.0,2-5,other
14223,73,64,39,67,3.0,2-5,other
14224,75,64,49,50,3.0,2-5,other
14225,79,64,40,125,7.0,4-27A,minor
14226,80,64,85,60,7.0,4-27A,minor
14227,82,64,44,58,7.0,4-27A,minor
14228,87,64,38,173,1.0,2-3,other
14229,88,64,52,54,1.0,2-3,other
14230,91,64,74,141,1.0,4-27B,minor
14231,94,64,46,180,0.0,3-6,other
14232,95,64,36,73,0.0,3-6,other
14233,95,64,45,73,0.0,2-2,other
14234,36,64,7,1888,0.0,2-5,other
14235,55,64,16,2050,1.0,3-7A,minor
14236,55,64,7,470,0.0,4-27B,major
14237,60,64,14,36,0.0,4-27B,major
14238,53,64,168,1516,5.0,4-14A,other
14239,67,64,20,128,5.0,4-14A,other
14240,39,64,28,1442,5.0,1-1,other
14241,85,64,293,1127,9.0,3-5B,other
14242,79,64,25,535,9.0,3-11A,minor
14243,82,64,54,84,9.0,3-11A,minor
14244,84,64,53,1656,9.0,3-5B,other
14245,85,64,33,72,9.0,3-5B,other
14246,84,64,26,61,9.0,3-5B,other
14247,78,64,47,2459,4.0,4-23,minor
14248,79,64,47,58,4.0,4-23,minor
14249,68,64,42,64,4.0,4-23,minor
14250,67,64,284,60,4.0,4-23,minor
14251,41,64,16,165,4.0,4-23,minor
14252,65,64,106,130,4.0,4-23,minor
14253,64,64,44,116,4.0,4-23,minor
14254,67,64,43,55,4.0,4-23,minor
14255,61,64,54,69,4.0,4-23,minor
14256,60,64,75,78,4.0,4-23,minor
14257,56,64,61,155,0.0,2-2,other
14258,55,64,21,126,8.0,2-2,other
14259,53,64,70,38,8.0,2-2,other
14260,52,64,21,78,8.0,2-2,other
14261,55,64,69,42,8.0,2-2,other
14262,52,64,14,75,8.0,2-2,other
14263,53,64,64,43,8.0,2-2,other
14264,41,64,25,81,8.0,2-2,other
14265,60,64,14,115,8.0,2-2,other
14266,65,64,25,63,8.0,2-2,other
14267,68,64,20,54,8.0,2-2,other
14268,72,64,30,53,8.0,2-2,other
14269,75,64,23,56,8.0,2-2,other
14270,77,64,25,58,8.0,2-2,other
14271,82,64,25,63,8.0,2-2,other
14272,84,64,35,126,10.0,2-1,other
14273,84,64,33,59,10.0,2-1,other
14274,84,64,43,61,10.0,2-1,other
14275,83,64,46,62,10.0,2-1,other
14276,84,64,34,122,0.0,2-1,other
14277,84,64,38,63,0.0,2-1,other
14278,83,64,43,61,0.0,2-1,other
14279,84,64,32,58,0.0,2-1,other
14280,84,64,45,64,0.0,2-1,other
14281,85,64,43,567,3.0,3-5B,other
14282,84,64,39,61,3.0,3-5B,other
14283,79,64,19,66,3.0,3-5B,other
14284,82,64,28,95,3.0,3-5B,other
14285,84,64,74,102,3.0,3-5B,other
14286,84,64,33,1502,3.0,2-5,other
14287,52,64,13,1395,6.0,3-5B,other
14288,85,64,39,103,6.0,3-5B,other
14289,88,64,27,63,6.0,3-5B,other
14290,82,64,44,56,6.0,3-5B,other
14291,79,64,35,58,6.0,3-5B,other
14292,73,64,52,117,1.0,2-3,minor
14293,70,64,40,65,1.0,2-3,minor
14294,67,64,13,62,1.0,2-3,minor
14295,53,64,10,790,1.0,4-23,other
14296,61,64,29,976,2.0,4-27A,minor
14297,77,64,18,832,2.0,3-1,other
14298,79,64,67,35,2.0,3-1,other
14299,74,64,14,85,2.0,3-1,other
14300,74,64,9,152,7.0,2-2,other
14301,77,64,78,29,7.0,2-2,other
14302,74,64,54,581,7.0,3-9,other
14303,72,64,79,115,7.0,3-9,other
14304,65,64,8,90,7.0,3-9,other
14305,68,64,232,34,7.0,3-9,other
14306,65,64,74,239,7.0,3-9,other
14307,67,64,23,86,7.0,3-9,other
14308,62,64,103,31,7.0,3-9,other
14309,65,64,60,117,7.0,3-9,other
14310,65,64,10,86,7.0,3-9,other
14311,82,64,30,685,10.0,2-1,other
14312,82,64,81,84,8.0,2-3,other
14313,80,64,78,113,8.0,2-3,other
14314,65,64,15,677,8.0,2-6,other
14315,62,64,56,49,8.0,2-6,other
14316,62,64,21,77,8.0,2-6,other
14317,59,64,18,155,8.0,2-6,other
14318,62,64,6,199,8.0,2-6,other
14319,65,64,51,41,8.0,2-6,other
14320,68,64,22,76,8.0,2-6,other
14321,71,64,57,45,8.0,2-6,other
14322,71,64,66,131,2.0,3-4A,major
14323,72,64,15,64,2.0,3-4A,major
14324,73,64,55,56,2.0,3-4A,major
14325,76,64,59,120,6.0,3-7A,other
14326,79,64,41,121,6.0,2-3,other
14327,93,64,63,355,6.0,3-5B,other
14328,96,64,59,78,6.0,3-5B,other
14329,94,64,54,62,6.0,3-5B,other
14330,90,64,47,60,6.0,3-5B,other
14331,88,64,68,54,6.0,3-5B,other
14332,91,64,85,111,6.0,3-11A,minor
14333,87,64,40,66,6.0,3-11A,minor
14334,85,64,48,46,6.0,3-11A,minor
14335,90,64,55,116,6.0,4-9,other
14336,87,64,25,72,6.0,4-9,other
14337,88,64,65,38,6.0,4-9,other
14338,84,64,46,131,6.0,2-5,other
14339,82,64,50,108,6.0,2-5,other
14340,75,64,55,259,5.0,3-7B,other
14341,72,64,23,61,5.0,3-7B,other
14342,68,64,87,45,5.0,3-7B,other
14343,68,64,29,191,10.0,1-1,other
14344,66,64,36,135,10.0,1-1,other
14345,68,64,40,284,10.0,1-1,other
14346,67,64,75,111,10.0,1-1,other
14347,61,64,47,146,7.0,2-2,other
14348,60,64,70,88,7.0,2-2,other
14349,50,64,61,246,10.0,2-5,other
14350,52,64,121,78,10.0,2-5,other
14351,24,64,21,110,10.0,2-5,other
14352,55,64,36,54,10.0,2-5,other
14353,58,64,33,72,10.0,2-5,other
14354,60,64,39,66,10.0,2-5,other
14355,61,64,41,54,10.0,2-5,other
14356,63,64,38,58,10.0,2-5,other
14357,64,64,46,59,10.0,2-5,other
14358,72,64,63,62,10.0,2-5,other
14359,72,64,51,104,10.0,2-5,other
14360,75,64,5,1652,4.0,1-1,other
14361,58,64,15,2264,10.0,1-1,other
14362,52,64,27,725,1.0,2-3,other
14363,52,64,21,61,1.0,2-3,other
14364,41,64,192,937,6.0,3-9,other
14365,54,64,339,1007,8.0,5-25A,other
14366,70,90,21,0,9.0,2-5,other
14367,71,39,19,32,9.0,2-5,other
14368,77,94,38,29,9.0,2-5,other
14369,76,84,320,60,9.0,2-5,other
14370,45,41,22,167,9.0,2-5,other
14371,76,6,27,193,5.0,2-4,major
14372,45,53,267,55,5.0,2-4,major
14373,79,101,39,127,5.0,2-4,major
14374,77,73,26,30,5.0,2-4,major
14375,72,40,27,30,5.0,2-4,major
14376,72,58,16,92,7.0,2-5,other
14377,71,99,30,141,9.0,2-5,other
14378,62,18,30,126,9.0,2-5,other
14379,57,41,24,119,0.0,2-1,other
14380,53,39,35,181,5.0,2-4,major
14381,53,55,42,54,5.0,2-4,major
14382,53,64,35,57,5.0,2-4,major
14383,62,68,19,98,5.0,3-4A,major
14384,53,43,9,129,5.0,2-5,other
14385,52,68,32,253,4.0,1-1,other
14386,33,55,6,100,4.0,2-2,other
14387,80,57,13,603,5.0,2-4,major
14388,81,51,11,30,5.0,2-4,major
14389,83,51,17,60,9.0,2-5,other
14390,86,86,17,111,11.0,2-2,other
14391,81,69,6,59,11.0,2-2,other
14392,84,85,12,37,11.0,2-2,other
14393,80,42,14,116,8.0,2-3,minor
14394,76,38,40,88,9.0,1-1,other
14395,76,123,26,182,9.0,1-1,other
14396,77,71,19,32,9.0,1-1,other
14397,76,63,25,27,9.0,1-1,other
14398,74,79,19,35,9.0,1-1,other
14399,72,33,14,32,9.0,1-1,other
14400,71,76,26,27,9.0,1-1,other
14401,69,45,23,29,9.0,1-1,other
14402,68,50,14,92,8.0,4-28,diminished
14403,69,73,46,26,8.0,4-28,diminished
14404,76,27,12,341,9.0,4-14A,minor
14405,55,45,23,980,9.0,4-26,minor
14406,69,39,9,65,9.0,4-26,minor
14407,74,95,49,147,2.0,3-11A,minor
14408,77,77,26,72,3.0,2-1,other
14409,71,78,43,47,3.0,2-1,other
14410,74,76,19,73,0.0,2-1,other
14411,71,38,10,56,0.0,2-1,other
14412,65,40,44,129,8.0,3-10,other
14413,72,30,24,452,10.0,1-1,other
14414,83,44,28,26,10.0,1-1,other
14415,64,49,8,635,4.0,4-26,minor
14416,69,40,14,281,7.0,2-5,other
14417,70,50,12,28,7.0,2-5,other
14418,77,69,19,80,0.0,2-1,other
14419,88,85,19,367,5.0,3-8B,other
14420,89,70,17,30,5.0,3-8B,other
14421,90,78,22,30,5.0,3-8B,other
14422,91,80,23,32,5.0,3-8B,other
14423,86,41,8,101,2.0,4-26,minor
14424,86,83,21,55,2.0,4-26,minor
14425,64,58,8,179,2.0,2-1,other
14426,53,59,18,108,5.0,4-20,major
14427,72,87,24,954,9.0,3-1,other
14428,72,71,22,44,9.0,3-1,other
14429,69,51,19,104,0.0,3-4A,other
14430,60,60,137,31,0.0,3-4A,other
14431,74,62,20,253,5.0,2-4,major
14432,76,83,21,44,5.0,2-4,major
14433,77,86,32,45,5.0,2-4,major
14434,56,41,24,923,7.0,5-31B,major
14435,72,37,24,131,9.0,5-27B,minor
14436,71,52,187,53,9.0,5-27B,minor
14437,56,76,182,606,2.0,3-11A,minor
14438,95,74,19,368,9.0,4-14A,minor
14439,92,62,15,82,2.0,2-2,other
14440,95,56,24,26,2.0,2-2,other
14441,92,50,15,30,2.0,2-2,other
14442,93,65,20,32,2.0,2-2,other
14443,88,63,11,28,2.0,2-2,other
14444,88,47,11,34,2.0,2-2,other
14445,88,68,11,56,2.0,2-2,other
14446,88,72,29,59,2.0,2-2,other
14447,69,56,26,1028,2.0,3-11A,minor
14448,74,68,27,56,2.0,3-11A,minor
14449,77,80,21,64,2.0,3-11A,minor
14450,76,51,12,654,4.0,5-38A,diminished
14451,76,55,10,95,1.0,4-12A,other
14452,76,59,10,88,1.0,4-12A,other
14453,57,40,48,960,2.0,4-26,minor
14454,50,44,158,53,2.0,4-26,minor
14455,62,40,38,192,5.0,3-4A,major
14456,50,41,25,235,2.0,4-19A,minor
14457,74,84,47,124,2.0,4-19A,minor
14458,71,73,20,471,2.0,3-11A,minor
14459,76,83,15,36,2.0,3-11A,minor
14460,71,73,13,75,2.0,3-11A,minor
14461,77,93,30,134,8.0,5-4B,other
14462,72,47,19,144,2.0,2-5,other
14463,71,51,26,30,2.0,2-5,other
14464,74,68,39,38,2.0,2-5,other
14465,72,68,25,31,2.0,2-5,other
14466,69,37,41,60,2.0,2-5,other
14467,67,50,17,59,2.0,2-5,other
14468,55,43,14,116,0.0,2-4,major
14469,57,45,11,489,2.0,5-24A,minor
14470,57,53,9,1435,9.0,4-14A,minor
14471,62,55,24,123,5.0,4-16A,major
14472,83,108,16,535,0.0,3-4A,major
14473,86,93,21,91,11.0,2-3,minor
14474,81,55,15,29,11.0,2-3,minor
14475,84,80,23,90,9.0,2-3,minor
14476,81,29,6,91,7.0,2-4,major
14477,83,66,23,27,7.0,2-4,major
14478,77,38,20,61,2.0,3-11A,minor
14479,81,60,18,28,2.0,3-11A,minor
14480,81,71,25,31,2.0,3-11A,minor
14481,76,36,24,28,2.0,3-11A,minor
14482,79,88,46,64,2.0,3-11A,minor
14483,74,71,53,122,4.0,4-12A,major
14484,82,88,32,961,5.0,2-4,major
14485,83,77,18,33,5.0,2-4,major
14486,86,100,36,27,5.0,2-4,major
14487,84,55,26,59,5.0,2-4,other
14488,77,99,36,360,9.0,4-14A,minor
14489,75,67,17,33,9.0,4-14A,minor
14490,76,66,29,29,9.0,4-14A,minor
14491,69,50,36,62,0.0,2-4,major
14492,57,45,105,64,0.0,4-22A,major
14493,69,58,24,56,0.0,4-22A,major
14494,65,58,19,33,0.0,4-22A,major
14495,62,25,32,41,0.0,4-22A,major
14496,62,43,19,45,0.0,4-22A,major
14497,82,90,34,125,4.0,3-5B,other
14498,75,56,24,54,3.0,2-5,other
14499,71,44,23,30,3.0,2-5,other
14500,78,79,24,271,7.0,3-11B,major
14501,79,77,24,36,7.0,3-11B,major
14502,78,51,46,26,7.0,3-11B,major
14503,69,24,18,61,2.0,1-1,other
14504,67,36,7,242,7.0,3-7A,minor
14505,69,79,17,105,5.0,2-4,other
14506,70,64,26,33,5.0,2-4,other
14507,72,43,21,26,5.0,2-4,other
14508,72,59,35,62,1.0,1-1,other
14509,75,59,20,116,6.0,3-7B,other
14510,79,71,18,97,2.0,4-17,other
14511,80,54,26,29,2.0,4-17,other
14512,84,95,33,61,9.0,1-1,other
14513,81,62,40,62,9.0,1-1,other
14514,72,52,46,122,5.0,4-20,major
14515,65,41,44,126,5.0,4-20,major
14516,70,77,27,205,9.0,2-1,other
14517,68,42,32,140,10.0,2-1,other
14518,67,70,15,33,10.0,2-1,other
14519,67,66,16,188,4.0,3-7B,other
14520,71,96,30,27,4.0,3-7B,other
14521,74,85,33,34,4.0,3-7B,other
14522,72,44,44,31,4.0,3-7B,other
14523,69,59,94,55,4.0,3-7B,other
14524,64,36,30,59,4.0,3-7B,other
14525,64,30,9,62,4.0,3-7B,other
14526,79,76,13,115,7.0,2-5,other
14527,83,83,14,33,7.0,2-5,other
14528,83,69,16,137,3.0,5-20B,major
14529,79,35,11,89,3.0,6-31A,augmented
14530,79,42,22,83,3.0,6-31A,augmented
14531,70,99,31,861,8.0,2-6,other
14532,71,72,27,33,8.0,2-6,other
14533,70,61,35,29,8.0,2-6,other
14534,68,64,22,55,8.0,2-6,other
14535,67,56,22,62,8.0,2-2,other
14536,65,75,20,36,8.0,2-2,other
14537,64,27,23,28,8.0,2-2,other
14538,64,45,12,95,4.0,2-3,minor
14539,65,69,24,26,4.0,2-3,minor
14540,63,52,17,33,4.0,2-3,minor
14541,64,62,22,27,4.0,2-3,minor
14542,60,63,17,33,4.0,2-3,minor
14543,68,61,17,625,4.0,3-8A,major
14544,70,63,16,26,4.0,3-8A,major
14545,71,79,17,67,8.0,3-5A,other
14546,81,74,19,156,9.0,5-18B,other
14547,81,80,22,42,9.0,5-18B,other
14548,81,73,18,41,9.0,5-18B,other
14549,81,66,20,32,9.0,5-18B,other
14550,83,77,47,68,9.0,4-14A,minor
14551,76,29,38,52,9.0,4-14A,minor
14552,76,51,131,56,9.0,4-14A,minor
14553,83,97,21,232,2.0,2-3,minor
14554,83,104,15,61,2.0,2-3,minor
14555,83,87,25,29,2.0,2-3,minor
14556,76,52,37,92,2.0,4-27A,minor
14557,76,55,33,57,2.0,4-27A,minor
14558,84,115,14,186,9.0,4-14A,minor
14559,84,90,20,31,9.0,4-14A,minor
14560,86,106,60,32,9.0,4-14A,minor
14561,76,56,133,118,5.0,5-20B,major
14562,86,96,19,333,2.0,2-2,other
14563,76,67,99,209,8.0,3-10,other
14564,74,76,27,124,8.0,3-10,other
14565,76,66,19,34,8.0,3-10,other
14566,74,55,46,30,8.0,3-10,other
14567,74,17,11,59,8.0,3-10,other
14568,71,65,27,112,2.0,2-2,other
14569,67,44,25,70,10.0,2-4,major
14570,61,43,26,316,5.0,3-8B,other
14571,70,79,30,27,5.0,3-8B,other
14572,73,54,19,155,1.0,2-1,other
14573,75,65,25,26,1.0,2-1,other
14574,76,75,17,32,1.0,2-1,other
14575,76,53,13,67,1.0,3-10,diminished
14576,77,70,35,26,1.0,3-10,diminished
14577,65,73,108,297,9.0,2-2,other
14578,67,54,25,164,9.0,3-11B,major
14579,64,40,49,27,9.0,3-11B,major
14580,64,47,23,94,2.0,3-7B,other
14581,62,38,41,27,2.0,3-7B,other
14582,64,50,26,84,9.0,2-4,major
14583,61,36,40,27,9.0,2-4,major
14584,57,47,61,90,2.0,2-5,other
14585,65,42,16,369,9.0,2-5,other
14586,76,113,35,505,2.0,3-11A,minor
14587,74,50,19,71,5.0,2-1,other
14588,72,43,16,173,4.0,3-8A,major
14589,69,44,22,57,8.0,2-3,minor
14590,64,71,15,214,4.0,1-1,other
14591,64,49,31,28,4.0,1-1,other
14592,55,45,8,171,0.0,3-11B,major
14593,63,52,23,1205,4.0,4-12A,major
14594,64,39,11,39,4.0,4-12A,major
14595,70,76,32,147,8.0,2-6,other
14596,71,73,21,33,8.0,2-6,other
14597,74,87,24,39,8.0,2-6,other
14598,72,66,28,81,0.0,3-4A,major
14599,69,62,18,39,0.0,3-4A,major
14600,69,65,23,52,0.0,3-4A,major
14601,69,69,25,53,0.0,3-4A,major
14602,69,60,32,114,9.0,2-5,other
14603,68,40,16,34,9.0,2-5,other
14604,76,69,306,86,9.0,4-14A,minor
14605,95,96,22,652,0.0,3-4A,major
14606,96,86,19,34,0.0,3-4A,major
14607,95,65,14,26,0.0,3-4A,major
14608,91,70,13,62,0.0,3-4A,major
14609,93,92,20,60,0.0,3-4A,major
14610,88,65,32,65,0.0,3-4A,major
14611,91,79,59,59,0.0,3-4A,major
14612,89,95,30,124,2.0,3-11A,minor
14613,81,68,14,60,2.0,3-11A,minor
14614,88,101,16,56,2.0,3-11A,minor
14615,80,61,32,63,2.0,3-11A,minor
14616,79,54,19,120,8.0,3-10,other
14617,77,75,21,55,8.0,3-10,other
14618,77,61,30,99,9.0,4-14A,minor
14619,76,55,25,32,9.0,4-14A,minor
14620,72,40,84,52,9.0,4-14A,minor
14621,69,60,213,59,9.0,4-14A,minor
14622,69,97,27,245,9.0,4-14A,minor
14623,71,73,22,28,9.0,4-14A,minor
14624,71,62,35,28,9.0,4-14A,minor
14625,74,75,19,91,9.0,2-3,minor
14626,74,65,26,29,9.0,2-3,minor
14627,76,85,19,34,9.0,2-3,minor
14628,76,90,23,28,9.0,2-3,minor
14629,77,74,20,31,9.0,2-3,minor
14630,79,74,15,65,8.0,3-10,other
14631,80,63,29,28,8.0,3-10,other
14632,83,59,17,154,11.0,2-3,minor
14633,80,42,14,116,8.0,2-3,minor
14634,81,64,22,30,8.0,2-3,minor
14635,76,64,14,30,8.0,2-3,minor
14636,74,54,28,26,8.0,2-3,minor
14637,71,55,47,60,9.0,3-11A,minor
14638,71,70,46,60,9.0,3-11A,minor
14639,72,100,95,120,9.0,3-11A,minor
14640,69,63,35,128,11.0,2-1,other
14641,64,55,81,62,11.0,2-1,other
14642,65,72,52,121,7.0,3-8A,major
14643,62,66,84,55,7.0,3-8A,major
14644,63,40,22,125,11.0,3-5A,other
14645,64,56,17,28,11.0,3-5A,other
14646,66,82,172,27,11.0,3-5A,other
14647,69,79,32,173,11.0,3-5A,other
14648,69,62,23,167,7.0,2-1,other
14649,70,47,23,30,7.0,2-1,other
14650,81,82,21,195,7.0,2-1,other
14651,82,66,18,29,7.0,2-1,other
14652,85,76,20,57,0.0,5-31B,major
14653,88,77,20,58,1.0,2-2,other
14654,85,62,25,124,7.0,3-7A,minor
14655,88,73,22,30,7.0,3-7A,minor
14656,86,69,57,29,7.0,3-7A,minor
14657,84,108,29,423,5.0,4-20,major
14658,81,68,23,39,5.0,4-20,major
14659,83,68,25,109,4.0,4-9,other
14660,94,83,23,119,4.0,4-9,other
14661,93,76,22,31,4.0,4-9,other
14662,90,65,21,237,4.0,4-29A,minor
14663,88,79,29,119,4.0,2-3,minor
14664,88,80,23,61,4.0,2-3,minor
14665,84,89,21,184,0.0,2-1,other
14666,84,80,20,57,0.0,2-1,other
14667,81,70,70,121,5.0,4-20,major
14668,84,82,26,160,10.0,2-1,other
14669,76,113,30,977,8.0,3-10,other
14670,79,83,23,33,8.0,3-10,other
14671,77,85,21,57,8.0,3-10,other
14672,74,87,14,64,8.0,3-10,other
14673,73,67,23,58,8.0,3-10,other
14674,74,76,23,181,9.0,4-14A,minor
14675,72,44,22,30,9.0,4-14A,minor
14676,69,51,28,60,9.0,2-5,other
14677,69,75,29,238,9.0,2-1,other
14678,71,67,32,115,2.0,3-11A,minor
14679,71,85,29,248,8.0,4-28,diminished
14680,76,69,32,97,8.0,4-28,diminished
14681,71,49,25,505,11.0,1-1,other
14682,69,30,15,352,9.0,1-1,other
14683,76,67,24,239,9.0,4-14A,minor
14684,86,101,16,541,2.0,3-11A,minor
14685,84,62,17,127,8.0,3-10,other
14686,88,94,21,173,8.0,4-28,diminished
14687,88,79,23,34,8.0,4-28,diminished
14688,81,75,32,152,10.0,2-4,major
14689,86,110,18,54,10.0,2-4,major
14690,79,68,27,65,10.0,2-4,major
14691,84,93,21,172,5.0,2-4,other
14692,61,47,16,62,5.0,2-1,other
14693,74,87,24,125,1.0,2-3,minor
14694,81,78,21,33,1.0,2-3,minor
14695,73,35,27,29,1.0,2-3,minor
14696,70,40,24,60,0.0,2-1,other
14697,61,42,6,32,0.0,2-1,other
14698,69,81,23,28,0.0,2-1,other
14699,69,31,27,61,9.0,3-3A,major
14700,65,46,38,54,1.0,2-6,other
14701,61,68,20,213,5.0,3-4A,major
14702,62,79,26,30,5.0,3-4A,major
14703,62,84,21,37,5.0,3-4A,major
14704,57,72,40,29,5.0,3-4A,major
14705,57,76,39,53,5.0,3-4A,major
14706,67,90,32,544,7.0,5-34,major
14707,78,77,42,56,7.0,5-34,major
14708,65,23,23,126,2.0,4-26,minor
14709,74,110,93,475,2.0,3-11A,minor
14710,77,79,22,121,9.0,3-5A,other
14711,82,83,21,216,8.0,3-10,other
14712,83,76,18,27,8.0,3-10,other
14713,95,78,10,661,3.0,4-16A,major
14714,98,101,20,59,3.0,4-16A,major
14715,76,108,14,174,3.0,4-16A,major
14716,79,86,16,59,3.0,4-16A,major
14717,77,86,19,123,2.0,2-3,minor
14718,69,51,13,62,2.0,2-3,minor
14719,67,42,12,123,5.0,2-1,other
14720,74,86,21,57,5.0,2-1,other
14721,65,53,21,62,5.0,2-1,other
14722,67,89,18,58,5.0,2-1,other
14723,68,69,17,237,8.0,3-10,other
14724,71,69,15,36,8.0,3-10,other
14725,77,63,18,83,8.0,3-10,other
14726,83,74,18,63,8.0,3-10,other
14727,86,104,20,28,8.0,3-10,other
14728,83,57,13,30,8.0,3-10,other
14729,83,66,17,88,9.0,3-2B,minor
14730,83,69,18,29,9.0,3-2B,minor
14731,83,74,28,62,0.0,3-4A,major
14732,84,79,19,36,0.0,3-4A,major
14733,81,67,20,29,0.0,3-4A,major
14734,74,55,21,117,9.0,4-14A,minor
14735,76,82,22,121,4.0,2-2,other
14736,83,96,10,62,4.0,2-2,other
14737,83,92,12,58,4.0,2-2,other
14738,83,96,62,63,4.0,2-2,other
14739,84,81,15,58,4.0,2-2,other
14740,81,74,14,59,4.0,2-2,other
14741,81,76,18,59,4.0,2-2,other
14742,81,74,53,64,4.0,2-2,other
14743,83,73,46,59,4.0,2-2,other
14744,81,51,21,1433,4.0,4-27B,major
14745,79,29,17,35,4.0,4-27B,major
14746,83,79,21,389,9.0,4-14A,minor
14747,84,77,23,26,9.0,4-14A,minor
14748,88,72,22,30,9.0,4-14A,minor
14749,91,75,21,28,9.0,4-14A,minor
14750,98,92,47,65,3.0,5-30B,augmented
14751,96,73,37,28,3.0,5-30B,augmented
14752,81,115,23,546,5.0,4-16A,major
14753,88,93,31,31,5.0,4-16A,major
14754,81,43,27,27,5.0,4-16A,major
14755,81,93,23,173,5.0,4-16A,major
14756,88,92,18,32,5.0,4-16A,major
14757,80,54,27,29,5.0,4-16A,major
14758,77,42,25,122,8.0,2-1,other
14759,76,50,18,38,8.0,2-1,other
14760,76,20,28,29,8.0,2-1,other
14761,79,88,28,150,8.0,3-10,other
14762,78,66,34,26,8.0,3-10,other
14763,72,38,22,62,1.0,3-5B,other
14764,74,86,21,276,0.0,2-1,other
14765,68,53,41,91,9.0,4-14A,minor
14766,71,67,152,47,9.0,4-14A,minor
14767,69,69,33,123,9.0,4-14A,minor
14768,67,52,35,185,9.0,3-5A,other
14769,69,63,16,481,2.0,3-9,other
14770,74,83,15,35,2.0,3-9,other
14771,76,97,24,27,2.0,3-9,other
14772,69,58,17,116,4.0,2-2,other
14773,74,73,14,34,4.0,2-2,other
14774,77,79,28,60,2.0,3-9,other
14775,76,61,25,29,2.0,3-9,other
14776,74,65,28,92,8.0,2-6,other
14777,76,59,20,30,8.0,2-6,other
14778,77,71,29,29,8.0,2-6,other
14779,76,51,23,30,8.0,2-6,other
14780,68,26,12,61,8.0,2-6,other
14781,68,53,17,119,2.0,2-3,minor
14782,76,82,24,57,2.0,2-3,minor
14783,77,75,30,29,2.0,2-3,minor
14784,76,59,24,29,2.0,2-3,minor
14785,74,62,28,29,2.0,2-3,minor
14786,71,48,20,122,11.0,2-3,minor
14787,72,49,48,29,11.0,2-3,minor
14788,69,49,23,58,11.0,2-3,minor
14789,93,94,20,218,3.0,3-1,other
14790,90,74,19,2169,4.0,2-2,other
14791,93,94,18,53,4.0,2-2,other
14792,86,72,10,58,4.0,2-2,other
14793,90,74,29,27,4.0,2-2,other
14794,83,58,28,55,4.0,2-2,other
14795,86,82,16,62,4.0,2-2,other
14796,86,94,35,421,5.0,3-8A,major
14797,86,99,17,149,8.0,3-10,other
14798,83,61,32,89,2.0,4-27A,minor
14799,81,58,17,55,2.0,4-27A,minor
14800,86,83,36,118,8.0,3-10,other
14801,76,59,26,95,8.0,3-10,other
14802,74,53,21,29,8.0,3-10,other
14803,52,38,34,477,0.0,3-4A,major
14804,52,41,13,318,9.0,4-14A,minor
14805,52,56,93,59,9.0,4-14A,minor
14806,52,49,60,114,9.0,4-14A,minor
14807,52,49,20,122,9.0,4-14A,minor
14808,76,38,20,68,9.0,4-14A,minor
14809,60,38,13,173,0.0,3-4A,major
14810,88,56,17,108,0.0,3-4A,major
14811,93,48,17,197,0.0,3-4A,major
14812,52,37,25,305,0.0,3-4A,major
14813,52,39,320,150,9.0,3-9,other
14814,70,61,58,0,,,
14815,75,82,57,175,9.0,4-16A,other
14816,46,53,46,235,9.0,3-5B,other
14817,58,43,364,117,5.0,4-22A,major
14818,65,49,116,130,5.0,3-11B,major
14819,72,52,70,63,5.0,3-11B,major
14820,82,51,3,65,5.0,3-11B,major
14821,79,60,276,116,1.0,4-24,other
14822,46,52,91,481,5.0,3-8A,major
14823,56,38,66,240,1.0,4-24,other
14824,67,63,10,58,1.0,4-24,other
14825,80,60,5,49,1.0,4-24,other
14826,62,46,40,139,8.0,3-8A,other
14827,63,82,52,113,0.0,3-7A,minor
14828,64,94,48,120,1.0,3-10,minor
14829,65,80,9,112,10.0,3-11B,major
14830,46,51,62,118,3.0,4-14A,other
14831,61,76,37,127,1.0,4-22B,other
14832,61,64,45,119,6.0,4-27A,minor
14833,61,55,10,126,1.0,3-10,other
14834,68,86,27,111,1.0,4-22A,other
14835,68,78,43,63,1.0,4-22A,other
14836,68,66,37,179,8.0,3-10,diminished
14837,68,67,9,130,0.0,3-11B,other
14838,65,105,77,54,0.0,3-11B,other
14839,61,74,382,119,0.0,3-11B,other
14840,57,44,40,297,9.0,4-26,minor
14841,70,70,21,145,5.0,3-11B,other
14842,46,60,52,463,5.0,3-8A,major
14843,60,53,98,114,5.0,4-22A,major
14844,70,54,13,243,5.0,3-11B,major
14845,44,53,50,118,1.0,4-24,other
14846,53,55,34,62,1.0,4-24,other
14847,55,56,69,55,1.0,4-24,other
14848,58,46,35,121,3.0,3-11A,other
14849,68,52,6,149,3.0,3-11A,other
14850,70,80,40,142,5.0,5-33,augmented
14851,68,68,242,250,1.0,5-33,other
14852,82,99,80,240,8.0,3-8A,other
14853,80,92,24,43,8.0,3-8A,other
14854,78,80,21,28,8.0,3-8A,other
14855,74,55,17,26,8.0,3-8A,other
14856,71,48,18,54,9.0,4-16A,other
14857,70,67,23,29,9.0,4-16A,other
14858,68,57,23,27,9.0,4-16A,other
14859,46,48,83,219,5.0,3-2B,other
14860,46,57,11,118,6.0,2-5,other
14861,64,41,63,118,1.0,6-40B,other
14862,63,50,56,60,1.0,6-40B,other
14863,66,36,18,56,1.0,6-40B,other
14864,68,82,26,132,8.0,4-11A,other
14865,68,85,22,49,8.0,4-11A,other
14866,68,95,30,59,8.0,4-11A,other
14867,45,63,151,117,4.0,4-27B,major
14868,54,69,67,63,4.0,4-27B,major
14869,61,65,24,241,1.0,2-5,other
14870,61,73,32,60,1.0,2-5,other
14871,61,74,31,180,6.0,2-5,other
14872,61,63,28,57,6.0,2-5,other
14873,61,69,28,127,1.0,2-5,other
14874,61,63,20,61,1.0,2-5,other
14875,61,67,15,53,1.0,2-5,other
14876,68,66,25,127,9.0,5-24A,other
14877,69,62,13,140,9.0,4-16A,other
14878,71,76,44,155,9.0,5-27A,major
14879,71,61,16,78,9.0,5-27A,major
14880,47,61,10,234,3.0,4-16A,major
14881,47,62,48,123,3.0,3-11A,other
14882,63,74,15,47,3.0,3-11A,other
14883,64,62,20,28,3.0,3-11A,other
14884,68,77,16,29,3.0,3-11A,other
14885,71,72,20,28,3.0,3-11A,other
14886,76,87,43,112,1.0,5-27B,other
14887,73,55,38,85,1.0,5-27B,other
14888,80,86,59,147,1.0,3-7B,other
14889,47,66,9,50,1.0,3-7B,other
14890,76,76,22,40,1.0,3-7B,other
14891,73,68,12,37,1.0,3-7B,other
14892,79,67,30,203,7.0,2-5,other
14893,75,74,27,38,7.0,2-5,other
14894,74,70,10,102,2.0,2-1,other
14895,88,111,21,28,2.0,2-1,other
14896,84,83,31,73,2.0,2-4,major
14897,83,78,35,36,2.0,2-4,major
14898,80,70,15,78,8.0,4-27B,other
14899,77,54,18,58,7.0,2-3,minor
14900,74,64,21,56,2.0,3-2B,minor
14901,73,62,26,29,2.0,3-2B,minor
14902,74,72,29,28,2.0,3-2B,minor
14903,52,59,82,106,9.0,2-5,other
14904,45,69,34,123,9.0,1-1,other
14905,74,84,57,204,0.0,5-30B,other
14906,74,73,37,145,7.0,3-11B,major
14907,59,66,105,246,7.0,3-11B,major
14908,67,118,34,52,7.0,3-11B,major
14909,67,79,45,40,7.0,3-11B,major
14910,69,69,21,38,7.0,3-11B,major
14911,70,60,22,220,7.0,3-7B,other
14912,62,47,11,121,3.0,4-20,major
14913,74,85,14,118,10.0,3-11B,major
14914,70,77,54,182,1.0,3-8A,other
14915,75,55,20,178,9.0,3-8B,other
14916,81,56,9,244,9.0,1-1,other
14917,81,51,17,90,5.0,5-30B,other
14918,81,59,18,28,5.0,5-30B,other
14919,84,73,21,32,5.0,5-30B,other
14920,72,58,24,149,3.0,2-5,other
14921,44,59,18,150,1.0,3-8A,other
14922,55,58,29,54,3.0,4-24,augmented
14923,58,70,26,62,3.0,3-4B,other
14924,58,47,29,61,3.0,4-19A,other
14925,55,45,18,68,3.0,4-19A,other
14926,53,52,129,503,3.0,4-19A,other
14927,59,54,72,60,3.0,4-19A,other
14928,68,47,21,91,3.0,4-19A,other
14929,62,64,24,92,1.0,3-2A,minor
14930,73,65,53,297,2.0,2-4,major
14931,72,71,20,31,2.0,2-4,major
14932,71,61,27,49,2.0,2-4,major
14933,46,63,21,72,3.0,2-5,other
14934,54,51,10,148,1.0,4-26,other
14935,51,51,7,239,10.0,3-11B,other
14936,68,73,19,242,5.0,4-3,major
14937,68,77,42,57,5.0,4-3,major
14938,68,67,20,59,5.0,4-3,major
14939,44,55,92,226,5.0,2-4,other
14940,44,48,12,116,5.0,2-4,other
14941,47,52,51,259,6.0,3-9,other
14942,53,37,121,122,5.0,2-4,other
14943,61,50,62,62,5.0,2-4,other
14944,49,57,36,57,5.0,2-4,other
14945,54,71,80,121,9.0,5-24A,other
14946,57,59,16,63,9.0,5-24A,other
14947,69,70,9,59,9.0,5-24A,other
14948,72,67,12,95,9.0,5-27A,major
14949,71,49,81,87,9.0,5-11A,other
14950,47,48,202,59,9.0,5-11A,other
14951,63,92,26,352,4.0,3-11B,major
14952,64,94,65,39,4.0,3-11B,major
14953,63,61,13,28,4.0,3-11B,major
14954,68,83,31,30,4.0,3-11B,major
14955,76,73,13,125,1.0,5-27B,other
14956,75,71,13,27,1.0,5-27B,other
14957,76,86,15,28,1.0,5-27B,other
14958,75,81,24,28,1.0,5-27B,other
14959,73,72,23,31,1.0,5-27B,other
14960,71,63,49,27,1.0,5-27B,other
14961,64,62,18,221,9.0,5-27A,major
14962,83,90,21,110,3.0,4-16A,major
14963,86,110,28,29,3.0,4-16A,major
14964,84,95,29,35,3.0,4-16A,major
14965,84,87,24,66,3.0,4-19B,augmented
14966,83,46,25,29,3.0,4-19B,augmented
14967,84,79,22,27,3.0,4-19B,augmented
14968,83,70,31,28,3.0,4-19B,augmented
14969,47,76,80,33,3.0,4-19B,augmented
14970,57,66,75,27,3.0,4-19B,augmented
14971,62,74,43,35,3.0,4-19B,augmented
14972,66,79,34,52,3.0,4-19B,augmented
14973,67,74,24,42,3.0,4-19B,augmented
14974,74,74,38,90,4.0,4-15B,other
14975,65,78,21,111,7.0,2-5,other
14976,64,63,29,27,7.0,2-5,other
14977,62,59,25,30,7.0,2-5,other
14978,52,58,160,87,9.0,2-4,major
14979,56,88,28,66,9.0,2-4,major
14980,57,82,29,37,9.0,2-4,major
14981,73,81,19,285,2.0,2-2,other
14982,71,73,21,83,7.0,3-11B,major
14983,50,47,44,132,11.0,4-26,minor
14984,50,82,110,113,11.0,4-23,minor
14985,67,119,25,64,11.0,4-23,minor
14986,69,61,14,94,9.0,2-2,other
14987,70,74,29,209,7.0,3-7B,other
14988,74,71,54,124,3.0,4-20,major
14989,79,60,4,232,1.0,4-24,other
14990,79,37,3,33,1.0,4-24,other
14991,93,74,21,571,5.0,4-16B,major
14992,70,61,22,257,5.0,4-16A,other
14993,44,55,27,84,1.0,4-24,other
14994,52,57,27,39,1.0,4-24,other
14995,53,48,38,40,1.0,4-24,other
14996,55,55,25,81,3.0,4-19B,augmented
14997,68,69,18,220,3.0,3-12,augmented
14998,70,69,46,173,5.0,5-33,augmented
14999,68,54,146,254,1.0,5-33,other
15000,56,50,10,165,10.0,2-4,major
15001,46,45,75,490,5.0,4-11B,other
15002,46,48,55,117,10.0,3-11B,other
15003,52,58,64,117,10.0,4-20,other
15004,51,46,100,63,10.0,4-20,other
15005,63,58,31,55,10.0,4-20,other
15006,65,58,18,127,5.0,4-17,major
15007,68,65,38,61,5.0,4-17,major
15008,68,50,14,55,5.0,4-17,major
15009,68,51,28,121,4.0,4-27B,major
15010,68,53,31,59,4.0,4-27B,major
15011,68,57,16,55,4.0,4-27B,major
15012,44,54,18,125,5.0,2-4,other
15013,61,63,18,125,5.0,2-4,other
15014,56,91,53,119,1.0,2-2,other
15015,44,57,20,239,5.0,3-11B,other
15016,44,47,10,115,5.0,3-11B,other
15017,56,40,126,365,0.0,3-4B,other
15018,49,59,21,116,5.0,3-11A,other
15019,47,52,151,62,5.0,3-11A,other
15020,54,52,135,58,5.0,3-11A,other
15021,56,49,22,63,5.0,3-11A,other
15022,75,72,412,0,,,
15023,74,60,196,239,,,
15024,75,66,122,381,5.0,2-4,other
15025,73,66,89,68,5.0,2-4,other
15026,73,85,170,292,0.0,2-1,other
15027,75,68,280,406,5.0,2-4,other
15028,51,48,1458,1294,0.0,2-2,other
15029,70,83,176,586,9.0,2-3,minor
15030,72,83,125,143,9.0,2-3,minor
15031,73,75,129,288,9.0,3-10,diminished
15032,68,81,159,1901,10.0,1-1,other
15033,67,75,75,373,8.0,2-2,other
15034,65,59,36,104,8.0,2-2,other
15035,63,21,20,1529,3.0,1-1,other
15036,58,38,796,158,3.0,2-4,major
15037,77,80,503,179,3.0,2-4,major
15038,73,37,49,372,3.0,1-1,other
15039,59,35,138,492,8.0,2-3,minor
15040,53,27,868,833,0.0,2-4,other
15041,73,63,158,180,0.0,2-4,other
15042,80,79,194,370,1.0,2-3,other
15043,73,55,142,416,5.0,2-4,other
15044,70,64,101,1463,9.0,2-6,other
15045,69,54,77,70,9.0,2-6,other
15046,68,66,46,75,9.0,2-6,other
15047,69,59,82,91,9.0,2-6,other
15048,60,32,181,28,9.0,2-6,other
15049,72,60,107,153,9.0,2-6,other
15050,75,67,76,129,9.0,2-6,other
15051,77,83,33,106,9.0,2-6,other
15052,69,46,235,147,6.0,2-6,other
15053,72,44,508,278,1.0,2-2,other
15054,68,75,235,1679,10.0,3-11B,major
15055,65,63,38,387,7.0,2-3,minor
15056,63,52,178,937,0.0,3-11B,other
15057,65,55,85,597,3.0,1-1,other
15058,63,61,163,83,3.0,1-1,other
15059,63,57,54,300,7.0,3-11A,minor
15060,68,64,277,1895,5.0,1-1,other
15061,68,54,164,402,5.0,2-4,other
15062,68,67,145,358,5.0,1-1,other
15063,76,88,117,377,3.0,2-1,other
15064,72,83,169,389,1.0,3-10,minor
15065,70,73,190,419,4.0,3-5A,other
15066,66,65,136,402,9.0,2-6,other
15067,64,34,169,366,5.0,2-5,other
15068,61,46,144,393,0.0,2-3,minor
15069,60,51,60,375,1.0,1-1,other
15070,61,63,53,84,1.0,1-1,other
15071,70,61,61,195,5.0,2-5,other
15072,72,75,71,88,5.0,2-5,other
15073,73,75,50,87,5.0,2-5,other
15074,80,66,64,195,5.0,2-5,other
15075,84,70,64,91,5.0,2-5,other
15076,85,86,79,93,5.0,2-5,other
15077,80,57,19,219,2.0,1-1,other
15078,77,49,19,116,2.0,1-1,other
15079,51,40,845,908,0.0,2-4,other
15080,67,53,59,120,0.0,2-4,other
15081,68,68,55,72,0.0,2-4,other
15082,70,64,32,59,0.0,2-4,other
15083,75,62,14,98,0.0,1-1,other
15084,77,68,26,49,0.0,1-1,other
15085,80,68,44,40,0.0,1-1,other
15086,82,63,13,51,0.0,1-1,other
15087,84,67,40,35,0.0,1-1,other
15088,87,74,18,53,0.0,1-1,other
15089,92,74,47,109,5.0,2-5,other
15090,94,79,55,69,5.0,2-5,other
15091,96,77,80,86,5.0,2-5,other
15092,97,76,57,114,5.0,2-5,other
15093,98,82,73,107,5.0,2-5,other
15094,73,81,103,698,3.0,2-4,major
15095,70,66,177,371,0.0,2-2,other
15096,51,40,179,404,8.0,1-1,other
15097,55,36,138,198,8.0,1-1,other
15098,56,55,455,156,8.0,1-1,other
15099,60,59,111,163,8.0,1-1,other
15100,63,60,126,189,8.0,1-1,other
15101,53,39,921,259,5.0,2-4,other
15102,76,88,148,1337,3.0,2-1,other
15103,72,72,133,334,1.0,2-1,other
15104,70,66,143,183,1.0,2-1,other
15105,60,38,375,26,1.0,2-1,other
15106,66,50,57,636,6.0,2-3,other
15107,65,66,104,57,6.0,2-3,other
15108,64,68,184,108,6.0,2-3,other
15109,60,35,185,39,6.0,2-3,other
15110,63,68,200,113,6.0,2-3,other
15111,60,63,140,185,6.0,2-3,other
15112,65,66,137,282,0.0,2-3,minor
15113,70,81,123,732,5.0,4-19B,other
15114,73,76,186,353,5.0,3-4A,other
15115,75,78,105,414,10.0,2-4,major
15116,76,81,93,102,10.0,2-4,major
15117,80,77,67,224,8.0,3-10,other
15118,83,81,61,92,8.0,3-10,other
15119,86,83,82,94,8.0,3-10,other
15120,86,68,139,246,2.0,2-3,minor
15121,84,50,218,352,3.0,2-5,other
15122,87,87,146,1202,1.0,2-2,other
15123,84,69,128,352,1.0,2-3,other
15124,82,68,194,214,1.0,2-3,other
15125,80,61,142,154,1.0,2-3,other
15126,82,67,152,406,8.0,2-1,other
15127,79,82,154,400,3.0,2-5,other
15128,82,90,159,377,8.0,2-1,other
15129,77,68,150,382,8.0,2-3,other
15130,72,55,128,387,1.0,1-1,other
15131,68,56,171,376,1.0,2-3,other
15132,84,39,40,671,0.0,2-2,other
15133,85,68,52,43,0.0,2-2,other
15134,83,51,17,79,0.0,2-2,other
15135,82,57,47,45,0.0,2-2,other
15136,79,58,15,45,0.0,2-2,other
15137,73,57,57,119,0.0,3-8A,major
15138,72,29,36,94,0.0,3-8A,major
15139,71,38,30,80,0.0,3-8A,major
15140,51,48,1149,193,0.0,3-8A,major
15141,90,80,93,324,5.0,2-1,other
15142,88,68,22,118,5.0,2-5,other
15143,83,43,41,110,5.0,2-5,other
15144,81,66,19,58,5.0,2-5,other
15145,78,62,57,75,5.0,2-5,other
15146,77,57,44,52,5.0,2-5,other
15147,57,22,232,72,0.0,2-4,major
15148,75,54,61,72,0.0,2-4,major
15149,74,56,69,75,0.0,2-4,major
15150,73,63,75,86,0.0,2-4,major
15151,72,77,155,269,1.0,2-2,other
15152,70,69,154,425,9.0,3-3A,minor
15153,63,63,174,769,2.0,1-1,other
15154,60,22,64,51,2.0,1-1,other
15155,64,65,142,111,2.0,1-1,other
15156,65,75,158,210,5.0,2-5,other
15157,65,67,119,378,2.0,2-3,minor
15158,68,63,220,376,5.0,2-2,other
15159,60,58,97,210,5.0,2-2,other
15160,63,58,62,112,5.0,2-2,other
15161,65,65,64,91,5.0,2-2,other
15162,68,65,67,79,5.0,2-2,other
15163,77,62,61,273,0.0,2-1,other
15164,80,60,88,74,0.0,2-1,other
15165,84,61,89,241,3.0,2-5,other
15166,79,56,199,118,3.0,2-5,other
15167,58,29,203,207,1.0,2-2,other
15168,82,62,125,518,1.0,2-3,other
15169,60,52,232,779,8.0,2-2,other
15170,73,58,164,770,5.0,2-4,other
15171,56,39,941,29,5.0,2-4,other
15172,58,49,549,1508,0.0,1-1,other
15173,56,43,254,1911,1.0,1-1,other
15174,72,58,154,33,1.0,1-1,other
15175,68,67,198,335,1.0,2-1,other
15176,56,40,598,26,1.0,2-1,other
15177,89,84,47,936,0.0,2-4,other
15178,92,75,77,55,0.0,2-4,other
15179,89,65,40,53,0.0,2-4,other
15180,85,65,53,102,8.0,3-10,diminished
15181,84,64,26,43,8.0,3-10,diminished
15182,83,57,16,45,8.0,3-10,diminished
15183,82,60,35,42,8.0,3-10,diminished
15184,81,65,41,45,8.0,3-10,diminished
15185,80,63,31,35,8.0,3-10,diminished
15186,74,59,46,118,8.0,3-10,minor
15187,73,56,34,50,8.0,3-10,minor
15188,72,52,27,42,8.0,3-10,minor
15189,71,50,31,39,8.0,3-10,minor
15190,70,45,13,36,8.0,3-10,minor
15191,70,60,137,70,8.0,3-10,minor
15192,51,33,1062,27,8.0,3-10,minor
15193,68,55,163,170,8.0,3-10,minor
15194,56,37,140,248,5.0,2-5,other
15195,63,54,137,138,5.0,2-5,other
15196,63,48,165,418,3.0,2-5,other
15197,51,38,277,1492,1.0,2-5,other
15198,51,40,327,388,0.0,2-4,other
15199,56,46,108,216,0.0,2-4,other
15200,75,66,136,236,0.0,2-4,other
15201,73,58,137,331,8.0,2-6,other
15202,77,68,159,335,10.0,3-11B,major
15203,79,50,163,824,8.0,2-1,other
15204,58,27,48,211,3.0,2-5,other
15205,75,42,141,171,3.0,2-5,other
15206,73,45,130,364,3.0,3-11B,major
15207,70,40,89,370,3.0,2-5,other
15208,68,46,83,385,10.0,2-4,major
15209,66,36,137,383,10.0,3-11B,major
15210,67,45,170,168,10.0,3-11B,major
15211,55,29,932,26,10.0,3-11B,major
15212,70,51,56,173,10.0,3-11B,major
15213,56,64,956,1005,3.0,2-5,other
15214,62,42,236,341,3.0,2-5,other
15215,58,36,202,28,3.0,2-5,other
15216,67,58,136,135,3.0,2-5,other
15217,68,70,157,122,3.0,2-5,other
15218,70,67,94,126,3.0,2-5,other
15219,72,68,78,118,10.0,2-4,major
15220,74,77,85,107,10.0,2-4,major
15221,77,58,44,260,3.0,2-4,major
15222,78,60,92,127,3.0,2-4,major
15223,82,63,63,268,3.0,3-11B,major
15224,87,85,87,150,3.0,3-11B,major
15225,58,39,342,178,3.0,2-4,major
15226,87,84,159,165,3.0,2-4,major
15227,86,62,152,368,8.0,2-3,other
15228,58,42,71,545,10.0,1-1,other
15229,80,48,148,196,10.0,1-1,other
15230,91,41,158,422,3.0,3-11B,major
15231,87,57,81,387,3.0,2-4,major
15232,84,54,99,351,3.0,2-5,other
15233,86,70,112,389,0.0,2-2,other
15234,82,82,144,349,8.0,2-6,other
15235,87,89,148,413,10.0,3-11B,major
15236,82,72,101,377,3.0,2-4,major
15237,79,81,123,345,3.0,2-5,other
15238,91,78,129,422,3.0,3-11B,major
15239,89,48,144,433,7.0,2-1,other
15240,82,56,180,368,10.0,3-11B,major
15241,78,43,144,383,8.0,2-2,other
15242,82,57,205,371,3.0,3-11B,major
15243,75,51,352,394,3.0,2-4,major
15244,87,75,167,362,3.0,3-11B,major
15245,87,82,153,396,1.0,3-5B,other
15246,86,82,161,366,10.0,3-11B,major
15247,80,62,180,384,10.0,3-11B,major
15248,56,30,167,53,10.0,3-11B,major
15249,79,58,383,172,10.0,3-11B,major
15250,55,39,750,26,10.0,3-11B,major
15251,82,39,159,169,10.0,3-11B,major
15252,79,49,249,371,3.0,2-5,other
15253,82,75,277,374,3.0,3-9,other
15254,80,75,161,230,3.0,3-9,other
15255,46,46,670,35,3.0,3-9,other
15256,79,66,159,143,3.0,3-9,other
15257,75,59,192,355,8.0,2-3,other
15258,77,53,188,371,8.0,2-6,other
15259,67,40,178,405,3.0,1-1,other
15260,58,25,269,227,3.0,2-5,other
15261,72,66,173,163,3.0,2-5,other
15262,73,69,165,197,3.0,2-5,other
15263,58,25,337,38,3.0,2-5,other
15264,75,74,148,146,3.0,2-5,other
15265,75,4,160,345,5.0,1-1,other
15266,65,71,675,35,5.0,1-1,other
15267,73,85,170,374,1.0,2-5,other
15268,73,66,184,776,3.0,2-1,other
15269,51,41,1095,968,0.0,2-2,other
15270,89,52,58,125,0.0,2-2,other
15271,90,75,70,55,0.0,2-2,other
15272,89,60,36,60,0.0,2-2,other
15273,88,68,36,39,0.0,2-2,other
15274,84,63,20,120,9.0,3-10,diminished
15275,81,55,20,64,9.0,3-10,diminished
15276,78,63,64,67,9.0,3-10,diminished
15277,77,63,26,61,9.0,3-10,diminished
15278,76,50,20,61,9.0,3-10,diminished
15279,75,49,40,64,9.0,3-10,diminished
15280,69,53,20,86,9.0,2-3,minor
15281,66,56,27,41,9.0,2-3,minor
15282,65,59,19,32,9.0,2-3,minor
15283,64,43,29,40,9.0,2-3,minor
15284,63,43,11,35,9.0,2-3,minor
15285,62,49,26,33,9.0,2-3,minor
15286,61,58,186,38,9.0,2-3,minor
15287,46,56,98,102,9.0,2-3,minor
15288,57,57,190,177,9.0,2-3,minor
15289,58,62,337,199,9.0,2-3,minor
15290,60,60,75,211,9.0,2-3,minor
15291,61,55,269,220,9.0,2-3,minor
15292,50,38,524,360,10.0,2-4,major
15293,65,62,109,211,10.0,2-4,major
15294,51,49,255,1535,0.0,3-11B,other
15295,75,63,101,368,0.0,3-11B,other
15296,39,31,29,210,3.0,2-4,major
15297,63,1,68,241,1.0,1-1,other
15298,68,63,144,504,10.0,1-1,other
15299,51,33,677,618,8.0,2-3,minor
15300,72,75,104,728,3.0,2-4,major
15301,68,81,60,581,5.0,2-4,other
15302,76,90,183,973,3.0,2-1,other
15303,72,80,89,343,1.0,2-1,other
15304,70,74,121,126,1.0,2-1,other
15305,64,48,43,191,0.0,2-5,other
15306,61,61,63,62,0.0,2-5,other
15307,60,60,67,79,0.0,2-5,other
15308,58,60,81,71,0.0,2-5,other
15309,41,31,159,122,9.0,2-6,other
15310,54,55,164,159,9.0,2-6,other
15311,57,62,19,376,5.0,2-2,other
15312,57,18,59,245,5.0,3-11B,major
15313,61,1,90,594,9.0,2-4,major
15314,58,70,407,314,5.0,3-4A,other
15315,57,46,187,381,5.0,2-4,other
15316,70,20,54,121,5.0,2-4,other
15317,50,21,106,267,8.0,3-10,other
15318,51,48,255,1558,0.0,3-11B,other
15319,51,55,55,358,5.0,3-11A,other
15320,60,60,96,416,3.0,3-3A,major
15321,61,68,124,124,3.0,3-3A,major
15322,58,39,456,33,3.0,3-3A,major
15323,63,66,49,57,3.0,3-3A,major
15324,65,69,38,67,3.0,3-3A,major
15325,67,74,36,50,3.0,3-3A,major
15326,68,77,51,47,3.0,3-3A,major
15327,72,72,32,85,10.0,3-11A,other
15328,73,72,44,40,10.0,3-11A,other
15329,75,67,25,41,10.0,3-11A,other
15330,77,78,43,59,10.0,3-11A,other
15331,79,76,53,61,10.0,3-11A,other
15332,80,75,58,79,10.0,3-11A,other
15333,82,72,67,75,10.0,3-11A,other
15334,56,39,284,704,0.0,2-5,other
15335,70,63,35,0,5.0,5-26B,other
15336,70,97,18,479,7.0,2-3,minor
15337,72,102,26,49,7.0,2-3,minor
15338,58,64,87,127,4.0,4-27A,diminished
15339,62,61,10,64,4.0,4-27A,diminished
15340,79,76,11,58,4.0,4-27A,diminished
15341,77,63,36,126,7.0,4-23,minor
15342,72,77,29,473,3.0,3-12,augmented
15343,79,72,40,246,0.0,3-11A,minor
15344,79,57,8,59,0.0,3-11A,minor
15345,82,58,11,36,0.0,3-11A,minor
15346,57,47,157,151,9.0,2-4,major
15347,79,87,29,112,9.0,2-4,major
15348,54,56,196,132,6.0,2-6,other
15349,80,72,7,131,2.0,3-11B,major
15350,55,59,215,75,7.0,2-4,major
15351,77,41,24,151,11.0,2-6,other
15352,55,55,161,109,4.0,2-6,other
15353,79,75,14,127,0.0,3-8A,major
15354,53,74,315,111,5.0,2-4,major
15355,75,87,18,104,5.0,3-8A,major
15356,77,66,30,241,8.0,3-8A,other
15357,69,69,47,436,1.0,4-23,other
15358,66,60,86,483,10.0,5-33,augmented
15359,37,70,40,433,4.0,2-3,minor
15360,38,41,65,48,4.0,2-3,minor
15361,32,68,33,69,4.0,2-3,minor
15362,31,55,243,44,4.0,2-3,minor
15363,38,59,16,73,4.0,2-3,minor
15364,50,74,34,357,5.0,4-22A,major
15365,43,58,73,47,5.0,4-22A,major
15366,53,73,40,199,10.0,4-19B,augmented
15367,74,72,26,167,4.0,3-8B,other
15368,50,104,35,558,2.0,4-12A,major
15369,43,65,115,47,2.0,4-12A,major
15370,50,48,46,72,2.0,4-12A,major
15371,72,65,16,121,7.0,3-11A,minor
15372,67,50,17,310,0.0,4-23,minor
15373,69,54,18,34,0.0,4-23,minor
15374,74,85,23,28,0.0,4-23,minor
15375,65,67,35,77,9.0,4-27A,diminished
15376,69,64,22,41,9.0,4-27A,diminished
15377,46,71,185,77,2.0,3-11A,minor
15378,55,64,13,152,8.0,2-2,other
15379,46,78,98,126,3.0,2-1,other
15380,48,69,58,161,0.0,3-11A,minor
15381,89,6,23,422,2.0,4-15A,minor
15382,50,73,49,146,6.0,4-15A,other
15383,47,68,31,348,11.0,3-10,diminished
15384,60,39,83,173,1.0,2-1,other
15385,63,1,187,389,10.0,3-6,major
15386,59,78,72,37,10.0,3-6,major
15387,39,78,171,163,10.0,1-1,other
15388,46,12,60,110,3.0,3-9,other
15389,62,70,82,39,3.0,3-9,other
15390,55,48,39,169,9.0,2-4,major
15391,81,80,12,211,7.0,6-41B,other
15392,77,68,10,39,7.0,6-41B,other
15393,73,62,10,37,7.0,6-41B,other
15394,72,53,22,42,7.0,6-41B,other
15395,70,64,31,39,7.0,6-41B,other
15396,70,93,23,78,6.0,4-27A,diminished
15397,72,113,28,36,6.0,4-27A,diminished
15398,69,67,33,39,6.0,4-27A,diminished
15399,65,51,28,42,6.0,4-27A,diminished
15400,43,72,394,36,6.0,4-27A,diminished
15401,49,45,27,90,10.0,3-4A,major
15402,50,55,30,155,7.0,4-26,minor
15403,48,62,27,122,10.0,3-11B,major
15404,86,91,21,830,3.0,1-1,other
15405,52,65,9,84,0.0,4-24,augmented
15406,58,72,28,40,0.0,4-24,augmented
15407,74,82,69,85,0.0,3-12,augmented
15408,41,73,162,81,0.0,3-12,augmented
15409,65,81,23,165,0.0,4-22B,minor
15410,67,80,28,33,0.0,4-22B,minor
15411,75,78,9,235,2.0,5-16A,other
15412,53,66,33,81,10.0,3-12,augmented
15413,54,69,53,41,10.0,3-12,augmented
15414,55,72,59,82,2.0,2-4,major
15415,50,75,106,122,2.0,4-27B,major
15416,54,57,37,151,6.0,5-28B,diminished
15417,43,70,15,87,7.0,3-11A,minor
15418,79,11,58,487,6.0,3-7A,minor
15419,79,64,13,150,9.0,3-11A,minor
15420,81,80,32,240,2.0,3-5B,other
15421,78,77,37,211,0.0,5-30B,other
15422,57,61,25,382,2.0,3-11B,major
15423,69,45,34,62,2.0,3-11B,major
15424,62,52,12,55,2.0,3-11B,major
15425,62,71,37,114,3.0,4-20,major
15426,62,73,35,59,3.0,4-20,major
15427,62,58,20,61,3.0,4-20,major
15428,62,61,31,181,3.0,4-16A,major
15429,74,56,26,186,0.0,5-28A,other
15430,72,56,19,115,2.0,1-1,other
15431,27,58,21,657,5.0,5-26B,other
15432,70,65,20,39,5.0,5-26B,other
15433,63,66,95,202,9.0,5-35,minor
15434,68,6,58,58,9.0,5-35,minor
15435,70,84,21,121,7.0,3-11A,minor
15436,72,75,12,117,0.0,2-5,other
15437,55,63,37,109,10.0,3-6,major
15438,64,67,10,35,10.0,3-6,major
15439,79,100,37,46,10.0,3-6,major
15440,73,84,50,177,3.0,5-27A,major
15441,75,74,19,116,0.0,2-3,minor
15442,53,60,59,121,10.0,3-4A,major
15443,58,76,84,220,3.0,4-16A,major
15444,79,67,23,570,6.0,5-25B,minor
15445,57,41,78,172,2.0,2-4,major
15446,63,85,37,243,4.0,4-29A,minor
15447,62,72,38,111,3.0,3-8B,other
15448,43,55,61,117,1.0,4-12A,minor
15449,67,47,44,126,0.0,3-8A,major
15450,74,72,14,714,3.0,1-1,other
15451,52,32,96,130,9.0,3-8A,major
15452,61,63,58,236,9.0,5-29B,diminished
15453,60,50,69,59,9.0,5-29B,diminished
15454,71,68,16,57,9.0,5-29B,diminished
15455,26,60,4,116,10.0,5-33,augmented
15456,66,51,40,69,10.0,5-33,augmented
15457,43,56,132,118,10.0,5-33,augmented
15458,50,37,25,72,10.0,5-33,augmented
15459,38,66,31,374,0.0,4-22A,major
15460,31,65,455,41,0.0,4-22A,major
15461,38,45,21,69,0.0,4-22A,major
15462,67,75,7,0,7.0,4-14A,minor
15463,67,64,11,44,7.0,4-14A,minor
15464,69,88,28,38,7.0,4-14A,minor
15465,70,69,93,36,7.0,4-14A,minor
15466,74,67,17,174,4.0,3-8B,other
15467,81,105,24,36,4.0,3-8B,other
15468,84,74,24,79,7.0,5-29B,minor
15469,82,72,106,36,7.0,5-29B,minor
15470,81,67,32,92,5.0,3-4A,other
15471,79,69,45,34,5.0,3-4A,other
15472,75,78,87,112,6.0,3-8B,other
15473,74,65,28,97,0.0,2-4,major
15474,69,28,29,142,0.0,2-2,other
15475,74,82,19,60,10.0,2-4,major
15476,81,84,22,86,7.0,2-1,other
15477,38,72,8,1611,2.0,2-1,other
15478,44,77,32,39,2.0,2-1,other
15479,36,82,19,323,0.0,3-8A,major
15480,74,82,18,892,5.0,2-2,other
15481,73,71,195,41,5.0,2-2,other
15482,69,59,35,193,1.0,3-10,diminished
15483,84,101,20,190,5.0,3-4A,other
15484,85,98,22,26,5.0,3-4A,other
15485,84,95,22,33,5.0,3-4A,other
15486,81,74,17,63,0.0,4-25,major
15487,78,79,23,28,0.0,4-25,major
15488,78,91,14,117,5.0,2-1,other
15489,74,76,26,83,3.0,5-20B,major
15490,70,66,41,44,3.0,5-20B,major
15491,67,75,15,115,7.0,3-11A,minor
15492,42,55,11,215,0.0,3-11B,major
15493,43,45,19,165,7.0,4-26,minor
15494,43,62,35,228,5.0,3-11B,major
15495,70,74,34,366,2.0,2-5,other
15496,69,73,31,125,4.0,5-29B,diminished
15497,74,76,18,78,10.0,3-4A,major
15498,77,116,21,34,10.0,3-4A,major
15499,82,104,22,72,9.0,4-27A,diminished
15500,82,69,27,134,9.0,2-3,minor
15501,84,69,25,32,9.0,2-3,minor
15502,78,57,40,118,6.0,4-27A,diminished
15503,75,65,30,84,6.0,2-1,other
15504,74,63,189,42,6.0,2-1,other
15505,79,115,39,249,7.0,3-11A,minor
15506,82,95,32,64,4.0,5-15,other
15507,79,80,46,45,4.0,5-15,other
15508,74,66,34,105,10.0,2-4,major
15509,70,79,67,35,10.0,2-4,major
15510,69,77,91,76,3.0,4-20,major
15511,74,72,230,159,3.0,1-1,other
15512,75,87,21,395,10.0,3-11B,major
15513,77,77,24,76,10.0,3-11B,major
15514,79,120,35,596,5.0,3-5B,other
15515,74,62,30,92,6.0,3-5B,other
15516,77,98,96,42,6.0,3-5B,other
15517,75,76,27,75,4.0,3-5B,other
15518,74,98,23,48,4.0,3-5B,other
15519,67,72,108,96,4.0,3-5A,other
15520,62,47,35,149,5.0,3-11A,other
15521,64,61,26,75,3.0,2-5,other
15522,67,79,14,36,3.0,2-5,other
15523,38,69,20,348,10.0,3-11B,major
15524,69,56,65,654,6.0,6-19A,other
15525,49,79,43,189,7.0,4-27A,minor
15526,38,81,32,122,2.0,5-31B,major
15527,66,71,18,39,2.0,5-31B,major
15528,56,47,30,151,10.0,2-1,other
15529,49,51,21,286,7.0,3-11A,minor
15530,86,59,14,718,5.0,2-2,other
15531,89,96,18,62,3.0,1-1,other
15532,87,79,18,35,3.0,1-1,other
15533,84,74,11,31,3.0,1-1,other
15534,76,61,14,155,3.0,3-5B,other
15535,80,85,17,38,3.0,3-5B,other
15536,84,114,22,38,3.0,3-5B,other
15537,72,55,21,84,0.0,4-23,minor
15538,78,64,18,750,0.0,4-25,major
15539,75,70,17,93,6.0,4-5B,other
15540,74,39,20,26,6.0,4-5B,other
15541,55,31,54,63,10.0,3-11B,major
15542,69,90,17,382,4.0,4-27A,diminished
15543,70,85,20,31,4.0,4-27A,diminished
15544,72,71,19,30,4.0,4-27A,diminished
15545,57,65,29,344,11.0,2-5,other
15546,57,70,14,45,11.0,2-5,other
15547,81,95,16,73,11.0,2-5,other
15548,58,42,6,49,11.0,2-5,other
15549,61,53,9,427,5.0,4-24,augmented
15550,62,62,24,86,2.0,3-11B,major
15551,62,62,24,77,2.0,3-11B,major
15552,62,82,45,80,2.0,3-11B,major
15553,62,111,59,162,3.0,4-20,major
15554,62,95,49,79,3.0,4-20,major
15555,62,72,21,76,3.0,4-20,major
15556,62,75,46,91,3.0,4-20,major
15557,50,56,34,319,3.0,3-5A,other
15558,43,65,15,40,3.0,3-5A,other
15559,67,64,26,42,3.0,3-5A,other
15560,69,72,36,35,3.0,3-5A,other
15561,74,85,21,79,7.0,3-11A,minor
15562,78,119,24,37,7.0,3-11A,minor
15563,81,100,24,79,4.0,4-27A,diminished
15564,78,81,31,39,4.0,4-27A,diminished
15565,70,64,80,80,10.0,2-4,major
15566,70,69,28,126,5.0,5-30B,other
15567,72,93,36,40,5.0,5-30B,other
15568,70,66,26,80,5.0,4-19B,other
15569,72,77,44,37,5.0,4-19B,other
15570,66,67,13,94,6.0,4-27A,diminished
15571,82,68,17,165,9.0,2-3,minor
15572,52,55,213,278,7.0,3-11A,minor
15573,56,77,37,551,7.0,5-27B,minor
15574,55,60,52,52,7.0,5-27B,minor
15575,46,72,9,59,7.0,5-27B,minor
15576,46,73,27,476,7.0,3-9,other
15577,45,58,81,49,7.0,3-9,other
15578,66,78,9,128,3.0,2-1,other
15579,66,77,12,152,2.0,3-7B,other
15580,65,95,34,59,2.0,3-7B,other
15581,62,69,42,84,0.0,2-3,minor
15582,60,53,30,38,0.0,2-3,minor
15583,62,65,12,182,11.0,2-6,other
15584,67,66,16,28,11.0,2-6,other
15585,74,101,22,28,11.0,2-6,other
15586,67,48,11,75,0.0,4-21,major
15587,75,112,37,390,9.0,2-6,other
15588,67,60,14,88,7.0,3-5B,other
15589,84,11,14,361,2.0,5-35,minor
15590,68,65,17,219,1.0,2-6,other
15591,69,69,21,29,1.0,2-6,other
15592,72,104,20,232,6.0,3-8B,other
15593,70,95,18,226,9.0,2-3,minor
15594,67,79,17,30,9.0,2-3,minor
15595,58,48,46,91,0.0,2-5,other
15596,57,63,27,56,0.0,2-5,other
15597,50,53,11,340,7.0,3-11A,minor
15598,72,84,12,971,3.0,3-5B,other
15599,61,65,23,107,3.0,3-4A,major
15600,65,76,14,119,9.0,4-27A,diminished
15601,57,56,84,413,8.0,5-38B,other
15602,65,80,32,73,8.0,5-38B,other
15603,68,79,66,78,2.0,3-8A,major
15604,65,78,17,111,6.0,2-6,other
15605,63,36,29,28,6.0,2-6,other
15606,55,14,22,63,0.0,3-9,other
15607,62,56,46,57,3.0,2-1,other
15608,55,53,31,59,10.0,2-4,major
15609,55,76,37,42,10.0,2-4,major
15610,55,77,29,166,4.0,2-3,minor
15611,62,61,21,76,11.0,2-1,other
15612,69,85,23,39,11.0,2-1,other
15613,60,49,53,174,6.0,4-27A,diminished
15614,69,95,33,39,6.0,4-27A,diminished
15615,67,87,20,36,6.0,4-27A,diminished
15616,67,19,68,84,11.0,3-7B,other
15617,54,36,48,34,11.0,3-7B,other
15618,62,54,24,760,2.0,3-11B,major
15619,62,81,42,63,2.0,3-11B,major
15620,62,58,22,177,3.0,4-20,major
15621,62,59,18,67,3.0,4-20,major
15622,62,51,51,167,3.0,4-16A,major
15623,50,60,20,163,0.0,4-27B,other
15624,50,63,19,72,0.0,4-27B,other
15625,43,90,18,76,0.0,4-27B,other
15626,80,11,34,274,4.0,3-8B,other
15627,94,100,24,298,7.0,6-18A,minor
15628,89,78,24,31,7.0,6-18A,minor
15629,82,77,21,90,5.0,3-4A,other
15630,81,51,26,33,5.0,3-4A,other
15631,84,77,27,60,0.0,4-29B,major
15632,81,50,12,43,0.0,4-29B,major
15633,54,73,29,137,6.0,3-8B,other
15634,67,63,18,125,10.0,4-20,major
15635,72,73,41,78,10.0,2-4,major
15636,74,64,8,51,10.0,2-4,major
15637,64,70,9,229,4.0,4-27A,diminished
15638,53,64,36,237,0.0,4-23,minor
15639,45,55,61,894,6.0,5-25B,minor
15640,38,72,9,194,2.0,3-8A,major
15641,44,61,27,122,6.0,5-29A,minor
15642,64,43,30,69,3.0,4-24,augmented
15643,50,37,38,46,3.0,4-24,augmented
15644,43,47,32,115,11.0,3-10,diminished
15645,50,86,37,119,0.0,3-8A,major
15646,48,77,33,84,4.0,3-10,diminished
15647,42,85,27,40,4.0,3-10,diminished
15648,48,50,49,123,2.0,4-19A,minor
15649,46,37,18,133,9.0,2-6,other
15650,34,75,10,95,10.0,2-4,major
15651,50,79,25,724,9.0,5-29B,diminished
15652,50,75,103,50,9.0,5-29B,diminished
15653,50,53,19,235,10.0,4-24,augmented
15654,66,58,23,74,10.0,4-24,augmented
15655,43,56,313,109,7.0,2-3,minor
15656,58,75,54,118,2.0,2-5,other
15657,65,70,16,124,2.0,1-1,other
15658,66,56,29,61,2.0,1-1,other
15659,72,56,12,558,4.0,2-3,minor
15660,50,52,371,147,5.0,3-6,major
15661,58,46,65,133,10.0,3-4A,major
15662,62,49,71,66,10.0,3-4A,major
15663,69,44,59,70,10.0,3-4A,major
15664,70,25,390,0,8.0,1-1,other
15665,63,61,1830,570,8.0,1-1,other
15666,51,46,1950,30,8.0,1-1,other
15667,65,50,720,1830,8.0,1-1,other
15668,53,37,110,80,8.0,1-1,other
15669,65,39,570,3210,3.0,3-12,augmented
15670,71,23,410,1210,3.0,3-6,major
15671,75,38,440,1090,3.0,3-6,major
15672,79,37,420,60,11.0,2-6,other
15673,46,48,390,5140,3.0,4-24,augmented
15674,79,49,1140,1440,3.0,4-24,augmented
15675,74,48,1250,30,3.0,4-24,augmented
15676,67,41,940,70,8.0,2-3,minor
15677,55,56,2160,8540,3.0,3-12,augmented
15678,74,68,340,2040,3.0,3-12,augmented
15679,59,40,300,80,8.0,3-10,minor
15680,68,44,3570,3160,0.0,2-3,minor
15681,74,58,590,2770,11.0,2-3,minor
15682,62,36,170,40,11.0,2-3,minor
15683,24,39,310,2700,0.0,2-3,minor
15684,61,22,110,3330,2.0,3-9,other
15685,65,63,430,390,2.0,3-9,other
15686,60,51,340,1060,4.0,4-26,minor
15687,63,46,530,980,4.0,4-26,minor
15688,65,47,480,1090,10.0,2-4,major
15689,61,46,510,980,9.0,2-3,minor
15690,64,39,430,110,8.0,2-3,minor
15691,57,23,220,70,8.0,2-3,minor
15692,56,45,1150,2770,0.0,2-5,other
15693,41,43,1240,60,5.0,3-7B,other
15694,48,25,150,90,5.0,3-7B,other
15695,60,32,260,1230,0.0,4-26,other
15696,54,45,90,1470,5.0,2-5,other
15697,51,31,150,40,5.0,2-5,other
15698,53,64,180,70,5.0,2-5,other
15699,51,48,1130,2630,0.0,3-11B,other
15700,60,31,550,100,3.0,2-5,other
15701,60,46,650,1160,0.0,2-4,other
15702,22,57,640,1570,0.0,2-4,other
15703,60,42,570,2330,0.0,3-7A,minor
15704,68,61,620,1120,0.0,3-7A,minor
15705,60,39,520,1370,3.0,3-9,other
15706,84,33,420,40,3.0,3-9,other
15707,84,33,410,1280,3.0,3-9,other
15708,60,24,390,50,3.0,3-9,other
15709,58,36,400,1090,3.0,2-5,other
15710,63,39,250,30,3.0,2-5,other
15711,84,22,2630,150,3.0,2-5,other
15712,22,60,630,2380,3.0,2-5,other
15713,56,46,360,2220,3.0,2-5,other
15714,58,47,100,310,3.0,2-5,other
15715,59,52,230,180,3.0,2-5,other
15716,62,57,280,190,3.0,2-5,other
15717,64,52,170,180,3.0,2-5,other
15718,67,41,90,180,3.0,2-5,other
15719,68,60,270,50,3.0,2-5,other
15720,70,55,160,100,3.0,2-5,other
15721,71,49,140,150,3.0,2-5,other
15722,74,61,220,210,3.0,2-5,other
15723,76,52,160,110,3.0,2-5,other
15724,79,57,70,160,3.0,2-5,other
15725,80,55,210,110,3.0,2-5,other
15726,83,39,180,230,3.0,2-5,other
15727,86,55,200,170,3.0,2-5,other
15728,88,42,140,120,3.0,2-5,other
15729,91,60,70,140,3.0,2-5,other
15730,95,52,130,440,3.0,2-5,other
15731,98,57,1340,170,3.0,2-5,other
15732,100,56,1200,100,3.0,2-5,other
15733,103,68,840,270,3.0,2-5,other
15734,82,82,1340,3750,3.0,2-5,other
15735,56,48,450,6360,7.0,2-3,minor
15736,53,33,740,2060,11.0,2-3,minor
15737,71,66,130,680,11.0,2-3,minor
15738,74,107,340,620,11.0,2-3,minor
15739,77,96,380,410,11.0,2-3,minor
15740,75,75,780,430,8.0,2-1,other
15741,67,58,410,580,8.0,2-1,other
15742,63,44,370,1260,7.0,2-3,minor
15743,60,40,330,70,7.0,2-3,minor
15744,54,41,660,1970,9.0,2-3,minor
15745,45,31,420,70,9.0,2-3,minor
15746,65,46,200,2840,6.0,3-10,minor
15747,67,59,260,560,6.0,3-10,minor
15748,69,71,260,320,6.0,3-10,minor
15749,65,45,700,440,10.0,1-1,other
15750,62,23,650,30,10.0,1-1,other
15751,46,48,360,2660,8.0,3-10,other
15752,46,54,320,650,8.0,3-10,other
15753,47,43,390,690,8.0,3-10,diminished
15754,58,26,160,1840,8.0,4-28,diminished
15755,60,47,70,190,8.0,4-28,diminished
15756,68,55,250,1280,8.0,3-10,other
15757,59,53,560,30,8.0,3-10,other
15758,74,48,200,40,8.0,3-10,other
15759,67,45,690,680,0.0,2-3,minor
15760,70,48,590,30,0.0,2-3,minor
15761,48,39,100,620,0.0,2-3,minor
15762,62,45,770,680,0.0,2-3,minor
15763,60,39,1210,790,3.0,2-4,major
15764,63,40,1340,2000,3.0,2-4,major
15765,46,73,940,1230,7.0,1-1,other
15766,67,49,460,920,3.0,2-4,major
15767,74,81,220,1230,0.0,3-11A,minor
15768,75,62,400,700,0.0,3-11A,minor
15769,45,45,350,30,0.0,3-11A,minor
15770,87,67,1310,1310,0.0,3-11A,minor
15771,63,41,330,660,0.0,3-11A,minor
15772,57,30,310,120,3.0,2-4,major
15773,75,41,1210,600,3.0,2-4,major
15774,87,56,420,670,3.0,2-4,major
15775,86,46,1020,730,2.0,1-1,other
15776,60,43,1020,2200,6.0,2-1,other
15777,62,22,2650,2200,10.0,2-1,other
15778,54,66,630,1240,0.0,1-1,other
15779,86,71,580,800,0.0,1-1,other
15780,74,57,710,30,0.0,1-1,other
15781,53,45,1610,30,0.0,1-1,other
15782,53,49,3080,2160,10.0,2-4,major
15783,58,41,870,2160,10.0,2-4,major
15784,62,55,330,30,10.0,2-4,major
15785,62,57,220,520,10.0,2-4,major
15786,67,81,380,430,10.0,2-4,major
15787,69,92,280,480,10.0,2-4,major
15788,52,46,2830,580,10.0,3-4A,major
15789,72,54,270,600,10.0,3-4A,major
15790,70,55,270,240,10.0,3-4A,major
15791,69,49,230,300,10.0,3-4A,major
15792,70,76,310,360,10.0,3-4A,major
15793,72,69,320,360,10.0,3-4A,major
15794,57,18,790,90,10.0,3-4A,major
15795,58,41,770,30,10.0,3-4A,major
15796,62,30,670,30,10.0,3-4A,major
15797,70,60,2540,280,10.0,3-4A,major
15798,61,49,940,1820,10.0,3-4A,major
15799,57,66,560,2960,9.0,3-3A,major
15800,58,58,320,570,9.0,3-3A,major
15801,65,48,600,800,0.0,4-26,other
15802,41,55,600,650,0.0,4-26,other
15803,48,75,1220,660,0.0,4-26,other
15804,56,54,310,1430,0.0,4-26,other
15805,60,55,180,620,0.0,4-26,other
15806,53,36,2370,770,4.0,5-28A,other
15807,46,39,110,3560,8.0,4-27B,other
15808,39,44,610,830,7.0,2-5,other
15809,46,49,90,700,7.0,2-5,other
15810,67,48,160,2650,5.0,3-9,other
15811,74,47,210,440,5.0,3-9,other
15812,79,86,280,390,5.0,3-9,other
15813,43,61,580,350,5.0,3-9,other
15814,82,87,940,180,5.0,3-9,other
15815,80,66,330,580,5.0,3-9,other
15816,75,65,200,330,5.0,3-9,other
15817,71,57,200,270,5.0,3-9,other
15818,70,43,110,280,5.0,3-9,other
15819,69,39,160,250,5.0,3-9,other
15820,68,57,360,210,5.0,3-9,other
15821,53,42,1190,190,3.0,2-4,other
15822,67,55,900,210,3.0,2-4,other
15823,65,60,520,1140,3.0,2-4,other
15824,62,47,550,530,3.0,2-4,other
15825,63,57,4220,550,3.0,2-4,other
15826,44,54,320,590,3.0,2-4,other
15827,50,57,650,740,3.0,2-4,other
15828,51,51,2150,710,3.0,2-4,other
15829,60,54,1580,30,3.0,2-4,other
15830,55,20,740,100,3.0,2-4,other
15831,53,66,740,690,3.0,2-4,other
15832,46,66,530,700,3.0,2-4,other
15833,45,49,3450,730,9.0,2-3,minor
15834,63,17,530,1640,6.0,3-5B,other
15835,68,81,220,1800,7.0,2-1,other
15836,62,48,830,750,10.0,1-1,other
15837,65,36,780,60,10.0,1-1,other
15838,70,55,2020,590,10.0,1-1,other
15839,58,48,190,700,10.0,1-1,other
15840,62,45,550,60,10.0,1-1,other
15841,58,53,1330,590,10.0,1-1,other
15842,53,1,1690,130,10.0,1-1,other
15843,46,56,750,530,10.0,1-1,other
15844,77,56,250,2230,11.0,2-6,other
15845,71,57,850,2300,8.0,2-3,other
15846,86,68,210,780,8.0,2-3,other
15847,68,38,250,60,8.0,2-3,other
15848,86,83,740,900,3.0,2-4,major
15849,75,57,200,480,3.0,2-4,major
15850,55,48,130,570,3.0,2-4,major
15851,63,42,1050,600,3.0,2-4,major
15852,60,47,360,630,7.0,2-5,other
15853,46,37,1160,1400,3.0,3-4A,major
15854,46,56,1810,1320,3.0,3-4A,major
15855,67,66,330,760,3.0,3-4A,major
15856,72,83,270,620,3.0,3-4A,major
15857,74,87,180,610,3.0,3-4A,major
15858,81,76,860,760,2.0,2-5,other
15859,75,51,310,670,2.0,2-5,other
15860,74,52,220,220,2.0,2-5,other
15861,72,48,140,290,2.0,2-5,other
15862,75,68,280,710,2.0,2-5,other
15863,26,51,380,2440,9.0,1-1,other
15864,65,61,410,3000,6.0,2-6,other
15865,70,63,220,720,6.0,2-6,other
15866,72,66,210,380,6.0,2-6,other
15867,61,46,1770,550,5.0,2-4,other
15868,55,40,310,510,5.0,2-4,other
15869,56,56,680,730,5.0,2-4,other
15870,61,45,1290,700,5.0,2-4,other
15871,59,54,590,760,10.0,2-5,other
15872,68,1,580,110,10.0,2-5,other
15873,60,43,580,1210,4.0,2-3,minor
15874,48,41,2330,700,4.0,2-3,minor
15875,64,48,810,1410,0.0,2-2,other
15876,72,66,110,1210,0.0,2-2,other
15877,63,43,620,900,3.0,3-7A,other
15878,60,39,420,40,3.0,3-7A,other
15879,60,42,410,2050,0.0,4-26,other
15880,66,54,840,2040,0.0,4-26,other
15881,68,58,370,720,8.0,3-8A,other
15882,70,65,270,480,8.0,3-8A,other
15883,72,67,290,430,8.0,3-8A,other
15884,76,53,270,1080,8.0,2-6,other
15885,78,65,180,380,8.0,2-6,other
15886,80,67,190,300,8.0,2-6,other
15887,82,68,270,320,8.0,2-6,other
15888,84,75,910,330,8.0,2-6,other
15889,83,63,830,800,8.0,2-6,other
15890,82,82,1510,780,8.0,2-6,other
15891,43,63,90,640,8.0,2-6,other
15892,82,57,340,1330,10.0,2-4,other
15893,83,63,330,440,10.0,2-4,other
15894,44,45,1310,520,0.0,1-1,other
15895,52,31,300,710,0.0,1-1,other
15896,53,43,790,560,0.0,1-1,other
15897,56,43,1490,860,5.0,2-2,other
15898,60,41,70,1320,5.0,2-2,other
15899,67,44,190,790,5.0,2-2,other
15900,55,38,540,60,9.0,2-3,minor
15901,38,74,390,4440,3.0,2-5,other
15902,60,48,1630,1600,10.0,5-21B,other
15903,84,61,510,1860,10.0,5-21B,other
15904,82,48,270,650,10.0,5-21B,other
15905,84,49,270,380,10.0,5-21B,other
15906,43,42,290,400,10.0,5-21B,other
15907,84,1,450,1150,2.0,1-1,other
15908,43,40,720,2500,7.0,2-3,minor
15909,36,48,440,770,7.0,2-3,minor
15910,52,35,630,50,7.0,2-3,minor
15911,84,40,210,320,7.0,2-3,minor
15912,85,73,230,190,7.0,2-3,minor
15913,83,61,90,290,7.0,2-3,minor
15914,82,60,270,160,7.0,2-3,minor
15915,79,66,100,260,7.0,2-3,minor
15916,76,54,70,220,7.0,2-3,minor
15917,73,56,180,260,7.0,2-3,minor
15918,72,57,180,180,7.0,2-3,minor
15919,71,55,90,250,7.0,2-3,minor
15920,58,29,1560,180,7.0,2-3,minor
15921,67,41,320,1350,0.0,3-8A,major
15922,64,51,360,420,0.0,3-8A,major
15923,61,50,480,390,0.0,3-8A,major
15924,60,55,710,500,0.0,3-8A,major
15925,41,32,740,250,0.0,3-8A,major
15926,55,61,920,950,0.0,4-20,other
15927,56,46,430,970,0.0,1-1,other
15928,51,54,650,580,0.0,1-1,other
15929,63,57,500,70,0.0,1-1,other
15930,73,45,100,3770,10.0,3-12,augmented
15931,71,53,220,1370,3.0,2-5,other
15932,62,14,170,110,3.0,2-5,other
15933,65,42,250,3010,7.0,2-3,minor
15934,60,28,150,40,7.0,2-3,minor
15935,67,53,230,730,10.0,2-5,other
15936,67,72,310,1350,3.0,2-5,other
15937,70,52,450,700,3.0,3-4A,major
15938,67,38,210,670,3.0,2-5,other
15939,60,52,510,720,0.0,2-5,other
15940,67,26,370,1430,3.0,2-1,other
15941,56,45,420,2700,2.0,3-7A,minor
15942,60,31,200,30,2.0,3-7A,minor
15943,68,40,210,380,2.0,3-7A,minor
15944,70,63,320,300,2.0,3-7A,minor
15945,68,56,310,250,2.0,3-7A,minor
15946,67,54,160,340,2.0,3-7A,minor
15947,68,49,280,210,2.0,3-7A,minor
15948,69,58,210,310,2.0,3-7A,minor
15949,43,42,550,240,2.0,3-7A,minor
15950,70,63,1720,50,2.0,3-7A,minor
15951,59,37,640,60,2.0,3-7A,minor
15952,68,68,720,1100,2.0,3-7A,minor
15953,63,43,620,790,2.0,3-7A,minor
15954,65,43,480,1450,7.0,3-8A,major
15955,55,33,300,760,0.0,2-2,other
15956,54,54,590,640,0.0,2-2,other
15957,55,73,1010,680,0.0,2-2,other
15958,56,78,370,1450,3.0,2-5,other
15959,55,22,120,290,3.0,2-5,other
15960,55,72,560,370,3.0,2-5,other
15961,46,63,3890,760,3.0,3-11B,major
15962,67,78,280,760,3.0,3-11B,major
15963,72,122,410,640,3.0,3-11B,major
15964,75,99,350,1350,7.0,2-5,other
15965,74,122,530,710,7.0,2-5,other
15966,45,56,470,720,3.0,2-4,major
15967,81,48,1000,60,3.0,2-4,major
15968,74,73,540,620,3.0,2-4,major
15969,75,75,610,670,3.0,2-4,major
15970,81,69,510,30,3.0,2-4,major
15971,55,39,680,660,2.0,3-5B,other
15972,75,62,720,720,9.0,2-3,minor
15973,74,60,590,640,9.0,2-3,minor
15974,75,55,190,590,9.0,2-3,minor
15975,77,55,1260,470,2.0,2-2,other
15976,75,56,1340,770,2.0,2-2,other
15977,74,62,590,1710,5.0,3-5B,other
15978,72,55,570,630,5.0,3-5B,other
15979,62,36,730,680,7.0,2-3,minor
15980,67,57,560,660,7.0,2-3,minor
15981,70,56,770,1450,7.0,2-3,minor
15982,74,67,160,1340,7.0,1-1,other
15983,60,46,740,870,0.0,3-11B,other
15984,58,55,170,730,0.0,3-11B,other
15985,67,48,700,1460,0.0,3-11B,other
15986,62,43,1030,30,0.0,3-11B,other
15987,46,38,920,30,0.0,3-11B,other
15988,56,31,650,40,0.0,3-11B,other
15989,53,39,720,40,0.0,3-11B,other
15990,66,49,440,1280,0.0,3-11B,other
15991,67,43,860,790,0.0,3-11B,other
15992,46,48,340,560,3.0,2-1,other
15993,55,47,520,520,3.0,2-1,other
15994,58,47,1860,460,3.0,2-1,other
15995,70,42,1350,660,5.0,1-1,other
15996,67,34,1270,30,5.0,1-1,other
15997,43,78,210,3140,11.0,2-6,other
15998,63,64,210,1710,4.0,2-2,other
15999,62,69,360,270,4.0,2-2,other
16000,59,57,570,310,8.0,4-28,diminished
16001,71,48,220,660,8.0,3-10,other
16002,44,58,2230,1050,3.0,2-4,major
16003,50,62,400,630,3.0,2-4,major
16004,44,52,380,1970,0.0,3-11A,minor
16005,60,41,280,860,9.0,1-1,other
16006,65,63,380,2130,9.0,1-1,other
16007,67,86,660,770,9.0,1-1,other
16008,68,68,420,810,9.0,1-1,other
16009,56,52,1070,1340,10.0,3-11B,major
16010,57,61,640,1520,10.0,3-11B,major
16011,58,63,570,1020,10.0,3-11B,major
16012,47,57,2090,1990,11.0,3-10,diminished
16013,56,64,1530,1000,11.0,3-10,diminished
16014,59,60,370,940,11.0,3-10,diminished
16015,60,53,100,4120,0.0,1-1,other
16016,75,81,320,2020,7.0,2-3,minor
16017,55,43,420,1920,3.0,2-4,major
16018,57,32,480,3430,0.0,2-5,other
16019,50,47,3050,1990,0.0,2-5,other
16020,60,33,1320,30,0.0,2-5,other
16021,65,48,180,1430,0.0,2-5,other
16022,58,47,280,830,10.0,2-5,other
16023,69,48,480,870,6.0,3-10,other
16024,54,48,610,580,6.0,3-10,other
16025,73,54,5230,640,6.0,3-10,other
16026,43,50,160,710,5.0,3-8B,other
16027,60,70,1490,690,5.0,3-8B,other
16028,61,41,1120,740,5.0,3-8B,other
16029,65,47,820,40,5.0,3-8B,other
16030,58,66,770,670,5.0,3-8B,other
16031,61,41,1130,680,5.0,3-8B,other
16032,65,52,900,50,5.0,3-8B,other
16033,56,66,1320,640,5.0,3-8B,other
16034,61,45,960,1440,5.0,2-4,other
16035,48,49,180,720,4.0,2-3,minor
16036,60,24,730,810,4.0,2-3,minor
16037,63,43,200,730,4.0,2-3,minor
16038,60,76,450,4030,0.0,2-3,minor
16039,63,76,440,530,0.0,2-3,minor
16040,65,71,490,570,0.0,2-3,minor
16041,46,46,840,890,8.0,3-8B,other
16042,66,42,1690,3760,10.0,2-4,other
16043,56,42,2350,30,10.0,2-4,other
16044,74,55,2400,2010,10.0,4-19B,augmented
16045,77,50,1210,1250,10.0,4-19B,augmented
16046,75,46,770,1960,10.0,4-19B,augmented
16047,39,37,460,70,10.0,4-19B,augmented
16048,46,41,480,680,10.0,4-19B,augmented
16049,62,39,260,650,10.0,4-19B,augmented
16050,55,43,610,60,10.0,4-19B,augmented
16051,77,56,520,600,10.0,4-19B,augmented
16052,58,43,2700,50,10.0,4-19B,augmented
16053,70,44,1760,710,10.0,4-19B,augmented
16054,67,34,490,30,10.0,4-19B,augmented
16055,62,39,470,40,10.0,4-19B,augmented
16056,67,39,840,1700,10.0,4-19B,augmented
16057,62,35,560,90,10.0,4-19B,augmented
16058,44,54,100,2320,8.0,4-27B,other
16059,77,58,100,1460,6.0,2-1,other
16060,60,43,910,70,6.0,2-1,other
16061,82,57,880,770,5.0,1-1,other
16062,86,47,610,800,5.0,1-1,other
16063,60,43,960,30,5.0,1-1,other
16064,77,32,230,1910,2.0,2-2,other
16065,82,12,430,30,2.0,2-2,other
16066,89,50,400,1270,2.0,2-2,other
16067,46,49,460,750,3.0,2-4,major
16068,55,42,480,660,3.0,2-4,major
16069,62,51,150,870,0.0,2-2,other
16070,65,56,200,350,0.0,2-2,other
16071,67,50,240,360,0.0,2-2,other
16072,69,40,160,380,0.0,2-2,other
16073,67,33,5870,130,0.0,2-2,other
16074,72,51,240,220,0.0,2-2,other
16075,74,54,140,320,0.0,2-2,other
16076,77,61,230,290,0.0,2-2,other
16077,79,62,230,250,0.0,2-2,other
16078,81,50,70,270,0.0,2-2,other
16079,86,68,170,450,0.0,2-1,other
16080,88,64,190,280,0.0,2-1,other
16081,89,57,120,950,0.0,2-1,other
16082,91,54,240,270,0.0,2-1,other
16083,93,54,120,330,0.0,2-1,other
16084,96,39,290,360,0.0,2-1,other
16085,98,53,350,420,0.0,2-1,other
16086,101,54,500,460,0.0,2-1,other
16087,103,42,530,570,0.0,2-1,other
16088,105,57,560,550,0.0,2-1,other
16089,105,57,670,790,0.0,2-1,other
16090,105,49,510,860,0.0,2-1,other
16091,46,58,144,0,,,
16092,39,49,676,196,,,
16093,50,39,176,1040,7.0,3-11A,minor
16094,67,36,100,1608,3.0,2-5,other
16095,70,57,132,172,3.0,2-5,other
16096,74,54,124,368,0.0,2-3,minor
16097,75,63,860,192,0.0,2-3,minor
16098,60,39,88,852,6.0,2-3,other
16099,77,64,132,224,6.0,2-3,other
16100,79,85,156,212,6.0,2-3,other
16101,82,81,116,328,0.0,3-11B,other
16102,82,70,104,168,0.0,3-11B,other
16103,62,39,148,224,7.0,3-2A,minor
16104,82,43,104,176,7.0,3-2A,minor
16105,83,60,208,236,7.0,3-2A,minor
16106,89,83,104,556,8.0,2-3,minor
16107,83,57,80,376,8.0,2-6,other
16108,86,68,56,188,8.0,2-6,other
16109,87,60,76,400,5.0,2-5,other
16110,86,68,76,188,5.0,2-5,other
16111,87,60,68,108,5.0,2-5,other
16112,84,38,76,160,0.0,2-5,other
16113,83,43,76,100,0.0,2-5,other
16114,86,73,68,144,0.0,2-5,other
16115,84,67,84,136,0.0,2-5,other
16116,79,50,80,148,3.0,3-12,augmented
16117,75,60,64,176,3.0,3-12,augmented
16118,74,57,124,188,3.0,3-12,augmented
16119,74,61,128,192,3.0,3-12,augmented
16120,75,57,128,184,3.0,3-12,augmented
16121,77,68,140,200,3.0,3-12,augmented
16122,67,44,40,396,0.0,3-11A,minor
16123,45,52,24,200,0.0,3-11A,minor
16124,72,57,68,392,3.0,3-4A,major
16125,62,83,176,1264,9.0,3-10,diminished
16126,61,57,96,148,9.0,3-10,diminished
16127,60,49,88,80,9.0,3-10,diminished
16128,59,60,72,88,9.0,3-10,diminished
16129,60,43,44,376,7.0,3-7A,minor
16130,58,60,120,32,7.0,3-7A,minor
16131,57,57,88,112,7.0,3-7A,minor
16132,58,61,72,152,7.0,3-7A,minor
16133,53,47,160,36,7.0,3-7A,minor
16134,62,54,92,116,7.0,3-7A,minor
16135,66,75,96,136,7.0,3-7A,minor
16136,69,96,144,128,7.0,3-7A,minor
16137,66,81,116,168,7.0,3-7A,minor
16138,53,37,660,80,10.0,2-4,major
16139,67,65,120,64,10.0,2-4,major
16140,69,72,92,140,10.0,2-4,major
16141,70,74,84,136,10.0,2-4,major
16142,74,79,96,156,10.0,2-4,major
16143,78,83,104,144,10.0,2-4,major
16144,81,85,92,140,10.0,2-4,major
16145,82,75,100,136,10.0,2-4,major
16146,84,79,72,160,10.0,2-4,major
16147,82,56,156,164,4.0,2-3,minor
16148,74,57,112,172,4.0,2-3,minor
16149,74,54,128,204,4.0,2-3,minor
16150,52,32,208,248,10.0,2-4,major
16151,84,68,104,172,10.0,2-4,major
16152,82,63,396,188,10.0,2-4,major
16153,55,33,432,260,6.0,2-5,other
16154,73,45,156,152,6.0,2-5,other
16155,72,46,532,228,6.0,2-5,other
16156,70,54,164,616,5.0,3-8B,other
16157,70,48,72,416,5.0,3-11A,other
16158,68,45,68,84,5.0,3-11A,other
16159,67,53,48,72,5.0,3-11A,other
16160,70,47,28,180,5.0,3-11A,other
16161,72,63,40,80,5.0,3-11A,other
16162,74,69,64,92,5.0,3-11A,other
16163,75,68,28,144,5.0,3-11A,other
16164,76,74,76,140,5.0,3-11A,other
16165,77,80,92,144,5.0,3-11A,other
16166,62,40,160,188,7.0,3-5B,other
16167,68,48,132,172,7.0,3-5B,other
16168,46,49,936,196,7.0,3-5B,other
16169,56,46,236,256,11.0,3-11A,minor
16170,67,45,300,36,11.0,3-11A,minor
16171,56,43,148,324,11.0,3-11A,minor
16172,60,38,36,2892,3.0,3-4B,other
16173,66,43,60,732,0.0,3-11A,minor
16174,69,27,128,916,2.0,3-3A,major
16175,61,61,164,164,2.0,3-3A,major
16176,57,37,144,448,6.0,3-10,other
16177,55,55,64,1432,8.0,2-6,other
16178,56,56,88,88,8.0,2-6,other
16179,58,57,28,80,8.0,2-6,other
16180,59,74,80,64,8.0,2-6,other
16181,60,51,60,92,8.0,2-6,other
16182,64,13,48,368,3.0,2-1,other
16183,65,11,420,28,3.0,2-1,other
16184,56,55,512,320,3.0,2-1,other
16185,64,55,80,260,3.0,2-1,other
16186,63,69,136,56,3.0,2-1,other
16187,62,71,104,76,3.0,2-1,other
16188,65,82,132,144,3.0,2-1,other
16189,63,57,228,288,0.0,2-5,other
16190,55,60,108,132,0.0,2-5,other
16191,60,62,104,164,0.0,2-5,other
16192,62,79,88,156,0.0,2-5,other
16193,55,49,408,112,0.0,2-5,other
16194,63,55,24,32,0.0,2-5,other
16195,67,56,72,140,0.0,2-5,other
16196,70,89,76,144,0.0,2-5,other
16197,74,122,100,156,0.0,2-5,other
16198,77,90,112,396,7.0,3-7A,minor
16199,67,62,144,200,7.0,3-7A,minor
16200,60,42,48,244,0.0,2-3,minor
16201,74,58,144,176,0.0,2-3,minor
16202,75,61,176,224,0.0,2-3,minor
16203,75,57,92,408,7.0,3-9,other
16204,74,57,64,88,7.0,3-9,other
16205,72,37,52,104,7.0,3-9,other
16206,74,60,80,96,7.0,3-9,other
16207,75,64,28,96,7.0,3-9,other
16208,57,23,164,172,0.0,2-5,other
16209,84,49,48,88,0.0,2-5,other
16210,86,79,52,124,0.0,2-5,other
16211,87,80,72,132,0.0,2-5,other
16212,89,89,80,128,0.0,2-5,other
16213,86,66,72,316,2.0,4-12A,major
16214,87,63,112,104,2.0,4-12A,major
16215,86,50,88,76,2.0,4-12A,major
16216,84,58,68,96,2.0,4-12A,major
16217,82,61,108,108,2.0,4-12A,major
16218,84,69,140,280,2.0,4-27B,major
16219,81,63,104,140,2.0,4-27B,major
16220,82,56,120,160,2.0,4-27B,major
16221,84,70,124,140,2.0,4-27B,major
16222,43,51,24,552,1.0,1-1,other
16223,65,48,356,304,1.0,3-10,other
16224,72,72,128,176,1.0,3-10,other
16225,61,36,84,28,1.0,3-10,other
16226,70,65,68,192,1.0,3-10,other
16227,73,49,96,380,0.0,2-2,other
16228,72,54,100,68,0.0,2-2,other
16229,71,57,68,108,0.0,2-2,other
16230,70,68,92,180,0.0,2-2,other
16231,64,48,76,336,7.0,2-3,minor
16232,61,55,104,140,7.0,2-3,minor
16233,60,56,84,108,7.0,2-3,minor
16234,59,52,32,112,7.0,2-3,minor
16235,58,45,32,76,7.0,2-3,minor
16236,57,55,64,84,7.0,2-3,minor
16237,41,43,740,120,3.0,2-5,other
16238,66,65,104,1588,8.0,4-24,other
16239,72,77,172,192,8.0,4-24,other
16240,43,60,184,956,10.0,2-4,major
16241,67,49,52,468,10.0,2-4,major
16242,71,80,104,444,3.0,3-8B,other
16243,75,85,76,220,3.0,3-8B,other
16244,68,29,36,156,3.0,3-8B,other
16245,75,61,72,76,3.0,3-8B,other
16246,61,83,236,256,10.0,2-4,major
16247,60,84,376,220,10.0,2-4,major
16248,46,56,132,676,0.0,3-11A,minor
16249,36,54,36,4152,1.0,3-10,minor
16250,58,41,100,484,1.0,3-10,minor
16251,58,43,120,372,1.0,3-10,minor
16252,58,42,116,360,1.0,3-10,minor
16253,58,73,112,992,0.0,4-20,other
16254,60,90,172,504,0.0,4-20,other
16255,63,80,112,244,0.0,4-20,other
16256,65,77,92,220,0.0,4-20,other
16257,62,54,120,1040,6.0,3-9,other
16258,79,23,132,2888,5.0,3-9,other
16259,51,60,168,420,5.0,3-9,other
16260,56,35,92,52,5.0,3-9,other
16261,92,63,128,400,0.0,4-16A,other
16262,91,64,88,84,0.0,4-16A,other
16263,89,75,72,92,0.0,4-16A,other
16264,87,79,100,148,0.0,4-16A,other
16265,87,54,80,440,0.0,3-8B,other
16266,88,71,76,76,0.0,3-8B,other
16267,89,92,136,88,0.0,3-8B,other
16268,86,81,124,172,0.0,3-8B,other
16269,83,61,108,168,4.0,3-5B,other
16270,80,56,84,148,4.0,3-5B,other
16271,75,77,128,676,4.0,4-9,other
16272,71,52,140,184,4.0,4-9,other
16273,77,82,192,172,4.0,4-9,other
16274,75,67,140,164,0.0,3-11A,minor
16275,74,80,140,336,0.0,3-11A,minor
16276,72,62,1020,168,0.0,3-11A,minor
16277,67,54,348,168,0.0,3-11A,minor
16278,63,62,172,192,0.0,3-11A,minor
16279,74,74,144,1420,0.0,3-11A,minor
16280,72,64,1708,216,0.0,3-11A,minor
16281,62,32,44,272,3.0,2-4,major
16282,77,82,320,1560,2.0,4-12A,major
16283,57,31,60,32,2.0,4-12A,major
16284,69,39,332,444,6.0,2-1,other
16285,74,66,156,204,6.0,2-1,other
16286,75,76,112,216,6.0,2-1,other
16287,53,43,32,484,7.0,3-11A,minor
16288,49,52,132,224,7.0,3-11A,minor
16289,64,38,264,280,0.0,2-2,other
16290,67,69,172,204,0.0,2-2,other
16291,68,80,204,240,0.0,2-2,other
16292,72,90,336,748,0.0,5-35,minor
16293,71,76,216,680,7.0,3-5B,other
16294,46,55,632,512,3.0,4-20,major
16295,55,64,408,248,3.0,4-20,major
16296,62,59,104,252,3.0,4-20,major
16297,67,62,96,180,3.0,4-20,major
16298,68,75,96,132,3.0,4-20,major
16299,70,71,68,124,3.0,4-20,major
16300,71,79,124,88,3.0,4-20,major
16301,73,69,64,220,0.0,2-5,other
16302,74,76,64,92,0.0,2-5,other
16303,75,47,72,96,0.0,2-5,other
16304,76,79,56,68,0.0,2-5,other
16305,77,107,308,92,0.0,2-5,other
16306,74,75,324,240,0.0,2-5,other
16307,71,65,164,232,11.0,3-10,diminished
16308,68,56,104,188,11.0,3-10,diminished
16309,67,48,124,184,11.0,3-10,diminished
16310,77,82,172,192,11.0,3-10,diminished
16311,75,63,588,248,8.0,2-1,other
16312,67,48,232,224,8.0,2-1,other
16313,60,44,108,396,3.0,2-4,major
16314,45,22,68,776,6.0,3-10,diminished
16315,59,39,44,1036,6.0,4-28,diminished
16316,58,57,80,68,6.0,4-28,diminished
16317,57,54,112,120,6.0,3-10,minor
16318,46,59,252,656,8.0,4-27B,other
16319,46,73,272,388,8.0,4-27B,other
16320,46,73,116,420,8.0,4-27B,other
16321,46,72,72,268,8.0,4-27B,other
16322,47,71,232,176,8.0,4-27B,other
16323,70,13,120,164,2.0,2-3,minor
16324,77,102,192,828,8.0,3-10,minor
16325,75,86,424,248,8.0,3-10,minor
16326,48,42,116,264,1.0,2-2,other
16327,55,26,1148,32,1.0,2-2,other
16328,62,63,348,192,1.0,2-2,other
16329,75,1,284,228,1.0,2-2,other
16330,48,54,68,724,0.0,3-11A,minor
16331,67,30,36,776,3.0,2-1,other
16332,60,49,236,452,3.0,3-4A,major
16333,46,65,152,240,3.0,3-4A,major
16334,45,57,24,276,3.0,3-4A,major
16335,53,26,44,3608,1.0,2-6,other
16336,82,49,36,428,1.0,2-3,other
16337,52,31,208,268,0.0,3-2B,other
16338,65,39,76,2328,3.0,2-5,other
16339,73,25,36,160,3.0,2-5,other
16340,67,40,412,632,8.0,4-27A,diminished
16341,46,56,496,384,8.0,4-27A,diminished
16342,46,55,96,792,7.0,3-5B,other
16343,39,49,180,344,7.0,3-5B,other
16344,46,39,856,228,7.0,3-5B,other
16345,55,45,1756,268,7.0,3-5B,other
16346,46,45,212,852,10.0,3-9,other
16347,46,43,300,388,10.0,3-9,other
16348,46,39,148,444,10.0,3-9,other
16349,39,49,504,540,10.0,3-9,other
16350,90,49,108,4292,7.0,1-1,other
16351,59,48,2052,2228,3.0,3-12,augmented
16352,67,56,108,176,3.0,3-12,augmented
16353,69,50,84,344,3.0,3-12,augmented
16354,71,60,76,156,3.0,3-12,augmented
16355,73,58,80,120,3.0,3-12,augmented
16356,75,67,44,96,3.0,3-12,augmented
16357,77,75,80,84,3.0,3-12,augmented
16358,79,60,28,88,3.0,3-12,augmented
16359,81,66,28,68,3.0,3-12,augmented
16360,83,63,68,80,3.0,3-12,augmented
16361,85,68,76,72,3.0,3-12,augmented
16362,87,66,28,88,3.0,3-12,augmented
16363,89,66,84,76,3.0,3-12,augmented
16364,91,66,60,104,3.0,3-12,augmented
16365,93,48,24,88,3.0,3-12,augmented
16366,95,46,44,112,3.0,3-12,augmented
16367,97,51,88,120,3.0,3-12,augmented
16368,99,63,112,128,3.0,3-12,augmented
16369,101,70,160,144,3.0,3-12,augmented
16370,98,62,144,176,3.0,3-12,augmented
16371,99,61,120,156,3.0,3-12,augmented
16372,100,69,128,168,3.0,3-12,augmented
16373,101,61,140,172,3.0,3-12,augmented
16374,103,52,148,204,3.0,3-12,augmented
16375,31,46,116,32,3.0,3-12,augmented
16376,59,27,332,452,3.0,3-12,augmented
16377,74,17,148,2760,2.0,1-1,other
16378,89,63,108,776,7.0,2-5,other
16379,55,31,212,724,0.0,2-3,minor
16380,62,57,44,52,0.0,2-3,minor
16381,63,31,56,144,0.0,2-3,minor
16382,67,32,60,100,0.0,2-3,minor
16383,77,79,408,140,0.0,2-3,minor
16384,65,33,180,440,3.0,4-20,major
16385,77,68,164,216,3.0,4-20,major
16386,77,50,44,360,2.0,5-27A,major
16387,68,31,116,172,5.0,4-11A,other
16388,75,36,68,500,2.0,2-2,other
16389,73,50,40,276,1.0,5-27A,other
16390,60,49,228,204,10.0,4-20,major
16391,57,38,100,444,1.0,4-26,minor
16392,41,57,244,808,8.0,2-2,other
16393,48,53,940,252,8.0,2-2,other
16394,51,49,428,140,8.0,2-2,other
16395,55,58,180,152,8.0,2-2,other
16396,56,64,216,156,8.0,2-2,other
16397,58,75,156,168,8.0,2-2,other
16398,60,79,148,176,8.0,2-2,other
16399,62,85,156,172,8.0,2-2,other
16400,63,87,160,184,8.0,2-2,other
16401,65,82,160,196,8.0,2-2,other
16402,67,84,160,196,8.0,2-2,other
16403,68,84,200,208,8.0,2-2,other
16404,70,78,212,224,8.0,2-2,other
16405,53,41,416,624,7.0,2-5,other
16406,72,48,52,624,5.0,1-1,other
16407,60,39,252,360,0.0,3-11A,minor
16408,77,37,356,912,1.0,3-7A,other
16409,78,39,712,1204,3.0,4-14A,other
16410,51,48,196,1592,3.0,3-4B,other
16411,58,47,2588,204,3.0,3-4B,other
16412,62,51,2348,160,3.0,3-4B,other
16413,65,56,76,136,3.0,3-4B,other
16414,67,57,88,132,3.0,3-4B,other
16415,70,60,72,128,3.0,3-4B,other
16416,72,56,72,132,3.0,3-4B,other
16417,74,61,28,112,3.0,3-4B,other
16418,77,61,76,128,3.0,3-4B,other
16419,79,58,68,128,3.0,3-4B,other
16420,86,74,104,124,3.0,3-4B,other
16421,81,54,80,140,3.0,3-4B,other
16422,82,57,52,128,3.0,3-4B,other
16423,86,66,76,124,3.0,3-4B,other
16424,89,54,104,140,3.0,3-4B,other
16425,93,69,84,108,3.0,3-4B,other
16426,96,76,104,132,3.0,3-4B,other
16427,93,72,64,128,3.0,3-4B,other
16428,94,63,48,136,3.0,3-4B,other
16429,98,72,84,140,3.0,3-4B,other
16430,101,48,100,152,3.0,3-4B,other
16431,105,58,76,148,3.0,3-4B,other
16432,106,66,160,144,3.0,3-4B,other
16433,107,71,136,172,3.0,3-4B,other
16434,108,58,180,200,3.0,3-4B,other
16435,108,60,136,292,3.0,3-4B,other
16436,57,1,384,0,,,
16437,55,46,260,6128,7.0,2-4,major
16438,55,45,164,1108,5.0,4-22A,major
16439,43,57,32,2784,0.0,3-4A,major
16440,74,27,40,2544,9.0,4-26,minor
16441,81,84,444,364,9.0,4-26,minor
16442,67,40,392,3132,9.0,3-11A,minor
16443,50,34,444,1020,5.0,3-11B,major
16444,57,41,792,456,5.0,3-11B,major
16445,56,32,360,7460,7.0,3-5B,other
16446,81,72,236,492,7.0,2-5,other
16447,45,51,84,268,7.0,2-5,other
16448,79,75,864,28,7.0,2-5,other
16449,55,39,168,392,5.0,3-4A,other
16450,76,81,260,740,5.0,4-16A,other
16451,55,33,160,656,5.0,3-4A,other
16452,46,45,136,1476,3.0,2-1,other
16453,55,53,160,196,3.0,2-1,other
16454,58,38,1616,180,3.0,2-1,other
16455,60,55,96,132,3.0,2-1,other
16456,62,56,96,128,3.0,2-1,other
16457,63,57,24,108,3.0,2-1,other
16458,65,69,92,72,3.0,2-1,other
16459,67,72,92,100,3.0,2-1,other
16460,69,62,72,72,3.0,2-1,other
16461,70,68,28,60,3.0,2-1,other
16462,72,66,88,72,3.0,2-1,other
16463,74,70,68,84,3.0,2-1,other
16464,75,63,100,64,3.0,2-1,other
16465,77,68,100,76,3.0,2-1,other
16466,79,42,64,84,3.0,2-1,other
16467,82,63,28,80,3.0,2-1,other
16468,84,56,76,80,3.0,2-1,other
16469,86,46,40,100,3.0,2-1,other
16470,87,63,78,44,3.0,2-1,other
16471,89,68,80,96,3.0,2-1,other
16472,91,54,156,80,3.0,2-1,other
16473,93,34,36,96,3.0,2-1,other
16474,94,56,28,68,3.0,2-1,other
16475,95,46,88,124,3.0,2-1,other
16476,96,40,120,92,3.0,2-1,other
16477,97,58,128,132,3.0,2-1,other
16478,98,47,92,152,3.0,2-1,other
16479,57,23,92,688,2.0,2-2,other
16480,62,50,324,1080,4.0,4-18A,major
16481,57,49,32,756,5.0,3-11B,major
16482,50,49,444,384,5.0,3-11B,major
16483,52,49,344,928,0.0,3-4A,major
16484,43,77,340,332,0.0,3-4A,major
16485,52,74,68,336,0.0,3-4A,major
16486,59,87,376,332,0.0,3-4A,major
16487,61,76,820,848,4.0,4-26,minor
16488,73,3,104,168,4.0,4-26,minor
16489,60,68,428,616,4.0,4-26,minor
16490,60,26,80,1244,0.0,4-24,augmented
16491,74,51,180,496,9.0,3-5B,other
16492,78,31,40,296,9.0,3-5B,other
16493,77,2,72,332,1.0,4-28,diminished
16494,58,43,280,404,1.0,3-11A,minor
16495,57,39,156,1156,0.0,3-9,other
16496,63,59,440,4696,5.0,4-20,major
16497,71,43,1224,464,8.0,3-10,other
16498,59,43,104,1080,8.0,3-10,other
16499,65,23,148,5688,8.0,4-18A,diminished
16500,44,36,220,2728,5.0,3-4A,other
16501,53,42,168,248,5.0,3-4A,other
16502,56,42,840,176,5.0,3-4A,other
16503,60,46,64,164,5.0,3-4A,other
16504,61,40,88,132,5.0,3-4A,other
16505,63,48,40,100,5.0,3-4A,other
16506,67,74,100,176,5.0,2-5,other
16507,63,24,108,32,5.0,2-5,other
16508,68,68,96,32,5.0,2-5,other
16509,70,59,24,88,5.0,2-5,other
16510,72,76,64,56,5.0,2-5,other
16511,73,64,76,84,5.0,2-5,other
16512,75,68,28,64,5.0,2-5,other
16513,77,68,104,80,5.0,2-5,other
16514,79,63,104,100,5.0,2-5,other
16515,80,63,76,44,5.0,2-5,other
16516,82,63,32,88,5.0,2-5,other
16517,84,47,40,112,5.0,2-5,other
16518,85,57,72,92,5.0,2-5,other
16519,87,58,32,116,5.0,2-5,other
16520,88,55,100,84,5.0,2-5,other
16521,89,43,60,124,5.0,2-5,other
16522,90,55,80,84,5.0,2-5,other
16523,91,68,56,116,5.0,2-5,other
16524,92,50,64,132,5.0,2-5,other
16525,93,53,96,124,5.0,2-5,other
16526,94,55,124,96,5.0,2-5,other
16527,95,52,100,144,5.0,2-5,other
16528,96,57,104,128,5.0,2-5,other
16529,98,68,144,144,5.0,2-5,other
16530,95,56,180,188,5.0,2-5,other
16531,52,33,412,252,0.0,1-1,other
16532,43,38,44,460,0.0,1-1,other
16533,55,50,112,1080,7.0,3-11B,major
16534,43,70,332,1100,5.0,4-22A,major
16535,59,73,624,1852,0.0,3-11B,major
16536,60,63,552,620,0.0,3-11B,major
16537,71,76,212,500,0.0,3-11B,major
16538,57,40,1140,632,0.0,3-4A,major
16539,53,46,368,1972,7.0,3-11B,major
16540,53,47,284,484,7.0,3-11B,major
16541,53,43,420,508,7.0,3-11B,major
16542,69,60,236,444,7.0,3-11B,major
16543,43,64,456,4220,5.0,3-9,other
16544,55,52,304,460,2.0,4-26,minor
16545,55,66,464,388,2.0,4-26,minor
16546,56,66,496,916,8.0,4-28,diminished
16547,45,72,60,880,9.0,4-26,minor
16548,55,60,200,1556,11.0,2-2,other
16549,60,1,228,240,11.0,2-2,other
16550,60,34,448,816,4.0,3-5B,other
16551,64,36,252,560,4.0,3-5B,other
16552,81,57,76,332,4.0,3-5B,other
16553,62,25,344,392,4.0,3-7A,minor
16554,59,50,668,328,4.0,3-7A,minor
16555,62,39,104,360,4.0,3-7A,minor
16556,39,57,304,1280,3.0,3-4A,major
16557,46,65,236,300,3.0,3-4A,major
16558,55,75,236,248,3.0,3-4A,major
16559,55,43,228,2472,2.0,4-26,minor
16560,96,85,180,5416,0.0,3-8A,major
16561,93,78,108,224,0.0,3-8A,major
16562,94,68,228,164,0.0,3-8A,major
16563,58,39,196,76,0.0,3-8A,major
16564,64,10,104,40,0.0,3-8A,major
16565,91,68,108,36,0.0,3-8A,major
16566,88,50,92,140,0.0,3-8A,major
16567,87,63,40,132,0.0,3-8A,major
16568,86,50,80,92,0.0,3-8A,major
16569,85,60,88,92,0.0,3-8A,major
16570,82,31,68,232,0.0,3-8A,major
16571,62,39,512,140,4.0,3-8B,other
16572,82,66,80,88,4.0,3-8B,other
16573,79,66,28,112,4.0,3-8B,other
16574,76,46,32,80,4.0,3-8B,other
16575,75,54,36,92,4.0,3-8B,other
16576,74,49,64,68,4.0,3-8B,other
16577,73,41,36,100,4.0,3-8B,other
16578,72,44,36,48,4.0,3-8B,other
16579,71,30,44,84,4.0,3-8B,other
16580,70,56,360,100,4.0,3-8B,other
16581,67,55,120,352,4.0,3-8B,other
16582,64,54,116,168,4.0,3-8B,other
16583,63,60,80,152,4.0,3-8B,other
16584,62,56,76,160,4.0,3-8B,other
16585,61,54,128,108,4.0,3-8B,other
16586,60,38,36,152,4.0,3-8B,other
16587,59,39,72,112,4.0,3-8B,other
16588,58,43,160,108,4.0,3-8B,other
16589,57,52,60,256,4.0,3-8B,other
16590,57,32,240,76,2.0,2-3,minor
16591,50,55,36,328,2.0,2-3,minor
16592,62,6,296,496,2.0,4-26,minor
16593,53,75,84,176,2.0,4-26,minor
16594,46,74,296,756,6.0,4-28,diminished
16595,54,64,40,292,6.0,4-28,diminished
16596,67,81,92,1108,0.0,3-11B,major
16597,64,74,200,788,4.0,4-18A,major
16598,62,6,96,220,4.0,4-18A,major
16599,60,59,132,728,9.0,4-26,minor
16600,60,41,152,1016,6.0,3-8A,other
16601,31,31,308,576,5.0,4-22A,major
16602,69,36,568,976,11.0,3-10,diminished
16603,55,51,928,420,11.0,3-10,diminished
16604,43,60,32,820,5.0,3-11B,major
16605,59,39,548,400,4.0,5-31B,major
16606,53,56,204,360,4.0,5-31B,major
16607,69,31,264,2932,0.0,2-4,major
16608,53,37,1764,1488,9.0,4-26,minor
16609,71,52,148,1520,9.0,4-26,minor
16610,50,51,172,860,0.0,3-4A,other
16611,51,56,400,312,0.0,3-4A,other
16612,53,55,288,304,0.0,3-4A,other
16613,53,27,296,456,10.0,3-11B,major
16614,55,43,820,256,10.0,3-11B,major
16615,57,36,52,836,10.0,3-11B,major
16616,48,53,52,1078,4.0,3-7B,other
16617,43,19,40,1516,0.0,5-20A,major
16618,71,36,276,288,4.0,5-31B,major
16619,43,45,1080,1772,11.0,3-7A,minor
16620,36,50,96,972,4.0,3-11A,minor
16621,74,86,116,408,4.0,3-11A,minor
16622,81,72,60,1324,4.0,3-10,diminished
16623,68,41,128,1392,4.0,2-6,other
16624,69,28,108,284,2.0,3-11A,minor
16625,72,52,124,400,2.0,3-11A,minor
16626,65,22,44,40,2.0,3-11A,minor
16627,53,50,740,884,5.0,3-11B,major
16628,38,47,464,400,5.0,3-11B,major
16629,45,32,192,668,5.0,3-11B,major
16630,64,50,52,1208,2.0,3-11A,minor
16631,63,50,216,200,2.0,3-11A,minor
16632,61,46,248,672,2.0,4-14A,minor
16633,62,40,392,1652,7.0,2-1,other
16634,74,51,104,2748,0.0,4-20,major
16635,75,55,72,44,0.0,4-20,major
16636,76,49,68,88,0.0,4-20,major
16637,71,54,88,772,0.0,3-4A,major
16638,72,85,140,208,0.0,3-4A,major
16639,75,68,168,420,7.0,2-5,other
16640,76,82,88,216,7.0,2-5,other
16641,70,39,384,288,3.0,3-4A,major
16642,46,54,116,156,3.0,3-4A,major
16643,55,54,116,160,3.0,3-4A,major
16644,58,39,580,136,3.0,3-4A,major
16645,62,41,116,204,7.0,2-2,other
16646,70,63,128,132,7.0,2-2,other
16647,72,66,112,164,7.0,2-2,other
16648,74,75,100,140,7.0,2-2,other
16649,60,52,176,396,10.0,4-19B,other
16650,44,50,28,656,5.0,3-5B,other
16651,55,74,92,716,5.0,4-22A,major
16652,43,81,956,464,5.0,4-22A,major
16653,43,81,252,1152,5.0,4-22A,major
16654,60,78,140,572,7.0,4-21,major
16655,62,80,88,212,7.0,4-21,major
16656,74,12,124,1132,0.0,4-19B,augmented
16657,48,48,780,908,9.0,4-23,minor
16658,64,42,56,1500,0.0,4-24,augmented
16659,81,59,28,696,0.0,4-24,augmented
16660,47,45,36,340,0.0,4-24,augmented
16661,48,54,224,48,0.0,4-24,augmented
16662,58,34,300,32,0.0,4-24,augmented
16663,60,45,280,32,0.0,4-24,augmented
16664,47,59,68,168,0.0,4-24,augmented
16665,46,27,32,104,0.0,4-24,augmented
16666,45,50,104,48,0.0,4-24,augmented
16667,44,50,36,108,0.0,4-24,augmented
16668,43,49,88,72,0.0,4-24,augmented
16669,52,14,208,160,6.0,3-8A,other
16670,64,49,40,464,6.0,3-8A,other
16671,48,55,968,528,2.0,3-11A,minor
16672,57,76,404,212,2.0,3-11A,minor
16673,41,49,64,708,0.0,2-5,other
16674,39,51,320,300,5.0,3-12,augmented
16675,46,40,412,380,5.0,3-12,augmented
16676,65,42,36,2184,4.0,3-11B,major
16677,53,39,36,172,4.0,3-11B,major
16678,54,49,40,48,4.0,3-11B,major
16679,43,54,76,256,2.0,5-35,minor
16680,56,39,224,1272,0.0,4-22A,major
16681,52,22,180,28,0.0,4-22A,major
16682,52,31,92,460,0.0,5-30B,other
16683,74,35,40,728,0.0,5-30B,other
16684,54,39,564,1712,0.0,4-29B,other
16685,32,57,112,1160,10.0,4-19B,other
16686,31,68,44,304,10.0,4-19B,other
16687,76,69,92,1064,4.0,4-18A,major
16688,76,52,32,176,4.0,4-18A,major
16689,54,62,172,640,0.0,3-9,other
16690,55,60,692,196,0.0,3-9,other
16691,59,61,412,200,0.0,3-9,other
16692,62,59,216,432,0.0,3-9,other
16693,42,49,208,684,0.0,2-5,other
16694,43,44,104,264,0.0,2-5,other
16695,43,44,104,272,0.0,2-5,other
16696,35,39,124,416,0.0,2-5,other
16697,36,65,456,316,0.0,2-5,other
16698,24,63,28,440,0.0,2-5,other
16699,43,68,584,732,5.0,4-22A,major
16700,41,76,512,720,5.0,4-25,major
16701,71,63,76,716,5.0,4-25,major
16702,57,30,240,3152,7.0,5-29A,major
16703,41,38,448,1112,5.0,3-11B,major
16704,52,37,208,3096,9.0,3-7A,minor
16705,62,57,240,1052,4.0,2-3,minor
16706,57,63,84,704,5.0,3-11B,major
16707,43,66,592,684,5.0,3-9,other
16708,43,68,140,708,5.0,4-22A,major
16709,71,85,104,696,8.0,5-31A,diminished
16710,70,46,32,36,8.0,5-31A,diminished
16711,59,85,624,680,9.0,4-26,minor
16712,57,94,604,712,0.0,3-8A,major
16713,55,96,356,704,0.0,2-4,major
16714,55,75,160,696,0.0,2-4,major
16715,69,51,148,1464,7.0,5-29A,major
16716,74,65,104,2136,0.0,5-27B,minor
16717,72,63,100,44,0.0,5-27B,minor
16718,67,44,56,80,0.0,5-27B,minor
16719,62,26,820,296,2.0,3-7A,minor
16720,79,49,264,672,2.0,3-7A,minor
16721,62,44,76,1036,2.0,3-7A,minor
16722,55,50,244,1132,7.0,4-18A,major
16723,55,51,460,788,9.0,4-26,minor
16724,62,43,264,768,7.0,3-8A,major
16725,88,58,488,1000,0.0,2-4,major
16726,76,43,492,916,4.0,2-6,other
16727,84,57,720,456,4.0,3-8B,other
16728,73,57,484,240,4.0,3-8B,other
16729,58,53,48,240,4.0,3-8B,other
16730,48,35,44,28,4.0,3-8B,other
16731,72,61,272,236,4.0,3-8B,other
16732,57,33,248,552,5.0,2-5,other
16733,64,24,200,3068,9.0,3-7A,minor
16734,67,54,72,828,9.0,3-11A,minor
16735,65,39,76,84,9.0,3-11A,minor
16736,64,37,68,28,9.0,3-11A,minor
16737,60,63,104,28,9.0,3-11A,minor
16738,52,51,792,1012,9.0,4-26,minor
16739,60,54,60,624,9.0,4-26,minor
16740,45,48,60,188,9.0,4-26,minor
16741,54,22,68,1536,8.0,4-28,diminished
16742,57,57,220,728,2.0,4-26,minor
16743,55,46,32,716,8.0,5-31A,diminished
16744,67,26,148,444,0.0,4-22A,major
16745,55,28,148,1416,6.0,4-9,other
16746,69,41,248,1468,2.0,4-21,major
16747,69,54,220,2200,5.0,4-22A,major
16748,62,29,1132,2368,9.0,4-26,minor
16749,72,57,240,532,9.0,4-26,minor
16750,72,54,376,472,9.0,4-26,minor
16751,60,48,80,472,9.0,4-26,minor
16752,60,44,84,912,9.0,4-26,minor
16753,60,41,80,1660,0.0,3-11B,major
16754,60,42,132,1308,0.0,3-11B,major
16755,60,39,76,428,0.0,3-11B,major
16756,60,39,88,448,0.0,3-11B,major
16757,83,29,44,496,6.0,3-10,other
16758,60,39,104,972,0.0,3-11B,major
16759,60,39,104,476,0.0,3-11B,major
16760,83,38,220,620,6.0,3-10,other
16761,36,54,444,788,6.0,3-10,other
16762,43,28,372,108,6.0,3-10,other
16763,91,46,236,168,4.0,4-23,minor
16764,74,78,1440,0,,,
16765,48,37,1028,28,,,
16766,55,23,1024,44,,,
16767,62,33,344,656,3.0,2-4,major
16768,48,27,1896,656,3.0,2-4,major
16769,56,41,2108,44,3.0,2-4,major
16770,63,39,904,40,3.0,2-4,major
16771,68,55,952,36,3.0,2-4,major
16772,72,99,232,1108,2.0,1-1,other
16773,67,85,160,380,2.0,1-1,other
16774,63,82,280,432,2.0,1-1,other
16775,57,40,700,476,2.0,2-2,other
16776,63,43,108,344,2.0,2-2,other
16777,62,45,96,56,2.0,2-2,other
16778,60,47,96,140,2.0,2-2,other
16779,62,69,256,156,2.0,2-2,other
16780,57,20,48,116,2.0,2-2,other
16781,60,56,416,128,2.0,2-2,other
16782,57,25,276,44,2.0,2-2,other
16783,60,47,100,528,2.0,2-2,other
16784,30,61,212,436,2.0,2-2,other
16785,84,38,140,2000,0.0,3-12,augmented
16786,60,48,124,1812,5.0,3-7B,other
16787,63,72,88,232,5.0,3-7B,other
16788,72,81,240,204,5.0,3-7B,other
16789,67,45,304,384,8.0,2-2,other
16790,66,51,264,372,8.0,2-2,other
16791,62,19,684,428,8.0,2-3,other
16792,70,52,188,436,8.0,2-3,other
16793,46,71,640,1192,3.0,4-20,major
16794,55,85,400,372,3.0,4-20,major
16795,31,74,208,1312,2.0,4-26,minor
16796,84,52,152,1780,7.0,2-5,other
16797,84,57,292,640,7.0,2-5,other
16798,84,54,144,512,10.0,5-27A,major
16799,84,54,124,1240,9.0,2-3,minor
16800,64,30,920,1592,1.0,2-3,other
16801,72,39,360,772,1.0,2-3,other
16802,53,48,1900,848,1.0,2-3,other
16803,58,43,1884,68,1.0,2-3,other
16804,67,36,1628,32,1.0,2-3,other
16805,79,58,1420,164,0.0,3-7A,minor
16806,77,58,148,1512,0.0,3-7A,minor
16807,75,50,80,200,0.0,3-7A,minor
16808,75,25,316,328,5.0,3-8A,major
16809,63,41,336,760,0.0,2-5,other
16810,69,32,128,576,0.0,2-5,other
16811,47,39,1388,652,6.0,4-27A,minor
16812,53,72,888,528,6.0,4-27A,minor
16813,46,30,1244,2620,0.0,2-4,other
16814,63,40,468,1228,0.0,2-4,other
16815,46,50,324,1108,3.0,2-4,major
16816,58,47,1500,728,7.0,1-1,other
16817,63,49,932,508,7.0,1-1,other
16818,71,72,360,692,7.0,2-3,minor
16819,73,67,372,348,7.0,2-3,minor
16820,75,61,216,336,7.0,2-3,minor
16821,43,40,220,40,7.0,2-3,minor
16822,77,68,156,196,7.0,2-3,minor
16823,50,34,32,36,7.0,2-3,minor
16824,78,41,36,160,7.0,2-3,minor
16825,79,55,152,324,7.0,2-4,major
16826,81,61,156,368,7.0,2-4,major
16827,83,66,164,152,7.0,2-4,major
16828,87,59,104,356,1.0,2-2,other
16829,89,41,120,172,1.0,2-2,other
16830,91,60,144,152,1.0,2-2,other
16831,53,27,332,224,9.0,2-2,other
16832,95,50,116,180,9.0,2-2,other
16833,97,57,160,200,9.0,2-2,other
16834,99,52,148,220,9.0,2-2,other
16835,55,48,604,556,2.0,2-2,other
16836,56,78,1176,952,2.0,2-2,other
16837,60,16,660,492,3.0,2-5,other
16838,72,67,436,344,3.0,2-5,other
16839,67,57,64,284,3.0,2-5,other
16840,56,10,60,228,3.0,2-5,other
16841,63,49,272,464,3.0,2-5,other
16842,60,46,224,668,2.0,3-7B,other
16843,60,56,884,308,2.0,3-7B,other
16844,57,32,324,36,2.0,3-7B,other
16845,48,45,300,300,2.0,3-7B,other
16846,43,57,188,896,0.0,2-2,other
16847,84,58,108,4976,3.0,1-1,other
16848,50,54,324,3868,3.0,3-4B,other
16849,56,25,40,1140,2.0,4-23,minor
16850,56,52,108,352,2.0,4-23,minor
16851,43,35,420,516,4.0,4-6,other
16852,43,50,1608,832,7.0,2-5,other
16853,72,72,92,224,7.0,2-2,other
16854,84,89,740,188,7.0,2-2,other
16855,84,72,556,844,7.0,2-2,other
16856,85,65,136,620,7.0,2-2,other
16857,84,54,196,200,7.0,2-2,other
16858,52,31,448,276,1.0,2-1,other
16859,43,39,52,476,1.0,2-1,other
16860,73,57,704,1068,0.0,1-1,other
16861,79,63,648,944,0.0,1-1,other
16862,75,84,80,1940,5.0,2-2,other
16863,79,67,228,1628,10.0,3-9,other
16864,73,56,284,1212,2.0,4-22B,minor
16865,72,53,184,364,2.0,4-22B,minor
16866,63,42,868,612,6.0,4-22B,minor
16867,47,45,612,584,6.0,4-22B,minor
16868,53,39,2104,1448,0.0,5-35,other
16869,60,54,1352,1248,3.0,2-5,other
16870,63,46,356,1000,3.0,2-5,other
16871,58,39,1692,1764,5.0,2-5,other
16872,67,31,500,780,3.0,2-5,other
16873,72,40,492,428,3.0,2-5,other
16874,82,48,80,532,3.0,2-5,other
16875,26,41,444,1052,3.0,2-5,other
16876,54,45,184,64,3.0,2-5,other
16877,77,51,204,512,5.0,2-5,other
16878,75,63,284,1132,5.0,4-18A,major
16879,75,60,424,432,5.0,4-18A,major
16880,74,52,248,512,5.0,4-18A,major
16881,74,52,768,580,5.0,4-18A,major
16882,72,39,164,908,5.0,4-18A,major
16883,67,44,696,2584,7.0,2-5,other
16884,70,55,576,244,7.0,2-5,other
16885,74,61,428,236,7.0,2-5,other
16886,67,63,652,432,2.0,2-5,other
16887,74,79,512,432,10.0,1-1,other
16888,64,82,692,236,10.0,1-1,other
16889,67,53,692,248,10.0,1-1,other
16890,70,57,568,224,10.0,1-1,other
16891,74,55,520,236,10.0,1-1,other
16892,70,68,692,692,4.0,2-3,minor
16893,74,77,476,236,4.0,2-3,minor
16894,63,66,716,240,4.0,2-3,minor
16895,51,48,180,28,4.0,2-3,minor
16896,67,51,784,224,4.0,2-3,minor
16897,72,51,172,232,4.0,2-3,minor
16898,63,54,892,468,2.0,2-5,other
16899,67,55,704,252,2.0,2-5,other
16900,55,54,456,244,2.0,2-5,other
16901,74,66,192,236,2.0,2-5,other
16902,62,67,1688,244,2.0,2-5,other
16903,74,38,348,48,2.0,2-5,other
16904,63,44,612,188,2.0,2-5,other
16905,66,50,1384,252,2.0,2-5,other
16906,74,63,508,228,2.0,2-5,other
16907,63,34,576,492,2.0,2-5,other
16908,72,43,148,252,2.0,2-5,other
16909,74,52,156,224,2.0,2-5,other
16910,72,18,328,56,2.0,2-5,other
16911,67,54,660,400,7.0,2-5,other
16912,72,58,164,240,7.0,2-5,other
16913,74,73,440,224,7.0,2-5,other
16914,67,49,632,464,10.0,2-4,major
16915,67,54,1120,908,4.0,1-1,other
16916,72,60,176,228,4.0,1-1,other
16917,74,32,420,440,2.0,2-2,other
16918,64,54,444,268,2.0,2-2,other
16919,67,12,140,276,0.0,2-2,other
16920,70,60,124,188,0.0,2-2,other
16921,67,39,128,252,9.0,3-10,diminished
16922,67,58,748,228,9.0,3-10,diminished
16923,72,76,708,224,9.0,3-10,diminished
16924,70,33,48,48,9.0,3-10,diminished
16925,74,88,440,184,9.0,3-10,diminished
16926,56,1,40,252,3.0,3-4B,other
16927,67,73,744,252,3.0,3-4B,other
16928,72,72,196,224,3.0,3-4B,other
16929,72,28,408,244,2.0,1-1,other
16930,66,68,708,508,3.0,2-5,other
16931,72,57,676,240,3.0,2-5,other
16932,74,60,152,240,3.0,2-5,other
16933,66,54,652,512,3.0,2-1,other
16934,72,49,168,244,3.0,2-1,other
16935,74,50,160,244,3.0,2-1,other
16936,74,12,112,312,7.0,2-5,other
16937,67,46,688,156,7.0,2-5,other
16938,72,54,204,236,7.0,2-5,other
16939,62,57,672,484,2.0,2-5,other
16940,72,1,132,68,2.0,2-5,other
16941,67,63,684,164,2.0,2-5,other
16942,58,68,488,244,2.0,2-5,other
16943,74,81,480,236,2.0,2-5,other
16944,67,39,660,492,4.0,1-1,other
16945,72,57,180,232,4.0,1-1,other
16946,74,74,452,228,4.0,1-1,other
16947,64,62,704,216,4.0,1-1,other
16948,72,62,188,464,7.0,2-1,other
16949,70,18,508,284,0.0,3-9,other
16950,62,54,32,264,3.0,2-1,other
16951,67,64,752,220,3.0,2-1,other
16952,74,77,464,468,2.0,2-2,other
16953,70,1,188,280,0.0,2-3,minor
16954,67,46,664,216,0.0,2-3,minor
16955,72,31,148,256,0.0,2-3,minor
16956,74,46,888,220,0.0,2-3,minor
16957,38,42,280,224,0.0,2-3,minor
16958,50,43,40,260,0.0,2-3,minor
16959,63,44,1400,248,0.0,2-3,minor
16960,62,54,60,228,0.0,2-3,minor
16961,62,44,144,548,0.0,2-3,minor
16962,62,39,148,312,0.0,2-3,minor
16963,62,37,40,300,0.0,2-3,minor
16964,66,56,232,2168,11.0,4-26,minor
16965,59,33,52,324,4.0,3-2B,minor
16966,63,50,56,812,7.0,3-11B,major
16967,65,41,212,68,4.0,3-11A,minor
16968,43,64,44,2976,11.0,2-6,other
16969,48,61,84,28,11.0,2-6,other
16970,45,68,52,32,11.0,2-6,other
16971,50,55,92,28,11.0,2-6,other
16972,55,45,32,360,11.0,2-6,other
16973,60,51,88,28,11.0,2-6,other
16974,59,48,24,72,2.0,2-5,other
16975,71,48,100,252,5.0,2-4,major
16976,67,57,36,32,5.0,2-4,major
16977,72,42,108,36,5.0,2-4,major
16978,69,54,32,36,5.0,2-4,major
16979,74,50,104,32,5.0,2-4,major
16980,72,44,40,108,4.0,2-5,other
16981,77,50,116,28,4.0,2-5,other
16982,74,43,28,52,4.0,2-5,other
16983,79,45,64,28,4.0,2-5,other
16984,76,46,28,52,4.0,2-5,other
16985,81,50,56,28,4.0,2-5,other
16986,81,39,32,176,0.0,2-5,other
16987,86,51,92,32,0.0,2-5,other
16988,83,44,32,36,0.0,2-5,other
16989,88,48,108,32,0.0,2-5,other
16990,84,46,32,44,0.0,2-5,other
16991,89,46,104,32,0.0,2-5,other
16992,86,46,28,36,0.0,2-5,other
16993,91,46,92,32,0.0,2-5,other
16994,88,44,32,40,0.0,2-5,other
16995,95,37,732,216,9.0,2-3,minor
16996,96,39,264,76,8.0,3-10,diminished
16997,95,66,368,740,8.0,3-10,diminished
16998,96,54,172,268,8.0,3-10,diminished
16999,97,60,244,240,8.0,3-10,diminished
17000,74,76,232,828,2.0,2-2,other
17001,74,64,236,392,2.0,2-2,other
17002,74,63,148,328,0.0,3-11A,minor
17003,60,32,608,1112,3.0,2-4,major
17004,63,47,296,756,3.0,2-4,major
17005,63,54,272,460,3.0,2-4,major
17006,60,55,32,632,2.0,3-7B,other
17007,57,40,340,364,3.0,3-4A,major
17008,72,65,184,264,3.0,3-4A,major
17009,60,72,404,716,3.0,3-11B,major
17010,30,38,96,1108,3.0,4-29A,other
17011,41,42,424,432,0.0,4-20,other
17012,48,77,452,424,0.0,4-20,other
17013,58,47,92,816,0.0,3-9,other
17014,67,43,312,772,8.0,4-24,other
17015,66,66,268,392,8.0,4-24,other
17016,65,49,192,980,8.0,3-8B,other
17017,47,33,368,652,3.0,4-19B,augmented
17018,50,66,384,720,0.0,2-5,other
17019,51,77,416,448,0.0,2-5,other
17020,43,75,1152,784,5.0,3-11B,major
17021,67,66,264,1048,3.0,4-27A,other
17022,62,58,240,28,3.0,4-27A,other
17023,73,63,284,1452,0.0,2-1,other
17024,72,43,244,560,0.0,2-1,other
17025,48,31,656,580,1.0,3-10,minor
17026,60,54,124,360,1.0,3-10,minor
17027,61,63,84,152,1.0,3-10,minor
17028,64,64,96,140,1.0,3-10,minor
17029,66,77,160,128,1.0,3-10,minor
17030,70,67,76,140,1.0,3-10,minor
17031,72,71,104,128,1.0,3-10,minor
17032,73,72,84,132,1.0,3-10,minor
17033,76,57,236,152,1.0,3-10,minor
17034,58,31,1912,304,6.0,2-3,other
17035,52,37,1856,28,6.0,2-3,other
17036,82,50,136,140,6.0,2-3,other
17037,84,55,124,212,6.0,2-3,other
17038,85,54,140,180,6.0,2-3,other
17039,88,49,220,216,6.0,2-3,other
17040,90,54,284,236,6.0,2-3,other
17041,94,47,488,284,6.0,2-3,other
17042,95,47,184,584,6.0,2-3,other
17043,60,44,1588,1012,0.0,5-35,minor
17044,67,30,460,484,3.0,2-5,other
17045,77,11,204,492,3.0,2-5,other
17046,75,72,180,1164,5.0,2-5,other
17047,53,6,860,428,5.0,4-24,augmented
17048,69,47,280,876,0.0,2-5,other
17049,53,34,44,508,0.0,2-5,other
17050,47,36,1552,1192,6.0,3-11A,minor
17051,51,36,40,1204,6.0,3-11A,minor
17052,60,51,464,1972,0.0,4-22A,other
17053,74,85,2084,2992,3.0,4-24,augmented
17054,62,31,232,784,3.0,2-4,major
17055,56,68,1352,772,3.0,2-4,major
17056,63,42,560,480,3.0,2-4,major
17057,68,41,244,64,3.0,2-4,major
17058,72,75,384,248,3.0,2-4,major
17059,67,76,112,292,3.0,2-4,major
17060,63,63,156,244,3.0,2-4,major
17061,63,54,144,540,2.0,3-7B,other
17062,62,41,76,96,2.0,3-7B,other
17063,60,55,740,84,2.0,3-7B,other
17064,57,31,300,368,2.0,3-7B,other
17065,48,45,52,512,2.0,3-7B,other
17066,51,13,244,2128,5.0,4-14A,other
17067,60,70,116,1060,8.0,2-3,other
17068,63,76,84,176,8.0,2-3,other
17069,72,117,192,180,8.0,2-3,other
17070,67,46,232,416,8.0,4-24,other
17071,66,48,228,316,8.0,4-24,other
17072,55,41,120,2008,3.0,4-20,major
17073,60,41,28,160,3.0,4-20,major
17074,62,43,28,52,3.0,4-20,major
17075,64,45,32,60,3.0,4-20,major
17076,65,43,32,60,3.0,4-20,major
17077,67,42,32,68,3.0,4-20,major
17078,69,45,32,68,3.0,4-20,major
17079,71,45,36,64,3.0,4-20,major
17080,72,42,44,64,3.0,4-20,major
17081,74,43,32,76,3.0,4-20,major
17082,76,39,32,80,3.0,4-20,major
17083,77,43,24,64,3.0,4-20,major
17084,83,36,36,204,3.0,4-20,major
17085,84,43,28,56,3.0,4-20,major
17086,86,38,32,88,3.0,4-20,major
17087,88,40,36,64,3.0,4-20,major
17088,89,48,28,52,3.0,4-20,major
17089,91,29,260,68,3.0,4-20,major
17090,92,85,300,388,3.0,3-8B,other
17091,94,87,160,240,3.0,3-8B,other
17092,95,102,156,204,3.0,3-8B,other
17093,98,98,164,200,3.0,3-8B,other
17094,71,49,184,788,10.0,5-27A,major
17095,71,38,112,348,2.0,3-7B,other
17096,73,72,96,220,2.0,3-7B,other
17097,74,36,32,52,2.0,3-7B,other
17098,72,68,100,196,2.0,3-7B,other
17099,58,31,316,320,1.0,4-12A,minor
17100,72,58,164,252,1.0,4-12A,minor
17101,64,13,156,52,1.0,4-12A,minor
17102,41,63,28,1948,3.0,4-22A,major
17103,65,71,140,764,7.0,2-3,minor
17104,63,46,172,152,7.0,2-3,minor
17105,51,39,672,240,5.0,3-12,augmented
17106,62,49,176,80,5.0,3-12,augmented
17107,61,56,284,388,5.0,3-12,augmented
17108,41,45,148,880,9.0,3-10,diminished
17109,47,60,296,304,9.0,3-10,diminished
17110,60,48,356,1708,3.0,4-23,other
17111,60,39,824,532,3.0,2-5,other
17112,46,39,236,308,3.0,2-5,other
17113,46,61,292,568,3.0,2-5,other
17114,39,62,248,308,3.0,2-5,other
17115,46,57,668,508,3.0,2-5,other
17116,55,50,356,336,3.0,2-5,other
17117,60,56,76,212,3.0,2-5,other
17118,65,83,132,192,3.0,2-5,other
17119,70,94,208,176,3.0,2-5,other
17120,68,83,216,388,3.0,4-24,augmented
17121,70,84,148,176,3.0,4-24,augmented
17122,71,78,172,184,3.0,4-24,augmented
17123,79,79,124,404,3.0,3-6,major
17124,82,86,116,200,3.0,3-6,major
17125,86,111,140,192,3.0,3-6,major
17126,55,61,612,564,7.0,2-3,minor
17127,70,33,44,328,3.0,3-4A,major
17128,56,92,2064,512,3.0,3-4A,major
17129,72,66,1152,1212,3.0,3-5A,other
17130,67,60,572,320,3.0,3-5A,other
17131,62,50,460,904,9.0,3-10,diminished
17132,60,48,708,520,9.0,3-10,diminished
17133,58,58,768,868,9.0,3-10,diminished
17134,55,34,40,32,9.0,3-10,diminished
17135,48,38,416,272,9.0,3-10,diminished
17136,36,39,68,540,9.0,3-10,diminished
17137,60,39,316,2168,3.0,2-5,other
17138,53,21,240,36,3.0,2-5,other
17139,72,78,104,156,3.0,2-5,other
17140,75,85,84,172,3.0,2-5,other
17141,84,120,208,184,3.0,2-5,other
17142,46,67,2344,732,7.0,4-29A,minor
17143,67,49,112,556,8.0,4-27A,diminished
17144,56,50,300,284,11.0,3-11A,minor
17145,67,57,72,136,11.0,3-11A,minor
17146,59,24,124,696,6.0,3-7A,minor
17147,60,37,56,424,7.0,3-7A,minor
17148,79,117,184,292,7.0,3-7A,minor
17149,79,99,156,292,7.0,3-7A,minor
17150,79,80,308,228,7.0,3-7A,minor
17151,79,68,200,376,0.0,3-8B,other
17152,77,69,100,244,0.0,3-8B,other
17153,82,65,196,568,3.0,4-16A,other
17154,71,25,128,32,3.0,4-16A,other
17155,80,58,28,220,3.0,4-16A,other
17156,73,58,172,812,10.0,5-27A,major
17157,69,34,320,324,10.0,4-22A,major
17158,73,55,208,492,10.0,4-22A,major
17159,96,85,96,576,0.0,2-4,major
17160,94,79,140,152,0.0,2-4,major
17161,90,68,96,108,0.0,2-4,major
17162,88,69,56,108,0.0,2-4,major
17163,85,72,76,116,0.0,2-4,major
17164,84,60,56,100,4.0,3-8B,other
17165,82,64,104,128,4.0,3-8B,other
17166,76,54,56,212,4.0,3-8B,other
17167,75,47,72,112,4.0,3-8B,other
17168,74,54,28,92,4.0,3-8B,other
17169,73,45,40,84,4.0,3-8B,other
17170,72,53,32,64,4.0,3-8B,other
17171,71,48,36,68,4.0,3-8B,other
17172,53,30,924,96,3.0,2-5,other
17173,69,50,124,40,3.0,2-5,other
17174,68,38,76,100,3.0,2-5,other
17175,67,59,536,88,3.0,2-5,other
17176,60,48,28,584,3.0,2-5,other
17177,65,62,88,600,3.0,3-11B,major
17178,63,68,100,112,3.0,3-11B,major
17179,67,71,1152,524,2.0,4-29A,minor
17180,62,54,508,600,9.0,2-4,major
17181,49,84,120,232,9.0,2-4,major
17182,48,77,216,260,9.0,2-4,major
17183,47,70,1288,268,9.0,2-4,major
17184,46,43,40,420,9.0,2-4,major
17185,63,45,112,160,6.0,3-11A,minor
17186,63,58,180,816,5.0,3-12,augmented
17187,53,36,564,308,0.0,5-35,other
17188,63,54,348,540,0.0,5-35,other
17189,60,46,252,604,5.0,3-11A,other
17190,62,56,124,280,5.0,3-11A,other
17191,39,36,276,368,3.0,3-11B,major
17192,46,56,568,252,3.0,3-11B,major
17193,55,81,260,288,3.0,3-11B,major
17194,60,75,156,292,3.0,3-11B,major
17195,65,73,164,188,3.0,3-11B,major
17196,70,72,120,200,3.0,3-11B,major
17197,72,73,80,180,3.0,3-11B,major
17198,77,90,1444,216,3.0,3-11B,major
17199,66,63,420,284,2.0,2-2,other
17200,54,47,868,36,2.0,2-2,other
17201,67,44,572,1788,7.0,2-5,other
17202,70,60,444,212,7.0,2-5,other
17203,74,70,436,192,7.0,2-5,other
17204,74,78,456,788,10.0,1-1,other
17205,67,46,572,424,4.0,2-2,other
17206,70,55,528,180,4.0,2-2,other
17207,74,58,468,216,4.0,2-2,other
17208,62,63,204,188,4.0,2-2,other
17209,67,64,444,184,4.0,2-2,other
17210,74,80,128,384,10.0,3-12,augmented
17211,72,25,60,72,10.0,3-12,augmented
17212,67,66,540,572,3.0,2-5,other
17213,74,86,376,196,3.0,2-5,other
17214,67,63,428,420,3.0,2-1,other
17215,69,54,188,208,3.0,2-1,other
17216,74,63,152,184,3.0,2-1,other
17217,72,58,232,688,2.0,4-12A,major
17218,69,38,152,940,2.0,2-2,other
17219,55,24,216,364,7.0,3-11A,minor
17220,70,41,40,428,7.0,3-11A,minor
17221,72,62,92,40,7.0,3-11A,minor
17222,70,55,92,84,7.0,3-11A,minor
17223,69,57,80,96,7.0,3-11A,minor
17224,70,73,60,100,7.0,3-11A,minor
17225,74,76,168,116,7.0,3-11A,minor
17226,78,94,108,140,7.0,3-11A,minor
17227,81,115,140,144,7.0,3-11A,minor
17228,78,88,96,152,7.0,3-11A,minor
17229,79,84,100,128,7.0,3-11A,minor
17230,81,88,196,128,7.0,3-11A,minor
17231,58,36,52,184,7.0,5-29B,minor
17232,89,87,136,364,0.0,2-1,other
17233,93,102,152,188,0.0,2-1,other
17234,94,40,36,244,9.0,5-24A,minor
17235,96,90,180,248,9.0,5-24A,minor
17236,94,85,196,252,9.0,5-24A,minor
17237,58,36,52,320,7.0,5-29B,minor
17238,93,79,148,216,7.0,5-29B,minor
17239,93,82,124,244,7.0,5-29B,minor
17240,85,73,156,196,7.0,5-29B,minor
17241,84,68,120,452,5.0,2-4,other
17242,84,57,108,200,5.0,2-4,other
17243,82,63,128,188,5.0,2-4,other
17244,81,58,104,436,0.0,4-25,major
17245,81,58,956,200,0.0,4-25,major
17246,26,54,68,244,0.0,4-25,major
17247,62,42,448,1576,7.0,3-11A,minor
17248,67,53,412,200,7.0,3-11A,minor
17249,74,83,424,216,7.0,3-11A,minor
17250,62,51,616,220,7.0,3-11A,minor
17251,67,48,592,220,7.0,3-11A,minor
17252,70,56,564,224,7.0,3-11A,minor
17253,74,66,504,212,7.0,3-11A,minor
17254,64,73,636,200,7.0,3-11A,minor
17255,52,22,112,60,7.0,3-11A,minor
17256,67,58,680,160,7.0,3-11A,minor
17257,70,52,524,216,7.0,3-11A,minor
17258,74,68,500,220,7.0,3-11A,minor
17259,67,61,696,404,9.0,2-5,other
17260,74,78,392,416,10.0,1-1,other
17261,67,60,604,440,3.0,2-1,other
17262,72,63,192,204,3.0,2-1,other
17263,74,62,200,216,3.0,2-1,other
17264,67,55,536,436,3.0,2-1,other
17265,72,49,156,212,3.0,2-1,other
17266,74,57,136,204,3.0,2-1,other
17267,66,48,624,416,3.0,2-1,other
17268,72,52,608,212,3.0,2-1,other
17269,74,51,136,236,3.0,2-1,other
17270,66,52,560,428,3.0,2-1,other
17271,72,56,164,224,3.0,2-1,other
17272,74,50,44,232,3.0,2-1,other
17273,50,39,204,248,7.0,3-4B,other
17274,66,30,44,260,7.0,3-4B,other
17275,50,47,84,200,7.0,3-4B,other
17276,66,31,136,904,7.0,3-11B,major
17277,52,35,40,512,11.0,4-26,minor
17278,68,80,76,1968,2.0,4-26,minor
17279,67,49,432,88,2.0,4-26,minor
17280,50,39,360,220,5.0,3-11B,major
17281,67,62,164,496,5.0,2-4,major
17282,64,62,340,348,7.0,2-2,other
17283,63,60,240,476,7.0,2-2,other
17284,71,111,136,596,2.0,2-3,minor
17285,74,122,176,276,2.0,2-3,minor
17286,86,84,92,588,0.0,2-5,other
17287,56,84,1128,1092,0.0,3-11A,minor
17288,63,52,652,360,0.0,3-11A,minor
17289,72,78,336,324,0.0,3-11A,minor
17290,63,23,296,648,0.0,2-4,other
17291,48,56,172,448,0.0,2-4,other
17292,60,48,304,588,2.0,3-7B,other
17293,48,71,904,892,9.0,2-3,minor
17294,58,80,392,480,9.0,2-3,minor
17295,48,33,184,1820,0.0,5-27B,other
17296,60,39,224,880,3.0,3-7A,other
17297,72,46,92,188,3.0,3-7A,other
17298,75,58,28,168,3.0,3-7A,other
17299,84,120,584,208,3.0,3-7A,other
17300,82,61,196,488,8.0,3-5B,other
17301,67,45,76,724,8.0,2-2,other
17302,67,40,36,496,8.0,4-24,other
17303,55,39,320,328,10.0,3-9,other
17304,67,34,472,904,7.0,3-11A,minor
17305,43,56,940,1196,2.0,5-29B,minor
17306,67,77,156,904,3.0,4-27A,other
17307,66,58,84,288,3.0,4-27A,other
17308,67,66,64,132,3.0,4-27A,other
17309,73,63,128,1280,10.0,5-27A,major
17310,72,56,68,264,10.0,5-27A,major
17311,79,98,164,2656,3.0,4-22A,major
17312,70,71,528,404,3.0,4-22A,major
17313,77,75,212,320,3.0,4-22A,major
17314,79,57,692,856,5.0,3-8A,major
17315,69,48,228,572,5.0,3-8A,major
17316,45,52,60,792,5.0,3-8A,major
17317,47,47,1220,132,5.0,3-8A,major
17318,35,34,292,924,6.0,4-27A,minor
17319,65,58,184,304,6.0,4-27A,minor
17320,63,49,180,248,6.0,4-27A,minor
17321,63,52,868,864,0.0,5-35,other
17322,60,47,284,896,0.0,5-35,other
17323,39,49,1436,428,7.0,3-11A,minor
17324,63,54,156,5040,11.0,3-8B,other
17325,41,30,308,28,11.0,3-8B,other
17326,63,59,612,920,0.0,5-35,other
17327,46,38,212,304,0.0,5-35,other
17328,60,51,192,328,0.0,5-35,other
17329,63,55,176,276,0.0,5-35,other
17330,46,49,136,548,3.0,2-5,other
17331,58,52,800,440,3.0,2-4,major
17332,67,48,96,580,3.0,3-4A,major
17333,64,38,652,620,0.0,4-22A,other
17334,73,56,1252,308,0.0,4-22A,other
17335,49,56,176,1380,4.0,3-8B,other
17336,48,59,232,200,4.0,3-8B,other
17337,63,17,388,348,6.0,4-22B,minor
17338,39,42,56,6344,3.0,4-20,other
17339,42,63,28,96,3.0,4-20,other
17340,44,58,28,52,3.0,4-20,other
17341,46,66,24,44,3.0,4-20,other
17342,49,75,28,44,3.0,4-20,other
17343,51,73,24,44,3.0,4-20,other
17344,54,74,28,48,3.0,4-20,other
17345,56,76,24,36,3.0,4-20,other
17346,58,77,24,36,3.0,4-20,other
17347,61,75,28,48,3.0,4-20,other
17348,63,73,24,40,3.0,4-20,other
17349,66,73,24,52,3.0,4-20,other
17350,68,76,28,36,3.0,4-20,other
17351,70,72,28,36,3.0,4-20,other
17352,73,68,24,60,3.0,4-20,other
17353,75,72,28,40,3.0,4-20,other
17354,78,70,24,56,3.0,4-20,other
17355,80,69,24,40,3.0,4-20,other
17356,82,68,24,40,3.0,4-20,other
17357,85,67,28,56,3.0,4-20,other
17358,87,69,28,40,3.0,4-20,other
17359,90,68,28,52,3.0,4-20,other
17360,92,68,24,40,3.0,4-20,other
17361,94,68,24,36,3.0,4-20,other
17362,97,68,36,52,3.0,4-20,other
17363,99,70,28,40,3.0,4-20,other
17364,102,68,48,52,3.0,4-20,other
17365,104,75,28,40,3.0,4-20,other
17366,106,75,100,32,3.0,4-20,other
17367,107,66,128,108,3.0,4-20,other
17368,39,38,300,2716,7.0,2-5,other
17369,46,44,132,316,7.0,2-5,other
17370,70,53,32,960,10.0,2-1,other
17371,77,39,796,300,10.0,2-1,other
17372,77,5,252,944,10.0,2-1,other
17373,62,12,1336,60,10.0,2-1,other
17374,81,53,192,188,10.0,2-1,other
17375,82,55,104,196,10.0,2-1,other
17376,84,50,116,180,10.0,2-1,other
17377,86,49,120,164,10.0,2-1,other
17378,89,54,148,168,10.0,2-1,other
17379,91,58,140,196,10.0,2-1,other
17380,93,45,100,196,10.0,2-1,other
17381,96,38,168,184,10.0,2-1,other
17382,101,57,196,392,10.0,2-1,other
17383,103,45,188,212,10.0,2-1,other
17384,105,54,148,204,10.0,2-1,other
17385,108,57,180,236,10.0,2-1,other
17386,83,78,47,0,4.0,2-5,other
17387,83,73,48,168,0.0,3-4A,major
17388,56,58,81,192,9.0,4-14A,minor
17389,55,58,218,113,9.0,4-14A,minor
17390,55,74,50,282,9.0,4-14A,minor
17391,54,63,36,50,9.0,4-14A,minor
17392,53,56,39,40,9.0,4-14A,minor
17393,52,53,41,42,9.0,4-14A,minor
17394,48,55,32,310,0.0,2-3,minor
17395,57,78,118,532,6.0,4-28,diminished
17396,77,93,36,565,2.0,4-26,minor
17397,77,79,55,297,5.0,4-19B,other
17398,60,84,88,402,5.0,3-12,augmented
17399,53,64,433,247,8.0,3-10,other
17400,74,56,44,285,5.0,2-5,other
17401,76,81,30,81,5.0,2-5,other
17402,71,27,66,441,4.0,5-10A,other
17403,67,68,50,386,0.0,5-27A,major
17404,67,85,57,97,0.0,5-27A,major
17405,67,77,47,95,0.0,5-27A,major
17406,69,69,93,319,3.0,3-12,augmented
17407,67,73,38,98,3.0,3-12,augmented
17408,55,67,13,225,10.0,1-1,other
17409,81,86,121,290,7.0,4-29A,minor
17410,77,72,55,480,6.0,3-5B,other
17411,73,94,61,68,6.0,3-5B,other
17412,72,84,61,61,6.0,3-5B,other
17413,70,77,73,64,6.0,3-5B,other
17414,69,67,88,80,6.0,3-5B,other
17415,67,58,98,98,6.0,3-5B,other
17416,65,58,51,123,6.0,3-5B,other
17417,64,43,58,56,6.0,3-5B,other
17418,57,53,49,206,2.0,3-7A,minor
17419,65,90,75,581,8.0,2-3,other
17420,65,74,43,97,8.0,2-3,other
17421,65,74,55,101,8.0,2-3,other
17422,59,63,56,494,11.0,4-12B,diminished
17423,32,73,150,292,0.0,5-34,other
17424,71,61,35,982,7.0,1-1,other
17425,70,51,18,41,7.0,1-1,other
17426,76,62,15,100,4.0,4-26,minor
17427,71,57,27,151,7.0,2-4,major
17428,79,76,23,145,4.0,3-11A,minor
17429,71,59,51,172,7.0,2-4,major
17430,70,46,50,62,7.0,2-4,major
17431,69,68,89,183,9.0,5-26A,diminished
17432,71,75,36,210,9.0,2-2,other
17433,60,48,171,96,6.0,5-4B,diminished
17434,55,79,153,141,6.0,5-4B,diminished
17435,50,75,23,591,2.0,4-26,minor
17436,61,89,103,403,2.0,4-26,minor
17437,53,48,65,749,2.0,4-27A,minor
17438,64,60,94,580,0.0,6-24B,other
17439,62,63,42,95,0.0,6-24B,other
17440,79,107,51,288,9.0,5-35,minor
17441,79,84,37,187,4.0,4-23,minor
17442,79,79,35,343,9.0,2-2,other
17443,37,66,30,458,2.0,3-3A,minor
17444,64,58,61,187,3.0,4-24,augmented
17445,43,53,46,452,11.0,3-10,diminished
17446,72,54,49,319,0.0,4-22A,major
17447,72,65,61,289,0.0,5-23A,minor
17448,45,55,130,147,0.0,5-23A,minor
17449,72,64,46,122,6.0,2-6,other
17450,44,1,41,161,0.0,2-1,other
17451,44,6,85,66,0.0,2-1,other
17452,83,69,35,773,0.0,3-4A,major
17453,83,54,34,130,4.0,4-26,minor
17454,43,48,46,138,4.0,2-5,other
17455,55,33,43,351,0.0,3-4A,major
17456,59,71,136,568,6.0,3-10,other
17457,64,56,64,492,2.0,4-26,minor
17458,69,35,17,155,5.0,3-11B,major
17459,72,73,26,32,5.0,3-11B,major
17460,76,77,30,37,5.0,3-11B,major
17461,55,65,57,1040,2.0,4-27A,minor
17462,54,61,63,77,2.0,4-27A,minor
17463,43,60,49,153,4.0,4-18A,major
17464,62,69,30,78,4.0,4-18A,major
17465,79,85,41,233,9.0,5-35,minor
17466,79,80,43,157,4.0,4-26,minor
17467,78,70,33,71,4.0,4-26,minor
17468,81,80,48,383,3.0,4-24,augmented
17469,79,75,26,67,3.0,4-24,augmented
17470,81,75,40,217,7.0,3-11A,minor
17471,46,66,55,226,7.0,4-29A,minor
17472,45,45,74,92,7.0,4-29A,minor
17473,58,67,19,33,7.0,4-29A,minor
17474,66,71,12,135,3.0,2-1,other
17475,69,84,20,74,1.0,4-28,diminished
17476,70,83,10,42,1.0,4-28,diminished
17477,79,106,64,139,3.0,2-1,other
17478,72,61,32,95,2.0,3-7A,minor
17479,68,65,15,50,2.0,3-7A,minor
17480,67,65,34,58,2.0,3-7A,minor
17481,65,79,23,217,0.0,3-4A,other
17482,32,66,152,703,8.0,2-2,other
17483,32,56,46,223,3.0,4-22B,other
17484,55,50,282,991,7.0,2-4,major
17485,48,45,462,691,6.0,5-31B,diminished
17486,59,58,43,92,6.0,5-31B,diminished
17487,60,82,40,60,6.0,5-31B,diminished
17488,65,72,34,151,9.0,2-6,other
17489,66,59,38,45,9.0,2-6,other
17490,68,77,39,55,9.0,2-6,other
17491,71,74,34,113,9.0,2-6,other
17492,74,78,54,111,0.0,1-1,other
17493,77,77,23,115,4.0,2-2,other
17494,65,52,33,61,4.0,2-2,other
17495,65,72,23,52,4.0,2-2,other
17496,76,70,38,120,5.0,4-19B,augmented
17497,74,85,50,111,2.0,3-11A,minor
17498,69,64,21,126,5.0,3-11B,major
17499,50,80,64,239,2.0,3-11A,minor
17500,60,64,53,70,2.0,3-11A,minor
17501,54,53,72,158,7.0,2-5,other
17502,54,68,65,222,2.0,5-15,major
17503,43,79,239,155,5.0,3-11A,other
17504,62,78,47,315,4.0,3-11B,major
17505,64,12,29,27,4.0,3-11B,major
17506,79,78,34,475,2.0,3-9,other
17507,79,79,41,68,2.0,3-9,other
17508,43,57,30,320,9.0,1-1,other
17509,54,50,21,452,5.0,4-19A,augmented
17510,49,60,56,194,9.0,3-3B,other
17511,43,78,123,245,3.0,3-8B,other
17512,59,69,42,153,3.0,3-8B,other
17513,63,69,18,62,3.0,3-8B,other
17514,84,98,130,150,0.0,4-22A,major
17515,61,38,26,358,5.0,5-26B,other
17516,64,1,98,348,0.0,3-4B,other
17517,42,90,69,367,0.0,4-22A,major
17518,43,74,320,83,0.0,4-22A,major
17519,31,101,150,147,0.0,4-22A,major
17520,58,63,19,803,0.0,2-1,other
17521,55,60,55,73,9.0,2-1,other
17522,59,62,41,144,4.0,2-5,other
17523,43,50,79,68,4.0,2-5,other
17524,43,60,70,132,4.0,2-3,minor
17525,43,52,163,259,11.0,2-2,other
17526,43,51,28,202,4.0,3-11A,minor
17527,51,55,19,264,6.0,4-28,diminished
17528,43,68,27,65,6.0,4-28,diminished
17529,43,56,10,68,6.0,4-28,diminished
17530,65,67,30,949,9.0,2-5,other
17531,76,96,206,64,9.0,2-5,other
17532,69,49,13,207,5.0,2-5,other
17533,72,76,56,578,2.0,4-26,minor
17534,72,115,41,280,2.0,4-27A,minor
17535,65,59,56,193,7.0,2-5,other
17536,60,61,45,60,7.0,2-5,other
17537,56,81,60,66,7.0,2-5,other
17538,53,39,46,71,7.0,2-5,other
17539,55,71,72,62,7.0,2-5,other
17540,55,61,66,262,8.0,2-1,other
17541,43,60,55,203,0.0,2-5,other
17542,52,51,17,67,0.0,2-5,other
17543,67,69,37,335,4.0,4-23,minor
17544,59,57,86,197,3.0,3-12,augmented
17545,47,58,177,66,3.0,3-12,augmented
17546,55,73,176,66,3.0,3-12,augmented
17547,58,6,91,248,10.0,2-4,major
17548,57,79,44,155,4.0,1-1,other
17549,58,91,24,42,4.0,1-1,other
17550,66,94,27,88,4.0,2-2,other
17551,69,91,33,40,4.0,2-2,other
17552,66,83,19,40,4.0,2-2,other
17553,69,79,27,79,4.0,4-27A,diminished
17554,70,89,15,42,4.0,4-27A,diminished
17555,77,98,19,90,2.0,2-2,other
17556,81,103,28,43,2.0,2-2,other
17557,65,63,23,565,2.0,3-7A,minor
17558,50,64,67,67,2.0,3-7A,minor
17559,65,71,42,191,0.0,3-4A,other
17560,53,59,23,71,0.0,3-4A,other
17561,51,56,34,381,3.0,3-8B,other
17562,50,40,151,68,3.0,3-8B,other
17563,59,73,26,128,3.0,3-8B,other
17564,59,18,50,40,3.0,3-8B,other
17565,49,58,42,52,3.0,3-8B,other
17566,38,61,43,263,0.0,5-34,other
17567,32,49,54,59,0.0,5-34,other
17568,43,78,35,1340,4.0,3-11A,minor
17569,36,73,8,245,7.0,2-5,other
17570,60,63,28,188,6.0,4-28,diminished
17571,57,69,12,77,6.0,4-28,diminished
17572,74,95,40,378,6.0,4-28,diminished
17573,75,69,50,62,6.0,4-28,diminished
17574,78,57,15,125,8.0,3-10,other
17575,80,84,36,65,8.0,3-10,other
17576,81,53,45,57,8.0,3-10,other
17577,83,80,47,62,8.0,3-10,other
17578,77,47,16,187,9.0,1-1,other
17579,72,54,33,63,9.0,1-1,other
17580,63,43,46,126,9.0,4-26,minor
17581,44,86,41,1286,2.0,5-29B,minor
17582,43,77,212,60,2.0,5-29B,minor
17583,59,59,51,1285,3.0,3-12,augmented
17584,47,74,31,67,3.0,3-12,augmented
17585,46,61,46,463,5.0,3-3B,other
17586,43,73,19,193,4.0,3-5B,other
17587,71,58,22,62,4.0,3-5B,other
17588,76,90,25,64,4.0,3-5B,other
17589,79,101,45,67,4.0,3-5B,other
17590,83,86,37,62,4.0,3-5B,other
17591,59,52,35,64,4.0,3-5B,other
17592,79,74,25,61,4.0,3-5B,other
17593,39,68,103,447,5.0,3-7B,other
17594,38,64,116,121,5.0,3-7B,other
17595,38,73,33,198,4.0,4-27B,major
17596,37,76,115,66,4.0,4-27B,major
17597,67,41,549,0,,,
17598,69,74,636,824,,,
17599,66,68,526,30,,,
17600,64,48,1267,1174,9.0,2-3,minor
17601,74,36,353,1307,7.0,3-11B,major
17602,60,33,773,883,0.0,3-12,augmented
17603,48,32,1007,867,0.0,3-12,augmented
17604,48,20,761,2197,2.0,2-3,minor
17605,55,33,718,3211,6.0,2-6,other
17606,79,64,147,1884,7.0,2-5,other
17607,91,64,48,352,7.0,2-5,other
17608,91,62,409,541,7.0,2-5,other
17609,91,51,508,678,7.0,2-5,other
17610,54,32,338,894,6.0,2-3,other
17611,60,35,422,729,6.0,2-3,other
17612,63,25,464,705,6.0,2-3,other
17613,63,34,480,742,6.0,2-6,other
17614,54,31,462,66,6.0,2-6,other
17615,67,58,522,1204,5.0,3-11B,major
17616,65,41,282,537,5.0,3-11B,major
17617,50,36,1492,3808,7.0,2-2,other
17618,59,30,338,639,7.0,2-2,other
17619,67,81,640,744,7.0,2-2,other
17620,34,77,246,873,7.0,2-2,other
17621,58,71,115,713,7.0,2-2,other
17622,59,58,156,167,7.0,2-2,other
17623,64,60,178,104,7.0,2-2,other
17624,68,54,49,158,7.0,2-2,other
17625,70,53,84,128,7.0,2-2,other
17626,71,70,127,55,7.0,2-2,other
17627,76,61,126,136,7.0,2-2,other
17628,80,48,70,135,7.0,2-2,other
17629,82,62,104,122,7.0,2-2,other
17630,83,68,131,43,7.0,2-2,other
17631,86,64,138,96,7.0,2-2,other
17632,91,33,65,125,7.0,2-2,other
17633,94,39,48,158,7.0,2-2,other
17634,98,61,627,108,11.0,2-2,other
17635,103,81,658,145,11.0,2-2,other
17636,101,74,388,406,11.0,2-2,other
17637,100,76,317,284,11.0,2-2,other
17638,98,57,258,260,11.0,2-2,other
17639,99,55,231,682,9.0,2-4,major
17640,94,49,351,442,1.0,5-31B,other
17641,93,57,255,403,1.0,5-31B,other
17642,91,57,229,928,9.0,2-6,other
17643,91,45,273,469,9.0,2-6,other
17644,57,40,515,1491,4.0,2-2,other
17645,62,28,337,521,10.0,3-11B,major
17646,60,38,328,505,10.0,3-11B,major
17647,50,28,725,1094,5.0,3-11B,major
17648,53,20,945,691,3.0,3-12,augmented
17649,68,46,539,815,3.0,3-12,augmented
17650,36,53,513,1363,3.0,3-12,augmented
17651,43,46,120,473,3.0,3-12,augmented
17652,39,52,1735,692,6.0,3-5B,other
17653,46,36,1745,27,6.0,3-5B,other
17654,67,27,1246,3862,8.0,1-1,other
17655,53,28,901,66,1.0,3-8B,other
17656,79,61,1469,3916,9.0,3-11A,minor
17657,78,38,1086,377,9.0,3-11A,minor
17658,76,48,488,1602,5.0,2-4,major
17659,74,35,437,873,3.0,3-12,augmented
17660,86,61,212,957,1.0,2-1,other
17661,70,36,265,1160,0.0,1-1,other
17662,67,35,471,576,0.0,1-1,other
17663,60,45,177,448,0.0,1-1,other
17664,68,48,229,486,0.0,1-1,other
17665,64,30,252,616,0.0,1-1,other
17666,58,30,531,35,0.0,1-1,other
17667,69,41,815,637,2.0,2-3,minor
17668,53,24,1679,26,2.0,2-3,minor
17669,61,46,598,511,2.0,2-3,minor
17670,69,43,848,623,0.0,3-6,major
17671,53,48,450,653,0.0,3-6,major
17672,72,63,225,657,0.0,3-6,major
17673,71,57,499,690,6.0,3-10,other
17674,71,65,437,650,6.0,3-10,other
17675,69,58,134,539,6.0,3-10,other
17676,47,34,264,641,6.0,3-10,other
17677,79,45,504,1403,4.0,2-5,other
17678,59,25,334,65,7.0,2-5,other
17679,27,49,176,1705,7.0,2-4,major
17680,78,44,414,1055,7.0,2-4,major
17681,75,62,355,816,1.0,5-25B,other
17682,57,53,295,759,6.0,3-10,other
17683,50,41,2117,824,5.0,3-4A,major
17684,62,64,571,742,5.0,3-4A,major
17685,57,68,198,1377,2.0,3-7A,minor
17686,62,58,667,1692,2.0,5-35,minor
17687,41,40,1442,1265,2.0,5-35,minor
17688,48,41,1209,141,2.0,5-35,minor
17689,71,44,1273,172,7.0,2-5,other
17690,72,55,340,1444,7.0,2-5,other
17691,55,19,268,716,4.0,3-7A,minor
17692,56,53,1428,1843,7.0,2-5,other
17693,77,95,664,760,7.0,2-5,other
17694,69,56,365,2754,0.0,2-2,other
17695,70,52,405,37,0.0,2-2,other
17696,67,50,321,425,0.0,2-2,other
17697,65,54,469,455,0.0,2-2,other
17698,64,48,362,456,0.0,2-2,other
17699,65,40,1116,486,0.0,2-2,other
17700,50,33,1663,28,0.0,2-2,other
17701,60,13,593,53,0.0,2-2,other
17702,57,39,1173,474,0.0,2-2,other
17703,62,35,301,562,0.0,2-2,other
17704,76,66,1526,551,0.0,2-2,other
17705,62,28,120,1188,5.0,3-4A,major
17706,74,57,1725,3191,4.0,3-5B,other
17707,72,38,185,1739,4.0,3-5B,other
17708,36,30,481,60,4.0,3-5B,other
17709,43,24,280,403,4.0,3-5B,other
17710,57,44,96,1882,7.0,2-5,other
17711,64,38,355,863,7.0,2-4,major
17712,59,30,145,959,7.0,2-5,other
17713,55,36,1223,1089,4.0,3-7A,minor
17714,62,58,449,4555,2.0,3-11A,minor
17715,62,51,314,596,2.0,3-11A,minor
17716,62,57,238,445,4.0,2-5,other
17717,64,62,297,1087,5.0,3-11B,major
17718,62,49,278,1992,2.0,5-35,minor
17719,67,55,343,706,2.0,5-35,minor
17720,55,36,620,67,4.0,3-7B,other
17721,74,76,341,734,4.0,3-7B,other
17722,62,32,1653,719,4.0,2-3,minor
17723,71,35,791,554,4.0,2-3,minor
17724,55,37,1182,52,4.0,2-3,minor
17725,76,74,745,638,4.0,2-3,minor
17726,62,7,276,890,7.0,2-5,other
17727,57,46,608,3424,2.0,3-7A,minor
17728,64,58,448,1011,2.0,3-11A,minor
17729,63,56,477,403,2.0,3-11A,minor
17730,62,44,477,511,2.0,3-11A,minor
17731,61,51,560,488,2.0,3-11A,minor
17732,60,42,1622,583,8.0,3-10,other
17733,59,40,277,1614,4.0,4-18A,major
17734,31,38,568,1208,4.0,4-18A,major
17735,72,37,175,1981,4.0,4-18A,major
17736,74,57,1107,287,4.0,4-18A,major
17737,67,100,960,2109,4.0,4-15B,other
17738,70,32,52,1048,4.0,4-15B,other
17739,82,69,106,522,4.0,3-11A,minor
17740,46,45,141,1623,4.0,3-11A,minor
17741,65,30,275,1340,9.0,3-5B,other
17742,61,39,1270,681,4.0,3-10,diminished
17743,65,58,1372,1283,4.0,3-10,diminished
17744,44,42,106,2342,0.0,3-8B,other
17745,60,39,747,560,2.0,2-2,other
17746,66,37,304,539,2.0,2-2,other
17747,55,33,157,1272,7.0,3-7B,other
17748,43,24,850,741,7.0,3-7B,other
17749,31,38,155,750,7.0,3-7B,other
17750,64,40,1430,1320,7.0,3-7B,other
17751,62,28,1435,90,7.0,3-7B,other
17752,36,24,1881,84,7.0,2-4,major
17753,67,48,388,2006,9.0,2-5,other
17754,69,68,349,443,9.0,2-5,other
17755,71,74,330,412,9.0,2-5,other
17756,58,48,267,2166,0.0,3-12,augmented
17757,53,25,794,665,2.0,3-11A,minor
17758,74,58,526,539,2.0,3-11A,minor
17759,60,30,1425,60,2.0,3-11A,minor
17760,72,55,293,254,2.0,3-11A,minor
17761,69,44,374,991,9.0,3-2B,minor
17762,79,51,138,1256,9.0,3-2B,minor
17763,67,30,154,360,9.0,3-2B,minor
17764,52,28,177,364,9.0,3-2B,minor
17765,58,27,228,436,9.0,3-2B,minor
17766,82,50,232,405,9.0,3-2B,minor
17767,78,39,353,1012,6.0,2-3,minor
17768,60,26,171,90,6.0,2-3,minor
17769,79,64,305,2227,9.0,2-3,minor
17770,78,73,235,417,9.0,2-3,minor
17771,77,72,287,340,9.0,2-3,minor
17772,73,52,265,701,5.0,3-11B,major
17773,69,41,306,380,5.0,3-11B,major
17774,74,52,401,380,5.0,3-11B,major
17775,72,49,375,433,5.0,3-11B,major
17776,69,40,194,432,5.0,3-11B,major
17777,65,50,432,438,5.0,3-11B,major
17778,62,40,107,456,5.0,3-11B,major
17779,50,25,1971,651,5.0,4-22A,major
17780,57,37,988,645,5.0,4-22A,major
17781,60,38,594,565,5.0,4-22A,major
17782,62,34,362,551,5.0,4-22A,major
17783,43,28,4950,591,5.0,4-22A,major
17784,56,51,245,110,5.0,4-22A,major
17785,64,47,248,238,11.0,2-6,other
17786,76,68,688,552,11.0,2-6,other
17787,76,40,1652,877,11.0,2-6,other
17788,76,29,1111,2028,11.0,2-6,other
17789,36,19,192,2183,4.0,2-3,minor
17790,52,31,168,945,4.0,2-3,minor
17791,55,45,164,550,4.0,2-3,minor
17792,60,47,154,1039,9.0,2-2,other
17793,50,32,218,289,9.0,2-2,other
17794,64,32,181,1877,0.0,2-2,other
17795,58,39,203,34,0.0,2-2,other
17796,76,49,51,641,1.0,2-6,other
17797,58,52,175,238,1.0,2-6,other
17798,48,37,223,30,1.0,2-6,other
17799,61,37,802,935,1.0,2-6,other
17800,56,48,631,36,1.0,2-6,other
17801,48,17,116,1018,2.0,2-3,minor
17802,74,89,524,628,2.0,2-3,minor
17803,72,66,318,608,2.0,3-7A,minor
17804,71,31,72,459,2.0,3-7A,minor
17805,53,16,418,2193,0.0,3-6,other
17806,50,58,514,2957,6.0,4-28,diminished
17807,53,43,400,560,5.0,3-11B,major
17808,72,50,369,1024,5.0,3-4A,major
17809,62,43,351,372,5.0,3-4A,major
17810,86,71,208,2145,4.0,3-5B,other
17811,83,54,194,284,4.0,3-5B,other
17812,84,60,221,280,4.0,3-5B,other
17813,62,18,379,63,9.0,3-5B,other
17814,82,42,172,255,9.0,3-5B,other
17815,79,47,158,298,9.0,3-5B,other
17816,76,35,182,249,9.0,3-5B,other
17817,74,51,180,305,8.0,2-6,other
17818,69,47,562,1320,3.0,2-4,major
17819,50,51,75,948,9.0,2-2,other
17820,72,52,380,370,5.0,3-4A,major
17821,67,45,626,2887,5.0,3-8A,major
17822,55,20,347,988,4.0,3-7B,other
17823,52,24,221,3873,0.0,2-5,other
17824,67,64,3093,232,0.0,2-5,other
17825,59,30,956,662,0.0,2-4,major
17826,57,73,887,986,0.0,2-4,major
17827,56,37,265,982,0.0,2-4,major
17828,69,55,357,328,0.0,2-4,major
17829,71,60,228,293,0.0,2-4,major
17830,58,33,245,383,4.0,1-1,other
17831,48,57,144,584,4.0,1-1,other
17832,60,36,457,1300,0.0,3-12,augmented
17833,62,36,353,517,0.0,3-12,augmented
17834,62,11,258,1448,2.0,2-5,other
17835,58,57,397,379,2.0,2-5,other
17836,69,55,182,486,2.0,3-9,other
17837,55,29,426,3934,11.0,2-3,minor
17838,52,1,322,154,11.0,2-3,minor
17839,61,39,247,1050,2.0,3-3A,major
17840,57,49,388,687,6.0,4-28,diminished
17841,54,40,301,645,6.0,4-28,diminished
17842,50,25,143,342,5.0,3-11B,major
17843,53,28,146,49,5.0,3-11B,major
17844,94,48,77,1288,5.0,3-5B,other
17845,95,66,173,183,5.0,3-5B,other
17846,94,51,214,116,5.0,3-5B,other
17847,59,27,94,160,4.0,2-4,major
17848,53,17,77,92,4.0,2-4,major
17849,91,50,70,56,4.0,2-4,major
17850,89,49,133,202,4.0,2-4,major
17851,86,58,181,363,4.0,2-4,major
17852,85,67,242,193,4.0,2-4,major
17853,43,30,277,49,4.0,2-4,major
17854,53,15,351,42,4.0,2-4,major
17855,83,60,180,138,4.0,2-4,major
17856,82,48,140,215,4.0,2-4,major
17857,81,47,150,226,4.0,2-4,major
17858,80,45,137,164,4.0,2-4,major
17859,74,54,90,517,7.0,2-5,other
17860,74,66,1424,575,7.0,2-5,other
17861,43,35,1196,5857,4.0,4-18A,major
17862,43,59,325,1623,4.0,5-35,minor
17863,43,57,889,413,4.0,5-35,minor
17864,55,79,417,607,4.0,5-35,minor
17865,79,62,190,551,4.0,5-35,minor
17866,55,26,305,53,4.0,5-35,minor
17867,79,32,358,626,7.0,1-1,other
17868,53,34,336,4563,0.0,4-16A,other
17869,53,47,722,893,0.0,4-19B,other
17870,31,44,616,944,0.0,4-19B,other
17871,60,42,359,236,0.0,4-19B,other
17872,43,31,542,63,8.0,2-3,other
17873,31,33,289,599,8.0,2-3,other
17874,43,34,592,963,7.0,4-13B,other
17875,43,34,1347,991,11.0,2-3,minor
17876,51,31,345,574,4.0,4-23,minor
17877,52,60,883,366,7.0,3-9,other
17878,43,59,226,927,7.0,3-9,other
17879,67,36,148,1481,4.0,3-8B,other
17880,70,69,95,269,4.0,3-8B,other
17881,72,44,61,167,4.0,3-8B,other
17882,73,30,85,98,4.0,3-8B,other
17883,75,56,114,74,4.0,3-8B,other
17884,76,55,123,162,4.0,3-8B,other
17885,78,36,49,151,4.0,3-8B,other
17886,79,26,94,165,4.0,3-8B,other
17887,81,40,143,117,4.0,3-8B,other
17888,82,35,150,111,4.0,3-8B,other
17889,83,33,58,157,4.0,3-8B,other
17890,84,62,165,120,4.0,3-8B,other
17891,55,18,1349,267,10.0,3-11A,other
17892,81,61,90,214,10.0,3-11A,other
17893,79,54,83,243,10.0,3-11A,other
17894,78,61,149,232,10.0,3-11A,other
17895,76,47,147,254,10.0,3-11A,other
17896,75,57,143,219,10.0,3-11A,other
17897,74,51,149,247,10.0,3-11A,other
17898,73,44,142,236,10.0,3-11A,other
17899,65,58,158,558,2.0,2-3,minor
17900,55,53,265,328,2.0,2-3,minor
17901,43,55,474,349,2.0,2-3,minor
17902,43,34,259,625,2.0,4-26,minor
17903,31,41,353,4458,5.0,4-14A,other
17904,56,61,521,2588,0.0,4-22A,major
17905,52,28,495,1914,9.0,3-7B,other
17906,59,32,370,1891,8.0,2-2,other
17907,67,49,153,1379,7.0,2-2,other
17908,69,51,162,166,7.0,2-2,other
17909,67,36,153,126,7.0,2-2,other
17910,66,49,115,120,7.0,2-2,other
17911,53,22,261,118,7.0,2-2,other
17912,67,37,180,61,7.0,2-2,other
17913,69,40,151,178,7.0,2-2,other
17914,67,33,185,139,7.0,2-2,other
17915,66,48,116,168,7.0,2-2,other
17916,67,37,234,183,7.0,2-2,other
17917,43,27,326,35,7.0,2-2,other
17918,36,38,191,138,7.0,2-2,other
17919,64,39,646,974,7.0,2-2,other
17920,67,90,1014,650,0.0,2-1,other
17921,64,44,504,285,0.0,2-1,other
17922,69,64,565,325,9.0,2-3,minor
17923,56,35,237,671,4.0,3-11A,minor
17924,60,20,110,28,4.0,3-11A,minor
17925,58,46,928,916,0.0,3-12,augmented
17926,58,28,857,2939,4.0,3-8B,other
17927,73,1,182,178,4.0,3-8B,other
17928,41,32,302,1652,0.0,2-5,other
17929,54,37,875,979,0.0,4-18A,minor
17930,39,33,530,30,0.0,4-18A,minor
17931,54,29,102,946,0.0,4-18A,minor
17932,47,33,241,934,9.0,3-10,diminished
17933,62,49,530,1084,7.0,2-5,other
17934,72,37,328,943,6.0,3-10,minor
17935,55,32,396,1897,5.0,3-11B,major
17936,50,49,162,615,5.0,3-11B,major
17937,43,31,1508,365,5.0,3-11B,major
17938,43,37,372,2054,5.0,4-22A,major
17939,43,52,266,664,5.0,4-22A,major
17940,31,66,166,896,5.0,4-22A,major
17941,64,63,164,1073,3.0,5-33,augmented
17942,72,68,422,1326,9.0,5-26A,diminished
17943,57,46,329,1517,4.0,2-3,minor
17944,67,52,183,1048,10.0,4-16A,major
17945,69,38,153,297,10.0,4-16A,major
17946,70,42,133,268,10.0,4-16A,major
17947,74,71,154,252,10.0,4-16A,major
17948,77,60,144,299,10.0,4-16A,major
17949,81,81,167,255,10.0,4-16A,major
17950,82,83,211,268,10.0,4-16A,major
17951,45,57,149,282,10.0,4-16A,major
17952,82,59,178,945,7.0,4-27A,minor
17953,81,68,160,299,7.0,4-27A,minor
17954,81,61,185,285,7.0,4-27A,minor
17955,79,51,151,595,7.0,2-3,minor
17956,77,60,161,269,7.0,2-3,minor
17957,77,51,196,307,7.0,2-3,minor
17958,76,49,133,284,7.0,2-3,minor
17959,75,59,202,294,7.0,2-3,minor
17960,69,33,467,925,5.0,2-1,other
17961,53,24,159,2084,2.0,3-11A,minor
17962,57,54,68,320,2.0,3-11A,minor
17963,60,41,94,276,2.0,3-11A,minor
17964,62,48,168,299,2.0,3-11A,minor
17965,38,34,240,35,2.0,3-11A,minor
17966,53,36,146,3075,4.0,3-11B,major
17967,53,30,117,452,4.0,3-11B,major
17968,51,51,1055,1169,0.0,3-4A,other
17969,55,39,169,295,0.0,3-4A,other
17970,58,52,132,237,0.0,3-4A,other
17971,60,53,143,206,0.0,3-4A,other
17972,63,64,100,183,0.0,3-4A,other
17973,65,68,161,171,0.0,3-4A,other
17974,67,69,197,141,0.0,3-4A,other
17975,70,74,120,168,0.0,3-4A,other
17976,72,55,123,178,0.0,3-4A,other
17977,75,74,111,140,0.0,3-4A,other
17978,77,67,148,191,0.0,3-4A,other
17979,79,51,154,135,0.0,3-4A,other
17980,82,71,110,172,0.0,3-4A,other
17981,84,59,126,167,0.0,3-4A,other
17982,87,50,82,171,0.0,3-4A,other
17983,89,50,152,189,0.0,3-4A,other
17984,91,58,148,141,0.0,3-4A,other
17985,94,57,104,202,0.0,3-4A,other
17986,96,60,124,177,0.0,3-4A,other
17987,99,56,116,191,0.0,3-4A,other
17988,101,58,175,223,0.0,3-4A,other
17989,103,67,184,219,0.0,3-4A,other
17990,104,67,179,264,0.0,3-4A,other
17991,106,63,284,293,0.0,3-4A,other
17992,107,74,872,302,0.0,3-4A,other
17993,43,29,108,1468,9.0,2-3,minor
17994,55,24,3615,667,9.0,2-3,minor
17995,57,41,3280,401,9.0,2-3,minor
17996,62,36,285,312,9.0,2-3,minor
17997,66,46,220,338,9.0,2-3,minor
17998,69,35,740,350,9.0,2-3,minor
17999,69,28,145,1064,9.0,2-3,minor
18000,74,57,196,242,9.0,2-3,minor
18001,78,59,180,253,9.0,2-3,minor
18002,79,58,148,235,9.0,2-3,minor
18003,78,53,239,222,9.0,2-3,minor
18004,74,57,129,237,9.0,2-3,minor
18005,69,32,141,250,9.0,2-3,minor
18006,66,34,221,262,9.0,2-3,minor
18007,62,1,625,534,9.0,2-3,minor
18008,64,25,3529,615,9.0,2-3,minor
18009,62,85,32,0,,,
18010,61,69,25,33,,,
18011,50,48,184,97,7.0,2-5,other
18012,57,50,82,62,7.0,2-5,other
18013,67,64,32,57,7.0,2-5,other
18014,63,81,49,241,3.0,2-4,major
18015,52,62,141,119,9.0,2-5,other
18016,69,57,49,116,7.0,2-4,major
18017,78,77,21,251,5.0,3-12,augmented
18018,59,42,199,113,4.0,3-7A,minor
18019,71,70,3,153,11.0,1-1,other
18020,53,59,66,330,10.0,3-4A,major
18021,64,63,49,234,11.0,3-8B,other
18022,62,38,63,64,11.0,3-8B,other
18023,52,56,8,179,9.0,5-27B,minor
18024,74,111,25,116,0.0,4-20,major
18025,68,11,28,116,0.0,4-22A,other
18026,69,56,8,95,5.0,4-22A,major
18027,67,58,15,57,3.0,4-22A,major
18028,50,65,124,95,2.0,3-11B,major
18029,57,68,48,62,2.0,3-11B,major
18030,69,76,28,53,2.0,3-11B,major
18031,46,69,85,125,5.0,2-4,other
18032,74,70,175,360,4.0,3-7A,minor
18033,57,59,123,120,2.0,3-8A,major
18034,74,100,27,121,2.0,2-2,other
18035,79,112,29,121,11.0,3-7A,minor
18036,79,80,12,121,0.0,4-16A,other
18037,72,70,19,114,5.0,5-30B,other
18038,50,58,129,247,7.0,2-4,major
18039,67,70,43,130,11.0,2-3,minor
18040,56,71,37,108,1.0,4-23,other
18041,56,74,49,58,1.0,4-23,other
18042,52,74,109,184,9.0,3-11A,minor
18043,69,71,54,118,9.0,3-11A,minor
18044,59,47,118,360,0.0,4-20,major
18045,71,68,59,115,4.0,2-3,minor
18046,76,56,8,506,2.0,3-11B,major
18047,71,61,27,480,9.0,4-26,minor
18048,57,60,27,71,0.0,4-22A,other
18049,55,55,29,59,8.0,4-18A,diminished
18050,53,50,29,59,6.0,4-18A,diminished
18051,51,57,31,58,4.0,4-18A,diminished
18052,49,68,22,70,2.0,3-11B,major
18053,49,72,38,43,2.0,3-11B,major
18054,47,74,51,110,2.0,3-7B,other
18055,63,58,56,216,3.0,2-5,other
18056,52,68,107,131,9.0,4-23,minor
18057,74,74,52,114,4.0,2-3,minor
18058,62,57,13,116,0.0,5-30B,augmented
18059,50,60,53,337,4.0,2-5,other
18060,72,79,23,152,10.0,2-5,other
18061,75,66,7,31,10.0,2-5,other
18062,55,55,64,274,3.0,3-11B,major
18063,62,72,7,55,3.0,3-11B,major
18064,67,112,17,29,3.0,3-11B,major
18065,63,70,25,82,7.0,4-23,minor
18066,62,68,27,33,7.0,4-23,minor
18067,67,55,19,67,3.0,2-5,other
18068,74,90,20,32,3.0,2-5,other
18069,74,69,24,34,3.0,2-5,other
18070,41,61,16,97,5.0,3-11A,other
18071,58,59,10,125,0.0,3-11B,other
18072,56,77,92,120,4.0,5-27B,minor
18073,44,91,28,120,11.0,3-3A,minor
18074,43,90,14,42,11.0,3-3A,minor
18075,52,68,12,289,6.0,3-11A,minor
18076,39,50,13,866,7.0,1-1,other
18077,55,44,5,365,9.0,4-26,minor
18078,43,70,174,202,7.0,3-11A,minor
18079,51,69,31,37,7.0,3-11A,minor
18080,51,48,22,83,4.0,3-8B,other
18081,50,74,34,37,4.0,3-8B,other
18082,45,76,11,39,4.0,3-8B,other
18083,69,88,11,43,4.0,3-8B,other
18084,69,92,17,33,4.0,3-8B,other
18085,74,108,30,85,9.0,6-40B,minor
18086,62,62,10,276,2.0,1-1,other
18087,38,74,12,358,9.0,5-27B,minor
18088,44,64,18,119,6.0,4-28,diminished
18089,74,112,48,127,7.0,5-27A,major
18090,74,59,15,84,11.0,4-14A,minor
18091,79,105,21,36,11.0,4-14A,minor
18092,88,88,23,332,9.0,3-7B,other
18093,69,112,205,146,0.0,4-20,major
18094,57,65,74,119,5.0,2-5,other
18095,51,65,39,122,6.0,3-10,minor
18096,71,107,22,244,11.0,2-3,minor
18097,68,77,30,81,1.0,5-32A,other
18098,58,89,22,123,0.0,4-19A,minor
18099,57,71,35,40,0.0,4-19A,minor
18100,76,65,14,237,2.0,2-5,other
18101,58,55,34,241,2.0,4-18A,minor
18102,58,52,36,77,4.0,4-26,minor
18103,56,48,34,82,9.0,4-26,minor
18104,42,59,25,71,0.0,4-20,major
18105,72,79,21,456,2.0,3-11B,major
18106,50,74,106,734,2.0,1-1,other
18107,50,80,82,123,11.0,3-11A,minor
18108,67,58,46,596,7.0,2-4,major
18109,69,87,25,462,9.0,4-26,minor
18110,69,64,28,34,9.0,4-26,minor
18111,47,75,13,89,5.0,4-27B,major
18112,52,64,14,382,4.0,3-11A,minor
18113,58,77,32,209,0.0,4-19A,minor
18114,54,63,82,127,11.0,2-3,minor
18115,76,39,7,153,2.0,2-5,other
18116,72,79,22,225,8.0,3-10,other
18117,71,77,26,29,8.0,3-10,other
18118,71,78,33,186,0.0,2-4,major
18119,72,77,32,37,0.0,2-4,major
18120,72,71,34,86,2.0,4-29A,minor
18121,69,63,22,163,3.0,4-24,augmented
18122,77,104,64,330,8.0,4-26,other
18123,72,81,30,37,8.0,4-26,other
18124,74,83,25,86,0.0,5-27A,other
18125,73,79,28,31,0.0,5-27A,other
18126,74,76,18,84,9.0,5-23A,minor
18127,74,74,20,39,9.0,5-23A,minor
18128,62,64,29,28,9.0,5-23A,minor
18129,62,67,94,42,9.0,5-23A,minor
18130,74,75,22,34,9.0,5-23A,minor
18131,62,56,27,88,2.0,1-1,other
18132,62,66,29,39,2.0,1-1,other
18133,62,60,21,80,2.0,2-2,other
18134,74,92,31,36,2.0,2-2,other
18135,57,73,6,120,2.0,2-4,major
18136,46,88,9,121,8.0,2-1,other
18137,52,81,67,81,5.0,5-30B,other
18138,38,71,12,121,1.0,6-39B,minor
18139,62,56,20,540,3.0,2-4,major
18140,64,52,12,64,9.0,4-15A,other
18141,76,75,19,139,0.0,3-4B,other
18142,47,69,8,248,6.0,2-3,other
18143,52,78,24,234,4.0,3-7B,other
18144,69,88,26,115,1.0,4-26,minor
18145,58,78,35,104,0.0,4-19A,minor
18146,71,75,20,349,4.0,4-25,other
18147,74,82,21,29,4.0,4-25,other
18148,79,88,21,29,4.0,4-25,other
18149,86,77,23,88,4.0,4-15B,other
18150,84,103,22,32,4.0,4-15B,other
18151,86,99,21,56,9.0,4-14A,minor
18152,86,87,29,174,11.0,2-1,other
18153,53,77,44,323,11.0,4-26,minor
18154,54,91,113,38,11.0,4-26,minor
18155,69,77,24,81,2.0,2-5,other
18156,47,69,20,35,2.0,2-5,other
18157,52,67,77,83,8.0,4-26,other
18158,46,62,22,150,1.0,3-9,other
18159,62,72,16,208,7.0,2-5,other
18160,58,75,32,128,11.0,2-3,minor
18161,57,66,30,39,11.0,2-3,minor
18162,69,68,19,108,6.0,5-31B,diminished
18163,47,52,42,725,3.0,3-4A,major
18164,65,87,20,251,3.0,2-1,other
18165,72,70,19,89,3.0,2-5,other
18166,56,47,52,182,10.0,2-5,other
18167,58,79,31,258,7.0,3-7B,other
18168,58,79,17,40,7.0,3-7B,other
18169,67,77,15,137,10.0,4-20,major
18170,71,70,48,86,9.0,5-27A,major
18171,69,69,29,155,3.0,4-29A,other
18172,46,103,132,233,7.0,4-29A,minor
18173,46,98,109,174,0.0,4-20,other
18174,46,98,131,123,8.0,4-18A,diminished
18175,67,89,18,169,7.0,3-11A,minor
18176,62,75,79,377,9.0,4-26,minor
18177,63,80,28,76,6.0,2-6,other
18178,66,81,24,67,2.0,2-3,minor
18179,70,79,27,64,7.0,2-5,other
18180,69,83,34,29,7.0,2-5,other
18181,74,83,20,57,10.0,4-20,major
18182,77,95,18,29,10.0,4-20,major
18183,81,92,20,27,10.0,4-20,major
18184,82,70,20,26,10.0,4-20,major
18185,39,83,9,451,7.0,2-5,other
18186,38,80,11,423,0.0,4-20,major
18187,46,69,47,539,1.0,3-8A,other
18188,69,70,37,122,9.0,4-26,minor
18189,65,68,17,269,4.0,3-2A,minor
18190,69,64,17,64,9.0,3-8B,other
18191,69,38,10,32,9.0,3-8B,other
18192,71,44,12,61,4.0,3-5A,other
18193,76,76,12,26,4.0,3-5A,other
18194,79,92,10,29,4.0,3-5A,other
18195,79,95,10,93,7.0,2-4,major
18196,52,75,53,27,7.0,2-4,major
18197,72,74,13,263,7.0,4-22A,major
18198,57,55,34,79,11.0,2-3,minor
18199,59,67,37,41,11.0,2-3,minor
18200,62,68,26,37,11.0,2-3,minor
18201,74,60,13,74,11.0,2-5,other
18202,65,82,15,324,9.0,2-2,other
18203,60,50,38,114,0.0,3-4B,other
18204,57,67,7,36,0.0,3-4B,other
18205,72,75,82,88,2.0,5-24A,minor
18206,63,55,11,169,3.0,2-4,major
18207,54,84,175,94,11.0,4-26,minor
18208,69,67,24,100,2.0,3-11B,major
18209,47,77,16,36,2.0,3-11B,major
18210,56,81,35,125,9.0,2-1,other
18211,46,78,34,77,5.0,3-8B,other
18212,55,86,134,146,2.0,4-26,minor
18213,74,87,18,84,10.0,3-1,other
18214,60,53,25,133,10.0,2-1,other
18215,62,50,19,52,10.0,2-1,other
18216,46,55,38,216,0.0,2-3,minor
18217,65,75,54,228,0.0,2-5,other
18218,46,57,63,239,3.0,2-4,major
18219,55,57,55,65,3.0,2-4,major
18220,63,53,26,292,2.0,2-3,minor
18221,50,55,42,130,7.0,4-22A,major
18222,50,39,113,533,7.0,3-4B,other
18223,50,47,6,242,4.0,4-26,minor
18224,72,66,25,0,2.0,6-32,minor
18225,72,67,20,49,2.0,6-32,minor
18226,72,50,11,57,2.0,6-32,minor
18227,84,88,58,58,2.0,6-32,minor
18228,84,44,40,65,2.0,6-32,minor
18229,84,34,17,61,2.0,6-32,minor
18230,60,39,9,237,8.0,5-34,other
18231,52,35,84,182,9.0,4-27B,major
18232,69,67,55,118,1.0,3-10,diminished
18233,57,36,206,127,2.0,2-3,minor
18234,57,38,97,215,0.0,2-4,major
18235,76,49,47,119,2.0,3-11A,minor
18236,57,49,16,133,11.0,4-23,minor
18237,79,81,26,99,2.0,3-11A,minor
18238,77,69,20,27,2.0,3-11A,minor
18239,80,53,47,124,6.0,6-38,other
18240,80,34,19,57,6.0,6-38,other
18241,80,38,18,38,6.0,6-38,other
18242,77,60,60,204,2.0,4-23,minor
18243,77,44,75,238,8.0,4-28,diminished
18244,57,54,27,166,7.0,3-7A,minor
18245,74,76,25,98,7.0,2-3,minor
18246,79,57,17,60,2.0,2-3,minor
18247,55,24,4,63,0.0,3-7B,other
18248,66,36,27,122,7.0,2-3,minor
18249,65,40,25,30,7.0,2-3,minor
18250,46,60,22,95,5.0,5-26B,other
18251,53,64,9,27,5.0,5-26B,other
18252,58,55,91,27,5.0,5-26B,other
18253,65,68,39,61,5.0,4-19B,other
18254,51,36,17,63,10.0,3-11A,other
18255,56,51,69,327,1.0,4-22B,other
18256,24,68,62,238,0.0,4-27B,major
18257,60,90,21,63,0.0,4-27B,major
18258,84,56,36,183,2.0,5-35,minor
18259,84,61,17,57,2.0,5-35,minor
18260,60,36,34,53,2.0,5-35,minor
18261,72,73,297,67,2.0,5-35,minor
18262,52,54,7,530,9.0,3-11B,major
18263,57,44,191,250,2.0,3-7A,minor
18264,79,79,26,131,5.0,3-4A,major
18265,57,44,189,108,5.0,2-5,other
18266,77,51,60,109,2.0,3-11A,minor
18267,56,33,16,127,8.0,4-26,other
18268,77,47,24,120,5.0,4-29B,other
18269,80,44,33,133,0.0,5-30B,other
18270,80,60,16,104,3.0,3-9,other
18271,56,63,72,129,2.0,3-7A,minor
18272,32,71,14,95,5.0,2-5,other
18273,66,43,33,207,10.0,4-24,augmented
18274,53,42,38,187,1.0,5-34,other
18275,72,45,37,355,0.0,4-24,augmented
18276,71,60,14,175,2.0,5-35,minor
18277,72,65,7,26,2.0,5-35,minor
18278,79,60,14,29,2.0,5-35,minor
18279,77,47,6,34,2.0,5-35,minor
18280,74,69,12,80,9.0,2-1,other
18281,72,57,10,34,9.0,2-1,other
18282,62,37,20,76,5.0,2-4,major
18283,60,37,58,28,5.0,2-4,major
18284,41,55,9,56,5.0,2-4,major
18285,77,54,18,157,3.0,5-27A,major
18286,77,50,28,35,3.0,5-27A,major
18287,23,46,27,165,5.0,4-24,augmented
18288,57,24,8,185,10.0,3-11B,major
18289,62,49,41,55,10.0,3-11B,major
18290,88,62,26,183,2.0,4-22A,major
18291,86,54,15,147,0.0,5-30B,other
18292,52,33,39,97,9.0,2-4,major
18293,76,44,34,91,11.0,2-2,other
18294,61,37,52,26,11.0,2-2,other
18295,75,64,25,134,1.0,5-27A,other
18296,73,40,13,82,1.0,5-26A,other
18297,51,33,137,131,0.0,2-4,other
18298,55,44,110,32,0.0,2-4,other
18299,74,54,39,202,0.0,6-40A,major
18300,50,46,14,120,11.0,5-24A,minor
18301,79,72,22,195,7.0,3-4A,major
18302,78,59,12,31,7.0,3-4A,major
18303,74,54,17,28,7.0,3-4A,major
18304,71,30,11,30,7.0,3-4A,major
18305,69,52,30,85,2.0,2-4,major
18306,67,46,29,33,2.0,2-4,major
18307,59,44,25,73,2.0,2-2,other
18308,50,48,28,51,2.0,2-2,other
18309,50,46,55,92,7.0,2-2,other
18310,58,70,22,108,7.0,4-26,minor
18311,55,43,9,124,0.0,3-8A,major
18312,48,47,127,243,2.0,5-35,minor
18313,57,57,49,62,2.0,5-35,minor
18314,77,78,52,57,2.0,5-35,minor
18315,44,57,12,119,8.0,4-27B,other
18316,65,66,28,103,10.0,4-22A,major
18317,76,50,35,149,5.0,5-30B,augmented
18318,76,38,26,52,5.0,5-30B,augmented
18319,76,47,25,56,5.0,5-30B,augmented
18320,63,36,49,135,5.0,4-16A,major
18321,62,36,41,51,5.0,4-16A,major
18322,74,35,23,45,5.0,4-16A,major
18323,44,50,37,130,1.0,4-27B,other
18324,53,55,32,63,1.0,4-27B,other
18325,55,52,46,56,1.0,4-27B,other
18326,56,34,250,120,1.0,5-26A,minor
18327,68,42,36,110,1.0,4-27A,minor
18328,72,57,26,140,9.0,3-7A,minor
18329,72,61,31,54,9.0,3-7A,minor
18330,72,57,13,58,9.0,3-7A,minor
18331,48,37,101,123,5.0,3-11B,major
18332,47,39,23,135,2.0,3-11B,major
18333,82,67,13,189,0.0,2-2,other
18334,82,55,24,59,0.0,4-16A,other
18335,45,41,68,81,6.0,3-5B,other
18336,57,40,310,263,2.0,2-3,minor
18337,62,46,30,52,2.0,2-3,minor
18338,67,66,19,29,2.0,2-3,minor
18339,74,85,21,27,2.0,2-3,minor
18340,72,80,24,27,2.0,2-3,minor
18341,65,50,33,157,5.0,3-9,other
18342,57,38,6,156,11.0,2-6,other
18343,62,45,58,36,11.0,2-6,other
18344,65,13,7,177,7.0,3-2A,minor
18345,53,38,99,289,5.0,3-11B,major
18346,65,64,41,115,9.0,2-3,minor
18347,48,54,83,852,2.0,4-23,minor
18348,76,81,37,228,2.0,5-27A,major
18349,74,64,24,130,0.0,5-30B,other
18350,52,51,52,115,9.0,3-11B,major
18351,72,48,21,235,10.0,5-27A,major
18352,82,77,19,745,8.0,2-2,other
18353,84,68,19,73,0.0,4-16A,other
18354,82,37,23,45,0.0,4-16A,other
18355,45,61,56,122,6.0,3-5B,other
18356,49,35,38,126,9.0,5-31B,major
18357,74,75,15,121,2.0,3-11A,minor
18358,74,79,22,39,2.0,3-11A,minor
18359,72,32,10,44,2.0,3-11A,minor
18360,74,74,27,35,2.0,3-11A,minor
18361,65,63,220,163,7.0,2-2,other
18362,65,74,31,274,11.0,3-7A,minor
18363,46,39,18,278,8.0,4-26,other
18364,69,42,13,121,2.0,4-26,minor
18365,76,58,21,70,0.0,2-4,major
18366,79,71,15,41,0.0,2-4,major
18367,86,56,16,85,4.0,4-27B,major
18368,24,37,16,446,10.0,2-4,major
18369,75,79,38,172,4.0,4-25,other
18370,60,39,90,427,10.0,3-11B,major
18371,54,43,31,72,10.0,3-11B,major
18372,48,36,74,487,4.0,5-29B,diminished
18373,84,64,16,118,5.0,4-20,major
18374,84,64,22,85,0.0,2-5,other
18375,72,48,17,39,0.0,2-5,other
18376,72,54,25,39,0.0,2-5,other
18377,84,74,17,40,0.0,2-5,other
18378,84,83,19,39,0.0,2-5,other
18379,84,62,17,68,9.0,5-18A,other
18380,72,50,12,29,9.0,5-18A,other
18381,72,50,12,31,9.0,5-18A,other
18382,82,58,23,67,7.0,4-29A,minor
18383,46,37,37,140,10.0,1-1,other
18384,36,30,8,1109,1.0,6-39A,minor
18385,39,37,28,112,0.0,6-39A,augmented
18386,72,113,17,208,10.0,4-16A,other
18387,77,92,25,36,10.0,4-16A,other
18388,77,82,25,41,10.0,4-16A,other
18389,67,54,19,404,1.0,2-2,other
18390,65,56,5,38,1.0,2-2,other
18391,41,53,16,789,9.0,2-3,minor
18392,72,55,8,123,3.0,4-20,major
18393,89,90,33,287,3.0,2-4,major
18394,53,26,33,161,2.0,3-7A,minor
18395,74,34,10,82,2.0,3-7A,minor
18396,88,35,21,182,4.0,4-15B,other
18397,75,88,20,300,1.0,4-23,minor
18398,75,71,20,79,0.0,5-27A,other
18399,75,63,26,36,0.0,5-27A,other
18400,77,55,21,80,7.0,5-15,major
18401,75,71,125,38,7.0,5-15,major
18402,74,8,14,349,9.0,5-29B,diminished
18403,66,25,74,259,2.0,2-4,major
18404,54,32,16,36,2.0,2-4,major
18405,64,85,16,73,11.0,2-3,minor
18406,54,35,75,79,11.0,2-3,minor
18407,52,44,19,110,7.0,2-5,other
18408,58,46,33,122,9.0,3-7A,minor
18409,62,58,12,145,10.0,3-4A,major
18410,65,79,16,31,10.0,3-4A,major
18411,67,48,28,233,9.0,4-18A,major
18412,69,62,18,195,5.0,3-11B,major
18413,72,73,20,28,5.0,3-11B,major
18414,73,50,22,32,5.0,3-11B,major
18415,77,55,25,62,2.0,4-15B,other
18416,82,67,13,27,2.0,4-15B,other
18417,86,71,16,28,2.0,4-15B,other
18418,94,68,18,60,2.0,4-15B,other
18419,96,78,12,30,2.0,4-15B,other
18420,48,55,53,1094,9.0,4-23,minor
18421,48,43,92,117,9.0,4-23,minor
18422,48,51,55,121,6.0,4-28,diminished
18423,47,44,12,117,6.0,4-28,diminished
18424,45,57,6,345,6.0,3-5B,other
18425,57,38,74,371,2.0,3-11A,minor
18426,79,68,17,28,2.0,3-11A,minor
18427,65,49,19,78,5.0,2-5,other
18428,65,55,16,36,5.0,2-5,other
18429,77,62,21,79,5.0,2-4,major
18430,79,60,27,239,5.0,4-20,other
18431,77,49,15,37,5.0,4-20,other
18432,49,39,50,473,8.0,2-3,other
18433,42,25,19,332,8.0,4-27B,minor
18434,65,63,14,151,7.0,3-3A,major
18435,24,66,10,44,7.0,3-3A,major
18436,48,60,27,403,0.0,2-4,major
18437,41,59,4,35,0.0,2-4,major
18438,76,53,23,119,2.0,5-27A,major
18439,74,54,33,85,0.0,5-30B,other
18440,64,42,39,122,9.0,3-11B,major
18441,66,58,22,110,1.0,3-7A,minor
18442,65,55,58,136,11.0,6-40A,diminished
18443,86,76,13,164,0.0,3-8A,major
18444,57,40,6,150,10.0,4-11A,major
18445,67,37,13,159,10.0,2-1,other
18446,52,48,14,411,7.0,3-5B,other
18447,45,67,18,26,7.0,3-5B,other
18448,65,68,40,548,7.0,2-5,other
18449,48,35,15,124,2.0,3-11A,minor
18450,67,15,10,382,8.0,3-10,other
18451,62,48,28,30,8.0,3-10,other
18452,68,56,12,31,8.0,3-10,other
18453,71,61,13,26,8.0,3-10,other
18454,44,78,12,284,2.0,4-26,minor
18455,55,49,10,406,10.0,4-20,major
18456,70,52,13,123,1.0,5-31B,diminished
18457,67,35,12,58,9.0,4-18A,major
18458,61,35,7,118,3.0,4-18A,major
18459,62,34,5,60,5.0,4-19B,other
18460,51,61,10,62,10.0,3-11A,other
18461,39,59,40,32,10.0,3-11A,other
18462,26,57,33,76,10.0,3-11A,other
18463,54,35,19,239,6.0,3-5B,other
18464,43,36,21,125,4.0,6-17A,other
18465,43,31,51,117,3.0,4-19B,other
18466,43,38,62,121,0.0,5-26A,augmented
18467,72,88,24,82,1.0,4-28,diminished
18468,74,80,11,36,1.0,4-28,diminished
18469,84,73,61,82,2.0,5-27B,minor
18470,83,15,21,45,2.0,5-27B,minor
18471,79,78,18,123,9.0,2-1,other
18472,62,53,12,218,5.0,2-4,major
18473,60,61,14,30,5.0,2-4,major
18474,85,80,10,302,9.0,3-8A,major
18475,79,68,21,165,9.0,4-18A,major
18476,57,44,93,200,2.0,2-3,minor
18477,50,47,15,34,2.0,2-3,minor
18478,60,35,33,81,5.0,3-11B,major
18479,57,45,79,80,5.0,3-11B,major
18480,65,50,5,208,0.0,2-1,other
18481,50,44,15,827,0.0,2-4,other
18482,48,40,13,563,9.0,4-23,minor
18483,41,32,189,38,9.0,4-23,minor
18484,48,61,26,206,2.0,4-23,minor
18485,48,63,53,41,2.0,4-23,minor
18486,41,81,12,41,2.0,4-23,minor
18487,41,40,10,471,5.0,5-30B,augmented
18488,45,63,53,689,1.0,4-23,minor
18489,52,56,16,45,1.0,4-23,minor
18490,45,47,44,287,1.0,4-27B,other
18491,67,49,11,245,0.0,3-11A,minor
18492,74,79,16,29,0.0,3-11A,minor
18493,72,49,16,73,11.0,3-2A,minor
18494,74,70,25,37,11.0,3-2A,minor
18495,77,57,22,77,6.0,2-3,other
18496,78,58,29,42,6.0,2-3,other
18497,78,45,16,77,7.0,2-4,major
18498,66,23,27,116,4.0,3-9,other
18499,62,34,17,40,4.0,3-9,other
18500,66,43,164,89,4.0,4-14A,minor
18501,59,40,26,36,4.0,4-14A,minor
18502,59,60,23,41,4.0,4-14A,minor
18503,59,57,18,31,4.0,4-14A,minor
18504,44,53,21,60,11.0,2-3,minor
18505,73,21,9,233,7.0,4-27A,minor
18506,74,42,22,366,2.0,4-14A,minor
18507,80,61,14,337,5.0,2-5,other
18508,81,66,15,26,5.0,2-5,other
18509,88,62,17,65,4.0,3-5B,other
18510,81,54,14,41,4.0,3-5B,other
18511,88,57,10,43,4.0,3-5B,other
18512,88,65,19,38,4.0,3-5B,other
18513,88,50,11,82,9.0,2-2,other
18514,88,61,17,39,9.0,2-2,other
18515,88,55,10,81,5.0,4-16A,major
18516,88,62,20,39,5.0,4-16A,major
18517,80,51,27,41,5.0,4-16A,major
18518,79,69,24,118,10.0,3-4A,major
18519,77,40,22,78,7.0,2-5,other
18520,79,68,23,42,7.0,2-5,other
18521,81,55,21,83,4.0,4-25,other
18522,82,67,24,37,4.0,4-25,other
18523,86,75,21,80,0.0,3-1,other
18524,83,54,23,41,0.0,3-1,other
18525,72,51,51,122,5.0,3-11B,major
18526,63,78,40,159,2.0,2-2,other
18527,52,54,7,661,5.0,5-22,augmented
18528,51,39,19,28,5.0,5-22,augmented
18529,38,47,103,98,2.0,4-26,minor
18530,48,55,169,117,2.0,4-26,minor
18531,36,50,130,116,2.0,4-26,minor
18532,79,50,20,304,11.0,2-6,other
18533,77,48,14,71,11.0,2-6,other
18534,77,33,23,109,7.0,3-5B,other
18535,74,54,17,33,7.0,3-5B,other
18536,79,55,19,69,7.0,2-2,other
18537,57,64,36,209,5.0,3-11B,major
18538,50,24,44,191,8.0,3-10,minor
18539,55,49,9,358,7.0,3-11A,minor
18540,46,65,83,663,11.0,4-27A,diminished
18541,44,62,44,200,9.0,5-27A,major
18542,31,62,17,98,7.0,4-26,minor
18543,24,89,22,116,1.0,5-26A,minor
18544,53,40,23,599,5.0,5-34,major
18545,45,53,8,397,9.0,3-11B,major
18546,57,30,84,470,5.0,2-5,other
18547,46,64,198,133,5.0,2-5,other
18548,51,26,31,87,5.0,2-5,other
18549,65,66,19,120,7.0,2-3,minor
18550,50,32,16,715,6.0,4-29A,other
18551,67,66,21,201,8.0,4-27B,minor
18552,65,54,29,38,8.0,4-27B,minor
18553,48,24,103,94,0.0,4-27B,major
18554,36,76,23,67,0.0,4-27B,major
18555,46,83,28,81,0.0,4-27B,major
18556,39,57,9,39,0.0,4-27B,major
18557,81,41,13,87,5.0,4-16A,other
18558,54,62,167,118,5.0,2-5,other
18559,54,39,32,230,2.0,4-26,minor
18560,72,64,20,353,4.0,4-27A,diminished
18561,74,55,17,32,4.0,4-27A,diminished
18562,81,75,19,37,4.0,4-27A,diminished
18563,84,52,13,79,7.0,2-5,other
18564,89,66,22,65,5.0,3-6,major
18565,84,66,18,37,5.0,3-6,major
18566,81,37,11,40,5.0,3-6,major
18567,84,59,21,83,2.0,2-5,other
18568,79,60,22,37,2.0,2-5,other
18569,75,54,32,48,2.0,2-5,other
18570,77,44,25,98,3.0,4-16A,major
18571,75,60,22,38,3.0,4-16A,major
18572,65,53,78,89,10.0,2-4,major
18573,65,36,26,147,7.0,3-11A,minor
18574,61,30,8,87,7.0,3-3A,minor
18575,70,57,12,60,1.0,3-3A,minor
18576,67,41,9,61,9.0,4-18A,major
18577,63,23,55,156,9.0,4-26,minor
18578,61,31,25,106,2.0,4-26,minor
18579,53,45,42,138,2.0,2-5,other
18580,65,60,19,117,5.0,2-4,major
18581,47,33,5,31,5.0,2-4,major
18582,93,83,20,474,3.0,2-1,other
18583,88,60,16,61,7.0,2-2,other
18584,84,48,21,28,7.0,2-2,other
18585,81,40,16,32,7.0,2-2,other
18586,81,46,14,72,3.0,4-16A,major
18587,84,71,50,26,3.0,4-16A,major
18588,81,49,16,38,3.0,4-16A,major
18589,80,59,26,67,3.0,4-16A,major
18590,77,46,24,35,3.0,4-16A,major
18591,50,43,26,238,7.0,2-5,other
18592,65,63,24,72,7.0,3-11A,minor
18593,47,51,34,39,7.0,3-11A,minor
18594,52,71,28,245,3.0,2-5,other
18595,53,51,18,84,9.0,4-26,minor
18596,29,36,154,788,5.0,4-21,major
18597,47,60,18,297,2.0,2-2,other
18598,74,65,38,246,0.0,5-30B,other
18599,52,54,76,119,9.0,2-4,major
18600,73,71,31,120,9.0,2-5,other
18601,58,48,51,128,1.0,5-27A,other
18602,73,44,22,120,3.0,4-19A,augmented
18603,51,56,88,116,0.0,2-4,other
18604,67,66,38,116,0.0,2-5,other
18605,74,68,32,131,4.0,4-23,minor
18606,72,63,20,110,9.0,5-29B,diminished
18607,47,44,31,606,4.0,3-10,diminished
18608,72,58,54,589,5.0,2-4,major
18609,54,35,9,104,8.0,4-27B,other
18610,60,35,160,42,8.0,4-27B,other
18611,31,30,23,238,4.0,4-5B,other
18612,31,55,26,40,4.0,4-5B,other
18613,76,82,31,186,4.0,3-5B,other
18614,76,92,25,57,4.0,3-5B,other
18615,75,71,18,33,4.0,3-5B,other
18616,67,38,44,148,1.0,6-34A,other
18617,67,53,35,58,1.0,6-34A,other
18618,67,47,18,45,1.0,6-34A,other
18619,72,90,11,525,0.0,1-1,other
18620,45,80,7,465,7.0,6-32,minor
18621,50,48,31,460,5.0,3-11B,major
18622,48,43,70,132,5.0,3-11B,major
18623,60,38,25,50,5.0,3-11B,major
18624,46,65,10,81,5.0,2-5,other
18625,79,76,41,108,5.0,4-20,other
18626,77,65,19,53,5.0,4-20,other
18627,80,45,27,189,0.0,2-4,other
18628,79,42,26,214,0.0,4-19B,other
18629,77,46,20,36,0.0,4-19B,other
18630,72,48,13,76,2.0,4-27A,minor
18631,72,48,11,29,2.0,4-27A,minor
18632,67,47,15,26,2.0,4-27A,minor
18633,68,36,64,70,0.0,4-16A,other
18634,65,51,43,38,0.0,4-16A,other
18635,60,64,44,72,0.0,4-16A,other
18636,65,95,13,182,8.0,4-27B,minor
18637,67,95,30,31,8.0,4-27B,minor
18638,65,71,25,31,8.0,4-27B,minor
18639,84,74,13,178,0.0,1-1,other
18640,84,39,29,73,10.0,6-34A,augmented
18641,72,62,34,144,2.0,5-35,minor
18642,72,55,24,54,2.0,5-35,minor
18643,72,50,15,58,2.0,5-35,minor
18644,51,55,9,95,0.0,3-4A,other
18645,44,54,23,237,5.0,3-4A,other
18646,53,49,29,30,5.0,3-4A,other
18647,56,45,117,29,5.0,3-4A,other
18648,63,44,41,60,5.0,2-5,other
18649,42,50,5,117,5.0,3-5B,other
18650,60,36,33,59,3.0,2-5,other
18651,64,50,1787,0,9.0,3-3A,major
18652,72,66,549,2308,0.0,1-1,other
18653,36,43,59,385,1.0,2-1,other
18654,36,40,61,400,1.0,2-1,other
18655,36,31,50,361,1.0,2-1,other
18656,36,39,96,398,1.0,2-1,other
18657,36,33,83,374,1.0,2-1,other
18658,36,46,473,804,0.0,2-1,other
18659,36,39,44,773,0.0,2-4,major
18660,48,49,373,356,0.0,2-4,major
18661,51,60,354,369,0.0,2-4,major
18662,43,46,32,770,0.0,3-7B,other
18663,36,40,2002,383,0.0,3-7B,other
18664,24,39,405,388,4.0,2-6,other
18665,60,61,212,772,4.0,2-6,other
18666,64,39,337,1177,9.0,3-7A,minor
18667,39,25,181,771,5.0,4-19A,augmented
18668,58,34,482,566,5.0,4-16A,other
18669,69,90,107,180,5.0,4-16A,other
18670,69,89,110,177,5.0,4-16A,other
18671,74,94,51,389,5.0,3-4A,other
18672,50,46,70,993,9.0,3-11A,minor
18673,26,40,14,499,0.0,4-29B,other
18674,72,74,128,1040,8.0,4-21,other
18675,69,63,88,280,8.0,4-21,other
18676,69,52,275,444,8.0,4-21,other
18677,50,47,141,235,7.0,4-26,minor
18678,58,51,2498,349,2.0,2-5,other
18679,69,50,153,219,2.0,1-1,other
18680,67,42,906,495,2.0,1-1,other
18681,69,45,64,106,2.0,1-1,other
18682,70,60,38,66,2.0,1-1,other
18683,74,76,53,73,2.0,1-1,other
18684,84,87,90,95,2.0,1-1,other
18685,81,79,64,92,2.0,1-1,other
18686,82,75,56,94,2.0,1-1,other
18687,96,89,67,200,2.0,1-1,other
18688,94,83,156,91,2.0,1-1,other
18689,85,62,60,92,2.0,1-1,other
18690,84,59,54,103,2.0,1-1,other
18691,82,63,127,194,2.0,1-1,other
18692,81,63,158,206,2.0,1-1,other
18693,84,56,141,174,2.0,1-1,other
18694,72,57,96,378,5.0,4-16A,other
18695,70,59,115,380,5.0,2-5,other
18696,55,21,126,266,10.0,4-14A,other
18697,69,56,277,286,10.0,4-14A,other
18698,60,50,877,532,9.0,2-6,other
18699,61,48,791,81,9.0,2-6,other
18700,65,43,700,81,9.0,2-6,other
18701,67,56,16,118,9.0,2-6,other
18702,72,58,50,124,9.0,2-6,other
18703,73,61,28,60,9.0,2-6,other
18704,77,61,29,58,9.0,2-6,other
18705,79,81,29,54,9.0,2-6,other
18706,84,78,49,83,9.0,2-6,other
18707,85,66,31,43,9.0,2-6,other
18708,85,58,42,50,9.0,2-6,other
18709,89,41,46,60,9.0,2-6,other
18710,91,48,65,58,9.0,2-6,other
18711,91,45,36,91,9.0,2-6,other
18712,91,49,85,83,9.0,2-6,other
18713,93,64,72,98,9.0,2-6,other
18714,93,60,57,110,9.0,2-6,other
18715,91,61,9,79,9.0,2-6,other
18716,52,47,183,300,9.0,3-7B,other
18717,57,52,82,187,9.0,3-7B,other
18718,43,49,316,2714,10.0,3-9,other
18719,57,48,73,340,10.0,3-9,other
18720,69,73,130,2904,6.0,2-3,minor
18721,45,75,70,186,6.0,2-3,minor
18722,64,115,86,764,5.0,4-24,augmented
18723,64,83,52,152,5.0,4-24,augmented
18724,64,71,33,74,5.0,4-24,augmented
18725,64,62,19,68,5.0,4-24,augmented
18726,45,56,294,282,2.0,6-32,minor
18727,62,57,70,966,4.0,5-25B,minor
18728,70,68,46,868,9.0,1-1,other
18729,84,81,89,175,10.0,2-4,major
18730,69,46,40,233,2.0,2-5,other
18731,74,60,32,96,7.0,2-3,minor
18732,77,79,42,44,7.0,2-3,minor
18733,84,89,46,50,7.0,2-3,minor
18734,82,76,32,57,7.0,2-3,minor
18735,73,63,116,121,7.0,2-3,minor
18736,71,39,133,131,7.0,2-3,minor
18737,73,53,172,329,0.0,4-15B,other
18738,70,49,154,190,0.0,4-15B,other
18739,64,43,28,114,0.0,4-15B,other
18740,58,28,245,3364,2.0,6-48,minor
18741,26,70,64,740,0.0,2-5,other
18742,54,42,31,653,10.0,5-30B,other
18743,45,56,92,1299,10.0,4-24,augmented
18744,67,64,60,2164,6.0,1-1,other
18745,69,74,59,59,6.0,1-1,other
18746,70,71,38,57,6.0,1-1,other
18747,74,78,108,96,6.0,1-1,other
18748,78,68,74,99,6.0,1-1,other
18749,57,38,325,120,2.0,2-5,other
18750,78,54,50,81,2.0,2-5,other
18751,79,56,83,83,2.0,2-5,other
18752,81,57,76,90,2.0,2-5,other
18753,82,62,56,93,2.0,2-5,other
18754,55,39,1025,59,2.0,2-5,other
18755,86,39,49,68,2.0,2-5,other
18756,90,49,79,92,2.0,2-5,other
18757,93,59,46,100,2.0,2-5,other
18758,90,56,63,301,10.0,3-4A,major
18759,91,58,60,88,10.0,3-4A,major
18760,93,74,60,82,10.0,3-4A,major
18761,94,66,55,103,10.0,3-4A,major
18762,95,75,80,108,10.0,3-4A,major
18763,96,72,80,107,10.0,3-4A,major
18764,99,71,144,335,1.0,2-3,other
18765,60,36,657,242,5.0,3-4A,other
18766,97,56,117,128,5.0,3-4A,other
18767,39,47,32,990,5.0,3-4A,other
18768,58,32,169,383,5.0,4-16A,other
18769,55,33,156,409,5.0,4-19B,other
18770,52,72,329,2697,1.0,3-10,other
18771,74,31,81,1166,5.0,4-16A,major
18772,74,71,21,1000,5.0,2-5,other
18773,96,55,29,404,11.0,2-3,minor
18774,56,29,767,349,4.0,1-1,other
18775,55,25,143,1701,5.0,5-26A,augmented
18776,63,30,118,744,0.0,6-33A,other
18777,79,57,70,4368,5.0,4-16A,other
18778,81,74,69,107,5.0,4-16A,other
18779,84,120,154,128,5.0,4-16A,other
18780,86,87,179,486,11.0,4-22B,minor
18781,84,63,682,253,11.0,4-22B,minor
18782,75,50,137,583,11.0,4-22B,minor
18783,74,43,162,185,11.0,4-22B,minor
18784,72,122,315,2217,10.0,4-20,major
18785,71,50,75,279,10.0,4-20,major
18786,70,63,120,54,10.0,4-20,major
18787,69,48,132,140,10.0,4-20,major
18788,68,56,82,497,10.0,3-4A,major
18789,66,50,69,143,10.0,3-4A,major
18790,65,50,61,89,10.0,3-4A,major
18791,65,66,88,129,10.0,3-4A,major
18792,65,85,172,242,10.0,3-4A,major
18793,64,48,72,162,10.0,3-4A,major
18794,63,50,98,68,10.0,3-4A,major
18795,62,50,87,94,10.0,3-4A,major
18796,62,52,331,165,10.0,3-4A,major
18797,72,83,80,952,5.0,4-20,other
18798,69,46,92,126,5.0,4-20,other
18799,70,54,75,133,5.0,4-20,other
18800,56,35,44,159,5.0,3-4A,other
18801,73,60,36,119,5.0,3-4A,other
18802,77,57,40,144,5.0,3-4A,other
18803,85,73,78,349,5.0,2-5,other
18804,60,47,128,171,5.0,3-4A,other
18805,85,51,81,93,5.0,3-4A,other
18806,84,71,425,142,5.0,3-4A,other
18807,55,40,143,56,5.0,3-4A,other
18808,55,40,121,255,5.0,3-4A,other
18809,55,40,552,242,5.0,3-4A,other
18810,82,72,84,710,5.0,3-4A,other
18811,78,65,93,257,0.0,4-20,major
18812,79,57,84,53,0.0,4-20,major
18813,75,63,101,180,0.0,4-20,major
18814,76,60,95,71,0.0,4-20,major
18815,72,58,143,194,0.0,4-20,major
18816,71,46,168,233,0.0,4-20,major
18817,53,49,122,598,2.0,2-2,other
18818,72,48,204,144,2.0,2-2,other
18819,69,68,75,212,2.0,2-2,other
18820,65,49,205,143,2.0,2-2,other
18821,78,68,111,4728,4.0,2-6,other
18822,74,59,66,114,4.0,2-6,other
18823,64,66,166,1139,9.0,4-23,minor
18824,59,43,175,1322,3.0,4-24,augmented
18825,37,53,90,559,3.0,4-24,augmented
18826,44,46,775,86,3.0,4-24,augmented
18827,46,34,48,95,3.0,4-24,augmented
18828,53,45,30,39,3.0,4-24,augmented
18829,36,86,321,1017,10.0,4-22A,major
18830,67,44,58,3908,5.0,2-4,other
18831,69,57,45,129,5.0,2-4,other
18832,72,98,90,130,5.0,2-4,other
18833,73,92,154,135,5.0,2-4,other
18834,74,77,98,236,5.0,2-4,other
18835,72,48,240,172,5.0,2-4,other
18836,54,31,66,269,9.0,3-11A,minor
18837,67,39,173,241,9.0,3-11A,minor
18838,66,54,197,236,9.0,3-11A,minor
18839,60,42,46,312,6.0,3-2A,other
18840,60,23,73,257,2.0,2-4,major
18841,81,73,224,719,8.0,2-2,other
18842,64,26,84,80,6.0,2-6,other
18843,60,49,61,223,6.0,3-8B,other
18844,57,35,154,462,10.0,4-20,major
18845,57,37,125,269,10.0,3-11B,major
18846,57,38,566,304,10.0,4-20,major
18847,57,52,71,1102,10.0,2-4,major
18848,58,57,50,118,10.0,2-4,major
18849,62,54,37,148,10.0,2-4,major
18850,66,75,83,107,10.0,2-4,major
18851,57,25,80,164,10.0,4-20,major
18852,66,53,72,96,10.0,4-20,major
18853,67,74,88,124,10.0,4-20,major
18854,69,60,76,132,10.0,3-4A,major
18855,70,62,86,137,10.0,3-4A,major
18856,72,74,108,124,10.0,3-4A,major
18857,73,65,70,132,5.0,4-20,other
18858,84,85,104,398,0.0,2-4,other
18859,85,80,92,124,0.0,2-4,other
18860,60,38,175,168,5.0,4-20,other
18861,82,49,66,106,5.0,4-20,other
18862,72,39,40,1137,5.0,4-16A,other
18863,73,57,68,108,5.0,4-16A,other
18864,79,87,120,272,5.0,4-16A,other
18865,77,55,88,128,5.0,4-16A,other
18866,77,65,108,260,5.0,4-16A,other
18867,74,31,37,183,5.0,4-16A,other
18868,60,50,211,483,0.0,2-1,other
18869,79,88,94,95,0.0,2-1,other
18870,76,44,49,135,0.0,2-1,other
18871,76,61,70,296,0.0,4-20,major
18872,67,35,47,390,7.0,2-4,major
18873,60,25,41,466,6.0,1-1,other
18874,62,52,127,1278,5.0,1-1,other
18875,62,45,81,774,5.0,4-16A,major
18876,69,38,35,765,0.0,5-30B,other
18877,81,41,96,1733,0.0,5-27A,major
18878,82,56,88,32,0.0,5-27A,major
18879,83,49,48,92,0.0,5-27A,major
18880,81,57,251,167,0.0,5-27A,major
18881,76,55,212,517,2.0,5-35,minor
18882,79,57,189,258,2.0,5-35,minor
18883,74,60,115,525,10.0,4-20,major
18884,67,57,505,251,10.0,4-20,major
18885,60,64,75,2813,9.0,4-23,minor
18886,62,64,96,111,9.0,4-23,minor
18887,62,68,103,140,9.0,4-23,minor
18888,64,63,94,119,9.0,4-23,minor
18889,65,55,103,263,10.0,4-16A,major
18890,65,68,83,142,10.0,4-16A,major
18891,65,63,71,119,10.0,4-16A,major
18892,67,81,61,150,10.0,2-4,major
18893,69,68,73,130,10.0,2-4,major
18894,69,75,76,126,10.0,2-4,major
18895,70,69,92,124,9.0,3-11A,minor
18896,70,82,58,127,9.0,3-11A,minor
18897,72,73,78,123,9.0,3-11A,minor
18898,72,81,159,152,9.0,3-11A,minor
18899,72,55,178,402,7.0,3-9,other
18900,67,56,37,1695,5.0,4-16A,other
18901,72,67,78,132,5.0,4-16A,other
18902,73,81,86,135,5.0,4-16A,other
18903,75,96,69,135,5.0,4-16A,other
18904,74,79,322,37,5.0,4-16A,other
18905,70,42,191,524,0.0,1-1,other
18906,70,57,177,419,9.0,2-3,minor
18907,65,36,37,235,9.0,2-3,minor
18908,89,87,63,882,0.0,2-5,other
18909,90,69,96,76,0.0,2-5,other
18910,89,63,50,76,0.0,2-5,other
18911,88,48,25,71,0.0,2-5,other
18912,87,69,84,67,0.0,2-5,other
18913,81,69,43,153,0.0,2-1,other
18914,78,68,59,86,0.0,2-1,other
18915,77,57,59,67,0.0,2-1,other
18916,76,63,47,67,0.0,2-1,other
18917,72,68,62,159,4.0,2-1,other
18918,69,50,35,81,4.0,2-1,other
18919,66,39,85,104,4.0,2-1,other
18920,65,90,219,350,5.0,2-4,major
18921,58,32,54,54,5.0,2-4,major
18922,64,50,80,139,5.0,2-4,major
18923,63,55,106,68,5.0,2-4,major
18924,62,54,68,102,5.0,2-4,major
18925,53,33,39,38,5.0,2-4,major
18926,58,57,149,86,5.0,2-4,major
18927,57,53,75,152,5.0,2-4,major
18928,60,71,101,130,5.0,2-4,major
18929,57,46,59,135,5.0,2-4,major
18930,58,49,82,98,5.0,2-4,major
18931,62,60,65,135,5.0,2-4,major
18932,66,68,90,101,5.0,2-4,major
18933,69,72,94,115,5.0,2-4,major
18934,66,52,72,121,5.0,2-4,major
18935,69,57,88,224,7.0,3-11A,minor
18936,70,63,61,119,7.0,3-11A,minor
18937,74,76,103,107,7.0,3-11A,minor
18938,58,33,53,69,7.0,3-11A,minor
18939,78,68,84,49,7.0,3-11A,minor
18940,81,80,75,130,7.0,3-11A,minor
18941,83,84,136,273,10.0,3-4A,major
18942,60,39,87,853,5.0,3-11B,other
18943,58,22,147,1115,7.0,2-1,other
18944,60,43,31,4331,2.0,3-11A,minor
18945,61,57,73,53,2.0,3-11A,minor
18946,84,120,190,2098,10.0,4-16A,major
18947,82,84,125,275,10.0,4-16A,major
18948,80,50,87,204,10.0,4-16A,major
18949,81,63,95,38,10.0,4-16A,major
18950,64,29,31,147,10.0,2-1,other
18951,82,63,112,594,4.0,2-2,other
18952,81,63,83,92,4.0,2-2,other
18953,81,63,90,204,7.0,3-11A,minor
18954,82,65,81,115,7.0,3-11A,minor
18955,84,73,90,124,7.0,3-11A,minor
18956,88,68,68,248,6.0,3-5B,other
18957,91,86,96,143,6.0,3-5B,other
18958,66,49,28,64,6.0,3-5B,other
18959,61,39,64,28,6.0,3-5B,other
18960,96,111,95,75,6.0,3-5B,other
18961,94,81,95,135,6.0,3-5B,other
18962,91,75,79,270,2.0,4-26,minor
18963,91,80,87,269,9.0,3-11A,minor
18964,89,83,83,146,9.0,3-11A,minor
18965,88,68,64,305,4.0,4-5B,other
18966,85,57,76,141,4.0,4-5B,other
18967,86,68,89,124,4.0,4-5B,other
18968,84,60,213,139,4.0,4-5B,other
18969,57,46,546,240,10.0,4-20,major
18970,84,58,152,148,10.0,4-20,major
18971,84,71,102,206,10.0,4-20,major
18972,81,58,73,174,10.0,4-20,major
18973,81,75,86,190,10.0,4-20,major
18974,77,75,116,163,10.0,2-4,major
18975,77,82,99,232,3.0,2-4,other
18976,75,59,108,177,3.0,3-8B,other
18977,75,68,105,194,3.0,3-8B,other
18978,70,42,29,1171,0.0,3-11B,major
18979,62,41,32,783,0.0,2-4,other
18980,57,48,100,128,0.0,2-4,other
18981,62,31,33,243,5.0,2-5,other
18982,72,48,70,173,5.0,3-4A,major
18983,65,51,46,161,5.0,3-4A,major
18984,60,68,67,444,5.0,3-11B,major
18985,54,48,85,1514,5.0,3-12,augmented
18986,50,68,76,378,10.0,4-22A,major
18987,50,71,79,782,0.0,4-27B,other
18988,54,35,41,388,0.0,4-27B,other
18989,60,35,31,1324,4.0,5-8,major
18990,60,33,118,2689,10.0,4-20,major
18991,77,26,40,3691,9.0,4-26,minor
18992,59,45,33,425,9.0,4-26,minor
18993,60,35,99,1218,2.0,3-11A,minor
18994,62,42,80,1498,5.0,4-16A,major
18995,62,46,46,626,5.0,4-16A,major
18996,65,55,24,50,5.0,4-16A,major
18997,62,57,66,35,5.0,4-16A,major
18998,64,58,35,73,5.0,4-16A,major
18999,67,63,21,39,5.0,4-16A,major
19000,64,45,34,59,5.0,4-16A,major
19001,65,66,56,38,5.0,4-16A,major
19002,69,54,26,60,5.0,4-16A,major
19003,65,66,68,42,5.0,4-16A,major
19004,67,65,42,64,5.0,4-16A,major
19005,71,58,25,51,5.0,4-16A,major
19006,67,68,59,55,5.0,4-16A,major
19007,69,67,36,49,5.0,4-16A,major
19008,72,41,36,65,5.0,4-16A,major
19009,69,70,65,32,5.0,4-16A,major
19010,71,58,41,57,5.0,4-16A,major
19011,72,66,45,158,11.0,2-3,minor
19012,74,59,23,166,0.0,2-4,major
19013,77,56,23,45,0.0,2-4,major
19014,74,63,61,38,0.0,2-4,major
19015,76,56,30,65,0.0,2-4,major
19016,77,72,42,144,4.0,2-3,minor
19017,81,41,26,65,4.0,2-3,minor
19018,77,54,60,37,4.0,2-3,minor
19019,79,57,26,50,4.0,2-3,minor
19020,83,41,26,57,4.0,2-3,minor
19021,79,64,60,34,4.0,2-3,minor
19022,81,54,26,68,4.0,2-3,minor
19023,84,60,33,42,4.0,2-3,minor
19024,81,35,53,66,4.0,2-3,minor
19025,83,54,29,53,4.0,2-3,minor
19026,86,47,40,50,4.0,2-3,minor
19027,82,70,25,138,8.0,4-6,other
19028,83,55,82,49,8.0,4-6,other
19029,84,44,29,154,8.0,4-6,other
19030,91,31,28,154,8.0,4-6,other
19031,98,81,170,53,8.0,4-6,other
19032,95,78,195,108,9.0,4-14A,minor
19033,96,94,128,214,9.0,4-14A,minor
19034,92,38,157,158,9.0,4-14A,minor
19035,95,75,101,169,9.0,4-14A,minor
19036,93,62,181,154,9.0,4-14A,minor
19037,88,46,139,407,2.0,5-35,minor
19038,86,54,72,215,2.0,5-35,minor
19039,57,58,118,425,10.0,4-20,major
19040,58,35,103,177,2.0,3-11A,minor
19041,48,98,1307,2147,9.0,4-23,minor
19042,48,57,198,1479,0.0,4-22A,other
19043,81,39,35,166,6.0,4-9,other
19044,86,60,69,87,6.0,4-9,other
19045,81,48,206,312,5.0,5-38B,major
19046,83,36,103,67,5.0,5-38B,major
19047,76,36,91,44,5.0,5-38B,major
19048,60,40,229,270,5.0,5-21A,major
19049,81,41,49,100,5.0,5-21A,major
19050,74,47,164,299,5.0,5-21A,major
19051,60,42,106,275,2.0,4-14A,minor
19052,67,94,191,829,5.0,4-16A,other
19053,69,58,67,200,5.0,4-16A,other
19054,66,63,54,133,1.0,2-6,other
19055,67,68,266,96,1.0,2-6,other
19056,70,45,169,415,5.0,4-19B,other
19057,73,58,188,353,6.0,3-8B,other
19058,81,49,91,392,0.0,3-6,major
19059,80,46,105,1932,6.0,3-8B,other
19060,81,46,44,125,6.0,3-8B,other
19061,84,82,96,77,6.0,3-8B,other
19062,80,50,137,120,6.0,3-8B,other
19063,81,45,41,171,6.0,3-8B,other
19064,80,56,96,267,2.0,3-11A,minor
19065,81,35,32,136,2.0,3-11A,minor
19066,80,33,36,133,10.0,5-27A,major
19067,83,47,79,134,10.0,5-27A,major
19068,81,47,75,43,10.0,5-27A,major
19069,77,54,86,51,10.0,5-27A,major
19070,70,56,114,1083,10.0,3-4A,major
19071,69,58,66,88,10.0,3-4A,major
19072,66,64,69,166,2.0,2-5,other
19073,69,78,114,96,2.0,2-5,other
19074,66,57,68,130,2.0,2-5,other
19075,57,36,109,144,7.0,3-11A,minor
19076,65,67,143,118,7.0,3-11A,minor
19077,63,34,154,362,10.0,3-4A,major
19078,67,54,170,382,5.0,3-4A,other
19079,70,54,64,384,5.0,5-21B,other
19080,72,60,80,112,5.0,5-21B,other
19081,57,43,34,3605,0.0,4-20,major
19082,57,42,138,341,2.0,4-26,minor
19083,60,23,48,417,5.0,4-20,major
19084,50,54,91,1117,2.0,3-11A,minor
19085,65,45,33,1189,10.0,3-4A,major
19086,53,46,247,117,10.0,3-4A,major
19087,65,41,83,40,10.0,3-4A,major
19088,64,34,48,1806,10.0,3-4A,major
19089,55,47,95,96,10.0,3-4A,major
19090,64,33,56,167,10.0,3-4A,major
19091,55,60,89,572,10.0,3-11B,other
19092,48,47,224,1135,5.0,4-20,major
19093,53,7,112,70,9.0,2-3,minor
19094,58,44,70,220,5.0,3-11B,other
19095,53,48,90,689,7.0,1-1,other
19096,65,39,78,152,10.0,3-4A,major
19097,57,36,95,405,10.0,3-11B,major
19098,58,31,145,4129,5.0,4-16A,other
19099,58,24,92,575,2.0,5-14A,minor
19100,58,33,48,220,2.0,6-48,minor
19101,38,81,52,1838,0.0,4-24,augmented
19102,61,42,32,588,6.0,5-31B,diminished
19103,57,64,64,226,10.0,3-11B,major
19104,57,29,87,99,10.0,3-11B,major
19105,51,60,64,262,10.0,3-11B,major
19106,50,36,40,410,6.0,4-27A,minor
19107,50,45,30,375,6.0,4-12A,diminished
19108,57,43,156,104,7.0,3-7A,minor
19109,57,26,28,299,10.0,3-11B,other
19110,50,56,260,68,10.0,3-11B,other
19111,62,42,231,294,7.0,3-7A,minor
19112,68,31,31,409,1.0,2-5,other
19113,57,63,261,95,1.0,2-5,other
19114,77,81,109,1400,5.0,3-11B,major
19115,72,37,195,150,5.0,3-11B,major
19116,70,46,185,427,0.0,2-4,other
19117,70,58,200,302,0.0,2-4,other
19118,72,42,79,505,0.0,2-4,other
19119,70,52,99,58,0.0,2-4,other
19120,70,63,87,224,5.0,3-12,augmented
19121,72,46,83,138,5.0,3-12,augmented
19122,70,62,63,95,5.0,3-12,augmented
19123,61,39,67,418,5.0,3-8B,other
19124,69,60,50,136,5.0,3-8B,other
19125,70,61,100,75,5.0,3-8B,other
19126,69,51,67,87,5.0,3-8B,other
19127,69,57,63,179,1.0,2-6,other
19128,70,55,27,80,1.0,2-6,other
19129,72,63,35,79,1.0,2-6,other
19130,73,47,40,74,1.0,2-6,other
19131,75,62,27,60,1.0,2-6,other
19132,78,52,22,146,4.0,3-2A,minor
19133,79,67,29,59,4.0,3-2A,minor
19134,80,39,29,48,4.0,3-2A,minor
19135,82,55,84,66,4.0,3-2A,minor
19136,83,58,62,73,4.0,3-2A,minor
19137,86,85,144,66,4.0,3-2A,minor
19138,84,76,113,99,9.0,3-11A,minor
19139,81,69,42,183,9.0,3-11A,minor
19140,63,44,132,1569,9.0,4-26,minor
19141,51,29,40,793,2.0,4-26,minor
19142,65,62,77,480,5.0,4-16A,major
19143,65,43,70,154,9.0,3-9,other
19144,65,48,73,151,9.0,3-9,other
19145,76,1,660,81,9.0,3-9,other
19146,69,36,37,37,9.0,3-9,other
19147,65,49,77,33,9.0,3-9,other
19148,65,45,67,158,11.0,2-2,other
19149,65,49,78,151,11.0,2-2,other
19150,65,56,86,143,11.0,2-2,other
19151,64,78,544,41,11.0,2-2,other
19152,65,57,59,107,11.0,2-2,other
19153,71,50,71,74,11.0,2-2,other
19154,69,49,74,26,11.0,2-2,other
19155,65,41,129,63,11.0,2-2,other
19156,93,39,55,1532,8.0,3-5B,other
19157,57,39,115,996,2.0,5-27B,minor
19158,57,33,54,227,2.0,4-23,minor
19159,57,45,27,218,2.0,3-7A,minor
19160,67,63,347,3867,2.0,3-11A,minor
19161,46,68,300,642,0.0,3-12,augmented
19162,56,34,64,154,0.0,3-12,augmented
19163,58,45,245,755,5.0,5-30B,other
19164,68,31,34,878,3.0,3-8B,other
19165,49,56,101,573,7.0,4-21,major
19166,47,45,90,1434,5.0,3-11B,major
19167,48,46,194,133,5.0,3-11B,major
19168,48,51,154,338,5.0,3-11B,major
19169,48,46,73,259,5.0,3-11B,major
19170,47,46,119,391,5.0,3-11B,major
19171,48,39,1918,144,5.0,3-11B,major
19172,36,58,96,387,5.0,3-11B,major
19173,36,52,202,267,5.0,3-11B,major
19174,60,64,244,0,,,
19175,62,74,370,374,,,
19176,53,16,133,1968,2.0,2-2,other
19177,36,48,58,949,2.0,2-2,other
19178,72,108,621,643,2.0,2-2,other
19179,72,56,237,692,2.0,3-7A,minor
19180,74,68,188,301,2.0,3-7A,minor
19181,54,23,243,379,6.0,2-3,other
19182,60,47,319,633,6.0,2-3,other
19183,69,44,1530,344,6.0,2-3,other
19184,57,33,409,876,6.0,2-3,other
19185,44,26,390,946,6.0,3-5B,other
19186,69,16,247,26,6.0,3-5B,other
19187,68,42,155,577,2.0,2-1,other
19188,70,30,112,334,7.0,3-7B,other
19189,74,64,1009,627,7.0,1-1,other
19190,50,35,342,904,7.0,2-3,minor
19191,77,39,319,366,10.0,3-11B,major
19192,43,38,220,572,10.0,3-11B,major
19193,79,50,523,401,10.0,2-4,major
19194,79,43,45,640,0.0,1-1,other
19195,36,27,149,293,0.0,1-1,other
19196,52,26,287,39,0.0,1-1,other
19197,60,39,299,957,4.0,2-6,other
19198,67,64,421,1448,1.0,4-27A,minor
19199,60,49,124,966,9.0,4-18A,major
19200,64,47,256,516,7.0,3-9,other
19201,53,25,220,2817,9.0,3-11A,minor
19202,39,25,1327,1012,7.0,2-3,minor
19203,61,26,305,872,7.0,2-3,minor
19204,55,24,176,39,7.0,2-3,minor
19205,55,27,849,1498,5.0,3-4A,other
19206,68,69,280,396,5.0,3-4A,other
19207,69,60,100,285,5.0,3-4A,other
19208,74,90,654,313,5.0,3-4A,other
19209,62,57,262,313,5.0,3-4A,other
19210,50,34,160,331,5.0,3-4A,other
19211,62,36,177,343,5.0,3-4A,other
19212,68,64,233,345,5.0,3-4A,other
19213,60,33,665,26,5.0,3-4A,other
19214,69,38,121,272,5.0,3-4A,other
19215,68,36,303,87,5.0,3-4A,other
19216,64,53,128,179,5.0,3-4A,other
19217,50,20,187,404,0.0,2-5,other
19218,69,32,130,263,0.0,2-5,other
19219,67,37,165,97,0.0,2-5,other
19220,64,34,294,202,0.0,2-5,other
19221,66,48,2374,983,5.0,2-2,other
19222,38,46,951,376,5.0,2-2,other
19223,50,44,294,642,5.0,2-2,other
19224,55,44,629,1258,4.0,2-3,minor
19225,42,25,331,1562,6.0,2-3,minor
19226,61,52,102,1391,7.0,3-7A,minor
19227,55,33,108,44,7.0,3-7A,minor
19228,61,36,218,1786,11.0,2-6,other
19229,58,53,309,31,11.0,2-6,other
19230,80,42,427,1185,8.0,2-2,other
19231,54,34,170,1474,0.0,2-5,other
19232,56,34,82,57,0.0,2-5,other
19233,68,37,404,128,5.0,4-19B,other
19234,56,33,117,250,5.0,4-19B,other
19235,55,38,163,145,5.0,4-19B,other
19236,54,51,48,164,5.0,4-19B,other
19237,53,32,238,164,5.0,4-19B,other
19238,56,56,111,580,5.0,2-4,major
19239,45,45,222,626,0.0,3-11B,major
19240,60,45,314,968,9.0,2-5,other
19241,44,50,433,2862,2.0,2-3,minor
19242,53,27,443,27,2.0,2-3,minor
19243,59,38,146,959,8.0,2-6,other
19244,53,17,149,42,8.0,2-6,other
19245,50,49,254,574,8.0,2-6,other
19246,53,20,193,1358,0.0,2-1,other
19247,70,39,172,936,7.0,3-7B,other
19248,65,28,113,175,7.0,3-7B,other
19249,74,31,130,85,7.0,3-7B,other
19250,70,40,114,48,7.0,3-7B,other
19251,65,29,89,103,7.0,3-7B,other
19252,58,48,98,457,10.0,2-4,major
19253,50,66,279,432,10.0,2-4,major
19254,53,60,167,303,10.0,2-4,major
19255,65,51,944,338,10.0,3-4A,major
19256,56,60,269,260,10.0,3-4A,major
19257,55,47,435,349,10.0,3-4A,major
19258,50,50,357,359,10.0,3-4A,major
19259,49,42,89,534,1.0,2-3,other
19260,62,44,191,64,1.0,2-3,other
19261,36,44,126,356,7.0,2-3,minor
19262,48,62,165,1904,0.0,2-2,other
19263,58,57,608,567,0.0,4-19B,other
19264,58,57,494,884,4.0,3-8A,major
19265,41,33,163,1047,9.0,4-23,minor
19266,41,57,387,430,9.0,4-23,minor
19267,44,47,217,879,9.0,4-23,minor
19268,51,38,203,51,9.0,4-23,minor
19269,70,69,204,973,3.0,3-9,other
19270,75,59,154,273,3.0,3-9,other
19271,72,22,137,249,3.0,3-9,other
19272,77,68,138,218,3.0,3-9,other
19273,44,38,270,244,0.0,2-1,other
19274,77,36,159,243,0.0,2-1,other
19275,82,72,200,205,0.0,2-1,other
19276,80,59,125,266,0.0,2-1,other
19277,82,25,122,35,0.0,2-1,other
19278,63,34,565,143,0.0,2-1,other
19279,72,50,207,61,10.0,2-5,other
19280,72,36,175,305,10.0,2-5,other
19281,73,46,758,277,10.0,2-5,other
19282,65,48,224,291,10.0,2-5,other
19283,75,59,245,372,10.0,3-8B,other
19284,67,36,822,283,10.0,3-8B,other
19285,42,34,148,329,10.0,3-8B,other
19286,50,17,89,33,10.0,3-8B,other
19287,68,45,219,321,10.0,3-8B,other
19288,70,51,283,308,10.0,3-8B,other
19289,53,15,71,1381,2.0,3-7B,other
19290,36,36,123,897,2.0,3-7B,other
19291,48,27,69,33,2.0,3-7B,other
19292,81,20,345,89,0.0,2-4,major
19293,57,41,90,895,2.0,3-7A,minor
19294,48,32,44,661,2.0,1-1,other
19295,63,46,288,1642,6.0,3-10,diminished
19296,54,37,138,1492,0.0,2-3,minor
19297,31,46,424,921,0.0,2-3,minor
19298,43,22,224,344,0.0,2-3,minor
19299,58,36,316,348,0.0,2-3,minor
19300,33,32,496,290,0.0,2-3,minor
19301,45,32,391,287,0.0,2-3,minor
19302,60,37,188,324,0.0,2-3,minor
19303,34,30,873,367,0.0,2-3,minor
19304,46,46,131,306,0.0,2-3,minor
19305,62,37,295,312,0.0,2-3,minor
19306,35,48,373,320,0.0,2-3,minor
19307,53,46,380,317,0.0,2-3,minor
19308,36,24,124,479,11.0,2-3,minor
19309,52,20,207,39,11.0,2-3,minor
19310,64,48,674,46,11.0,2-3,minor
19311,87,64,261,612,11.0,2-3,minor
19312,64,50,62,314,11.0,2-3,minor
19313,85,31,207,353,10.0,2-4,major
19314,84,68,1030,334,10.0,2-4,major
19315,58,36,252,308,10.0,2-4,major
19316,48,27,114,33,10.0,2-4,major
19317,80,70,496,728,10.0,2-4,major
19318,81,54,183,605,1.0,3-10,minor
19319,72,60,348,1999,7.0,3-7B,other
19320,53,26,226,1928,9.0,3-11A,minor
19321,50,35,54,291,9.0,3-11A,minor
19322,65,38,478,1262,1.0,3-8A,other
19323,55,17,323,70,1.0,2-1,other
19324,66,32,444,861,1.0,2-1,other
19325,69,48,668,633,8.0,1-1,other
19326,74,54,261,630,5.0,3-8B,other
19327,50,50,126,273,5.0,3-8B,other
19328,62,47,138,347,5.0,3-8B,other
19329,62,33,69,311,5.0,3-8B,other
19330,64,34,67,129,5.0,3-8B,other
19331,62,36,94,76,5.0,3-8B,other
19332,64,36,58,134,5.0,3-8B,other
19333,62,43,92,73,5.0,3-8B,other
19334,64,39,56,124,5.0,3-8B,other
19335,62,32,84,88,5.0,3-8B,other
19336,64,36,65,111,5.0,3-8B,other
19337,62,32,79,104,5.0,3-8B,other
19338,64,38,66,109,5.0,3-8B,other
19339,62,34,72,106,5.0,3-8B,other
19340,64,41,73,103,5.0,3-8B,other
19341,57,58,404,26,5.0,3-8B,other
19342,62,34,87,74,5.0,3-8B,other
19343,64,37,80,116,5.0,3-8B,other
19344,62,31,92,105,5.0,3-8B,other
19345,64,44,108,110,5.0,3-8B,other
19346,58,63,504,46,5.0,3-8B,other
19347,62,34,96,64,5.0,3-8B,other
19348,64,46,101,125,5.0,3-8B,other
19349,62,30,86,113,5.0,3-8B,other
19350,64,43,82,117,5.0,3-8B,other
19351,62,34,93,114,5.0,3-8B,other
19352,62,29,75,230,0.0,2-4,major
19353,64,40,65,102,0.0,2-4,major
19354,62,31,92,119,0.0,2-4,major
19355,64,34,110,96,0.0,2-4,major
19356,62,33,114,135,0.0,2-4,major
19357,64,39,116,104,0.0,2-4,major
19358,62,33,85,152,0.0,2-4,major
19359,64,46,122,75,0.0,2-4,major
19360,62,36,91,144,0.0,2-4,major
19361,64,43,114,85,0.0,2-4,major
19362,51,29,189,94,0.0,2-4,major
19363,62,35,90,41,0.0,2-4,major
19364,64,45,96,102,0.0,2-4,major
19365,64,44,129,215,2.0,1-1,other
19366,62,36,358,146,2.0,1-1,other
19367,64,36,122,95,2.0,1-1,other
19368,64,29,108,245,2.0,1-1,other
19369,62,38,95,146,2.0,1-1,other
19370,64,43,110,83,2.0,1-1,other
19371,62,30,94,136,2.0,1-1,other
19372,64,41,73,103,2.0,1-1,other
19373,62,31,607,137,2.0,1-1,other
19374,50,69,590,564,4.0,2-2,other
19375,58,31,249,710,5.0,3-11B,other
19376,44,46,135,900,2.0,2-3,minor
19377,50,40,235,1789,7.0,2-3,minor
19378,70,35,275,1316,7.0,3-11A,minor
19379,76,35,74,899,9.0,3-3A,major
19380,68,42,156,402,1.0,3-7A,other
19381,76,34,344,517,1.0,3-10,other
19382,33,49,273,2859,9.0,4-26,minor
19383,76,46,165,1349,5.0,2-4,major
19384,77,11,258,788,9.0,2-2,other
19385,75,34,243,542,6.0,2-6,other
19386,60,19,254,355,2.0,3-7A,minor
19387,57,25,378,26,2.0,3-7A,minor
19388,65,60,639,1833,3.0,3-11A,other
19389,73,1,201,520,3.0,3-11A,other
19390,62,41,301,452,8.0,3-10,other
19391,54,29,473,951,8.0,4-27A,diminished
19392,67,36,384,94,8.0,4-27A,diminished
19393,53,15,252,944,7.0,2-2,other
19394,84,17,209,775,7.0,2-5,other
19395,73,50,135,308,7.0,3-11A,minor
19396,85,29,147,36,7.0,3-11A,minor
19397,82,31,340,417,1.0,1-1,other
19398,79,26,274,34,1.0,1-1,other
19399,50,34,357,257,2.0,1-1,other
19400,73,34,128,138,2.0,1-1,other
19401,79,28,268,82,1.0,2-3,other
19402,79,33,715,765,1.0,2-1,other
19403,48,50,218,2494,0.0,2-5,other
19404,60,35,90,2397,9.0,3-11A,minor
19405,48,32,68,476,9.0,3-7A,minor
19406,63,47,142,1861,9.0,3-7A,minor
19407,55,27,274,536,0.0,3-11B,other
19408,44,51,673,1375,5.0,4-20,other
19409,46,19,219,143,5.0,4-20,other
19410,70,64,207,817,5.0,3-7B,other
19411,70,56,107,1700,6.0,2-3,minor
19412,71,62,117,149,6.0,2-3,minor
19413,72,14,91,181,6.0,2-3,minor
19414,73,35,158,83,6.0,2-3,minor
19415,74,40,106,116,6.0,2-3,minor
19416,75,42,60,85,6.0,2-3,minor
19417,76,70,146,54,6.0,2-3,minor
19418,41,29,285,75,6.0,2-3,minor
19419,72,58,1081,76,9.0,2-3,minor
19420,64,60,155,853,9.0,2-3,minor
19421,53,14,150,91,9.0,2-3,minor
19422,36,45,51,885,9.0,2-3,minor
19423,57,38,56,948,2.0,2-2,other
19424,69,29,49,3174,6.0,2-3,other
19425,72,17,460,933,6.0,3-10,minor
19426,43,26,117,628,10.0,2-4,major
19427,55,24,66,1742,8.0,1-1,other
19428,43,24,128,27,8.0,1-1,other
19429,54,43,83,88,8.0,1-1,other
19430,42,35,150,82,8.0,1-1,other
19431,57,55,248,83,8.0,1-1,other
19432,54,49,115,280,8.0,1-1,other
19433,42,35,138,31,8.0,1-1,other
19434,55,47,109,167,8.0,1-1,other
19435,43,12,151,96,8.0,1-1,other
19436,57,70,136,159,8.0,1-1,other
19437,58,60,104,210,8.0,1-1,other
19438,62,64,156,232,8.0,1-1,other
19439,66,58,183,227,8.0,1-1,other
19440,69,53,151,266,8.0,1-1,other
19441,66,53,133,452,0.0,3-8A,major
19442,67,48,136,198,0.0,3-8A,major
19443,69,53,146,237,0.0,3-8A,major
19444,63,34,126,171,0.0,3-8A,major
19445,58,39,182,36,0.0,3-8A,major
19446,70,53,145,28,0.0,3-8A,major
19447,72,32,115,246,0.0,3-8A,major
19448,73,45,127,131,0.0,3-8A,major
19449,75,38,43,147,0.0,3-8A,major
19450,76,53,67,99,0.0,3-8A,major
19451,78,46,41,138,0.0,3-8A,major
19452,58,42,123,63,0.0,3-8A,major
19453,81,48,105,185,0.0,2-5,other
19454,82,51,45,116,0.0,2-5,other
19455,84,43,104,128,0.0,2-5,other
19456,85,52,181,105,0.0,2-5,other
19457,86,52,240,55,0.0,2-5,other
19458,87,52,240,133,0.0,2-5,other
19459,88,47,119,77,0.0,2-5,other
19460,91,77,167,175,0.0,2-5,other
19461,89,64,180,248,6.0,2-2,other
19462,85,34,174,281,6.0,2-2,other
19463,88,66,219,168,6.0,2-2,other
19464,85,23,183,239,6.0,2-2,other
19465,81,50,112,432,9.0,2-3,minor
19466,81,42,168,231,9.0,2-3,minor
19467,79,56,113,260,9.0,2-3,minor
19468,77,50,94,491,5.0,3-11B,major
19469,77,58,130,245,5.0,3-11B,major
19470,76,66,134,250,5.0,3-11B,major
19471,67,15,128,246,2.0,3-9,other
19472,77,58,112,244,2.0,3-9,other
19473,72,54,330,240,2.0,3-9,other
19474,53,20,282,495,0.0,1-1,other
19475,27,53,46,1429,5.0,3-8B,other
19476,58,81,800,914,10.0,4-14A,other
19477,58,74,540,955,5.0,3-4A,other
19478,46,42,308,959,10.0,3-11A,other
19479,69,26,190,524,4.0,2-3,minor
19480,60,29,136,164,4.0,2-3,minor
19481,60,36,126,245,4.0,2-3,minor
19482,64,35,120,118,4.0,2-3,minor
19483,67,25,72,30,4.0,2-3,minor
19484,60,38,145,83,4.0,2-3,minor
19485,64,35,111,129,4.0,2-3,minor
19486,64,45,88,249,0.0,2-4,other
19487,69,17,84,36,0.0,2-4,other
19488,60,48,133,70,0.0,2-4,other
19489,64,36,125,129,0.0,2-4,other
19490,69,24,109,28,0.0,2-4,other
19491,54,31,121,44,0.0,2-4,other
19492,60,49,137,49,0.0,2-4,other
19493,57,83,503,70,0.0,2-4,other
19494,67,20,52,117,9.0,2-5,other
19495,60,48,141,55,9.0,2-5,other
19496,64,44,155,140,9.0,2-5,other
19497,60,47,130,137,9.0,2-2,other
19498,59,64,940,42,9.0,2-2,other
19499,60,38,120,205,9.0,2-5,other
19500,64,34,59,151,9.0,2-5,other
19501,60,35,118,90,9.0,2-5,other
19502,64,35,66,138,9.0,2-5,other
19503,60,36,130,103,9.0,2-5,other
19504,64,39,73,138,9.0,2-5,other
19505,60,48,137,105,9.0,2-5,other
19506,57,46,970,27,9.0,2-5,other
19507,64,31,59,121,9.0,2-5,other
19508,60,33,129,95,9.0,2-5,other
19509,60,33,169,246,9.0,2-5,other
19510,60,16,74,298,9.0,2-5,other
19511,66,30,540,219,9.0,4-18A,diminished
19512,38,42,138,403,9.0,4-18A,diminished
19513,50,20,857,2388,0.0,4-27B,other
19514,44,46,372,469,0.0,4-27B,other
19515,50,26,319,558,7.0,4-23,minor
19516,58,52,409,966,2.0,4-26,minor
19517,57,73,387,975,1.0,4-26,minor
19518,57,55,216,501,1.0,4-26,minor
19519,60,28,146,927,3.0,4-14B,other
19520,53,17,129,3308,1.0,3-7A,other
19521,66,15,249,526,1.0,3-7A,other
19522,57,29,95,1382,0.0,3-11B,major
19523,79,54,127,448,4.0,2-3,minor
19524,72,27,135,29,4.0,2-3,minor
19525,45,34,103,348,4.0,2-3,minor
19526,55,15,151,31,4.0,2-3,minor
19527,79,44,146,40,4.0,2-3,minor
19528,72,20,146,40,4.0,2-3,minor
19529,79,36,61,433,4.0,2-3,minor
19530,55,33,232,458,4.0,2-3,minor
19531,50,50,240,611,0.0,2-4,major
19532,53,30,238,392,0.0,2-4,major
19533,59,31,71,940,8.0,2-6,other
19534,47,50,134,1025,11.0,2-6,other
19535,74,40,175,154,11.0,2-6,other
19536,50,36,300,1379,8.0,3-10,diminished
19537,70,23,382,436,7.0,2-2,other
19538,65,33,58,2343,10.0,2-5,other
19539,76,32,162,1677,0.0,3-11B,major
19540,79,51,178,221,0.0,3-11B,major
19541,67,22,107,50,0.0,3-11B,major
19542,76,40,155,212,0.0,3-11B,major
19543,76,41,274,480,7.0,2-3,minor
19544,73,40,178,210,7.0,2-3,minor
19545,48,34,122,508,8.0,2-2,other
19546,77,49,122,276,8.0,2-2,other
19547,77,46,136,480,8.0,1-1,other
19548,73,33,151,239,4.0,3-8B,other
19549,77,46,213,237,4.0,3-8B,other
19550,73,40,224,222,4.0,3-8B,other
19551,41,34,148,463,4.0,3-8B,other
19552,76,43,129,287,9.0,2-5,other
19553,76,38,57,494,9.0,1-1,other
19554,64,55,173,183,9.0,1-1,other
19555,86,66,133,782,2.0,2-5,other
19556,54,46,660,267,9.0,3-10,diminished
19557,53,31,210,932,0.0,5-35,other
19558,70,57,121,2217,10.0,4-20,major
19559,69,24,109,85,10.0,4-20,major
19560,67,30,69,146,10.0,4-20,major
19561,69,33,63,129,10.0,4-20,major
19562,70,58,55,67,10.0,4-20,major
19563,72,36,88,135,10.0,4-20,major
19564,75,45,46,210,1.0,2-3,minor
19565,76,54,74,107,1.0,2-3,minor
19566,78,27,43,143,1.0,2-3,minor
19567,79,35,92,111,1.0,2-3,minor
19568,80,36,42,34,1.0,2-3,minor
19569,81,36,78,88,1.0,2-3,minor
19570,82,57,62,76,1.0,2-3,minor
19571,48,32,110,192,0.0,2-2,other
19572,85,43,179,72,0.0,2-2,other
19573,88,48,84,277,0.0,2-2,other
19574,91,80,170,130,0.0,2-2,other
19575,88,72,128,244,0.0,2-2,other
19576,57,31,152,287,5.0,1-1,other
19577,84,61,120,233,5.0,1-1,other
19578,86,67,146,264,5.0,1-1,other
19579,81,50,115,245,5.0,1-1,other
19580,53,15,114,266,9.0,2-3,minor
19581,77,43,60,244,9.0,2-3,minor
19582,81,56,134,238,9.0,2-3,minor
19583,77,48,110,250,9.0,2-3,minor
19584,72,39,122,489,2.0,2-5,other
19585,74,51,199,197,2.0,2-5,other
19586,69,55,116,260,2.0,2-5,other
19587,60,26,128,1204,6.0,3-10,minor
19588,42,45,2500,836,6.0,3-10,minor
19589,53,39,105,280,6.0,3-10,minor
19590,54,43,135,110,6.0,3-10,minor
19591,56,40,46,124,6.0,3-10,minor
19592,57,62,114,89,6.0,3-10,minor
19593,58,52,120,86,6.0,3-10,minor
19594,59,39,65,116,6.0,3-10,minor
19595,60,50,112,50,6.0,3-10,minor
19596,62,43,127,164,6.0,3-10,minor
19597,59,64,116,325,6.0,3-10,minor
19598,60,49,135,170,6.0,3-10,minor
19599,62,40,97,83,6.0,3-10,minor
19600,63,60,79,102,6.0,3-10,minor
19601,65,60,104,153,6.0,3-10,minor
19602,54,25,641,42,6.0,3-10,minor
19603,66,47,116,81,6.0,3-10,minor
19604,68,45,43,137,6.0,3-10,minor
19605,69,26,109,144,6.0,3-10,minor
19606,70,45,156,121,6.0,3-10,minor
19607,71,36,88,190,6.0,3-10,minor
19608,72,60,230,128,6.0,3-10,minor
19609,69,68,304,175,6.0,3-10,minor
19610,43,37,179,39,6.0,3-10,minor
19611,62,53,116,318,6.0,3-10,minor
19612,65,53,151,262,6.0,3-10,minor
19613,69,51,156,231,6.0,3-10,minor
19614,69,56,141,480,10.0,2-4,major
19615,70,60,125,223,10.0,2-4,major
19616,74,57,144,252,10.0,2-4,major
19617,58,35,119,262,2.0,2-3,minor
19618,81,51,157,225,2.0,2-3,minor
19619,84,37,216,244,2.0,2-3,minor
19620,50,46,240,422,2.0,2-3,minor
19621,55,32,236,682,2.0,2-3,minor
19622,84,65,99,608,0.0,2-2,other
19623,81,45,60,138,0.0,2-2,other
19624,82,56,184,135,0.0,2-2,other
19625,79,47,91,137,0.0,2-2,other
19626,76,48,97,138,0.0,2-2,other
19627,64,32,80,42,0.0,2-2,other
19628,58,30,140,35,0.0,2-2,other
19629,75,48,107,150,0.0,2-2,other
19630,74,46,125,142,0.0,2-2,other
19631,73,40,158,150,0.0,2-2,other
19632,70,52,246,326,0.0,2-2,other
19633,67,58,1139,155,0.0,2-2,other
19634,48,68,184,320,0.0,2-2,other
19635,49,50,120,160,0.0,2-2,other
19636,50,55,137,160,0.0,2-2,other
19637,51,49,227,160,0.0,2-2,other
19638,52,52,118,160,0.0,2-2,other
19639,53,52,120,212,0.0,2-2,other
19640,54,55,42,108,0.0,2-2,other
19641,55,27,151,160,0.0,2-2,other
19642,56,31,169,160,0.0,2-2,other
19643,58,52,270,105,0.0,2-2,other
19644,48,53,360,866,5.0,2-4,major
19645,60,26,59,445,5.0,2-4,major
19646,60,47,153,1545,7.0,2-2,other
19647,64,62,427,343,7.0,2-2,other
19648,46,33,198,601,2.0,3-7B,other
19649,46,57,306,958,3.0,2-5,other
19650,69,50,272,974,5.0,3-4A,other
19651,70,37,132,383,1.0,2-3,other
19652,64,34,125,2052,9.0,3-7A,minor
19653,67,24,79,136,9.0,3-7A,minor
19654,64,37,134,90,9.0,3-7A,minor
19655,67,26,130,128,9.0,3-7A,minor
19656,69,19,58,42,9.0,3-7A,minor
19657,64,35,136,55,9.0,3-7A,minor
19658,67,22,84,150,9.0,3-7A,minor
19659,64,53,123,88,9.0,3-7A,minor
19660,62,55,712,97,9.0,3-7A,minor
19661,67,20,90,29,9.0,3-7A,minor
19662,64,51,110,104,9.0,3-7A,minor
19663,64,40,122,221,9.0,2-2,other
19664,64,47,137,236,9.0,2-2,other
19665,64,36,658,266,9.0,2-2,other
19666,50,37,1417,715,0.0,2-5,other
19667,55,52,315,1953,6.0,4-28,diminished
19668,54,55,359,360,6.0,4-28,diminished
19669,26,43,90,543,6.0,4-28,diminished
19670,86,30,90,1630,1.0,2-5,other
19671,43,47,107,643,7.0,3-2B,other
19672,93,46,130,87,6.0,2-6,other
19673,89,24,51,31,6.0,2-6,other
19674,95,58,124,1060,8.0,2-3,other
19675,43,20,197,638,10.0,2-5,other
19676,53,26,113,1052,10.0,2-4,major
19677,58,29,72,2027,5.0,3-4A,other
19678,46,50,88,534,5.0,3-4A,other
19679,46,71,455,1383,4.0,2-6,other
19680,66,14,149,304,4.0,2-6,other
19681,77,25,124,1604,9.0,4-26,minor
19682,76,15,770,565,6.0,1-1,other
19683,77,17,427,53,6.0,1-1,other
19684,45,46,131,138,6.0,1-1,other
19685,55,22,164,30,6.0,1-1,other
19686,77,24,140,366,0.0,2-5,other
19687,64,39,102,532,6.0,2-6,other
19688,77,28,147,351,0.0,2-5,other
19689,65,40,102,811,2.0,2-3,minor
19690,65,36,109,230,11.0,2-3,minor
19691,71,42,113,128,11.0,2-3,minor
19692,74,31,83,26,11.0,2-3,minor
19693,65,37,137,78,11.0,2-3,minor
19694,65,40,135,246,11.0,3-10,diminished
19695,64,73,833,69,11.0,3-10,diminished
19696,65,50,126,184,11.0,2-3,minor
19697,65,53,148,239,11.0,2-3,minor
19698,65,55,146,252,11.0,2-3,minor
19699,77,5,615,162,11.0,2-3,minor
19700,62,57,965,160,5.0,2-4,other
19701,71,47,129,79,5.0,2-4,other
19702,74,36,106,27,5.0,2-4,other
19703,65,36,136,103,5.0,2-4,other
19704,65,40,123,254,11.0,2-3,minor
19705,65,39,141,244,11.0,3-10,diminished
19706,65,34,170,498,11.0,2-3,minor
19707,77,10,155,191,11.0,2-3,minor
19708,65,35,252,158,11.0,2-3,minor
19709,56,18,99,184,11.0,2-3,minor
19710,58,53,166,59,11.0,2-3,minor
19711,67,46,578,163,10.0,2-4,major
19712,43,40,1611,596,10.0,2-4,major
19713,50,48,1010,381,10.0,2-4,major
19714,53,32,107,647,10.0,2-4,major
19715,58,49,318,366,2.0,2-3,minor
19716,50,32,236,839,10.0,1-1,other
19717,62,25,156,82,10.0,1-1,other
19718,67,50,234,1194,7.0,2-1,other
19719,57,54,158,26,7.0,2-1,other
19720,69,54,281,278,7.0,2-1,other
19721,70,53,237,339,0.0,2-2,other
19722,58,57,174,355,0.0,2-4,major
19723,73,47,259,287,0.0,2-4,major
19724,75,64,269,324,0.0,2-2,other
19725,76,51,242,329,0.0,2-2,other
19726,78,70,250,307,8.0,2-2,other
19727,79,44,175,314,8.0,2-2,other
19728,82,61,225,631,10.0,2-1,other
19729,72,17,174,619,9.0,2-2,other
19730,79,28,138,34,9.0,2-2,other
19731,64,51,168,688,0.0,2-5,other
19732,82,27,56,445,0.0,3-9,other
19733,86,51,190,882,0.0,3-9,other
19734,53,26,349,727,0.0,3-7B,other
19735,84,55,308,559,0.0,3-7B,other
19736,48,34,327,2250,1.0,4-28,diminished
19737,61,42,513,897,1.0,4-28,diminished
19738,49,25,280,60,4.0,4-21,other
19739,41,20,186,971,9.0,2-3,minor
19740,63,68,284,1589,9.0,4-23,minor
19741,77,68,117,389,9.0,3-8A,major
19742,42,49,126,2413,6.0,2-3,other
19743,78,56,128,1432,5.0,2-5,other
19744,77,46,94,92,5.0,2-5,other
19745,76,49,57,115,5.0,2-5,other
19746,75,47,130,123,5.0,2-5,other
19747,72,34,70,149,5.0,2-5,other
19748,69,30,92,128,5.0,2-5,other
19749,66,52,100,172,5.0,2-5,other
19750,65,70,101,222,5.0,2-5,other
19751,64,64,107,190,5.0,2-5,other
19752,63,52,101,154,5.0,2-5,other
19753,44,28,339,53,5.0,2-5,other
19754,54,15,189,28,5.0,2-5,other
19755,62,54,88,122,5.0,2-5,other
19756,61,26,42,160,5.0,2-5,other
19757,60,41,159,115,5.0,2-5,other
19758,53,24,609,175,7.0,2-3,minor
19759,59,38,332,137,7.0,2-3,minor
19760,60,62,119,579,7.0,2-3,minor
19761,58,48,137,96,7.0,2-3,minor
19762,58,51,43,289,5.0,2-4,major
19763,62,41,53,163,5.0,2-4,major
19764,66,35,60,132,5.0,2-4,major
19765,69,50,139,166,5.0,2-4,major
19766,66,57,101,144,5.0,2-4,major
19767,69,57,99,366,7.0,2-3,minor
19768,70,61,41,206,7.0,2-3,minor
19769,74,36,96,185,7.0,2-3,minor
19770,76,26,51,39,7.0,2-3,minor
19771,78,61,101,148,7.0,2-3,minor
19772,62,24,256,94,7.0,2-3,minor
19773,55,17,286,55,7.0,2-3,minor
19774,84,76,126,63,7.0,2-3,minor
19775,81,40,58,266,7.0,2-3,minor
19776,81,56,108,209,7.0,2-3,minor
19777,79,53,154,206,7.0,2-3,minor
19778,78,70,160,153,7.0,2-3,minor
19779,76,52,117,177,7.0,2-3,minor
19780,75,48,154,196,7.0,2-3,minor
19781,74,28,87,197,7.0,2-3,minor
19782,73,18,42,143,7.0,2-3,minor
19783,72,28,153,101,7.0,2-3,minor
19784,73,59,1076,205,7.0,2-3,minor
19785,49,38,264,587,2.0,2-2,other
19786,50,47,312,306,2.0,2-2,other
19787,51,52,118,344,2.0,2-2,other
19788,52,53,111,151,2.0,2-2,other
19789,53,44,119,123,2.0,2-2,other
19790,54,51,93,142,2.0,2-2,other
19791,55,42,59,116,2.0,2-2,other
19792,56,40,48,135,2.0,2-2,other
19793,57,61,54,124,2.0,2-2,other
19794,58,39,48,144,2.0,2-2,other
19795,59,43,68,125,2.0,2-2,other
19796,60,34,69,125,2.0,2-2,other
19797,61,36,41,66,2.0,2-2,other
19798,62,64,182,178,2.0,2-2,other
19799,59,24,43,227,5.0,2-5,other
19800,48,51,221,321,5.0,2-5,other
19801,57,50,56,267,5.0,2-5,other
19802,64,42,51,329,7.0,3-9,other
19803,55,17,2230,3755,5.0,3-4A,other
19804,61,21,296,1888,9.0,2-2,other
19805,60,28,232,1951,8.0,2-2,other
19806,74,22,59,284,0.0,2-1,other
19807,74,66,154,1180,8.0,2-2,other
19808,74,62,136,1270,8.0,2-2,other
19809,72,32,193,1208,2.0,2-4,major
19810,74,62,160,1158,8.0,3-8B,other
19811,74,57,176,903,8.0,2-2,other
19812,44,29,121,385,8.0,2-2,other
19813,58,53,153,1251,7.0,2-2,other
19814,62,22,50,27,7.0,2-2,other
19815,50,54,305,595,7.0,2-2,other
19816,54,28,227,812,7.0,2-2,other
19817,56,60,150,96,7.0,2-2,other
19818,71,60,198,96,2.0,4-26,minor
19819,62,70,176,386,8.0,3-10,minor
19820,65,49,807,961,10.0,2-1,other
19821,46,23,2095,45,10.0,2-1,other
19822,61,27,290,468,8.0,2-2,other
19823,47,50,132,2398,1.0,3-7B,other
19824,90,55,118,3318,6.0,5-25A,diminished
19825,57,58,139,953,0.0,6-25A,major
19826,86,54,249,2363,4.0,5-31B,major
19827,83,66,237,483,3.0,5-31A,other
19828,83,60,173,457,3.0,5-31A,other
19829,56,56,41,488,7.0,4-26,minor
19830,46,19,59,412,7.0,4-26,minor
19831,51,42,209,887,7.0,5-32A,minor
19832,49,27,136,29,7.0,5-32A,minor
19833,53,81,511,99,7.0,4-26,minor
19834,54,37,98,327,7.0,4-26,minor
19835,55,56,115,66,7.0,4-26,minor
19836,57,41,135,403,7.0,2-3,minor
19837,59,71,138,59,7.0,2-3,minor
19838,58,48,127,325,2.0,4-26,minor
19839,57,27,70,28,2.0,4-26,minor
19840,61,55,66,69,2.0,4-26,minor
19841,64,78,182,100,7.0,4-26,minor
19842,60,36,49,280,1.0,2-2,other
19843,64,51,138,65,1.0,2-2,other
19844,65,80,263,113,7.0,4-26,minor
19845,66,39,144,236,7.0,4-26,minor
19846,67,60,108,125,7.0,4-26,minor
19847,69,61,54,417,7.0,3-2A,minor
19848,71,67,149,48,7.0,3-2A,minor
19849,76,30,227,2158,1.0,3-10,other
19850,62,29,514,2919,2.0,5-35,minor
19851,72,53,144,457,5.0,3-11B,major
19852,84,57,173,222,5.0,3-11B,major
19853,79,56,230,633,5.0,4-6,other
19854,75,51,287,297,5.0,4-6,other
19855,72,44,244,308,5.0,4-6,other
19856,68,51,465,530,5.0,4-6,other
19857,71,38,161,6519,9.0,4-23,minor
19858,56,44,230,30,9.0,4-23,minor
19859,57,47,962,251,0.0,3-9,other
19860,59,50,490,976,7.0,2-5,other
19861,58,57,92,338,7.0,2-5,other
19862,59,39,111,389,6.0,4-28,diminished
19863,58,58,115,77,6.0,4-28,diminished
19864,69,34,200,973,6.0,3-10,other
19865,81,42,331,1062,2.0,3-3A,major
19866,43,38,1766,1352,8.0,2-2,other
19867,46,18,1177,852,7.0,4-26,minor
19868,67,49,331,1108,10.0,3-11B,major
19869,58,43,465,480,10.0,3-11B,major
19870,59,24,75,1328,4.0,4-27A,diminished
19871,40,54,230,1348,1.0,4-28,diminished
19872,41,57,128,256,1.0,4-28,diminished
19873,42,37,99,187,1.0,4-28,diminished
19874,43,33,174,139,1.0,4-28,diminished
19875,44,39,193,169,1.0,4-28,diminished
19876,45,55,97,206,1.0,4-28,diminished
19877,46,67,763,153,1.0,4-28,diminished
19878,58,44,249,524,1.0,4-28,diminished
19879,61,57,222,242,1.0,4-28,diminished
19880,64,57,190,220,1.0,4-28,diminished
19881,69,29,77,271,1.0,4-28,diminished
19882,64,48,248,207,5.0,4-22A,major
19883,72,61,211,1491,7.0,3-7B,other
19884,58,58,388,439,4.0,3-8A,major
19885,62,49,196,448,9.0,3-7A,minor
19886,53,33,68,436,9.0,3-11A,minor
19887,57,19,79,524,0.0,2-4,major
19888,72,58,261,1390,5.0,3-8B,other
19889,67,45,127,457,3.0,3-9,other
19890,69,40,368,464,5.0,3-4A,other
19891,50,20,283,1911,2.0,2-4,major
19892,50,27,2614,1031,2.0,3-9,other
19893,57,38,272,1442,2.0,2-2,other
19894,60,51,938,329,2.0,2-2,other
19895,64,54,193,574,2.0,2-2,other
19896,66,59,235,267,2.0,2-2,other
19897,74,36,232,952,5.0,2-5,other
19898,44,50,410,265,5.0,2-5,other
19899,60,39,626,950,5.0,2-1,other
19900,81,51,176,338,5.0,2-1,other
19901,84,57,95,295,5.0,2-1,other
19902,98,79,344,344,5.0,2-5,other
19903,97,64,221,308,5.0,2-5,other
19904,96,68,253,315,5.0,2-5,other
19905,94,62,258,650,7.0,3-11B,major
19906,96,67,254,343,7.0,3-11B,major
19907,55,13,227,339,10.0,3-4A,major
19908,94,60,163,255,10.0,3-4A,major
19909,90,60,185,253,10.0,3-4A,major
19910,93,71,197,223,10.0,3-4A,major
19911,43,30,148,162,10.0,3-4A,major
19912,86,56,126,254,7.0,2-2,other
19913,86,53,115,220,7.0,2-2,other
19914,86,55,115,237,7.0,2-2,other
19915,87,38,159,616,7.0,2-5,other
19916,86,57,159,83,7.0,2-5,other
19917,84,24,113,199,7.0,2-5,other
19918,86,57,104,175,7.0,2-5,other
19919,96,58,188,262,8.0,2-2,other
19920,96,64,141,317,8.0,2-2,other
19921,94,69,115,238,8.0,2-2,other
19922,65,36,331,284,1.0,2-3,other
19923,85,43,429,162,1.0,2-3,other
19924,84,45,90,447,1.0,2-3,other
19925,84,50,132,244,1.0,2-3,other
19926,57,32,507,209,5.0,1-1,other
19927,89,59,140,227,5.0,1-1,other
19928,87,45,91,215,5.0,1-1,other
19929,87,61,183,215,5.0,1-1,other
19930,85,21,291,439,5.0,3-11B,other
19931,84,57,119,211,5.0,3-11B,other
19932,83,32,59,292,5.0,3-11B,other
19933,81,53,482,230,9.0,2-2,other
19934,84,76,196,602,9.0,2-2,other
19935,81,50,96,434,0.0,2-4,other
19936,78,56,124,242,0.0,2-4,other
19937,79,37,53,114,0.0,2-4,other
19938,75,56,142,201,0.0,2-4,other
19939,76,62,125,102,0.0,2-4,other
19940,64,38,76,114,0.0,2-4,other
19941,72,56,168,159,0.0,2-4,other
19942,69,51,114,229,0.0,2-4,other
19943,64,62,185,255,0.0,2-4,other
19944,52,27,397,351,9.0,3-7A,minor
19945,44,38,281,1008,9.0,3-7A,minor
19946,53,19,282,34,9.0,3-7A,minor
19947,88,45,48,566,2.0,2-1,other
19948,82,74,118,366,2.0,2-1,other
19949,62,37,104,46,2.0,2-1,other
19950,83,51,90,69,8.0,2-3,minor
19951,79,66,106,270,8.0,2-3,minor
19952,80,30,152,86,8.0,2-3,minor
19953,77,68,147,297,8.0,2-3,minor
19954,72,66,91,459,8.0,2-3,other
19955,67,42,79,556,8.0,2-3,other
19956,50,34,269,790,8.0,3-10,minor
19957,43,38,1012,338,8.0,3-10,minor
19958,58,55,42,140,8.0,3-10,minor
19959,60,29,57,139,8.0,3-10,minor
19960,58,52,145,62,8.0,3-10,minor
19961,57,34,162,185,8.0,3-10,minor
19962,58,54,49,196,8.0,3-10,minor
19963,53,26,162,197,8.0,3-10,minor
19964,69,68,157,45,8.0,3-10,minor
19965,66,57,103,301,8.0,3-10,minor
19966,67,64,206,244,8.0,3-10,minor
19967,57,31,67,346,10.0,2-4,major
19968,62,56,148,575,10.0,2-4,major
19969,50,41,313,393,10.0,2-4,major
19970,51,48,173,669,10.0,2-4,major
19971,36,48,1082,408,10.0,2-4,major
19972,48,62,255,420,10.0,2-4,major
19973,49,60,192,313,10.0,2-4,major
19974,50,66,114,186,10.0,2-4,major
19975,51,50,112,175,10.0,2-4,major
19976,52,58,118,148,10.0,2-4,major
19977,54,57,141,194,10.0,2-4,major
19978,55,50,115,200,10.0,2-4,major
19979,57,62,136,186,10.0,2-4,major
19980,58,59,87,152,10.0,2-4,major
19981,60,62,116,129,10.0,2-4,major
19982,61,51,99,165,10.0,2-4,major
19983,62,62,99,148,10.0,2-4,major
19984,58,36,558,67,10.0,2-4,major
19985,64,62,147,233,0.0,2-3,minor
19986,66,48,117,170,0.0,2-3,minor
19987,67,32,141,159,0.0,2-3,minor
19988,68,48,58,123,0.0,2-3,minor
19989,69,17,124,109,0.0,2-3,minor
19990,70,56,82,117,0.0,2-3,minor
19991,71,48,110,92,0.0,2-3,minor
19992,74,64,284,176,0.0,2-3,minor
19993,60,36,541,745,5.0,3-11B,major
19994,57,32,189,449,5.0,1-1,other
19995,60,46,265,469,5.0,1-1,other
19996,58,55,431,903,6.0,3-10,other
19997,57,50,485,460,6.0,3-10,other
19998,56,56,415,479,6.0,3-10,other
19999,43,36,92,945,2.0,2-3,minor
20000,67,34,116,542,10.0,3-11B,major
20001,81,72,219,472,10.0,3-11B,major
20002,76,48,462,504,9.0,3-3A,major
20003,67,42,439,455,9.0,3-3A,major
20004,68,38,425,944,1.0,4-27A,minor
20005,79,44,123,484,2.0,3-7B,other
20006,62,19,236,1006,0.0,2-5,other
20007,59,53,270,2291,4.0,3-7A,minor
20008,72,44,283,506,6.0,3-10,diminished
20009,59,44,80,682,9.0,2-3,minor
20010,58,47,99,72,9.0,2-3,minor
20011,56,35,42,805,6.0,2-3,other
20012,55,54,208,46,6.0,2-3,other
20013,54,48,40,176,6.0,4-28,diminished
20014,60,39,125,258,6.0,3-10,minor
20015,60,43,798,689,6.0,3-10,minor
20016,50,44,211,575,6.0,3-10,minor
20017,44,42,63,286,6.0,3-10,minor
20018,55,27,225,268,7.0,3-11A,minor
20019,53,14,246,1067,10.0,2-4,major
20020,62,58,143,501,10.0,2-4,major
20021,70,39,243,685,7.0,3-11A,minor
20022,74,57,140,305,7.0,3-11A,minor
20023,37,46,117,284,7.0,3-11A,minor
20024,80,61,739,2885,0.0,2-5,other
20025,78,25,802,93,1.0,3-10,minor
20026,69,11,483,80,1.0,3-10,minor
20027,48,59,113,384,1.0,3-10,minor
20028,81,52,460,448,1.0,3-10,minor
20029,56,34,40,390,9.0,3-3A,major
20030,48,57,723,117,9.0,3-3A,major
20031,48,66,812,953,9.0,3-7A,minor
20032,60,61,280,492,5.0,3-11B,major
20033,48,73,703,482,5.0,3-11B,major
20034,48,56,575,959,7.0,4-22B,minor
20035,48,40,104,923,9.0,3-11A,minor
20036,77,57,47,2723,5.0,3-9,other
20037,77,56,223,972,5.0,4-19B,other
20038,50,51,238,697,0.0,2-5,other
20039,60,33,418,860,4.0,2-3,minor
20040,60,33,410,949,6.0,2-2,other
20041,74,88,3931,541,6.0,2-2,other
20042,50,40,846,1089,2.0,2-5,other
20043,62,32,231,711,4.0,3-6,major
20044,50,31,762,274,4.0,3-6,major
20045,62,38,102,321,9.0,3-7B,other
20046,50,30,711,661,4.0,4-23,minor
20047,50,35,419,923,8.0,3-8A,other
20048,71,52,196,246,8.0,3-8A,other
20049,69,24,120,58,2.0,2-3,minor
20050,50,43,56,578,11.0,3-8B,other
20051,58,33,244,364,0.0,2-2,other
20052,43,32,236,571,10.0,3-9,other
20053,65,49,856,374,10.0,3-4A,major
20054,56,71,313,586,10.0,3-4A,major
20055,43,37,538,967,7.0,4-26,minor
20056,70,49,126,946,7.0,3-11B,major
20057,43,27,106,26,7.0,3-11B,major
20058,65,50,183,333,9.0,3-3A,major
20059,58,44,105,178,9.0,3-3A,major
20060,58,48,138,237,5.0,2-4,other
20061,61,23,166,128,5.0,2-4,other
20062,58,49,122,161,5.0,2-4,major
20063,61,27,142,136,5.0,2-4,major
20064,65,28,118,38,5.0,2-4,major
20065,58,50,130,85,5.0,2-4,major
20066,61,25,192,137,5.0,2-4,major
20067,65,30,149,47,5.0,2-4,major
20068,58,49,146,88,5.0,2-4,major
20069,65,27,162,172,1.0,2-5,other
20070,58,45,143,102,1.0,2-5,other
20071,61,21,165,144,1.0,2-5,other
20072,65,24,144,37,1.0,2-5,other
20073,58,42,148,85,1.0,2-5,other
20074,54,38,116,42,1.0,2-5,other
20075,65,24,131,145,1.0,2-6,other
20076,58,43,157,74,1.0,2-6,other
20077,61,35,73,149,1.0,2-6,other
20078,65,24,80,71,1.0,2-6,other
20079,58,44,135,60,1.0,2-6,other
20080,61,19,157,134,1.0,2-6,other
20081,65,24,88,51,1.0,2-6,other
20082,58,44,147,56,1.0,2-6,other
20083,61,14,167,135,1.0,2-6,other
20084,65,30,135,43,1.0,2-6,other
20085,58,46,162,77,1.0,2-6,other
20086,49,55,534,82,1.0,2-6,other
20087,61,44,186,58,1.0,2-6,other
20088,58,49,156,117,1.0,2-6,other
20089,61,20,451,155,1.0,2-6,other
20090,65,36,165,26,1.0,2-6,other
20091,58,35,346,105,1.0,2-6,other
20092,52,39,405,66,1.0,2-6,other
20093,46,53,218,213,1.0,2-6,other
20094,55,44,402,265,9.0,4-26,minor
20095,60,27,137,238,9.0,4-26,minor
20096,64,24,103,162,9.0,4-26,minor
20097,67,24,78,30,9.0,4-26,minor
20098,60,33,105,79,9.0,4-26,minor
20099,60,35,137,230,4.0,2-3,minor
20100,60,36,126,257,7.0,2-1,other
20101,60,39,125,250,4.0,2-3,minor
20102,60,38,117,256,4.0,2-3,minor
20103,60,37,111,509,4.0,3-2B,minor
20104,60,43,144,223,4.0,2-3,minor
20105,60,37,128,262,4.0,2-3,minor
20106,64,36,140,129,4.0,2-3,minor
20107,50,38,124,60,4.0,2-3,minor
20108,51,46,115,39,4.0,2-3,minor
20109,60,40,113,42,4.0,2-3,minor
20110,52,36,62,59,4.0,2-3,minor
20111,60,37,108,196,4.0,3-2A,minor
20112,64,46,141,132,4.0,3-2A,minor
20113,67,22,133,32,4.0,3-2A,minor
20114,60,36,110,102,4.0,3-2A,minor
20115,50,35,201,86,4.0,3-2A,minor
20116,64,47,94,41,4.0,3-2A,minor
20117,60,40,100,123,4.0,3-2A,minor
20118,43,38,1676,81,4.0,3-2A,minor
20119,43,29,89,1783,3.0,2-5,other
20120,49,48,320,26,3.0,2-5,other
20121,50,40,125,2006,7.0,4-26,minor
20122,82,37,1844,343,1.0,1-1,other
20123,79,30,346,31,1.0,1-1,other
20124,79,33,1193,552,2.0,1-1,other
20125,58,39,97,302,2.0,1-1,other
20126,43,33,674,655,2.0,1-1,other
20127,79,32,767,432,1.0,2-3,other
20128,43,22,262,1499,0.0,2-5,other
20129,60,35,70,1233,4.0,2-6,other
20130,76,53,555,1650,8.0,1-1,other
20131,57,46,369,1297,5.0,2-5,other
20132,64,50,186,922,0.0,1-1,other
20133,57,24,114,79,9.0,3-11A,minor
20134,60,27,166,1186,2.0,3-11A,minor
20135,62,27,70,691,9.0,2-3,minor
20136,53,20,410,935,7.0,4-26,minor
20137,43,53,100,1423,10.0,4-20,major
20138,41,88,741,3320,9.0,4-23,minor
20139,60,31,307,3003,2.0,5-31B,major
20140,62,64,1008,1397,6.0,3-10,minor
20141,69,34,679,515,6.0,2-3,other
20142,60,82,949,458,6.0,2-3,other
20143,69,32,588,499,6.0,2-3,other
20144,57,63,446,458,6.0,2-3,other
20145,50,58,841,998,7.0,3-7A,minor
20146,58,50,358,470,7.0,3-7A,minor
20147,55,62,869,435,2.0,2-3,minor
20148,58,83,339,921,7.0,2-5,other
20149,61,62,405,933,7.0,3-11A,minor
20150,36,74,225,993,0.0,2-4,major
20151,36,75,86,468,0.0,2-4,major
20152,76,45,368,558,1.0,4-27A,minor
20153,76,38,457,457,1.0,4-27A,minor
20154,36,69,75,445,1.0,4-27A,minor
20155,72,50,48,3320,2.0,2-3,minor
20156,64,51,288,482,8.0,3-8A,other
20157,67,41,50,446,2.0,3-7B,other
20158,53,32,67,490,9.0,3-11A,minor
20159,39,36,317,1539,0.0,3-7B,other
20160,65,49,344,1924,9.0,3-8A,major
20161,46,51,101,415,9.0,3-8A,major
20162,69,60,279,972,2.0,2-2,other
20163,57,28,102,83,2.0,2-2,other
20164,67,68,380,1828,9.0,4-22B,minor
20165,54,32,593,3388,0.0,3-11B,other
20166,54,59,787,930,0.0,3-11B,other
20167,62,57,168,726,1.0,2-5,other
20168,84,68,166,608,0.0,2-5,other
20169,72,48,220,309,0.0,2-5,other
20170,53,14,112,357,10.0,3-6,major
20171,84,33,198,259,10.0,3-6,major
20172,53,19,171,642,0.0,2-5,other
20173,52,31,49,1514,9.0,2-2,other
20174,60,35,57,1420,5.0,2-4,other
20175,76,43,1918,340,9.0,1-1,other
20176,73,25,138,282,8.0,1-1,other
20177,47,60,150,1761,5.0,2-4,other
20178,49,25,73,1233,9.0,2-2,other
20179,50,53,123,56,9.0,2-2,other
20180,49,29,128,425,9.0,4-26,minor
20181,50,42,111,76,9.0,4-26,minor
20182,50,44,74,447,9.0,4-26,minor
20183,64,28,366,141,9.0,4-26,minor
20184,57,20,427,475,6.0,2-3,other
20185,65,44,397,462,6.0,2-3,other
20186,50,45,60,450,6.0,2-3,other
20187,63,94,965,941,4.0,4-18A,major
20188,62,91,936,964,8.0,4-28,diminished
20189,59,76,316,972,8.0,4-28,diminished
20190,74,49,155,2551,1.0,3-10,other
20191,74,46,111,280,10.0,2-4,major
20192,74,47,141,217,10.0,2-4,major
20193,82,27,112,154,10.0,2-4,major
20194,79,22,47,34,10.0,2-4,major
20195,82,34,155,191,2.0,1-1,other
20196,79,24,55,47,2.0,1-1,other
20197,74,44,135,41,2.0,1-1,other
20198,82,21,346,162,2.0,1-1,other
20199,74,36,146,118,2.0,1-1,other
20200,52,24,220,1489,0.0,2-5,other
20201,76,34,183,2003,1.0,2-1,other
20202,49,29,238,1415,6.0,4-26,minor
20203,64,60,120,0,7.0,1-1,other
20204,84,57,15,126,4.0,4-25,other
20205,76,66,51,55,4.0,4-25,other
20206,62,54,15,313,7.0,3-9,other
20207,67,58,38,313,7.0,2-5,other
20208,72,81,16,94,5.0,3-11B,major
20209,67,62,59,121,4.0,4-26,minor
20210,58,62,25,95,9.0,4-14A,minor
20211,56,62,31,56,9.0,3-7A,minor
20212,52,72,29,84,0.0,3-11B,major
20213,55,103,43,34,0.0,3-11B,major
20214,43,72,66,398,5.0,4-20,major
20215,62,79,67,657,6.0,4-27A,diminished
20216,60,63,119,63,6.0,4-27A,diminished
20217,46,66,109,204,0.0,4-26,other
20218,56,78,48,456,9.0,4-26,minor
20219,44,100,50,357,10.0,5-30B,other
20220,79,63,52,329,0.0,2-4,major
20221,84,116,23,168,4.0,3-7A,minor
20222,72,57,6,80,0.0,4-24,augmented
20223,68,70,63,128,0.0,4-24,augmented
20224,64,55,14,36,0.0,4-24,augmented
20225,74,72,116,83,2.0,4-22B,minor
20226,57,65,69,81,2.0,4-22B,minor
20227,71,89,15,67,2.0,4-22B,minor
20228,67,72,26,88,7.0,4-22A,major
20229,41,78,22,121,11.0,4-27A,diminished
20230,59,69,11,40,11.0,4-27A,diminished
20231,50,84,85,87,9.0,3-11A,minor
20232,72,97,22,40,9.0,3-11A,minor
20233,67,78,45,100,4.0,3-7B,other
20234,53,69,41,81,9.0,3-11A,minor
20235,45,79,72,33,9.0,3-11A,minor
20236,56,83,26,30,9.0,3-11A,minor
20237,45,71,14,88,0.0,3-11B,major
20238,74,92,34,224,2.0,3-7B,other
20239,62,61,11,114,5.0,4-20,major
20240,60,67,25,53,2.0,4-19A,minor
20241,67,105,16,210,7.0,3-7A,minor
20242,62,55,37,66,7.0,2-3,minor
20243,69,94,34,34,7.0,2-3,minor
20244,67,79,8,50,7.0,2-3,minor
20245,56,73,37,117,9.0,3-11A,minor
20246,48,69,26,76,1.0,4-28,diminished
20247,56,64,37,474,2.0,4-23,minor
20248,48,62,122,87,2.0,4-23,minor
20249,46,87,32,197,9.0,2-3,minor
20250,56,80,49,79,9.0,3-11A,minor
20251,43,92,38,140,0.0,2-5,other
20252,42,82,16,63,0.0,2-5,other
20253,74,10,22,312,9.0,2-3,minor
20254,47,68,24,82,3.0,4-24,augmented
20255,64,52,11,48,3.0,4-24,augmented
20256,67,86,38,96,4.0,2-5,other
20257,67,85,49,102,0.0,2-5,other
20258,52,66,54,171,1.0,4-27A,diminished
20259,62,60,24,26,1.0,4-27A,diminished
20260,71,75,9,77,7.0,2-5,other
20261,67,80,46,106,5.0,4-20,major
20262,65,79,28,107,5.0,3-12,augmented
20263,67,90,23,36,5.0,3-12,augmented
20264,71,79,16,196,11.0,4-15B,minor
20265,69,72,10,38,11.0,4-15B,minor
20266,47,76,100,79,4.0,2-4,major
20267,61,75,22,222,1.0,2-2,other
20268,76,71,14,137,1.0,3-8B,other
20269,51,70,62,361,9.0,4-11B,minor
20270,67,105,39,260,4.0,2-5,other
20271,67,69,48,106,0.0,3-11B,major
20272,69,66,33,37,0.0,3-11B,major
20273,71,67,61,81,1.0,4-27A,diminished
20274,52,58,89,77,1.0,4-27A,diminished
20275,57,86,24,197,0.0,2-5,other
20276,65,77,49,89,5.0,5-26B,augmented
20277,67,84,11,37,5.0,5-26B,augmented
20278,51,81,41,197,9.0,3-9,other
20279,47,72,64,118,3.0,3-4A,other
20280,52,95,43,28,3.0,3-4A,other
20281,56,98,22,26,3.0,3-4A,other
20282,68,86,21,63,8.0,1-1,other
20283,68,82,21,39,8.0,1-1,other
20284,55,56,89,81,1.0,4-26,minor
20285,59,64,49,37,1.0,4-26,minor
20286,64,53,15,48,1.0,4-26,minor
20287,62,54,37,416,2.0,6-32,minor
20288,79,74,45,244,0.0,2-4,major
20289,60,54,22,57,0.0,2-4,major
20290,84,97,21,35,0.0,2-4,major
20291,72,43,13,279,0.0,4-24,augmented
20292,58,80,28,740,7.0,3-11B,major
20293,56,84,41,61,9.0,3-11A,minor
20294,76,97,23,272,2.0,3-6,major
20295,79,86,9,242,2.0,5-27B,minor
20296,43,60,188,50,2.0,5-27B,minor
20297,72,74,35,663,5.0,5-27A,major
20298,72,62,12,115,9.0,5-35,minor
20299,60,67,26,421,7.0,1-1,other
20300,65,74,40,538,9.0,2-3,minor
20301,57,55,50,365,2.0,4-27B,major
20302,57,72,23,114,5.0,3-11B,major
20303,60,36,19,241,5.0,4-14A,other
20304,43,63,49,132,9.0,4-26,minor
20305,72,69,26,352,0.0,4-19A,augmented
20306,60,46,57,361,5.0,3-11A,other
20307,56,54,14,59,5.0,3-11A,other
20308,43,52,162,181,0.0,3-6,major
20309,67,55,12,122,4.0,3-7A,minor
20310,43,41,32,377,0.0,3-11B,major
20311,52,54,7,38,0.0,3-11B,major
20312,57,52,60,59,0.0,3-11B,major
20313,62,41,37,67,0.0,3-11B,major
20314,67,36,329,42,0.0,3-11B,major
20315,71,41,339,186,0.0,3-11B,major
20316,74,33,82,63,0.0,3-11B,major
20317,79,46,52,59,0.0,3-11B,major
20318,86,53,21,56,0.0,3-11B,major
20319,91,54,349,65,0.0,3-11B,major
20320,98,58,209,50,0.0,3-11B,major
20321,50,38,44,0,11.0,4-26,minor
20322,54,56,9,26,11.0,4-26,minor
20323,57,61,23,32,11.0,4-26,minor
20324,59,71,21,30,11.0,4-26,minor
20325,62,71,25,28,11.0,4-26,minor
20326,64,76,27,30,11.0,4-26,minor
20327,58,64,163,266,10.0,3-12,augmented
20328,48,87,118,77,10.0,3-12,augmented
20329,64,114,91,46,10.0,3-12,augmented
20330,54,53,26,75,10.0,3-12,augmented
20331,59,72,31,104,11.0,1-1,other
20332,58,58,23,34,11.0,1-1,other
20333,61,61,28,86,0.0,2-1,other
20334,62,70,21,30,0.0,2-1,other
20335,64,73,28,61,9.0,2-6,other
20336,65,78,28,32,9.0,2-6,other
20337,66,95,23,28,9.0,2-6,other
20338,66,74,22,61,11.0,2-5,other
20339,66,66,20,29,11.0,2-5,other
20340,66,60,18,30,11.0,2-5,other
20341,28,77,5,107,4.0,4-21,major
20342,46,63,25,358,0.0,3-12,augmented
20343,58,95,31,325,0.0,4-20,major
20344,57,96,36,41,0.0,4-20,major
20345,45,57,292,234,0.0,3-11B,major
20346,54,78,35,120,0.0,2-4,major
20347,51,57,37,123,5.0,3-4B,other
20348,45,73,8,115,9.0,3-11A,minor
20349,60,57,29,122,9.0,5-29B,diminished
20350,60,44,39,117,9.0,5-29B,diminished
20351,69,63,49,120,9.0,5-29B,diminished
20352,63,55,49,44,9.0,5-29B,diminished
20353,63,57,36,77,9.0,5-29B,diminished
20354,53,68,35,447,5.0,4-27B,major
20355,48,80,24,40,5.0,4-27B,major
20356,45,71,10,36,5.0,4-27B,major
20357,90,95,16,551,11.0,4-29A,minor
20358,87,73,41,113,5.0,2-5,other
20359,86,78,18,30,5.0,2-5,other
20360,82,79,20,60,0.0,1-1,other
20361,78,84,16,30,0.0,1-1,other
20362,74,74,23,90,3.0,2-1,other
20363,72,59,12,30,3.0,2-1,other
20364,66,78,10,104,6.0,4-15B,minor
20365,61,79,21,102,9.0,2-5,other
20366,64,83,21,33,9.0,2-5,other
20367,67,72,7,736,4.0,3-11A,minor
20368,33,83,67,238,7.0,5-27A,major
20369,51,45,41,368,3.0,6-14B,augmented
20370,45,88,172,112,4.0,5-27B,minor
20371,67,70,17,722,9.0,3-11A,minor
20372,50,72,161,125,0.0,5-30B,augmented
20373,78,105,18,106,0.0,5-30B,augmented
20374,72,53,12,118,0.0,2-3,minor
20375,69,61,15,28,0.0,2-3,minor
20376,59,76,20,264,7.0,4-14B,major
20377,62,113,98,76,7.0,4-14B,major
20378,66,88,24,122,7.0,4-14B,major
20379,66,65,17,124,2.0,2-4,major
20380,46,57,10,488,4.0,3-8B,other
20381,59,61,34,154,10.0,2-4,other
20382,54,50,32,71,10.0,2-4,other
20383,74,84,16,211,2.0,3-11B,major
20384,76,56,26,146,0.0,5-30B,other
20385,83,76,22,75,0.0,5-30B,other
20386,83,71,38,290,2.0,2-3,minor
20387,57,50,25,335,0.0,3-4A,major
20388,45,62,198,377,9.0,4-26,minor
20389,60,61,75,51,9.0,4-26,minor
20390,64,67,29,79,9.0,4-26,minor
20391,69,93,23,44,9.0,4-26,minor
20392,69,76,21,34,9.0,4-26,minor
20393,71,90,17,38,9.0,4-26,minor
20394,58,79,22,212,3.0,2-4,major
20395,55,43,36,45,3.0,2-4,major
20396,48,40,29,233,2.0,4-18A,major
20397,48,46,39,130,5.0,4-24,augmented
20398,41,61,182,110,9.0,3-10,diminished
20399,41,79,10,240,5.0,4-27B,major
20400,56,66,26,238,4.0,4-22B,minor
20401,72,84,16,215,10.0,4-19B,augmented
20402,69,75,16,246,9.0,3-9,other
20403,45,91,20,731,4.0,3-7B,other
20404,45,76,81,363,9.0,2-5,other
20405,45,81,19,122,9.0,4-27B,major
20406,58,53,39,588,3.0,4-19B,augmented
20407,51,38,27,124,9.0,4-27A,diminished
20408,74,86,20,483,2.0,3-9,other
20409,73,59,22,32,2.0,3-9,other
20410,52,77,30,179,8.0,2-6,other
20411,46,54,27,520,1.0,2-6,other
20412,50,75,146,715,0.0,4-18A,minor
20413,38,71,23,477,2.0,2-1,other
20414,46,55,34,248,8.0,5-24A,other
20415,64,68,21,205,4.0,4-22B,minor
20416,74,71,29,377,7.0,3-11B,major
20417,74,53,22,66,2.0,3-4B,other
20418,78,75,21,152,11.0,2-2,other
20419,74,75,22,36,11.0,2-2,other
20420,66,70,25,82,11.0,1-1,other
20421,62,52,25,42,11.0,1-1,other
20422,51,80,39,355,4.0,3-8B,other
20423,46,60,32,115,4.0,3-8B,other
20424,58,81,25,124,11.0,1-1,other
20425,60,63,16,75,11.0,2-2,other
20426,61,70,20,30,11.0,2-2,other
20427,62,69,23,29,11.0,2-2,other
20428,64,78,20,58,9.0,2-6,other
20429,66,68,24,30,9.0,2-6,other
20430,76,83,14,60,11.0,1-1,other
20431,77,77,13,33,11.0,1-1,other
20432,78,96,22,30,11.0,1-1,other
20433,79,109,24,28,11.0,1-1,other
20434,76,84,29,30,11.0,1-1,other
20435,58,61,43,1035,0.0,3-4A,major
20436,84,100,10,600,0.0,3-11A,minor
20437,84,74,13,116,3.0,2-1,other
20438,79,77,8,76,9.0,2-2,other
20439,75,82,14,33,9.0,2-2,other
20440,70,73,19,94,6.0,2-6,other
20441,69,63,126,36,6.0,2-6,other
20442,50,70,109,54,6.0,2-6,other
20443,68,72,33,73,6.0,2-6,other
20444,52,54,42,246,3.0,3-9,other
20445,86,69,22,363,7.0,2-5,other
20446,57,78,40,712,6.0,4-26,minor
20447,66,79,17,81,1.0,2-3,minor
20448,70,87,23,41,1.0,2-3,minor
20449,74,96,18,75,9.0,3-8A,other
20450,71,87,20,29,9.0,3-8A,other
20451,72,91,20,89,11.0,2-2,other
20452,69,56,15,31,11.0,2-2,other
20453,56,47,21,91,11.0,3-7A,minor
20454,47,76,9,365,7.0,2-4,major
20455,33,79,5,158,7.0,4-22A,major
20456,51,76,92,1241,9.0,4-26,minor
20457,39,64,33,71,9.0,4-26,minor
20458,94,102,28,201,6.0,2-6,other
20459,90,91,23,28,6.0,2-6,other
20460,89,90,16,35,6.0,2-6,other
20461,86,70,25,56,0.0,2-3,minor
20462,84,80,23,33,0.0,2-3,minor
20463,82,84,24,30,0.0,2-3,minor
20464,74,88,17,184,11.0,1-1,other
20465,71,83,13,28,11.0,1-1,other
20466,62,61,24,60,11.0,2-5,other
20467,62,56,20,41,11.0,2-5,other
20468,58,79,30,34,11.0,2-5,other
20469,54,81,34,76,11.0,2-3,minor
20470,50,74,35,36,11.0,2-3,minor
20471,54,70,31,84,4.0,2-3,minor
20472,55,59,43,41,4.0,2-3,minor
20473,58,72,23,81,9.0,3-11A,minor
20474,62,74,30,39,9.0,3-11A,minor
20475,52,55,31,34,9.0,3-11A,minor
20476,69,73,20,43,9.0,3-11A,minor
20477,74,97,25,40,9.0,3-11A,minor
20478,81,92,27,88,2.0,4-27B,major
20479,48,60,31,76,2.0,3-11B,major
20480,48,58,15,79,2.0,3-11B,major
20481,69,84,13,241,2.0,3-11B,major
20482,40,61,17,401,9.0,5-30A,minor
20483,40,69,17,42,9.0,5-30A,minor
20484,52,51,18,401,9.0,4-26,minor
20485,56,105,245,112,0.0,3-11B,major
20486,52,58,269,246,0.0,3-4A,major
20487,45,75,206,238,0.0,2-4,major
20488,53,95,113,120,6.0,4-27A,diminished
20489,52,60,17,117,0.0,2-4,major
20490,48,77,43,124,0.0,3-11A,minor
20491,63,49,42,49,0.0,3-11A,minor
20492,72,66,11,65,0.0,3-11A,minor
20493,57,64,27,175,5.0,3-8A,major
20494,87,104,18,60,5.0,3-8A,major
20495,91,109,30,29,5.0,3-8A,major
20496,79,95,23,174,3.0,2-4,major
20497,75,67,17,30,3.0,2-4,major
20498,60,50,15,212,9.0,3-5A,other
20499,63,76,24,29,9.0,3-5A,other
20500,64,76,15,29,9.0,3-5A,other
20501,60,70,16,73,9.0,2-2,other
20502,52,73,32,41,9.0,2-2,other
20503,71,82,27,113,9.0,4-23,minor
20504,48,46,16,244,0.0,1-1,other
20505,51,79,119,345,5.0,4-29B,major
20506,47,69,19,119,7.0,4-22A,major
20507,40,82,43,54,7.0,4-22A,major
20508,46,99,45,420,4.0,4-26,minor
20509,60,85,19,426,5.0,5-30B,other
20510,55,69,46,241,9.0,4-26,minor
20511,67,87,18,83,0.0,2-4,major
20512,67,71,66,389,0.0,2-3,minor
20513,63,62,18,59,0.0,2-3,minor
20514,58,72,53,123,4.0,4-27B,major
20515,50,68,16,119,9.0,3-9,other
20516,74,62,29,124,11.0,3-7A,minor
20517,74,57,24,56,11.0,3-7A,minor
20518,74,46,24,62,11.0,3-7A,minor
20519,74,60,30,124,8.0,4-24,other
20520,74,68,11,119,4.0,2-2,other
20521,73,90,32,242,5.0,3-11B,other
20522,73,64,45,114,5.0,4-24,augmented
20523,72,81,22,245,9.0,3-7A,minor
20524,72,92,27,48,9.0,3-7A,minor
20525,72,70,30,75,9.0,3-7A,minor
20526,58,62,37,128,0.0,3-4A,major
20527,51,51,13,118,9.0,3-11A,minor
20528,38,55,9,245,11.0,6-33A,minor
20529,67,60,27,343,7.0,3-11B,major
20530,67,56,19,62,7.0,3-11B,major
20531,67,59,33,58,7.0,3-11B,major
20532,69,77,36,121,10.0,6-34A,augmented
20533,69,71,45,59,10.0,6-34A,augmented
20534,67,60,22,56,10.0,6-34A,augmented
20535,62,67,29,124,7.0,4-22A,major
20536,62,53,22,59,7.0,4-22A,major
20537,62,58,24,55,7.0,4-22A,major
20538,66,60,41,126,10.0,5-33,augmented
20539,66,59,41,60,10.0,5-33,augmented
20540,64,53,25,58,10.0,5-33,augmented
20541,59,55,34,122,7.0,3-11B,major
20542,60,55,73,101,7.0,2-4,major
20543,74,67,27,239,2.0,4-27B,major
20544,83,74,11,149,4.0,5-35,minor
20545,88,71,9,48,4.0,5-35,minor
20546,95,81,32,65,4.0,5-35,minor
20547,90,55,8,57,4.0,5-35,minor
20548,74,32,16,0,4.0,4-18A,major
20549,61,23,24,80,4.0,4-18A,major
20550,77,83,40,852,9.0,4-23,minor
20551,76,49,12,68,9.0,4-23,minor
20552,67,54,100,180,0.0,4-23,minor
20553,74,60,32,1076,0.0,2-1,other
20554,77,81,32,100,0.0,2-1,other
20555,77,26,24,144,0.0,2-1,other
20556,80,63,28,136,7.0,2-2,other
20557,81,58,36,28,7.0,2-2,other
20558,84,81,40,88,7.0,2-2,other
20559,84,78,136,248,5.0,4-16A,other
20560,82,61,168,132,5.0,4-16A,other
20561,60,63,220,1148,5.0,3-12,augmented
20562,76,63,56,396,5.0,2-4,major
20563,70,56,176,372,10.0,4-20,major
20564,62,54,76,324,10.0,3-4A,major
20565,65,52,36,112,10.0,3-4A,major
20566,77,23,80,1700,10.0,5-30B,other
20567,77,31,60,196,0.0,2-2,other
20568,86,111,52,1468,4.0,3-8B,other
20569,84,78,36,108,4.0,3-8B,other
20570,62,34,256,132,8.0,2-2,other
20571,77,62,28,52,8.0,2-2,other
20572,74,60,32,72,8.0,2-2,other
20573,72,48,20,68,8.0,2-2,other
20574,68,60,48,64,8.0,2-2,other
20575,65,39,44,144,5.0,2-4,major
20576,62,36,24,80,5.0,2-4,major
20577,69,55,36,308,0.0,2-4,other
20578,69,77,44,132,4.0,4-25,other
20579,50,51,40,416,6.0,3-10,minor
20580,51,53,32,340,6.0,4-28,diminished
20581,74,54,16,716,10.0,2-4,major
20582,79,43,12,72,10.0,2-4,major
20583,82,56,12,60,10.0,2-4,major
20584,83,64,24,48,10.0,2-4,major
20585,84,57,24,56,10.0,2-4,major
20586,85,58,12,44,10.0,2-4,major
20587,87,48,36,68,8.0,4-28,diminished
20588,88,67,24,40,8.0,4-28,diminished
20589,89,70,36,44,8.0,4-28,diminished
20590,89,38,12,104,8.0,4-28,diminished
20591,89,59,28,72,8.0,4-28,diminished
20592,89,57,32,80,8.0,4-28,diminished
20593,88,55,56,324,8.0,4-28,diminished
20594,84,72,96,680,2.0,3-7A,minor
20595,89,72,48,220,3.0,4-22A,major
20596,87,63,56,172,3.0,4-22A,major
20597,77,48,32,216,2.0,5-38A,major
20598,79,58,32,160,2.0,5-38A,major
20599,81,65,32,64,2.0,5-38A,major
20600,81,43,12,140,2.0,4-23,minor
20601,84,68,28,56,2.0,4-23,minor
20602,81,52,12,64,2.0,4-23,minor
20603,77,49,28,60,2.0,4-23,minor
20604,69,49,24,188,10.0,4-22A,major
20605,70,54,56,64,10.0,4-22A,major
20606,84,115,40,416,5.0,3-8B,other
20607,84,102,68,124,10.0,2-1,other
20608,82,76,48,60,10.0,2-1,other
20609,77,47,32,124,5.0,5-30B,other
20610,73,58,36,48,5.0,5-30B,other
20611,72,55,40,60,5.0,5-30B,other
20612,69,32,28,108,1.0,2-3,other
20613,67,40,40,52,1.0,2-3,other
20614,68,57,32,60,1.0,2-3,other
20615,72,57,32,116,5.0,3-11B,major
20616,74,63,40,56,5.0,3-11B,major
20617,72,46,24,68,5.0,3-11B,major
20618,79,83,40,180,5.0,3-4B,other
20619,77,77,52,80,5.0,3-4B,other
20620,73,61,36,84,5.0,3-4B,other
20621,76,75,52,52,5.0,3-4B,other
20622,73,57,32,52,5.0,3-4B,other
20623,69,54,36,124,2.0,4-26,minor
20624,67,49,44,64,2.0,4-26,minor
20625,65,50,28,76,2.0,4-26,minor
20626,62,39,124,128,2.0,4-26,minor
20627,86,102,56,948,10.0,4-20,major
20628,82,78,72,180,10.0,4-20,major
20629,62,17,176,1264,5.0,4-22A,major
20630,79,63,28,292,5.0,4-22A,major
20631,86,25,36,676,0.0,5-30B,other
20632,44,64,24,1092,0.0,5-26B,other
20633,46,45,12,44,0.0,5-26B,other
20634,49,61,12,36,0.0,5-26B,other
20635,51,60,16,28,0.0,5-26B,other
20636,54,59,16,36,0.0,5-26B,other
20637,61,61,24,88,8.0,2-2,other
20638,63,60,24,32,8.0,2-2,other
20639,70,63,24,88,8.0,2-2,other
20640,73,58,24,40,8.0,2-2,other
20641,75,56,28,32,8.0,2-2,other
20642,78,56,24,40,8.0,2-2,other
20643,80,57,16,28,8.0,2-2,other
20644,82,52,12,28,8.0,2-2,other
20645,85,49,16,36,8.0,2-2,other
20646,92,35,168,116,8.0,4-11A,other
20647,80,63,48,524,3.0,3-9,other
20648,80,58,52,108,3.0,3-9,other
20649,82,46,44,212,5.0,4-20,other
20650,80,46,36,36,5.0,4-20,other
20651,77,48,28,28,5.0,4-20,other
20652,80,55,40,80,5.0,4-20,other
20653,82,63,40,60,5.0,4-20,other
20654,80,58,32,44,5.0,4-20,other
20655,80,64,36,100,5.0,2-4,other
20656,82,59,36,56,5.0,2-4,other
20657,80,56,32,32,5.0,2-4,other
20658,77,52,20,36,5.0,2-4,other
20659,80,56,28,60,5.0,2-4,other
20660,80,55,108,96,10.0,4-20,other
20661,55,44,16,2020,0.0,4-26,other
20662,52,56,16,92,8.0,2-1,other
20663,53,65,20,100,8.0,2-1,other
20664,55,60,36,56,8.0,2-1,other
20665,56,58,36,48,8.0,2-1,other
20666,58,48,12,36,8.0,2-1,other
20667,60,63,44,28,8.0,2-1,other
20668,65,68,40,104,3.0,2-1,other
20669,70,59,12,76,7.0,2-1,other
20670,72,61,40,32,7.0,2-1,other
20671,77,54,36,96,3.0,2-1,other
20672,84,54,20,128,8.0,3-2A,other
20673,86,46,32,40,8.0,3-2A,other
20674,87,50,28,32,8.0,3-2A,other
20675,88,42,20,40,8.0,3-2A,other
20676,89,54,32,28,8.0,3-2A,other
20677,68,62,32,2308,0.0,3-11B,other
20678,77,90,40,64,0.0,3-11B,other
20679,68,66,200,232,0.0,2-4,other
20680,65,47,44,324,8.0,2-3,other
20681,72,70,48,144,8.0,2-3,other
20682,69,57,32,60,8.0,2-3,other
20683,75,63,40,452,5.0,2-4,other
20684,72,49,44,48,5.0,2-4,other
20685,73,57,56,56,5.0,2-4,other
20686,81,54,24,228,5.0,3-4A,other
20687,82,60,96,60,5.0,3-4A,other
20688,56,56,72,508,5.0,2-4,other
20689,52,51,12,1948,0.0,4-27B,major
20690,48,49,244,772,0.0,4-27B,major
20691,86,65,36,884,5.0,4-20,major
20692,84,39,20,52,5.0,4-20,major
20693,84,56,16,148,2.0,4-26,minor
20694,81,43,16,104,2.0,4-26,minor
20695,76,51,32,68,2.0,4-26,minor
20696,74,37,24,84,2.0,4-26,minor
20697,72,43,20,68,6.0,3-10,other
20698,75,57,272,68,6.0,3-10,other
20699,61,46,32,768,7.0,4-14A,minor
20700,65,63,32,112,7.0,4-14A,minor
20701,69,85,44,64,7.0,4-14A,minor
20702,69,57,48,132,10.0,3-3A,major
20703,70,64,40,64,10.0,3-3A,major
20704,80,89,68,196,5.0,2-1,other
20705,67,41,32,284,8.0,4-28,diminished
20706,68,58,36,44,8.0,4-28,diminished
20707,70,57,12,36,8.0,4-28,diminished
20708,71,58,36,28,8.0,4-28,diminished
20709,72,45,28,40,8.0,4-28,diminished
20710,73,56,12,28,8.0,4-28,diminished
20711,74,50,24,32,8.0,4-28,diminished
20712,75,48,36,36,8.0,4-28,diminished
20713,76,56,24,40,8.0,4-28,diminished
20714,77,89,80,36,8.0,4-28,diminished
20715,74,74,76,88,8.0,4-28,diminished
20716,71,63,28,268,5.0,3-11B,major
20717,74,72,56,104,5.0,3-11B,major
20718,65,58,36,224,5.0,2-5,other
20719,67,62,64,88,5.0,2-5,other
20720,69,71,76,88,5.0,2-5,other
20721,72,69,64,212,0.0,4-23,minor
20722,75,68,32,88,0.0,4-23,minor
20723,87,79,72,96,0.0,4-23,minor
20724,86,83,76,216,2.0,3-5B,other
20725,84,64,96,104,2.0,3-5B,other
20726,74,49,68,100,2.0,3-5B,other
20727,84,57,624,204,2.0,4-23,minor
20728,74,52,36,92,2.0,4-23,minor
20729,74,49,40,88,2.0,4-23,minor
20730,70,43,68,664,5.0,3-8B,other
20731,69,36,32,80,5.0,3-8B,other
20732,70,50,40,64,5.0,3-8B,other
20733,70,47,48,124,7.0,2-2,other
20734,69,52,36,64,7.0,2-2,other
20735,70,64,16,36,7.0,2-2,other
20736,82,81,24,60,7.0,2-2,other
20737,70,65,44,172,7.0,2-2,other
20738,69,57,32,52,7.0,2-2,other
20739,72,45,24,68,7.0,2-2,other
20740,53,49,52,532,5.0,3-11B,major
20741,55,46,72,96,5.0,3-11B,major
20742,50,34,44,676,2.0,4-26,minor
20743,57,66,56,368,5.0,1-1,other
20744,61,49,60,936,3.0,5-18A,other
20745,58,49,56,268,1.0,3-10,diminished
20746,65,49,28,680,7.0,3-9,other
20747,66,46,44,40,7.0,3-9,other
20748,68,48,12,40,7.0,3-9,other
20749,70,47,12,32,7.0,3-9,other
20750,72,56,12,32,7.0,3-9,other
20751,77,49,12,112,3.0,3-9,other
20752,78,46,32,32,3.0,3-9,other
20753,82,46,12,60,3.0,3-9,other
20754,84,52,20,36,3.0,3-9,other
20755,89,55,12,116,1.0,2-2,other
20756,90,41,16,40,1.0,2-2,other
20757,94,57,12,96,5.0,3-11B,other
20758,96,72,28,48,5.0,3-11B,other
20759,92,61,16,96,5.0,3-11B,other
20760,99,68,32,172,0.0,4-26,other
20761,96,57,32,80,0.0,4-26,other
20762,96,57,40,108,0.0,4-26,other
20763,92,57,40,208,0.0,3-11B,other
20764,92,58,36,88,0.0,3-11B,other
20765,96,68,24,136,0.0,3-11B,other
20766,98,82,84,1352,5.0,4-20,major
20767,98,84,44,160,5.0,4-20,major
20768,96,66,40,64,5.0,4-20,major
20769,96,56,36,124,2.0,5-31B,major
20770,87,55,36,152,2.0,5-31B,major
20771,85,57,36,680,7.0,4-14A,minor
20772,86,45,40,64,7.0,4-14A,minor
20773,89,34,16,68,7.0,4-14A,minor
20774,93,81,36,52,7.0,4-14A,minor
20775,96,81,52,180,10.0,3-6,major
20776,93,59,24,76,10.0,3-6,major
20777,93,63,32,100,10.0,3-6,major
20778,89,46,16,192,8.0,4-28,diminished
20779,98,81,36,76,8.0,4-28,diminished
20780,98,117,48,116,8.0,4-28,diminished
20781,95,122,52,184,8.0,4-12B,diminished
20782,92,88,44,80,8.0,4-12B,diminished
20783,92,77,40,112,8.0,4-12B,diminished
20784,96,71,36,276,7.0,3-9,other
20785,96,66,44,108,7.0,3-9,other
20786,89,57,64,200,7.0,3-9,other
20787,101,87,40,336,3.0,3-11B,major
20788,98,60,12,52,3.0,3-11B,major
20789,99,66,44,44,3.0,3-11B,major
20790,96,67,16,36,3.0,3-11B,major
20791,93,60,12,32,3.0,3-11B,major
20792,91,70,40,52,3.0,3-11B,major
20793,89,67,28,40,3.0,3-11B,major
20794,88,55,16,36,3.0,3-11B,major
20795,84,56,36,128,9.0,3-8B,other
20796,81,49,28,44,9.0,3-8B,other
20797,79,61,36,80,9.0,3-8B,other
20798,78,62,20,44,9.0,3-8B,other
20799,77,61,28,36,9.0,3-8B,other
20800,76,51,20,36,9.0,3-8B,other
20801,75,58,8,32,9.0,3-8B,other
20802,75,66,28,376,2.0,3-7A,minor
20803,74,52,36,36,2.0,3-7A,minor
20804,73,45,44,28,2.0,3-7A,minor
20805,74,76,36,68,2.0,3-7A,minor
20806,77,75,36,56,2.0,3-7A,minor
20807,81,76,36,52,2.0,3-7A,minor
20808,89,51,36,136,2.0,2-2,other
20809,93,75,32,32,2.0,2-2,other
20810,58,26,32,76,5.0,5-20B,other
20811,70,63,28,2628,10.0,4-20,major
20812,69,52,36,100,0.0,2-2,other
20813,70,74,56,64,0.0,2-2,other
20814,72,73,36,132,0.0,2-2,other
20815,75,62,52,200,1.0,4-12B,minor
20816,76,42,48,84,1.0,4-12B,minor
20817,79,75,32,292,10.0,4-24,augmented
20818,81,79,28,64,10.0,4-24,augmented
20819,82,68,20,60,10.0,4-24,augmented
20820,83,76,32,64,10.0,4-24,augmented
20821,84,57,24,128,5.0,4-16A,other
20822,84,58,32,60,5.0,4-16A,other
20823,84,57,28,68,5.0,4-16A,other
20824,86,82,36,236,5.0,4-16A,other
20825,54,55,28,1044,6.0,4-18A,diminished
20826,70,41,16,2100,2.0,4-26,minor
20827,73,20,84,4908,5.0,5-30B,other
20828,72,50,20,1184,0.0,2-4,major
20829,74,53,20,60,0.0,2-4,major
20830,76,60,20,72,0.0,2-4,major
20831,79,68,28,56,0.0,2-4,major
20832,77,63,36,64,0.0,2-4,major
20833,76,63,32,124,2.0,5-37,minor
20834,74,54,16,72,2.0,5-37,minor
20835,69,60,36,60,2.0,5-37,minor
20836,69,65,32,116,2.0,5-37,minor
20837,67,56,32,132,5.0,3-11B,major
20838,65,54,40,64,5.0,3-11B,major
20839,69,66,40,76,5.0,3-11B,major
20840,67,58,40,56,5.0,3-11B,major
20841,65,51,32,68,5.0,3-11B,major
20842,70,62,40,268,10.0,4-20,major
20843,69,49,40,64,10.0,4-20,major
20844,67,45,20,60,10.0,4-20,major
20845,73,52,40,520,3.0,4-5B,other
20846,72,40,20,64,3.0,4-5B,other
20847,78,96,80,264,4.0,3-8B,other
20848,76,73,28,80,4.0,3-8B,other
20849,78,70,28,48,4.0,3-8B,other
20850,79,69,34,122,10.0,4-24,augmented
20851,80,54,16,46,10.0,4-24,augmented
20852,72,58,36,216,5.0,4-20,major
20853,74,86,76,340,9.0,3-11A,minor
20854,76,75,36,108,9.0,3-11A,minor
20855,77,81,48,60,9.0,3-11A,minor
20856,60,29,96,5020,6.0,4-27A,diminished
20857,90,70,32,68,6.0,4-27A,diminished
20858,81,44,20,192,0.0,3-6,major
20859,79,63,96,132,0.0,3-6,major
20860,80,43,40,112,0.0,4-26,other
20861,79,55,40,28,0.0,4-26,other
20862,77,51,28,44,0.0,4-26,other
20863,76,54,28,44,0.0,4-26,other
20864,79,59,44,44,0.0,4-26,other
20865,76,34,20,52,0.0,4-26,other
20866,77,50,28,44,0.0,4-26,other
20867,72,49,20,48,0.0,4-26,other
20868,68,48,48,48,0.0,4-26,other
20869,67,48,12,60,0.0,4-26,other
20870,70,66,40,52,0.0,4-26,other
20871,67,56,28,108,0.0,4-26,other
20872,68,67,36,56,0.0,4-26,other
20873,70,57,12,52,0.0,4-26,other
20874,71,56,32,40,0.0,4-26,other
20875,72,45,32,44,0.0,4-26,other
20876,75,41,40,96,1.0,4-9,other
20877,76,66,40,40,1.0,4-9,other
20878,77,68,44,40,1.0,4-9,other
20879,74,63,28,68,1.0,4-9,other
20880,62,38,120,168,0.0,2-1,other
20881,67,43,252,44,0.0,2-1,other
20882,56,39,36,164,0.0,2-1,other
20883,48,52,28,560,10.0,4-20,other
20884,49,74,32,40,10.0,4-20,other
20885,51,68,44,112,2.0,2-3,minor
20886,54,57,32,28,2.0,2-3,minor
20887,52,67,32,28,2.0,2-3,minor
20888,53,42,24,104,8.0,2-3,other
20889,56,41,24,28,8.0,2-3,other
20890,59,25,20,40,8.0,2-3,other
20891,60,51,12,252,7.0,3-2B,other
20892,58,56,48,60,6.0,2-3,minor
20893,60,61,36,88,1.0,3-6,other
20894,63,63,44,36,1.0,3-6,other
20895,60,57,36,36,1.0,3-6,other
20896,65,43,16,64,6.0,2-5,other
20897,62,69,60,28,6.0,2-5,other
20898,63,50,12,48,6.0,2-5,other
20899,60,57,44,248,8.0,2-3,other
20900,61,59,44,60,8.0,2-3,other
20901,63,60,28,56,8.0,2-3,other
20902,65,65,36,56,8.0,2-3,other
20903,70,59,16,124,0.0,3-11B,other
20904,73,63,28,108,0.0,2-1,other
20905,75,48,12,68,0.0,2-1,other
20906,77,70,36,52,0.0,2-1,other
20907,80,65,36,60,0.0,2-1,other
20908,84,69,44,56,0.0,2-1,other
20909,87,79,40,128,2.0,2-1,other
20910,80,28,52,632,5.0,4-20,other
20911,90,75,44,2872,7.0,4-27A,minor
20912,91,74,32,64,7.0,4-27A,minor
20913,88,63,32,192,3.0,4-5B,other
20914,83,60,44,152,3.0,4-5B,other
20915,84,50,32,64,3.0,4-5B,other
20916,80,52,148,120,3.0,4-5B,other
20917,76,55,20,160,3.0,4-5B,other
20918,41,66,52,1548,9.0,4-23,minor
20919,63,47,68,1804,4.0,5-31B,major
20920,66,56,84,40,4.0,5-31B,major
20921,71,49,80,256,8.0,5-31A,diminished
20922,86,64,72,180,8.0,5-31A,diminished
20923,83,57,64,224,8.0,3-10,minor
20924,74,57,16,2012,2.0,3-7A,minor
20925,77,67,32,76,2.0,3-7A,minor
20926,81,73,28,84,2.0,3-7A,minor
20927,82,66,32,72,2.0,3-7A,minor
20928,83,65,36,64,2.0,3-7A,minor
20929,84,67,36,72,5.0,4-16A,other
20930,84,55,32,88,5.0,4-16A,other
20931,84,50,32,80,5.0,4-16A,other
20932,84,48,32,80,5.0,4-16A,other
20933,84,40,16,184,5.0,4-16A,other
20934,82,61,24,292,5.0,3-11B,major
20935,84,56,24,32,5.0,3-11B,major
20936,82,48,40,28,5.0,3-11B,major
20937,81,47,36,44,5.0,3-11B,major
20938,84,39,24,316,5.0,2-5,other
20939,88,68,24,32,5.0,2-5,other
20940,91,82,32,40,5.0,2-5,other
20941,89,71,28,92,5.0,2-5,other
20942,80,36,16,4756,6.0,3-8B,other
20943,81,45,36,28,6.0,3-8B,other
20944,80,39,28,152,0.0,3-6,major
20945,81,58,32,144,0.0,5-33,augmented
20946,77,39,48,68,0.0,5-33,augmented
20947,80,42,12,364,10.0,4-20,major
20948,81,43,48,28,10.0,4-20,major
20949,86,85,40,88,10.0,4-20,major
20950,81,49,36,116,8.0,2-6,other
20951,77,57,60,164,10.0,4-20,major
20952,77,58,80,204,10.0,4-20,major
20953,77,51,120,196,7.0,5-27B,minor
20954,56,48,36,884,1.0,3-10,minor
20955,54,32,44,552,8.0,3-2A,other
20956,82,46,52,124,8.0,2-2,other
20957,77,49,28,88,8.0,1-1,other
20958,48,61,84,760,5.0,1-1,other
20959,57,63,68,104,5.0,1-1,other
20960,60,77,332,112,5.0,1-1,other
20961,64,79,216,104,5.0,1-1,other
20962,69,81,64,112,5.0,1-1,other
20963,72,84,72,112,5.0,1-1,other
20964,76,115,80,120,5.0,1-1,other
20965,65,57,208,1832,0.0,6-24A,other
20966,48,33,68,720,5.0,7-35,major
20967,57,37,36,80,5.0,7-35,major
20968,48,31,48,44,5.0,7-35,major
20969,48,35,28,108,5.0,2-4,major
20970,41,49,40,40,5.0,2-4,major
20971,48,42,32,48,5.0,2-4,major
20972,53,41,28,988,0.0,3-9,other
20973,67,34,56,180,11.0,3-7A,minor
20974,67,23,36,104,11.0,3-7A,minor
20975,67,41,44,96,11.0,3-7A,minor
20976,67,33,992,92,11.0,3-7A,minor
20977,28,26,40,292,11.0,2-2,other
20978,37,45,27,0,9.0,2-3,minor
20979,39,40,92,39,9.0,2-3,minor
20980,37,30,24,83,9.0,2-3,minor
20981,38,39,126,34,9.0,2-3,minor
20982,55,55,19,86,9.0,2-3,minor
20983,32,28,88,42,9.0,2-3,minor
20984,59,25,20,37,9.0,2-3,minor
20985,55,48,9,164,0.0,2-5,other
20986,62,94,16,113,11.0,2-6,other
20987,28,44,27,237,10.0,2-1,other
20988,25,83,157,120,9.0,2-3,minor
20989,26,56,143,157,9.0,2-3,minor
20990,55,46,22,91,9.0,2-3,minor
20991,28,20,63,44,9.0,2-3,minor
20992,59,37,19,38,9.0,2-3,minor
20993,53,31,18,155,0.0,2-5,other
20994,22,33,34,124,11.0,1-1,other
20995,22,79,124,149,0.0,1-1,other
20996,60,66,9,211,9.0,1-1,other
20997,25,35,135,29,9.0,1-1,other
20998,54,76,37,811,9.0,5-35,minor
20999,55,64,140,42,9.0,5-35,minor
21000,43,71,158,74,9.0,5-35,minor
21001,50,38,24,118,9.0,5-35,minor
21002,48,44,32,474,6.0,2-2,other
21003,77,75,98,130,5.0,1-1,other
21004,72,58,8,85,2.0,3-7A,minor
21005,76,77,21,29,2.0,3-7A,minor
21006,50,39,23,238,8.0,2-2,other
21007,72,38,9,123,7.0,4-26,minor
21008,76,57,16,75,3.0,2-5,other
21009,79,82,23,36,3.0,2-5,other
21010,67,29,8,125,10.0,3-9,other
21011,76,32,16,87,4.0,2-6,other
21012,79,62,25,39,4.0,2-6,other
21013,77,74,93,118,5.0,1-1,other
21014,45,59,11,117,5.0,4-20,major
21015,50,34,22,246,8.0,2-2,other
21016,72,57,8,243,10.0,3-4A,major
21017,76,62,18,74,3.0,4-5B,other
21018,48,54,35,153,0.0,2-2,other
21019,69,27,24,429,2.0,4-25,major
21020,50,33,29,54,2.0,4-25,major
21021,72,45,58,642,5.0,1-1,other
21022,48,59,18,236,9.0,2-3,minor
21023,31,53,19,454,4.0,5-16A,other
21024,76,44,20,92,3.0,2-1,other
21025,79,74,23,30,3.0,2-1,other
21026,67,43,16,119,0.0,3-11B,major
21027,52,32,9,111,0.0,3-4A,major
21028,67,55,13,363,2.0,4-26,minor
21029,71,51,19,85,9.0,2-3,minor
21030,74,83,23,32,9.0,2-3,minor
21031,67,53,88,119,0.0,2-5,other
21032,71,43,22,88,4.0,3-5B,other
21033,74,65,24,31,4.0,3-5B,other
21034,67,49,8,682,5.0,3-5B,other
21035,72,80,27,37,5.0,3-5B,other
21036,74,80,37,124,0.0,4-8,major
21037,71,68,22,116,7.0,3-3B,other
21038,55,32,17,2061,0.0,2-5,other
21039,83,79,19,756,7.0,3-8A,major
21040,84,84,12,137,2.0,3-9,other
21041,83,87,12,95,2.0,3-9,other
21042,80,51,49,243,7.0,5-29B,minor
21043,81,24,18,52,7.0,5-29B,minor
21044,67,39,11,634,9.0,3-11A,minor
21045,71,78,71,33,9.0,3-11A,minor
21046,67,62,12,202,7.0,5-29B,minor
21047,89,94,24,1684,5.0,4-20,major
21048,88,45,49,52,5.0,4-20,major
21049,91,82,25,67,5.0,4-20,major
21050,89,41,53,44,5.0,4-20,major
21051,84,51,10,73,5.0,4-20,major
21052,89,95,88,271,10.0,3-4A,major
21053,88,66,93,124,0.0,4-21,major
21054,91,85,93,120,0.0,4-21,major
21055,91,91,36,1018,4.0,3-8B,other
21056,88,88,46,191,5.0,3-11B,major
21057,89,55,62,125,9.0,4-23,minor
21058,84,64,17,70,9.0,4-23,minor
21059,46,25,18,842,0.0,3-1,other
21060,82,57,21,33,0.0,3-1,other
21061,80,50,26,35,0.0,3-1,other
21062,77,47,21,38,0.0,3-1,other
21063,75,60,146,41,0.0,3-1,other
21064,69,50,19,288,7.0,2-1,other
21065,59,41,13,166,0.0,4-8,major
21066,67,41,16,250,9.0,4-22B,minor
21067,71,70,49,30,9.0,4-22B,minor
21068,74,81,25,74,9.0,4-22B,minor
21069,72,45,90,41,9.0,4-22B,minor
21070,67,72,15,75,9.0,4-22B,minor
21071,70,21,24,296,0.0,2-5,other
21072,71,55,19,28,0.0,2-5,other
21073,74,95,32,35,0.0,2-5,other
21074,67,47,11,128,0.0,4-8,major
21075,71,72,18,39,0.0,4-8,major
21076,74,92,19,82,0.0,4-8,major
21077,67,35,11,128,7.0,4-14B,major
21078,71,65,69,35,7.0,4-14B,major
21079,76,60,18,1840,3.0,4-4B,other
21080,54,31,8,151,7.0,2-1,other
21081,55,69,18,614,0.0,2-4,major
21082,53,36,93,31,0.0,2-4,major
21083,43,76,14,82,0.0,2-4,major
21084,52,66,76,31,0.0,2-4,major
21085,52,70,15,87,0.0,2-4,major
21086,79,45,44,782,0.0,2-1,other
21087,72,36,72,234,3.0,6-40A,major
21088,69,45,9,79,3.0,6-40A,major
21089,81,91,77,619,10.0,3-4A,major
21090,78,65,33,84,10.0,3-4A,major
21091,79,38,44,53,10.0,3-4A,major
21092,81,57,18,69,10.0,3-4A,major
21093,81,82,65,755,4.0,3-5B,other
21094,81,49,12,213,0.0,5-27A,major
21095,70,69,17,531,9.0,2-2,other
21096,91,94,22,298,3.0,2-1,other
21097,81,68,19,111,2.0,2-2,other
21098,77,72,34,120,7.0,2-5,other
21099,77,68,29,134,2.0,4-26,minor
21100,54,55,20,954,5.0,1-1,other
21101,65,74,59,158,3.0,2-1,other
21102,62,46,51,116,7.0,2-2,other
21103,59,77,55,247,11.0,3-2A,minor
21104,50,65,70,236,10.0,2-1,other
21105,53,73,34,83,10.0,2-1,other
21106,94,67,26,528,3.0,3-5B,other
21107,94,85,55,122,4.0,4-15A,other
21108,47,40,23,196,0.0,2-1,other
21109,92,83,64,34,0.0,2-1,other
21110,89,72,84,121,0.0,2-1,other
21111,87,74,78,116,0.0,2-1,other
21112,81,28,36,280,5.0,5-11A,major
21113,58,51,17,289,11.0,2-6,other
21114,59,62,8,730,5.0,4-20,major
21115,75,39,23,531,1.0,6-46B,other
21116,75,35,23,57,6.0,2-3,other
21117,75,46,27,60,6.0,2-3,other
21118,75,42,32,74,6.0,4-12B,other
21119,75,47,29,142,6.0,2-3,other
21120,75,53,40,129,6.0,2-3,other
21121,87,40,92,118,3.0,4-27A,other
21122,93,51,42,860,0.0,6-28,augmented
21123,84,53,29,272,5.0,2-1,other
21124,72,41,22,151,2.0,4-23,minor
21125,76,51,28,83,1.0,5-34,other
21126,67,68,69,68,1.0,2-3,other
21127,50,44,24,208,6.0,3-5A,other
21128,76,62,44,427,3.0,2-4,major
21129,59,35,10,1610,9.0,3-11A,minor
21130,84,20,108,768,2.0,4-21,major
21131,54,57,29,192,2.0,4-21,major
21132,99,49,46,302,7.0,4-20,major
21133,99,44,60,110,6.0,2-3,other
21134,98,99,32,355,4.0,3-8B,other
21135,96,89,26,77,4.0,3-8B,other
21136,94,75,42,56,4.0,3-8B,other
21137,86,47,27,130,4.0,2-1,other
21138,78,38,29,134,8.0,2-2,other
21139,79,81,43,90,9.0,3-11A,minor
21140,76,82,25,62,9.0,3-11A,minor
21141,74,71,42,84,7.0,2-2,other
21142,65,64,18,179,8.0,2-6,other
21143,62,53,10,106,7.0,2-5,other
21144,65,77,59,32,7.0,2-5,other
21145,62,45,67,117,7.0,2-2,other
21146,53,59,50,377,5.0,3-3B,major
21147,53,60,9,70,5.0,3-3B,major
21148,74,89,30,508,10.0,3-4A,major
21149,62,59,9,441,9.0,3-8B,other
21150,74,115,42,198,0.0,1-1,other
21151,72,95,45,86,2.0,3-8A,major
21152,62,68,21,188,8.0,3-8A,other
21153,65,92,46,186,0.0,2-2,other
21154,62,57,62,110,7.0,2-2,other
21155,65,54,59,148,0.0,1-1,other
21156,48,49,10,61,0.0,1-1,other
21157,57,30,10,77,8.0,2-3,other
21158,48,50,10,40,8.0,2-3,other
21159,57,73,46,49,8.0,2-3,other
21160,62,74,19,311,5.0,2-5,other
21161,65,74,35,36,5.0,2-5,other
21162,62,47,20,44,5.0,2-5,other
21163,64,61,33,33,5.0,2-5,other
21164,65,47,33,37,5.0,2-5,other
21165,66,44,28,44,5.0,2-5,other
21166,70,29,28,86,4.0,4-29A,minor
21167,71,53,25,37,4.0,4-29A,minor
21168,71,43,86,89,7.0,3-11B,major
21169,67,64,76,111,7.0,3-11B,major
21170,64,34,20,92,7.0,3-11B,major
21171,67,45,56,33,7.0,3-11B,major
21172,76,51,23,380,3.0,2-1,other
21173,79,79,25,42,3.0,2-1,other
21174,72,51,63,314,7.0,1-1,other
21175,72,63,56,101,7.0,1-1,other
21176,58,42,18,205,7.0,4-27A,minor
21177,72,31,62,163,9.0,4-26,minor
21178,60,44,21,190,5.0,2-5,other
21179,64,46,19,93,3.0,2-4,major
21180,64,27,30,113,3.0,2-4,major
21181,58,48,8,35,3.0,2-4,major
21182,81,6,52,887,1.0,7-29B,other
21183,59,32,10,89,1.0,7-29B,other
21184,82,21,11,226,0.0,5-21B,other
21185,78,46,19,1108,0.0,4-16A,other
21186,79,49,19,40,0.0,4-16A,other
21187,72,30,8,166,5.0,2-4,major
21188,67,60,21,225,0.0,6-25A,major
21189,64,28,32,170,0.0,3-2B,minor
21190,67,88,54,109,0.0,3-2B,minor
21191,54,38,29,559,6.0,3-8B,other
21192,76,68,21,80,3.0,4-5B,other
21193,77,49,17,32,3.0,4-5B,other
21194,78,64,20,27,3.0,4-5B,other
21195,75,73,59,74,4.0,4-29A,minor
21196,67,41,13,146,4.0,4-27A,diminished
21197,72,56,99,35,4.0,4-27A,diminished
21198,67,33,23,1474,10.0,5-21B,other
21199,69,71,21,34,10.0,5-21B,other
21200,70,67,18,29,10.0,5-21B,other
21201,73,43,24,59,0.0,4-21,major
21202,79,57,14,119,10.0,4-29B,major
21203,80,54,23,27,10.0,4-29B,major
21204,81,49,19,33,10.0,4-29B,major
21205,84,62,20,59,2.0,4-26,minor
21206,81,73,29,30,2.0,4-26,minor
21207,77,60,33,29,2.0,4-26,minor
21208,76,46,21,32,2.0,4-26,minor
21209,79,68,34,34,2.0,4-26,minor
21210,72,51,23,95,5.0,2-1,other
21211,72,55,28,37,5.0,2-1,other
21212,72,48,12,49,5.0,2-1,other
21213,72,95,84,275,10.0,4-20,major
21214,71,81,42,124,10.0,4-16A,major
21215,63,59,64,118,5.0,2-5,other
21216,56,48,103,234,5.0,2-5,other
21217,53,37,64,119,5.0,2-5,other
21218,53,37,9,85,5.0,2-5,other
21219,26,51,9,34,5.0,2-5,other
21220,95,22,13,397,8.0,3-2B,other
21221,81,8,15,963,4.0,5-15,other
21222,74,35,14,415,2.0,4-26,minor
21223,68,56,27,314,5.0,4-22A,major
21224,69,72,26,34,5.0,4-22A,major
21225,72,54,20,40,5.0,4-22A,major
21226,76,63,17,41,5.0,4-22A,major
21227,77,66,31,81,0.0,2-5,other
21228,69,55,9,201,11.0,3-5A,other
21229,74,46,25,74,0.0,5-27A,major
21230,72,71,29,89,9.0,2-3,minor
21231,69,32,15,80,2.0,2-2,other
21232,72,66,119,38,2.0,2-2,other
21233,75,72,23,526,5.0,4-16A,major
21234,76,83,30,37,5.0,4-16A,major
21235,78,52,20,80,3.0,3-8B,other
21236,67,41,22,145,4.0,4-26,minor
21237,75,76,21,91,4.0,4-26,minor
21238,76,87,26,37,4.0,4-26,minor
21239,77,68,17,36,4.0,4-26,minor
21240,78,69,21,34,4.0,4-26,minor
21241,75,59,36,84,7.0,4-27A,minor
21242,65,40,22,85,7.0,4-27A,minor
21243,43,39,66,361,4.0,3-5B,other
21244,48,35,21,126,3.0,3-8B,other
21245,40,30,22,364,0.0,3-9,other
21246,45,33,11,112,6.0,2-6,other
21247,38,59,17,119,5.0,2-5,other
21248,65,38,15,46,5.0,2-5,other
21249,69,64,16,39,5.0,2-5,other
21250,54,18,26,520,8.0,4-23,minor
21251,43,70,183,111,9.0,4-23,minor
21252,43,50,154,238,2.0,5-27B,minor
21253,43,68,19,238,4.0,4-18A,major
21254,59,28,21,133,4.0,4-18A,major
21255,55,32,14,124,0.0,1-1,other
21256,72,31,10,3856,5.0,4-20,major
21257,76,78,72,36,5.0,4-20,major
21258,79,68,25,72,5.0,4-20,major
21259,72,35,16,349,4.0,3-5B,other
21260,76,45,23,82,3.0,2-1,other
21261,79,89,27,37,3.0,2-1,other
21262,72,36,23,126,10.0,4-29B,major
21263,76,59,16,49,10.0,4-29B,major
21264,77,64,20,133,9.0,4-26,minor
21265,72,47,9,65,9.0,4-26,minor
21266,76,72,22,106,9.0,4-26,minor
21267,79,71,20,32,9.0,4-26,minor
21268,77,59,319,37,9.0,4-26,minor
21269,72,47,12,308,10.0,4-20,major
21270,76,62,10,36,10.0,4-20,major
21271,77,55,15,124,7.0,3-11A,minor
21272,76,45,11,112,0.0,1-1,other
21273,77,36,10,81,0.0,1-1,other
21274,76,43,8,238,5.0,2-2,other
21275,83,44,17,403,10.0,3-1,other
21276,77,52,18,74,10.0,3-1,other
21277,80,59,21,41,10.0,3-1,other
21278,75,51,14,313,5.0,1-1,other
21279,65,48,63,289,10.0,2-5,other
21280,63,51,22,83,10.0,2-5,other
21281,43,62,103,155,9.0,4-26,minor
21282,83,88,27,957,10.0,3-11A,other
21283,79,53,16,201,5.0,4-20,major
21284,83,68,62,286,0.0,5-27A,major
21285,83,71,51,117,0.0,5-27A,major
21286,84,79,21,71,0.0,5-27A,major
21287,79,27,8,616,0.0,4-8,major
21288,58,32,15,1069,0.0,4-21,major
21289,42,50,23,355,5.0,3-7B,other
21290,60,43,270,0,4.0,2-3,minor
21291,60,36,120,690,4.0,2-3,minor
21292,60,36,130,610,4.0,2-3,minor
21293,60,45,180,720,6.0,2-3,minor
21294,71,44,490,1180,0.0,2-5,other
21295,60,40,350,2270,9.0,2-3,minor
21296,60,48,150,1110,9.0,2-3,minor
21297,60,42,650,720,9.0,2-3,minor
21298,60,41,110,1210,9.0,2-3,minor
21299,54,36,540,1870,11.0,2-3,minor
21300,59,39,240,630,11.0,2-3,minor
21301,66,41,4360,1800,11.0,2-3,minor
21302,74,51,730,3390,11.0,2-3,minor
21303,78,68,560,620,11.0,2-3,minor
21304,83,77,160,570,11.0,2-3,minor
21305,90,81,500,600,11.0,2-3,minor
21306,91,83,550,590,11.0,2-3,minor
21307,55,43,940,1220,9.0,2-3,minor
21308,59,48,160,600,9.0,2-3,minor
21309,64,57,1720,640,7.0,3-11B,major
21310,64,59,1270,1860,7.0,3-11B,major
21311,48,63,970,620,7.0,3-11B,major
21312,48,66,3400,1250,7.0,3-11B,major
21313,62,54,70,740,9.0,2-3,minor
21314,66,1,530,5100,11.0,3-7A,minor
21315,57,36,4210,630,11.0,3-7A,minor
21316,62,35,4760,30,11.0,3-7A,minor
21317,47,31,450,2310,11.0,3-7A,minor
21318,47,40,1320,730,11.0,3-7A,minor
21319,47,33,650,1830,11.0,3-7A,minor
21320,52,36,640,3340,0.0,2-4,major
21321,43,45,1100,700,0.0,2-4,major
21322,55,49,270,630,0.0,2-4,major
21323,60,57,650,1900,0.0,2-4,major
21324,76,71,610,690,0.0,2-4,major
21325,67,63,720,30,0.0,2-4,major
21326,60,70,500,570,0.0,2-4,major
21327,60,66,270,2450,9.0,2-3,minor
21328,60,65,410,660,9.0,2-3,minor
21329,60,58,130,1160,9.0,2-3,minor
21330,74,55,1140,1170,9.0,2-3,minor
21331,54,36,1780,650,11.0,3-11A,minor
21332,62,35,210,590,11.0,3-11A,minor
21333,54,39,800,1770,11.0,3-11A,minor
21334,78,85,620,640,11.0,3-11A,minor
21335,71,61,680,40,11.0,3-11A,minor
21336,54,39,1680,580,11.0,3-11A,minor
21337,71,56,1570,1160,11.0,3-11A,minor
21338,64,41,790,30,11.0,3-11A,minor
21339,59,34,760,40,11.0,3-11A,minor
21340,54,39,2520,1020,11.0,3-11A,minor
21341,66,54,1500,620,11.0,3-11A,minor
21342,59,42,700,30,11.0,3-11A,minor
21343,47,49,510,580,11.0,3-11A,minor
21344,59,35,520,660,11.0,3-11A,minor
21345,47,54,280,560,11.0,3-11A,minor
21346,52,74,3510,1250,9.0,4-26,minor
21347,55,61,120,650,9.0,4-26,minor
21348,59,85,520,1290,0.0,2-4,major
21349,57,92,1100,690,0.0,2-4,major
21350,52,77,5150,1100,0.0,2-4,major
21351,60,75,2310,700,4.0,2-3,minor
21352,45,85,880,630,4.0,2-3,minor
21353,45,87,890,1260,4.0,2-3,minor
21354,45,79,340,1260,4.0,2-3,minor
21355,45,71,210,1070,4.0,2-3,minor
21356,52,46,770,3810,4.0,3-11B,major
21357,59,34,480,640,4.0,3-11B,major
21358,56,56,1930,590,4.0,3-11B,major
21359,59,33,110,590,4.0,3-11B,major
21360,59,57,670,590,4.0,3-11B,major
21361,56,49,790,1150,4.0,3-11B,major
21362,59,28,650,660,4.0,3-11B,major
21363,59,32,240,1280,4.0,2-4,major
21364,65,36,500,1370,9.0,3-7A,minor
21365,43,59,810,4210,5.0,4-22A,major
21366,43,72,200,1170,5.0,2-5,other
21367,69,54,1380,3690,1.0,3-2A,minor
21368,73,58,580,1130,1.0,3-2A,minor
21369,69,40,110,620,1.0,3-2A,minor
21370,62,41,210,2400,7.0,2-4,major
21371,69,54,740,660,7.0,2-4,major
21372,60,48,350,1110,10.0,3-9,other
21373,69,46,450,30,10.0,3-9,other
21374,65,36,100,60,10.0,3-9,other
21375,65,42,120,510,10.0,3-9,other
21376,41,61,900,3630,9.0,3-8B,other
21377,69,58,180,680,9.0,3-8B,other
21378,56,49,430,2250,8.0,3-10,diminished
21379,52,57,440,30,8.0,3-10,diminished
21380,45,79,4940,1180,8.0,3-10,diminished
21381,64,31,110,3010,0.0,2-1,other
21382,60,37,100,1730,4.0,2-5,other
21383,45,60,1080,570,4.0,2-5,other
21384,63,86,830,1910,10.0,3-11B,major
21385,63,51,540,1640,10.0,2-5,other
21386,69,49,240,1770,1.0,3-2A,minor
21387,64,44,180,570,2.0,2-1,other
21388,60,43,150,2300,7.0,2-4,major
21389,69,48,240,2350,0.0,2-2,other
21390,65,33,110,40,0.0,2-2,other
21391,69,60,680,1790,10.0,3-9,other
21392,47,68,600,4800,7.0,2-4,major
21393,63,44,510,640,7.0,2-4,major
21394,57,36,380,30,7.0,2-4,major
21395,47,58,430,540,7.0,2-4,major
21396,40,81,770,620,7.0,2-4,major
21397,47,66,180,650,7.0,2-4,major
21398,40,32,3770,4260,7.0,3-6,major
21399,49,56,2160,590,7.0,3-6,major
21400,52,49,3480,580,7.0,3-6,major
21401,64,55,1330,670,9.0,3-6,major
21402,49,52,620,1130,9.0,3-6,major
21403,64,32,510,710,1.0,2-2,other
21404,40,59,260,550,1.0,2-2,other
21405,36,73,3610,650,1.0,2-2,other
21406,43,61,3680,640,1.0,2-2,other
21407,52,66,1390,540,1.0,2-2,other
21408,57,75,350,710,2.0,2-4,major
21409,57,54,350,1190,2.0,3-6,major
21410,57,57,570,550,2.0,3-6,major
21411,36,63,170,570,2.0,3-6,major
21412,55,59,760,630,2.0,3-6,major
21413,47,57,560,630,4.0,2-5,other
21414,52,84,490,600,4.0,2-5,other
21415,54,88,680,560,4.0,2-5,other
21416,62,68,920,650,7.0,2-4,major
21417,63,45,90,50,7.0,2-4,major
21418,54,72,450,550,7.0,2-4,major
21419,47,59,580,1130,11.0,3-11A,minor
21420,47,63,2500,1230,4.0,2-2,other
21421,55,62,70,590,4.0,2-2,other
21422,49,59,4340,3150,9.0,3-9,other
21423,64,58,420,2380,4.0,3-11A,minor
21424,55,49,2390,680,4.0,2-5,other
21425,59,50,460,1160,4.0,2-5,other
21426,49,42,350,650,4.0,2-5,other
21427,55,52,1890,1200,0.0,2-5,other
21428,55,48,1090,2270,0.0,2-5,other
21429,48,52,140,1110,0.0,2-5,other
21430,64,66,800,2530,0.0,3-6,major
21431,38,74,210,2350,0.0,4-22A,major
21432,67,75,1490,680,5.0,4-22A,major
21433,63,39,95,70,5.0,4-22A,major
21434,63,13,280,1030,5.0,4-22A,major
21435,60,81,680,860,5.0,3-6,major
21436,63,40,110,70,5.0,3-6,major
21437,63,33,380,1230,5.0,4-22A,major
21438,31,68,70,1080,5.0,4-22A,major
21439,55,54,210,2470,5.0,4-14A,other
21440,55,49,1920,620,5.0,4-14A,other
21441,43,47,1790,1740,5.0,3-11A,other
21442,43,48,200,2410,8.0,3-2B,other
21443,43,42,1030,640,8.0,3-2B,other
21444,43,39,90,1790,2.0,2-3,minor
21445,67,45,630,690,0.0,2-4,major
21446,55,46,1620,620,0.0,2-4,major
21447,67,39,150,660,0.0,2-4,major
21448,60,56,2420,600,0.0,2-5,other
21449,55,43,1760,1170,4.0,2-3,minor
21450,64,42,510,630,4.0,2-3,minor
21451,48,60,380,570,4.0,2-3,minor
21452,48,63,3730,630,6.0,3-10,minor
21453,57,75,1310,570,6.0,3-10,minor
21454,63,48,120,610,6.0,3-10,minor
21455,66,36,680,1380,3.0,2-1,other
21456,60,71,490,870,3.0,2-1,other
21457,63,63,610,40,3.0,2-1,other
21458,48,47,300,590,6.0,2-3,minor
21459,66,56,1110,630,6.0,2-3,minor
21460,54,52,8390,620,11.0,2-3,minor
21461,57,64,3990,1190,11.0,2-3,minor
21462,59,68,1580,590,11.0,2-3,minor
21463,62,78,390,590,11.0,2-3,minor
21464,66,88,460,480,11.0,2-3,minor
21465,62,63,410,40,11.0,2-3,minor
21466,47,72,340,1240,7.0,2-4,major
21467,47,60,2070,510,7.0,2-4,major
21468,59,46,290,640,7.0,2-4,major
21469,62,39,420,1810,4.0,2-5,other
21470,62,47,510,570,4.0,2-5,other
21471,59,42,540,90,4.0,2-5,other
21472,47,63,390,530,4.0,2-5,other
21473,45,69,4230,670,0.0,4-17,other
21474,52,83,2620,600,0.0,4-17,other
21475,55,68,90,520,0.0,4-17,other
21476,67,90,900,1440,9.0,2-5,other
21477,52,44,170,1050,9.0,2-5,other
21478,52,54,660,620,9.0,2-5,other
21479,64,51,960,590,9.0,2-3,minor
21480,52,47,1760,590,9.0,2-3,minor
21481,60,48,130,500,9.0,2-3,minor
21482,64,49,900,1850,0.0,2-4,major
21483,45,48,210,980,0.0,2-4,major
21484,52,39,1030,1350,4.0,2-4,major
21485,52,37,1190,1100,4.0,2-4,major
21486,52,52,1940,1230,4.0,3-11B,major
21487,59,40,1210,600,4.0,3-11B,major
21488,64,31,1190,30,4.0,3-11B,major
21489,44,50,390,610,4.0,3-11B,major
21490,44,55,1400,630,4.0,3-11B,major
21491,59,51,1240,670,4.0,3-11B,major
21492,44,63,840,1120,4.0,2-4,major
21493,44,61,610,1130,4.0,2-4,major
21494,44,47,410,1150,4.0,3-11B,major
21495,43,70,410,690,9.0,3-7A,minor
21496,60,41,80,640,9.0,2-2,other
21497,65,43,300,1210,9.0,2-3,minor
21498,60,38,90,600,9.0,2-2,other
21499,65,38,110,630,9.0,3-7A,minor
21500,43,56,350,1090,9.0,3-7A,minor
21501,67,42,240,30,9.0,3-7A,minor
21502,65,25,370,680,9.0,3-7A,minor
21503,55,68,690,470,9.0,3-7A,minor
21504,60,43,100,100,9.0,2-2,other
21505,43,70,70,500,9.0,2-2,other
21506,63,87,850,680,10.0,3-11B,major
21507,74,59,310,1640,10.0,4-14B,major
21508,73,65,830,590,3.0,3-9,other
21509,69,48,290,1160,1.0,2-3,minor
21510,64,35,180,650,1.0,1-1,other
21511,74,71,950,540,1.0,1-1,other
21512,74,36,370,1060,7.0,3-11B,major
21513,62,39,120,650,7.0,3-11B,major
21514,60,44,200,2400,10.0,3-4B,other
21515,58,66,90,2290,5.0,4-14B,major
21516,60,39,90,670,5.0,3-11B,major
21517,48,39,100,50,5.0,3-11B,major
21518,57,50,130,1730,5.0,4-21,major
21519,47,107,1190,1820,4.0,1-1,other
21520,56,53,630,630,4.0,1-1,other
21521,62,47,460,30,4.0,1-1,other
21522,44,66,600,540,4.0,1-1,other
21523,64,31,120,680,9.0,3-7A,minor
21524,55,42,140,580,9.0,3-7A,minor
21525,64,39,230,30,9.0,3-7A,minor
21526,60,33,100,30,9.0,3-7A,minor
21527,55,52,70,520,9.0,3-7A,minor
21528,40,64,230,590,0.0,2-4,major
21529,55,50,280,580,0.0,2-4,major
21530,60,54,330,630,4.0,2-3,minor
21531,33,57,1450,560,4.0,2-3,minor
21532,55,51,100,570,4.0,2-3,minor
21533,64,50,350,640,9.0,2-2,other
21534,60,49,290,30,9.0,2-2,other
21535,60,54,210,590,4.0,2-3,minor
21536,33,58,70,550,4.0,2-3,minor
21537,70,72,790,710,5.0,2-5,other
21538,63,82,790,80,5.0,2-5,other
21539,74,69,770,1050,3.0,3-9,other
21540,65,52,250,580,3.0,3-9,other
21541,70,28,100,650,9.0,2-5,other
21542,62,72,1060,1030,9.0,2-5,other
21543,64,56,280,640,9.0,3-11B,major
21544,62,48,230,2380,7.0,3-11B,major
21545,60,52,210,2360,5.0,3-11B,major
21546,60,50,120,2880,5.0,4-14B,major
21547,47,63,70,2450,5.0,2-2,other
21548,47,47,470,2370,3.0,2-4,other
21549,40,51,800,630,11.0,4-26,minor
21550,47,49,480,560,11.0,4-26,minor
21551,52,57,470,600,11.0,4-26,minor
21552,54,62,630,560,11.0,4-26,minor
21553,54,60,550,1240,7.0,4-20,major
21554,62,52,540,580,7.0,3-4A,major
21555,54,50,450,580,7.0,3-4A,major
21556,55,49,810,1140,1.0,3-7A,minor
21557,59,43,410,590,1.0,3-7A,minor
21558,64,43,380,40,1.0,3-7A,minor
21559,55,59,1680,1780,4.0,3-11A,minor
21560,49,50,350,1160,4.0,2-5,other
21561,67,68,860,670,0.0,2-4,major
21562,55,51,1010,550,0.0,2-4,major
21563,60,45,2970,580,0.0,2-4,major
21564,55,51,1700,590,0.0,2-4,major
21565,79,85,940,620,0.0,2-4,major
21566,67,66,2340,40,0.0,2-4,major
21567,48,53,430,500,0.0,2-4,major
21568,78,86,1150,550,0.0,2-4,major
21569,52,69,3980,600,0.0,2-4,major
21570,64,60,720,2160,4.0,3-9,other
21571,59,68,640,80,4.0,3-9,other
21572,71,90,1110,690,4.0,3-9,other
21573,59,50,240,610,4.0,3-9,other
21574,66,78,590,280,4.0,3-9,other
21575,68,43,450,50,4.0,3-9,other
21576,52,55,1870,660,2.0,2-5,other
21577,59,57,560,1010,2.0,2-5,other
21578,57,50,640,60,2.0,2-4,major
21579,55,17,750,110,2.0,2-4,major
21580,52,60,830,930,2.0,2-4,major
21581,52,80,510,1250,11.0,3-11A,minor
21582,59,59,230,550,11.0,3-11A,minor
21583,59,82,680,590,1.0,2-3,minor
21584,66,38,100,90,1.0,2-3,minor
21585,59,68,590,1710,4.0,3-11A,minor
21586,55,45,170,90,4.0,3-11A,minor
21587,55,54,670,470,4.0,3-11A,minor
21588,59,41,200,1240,7.0,2-1,other
21589,59,57,350,510,7.0,2-1,other
21590,49,39,100,560,7.0,2-1,other
21591,36,68,1790,2270,2.0,4-27B,major
21592,36,72,350,2130,2.0,4-27B,major
21593,48,60,460,30,2.0,4-27B,major
21594,38,77,530,3520,0.0,4-22A,major
21595,55,57,410,610,0.0,4-22A,major
21596,38,60,180,570,0.0,4-22A,major
21597,60,44,950,680,5.0,2-4,major
21598,31,71,1630,1620,5.0,2-4,major
21599,65,51,570,650,9.0,3-7A,minor
21600,67,66,450,720,9.0,3-7A,minor
21601,55,42,119,5985,5.0,2-5,other
21602,65,52,510,2316,7.0,3-11B,major
21603,68,36,488,30,7.0,3-11B,major
21604,43,52,280,1048,7.0,3-11B,major
21605,77,85,429,1128,7.0,3-11B,major
21606,48,46,3732,619,7.0,3-11B,major
21607,76,68,580,30,7.0,3-11B,major
21608,55,39,1358,639,7.0,3-11B,major
21609,60,55,3373,529,7.0,3-11B,major
21610,64,62,728,639,7.0,3-11B,major
21611,55,52,1737,1098,7.0,3-11B,major
21612,78,96,419,529,7.0,3-11B,major
21613,79,122,398,639,7.0,3-11B,major
21614,48,57,3382,608,7.0,3-11B,major
21615,76,102,649,60,7.0,3-11B,major
21616,78,72,69,31,7.0,3-11B,major
21617,72,68,649,588,7.0,3-11B,major
21618,72,92,510,938,7.0,3-11B,major
21619,57,45,79,100,7.0,3-11B,major
21620,66,85,539,499,0.0,2-3,minor
21621,72,81,630,719,0.0,2-3,minor
21622,62,46,330,2286,6.0,1-1,other
21623,64,46,920,1677,11.0,2-3,minor
21624,57,60,599,808,11.0,2-3,minor
21625,54,48,929,779,2.0,2-5,other
21626,66,31,3593,60,2.0,2-5,other
21627,55,71,939,898,2.0,2-5,other
21628,59,76,1786,609,2.0,2-5,other
21629,57,82,869,549,2.0,2-5,other
21630,55,77,1126,1048,2.0,2-5,other
21631,59,43,630,619,2.0,2-5,other
21632,47,52,290,529,2.0,2-5,other
21633,60,52,500,629,9.0,3-7B,other
21634,52,51,630,609,9.0,3-7B,other
21635,57,60,221,539,9.0,3-7B,other
21636,64,54,89,40,9.0,3-7B,other
21637,72,78,920,569,0.0,3-11B,major
21638,60,77,488,998,0.0,3-11B,major
21639,78,60,60,1218,0.0,3-4B,other
21640,78,66,639,2236,0.0,3-4B,other
21641,76,46,191,1098,0.0,2-5,other
21642,59,39,718,2455,4.0,3-11B,major
21643,68,39,1078,639,4.0,3-11B,major
21644,64,45,669,30,4.0,3-11B,major
21645,59,46,419,988,4.0,3-11B,major
21646,64,40,270,599,4.0,3-11B,major
21647,56,36,129,589,4.0,3-11B,major
21648,64,51,1137,529,8.0,2-3,minor
21649,56,48,869,30,8.0,2-3,minor
21650,68,41,340,1747,4.0,3-11B,major
21651,60,43,370,2824,9.0,2-2,other
21652,67,40,410,1720,9.0,2-2,other
21653,31,50,1160,2180,5.0,3-9,other
21654,31,66,470,1340,7.0,3-11B,major
21655,63,66,1140,1700,10.0,3-11B,major
21656,62,48,210,2910,9.0,4-14B,major
21657,73,32,130,630,9.0,3-11B,major
21658,71,42,380,1130,0.0,3-9,other
21659,60,52,410,1620,7.0,4-14B,major
21660,62,39,170,30,7.0,4-14B,major
21661,71,39,200,30,7.0,4-14B,major
21662,67,31,190,40,7.0,4-14B,major
21663,72,54,410,550,9.0,3-5B,other
21664,58,49,380,2300,5.0,3-11B,major
21665,60,52,110,610,10.0,3-4B,other
21666,58,57,500,1050,10.0,3-4B,other
21667,69,34,220,60,10.0,3-4B,other
21668,53,61,1080,510,10.0,3-4B,other
21669,69,60,400,590,5.0,3-9,other
21670,67,75,400,2190,0.0,4-22A,major
21671,52,66,660,1190,8.0,3-10,other
21672,45,89,3830,1210,0.0,3-4A,major
21673,59,67,450,590,0.0,3-4A,major
21674,52,90,1780,580,0.0,3-4A,major
21675,59,55,470,610,0.0,3-4A,major
21676,60,86,550,540,0.0,3-4A,major
21677,57,80,950,60,0.0,3-4A,major
21678,59,61,1080,540,0.0,3-4A,major
21679,52,53,610,590,0.0,3-4A,major
21680,52,58,450,1140,9.0,1-1,other
21681,62,92,147,1672,3.0,3-11B,major
21682,62,58,597,280,3.0,3-11B,major
21683,62,54,285,3606,2.0,2-5,other
21684,72,48,73,2331,7.0,4-14B,major
21685,58,78,1205,633,5.0,3-11B,major
21686,58,77,254,2167,5.0,3-11B,major
21687,60,49,180,1171,5.0,3-11B,major
21688,58,57,60,490,5.0,3-11B,major
21689,51,39,230,1250,5.0,2-2,other
21690,47,77,1660,1040,5.0,2-2,other
21691,57,60,590,1670,1.0,2-2,other
21692,47,58,167,550,1.0,2-2,other
21693,67,39,99,687,2.0,4-22A,major
21694,55,58,425,6343,4.0,3-11A,minor
21695,59,60,2032,583,4.0,2-3,minor
21696,55,58,2033,33,4.0,2-3,minor
21697,49,71,356,1591,4.0,2-3,minor
21698,48,81,2542,589,4.0,2-3,minor
21699,55,66,3003,570,4.0,2-3,minor
21700,64,60,1309,516,4.0,2-3,minor
21701,74,79,145,546,4.0,2-3,minor
21702,75,78,164,32,4.0,2-3,minor
21703,76,71,267,142,4.0,2-3,minor
21704,79,120,345,399,4.0,2-3,minor
21705,81,127,391,566,4.0,2-3,minor
21706,76,86,422,1133,0.0,2-5,other
21707,75,66,81,594,6.0,2-2,other
21708,78,41,392,568,4.0,2-5,other
21709,71,54,257,501,4.0,2-5,other
21710,66,68,687,614,4.0,2-5,other
21711,62,51,358,42,4.0,2-5,other
21712,57,49,1013,37,4.0,2-5,other
21713,62,63,513,506,4.0,2-5,other
21714,66,92,457,1223,9.0,2-5,other
21715,47,54,2890,1116,4.0,2-3,minor
21716,55,56,140,540,4.0,2-3,minor
21717,52,92,1510,1650,7.0,3-11B,major
21718,66,41,900,590,7.0,3-11B,major
21719,40,66,190,530,7.0,3-11B,major
21720,64,73,5,650,11.0,3-9,other
21721,62,72,1250,4547,6.0,3-10,diminished
21722,57,84,2360,1700,2.0,3-8A,major
21723,67,52,830,3733,2.0,1-1,other
21724,64,31,350,120,0.0,2-5,other
21725,60,48,880,1600,4.0,3-7A,minor
21726,55,40,200,1150,4.0,3-7A,minor
21727,60,39,260,30,4.0,3-7A,minor
21728,38,36,100,490,4.0,3-7A,minor
21729,65,35,1190,1299,0.0,2-5,other
21730,57,50,470,1690,0.0,2-5,other
21731,65,34,630,70,0.0,2-5,other
21732,43,55,160,1010,0.0,2-5,other
21733,60,43,1960,1740,5.0,3-11A,other
21734,55,36,980,30,5.0,3-11A,other
21735,55,30,190,1650,5.0,3-11A,other
21736,55,42,1060,580,5.0,3-11A,other
21737,60,48,270,560,5.0,3-11A,other
21738,65,30,380,620,5.0,3-11A,other
21739,72,54,220,480,5.0,3-11A,other
21740,55,44,500,1150,7.0,4-18A,major
21741,55,41,560,1180,8.0,2-6,other
21742,55,47,370,1090,8.0,2-6,other
21743,62,41,400,520,8.0,2-6,other
21744,55,41,230,600,8.0,2-6,other
21745,55,37,270,1750,5.0,3-9,other
21746,55,80,560,1750,7.0,2-2,other
21747,55,102,370,1080,5.0,2-5,other
21748,55,90,560,610,8.0,4-28,diminished
21749,55,54,190,1030,8.0,4-28,diminished
21750,55,56,430,1740,7.0,3-7B,other
21751,59,35,180,600,7.0,3-7B,other
21752,55,43,230,540,7.0,3-7B,other
21753,55,52,670,630,5.0,3-11A,other
21754,55,52,210,1710,5.0,3-11A,other
21755,55,39,400,570,5.0,3-11A,other
21756,65,54,900,640,0.0,2-4,other
21757,55,42,260,30,0.0,2-4,other
21758,55,43,280,990,0.0,2-4,other
21759,65,41,350,580,7.0,3-11B,major
21760,43,36,1340,560,7.0,3-11B,major
21761,59,37,760,1150,7.0,3-11B,major
21762,67,36,450,40,7.0,3-11B,major
21763,62,27,440,40,7.0,3-11B,major
21764,31,36,5420,1090,7.0,3-11B,major
21765,43,31,120,590,7.0,3-11B,major
21766,43,40,130,530,7.0,3-11B,major
21767,56,46,2300,650,0.0,2-5,other
21768,43,36,150,1790,0.0,2-5,other
21769,43,35,180,590,0.0,2-5,other
21770,31,22,150,1710,0.0,3-4A,other
21771,31,29,12920,600,0.0,3-4A,other
21772,43,31,320,2880,8.0,2-3,other
21773,43,30,180,1180,8.0,2-3,other
21774,53,13,1070,750,8.0,2-3,other
21775,43,31,1050,30,8.0,2-3,other
21776,55,35,8,0,7.0,4-22A,major
21777,54,31,598,6121,9.0,4-22A,major
21778,76,99,23,4214,5.0,3-11B,major
21779,79,80,19,46,5.0,3-11B,major
21780,77,76,21,73,5.0,3-11B,major
21781,73,35,27,46,5.0,3-11B,major
21782,76,74,20,66,5.0,3-11B,major
21783,74,62,30,44,5.0,3-11B,major
21784,67,44,13,75,5.0,3-11B,major
21785,69,57,63,39,5.0,3-11B,major
21786,74,118,30,601,0.0,3-9,other
21787,73,77,30,82,0.0,3-9,other
21788,76,82,25,44,0.0,3-9,other
21789,74,80,29,37,0.0,3-9,other
21790,67,51,37,78,5.0,3-11B,major
21791,65,82,32,126,5.0,3-11B,major
21792,64,42,30,41,5.0,3-11B,major
21793,67,69,35,39,5.0,3-11B,major
21794,65,51,33,44,5.0,3-11B,major
21795,61,48,36,37,5.0,3-11B,major
21796,64,61,36,36,5.0,3-11B,major
21797,62,53,28,38,5.0,3-11B,major
21798,57,54,22,41,5.0,3-11B,major
21799,53,43,8,74,7.0,2-5,other
21800,52,38,29,79,7.0,2-5,other
21801,53,59,38,40,7.0,2-5,other
21802,74,91,23,328,7.0,3-9,other
21803,72,55,14,43,7.0,3-9,other
21804,67,48,45,115,9.0,3-7A,minor
21805,72,84,23,93,9.0,3-7A,minor
21806,69,45,15,47,9.0,3-7A,minor
21807,64,31,21,116,7.0,1-1,other
21808,67,52,21,113,5.0,3-11B,major
21809,64,61,30,72,5.0,3-11B,major
21810,62,28,25,46,5.0,3-11B,major
21811,64,57,22,118,0.0,2-5,other
21812,62,63,23,39,0.0,2-5,other
21813,60,71,26,38,0.0,2-5,other
21814,57,36,74,43,0.0,2-5,other
21815,55,45,26,80,0.0,2-5,other
21816,57,46,60,41,0.0,2-5,other
21817,60,64,24,71,0.0,2-5,other
21818,62,51,84,39,0.0,2-5,other
21819,67,84,27,1086,7.0,2-5,other
21820,64,52,20,32,7.0,2-5,other
21821,65,66,24,31,7.0,2-5,other
21822,69,58,21,33,7.0,2-5,other
21823,72,51,12,31,7.0,2-5,other
21824,76,54,19,34,7.0,2-5,other
21825,78,63,23,65,7.0,1-1,other
21826,77,37,25,29,7.0,1-1,other
21827,73,33,12,93,1.0,2-3,minor
21828,74,74,25,28,1.0,2-3,minor
21829,69,49,16,34,1.0,2-3,minor
21830,64,62,51,430,5.0,3-9,other
21831,62,43,19,99,5.0,2-1,other
21832,61,49,59,32,5.0,2-1,other
21833,62,55,73,110,0.0,2-4,major
21834,57,50,145,81,0.0,2-4,major
21835,50,36,7,122,0.0,2-4,major
21836,67,54,73,270,0.0,3-9,other
21837,74,81,32,84,0.0,3-9,other
21838,72,52,54,53,0.0,3-9,other
21839,74,24,12,315,4.0,3-5B,other
21840,76,94,22,272,2.0,2-5,other
21841,79,79,31,153,7.0,2-5,other
21842,77,76,41,244,2.0,3-7A,minor
21843,76,80,49,238,0.0,3-6,major
21844,74,80,27,163,7.0,4-16B,major
21845,64,75,10,171,7.0,4-16B,major
21846,64,77,72,114,7.0,4-16B,major
21847,62,36,33,81,7.0,4-16B,major
21848,60,44,98,39,7.0,4-16B,major
21849,59,48,35,121,7.0,4-16B,major
21850,61,92,28,1033,6.0,5-34,minor
21851,59,24,107,53,6.0,5-34,minor
21852,61,62,284,115,6.0,5-34,minor
21853,64,62,35,285,6.0,5-34,minor
21854,66,77,31,35,6.0,5-34,minor
21855,71,73,28,73,8.0,2-2,other
21856,76,82,34,81,9.0,2-4,major
21857,73,37,18,38,9.0,2-4,major
21858,76,91,35,36,9.0,2-4,major
21859,73,34,19,43,9.0,2-4,major
21860,71,29,19,43,9.0,2-4,major
21861,68,42,27,36,9.0,2-4,major
21862,71,64,35,45,9.0,2-4,major
21863,71,78,38,78,9.0,2-4,major
21864,68,47,38,41,9.0,2-4,major
21865,66,44,20,40,9.0,2-4,major
21866,64,38,23,43,9.0,2-4,major
21867,68,86,38,528,3.0,3-4A,other
21868,66,86,30,78,3.0,3-4A,other
21869,64,51,54,47,3.0,3-4A,other
21870,61,29,21,76,3.0,3-4A,other
21871,64,81,99,32,3.0,3-4A,other
21872,61,45,104,115,3.0,3-4A,other
21873,59,35,81,120,3.0,3-4A,other
21874,61,56,153,75,3.0,3-4A,other
21875,59,44,73,168,3.0,3-4A,other
21876,59,44,198,121,3.0,3-4A,other
21877,57,33,35,204,3.0,3-4A,other
21878,60,45,38,43,3.0,3-4A,other
21879,64,73,26,38,3.0,3-4A,other
21880,67,91,36,36,3.0,3-4A,other
21881,65,64,26,39,3.0,3-4A,other
21882,61,40,32,33,3.0,3-4A,other
21883,64,77,34,39,3.0,3-4A,other
21884,62,46,25,39,3.0,3-4A,other
21885,57,42,18,39,3.0,3-4A,other
21886,55,49,26,39,3.0,3-4A,other
21887,53,31,15,39,3.0,3-4A,other
21888,55,51,27,31,3.0,3-4A,other
21889,79,33,21,543,7.0,1-1,other
21890,61,37,27,1397,2.0,2-3,minor
21891,64,77,30,35,2.0,2-3,minor
21892,62,53,30,42,2.0,2-3,minor
21893,57,41,23,40,2.0,2-3,minor
21894,55,57,33,39,2.0,2-3,minor
21895,53,32,201,44,2.0,2-3,minor
21896,51,50,29,193,2.0,2-3,minor
21897,53,54,32,40,2.0,2-3,minor
21898,51,49,25,36,2.0,2-3,minor
21899,52,32,39,36,2.0,2-3,minor
21900,55,80,26,175,2.0,2-3,minor
21901,52,36,17,33,2.0,2-3,minor
21902,53,44,22,32,2.0,2-3,minor
21903,55,69,23,29,2.0,2-3,minor
21904,57,62,34,35,2.0,2-3,minor
21905,64,94,74,115,2.0,2-2,other
21906,67,82,29,80,2.0,2-2,other
21907,65,68,72,42,2.0,2-2,other
21908,61,29,28,78,2.0,2-2,other
21909,64,58,78,35,2.0,2-2,other
21910,61,25,28,79,2.0,2-2,other
21911,62,57,65,41,2.0,2-2,other
21912,67,110,18,376,2.0,2-5,other
21913,64,52,9,78,2.0,2-5,other
21914,65,71,104,35,2.0,2-5,other
21915,64,52,22,121,2.0,2-5,other
21916,62,71,96,116,2.0,2-5,other
21917,60,80,54,119,2.0,2-5,other
21918,57,38,91,111,2.0,2-2,other
21919,55,29,20,99,2.0,2-2,other
21920,53,49,106,33,2.0,2-2,other
21921,50,27,75,115,2.0,2-2,other
21922,48,56,26,79,2.0,2-2,other
21923,50,59,26,43,2.0,2-2,other
21924,79,101,49,576,2.0,2-2,other
21925,78,67,45,40,2.0,2-2,other
21926,72,31,28,78,1.0,2-6,other
21927,77,70,26,39,1.0,2-6,other
21928,76,73,39,39,1.0,2-6,other
21929,71,53,33,43,1.0,2-6,other
21930,70,30,22,47,1.0,2-6,other
21931,75,67,36,35,1.0,2-6,other
21932,74,57,36,39,1.0,2-6,other
21933,69,33,24,45,1.0,2-6,other
21934,69,36,54,116,5.0,2-5,other
21935,67,78,51,64,5.0,2-5,other
21936,65,64,33,107,9.0,2-2,other
21937,64,60,26,35,9.0,2-2,other
21938,67,71,33,33,9.0,2-2,other
21939,65,66,19,40,9.0,2-2,other
21940,64,50,29,31,9.0,2-2,other
21941,62,43,30,35,9.0,2-2,other
21942,61,33,19,35,9.0,2-2,other
21943,64,73,33,28,9.0,2-2,other
21944,61,38,16,36,9.0,2-2,other
21945,62,62,25,29,9.0,2-2,other
21946,57,36,40,37,9.0,2-2,other
21947,57,32,18,79,9.0,2-2,other
21948,64,113,31,349,2.0,2-2,other
21949,65,73,32,130,5.0,3-9,other
21950,65,85,25,73,5.0,3-9,other
21951,64,44,11,52,5.0,3-9,other
21952,62,45,29,107,0.0,3-11B,major
21953,62,57,18,80,0.0,3-11B,major
21954,57,38,12,129,0.0,3-11B,major
21955,60,46,47,43,0.0,3-11B,major
21956,60,35,18,70,0.0,3-11B,major
21957,62,94,78,273,0.0,3-11B,major
21958,61,36,20,80,0.0,3-11B,major
21959,62,54,60,38,0.0,3-11B,major
21960,64,80,73,122,0.0,3-11B,major
21961,63,40,21,78,0.0,3-11B,major
21962,64,47,63,39,0.0,3-11B,major
21963,64,37,56,139,5.0,3-9,other
21964,67,72,61,125,5.0,2-1,other
21965,67,32,61,111,3.0,4-14A,other
21966,67,47,80,133,4.0,5-23B,major
21967,68,65,34,62,4.0,5-23B,major
21968,68,50,38,114,5.0,4-22A,major
21969,69,62,60,47,5.0,4-22A,major
21970,69,30,79,118,8.0,4-22A,other
21971,74,50,82,120,7.0,4-22A,major
21972,71,20,22,92,7.0,4-22A,major
21973,72,57,90,35,7.0,4-22A,major
21974,69,31,30,74,7.0,4-22A,major
21975,71,57,96,38,7.0,4-22A,major
21976,69,54,114,113,0.0,2-5,other
21977,67,47,81,142,0.0,3-11B,major
21978,65,58,75,103,0.0,3-11B,major
21979,64,45,118,88,0.0,3-11B,major
21980,60,28,63,168,7.0,2-5,other
21981,62,79,45,348,7.0,2-5,other
21982,62,71,29,248,7.0,2-5,other
21983,62,71,73,236,7.0,2-5,other
21984,60,30,25,84,7.0,2-5,other
21985,64,68,70,35,7.0,2-5,other
21986,62,78,59,475,0.0,2-5,other
21987,57,53,6,206,0.0,2-5,other
21988,61,79,84,31,0.0,2-5,other
21989,57,44,27,85,0.0,2-5,other
21990,58,30,22,48,0.0,2-5,other
21991,59,28,22,36,0.0,2-5,other
21992,63,47,29,135,9.0,2-4,major
21993,64,56,28,38,9.0,2-4,major
21994,66,51,29,37,9.0,2-4,major
21995,68,45,14,36,9.0,2-4,major
21996,71,54,33,32,9.0,2-4,major
21997,73,42,21,37,9.0,2-4,major
21998,75,79,34,34,9.0,2-4,major
21999,83,89,32,896,10.0,3-3A,major
22000,85,88,32,76,10.0,3-3A,major
22001,87,82,27,58,10.0,3-3A,major
22002,88,88,32,66,10.0,3-3A,major
22003,87,84,27,50,10.0,3-3A,major
22004,85,68,33,48,10.0,3-3A,major
22005,81,57,37,134,1.0,2-2,other
22006,80,67,43,104,1.0,2-2,other
22007,81,75,32,64,1.0,2-2,other
22008,78,55,47,53,1.0,2-2,other
22009,76,56,62,108,1.0,2-5,other
22010,78,64,54,71,1.0,2-5,other
22011,74,43,72,47,1.0,2-5,other
22012,73,35,50,254,4.0,4-23,minor
22013,75,73,37,59,4.0,4-23,minor
22014,71,57,56,46,4.0,4-23,minor
22015,69,43,61,116,1.0,3-5A,other
22016,68,53,74,114,11.0,2-3,minor
22017,66,80,73,120,11.0,2-3,minor
22018,64,83,50,259,3.0,2-1,other
22019,62,27,10,63,3.0,2-1,other
22020,64,71,41,161,3.0,2-1,other
22021,63,64,22,42,3.0,2-1,other
22022,61,60,39,45,3.0,2-1,other
22023,58,38,56,49,3.0,2-1,other
22024,55,37,56,128,2.0,2-5,other
22025,53,54,44,62,2.0,2-5,other
22026,52,58,96,44,2.0,2-5,other
22027,50,48,56,111,2.0,2-5,other
22028,67,41,9,560,2.0,3-9,other
22029,76,91,42,42,2.0,3-9,other
22030,69,48,34,127,4.0,2-3,minor
22031,69,38,8,192,4.0,2-3,minor
22032,74,81,28,46,4.0,2-3,minor
22033,73,60,32,111,4.0,2-3,minor
22034,68,48,37,37,4.0,2-3,minor
22035,72,71,30,80,7.0,1-1,other
22036,71,64,33,37,7.0,1-1,other
22037,66,69,39,100,7.0,1-1,other
22038,65,71,24,39,7.0,1-1,other
22039,70,65,33,35,7.0,1-1,other
22040,69,50,27,42,7.0,1-1,other
22041,64,60,43,37,7.0,1-1,other
22042,67,73,33,79,7.0,2-5,other
22043,65,74,46,41,7.0,2-5,other
22044,64,53,29,80,1.0,2-6,other
22045,62,64,28,36,1.0,2-6,other
22046,55,57,30,79,2.0,2-5,other
22047,52,66,27,75,5.0,2-4,major
22048,55,64,38,37,5.0,2-4,major
22049,52,42,20,42,5.0,2-4,major
22050,50,50,86,73,5.0,2-4,major
22051,48,36,12,89,5.0,2-4,major
22052,45,37,14,116,2.0,1-1,other
22053,48,41,100,42,2.0,1-1,other
22054,50,48,82,123,2.0,1-1,other
22055,48,33,112,121,0.0,4-14B,major
22056,50,40,51,123,0.0,4-14B,major
22057,47,33,607,6069,9.0,4-22A,major
22058,54,36,37,493,9.0,4-22A,major
22059,45,98,574,0,,,
22060,52,70,470,66,,,
22061,53,67,408,62,,,
22062,60,52,464,62,,,
22063,52,61,347,360,,,
22064,53,58,264,52,,,
22065,60,52,208,63,,,
22066,59,47,110,188,,,
22067,52,52,52,58,,,
22068,45,81,432,53,,,
22069,52,64,494,62,,,
22070,53,61,434,59,,,
22071,60,79,272,58,,,
22072,59,64,192,246,,,
22073,45,72,420,61,,,
22074,53,74,228,113,,,
22075,60,69,122,56,,,
22076,59,65,52,121,,,
22077,52,46,13,57,,,
22078,52,50,65,65,,,
22079,52,53,45,131,9.0,3-11A,minor
22080,53,59,13,55,9.0,3-11A,minor
22081,51,73,36,424,8.0,2-3,other
22082,52,68,374,57,8.0,2-3,other
22083,59,97,222,63,8.0,2-3,other
22084,67,96,44,124,8.0,2-3,other
22085,72,101,30,110,9.0,2-2,other
22086,52,48,53,125,7.0,2-4,major
22087,53,61,362,54,7.0,2-4,major
22088,74,88,48,66,7.0,2-4,major
22089,71,89,137,59,7.0,2-4,major
22090,69,93,57,61,7.0,2-4,major
22091,67,75,57,57,7.0,2-4,major
22092,65,75,48,59,7.0,2-4,major
22093,52,64,60,118,4.0,2-4,major
22094,53,65,120,58,4.0,2-4,major
22095,56,76,12,60,4.0,2-4,major
22096,52,58,120,120,9.0,2-3,minor
22097,43,74,47,124,9.0,2-3,minor
22098,41,89,363,61,9.0,2-3,minor
22099,53,77,232,119,4.0,2-2,other
22100,64,79,27,300,5.0,2-4,major
22101,50,58,101,119,2.0,2-4,major
22102,54,61,59,61,2.0,2-4,major
22103,64,83,55,185,2.0,2-4,major
22104,65,91,99,58,2.0,2-4,major
22105,69,77,14,67,2.0,2-4,major
22106,52,55,53,114,8.0,1-1,other
22107,53,65,367,55,8.0,1-1,other
22108,59,63,53,64,8.0,1-1,other
22109,62,64,11,58,8.0,1-1,other
22110,74,82,58,62,8.0,1-1,other
22111,68,66,46,61,8.0,1-1,other
22112,72,81,36,57,8.0,1-1,other
22113,52,49,203,120,9.0,2-3,minor
22114,64,70,125,119,9.0,2-3,minor
22115,43,81,163,62,9.0,2-3,minor
22116,55,79,6,65,9.0,2-3,minor
22117,57,64,58,52,9.0,2-3,minor
22118,67,75,36,63,9.0,2-3,minor
22119,50,73,12,121,2.0,3-11B,major
22120,62,94,103,55,2.0,3-11B,major
22121,69,111,33,61,2.0,3-11B,major
22122,68,76,15,31,2.0,3-11B,major
22123,62,62,39,87,2.0,3-11B,major
22124,62,64,23,61,2.0,3-11B,major
22125,62,60,22,61,2.0,3-11B,major
22126,60,50,12,123,5.0,2-5,other
22127,40,80,13,474,4.0,4-23,minor
22128,59,113,118,606,1.0,2-6,other
22129,58,77,49,119,1.0,2-6,other
22130,57,69,41,60,1.0,2-6,other
22131,49,77,55,59,1.0,2-6,other
22132,65,52,17,122,2.0,4-26,minor
22133,43,99,208,598,5.0,4-24,augmented
22134,53,14,14,173,5.0,4-25,major
22135,67,67,22,72,5.0,4-25,major
22136,36,90,33,353,0.0,3-11B,major
22137,47,88,19,114,0.0,3-11B,major
22138,62,58,13,183,11.0,5-29B,diminished
22139,52,69,79,187,8.0,2-6,other
22140,71,72,21,61,8.0,2-6,other
22141,72,74,17,37,8.0,2-6,other
22142,74,70,23,36,8.0,2-6,other
22143,38,77,14,642,2.0,4-26,minor
22144,43,66,23,416,7.0,4-20,major
22145,31,75,171,62,7.0,4-20,major
22146,72,94,21,451,0.0,4-20,major
22147,74,105,59,37,0.0,4-20,major
22148,41,81,146,418,9.0,4-23,minor
22149,57,87,73,65,9.0,4-23,minor
22150,69,117,29,74,9.0,4-23,minor
22151,65,64,8,852,4.0,3-8A,major
22152,45,84,185,454,9.0,4-26,minor
22153,56,54,51,50,9.0,4-26,minor
22154,45,84,124,180,6.0,3-5B,other
22155,52,61,47,136,6.0,3-5B,other
22156,52,58,38,242,5.0,3-11B,major
22157,44,55,63,174,5.0,3-4A,major
22158,53,88,14,191,7.0,4-27B,major
22159,52,81,30,1197,0.0,3-7B,other
22160,51,59,75,43,0.0,3-7B,other
22161,44,72,36,192,2.0,5-37,minor
22162,45,64,64,43,2.0,5-37,minor
22163,38,73,50,75,2.0,5-37,minor
22164,52,104,42,128,2.0,4-26,minor
22165,51,86,90,41,2.0,4-26,minor
22166,49,74,33,79,2.0,4-26,minor
22167,43,91,33,114,2.0,4-26,minor
22168,43,66,211,53,2.0,4-26,minor
22169,43,80,15,310,4.0,4-29A,minor
22170,43,76,23,123,5.0,3-11B,major
22171,36,78,260,42,5.0,3-11B,major
22172,52,85,80,147,0.0,3-11B,major
22173,43,90,84,87,0.0,3-11B,major
22174,76,112,48,306,5.0,2-1,other
22175,52,72,155,144,4.0,4-18A,major
22176,45,91,234,232,9.0,4-26,minor
22177,45,95,166,247,9.0,4-26,minor
22178,31,76,19,711,7.0,3-11B,major
22179,53,89,16,126,7.0,3-11B,major
22180,76,103,28,361,0.0,4-20,major
22181,75,90,19,48,0.0,4-20,major
22182,74,80,19,37,0.0,4-20,major
22183,68,75,23,74,0.0,3-8A,major
22184,60,52,16,125,2.0,4-11A,major
22185,35,90,16,664,11.0,3-7A,minor
22186,62,55,29,252,5.0,4-16A,major
22187,62,40,27,241,4.0,4-15A,other
22188,52,71,16,112,4.0,4-15A,other
22189,62,51,27,127,4.0,4-15A,other
22190,45,76,258,248,9.0,5-37,minor
22191,52,87,37,223,7.0,4-18A,minor
22192,46,32,20,141,5.0,3-12,augmented
22193,54,56,41,219,2.0,4-26,minor
22194,41,108,86,487,7.0,3-7B,other
22195,41,95,48,117,7.0,3-7B,other
22196,72,92,24,726,9.0,2-2,other
22197,75,99,19,107,9.0,2-2,other
22198,72,55,28,123,1.0,2-2,other
22199,69,92,93,125,1.0,4-22B,other
22200,65,74,62,87,2.0,3-7B,other
22201,57,73,122,230,2.0,3-1,other
22202,31,75,69,278,5.0,4-22A,major
22203,60,31,23,325,7.0,4-12A,major
22204,43,62,119,158,0.0,3-11B,major
22205,50,71,58,48,0.0,3-11B,major
22206,52,76,166,77,0.0,3-11B,major
22207,69,66,27,119,0.0,3-11B,major
22208,71,54,31,46,0.0,3-11B,major
22209,72,79,27,67,0.0,3-11B,major
22210,76,72,29,121,11.0,4-23,minor
22211,59,66,48,237,4.0,4-25,other
22212,60,53,44,530,4.0,1-1,other
22213,38,90,29,186,2.0,2-5,other
22214,69,66,14,206,2.0,4-26,minor
22215,76,89,25,44,2.0,4-26,minor
22216,79,112,34,49,2.0,4-26,minor
22217,78,99,33,52,2.0,4-26,minor
22218,73,78,23,138,4.0,3-5B,other
22219,76,103,36,38,4.0,3-5B,other
22220,59,67,46,201,7.0,1-1,other
22221,55,72,32,114,7.0,1-1,other
22222,48,62,136,50,7.0,1-1,other
22223,76,90,22,126,7.0,2-2,other
22224,72,91,19,33,7.0,2-2,other
22225,67,65,17,38,7.0,2-2,other
22226,76,94,26,38,7.0,2-2,other
22227,74,82,24,40,7.0,2-2,other
22228,64,56,19,87,8.0,2-6,other
22229,74,93,23,40,8.0,2-6,other
22230,49,62,9,119,9.0,3-11A,minor
22231,61,63,23,518,11.0,3-7A,minor
22232,65,84,50,283,5.0,2-1,other
22233,67,96,39,73,5.0,2-1,other
22234,70,86,39,234,8.0,2-3,other
22235,71,65,28,176,10.0,2-1,other
22236,58,58,32,473,0.0,2-4,major
22237,49,49,40,47,0.0,2-4,major
22238,57,61,35,80,8.0,2-6,other
22239,62,77,50,41,8.0,2-6,other
22240,66,98,68,34,8.0,2-6,other
22241,53,114,80,495,5.0,3-11B,major
22242,67,76,20,450,4.0,2-3,minor
22243,66,67,17,36,4.0,2-3,minor
22244,59,71,25,69,7.0,1-1,other
22245,47,81,26,154,7.0,2-4,major
22246,44,30,68,43,7.0,2-4,major
22247,45,79,226,72,7.0,2-4,major
22248,40,66,16,125,7.0,2-4,major
22249,33,86,195,42,7.0,2-4,major
22250,57,64,74,115,9.0,2-1,other
22251,59,61,58,120,10.0,2-1,other
22252,38,60,116,119,9.0,2-3,minor
22253,45,66,29,76,9.0,2-3,minor
22254,43,66,23,927,2.0,4-26,minor
22255,43,83,20,295,0.0,3-11B,major
22256,47,105,145,112,0.0,3-11B,major
22257,74,113,26,110,0.0,3-11B,major
22258,72,47,33,40,0.0,3-11B,major
22259,69,52,29,125,8.0,3-10,diminished
22260,65,49,46,122,4.0,2-4,major
22261,45,85,20,431,9.0,4-26,minor
22262,67,73,28,111,9.0,4-26,minor
22263,38,81,26,123,5.0,2-5,other
22264,74,1,30,713,4.0,4-18A,major
22265,35,102,32,1197,11.0,3-7A,minor
22266,47,79,20,179,11.0,3-7A,minor
22267,71,70,10,126,9.0,3-7B,other
22268,52,73,40,786,4.0,2-3,minor
22269,49,50,22,135,6.0,5-16A,minor
22270,60,61,81,513,5.0,4-20,major
22271,41,105,320,78,5.0,4-20,major
22272,41,70,47,352,7.0,4-27B,major
22273,67,61,16,109,7.0,4-27B,major
22274,65,4,23,401,4.0,4-26,minor
22275,46,64,59,31,4.0,4-26,minor
22276,38,68,26,1035,5.0,3-11B,major
22277,38,52,30,238,5.0,3-11B,major
22278,29,92,71,112,5.0,3-11B,major
22279,46,61,15,616,4.0,3-10,diminished
22280,60,63,22,868,5.0,2-5,other
22281,60,79,15,70,5.0,2-5,other
22282,43,82,2048,0,4.0,4-26,minor
22283,86,48,124,4268,2.0,1-1,other
22284,56,36,452,492,2.0,2-3,minor
22285,62,31,316,188,2.0,2-3,minor
22286,65,46,140,148,2.0,2-3,minor
22287,69,57,504,332,8.0,2-2,other
22288,62,19,468,32,8.0,2-2,other
22289,74,59,312,212,8.0,2-2,other
22290,81,57,192,304,8.0,2-2,other
22291,27,83,160,2428,0.0,2-4,major
22292,83,51,96,2340,0.0,4-16A,major
22293,26,41,68,280,0.0,4-16A,major
22294,84,52,60,368,0.0,4-16A,major
22295,67,58,80,796,7.0,3-11B,major
22296,67,70,136,516,9.0,4-26,minor
22297,67,60,336,588,6.0,4-10,minor
22298,47,65,1032,380,6.0,4-10,minor
22299,47,51,312,2028,4.0,5-27B,minor
22300,55,44,628,316,7.0,3-11B,major
22301,51,69,280,348,7.0,3-11B,major
22302,57,73,376,492,11.0,4-26,minor
22303,55,60,652,896,1.0,3-7A,minor
22304,59,49,232,276,1.0,3-7A,minor
22305,67,68,108,1680,7.0,6-24A,minor
22306,54,57,460,544,11.0,1-1,other
22307,66,73,244,192,11.0,1-1,other
22308,47,46,64,168,11.0,1-1,other
22309,57,54,268,608,2.0,3-11B,major
22310,45,49,72,208,2.0,3-11B,major
22311,56,36,112,484,8.0,4-27A,diminished
22312,52,34,436,1352,4.0,3-10,diminished
22313,43,48,104,300,4.0,3-10,diminished
22314,67,66,124,1796,0.0,3-11A,minor
22315,69,57,80,1724,4.0,4-26,minor
22316,67,29,104,488,9.0,5-33,other
22317,61,33,364,628,1.0,1-1,other
22318,50,42,1596,1016,2.0,1-1,other
22319,74,68,284,312,2.0,1-1,other
22320,62,33,104,336,2.0,1-1,other
22321,50,36,96,3292,2.0,1-1,other
22322,31,58,212,664,2.0,1-1,other
22323,46,82,1656,1448,7.0,3-11B,major
22324,62,50,148,2928,2.0,3-11B,major
22325,62,60,184,740,0.0,4-22A,major
22326,62,68,128,536,2.0,4-27A,minor
22327,62,63,100,516,2.0,3-11B,major
22328,58,74,184,944,0.0,3-4A,major
22329,56,77,144,360,9.0,3-11A,minor
22330,55,67,164,124,9.0,3-11A,minor
22331,54,75,100,128,9.0,3-11A,minor
22332,53,66,112,112,9.0,3-11A,minor
22333,52,73,140,116,9.0,3-11A,minor
22334,57,61,244,424,5.0,4-24,augmented
22335,60,36,208,852,6.0,3-10,other
22336,67,68,184,904,7.0,3-11B,major
22337,67,47,128,848,9.0,3-7A,minor
22338,67,66,100,504,1.0,3-10,other
22339,67,60,196,492,7.0,3-11B,major
22340,36,76,128,296,7.0,3-11B,major
22341,67,63,112,3560,4.0,4-26,minor
22342,67,62,176,528,3.0,4-19B,augmented
22343,67,48,184,640,7.0,3-11B,major
22344,67,52,156,288,7.0,3-11B,major
22345,67,48,140,280,7.0,3-11B,major
22346,67,59,152,584,1.0,4-27A,diminished
22347,67,66,208,260,1.0,4-27A,diminished
22348,56,50,408,1432,2.0,2-5,other
22349,46,57,48,2812,3.0,1-1,other
22350,61,52,560,360,0.0,2-1,other
22351,87,62,444,436,5.0,2-4,other
22352,26,54,456,424,5.0,2-4,other
22353,67,50,140,1096,5.0,2-4,other
22354,50,39,168,728,6.0,2-3,minor
22355,50,24,84,1256,6.0,2-3,minor
22356,50,40,160,608,7.0,3-11B,major
22357,50,48,240,832,2.0,2-4,major
22358,50,41,132,616,2.0,2-4,major
22359,50,46,120,624,9.0,4-23,minor
22360,50,46,152,704,2.0,2-3,minor
22361,26,43,196,528,2.0,2-3,minor
22362,54,49,3652,524,2.0,2-3,minor
22363,60,54,3444,196,2.0,2-3,minor
22364,64,48,80,160,2.0,2-3,minor
22365,68,57,60,160,2.0,2-3,minor
22366,70,55,40,144,2.0,2-3,minor
22367,72,46,56,156,2.0,2-3,minor
22368,82,43,144,184,2.0,2-3,minor
22369,80,44,32,164,2.0,2-3,minor
22370,92,52,172,360,2.0,2-3,minor
22371,94,58,52,180,2.0,2-3,minor
22372,96,51,48,212,2.0,2-3,minor
22373,104,49,1332,260,2.0,2-3,minor
22374,63,31,28,2482,4.0,4-26,minor
22375,43,29,40,512,1.0,4-28,diminished
22376,49,74,860,248,1.0,4-28,diminished
22377,66,54,48,884,1.0,4-28,diminished
22378,67,52,24,116,1.0,4-28,diminished
22379,55,36,40,532,9.0,2-2,other
22380,62,43,64,212,9.0,2-2,other
22381,51,59,136,700,0.0,3-9,other
22382,52,83,116,108,0.0,3-9,other
22383,52,52,116,668,0.0,3-8B,other
22384,53,56,112,128,0.0,3-8B,other
22385,69,111,144,1492,0.0,3-4A,major
22386,72,68,120,736,0.0,3-11B,major
22387,57,55,196,336,5.0,3-12,augmented
22388,56,46,68,188,5.0,3-12,augmented
22389,55,45,168,200,5.0,3-12,augmented
22390,54,43,200,216,5.0,3-12,augmented
22391,50,47,308,216,5.0,3-12,augmented
22392,72,81,68,388,6.0,5-29B,diminished
22393,55,41,112,592,11.0,2-3,minor
22394,67,60,68,172,11.0,2-3,minor
22395,23,46,108,1696,6.0,4-10,minor
22396,63,69,44,284,6.0,4-10,minor
22397,65,57,32,60,6.0,4-10,minor
22398,67,60,96,32,6.0,4-10,minor
22399,69,46,60,36,6.0,4-10,minor
22400,77,56,88,116,3.0,2-4,other
22401,79,56,84,52,3.0,2-4,other
22402,81,58,92,40,3.0,2-4,other
22403,83,90,132,56,3.0,2-4,other
22404,79,70,112,268,9.0,2-5,other
22405,81,66,92,264,2.0,3-11B,major
22406,79,60,76,128,2.0,3-11B,major
22407,78,58,104,156,2.0,3-11B,major
22408,79,48,76,120,2.0,3-11B,major
22409,76,50,224,132,2.0,3-11B,major
22410,52,33,32,412,2.0,3-11B,major
22411,58,43,68,1296,10.0,5-26B,augmented
22412,57,46,52,796,11.0,4-26,minor
22413,66,50,68,224,11.0,4-26,minor
22414,52,63,296,2068,7.0,4-26,minor
22415,60,29,344,1264,0.0,3-11A,minor
22416,69,61,72,1244,4.0,4-26,minor
22417,61,2,220,284,3.0,4-24,augmented
22418,73,63,84,448,3.0,4-24,augmented
22419,50,40,1068,396,7.0,2-5,other
22420,86,66,36,192,7.0,2-5,other
22421,86,62,40,184,7.0,2-5,other
22422,50,45,32,2116,8.0,3-8B,other
22423,49,4,44,296,8.0,3-8B,other
22424,76,90,364,888,9.0,3-2B,minor
22425,78,87,164,384,11.0,2-3,minor
22426,55,40,484,748,1.0,4-28,diminished
22427,55,54,132,728,6.0,3-7B,other
22428,79,80,68,204,6.0,3-7B,other
22429,72,6,72,420,2.0,3-7B,other
22430,74,81,88,168,2.0,3-7B,other
22431,74,79,100,180,2.0,3-7B,other
22432,52,52,100,752,2.0,2-4,major
22433,52,57,172,396,5.0,3-11A,other
22434,53,74,212,176,5.0,3-11A,other
22435,54,87,632,204,5.0,3-11A,other
22436,66,26,28,1192,9.0,4-26,minor
22437,56,82,208,384,9.0,3-11A,minor
22438,55,48,236,576,0.0,4-20,major
22439,53,52,48,324,6.0,2-6,other
22440,52,61,80,36,6.0,2-6,other
22441,57,58,220,400,5.0,4-24,augmented
22442,50,61,488,364,5.0,4-24,augmented
22443,48,48,120,620,0.0,2-1,other
22444,55,14,144,952,9.0,4-26,minor
22445,46,43,500,760,0.0,3-11B,major
22446,52,71,196,204,0.0,3-11B,major
22447,46,57,112,368,7.0,4-27A,minor
22448,55,61,88,396,7.0,3-11B,major
22449,64,63,68,184,7.0,3-11B,major
22450,74,115,132,180,7.0,3-11B,major
22451,57,72,56,516,8.0,2-2,other
22452,71,62,544,1780,9.0,3-11A,minor
22453,47,44,772,200,9.0,3-11A,minor
22454,57,49,232,188,9.0,3-11A,minor
22455,67,57,88,2312,1.0,4-27A,diminished
22456,71,81,52,364,7.0,1-1,other
22457,59,63,228,232,0.0,4-14A,minor
22458,57,47,100,1128,11.0,4-26,minor
22459,71,74,444,204,11.0,4-26,minor
22460,52,52,80,164,11.0,4-26,minor
22461,72,111,148,420,7.0,3-5B,other
22462,65,20,84,1288,9.0,5-35,minor
22463,49,49,40,736,4.0,4-26,minor
22464,50,63,172,52,4.0,4-26,minor
22465,38,46,100,404,2.0,2-1,other
22466,38,55,484,184,2.0,2-1,other
22467,50,48,56,200,2.0,2-1,other
22468,50,40,212,204,2.0,2-1,other
22469,38,45,1160,184,2.0,2-1,other
22470,52,111,400,3456,1.0,4-28,diminished
22471,54,92,360,392,1.0,4-28,diminished
22472,52,39,44,788,1.0,3-10,minor
22473,51,63,96,1416,0.0,3-9,other
22474,52,85,136,128,0.0,3-9,other
22475,52,51,108,660,0.0,3-8B,other
22476,53,57,120,116,0.0,3-8B,other
22477,71,46,24,1384,9.0,3-11A,minor
22478,69,33,52,40,9.0,3-11A,minor
22479,68,41,20,56,9.0,3-11A,minor
22480,69,62,56,100,9.0,3-11A,minor
22481,71,59,24,216,4.0,3-8B,other
22482,72,63,488,100,4.0,3-8B,other
22483,81,41,60,684,5.0,4-16A,other
22484,82,63,44,60,5.0,4-16A,other
22485,81,48,56,48,5.0,4-16A,other
22486,80,62,28,64,5.0,4-16A,other
22487,81,60,28,92,5.0,3-4A,other
22488,82,75,28,80,5.0,3-4A,other
22489,83,63,20,88,5.0,3-4A,other
22490,84,75,48,92,5.0,3-4A,other
22491,86,72,44,132,6.0,3-8B,other
22492,86,67,36,172,6.0,3-8B,other
22493,87,66,56,296,0.0,3-6,major
22494,86,66,44,88,0.0,3-6,major
22495,83,33,24,232,7.0,3-11B,major
22496,79,56,20,196,10.0,2-4,other
22497,73,80,44,92,10.0,2-4,other
22498,70,63,20,192,7.0,2-5,other
22499,60,78,56,1188,6.0,3-7A,minor
22500,74,90,288,376,6.0,3-10,diminished
22501,47,60,552,204,6.0,3-10,diminished
22502,59,27,28,220,6.0,3-10,diminished
22503,71,57,128,356,2.0,4-18A,major
22504,55,37,284,2132,1.0,4-27A,diminished
22505,58,47,88,764,10.0,5-26B,augmented
22506,66,45,56,560,11.0,3-11A,minor
22507,43,64,56,2696,4.0,3-10,diminished
22508,66,68,140,780,2.0,3-11B,major
22509,45,64,340,1908,1.0,4-24,other
22510,73,78,268,196,1.0,4-24,other
22511,45,54,20,208,1.0,4-24,other
22512,50,49,400,384,2.0,1-1,other
22513,62,48,164,196,2.0,1-1,other
22514,86,68,464,200,2.0,1-1,other
22515,34,56,24,188,2.0,1-1,other
22516,94,115,168,596,7.0,3-5B,other
22517,55,46,224,388,9.0,4-14A,minor
22518,55,56,76,380,9.0,4-14A,minor
22519,54,61,352,192,9.0,4-14A,minor
22520,92,72,72,384,5.0,2-5,other
22521,100,99,140,176,5.0,2-5,other
22522,98,68,108,180,7.0,3-11B,major
22523,67,39,148,1520,1.0,4-28,diminished
22524,55,49,220,1744,9.0,4-26,minor
22525,74,66,100,192,9.0,4-26,minor
22526,74,75,80,196,9.0,4-26,minor
22527,74,82,120,192,9.0,4-26,minor
22528,74,72,84,200,9.0,4-26,minor
22529,74,63,68,380,0.0,3-6,major
22530,65,60,648,192,0.0,3-8B,other
22531,64,11,76,44,0.0,3-8B,other
22532,74,68,116,336,2.0,1-1,other
22533,74,68,88,956,2.0,1-1,other
22534,74,77,108,384,2.0,3-9,other
22535,74,84,128,380,9.0,4-22B,minor
22536,69,84,156,376,7.0,2-5,other
22537,55,22,128,2124,7.0,3-11B,major
22538,60,55,180,1124,9.0,4-26,minor
22539,55,19,28,44,9.0,4-26,minor
22540,59,41,32,500,5.0,3-4A,other
22541,47,43,452,624,7.0,3-11B,major
22542,48,57,336,1336,8.0,5-31A,diminished
22543,48,63,256,388,9.0,4-26,minor
22544,48,60,60,388,8.0,4-28,diminished
22545,47,48,528,936,7.0,3-11B,major
22546,72,122,140,2880,7.0,2-4,major
22547,48,68,88,772,9.0,4-27A,diminished
22548,61,6,120,2252,3.0,2-4,major
22549,60,37,120,648,2.0,2-4,major
22550,50,66,44,492,11.0,3-7A,minor
22551,50,58,464,232,11.0,3-7A,minor
22552,38,45,68,216,11.0,3-7A,minor
22553,38,52,480,212,11.0,3-7A,minor
22554,50,51,448,196,11.0,3-7A,minor
22555,86,74,136,192,11.0,3-7A,minor
22556,38,40,24,192,11.0,3-7A,minor
22557,50,46,304,400,10.0,2-1,other
22558,50,51,608,396,4.0,2-2,other
22559,57,24,149,0,9.0,2-3,minor
22560,57,36,180,341,9.0,2-3,minor
22561,56,20,44,135,9.0,2-3,minor
22562,60,51,30,1027,7.0,5-35,minor
22563,57,50,222,984,9.0,2-3,minor
22564,61,44,1009,1208,0.0,4-22B,minor
22565,65,53,879,120,0.0,4-22B,minor
22566,69,57,26,44,0.0,4-22B,minor
22567,72,68,31,41,0.0,4-22B,minor
22568,73,80,16,40,0.0,4-22B,minor
22569,77,73,29,38,0.0,4-22B,minor
22570,82,81,24,32,0.0,4-22B,minor
22571,84,83,32,36,0.0,4-22B,minor
22572,89,93,42,32,0.0,4-22B,minor
22573,94,93,34,38,0.0,4-22B,minor
22574,96,99,43,41,0.0,4-22B,minor
22575,94,85,43,49,0.0,4-22B,minor
22576,96,74,31,38,0.0,4-22B,minor
22577,94,68,42,40,0.0,4-22B,minor
22578,96,64,38,44,0.0,4-22B,minor
22579,94,64,50,47,0.0,4-22B,minor
22580,96,58,47,51,0.0,4-22B,minor
22581,94,55,50,53,0.0,4-22B,minor
22582,96,48,57,52,0.0,4-22B,minor
22583,57,42,353,286,9.0,2-3,minor
22584,70,76,225,174,9.0,2-3,minor
22585,62,56,210,47,9.0,2-3,minor
22586,69,62,30,1462,10.0,4-24,augmented
22587,72,63,99,2300,0.0,1-1,other
22588,74,70,23,77,0.0,1-1,other
22589,71,85,44,50,0.0,1-1,other
22590,72,84,65,47,0.0,1-1,other
22591,82,72,61,103,0.0,1-1,other
22592,57,43,223,315,9.0,2-3,minor
22593,57,53,394,379,10.0,3-6,major
22594,48,57,54,362,9.0,2-3,minor
22595,65,86,37,978,9.0,2-3,minor
22596,69,90,80,188,9.0,2-3,minor
22597,55,46,105,1707,3.0,1-1,other
22598,84,69,625,1154,5.0,3-11B,major
22599,57,26,137,53,0.0,1-1,other
22600,57,36,199,369,0.0,1-1,other
22601,58,52,228,314,0.0,1-1,other
22602,79,70,225,70,7.0,3-11A,minor
22603,48,54,494,378,7.0,3-11A,minor
22604,48,56,284,566,10.0,4-22A,major
22605,77,93,140,192,5.0,3-11B,major
22606,48,68,692,193,5.0,3-11B,major
22607,60,67,100,384,5.0,3-11B,major
22608,36,55,721,381,5.0,2-5,other
22609,57,66,178,1724,9.0,3-11A,minor
22610,48,53,230,393,10.0,3-11B,major
22611,46,65,152,591,1.0,4-21,other
22612,55,62,164,182,1.0,4-21,other
22613,58,68,431,185,1.0,4-21,other
22614,57,50,154,773,5.0,3-11B,major
22615,48,48,49,765,5.0,3-11B,major
22616,61,44,906,421,1.0,4-21,other
22617,74,70,36,850,0.0,1-1,other
22618,70,81,62,469,9.0,4-23,minor
22619,72,44,100,91,9.0,4-23,minor
22620,70,70,81,78,9.0,4-23,minor
22621,69,57,76,78,9.0,4-23,minor
22622,70,79,113,116,9.0,4-23,minor
22623,72,67,179,173,9.0,4-23,minor
22624,64,56,144,423,9.0,2-2,other
22625,60,42,106,194,9.0,2-2,other
22626,55,63,201,159,9.0,2-2,other
22627,60,60,112,346,2.0,2-4,major
22628,69,88,41,54,2.0,2-4,major
22629,69,64,32,55,2.0,2-4,major
22630,53,47,155,743,1.0,5-33,other
22631,59,56,176,165,1.0,5-33,other
22632,63,60,175,161,1.0,5-33,other
22633,67,7,411,224,4.0,3-8B,other
22634,43,57,489,164,4.0,3-8B,other
22635,36,58,138,607,0.0,2-5,other
22636,60,73,52,182,0.0,2-5,other
22637,65,70,226,2098,9.0,2-3,minor
22638,69,80,83,182,9.0,2-3,minor
22639,39,27,250,1387,1.0,3-8A,other
22640,69,92,98,753,1.0,2-2,other
22641,70,92,164,172,1.0,2-2,other
22642,74,86,266,598,9.0,2-3,minor
22643,69,83,206,388,9.0,2-3,minor
22644,65,74,137,113,9.0,2-3,minor
22645,60,49,51,125,9.0,2-3,minor
22646,55,44,522,344,7.0,5-35,minor
22647,60,62,136,377,0.0,3-8A,major
22648,60,59,96,189,0.0,3-8A,major
22649,60,46,66,173,0.0,3-8A,major
22650,65,62,73,967,2.0,4-26,minor
22651,65,56,77,188,2.0,4-26,minor
22652,53,53,168,1556,10.0,4-20,major
22653,55,65,153,181,10.0,4-20,major
22654,57,84,204,191,10.0,4-20,major
22655,60,65,198,771,10.0,3-11A,other
22656,57,52,194,398,10.0,3-11A,other
22657,70,70,69,436,10.0,4-14A,other
22658,48,62,328,893,5.0,3-11B,major
22659,68,79,82,223,5.0,3-11B,major
22660,24,62,7,255,7.0,4-22B,minor
22661,58,50,447,480,1.0,3-5B,other
22662,72,54,45,438,4.0,3-10,diminished
22663,57,42,172,374,9.0,2-3,minor
22664,58,63,201,168,9.0,2-3,minor
22665,57,58,105,192,9.0,2-3,minor
22666,69,68,60,190,9.0,2-3,minor
22667,72,77,578,228,10.0,2-1,other
22668,51,51,699,345,5.0,4-24,augmented
22669,57,52,493,183,5.0,4-24,augmented
22670,65,60,328,384,5.0,4-24,augmented
22671,72,60,79,632,10.0,1-1,other
22672,70,68,90,57,10.0,1-1,other
22673,69,89,135,84,10.0,1-1,other
22674,70,98,161,187,10.0,1-1,other
22675,77,92,77,289,2.0,3-7A,minor
22676,81,93,75,90,2.0,3-7A,minor
22677,82,99,85,95,2.0,3-7A,minor
22678,84,76,65,276,3.0,2-5,other
22679,55,40,250,223,5.0,3-4A,other
22680,82,64,32,375,5.0,3-4A,other
22681,57,42,375,794,9.0,2-4,major
22682,61,54,249,366,9.0,2-4,major
22683,64,51,104,131,9.0,2-4,major
22684,80,61,81,140,9.0,2-4,major
22685,50,47,163,119,9.0,2-4,major
22686,57,37,966,193,9.0,2-4,major
22687,62,43,83,372,9.0,2-5,other
22688,64,51,119,598,3.0,4-24,augmented
22689,59,58,94,567,2.0,2-3,minor
22690,59,76,215,755,10.0,4-20,major
22691,50,54,216,380,2.0,4-22B,minor
22692,43,47,18,340,11.0,2-6,other
22693,84,64,23,444,2.0,3-7A,minor
22694,60,52,81,374,2.0,3-7A,minor
22695,60,51,13,197,2.0,3-7A,minor
22696,57,57,133,2896,5.0,3-11B,major
22697,39,45,93,3244,0.0,4-22B,minor
22698,60,64,1211,253,0.0,4-22B,minor
22699,65,76,72,101,0.0,4-22B,minor
22700,70,85,32,72,0.0,4-22B,minor
22701,72,87,45,53,0.0,4-22B,minor
22702,77,92,54,54,0.0,4-22B,minor
22703,82,87,35,54,0.0,4-22B,minor
22704,84,81,390,56,0.0,4-22B,minor
22705,89,85,210,65,0.0,4-22B,minor
22706,96,87,56,120,7.0,3-7A,minor
22707,94,76,63,69,7.0,3-7A,minor
22708,89,66,161,79,7.0,3-7A,minor
22709,94,70,64,79,7.0,3-7A,minor
22710,57,57,51,264,9.0,2-3,minor
22711,60,53,630,199,9.0,2-3,minor
22712,82,85,56,388,5.0,2-4,major
22713,81,89,57,140,5.0,2-4,major
22714,69,64,80,1272,10.0,5-30B,other
22715,79,68,112,343,1.0,5-33,other
22716,53,21,61,195,3.0,3-12,augmented
22717,53,52,18,364,3.0,3-12,augmented
22718,55,46,21,54,3.0,3-12,augmented
22719,55,66,46,60,3.0,3-12,augmented
22720,53,65,60,41,3.0,3-12,augmented
22721,50,39,36,83,3.0,3-12,augmented
22722,51,65,52,64,3.0,3-12,augmented
22723,55,61,10,182,0.0,2-4,major
22724,58,50,272,280,0.0,2-4,major
22725,75,76,69,574,0.0,3-12,augmented
22726,62,47,94,415,9.0,4-23,minor
22727,48,49,135,777,9.0,4-22B,minor
22728,60,64,385,541,5.0,4-27B,major
22729,51,77,377,385,5.0,4-27B,major
22730,65,89,41,149,5.0,4-27B,major
22731,69,109,51,101,5.0,4-27B,major
22732,53,42,149,1538,1.0,3-10,other
22733,56,56,158,335,1.0,3-10,other
22734,55,48,214,181,1.0,3-10,other
22735,24,46,306,571,9.0,2-3,minor
22736,24,46,347,401,9.0,2-3,minor
22737,24,44,152,677,7.0,5-35,minor
22738,24,44,659,279,7.0,5-35,minor
22739,60,44,178,552,0.0,3-8A,major
22740,41,53,241,208,0.0,3-8A,major
22741,48,44,706,189,0.0,3-8A,major
22742,55,52,438,183,0.0,3-8A,major
22743,57,54,156,202,0.0,3-8A,major
22744,60,65,47,189,0.0,3-8A,major
22745,65,62,189,198,0.0,3-8A,major
22746,82,58,158,769,5.0,1-1,other
22747,58,21,158,46,5.0,1-1,other
22748,44,16,65,833,1.0,2-5,other
22749,36,54,16,1040,0.0,1-1,other
22750,58,49,1046,193,0.0,1-1,other
22751,61,48,941,94,0.0,1-1,other
22752,64,41,574,69,0.0,1-1,other
22753,67,56,20,50,0.0,1-1,other
22754,70,54,33,58,0.0,1-1,other
22755,73,60,32,51,0.0,1-1,other
22756,76,62,30,50,0.0,1-1,other
22757,79,53,65,96,0.0,1-1,other
22758,82,65,58,93,0.0,1-1,other
22759,84,51,73,95,0.0,1-1,other
22760,85,56,47,103,0.0,1-1,other
22761,87,60,29,149,0.0,1-1,other
22762,88,61,75,83,0.0,1-1,other
22763,90,67,25,117,0.0,1-1,other
22764,91,68,71,69,0.0,1-1,other
22765,93,85,75,65,0.0,1-1,other
22766,94,84,27,85,0.0,1-1,other
22767,96,81,68,55,0.0,1-1,other
22768,97,92,68,78,0.0,1-1,other
22769,99,81,40,72,0.0,1-1,other
22770,100,68,60,42,0.0,1-1,other
22771,101,70,47,58,0.0,1-1,other
22772,102,79,45,46,0.0,1-1,other
22773,103,68,176,58,0.0,1-1,other
22774,108,60,158,176,0.0,1-1,other
22775,108,72,168,189,0.0,1-1,other
22776,108,58,194,215,0.0,1-1,other
22777,65,47,993,1904,5.0,2-5,other
22778,86,53,34,30,5.0,2-5,other
22779,98,72,19,79,9.0,5-27B,minor
22780,103,83,28,40,9.0,5-27B,minor
22781,55,48,283,0,4.0,3-7A,minor
22782,59,32,52,947,4.0,2-5,other
22783,64,27,48,62,4.0,2-5,other
22784,74,53,29,77,6.0,2-3,minor
22785,86,82,34,94,9.0,1-1,other
22786,90,71,18,31,9.0,1-1,other
22787,98,76,50,65,9.0,2-2,other
22788,102,73,29,30,9.0,2-2,other
22789,103,83,49,34,9.0,2-2,other
22790,102,72,40,31,9.0,2-2,other
22791,100,71,41,70,4.0,2-2,other
22792,95,44,28,38,4.0,2-2,other
22793,98,66,31,39,4.0,2-2,other
22794,90,43,36,37,4.0,2-2,other
22795,95,40,25,43,4.0,2-2,other
22796,88,35,32,43,4.0,2-2,other
22797,90,35,43,47,4.0,2-2,other
22798,86,38,37,46,4.0,2-2,other
22799,88,34,45,50,4.0,2-2,other
22800,83,17,85,78,4.0,2-2,other
22801,28,39,92,88,4.0,2-2,other
22802,72,32,408,835,4.0,2-3,minor
22803,59,30,45,978,4.0,2-5,other
22804,64,36,44,54,4.0,2-5,other
22805,69,44,22,86,7.0,2-1,other
22806,74,56,29,58,7.0,2-4,major
22807,81,69,34,80,6.0,2-2,other
22808,66,29,221,247,4.0,2-5,other
22809,74,42,35,50,4.0,2-5,other
22810,86,63,27,216,6.0,2-2,other
22811,96,39,33,223,11.0,2-5,other
22812,100,63,54,37,11.0,2-5,other
22813,98,58,27,35,11.0,2-5,other
22814,90,52,37,70,9.0,2-5,other
22815,95,47,43,46,9.0,2-5,other
22816,86,2,27,133,11.0,2-2,other
22817,90,37,193,81,11.0,2-2,other
22818,81,32,119,121,11.0,2-2,other
22819,81,55,39,528,4.0,3-11A,minor
22820,83,71,57,44,4.0,3-11A,minor
22821,79,62,176,60,4.0,3-11A,minor
22822,76,52,185,75,4.0,3-11A,minor
22823,81,73,40,325,7.0,3-11B,major
22824,83,82,50,54,7.0,3-11B,major
22825,86,90,55,67,7.0,3-11B,major
22826,85,69,51,68,7.0,3-11B,major
22827,83,58,62,58,7.0,3-11B,major
22828,83,50,55,173,1.0,2-2,other
22829,81,50,57,57,1.0,2-2,other
22830,81,49,50,205,7.0,2-4,major
22831,79,43,57,52,7.0,2-4,major
22832,55,35,60,145,9.0,2-3,minor
22833,59,35,55,73,9.0,2-3,minor
22834,60,45,707,62,9.0,2-3,minor
22835,64,51,34,57,9.0,2-3,minor
22836,67,63,27,47,9.0,2-3,minor
22837,69,64,27,43,9.0,2-3,minor
22838,74,55,46,45,9.0,2-3,minor
22839,71,49,48,48,9.0,2-3,minor
22840,72,47,40,47,9.0,2-3,minor
22841,76,38,46,54,9.0,2-3,minor
22842,79,44,21,53,9.0,2-3,minor
22843,83,49,53,60,9.0,2-3,minor
22844,86,38,69,61,9.0,2-3,minor
22845,83,30,94,63,9.0,2-3,minor
22846,84,33,120,78,9.0,2-3,minor
22847,59,30,61,896,0.0,2-4,major
22848,66,36,160,155,4.0,2-5,other
22849,69,49,70,161,7.0,1-1,other
22850,59,56,61,301,4.0,2-3,minor
22851,66,55,16,130,4.0,3-9,other
22852,66,27,181,167,7.0,3-11B,major
22853,67,41,26,181,7.0,2-4,major
22854,59,31,375,205,4.0,3-11A,minor
22855,59,26,26,613,1.0,2-3,minor
22856,59,1,100,241,4.0,3-7B,other
22857,55,33,222,245,9.0,2-3,minor
22858,59,32,34,67,9.0,2-3,minor
22859,60,60,44,44,9.0,2-3,minor
22860,64,69,17,47,9.0,2-3,minor
22861,71,74,30,45,9.0,2-3,minor
22862,76,76,54,51,9.0,2-3,minor
22863,79,42,44,187,0.0,2-1,other
22864,86,64,11,114,9.0,2-2,other
22865,95,59,51,57,9.0,2-2,other
22866,98,64,59,59,9.0,2-2,other
22867,100,48,39,64,9.0,2-2,other
22868,103,48,67,64,9.0,2-2,other
22869,84,66,55,1169,7.0,3-11B,major
22870,83,59,32,69,7.0,3-11B,major
22871,59,24,13,167,2.0,3-9,other
22872,83,77,55,635,7.0,3-6,major
22873,61,40,374,204,4.0,2-5,other
22874,64,45,194,70,4.0,2-5,other
22875,71,48,46,71,4.0,2-5,other
22876,88,54,72,255,4.0,2-5,other
22877,79,55,148,827,11.0,2-2,other
22878,76,52,25,143,11.0,2-2,other
22879,74,43,26,28,11.0,2-2,other
22880,59,32,54,102,4.0,1-1,other
22881,52,43,266,375,4.0,3-9,other
22882,59,33,361,67,4.0,3-9,other
22883,64,37,41,54,4.0,3-9,other
22884,52,36,68,170,6.0,2-2,other
22885,64,28,21,77,6.0,2-2,other
22886,52,44,210,53,6.0,2-2,other
22887,71,53,48,491,7.0,5-27A,major
22888,69,34,39,176,1.0,4-27A,diminished
22889,81,57,22,78,1.0,4-27A,diminished
22890,93,43,28,166,1.0,3-10,diminished
22891,36,36,12,189,1.0,3-10,diminished
22892,100,82,151,92,1.0,3-10,diminished
22893,93,61,28,286,4.0,2-6,other
22894,91,66,56,26,4.0,2-6,other
22895,90,58,136,66,4.0,2-6,other
22896,71,63,29,423,4.0,2-6,other
22897,59,30,60,180,4.0,2-3,minor
22898,69,37,64,240,7.0,2-1,other
22899,59,27,15,66,7.0,2-1,other
22900,59,20,54,73,7.0,2-1,other
22901,74,70,49,177,11.0,2-5,other
22902,69,45,131,131,6.0,2-2,other
22903,59,24,117,62,6.0,2-2,other
22904,66,39,127,61,6.0,2-2,other
22905,52,33,10,66,6.0,2-2,other
22906,57,31,632,193,0.0,2-4,major
22907,58,29,159,319,6.0,2-3,minor
22908,58,32,89,192,2.0,3-11B,major
22909,58,25,95,183,6.0,2-3,minor
22910,58,19,43,136,2.0,3-11B,major
22911,52,1,142,99,6.0,1-1,other
22912,64,36,66,148,7.0,2-4,major
22913,78,67,49,124,11.0,2-5,other
22914,71,24,59,242,6.0,2-2,other
22915,66,25,175,125,4.0,2-5,other
22916,52,31,140,58,4.0,2-5,other
22917,59,30,63,64,4.0,2-5,other
22918,71,48,50,63,4.0,2-5,other
22919,64,44,73,63,4.0,2-5,other
22920,48,41,29,126,6.0,2-6,other
22921,62,50,254,67,6.0,2-6,other
22922,55,59,91,83,6.0,2-6,other
22923,57,74,92,96,6.0,2-6,other
22924,58,73,183,82,6.0,2-6,other
22925,59,24,180,665,4.0,3-11A,minor
22926,69,12,71,160,6.0,4-23,minor
22927,59,39,19,87,6.0,4-23,minor
22928,59,12,125,84,6.0,4-23,minor
22929,52,34,12,53,6.0,4-23,minor
22930,52,56,334,62,6.0,4-23,minor
22931,55,49,147,61,6.0,4-23,minor
22932,43,39,62,511,10.0,6-34A,augmented
22933,52,40,10,67,10.0,6-34A,augmented
22934,58,44,102,79,10.0,6-34A,augmented
22935,62,57,741,77,10.0,6-34A,augmented
22936,66,39,321,77,10.0,6-34A,augmented
22937,69,54,41,77,10.0,6-34A,augmented
22938,70,71,21,39,10.0,6-34A,augmented
22939,74,74,34,39,10.0,6-34A,augmented
22940,78,70,26,35,10.0,6-34A,augmented
22941,81,68,33,32,10.0,6-34A,augmented
22942,78,65,17,35,10.0,6-34A,augmented
22943,79,60,35,26,10.0,6-34A,augmented
22944,81,58,29,33,10.0,6-34A,augmented
22945,82,57,14,33,10.0,6-34A,augmented
22946,86,65,21,33,10.0,6-34A,augmented
22947,90,61,22,32,10.0,6-34A,augmented
22948,93,72,26,33,10.0,6-34A,augmented
22949,90,52,19,35,10.0,6-34A,augmented
22950,91,52,24,31,10.0,6-34A,augmented
22951,93,48,20,41,10.0,6-34A,augmented
22952,94,53,18,32,10.0,6-34A,augmented
22953,102,52,29,81,2.0,2-4,major
22954,103,49,57,44,2.0,2-4,major
22955,105,62,56,46,2.0,2-4,major
22956,59,31,66,141,4.0,2-5,other
22957,66,25,309,163,9.0,3-9,other
22958,66,25,19,391,2.0,2-5,other
22959,59,29,104,208,6.0,3-7A,minor
22960,65,65,7,0,7.0,3-11A,minor
22961,36,66,36,831,1.0,5-31A,diminished
22962,55,35,17,3243,6.0,4-29A,minor
22963,82,33,20,412,0.0,3-11B,major
22964,58,31,7,138,6.0,4-27A,diminished
22965,62,45,23,825,8.0,4-5A,other
22966,65,58,36,240,7.0,5-11B,other
22967,46,55,18,65,7.0,5-11B,other
22968,45,52,6,44,7.0,5-11B,other
22969,65,63,14,860,0.0,4-21,major
22970,65,54,32,125,9.0,4-18A,diminished
22971,65,50,105,83,9.0,4-18A,diminished
22972,67,66,64,301,2.0,2-3,minor
22973,62,36,92,145,10.0,3-4B,other
22974,43,29,7,134,10.0,3-4B,other
22975,52,34,20,234,10.0,4-22A,major
22976,72,44,8,164,5.0,4-16A,other
22977,77,76,12,31,5.0,4-16A,other
22978,84,88,18,55,5.0,5-30B,other
22979,78,40,21,59,10.0,4-16A,other
22980,77,34,16,32,10.0,4-16A,other
22981,73,40,19,86,2.0,2-3,minor
22982,72,32,25,29,2.0,2-3,minor
22983,69,58,64,241,9.0,4-26,minor
22984,84,101,27,260,4.0,3-8B,other
22985,80,80,17,85,0.0,4-22A,other
22986,78,69,22,88,3.0,2-4,major
22987,72,60,27,106,5.0,2-4,other
22988,67,51,91,66,1.0,2-1,other
22989,68,57,27,85,5.0,2-4,other
22990,70,64,37,34,5.0,2-4,other
22991,82,72,26,98,3.0,3-8B,other
22992,71,47,24,98,3.0,2-4,other
22993,70,32,27,31,3.0,2-4,other
22994,69,67,21,64,3.0,2-4,other
22995,62,40,21,35,3.0,2-4,other
22996,65,60,23,31,3.0,2-4,other
22997,67,77,23,34,3.0,2-4,other
22998,64,64,16,39,3.0,2-4,other
22999,81,38,46,712,0.0,3-11B,major
23000,69,48,11,525,1.0,4-15B,minor
23001,65,57,13,29,1.0,4-15B,minor
23002,62,58,17,30,1.0,4-15B,minor
23003,55,62,57,138,9.0,3-11A,minor
23004,65,75,20,150,10.0,4-2B,major
23005,65,74,21,36,10.0,4-2B,major
23006,55,27,7,624,2.0,5-14A,minor
23007,60,44,10,231,2.0,4-26,minor
23008,81,74,16,79,10.0,4-20,major
23009,84,91,22,37,10.0,4-20,major
23010,77,65,23,72,10.0,3-4A,major
23011,72,32,7,33,10.0,3-4A,major
23012,74,79,14,92,11.0,4-2A,minor
23013,72,85,37,41,11.0,4-2A,minor
23014,65,51,13,59,4.0,5-28A,other
23015,63,65,18,31,4.0,5-28A,other
23016,57,56,14,112,8.0,2-3,other
23017,53,56,37,30,8.0,2-3,other
23018,53,51,43,56,8.0,2-3,other
23019,53,50,24,64,8.0,2-3,other
23020,60,62,21,569,7.0,4-26,minor
23021,61,87,32,36,7.0,4-26,minor
23022,62,57,33,38,7.0,4-26,minor
23023,65,56,19,44,7.0,4-26,minor
23024,67,65,18,37,7.0,4-26,minor
23025,74,74,20,124,9.0,2-3,minor
23026,65,36,17,443,10.0,2-4,major
23027,60,8,22,165,9.0,2-3,minor
23028,57,38,11,78,10.0,2-5,other
23029,53,47,59,143,2.0,2-2,other
23030,82,68,19,446,5.0,4-20,other
23031,82,64,15,110,3.0,4-5B,other
23032,66,47,16,180,7.0,2-2,other
23033,72,82,16,564,6.0,3-8B,other
23034,72,67,21,34,6.0,3-8B,other
23035,77,65,19,82,2.0,5-9A,major
23036,81,38,12,825,1.0,8-11B,other
23037,55,64,8,165,0.0,4-14B,major
23038,46,43,17,121,7.0,4-26,minor
23039,36,42,7,239,10.0,6-40A,major
23040,65,54,28,77,10.0,3-11B,major
23041,52,38,22,48,10.0,3-11B,major
23042,60,56,22,84,5.0,3-11B,major
23043,61,75,15,34,5.0,3-11B,major
23044,65,76,23,40,5.0,3-11B,major
23045,72,64,22,74,7.0,5-29B,minor
23046,77,88,29,42,7.0,5-29B,minor
23047,82,71,25,37,7.0,5-29B,minor
23048,86,81,20,83,6.0,3-5B,other
23049,74,53,23,81,2.0,5-16B,other
23050,74,46,25,111,7.0,2-2,other
23051,74,42,22,256,8.0,2-6,other
23052,74,46,8,80,10.0,3-11B,major
23053,53,36,12,527,8.0,4-28,diminished
23054,72,83,28,318,7.0,3-11A,minor
23055,90,37,11,470,0.0,4-25,major
23056,75,47,15,140,6.0,3-5B,other
23057,74,34,6,31,6.0,3-5B,other
23058,72,66,34,91,10.0,5-27A,major
23059,69,62,21,98,7.0,4-14A,minor
23060,72,75,27,35,7.0,4-14A,minor
23061,60,59,23,34,7.0,4-14A,minor
23062,65,41,14,105,10.0,3-4A,major
23063,60,42,8,86,0.0,2-2,other
23064,53,35,16,267,0.0,4-20,other
23065,62,62,20,1078,0.0,2-1,other
23066,63,59,16,26,0.0,2-1,other
23067,66,61,18,56,6.0,3-5B,other
23068,74,67,19,107,11.0,3-8B,other
23069,62,34,22,130,11.0,2-6,other
23070,65,60,35,36,11.0,2-6,other
23071,38,46,5,124,2.0,4-5A,major
23072,50,44,8,123,8.0,2-3,minor
23073,43,55,8,41,8.0,2-3,minor
23074,64,63,13,44,8.0,2-3,minor
23075,60,73,17,712,5.0,4-22A,major
23076,60,74,24,36,5.0,4-22A,major
23077,65,54,23,88,2.0,3-1,other
23078,52,28,10,881,1.0,5-31A,diminished
23079,51,46,24,350,5.0,4-20,major
23080,51,39,33,125,9.0,4-16A,other
23081,50,72,33,405,10.0,2-5,other
23082,55,28,12,796,7.0,4-26,minor
23083,53,45,9,116,9.0,4-26,minor
23084,60,83,16,118,10.0,3-11B,major
23085,65,55,14,78,2.0,3-1,other
23086,53,40,52,145,5.0,3-11A,other
23087,62,41,9,602,7.0,4-18A,major
23088,54,49,15,737,6.0,3-5B,other
23089,88,1,10,355,2.0,6-34B,major
23090,76,36,13,418,5.0,4-16A,major
23091,73,44,21,29,5.0,4-16A,major
23092,69,46,11,30,5.0,4-16A,major
23093,61,74,15,103,11.0,2-6,other
23094,62,70,22,179,10.0,2-1,other
23095,74,85,24,94,8.0,2-3,minor
23096,67,58,15,81,0.0,3-1,other
23097,60,24,17,30,0.0,3-1,other
23098,52,46,28,132,8.0,2-2,other
23099,67,31,21,566,11.0,2-3,minor
23100,63,57,22,115,2.0,4-14A,minor
23101,48,54,14,79,7.0,4-20,major
23102,72,71,15,55,10.0,2-1,other
23103,70,83,30,150,8.0,2-3,other
23104,69,74,19,57,2.0,5-32A,minor
23105,60,60,41,32,2.0,5-32A,minor
23106,60,43,15,912,5.0,3-11A,other
23107,53,51,21,57,9.0,2-3,minor
23108,53,54,14,33,9.0,2-3,minor
23109,53,44,23,29,9.0,2-3,minor
23110,53,49,9,65,9.0,2-3,minor
23111,88,4,17,312,8.0,5-38B,other
23112,93,39,8,361,4.0,4-25,other
23113,94,81,19,147,0.0,4-26,other
23114,92,76,21,40,0.0,4-26,other
23115,87,67,25,30,0.0,4-26,other
23116,85,67,23,145,5.0,2-4,other
23117,84,43,12,27,5.0,2-4,other
23118,67,51,23,314,3.0,3-11A,other
23119,46,36,23,305,4.0,3-10,diminished
23120,62,39,39,188,0.0,2-5,other
23121,63,63,24,44,0.0,2-5,other
23122,68,54,22,110,2.0,3-8A,major
23123,69,60,17,33,2.0,3-8A,major
23124,74,55,23,85,0.0,1-1,other
23125,75,42,20,28,0.0,1-1,other
23126,76,55,23,29,0.0,1-1,other
23127,67,58,40,219,9.0,4-26,minor
23128,74,59,30,110,6.0,3-8B,other
23129,54,39,34,115,2.0,3-8A,major
23130,71,63,15,327,2.0,2-3,minor
23131,67,50,19,42,2.0,2-3,minor
23132,64,54,20,40,2.0,2-3,minor
23133,62,51,21,31,2.0,2-3,minor
23134,58,52,16,154,3.0,4-13A,other
23135,47,45,38,116,8.0,2-3,other
23136,36,50,11,123,0.0,2-5,other
23137,46,73,64,45,0.0,2-5,other
23138,34,50,16,79,0.0,2-5,other
23139,81,20,12,433,2.0,5-28B,other
23140,54,48,20,49,2.0,5-28B,other
23141,74,18,43,69,10.0,5-21A,major
23142,58,37,36,292,1.0,4-27A,minor
23143,62,48,6,157,5.0,3-11B,major
23144,59,38,7,2360,8.0,4-26,other
23145,54,56,21,959,6.0,4-27A,diminished
23146,62,68,16,1166,9.0,2-2,other
23147,65,84,21,199,0.0,2-1,other
23148,67,66,19,34,0.0,2-1,other
23149,77,48,20,642,10.0,4-20,major
23150,65,75,23,314,2.0,3-1,other
23151,67,105,33,35,2.0,3-1,other
23152,65,77,13,41,2.0,3-1,other
23153,53,41,36,2136,0.0,4-26,other
23154,43,62,13,340,4.0,5-38A,major
23155,60,39,14,860,2.0,5-34,major
23156,96,70,20,192,0.0,2-2,other
23157,48,73,51,1120,7.0,5-35,minor
23158,67,73,23,42,7.0,5-35,minor
23159,65,62,7,36,7.0,5-35,minor
23160,45,72,67,156,0.0,2-5,other
23161,57,43,30,121,0.0,2-5,other
23162,50,54,141,46,0.0,2-5,other
23163,50,31,40,191,5.0,3-11B,major
23164,55,51,6,122,7.0,4-26,minor
23165,81,24,39,927,2.0,5-29B,minor
23166,54,44,32,714,9.0,4-16A,other
23167,91,78,23,1091,2.0,2-3,minor
23168,86,64,14,30,2.0,2-3,minor
23169,57,31,164,0,5.0,3-4B,other
23170,60,55,60,2288,5.0,4-20,major
23171,62,46,184,320,4.0,3-10,diminished
23172,52,40,328,892,10.0,2-4,major
23173,69,61,124,264,10.0,2-4,major
23174,70,68,68,116,10.0,2-4,major
23175,74,84,80,124,10.0,2-4,major
23176,77,90,144,116,10.0,2-4,major
23177,81,82,96,112,10.0,2-4,major
23178,82,80,112,128,5.0,4-5B,other
23179,84,84,80,160,5.0,4-5B,other
23180,73,60,68,176,5.0,4-5B,other
23181,72,41,80,192,5.0,4-5B,other
23182,70,66,116,508,5.0,2-4,other
23183,69,66,64,148,5.0,2-4,other
23184,67,49,60,80,5.0,2-4,other
23185,65,31,92,120,5.0,2-4,other
23186,64,50,40,108,5.0,2-4,other
23187,67,81,100,84,5.0,2-4,other
23188,57,39,528,120,4.0,2-2,other
23189,65,68,208,72,4.0,2-2,other
23190,62,54,76,168,4.0,2-2,other
23191,62,54,92,172,4.0,2-2,other
23192,62,60,72,168,4.0,2-2,other
23193,62,63,88,148,4.0,2-2,other
23194,64,66,112,396,2.0,2-5,other
23195,62,58,100,108,2.0,2-5,other
23196,64,48,88,92,2.0,2-5,other
23197,62,49,68,80,2.0,2-5,other
23198,64,56,48,80,2.0,2-5,other
23199,62,40,32,72,2.0,2-5,other
23200,64,56,84,56,2.0,2-5,other
23201,62,53,84,48,2.0,2-5,other
23202,61,62,72,76,2.0,2-5,other
23203,66,1,376,460,2.0,3-7B,other
23204,57,68,148,160,2.0,3-7B,other
23205,57,56,148,320,2.0,3-7B,other
23206,62,57,252,276,2.0,3-7B,other
23207,57,19,144,588,7.0,3-11B,major
23208,58,54,232,312,1.0,2-3,other
23209,62,56,144,256,7.0,3-11B,major
23210,47,46,56,820,7.0,3-11B,major
23211,76,82,64,580,0.0,4-27B,major
23212,36,61,112,2032,5.0,3-11B,major
23213,34,56,196,956,0.0,4-27B,major
23214,33,53,36,336,0.0,4-27B,major
23215,60,30,44,480,0.0,4-27B,major
23216,69,48,160,156,0.0,2-4,major
23217,69,42,256,380,0.0,2-4,major
23218,69,42,32,452,2.0,2-4,major
23219,58,13,260,452,10.0,3-6,major
23220,84,122,720,1376,10.0,4-20,major
23221,82,83,492,644,9.0,3-5B,other
23222,56,35,468,568,10.0,2-1,other
23223,81,48,804,1032,9.0,4-4A,minor
23224,89,122,704,1204,5.0,4-16A,other
23225,50,42,540,1320,0.0,3-8B,other
23226,81,39,92,84,0.0,3-8B,other
23227,74,57,256,196,0.0,3-8B,other
23228,77,81,268,292,0.0,3-8B,other
23229,77,69,132,584,10.0,4-20,major
23230,65,57,1224,284,10.0,4-20,major
23231,70,58,220,636,10.0,2-4,major
23232,36,52,104,600,10.0,2-4,major
23233,66,33,200,1564,0.0,2-4,other
23234,54,35,40,188,0.0,2-4,other
23235,57,53,116,88,2.0,4-26,minor
23236,58,46,32,444,0.0,3-9,other
23237,56,57,64,1172,3.0,2-4,major
23238,41,45,984,56,5.0,2-5,other
23239,57,41,288,32,5.0,2-5,other
23240,41,46,84,1324,9.0,2-3,minor
23241,40,54,212,316,9.0,2-3,minor
23242,55,46,292,28,9.0,2-3,minor
23243,69,45,100,532,9.0,2-3,minor
23244,70,66,112,100,9.0,2-3,minor
23245,69,61,76,96,9.0,2-3,minor
23246,69,57,32,204,4.0,5-29B,diminished
23247,70,50,28,76,4.0,5-29B,diminished
23248,74,70,64,88,4.0,5-29B,diminished
23249,78,72,80,72,4.0,5-29B,diminished
23250,81,75,92,116,4.0,5-29B,diminished
23251,55,36,388,420,5.0,2-4,other
23252,72,57,48,188,5.0,2-4,other
23253,73,66,76,104,5.0,2-4,other
23254,75,60,28,84,5.0,2-4,other
23255,76,74,60,68,5.0,2-4,other
23256,78,33,36,104,5.0,2-4,other
23257,79,68,44,44,5.0,2-4,other
23258,81,54,72,96,5.0,2-4,other
23259,82,78,64,36,5.0,2-4,other
23260,84,99,124,112,5.0,2-4,other
23261,73,66,100,332,1.0,2-2,other
23262,72,77,96,236,1.0,2-2,other
23263,63,58,284,464,9.0,4-26,minor
23264,61,63,264,576,2.0,4-26,minor
23265,69,60,72,1372,5.0,3-11B,major
23266,48,46,116,852,2.0,3-11A,minor
23267,47,50,612,900,7.0,3-11B,major
23268,47,49,88,868,7.0,3-11B,major
23269,46,75,732,580,0.0,5-26B,other
23270,68,35,40,572,0.0,3-12,augmented
23271,46,57,260,536,0.0,2-5,other
23272,45,75,476,328,0.0,2-5,other
23273,45,68,224,540,0.0,2-5,other
23274,57,42,84,420,0.0,2-4,major
23275,27,57,216,184,0.0,2-4,major
23276,26,74,420,272,0.0,2-4,major
23277,38,78,152,316,0.0,2-4,major
23278,69,41,276,668,0.0,4-24,augmented
23279,50,55,312,1596,7.0,5-27B,minor
23280,50,33,272,588,7.0,4-26,minor
23281,71,56,92,704,0.0,3-1,other
23282,70,48,88,68,0.0,3-1,other
23283,68,50,92,68,0.0,3-1,other
23284,65,55,64,80,0.0,3-1,other
23285,43,22,56,28,0.0,3-1,other
23286,70,90,152,68,0.0,3-1,other
23287,36,58,716,328,8.0,2-2,other
23288,65,63,48,52,8.0,2-2,other
23289,59,42,48,268,10.0,2-5,other
23290,62,49,76,96,10.0,2-5,other
23291,59,41,52,36,10.0,2-5,other
23292,53,52,24,84,10.0,2-5,other
23293,41,59,1424,360,0.0,3-12,augmented
23294,57,47,96,68,0.0,3-12,augmented
23295,29,52,68,1292,5.0,1-1,other
23296,27,45,196,884,1.0,2-2,other
23297,73,22,200,372,4.0,2-2,other
23298,28,48,80,476,4.0,2-2,other
23299,72,48,80,836,2.0,2-5,other
23300,73,56,24,32,2.0,2-5,other
23301,74,61,92,48,2.0,2-5,other
23302,79,89,220,532,5.0,2-4,major
23303,77,90,368,284,5.0,2-4,major
23304,52,36,264,780,10.0,2-4,major
23305,50,52,864,1672,2.0,3-11A,minor
23306,62,68,968,340,2.0,3-11A,minor
23307,65,122,152,1364,9.0,2-3,minor
23308,69,75,268,864,9.0,3-7A,minor
23309,62,56,168,872,7.0,3-8A,major
23310,67,46,60,524,7.0,2-2,other
23311,65,54,116,36,7.0,2-2,other
23312,62,54,44,108,7.0,2-2,other
23313,65,89,172,108,7.0,2-2,other
23314,67,68,128,168,7.0,2-2,other
23315,65,68,776,160,7.0,2-2,other
23316,57,69,632,536,7.0,2-3,minor
23317,56,78,548,596,2.0,2-3,minor
23318,49,73,228,276,2.0,2-3,minor
23319,62,61,288,604,2.0,3-11A,minor
23320,49,57,636,1940,9.0,4-27B,major
23321,49,50,200,884,9.0,3-11B,major
23322,72,51,44,504,5.0,3-11B,major
23323,84,42,84,76,5.0,3-11B,major
23324,72,39,96,96,5.0,3-11B,major
23325,84,39,60,120,5.0,3-11B,major
23326,72,39,108,84,5.0,3-11B,major
23327,84,51,84,104,5.0,3-11B,major
23328,72,39,88,108,5.0,3-11B,major
23329,72,39,104,196,9.0,2-3,minor
23330,84,45,100,96,9.0,2-3,minor
23331,72,37,60,140,9.0,2-3,minor
23332,84,22,88,72,9.0,2-3,minor
23333,81,65,236,96,9.0,2-3,minor
23334,55,63,380,1488,7.0,3-11B,major
23335,47,48,72,272,7.0,3-11B,major
23336,57,39,604,340,2.0,1-1,other
23337,50,65,940,516,2.0,1-1,other
23338,64,57,96,416,2.0,2-5,other
23339,62,48,128,72,2.0,2-5,other
23340,61,57,68,100,2.0,2-5,other
23341,62,82,268,132,2.0,2-5,other
23342,64,85,192,220,2.0,2-5,other
23343,57,49,396,1108,5.0,3-12,augmented
23344,72,102,216,1356,9.0,2-3,minor
23345,71,48,28,2180,5.0,2-5,other
23346,60,33,84,132,7.0,2-5,other
23347,65,31,36,32,7.0,2-5,other
23348,57,26,92,88,4.0,2-5,other
23349,62,29,40,36,4.0,2-5,other
23350,55,31,80,36,4.0,2-5,other
23351,52,4,40,180,11.0,2-6,other
23352,40,78,252,36,11.0,2-6,other
23353,33,86,328,268,11.0,2-6,other
23354,72,49,32,4860,10.0,3-4A,major
23355,81,92,72,144,10.0,3-4A,major
23356,84,77,116,108,10.0,3-4A,major
23357,81,47,36,92,10.0,3-4A,major
23358,77,64,24,52,10.0,3-4A,major
23359,72,60,32,68,10.0,3-4A,major
23360,65,66,56,204,0.0,2-1,other
23361,65,71,68,280,10.0,2-4,major
23362,69,60,84,240,0.0,2-4,other
23363,65,50,36,80,0.0,2-4,other
23364,59,61,88,184,0.0,2-5,other
23365,65,75,152,28,0.0,2-5,other
23366,36,56,280,36,0.0,2-5,other
23367,53,61,24,156,0.0,2-5,other
23368,53,61,28,304,3.0,3-9,other
23369,62,36,308,400,8.0,2-6,other
23370,41,52,516,40,8.0,2-6,other
23371,57,65,220,36,8.0,2-6,other
23372,48,51,60,768,5.0,1-1,other
23373,48,50,96,904,5.0,3-11B,major
23374,69,56,96,636,5.0,3-11A,other
23375,45,71,288,1372,5.0,3-11B,major
23376,55,66,64,264,5.0,3-11B,major
23377,45,71,192,1312,9.0,4-18A,major
23378,45,65,344,296,9.0,4-18A,major
23379,64,38,292,292,1.0,3-10,other
23380,45,50,64,260,1.0,3-10,other
23381,39,57,196,240,1.0,3-10,other
23382,69,52,32,1468,2.0,2-5,other
23383,74,73,52,196,2.0,2-5,other
23384,76,83,76,124,2.0,2-5,other
23385,77,85,72,136,2.0,2-5,other
23386,79,85,92,140,2.0,2-5,other
23387,79,56,136,192,9.0,2-3,minor
23388,80,64,24,60,9.0,2-3,minor
23389,81,74,84,40,9.0,2-3,minor
23390,86,98,200,136,9.0,2-3,minor
23391,48,47,140,976,9.0,1-1,other
23392,69,46,148,860,7.0,2-4,major
23393,74,63,96,220,7.0,2-4,major
23394,77,81,116,320,4.0,2-3,minor
23395,79,82,128,168,4.0,2-3,minor
23396,81,81,120,176,4.0,2-3,minor
23397,84,96,212,220,4.0,2-3,minor
23398,81,73,164,296,10.0,2-1,other
23399,77,64,72,200,10.0,2-1,other
23400,74,61,92,228,10.0,2-1,other
23401,70,77,88,184,10.0,2-1,other
23402,57,46,520,172,10.0,2-1,other
23403,69,81,136,36,10.0,2-1,other
23404,72,71,116,192,10.0,2-1,other
23405,69,77,116,200,10.0,2-1,other
23406,58,52,176,668,9.0,3-7A,minor
23407,57,57,192,200,9.0,3-7A,minor
23408,57,61,144,232,9.0,3-7A,minor
23409,58,66,124,456,9.0,2-2,other
23410,59,64,156,204,9.0,2-2,other
23411,60,63,148,212,9.0,2-2,other
23412,52,78,212,508,2.0,2-5,other
23413,51,74,252,256,2.0,2-5,other
23414,45,71,96,552,2.0,4-27B,major
23415,77,36,84,1172,10.0,3-4B,other
23416,65,52,52,1620,10.0,4-22A,major
23417,74,50,272,352,1.0,2-3,minor
23418,77,59,104,244,1.0,2-3,minor
23419,79,60,84,276,1.0,2-3,minor
23420,48,43,276,856,5.0,3-11B,major
23421,62,34,764,324,5.0,3-11B,major
23422,53,63,392,248,5.0,3-11B,major
23423,52,32,56,440,5.0,3-11B,major
23424,51,60,108,64,5.0,3-11B,major
23425,45,46,48,368,2.0,4-15B,other
23426,38,57,344,276,2.0,4-15B,other
23427,33,64,228,556,2.0,4-15B,other
23428,32,60,256,268,2.0,4-15B,other
23429,62,72,228,844,1.0,2-3,other
23430,50,66,272,52,1.0,2-3,other
23431,62,56,108,252,7.0,3-7A,minor
23432,62,40,36,1076,3.0,4-18A,major
23433,61,59,104,32,3.0,4-18A,major
23434,64,50,512,524,9.0,4-12A,major
23435,48,59,140,548,9.0,4-12A,major
23436,84,66,56,340,5.0,3-3B,major
23437,86,102,268,128,5.0,3-3B,major
23438,57,62,196,444,5.0,3-4B,other
23439,72,59,252,280,5.0,3-4B,other
23440,72,54,152,372,5.0,3-4B,other
23441,57,41,360,180,5.0,2-5,other
23442,60,63,196,388,5.0,2-5,other
23443,62,49,52,284,5.0,2-5,other
23444,62,34,284,168,5.0,3-11B,major
23445,45,39,364,2452,9.0,5-31B,major
23446,67,49,128,408,9.0,5-31B,major
23447,75,85,92,712,1.0,3-10,minor
23448,76,81,144,144,1.0,3-10,minor
23449,77,72,100,120,1.0,3-10,minor
23450,79,117,100,132,1.0,3-10,minor
23451,69,64,80,404,2.0,3-11A,minor
23452,65,61,24,412,2.0,3-11A,minor
23453,68,58,132,256,7.0,2-5,other
23454,67,48,108,64,7.0,2-5,other
23455,65,63,68,112,7.0,2-5,other
23456,62,53,320,812,9.0,4-23,minor
23457,65,68,228,392,9.0,4-23,minor
23458,57,40,752,156,9.0,4-23,minor
23459,48,68,344,408,9.0,4-23,minor
23460,47,57,1256,440,1.0,3-10,other
23461,74,66,52,532,7.0,2-4,major
23462,79,61,92,240,1.0,2-6,other
23463,71,46,40,168,7.0,2-5,other
23464,64,37,40,424,11.0,2-3,minor
23465,47,24,32,128,7.0,3-3A,minor
23466,60,28,40,452,4.0,2-3,minor
23467,60,44,252,144,4.0,2-3,minor
23468,46,52,336,280,4.0,2-3,minor
23469,46,81,324,564,0.0,4-19B,other
23470,45,89,356,420,0.0,4-19B,other
23471,61,42,156,1516,9.0,3-5A,other
23472,54,60,316,556,2.0,3-8A,major
23473,66,41,216,336,0.0,3-11B,other
23474,60,43,56,1208,7.0,3-7A,minor
23475,58,48,96,44,7.0,3-7A,minor
23476,57,53,32,108,7.0,3-7A,minor
23477,58,46,64,64,7.0,3-7A,minor
23478,62,60,36,120,7.0,3-7A,minor
23479,66,54,72,96,7.0,3-7A,minor
23480,69,59,84,112,7.0,3-7A,minor
23481,66,69,76,72,7.0,3-7A,minor
23482,69,46,68,220,7.0,4-14A,minor
23483,70,63,48,80,7.0,4-14A,minor
23484,72,58,36,104,7.0,4-14A,minor
23485,73,55,32,64,7.0,4-14A,minor
23486,75,54,28,84,7.0,4-14A,minor
23487,76,56,32,72,7.0,4-14A,minor
23488,78,42,32,72,7.0,4-14A,minor
23489,79,59,28,72,7.0,4-14A,minor
23490,80,30,32,56,7.0,4-14A,minor
23491,36,42,268,84,10.0,2-1,other
23492,84,82,148,104,4.0,2-5,other
23493,72,61,72,184,4.0,2-5,other
23494,72,56,84,160,4.0,2-5,other
23495,72,49,68,180,4.0,2-5,other
23496,72,61,68,136,4.0,2-5,other
23497,72,68,64,128,4.0,2-5,other
23498,45,81,64,1504,9.0,3-8A,major
23499,82,37,40,1404,2.0,2-1,other
23500,89,111,108,1172,5.0,3-5B,other
23501,84,45,96,156,5.0,3-5B,other
23502,85,48,64,48,5.0,3-5B,other
23503,86,54,28,72,5.0,3-5B,other
23504,81,46,72,288,8.0,2-6,other
23505,77,60,112,136,4.0,3-5B,other
23506,74,37,40,276,4.0,3-5B,other
23507,77,79,200,132,4.0,3-5B,other
23508,74,56,56,264,4.0,3-5B,other
23509,79,58,80,300,4.0,3-5B,other
23510,77,68,96,108,4.0,3-5B,other
23511,74,58,60,140,4.0,3-5B,other
23512,77,84,164,124,4.0,3-5B,other
23513,79,82,112,248,4.0,3-5B,other
23514,48,68,712,460,4.0,3-5A,other
23515,64,12,96,728,1.0,4-27A,minor
23516,48,63,132,148,1.0,4-27A,minor
23517,74,107,156,152,1.0,4-27A,minor
23518,72,79,92,284,1.0,4-27A,minor
23519,41,45,144,108,1.0,4-27A,minor
23520,60,34,92,324,9.0,1-1,other
23521,65,51,192,144,9.0,1-1,other
23522,60,56,80,264,9.0,1-1,other
23523,48,42,108,28,9.0,1-1,other
23524,65,46,264,544,6.0,3-9,other
23525,57,31,120,148,6.0,3-9,other
23526,41,54,56,1408,5.0,3-11B,major
23527,40,48,288,544,5.0,3-11B,major
23528,55,43,344,28,5.0,3-11B,major
23529,67,54,44,292,5.0,3-11B,major
23530,69,57,44,132,5.0,3-11B,major
23531,70,63,76,264,5.0,3-11B,major
23532,84,72,68,452,0.0,2-4,major
23533,73,58,40,160,0.0,2-4,major
23534,73,54,88,248,0.0,2-4,major
23535,55,34,240,192,5.0,3-4A,other
23536,72,63,68,208,5.0,3-4A,other
23537,70,60,64,152,5.0,3-4A,other
23538,70,68,80,228,5.0,3-4A,other
23539,70,58,96,244,9.0,2-2,other
23540,69,49,84,64,9.0,2-2,other
23541,67,52,76,88,9.0,2-2,other
23542,65,62,104,124,9.0,2-2,other
23543,64,47,212,108,9.0,2-2,other
23544,67,72,108,240,9.0,2-2,other
23545,57,61,72,432,2.0,3-11A,minor
23546,67,43,80,372,2.0,3-11A,minor
23547,74,117,84,496,2.0,2-5,other
23548,76,122,128,248,2.0,2-5,other
23549,48,44,1088,320,5.0,2-4,major
23550,65,56,80,276,5.0,2-4,major
23551,74,78,116,248,5.0,2-4,major
23552,69,50,72,28,5.0,2-4,major
23553,65,45,200,568,2.0,2-5,other
23554,47,68,1232,584,0.0,2-5,other
23555,67,41,68,1416,7.0,3-11B,major
23556,74,37,36,892,0.0,5-26B,other
23557,46,44,160,812,0.0,5-26B,other
23558,68,59,64,1252,5.0,3-11B,major
23559,69,56,68,72,5.0,3-11B,major
23560,72,86,92,148,5.0,3-11B,major
23561,74,99,100,196,5.0,3-11B,major
23562,72,54,104,172,5.0,3-11B,major
23563,77,115,104,308,5.0,3-5B,other
23564,77,81,116,192,5.0,3-5B,other
23565,74,75,80,176,5.0,3-5B,other
23566,74,62,68,152,5.0,3-5B,other
23567,69,44,56,280,8.0,2-6,other
23568,62,58,84,148,8.0,2-6,other
23569,65,68,832,192,8.0,2-6,other
23570,62,57,72,868,7.0,2-2,other
23571,71,74,160,572,10.0,2-5,other
23572,70,84,132,236,10.0,2-5,other
23573,68,58,128,172,10.0,2-5,other
23574,63,56,88,268,5.0,3-4B,other
23575,60,52,52,112,5.0,3-4B,other
23576,59,50,92,108,5.0,3-4B,other
23577,65,45,92,48,5.0,3-4B,other
23578,62,43,40,84,5.0,3-4B,other
23579,53,37,36,120,5.0,3-4B,other
23580,53,55,32,228,10.0,2-4,major
23581,43,37,68,68,10.0,2-4,major
23582,57,48,88,144,0.0,2-4,other
23583,53,55,88,128,0.0,2-4,other
23584,41,50,72,52,0.0,2-4,other
23585,51,52,136,92,0.0,2-4,other
23586,48,57,36,124,0.0,2-4,other
23587,52,60,84,224,6.0,2-3,other
23588,53,75,96,124,6.0,2-3,other
23589,29,49,332,40,6.0,2-3,other
23590,53,75,128,116,6.0,2-3,other
23591,53,58,148,492,6.0,2-3,other
23592,65,72,72,536,5.0,2-5,other
23593,69,78,84,164,5.0,2-5,other
23594,70,80,108,144,5.0,2-5,other
23595,71,68,76,116,5.0,2-5,other
23596,72,85,80,128,5.0,2-5,other
23597,39,66,224,160,6.0,2-6,other
23598,46,71,172,192,6.0,2-6,other
23599,55,65,148,192,6.0,2-6,other
23600,58,63,352,204,6.0,2-6,other
23601,72,63,112,552,5.0,4-19B,other
23602,48,51,840,1112,2.0,5-35,minor
23603,41,49,72,812,2.0,4-26,minor
23604,69,111,120,1848,9.0,5-31B,major
23605,76,92,368,848,2.0,3-11A,minor
23606,50,38,124,888,5.0,2-4,major
23607,69,56,68,584,9.0,3-7A,minor
23608,67,52,96,44,9.0,3-7A,minor
23609,65,49,80,84,9.0,3-7A,minor
23610,62,56,304,116,9.0,3-7A,minor
23611,48,54,140,896,2.0,2-5,other
23612,47,61,1056,328,2.0,2-5,other
23613,69,56,68,1996,7.0,2-1,other
23614,57,55,456,472,2.0,2-2,other
23615,77,75,80,212,2.0,2-2,other
23616,81,87,80,188,2.0,2-2,other
23617,84,98,104,196,2.0,2-2,other
23618,91,122,148,488,2.0,2-5,other
23619,89,117,128,248,2.0,2-5,other
23620,85,92,132,184,2.0,2-5,other
23621,86,83,132,340,2.0,3-9,other
23622,88,40,44,28,2.0,3-9,other
23623,81,68,72,144,2.0,3-9,other
23624,81,69,92,328,7.0,2-5,other
23625,79,63,104,72,7.0,2-5,other
23626,77,65,80,104,7.0,2-5,other
23627,76,63,144,132,9.0,2-4,major
23628,79,81,120,172,9.0,2-4,major
23629,77,83,88,212,9.0,2-4,major
23630,76,89,92,236,9.0,2-4,major
23631,69,57,64,376,9.0,2-4,major
23632,64,56,64,168,9.0,2-4,major
23633,61,63,68,132,9.0,2-4,major
23634,49,48,144,132,9.0,2-4,major
23635,57,50,28,56,9.0,2-4,major
23636,48,54,1120,172,9.0,2-4,major
23637,57,42,228,28,9.0,2-4,major
23638,57,60,40,524,9.0,2-4,major
23639,64,66,228,572,2.0,2-5,other
23640,59,45,160,1140,7.0,3-11B,major
23641,55,66,76,280,7.0,3-11B,major
23642,69,36,40,544,2.0,2-3,minor
23643,49,66,256,2340,2.0,4-26,minor
23644,49,51,192,816,9.0,3-11B,major
23645,60,59,36,876,5.0,3-11B,major
23646,72,80,136,516,11.0,2-2,other
23647,70,78,148,192,11.0,2-2,other
23648,71,64,148,168,11.0,2-2,other
23649,72,39,108,200,4.0,3-8A,major
23650,75,72,120,220,4.0,3-8A,major
23651,76,73,68,152,4.0,3-8A,major
23652,77,72,60,124,4.0,3-8A,major
23653,80,77,64,120,4.0,3-8A,major
23654,83,71,80,136,4.0,3-8A,major
23655,86,87,140,172,7.0,3-5B,other
23656,83,61,40,168,7.0,3-5B,other
23657,84,70,116,116,7.0,3-5B,other
23658,86,61,64,108,7.0,3-5B,other
23659,87,60,24,80,7.0,3-5B,other
23660,88,57,84,104,7.0,3-5B,other
23661,93,70,68,108,7.0,3-5B,other
23662,93,80,124,336,9.0,4-26,minor
23663,85,66,108,200,9.0,4-26,minor
23664,85,68,88,216,9.0,4-26,minor
23665,38,63,272,1160,0.0,2-5,other
23666,87,74,76,2936,3.0,5-30B,other
23667,41,68,72,2952,2.0,4-23,minor
23668,72,122,144,616,9.0,1-1,other
23669,74,122,184,276,9.0,1-1,other
23670,41,48,492,588,2.0,2-2,other
23671,49,46,240,308,10.0,3-11B,major
23672,41,56,92,808,5.0,3-11B,major
23673,62,69,96,616,4.0,4-27A,diminished
23674,67,81,192,244,4.0,4-27A,diminished
23675,52,37,416,308,10.0,2-4,major
23676,67,63,132,240,10.0,2-4,major
23677,69,115,144,260,10.0,2-4,major
23678,55,48,272,292,10.0,3-11A,other
23679,72,64,88,244,10.0,3-11A,other
23680,70,37,40,32,10.0,3-11A,other
23681,61,63,192,224,10.0,3-11A,other
23682,55,72,180,528,9.0,3-8B,other
23683,57,86,228,264,9.0,3-8B,other
23684,26,75,504,268,9.0,3-8B,other
23685,76,70,96,1512,2.0,3-11A,minor
23686,76,67,196,848,5.0,4-19B,augmented
23687,65,52,32,848,2.0,4-26,minor
23688,46,38,52,3720,8.0,4-22B,other
23689,45,43,824,156,0.0,3-11B,major
23690,50,48,972,1692,6.0,2-6,other
23691,60,55,76,840,6.0,2-2,other
23692,53,29,628,944,7.0,4-26,minor
23693,62,52,76,1284,0.0,2-1,other
23694,65,122,180,184,0.0,2-1,other
23695,64,81,92,872,10.0,4-22A,major
23696,70,45,36,388,0.0,4-24,augmented
23697,70,76,116,560,0.0,4-24,augmented
23698,45,40,272,384,5.0,4-24,augmented
23699,81,120,152,1196,5.0,4-16A,other
23700,82,98,212,276,5.0,4-16A,other
23701,55,61,72,572,5.0,4-19B,other
23702,51,57,216,300,5.0,4-19B,other
23703,46,49,276,272,5.0,4-19B,other
23704,69,43,28,60,5.0,3-4A,other
23705,39,44,44,236,5.0,3-4A,other
23706,62,76,296,920,2.0,2-4,major
23707,62,57,176,864,4.0,2-3,minor
23708,53,33,36,916,8.0,2-3,other
23709,57,72,520,556,2.0,2-3,minor
23710,42,77,444,268,2.0,2-3,minor
23711,30,66,152,280,2.0,2-3,minor
23712,31,76,140,916,7.0,1-1,other
23713,74,36,104,1976,11.0,3-5B,other
23714,84,70,412,1940,3.0,1-1,other
23715,60,50,404,28,3.0,1-1,other
23716,48,48,88,368,3.0,1-1,other
23717,80,62,200,1096,10.0,1-1,other
23718,56,43,204,28,10.0,1-1,other
23719,41,3,160,908,5.0,1-1,other
23720,45,27,544,836,9.0,3-5B,other
23721,33,41,248,264,9.0,3-5B,other
23722,53,30,228,616,10.0,2-4,major
23723,57,17,336,1836,2.0,3-7A,minor
23724,36,54,76,528,2.0,3-7A,minor
23725,61,36,452,628,0.0,5-26B,other
23726,63,46,288,672,0.0,5-26B,other
23727,29,35,644,848,0.0,5-26B,other
23728,51,43,420,120,0.0,5-26B,other
23729,57,43,348,116,7.0,2-2,other
23730,62,60,328,40,7.0,2-2,other
23731,75,45,40,1300,7.0,2-2,other
23732,74,52,68,72,7.0,2-2,other
23733,79,43,92,72,7.0,2-2,other
23734,86,61,68,88,7.0,2-2,other
23735,87,65,60,72,7.0,2-2,other
23736,86,40,2112,72,7.0,2-2,other
23737,91,57,2064,72,7.0,2-2,other
23738,59,50,1250,0,7.0,3-9,other
23739,74,58,70,3710,7.0,3-9,other
23740,54,43,2810,740,2.0,2-5,other
23741,62,2,250,1170,2.0,2-5,other
23742,90,47,930,780,2.0,2-5,other
23743,54,43,710,1300,2.0,2-5,other
23744,79,81,950,1840,2.0,2-5,other
23745,74,80,850,70,2.0,2-5,other
23746,62,51,860,50,2.0,2-5,other
23747,59,56,770,900,4.0,2-3,minor
23748,71,62,2950,910,4.0,2-3,minor
23749,67,47,170,2810,7.0,3-11B,major
23750,66,49,2660,900,7.0,3-11B,major
23751,50,31,1240,110,2.0,2-5,other
23752,57,80,360,2180,2.0,2-5,other
23753,62,85,930,580,2.0,2-5,other
23754,66,81,490,500,2.0,2-5,other
23755,55,41,880,660,0.0,2-4,major
23756,45,40,1230,40,0.0,2-4,major
23757,52,41,280,900,0.0,2-4,major
23758,74,63,760,2380,2.0,2-5,other
23759,59,31,510,1480,7.0,2-4,major
23760,86,65,670,1270,7.0,2-4,major
23761,78,52,790,50,7.0,2-4,major
23762,52,43,1430,1420,2.0,2-4,major
23763,79,43,1490,1500,2.0,2-4,major
23764,72,29,1450,100,7.0,2-5,other
23765,45,55,250,2660,7.0,2-5,other
23766,58,45,630,1380,7.0,6-7,major
23767,61,39,730,3400,3.0,3-11B,other
23768,27,48,230,3740,3.0,3-11B,other
23769,87,42,1340,1930,3.0,3-11B,other
23770,38,28,400,2850,2.0,1-1,other
23771,98,46,480,2340,2.0,1-1,other
23772,50,58,740,8600,11.0,2-5,other
23773,45,52,100,3820,2.0,2-4,major
23774,71,45,420,2820,1.0,5-24B,other
23775,55,39,370,40,1.0,5-24B,other
23776,50,52,1800,4100,7.0,4-25,major
23777,39,54,130,3040,0.0,3-11B,major
23778,46,46,1140,150,0.0,3-11B,major
23779,55,58,740,210,5.0,3-12,augmented
23780,54,50,490,3280,3.0,2-5,other
23781,54,48,410,3220,6.0,3-8B,other
23782,72,33,680,1800,0.0,2-4,other
23783,50,20,2060,1550,0.0,2-4,other
23784,78,68,930,2350,11.0,3-7A,minor
23785,69,45,400,60,11.0,3-7A,minor
23786,36,48,600,980,11.0,3-7A,minor
23787,54,39,210,2810,4.0,2-5,other
23788,62,41,1020,2150,2.0,3-11A,minor
23789,57,48,1000,60,2.0,3-11A,minor
23790,76,85,390,420,2.0,3-11A,minor
23791,77,111,320,520,2.0,3-11A,minor
23792,79,85,280,1180,8.0,2-6,other
23793,77,75,220,480,8.0,2-6,other
23794,56,40,1070,680,4.0,2-2,other
23795,52,53,210,950,4.0,2-2,other
23796,45,52,940,660,4.0,2-2,other
23797,47,19,300,640,4.0,2-2,other
23798,59,37,350,460,0.0,4-20,major
23799,57,46,850,620,9.0,3-11A,minor
23800,45,46,2690,960,9.0,3-11A,minor
23801,69,60,620,2340,0.0,3-12,augmented
23802,65,54,720,3370,1.0,2-3,other
23803,58,39,520,30,1.0,2-3,other
23804,50,41,2000,1690,9.0,3-7B,other
23805,57,36,170,1680,6.0,3-10,other
23806,63,25,150,980,6.0,3-10,other
23807,57,36,2480,750,6.0,3-10,other
23808,49,63,650,1030,11.0,2-3,minor
23809,50,48,1150,650,11.0,2-3,minor
23810,43,52,2510,1010,11.0,2-3,minor
23811,57,61,1210,680,11.0,2-3,minor
23812,49,74,600,1010,11.0,2-3,minor
23813,50,58,1110,630,11.0,2-3,minor
23814,43,55,950,1040,11.0,3-7A,minor
23815,76,75,750,2200,1.0,3-10,other
23816,77,56,740,30,1.0,3-10,other
23817,73,54,680,1620,1.0,4-28,diminished
23818,45,44,2460,3380,7.0,2-3,minor
23819,74,63,1260,1110,7.0,2-3,minor
23820,52,39,1090,70,0.0,3-4B,other
23821,43,46,2510,2280,0.0,3-4B,other
23822,57,33,1270,1160,10.0,4-22A,major
23823,42,46,2010,2440,10.0,4-22A,major
23824,52,35,1410,1110,9.0,3-9,other
23825,47,39,2960,2260,9.0,3-9,other
23826,51,51,700,2970,3.0,3-11B,other
23827,67,60,810,710,3.0,3-11B,other
23828,62,42,690,1680,4.0,3-11A,minor
23829,52,54,250,1480,6.0,2-3,other
23830,56,64,100,1010,2.0,2-4,major
23831,46,47,720,750,8.0,2-6,other
23832,61,41,100,4600,7.0,2-3,minor
23833,67,57,620,140,1.0,3-10,minor
23834,64,48,680,30,1.0,3-10,minor
23835,76,57,420,1560,1.0,3-10,other
23836,54,39,180,1400,1.0,3-10,other
23837,56,36,130,80,1.0,3-10,other
23838,57,50,920,3240,0.0,3-11B,major
23839,52,46,1750,30,0.0,3-11B,major
23840,38,49,3010,3100,9.0,3-11A,minor
23841,54,50,390,3250,9.0,3-11A,minor
23842,54,55,1760,1100,0.0,2-4,other
23843,41,49,240,1270,9.0,2-3,minor
23844,42,54,380,460,9.0,2-3,minor
23845,54,56,390,500,9.0,2-3,minor
23846,59,44,310,100,7.0,3-9,other
23847,62,72,1730,1010,11.0,3-7B,other
23848,49,46,340,3410,11.0,3-7A,minor
23849,43,49,80,1570,11.0,2-3,minor
23850,45,63,190,630,11.0,2-3,minor
23851,55,48,1210,3430,1.0,3-8A,other
23852,61,56,790,1580,1.0,3-8A,other
23853,64,54,740,40,1.0,3-8A,other
23854,55,41,740,30,1.0,3-8A,other
23855,45,40,80,890,1.0,3-8A,other
23856,57,43,1100,700,0.0,3-6,major
23857,62,72,2080,970,4.0,4-23,minor
23858,50,58,250,1660,4.0,4-23,minor
23859,51,65,2120,670,5.0,4-19B,other
23860,69,66,930,1090,5.0,3-4A,other
23861,51,50,550,1260,10.0,3-11A,other
23862,60,61,1350,860,10.0,3-11A,other
23863,67,49,1000,70,2.0,3-9,other
23864,38,75,2130,1000,2.0,3-9,other
23865,46,33,240,1850,2.0,3-9,other
23866,45,50,270,290,2.0,3-9,other
23867,44,61,1970,270,10.0,3-8B,other
23868,54,47,950,1710,10.0,3-8B,other
23869,58,50,1280,30,10.0,3-8B,other
23870,60,48,1280,50,10.0,3-8B,other
23871,44,41,480,1060,10.0,3-8B,other
23872,43,42,1830,660,11.0,2-3,minor
23873,54,54,180,1560,11.0,2-3,minor
23874,76,68,440,5990,11.0,2-6,other
23875,52,65,70,1600,4.0,2-2,other
23876,73,29,200,1480,8.0,4-28,diminished
23877,52,45,200,1730,4.0,3-8A,major
23878,68,63,1510,1640,8.0,4-28,diminished
23879,57,50,2160,2190,0.0,3-11B,major
23880,45,52,240,1590,0.0,3-11B,major
23881,74,111,310,990,0.0,3-11B,major
23882,41,77,180,3090,7.0,2-2,other
23883,79,79,1090,930,7.0,2-2,other
23884,57,49,300,1520,9.0,4-27A,diminished
23885,50,32,1740,1520,10.0,1-1,other
23886,71,24,540,90,7.0,3-4A,major
23887,82,41,90,30,7.0,3-4A,major
23888,69,86,800,1420,7.0,3-4A,major
23889,54,56,790,60,11.0,3-11A,minor
23890,50,20,130,1360,11.0,3-11A,minor
23891,66,58,1530,70,11.0,3-11A,minor
23892,52,56,3200,80,11.0,3-7A,minor
23893,59,50,740,4790,1.0,2-3,minor
23894,64,48,1440,30,1.0,2-3,minor
23895,58,57,3190,1560,1.0,2-3,minor
23896,49,52,1580,1110,6.0,2-2,other
23897,42,47,510,1550,6.0,2-2,other
23898,47,34,1450,720,6.0,2-2,other
23899,48,35,450,2770,6.0,3-10,minor
23900,41,39,2340,580,6.0,3-10,minor
23901,63,52,1700,980,6.0,3-10,minor
23902,71,48,1570,70,7.0,3-9,other
23903,40,46,2310,2210,7.0,3-9,other
23904,66,71,550,1770,9.0,2-5,other
23905,66,71,280,1010,9.0,2-5,other
23906,40,57,3020,40,9.0,2-5,other
23907,65,83,960,1630,9.0,2-5,other
23908,52,58,1240,70,8.0,3-10,diminished
23909,47,34,290,1160,4.0,4-27B,major
23910,44,64,470,400,4.0,4-27B,major
23911,45,70,1510,550,0.0,3-11B,major
23912,64,38,540,1510,0.0,3-11B,major
23913,44,65,230,490,0.0,2-5,other
23914,43,69,250,320,0.0,2-5,other
23915,42,48,100,250,0.0,2-5,other
23916,41,43,270,220,0.0,2-5,other
23917,40,63,220,180,0.0,2-5,other
23918,69,72,2210,240,5.0,3-6,other
23919,65,57,770,1680,1.0,2-2,other
23920,39,60,480,1030,1.0,2-2,other
23921,38,55,4000,650,1.0,2-2,other
23922,60,59,1500,990,1.0,2-2,other
23923,69,48,2000,2410,6.0,3-10,other
23924,50,36,1920,40,6.0,3-10,other
23925,38,50,2940,930,6.0,3-10,other
23926,50,44,410,1870,6.0,3-10,other
23927,67,59,3230,640,6.0,3-10,other
23928,50,54,370,960,4.0,3-7B,other
23929,50,45,430,620,4.0,3-7B,other
23930,50,50,210,990,4.0,3-7B,other
23931,65,1,160,460,4.0,3-7B,other
23932,62,48,370,1080,4.0,3-7B,other
23933,74,59,1400,710,4.0,3-7B,other
23934,62,39,850,30,4.0,3-7B,other
23935,50,49,1360,920,4.0,3-7B,other
23936,50,55,340,1670,0.0,2-3,minor
23937,50,47,460,690,0.0,2-3,minor
23938,50,48,1800,1030,0.0,3-11B,other
23939,81,122,500,3280,0.0,3-11B,other
23940,71,42,360,1690,11.0,2-5,other
23941,66,61,150,540,11.0,2-5,other
23942,62,22,100,120,11.0,2-5,other
23943,66,74,440,890,11.0,2-5,other
23944,54,50,120,480,11.0,2-5,other
23945,56,60,130,50,11.0,2-5,other
23946,69,82,750,100,11.0,2-5,other
23947,56,50,550,490,11.0,4-26,minor
23948,55,73,600,570,11.0,4-26,minor
23949,45,68,2180,2290,11.0,2-2,other
23950,55,63,1450,980,1.0,4-24,other
23951,67,36,1540,2550,1.0,2-2,other
23952,59,78,690,1030,1.0,2-2,other
23953,69,61,1250,670,1.0,2-2,other
23954,57,51,480,60,1.0,2-2,other
23955,61,58,340,930,1.0,2-2,other
23956,67,58,210,50,1.0,2-2,other
23957,67,63,490,1620,9.0,3-7B,other
23958,39,49,560,690,5.0,3-12,augmented
23959,55,65,560,1620,5.0,3-12,augmented
23960,60,57,80,1800,5.0,3-4A,other
23961,66,45,940,3060,9.0,3-11A,minor
23962,50,66,1020,950,9.0,3-11A,minor
23963,63,36,370,1300,0.0,2-2,other
23964,54,75,1130,920,0.0,2-2,other
23965,43,62,320,1720,11.0,3-11A,minor
23966,54,49,460,30,11.0,3-11A,minor
23967,66,66,140,1520,2.0,2-5,other
23968,78,66,350,640,11.0,3-7A,minor
23969,69,25,190,70,11.0,3-7A,minor
23970,44,31,120,70,11.0,3-7A,minor
23971,78,36,150,1040,10.0,2-4,major
23972,78,66,190,430,10.0,2-4,major
23973,70,49,230,40,10.0,2-4,major
23974,47,41,280,2780,2.0,2-5,other
23975,76,68,250,920,2.0,2-5,other
23976,64,48,1410,640,5.0,3-4A,major
23977,71,46,320,30,5.0,3-4A,major
23978,76,57,280,480,5.0,3-4A,major
23979,74,66,270,510,11.0,2-2,other
23980,76,66,340,530,11.0,2-2,other
23981,62,22,740,120,0.0,3-4A,other
23982,76,57,440,430,0.0,3-4A,other
23983,72,36,160,30,0.0,3-4A,other
23984,62,33,300,1150,8.0,2-3,minor
23985,45,36,320,1610,0.0,2-4,major
23986,57,28,360,70,0.0,2-4,major
23987,74,87,390,890,0.0,2-4,major
23988,74,98,350,730,0.0,2-4,major
23989,76,102,240,900,0.0,2-4,major
23990,60,52,1630,5100,9.0,2-2,other
23991,57,52,120,1130,9.0,2-2,other
23992,50,41,2360,560,9.0,2-2,other
23993,69,74,310,2750,6.0,3-2A,minor
23994,70,87,460,650,6.0,3-2A,minor
23995,54,56,780,1120,7.0,4-20,major
23996,76,122,200,850,7.0,4-20,major
23997,50,53,3980,30,7.0,4-20,major
23998,73,92,670,2410,7.0,4-20,major
23999,54,52,980,30,7.0,4-20,major
24000,74,111,670,840,7.0,4-20,major
24001,43,66,290,750,7.0,4-20,major
24002,55,51,340,2290,1.0,3-10,minor
24003,73,52,610,1470,7.0,2-3,minor
24004,64,37,740,70,7.0,2-3,minor
24005,52,44,310,4070,7.0,3-6,major
24006,67,36,430,670,0.0,3-4A,major
24007,74,56,200,1580,4.0,4-22B,minor
24008,67,46,190,40,4.0,4-22B,minor
24009,54,24,110,940,8.0,2-2,other
24010,53,46,530,630,7.0,4-23,minor
24011,42,42,2420,1040,9.0,3-9,other
24012,66,39,100,50,9.0,3-9,other
24013,52,72,1000,1550,9.0,3-9,other
24014,57,65,460,690,11.0,1-1,other
24015,47,72,2610,960,11.0,1-1,other
24016,57,68,730,680,5.0,3-11B,major
24017,40,50,500,3260,9.0,2-6,other
24018,66,89,370,1090,7.0,2-5,other
24019,62,41,640,500,7.0,2-5,other
24020,71,56,70,590,4.0,2-3,minor
24021,78,89,190,470,4.0,2-3,minor
24022,81,72,270,1130,11.0,4-26,minor
24023,67,57,390,560,7.0,3-11B,major
24024,79,62,320,500,7.0,3-11B,major
24025,46,58,780,520,11.0,2-3,minor
24026,78,75,310,30,11.0,2-3,minor
24027,78,59,240,480,11.0,2-3,minor
24028,76,57,320,1050,9.0,3-7B,other
24029,74,64,180,550,9.0,3-7B,other
24030,73,62,970,610,9.0,3-7B,other
24031,65,26,280,80,1.0,3-8A,other
24032,45,52,670,2580,1.0,3-10,diminished
24033,34,39,110,1670,1.0,3-10,diminished
24034,60,60,450,1640,9.0,3-7B,other
24035,64,27,690,660,9.0,3-7B,other
24036,64,17,390,930,9.0,3-7A,minor
24037,45,45,230,70,9.0,3-7A,minor
24038,65,1,310,4740,0.0,3-11B,major
24039,37,49,690,620,0.0,3-11B,major
24040,64,52,440,1650,1.0,2-3,other
24041,86,71,490,1730,0.0,3-9,other
24042,50,68,2920,2730,11.0,2-3,minor
24043,59,46,1030,2360,2.0,2-5,other
24044,50,49,690,1030,2.0,2-5,other
24045,57,48,530,610,2.0,2-5,other
24046,50,52,380,1010,11.0,2-3,minor
24047,45,54,2260,590,11.0,2-3,minor
24048,66,41,1570,1060,7.0,2-4,major
24049,45,43,1460,1650,7.0,2-4,major
24050,45,78,1300,1660,1.0,2-6,other
24051,45,63,570,1690,1.0,3-8A,other
24052,38,72,1000,1620,0.0,3-6,major
24053,39,39,390,2420,10.0,2-1,other
24054,50,49,600,3230,2.0,2-4,major
24055,38,36,550,1680,2.0,1-1,other
24056,66,42,730,3380,0.0,4-27B,other
24057,49,82,690,2670,7.0,3-4B,other
24058,43,56,800,1700,11.0,3-7A,minor
24059,36,65,1740,590,11.0,3-7A,minor
24060,62,80,820,80,6.0,4-15B,minor
24061,67,78,670,2100,10.0,5-30B,augmented
24062,66,46,280,30,10.0,5-30B,augmented
24063,28,54,220,4130,2.0,2-5,other
24064,71,57,1360,1220,4.0,2-4,major
24065,45,42,5850,2280,8.0,2-6,other
24066,69,26,1040,4420,4.0,2-5,other
24067,67,68,1670,3180,0.0,4-26,minor
24068,41,41,1780,2160,3.0,2-1,other
24069,61,73,460,2030,3.0,2-1,other
24070,60,80,490,570,3.0,2-1,other
24071,69,98,520,1610,2.0,2-4,major
24072,54,42,610,710,11.0,3-11A,minor
24073,43,55,3090,990,11.0,3-11A,minor
24074,59,56,660,630,2.0,2-4,major
24075,54,64,1300,930,2.0,2-4,major
24076,51,55,310,1200,11.0,2-3,minor
24077,50,66,530,480,11.0,2-3,minor
24078,66,63,890,670,1.0,3-7A,minor
24079,49,50,590,2520,1.0,4-23,minor
24080,42,55,1900,660,1.0,4-23,minor
24081,42,49,140,2710,6.0,2-2,other
24082,47,57,1630,660,6.0,2-2,other
24083,86,81,900,4890,11.0,2-2,other
24084,83,75,860,50,11.0,2-2,other
24085,62,46,640,80,7.0,2-5,other
24086,83,77,580,2670,9.0,2-6,other
24087,62,41,920,80,4.0,3-8A,major
24088,81,81,370,860,4.0,3-8A,major
24089,56,50,1340,40,4.0,3-8A,major
24090,80,69,370,920,4.0,3-8A,major
24091,56,35,690,1610,8.0,4-13B,other
24092,60,53,890,1720,0.0,2-4,major
24093,55,39,880,30,0.0,2-4,major
24094,45,41,1840,30,0.0,2-4,major
24095,52,59,1770,850,0.0,2-4,major
24096,55,39,270,900,0.0,2-4,major
24097,45,56,220,800,0.0,2-4,major
24098,26,45,990,12050,3.0,2-5,other
24099,38,35,1070,40,3.0,2-5,other
24100,63,55,1290,8920,0.0,3-7B,other
24101,67,41,290,1690,0.0,3-7A,minor
24102,62,55,740,860,7.0,3-6,major
24103,67,49,420,980,7.0,3-6,major
24104,60,57,400,6460,9.0,2-2,other
24105,60,56,340,1790,9.0,2-2,other
24106,67,50,910,2820,0.0,3-4A,other
24107,44,42,2460,80,0.0,2-5,other
24108,66,44,880,2540,0.0,2-5,other
24109,43,40,730,90,11.0,3-7A,minor
24110,90,59,330,2100,11.0,3-7A,minor
24111,97,60,410,1450,6.0,1-1,other
24112,73,50,1200,60,6.0,1-1,other
24113,85,21,130,50,6.0,1-1,other
24114,105,54,2890,1330,6.0,1-1,other
24115,93,43,2810,60,6.0,1-1,other
24116,60,29,119,0,6.0,3-5A,other
24117,70,79,195,1079,0.0,5-23A,minor
24118,60,69,209,2662,8.0,5-13A,other
24119,45,43,272,2488,9.0,4-26,minor
24120,59,47,94,1627,6.0,4-27A,diminished
24121,57,44,486,323,11.0,4-22B,minor
24122,91,43,41,2014,0.0,4-20,major
24123,66,70,111,1260,6.0,3-8B,other
24124,69,76,70,320,6.0,3-8B,other
24125,71,88,128,169,6.0,3-8B,other
24126,59,53,870,41,6.0,3-8B,other
24127,62,31,509,37,6.0,3-8B,other
24128,74,99,277,106,6.0,3-8B,other
24129,74,92,647,332,6.0,3-8B,other
24130,62,45,195,159,6.0,3-8B,other
24131,62,50,107,301,6.0,3-8B,other
24132,59,33,670,106,6.0,3-8B,other
24133,66,48,694,26,6.0,3-8B,other
24134,62,43,423,970,3.0,3-11B,major
24135,58,50,97,838,3.0,3-11B,major
24136,61,73,79,50,3.0,3-11B,major
24137,61,36,102,756,3.0,4-20,major
24138,60,47,56,109,3.0,4-20,major
24139,58,54,81,101,3.0,4-20,major
24140,62,57,344,171,2.0,4-18A,major
24141,69,39,715,433,6.0,3-10,other
24142,72,58,29,1210,3.0,3-9,other
24143,65,56,35,1602,0.0,4-26,other
24144,66,44,79,509,1.0,3-5B,other
24145,92,68,137,1495,8.0,3-8B,other
24146,90,14,76,112,8.0,3-8B,other
24147,70,56,226,1378,10.0,4-16A,other
24148,70,64,193,377,10.0,4-16A,other
24149,72,57,74,775,4.0,4-9,other
24150,73,67,229,140,4.0,4-9,other
24151,60,46,113,1463,3.0,2-5,other
24152,58,34,107,345,3.0,2-5,other
24153,68,36,48,833,0.0,3-11B,other
24154,46,58,1236,740,5.0,2-5,other
24155,55,47,683,360,7.0,4-18A,major
24156,85,55,74,3169,8.0,2-2,other
24157,91,85,105,1967,3.0,3-5B,other
24158,88,83,87,150,3.0,3-5B,other
24159,89,84,835,156,0.0,4-20,other
24160,87,79,112,916,0.0,4-20,other
24161,62,28,57,54,0.0,4-20,other
24162,84,65,78,107,0.0,4-20,other
24163,60,39,1586,811,7.0,3-7B,other
24164,82,75,122,1135,7.0,3-7B,other
24165,79,69,54,127,7.0,3-7B,other
24166,74,68,43,157,7.0,3-7B,other
24167,74,52,56,332,7.0,3-7B,other
24168,74,47,45,174,9.0,3-11A,minor
24169,74,85,64,288,9.0,3-11A,minor
24170,74,72,34,499,9.0,3-11A,minor
24171,76,65,137,285,2.0,4-21,major
24172,74,55,132,116,2.0,4-21,major
24173,74,76,100,289,0.0,2-1,other
24174,76,61,96,140,0.0,2-1,other
24175,74,47,106,116,0.0,2-1,other
24176,62,30,716,173,1.0,2-2,other
24177,74,70,189,69,1.0,2-2,other
24178,81,100,2156,275,1.0,2-2,other
24179,76,94,104,2360,0.0,4-20,major
24180,76,62,122,274,2.0,3-6,major
24181,74,49,123,111,2.0,3-6,major
24182,73,54,84,121,2.0,3-6,major
24183,74,79,115,164,2.0,3-6,major
24184,76,52,102,124,2.0,3-6,major
24185,74,42,109,119,2.0,3-6,major
24186,73,46,76,118,2.0,3-6,major
24187,59,45,663,58,2.0,3-6,major
24188,62,37,642,36,2.0,3-6,major
24189,74,65,168,51,2.0,3-6,major
24190,78,36,31,170,2.0,3-6,major
24191,83,95,1209,75,2.0,3-6,major
24192,67,62,56,3260,4.0,3-3A,major
24193,67,59,133,151,4.0,3-3A,major
24194,61,50,61,639,3.0,2-1,other
24195,60,66,92,78,3.0,2-1,other
24196,59,66,292,110,3.0,2-1,other
24197,62,57,194,326,3.0,2-1,other
24198,59,68,201,240,3.0,2-1,other
24199,60,57,207,263,3.0,2-1,other
24200,84,101,104,1680,0.0,5-20B,other
24201,82,78,75,187,0.0,5-20B,other
24202,81,73,127,156,0.0,5-20B,other
24203,80,51,115,159,0.0,5-20B,other
24204,79,52,146,167,7.0,4-27A,minor
24205,84,91,109,219,7.0,4-27A,minor
24206,72,64,110,299,7.0,4-27A,minor
24207,79,85,570,322,7.0,4-27A,minor
24208,67,60,251,431,3.0,2-1,other
24209,56,47,76,508,3.0,2-1,other
24210,58,25,109,956,0.0,3-11B,other
24211,65,35,38,150,0.0,3-11B,other
24212,68,50,295,487,5.0,3-11A,other
24213,46,32,31,340,5.0,3-11A,other
24214,46,65,81,441,7.0,4-17,other
24215,46,46,61,204,7.0,4-17,other
24216,46,59,71,298,7.0,4-17,other
24217,55,62,1897,1141,10.0,3-9,other
24218,76,127,129,3617,10.0,3-9,other
24219,79,107,189,185,10.0,3-9,other
24220,72,54,249,444,0.0,2-4,other
24221,68,59,158,285,0.0,2-4,other
24222,70,56,237,2098,4.0,2-5,other
24223,62,70,40,357,11.0,2-1,other
24224,52,49,41,34,11.0,2-1,other
24225,74,127,267,124,11.0,2-1,other
24226,73,103,153,295,11.0,2-1,other
24227,72,63,262,206,0.0,4-20,other
24228,68,83,119,265,0.0,4-20,other
24229,63,47,49,39,0.0,4-20,other
24230,67,46,82,152,0.0,4-20,other
24231,65,66,123,131,0.0,4-20,other
24232,63,65,318,160,0.0,4-20,other
24233,62,70,114,335,0.0,4-20,other
24234,60,53,126,159,0.0,4-20,other
24235,53,38,57,44,0.0,4-20,other
24236,58,66,1255,114,0.0,4-20,other
24237,46,65,35,794,0.0,4-20,other
24238,46,66,32,498,0.0,4-20,other
24239,58,98,337,143,0.0,4-20,other
24240,46,56,59,356,0.0,4-20,other
24241,55,50,260,129,0.0,4-20,other
24242,58,65,128,523,9.0,2-5,other
24243,59,67,106,169,9.0,2-5,other
24244,62,88,129,144,9.0,2-5,other
24245,55,50,56,28,9.0,2-5,other
24246,52,41,61,52,9.0,2-5,other
24247,59,52,95,88,9.0,2-5,other
24248,60,64,90,170,9.0,2-5,other
24249,62,89,130,141,9.0,2-5,other
24250,64,56,101,184,9.0,2-5,other
24251,65,85,145,184,9.0,2-5,other
24252,66,83,866,304,9.0,2-5,other
24253,50,62,32,737,6.0,2-6,other
24254,67,86,253,160,6.0,2-6,other
24255,66,48,45,28,6.0,2-6,other
24256,59,54,38,329,2.0,2-5,other
24257,57,45,47,27,2.0,2-5,other
24258,66,64,277,156,2.0,2-5,other
24259,62,64,86,281,2.0,2-5,other
24260,59,43,266,181,2.0,2-5,other
24261,60,50,220,521,4.0,2-4,major
24262,57,81,133,252,4.0,2-4,major
24263,52,42,44,27,4.0,2-4,major
24264,52,44,262,160,4.0,2-4,major
24265,78,97,72,2403,11.0,3-7A,minor
24266,79,84,169,159,11.0,3-7A,minor
24267,74,72,109,314,11.0,2-2,other
24268,76,96,85,178,11.0,2-2,other
24269,71,55,54,326,11.0,3-7A,minor
24270,74,87,99,140,11.0,3-7A,minor
24271,58,48,47,178,8.0,2-6,other
24272,67,67,160,122,8.0,2-6,other
24273,70,83,115,152,8.0,2-6,other
24274,55,50,76,216,10.0,2-4,major
24275,62,67,136,75,10.0,2-4,major
24276,65,62,95,176,10.0,2-4,major
24277,58,67,118,292,7.0,2-3,minor
24278,62,76,75,190,7.0,2-3,minor
24279,69,109,111,1725,6.0,3-10,other
24280,70,74,59,185,6.0,3-10,other
24281,71,63,128,77,6.0,3-10,other
24282,69,86,204,255,6.0,2-6,other
24283,66,81,151,290,6.0,2-6,other
24284,60,53,51,31,6.0,2-6,other
24285,65,38,290,190,6.0,2-6,other
24286,63,60,219,469,0.0,2-4,other
24287,64,109,130,286,0.0,2-4,other
24288,67,127,260,204,0.0,2-4,other
24289,64,64,137,296,0.0,2-4,other
24290,65,88,272,169,0.0,2-4,other
24291,56,47,340,320,3.0,2-5,other
24292,62,53,209,210,3.0,2-5,other
24293,64,55,193,449,3.0,2-5,other
24294,68,73,203,459,8.0,2-2,other
24295,71,79,149,270,8.0,2-2,other
24296,62,29,50,96,8.0,2-2,other
24297,74,72,198,134,8.0,2-2,other
24298,75,66,245,485,0.0,2-5,other
24299,53,66,612,1424,3.0,2-4,other
24300,52,49,578,832,10.0,2-4,major
24301,62,12,225,557,10.0,1-1,other
24302,82,52,101,234,0.0,1-1,other
24303,67,54,75,490,0.0,3-11B,other
24304,84,62,100,167,0.0,3-11B,other
24305,60,54,55,175,3.0,3-4B,other
24306,84,62,56,154,3.0,3-4B,other
24307,60,63,189,151,3.0,3-4B,other
24308,87,47,82,802,0.0,2-4,other
24309,87,55,61,670,0.0,2-4,other
24310,92,63,122,594,8.0,2-6,other
24311,62,46,178,2403,8.0,3-7A,minor
24312,60,33,90,26,8.0,3-7A,minor
24313,55,65,647,301,2.0,4-23,minor
24314,57,50,44,28,2.0,4-23,minor
24315,94,82,205,253,2.0,4-23,minor
24316,62,52,45,210,2.0,4-23,minor
24317,90,77,296,112,2.0,4-23,minor
24318,91,68,230,578,4.0,2-6,other
24319,88,82,134,228,4.0,2-6,other
24320,85,42,244,223,4.0,2-6,other
24321,82,56,212,469,0.0,2-4,other
24322,79,50,167,513,8.0,2-2,other
24323,77,77,110,264,8.0,2-2,other
24324,56,37,40,55,8.0,2-2,other
24325,75,57,255,145,8.0,2-2,other
24326,80,53,38,3833,6.0,4-27A,diminished
24327,79,79,131,425,6.0,3-8B,other
24328,54,85,491,312,0.0,3-3B,other
24329,72,50,272,209,0.0,3-3B,other
24330,82,49,40,471,11.0,3-7A,minor
24331,76,73,84,762,7.0,4-22A,major
24332,57,60,166,874,0.0,2-4,major
24333,54,63,249,1146,0.0,2-5,other
24334,50,36,42,901,9.0,2-5,other
24335,71,50,271,114,9.0,2-5,other
24336,57,42,52,390,9.0,2-5,other
24337,71,60,256,77,9.0,2-5,other
24338,71,74,333,475,11.0,2-2,other
24339,60,47,743,526,3.0,4-19A,other
24340,72,58,83,200,3.0,4-19A,other
24341,71,59,86,90,3.0,4-19A,other
24342,69,42,138,148,3.0,4-19A,other
24343,68,69,320,129,3.0,4-19A,other
24344,60,48,46,724,3.0,2-4,major
24345,55,33,135,647,3.0,2-1,other
24346,57,52,62,761,3.0,2-1,other
24347,77,107,73,143,3.0,2-1,other
24348,79,74,133,128,3.0,2-1,other
24349,77,70,80,99,3.0,2-1,other
24350,76,72,114,86,3.0,2-1,other
24351,74,79,83,119,3.0,2-1,other
24352,75,83,253,123,3.0,2-1,other
24353,79,95,100,1068,3.0,2-4,major
24354,75,86,87,161,3.0,2-4,major
24355,77,93,180,177,3.0,2-4,major
24356,62,58,44,323,7.0,3-5B,other
24357,70,59,293,153,7.0,3-5B,other
24358,70,86,361,485,7.0,4-26,minor
24359,61,70,101,313,7.0,4-26,minor
24360,60,60,822,186,7.0,4-26,minor
24361,58,70,35,290,7.0,4-26,minor
24362,50,39,43,510,7.0,4-26,minor
24363,66,88,276,83,7.0,4-26,minor
24364,60,42,233,547,3.0,4-4B,other
24365,46,69,50,914,5.0,3-11A,other
24366,56,51,45,1826,10.0,3-12,augmented
24367,66,57,133,592,0.0,2-4,other
24368,84,67,30,354,7.0,5-35,minor
24369,99,96,216,2575,3.0,3-5B,other
24370,100,107,187,304,3.0,3-5B,other
24371,95,75,177,291,3.0,3-5B,other
24372,52,54,61,240,3.0,3-4B,other
24373,97,71,164,201,3.0,3-4B,other
24374,56,15,141,357,0.0,3-11A,minor
24375,92,61,210,109,0.0,3-11A,minor
24376,91,83,149,248,0.0,3-11A,minor
24377,63,40,132,26,0.0,3-11A,minor
24378,94,79,239,185,0.0,3-11A,minor
24379,91,72,131,277,0.0,3-11A,minor
24380,62,51,561,94,7.0,2-1,other
24381,60,38,504,32,7.0,2-1,other
24382,86,62,236,124,7.0,2-1,other
24383,86,65,361,359,7.0,2-1,other
24384,89,73,149,564,7.0,2-5,other
24385,79,65,310,343,7.0,2-5,other
24386,63,58,112,819,7.0,2-5,other
24387,58,55,51,28,7.0,2-5,other
24388,60,55,208,664,3.0,2-5,other
24389,63,50,180,327,3.0,2-5,other
24390,62,37,64,1161,8.0,3-2B,other
24391,60,33,63,285,7.0,3-7B,other
24392,60,54,213,602,3.0,4-11A,major
24393,59,51,186,1424,0.0,3-11B,major
24394,59,52,388,1005,6.0,3-8B,other
24395,59,51,211,1196,11.0,4-26,minor
24396,83,80,77,211,11.0,4-26,minor
24397,84,74,67,76,11.0,4-26,minor
24398,83,76,149,88,11.0,4-26,minor
24399,82,84,92,131,11.0,4-26,minor
24400,59,37,120,46,11.0,4-26,minor
24401,83,86,96,119,11.0,4-26,minor
24402,87,84,170,552,2.0,2-2,other
24403,88,107,120,252,2.0,2-2,other
24404,89,118,180,193,2.0,2-2,other
24405,87,80,139,287,2.0,2-2,other
24406,88,91,233,202,9.0,3-11A,minor
24407,81,67,194,491,0.0,2-4,major
24408,60,40,57,311,9.0,2-2,other
24409,78,63,229,139,9.0,2-2,other
24410,59,48,190,344,2.0,3-11B,major
24411,78,68,483,184,2.0,3-11B,major
24412,71,59,45,916,11.0,2-3,minor
24413,72,60,50,65,11.0,2-3,minor
24414,71,60,148,90,11.0,2-3,minor
24415,70,79,104,136,11.0,2-3,minor
24416,71,75,67,130,11.0,2-3,minor
24417,74,86,110,165,11.0,2-3,minor
24418,76,77,132,117,11.0,2-3,minor
24419,74,74,111,82,11.0,2-3,minor
24420,73,78,77,83,11.0,2-3,minor
24421,74,80,143,148,11.0,2-3,minor
24422,79,103,129,204,11.0,2-3,minor
24423,58,43,60,159,11.0,2-3,minor
24424,74,90,161,87,11.0,2-3,minor
24425,70,76,150,258,11.0,2-3,minor
24426,67,57,191,216,10.0,2-4,major
24427,75,57,38,997,9.0,2-5,other
24428,60,46,58,747,6.0,2-3,other
24429,57,36,60,34,6.0,2-3,other
24430,78,109,225,69,6.0,2-3,other
24431,75,95,196,492,6.0,2-3,other
24432,76,60,98,83,6.0,2-3,other
24433,68,61,224,453,0.0,3-11B,other
24434,60,55,39,812,7.0,3-5B,other
24435,77,127,262,95,7.0,3-5B,other
24436,63,49,46,325,7.0,3-5B,other
24437,72,105,270,161,7.0,3-5B,other
24438,67,67,231,600,0.0,3-8B,other
24439,62,45,58,235,0.0,3-8B,other
24440,68,78,284,111,0.0,3-8B,other
24441,55,67,970,1311,5.0,2-5,other
24442,74,77,270,218,5.0,2-5,other
24443,68,59,34,391,5.0,2-5,other
24444,67,68,271,46,5.0,2-5,other
24445,62,60,108,300,5.0,2-5,other
24446,66,63,255,177,5.0,2-5,other
24447,53,58,577,975,3.0,2-4,other
24448,59,57,180,317,3.0,2-4,other
24449,75,99,134,104,3.0,2-4,other
24450,71,73,151,192,3.0,2-4,other
24451,68,68,106,169,3.0,2-4,other
24452,58,51,95,27,3.0,2-4,other
24453,65,39,108,164,3.0,2-4,other
24454,73,94,145,193,3.0,2-4,other
24455,58,33,58,109,3.0,2-4,other
24456,72,82,114,236,3.0,2-4,other
24457,70,86,129,165,3.0,2-4,other
24458,58,48,43,39,3.0,2-4,other
24459,67,53,101,148,3.0,2-4,other
24460,64,42,58,176,3.0,2-4,other
24461,70,94,142,116,3.0,2-4,other
24462,68,93,233,352,5.0,3-11A,other
24463,63,69,210,329,5.0,3-11A,other
24464,60,68,137,269,5.0,3-11A,other
24465,53,42,44,94,5.0,3-11A,other
24466,56,51,265,101,5.0,3-11A,other
24467,53,65,100,311,5.0,3-11A,other
24468,55,68,296,163,5.0,3-11A,other
24469,56,70,123,310,5.0,3-11A,other
24470,53,34,96,51,5.0,3-11A,other
24471,56,59,37,154,5.0,3-11A,other
24472,57,68,140,266,5.0,3-11A,other
24473,58,67,224,213,8.0,2-2,other
24474,60,68,164,476,8.0,3-2B,other
24475,50,69,99,288,8.0,3-2B,other
24476,60,37,49,38,8.0,3-2B,other
24477,62,80,234,143,8.0,3-2B,other
24478,53,53,55,38,8.0,3-2B,other
24479,60,49,113,519,8.0,2-3,other
24480,60,67,31,245,8.0,2-2,other
24481,53,32,55,300,7.0,4-22A,major
24482,66,46,48,254,8.0,2-6,other
24483,54,86,103,361,2.0,2-2,other
24484,68,40,140,280,7.0,4-23,minor
24485,56,73,128,232,7.0,4-23,minor
24486,70,32,60,554,4.0,2-2,other
24487,59,49,184,191,1.0,3-11A,minor
24488,75,70,42,239,0.0,3-12,augmented
24489,73,49,51,202,0.0,4-19B,other
24490,60,80,28,260,0.0,4-19B,other
24491,75,56,46,491,6.0,3-8A,other
24492,65,74,42,163,6.0,3-8A,other
24493,62,27,162,1012,6.0,4-29A,other
24494,60,57,39,748,7.0,4-26,minor
24495,55,46,42,492,2.0,4-26,minor
24496,67,46,46,651,0.0,3-11B,major
24497,79,59,80,136,0.0,3-11B,major
24498,60,35,36,43,0.0,3-11B,major
24499,72,40,39,196,11.0,2-2,other
24500,57,43,41,309,0.0,3-11B,major
24501,79,38,37,177,6.0,4-13A,diminished
24502,71,85,199,166,0.0,4-20,major
24503,57,34,130,66,0.0,4-20,major
24504,74,54,36,668,6.0,3-8B,other
24505,60,65,32,311,4.0,3-6,major
24506,81,52,39,1029,11.0,3-11A,minor
24507,57,53,110,1096,0.0,2-5,other
24508,82,53,35,1030,0.0,5-26B,other
24509,77,60,48,370,6.0,4-5B,other
24510,54,56,75,452,6.0,3-8B,other
24511,57,75,305,188,11.0,5-13A,minor
24512,88,45,76,496,9.0,1-1,other
24513,57,54,188,575,11.0,3-11A,minor
24514,78,42,152,27,11.0,3-11A,minor
24515,54,52,114,296,11.0,3-11A,minor
24516,88,68,187,1574,3.0,2-4,major
24517,91,98,145,241,3.0,2-4,major
24518,87,56,37,38,3.0,2-4,major
24519,89,55,252,176,3.0,2-4,major
24520,79,60,233,470,2.0,2-2,other
24521,75,37,182,929,9.0,2-2,other
24522,77,70,354,437,2.0,3-5B,other
24523,74,76,89,332,2.0,3-5B,other
24524,60,74,477,157,3.0,2-5,other
24525,74,63,150,72,3.0,2-5,other
24526,72,84,105,231,3.0,2-5,other
24527,68,66,304,160,3.0,2-5,other
24528,71,51,192,673,7.0,2-3,minor
24529,58,42,119,63,7.0,2-3,minor
24530,62,35,36,257,7.0,2-3,minor
24531,58,73,251,1711,4.0,2-6,other
24532,61,68,178,131,4.0,2-6,other
24533,60,74,104,182,4.0,2-6,other
24534,62,92,181,168,4.0,2-6,other
24535,61,68,181,183,8.0,2-3,other
24536,63,82,161,183,8.0,2-3,other
24537,64,71,149,315,8.0,2-6,other
24538,63,69,127,154,8.0,2-6,other
24539,67,93,169,157,5.0,3-11A,other
24540,64,62,88,173,5.0,3-11A,other
24541,65,70,223,143,5.0,3-11A,other
24542,67,86,151,164,5.0,3-11A,other
24543,65,37,82,343,8.0,2-3,other
24544,68,85,145,283,8.0,3-2A,other
24545,70,95,145,171,8.0,3-2A,other
24546,56,40,52,220,8.0,3-2A,other
24547,67,59,111,347,8.0,3-2A,other
24548,68,61,41,218,0.0,3-8B,other
24549,70,79,109,152,0.0,3-8B,other
24550,68,64,62,455,0.0,3-8B,other
24551,71,77,105,170,0.0,3-8B,other
24552,55,57,275,214,2.0,3-7A,minor
24553,60,50,52,426,2.0,2-3,minor
24554,69,50,60,181,2.0,2-3,minor
24555,70,86,105,153,2.0,2-3,minor
24556,60,42,72,184,2.0,3-7A,minor
24557,69,59,55,272,2.0,3-7A,minor
24558,70,66,60,144,2.0,3-7A,minor
24559,72,84,177,118,2.0,3-7A,minor
24560,52,53,37,289,10.0,3-3B,major
24561,69,46,216,182,10.0,3-3B,major
24562,72,56,211,477,10.0,2-4,major
24563,58,61,41,306,2.0,2-1,other
24564,75,67,163,191,2.0,2-1,other
24565,65,55,36,291,4.0,2-1,other
24566,77,77,228,158,4.0,2-1,other
24567,60,56,272,484,0.0,4-20,other
24568,60,49,293,452,0.0,4-20,other
24569,60,65,153,780,7.0,4-5B,other
24570,60,33,82,321,2.0,2-1,other
24571,74,48,135,1421,7.0,5-35,minor
24572,46,77,118,1608,6.0,3-8A,other
24573,56,64,98,490,8.0,4-18A,diminished
24574,58,61,87,1034,3.0,3-11B,major
24575,54,52,60,481,3.0,4-20,major
24576,62,66,259,114,7.0,2-3,minor
24577,52,54,67,319,7.0,2-3,minor
24578,60,44,131,181,3.0,3-9,other
24579,67,67,100,898,9.0,2-3,minor
24580,69,68,103,115,9.0,2-3,minor
24581,69,73,37,159,9.0,2-3,minor
24582,71,79,86,131,9.0,2-3,minor
24583,71,57,66,127,9.0,2-3,minor
24584,72,67,78,120,9.0,2-3,minor
24585,72,75,39,149,9.0,2-3,minor
24586,54,45,47,90,9.0,2-3,minor
24587,74,78,77,74,9.0,2-3,minor
24588,78,67,49,935,11.0,3-7A,minor
24589,79,74,39,168,11.0,3-7A,minor
24590,59,33,33,215,2.0,2-5,other
24591,74,74,32,340,2.0,2-5,other
24592,78,86,82,290,11.0,2-2,other
24593,79,79,92,152,11.0,2-2,other
24594,81,91,104,144,11.0,2-2,other
24595,74,69,99,168,11.0,2-2,other
24596,74,73,96,152,11.0,2-2,other
24597,55,51,34,195,9.0,3-11A,minor
24598,78,87,98,110,9.0,3-11A,minor
24599,79,81,87,163,9.0,3-11A,minor
24600,74,74,36,333,6.0,4-27A,diminished
24601,74,77,48,152,6.0,4-27A,diminished
24602,78,85,89,287,6.0,3-8B,other
24603,79,86,102,152,6.0,3-8B,other
24604,74,65,61,349,5.0,3-4A,major
24605,74,77,83,164,5.0,3-4A,major
24606,74,56,229,306,9.0,2-5,other
24607,82,39,66,1370,11.0,2-3,minor
24608,90,37,59,852,7.0,3-11A,minor
24609,79,53,34,285,7.0,3-11A,minor
24610,82,57,130,1911,9.0,3-10,diminished
24611,99,46,76,2086,4.0,2-6,other
24612,87,67,216,287,0.0,5-27A,other
24613,55,59,220,2243,10.0,5-30B,other
24614,89,62,105,681,10.0,2-5,other
24615,89,68,42,466,7.0,3-7A,minor
24616,58,35,66,68,7.0,3-7A,minor
24617,58,50,45,360,10.0,4-16A,other
24618,92,93,149,795,4.0,5-7B,other
24619,87,68,279,252,4.0,5-7B,other
24620,83,52,73,253,4.0,3-8B,other
24621,93,99,171,195,4.0,3-8B,other
24622,92,83,136,269,4.0,3-8B,other
24623,88,53,175,247,4.0,3-8B,other
24624,82,71,186,426,9.0,4-18A,major
24625,67,51,581,326,9.0,2-6,other
24626,80,52,274,168,0.0,2-4,other
24627,60,50,58,1762,8.0,2-6,other
24628,67,72,158,92,8.0,2-6,other
24629,66,65,93,174,8.0,2-6,other
24630,67,82,132,149,8.0,2-6,other
24631,62,54,100,81,8.0,2-6,other
24632,68,68,120,99,0.0,2-4,other
24633,67,56,104,173,0.0,2-4,other
24634,68,87,130,160,0.0,2-4,other
24635,69,85,170,178,0.0,2-4,other
24636,67,61,39,199,0.0,2-4,other
24637,69,118,151,155,0.0,2-4,other
24638,63,56,158,44,0.0,2-4,other
24639,70,88,185,157,0.0,2-4,other
24640,56,38,58,306,3.0,2-4,major
24641,65,51,160,159,3.0,2-4,major
24642,63,84,159,248,3.0,2-4,major
24643,62,65,209,213,3.0,2-4,major
24644,46,50,119,285,3.0,2-5,other
24645,53,37,60,37,3.0,2-5,other
24646,65,67,416,92,3.0,2-5,other
24647,39,70,52,771,3.0,2-5,other
24648,46,50,43,38,3.0,2-5,other
24649,56,62,36,3336,7.0,2-3,minor
24650,58,60,42,488,8.0,2-3,minor
24651,62,54,428,464,0.0,4-26,minor
24652,58,39,60,472,0.0,4-26,minor
24653,60,66,283,509,4.0,4-23,minor
24654,57,49,40,491,4.0,4-23,minor
24655,60,59,37,959,0.0,5-16B,other
24656,57,58,264,492,11.0,5-35,minor
24657,79,40,44,30,11.0,5-35,minor
24658,59,50,43,448,11.0,5-35,minor
24659,59,48,39,157,10.0,5-30B,augmented
24660,76,57,34,825,8.0,3-5B,other
24661,90,51,48,3237,11.0,2-2,other
24662,96,45,132,1278,0.0,4-20,other
24663,60,31,53,272,0.0,4-20,other
24664,92,59,314,86,0.0,4-20,other
24665,60,45,99,400,3.0,2-4,major
24666,103,74,138,258,3.0,2-4,major
24667,101,63,190,417,6.0,2-3,other
24668,60,44,74,305,4.0,4-4A,minor
24669,99,58,217,180,4.0,4-4A,minor
24670,101,87,155,255,4.0,4-4A,minor
24671,63,34,52,28,4.0,4-4A,minor
24672,98,48,180,198,4.0,4-4A,minor
24673,60,42,60,307,3.0,2-4,major
24674,91,59,197,132,3.0,2-4,major
24675,91,67,46,294,3.0,2-4,major
24676,67,39,53,53,3.0,2-4,major
24677,60,37,47,70,3.0,2-4,major
24678,91,67,252,56,3.0,2-4,major
24679,91,60,192,545,0.0,4-20,other
24680,63,37,388,239,0.0,4-20,other
24681,91,81,243,114,0.0,4-20,other
24682,87,78,159,808,8.0,2-6,other
24683,86,54,235,235,8.0,2-6,other
24684,55,50,569,307,10.0,3-11A,other
24685,85,63,185,190,10.0,3-11A,other
24686,77,74,285,376,10.0,3-11A,other
24687,84,74,267,319,10.0,3-11A,other
24688,73,60,256,258,4.0,3-8B,other
24689,72,68,297,386,4.0,3-8B,other
24690,63,52,48,1825,0.0,3-11B,other
24691,56,46,54,940,2.0,2-4,major
24692,56,42,66,458,2.0,2-4,major
24693,74,79,114,442,4.0,2-5,other
24694,70,55,339,187,8.0,3-8B,other
24695,65,53,429,419,8.0,3-8B,other
24696,77,90,199,533,5.0,3-9,other
24697,60,41,126,387,2.0,2-3,minor
24698,74,48,96,167,2.0,2-3,minor
24699,74,72,155,225,2.0,2-3,minor
24700,60,34,54,87,2.0,2-3,minor
24701,70,60,287,100,2.0,2-3,minor
24702,60,45,184,333,7.0,2-5,other
24703,67,47,177,168,7.0,2-5,other
24704,60,48,119,332,7.0,3-7B,other
24705,67,63,105,153,7.0,3-7B,other
24706,61,61,241,915,3.0,4-16A,other
24707,60,66,243,317,0.0,3-11B,other
24708,48,51,62,974,0.0,3-11B,other
24709,53,68,65,136,0.0,3-11B,other
24710,55,68,103,136,0.0,3-11B,other
24711,56,82,131,162,0.0,3-11B,other
24712,58,50,56,181,0.0,3-11B,other
24713,60,70,83,141,0.0,3-11B,other
24714,53,50,37,215,1.0,3-7A,other
24715,63,63,152,152,1.0,3-7A,other
24716,55,50,42,815,3.0,2-5,other
24717,62,56,41,157,3.0,2-5,other
24718,63,69,97,156,3.0,2-5,other
24719,58,65,41,64,3.0,2-5,other
24720,67,79,89,99,3.0,2-5,other
24721,70,62,35,189,3.0,2-5,other
24722,65,34,58,538,2.0,1-1,other
24723,72,46,54,233,3.0,3-7A,other
24724,58,60,33,472,5.0,2-5,other
24725,53,42,53,553,8.0,4-29A,other
24726,55,59,376,450,10.0,3-9,other
24727,51,30,66,459,10.0,3-9,other
24728,51,57,382,444,7.0,3-11A,minor
24729,91,74,55,810,7.0,3-11A,minor
24730,88,63,44,176,7.0,3-11A,minor
24731,81,60,118,1228,6.0,4-27A,diminished
24732,57,57,38,723,4.0,3-7B,other
24733,52,42,50,312,11.0,2-3,minor
24734,83,82,272,308,11.0,4-23,minor
24735,60,54,57,2456,4.0,3-6,major
24736,65,71,473,3191,7.0,4-26,minor
24737,67,37,121,1128,10.0,1-1,other
24738,65,41,88,32,10.0,1-1,other
24739,58,38,142,248,10.0,1-1,other
24740,61,43,70,104,10.0,1-1,other
24741,66,28,188,580,0.0,2-3,minor
24742,60,47,89,1670,0.0,4-26,other
24743,72,63,227,151,3.0,3-7A,other
24744,65,45,117,963,0.0,3-11B,other
24745,62,59,259,1307,7.0,5-38A,major
24746,86,48,41,633,7.0,2-2,other
24747,52,57,119,3534,10.0,3-11B,major
24748,60,57,821,1741,0.0,4-20,other
24749,75,95,234,290,0.0,4-20,other
24750,72,72,110,326,0.0,4-20,other
24751,68,77,136,145,0.0,4-20,other
24752,65,69,466,152,0.0,4-20,other
24753,60,52,653,818,7.0,3-5B,other
24754,82,96,139,431,7.0,3-5B,other
24755,82,77,123,466,7.0,3-5B,other
24756,60,50,140,1550,10.0,3-11B,major
24757,64,52,415,1630,1.0,4-13B,other
24758,60,50,181,2206,0.0,5-27B,other
24759,62,55,40,634,8.0,4-24,other
24760,82,75,104,672,2.0,4-23,minor
24761,72,69,134,258,7.0,5-35,minor
24762,60,62,568,952,9.0,4-26,minor
24763,78,54,43,1678,6.0,3-8B,other
24764,81,88,92,122,6.0,3-8B,other
24765,57,38,750,199,4.0,3-7B,other
24766,78,68,88,98,4.0,3-7B,other
24767,76,68,109,91,4.0,3-7B,other
24768,75,68,53,121,4.0,3-7B,other
24769,76,68,183,135,4.0,3-7B,other
24770,79,79,112,1945,0.0,2-5,other
24771,78,67,60,124,0.0,2-5,other
24772,81,92,299,627,0.0,4-29B,major
24773,60,35,157,26,0.0,4-29B,major
24774,82,50,47,309,0.0,4-29B,major
24775,83,65,87,156,0.0,4-29B,major
24776,57,46,119,681,7.0,3-11A,minor
24777,59,50,97,953,2.0,1-1,other
24778,57,48,75,2857,0.0,3-2B,minor
24779,61,65,32,1345,9.0,2-2,other
24780,67,50,98,1608,8.0,3-8B,other
24781,44,68,94,272,8.0,3-8B,other
24782,70,39,45,389,5.0,3-9,other
24783,43,41,39,269,5.0,3-9,other
24784,55,45,79,771,0.0,4-24,augmented
24785,67,64,147,103,0.0,4-24,augmented
24786,56,35,70,307,0.0,4-24,augmented
24787,68,59,259,1641,5.0,2-5,other
24788,53,50,114,338,5.0,2-5,other
24789,46,50,340,938,8.0,4-13B,other
24790,70,68,40,997,10.0,2-4,major
24791,82,93,465,448,5.0,2-5,other
24792,63,50,160,1010,7.0,2-3,minor
24793,60,37,373,637,0.0,2-3,minor
24794,46,57,63,3183,3.0,3-11B,major
24795,60,59,551,490,3.0,3-9,other
24796,53,43,756,40,3.0,3-9,other
24797,60,61,65,1360,3.0,3-9,other
24798,67,46,63,46,3.0,3-9,other
24799,53,46,63,31,3.0,3-9,other
24800,55,56,488,460,10.0,3-11B,major
24801,67,61,41,1057,10.0,3-11B,major
24802,39,61,29,0,,,
24803,32,58,359,93,,,
24804,32,69,95,643,6.0,4-29A,other
24805,37,63,123,135,6.0,4-29A,other
24806,37,34,461,168,6.0,4-29A,other
24807,39,63,27,461,3.0,4-19B,other
24808,32,60,19,143,3.0,4-19B,other
24809,32,41,478,62,3.0,4-19B,other
24810,44,75,406,173,3.0,4-19B,other
24811,32,49,102,393,5.0,3-5B,other
24812,37,41,507,150,5.0,3-5B,other
24813,59,1,464,300,1.0,5-34,other
24814,37,56,107,316,1.0,5-34,other
24815,44,43,447,146,1.0,5-34,other
24816,44,52,74,637,6.0,3-5B,other
24817,37,42,21,121,6.0,3-5B,other
24818,32,56,19,809,3.0,5-30B,other
24819,37,46,20,758,5.0,4-6,other
24820,40,58,16,618,3.0,4-24,augmented
24821,46,41,83,394,1.0,5-27B,other
24822,46,64,43,270,1.0,4-26,other
24823,45,64,120,128,1.0,4-26,other
24824,44,66,340,388,0.0,4-27B,other
24825,53,80,115,256,6.0,3-10,other
24826,44,52,69,113,6.0,3-10,other
24827,32,67,52,1013,0.0,5-34,other
24828,32,57,40,272,0.0,5-34,other
24829,26,43,23,242,0.0,5-34,other
24830,55,52,131,1175,0.0,5-27A,other
24831,49,56,1206,361,0.0,4-26,other
24832,58,63,312,364,4.0,4-29B,other
24833,56,60,53,319,4.0,4-29B,other
24834,56,45,110,106,4.0,4-29B,other
24835,56,43,351,247,4.0,4-29B,other
24836,49,63,198,366,3.0,3-4A,other
24837,42,80,173,809,0.0,4-26,minor
24838,41,76,445,219,0.0,4-26,minor
24839,44,49,365,2355,3.0,1-1,other
24840,51,39,24,219,3.0,1-1,other
24841,44,67,62,1112,3.0,4-24,augmented
24842,44,66,309,158,3.0,4-24,augmented
24843,51,57,19,257,3.0,4-24,augmented
24844,53,75,389,779,1.0,6-24A,other
24845,44,60,222,552,3.0,3-11A,other
24846,44,56,149,250,3.0,3-11A,other
24847,44,59,100,618,5.0,3-6,other
24848,44,68,296,137,5.0,3-6,other
24849,44,70,44,355,3.0,5-30B,other
24850,44,70,429,131,3.0,5-30B,other
24851,51,31,36,341,0.0,4-26,minor
24852,44,57,32,198,0.0,4-26,minor
24853,44,52,180,516,1.0,4-21,other
24854,54,37,149,874,10.0,3-11A,other
24855,38,74,42,2452,1.0,4-26,other
24856,38,31,168,59,1.0,4-26,other
24857,44,23,138,972,5.0,3-4A,other
24858,44,16,270,169,5.0,3-4A,other
24859,44,55,19,422,5.0,3-11A,other
24860,56,55,135,395,4.0,3-5A,other
24861,58,56,109,381,1.0,4-26,minor
24862,58,85,152,383,4.0,3-11B,major
24863,59,57,266,154,4.0,3-11B,major
24864,49,75,49,107,4.0,3-11B,major
24865,37,57,101,139,4.0,3-11B,major
24866,42,50,20,661,3.0,2-5,other
24867,30,46,38,119,3.0,2-5,other
24868,28,40,27,1537,10.0,3-11A,other
24869,27,46,409,142,10.0,3-11A,other
24870,32,42,308,720,1.0,3-8A,other
24871,32,53,19,618,3.0,4-23,other
24872,44,49,22,301,3.0,3-4A,other
24873,53,75,408,110,3.0,3-4A,other
24874,44,64,50,374,3.0,3-11A,other
24875,79,122,82,2351,5.0,3-11A,other
24876,78,21,78,353,0.0,4-19B,other
24877,52,35,25,378,5.0,3-11A,other
24878,56,38,158,402,0.0,4-20,other
24879,52,57,34,259,5.0,3-11A,other
24880,51,48,100,120,5.0,3-11A,other
24881,45,44,19,269,2.0,4-27A,minor
24882,42,51,117,108,2.0,4-27A,minor
24883,31,57,21,273,7.0,4-25,major
24884,77,111,69,536,0.0,4-26,minor
24885,77,85,42,146,0.0,4-26,minor
24886,74,80,75,205,0.0,4-26,minor
24887,59,56,140,372,3.0,3-4A,major
24888,48,42,20,377,0.0,3-11A,minor
24889,49,66,173,393,7.0,4-27A,minor
24890,53,45,50,143,7.0,4-27A,minor
24891,58,81,74,107,7.0,4-27A,minor
24892,60,90,74,112,7.0,4-27A,minor
24893,61,80,69,93,7.0,4-27A,minor
24894,61,36,23,104,0.0,3-3B,other
24895,64,68,62,80,0.0,3-3B,other
24896,66,75,66,83,0.0,3-3B,other
24897,67,78,67,89,0.0,3-3B,other
24898,70,73,53,180,9.0,4-29A,minor
24899,72,75,49,81,9.0,4-29A,minor
24900,75,81,57,89,9.0,4-29A,minor
24901,79,89,68,191,0.0,4-19A,augmented
24902,77,78,64,89,0.0,4-19A,augmented
24903,72,56,70,100,0.0,4-19A,augmented
24904,67,36,85,238,5.0,3-11A,other
24905,70,67,134,120,5.0,3-11A,other
24906,56,19,398,53,5.0,3-11A,other
24907,64,54,178,246,0.0,3-12,augmented
24908,52,47,49,506,0.0,3-12,augmented
24909,56,82,77,385,0.0,3-11B,other
24910,52,66,76,253,0.0,3-11B,other
24911,51,66,80,128,0.0,3-11B,other
24912,45,61,34,255,2.0,4-27A,minor
24913,32,67,105,120,2.0,4-27A,minor
24914,31,92,42,373,7.0,4-25,major
24915,74,61,25,1110,5.0,6-34B,major
24916,86,57,25,227,5.0,6-34B,major
24917,53,19,54,244,5.0,6-34B,major
24918,46,36,443,125,5.0,6-34B,major
24919,46,44,126,589,8.0,4-22A,other
24920,39,45,79,151,8.0,4-22A,other
24921,46,51,59,529,5.0,5-30B,other
24922,45,43,61,116,5.0,5-30B,other
24923,44,46,398,124,5.0,5-30B,other
24924,44,52,17,610,0.0,4-23,minor
24925,37,43,21,127,0.0,4-23,minor
24926,44,57,20,768,1.0,6-34A,other
24927,56,39,255,1052,3.0,5-30B,other
24928,70,9,158,613,1.0,4-26,other
24929,46,55,281,176,1.0,4-26,other
24930,53,45,28,269,1.0,4-26,other
24931,54,57,86,94,1.0,4-26,other
24932,46,50,25,127,1.0,4-26,other
24933,60,64,101,389,8.0,2-2,other
24934,62,51,95,240,5.0,2-4,other
24935,64,49,107,253,6.0,2-3,other
24936,65,58,78,259,3.0,4-10,other
24937,67,66,96,253,8.0,3-6,other
24938,67,62,42,257,9.0,4-4A,minor
24939,75,56,65,402,7.0,3-9,other
24940,44,54,61,385,5.0,3-4A,other
24941,55,29,24,136,5.0,3-4A,other
24942,44,49,101,1422,1.0,4-26,minor
24943,52,49,87,116,1.0,4-26,minor
24944,52,50,16,370,4.0,3-11B,major
24945,52,57,93,362,4.0,3-11B,major
24946,49,49,38,263,4.0,2-5,other
24947,37,45,77,125,4.0,2-5,other
24948,41,29,91,955,9.0,2-6,other
24949,41,1,110,171,9.0,2-6,other
24950,46,48,62,156,7.0,2-1,other
24951,32,50,589,1956,3.0,1-1,other
24952,39,37,88,251,3.0,1-1,other
24953,44,48,44,245,0.0,5-27A,other
24954,51,46,88,389,1.0,5-26B,other
24955,51,53,13,470,3.0,3-11A,other
24956,32,62,632,164,3.0,3-11A,other
24957,39,39,103,280,3.0,3-11A,other
24958,44,48,35,249,0.0,4-26,minor
24959,68,58,48,342,1.0,5-26B,other
24960,32,48,608,668,8.0,1-1,other
24961,44,47,18,236,8.0,1-1,other
24962,44,39,28,247,0.0,4-23,minor
24963,39,39,117,132,0.0,4-23,minor
24964,37,41,481,140,0.0,4-23,minor
24965,32,41,503,735,1.0,5-26B,other
24966,44,22,17,251,1.0,5-26B,other
24967,44,31,26,277,6.0,2-1,other
24968,68,38,122,985,1.0,5-26B,other
24969,32,40,424,121,1.0,5-26B,other
24970,32,33,38,570,5.0,3-11A,other
24971,25,47,547,1689,0.0,4-27B,other
24972,70,95,256,0,,,
24973,69,60,84,284,,,
24974,70,68,968,128,,,
24975,58,39,36,280,7.0,2-5,other
24976,69,77,88,728,0.0,4-26,minor
24977,70,104,212,148,0.0,4-26,minor
24978,73,64,196,408,6.0,4-18B,other
24979,75,83,96,224,6.0,4-18B,other
24980,78,82,208,136,6.0,4-18B,other
24981,77,50,132,412,5.0,3-9,other
24982,77,88,84,224,5.0,3-9,other
24983,74,50,164,172,5.0,3-9,other
24984,76,60,68,560,7.0,4-26,minor
24985,75,58,92,48,7.0,4-26,minor
24986,74,45,152,116,7.0,4-26,minor
24987,72,70,80,608,3.0,4-20,major
24988,70,47,308,128,3.0,4-20,major
24989,61,24,392,440,6.0,3-10,minor
24990,72,48,68,208,6.0,3-10,minor
24991,77,123,204,124,6.0,3-10,minor
24992,75,89,124,268,6.0,3-10,minor
24993,74,76,108,148,6.0,3-10,minor
24994,62,43,184,372,7.0,3-5B,other
24995,73,67,96,224,7.0,3-5B,other
24996,74,69,216,144,7.0,3-5B,other
24997,60,46,232,288,7.0,4-5B,other
24998,77,80,88,236,7.0,4-5B,other
24999,74,84,76,116,7.0,4-5B,other
25000,72,62,84,320,7.0,5-35,minor
25001,70,57,132,48,7.0,5-35,minor
25002,69,56,208,108,7.0,5-35,minor
25003,70,63,140,536,10.0,4-16A,other
25004,60,38,176,136,10.0,4-16A,other
25005,74,91,92,40,10.0,4-16A,other
25006,77,125,160,144,10.0,4-16A,other
25007,75,88,100,212,10.0,4-16A,other
25008,74,73,160,144,10.0,4-16A,other
25009,69,76,160,228,10.0,4-16A,other
25010,59,26,32,184,3.0,2-5,other
25011,73,80,96,204,3.0,2-5,other
25012,65,32,32,36,3.0,2-5,other
25013,66,58,152,480,9.0,2-2,other
25014,54,54,116,512,7.0,4-23,minor
25015,54,59,68,552,7.0,4-23,minor
25016,51,41,44,380,9.0,4-16A,other
25017,63,60,180,104,6.0,4-14A,minor
25018,70,94,112,764,9.0,2-1,other
25019,69,59,88,140,9.0,2-1,other
25020,70,93,116,128,9.0,2-1,other
25021,69,45,100,136,9.0,2-1,other
25022,70,89,100,136,9.0,2-1,other
25023,60,20,516,612,3.0,3-11B,major
25024,69,67,56,292,3.0,3-11B,major
25025,70,56,184,144,3.0,3-11B,major
25026,73,61,180,368,9.0,2-4,major
25027,61,43,96,264,6.0,3-7A,other
25028,75,40,36,700,2.0,2-2,other
25029,65,60,76,36,2.0,2-2,other
25030,77,53,36,104,2.0,2-2,other
25031,65,45,108,68,2.0,2-2,other
25032,77,64,84,104,2.0,2-2,other
25033,77,55,80,184,5.0,2-5,other
25034,65,58,128,92,5.0,2-5,other
25035,77,54,96,92,5.0,2-5,other
25036,65,55,184,120,7.0,4-26,minor
25037,77,47,228,84,7.0,4-26,minor
25038,63,37,88,740,1.0,4-4B,other
25039,69,31,120,516,3.0,4-29B,major
25040,72,62,32,180,3.0,4-29B,major
25041,63,39,232,28,3.0,4-29B,major
25042,77,79,168,104,3.0,4-29B,major
25043,75,65,94,250,3.0,4-29B,major
25044,74,69,144,158,3.0,4-29B,major
25045,75,66,108,172,3.0,4-29B,major
25046,74,62,68,56,3.0,4-29B,major
25047,73,68,156,68,3.0,4-29B,major
25048,74,83,200,112,3.0,4-29B,major
25049,73,55,92,228,3.0,4-29B,major
25050,74,57,212,124,8.0,3-8B,other
25051,77,67,192,388,7.0,2-1,other
25052,55,43,496,272,2.0,3-7A,minor
25053,70,30,196,176,2.0,3-7A,minor
25054,62,46,76,180,2.0,3-7A,minor
25055,70,72,264,112,2.0,3-7A,minor
25056,70,40,196,400,5.0,4-18A,major
25057,77,87,72,244,5.0,4-18A,major
25058,75,29,36,176,5.0,4-18A,major
25059,50,65,32,204,5.0,4-18A,major
25060,54,36,36,392,2.0,4-26,minor
25061,70,28,108,192,8.0,4-26,other
25062,48,65,24,188,8.0,4-26,other
25063,70,29,100,188,0.0,4-26,minor
25064,51,57,84,212,0.0,4-26,minor
25065,57,26,192,144,1.0,3-9,other
25066,66,24,148,36,1.0,3-9,other
25067,51,46,76,196,1.0,3-9,other
25068,66,55,60,88,1.0,3-9,other
25069,65,49,116,68,2.0,4-26,minor
25070,51,48,104,276,2.0,4-26,minor
25071,65,62,76,100,2.0,4-26,minor
25072,67,73,60,116,2.0,4-26,minor
25073,68,104,132,116,2.0,4-26,minor
25074,70,70,72,140,2.0,4-26,minor
25075,72,85,84,120,2.0,4-26,minor
25076,75,71,72,272,0.0,2-4,other
25077,77,81,60,120,0.0,2-4,other
25078,62,28,524,168,8.0,3-1,other
25079,55,50,776,132,10.0,3-9,other
25080,82,89,280,324,10.0,3-9,other
25081,75,76,96,392,2.0,2-2,other
25082,77,55,80,116,2.0,2-2,other
25083,75,53,116,68,2.0,2-2,other
25084,75,65,72,224,2.0,1-1,other
25085,77,57,84,80,2.0,1-1,other
25086,75,50,116,76,2.0,1-1,other
25087,74,52,52,112,2.0,1-1,other
25088,75,67,672,112,2.0,1-1,other
25089,75,56,160,812,0.0,5-20B,other
25090,80,61,84,392,8.0,4-12B,other
25091,74,58,96,540,1.0,1-1,other
25092,62,42,52,100,2.0,2-3,minor
25093,60,28,40,40,2.0,2-3,minor
25094,55,36,140,444,3.0,3-4B,other
25095,79,123,164,988,0.0,4-20,other
25096,75,65,176,168,0.0,4-20,other
25097,77,57,28,596,8.0,3-8B,other
25098,62,38,160,44,8.0,3-8B,other
25099,82,90,212,80,8.0,3-8B,other
25100,55,34,520,292,2.0,4-27A,minor
25101,79,61,96,136,2.0,4-27A,minor
25102,80,40,36,124,2.0,4-27A,minor
25103,79,57,76,56,2.0,4-27A,minor
25104,78,62,56,68,2.0,4-27A,minor
25105,79,84,232,100,2.0,4-27A,minor
25106,78,45,36,264,2.0,4-27A,minor
25107,55,29,396,124,5.0,4-16A,other
25108,84,97,108,240,5.0,4-16A,other
25109,82,58,172,156,5.0,4-16A,other
25110,58,41,520,252,0.0,3-11A,minor
25111,75,51,204,160,0.0,3-11A,minor
25112,75,67,280,340,0.0,3-11A,minor
25113,74,56,56,264,0.0,3-11A,minor
25114,56,29,448,172,3.0,2-4,other
25115,79,71,80,208,3.0,2-4,other
25116,82,55,76,152,3.0,2-4,other
25117,80,55,36,224,3.0,2-4,other
25118,79,54,76,148,3.0,2-4,other
25119,74,64,96,216,3.0,2-4,other
25120,73,42,112,172,3.0,2-4,other
25121,77,55,144,372,3.0,3-11A,other
25122,58,27,48,260,3.0,2-5,other
25123,67,36,48,2308,10.0,3-11B,major
25124,58,60,68,372,9.0,1-1,other
25125,62,59,60,408,7.0,4-26,minor
25126,65,42,36,28,7.0,4-26,minor
25127,70,72,112,704,3.0,5-20B,major
25128,72,70,216,156,3.0,5-20B,major
25129,75,73,128,488,9.0,2-4,major
25130,55,40,280,544,2.0,4-27A,minor
25131,60,43,32,388,5.0,1-1,other
25132,75,32,132,120,5.0,1-1,other
25133,63,55,304,1400,3.0,4-20,major
25134,61,33,236,784,6.0,4-28,diminished
25135,77,91,184,80,6.0,4-28,diminished
25136,75,85,112,280,6.0,4-28,diminished
25137,74,78,176,156,5.0,2-5,other
25138,75,86,136,236,5.0,2-5,other
25139,74,53,196,144,5.0,2-5,other
25140,56,41,216,276,6.0,2-5,other
25141,74,74,208,96,6.0,2-5,other
25142,55,49,508,660,10.0,4-22A,major
25143,72,54,76,168,10.0,4-22A,major
25144,70,55,128,56,10.0,4-22A,major
25145,69,55,68,124,2.0,2-2,other
25146,70,93,232,124,2.0,2-2,other
25147,70,55,212,400,5.0,4-18A,major
25148,68,37,48,1036,3.0,5-21B,other
25149,51,57,72,396,3.0,5-21B,other
25150,49,46,48,352,1.0,5-34,other
25151,49,45,96,360,6.0,4-27A,minor
25152,62,47,412,144,2.0,4-26,minor
25153,70,116,188,1528,2.0,4-26,minor
25154,70,86,88,256,2.0,4-26,minor
25155,69,56,220,132,2.0,4-26,minor
25156,70,87,52,248,2.0,4-26,minor
25157,73,95,100,1928,2.0,4-20,major
25158,72,51,192,160,2.0,4-20,major
25159,55,22,424,312,5.0,2-5,other
25160,65,7,256,44,5.0,2-5,other
25161,69,55,244,28,5.0,2-5,other
25162,70,62,72,228,5.0,2-5,other
25163,72,88,204,120,5.0,2-5,other
25164,74,58,224,416,7.0,4-18B,minor
25165,77,86,60,220,7.0,4-18B,minor
25166,74,55,68,572,1.0,5-38B,other
25167,86,53,40,96,1.0,5-38B,other
25168,74,57,84,80,1.0,5-38B,other
25169,86,47,40,104,1.0,5-38B,other
25170,74,50,104,64,1.0,5-38B,other
25171,86,48,68,104,1.0,5-38B,other
25172,74,51,96,80,1.0,5-38B,other
25173,86,47,64,100,6.0,3-7A,other
25174,74,55,84,68,6.0,3-7A,other
25175,86,51,60,96,6.0,3-7A,other
25176,74,47,88,68,6.0,3-7A,other
25177,86,51,48,100,6.0,3-7A,other
25178,74,55,88,64,6.0,3-7A,other
25179,86,60,96,84,6.0,3-7A,other
25180,74,41,164,80,6.0,3-7A,other
25181,77,6,184,236,7.0,3-9,other
25182,74,9,120,112,7.0,3-9,other
25183,85,23,260,296,9.0,4-4A,minor
25184,58,45,96,168,9.0,5-35,minor
25185,60,48,36,384,6.0,4-6,other
25186,86,68,88,44,6.0,4-6,other
25187,89,6,60,48,6.0,4-6,other
25188,88,38,44,244,2.0,2-2,other
25189,82,43,92,196,2.0,4-23,minor
25190,62,32,56,288,10.0,2-5,other
25191,79,60,92,96,10.0,2-5,other
25192,58,1,140,36,10.0,2-5,other
25193,74,43,204,84,10.0,2-5,other
25194,77,64,68,520,10.0,4-16A,other
25195,72,51,72,116,10.0,4-16A,other
25196,53,32,56,428,10.0,4-16A,other
25197,57,60,32,228,2.0,4-26,minor
25198,54,44,100,120,2.0,4-26,minor
25199,54,48,120,264,3.0,4-27A,other
25200,55,62,100,140,3.0,3-11B,major
25201,51,57,80,132,3.0,3-11B,major
25202,54,57,104,112,6.0,4-27A,minor
25203,51,55,88,140,6.0,4-27A,minor
25204,62,30,32,136,5.0,3-11B,major
25205,48,48,28,156,5.0,3-11B,major
25206,50,71,492,84,7.0,5-32A,minor
25207,52,40,32,1192,1.0,2-2,other
25208,51,68,124,316,1.0,5-34,other
25209,62,46,44,428,7.0,4-23,minor
25210,64,70,112,168,6.0,3-10,diminished
25211,58,58,20,260,6.0,3-10,diminished
25212,58,42,60,708,7.0,4-17,other
25213,69,59,72,2572,7.0,3-11A,minor
25214,70,56,44,116,7.0,3-11A,minor
25215,74,55,32,144,7.0,3-11A,minor
25216,79,74,64,108,7.0,3-11A,minor
25217,82,93,104,124,7.0,3-11A,minor
25218,86,107,116,156,0.0,4-26,minor
25219,82,56,76,112,0.0,4-26,minor
25220,79,70,84,68,0.0,4-26,minor
25221,60,37,72,128,3.0,1-1,other
25222,74,57,36,56,3.0,1-1,other
25223,82,102,68,920,6.0,3-7A,other
25224,63,37,52,84,6.0,3-7A,other
25225,83,80,100,32,6.0,3-7A,other
25226,84,77,60,120,6.0,3-7A,other
25227,85,99,84,124,6.0,3-7A,other
25228,86,111,108,116,6.0,3-7A,other
25229,87,102,120,140,6.0,3-7A,other
25230,85,77,88,120,6.0,3-7A,other
25231,86,102,108,120,6.0,3-7A,other
25232,84,77,100,132,6.0,3-7A,other
25233,81,80,48,140,6.0,3-7A,other
25234,58,1,180,924,10.0,1-1,other
25235,70,65,84,84,10.0,1-1,other
25236,82,51,96,84,10.0,1-1,other
25237,70,47,100,84,10.0,1-1,other
25238,58,33,56,136,10.0,4-16A,other
25239,70,50,92,52,10.0,4-16A,other
25240,82,46,92,84,10.0,4-16A,other
25241,70,53,92,128,10.0,4-16A,other
25242,82,44,36,44,10.0,4-16A,other
25243,60,43,44,28,10.0,4-16A,other
25244,75,31,32,416,2.0,4-26,minor
25245,77,37,116,260,0.0,3-11B,major
25246,72,46,144,216,6.0,3-10,minor
25247,59,41,156,784,0.0,4-23,minor
25248,58,47,76,740,7.0,3-7B,other
25249,65,44,40,56,7.0,3-7B,other
25250,67,84,76,108,7.0,3-7B,other
25251,68,111,112,120,7.0,3-7B,other
25252,70,65,64,148,7.0,3-7B,other
25253,72,67,72,108,7.0,3-7B,other
25254,60,43,204,188,8.0,2-6,other
25255,75,67,60,64,8.0,2-6,other
25256,77,70,76,116,8.0,2-6,other
25257,82,113,156,268,2.0,4-23,minor
25258,82,101,88,244,2.0,4-23,minor
25259,79,64,72,176,2.0,4-23,minor
25260,79,88,64,216,2.0,4-23,minor
25261,74,48,136,168,2.0,4-23,minor
25262,63,52,84,236,7.0,2-2,other
25263,60,24,32,32,7.0,2-2,other
25264,75,61,232,88,7.0,2-2,other
25265,67,66,364,244,7.0,2-2,other
25266,56,29,100,76,7.0,2-2,other
25267,70,56,220,448,3.0,2-5,other
25268,73,64,76,512,8.0,4-27A,diminished
25269,62,43,412,44,8.0,4-27A,diminished
25270,74,92,100,72,8.0,4-27A,diminished
25271,75,86,112,128,8.0,4-27A,diminished
25272,76,92,84,128,8.0,4-27A,diminished
25273,74,67,72,284,5.0,3-9,other
25274,70,56,80,112,5.0,3-9,other
25275,63,46,84,232,7.0,1-1,other
25276,62,54,68,128,7.0,1-1,other
25277,65,88,120,100,7.0,1-1,other
25278,58,41,44,76,7.0,1-1,other
25279,62,56,56,48,7.0,1-1,other
25280,63,69,264,76,7.0,1-1,other
25281,55,68,136,140,7.0,1-1,other
25282,55,82,344,200,7.0,1-1,other
25283,51,44,28,264,7.0,1-1,other
25284,56,70,168,96,7.0,1-1,other
25285,58,64,88,180,7.0,1-1,other
25286,56,56,64,52,7.0,1-1,other
25287,55,61,40,68,7.0,1-1,other
25288,56,58,80,88,7.0,1-1,other
25289,58,56,24,80,7.0,1-1,other
25290,59,62,48,68,7.0,1-1,other
25291,60,50,44,92,7.0,1-1,other
25292,61,60,28,52,7.0,1-1,other
25293,62,62,108,48,7.0,1-1,other
25294,63,70,44,80,7.0,1-1,other
25295,64,76,124,48,7.0,1-1,other
25296,65,91,192,80,7.0,1-1,other
25297,62,86,252,256,7.0,1-1,other
25298,58,83,132,252,7.0,1-1,other
25299,54,64,224,528,7.0,3-11A,minor
25300,66,40,40,32,7.0,3-11A,minor
25301,55,70,60,220,7.0,3-11A,minor
25302,58,65,32,136,10.0,3-11A,other
25303,58,29,36,180,10.0,3-11A,other
25304,65,40,100,216,1.0,2-3,other
25305,66,12,56,1520,3.0,3-11A,other
25306,58,54,100,204,3.0,3-11A,other
25307,73,43,104,168,3.0,3-11A,other
25308,74,48,64,128,3.0,3-11A,other
25309,79,95,88,104,3.0,3-11A,other
25310,73,74,312,144,3.0,3-5B,other
25311,68,19,176,420,0.0,2-3,minor
25312,55,1,244,764,10.0,4-22A,major
25313,72,52,80,32,10.0,4-22A,major
25314,70,51,108,76,10.0,4-22A,major
25315,69,50,76,120,10.0,4-22A,major
25316,70,48,148,124,10.0,4-22A,major
25317,72,68,92,148,10.0,4-22A,major
25318,74,80,100,128,10.0,4-22A,major
25319,75,67,72,132,10.0,4-22A,major
25320,76,70,80,108,10.0,4-22A,major
25321,57,28,52,176,1.0,2-2,other
25322,78,66,76,64,1.0,2-2,other
25323,79,70,40,128,1.0,2-2,other
25324,80,74,96,100,1.0,2-2,other
25325,62,36,108,60,1.0,2-2,other
25326,81,70,88,48,1.0,2-2,other
25327,84,97,112,112,1.0,2-2,other
25328,81,87,72,124,1.0,2-2,other
25329,82,94,132,112,1.0,2-2,other
25330,60,35,44,44,1.0,2-2,other
25331,77,70,120,84,1.0,2-2,other
25332,74,70,64,152,1.0,2-2,other
25333,70,53,108,108,1.0,2-2,other
25334,69,13,188,192,1.0,2-2,other
25335,77,86,292,276,10.0,2-4,major
25336,57,32,48,1060,3.0,2-5,other
25337,67,45,288,168,3.0,2-5,other
25338,63,44,36,212,3.0,2-5,other
25339,57,29,36,28,3.0,2-5,other
25340,75,98,328,68,3.0,2-5,other
25341,74,97,604,372,2.0,3-7A,minor
25342,60,55,56,256,2.0,3-7A,minor
25343,65,44,212,560,10.0,3-12,augmented
25344,64,58,276,384,8.0,2-2,other
25345,57,55,28,236,8.0,2-2,other
25346,63,62,232,108,8.0,2-2,other
25347,62,27,176,432,10.0,2-1,other
25348,58,46,32,208,10.0,2-1,other
25349,60,43,44,492,10.0,2-4,major
25350,61,58,48,116,10.0,2-4,major
25351,62,83,56,120,10.0,2-4,major
25352,65,18,52,636,3.0,4-19A,other
25353,58,62,72,176,0.0,4-26,other
25354,56,56,96,2340,10.0,4-16A,other
25355,54,54,88,744,3.0,4-27A,other
25356,55,50,312,104,3.0,3-11B,major
25357,51,40,108,256,3.0,3-11B,major
25358,84,37,84,884,5.0,2-2,other
25359,85,51,24,56,5.0,2-2,other
25360,86,61,88,44,5.0,2-2,other
25361,91,120,116,420,5.0,2-1,other
25362,89,109,112,184,5.0,2-1,other
25363,86,65,120,176,5.0,2-1,other
25364,89,109,96,188,5.0,2-1,other
25365,82,70,148,164,5.0,2-1,other
25366,55,33,32,200,10.0,2-4,major
25367,82,84,84,308,10.0,2-4,major
25368,86,93,100,104,10.0,2-4,major
25369,60,45,208,164,3.0,3-11B,major
25370,63,20,52,240,3.0,3-11B,major
25371,79,63,88,68,3.0,3-11B,major
25372,82,72,108,136,3.0,3-11B,major
25373,75,78,216,128,3.0,3-11B,major
25374,75,73,100,280,3.0,3-11B,major
25375,79,76,80,132,3.0,3-11B,major
25376,72,73,164,124,3.0,3-11B,major
25377,57,50,308,636,6.0,3-7A,other
25378,55,63,96,3068,10.0,3-9,other
25379,54,58,96,144,10.0,3-9,other
25380,63,42,216,400,0.0,4-26,other
25381,61,45,68,1432,7.0,4-26,minor
25382,68,29,32,1512,0.0,4-27A,minor
25383,57,30,132,164,2.0,3-11A,minor
25384,48,46,264,696,3.0,3-11B,major
25385,51,38,52,276,3.0,3-11B,major
25386,63,51,148,108,6.0,3-11A,minor
25387,51,46,104,164,6.0,3-11A,minor
25388,53,46,468,120,2.0,4-26,minor
25389,41,80,80,336,2.0,4-26,minor
25390,89,98,84,148,2.0,4-26,minor
25391,86,74,56,112,2.0,4-26,minor
25392,87,76,124,100,2.0,4-26,minor
25393,61,28,48,80,2.0,4-26,minor
25394,84,60,60,36,2.0,4-26,minor
25395,81,40,48,84,2.0,4-26,minor
25396,80,74,92,112,2.0,4-26,minor
25397,79,55,64,112,2.0,4-26,minor
25398,77,62,32,148,6.0,2-3,other
25399,76,61,32,72,6.0,2-3,other
25400,75,40,36,80,6.0,2-3,other
25401,74,48,28,72,6.0,2-3,other
25402,72,57,48,64,6.0,2-3,other
25403,74,81,172,100,6.0,2-3,other
25404,75,60,40,160,6.0,2-3,other
25405,76,70,60,56,6.0,2-3,other
25406,77,91,68,76,6.0,2-3,other
25407,74,81,176,104,6.0,2-3,other
25408,70,70,88,236,6.0,2-3,other
25409,65,46,672,148,6.0,2-3,other
25410,63,34,152,1024,3.0,3-4B,other
25411,70,94,272,460,3.0,2-4,major
25412,69,61,88,292,3.0,2-4,major
25413,63,35,112,36,3.0,2-4,major
25414,70,58,228,84,3.0,2-4,major
25415,74,58,160,420,5.0,2-5,other
25416,74,82,84,216,5.0,2-5,other
25417,69,43,144,148,5.0,2-5,other
25418,57,37,40,1780,6.0,3-7A,other
25419,63,52,28,364,6.0,3-7A,other
25420,60,55,160,148,3.0,3-4B,other
25421,60,37,42,664,3.0,2-4,major
25422,83,64,96,612,0.0,2-4,other
25423,84,84,88,128,0.0,2-4,other
25424,60,24,148,80,2.0,2-4,major
25425,85,76,88,56,2.0,2-4,major
25426,86,79,96,120,2.0,2-4,major
25427,55,26,496,196,2.0,2-2,other
25428,80,69,144,72,2.0,2-2,other
25429,81,68,84,124,2.0,2-2,other
25430,82,74,80,120,2.0,2-2,other
25431,74,64,96,124,2.0,2-2,other
25432,75,50,112,116,2.0,2-2,other
25433,76,54,92,116,2.0,2-2,other
25434,77,63,68,136,2.0,2-2,other
25435,72,35,36,148,2.0,2-2,other
25436,73,48,34,110,2.0,2-2,other
25437,60,68,24,378,5.0,3-5B,other
25438,57,19,56,52,5.0,3-5B,other
25439,73,66,72,96,5.0,3-5B,other
25440,74,80,60,128,5.0,3-5B,other
25441,65,56,80,280,11.0,2-2,other
25442,62,79,76,140,11.0,2-2,other
25443,59,73,72,140,11.0,2-2,other
25444,67,88,112,240,11.0,2-2,other
25445,70,99,96,116,11.0,2-2,other
25446,63,89,104,164,11.0,2-2,other
25447,60,64,64,124,11.0,2-2,other
25448,58,54,108,120,11.0,2-2,other
25449,62,77,76,368,1.0,1-1,other
25450,64,71,88,240,3.0,1-1,other
25451,65,91,96,112,3.0,1-1,other
25452,53,53,308,52,3.0,1-1,other
25453,63,71,200,92,3.0,1-1,other
25454,58,26,68,808,2.0,2-3,minor
25455,62,54,184,1100,7.0,3-7A,minor
25456,51,56,108,280,7.0,3-7A,minor
25457,54,47,32,760,0.0,3-11B,other
25458,58,54,36,1504,5.0,3-9,other
25459,70,71,204,108,5.0,3-9,other
25460,70,51,156,456,1.0,4-13B,other
25461,63,17,100,720,0.0,5-27B,other
25462,71,64,184,812,2.0,3-4A,major
25463,60,41,144,248,8.0,3-10,other
25464,55,17,348,44,8.0,3-10,other
25465,67,44,176,100,8.0,3-10,other
25466,70,55,164,380,0.0,2-4,other
25467,73,56,64,352,5.0,4-20,other
25468,75,57,24,100,5.0,4-20,other
25469,76,56,60,64,5.0,4-20,other
25470,78,63,24,72,5.0,4-20,other
25471,79,61,56,84,5.0,4-20,other
25472,81,62,80,64,5.0,4-20,other
25473,82,64,28,80,5.0,4-20,other
25474,83,54,64,60,5.0,4-20,other
25475,84,85,84,92,5.0,4-20,other
25476,82,78,32,108,5.0,4-20,other
25477,79,73,52,152,5.0,4-20,other
25478,75,76,64,124,5.0,4-20,other
25479,72,45,36,132,5.0,4-20,other
25480,67,55,84,252,5.0,4-20,other
25481,56,39,120,144,3.0,3-4A,other
25482,68,50,92,108,3.0,3-4A,other
25483,53,41,40,176,3.0,2-5,other
25484,59,30,72,152,3.0,2-5,other
25485,51,56,84,184,3.0,2-5,other
25486,55,47,136,132,7.0,3-11A,minor
25487,49,50,72,264,7.0,3-11A,minor
25488,51,44,92,388,6.0,3-11A,minor
25489,55,58,64,780,10.0,3-9,other
25490,48,60,80,764,5.0,1-1,other
25491,86,62,56,372,5.0,1-1,other
25492,48,48,80,36,5.0,1-1,other
25493,79,54,28,112,5.0,1-1,other
25494,53,32,124,1156,7.0,3-11A,minor
25495,82,70,168,1136,3.0,3-11B,major
25496,87,36,32,404,6.0,4-27A,minor
25497,55,39,88,1168,10.0,3-11B,major
25498,75,26,28,2572,5.0,1-1,other
25499,72,67,48,160,3.0,2-5,other
25500,67,73,104,216,0.0,3-4A,other
25501,72,13,48,264,8.0,2-3,other
25502,67,40,160,1400,10.0,2-4,major
25503,58,46,56,224,10.0,2-4,major
25504,62,32,36,920,9.0,2-3,minor
25505,53,49,88,88,9.0,2-3,minor
25506,50,25,180,128,9.0,2-3,minor
25507,57,73,36,84,9.0,2-3,minor
25508,51,61,108,408,3.0,2-4,major
25509,50,52,68,316,7.0,4-26,minor
25510,46,55,80,280,3.0,3-11B,major
25511,46,58,88,212,5.0,3-11B,other
25512,58,50,136,140,7.0,3-7B,other
25513,49,61,68,864,7.0,4-26,minor
25514,62,64,68,128,7.0,4-26,minor
25515,63,58,80,132,7.0,4-26,minor
25516,64,70,96,120,7.0,4-26,minor
25517,62,55,64,272,5.0,2-5,other
25518,63,62,84,128,5.0,2-5,other
25519,64,51,80,132,5.0,2-5,other
25520,65,65,88,116,5.0,2-5,other
25521,63,58,48,268,7.0,3-11A,minor
25522,64,53,72,140,7.0,3-11A,minor
25523,65,87,92,112,7.0,3-11A,minor
25524,62,58,72,152,7.0,3-11A,minor
25525,63,54,64,120,7.0,3-11A,minor
25526,55,43,32,144,10.0,2-4,major
25527,58,65,68,328,10.0,2-4,major
25528,62,62,48,156,10.0,2-4,major
25529,63,64,72,116,10.0,2-4,major
25530,57,52,40,140,4.0,2-1,other
25531,65,68,76,124,4.0,2-1,other
25532,62,50,44,136,4.0,2-1,other
25533,64,62,56,244,0.0,2-3,minor
25534,65,66,68,124,0.0,2-3,minor
25535,66,75,92,124,0.0,2-3,minor
25536,60,50,32,52,0.0,2-3,minor
25537,67,65,176,92,0.0,2-3,minor
25538,66,57,100,236,0.0,2-3,minor
25539,67,49,156,152,0.0,2-3,minor
25540,69,70,100,232,0.0,2-3,minor
25541,70,65,188,156,0.0,2-3,minor
25542,70,58,96,376,7.0,3-2B,minor
25543,52,27,584,260,3.0,2-5,other
25544,58,61,256,380,3.0,2-5,other
25545,74,56,76,304,1.0,1-1,other
25546,86,42,36,108,1.0,1-1,other
25547,74,53,124,72,1.0,1-1,other
25548,86,40,88,112,1.0,1-1,other
25549,74,55,92,100,1.0,1-1,other
25550,86,51,52,1524,2.0,6-5B,other
25551,62,55,116,204,8.0,3-2A,other
25552,60,41,36,752,7.0,2-5,other
25553,50,28,60,1172,6.0,5-38A,diminished
25554,69,68,28,236,9.0,2-5,other
25555,64,47,52,1544,5.0,3-9,other
25556,72,52,148,896,3.0,3-7A,other
25557,74,122,744,1892,3.0,3-11B,major
25558,72,76,264,760,3.0,3-11B,major
25559,69,68,56,284,3.0,3-11B,major
25560,53,48,32,424,3.0,3-11B,major
25561,48,72,28,1880,11.0,2-1,other
25562,60,65,156,144,11.0,2-1,other
25563,29,71,96,224,11.0,2-1,other
25564,53,50,180,188,11.0,2-1,other
25565,55,44,32,244,11.0,2-1,other
25566,60,60,44,944,10.0,1-1,other
25567,58,53,92,44,10.0,1-1,other
25568,62,44,76,352,0.0,1-1,other
25569,63,56,56,80,0.0,1-1,other
25570,64,50,36,72,0.0,1-1,other
25571,64,68,76,884,5.0,2-1,other
25572,62,51,56,188,3.0,2-1,other
25573,74,88,160,316,2.0,2-3,minor
25574,65,39,152,732,8.0,1-1,other
25575,51,55,80,604,5.0,1-1,other
25576,51,47,76,380,3.0,2-4,major
25577,51,48,72,368,10.0,3-11B,other
25578,63,61,68,1808,2.0,1-1,other
25579,51,51,68,28,2.0,1-1,other
25580,62,64,56,348,5.0,1-1,other
25581,50,54,144,40,5.0,1-1,other
25582,66,83,72,348,5.0,1-1,other
25583,54,55,84,28,5.0,1-1,other
25584,70,64,68,200,7.0,1-1,other
25585,75,81,124,524,2.0,2-2,other
25586,63,55,64,28,2.0,2-2,other
25587,65,64,60,744,8.0,1-1,other
25588,70,90,84,124,8.0,1-1,other
25589,58,70,64,40,8.0,1-1,other
25590,71,91,76,384,8.0,2-2,other
25591,59,60,96,28,8.0,2-2,other
25592,62,45,64,384,5.0,1-1,other
25593,58,66,132,712,3.0,1-1,other
25594,46,46,60,60,3.0,1-1,other
25595,51,53,88,1248,2.0,1-1,other
25596,63,48,68,68,2.0,1-1,other
25597,62,61,88,32,2.0,1-1,other
25598,60,67,80,100,2.0,1-1,other
25599,47,46,68,48,2.0,1-1,other
25600,62,48,136,540,2.0,2-2,other
25601,63,64,188,208,2.0,2-2,other
25602,51,39,104,36,2.0,2-2,other
25603,60,55,128,152,2.0,2-2,other
25604,48,15,128,100,2.0,2-2,other
25605,67,69,52,568,6.0,1-1,other
25606,68,54,56,60,6.0,1-1,other
25607,69,51,40,72,6.0,1-1,other
25608,71,61,56,128,10.0,1-1,other
25609,71,51,64,1064,3.0,1-1,other
25610,59,32,52,32,3.0,1-1,other
25611,68,58,92,340,11.0,1-1,other
25612,63,55,24,128,11.0,1-1,other
25613,55,39,32,44,11.0,1-1,other
25614,74,83,124,88,11.0,1-1,other
25615,62,42,72,36,11.0,1-1,other
25616,70,57,56,100,11.0,1-1,other
25617,70,43,40,296,1.0,3-10,minor
25618,56,40,64,132,1.0,3-10,minor
25619,55,53,216,896,10.0,3-9,other
25620,64,39,60,264,6.0,2-3,minor
25621,73,52,40,980,5.0,2-5,other
25622,74,51,100,72,5.0,2-5,other
25623,77,104,88,168,5.0,2-5,other
25624,74,55,140,168,5.0,2-5,other
25625,65,57,228,340,5.0,2-5,other
25626,65,56,80,400,5.0,2-5,other
25627,67,55,36,140,5.0,2-5,other
25628,72,70,76,216,9.0,1-1,other
25629,60,43,48,28,9.0,1-1,other
25630,69,58,36,68,9.0,1-1,other
25631,57,39,36,84,9.0,1-1,other
25632,74,70,44,132,10.0,1-1,other
25633,78,60,88,88,10.0,1-1,other
25634,81,92,96,120,10.0,1-1,other
25635,69,45,36,36,10.0,1-1,other
25636,78,70,36,76,10.0,1-1,other
25637,66,40,40,28,10.0,1-1,other
25638,81,67,104,140,7.0,1-1,other
25639,69,32,72,36,7.0,1-1,other
25640,83,45,36,168,10.0,1-1,other
25641,70,47,32,140,2.0,1-1,other
25642,80,94,128,656,6.0,1-1,other
25643,68,69,48,28,6.0,1-1,other
25644,67,48,32,1532,10.0,1-1,other
25645,73,53,120,232,2.0,1-1,other
25646,72,43,76,80,2.0,1-1,other
25647,71,51,56,296,2.0,1-1,other
25648,59,30,40,28,2.0,1-1,other
25649,60,39,40,1100,3.0,1-1,other
25650,65,78,204,112,3.0,1-1,other
25651,53,50,156,36,3.0,1-1,other
25652,62,64,88,312,1.0,1-1,other
25653,50,55,96,32,1.0,1-1,other
25654,60,70,76,624,3.0,1-1,other
25655,56,56,32,100,3.0,1-1,other
25656,44,45,32,124,3.0,1-1,other
25657,53,43,32,40,3.0,1-1,other
25658,58,76,88,92,3.0,1-1,other
25659,55,72,168,360,10.0,1-1,other
25660,43,51,104,64,10.0,1-1,other
25661,44,51,68,568,7.0,1-1,other
25662,53,5,68,600,2.0,1-1,other
25663,59,45,40,372,6.0,3-7A,other
25664,57,35,56,712,5.0,3-7B,other
25665,51,47,100,996,6.0,4-23,minor
25666,51,42,100,780,6.0,4-23,minor
25667,51,45,100,768,6.0,4-23,minor
25668,63,51,152,512,7.0,2-3,minor
25669,48,45,28,284,0.0,4-26,minor
25670,70,53,164,528,5.0,2-4,major
25671,73,53,168,392,9.0,2-4,major
25672,61,34,200,248,6.0,2-3,other
25673,78,73,176,112,6.0,2-3,other
25674,55,37,484,260,2.0,4-27A,minor
25675,77,62,244,104,2.0,4-27A,minor
25676,74,64,228,352,2.0,4-27A,minor
25677,77,78,68,680,7.0,4-26,minor
25678,74,56,100,500,3.0,2-5,other
25679,86,62,76,104,3.0,2-5,other
25680,74,57,108,104,3.0,2-5,other
25681,61,32,44,100,3.0,2-5,other
25682,84,62,172,44,3.0,2-5,other
25683,72,67,168,32,3.0,2-5,other
25684,57,37,100,280,3.0,3-11A,other
25685,81,53,128,156,3.0,3-11A,other
25686,86,76,84,496,3.0,3-11A,other
25687,89,94,92,116,3.0,3-11A,other
25688,86,64,136,148,3.0,3-11A,other
25689,86,78,272,796,1.0,5-20A,other
25690,62,42,164,336,8.0,3-6,other
25691,86,107,168,1252,5.0,4-8,other
25692,80,64,88,252,5.0,2-5,other
25693,66,42,36,408,5.0,2-5,other
25694,57,68,100,340,2.0,4-26,minor
25695,58,29,184,512,3.0,3-11B,major
25696,51,43,112,168,3.0,3-11B,major
25697,61,54,212,128,6.0,3-10,minor
25698,51,47,68,196,6.0,3-10,minor
25699,53,46,612,80,2.0,4-26,minor
25700,41,73,324,476,2.0,4-26,minor
25701,48,60,92,292,2.0,4-26,minor
25702,51,50,84,752,6.0,4-27A,minor
25703,48,54,52,420,2.0,4-26,minor
25704,55,41,160,100,10.0,4-17,major
25705,51,61,84,268,10.0,4-17,major
25706,63,37,244,116,7.0,5-32A,minor
25707,63,23,144,420,7.0,4-18B,minor
25708,49,55,120,188,7.0,4-18B,minor
25709,51,49,84,808,6.0,4-27A,minor
25710,61,38,56,776,3.0,3-11B,major
25711,55,39,116,208,10.0,3-11B,major
25712,58,40,60,1684,0.0,5-27B,minor
25713,70,29,32,132,0.0,3-11A,minor
25714,57,43,128,416,3.0,3-11B,major
25715,72,62,48,196,3.0,3-11B,major
25716,67,39,36,412,3.0,2-5,other
25717,65,67,124,484,1.0,1-1,other
25718,62,51,64,276,2.0,1-1,other
25719,56,43,100,144,7.0,4-19A,minor
25720,62,23,88,92,7.0,4-19A,minor
25721,74,53,24,268,2.0,2-5,other
25722,69,26,60,192,2.0,1-1,other
25723,77,22,104,1284,6.0,4-6,other
25724,65,9,100,40,6.0,4-6,other
25725,70,68,88,1196,2.0,2-1,other
25726,51,45,36,564,6.0,2-6,other
25727,62,40,208,248,5.0,3-11B,major
25728,60,26,56,816,7.0,3-3A,minor
25729,56,56,340,180,0.0,4-22A,other
25730,53,51,96,356,0.0,4-22A,other
25731,60,50,84,2436,3.0,2-5,other
25732,54,51,80,260,3.0,2-5,other
25733,54,25,332,136,10.0,3-11B,major
25734,51,36,60,292,10.0,3-11B,major
25735,53,64,80,1504,0.0,4-26,minor
25736,46,48,456,772,5.0,3-11A,other
25737,62,22,392,40,5.0,3-11A,other
25738,53,70,132,324,5.0,3-11A,other
25739,67,64,64,752,6.0,2-3,other
25740,64,51,80,36,6.0,2-3,other
25741,70,67,32,112,6.0,2-3,minor
25742,72,73,48,72,6.0,2-3,minor
25743,73,58,40,76,6.0,2-3,minor
25744,75,65,28,48,6.0,2-3,minor
25745,76,68,68,80,6.0,2-3,minor
25746,77,56,40,76,6.0,2-3,minor
25747,75,76,28,176,4.0,2-3,minor
25748,77,126,136,1248,4.0,2-3,minor
25749,60,28,68,64,4.0,2-3,minor
25750,75,70,152,136,4.0,2-3,minor
25751,68,51,116,352,3.0,3-8B,other
25752,51,43,92,1004,6.0,4-26,minor
25753,63,51,264,112,5.0,3-11A,other
25754,51,48,108,248,5.0,3-11A,other
25755,41,66,708,812,7.0,4-23,minor
25756,48,27,248,376,7.0,4-23,minor
25757,73,70,100,200,7.0,4-23,minor
25758,74,75,80,108,7.0,4-23,minor
25759,75,70,44,80,7.0,4-23,minor
25760,76,46,28,64,7.0,4-23,minor
25761,77,89,60,72,7.0,4-23,minor
25762,79,114,96,196,7.0,4-23,minor
25763,76,77,80,140,7.0,4-23,minor
25764,77,83,68,128,7.0,4-23,minor
25765,73,80,64,288,7.0,4-23,minor
25766,75,98,100,108,7.0,4-23,minor
25767,73,78,68,128,7.0,4-23,minor
25768,74,95,112,112,7.0,4-23,minor
25769,69,80,72,152,7.0,4-23,minor
25770,72,101,160,252,7.0,4-23,minor
25771,68,40,152,1152,1.0,2-3,other
25772,78,75,104,344,3.0,2-5,other
25773,66,55,56,32,3.0,2-5,other
25774,80,81,64,216,3.0,2-5,other
25775,73,67,52,124,3.0,2-5,other
25776,72,32,88,104,7.0,3-7B,other
25777,61,34,48,216,7.0,3-7B,other
25778,65,40,56,504,2.0,2-3,minor
25779,70,22,40,1164,0.0,3-11A,minor
25780,57,51,184,360,3.0,2-5,other
25781,65,42,32,1412,1.0,1-1,other
25782,62,47,388,376,0.0,4-11A,other
25783,53,37,44,392,0.0,4-11A,other
25784,46,33,40,368,7.0,4-23,minor
25785,74,122,364,1120,8.0,4-22B,other
25786,50,31,196,156,2.0,2-2,other
25787,46,38,156,408,11.0,1-1,other
25788,70,25,64,64,11.0,1-1,other
25789,70,63,92,896,6.0,1-1,other
25790,69,50,172,156,6.0,1-1,other
25791,41,65,247,0,,,
25792,72,48,93,92,,,
25793,79,75,186,41,,,
25794,81,75,58,56,,,
25795,84,84,166,61,,,
25796,72,64,416,59,,,
25797,79,60,361,59,,,
25798,81,69,21,55,,,
25799,81,65,127,64,,,
25800,60,38,279,60,,,
25801,69,54,16,122,7.0,2-3,minor
25802,72,67,56,61,7.0,2-3,minor
25803,67,83,65,59,7.0,2-3,minor
25804,69,70,56,64,7.0,2-3,minor
25805,72,61,68,49,7.0,2-3,minor
25806,74,51,96,66,7.0,2-3,minor
25807,65,56,130,68,7.0,2-3,minor
25808,70,77,76,55,7.0,2-3,minor
25809,72,93,55,57,7.0,2-3,minor
25810,74,92,124,56,7.0,2-3,minor
25811,69,85,83,61,7.0,2-3,minor
25812,70,90,59,64,7.0,2-3,minor
25813,72,81,67,52,7.0,2-3,minor
25814,56,48,91,129,11.0,2-3,minor
25815,77,58,17,246,8.0,4-28,diminished
25816,77,59,15,52,8.0,4-28,diminished
25817,76,63,28,69,8.0,4-28,diminished
25818,67,49,45,412,10.0,5-27A,major
25819,41,73,84,603,5.0,1-1,other
25820,60,62,18,54,5.0,1-1,other
25821,50,69,70,482,7.0,4-14A,minor
25822,36,66,17,185,7.0,3-11A,minor
25823,41,68,47,237,1.0,4-12A,minor
25824,60,60,18,59,1.0,4-12A,minor
25825,54,98,51,483,10.0,4-20,major
25826,55,99,82,59,10.0,4-20,major
25827,46,81,33,54,10.0,4-20,major
25828,52,62,26,120,7.0,3-9,other
25829,45,54,17,109,6.0,2-6,other
25830,43,55,46,78,6.0,2-6,other
25831,50,53,65,52,6.0,2-6,other
25832,65,73,31,28,6.0,2-6,other
25833,54,73,96,196,2.0,2-5,other
25834,53,52,70,255,10.0,3-6,major
25835,58,71,14,130,2.0,2-3,minor
25836,47,79,33,58,2.0,2-3,minor
25837,56,44,130,55,2.0,2-3,minor
25838,56,54,65,239,2.0,2-2,other
25839,48,59,12,119,5.0,3-11B,major
25840,69,64,44,125,9.0,5-16A,other
25841,69,63,54,62,9.0,5-16A,other
25842,67,60,20,61,9.0,5-16A,other
25843,50,75,62,123,5.0,3-4B,other
25844,42,78,26,111,1.0,4-26,other
25845,39,94,65,57,1.0,4-26,other
25846,53,80,130,486,10.0,3-4B,other
25847,53,71,80,298,1.0,3-7A,other
25848,63,86,17,238,3.0,1-1,other
25849,52,68,55,245,0.0,4-19B,other
25850,55,86,67,120,5.0,3-9,other
25851,56,102,67,59,5.0,3-9,other
25852,60,73,118,120,10.0,2-5,other
25853,70,71,19,94,10.0,2-5,other
25854,57,54,57,87,2.0,2-5,other
25855,60,56,54,58,2.0,2-5,other
25856,50,59,200,58,2.0,2-5,other
25857,62,55,25,125,8.0,4-28,diminished
25858,74,83,18,115,2.0,4-26,minor
25859,55,61,59,124,0.0,3-4A,major
25860,59,73,7,61,0.0,3-4A,major
25861,62,60,8,531,2.0,4-14A,minor
25862,31,72,42,67,2.0,4-14A,minor
25863,74,66,19,66,2.0,4-14A,minor
25864,74,64,14,111,8.0,4-28,diminished
25865,84,73,10,124,7.0,5-35,minor
25866,48,53,17,112,0.0,1-1,other
25867,36,44,8,187,1.0,4-12A,minor
25868,41,64,124,122,1.0,4-12A,minor
25869,60,58,16,64,1.0,4-12A,minor
25870,48,69,98,237,9.0,4-23,minor
25871,55,46,15,238,10.0,5-27A,major
25872,48,69,118,119,10.0,1-1,other
25873,48,75,193,123,0.0,4-27B,major
25874,67,90,46,297,0.0,1-1,other
25875,69,83,16,51,0.0,1-1,other
25876,67,55,16,129,0.0,4-26,minor
25877,41,66,11,60,0.0,4-26,minor
25878,46,74,20,298,7.0,1-1,other
25879,57,66,114,119,0.0,4-22A,major
25880,55,55,41,244,7.0,2-5,other
25881,70,78,41,299,2.0,2-5,other
25882,62,57,53,178,2.0,2-3,minor
25883,56,75,55,121,11.0,3-10,diminished
25884,56,67,195,64,11.0,3-10,diminished
25885,65,36,11,53,11.0,3-10,diminished
25886,67,52,81,543,9.0,4-27B,major
25887,57,56,140,161,2.0,2-3,minor
25888,67,68,84,78,2.0,2-3,minor
25889,69,58,70,54,2.0,2-3,minor
25890,72,63,54,188,10.0,2-5,other
25891,68,72,13,94,7.0,2-3,minor
25892,57,57,136,86,5.0,3-11B,major
25893,48,66,11,102,5.0,2-5,other
25894,69,55,10,145,2.0,5-27B,minor
25895,65,50,22,110,5.0,5-27A,major
25896,69,100,23,134,7.0,5-27B,minor
25897,69,58,25,107,10.0,3-4A,major
25898,67,53,22,121,9.0,5-10B,other
25899,67,49,27,95,9.0,2-2,other
25900,41,50,10,0,,,
25901,91,89,114,262,5.0,4-20,major
25902,83,74,122,378,0.0,4-20,major
25903,84,65,121,369,5.0,5-20B,major
25904,41,75,46,499,0.0,4-20,major
25905,76,94,87,1819,5.0,4-20,major
25906,76,78,61,107,5.0,4-20,major
25907,76,64,271,324,0.0,4-20,major
25908,41,46,29,116,0.0,4-20,major
25909,76,101,71,193,5.0,4-20,major
25910,74,87,53,61,5.0,4-20,major
25911,72,70,52,58,5.0,4-20,major
25912,41,43,18,436,0.0,4-20,major
25913,67,37,55,699,7.0,3-11B,major
25914,100,71,67,679,0.0,2-4,major
25915,103,73,44,64,0.0,2-4,major
25916,103,58,38,62,0.0,2-4,major
25917,95,43,115,309,5.0,4-20,major
25918,96,62,146,383,0.0,4-20,major
25919,36,49,19,495,5.0,4-20,major
25920,72,91,73,207,0.0,4-20,major
25921,71,85,63,64,0.0,4-20,major
25922,69,74,64,61,0.0,4-20,major
25923,67,78,100,332,5.0,4-20,major
25924,71,82,122,388,0.0,4-20,major
25925,69,60,53,784,5.0,4-20,major
25926,72,69,54,66,5.0,4-20,major
25927,74,68,57,63,5.0,4-20,major
25928,72,44,73,333,0.0,4-20,major
25929,69,32,65,71,0.0,4-20,major
25930,31,42,379,756,5.0,4-22A,major
25931,103,82,106,831,5.0,4-20,major
25932,95,64,120,383,0.0,4-20,major
25933,96,70,47,366,5.0,5-20B,major
25934,41,59,18,484,0.0,4-20,major
25935,76,88,99,219,5.0,4-20,major
25936,76,65,57,117,5.0,4-20,major
25937,76,63,413,153,0.0,2-4,major
25938,76,92,55,483,5.0,4-20,major
25939,72,80,52,119,4.0,2-2,other
25940,41,36,18,434,0.0,4-20,major
25941,72,90,52,190,5.0,4-20,major
25942,71,81,51,58,5.0,4-20,major
25943,69,85,56,56,5.0,4-20,major
25944,67,59,45,360,0.0,2-5,other
25945,71,57,125,311,5.0,4-20,major
25946,76,85,57,391,0.0,4-20,major
25947,79,73,30,69,0.0,4-20,major
25948,72,96,70,1416,0.0,4-20,major
25949,71,89,59,60,0.0,4-20,major
25950,69,73,46,60,0.0,4-20,major
25951,67,61,47,331,5.0,4-20,major
25952,71,57,30,394,0.0,3-11B,major
25953,62,40,44,279,4.0,5-35,minor
25954,57,65,24,491,2.0,3-11A,minor
25955,60,78,40,61,2.0,3-11A,minor
25956,62,74,39,58,2.0,3-11A,minor
25957,64,46,66,404,0.0,2-5,other
25958,60,32,28,1154,7.0,5-31B,major
25959,61,60,26,32,7.0,5-31B,major
25960,72,73,52,422,9.0,2-5,other
25961,53,43,14,140,5.0,2-5,other
25962,56,50,210,54,5.0,2-5,other
25963,60,34,83,54,5.0,2-5,other
25964,71,71,49,211,4.0,3-7A,minor
25965,57,33,10,287,2.0,3-7A,minor
25966,71,60,63,377,2.0,4-23,minor
25967,59,36,170,1529,4.0,3-7B,other
25968,62,39,71,96,4.0,3-7B,other
25969,79,51,54,93,4.0,3-7B,other
25970,55,51,56,806,0.0,5-27B,other
25971,60,35,75,147,0.0,4-26,minor
25972,75,48,17,152,5.0,2-2,other
25973,31,37,43,310,2.0,5-35,minor
25974,67,38,262,158,2.0,5-35,minor
25975,103,71,94,653,5.0,4-20,major
25976,95,51,119,377,0.0,4-20,major
25977,96,38,84,379,5.0,5-20B,major
25978,41,47,24,2014,0.0,4-20,major
25979,76,90,59,264,5.0,4-20,major
25980,76,80,66,80,5.0,4-20,major
25981,76,63,75,81,0.0,1-1,other
25982,76,62,275,194,0.0,3-4A,major
25983,41,50,34,153,0.0,3-4A,major
25984,41,47,19,764,4.0,3-11A,minor
25985,100,60,69,1359,0.0,4-20,major
25986,103,74,33,78,0.0,4-20,major
25987,79,75,34,1942,5.0,5-27A,major
25988,77,57,44,355,7.0,3-11A,minor
25989,77,85,136,951,9.0,2-3,minor
25990,69,48,34,146,9.0,2-3,minor
25991,74,71,32,41,9.0,2-3,minor
25992,71,63,67,801,4.0,4-26,minor
25993,76,52,181,1440,5.0,4-22A,major
25994,72,24,131,183,5.0,4-22A,major
25995,88,59,92,950,5.0,4-20,major
25996,91,57,45,85,5.0,4-20,major
25997,83,64,27,331,0.0,3-11B,major
25998,98,74,44,818,0.0,3-4A,major
25999,91,38,46,35,0.0,3-4A,major
26000,95,66,43,38,0.0,3-4A,major
26001,91,50,45,102,2.0,5-27B,minor
26002,83,53,19,43,2.0,5-27B,minor
26003,95,55,132,547,0.0,4-20,major
26004,96,45,55,112,0.0,4-20,major
26005,101,72,122,58,0.0,4-20,major
26006,41,46,37,36,0.0,4-20,major
26007,100,73,66,51,0.0,4-20,major
26008,91,50,62,56,0.0,4-20,major
26009,96,67,36,127,0.0,3-6,major
26010,86,56,35,48,0.0,3-6,major
26011,95,67,36,43,0.0,3-6,major
26012,93,65,162,38,0.0,3-6,major
26013,83,36,50,99,0.0,2-4,major
26014,83,36,374,207,0.0,3-4A,major
26015,95,38,125,66,0.0,3-4A,major
26016,88,37,185,133,5.0,2-1,other
26017,36,36,9,310,5.0,4-20,major
26018,95,37,46,258,4.0,2-5,other
26019,98,60,13,575,0.0,2-4,major
26020,95,42,55,282,0.0,3-4A,major
26021,41,30,246,919,0.0,4-20,major
26022,24,34,819,520,5.0,4-20,major
26023,81,101,6,0,0.0,2-5,other
26024,72,60,7,63,2.0,3-7A,minor
26025,81,73,14,98,10.0,4-20,major
26026,72,76,29,794,10.0,2-1,other
26027,69,54,18,64,5.0,4-21,major
26028,65,66,40,58,3.0,2-1,other
26029,84,104,23,527,7.0,4-14A,minor
26030,82,70,20,34,7.0,4-14A,minor
26031,78,75,40,122,10.0,3-4A,major
26032,74,63,29,33,10.0,3-4A,major
26033,69,54,19,198,2.0,2-2,other
26034,74,48,22,149,2.0,2-1,other
26035,77,65,49,34,2.0,2-1,other
26036,64,52,11,596,5.0,4-20,major
26037,81,77,12,63,9.0,4-29A,minor
26038,81,79,14,36,9.0,4-29A,minor
26039,81,61,13,87,9.0,4-18A,major
26040,76,66,22,269,2.0,4-23,minor
26041,73,94,42,108,0.0,5-33,augmented
26042,60,50,28,245,2.0,5-35,minor
26043,70,67,48,479,10.0,4-20,major
26044,72,50,9,257,0.0,1-1,other
26045,72,56,9,26,0.0,1-1,other
26046,72,57,8,63,0.0,4-21,major
26047,57,46,21,198,5.0,3-11B,major
26048,60,56,9,32,5.0,3-11B,major
26049,74,27,22,136,3.0,4-20,major
26050,75,81,13,112,2.0,2-5,other
26051,77,69,19,27,2.0,2-5,other
26052,78,79,21,34,2.0,2-5,other
26053,57,60,24,195,2.0,2-4,major
26054,50,61,20,26,2.0,2-4,major
26055,48,72,16,65,9.0,4-26,minor
26056,49,47,29,35,9.0,4-26,minor
26057,38,57,11,86,2.0,3-8A,major
26058,69,57,30,357,2.0,2-4,major
26059,70,59,155,31,2.0,2-4,major
26060,72,61,30,151,10.0,2-4,major
26061,72,70,16,616,2.0,2-2,other
26062,72,58,29,39,2.0,2-2,other
26063,81,65,9,28,2.0,2-2,other
26064,81,68,10,30,2.0,2-2,other
26065,81,61,52,89,9.0,4-18A,major
26066,53,52,132,421,9.0,4-23,minor
26067,65,88,39,184,5.0,2-4,major
26068,65,65,40,118,1.0,5-38B,minor
26069,66,73,125,99,5.0,3-3B,other
26070,58,45,71,328,1.0,4-22A,other
26071,70,63,6,157,3.0,4-20,other
26072,60,15,164,324,5.0,3-11B,other
26073,65,96,25,1978,4.0,3-2A,minor
26074,74,104,20,37,4.0,3-2A,minor
26075,69,70,45,64,2.0,2-2,other
26076,68,65,28,40,2.0,2-2,other
26077,74,63,15,216,11.0,2-3,minor
26078,84,72,19,120,10.0,4-22A,major
26079,84,75,31,57,10.0,4-22A,major
26080,84,72,40,62,10.0,4-22A,major
26081,60,59,9,387,2.0,5-35,minor
26082,67,102,11,26,2.0,5-35,minor
26083,69,105,37,52,2.0,5-35,minor
26084,72,115,187,57,2.0,5-35,minor
26085,60,77,94,68,2.0,5-35,minor
26086,67,82,90,70,2.0,5-35,minor
26087,69,72,37,53,2.0,5-35,minor
26088,69,61,136,62,2.0,5-35,minor
26089,70,59,233,106,2.0,5-35,minor
26090,60,57,17,461,5.0,4-22A,major
26091,67,66,48,42,5.0,4-22A,major
26092,69,73,18,55,5.0,4-22A,major
26093,67,67,33,119,0.0,4-26,minor
26094,72,70,7,120,2.0,4-18A,major
26095,58,62,57,350,2.0,4-27B,major
26096,57,59,77,61,2.0,4-27B,major
26097,50,55,14,55,2.0,4-27B,major
26098,43,63,40,71,2.0,4-27B,major
26099,50,52,221,61,2.0,4-27B,major
26100,58,53,92,62,2.0,4-27B,major
26101,72,86,135,89,10.0,2-4,major
26102,54,55,143,101,2.0,2-5,other
26103,60,46,82,52,2.0,2-5,other
26104,53,61,92,165,10.0,2-4,major
26105,58,49,29,157,5.0,2-5,other
26106,47,58,86,36,5.0,2-5,other
26107,56,55,261,56,5.0,2-5,other
26108,76,63,22,110,8.0,2-3,minor
26109,64,54,59,133,2.0,2-2,other
26110,62,51,46,62,2.0,2-2,other
26111,55,46,92,178,9.0,3-8A,major
26112,57,53,20,61,9.0,3-8A,major
26113,64,62,40,237,7.0,2-2,other
26114,65,64,27,27,7.0,2-2,other
26115,70,67,22,30,7.0,2-2,other
26116,72,73,31,30,7.0,2-2,other
26117,84,64,35,117,7.0,4-27A,minor
26118,70,59,32,121,1.0,2-1,other
26119,65,51,23,684,7.0,4-14A,minor
26120,69,49,31,127,10.0,5-27A,major
26121,67,45,6,133,1.0,5-31B,diminished
26122,65,77,20,123,0.0,5-35,minor
26123,65,87,19,46,0.0,5-35,minor
26124,65,72,37,57,0.0,5-35,minor
26125,63,58,26,128,1.0,5-35,other
26126,63,41,13,63,1.0,5-35,other
26127,63,60,40,44,1.0,5-35,other
26128,65,67,34,136,0.0,5-35,minor
26129,65,76,21,54,0.0,5-35,minor
26130,65,70,23,48,0.0,5-35,minor
26131,63,68,49,135,1.0,5-35,other
26132,61,63,17,58,1.0,5-35,other
26133,61,56,23,40,1.0,5-35,other
26134,57,50,74,201,5.0,4-22A,major
26135,60,44,406,74,5.0,4-22A,major
26136,64,44,26,40,5.0,4-22A,major
26137,71,51,50,58,5.0,4-22A,major
26138,76,47,31,64,5.0,4-22A,major
26139,79,58,16,63,5.0,4-22A,major
26140,83,54,14,63,5.0,4-22A,major
26141,88,57,45,58,5.0,4-22A,major
26142,91,68,25,55,5.0,4-22A,major
26143,95,58,34,61,5.0,4-22A,major
26144,98,62,305,65,5.0,4-22A,major
26145,60,99,63,0,,,
26146,60,57,22,78,,,
26147,63,83,29,109,0.0,5-34,other
26148,63,73,101,53,0.0,5-34,other
26149,60,48,36,74,0.0,5-34,other
26150,74,68,29,203,0.0,2-4,other
26151,72,55,30,277,0.0,3-11B,other
26152,44,61,197,164,0.0,3-11B,other
26153,60,105,29,53,0.0,3-11B,other
26154,63,69,26,135,0.0,6-24A,minor
26155,63,62,11,58,0.0,6-24A,minor
26156,77,82,26,81,0.0,6-24A,minor
26157,74,65,60,578,3.0,5-29B,other
26158,68,55,39,128,7.0,2-4,major
26159,72,88,28,113,0.0,2-5,other
26160,72,65,22,122,0.0,4-19A,minor
26161,70,3,29,135,10.0,2-4,major
26162,74,81,43,37,10.0,2-4,major
26163,74,68,9,50,10.0,2-4,major
26164,67,79,44,137,9.0,4-27A,diminished
26165,67,82,11,110,0.0,3-11A,minor
26166,70,101,39,119,8.0,5-24A,other
26167,63,78,20,264,3.0,2-4,major
26168,63,75,21,43,3.0,2-4,major
26169,63,75,14,51,3.0,2-4,major
26170,68,59,25,129,0.0,4-27B,other
26171,68,67,18,55,0.0,4-27B,other
26172,68,66,7,58,0.0,4-27B,other
26173,59,65,58,368,0.0,2-3,minor
26174,60,61,34,58,0.0,2-3,minor
26175,60,57,31,69,0.0,2-3,minor
26176,61,64,20,215,0.0,3-2B,minor
26177,50,57,13,78,2.0,2-2,other
26178,68,74,18,283,0.0,5-25B,other
26179,67,53,28,365,1.0,5-13B,other
26180,43,70,51,145,9.0,5-35,minor
26181,72,110,26,467,0.0,4-22A,major
26182,72,67,29,119,0.0,5-26B,other
26183,50,53,253,415,2.0,2-2,other
26184,57,68,21,65,2.0,2-2,other
26185,74,90,27,242,2.0,4-26,minor
26186,64,67,55,119,7.0,2-5,other
26187,72,89,38,119,2.0,3-11A,minor
26188,43,84,15,119,4.0,4-18A,major
26189,74,94,21,122,5.0,4-29B,major
26190,55,72,72,121,0.0,3-9,other
26191,62,75,34,61,0.0,3-9,other
26192,74,104,29,55,0.0,3-9,other
26193,48,64,99,121,5.0,4-21,major
26194,57,60,29,62,5.0,4-21,major
26195,74,68,22,58,5.0,4-21,major
26196,47,74,123,120,4.0,3-7A,minor
26197,60,108,45,58,4.0,3-7A,minor
26198,60,87,49,60,4.0,3-7A,minor
26199,60,84,33,70,4.0,3-7A,minor
26200,60,65,34,56,4.0,3-7A,minor
26201,60,62,10,61,4.0,3-7A,minor
26202,63,75,13,627,0.0,5-35,other
26203,73,69,42,391,7.0,5-36A,minor
26204,46,53,37,123,3.0,3-4A,major
26205,58,56,81,108,7.0,3-11A,minor
26206,79,76,18,58,7.0,3-11A,minor
26207,60,56,106,307,8.0,2-6,other
26208,67,60,58,63,8.0,2-6,other
26209,68,59,47,59,8.0,2-6,other
26210,32,73,6,299,0.0,1-1,other
26211,44,64,18,361,6.0,3-5B,other
26212,44,65,222,61,6.0,3-5B,other
26213,44,66,212,234,0.0,4-27A,minor
26214,75,93,19,367,3.0,4-24,augmented
26215,44,58,46,354,3.0,4-27A,other
26216,70,79,32,953,8.0,4-22B,other
26217,68,73,11,254,0.0,4-27B,other
26218,72,67,13,109,7.0,4-27B,major
26219,74,70,22,28,7.0,4-27B,major
26220,62,69,52,273,1.0,2-5,other
26221,62,62,30,59,1.0,2-5,other
26222,62,56,11,68,1.0,2-5,other
26223,68,79,34,311,0.0,5-25B,other
26224,67,76,45,47,0.0,5-25B,other
26225,66,67,36,56,0.0,5-25B,other
26226,67,52,26,258,1.0,4-2B,other
26227,60,82,14,372,9.0,5-35,minor
26228,60,70,10,48,9.0,5-35,minor
26229,60,57,8,70,9.0,5-35,minor
26230,54,28,30,63,0.0,5-34,other
26231,51,15,8,571,10.0,3-11B,major
26232,44,55,181,81,3.0,3-4B,other
26233,60,77,32,158,0.0,3-11B,other
26234,70,79,27,288,3.0,4-16A,other
26235,71,90,18,38,3.0,4-16A,other
26236,77,108,63,43,3.0,4-16A,other
26237,75,79,111,73,3.0,4-16A,other
26238,73,53,36,118,5.0,3-5B,other
26239,74,78,63,44,5.0,3-5B,other
26240,44,54,31,154,6.0,4-29A,other
26241,67,118,18,279,2.0,2-3,minor
26242,61,66,28,81,0.0,4-14A,minor
26243,59,97,136,85,0.0,3-11A,minor
26244,63,53,12,76,0.0,3-11A,minor
26245,59,68,12,208,3.0,2-4,major
26246,58,61,34,38,3.0,2-4,major
26247,45,66,130,80,9.0,4-27A,diminished
26248,45,71,13,165,0.0,2-3,minor
26249,44,77,150,34,0.0,2-3,minor
26250,44,81,34,190,10.0,4-16A,other
26251,30,81,28,481,0.0,4-27B,other
26252,72,84,17,119,7.0,4-27B,major
26253,74,77,59,95,7.0,4-27B,major
26254,61,65,74,111,0.0,4-14A,minor
26255,60,56,19,78,0.0,4-14A,minor
26256,60,60,12,74,0.0,4-14A,minor
26257,61,75,30,126,8.0,2-6,other
26258,63,65,19,82,2.0,2-2,other
26259,68,79,25,122,5.0,2-1,other
26260,70,75,26,35,5.0,2-1,other
26261,72,67,21,42,5.0,2-1,other
26262,75,81,14,37,5.0,2-1,other
26263,53,77,7,277,3.0,6-37,augmented
26264,37,83,15,85,3.0,3-12,augmented
26265,51,63,32,127,3.0,4-24,augmented
26266,36,59,31,103,4.0,4-23,minor
26267,43,73,24,44,4.0,4-23,minor
26268,50,66,27,40,4.0,4-23,minor
26269,52,79,271,38,4.0,4-23,minor
26270,74,91,22,166,2.0,2-5,other
26271,74,90,13,43,2.0,2-5,other
26272,71,79,11,72,2.0,2-5,other
26273,72,113,57,173,3.0,5-14A,major
26274,60,43,25,798,11.0,2-2,other
26275,57,45,25,81,5.0,5-27A,major
26276,60,52,15,42,5.0,5-27A,major
26277,57,49,14,79,5.0,5-27A,major
26278,62,74,23,247,4.0,5-16A,other
26279,72,73,96,143,0.0,2-4,major
26280,52,63,16,53,0.0,2-4,major
26281,83,86,24,147,2.0,5-35,minor
26282,55,68,32,331,4.0,3-7A,minor
26283,42,75,108,157,9.0,3-1,other
26284,52,61,29,51,9.0,3-1,other
26285,75,87,12,127,0.0,2-4,other
26286,41,63,24,26,0.0,2-4,other
26287,53,62,43,75,0.0,4-20,other
26288,40,94,15,686,8.0,3-8A,other
26289,46,56,67,272,3.0,3-4A,major
26290,46,59,24,119,7.0,2-5,other
26291,49,65,33,238,6.0,4-28,diminished
26292,41,47,17,129,2.0,4-27A,minor
26293,44,65,91,36,2.0,4-27A,minor
26294,60,94,26,247,0.0,2-5,other
26295,59,60,11,35,0.0,2-5,other
26296,60,75,30,36,0.0,2-5,other
26297,60,59,39,98,3.0,2-5,other
26298,63,73,12,40,3.0,2-5,other
26299,72,69,25,71,3.0,2-5,other
26300,75,77,25,37,3.0,2-5,other
26301,72,62,38,111,6.0,4-13B,other
26302,72,64,35,87,2.0,4-8,major
26303,44,69,251,159,5.0,3-5B,other
26304,60,60,69,291,0.0,4-27A,minor
26305,44,52,18,69,0.0,4-27A,minor
26306,61,6,9,334,3.0,5-26A,other
26307,83,82,16,233,3.0,4-16A,other
26308,82,80,23,27,3.0,4-16A,other
26309,80,94,16,28,3.0,4-16A,other
26310,75,81,23,114,8.0,3-2B,other
26311,74,70,25,30,8.0,3-2B,other
26312,77,85,22,32,8.0,3-2B,other
26313,75,74,18,28,8.0,3-2B,other
26314,71,83,19,93,7.0,2-2,other
26315,74,91,13,28,7.0,2-2,other
26316,77,101,18,30,7.0,2-2,other
26317,60,48,17,76,0.0,3-11A,minor
26318,67,59,21,32,0.0,3-11A,minor
26319,59,81,37,116,0.0,2-3,minor
26320,70,5,52,80,3.0,4-20,major
26321,58,67,31,159,10.0,2-1,other
26322,45,64,105,81,9.0,4-27A,diminished
26323,45,61,10,157,0.0,3-11A,minor
26324,44,79,35,229,8.0,5-24A,other
26325,74,92,56,698,5.0,2-5,other
26326,60,92,28,264,0.0,3-11A,minor
26327,61,94,55,111,8.0,2-6,other
26328,65,88,32,103,2.0,2-2,other
26329,68,92,20,38,2.0,2-2,other
26330,76,81,10,79,0.0,2-4,other
26331,79,80,15,36,0.0,2-4,other
26332,84,82,10,46,0.0,2-4,other
26333,43,71,279,235,4.0,5-25B,minor
26334,62,62,9,197,11.0,3-10,diminished
26335,67,67,26,99,1.0,7-34,other
26336,67,56,17,33,1.0,7-34,other
26337,55,46,1166,0,,,
26338,62,42,620,582,,,
26339,69,34,703,616,,,
26340,70,44,2478,631,,,
26341,86,34,954,1257,2.0,2-5,other
26342,93,45,482,29,2.0,2-5,other
26343,90,26,740,631,2.0,2-5,other
26344,70,33,690,948,2.0,2-5,other
26345,55,74,5507,1914,2.0,2-5,other
26346,63,80,5898,675,2.0,2-5,other
26347,69,74,5526,599,2.0,2-5,other
26348,70,65,359,748,2.0,2-5,other
26349,55,25,2381,5104,2.0,2-5,other
26350,86,60,276,400,2.0,2-5,other
26351,86,59,251,778,2.0,2-1,other
26352,86,60,268,782,9.0,2-3,minor
26353,86,55,1109,752,10.0,2-4,major
26354,81,40,423,389,10.0,2-4,major
26355,70,30,2600,32,10.0,2-4,major
26356,82,47,4280,360,10.0,2-4,major
26357,79,33,3835,408,10.0,2-4,major
26358,55,39,1974,3127,10.0,2-4,major
26359,63,47,800,704,10.0,2-4,major
26360,69,49,731,664,10.0,2-4,major
26361,63,48,2438,630,10.0,2-4,major
26362,70,74,916,866,10.0,2-4,major
26363,86,91,606,54,10.0,2-4,major
26364,85,84,430,493,10.0,2-4,major
26365,86,81,802,502,10.0,2-4,major
26366,70,36,1937,26,10.0,2-4,major
26367,85,33,71,46,10.0,2-4,major
26368,84,72,384,360,10.0,2-4,major
26369,81,58,415,939,10.0,2-4,major
26370,79,40,405,519,3.0,2-1,other
26371,78,44,440,469,3.0,2-1,other
26372,78,35,574,944,9.0,2-2,other
26373,62,32,578,36,9.0,2-2,other
26374,79,40,6662,482,9.0,2-2,other
26375,69,18,515,61,9.0,2-2,other
26376,74,38,5963,877,9.0,2-2,other
26377,70,31,227,851,9.0,2-2,other
26378,69,43,809,1565,9.0,2-2,other
26379,55,36,1621,2004,9.0,2-2,other
26380,62,44,659,789,9.0,2-2,other
26381,69,55,475,466,9.0,2-2,other
26382,62,26,760,387,9.0,2-2,other
26383,70,64,661,477,9.0,2-2,other
26384,62,37,832,443,9.0,2-2,other
26385,62,31,692,1222,10.0,2-4,major
26386,62,36,818,1245,7.0,1-1,other
26387,69,38,464,523,7.0,1-1,other
26388,62,36,989,450,7.0,1-1,other
26389,70,42,942,608,7.0,1-1,other
26390,62,19,725,632,7.0,1-1,other
26391,62,31,650,1134,10.0,2-4,other
26392,79,74,547,31,10.0,2-4,other
26393,63,55,830,1275,7.0,2-1,other
26394,69,61,503,515,7.0,2-1,other
26395,63,60,659,432,7.0,2-1,other
26396,63,46,631,1179,10.0,2-1,other
26397,75,76,1235,634,10.0,2-1,other
26398,63,37,645,587,10.0,2-1,other
26399,62,40,706,1213,7.0,2-5,other
26400,75,64,902,26,7.0,2-5,other
26401,62,24,739,1040,2.0,2-5,other
26402,86,62,1291,598,2.0,2-5,other
26403,69,45,608,53,2.0,2-5,other
26404,62,24,652,649,2.0,2-5,other
26405,62,22,587,1210,2.0,2-5,other
26406,55,19,1840,648,2.0,2-5,other
26407,62,33,669,563,2.0,2-5,other
26408,98,70,453,600,2.0,2-5,other
26409,62,36,936,659,2.0,2-5,other
26410,70,45,824,642,2.0,2-5,other
26411,62,31,1001,661,2.0,2-5,other
26412,62,34,741,1539,2.0,2-5,other
26413,55,42,2030,752,2.0,2-5,other
26414,63,53,1017,581,2.0,2-5,other
26415,75,87,2645,627,2.0,2-5,other
26416,63,46,950,634,2.0,2-5,other
26417,70,51,764,640,2.0,2-5,other
26418,63,38,912,619,2.0,2-5,other
26419,63,52,712,1270,2.0,2-5,other
26420,75,81,1887,35,2.0,2-5,other
26421,62,48,1235,1338,7.0,2-5,other
26422,69,66,798,768,7.0,2-5,other
26423,62,42,1741,648,7.0,2-5,other
26424,66,34,704,1875,7.0,2-5,other
26425,69,37,766,903,2.0,2-4,major
26426,72,64,715,680,2.0,2-4,major
26427,70,52,608,678,2.0,2-4,major
26428,55,30,1379,34,2.0,2-4,major
26429,62,45,530,484,2.0,2-4,major
26430,69,57,406,444,2.0,2-4,major
26431,62,36,618,428,2.0,2-4,major
26432,74,51,175,485,2.0,2-4,major
26433,70,33,505,31,2.0,2-4,major
26434,62,24,510,2694,7.0,2-3,minor
26435,84,51,584,530,7.0,2-3,minor
26436,62,31,865,544,7.0,2-3,minor
26437,62,37,763,1257,7.0,2-3,minor
26438,96,44,892,703,7.0,2-3,minor
26439,86,29,1090,38,7.0,2-3,minor
26440,69,24,1573,27,7.0,2-3,minor
26441,62,30,2539,832,7.0,2-3,minor
26442,84,62,2712,2504,7.0,2-3,minor
26443,76,63,2392,45,7.0,2-3,minor
26444,64,49,638,720,1.0,2-6,other
26445,67,36,520,653,1.0,2-6,other
26446,64,50,947,632,1.0,2-6,other
26447,70,35,687,710,1.0,2-3,minor
26448,64,58,1232,791,1.0,2-3,minor
26449,82,71,496,755,1.0,2-3,minor
26450,73,18,525,62,1.0,2-3,minor
26451,63,60,773,1957,7.0,2-3,minor
26452,63,54,1066,1062,0.0,2-3,minor
26453,69,60,751,552,0.0,2-3,minor
26454,63,26,3364,596,0.0,2-3,minor
26455,69,46,894,2459,0.0,2-2,other
26456,67,41,562,902,0.0,2-2,other
26457,55,27,885,34,0.0,2-2,other
26458,62,40,686,533,0.0,2-2,other
26459,69,68,616,540,0.0,2-2,other
26460,62,30,803,495,0.0,2-2,other
26461,70,62,1001,560,0.0,2-2,other
26462,69,43,304,29,0.0,2-2,other
26463,62,9,504,563,0.0,2-2,other
26464,62,51,664,926,2.0,2-5,other
26465,53,48,859,557,2.0,2-5,other
26466,74,88,7742,42,2.0,2-5,other
26467,62,60,823,513,2.0,2-5,other
26468,69,84,590,503,2.0,2-5,other
26469,62,58,1744,513,2.0,2-5,other
26470,70,88,536,576,2.0,2-5,other
26471,70,55,499,671,2.0,2-5,other
26472,62,14,125,833,2.0,2-5,other
26473,62,55,679,424,2.0,2-5,other
26474,52,69,1177,783,2.0,2-5,other
26475,58,43,1099,752,2.0,2-5,other
26476,67,24,636,752,2.0,2-5,other
26477,58,47,2114,630,2.0,2-5,other
26478,67,36,2029,1501,1.0,2-6,other
26479,74,52,731,661,1.0,2-6,other
26480,58,39,257,656,1.0,2-6,other
26481,76,50,287,28,1.0,2-6,other
26482,81,54,3851,917,1.0,2-6,other
26483,57,16,4456,66,1.0,2-6,other
26484,64,30,704,709,1.0,2-6,other
26485,69,57,566,624,1.0,2-6,other
26486,64,49,682,500,1.0,2-6,other
26487,70,56,1200,596,1.0,2-6,other
26488,64,30,2384,683,1.0,2-6,other
26489,57,37,526,1525,9.0,2-2,other
26490,63,68,904,1798,9.0,1-1,other
26491,69,71,612,618,9.0,1-1,other
26492,63,68,835,459,9.0,1-1,other
26493,70,75,584,555,9.0,1-1,other
26494,63,47,3087,590,9.0,1-1,other
26495,72,50,728,559,9.0,1-1,other
26496,69,38,530,35,9.0,1-1,other
26497,57,35,5899,2773,6.0,2-3,minor
26498,62,39,712,694,6.0,2-3,minor
26499,66,44,662,613,6.0,2-3,minor
26500,62,33,1910,658,6.0,2-3,minor
26501,69,34,840,692,6.0,2-3,minor
26502,70,33,989,743,6.0,2-3,minor
26503,69,11,531,907,6.0,2-3,minor
26504,84,61,497,1106,6.0,2-3,minor
26505,63,30,1050,1902,7.0,2-3,minor
26506,69,54,701,744,7.0,2-3,minor
26507,63,42,1046,573,7.0,2-3,minor
26508,70,65,396,593,7.0,2-3,minor
26509,63,32,648,541,7.0,2-3,minor
26510,70,37,153,66,7.0,2-3,minor
26511,63,64,867,1934,9.0,2-2,other
26512,69,84,680,480,9.0,2-2,other
26513,63,67,965,491,9.0,2-2,other
26514,70,80,861,602,9.0,2-2,other
26515,63,56,611,629,9.0,2-2,other
26516,70,55,486,568,9.0,2-2,other
26517,79,67,624,29,9.0,2-2,other
26518,63,48,622,510,9.0,2-2,other
26519,69,35,597,691,6.0,1-1,other
26520,62,46,897,567,6.0,1-1,other
26521,62,32,1859,1273,6.0,1-1,other
26522,69,31,374,594,6.0,1-1,other
26523,69,33,289,629,6.0,1-1,other
26524,69,30,781,622,6.0,1-1,other
26525,74,48,472,32,6.0,1-1,other
26526,62,34,762,534,6.0,1-1,other
26527,54,31,842,693,2.0,2-4,major
26528,62,33,899,557,2.0,2-4,major
26529,69,53,1737,565,2.0,2-4,major
26530,62,40,416,505,2.0,2-4,major
26531,53,38,968,3405,1.0,2-5,other
26532,61,54,928,627,1.0,2-5,other
26533,67,69,766,575,1.0,2-5,other
26534,61,42,794,606,1.0,2-5,other
26535,61,38,458,1237,1.0,2-5,other
26536,61,67,944,2166,5.0,4-29B,other
26537,67,88,827,509,5.0,4-29B,other
26538,61,74,1134,533,5.0,4-29B,other
26539,61,50,932,1290,1.0,2-5,other
26540,61,39,171,1275,8.0,2-1,other
26541,80,59,259,46,8.0,2-1,other
26542,75,48,6202,805,3.0,2-4,major
26543,60,40,761,1053,3.0,2-4,major
26544,63,50,1275,832,3.0,2-4,major
26545,72,47,959,1126,3.0,2-4,major
26546,56,49,1166,1741,2.0,2-3,minor
26547,59,47,507,613,2.0,2-3,minor
26548,75,48,1035,1109,2.0,2-3,minor
26549,48,37,1702,43,2.0,2-3,minor
26550,55,29,778,521,2.0,2-3,minor
26551,73,1,285,239,2.0,2-3,minor
26552,62,33,186,241,2.0,2-3,minor
26553,55,37,932,600,3.0,2-4,major
26554,55,38,1347,1295,0.0,2-2,other
26555,46,50,367,1238,3.0,3-11B,major
26556,45,66,1189,797,0.0,2-5,other
26557,51,65,581,664,0.0,2-5,other
26558,60,62,704,1250,9.0,2-2,other
26559,63,55,611,1536,0.0,3-9,other
26560,63,47,884,824,0.0,3-9,other
26561,77,58,344,851,0.0,3-9,other
26562,79,42,1200,566,0.0,3-9,other
26563,77,38,3747,1042,0.0,3-9,other
26564,69,31,3128,83,6.0,2-3,minor
26565,60,40,562,742,6.0,2-3,minor
26566,62,42,686,706,6.0,2-3,minor
26567,63,54,2965,694,6.0,2-3,minor
26568,66,42,1421,754,6.0,2-3,minor
26569,69,32,2078,840,6.0,2-3,minor
26570,66,32,1346,806,6.0,2-3,minor
26571,75,52,1102,884,6.0,2-3,minor
26572,74,38,2259,1857,6.0,2-3,minor
26573,50,42,514,649,7.0,2-5,other
26574,57,38,659,621,7.0,2-5,other
26575,58,33,398,648,7.0,2-5,other
26576,54,38,1581,669,2.0,2-4,major
26577,62,38,1938,603,2.0,2-4,major
26578,69,32,576,656,2.0,2-4,major
26579,81,52,208,589,2.0,2-4,major
26580,54,37,573,27,2.0,2-4,major
26581,82,48,2013,725,2.0,2-4,major
26582,68,20,1098,83,5.0,2-2,other
26583,60,31,1272,624,5.0,2-2,other
26584,68,28,1239,846,5.0,2-2,other
26585,60,27,218,874,5.0,2-2,other
26586,70,37,478,2986,4.0,3-8A,major
26587,70,43,796,964,8.0,2-6,other
26588,52,19,259,52,8.0,2-6,other
26589,67,44,883,827,8.0,2-6,other
26590,58,44,779,726,3.0,2-1,other
26591,62,58,777,671,3.0,2-1,other
26592,63,67,1156,724,3.0,2-1,other
26593,67,60,1061,687,3.0,2-1,other
26594,63,59,2134,656,3.0,2-1,other
26595,77,92,791,721,3.0,2-1,other
26596,75,61,1907,871,3.0,2-1,other
26597,72,51,553,4296,7.0,2-5,other
26598,72,55,591,1582,9.0,2-6,other
26599,69,16,4045,907,2.0,2-4,major
26600,62,44,580,816,2.0,2-4,major
26601,62,37,3462,908,2.0,2-4,major
26602,72,44,1264,2523,2.0,2-4,major
26603,70,50,2305,1253,2.0,2-4,major
26604,67,39,583,2244,2.0,2-4,major
26605,55,30,1739,29,2.0,2-4,major
26606,62,30,717,715,2.0,2-4,major
26607,69,46,466,498,2.0,2-4,major
26608,62,38,742,496,2.0,2-4,major
26609,70,59,930,510,2.0,2-4,major
26610,86,76,402,474,2.0,2-4,major
26611,62,31,686,74,2.0,2-4,major
26612,85,74,275,270,2.0,2-4,major
26613,86,67,343,278,2.0,2-4,major
26614,69,46,1578,58,2.0,2-4,major
26615,84,80,274,206,2.0,2-4,major
26616,82,53,248,578,2.0,1-1,other
26617,55,33,1388,222,2.0,1-1,other
26618,86,51,268,52,2.0,1-1,other
26619,81,52,301,243,2.0,1-1,other
26620,63,46,547,174,2.0,1-1,other
26621,86,53,229,131,2.0,1-1,other
26622,79,45,303,256,2.0,1-1,other
26623,69,71,533,69,2.0,1-1,other
26624,86,55,360,207,2.0,1-1,other
26625,63,69,698,209,2.0,1-1,other
26626,78,46,1445,114,2.0,1-1,other
26627,70,80,538,374,2.0,1-1,other
26628,63,58,604,447,2.0,1-1,other
26629,69,77,875,467,2.0,1-1,other
26630,75,51,935,129,2.0,1-1,other
26631,63,67,571,308,2.0,1-1,other
26632,55,77,754,497,2.0,1-1,other
26633,74,48,1034,155,2.0,1-1,other
26634,62,63,656,316,2.0,1-1,other
26635,69,59,494,539,2.0,1-1,other
26636,62,44,767,510,2.0,1-1,other
26637,70,49,751,592,2.0,1-1,other
26638,86,99,357,411,2.0,1-1,other
26639,62,37,748,100,2.0,1-1,other
26640,85,78,331,190,2.0,1-1,other
26641,86,71,338,302,2.0,1-1,other
26642,69,54,1709,82,2.0,1-1,other
26643,84,71,264,203,2.0,1-1,other
26644,86,62,265,282,2.0,1-1,other
26645,62,31,498,30,2.0,1-1,other
26646,82,62,224,256,2.0,1-1,other
26647,81,36,217,575,7.0,2-5,other
26648,63,40,776,235,7.0,2-5,other
26649,86,52,258,33,7.0,2-5,other
26650,79,32,285,304,7.0,2-5,other
26651,69,49,653,207,7.0,2-5,other
26652,86,50,227,102,7.0,2-5,other
26653,78,55,699,314,7.0,2-5,other
26654,63,35,743,110,7.0,2-5,other
26655,75,52,395,613,7.0,2-5,other
26656,70,35,892,110,7.0,2-5,other
26657,75,37,939,602,7.0,2-5,other
26658,63,33,1133,77,7.0,2-5,other
26659,74,46,1332,736,7.0,2-5,other
26660,69,34,1241,91,7.0,2-5,other
26661,72,40,240,1241,7.0,2-5,other
26662,50,49,719,1894,7.0,1-1,other
26663,57,48,493,520,7.0,1-1,other
26664,50,45,834,469,7.0,1-1,other
26665,58,48,621,614,7.0,1-1,other
26666,50,44,574,554,7.0,1-1,other
26667,78,69,400,483,7.0,1-1,other
26668,70,54,416,557,7.0,2-5,other
26669,78,71,3259,579,7.0,2-5,other
26670,43,53,2289,31,7.0,2-5,other
26671,51,40,655,609,7.0,2-5,other
26672,51,33,1270,1277,7.0,2-5,other
26673,69,27,2212,802,10.0,2-4,other
26674,51,36,678,643,10.0,2-4,other
26675,51,38,544,1086,3.0,3-11A,other
26676,50,54,794,2133,7.0,3-9,other
26677,62,55,691,515,7.0,3-9,other
26678,58,50,515,50,7.0,3-9,other
26679,50,45,542,477,7.0,3-9,other
26680,50,52,541,945,7.0,3-9,other
26681,43,62,541,560,7.0,3-9,other
26682,62,45,239,520,7.0,3-9,other
26683,50,58,773,42,7.0,3-9,other
26684,65,24,79,649,10.0,2-4,other
26685,74,85,314,962,2.0,2-5,other
26686,58,42,640,37,2.0,2-5,other
26687,81,74,1012,529,2.0,2-5,other
26688,50,47,441,55,2.0,2-5,other
26689,74,48,717,531,2.0,2-5,other
26690,43,32,954,1288,3.0,2-4,major
26691,51,28,824,546,3.0,2-4,major
26692,70,36,1167,516,3.0,2-4,major
26693,57,17,496,93,3.0,2-4,major
26694,51,38,1417,463,3.0,2-4,major
26695,58,51,456,561,3.0,2-4,major
26696,75,65,249,1535,3.0,2-1,other
26697,74,64,291,185,3.0,2-1,other
26698,73,54,368,157,3.0,2-1,other
26699,74,74,4066,475,3.0,2-1,other
26700,43,48,968,31,3.0,2-1,other
26701,54,48,701,1305,3.0,2-1,other
26702,57,49,664,637,3.0,2-1,other
26703,58,44,501,1246,3.0,2-1,other
26704,58,31,553,716,3.0,2-1,other
26705,72,59,1376,680,3.0,2-1,other
26706,58,15,275,33,3.0,2-1,other
26707,58,37,184,546,3.0,2-1,other
26708,70,50,1555,603,3.0,2-1,other
26709,43,32,846,69,3.0,2-1,other
26710,50,47,416,477,3.0,2-1,other
26711,57,46,555,488,3.0,2-1,other
26712,58,48,1467,488,3.0,2-1,other
26713,74,64,287,1316,7.0,2-3,minor
26714,62,40,419,84,7.0,2-3,minor
26715,78,75,419,371,7.0,2-3,minor
26716,81,78,507,501,7.0,2-3,minor
26717,82,73,455,505,9.0,2-2,other
26718,79,57,895,464,9.0,2-2,other
26719,57,45,582,47,9.0,2-2,other
26720,58,45,1832,497,9.0,2-2,other
26721,74,50,427,1634,9.0,2-2,other
26722,62,29,699,53,9.0,2-2,other
26723,70,44,1267,590,9.0,2-2,other
26724,58,25,340,78,9.0,2-2,other
26725,43,31,2304,2347,1.0,3-3A,minor
26726,55,20,1123,26,1.0,3-3A,minor
26727,52,44,684,1149,1.0,3-3A,minor
26728,55,60,574,678,1.0,3-3A,minor
26729,52,44,1070,589,1.0,3-3A,minor
26730,58,46,778,638,1.0,2-3,minor
26731,52,43,742,757,1.0,2-3,minor
26732,43,36,2421,2174,3.0,2-5,other
26733,51,57,1054,747,3.0,2-5,other
26734,57,53,680,674,3.0,2-5,other
26735,51,31,2069,651,3.0,2-5,other
26736,58,54,617,808,0.0,2-3,minor
26737,57,49,1181,760,0.0,2-3,minor
26738,60,58,849,693,0.0,2-3,minor
26739,67,62,1040,1208,9.0,2-6,other
26740,50,63,799,588,7.0,2-3,minor
26741,69,69,782,610,7.0,2-3,minor
26742,62,59,889,26,7.0,2-3,minor
26743,50,57,2102,590,7.0,2-3,minor
26744,50,37,859,2637,2.0,1-1,other
26745,50,54,788,1233,2.0,2-3,minor
26746,57,78,580,536,2.0,2-3,minor
26747,50,58,1061,530,2.0,2-3,minor
26748,58,84,1233,578,2.0,2-3,minor
26749,62,46,866,1150,2.0,2-3,minor
26750,50,44,136,576,2.0,2-3,minor
26751,73,39,2917,707,2.0,2-3,minor
26752,61,34,2769,42,2.0,2-3,minor
26753,40,32,1041,29,2.0,2-3,minor
26754,46,66,1047,849,2.0,2-3,minor
26755,57,76,606,631,2.0,2-3,minor
26756,50,60,968,609,2.0,2-3,minor
26757,72,30,896,795,10.0,2-4,major
26758,58,38,1206,658,10.0,2-4,major
26759,33,51,226,2200,4.0,1-1,other
26760,81,62,574,906,4.0,1-1,other
26761,65,46,398,99,5.0,4-16A,other
26762,72,42,384,48,5.0,4-16A,other
26763,81,50,450,731,5.0,4-16A,other
26764,81,48,427,856,0.0,2-5,other
26765,61,34,408,27,0.0,2-5,other
26766,81,32,467,864,0.0,2-5,other
26767,60,22,344,69,5.0,2-4,other
26768,61,25,1475,1797,5.0,3-9,other
26769,81,37,833,1352,5.0,3-9,other
26770,81,54,524,1785,5.0,3-9,other
26771,74,54,543,61,3.0,2-1,other
26772,50,32,1802,621,3.0,2-1,other
26773,74,77,1737,1170,3.0,2-1,other
26774,62,42,2496,1252,3.0,2-4,major
26775,63,42,1165,672,3.0,2-4,major
26776,74,31,2081,703,3.0,2-4,major
26777,50,22,5903,769,6.0,2-3,other
26778,62,33,1308,680,6.0,2-3,other
26779,63,43,1125,663,6.0,2-3,other
26780,74,27,1994,753,6.0,2-3,other
26781,63,26,1130,736,6.0,2-3,other
26782,62,37,2926,919,2.0,2-4,major
26783,63,33,188,981,2.0,2-4,major
26784,74,47,775,1177,2.0,2-4,major
26785,62,28,835,2826,7.0,2-3,minor
26786,62,25,1002,1387,10.0,2-1,other
26787,70,48,897,666,10.0,2-1,other
26788,62,27,1187,665,10.0,2-1,other
26789,70,40,877,741,10.0,2-1,other
26790,81,71,337,669,10.0,2-1,other
26791,62,30,737,77,10.0,2-1,other
26792,82,75,313,275,10.0,2-1,other
26793,62,35,880,1069,9.0,2-2,other
26794,62,34,1158,1424,9.0,2-2,other
26795,69,40,1035,742,3.0,2-5,other
26796,62,28,1043,635,3.0,2-5,other
26797,70,40,1150,690,3.0,2-5,other
26798,69,38,490,46,3.0,2-5,other
26799,78,69,1445,1298,7.0,2-5,other
26800,62,30,722,742,7.0,3-9,other
26801,69,24,465,695,7.0,3-9,other
26802,62,30,594,1964,2.0,2-5,other
26803,62,32,813,1303,2.0,2-5,other
26804,54,40,861,683,2.0,2-5,other
26805,62,32,996,698,2.0,2-5,other
26806,69,53,2381,638,2.0,2-5,other
26807,62,26,349,664,2.0,2-5,other
26808,75,60,302,1797,2.0,1-1,other
26809,74,68,195,203,2.0,1-1,other
26810,74,80,423,814,2.0,2-1,other
26811,61,42,1020,1584,8.0,2-3,other
26812,67,51,888,658,8.0,2-3,other
26813,61,56,1083,571,8.0,2-3,other
26814,68,61,772,591,8.0,2-3,other
26815,61,61,816,619,8.0,2-3,other
26816,61,43,727,1070,7.0,2-1,other
26817,80,74,367,40,7.0,2-1,other
26818,61,55,888,1080,7.0,2-2,other
26819,67,71,657,538,7.0,2-2,other
26820,61,59,998,515,7.0,2-2,other
26821,68,77,1016,606,7.0,2-2,other
26822,61,51,1252,624,7.0,2-2,other
26823,68,38,827,788,7.0,2-2,other
26824,77,49,818,942,7.0,2-2,other
26825,61,28,208,27,7.0,2-2,other
26826,79,43,416,1015,7.0,2-2,other
26827,60,49,1154,689,3.0,2-4,major
26828,63,62,511,608,3.0,2-4,major
26829,67,61,317,547,3.0,2-4,major
26830,77,68,1157,671,3.0,2-4,major
26831,56,60,643,622,11.0,2-3,minor
26832,65,55,240,611,11.0,2-3,minor
26833,59,50,161,31,11.0,2-3,minor
26834,56,39,139,923,8.0,3-10,diminished
26835,75,61,2342,346,8.0,3-10,diminished
26836,55,60,676,652,0.0,3-7A,minor
26837,63,66,80,1386,3.0,2-1,other
26838,60,68,1111,1579,0.0,3-7B,other
26839,33,64,309,2565,9.0,4-27A,diminished
26840,55,45,380,2550,9.0,3-10,diminished
26841,63,46,359,2072,0.0,2-5,other
26842,55,32,313,71,9.0,2-3,minor
26843,63,51,142,635,7.0,1-1,other
26844,54,35,334,2573,0.0,2-3,minor
26845,63,30,452,2193,6.0,3-10,other
26846,60,28,356,860,6.0,2-3,other
26847,86,50,298,1673,3.0,1-1,other
26848,43,32,1929,42,3.0,1-1,other
26849,74,38,433,29,3.0,1-1,other
26850,50,41,1389,689,3.0,1-1,other
26851,57,37,277,677,3.0,1-1,other
26852,58,47,354,32,3.0,1-1,other
26853,69,67,374,701,3.0,1-1,other
26854,74,65,193,1653,2.0,2-4,major
26855,69,27,1990,1040,2.0,2-4,major
26856,81,34,237,1788,2.0,2-4,major
26857,82,52,1320,1053,2.0,2-4,major
26858,68,37,1499,128,5.0,2-2,other
26859,55,48,766,733,5.0,2-2,other
26860,56,60,1034,763,5.0,2-2,other
26861,60,30,128,819,5.0,2-2,other
26862,63,53,780,28,5.0,2-2,other
26863,40,49,366,880,5.0,2-2,other
26864,56,30,3598,1043,5.0,2-2,other
26865,62,29,2296,955,8.0,2-3,other
26866,77,51,2174,1413,8.0,2-3,other
26867,76,43,268,2113,8.0,2-3,other
26868,75,47,238,167,8.0,2-3,other
26869,58,32,798,1077,3.0,2-1,other
26870,62,38,531,609,3.0,2-1,other
26871,58,35,1068,563,3.0,2-1,other
26872,63,50,2325,674,3.0,2-1,other
26873,58,35,2075,834,3.0,2-1,other
26874,77,88,562,737,3.0,2-1,other
26875,69,25,4949,2458,0.0,4-14A,minor
26876,62,33,427,731,0.0,4-14A,minor
26877,62,37,3115,739,0.0,4-14A,minor
26878,50,38,652,1431,0.0,4-14A,minor
26879,50,34,1440,1073,0.0,4-14A,minor
26880,55,54,901,2856,0.0,2-2,other
26881,62,80,601,583,0.0,2-2,other
26882,55,55,1152,574,0.0,2-2,other
26883,63,82,489,634,0.0,2-2,other
26884,55,52,817,672,4.0,2-2,other
26885,62,65,1389,2099,10.0,2-1,other
26886,53,57,835,661,10.0,2-1,other
26887,46,38,768,1444,10.0,2-1,other
26888,81,35,2813,714,10.0,2-1,other
26889,74,45,2570,30,10.0,2-1,other
26890,62,36,1907,791,9.0,1-1,other
26891,67,38,426,838,9.0,1-1,other
26892,69,29,435,1000,9.0,1-1,other
26893,70,34,315,2520,8.0,5-24A,other
26894,44,33,2038,3175,6.0,3-8A,other
26895,82,77,510,854,6.0,3-8A,other
26896,72,76,525,43,6.0,3-8A,other
26897,67,30,2840,1842,0.0,2-5,other
26898,45,47,1616,29,0.0,2-5,other
26899,51,51,771,827,0.0,2-5,other
26900,57,58,158,835,0.0,2-5,other
26901,63,33,171,899,0.0,2-5,other
26902,60,32,387,1224,2.0,2-4,major
26903,54,38,413,64,2.0,2-4,major
26904,38,24,1845,2165,2.0,2-4,major
26905,26,60,1646,29,2.0,2-4,major
26906,55,30,1762,4990,2.0,2-4,major
26907,62,33,669,594,2.0,2-4,major
26908,69,30,561,608,2.0,2-4,major
26909,62,33,1433,605,2.0,2-4,major
26910,94,56,239,556,2.0,2-4,major
26911,93,63,3763,663,10.0,2-4,major
26912,62,25,375,670,0.0,2-2,other
26913,62,22,624,648,0.0,2-2,other
26914,55,35,1856,624,0.0,2-2,other
26915,63,49,978,587,0.0,2-2,other
26916,69,72,706,594,0.0,2-2,other
26917,63,51,1654,568,0.0,2-2,other
26918,94,77,467,594,0.0,2-2,other
26919,93,66,2501,707,10.0,2-4,major
26920,63,38,558,1261,1.0,2-3,other
26921,55,31,1828,648,1.0,2-3,other
26922,62,32,743,604,1.0,2-3,other
26923,69,27,440,663,1.0,2-3,other
26924,62,28,976,557,1.0,2-3,other
26925,70,30,1253,721,10.0,2-4,major
26926,62,17,638,1954,10.0,2-4,major
26927,55,32,2048,681,10.0,2-4,major
26928,63,25,813,671,10.0,2-4,major
26929,69,24,620,665,10.0,2-4,major
26930,63,33,1977,631,10.0,2-4,major
26931,70,32,981,817,10.0,2-4,major
26932,91,55,952,4869,7.0,1-1,other
26933,79,24,900,67,7.0,1-1,other
26934,90,57,566,866,7.0,1-1,other
26935,78,43,560,32,7.0,1-1,other
26936,84,54,188,1462,2.0,1-1,other
26937,72,30,365,34,2.0,1-1,other
26938,82,44,317,390,2.0,1-1,other
26939,70,37,264,32,2.0,1-1,other
26940,67,34,266,762,9.0,1-1,other
26941,79,35,129,42,9.0,1-1,other
26942,75,35,364,888,6.0,1-1,other
26943,63,29,268,52,6.0,1-1,other
26944,62,46,382,348,6.0,1-1,other
26945,74,47,334,54,6.0,1-1,other
26946,57,36,339,1178,10.0,1-1,other
26947,69,49,291,27,10.0,1-1,other
26948,38,58,570,5259,3.0,1-1,other
26949,50,69,469,30,3.0,1-1,other
26950,46,60,1264,1069,0.0,1-1,other
26951,34,55,521,26,0.0,1-1,other
26952,26,57,1680,2721,6.0,1-1,other
26953,38,64,1301,40,6.0,1-1,other
26954,43,81,8408,4309,6.0,1-1,other
26955,50,42,7364,996,6.0,1-1,other
26956,57,44,7131,293,6.0,1-1,other
26957,58,46,161,295,6.0,1-1,other
26958,62,34,205,236,6.0,1-1,other
26959,69,55,119,248,6.0,1-1,other
26960,74,62,190,298,6.0,1-1,other
26961,81,44,130,291,6.0,1-1,other
26962,86,44,179,349,6.0,1-1,other
26963,93,30,79,286,6.0,1-1,other
26964,105,58,312,693,6.0,1-1,other
26965,105,42,233,479,6.0,1-1,other
26966,105,38,299,491,6.0,1-1,other
26967,105,37,321,533,6.0,1-1,other
26968,105,34,325,564,6.0,1-1,other
26969,105,34,369,564,6.0,1-1,other
26970,105,45,405,545,6.0,1-1,other
26971,77,63,1156,0,,,
26972,60,39,1000,1076,5.0,3-11B,major
26973,72,76,220,1008,5.0,3-11B,major
26974,72,63,428,436,5.0,3-11B,major
26975,64,42,880,84,7.0,2-3,minor
26976,72,57,292,484,7.0,2-3,minor
26977,72,98,316,1856,4.0,2-3,minor
26978,72,85,232,400,4.0,2-3,minor
26979,72,72,276,388,4.0,2-3,minor
26980,72,57,220,380,4.0,2-3,minor
26981,72,55,252,364,4.0,2-3,minor
26982,72,38,112,340,4.0,2-3,minor
26983,72,58,116,232,4.0,2-3,minor
26984,72,57,100,180,4.0,2-3,minor
26985,72,68,96,168,4.0,2-3,minor
26986,72,72,84,168,4.0,2-3,minor
26987,72,69,112,180,4.0,2-3,minor
26988,72,77,156,180,4.0,2-3,minor
26989,60,30,1044,788,5.0,3-11B,major
26990,72,52,220,1000,5.0,2-4,major
26991,72,51,432,588,5.0,2-4,major
26992,72,74,276,528,4.0,3-10,diminished
26993,72,47,492,468,4.0,3-10,diminished
26994,58,38,904,132,4.0,2-3,minor
26995,72,56,368,1000,4.0,2-3,minor
26996,70,78,792,1008,4.0,2-3,minor
26997,48,49,1056,576,2.0,2-3,minor
26998,69,82,1764,572,2.0,2-3,minor
26999,48,40,484,1556,9.0,2-3,minor
27000,60,78,188,1540,9.0,4-26,minor
27001,60,81,84,356,9.0,4-26,minor
27002,69,90,248,260,9.0,4-26,minor
27003,40,34,308,272,9.0,4-26,minor
27004,58,46,716,596,2.0,2-5,other
27005,69,81,180,324,2.0,2-5,other
27006,70,85,92,156,2.0,2-5,other
27007,74,94,92,176,2.0,2-5,other
27008,77,115,104,176,2.0,2-5,other
27009,81,122,120,204,2.0,2-5,other
27010,82,115,172,208,2.0,2-5,other
27011,82,82,276,556,6.0,4-9,other
27012,75,45,36,344,0.0,3-2B,other
27013,70,49,288,1224,0.0,2-2,other
27014,69,51,372,416,0.0,2-2,other
27015,67,33,856,468,0.0,2-2,other
27016,65,32,520,892,0.0,2-2,other
27017,45,46,196,848,7.0,2-5,other
27018,52,54,164,228,7.0,2-5,other
27019,57,72,116,376,7.0,2-2,other
27020,60,78,164,168,7.0,2-2,other
27021,57,37,352,56,7.0,2-2,other
27022,67,78,84,128,7.0,2-2,other
27023,72,76,168,192,7.0,2-2,other
27024,76,82,188,220,7.0,2-2,other
27025,79,79,132,224,7.0,2-2,other
27026,81,87,252,296,7.0,2-2,other
27027,77,69,296,312,7.0,2-2,other
27028,76,45,296,780,4.0,3-5B,other
27029,62,99,316,2404,5.0,4-16A,major
27030,64,63,116,320,5.0,4-16A,major
27031,62,66,160,108,5.0,4-16A,major
27032,61,66,108,144,5.0,4-16A,major
27033,62,68,208,280,5.0,4-16A,major
27034,63,75,104,228,5.0,4-16A,major
27035,64,75,104,112,5.0,4-16A,major
27036,65,60,116,96,5.0,4-16A,major
27037,66,68,120,96,5.0,4-16A,major
27038,67,86,796,148,5.0,4-16A,major
27039,57,45,512,540,2.0,2-2,other
27040,74,55,104,3444,5.0,5-30B,augmented
27041,62,37,284,2740,10.0,2-4,major
27042,67,50,380,700,2.0,2-4,major
27043,53,1,168,236,2.0,2-4,major
27044,57,33,1560,716,11.0,2-3,minor
27045,62,45,1292,740,11.0,2-3,minor
27046,69,48,400,700,11.0,2-3,minor
27047,72,56,1040,584,11.0,2-3,minor
27048,37,37,284,28,11.0,2-3,minor
27049,44,54,120,304,11.0,2-3,minor
27050,53,56,180,232,11.0,2-3,minor
27051,56,46,2580,200,11.0,2-3,minor
27052,60,63,2340,156,11.0,2-3,minor
27053,68,50,92,248,5.0,2-2,other
27054,70,63,28,88,5.0,2-2,other
27055,72,69,52,88,5.0,2-2,other
27056,75,66,32,88,5.0,2-2,other
27057,77,67,36,112,5.0,2-2,other
27058,80,66,92,72,5.0,2-2,other
27059,82,68,32,96,5.0,2-2,other
27060,84,68,32,96,5.0,2-2,other
27061,87,60,28,88,5.0,2-2,other
27062,89,46,32,128,5.0,2-2,other
27063,92,65,48,76,5.0,2-2,other
27064,94,56,28,116,5.0,2-2,other
27065,96,67,40,100,5.0,2-2,other
27066,99,58,32,108,5.0,2-2,other
27067,101,49,36,144,5.0,2-2,other
27068,104,66,60,104,5.0,2-2,other
27069,106,79,36,168,5.0,2-2,other
27070,72,58,180,740,5.0,2-2,other
27071,72,51,48,960,10.0,3-6,major
27072,84,45,488,640,0.0,1-1,other
27073,74,74,168,1144,0.0,1-1,other
27074,57,48,1256,984,5.0,2-5,other
27075,65,51,220,1104,5.0,2-5,other
27076,65,54,360,1292,2.0,2-3,minor
27077,76,66,112,2036,0.0,4-27B,major
27078,62,42,396,524,9.0,2-3,minor
27079,64,44,684,668,9.0,2-3,minor
27080,64,63,76,892,5.0,2-4,major
27081,28,81,292,1712,5.0,2-1,other
27082,62,56,160,1752,8.0,4-28,diminished
27083,61,71,152,1996,9.0,3-11B,major
27084,62,66,632,784,11.0,4-22B,minor
27085,52,39,304,1868,2.0,3-11B,major
27086,66,76,132,272,2.0,3-11B,major
27087,68,79,172,700,4.0,3-9,other
27088,66,42,44,28,4.0,3-9,other
27089,69,80,108,724,6.0,4-28,diminished
27090,65,47,332,452,10.0,2-4,major
27091,84,53,632,2324,0.0,2-4,major
27092,53,45,1088,2916,9.0,2-3,minor
27093,65,52,548,384,9.0,2-3,minor
27094,72,61,240,580,9.0,2-3,minor
27095,58,54,912,1544,0.0,3-11B,major
27096,72,69,776,532,0.0,3-11B,major
27097,48,34,316,620,5.0,3-11B,major
27098,48,84,852,444,5.0,3-11B,major
27099,57,81,532,464,5.0,3-11B,major
27100,60,81,708,1752,10.0,3-9,other
27101,60,70,396,1532,10.0,3-9,other
27102,61,61,148,388,10.0,3-9,other
27103,62,68,76,164,10.0,3-9,other
27104,63,73,80,104,10.0,3-9,other
27105,64,75,88,104,10.0,3-9,other
27106,65,71,88,84,10.0,3-9,other
27107,66,76,72,68,10.0,3-9,other
27108,67,81,60,100,10.0,3-9,other
27109,68,74,32,92,10.0,3-9,other
27110,69,63,28,84,10.0,3-9,other
27111,70,61,108,64,10.0,3-9,other
27112,71,74,76,104,10.0,3-9,other
27113,55,56,492,488,0.0,2-2,other
27114,69,57,348,1092,2.0,4-15B,other
27115,51,55,1344,424,2.0,4-15B,other
27116,77,67,212,1060,2.0,3-11B,major
27117,53,43,352,1572,10.0,4-16A,major
27118,54,49,312,352,10.0,4-16A,major
27119,57,30,248,404,7.0,3-7B,other
27120,56,56,868,620,7.0,3-7B,other
27121,70,67,460,880,5.0,4-19B,other
27122,45,46,392,1720,0.0,2-5,other
27123,57,49,584,1252,2.0,3-7A,minor
27124,65,82,160,604,2.0,3-7A,minor
27125,34,75,200,1812,2.0,3-11A,minor
27126,60,1,392,1296,5.0,4-29B,other
27127,45,44,264,1420,0.0,2-5,other
27128,57,46,208,1108,0.0,2-5,other
27129,60,42,488,1608,2.0,3-7A,minor
27130,43,48,1452,2076,0.0,1-1,other
27131,58,32,112,52,0.0,1-1,other
27132,72,63,544,132,5.0,1-1,other
27133,81,68,336,1184,5.0,1-1,other
27134,81,60,356,668,5.0,1-1,other
27135,81,57,144,1028,5.0,1-1,other
27136,55,42,72,2380,10.0,4-11A,major
27137,38,19,390,3112,4.0,2-6,other
27138,49,22,390,80,4.0,2-6,other
27139,36,42,390,30,4.0,2-6,other
27140,41,88,276,154,4.0,2-6,other
27141,44,29,120,430,4.0,2-6,other
27142,59,30,70,322,3.0,4-22A,major
27143,36,8,82,26,3.0,4-22A,major
27144,44,54,168,374,3.0,4-22A,major
27145,36,14,1398,234,3.0,4-22A,major
27146,57,40,36,2070,5.0,2-5,other
27147,36,5,62,66,5.0,2-5,other
27148,44,49,136,714,7.0,3-7A,minor
27149,53,45,76,332,5.0,3-11A,other
27150,63,36,108,28,5.0,3-11A,other
27151,60,62,112,376,10.0,2-1,other
27152,63,90,92,228,10.0,2-1,other
27153,60,72,116,240,10.0,2-1,other
27154,59,51,84,80,10.0,2-1,other
27155,58,40,144,36,10.0,2-1,other
27156,36,4,64,30,10.0,2-1,other
27157,56,48,104,82,10.0,2-1,other
27158,58,82,288,176,10.0,3-9,other
27159,36,17,72,136,10.0,3-9,other
27160,56,74,76,120,10.0,3-9,other
27161,53,48,140,156,10.0,3-9,other
27162,36,1,28,554,5.0,6-10B,major
27163,44,46,120,482,11.0,4-6,other
27164,63,29,88,336,8.0,5-38B,minor
27165,56,45,80,440,8.0,5-38B,minor
27166,58,52,36,104,8.0,5-38B,minor
27167,60,75,80,120,8.0,5-38B,minor
27168,63,57,84,128,8.0,5-38B,minor
27169,65,65,84,140,8.0,5-38B,minor
27170,68,81,148,132,8.0,5-38B,minor
27171,72,75,80,276,8.0,2-2,other
27172,44,50,116,624,5.0,2-5,other
27173,44,43,142,780,10.0,2-5,other
27174,48,56,40,816,8.0,2-3,minor
27175,50,54,28,68,8.0,2-3,minor
27176,52,54,28,64,8.0,2-3,minor
27177,53,45,28,60,8.0,2-3,minor
27178,55,56,28,48,8.0,2-3,minor
27179,57,52,24,64,8.0,2-3,minor
27180,59,57,28,48,8.0,2-3,minor
27181,60,48,32,60,8.0,2-3,minor
27182,62,55,28,48,8.0,2-3,minor
27183,64,54,28,48,8.0,2-3,minor
27184,67,46,32,108,5.0,3-7B,other
27185,72,54,28,144,4.0,2-5,other
27186,74,52,28,52,4.0,2-5,other
27187,76,56,28,44,4.0,2-5,other
27188,77,57,28,44,4.0,2-5,other
27189,79,46,28,52,4.0,2-5,other
27190,84,41,36,132,11.0,2-6,other
27191,60,64,428,100,2.0,2-3,minor
27192,59,35,356,540,0.0,2-4,other
27193,34,51,58,64,0.0,2-4,other
27194,38,60,330,82,0.0,2-4,other
27195,58,49,48,670,0.0,2-1,other
27196,83,61,72,44,0.0,2-1,other
27197,84,65,192,120,7.0,2-4,major
27198,36,50,44,606,8.0,3-3A,minor
27199,59,34,76,336,10.0,2-4,major
27200,72,73,100,398,4.0,2-5,other
27201,80,58,148,192,11.0,3-10,diminished
27202,69,44,140,352,3.0,2-4,other
27203,81,42,88,140,3.0,2-4,other
27204,53,24,60,148,11.0,4-10,minor
27205,53,36,40,376,9.0,2-3,minor
27206,44,34,274,34,9.0,2-3,minor
27207,59,64,250,42,9.0,2-3,minor
27208,72,79,200,432,7.0,2-4,major
27209,74,77,108,236,7.0,2-4,major
27210,72,50,260,116,1.0,3-7B,other
27211,72,56,196,408,0.0,2-1,other
27212,59,52,62,622,4.0,3-11B,major
27213,58,77,272,122,11.0,4-18A,diminished
27214,38,3,62,68,11.0,4-18A,diminished
27215,44,37,146,260,11.0,4-18A,diminished
27216,36,18,48,276,9.0,4-1,minor
27217,59,47,52,56,9.0,4-1,minor
27218,41,57,32,108,11.0,3-5A,other
27219,34,51,42,274,11.0,3-5A,other
27220,44,37,136,50,11.0,3-5A,other
27221,41,87,420,414,2.0,2-5,other
27222,59,65,298,26,2.0,2-5,other
27223,59,61,218,376,8.0,2-3,other
27224,60,60,300,36,8.0,2-3,other
27225,59,43,54,250,8.0,2-3,other
27226,48,46,104,30,8.0,2-3,other
27227,41,96,396,50,8.0,2-3,other
27228,59,58,276,36,8.0,2-3,other
27229,64,44,144,66,9.0,4-26,minor
27230,53,50,152,184,9.0,4-26,minor
27231,53,52,156,368,5.0,3-8A,major
27232,55,60,60,384,4.0,2-5,other
27233,59,57,288,122,9.0,3-5B,other
27234,58,58,28,58,9.0,3-5B,other
27235,62,62,44,96,9.0,3-5B,other
27236,66,61,32,84,9.0,3-5B,other
27237,69,68,80,76,9.0,3-5B,other
27238,66,49,48,72,10.0,2-1,other
27239,67,63,64,76,10.0,2-1,other
27240,69,57,40,116,10.0,2-1,other
27241,73,49,32,236,7.0,2-4,major
27242,75,62,28,60,7.0,2-4,major
27243,76,66,64,76,7.0,2-4,major
27244,81,61,80,236,11.0,2-2,other
27245,82,49,28,92,11.0,2-2,other
27246,84,56,68,60,11.0,2-2,other
27247,87,56,40,148,9.0,2-4,major
27248,88,63,76,60,8.0,2-3,minor
27249,91,102,124,88,8.0,2-3,minor
27250,89,107,100,176,8.0,2-3,minor
27251,59,43,50,26,8.0,2-3,minor
27252,36,79,276,52,8.0,2-3,minor
27253,85,81,88,238,1.0,3-10,minor
27254,33,76,82,26,1.0,3-10,minor
27255,38,8,40,40,1.0,3-10,minor
27256,38,9,178,116,1.0,4-13A,minor
27257,87,87,76,138,1.0,4-13A,minor
27258,84,59,96,388,11.0,4-12A,diminished
27259,79,60,112,248,4.0,3-11B,major
27260,77,63,72,120,4.0,3-11B,major
27261,76,40,84,324,7.0,2-4,major
27262,38,66,110,154,5.0,2-5,other
27263,59,63,246,138,8.0,2-2,other
27264,69,57,44,32,8.0,2-2,other
27265,42,51,26,982,4.0,2-5,other
27266,64,24,52,134,11.0,2-3,minor
27267,73,58,360,28,11.0,2-3,minor
27268,59,51,92,292,4.0,3-3A,major
27269,59,31,80,356,1.0,2-3,other
27270,50,87,398,78,1.0,2-3,other
27271,59,45,256,42,1.0,2-3,other
27272,44,34,148,326,5.0,6-40A,major
27273,71,64,120,94,11.0,6-25B,diminished
27274,38,5,44,558,7.0,2-2,other
27275,77,45,36,86,2.0,6-32,minor
27276,36,13,56,304,9.0,3-11A,minor
27277,59,38,64,32,9.0,3-11A,minor
27278,56,37,44,60,5.0,3-11B,major
27279,64,39,172,132,5.0,4-19B,augmented
27280,42,57,106,220,5.0,4-19B,augmented
27281,59,61,274,86,9.0,2-1,other
27282,38,14,62,232,5.0,4-19B,augmented
27283,36,16,130,388,5.0,4-19B,augmented
27284,59,34,48,1192,8.0,3-10,diminished
27285,59,40,66,766,8.0,3-3A,minor
27286,38,6,48,758,8.0,3-2A,minor
27287,59,38,50,42,8.0,3-2A,minor
27288,46,95,372,62,8.0,3-2A,minor
27289,47,41,300,78,8.0,3-10,diminished
27290,59,67,24,340,8.0,2-3,minor
27291,59,38,50,270,8.0,2-3,minor
27292,48,92,448,84,8.0,2-3,minor
27293,59,52,286,32,8.0,2-3,minor
27294,53,61,152,240,8.0,2-3,minor
27295,38,9,84,370,0.0,3-1,other
27296,53,42,28,30,0.0,3-1,other
27297,59,66,266,126,0.0,3-1,other
27298,65,58,200,28,0.0,3-1,other
27299,68,46,108,632,11.0,2-3,minor
27300,58,30,48,44,11.0,2-3,minor
27301,59,61,254,60,11.0,2-3,minor
27302,69,46,196,44,11.0,2-3,minor
27303,62,39,40,232,10.0,3-11B,major
27304,53,31,40,1086,3.0,2-4,major
27305,76,47,60,426,5.0,3-9,other
27306,37,63,32,42,5.0,3-9,other
27307,59,34,174,34,5.0,3-9,other
27308,60,39,60,336,11.0,2-3,minor
27309,65,57,272,120,11.0,2-3,minor
27310,59,27,60,640,5.0,3-11B,major
27311,73,17,72,972,0.0,2-1,other
27312,74,49,40,96,0.0,2-1,other
27313,77,86,128,84,0.0,2-1,other
27314,65,65,148,36,0.0,2-1,other
27315,59,60,232,72,6.0,3-2B,minor
27316,73,27,48,76,6.0,3-2B,minor
27317,74,50,80,104,6.0,3-2B,minor
27318,57,37,44,180,2.0,2-3,minor
27319,59,51,268,30,2.0,2-3,minor
27320,76,60,276,42,2.0,2-3,minor
27321,72,71,92,252,2.0,2-3,minor
27322,69,41,156,152,3.0,3-11A,other
27323,65,60,112,224,3.0,3-11A,other
27324,64,36,240,164,11.0,2-3,minor
27325,59,38,56,200,11.0,2-3,minor
27326,34,81,102,318,4.0,3-11B,major
27327,35,86,418,144,4.0,3-11B,major
27328,76,96,80,418,8.0,2-3,minor
27329,77,66,88,92,8.0,2-3,minor
27330,76,54,112,100,8.0,2-3,minor
27331,35,59,54,58,8.0,2-3,minor
27332,59,37,360,26,8.0,2-3,minor
27333,75,63,60,28,8.0,2-3,minor
27334,35,54,92,316,4.0,3-8A,major
27335,77,88,114,36,4.0,3-8A,major
27336,59,64,242,114,4.0,2-4,major
27337,76,57,228,38,4.0,2-4,major
27338,33,90,310,308,11.0,2-3,minor
27339,73,50,392,72,1.0,4-23,minor
27340,38,9,42,192,1.0,4-23,minor
27341,59,64,254,130,9.0,2-1,other
27342,54,48,76,418,11.0,2-3,minor
27343,59,33,68,258,2.0,3-11B,major
27344,64,42,132,174,11.0,3-7B,other
27345,38,11,66,186,11.0,3-7B,other
27346,37,81,330,108,2.0,3-11B,major
27347,59,65,288,34,2.0,3-11B,major
27348,38,94,316,734,11.0,4-26,minor
27349,59,58,268,28,11.0,4-26,minor
27350,40,92,330,718,8.0,2-3,minor
27351,38,13,180,66,11.0,1-1,other
27352,42,88,326,720,10.0,6-15A,augmented
27353,59,69,184,38,10.0,6-15A,augmented
27354,72,80,96,252,0.0,2-1,other
27355,77,44,140,560,7.0,2-4,major
27356,59,58,148,44,7.0,2-4,major
27357,42,51,84,214,2.0,2-5,other
27358,82,51,36,214,0.0,1-1,other
27359,48,76,632,252,4.0,2-5,other
27360,38,27,108,230,3.0,2-4,other
27361,53,45,58,52,3.0,2-4,other
27362,36,35,942,472,7.0,6-33B,major
27363,59,34,84,626,6.0,2-1,other
27364,37,70,130,430,11.0,2-3,minor
27365,48,111,350,88,8.0,2-3,minor
27366,60,63,204,322,11.0,4-27A,diminished
27367,54,38,52,384,10.0,2-1,other
27368,55,54,356,388,11.0,4-18A,diminished
27369,48,41,316,1248,9.0,4-11A,major
27370,38,55,230,26,9.0,4-11A,major
27371,46,47,112,222,9.0,4-11A,major
27372,49,46,108,392,5.0,4-19B,augmented
27373,38,6,58,342,2.0,4-18B,minor
27374,59,39,66,38,2.0,4-18B,minor
27375,38,4,92,120,7.0,5-14B,other
27376,46,48,118,344,5.0,2-5,other
27377,53,36,66,658,0.0,2-1,other
27378,67,73,72,34,0.0,2-1,other
27379,69,75,164,144,8.0,2-3,minor
27380,53,47,484,264,3.0,4-20,major
27381,34,47,28,32,3.0,4-20,major
27382,71,77,168,104,0.0,2-1,other
27383,59,36,152,346,7.0,2-1,other
27384,71,40,168,34,7.0,2-1,other
27385,36,16,64,566,11.0,2-3,minor
27386,59,64,252,154,8.0,3-7B,other
27387,77,41,136,60,8.0,3-7B,other
27388,38,20,330,166,8.0,3-7B,other
27389,41,75,346,130,2.0,2-2,other
27390,36,20,70,248,0.0,2-1,other
27391,72,82,164,184,11.0,3-2A,minor
27392,38,23,76,206,11.0,3-2A,minor
27393,44,53,130,492,1.0,2-1,other
27394,59,28,52,340,7.0,1-1,other
27395,45,97,366,76,7.0,1-1,other
27396,79,66,76,706,2.0,3-1,other
27397,59,48,112,500,0.0,2-2,other
27398,59,78,334,234,0.0,2-2,other
27399,55,57,28,58,7.0,5-34,major
27400,35,83,334,40,7.0,5-34,major
27401,59,22,54,286,7.0,5-34,major
27402,38,14,76,374,8.0,2-3,minor
27403,53,42,108,44,8.0,2-3,minor
27404,33,84,378,846,9.0,2-2,other
27405,59,64,216,32,9.0,2-2,other
27406,44,38,158,340,0.0,3-4B,other
27407,37,72,102,620,2.0,4-26,minor
27408,49,48,148,94,0.0,2-1,other
27409,50,111,290,42,0.0,2-1,other
27410,44,39,110,26,0.0,2-1,other
27411,59,73,102,636,10.0,4-22A,major
27412,59,33,58,162,1.0,2-5,other
27413,46,34,44,258,1.0,5-4B,other
27414,59,44,44,352,0.0,2-1,other
27415,46,37,138,92,0.0,2-1,other
27416,48,54,36,692,7.0,4-16B,major
27417,44,46,138,72,7.0,4-16B,major
27418,53,36,44,468,0.0,5-14A,minor
27419,44,35,144,288,0.0,5-14A,minor
27420,44,48,44,308,1.0,2-2,other
27421,53,47,36,136,1.0,2-2,other
27422,56,50,68,108,1.0,2-2,other
27423,63,47,40,368,0.0,2-4,other
27424,68,59,28,272,5.0,1-1,other
27425,70,62,32,132,5.0,1-1,other
27426,75,64,76,244,5.0,2-5,other
27427,77,79,56,140,5.0,2-5,other
27428,36,22,92,150,8.0,2-3,other
27429,82,84,148,110,8.0,2-3,other
27430,36,6,176,38,8.0,2-3,other
27431,44,37,138,316,9.0,3-2B,minor
27432,77,46,80,106,9.0,3-2B,minor
27433,44,30,122,674,3.0,2-5,other
27434,44,51,564,322,1.0,2-2,other
27435,53,49,32,356,1.0,2-2,other
27436,56,65,60,120,1.0,2-2,other
27437,56,85,60,256,1.0,2-2,other
27438,58,89,80,136,1.0,2-2,other
27439,36,32,302,214,1.0,2-2,other
27440,58,90,80,38,1.0,2-2,other
27441,44,36,94,86,1.0,2-2,other
27442,59,66,116,98,1.0,2-2,other
27443,58,57,88,96,1.0,2-2,other
27444,53,41,32,164,0.0,2-4,other
27445,58,70,272,68,0.0,2-4,other
27446,41,100,94,296,0.0,3-3B,other
27447,44,31,128,46,0.0,3-3B,other
27448,53,60,212,38,0.0,3-3B,other
27449,59,23,70,26,0.0,3-3B,other
27450,53,67,900,254,0.0,3-3B,other
27451,46,56,32,372,3.0,2-4,other
27452,44,38,110,90,3.0,2-4,other
27453,44,60,1318,294,1.0,2-2,other
27454,53,30,36,358,1.0,2-2,other
27455,46,36,298,108,1.0,2-2,other
27456,53,21,130,440,0.0,3-1,other
27457,63,92,104,54,0.0,3-1,other
27458,38,20,92,138,0.0,3-1,other
27459,60,81,112,138,0.0,3-1,other
27460,36,8,106,30,0.0,3-1,other
27461,56,49,128,166,11.0,2-1,other
27462,36,20,62,68,11.0,2-1,other
27463,53,42,36,60,11.0,2-1,other
27464,58,79,236,84,11.0,2-1,other
27465,36,14,60,54,11.0,2-1,other
27466,59,63,198,714,10.0,2-1,other
27467,59,28,44,256,3.0,2-5,other
27468,44,36,112,120,3.0,2-5,other
27469,44,64,560,280,1.0,2-2,other
27470,48,56,28,544,1.0,2-2,other
27471,50,53,28,52,1.0,2-2,other
27472,52,46,28,72,1.0,2-2,other
27473,53,50,32,56,1.0,2-2,other
27474,38,23,40,26,1.0,2-2,other
27475,55,45,28,42,1.0,2-2,other
27476,57,50,32,52,1.0,2-2,other
27477,59,46,28,76,1.0,2-2,other
27478,60,50,28,52,1.0,2-2,other
27479,62,43,32,68,1.0,2-2,other
27480,64,47,32,56,1.0,2-2,other
27481,71,44,32,256,9.0,2-5,other
27482,72,45,32,76,9.0,2-5,other
27483,38,27,70,112,11.0,3-7A,minor
27484,76,49,28,32,11.0,3-7A,minor
27485,77,63,28,48,11.0,3-7A,minor
27486,36,16,122,60,11.0,3-7A,minor
27487,77,37,556,56,11.0,3-7A,minor
27488,41,102,98,148,11.0,3-7A,minor
27489,44,57,284,122,11.0,3-7A,minor
27490,77,72,84,362,0.0,2-5,other
27491,59,41,282,62,0.0,2-5,other
27492,76,33,180,62,0.0,2-5,other
27493,77,66,80,192,0.0,2-5,other
27494,59,25,60,412,10.0,4-11A,major
27495,31,71,820,62,10.0,4-11A,major
27496,59,25,294,30,10.0,4-11A,major
27497,82,57,240,40,10.0,4-11A,major
27498,43,71,390,344,8.0,2-3,minor
27499,50,79,392,376,0.0,2-1,other
27500,44,35,172,352,4.0,4-27A,diminished
27501,41,71,42,346,4.0,4-27A,diminished
27502,56,41,152,166,5.0,5-38A,major
27503,59,74,144,284,5.0,6-14A,major
27504,40,73,380,28,5.0,6-14A,major
27505,32,74,362,764,8.0,2-3,minor
27506,31,73,388,348,7.0,2-5,other
27507,59,57,220,30,7.0,2-5,other
27508,34,61,96,1078,4.0,3-8B,other
27509,38,1,186,76,8.0,3-10,minor
27510,59,36,64,232,8.0,3-10,minor
27511,55,53,26,192,5.0,2-5,other
27512,36,11,90,214,5.0,2-5,other
27513,59,38,68,396,10.0,2-5,other
27514,57,34,60,50,10.0,2-5,other
27515,41,73,336,44,10.0,2-5,other
27516,82,92,192,56,0.0,2-1,other
27517,81,78,116,244,0.0,2-1,other
27518,79,50,208,164,4.0,3-5A,other
27519,36,13,96,184,4.0,3-5A,other
27520,62,48,32,28,4.0,3-5A,other
27521,58,39,36,32,4.0,3-5A,other
27522,81,120,228,104,11.0,2-6,other
27523,59,37,42,272,11.0,2-6,other
27524,79,70,152,356,11.0,2-2,other
27525,58,49,36,32,11.0,2-2,other
27526,77,42,172,128,11.0,2-2,other
27527,36,81,86,212,11.0,2-2,other
27528,59,64,206,136,3.0,2-5,other
27529,40,86,374,352,4.0,3-9,other
27530,59,22,238,30,4.0,3-9,other
27531,58,36,104,278,4.0,3-9,other
27532,62,32,44,392,10.0,3-5B,other
27533,76,36,232,116,10.0,2-1,other
27534,61,47,56,600,8.0,2-3,other
27535,59,34,52,800,1.0,1-1,other
27536,70,43,152,160,1.0,2-2,other
27537,55,34,40,244,9.0,4-18A,major
27538,67,52,152,124,11.0,2-2,other
27539,36,20,152,180,11.0,2-2,other
27540,64,55,168,224,11.0,2-3,minor
27541,52,88,374,312,8.0,4-12B,minor
27542,64,48,148,88,8.0,4-12B,minor
27543,59,58,212,288,5.0,2-4,major
27544,50,65,396,26,5.0,2-4,major
27545,69,55,208,54,5.0,2-4,major
27546,44,46,162,284,0.0,2-1,other
27547,59,60,254,26,0.0,2-1,other
27548,73,67,184,50,0.0,2-1,other
27549,81,67,100,396,7.0,2-2,other
27550,85,75,72,124,7.0,2-2,other
27551,93,54,92,268,4.0,2-3,minor
27552,97,72,88,120,4.0,2-3,minor
27553,53,61,136,136,4.0,1-1,other
27554,40,21,48,328,11.0,2-6,other
27555,93,56,140,452,5.0,3-3B,other
27556,31,79,380,82,4.0,2-5,other
27557,36,14,142,212,4.0,2-5,other
27558,43,75,86,54,4.0,2-5,other
27559,50,108,312,122,8.0,2-3,minor
27560,38,56,64,316,8.0,2-3,minor
27561,57,50,152,114,0.0,3-3B,other
27562,59,46,200,342,8.0,2-2,other
27563,43,66,452,348,5.0,5-30B,augmented
27564,59,40,68,278,5.0,5-30B,augmented
27565,38,84,376,506,5.0,5-30B,augmented
27566,59,29,44,268,5.0,5-30B,augmented
27567,80,43,120,562,7.0,3-11A,minor
27568,74,52,28,252,7.0,5-35,minor
27569,56,36,44,508,9.0,2-3,minor
27570,38,9,208,350,8.0,3-2A,minor
27571,59,28,104,774,8.0,2-2,other
27572,56,76,236,96,7.0,3-11B,major
27573,59,44,82,140,7.0,3-11B,major
27574,59,62,162,520,8.0,2-3,minor
27575,59,33,66,252,8.0,2-3,minor
27576,38,10,38,228,0.0,2-1,other
27577,53,50,74,134,0.0,2-1,other
27578,60,73,104,410,2.0,4-27A,minor
27579,61,42,152,180,11.0,2-3,minor
27580,36,27,124,32,11.0,2-3,minor
27581,53,34,122,308,0.0,3-8B,other
27582,65,63,160,36,0.0,3-8B,other
27583,39,111,326,334,9.0,4-9,other
27584,70,63,160,78,9.0,4-9,other
27585,53,54,100,150,9.0,4-9,other
27586,72,75,100,42,9.0,4-9,other
27587,73,49,176,172,3.0,3-4A,other
27588,40,100,372,316,0.0,4-16B,major
27589,59,47,146,40,0.0,4-16B,major
27590,78,57,132,32,0.0,4-16B,major
27591,38,9,246,716,11.0,3-8B,other
27592,83,57,164,32,11.0,3-8B,other
27593,57,39,68,276,2.0,2-2,other
27594,84,54,176,96,7.0,2-1,other
27595,81,75,96,228,0.0,3-4A,major
27596,53,43,88,420,9.0,2-3,minor
27597,59,28,58,330,2.0,2-4,major
27598,38,12,122,352,10.0,4-20,major
27599,74,66,200,162,1.0,3-7B,other
27600,59,29,60,268,1.0,3-7B,other
27601,79,63,100,388,5.0,2-1,other
27602,72,68,204,640,11.0,2-2,other
27603,60,44,40,120,11.0,2-2,other
27604,69,59,176,152,3.0,3-11A,other
27605,59,59,142,772,8.0,1-1,other
27606,35,93,358,340,11.0,2-2,other
27607,57,60,60,64,7.0,2-4,major
27608,60,51,48,148,7.0,2-4,major
27609,64,56,68,128,8.0,2-6,other
27610,67,55,64,136,8.0,3-10,minor
27611,69,56,40,68,8.0,3-10,minor
27612,71,50,28,60,8.0,3-10,minor
27613,59,38,64,86,0.0,1-1,other
27614,74,45,32,26,0.0,1-1,other
27615,59,68,362,344,11.0,2-3,minor
27616,74,75,104,104,8.0,2-2,other
27617,76,71,92,108,8.0,2-2,other
27618,74,60,108,76,8.0,2-2,other
27619,73,57,76,76,8.0,2-2,other
27620,59,39,60,42,8.0,2-2,other
27621,33,83,258,56,8.0,2-2,other
27622,74,74,232,30,8.0,2-2,other
27623,69,72,244,456,0.0,3-3B,other
27624,59,30,48,204,0.0,3-3B,other
27625,38,7,54,338,9.0,2-5,other
27626,59,78,362,30,9.0,2-5,other
27627,47,63,1144,44,9.0,2-5,other
27628,44,27,176,442,0.0,3-3A,minor
27629,38,9,172,62,4.0,2-5,other
27630,36,17,52,224,4.0,2-5,other
27631,61,85,256,160,3.0,4-20,other
27632,38,19,82,196,3.0,4-20,other
27633,59,47,60,40,3.0,4-20,other
27634,54,26,40,32,3.0,4-20,other
27635,59,70,34,86,8.0,2-6,other
27636,61,63,164,38,8.0,2-6,other
27637,39,86,108,154,8.0,2-6,other
27638,36,16,76,48,8.0,2-6,other
27639,38,19,106,370,4.0,2-4,major
27640,59,39,62,30,4.0,2-4,major
27641,64,61,40,34,4.0,2-4,major
27642,44,36,260,40,4.0,2-4,major
27643,59,74,312,44,4.0,2-4,major
27644,65,36,44,104,4.0,2-4,major
27645,44,49,240,234,0.0,3-11B,major
27646,68,59,160,86,0.0,2-1,other
27647,44,28,220,300,6.0,2-3,minor
27648,70,54,188,88,11.0,2-5,other
27649,71,75,100,216,11.0,2-5,other
27650,44,56,210,76,11.0,2-5,other
27651,59,77,334,30,11.0,2-5,other
27652,72,58,176,62,11.0,2-5,other
27653,39,58,106,232,10.0,4-7,major
27654,53,28,456,36,10.0,4-7,major
27655,44,35,156,34,10.0,4-7,major
27656,74,58,140,74,7.0,3-11B,major
27657,44,59,212,306,10.0,4-6,other
27658,59,70,278,806,4.0,4-5B,other
27659,81,52,120,28,4.0,4-5B,other
27660,36,38,72,190,4.0,4-5B,other
27661,84,69,228,70,5.0,5-38B,major
27662,86,11,92,152,11.0,3-5A,other
27663,59,52,222,330,3.0,2-5,other
27664,38,77,372,332,7.0,6-32,minor
27665,59,49,282,34,7.0,6-32,minor
27666,53,57,168,100,9.0,4-23,minor
27667,83,22,36,100,9.0,4-23,minor
27668,59,37,82,452,10.0,5-20B,major
27669,31,72,378,90,10.0,5-20B,major
27670,59,31,266,30,10.0,5-20B,major
27671,59,47,224,374,9.0,3-4A,major
27672,34,49,40,324,4.0,4-15A,other
27673,62,41,36,150,4.0,3-5A,other
27674,53,37,258,26,4.0,3-5A,other
27675,59,58,298,302,8.0,2-6,other
27676,36,20,66,204,8.0,2-6,other
27677,54,45,104,60,8.0,2-6,other
27678,36,10,64,322,9.0,5-17,minor
27679,58,52,80,374,9.0,3-11A,minor
27680,69,41,32,96,2.0,3-7A,minor
27681,53,40,118,198,5.0,4-20,major
27682,78,30,40,190,9.0,3-7A,minor
27683,44,42,130,32,9.0,3-7A,minor
27684,42,93,388,30,9.0,3-7A,minor
27685,77,14,56,154,0.0,3-11A,minor
27686,61,41,36,64,0.0,3-11A,minor
27687,59,56,356,48,0.0,3-11A,minor
27688,43,88,366,132,2.0,3-1,other
27689,59,40,54,268,7.0,4-26,minor
27690,74,42,56,172,7.0,3-11A,minor
27691,38,14,46,200,7.0,3-11A,minor
27692,60,45,32,424,2.0,2-3,minor
27693,38,11,84,308,10.0,2-1,other
27694,74,74,88,344,0.0,2-1,other
27695,75,72,28,120,0.0,2-1,other
27696,42,91,390,80,8.0,3-2B,other
27697,79,57,36,64,8.0,3-2B,other
27698,82,54,72,132,8.0,3-2B,other
27699,86,117,216,224,8.0,3-10,minor
27700,83,86,96,244,9.0,3-8B,other
27701,84,85,124,160,11.0,2-6,other
27702,34,82,410,312,7.0,6-33B,major
27703,59,33,272,28,7.0,6-33B,major
27704,77,42,216,56,7.0,6-33B,major
27705,70,58,224,372,8.0,3-10,minor
27706,65,24,32,264,9.0,2-4,major
27707,69,57,120,480,8.0,2-3,minor
27708,60,46,132,500,9.0,2-2,other
27709,36,17,90,82,9.0,2-2,other
27710,40,76,342,162,0.0,3-3B,other
27711,45,1,68,184,0.0,3-3B,other
27712,48,48,88,72,0.0,3-3B,other
27713,59,61,268,1690,8.0,2-3,minor
27714,66,30,36,726,0.0,2-5,other
27715,36,11,166,58,11.0,2-2,other
27716,38,14,104,268,11.0,2-2,other
27717,46,45,120,92,9.0,3-6,major
27718,59,38,60,282,9.0,4-18B,other
27719,59,52,282,112,2.0,2-1,other
27720,38,14,142,124,2.0,4-26,minor
27721,38,79,22,184,2.0,4-26,minor
27722,31,84,322,426,0.0,2-1,other
27723,59,56,244,36,0.0,2-1,other
27724,58,49,116,458,2.0,4-23,minor
27725,59,37,42,208,2.0,4-23,minor
27726,36,97,342,64,0.0,6-35,augmented
27727,59,61,284,34,0.0,6-35,augmented
27728,79,31,40,150,0.0,6-35,augmented
27729,38,12,38,114,0.0,6-35,augmented
27730,82,46,36,58,10.0,5-33,augmented
27731,36,12,78,490,0.0,2-1,other
27732,44,46,88,300,5.0,2-5,other
27733,53,28,120,486,10.0,2-5,other
27734,44,35,98,284,10.0,2-5,other
27735,56,63,44,452,8.0,2-3,other
27736,56,71,72,236,8.0,2-3,other
27737,56,53,132,152,8.0,2-3,other
27738,56,66,76,236,8.0,2-3,other
27739,56,57,184,144,8.0,2-3,other
27740,39,91,102,206,8.0,2-3,other
27741,40,86,130,152,10.0,2-4,major
27742,56,52,228,38,10.0,2-4,major
27743,38,17,122,178,10.0,2-4,major
27744,53,66,100,62,10.0,2-4,major
27745,51,38,196,168,10.0,2-4,major
27746,53,63,72,216,11.0,3-10,diminished
27747,44,35,124,34,11.0,3-10,diminished
27748,59,32,46,694,0.0,2-2,other
27749,44,35,128,98,0.0,2-2,other
27750,75,81,84,1066,0.0,3-1,other
27751,77,117,228,252,0.0,3-1,other
27752,75,79,200,276,5.0,2-1,other
27753,77,36,44,40,5.0,2-1,other
27754,36,12,110,100,5.0,2-1,other
27755,53,27,60,62,5.0,2-1,other
27756,36,20,110,108,5.0,2-5,other
27757,70,57,28,182,5.0,2-5,other
27758,65,58,176,260,0.0,2-4,other
27759,63,57,88,236,0.0,2-4,other
27760,55,53,166,158,0.0,5-14A,minor
27761,46,32,94,332,0.0,5-14A,minor
27762,44,54,640,282,11.0,3-8A,other
27763,38,15,48,362,11.0,3-8A,other
27764,38,14,116,510,11.0,3-8A,other
27765,40,67,246,404,5.0,2-2,other
27766,75,43,44,80,5.0,2-2,other
27767,36,9,96,298,5.0,2-5,other
27768,77,83,108,26,5.0,2-5,other
27769,44,37,90,330,5.0,3-7B,other
27770,59,48,82,32,5.0,3-7B,other
27771,59,55,120,398,3.0,4-20,major
27772,44,34,70,352,3.0,4-20,major
27773,44,48,4840,288,5.0,5-13B,other
27774,46,30,466,38,5.0,5-13B,other
27775,53,43,72,334,5.0,5-13B,other
27776,56,45,84,120,5.0,5-13B,other
27777,58,50,28,116,5.0,5-13B,other
27778,60,63,64,104,5.0,5-13B,other
27779,61,57,88,116,5.0,5-13B,other
27780,63,49,40,116,5.0,5-13B,other
27781,65,49,80,120,5.0,5-13B,other
27782,67,42,76,108,5.0,5-13B,other
27783,68,42,84,72,5.0,5-13B,other
27784,70,61,32,80,5.0,5-13B,other
27785,72,63,40,100,5.0,5-13B,other
27786,73,66,84,64,5.0,5-13B,other
27787,75,72,32,68,5.0,5-13B,other
27788,77,81,96,88,5.0,5-13B,other
27789,79,78,96,84,5.0,5-13B,other
27790,80,66,88,48,5.0,5-13B,other
27791,82,71,36,72,5.0,5-13B,other
27792,84,81,80,88,5.0,5-13B,other
27793,85,81,104,72,5.0,5-13B,other
27794,87,81,64,80,5.0,5-13B,other
27795,89,77,128,96,5.0,5-13B,other
27796,91,80,112,88,5.0,5-13B,other
27797,92,75,80,92,5.0,5-13B,other
27798,94,70,64,60,5.0,5-13B,other
27799,96,80,104,112,5.0,5-13B,other
27800,97,78,108,96,5.0,5-13B,other
27801,99,75,60,92,5.0,5-13B,other
27802,101,77,132,124,5.0,5-13B,other
27803,103,70,156,120,5.0,5-13B,other
27804,104,73,148,120,5.0,5-13B,other
27805,53,48,1360,0,2.0,3-7A,minor
27806,79,64,920,2510,5.0,1-1,other
27807,65,36,2750,70,3.0,2-5,other
27808,81,64,410,630,3.0,2-5,other
27809,82,79,220,420,3.0,2-5,other
27810,84,98,410,340,3.0,2-5,other
27811,86,102,440,340,3.0,2-5,other
27812,87,101,350,330,3.0,2-5,other
27813,89,83,470,410,3.0,2-5,other
27814,91,97,810,520,3.0,2-5,other
27815,65,41,3520,30,3.0,2-5,other
27816,90,84,590,600,2.0,2-2,other
27817,85,73,360,470,2.0,2-2,other
27818,84,67,230,290,2.0,2-2,other
27819,89,87,310,290,2.0,2-2,other
27820,53,47,7310,140,2.0,2-2,other
27821,83,36,170,270,2.0,2-2,other
27822,88,79,480,200,2.0,2-2,other
27823,87,73,260,400,2.0,2-2,other
27824,86,73,410,400,2.0,2-2,other
27825,85,70,490,450,2.0,2-2,other
27826,77,53,620,2210,5.0,2-2,other
27827,77,48,760,1170,5.0,2-2,other
27828,77,41,850,1340,5.0,2-2,other
27829,77,53,400,6970,10.0,3-4A,major
27830,65,32,520,60,2.0,3-7B,other
27831,89,84,3260,2825,2.0,2-2,other
27832,78,54,2540,1535,2.0,2-2,other
27833,58,51,1690,40,2.0,2-2,other
27834,53,36,2030,100,2.0,2-2,other
27835,63,5,1490,40,2.0,2-2,other
27836,55,69,3100,3408,2.0,2-2,other
27837,58,64,2610,42,2.0,2-2,other
27838,61,74,2280,340,2.0,2-2,other
27839,69,69,220,540,4.0,2-3,minor
27840,70,81,160,210,4.0,2-3,minor
27841,72,83,190,210,4.0,2-3,minor
27842,73,76,270,170,4.0,2-3,minor
27843,75,88,190,200,4.0,2-3,minor
27844,76,97,250,190,4.0,2-3,minor
27845,78,95,170,240,4.0,2-3,minor
27846,79,89,250,260,4.0,2-3,minor
27847,81,84,230,230,4.0,2-3,minor
27848,82,88,160,200,4.0,2-3,minor
27849,84,84,280,230,4.0,2-3,minor
27850,86,79,290,240,4.0,2-3,minor
27851,87,69,210,200,4.0,2-3,minor
27852,65,40,2540,110,4.0,2-3,minor
27853,89,87,710,350,0.0,3-6,major
27854,86,70,510,610,0.0,3-6,major
27855,53,51,1590,50,0.0,3-6,major
27856,77,44,980,620,0.0,3-6,major
27857,38,47,2960,1748,0.0,3-6,major
27858,60,58,2880,1112,6.0,2-1,other
27859,50,39,2650,40,6.0,2-1,other
27860,61,74,700,3081,6.0,2-1,other
27861,59,64,570,747,8.0,2-6,other
27862,71,67,850,2682,8.0,2-3,other
27863,62,31,700,70,8.0,2-3,other
27864,64,42,280,1690,0.0,3-6,other
27865,64,61,330,580,0.0,3-6,other
27866,61,35,180,170,0.0,3-6,other
27867,66,70,350,210,0.0,3-6,other
27868,68,75,370,290,0.0,3-6,other
27869,61,1,310,120,0.0,3-6,other
27870,70,61,70,230,0.0,3-6,other
27871,72,73,170,170,0.0,3-6,other
27872,74,91,130,280,0.0,3-6,other
27873,76,70,180,290,0.0,3-6,other
27874,78,80,300,240,0.0,3-6,other
27875,80,70,210,220,0.0,3-6,other
27876,82,61,60,190,0.0,3-6,other
27877,84,54,250,170,0.0,3-6,other
27878,86,56,190,250,0.0,3-6,other
27879,87,51,230,180,0.0,3-6,other
27880,88,63,230,230,0.0,3-6,other
27881,91,68,240,230,0.0,3-6,other
27882,89,70,1120,250,0.0,3-6,other
27883,57,38,660,140,5.0,2-2,other
27884,41,48,190,1450,5.0,2-2,other
27885,66,48,140,922,5.0,2-2,other
27886,65,70,570,1075,5.0,2-2,other
27887,77,101,2880,1673,3.0,4-22A,major
27888,65,47,2120,2964,7.0,2-3,minor
27889,89,73,600,1663,7.0,2-3,minor
27890,53,51,3360,100,7.0,2-3,minor
27891,65,82,1310,4044,7.0,2-3,minor
27892,53,75,3040,970,7.0,2-3,minor
27893,65,64,2210,2009,7.0,3-7A,minor
27894,69,55,850,40,7.0,3-7A,minor
27895,89,70,820,2490,5.0,1-1,other
27896,89,93,830,2750,3.0,3-9,other
27897,87,79,1270,700,3.0,3-9,other
27898,82,73,1180,650,3.0,3-9,other
27899,79,73,720,640,3.0,3-9,other
27900,86,87,820,650,3.0,3-9,other
27901,53,46,2890,160,3.0,3-9,other
27902,85,79,620,520,3.0,3-9,other
27903,77,61,830,1470,9.0,3-10,diminished
27904,75,70,880,800,9.0,3-10,diminished
27905,72,60,550,780,9.0,3-10,diminished
27906,74,73,440,580,9.0,3-10,diminished
27907,75,83,520,510,9.0,3-10,diminished
27908,44,73,340,470,9.0,3-10,diminished
27909,74,87,1530,70,9.0,3-10,diminished
27910,54,70,1020,630,9.0,3-10,diminished
27911,65,82,660,570,9.0,3-10,diminished
27912,59,64,750,1240,3.0,2-5,other
27913,53,56,740,40,3.0,2-5,other
27914,64,45,590,1640,6.0,3-7B,other
27915,64,63,530,1130,6.0,3-7B,other
27916,51,43,1340,1250,2.0,2-5,other
27917,41,33,910,60,2.0,2-5,other
27918,72,70,450,3490,2.0,2-5,other
27919,60,47,1700,30,2.0,2-5,other
27920,62,47,1740,40,2.0,2-5,other
27921,69,53,350,430,2.0,2-5,other
27922,70,67,390,420,2.0,2-5,other
27923,53,48,2610,60,2.0,2-5,other
27924,72,67,420,400,2.0,2-5,other
27925,74,84,310,410,2.0,2-5,other
27926,75,81,350,380,2.0,2-5,other
27927,53,62,3250,1600,3.0,3-9,other
27928,58,51,2410,2410,1.0,3-10,diminished
27929,76,94,570,530,1.0,3-10,diminished
27930,77,92,520,450,1.0,3-10,diminished
27931,78,91,410,410,1.0,3-10,diminished
27932,79,87,550,440,1.0,3-10,diminished
27933,53,70,1870,30,1.0,3-10,diminished
27934,81,98,410,440,1.0,3-10,diminished
27935,84,122,710,620,1.0,3-10,diminished
27936,62,55,2260,110,5.0,2-5,other
27937,81,85,700,420,5.0,2-5,other
27938,86,89,620,1210,10.0,2-5,other
27939,89,90,2000,750,10.0,2-5,other
27940,93,91,820,1690,10.0,2-5,other
27941,96,87,590,780,10.0,2-5,other
27942,97,89,780,760,10.0,2-5,other
27943,50,58,1630,720,2.0,2-2,other
27944,56,68,740,890,2.0,2-2,other
27945,60,67,190,710,2.0,2-2,other
27946,65,84,530,720,2.0,2-2,other
27947,67,85,500,700,2.0,2-2,other
27948,68,89,500,580,2.0,2-2,other
27949,68,65,600,2850,11.0,2-3,minor
27950,67,64,580,820,11.0,2-3,minor
27951,65,73,780,720,11.0,2-3,minor
27952,63,57,1520,820,11.0,2-3,minor
27953,48,45,6970,60,11.0,2-3,minor
27954,55,42,1510,870,11.0,2-3,minor
27955,55,14,620,3120,0.0,2-3,minor
27956,75,50,960,2120,3.0,2-4,other
27957,58,57,1250,3440,0.0,3-11A,minor
27958,70,57,810,1100,0.0,3-11A,minor
27959,60,44,340,30,0.0,3-11A,minor
27960,75,18,440,230,0.0,3-11A,minor
27961,63,65,1110,3341,2.0,3-11A,minor
27962,53,61,2210,30,2.0,3-11A,minor
27963,73,79,580,600,2.0,3-11A,minor
27964,53,82,350,2090,9.0,3-10,diminished
27965,54,64,640,3312,10.0,4-22A,major
27966,60,52,70,1794,10.0,2-4,other
27967,63,56,950,1210,10.0,2-1,other
27968,68,50,1320,1630,7.0,2-2,other
27969,65,36,160,3865,3.0,2-1,other
27970,70,31,380,630,3.0,2-1,other
27971,63,64,1430,3178,2.0,2-5,other
27972,72,80,480,1500,9.0,2-2,other
27973,44,95,790,3040,9.0,2-2,other
27974,54,87,240,650,9.0,2-2,other
27975,60,105,1070,690,9.0,2-2,other
27976,65,114,610,650,9.0,2-2,other
27977,70,104,580,680,9.0,2-2,other
27978,53,48,3860,860,3.0,3-4A,other
27979,73,83,550,700,3.0,3-4A,other
27980,59,55,830,80,3.0,3-4A,other
27981,62,40,1010,850,8.0,3-10,other
27982,77,76,410,760,8.0,3-10,other
27983,76,67,360,1640,11.0,2-3,minor
27984,75,67,1400,520,11.0,2-3,minor
27985,48,50,3770,70,11.0,2-3,minor
27986,55,56,2660,610,11.0,2-3,minor
27987,74,73,400,4029,3.0,3-4A,major
27988,69,48,3910,800,2.0,5-31B,major
27989,41,55,200,1510,2.0,5-31B,major
27990,43,71,370,7691,10.0,5-30B,other
27991,63,42,1410,1740,10.0,5-30B,other
27992,53,35,1280,120,10.0,2-1,other
27993,67,63,690,5050,0.0,2-3,minor
27994,66,72,350,790,0.0,2-3,minor
27995,64,62,580,580,0.0,2-3,minor
27996,51,63,2580,1390,5.0,1-1,other
27997,53,68,2000,730,5.0,1-1,other
27998,60,72,1000,720,5.0,1-1,other
27999,62,76,680,930,5.0,1-1,other
28000,63,74,720,710,5.0,1-1,other
28001,70,82,350,2320,9.0,1-1,other
28002,60,55,460,50,9.0,1-1,other
28003,72,92,360,400,9.0,1-1,other
28004,74,93,450,480,9.0,1-1,other
28005,53,39,1140,560,3.0,2-5,other
28006,77,69,380,500,3.0,2-5,other
28007,65,65,220,1514,0.0,2-5,other
28008,63,37,1890,3620,2.0,2-2,other
28009,82,48,1260,60,5.0,2-5,other
28010,58,39,1060,2840,1.0,2-3,minor
28011,55,39,2120,40,1.0,2-3,minor
28012,61,57,370,1730,1.0,4-28,diminished
28013,60,39,1020,1020,2.0,3-7A,minor
28014,65,57,90,1450,2.0,3-7A,minor
28015,72,33,90,430,2.0,2-2,other
28016,77,69,90,530,2.0,2-2,other
28017,65,41,90,60,2.0,2-2,other
28018,54,27,110,90,2.0,2-2,other
28019,60,55,90,710,2.0,2-2,other
28020,81,42,80,370,2.0,2-2,other
28021,86,77,110,870,5.0,3-5B,other
28022,86,66,700,890,10.0,2-1,other
28023,53,13,830,40,10.0,2-1,other
28024,59,54,420,550,10.0,2-1,other
28025,83,66,320,280,10.0,2-1,other
28026,59,55,260,640,3.0,2-5,other
28027,79,39,460,390,3.0,2-5,other
28028,58,41,110,400,3.0,2-5,other
28029,84,27,110,690,0.0,2-4,major
28030,72,46,210,120,0.0,2-4,major
28031,84,41,130,260,0.0,2-4,major
28032,72,32,290,180,0.0,2-4,major
28033,84,36,130,300,0.0,2-4,major
28034,72,48,230,190,0.0,2-4,major
28035,84,42,180,230,10.0,2-4,major
28036,72,45,200,220,10.0,2-4,major
28037,84,39,290,190,10.0,2-4,major
28038,72,46,280,280,10.0,2-4,major
28039,53,34,750,370,3.0,2-5,other
28040,60,47,410,780,3.0,2-5,other
28041,72,52,350,240,3.0,2-5,other
28042,53,2,270,140,3.0,2-5,other
28043,58,6,500,250,3.0,2-5,other
28044,75,99,310,640,3.0,2-1,other
28045,74,49,70,70,3.0,2-1,other
28046,76,127,270,440,3.0,2-1,other
28047,65,37,170,1290,5.0,2-4,major
28048,58,21,160,1620,3.0,3-11B,major
28049,60,44,100,40,3.0,3-11B,major
28050,67,51,750,230,3.0,2-1,other
28051,51,49,310,3390,9.0,3-10,diminished
28052,54,55,230,150,9.0,3-10,diminished
28053,63,53,590,150,9.0,2-3,minor
28054,51,45,250,600,9.0,2-3,minor
28055,54,62,810,220,9.0,2-3,minor
28056,63,51,730,70,6.0,2-3,minor
28057,60,49,550,40,6.0,2-3,minor
28058,51,54,320,630,6.0,2-3,minor
28059,60,57,650,270,5.0,2-4,major
28060,64,35,310,930,9.0,2-5,other
28061,65,49,200,630,5.0,3-11B,major
28062,77,85,530,1230,3.0,4-20,major
28063,74,53,260,610,3.0,4-20,major
28064,75,48,270,350,3.0,4-20,major
28065,63,32,110,520,3.0,4-20,major
28066,67,54,70,830,3.0,4-20,major
28067,63,42,90,50,3.0,4-20,major
28068,57,26,80,30,3.0,4-20,major
28069,83,38,150,330,3.0,4-20,major
28070,87,38,90,1510,5.0,5-9A,major
28071,60,28,90,1020,1.0,2-1,other
28072,58,49,610,1790,3.0,5-26B,augmented
28073,51,56,520,2750,2.0,2-5,other
28074,58,40,240,900,2.0,2-5,other
28075,61,35,100,200,2.0,2-5,other
28076,61,63,210,470,7.0,2-3,minor
28077,61,37,260,1290,7.0,4-26,minor
28078,65,55,160,170,7.0,4-26,minor
28079,60,56,210,530,7.0,4-26,minor
28080,70,48,480,390,7.0,2-2,other
28081,63,54,80,850,7.0,2-2,other
28082,76,52,230,970,2.0,2-2,other
28083,77,79,190,600,2.0,2-2,other
28084,64,37,1050,340,1.0,2-3,other
28085,76,50,80,620,7.0,1-1,other
28086,73,58,310,1180,1.0,3-10,minor
28087,62,49,1190,660,7.0,2-2,other
28088,60,44,1310,30,7.0,2-2,other
28089,69,79,470,220,7.0,2-2,other
28090,70,76,210,600,7.0,2-2,other
28091,53,51,1100,70,7.0,2-2,other
28092,69,49,640,260,7.0,2-2,other
28093,65,57,230,880,2.0,2-2,other
28094,54,71,940,1580,0.0,4-26,other
28095,89,63,200,1200,6.0,3-5B,other
28096,77,54,140,30,6.0,3-5B,other
28097,58,41,100,620,6.0,2-5,other
28098,53,58,570,310,4.0,4-26,minor
28099,56,47,250,1570,4.0,5-13A,minor
28100,63,35,90,600,4.0,5-13A,minor
28101,98,78,160,1150,3.0,4-20,major
28102,91,62,730,1310,10.0,2-4,major
28103,58,57,450,1510,3.0,3-4A,major
28104,86,36,170,250,3.0,3-4A,major
28105,60,42,490,1940,3.0,2-5,other
28106,82,52,70,1540,3.0,1-1,other
28107,60,44,320,310,3.0,2-5,other
28108,63,41,140,600,3.0,2-5,other
28109,65,54,190,3290,0.0,2-2,other
28110,70,41,180,170,0.0,2-2,other
28111,60,38,320,110,0.0,2-2,other
28112,65,41,170,80,0.0,2-2,other
28113,70,43,140,220,0.0,2-2,other
28114,65,49,180,130,0.0,2-2,other
28115,65,45,200,370,10.0,2-4,major
28116,65,41,220,360,10.0,2-4,major
28117,74,41,180,260,10.0,2-4,major
28118,70,48,250,30,10.0,2-4,major
28119,65,58,110,280,10.0,2-4,major
28120,59,67,130,180,10.0,2-4,major
28121,53,52,180,70,10.0,2-4,major
28122,59,57,380,260,3.0,2-5,other
28123,60,51,70,30,3.0,2-5,other
28124,54,38,100,340,3.0,2-5,other
28125,56,82,340,150,3.0,2-5,other
28126,54,52,230,1010,7.0,2-4,major
28127,55,42,320,310,3.0,3-8B,other
28128,55,4,1220,710,3.0,3-8B,other
28129,48,39,1270,130,10.0,2-4,major
28130,65,37,680,40,10.0,2-4,major
28131,60,51,470,810,10.0,2-4,major
28132,63,45,470,40,10.0,2-4,major
28133,58,61,110,570,10.0,2-4,major
28134,41,74,60,900,2.0,2-3,minor
28135,51,33,1730,540,11.0,2-2,other
28136,72,57,950,780,6.0,3-10,minor
28137,69,46,800,30,6.0,3-10,minor
28138,44,72,70,1770,6.0,3-10,minor
28139,83,87,880,2800,3.0,4-16A,other
28140,53,37,270,1560,3.0,4-14A,other
28141,86,56,670,1210,3.0,4-20,major
28142,84,53,360,1530,5.0,2-2,other
28143,57,39,140,2750,0.0,4-22B,minor
28144,49,48,240,830,0.0,4-22B,minor
28145,60,31,600,400,5.0,1-1,other
28146,63,50,520,860,6.0,2-3,other
28147,58,40,370,40,6.0,2-3,other
28148,54,64,270,560,6.0,2-3,other
28149,53,58,310,60,10.0,2-5,other
28150,43,64,200,950,6.0,2-3,other
28151,49,50,310,920,3.0,2-4,other
28152,55,35,210,1700,11.0,2-3,minor
28153,62,39,160,450,5.0,4-14B,major
28154,62,58,200,510,10.0,3-4B,other
28155,58,25,390,320,10.0,3-4B,other
28156,62,35,240,90,10.0,3-4B,other
28157,55,40,230,450,10.0,3-4B,other
28158,62,60,90,90,10.0,2-5,other
28159,57,54,220,60,10.0,2-5,other
28160,58,42,450,200,10.0,2-5,other
28161,62,57,390,50,10.0,2-5,other
28162,41,63,350,500,10.0,2-5,other
28163,65,44,670,400,9.0,3-8B,other
28164,41,17,490,120,9.0,3-8B,other
28165,62,38,300,190,9.0,3-8B,other
28166,48,51,260,240,9.0,3-8B,other
28167,51,56,510,260,9.0,3-8B,other
28168,62,35,220,400,5.0,3-12,augmented
28169,48,56,220,230,5.0,3-12,augmented
28170,61,50,220,380,5.0,2-4,major
28171,62,34,90,290,5.0,2-4,major
28172,51,38,290,230,5.0,2-4,major
28173,54,56,240,110,5.0,2-4,major
28174,55,58,1130,210,5.0,2-4,major
28175,65,63,1130,70,0.0,2-2,other
28176,55,59,150,1490,0.0,2-2,other
28177,60,67,250,60,10.0,2-5,other
28178,69,56,460,8620,0.0,3-11B,major
28179,55,52,1930,620,1.0,2-3,other
28180,69,27,420,390,1.0,2-3,other
28181,70,74,220,490,1.0,3-10,minor
28182,72,45,380,400,1.0,3-10,minor
28183,75,61,340,880,4.0,3-5A,other
28184,77,63,150,510,11.0,3-7A,minor
28185,79,33,110,60,11.0,3-7A,minor
28186,82,63,220,290,11.0,3-7A,minor
28187,57,61,280,530,11.0,2-3,minor
28188,86,127,280,350,11.0,2-3,minor
28189,84,99,250,510,11.0,2-3,minor
28190,83,96,220,490,9.0,2-5,other
28191,76,58,300,850,7.0,4-22A,major
28192,74,81,300,520,7.0,4-22A,major
28193,71,55,740,380,9.0,2-6,other
28194,67,60,550,50,9.0,2-6,other
28195,72,81,200,2410,8.0,2-3,minor
28196,72,59,60,350,7.0,3-5B,other
28197,54,49,1250,4560,5.0,2-5,other
28198,60,34,780,570,5.0,2-5,other
28199,80,76,260,40,5.0,2-5,other
28200,81,49,290,410,5.0,2-5,other
28201,55,34,130,1860,9.0,2-3,minor
28202,91,81,160,420,9.0,2-3,minor
28203,55,36,90,110,9.0,2-3,minor
28204,91,66,460,260,9.0,5-27B,minor
28205,91,66,70,600,9.0,5-27B,minor
28206,93,31,90,70,9.0,5-27B,minor
28207,89,34,280,1500,7.0,2-5,other
28208,90,68,440,550,7.0,2-5,other
28209,86,48,70,1590,0.0,2-5,other
28210,86,75,490,420,0.0,2-5,other
28211,84,63,800,740,7.0,2-4,major
28212,81,57,670,60,9.0,4-26,minor
28213,83,4,450,310,9.0,4-26,minor
28214,81,75,600,1600,0.0,5-20B,major
28215,60,57,580,90,6.0,3-7A,minor
28216,78,80,450,1670,2.0,4-16B,major
28217,60,47,80,2580,9.0,2-3,minor
28218,58,43,200,890,6.0,2-3,minor
28219,56,21,120,30,6.0,2-3,minor
28220,61,50,320,1990,6.0,3-10,minor
28221,54,31,250,500,6.0,3-10,minor
28222,47,61,590,470,11.0,3-7A,minor
28223,72,58,250,1580,4.0,4-15B,other
28224,79,85,230,590,4.0,4-15B,other
28225,58,43,1020,620,5.0,5-30B,other
28226,79,69,250,2430,2.0,1-1,other
28227,79,46,250,590,2.0,1-1,other
28228,84,21,300,30,2.0,1-1,other
28229,59,52,760,180,2.0,1-1,other
28230,85,60,400,360,2.0,1-1,other
28231,83,63,450,980,2.0,2-1,other
28232,74,66,510,990,7.0,1-1,other
28233,74,69,300,770,7.0,1-1,other
28234,57,31,120,680,0.0,3-11B,major
28235,55,22,220,310,0.0,3-11B,major
28236,55,68,1450,600,1.0,3-10,minor
28237,91,122,290,470,1.0,3-10,minor
28238,88,78,190,470,1.0,3-10,minor
28239,85,63,320,410,1.0,3-10,minor
28240,61,56,200,420,1.0,3-10,minor
28241,79,42,70,90,4.0,3-10,diminished
28242,85,61,120,400,4.0,3-10,diminished
28243,83,66,220,860,2.0,2-5,other
28244,74,31,300,910,7.0,3-11B,major
28245,71,52,480,830,11.0,2-2,other
28246,57,48,100,980,11.0,3-7A,minor
28247,69,67,390,870,2.0,3-11A,minor
28248,71,73,120,890,10.0,4-20,major
28249,72,81,180,290,10.0,4-20,major
28250,74,88,180,330,10.0,4-20,major
28251,62,79,530,900,4.0,3-3A,major
28252,74,42,220,990,8.0,3-7A,minor
28253,66,67,320,220,8.0,3-7A,minor
28254,78,46,70,120,8.0,3-7A,minor
28255,68,33,140,30,8.0,3-7A,minor
28256,60,66,210,470,8.0,3-7A,minor
28257,74,47,70,1300,7.0,2-4,major
28258,60,41,90,40,7.0,2-4,major
28259,55,68,70,500,7.0,2-4,major
28260,64,69,230,890,8.0,3-10,diminished
28261,72,37,100,70,8.0,3-10,diminished
28262,72,64,280,260,8.0,3-10,diminished
28263,57,61,430,80,4.0,2-3,minor
28264,57,74,170,590,9.0,3-11A,minor
28265,57,87,210,830,9.0,3-11A,minor
28266,57,49,510,990,0.0,2-4,major
28267,55,45,510,30,0.0,2-4,major
28268,76,73,140,300,0.0,2-4,major
28269,57,41,300,670,0.0,2-4,major
28270,74,41,80,1220,0.0,1-1,other
28271,79,70,170,2630,6.0,3-8B,other
28272,83,99,220,550,6.0,3-8B,other
28273,83,60,170,1020,7.0,4-22A,major
28274,84,34,170,2170,0.0,4-16A,other
28275,77,45,80,710,7.0,3-5B,other
28276,62,71,520,860,4.0,4-17,other
28277,79,73,210,600,4.0,4-17,other
28278,62,62,220,100,4.0,2-3,minor
28279,57,45,850,1990,0.0,3-11B,major
28280,60,52,140,930,0.0,3-11B,major
28281,70,63,300,1310,9.0,2-3,minor
28282,64,73,210,480,11.0,2-5,other
28283,60,54,70,50,11.0,2-5,other
28284,72,61,380,370,11.0,2-5,other
28285,67,59,490,590,1.0,2-1,other
28286,57,35,620,90,3.0,2-1,other
28287,74,63,260,290,3.0,2-1,other
28288,75,68,190,510,3.0,3-4A,major
28289,77,34,130,450,3.0,3-4A,major
28290,62,49,140,450,3.0,3-3B,major
28291,80,40,90,380,3.0,3-3B,major
28292,81,24,130,190,3.0,3-3B,major
28293,70,80,250,750,7.0,4-29A,minor
28294,82,43,240,40,7.0,4-29A,minor
28295,71,20,330,290,7.0,4-29A,minor
28296,62,60,290,210,7.0,4-29A,minor
28297,83,49,60,60,7.0,4-29A,minor
28298,61,61,80,1680,7.0,1-1,other
28299,82,56,60,380,9.0,4-26,minor
28300,74,49,70,30,9.0,4-26,minor
28301,79,36,320,50,9.0,4-26,minor
28302,81,69,240,560,9.0,4-26,minor
28303,55,60,550,890,9.0,4-26,minor
28304,57,75,750,1200,2.0,4-27B,major
28305,69,76,720,2770,3.0,4-16A,major
28306,85,41,90,6550,4.0,2-2,other
28307,64,45,940,530,4.0,2-2,other
28308,74,57,670,350,2.0,2-2,other
28309,74,56,90,1390,2.0,3-6,major
28310,74,54,650,350,2.0,3-6,major
28311,64,47,80,520,2.0,3-6,major
28312,60,40,80,40,2.0,3-6,major
28313,86,76,380,290,2.0,3-6,major
28314,74,73,250,620,2.0,3-6,major
28315,59,48,510,120,7.0,2-5,other
28316,74,57,460,380,7.0,2-5,other
28317,59,42,400,480,7.0,2-5,other
28318,86,73,250,270,7.0,2-5,other
28319,74,68,210,550,7.0,2-5,other
28320,74,63,450,400,11.0,2-3,minor
28321,53,48,1030,940,3.0,3-9,other
28322,77,68,230,520,3.0,3-9,other
28323,60,56,490,40,3.0,3-9,other
28324,77,80,680,350,3.0,3-9,other
28325,63,83,150,490,3.0,3-9,other
28326,60,68,340,30,3.0,3-9,other
28327,89,96,550,350,10.0,2-5,other
28328,77,57,180,610,10.0,2-5,other
28329,55,51,1980,390,10.0,4-22A,major
28330,77,31,100,1810,10.0,4-22A,major
28331,60,48,720,910,7.0,2-3,minor
28332,53,20,520,80,7.0,2-3,minor
28333,69,51,190,1770,3.0,3-11A,other
28334,53,24,100,40,3.0,3-11A,other
28335,66,30,110,460,3.0,3-11A,other
28336,55,66,930,380,1.0,3-10,diminished
28337,52,49,1170,1540,1.0,3-10,minor
28338,51,49,230,940,1.0,3-10,minor
28339,62,48,900,280,5.0,3-11B,major
28340,60,48,100,2770,2.0,4-26,minor
28341,54,41,110,1550,2.0,1-1,other
28342,60,44,120,30,2.0,1-1,other
28343,63,40,730,1200,2.0,1-1,other
28344,63,61,420,1470,11.0,3-5B,other
28345,74,52,70,3340,6.0,4-15B,minor
28346,78,66,190,430,6.0,4-15B,minor
28347,69,44,140,470,4.0,3-8A,other
28348,74,42,230,30,4.0,3-8A,other
28349,63,55,220,1650,9.0,2-6,other
28350,65,54,480,870,2.0,3-11A,minor
28351,72,58,1830,30,2.0,3-11A,minor
28352,69,50,1730,30,2.0,3-11A,minor
28353,65,77,1200,570,2.0,3-11A,minor
28354,53,54,4070,1240,2.0,3-11A,minor
28355,67,38,320,910,10.0,2-5,other
28356,89,84,400,1350,5.0,2-2,other
28357,89,79,320,640,5.0,2-2,other
28358,77,79,210,120,5.0,2-2,other
28359,89,83,480,540,5.0,2-2,other
28360,77,68,400,120,5.0,2-2,other
28361,77,71,180,670,5.0,1-1,other
28362,89,57,250,520,5.0,1-1,other
28363,77,71,150,70,5.0,1-1,other
28364,65,43,510,570,5.0,2-2,other
28365,77,68,430,40,5.0,2-2,other
28366,89,61,980,770,5.0,2-2,other
28367,63,42,620,30,5.0,2-2,other
28368,77,75,760,60,10.0,2-5,other
28369,53,48,1120,850,10.0,2-5,other
28370,70,65,370,1880,3.0,3-9,other
28371,74,62,380,70,3.0,3-6,major
28372,63,49,630,560,7.0,4-26,minor
28373,74,62,180,390,5.0,1-1,other
28374,54,42,430,9660,2.0,2-1,other
28375,64,54,140,1040,11.0,3-7B,other
28376,65,48,270,400,0.0,3-7B,other
28377,54,56,360,460,0.0,3-7B,other
28378,59,52,70,30,0.0,3-7B,other
28379,64,35,100,60,0.0,3-7B,other
28380,65,45,250,340,0.0,3-7B,other
28381,54,51,330,490,0.0,3-7B,other
28382,55,47,570,390,10.0,3-9,other
28383,51,50,190,580,10.0,3-9,other
28384,60,42,1010,220,10.0,3-9,other
28385,41,57,70,870,5.0,3-8A,major
28386,55,51,290,1010,1.0,3-10,other
28387,64,39,140,60,1.0,3-10,other
28388,55,68,560,880,1.0,4-28,diminished
28389,65,70,110,3320,0.0,1-1,other
28390,62,56,80,30,0.0,1-1,other
28391,60,48,80,30,0.0,1-1,other
28392,50,37,2260,1180,0.0,2-4,other
28393,67,40,120,260,0.0,2-4,other
28394,68,68,180,180,0.0,2-4,other
28395,67,44,90,210,0.0,2-4,other
28396,65,56,80,120,0.0,2-4,other
28397,67,42,110,220,0.0,2-4,other
28398,68,57,190,100,0.0,2-4,other
28399,70,43,80,180,0.0,2-4,other
28400,72,78,160,140,0.0,2-4,other
28401,74,68,180,240,0.0,2-4,other
28402,75,68,80,210,0.0,2-4,other
28403,77,70,110,260,0.0,2-4,other
28404,60,61,100,110,0.0,2-4,other
28405,79,69,120,140,0.0,2-4,other
28406,80,89,150,270,0.0,2-4,other
28407,53,56,220,170,4.0,2-5,other
28408,82,81,160,130,4.0,2-5,other
28409,83,77,80,330,4.0,2-5,other
28410,84,57,120,340,4.0,2-5,other
28411,85,73,180,290,4.0,2-5,other
28412,86,88,130,270,4.0,2-5,other
28413,87,77,150,330,3.0,2-4,other
28414,88,82,160,340,3.0,2-4,other
28415,89,111,290,290,3.0,2-4,other
28416,86,80,150,320,3.0,2-4,other
28417,62,39,310,70,3.0,2-4,major
28418,60,39,900,50,3.0,2-4,major
28419,87,84,220,190,3.0,2-4,major
28420,79,61,200,320,3.0,2-4,major
28421,86,81,270,320,3.0,2-4,major
28422,84,120,680,710,3.0,2-4,major
28423,62,49,470,60,3.0,2-4,major
28424,60,58,480,40,3.0,2-4,major
28425,79,80,210,480,3.0,2-4,major
28426,77,69,180,260,3.0,2-4,major
28427,74,61,160,940,0.0,3-2B,minor
28428,77,82,620,290,3.0,2-4,major
28429,62,11,160,30,3.0,2-4,major
28430,74,53,190,520,3.0,2-4,major
28431,60,48,190,90,3.0,2-4,major
28432,63,36,100,30,3.0,2-4,major
28433,75,68,610,230,3.0,2-4,major
28434,48,51,2400,960,7.0,1-1,other
28435,54,49,200,580,7.0,1-1,other
28436,62,46,420,290,3.0,2-4,major
28437,54,40,210,600,3.0,2-4,major
28438,51,31,130,50,3.0,2-4,major
28439,55,50,370,190,3.0,2-4,major
28440,63,48,400,80,7.0,2-5,other
28441,51,44,370,560,7.0,2-5,other
28442,53,32,90,270,7.0,2-5,other
28443,65,39,950,130,9.0,3-10,diminished
28444,66,28,80,2260,5.0,3-7B,other
28445,60,82,490,2060,10.0,4-19B,other
28446,53,63,820,1260,3.0,3-8B,other
28447,53,42,390,1460,3.0,3-7A,other
28448,60,19,140,1370,0.0,2-5,other
28449,57,36,100,1420,3.0,2-4,major
28450,55,37,100,40,3.0,2-4,major
28451,62,47,500,220,3.0,2-4,major
28452,52,42,90,800,3.0,2-1,other
28453,53,52,180,1690,5.0,3-8A,major
28454,60,57,100,870,5.0,3-8A,major
28455,60,38,350,340,10.0,2-5,other
28456,86,40,140,190,10.0,2-5,other
28457,58,20,1310,2330,10.0,3-11B,major
28458,53,50,510,240,1.0,2-2,other
28459,53,21,190,1560,3.0,4-7,other
28460,69,66,940,3910,2.0,3-3A,major
28461,69,63,400,1540,6.0,3-10,other
28462,50,55,1210,2800,3.0,3-11A,other
28463,60,51,710,30,3.0,3-11A,other
28464,43,67,2370,1210,3.0,3-11A,other
28465,50,25,260,930,3.0,3-11A,other
28466,53,55,810,520,3.0,3-4A,other
28467,65,45,930,30,3.0,3-4A,other
28468,50,42,230,850,3.0,3-4A,other
28469,63,48,390,1280,7.0,2-3,minor
28470,55,46,90,660,7.0,2-3,minor
28471,48,35,150,50,7.0,2-3,minor
28472,48,43,260,690,3.0,2-5,other
28473,48,33,260,1140,2.0,4-29A,minor
28474,41,8,650,100,2.0,4-29A,minor
28475,57,35,320,670,1.0,2-2,other
28476,65,49,460,2170,7.0,2-3,minor
28477,60,42,560,60,7.0,2-3,minor
28478,62,33,480,50,7.0,2-3,minor
28479,77,58,180,460,7.0,2-3,minor
28480,79,66,280,390,7.0,2-3,minor
28481,81,84,290,520,7.0,2-3,minor
28482,58,49,1770,420,5.0,2-2,other
28483,82,64,300,30,5.0,2-2,other
28484,84,72,170,460,5.0,2-2,other
28485,86,55,90,400,5.0,2-2,other
28486,87,69,220,480,5.0,2-2,other
28487,60,45,280,40,5.0,2-2,other
28488,89,48,280,360,5.0,2-2,other
28489,53,39,1570,70,5.0,2-2,other
28490,91,65,250,420,5.0,2-2,other
28491,77,60,280,1260,2.0,2-3,minor
28492,77,66,240,590,2.0,2-3,minor
28493,53,37,2330,100,2.0,2-3,minor
28494,77,67,270,550,2.0,2-3,minor
28495,65,39,1730,720,3.0,3-9,other
28496,53,52,2200,1420,3.0,3-9,other
28497,89,84,240,890,3.0,3-9,other
28498,86,75,190,280,3.0,3-9,other
28499,86,57,210,990,2.0,2-2,other
28500,81,37,150,360,2.0,2-2,other
28501,81,57,220,950,2.0,2-3,minor
28502,77,34,150,360,2.0,2-3,minor
28503,77,56,690,1110,5.0,2-4,major
28504,65,37,670,620,3.0,2-5,other
28505,74,34,240,910,3.0,2-5,other
28506,65,46,840,330,3.0,2-5,other
28507,74,52,710,960,2.0,3-7A,minor
28508,53,42,1760,3280,3.0,4-22A,major
28509,72,48,660,2800,10.0,4-22A,major
28510,53,39,2250,30,10.0,4-22A,major
28511,63,39,940,1190,10.0,4-22A,major
28512,70,32,1150,120,7.0,2-2,other
28513,53,37,2770,1400,7.0,2-2,other
28514,34,54,126,0,,,
28515,55,42,5692,586,,,
28516,60,49,5950,69,,,
28517,69,49,3965,132,,,
28518,62,39,4589,26,,,
28519,74,51,5372,78,5.0,2-5,other
28520,77,52,5260,180,5.0,2-5,other
28521,55,54,272,5728,2.0,1-1,other
28522,81,52,871,961,1.0,2-2,other
28523,77,48,899,27,1.0,2-2,other
28524,46,53,666,903,1.0,2-2,other
28525,69,51,611,927,1.0,2-2,other
28526,65,52,507,65,1.0,2-6,other
28527,58,45,3655,767,1.0,2-6,other
28528,84,47,1159,925,1.0,2-6,other
28529,81,39,763,1003,5.0,2-4,other
28530,46,41,1812,3026,1.0,2-5,other
28531,53,30,1537,76,1.0,2-5,other
28532,55,67,554,2690,1.0,2-5,other
28533,39,48,967,28,1.0,2-5,other
28534,60,52,348,4782,5.0,2-4,other
28535,72,56,376,939,10.0,2-5,other
28536,54,45,881,55,10.0,2-5,other
28537,82,58,476,437,10.0,2-5,other
28538,58,40,413,39,10.0,2-5,other
28539,82,56,423,872,5.0,2-5,other
28540,66,22,747,75,5.0,2-5,other
28541,84,41,423,423,5.0,2-5,other
28542,72,54,418,524,5.0,2-5,other
28543,89,50,470,37,5.0,2-5,other
28544,106,52,264,1312,6.0,2-6,other
28545,84,69,252,92,6.0,2-6,other
28546,66,74,252,1861,0.0,2-2,other
28547,65,54,250,377,0.0,2-2,other
28548,64,57,151,186,0.0,2-2,other
28549,62,52,192,186,0.0,2-2,other
28550,63,52,2170,215,0.0,2-2,other
28551,58,38,2405,78,0.0,2-2,other
28552,48,43,2385,42,0.0,2-2,other
28553,41,45,747,3835,0.0,2-2,other
28554,78,68,275,813,0.0,2-2,other
28555,75,66,329,932,0.0,2-2,other
28556,69,45,200,108,6.0,2-6,other
28557,72,40,104,1406,6.0,2-6,other
28558,68,51,465,2453,5.0,2-5,other
28559,72,46,273,81,1.0,2-2,other
28560,60,48,249,849,11.0,2-3,minor
28561,59,52,512,1034,1.0,2-3,other
28562,63,52,396,2738,1.0,3-2A,other
28563,42,72,399,1016,10.0,4-29A,other
28564,58,48,1418,1036,0.0,4-24,augmented
28565,41,54,564,2900,0.0,4-24,augmented
28566,51,57,2468,544,0.0,4-24,augmented
28567,57,57,2645,380,0.0,4-24,augmented
28568,61,57,398,511,0.0,4-24,augmented
28569,65,60,271,476,0.0,4-24,augmented
28570,73,66,241,398,0.0,4-24,augmented
28571,73,48,424,517,0.0,4-24,augmented
28572,72,49,166,472,0.0,4-24,augmented
28573,36,52,423,4310,7.0,3-11A,minor
28574,41,41,962,1870,1.0,3-7B,other
28575,51,57,578,983,1.0,3-7B,other
28576,61,54,155,597,1.0,3-7B,other
28577,74,42,48,1019,10.0,2-5,other
28578,53,49,1904,921,6.0,2-2,other
28579,46,55,112,1945,9.0,2-3,minor
28580,65,50,635,342,10.0,3-4A,major
28581,62,49,540,1849,10.0,2-4,other
28582,55,56,66,904,10.0,2-4,other
28583,58,1,295,2263,5.0,3-8B,other
28584,56,47,1457,751,2.0,4-25,major
28585,61,31,466,26,2.0,4-25,major
28586,78,38,59,577,0.0,2-4,other
28587,77,23,229,399,9.0,3-3B,other
28588,60,66,293,1266,5.0,4-19B,other
28589,58,56,252,293,5.0,4-19B,other
28590,55,66,274,972,9.0,2-4,major
28591,50,68,148,1602,1.0,4-21,other
28592,47,58,255,273,1.0,4-21,other
28593,60,43,145,1286,5.0,2-4,other
28594,70,28,502,1265,5.0,2-4,other
28595,58,94,343,211,5.0,2-4,other
28596,65,50,324,436,9.0,2-4,major
28597,56,60,310,533,9.0,2-4,major
28598,52,28,58,1039,1.0,3-8A,other
28599,46,69,164,912,1.0,3-8A,other
28600,63,43,664,1478,11.0,3-8A,other
28601,42,58,3129,891,11.0,3-8A,other
28602,61,42,87,5720,3.0,3-11A,other
28603,49,57,504,615,3.0,3-11A,other
28604,58,57,355,383,6.0,2-5,other
28605,60,63,138,1215,6.0,2-3,other
28606,64,82,259,1261,6.0,2-3,other
28607,65,59,234,650,8.0,4-26,other
28608,68,57,58,933,7.0,2-3,minor
28609,81,2,237,1732,6.0,4-29A,minor
28610,78,1,216,539,6.0,4-29A,minor
28611,49,27,78,2447,1.0,2-2,other
28612,37,73,548,542,2.0,4-20,major
28613,37,76,895,954,2.0,4-20,major
28614,49,89,399,371,5.0,3-11B,other
28615,46,107,360,591,5.0,3-11B,other
28616,45,82,484,363,5.0,3-11B,other
28617,54,75,787,1895,3.0,4-26,other
28618,53,63,691,944,3.0,4-26,other
28619,37,51,1799,33,3.0,4-26,other
28620,44,39,117,626,3.0,4-26,other
28621,44,46,262,936,3.0,3-8B,other
28622,55,50,141,1883,0.0,4-27A,minor
28623,65,54,82,2541,5.0,2-2,other
28624,69,69,208,305,5.0,2-2,other
28625,73,71,144,354,5.0,2-2,other
28626,77,86,213,288,5.0,2-2,other
28627,63,54,817,671,3.0,3-12,augmented
28628,61,44,91,944,5.0,2-4,major
28629,53,48,169,538,5.0,2-4,major
28630,46,51,570,376,5.0,2-4,major
28631,53,55,47,555,5.0,2-4,major
28632,69,78,218,772,2.0,3-7A,minor
28633,70,85,150,323,2.0,3-7A,minor
28634,62,50,890,360,5.0,2-5,other
28635,60,47,831,33,5.0,2-5,other
28636,84,80,198,237,5.0,2-5,other
28637,81,63,171,593,5.0,2-4,major
28638,77,66,161,292,5.0,2-4,major
28639,77,67,266,300,2.0,3-7A,minor
28640,74,82,140,301,2.0,3-7A,minor
28641,65,42,70,63,2.0,3-7A,minor
28642,74,66,177,219,2.0,3-7A,minor
28643,69,48,303,369,2.0,3-7A,minor
28644,70,82,335,1025,5.0,2-5,other
28645,60,45,544,450,2.0,3-11A,minor
28646,65,81,494,506,2.0,3-11A,minor
28647,53,59,125,319,2.0,3-11A,minor
28648,62,65,594,31,2.0,3-11A,minor
28649,52,56,124,3552,7.0,3-11A,minor
28650,54,39,249,1265,1.0,4-26,other
28651,63,51,39,943,10.0,4-20,other
28652,51,84,372,1134,10.0,4-20,other
28653,39,51,252,1364,1.0,4-26,other
28654,38,68,514,429,1.0,4-26,other
28655,45,84,169,2270,2.0,4-15B,other
28656,41,67,175,256,2.0,4-15B,other
28657,44,75,396,350,2.0,4-15B,other
28658,42,70,229,551,2.0,4-15B,other
28659,31,79,295,626,2.0,2-3,minor
28660,57,86,315,630,2.0,2-3,minor
28661,58,81,160,285,2.0,2-3,minor
28662,62,82,160,314,2.0,2-3,minor
28663,69,75,525,364,2.0,3-7A,minor
28664,65,47,659,1137,8.0,4-5A,other
28665,55,59,200,511,8.0,4-5A,other
28666,70,50,305,2325,3.0,3-11B,major
28667,42,36,654,955,3.0,4-18A,major
28668,48,41,170,640,3.0,4-18A,major
28669,41,61,191,304,3.0,4-18A,major
28670,51,44,174,2676,6.0,4-27A,minor
28671,46,59,150,1153,5.0,2-2,other
28672,60,49,1586,693,2.0,2-3,minor
28673,75,84,260,788,2.0,2-3,minor
28674,73,75,260,314,2.0,2-3,minor
28675,79,77,197,547,2.0,2-3,minor
28676,76,57,173,257,2.0,2-3,minor
28677,65,28,532,299,2.0,2-3,minor
28678,60,37,457,27,2.0,2-3,minor
28679,84,77,211,225,2.0,2-3,minor
28680,81,60,205,307,2.0,2-3,minor
28681,62,41,157,321,10.0,2-5,other
28682,60,29,70,97,10.0,2-5,other
28683,87,84,268,190,10.0,2-5,other
28684,85,68,218,303,10.0,2-5,other
28685,93,70,252,646,7.0,3-11A,minor
28686,90,59,252,321,7.0,3-11A,minor
28687,53,39,153,390,7.0,1-1,other
28688,86,55,130,289,7.0,1-1,other
28689,82,64,281,310,7.0,1-1,other
28690,81,41,166,361,7.0,3-11A,minor
28691,82,66,234,284,7.0,3-11A,minor
28692,86,81,263,333,7.0,3-11A,minor
28693,87,40,56,383,3.0,2-4,major
28694,46,68,279,258,3.0,2-4,major
28695,55,64,279,314,3.0,2-4,major
28696,58,69,709,363,3.0,2-4,major
28697,46,68,218,2661,9.0,4-10,minor
28698,46,57,182,1806,10.0,4-20,other
28699,46,40,118,6187,1.0,2-5,other
28700,65,48,179,2887,0.0,2-1,other
28701,44,57,210,464,0.0,2-1,other
28702,54,43,62,31,0.0,2-1,other
28703,70,46,192,44,0.0,2-1,other
28704,55,50,225,355,5.0,3-8B,other
28705,65,77,166,537,5.0,3-8B,other
28706,55,26,66,408,10.0,2-5,other
28707,72,65,155,148,10.0,2-5,other
28708,73,67,89,251,10.0,2-5,other
28709,77,72,148,243,10.0,2-5,other
28710,53,42,162,281,7.0,2-3,minor
28711,84,60,163,208,7.0,2-3,minor
28712,85,75,178,222,7.0,2-3,minor
28713,87,76,141,259,7.0,2-3,minor
28714,55,39,203,336,10.0,2-5,other
28715,49,61,216,594,10.0,2-5,other
28716,48,80,717,411,10.0,2-5,other
28717,58,84,195,547,10.0,2-5,other
28718,67,28,64,392,10.0,2-5,other
28719,58,65,50,1763,1.0,4-28,diminished
28720,50,88,308,1758,5.0,2-5,other
28721,60,28,561,1072,7.0,2-2,other
28722,47,63,1230,2149,5.0,3-11B,major
28723,47,48,464,2462,9.0,4-12A,diminished
28724,47,56,134,893,9.0,4-12A,diminished
28725,46,62,2086,361,9.0,4-12A,diminished
28726,64,53,369,963,11.0,3-7B,other
28727,48,66,326,1571,7.0,4-23,minor
28728,49,76,559,361,7.0,4-23,minor
28729,64,32,235,630,2.0,4-26,minor
28730,50,68,378,2837,2.0,4-26,minor
28731,57,46,154,378,2.0,4-26,minor
28732,62,35,270,1061,7.0,1-1,other
28733,55,39,254,2472,10.0,5-30B,augmented
28734,66,62,622,1860,7.0,3-11A,minor
28735,40,1,492,917,7.0,3-11A,minor
28736,40,75,337,1099,7.0,3-11A,minor
28737,53,54,274,943,7.0,3-11A,minor
28738,60,34,75,9100,4.0,3-7A,minor
28739,55,59,233,2371,0.0,3-11B,major
28740,38,13,271,392,2.0,2-4,major
28741,66,35,73,1602,9.0,3-11A,minor
28742,59,39,391,502,6.0,2-3,minor
28743,60,38,284,28,6.0,2-3,minor
28744,44,50,512,640,11.0,2-5,other
28745,56,81,1124,627,11.0,2-5,other
28746,44,46,635,116,2.0,2-2,other
28747,44,66,800,830,2.0,2-2,other
28748,56,62,541,403,2.0,2-2,other
28749,55,96,330,667,2.0,2-2,other
28750,56,66,755,1360,2.0,2-3,minor
28751,60,51,618,32,2.0,2-3,minor
28752,62,45,755,26,2.0,2-3,minor
28753,50,58,189,241,2.0,2-3,minor
28754,44,69,247,293,2.0,2-3,minor
28755,43,63,486,364,8.0,3-10,diminished
28756,54,94,272,563,8.0,3-10,diminished
28757,43,65,1029,998,8.0,4-18A,diminished
28758,62,54,257,944,8.0,4-28,diminished
28759,43,64,137,292,8.0,4-28,diminished
28760,67,57,369,2031,0.0,3-11A,minor
28761,59,56,956,1820,3.0,3-12,augmented
28762,58,57,527,969,3.0,4-20,major
28763,67,48,242,927,3.0,2-5,other
28764,58,60,149,896,3.0,2-5,other
28765,48,82,294,631,0.0,4-14A,minor
28766,47,68,150,294,0.0,4-14A,minor
28767,46,72,117,324,0.0,4-14A,minor
28768,45,63,139,241,0.0,4-14A,minor
28769,44,57,190,124,0.0,4-14A,minor
28770,43,57,176,198,0.0,4-14A,minor
28771,42,58,460,175,0.0,4-14A,minor
28772,58,39,164,1043,0.0,3-12,augmented
28773,63,45,1455,939,0.0,3-12,augmented
28774,58,50,1102,32,0.0,3-12,augmented
28775,60,40,1000,32,0.0,3-12,augmented
28776,49,50,83,532,0.0,3-12,augmented
28777,42,62,112,310,0.0,3-12,augmented
28778,51,41,170,3648,5.0,4-19B,augmented
28779,51,45,650,654,5.0,4-19B,augmented
28780,82,32,102,1560,2.0,2-2,other
28781,65,41,292,523,2.0,2-2,other
28782,60,30,1775,89,10.0,2-4,major
28783,74,51,452,289,10.0,2-4,major
28784,74,74,124,576,10.0,2-4,major
28785,79,75,795,1806,3.0,3-9,other
28786,81,63,243,753,3.0,3-9,other
28787,82,73,226,344,3.0,3-9,other
28788,84,63,160,364,3.0,3-9,other
28789,86,63,147,237,3.0,3-9,other
28790,89,68,91,293,3.0,3-9,other
28791,96,80,126,356,3.0,3-9,other
28792,96,71,247,562,3.0,3-9,other
28793,60,34,246,1947,2.0,2-3,minor
28794,86,56,143,400,2.0,2-3,minor
28795,65,36,238,32,2.0,2-3,minor
28796,62,37,167,32,2.0,2-3,minor
28797,60,33,119,643,2.0,2-3,minor
28798,75,56,1416,831,2.0,2-3,minor
28799,67,16,1112,88,3.0,3-9,other
28800,53,49,214,867,3.0,3-9,other
28801,53,39,1215,475,3.0,3-9,other
28802,66,45,698,603,0.0,3-2B,minor
28803,53,49,170,928,0.0,3-2B,minor
28804,62,36,2922,1314,5.0,3-11B,major
28805,53,31,229,34,5.0,3-11B,major
28806,53,44,993,465,5.0,3-11B,major
28807,41,42,219,968,5.0,3-11B,major
28808,41,46,1135,535,5.0,3-11B,major
28809,29,38,550,620,5.0,3-11B,major
28810,50,63,25,0,1.0,4-27A,minor
28811,55,122,33,352,3.0,4-24,augmented
28812,57,107,39,48,3.0,4-24,augmented
28813,60,127,235,76,3.0,4-24,augmented
28814,46,87,34,123,3.0,4-24,augmented
28815,45,51,31,45,3.0,4-24,augmented
28816,39,43,25,194,0.0,2-4,other
28817,49,41,27,606,0.0,6-24A,other
28818,48,45,29,124,5.0,3-11B,major
28819,50,58,78,161,5.0,3-11B,major
28820,48,50,23,82,5.0,3-11B,major
28821,41,57,12,151,5.0,3-11A,other
28822,48,55,37,192,2.0,4-27A,minor
28823,52,63,30,497,4.0,4-26,minor
28824,45,57,28,235,3.0,2-4,major
28825,52,54,7,238,4.0,2-3,minor
28826,31,86,13,356,7.0,3-8A,major
28827,62,67,23,481,5.0,2-4,major
28828,50,56,27,122,7.0,5-29A,major
28829,46,57,22,119,3.0,4-24,augmented
28830,43,31,27,800,4.0,4-26,minor
28831,39,50,26,161,0.0,5-38B,major
28832,29,83,20,237,2.0,3-11A,minor
28833,62,71,25,1412,2.0,2-4,major
28834,55,72,15,155,2.0,1-1,other
28835,62,74,21,78,8.0,2-3,other
28836,62,85,24,107,5.0,2-4,major
28837,31,89,18,165,7.0,3-8A,major
28838,55,88,20,132,7.0,3-8A,major
28839,43,83,27,116,1.0,5-31A,diminished
28840,43,80,144,45,1.0,5-31A,diminished
28841,55,94,26,76,1.0,5-31A,diminished
28842,43,83,24,117,7.0,3-11B,major
28843,43,68,125,45,7.0,3-11B,major
28844,43,74,31,192,3.0,4-24,augmented
28845,48,83,41,292,4.0,5-14A,minor
28846,45,65,27,77,11.0,2-1,other
28847,47,72,36,363,0.0,3-11B,major
28848,48,68,71,42,0.0,3-11B,major
28849,43,41,30,75,0.0,3-11B,major
28850,38,54,24,117,0.0,4-21,major
28851,39,73,54,41,0.0,4-21,major
28852,39,74,28,88,0.0,4-21,major
28853,42,64,22,819,3.0,4-26,other
28854,44,94,78,36,3.0,4-26,other
28855,33,84,61,200,9.0,3-8A,major
28856,40,61,9,382,4.0,4-27B,major
28857,47,61,9,123,7.0,3-11B,major
28858,33,111,44,227,9.0,3-8A,major
28859,45,48,21,129,9.0,3-8A,major
28860,48,39,39,362,0.0,3-11B,major
28861,49,56,27,336,2.0,4-27A,minor
28862,31,78,15,370,2.0,4-22B,minor
28863,44,55,31,367,7.0,1-1,other
28864,48,56,20,499,3.0,4-29A,other
28865,48,48,23,114,2.0,4-26,minor
28866,48,54,24,120,2.0,4-26,minor
28867,48,111,42,107,2.0,4-26,minor
28868,48,75,27,118,5.0,3-11B,major
28869,48,79,31,119,2.0,4-27A,minor
28870,48,81,38,113,2.0,4-27A,minor
28871,48,111,78,122,2.0,4-27A,minor
28872,55,71,16,410,0.0,4-22A,major
28873,38,52,116,230,6.0,2-3,minor
28874,45,49,29,90,6.0,2-3,minor
28875,50,81,62,39,6.0,2-3,minor
28876,51,71,16,81,6.0,2-3,minor
28877,54,64,16,117,9.0,3-10,diminished
28878,79,99,34,239,7.0,4-27B,major
28879,67,76,54,42,7.0,4-27B,major
28880,67,66,18,84,7.0,4-27B,major
28881,67,63,27,167,7.0,1-1,other
28882,79,107,33,67,7.0,1-1,other
28883,79,87,46,159,7.0,1-1,other
28884,48,80,91,434,9.0,5-35,minor
28885,45,58,38,127,11.0,2-1,other
28886,42,44,33,242,0.0,5-34,other
28887,43,84,136,39,0.0,5-34,other
28888,31,94,180,77,0.0,5-34,other
28889,30,49,18,358,3.0,4-29A,other
28890,70,36,10,1053,4.0,4-26,minor
28891,45,60,27,382,7.0,2-3,minor
28892,51,72,65,159,6.0,2-3,minor
28893,52,76,24,59,6.0,2-3,minor
28894,54,66,19,72,5.0,2-4,major
28895,57,39,9,38,5.0,2-4,major
28896,60,68,24,36,5.0,2-4,major
28897,64,66,18,78,2.0,3-3A,major
28898,65,98,27,36,2.0,3-3A,major
28899,67,57,22,82,4.0,4-6,other
28900,74,85,27,43,4.0,4-6,other
28901,74,39,8,92,7.0,1-1,other
28902,67,62,7,751,11.0,3-5A,other
28903,60,57,12,254,2.0,3-7A,minor
28904,60,70,28,1039,10.0,5-27A,major
28905,48,64,35,147,5.0,3-11B,major
28906,48,63,30,81,2.0,4-27A,minor
28907,63,69,24,172,0.0,4-19A,augmented
28908,52,57,22,593,4.0,4-26,minor
28909,69,58,21,397,1.0,4-28,diminished
28910,72,73,19,86,10.0,2-1,other
28911,74,80,17,63,6.0,4-15A,other
28912,75,63,33,26,6.0,4-15A,other
28913,76,66,24,31,6.0,4-15A,other
28914,77,66,40,37,6.0,4-15A,other
28915,51,48,30,1407,10.0,3-9,other
28916,39,48,27,365,0.0,3-8A,major
28917,42,53,29,106,1.0,4-27B,minor
28918,47,48,34,123,4.0,2-4,major
28919,47,55,17,122,4.0,2-4,major
28920,44,68,82,587,8.0,3-7A,minor
28921,45,70,19,241,9.0,3-8A,major
28922,47,66,16,249,8.0,3-10,diminished
28923,48,78,34,235,7.0,4-14B,major
28924,48,72,70,44,7.0,4-14B,major
28925,39,61,29,321,9.0,2-2,other
28926,38,66,21,243,2.0,2-4,major
28927,62,7,41,183,4.0,2-3,minor
28928,41,71,22,292,8.0,2-3,other
28929,42,73,17,164,4.0,3-8B,other
28930,37,65,10,931,3.0,5-26A,other
28931,36,54,21,112,1.0,4-27B,minor
28932,80,78,28,552,2.0,2-3,minor
28933,50,54,8,1005,2.0,2-4,major
28934,31,72,63,481,7.0,3-8A,major
28935,31,45,53,110,11.0,2-6,other
28936,31,74,60,141,1.0,4-28,diminished
28937,31,66,52,117,1.0,4-28,diminished
28938,31,66,41,119,7.0,4-27B,major
28939,31,72,16,221,3.0,3-12,augmented
28940,67,74,23,35,3.0,3-12,augmented
28941,69,61,29,43,3.0,3-12,augmented
28942,67,61,17,40,3.0,3-12,augmented
28943,65,89,343,0,,,
28944,77,92,77,124,,,
28945,77,76,42,108,,,
28946,77,68,61,120,,,
28947,60,38,436,250,3.0,4-22A,major
28948,46,72,205,362,3.0,4-22A,major
28949,65,63,35,346,6.0,4-14B,other
28950,41,59,90,378,10.0,4-20,other
28951,72,102,115,115,10.0,4-20,other
28952,58,73,66,179,0.0,2-2,other
28953,61,90,113,55,0.0,2-2,other
28954,70,97,43,58,0.0,2-2,other
28955,56,56,82,126,10.0,1-1,other
28956,62,47,118,63,10.0,1-1,other
28957,70,72,43,57,10.0,1-1,other
28958,53,57,150,120,9.0,1-1,other
28959,41,87,69,176,9.0,2-3,minor
28960,63,96,50,186,9.0,3-10,diminished
28961,56,73,17,475,5.0,2-4,other
28962,43,102,127,65,5.0,2-4,other
28963,43,41,33,203,3.0,3-8B,other
28964,77,82,27,342,10.0,4-16A,other
28965,77,106,23,142,10.0,4-16A,other
28966,77,86,34,90,10.0,3-4A,other
28967,77,68,19,113,10.0,3-4A,other
28968,53,47,181,120,9.0,4-27A,diminished
28969,46,84,365,412,5.0,4-27B,major
28970,53,93,193,75,5.0,4-27B,major
28971,61,112,43,68,5.0,4-27B,major
28972,65,104,40,56,5.0,4-27B,major
28973,65,95,36,232,9.0,2-3,minor
28974,53,95,53,121,5.0,3-11B,other
28975,56,87,43,59,5.0,3-11B,other
28976,32,90,23,57,5.0,3-11B,other
28977,75,63,37,1206,5.0,5-31B,major
28978,53,67,182,121,10.0,2-4,major
28979,56,95,125,247,8.0,2-6,other
28980,62,85,63,62,8.0,2-6,other
28981,44,76,30,57,8.0,2-6,other
28982,77,98,23,114,5.0,3-8B,other
28983,65,40,8,126,7.0,4-27A,minor
28984,30,76,12,56,7.0,4-27A,minor
28985,60,43,76,308,3.0,4-22A,major
28986,77,57,18,111,3.0,3-11B,major
28987,60,47,96,115,3.0,4-22A,major
28988,77,45,18,138,7.0,2-3,minor
28989,42,50,209,762,3.0,3-11B,major
28990,39,51,20,197,3.0,3-11B,major
28991,29,57,13,114,5.0,5-34,major
28992,84,111,30,245,5.0,5-34,major
28993,81,65,55,52,5.0,5-34,major
28994,53,73,18,186,2.0,3-7A,minor
28995,84,115,29,125,2.0,3-7A,minor
28996,38,79,16,232,3.0,2-5,other
28997,45,79,19,242,5.0,4-20,major
28998,47,76,29,252,1.0,4-28,diminished
28999,43,49,89,158,0.0,4-26,minor
29000,40,50,99,242,3.0,3-11B,major
29001,36,66,25,193,5.0,5-34,major
29002,29,56,27,54,5.0,5-34,major
29003,29,77,22,78,5.0,5-34,major
29004,29,85,18,114,5.0,5-34,major
29005,70,84,49,484,5.0,6-24A,other
29006,65,66,18,290,3.0,6-42,other
29007,61,34,8,139,8.0,4-28,diminished
29008,46,47,24,188,8.0,4-28,diminished
29009,41,75,17,577,5.0,4-27B,major
29010,72,78,69,278,2.0,4-18A,major
29011,72,70,24,328,5.0,2-4,major
29012,55,67,88,134,1.0,4-22B,other
29013,38,78,108,238,2.0,4-26,minor
29014,42,44,21,116,2.0,4-26,minor
29015,37,95,107,101,1.0,4-27A,diminished
29016,36,107,22,223,0.0,3-7A,minor
29017,63,33,14,101,0.0,3-7A,minor
29018,79,19,39,105,3.0,4-20,major
29019,41,98,24,175,3.0,3-11B,major
29020,52,57,79,280,5.0,5-38B,major
29021,67,48,21,886,8.0,4-27A,diminished
29022,67,54,31,221,8.0,4-27A,diminished
29023,39,94,187,184,7.0,2-5,other
29024,53,81,222,280,7.0,3-11A,minor
29025,51,87,255,205,10.0,3-11B,other
29026,54,52,11,52,10.0,3-11B,other
29027,53,88,108,180,10.0,3-11B,other
29028,51,73,34,113,10.0,3-11B,other
29029,42,60,30,234,10.0,3-11B,major
29030,50,65,31,609,8.0,4-28,diminished
29031,36,82,16,244,0.0,3-7A,minor
29032,36,93,57,394,3.0,4-20,major
29033,70,67,24,678,3.0,4-22A,major
29034,75,78,170,55,3.0,4-22A,major
29035,72,54,24,189,3.0,4-22A,major
29036,75,73,17,50,3.0,4-22A,major
29037,77,71,25,67,3.0,4-22A,major
29038,59,62,17,364,8.0,4-28,diminished
29039,55,86,52,360,3.0,3-11B,major
29040,53,73,187,158,3.0,3-11B,major
29041,41,82,245,194,3.0,3-9,other
29042,48,53,24,245,6.0,4-27A,minor
29043,46,53,22,226,10.0,4-20,major
29044,39,74,204,40,10.0,4-20,major
29045,38,75,213,244,1.0,3-8A,other
29046,45,61,18,226,2.0,4-26,minor
29047,49,98,206,30,2.0,4-26,minor
29048,46,54,39,202,1.0,4-28,diminished
29049,48,78,226,40,1.0,4-28,diminished
29050,42,20,25,204,0.0,4-26,minor
29051,43,74,205,39,0.0,4-26,minor
29052,39,65,31,198,0.0,4-26,minor
29053,41,66,343,41,0.0,4-26,minor
29054,29,95,22,312,5.0,5-34,major
29055,53,56,119,272,2.0,4-26,minor
29056,53,79,35,189,2.0,3-11A,minor
29057,77,84,36,289,2.0,5-35,minor
29058,75,89,44,251,1.0,4-28,diminished
29059,63,49,58,245,3.0,3-11B,major
29060,65,53,48,255,0.0,2-3,minor
29061,69,71,18,223,2.0,4-18B,minor
29062,81,118,27,455,10.0,5-27A,major
29063,82,101,25,41,10.0,5-27A,major
29064,84,110,32,37,10.0,5-27A,major
29065,79,92,28,75,5.0,4-16A,other
29066,81,84,16,41,5.0,4-16A,other
29067,72,75,22,38,5.0,4-16A,other
29068,73,78,18,37,5.0,4-16A,other
29069,74,74,23,40,5.0,4-16A,other
29070,75,104,32,38,5.0,4-16A,other
29071,72,92,32,125,2.0,3-7B,other
29072,57,35,12,36,2.0,3-7B,other
29073,69,26,30,31,2.0,3-7B,other
29074,69,81,20,620,3.0,2-4,major
29075,53,76,37,722,2.0,3-7A,minor
29076,84,120,48,131,2.0,3-7A,minor
29077,73,61,82,159,7.0,4-27A,minor
29078,81,103,99,215,2.0,3-7B,other
29079,79,80,58,57,2.0,3-7B,other
29080,74,1,25,160,8.0,4-28,diminished
29081,71,83,35,36,8.0,4-28,diminished
29082,68,45,53,56,8.0,4-28,diminished
29083,62,61,63,339,7.0,2-2,other
29084,60,38,68,118,7.0,2-4,major
29085,62,82,29,63,7.0,2-4,major
29086,63,67,52,45,7.0,2-4,major
29087,46,92,39,547,2.0,3-11A,minor
29088,48,50,30,1569,5.0,4-25,major
29089,48,61,107,120,2.0,4-18A,major
29090,53,61,26,252,0.0,4-20,other
29091,56,61,8,53,0.0,4-20,other
29092,56,94,86,77,0.0,4-20,other
29093,58,69,73,75,0.0,4-20,other
29094,39,60,450,673,8.0,5-31B,other
29095,46,77,186,198,7.0,4-26,minor
29096,46,52,20,249,7.0,2-3,minor
29097,51,60,39,240,1.0,2-3,other
29098,51,62,32,234,1.0,2-3,other
29099,44,65,199,280,10.0,3-11B,major
29100,31,96,24,318,7.0,4-20,major
29101,68,48,16,304,8.0,4-28,diminished
29102,55,14,25,698,7.0,4-22B,minor
29103,48,105,36,187,7.0,3-11A,minor
29104,62,19,77,51,7.0,3-11A,minor
29105,39,60,120,421,1.0,5-25B,other
29106,41,47,15,51,1.0,5-25B,other
29107,29,88,16,186,5.0,4-27B,major
29108,73,37,9,339,8.0,3-10,other
29109,55,46,113,180,0.0,4-26,minor
29110,55,87,118,221,0.0,4-26,minor
29111,63,35,32,78,3.0,2-4,major
29112,54,74,32,34,3.0,2-4,major
29113,53,68,114,50,3.0,2-4,major
29114,48,43,33,206,5.0,4-27B,major
29115,48,38,85,150,6.0,4-27A,minor
29116,46,69,26,329,10.0,4-20,major
29117,39,67,206,47,10.0,4-20,major
29118,46,59,21,197,5.0,3-8B,other
29119,38,72,202,37,5.0,3-8B,other
29120,45,71,17,203,5.0,4-20,major
29121,37,71,160,40,5.0,4-20,major
29122,37,93,21,201,1.0,4-28,diminished
29123,36,89,244,38,1.0,4-28,diminished
29124,41,57,219,480,0.0,4-26,minor
29125,53,61,213,78,0.0,4-26,minor
29126,47,56,22,1329,11.0,2-3,minor
29127,36,99,226,99,0.0,4-26,minor
29128,39,50,32,247,0.0,4-26,minor
29129,34,58,214,637,5.0,1-1,other
29130,39,30,16,228,10.0,3-11B,major
29131,32,50,198,27,10.0,3-11B,major
29132,30,75,218,239,0.0,4-20,other
29133,22,64,45,1450,2.0,4-29A,minor
29134,60,35,66,206,2.0,4-29A,minor
29135,30,50,34,0,0.0,5-30B,other
29136,70,29,112,636,6.0,3-8B,other
29137,82,26,180,266,6.0,3-8B,other
29138,56,37,117,844,10.0,2-4,major
29139,59,51,262,444,7.0,3-11A,minor
29140,46,34,113,746,3.0,3-4B,other
29141,67,58,56,89,3.0,3-4B,other
29142,68,56,63,71,3.0,3-4B,other
29143,60,17,126,298,5.0,2-1,other
29144,65,39,90,96,5.0,2-1,other
29145,49,29,108,251,5.0,3-8B,other
29146,61,28,227,113,5.0,3-8B,other
29147,65,43,50,123,5.0,3-8B,other
29148,44,33,223,1177,11.0,1-1,other
29149,70,64,196,226,3.0,2-4,other
29150,57,42,16,368,11.0,3-7A,minor
29151,62,50,263,506,8.0,3-10,diminished
29152,74,58,39,298,7.0,3-11B,major
29153,38,60,39,1076,1.0,2-6,other
29154,79,78,202,470,6.0,4-29A,other
29155,43,77,67,143,6.0,4-29A,other
29156,72,38,47,1691,3.0,4-19B,augmented
29157,75,50,125,346,0.0,5-30B,other
29158,48,34,82,373,3.0,3-6,major
29159,53,33,441,97,3.0,3-6,major
29160,55,44,62,96,3.0,3-6,major
29161,56,49,59,78,3.0,3-6,major
29162,57,50,35,59,3.0,3-6,major
29163,58,31,38,63,3.0,3-6,major
29164,59,44,44,52,3.0,3-6,major
29165,61,55,44,58,3.0,3-6,major
29166,62,57,38,63,3.0,3-6,major
29167,65,49,128,195,4.0,2-6,other
29168,62,52,39,129,4.0,2-6,other
29169,74,68,215,153,4.0,2-6,other
29170,46,55,204,432,7.0,3-11A,minor
29171,68,71,87,181,7.0,2-5,other
29172,54,37,28,222,8.0,4-22B,other
29173,60,64,33,97,8.0,4-22B,other
29174,65,56,57,89,8.0,4-22B,other
29175,44,51,47,221,7.0,4-27A,minor
29176,45,54,41,62,7.0,4-27A,minor
29177,46,33,45,63,7.0,4-27A,minor
29178,47,42,53,67,7.0,4-27A,minor
29179,48,49,57,73,7.0,4-27A,minor
29180,49,44,67,80,7.0,4-27A,minor
29181,48,29,82,91,7.0,4-27A,minor
29182,36,36,20,89,7.0,4-27A,minor
29183,58,31,60,104,7.0,4-27A,minor
29184,61,53,26,77,7.0,4-27A,minor
29185,56,1,156,661,0.0,4-23,minor
29186,55,48,166,93,0.0,4-23,minor
29187,56,48,74,116,0.0,4-23,minor
29188,68,59,44,97,0.0,4-23,minor
29189,53,53,16,250,3.0,3-11A,other
29190,59,59,133,123,3.0,3-11A,other
29191,79,48,25,421,4.0,5-28A,other
29192,91,57,29,138,4.0,5-28A,other
29193,56,35,29,144,4.0,5-28A,other
29194,74,42,43,430,8.0,4-24,other
29195,74,57,111,134,8.0,4-24,other
29196,74,48,73,164,8.0,4-24,other
29197,63,49,76,1304,1.0,4-23,other
29198,63,46,57,282,9.0,4-27A,diminished
29199,74,80,549,451,2.0,4-12A,major
29200,69,53,408,157,2.0,4-12A,major
29201,72,42,67,400,2.0,4-12A,major
29202,69,50,48,65,2.0,4-12A,major
29203,50,32,81,190,7.0,2-3,minor
29204,55,43,76,113,7.0,2-3,minor
29205,58,34,674,69,7.0,2-3,minor
29206,74,76,188,482,2.0,2-5,other
29207,75,77,64,192,2.0,2-5,other
29208,77,69,55,72,2.0,2-5,other
29209,55,45,13,179,9.0,2-6,other
29210,60,58,65,87,9.0,2-6,other
29211,72,51,37,121,3.0,2-4,major
29212,75,57,21,35,3.0,2-4,major
29213,79,68,31,48,3.0,2-4,major
29214,84,66,35,41,3.0,2-4,major
29215,89,81,37,51,3.0,2-4,major
29216,87,74,42,53,3.0,2-4,major
29217,78,38,35,124,2.0,3-8A,major
29218,77,30,46,63,2.0,3-8A,major
29219,75,37,37,63,2.0,3-8A,major
29220,72,45,43,150,2.0,4-15B,other
29221,70,53,63,74,2.0,4-15B,other
29222,69,43,79,83,2.0,4-15B,other
29223,62,44,257,211,0.0,2-5,other
29224,74,73,85,241,3.0,2-1,other
29225,58,37,71,226,2.0,1-1,other
29226,62,56,56,80,2.0,1-1,other
29227,74,60,38,86,2.0,1-1,other
29228,58,48,34,211,0.0,4-14A,minor
29229,74,62,217,232,0.0,3-11A,minor
29230,29,58,35,144,0.0,3-11A,minor
29231,75,29,12,738,6.0,2-6,other
29232,69,1,102,115,2.0,3-7A,minor
29233,53,37,500,102,2.0,3-7A,minor
29234,81,85,154,281,2.0,2-5,other
29235,53,47,147,252,2.0,4-26,minor
29236,69,55,179,141,2.0,4-26,minor
29237,53,48,57,133,2.0,4-26,minor
29238,54,39,33,356,0.0,2-4,other
29239,60,42,203,147,0.0,2-4,other
29240,65,33,58,152,0.0,2-4,other
29241,60,35,508,406,6.0,4-29A,other
29242,72,81,184,489,8.0,2-3,other
29243,50,28,121,817,4.0,4-29A,minor
29244,60,33,37,2396,1.0,4-24,other
29245,75,59,93,1462,0.0,5-27B,other
29246,80,59,68,376,0.0,5-27B,other
29247,87,79,54,82,0.0,5-27B,other
29248,56,25,736,207,10.0,2-4,major
29249,62,35,666,108,10.0,2-4,major
29250,67,35,455,120,10.0,2-4,major
29251,74,40,423,125,10.0,2-4,major
29252,79,49,222,125,10.0,2-4,major
29253,81,71,113,109,10.0,2-4,major
29254,83,74,98,100,10.0,2-4,major
29255,62,47,152,227,7.0,2-3,minor
29256,80,76,81,173,7.0,1-1,other
29257,54,39,33,192,8.0,2-2,other
29258,60,29,218,128,8.0,2-2,other
29259,61,32,321,350,1.0,2-6,other
29260,82,34,100,131,1.0,2-6,other
29261,78,44,71,111,1.0,2-6,other
29262,79,58,86,89,1.0,2-6,other
29263,73,49,92,72,1.0,2-6,other
29264,48,9,292,128,0.0,2-2,other
29265,75,55,126,63,0.0,2-2,other
29266,70,50,72,96,0.0,2-2,other
29267,64,40,82,87,0.0,2-2,other
29268,61,36,110,97,0.0,2-2,other
29269,56,33,106,413,0.0,2-2,other
29270,48,34,444,334,3.0,4-23,other
29271,68,46,128,466,3.0,4-14B,other
29272,71,33,616,909,3.0,4-26,other
29273,57,51,16,768,11.0,2-3,minor
29274,86,67,167,994,7.0,2-5,other
29275,86,50,121,526,10.0,2-4,major
29276,75,51,779,1337,0.0,4-29A,minor
29277,31,26,75,3003,8.0,2-1,other
29278,67,61,24,434,8.0,2-1,other
29279,69,55,21,78,8.0,2-1,other
29280,70,32,42,47,8.0,2-1,other
29281,74,68,76,111,8.0,2-1,other
29282,72,40,71,120,8.0,2-1,other
29283,75,47,77,117,8.0,2-1,other
29284,73,83,61,496,8.0,2-1,other
29285,74,60,64,67,8.0,2-1,other
29286,70,38,101,167,8.0,2-1,other
29287,67,36,71,119,8.0,2-1,other
29288,68,36,36,74,8.0,2-1,other
29289,70,37,104,48,8.0,2-1,other
29290,70,37,57,598,8.0,1-1,other
29291,70,40,41,361,8.0,1-1,other
29292,63,50,26,669,2.0,2-1,other
29293,63,44,71,403,3.0,2-1,other
29294,67,28,23,1645,10.0,1-1,other
29295,68,38,20,711,7.0,1-1,other
29296,49,23,39,2415,2.0,1-1,other
29297,65,24,53,1827,5.0,1-1,other
29298,72,49,27,1874,2.0,2-2,other
29299,75,56,198,59,2.0,2-2,other
29300,54,34,50,116,2.0,2-2,other
29301,63,18,58,231,2.0,2-2,other
29302,74,74,58,115,2.0,2-2,other
29303,53,32,43,131,2.0,2-2,other
29304,70,62,62,121,2.0,2-2,other
29305,67,52,25,73,2.0,2-2,other
29306,70,44,354,165,7.0,3-2A,minor
29307,67,51,55,361,7.0,2-2,other
29308,68,55,31,73,7.0,2-2,other
29309,70,83,51,47,7.0,2-2,other
29310,70,49,74,116,0.0,2-2,other
29311,70,53,63,121,0.0,2-2,other
29312,70,73,65,242,5.0,3-11A,other
29313,71,62,40,67,5.0,3-11A,other
29314,74,87,43,359,2.0,4-20,major
29315,73,32,53,58,2.0,4-20,major
29316,74,57,15,64,2.0,4-20,major
29317,77,82,42,368,2.0,4-23,minor
29318,75,54,72,54,2.0,4-23,minor
29319,74,101,55,696,4.0,3-5B,other
29320,72,27,25,81,4.0,3-5B,other
29321,74,68,88,41,4.0,3-5B,other
29322,72,49,38,75,4.0,3-5B,other
29323,70,27,220,60,4.0,3-5B,other
29324,65,24,23,311,0.0,3-11B,other
29325,67,44,62,44,0.0,3-11B,other
29326,67,50,56,136,8.0,2-2,other
29327,65,63,32,61,8.0,2-2,other
29328,63,26,61,54,8.0,2-2,other
29329,65,80,67,114,10.0,2-4,major
29330,63,39,50,130,10.0,2-4,major
29331,70,37,37,127,5.0,3-5B,other
29332,77,70,53,109,6.0,2-6,other
29333,82,60,87,470,0.0,1-1,other
29334,79,34,54,251,8.0,2-2,other
29335,77,47,49,134,3.0,3-11A,other
29336,83,75,39,60,3.0,3-11A,other
29337,82,53,102,58,3.0,3-11A,other
29338,80,51,38,60,3.0,3-11A,other
29339,75,38,88,49,3.0,3-11A,other
29340,71,46,31,68,3.0,3-11A,other
29341,78,80,118,48,3.0,3-11A,other
29342,74,60,42,72,3.0,3-11A,other
29343,69,32,29,65,3.0,3-11A,other
29344,74,50,48,288,2.0,4-23,minor
29345,70,18,83,63,2.0,4-23,minor
29346,67,45,46,69,2.0,4-23,minor
29347,71,38,23,243,1.0,4-15B,other
29348,68,9,26,193,2.0,4-15B,other
29349,68,77,45,159,4.0,3-5B,other
29350,65,65,36,120,7.0,2-3,minor
29351,63,23,75,65,7.0,2-3,minor
29352,62,39,23,57,7.0,2-3,minor
29353,65,64,61,42,7.0,2-3,minor
29354,62,33,27,80,7.0,2-3,minor
29355,63,47,107,40,7.0,2-3,minor
29356,86,90,23,732,2.0,4-23,minor
29357,86,96,30,60,2.0,4-23,minor
29358,79,56,26,47,2.0,4-23,minor
29359,79,66,22,68,2.0,4-23,minor
29360,82,55,16,51,2.0,4-23,minor
29361,77,48,64,115,10.0,4-16A,other
29362,84,42,35,302,0.0,2-1,other
29363,81,47,51,84,1.0,2-3,other
29364,80,62,45,65,1.0,2-3,other
29365,79,48,55,57,1.0,2-3,other
29366,76,43,49,119,0.0,4-26,other
29367,79,73,42,56,0.0,4-26,other
29368,77,20,52,59,0.0,4-26,other
29369,71,54,50,467,2.0,2-4,major
29370,78,74,50,116,2.0,2-4,major
29371,79,73,73,122,2.0,4-29B,major
29372,74,118,50,234,2.0,4-23,minor
29373,77,64,56,119,0.0,3-2B,minor
29374,79,67,31,71,0.0,3-2B,minor
29375,77,55,94,52,0.0,3-2B,minor
29376,77,58,37,193,9.0,3-10,diminished
29377,75,51,57,47,9.0,3-10,diminished
29378,71,44,94,134,2.0,4-15B,other
29379,69,59,68,103,2.0,4-15B,other
29380,70,56,94,134,10.0,4-11A,major
29381,66,44,92,106,10.0,4-11A,major
29382,67,58,14,575,9.0,4-27A,diminished
29383,72,81,44,46,9.0,4-27A,diminished
29384,77,85,42,126,6.0,5-4B,other
29385,75,75,42,59,6.0,5-4B,other
29386,74,63,47,56,6.0,5-4B,other
29387,72,50,31,67,6.0,5-4B,other
29388,70,36,65,48,6.0,5-4B,other
29389,69,53,22,67,6.0,5-4B,other
29390,72,66,82,43,6.0,5-4B,other
29391,69,33,16,86,6.0,5-4B,other
29392,70,42,104,40,6.0,5-4B,other
29393,63,19,41,202,3.0,4-20,major
29394,83,57,33,339,10.0,2-1,other
29395,77,74,34,127,11.0,2-2,other
29396,74,37,65,52,11.0,2-2,other
29397,69,25,43,127,10.0,3-11B,major
29398,70,49,63,110,2.0,2-2,other
29399,67,56,55,118,3.0,3-4B,other
29400,65,33,56,129,3.0,3-4B,other
29401,68,42,76,127,5.0,3-9,other
29402,72,40,66,109,10.0,4-16A,other
29403,87,45,57,842,3.0,3-11A,other
29404,86,83,48,230,3.0,3-4A,major
29405,62,36,24,76,3.0,3-4A,major
29406,84,41,12,125,2.0,1-1,other
29407,82,23,9,490,0.0,4-20,other
29408,83,27,12,78,0.0,2-1,other
29409,77,70,36,510,5.0,3-5B,other
29410,65,41,91,291,10.0,2-5,other
29411,63,64,62,105,10.0,2-5,other
29412,61,17,59,136,4.0,3-5A,other
29413,58,7,66,130,5.0,2-5,other
29414,55,39,18,64,5.0,2-5,other
29415,56,35,81,44,5.0,2-5,other
29416,58,44,37,71,5.0,2-5,other
29417,70,61,54,294,3.0,4-20,other
29418,68,25,11,86,3.0,4-20,other
29419,70,71,62,28,3.0,4-20,other
29420,66,36,61,137,1.0,2-5,other
29421,66,47,67,90,2.0,2-1,other
29422,62,32,72,251,7.0,2-2,other
29423,63,65,32,71,7.0,2-2,other
29424,64,35,47,57,7.0,2-2,other
29425,67,58,54,116,6.0,2-5,other
29426,71,44,39,126,0.0,3-8B,other
29427,76,66,47,111,5.0,4-13B,other
29428,80,29,16,135,4.0,4-29A,minor
29429,79,78,41,2038,0.0,2-4,major
29430,72,35,67,121,3.0,4-11B,other
29431,68,39,33,60,3.0,4-11B,other
29432,67,36,58,53,3.0,4-11B,other
29433,82,80,40,246,3.0,5-21B,other
29434,75,47,69,120,3.0,3-11A,other
29435,86,84,42,233,2.0,4-23,minor
29436,82,46,68,241,2.0,3-7A,minor
29437,79,29,10,73,2.0,3-7A,minor
29438,88,44,10,487,5.0,3-5B,other
29439,90,23,25,71,7.0,1-1,other
29440,74,64,24,325,9.0,4-5B,other
29441,57,62,9,189,2.0,1-1,other
29442,67,51,32,363,0.0,4-20,other
29443,68,35,32,42,0.0,4-20,other
29444,70,48,12,42,0.0,4-20,other
29445,72,80,26,30,0.0,4-20,other
29446,74,84,32,39,0.0,4-20,other
29447,75,67,18,41,0.0,4-20,other
29448,77,80,25,37,0.0,4-20,other
29449,80,60,17,87,7.0,4-5B,other
29450,82,70,23,40,7.0,4-5B,other
29451,84,127,34,653,7.0,4-26,minor
29452,87,79,33,144,1.0,3-10,minor
29453,88,89,32,56,1.0,3-10,minor
29454,87,68,40,56,1.0,3-10,minor
29455,84,66,34,124,0.0,5-27A,other
29456,82,60,31,59,0.0,5-27A,other
29457,80,37,59,54,0.0,5-27A,other
29458,83,92,52,124,3.0,3-12,augmented
29459,74,75,52,238,3.0,2-4,other
29460,74,32,57,120,2.0,3-4A,major
29461,69,49,13,62,2.0,3-4A,major
29462,85,86,41,45,2.0,3-4A,major
29463,78,44,60,110,11.0,3-2B,minor
29464,77,69,90,124,2.0,2-2,other
29465,74,46,60,126,4.0,2-1,other
29466,72,47,52,476,3.0,2-1,other
29467,69,31,48,130,10.0,3-6,major
29468,70,42,72,117,0.0,3-9,other
29469,62,38,20,74,0.0,3-9,other
29470,69,87,73,40,0.0,3-9,other
29471,67,73,68,119,7.0,5-27B,minor
29472,69,59,20,81,7.0,5-27B,minor
29473,70,75,58,40,7.0,5-27B,minor
29474,70,48,70,125,7.0,5-23A,minor
29475,67,39,76,242,10.0,2-1,other
29476,69,69,48,123,2.0,3-8A,major
29477,63,68,38,58,2.0,3-8A,major
29478,62,51,66,54,2.0,3-8A,major
29479,58,30,89,128,0.0,3-9,other
29480,57,32,15,73,0.0,3-9,other
29481,60,66,78,31,0.0,3-9,other
29482,58,37,110,123,2.0,2-5,other
29483,55,90,60,112,2.0,2-5,other
29484,77,82,34,481,6.0,4-27A,minor
29485,69,61,34,113,2.0,5-32A,minor
29486,99,70,49,5559,4.0,3-5B,other
29487,95,22,22,68,4.0,3-5B,other
29488,96,72,51,47,4.0,3-5B,other
29489,96,39,32,123,2.0,3-5B,other
29490,96,73,55,95,2.0,3-5B,other
29491,96,81,67,115,2.0,3-5B,other
29492,92,51,14,127,10.0,2-1,other
29493,89,78,64,232,3.0,3-4B,other
29494,86,55,50,128,3.0,4-15A,other
29495,89,81,55,108,3.0,2-1,other
29496,79,32,71,142,2.0,4-4A,minor
29497,80,57,21,70,2.0,4-4A,minor
29498,82,70,73,37,2.0,4-4A,minor
29499,70,53,88,125,6.0,3-5B,other
29500,70,63,88,227,10.0,2-4,major
29501,68,60,63,120,10.0,2-4,major
29502,65,33,48,143,0.0,4-27B,major
29503,67,83,83,103,4.0,2-6,other
29504,65,57,77,121,4.0,3-3A,major
29505,60,33,251,89,4.0,3-3A,major
29506,63,60,130,348,3.0,2-5,other
29507,57,37,11,127,3.0,2-5,other
29508,74,74,72,30,3.0,2-5,other
29509,77,61,70,248,6.0,2-3,minor
29510,62,47,14,207,8.0,3-8B,other
29511,97,34,15,810,0.0,5-32A,other
29512,86,66,59,88,9.0,5-15,other
29513,98,48,33,38,9.0,5-15,other
29514,99,56,45,432,3.0,3-5B,other
29515,97,73,78,89,3.0,3-5B,other
29516,94,47,68,159,0.0,4-20,other
29517,91,31,49,118,8.0,3-8B,other
29518,93,76,74,113,2.0,4-15B,other
29519,90,37,19,77,2.0,4-15B,other
29520,91,71,71,35,2.0,4-15B,other
29521,82,39,66,129,2.0,3-7A,minor
29522,85,49,36,270,7.0,5-35,minor
29523,84,47,30,29,7.0,5-35,minor
29524,82,62,24,30,7.0,5-35,minor
29525,80,30,60,46,7.0,5-35,minor
29526,77,44,66,118,0.0,3-7B,other
29527,76,24,12,73,0.0,3-7B,other
29528,79,68,55,28,0.0,3-7B,other
29529,72,34,57,128,1.0,4-14B,other
29530,70,49,43,64,1.0,4-14B,other
29531,68,34,79,49,1.0,4-14B,other
29532,71,64,92,112,3.0,2-4,major
29533,68,56,24,190,11.0,2-1,other
29534,66,33,91,53,11.0,2-1,other
29535,62,55,88,101,11.0,2-2,other
29536,56,65,184,245,5.0,2-2,other
29537,54,51,28,326,3.0,3-11B,major
29538,57,64,76,38,3.0,3-11B,major
29539,55,57,76,118,3.0,3-11A,other
29540,57,46,36,83,3.0,3-11A,other
29541,58,39,18,47,3.0,3-11A,other
29542,60,63,27,37,3.0,3-11A,other
29543,63,57,19,34,3.0,3-11A,other
29544,65,57,29,43,3.0,3-11A,other
29545,70,58,21,36,3.0,3-11A,other
29546,77,60,32,86,5.0,3-5B,other
29547,82,67,23,41,5.0,3-5B,other
29548,81,53,53,85,6.0,2-6,other
29549,81,41,35,1131,8.0,8-2A,other
29550,71,56,62,559,0.0,3-2B,minor
29551,72,37,44,124,3.0,4-16A,major
29552,69,52,45,108,9.0,3-5A,other
29553,69,49,65,119,2.0,4-27A,minor
29554,62,49,66,116,7.0,2-2,other
29555,58,39,48,71,7.0,2-2,other
29556,57,34,70,54,7.0,2-2,other
29557,60,78,35,73,7.0,2-2,other
29558,57,22,52,60,7.0,2-2,other
29559,58,46,29,58,7.0,2-2,other
29560,60,45,59,46,7.0,2-2,other
29561,63,48,55,123,8.0,3-10,other
29562,65,64,36,68,8.0,3-10,other
29563,66,35,38,58,8.0,3-10,other
29564,70,43,38,109,0.0,3-11B,other
29565,74,36,24,1072,1.0,5-38B,other
29566,85,49,16,2508,3.0,2-1,other
29567,86,71,67,26,3.0,2-1,other
29568,86,56,80,233,8.0,3-8B,other
29569,87,45,30,68,8.0,3-8B,other
29570,89,78,181,55,0.0,5-23B,major
29571,87,59,57,125,0.0,5-23B,major
29572,67,72,231,738,1.0,4-15B,other
29573,51,34,624,329,8.0,2-6,other
29574,72,35,251,402,7.0,2-5,other
29575,55,41,71,431,0.0,3-12,augmented
29576,53,26,1520,144,0.0,3-12,augmented
29577,96,29,30,658,7.0,1-1,other
29578,60,48,109,676,0.0,1-1,other
29579,60,71,102,145,0.0,1-1,other
29580,60,66,59,156,0.0,1-1,other
29581,75,27,329,1694,3.0,3-9,other
29582,103,44,12,122,2.0,2-2,other
29583,62,61,660,0,7.0,1-1,other
29584,39,57,720,40,7.0,1-1,other
29585,46,68,600,690,7.0,1-1,other
29586,55,68,240,690,7.0,1-1,other
29587,58,65,3330,740,7.0,1-1,other
29588,79,61,1180,870,7.0,1-1,other
29589,67,39,1650,90,2.0,2-3,minor
29590,77,82,650,2220,2.0,2-3,minor
29591,63,43,840,990,5.0,3-12,augmented
29592,75,69,320,5200,7.0,3-11B,major
29593,80,67,750,970,7.0,3-11B,major
29594,68,51,200,100,5.0,2-5,other
29595,68,14,360,390,5.0,2-5,other
29596,51,61,1340,400,5.0,2-5,other
29597,63,59,690,790,0.0,2-5,other
29598,67,77,490,680,0.0,2-5,other
29599,67,73,2290,740,0.0,2-5,other
29600,55,56,1890,930,1.0,3-2B,other
29601,60,63,840,1000,1.0,3-2B,other
29602,58,41,750,60,1.0,3-2B,other
29603,65,64,530,970,1.0,3-2B,other
29604,51,68,720,2800,0.0,2-3,minor
29605,68,65,1680,6160,0.0,2-3,minor
29606,65,44,2040,70,3.0,2-4,other
29607,58,43,3550,30,3.0,2-4,other
29608,67,65,510,1480,3.0,2-4,other
29609,65,61,440,1980,3.0,2-4,other
29610,56,50,2150,970,11.0,3-10,diminished
29611,43,40,590,5020,0.0,2-4,major
29612,67,77,670,3700,2.0,3-11B,major
29613,72,82,960,1750,3.0,2-5,other
29614,42,51,590,1550,0.0,2-3,minor
29615,51,42,610,30,0.0,2-3,minor
29616,65,54,730,7500,0.0,3-7A,minor
29617,71,55,1030,1850,0.0,3-7A,minor
29618,47,39,1290,100,8.0,3-10,other
29619,75,66,5230,2340,8.0,3-10,other
29620,67,47,1960,110,8.0,3-10,other
29621,48,41,750,30,8.0,3-10,other
29622,63,39,1880,30,8.0,3-10,other
29623,55,56,300,840,8.0,3-10,other
29624,62,62,1940,870,8.0,3-10,other
29625,63,43,700,930,8.0,3-10,other
29626,67,48,1350,1060,0.0,2-3,minor
29627,63,42,660,1350,0.0,2-3,minor
29628,67,63,460,740,0.0,2-3,minor
29629,74,94,380,540,0.0,2-3,minor
29630,72,72,470,1470,3.0,2-4,other
29631,71,73,590,740,3.0,2-4,other
29632,72,70,340,730,3.0,2-4,other
29633,71,47,310,100,3.0,2-4,other
29634,75,59,2390,860,3.0,2-4,other
29635,41,50,700,80,3.0,2-5,other
29636,55,66,670,730,3.0,2-5,other
29637,56,76,2520,790,3.0,2-5,other
29638,74,85,480,990,3.0,2-5,other
29639,63,72,1310,40,3.0,2-5,other
29640,68,25,70,80,3.0,2-5,other
29641,68,62,620,1860,0.0,2-3,minor
29642,56,46,820,30,0.0,2-3,minor
29643,71,66,560,1030,0.0,2-3,minor
29644,65,56,700,60,8.0,2-6,other
29645,68,40,550,50,8.0,2-6,other
29646,72,63,1120,1010,8.0,2-6,other
29647,56,47,340,40,8.0,2-6,other
29648,46,45,560,2250,8.0,2-2,other
29649,46,55,1240,840,8.0,2-2,other
29650,66,51,590,2780,8.0,3-6,other
29651,54,33,1440,1200,8.0,3-8B,other
29652,74,89,460,1090,8.0,3-8B,other
29653,72,66,990,2260,8.0,3-8B,other
29654,67,66,620,1630,7.0,2-4,major
29655,72,61,760,3600,0.0,2-5,other
29656,78,75,780,2980,0.0,2-5,other
29657,73,60,750,80,0.0,2-5,other
29658,70,62,760,30,0.0,2-5,other
29659,56,37,550,110,2.0,2-4,major
29660,73,54,1400,1520,2.0,2-4,major
29661,46,39,1480,110,8.0,4-24,other
29662,56,37,1600,2210,0.0,3-8A,major
29663,72,59,1040,2720,0.0,3-8A,major
29664,60,54,1160,40,0.0,3-8A,major
29665,56,36,910,30,0.0,3-8A,major
29666,48,72,910,4370,0.0,2-5,other
29667,50,75,1350,1130,0.0,2-5,other
29668,59,66,2090,2480,8.0,2-3,other
29669,63,64,1300,1120,8.0,2-3,other
29670,43,55,2340,30,8.0,2-3,other
29671,62,63,800,1100,8.0,3-10,diminished
29672,63,57,1340,1820,0.0,2-4,other
29673,41,57,970,30,0.0,2-4,other
29674,48,80,480,740,0.0,2-4,other
29675,52,85,1870,1800,1.0,3-10,other
29676,53,59,1060,1840,0.0,4-26,other
29677,52,60,1040,1000,0.0,4-26,other
29678,53,57,250,990,0.0,4-26,other
29679,65,51,850,1080,0.0,4-22A,other
29680,46,54,1110,970,0.0,4-22A,other
29681,80,68,1200,1030,0.0,4-22A,other
29682,58,48,1590,100,0.0,4-22A,other
29683,68,72,1200,30,0.0,4-22A,other
29684,46,44,1710,1010,0.0,4-22A,other
29685,62,56,360,2280,10.0,2-5,other
29686,70,77,390,2130,8.0,4-27B,other
29687,82,102,370,2170,7.0,1-1,other
29688,83,82,250,60,7.0,1-1,other
29689,72,74,470,1060,10.0,3-11A,other
29690,80,81,520,1110,10.0,3-11A,other
29691,52,39,880,1220,10.0,3-3B,major
29692,79,68,230,1090,10.0,3-3B,major
29693,48,50,640,1630,2.0,3-11B,major
29694,48,52,480,1620,7.0,2-3,minor
29695,72,81,4040,1700,7.0,2-3,minor
29696,51,85,1170,1290,0.0,3-4A,other
29697,52,82,1690,1220,0.0,3-4A,other
29698,70,37,1740,1640,0.0,3-4A,other
29699,68,66,520,1130,5.0,2-5,other
29700,50,49,1610,970,2.0,2-2,other
29701,56,56,1030,720,2.0,2-2,other
29702,67,61,470,690,2.0,2-2,other
29703,68,75,650,510,2.0,2-2,other
29704,70,68,370,480,2.0,2-2,other
29705,71,67,460,450,3.0,3-8B,other
29706,82,66,960,540,3.0,3-8B,other
29707,43,52,710,50,3.0,3-8B,other
29708,53,41,820,40,3.0,3-8B,other
29709,80,63,250,810,3.0,3-8B,other
29710,79,59,220,540,3.0,3-8B,other
29711,77,66,190,370,3.0,3-8B,other
29712,75,59,310,350,3.0,3-8B,other
29713,74,47,200,360,3.0,3-8B,other
29714,74,48,120,750,5.0,2-5,other
29715,75,56,250,300,5.0,2-5,other
29716,55,36,2580,60,5.0,2-5,other
29717,67,40,150,370,5.0,2-5,other
29718,74,66,240,600,5.0,2-5,other
29719,60,38,180,90,5.0,2-5,other
29720,72,66,190,440,5.0,2-5,other
29721,65,57,320,480,5.0,2-5,other
29722,63,56,380,520,5.0,2-5,other
29723,62,65,2070,670,5.0,2-5,other
29724,41,49,660,110,5.0,2-5,other
29725,51,49,200,620,5.0,2-5,other
29726,58,56,660,800,5.0,2-5,other
29727,59,63,210,560,5.0,2-5,other
29728,62,63,320,390,5.0,2-5,other
29729,67,63,130,370,5.0,2-5,other
29730,74,72,340,360,5.0,2-5,other
29731,79,69,440,400,5.0,2-5,other
29732,57,39,4190,540,3.0,4-19B,augmented
29733,62,52,900,710,3.0,4-19B,augmented
29734,63,52,2700,870,3.0,4-19B,augmented
29735,67,45,640,980,3.0,4-19B,augmented
29736,77,64,390,1000,3.0,4-19B,augmented
29737,65,31,320,110,3.0,4-19B,augmented
29738,79,83,290,980,5.0,1-1,other
29739,79,70,200,530,5.0,1-1,other
29740,80,61,670,1200,5.0,1-1,other
29741,41,44,1310,140,3.0,2-4,other
29742,80,58,400,710,3.0,2-4,other
29743,51,56,650,30,3.0,2-4,other
29744,75,41,1350,690,8.0,3-10,minor
29745,56,64,2590,1380,7.0,2-1,other
29746,59,59,400,680,7.0,2-1,other
29747,61,67,510,400,7.0,2-1,other
29748,63,73,280,390,7.0,2-1,other
29749,65,72,240,360,7.0,2-1,other
29750,67,66,350,310,7.0,2-1,other
29751,68,66,290,290,7.0,2-1,other
29752,70,63,70,260,7.0,2-1,other
29753,71,57,190,180,7.0,2-1,other
29754,72,54,200,190,7.0,2-1,other
29755,73,63,110,190,7.0,2-1,other
29756,74,61,80,220,7.0,2-1,other
29757,75,36,130,230,7.0,2-1,other
29758,76,57,200,130,7.0,2-1,other
29759,77,70,330,260,7.0,2-1,other
29760,74,61,1000,240,7.0,3-5B,other
29761,46,65,2900,1050,7.0,3-5B,other
29762,68,70,370,1320,7.0,3-5B,other
29763,70,70,390,800,7.0,3-5B,other
29764,71,63,220,830,7.0,3-5B,other
29765,70,52,1610,1320,7.0,3-5B,other
29766,62,43,2360,30,7.0,3-5B,other
29767,65,56,2090,30,7.0,3-5B,other
29768,68,52,820,1580,8.0,2-2,other
29769,68,42,1720,1900,8.0,2-2,other
29770,59,37,1730,30,8.0,2-2,other
29771,56,37,3010,2970,8.0,2-3,minor
29772,91,77,1480,2774,8.0,2-3,minor
29773,60,48,1760,110,7.0,3-7B,other
29774,79,1,1030,280,7.0,3-7B,other
29775,89,63,150,2670,7.0,3-7B,other
29776,88,54,180,600,7.0,3-7B,other
29777,53,37,360,390,3.0,3-8B,other
29778,87,85,200,1570,3.0,3-8B,other
29779,53,35,1250,90,3.0,2-4,other
29780,86,72,370,260,3.0,2-4,other
29781,87,77,140,870,3.0,2-4,other
29782,88,54,170,160,3.0,2-4,other
29783,89,83,540,90,3.0,2-4,other
29784,80,47,190,1440,0.0,2-5,other
29785,58,41,100,1930,1.0,2-3,minor
29786,84,94,210,280,1.0,2-3,minor
29787,82,62,230,650,1.0,2-3,minor
29788,73,61,180,820,1.0,2-3,minor
29789,63,43,90,100,1.0,2-3,minor
29790,60,31,110,50,1.0,2-3,minor
29791,56,33,140,40,1.0,2-3,minor
29792,72,40,230,270,1.0,2-3,minor
29793,77,81,270,440,1.0,2-3,minor
29794,60,55,80,1200,1.0,2-3,minor
29795,56,35,110,60,1.0,2-3,minor
29796,75,59,170,300,1.0,2-3,minor
29797,72,69,210,330,1.0,2-3,minor
29798,68,76,250,350,1.0,2-3,minor
29799,67,56,190,350,1.0,2-3,minor
29800,70,68,330,340,1.0,2-3,minor
29801,68,59,190,330,1.0,2-3,minor
29802,58,27,90,30,1.0,2-3,minor
29803,63,49,230,320,1.0,2-3,minor
29804,59,40,230,330,1.0,2-3,minor
29805,58,42,350,290,1.0,2-3,minor
29806,56,27,330,380,1.0,2-3,minor
29807,46,40,100,1280,1.0,2-3,minor
29808,46,34,240,1020,1.0,2-3,minor
29809,70,60,340,430,1.0,2-3,minor
29810,56,40,360,70,10.0,3-12,augmented
29811,67,46,170,200,10.0,3-12,augmented
29812,67,49,140,630,8.0,2-2,other
29813,71,45,440,370,8.0,2-2,other
29814,67,53,110,230,8.0,3-8B,other
29815,56,45,490,410,8.0,3-8B,other
29816,62,31,270,90,11.0,2-5,other
29817,67,37,90,110,11.0,2-5,other
29818,63,48,1000,3180,7.0,2-2,other
29819,56,48,970,60,5.0,2-5,other
29820,63,47,1120,1170,0.0,2-4,other
29821,69,57,780,30,0.0,2-4,other
29822,57,43,880,90,6.0,1-1,other
29823,72,56,100,590,6.0,1-1,other
29824,67,50,140,1830,7.0,3-11A,minor
29825,70,45,350,420,7.0,3-11A,minor
29826,77,111,300,530,7.0,3-11A,minor
29827,74,49,330,490,7.0,3-11A,minor
29828,75,66,300,490,7.0,3-11A,minor
29829,67,38,480,430,7.0,3-11A,minor
29830,66,48,310,850,7.0,3-11A,minor
29831,58,39,100,670,3.0,2-4,major
29832,70,52,290,360,3.0,2-4,major
29833,74,107,300,550,3.0,2-4,major
29834,54,39,3780,200,0.0,2-3,minor
29835,57,41,3410,30,0.0,2-3,minor
29836,75,96,620,210,0.0,2-3,minor
29837,74,49,150,680,0.0,2-3,minor
29838,73,57,180,130,0.0,2-3,minor
29839,72,58,550,200,0.0,2-3,minor
29840,78,76,490,890,0.0,2-3,minor
29841,77,62,150,540,0.0,2-3,minor
29842,76,63,270,160,0.0,2-3,minor
29843,75,61,370,270,0.0,2-3,minor
29844,84,107,310,600,0.0,2-3,minor
29845,82,72,420,630,8.0,2-3,other
29846,80,62,460,780,8.0,2-3,other
29847,79,50,220,630,8.0,2-3,other
29848,82,31,120,60,8.0,2-3,other
29849,77,43,370,400,8.0,2-3,other
29850,75,48,550,690,8.0,2-3,other
29851,60,41,1310,630,3.0,2-5,other
29852,63,47,640,2930,8.0,2-6,other
29853,58,33,140,30,8.0,2-6,other
29854,75,76,540,250,8.0,2-6,other
29855,80,69,190,3500,0.0,2-4,other
29856,82,72,490,340,0.0,2-4,other
29857,56,45,1300,690,2.0,3-8A,major
29858,82,56,90,2210,3.0,4-15A,other
29859,91,72,150,1480,8.0,3-2A,other
29860,69,57,290,1630,10.0,4-22A,major
29861,60,36,170,40,10.0,4-22A,major
29862,62,46,520,690,0.0,4-24,augmented
29863,60,46,410,30,0.0,4-24,augmented
29864,71,66,330,850,0.0,4-24,augmented
29865,57,42,220,70,4.0,3-11B,major
29866,58,41,160,2040,0.0,2-2,other
29867,57,41,90,2540,2.0,2-4,major
29868,57,28,100,890,7.0,2-4,major
29869,59,54,80,1800,7.0,2-4,major
29870,67,62,110,1160,3.0,2-4,other
29871,71,68,220,310,3.0,2-4,other
29872,75,79,150,330,3.0,2-4,other
29873,58,46,80,110,3.0,2-4,other
29874,79,85,190,200,3.0,2-4,other
29875,53,58,250,670,3.0,2-4,other
29876,91,96,280,320,3.0,2-4,other
29877,89,86,300,320,3.0,2-4,other
29878,91,28,90,50,3.0,2-4,other
29879,89,75,240,620,11.0,2-3,minor
29880,87,66,170,350,11.0,2-3,minor
29881,84,58,300,280,11.0,2-3,minor
29882,63,43,1220,110,11.0,2-3,minor
29883,56,34,1570,50,11.0,2-3,minor
29884,80,50,320,190,0.0,2-5,other
29885,79,36,270,430,0.0,2-5,other
29886,79,42,350,630,0.0,2-5,other
29887,79,50,210,530,0.0,2-5,other
29888,60,45,1020,430,4.0,2-6,other
29889,56,48,230,3390,7.0,2-5,other
29890,62,22,240,720,8.0,2-1,other
29891,55,44,120,720,0.0,2-4,other
29892,63,63,270,580,0.0,2-4,other
29893,59,44,110,100,10.0,2-4,other
29894,63,49,240,590,10.0,2-4,other
29895,54,42,260,30,10.0,2-4,other
29896,60,57,840,680,3.0,2-5,other
29897,46,65,180,2420,3.0,2-5,other
29898,62,50,230,390,3.0,2-5,other
29899,67,78,180,580,3.0,2-5,other
29900,70,80,380,390,3.0,2-5,other
29901,72,66,370,1000,8.0,4-18A,diminished
29902,73,87,290,490,8.0,4-18A,diminished
29903,58,26,110,230,8.0,4-18A,diminished
29904,74,85,330,190,8.0,4-18A,diminished
29905,77,122,260,560,8.0,4-18A,diminished
29906,73,73,360,490,10.0,2-5,other
29907,65,60,260,530,10.0,2-5,other
29908,61,57,370,410,10.0,2-5,other
29909,42,31,90,1590,10.0,2-5,other
29910,48,36,100,350,10.0,2-5,other
29911,49,60,150,160,10.0,2-5,other
29912,51,54,60,200,10.0,2-5,other
29913,52,68,160,120,10.0,2-5,other
29914,54,68,90,230,10.0,2-5,other
29915,55,68,170,200,10.0,2-5,other
29916,57,61,140,230,10.0,2-5,other
29917,58,64,120,140,10.0,2-5,other
29918,60,51,120,220,10.0,2-5,other
29919,61,39,120,180,10.0,2-5,other
29920,63,59,80,110,10.0,2-5,other
29921,64,60,190,200,10.0,2-5,other
29922,52,47,1640,80,0.0,2-2,other
29923,66,51,70,120,0.0,2-2,other
29924,67,55,160,200,0.0,2-2,other
29925,69,56,90,180,0.0,2-2,other
29926,70,60,70,130,0.0,2-2,other
29927,72,63,190,200,0.0,2-2,other
29928,73,55,160,220,0.0,2-2,other
29929,75,44,80,180,0.0,2-2,other
29930,76,74,170,160,0.0,2-2,other
29931,77,56,120,200,0.0,2-2,other
29932,78,58,70,120,0.0,2-2,other
29933,79,38,100,250,0.0,2-2,other
29934,82,69,350,400,0.0,2-2,other
29935,79,81,510,290,0.0,2-2,other
29936,63,40,1350,590,0.0,2-2,other
29937,60,31,2030,90,7.0,2-1,other
29938,75,57,340,370,7.0,2-1,other
29939,72,65,270,580,7.0,2-1,other
29940,68,54,70,590,7.0,2-1,other
29941,70,61,510,640,9.0,3-8B,other
29942,68,60,510,600,9.0,3-8B,other
29943,50,32,1200,120,0.0,2-4,other
29944,64,44,460,560,0.0,2-4,other
29945,67,66,490,570,0.0,2-4,other
29946,59,57,600,1220,7.0,2-2,other
29947,50,39,130,420,7.0,2-2,other
29948,62,60,900,350,7.0,2-2,other
29949,48,47,1970,600,7.0,2-2,other
29950,56,55,380,40,7.0,2-2,other
29951,55,48,680,590,7.0,2-2,other
29952,60,51,590,740,7.0,2-2,other
29953,63,63,460,630,7.0,2-2,other
29954,65,61,460,580,7.0,2-2,other
29955,70,65,570,640,7.0,2-2,other
29956,57,49,860,630,3.0,3-12,augmented
29957,62,41,820,30,3.0,3-12,augmented
29958,74,68,680,580,3.0,3-12,augmented
29959,67,53,350,530,3.0,3-12,augmented
29960,79,73,350,80,2.0,3-5B,other
29961,57,60,380,690,3.0,4-19B,augmented
29962,74,80,510,610,3.0,4-16A,major
29963,84,71,210,690,9.0,2-6,other
29964,58,56,1180,730,11.0,2-5,other
29965,53,37,790,2100,3.0,3-4A,other
29966,58,14,740,140,3.0,3-4A,other
29967,74,55,1220,1830,8.0,2-6,other
29968,89,87,1040,3920,7.0,2-5,other
29969,88,42,100,120,2.0,3-7A,minor
29970,77,37,930,50,2.0,3-7A,minor
29971,86,59,930,1670,2.0,3-7A,minor
29972,82,68,950,30,2.0,3-7A,minor
29973,92,70,1030,1810,0.0,3-9,other
29974,80,57,910,140,0.0,7-35,other
29975,72,32,110,2840,10.0,2-4,other
29976,68,39,90,30,10.0,2-4,other
29977,60,48,1780,1061,2.0,4-23,minor
29978,77,87,150,3400,2.0,4-23,minor
29979,75,56,190,270,2.0,4-23,minor
29980,75,68,180,830,11.0,2-6,other
29981,71,59,120,470,11.0,2-6,other
29982,67,58,200,1390,11.0,2-6,other
29983,65,58,310,410,11.0,2-6,other
29984,63,75,280,530,11.0,2-6,other
29985,53,33,1390,180,0.0,2-4,other
29986,60,43,650,460,0.0,2-4,other
29987,63,52,780,770,0.0,2-4,other
29988,58,43,200,650,0.0,2-4,other
29989,60,66,540,440,0.0,2-4,other
29990,55,68,350,570,0.0,2-4,other
29991,56,78,470,390,0.0,2-4,other
29992,58,87,350,510,0.0,2-4,other
29993,41,53,100,140,0.0,2-4,other
29994,56,63,460,280,0.0,2-4,other
29995,52,43,170,530,0.0,2-4,other
29996,55,73,460,280,0.0,2-4,other
29997,52,60,240,570,0.0,2-4,other
29998,53,54,470,370,5.0,2-2,other
29999,55,76,230,600,5.0,2-2,other
30000,56,65,240,340,5.0,2-2,other
30001,58,74,210,300,5.0,2-2,other
30002,61,57,300,1080,8.0,2-3,other
30003,63,57,70,280,8.0,2-3,other
30004,65,66,310,200,8.0,2-3,other
30005,67,56,340,350,8.0,2-3,other
30006,68,60,270,250,8.0,2-3,other
30007,70,63,70,260,8.0,2-3,other
30008,58,36,1050,280,11.0,2-5,other
30009,73,62,200,120,11.0,2-5,other
30010,75,42,80,220,11.0,2-5,other
30011,77,68,100,160,11.0,2-5,other
30012,79,73,160,320,11.0,2-5,other
30013,80,72,170,500,11.0,2-5,other
30014,82,60,220,480,11.0,2-5,other
30015,67,43,520,1110,0.0,2-4,other
30016,62,52,670,30,0.0,2-4,other
30017,79,36,220,880,2.0,3-4A,major
30018,82,47,90,580,7.0,2-5,other
30019,90,42,110,3150,0.0,2-5,other
30020,95,49,70,310,5.0,2-5,other
30021,57,49,590,1790,6.0,2-6,other
30022,62,38,910,1800,7.0,3-7A,minor
30023,89,122,340,940,7.0,3-7A,minor
30024,86,94,230,570,7.0,3-7A,minor
30025,87,78,230,420,7.0,3-7A,minor
30026,79,60,120,600,7.0,3-7A,minor
30027,63,39,110,90,7.0,3-7A,minor
30028,86,66,130,280,7.0,3-7A,minor
30029,84,68,180,590,7.0,3-7A,minor
30030,74,54,530,410,3.0,2-4,major
30031,63,36,460,900,7.0,2-5,other
30032,60,34,510,30,7.0,2-5,other
30033,59,43,2780,970,3.0,3-4A,major
30034,73,45,320,480,3.0,3-4A,major
30035,72,46,260,160,3.0,3-4A,major
30036,71,50,460,290,3.0,3-4A,major
30037,63,42,1590,680,7.0,2-5,other
30038,71,47,750,520,7.0,2-5,other
30039,72,63,620,690,7.0,2-5,other
30040,74,85,270,530,7.0,2-5,other
30041,75,71,400,310,7.0,2-5,other
30042,72,63,450,410,0.0,2-4,other
30043,72,58,480,650,0.0,2-4,other
30044,72,69,620,610,0.0,2-4,other
30045,74,68,260,590,0.0,2-4,other
30046,75,85,330,330,0.0,2-4,other
30047,72,81,560,380,0.0,2-4,other
30048,67,55,490,40,0.0,2-4,other
30049,60,54,480,60,3.0,2-5,other
30050,72,84,660,560,3.0,2-5,other
30051,63,68,600,80,7.0,2-1,other
30052,60,69,610,30,7.0,2-1,other
30053,74,81,260,540,7.0,2-1,other
30054,75,90,410,340,7.0,2-1,other
30055,72,85,640,950,0.0,2-4,other
30056,74,72,220,610,0.0,2-4,other
30057,75,62,200,330,0.0,2-4,other
30058,77,63,230,330,0.0,2-4,other
30059,79,66,160,340,0.0,2-4,other
30060,80,72,230,310,0.0,2-4,other
30061,62,36,530,450,8.0,3-6,other
30062,82,45,400,810,8.0,3-6,other
30063,56,32,320,70,10.0,2-4,other
30064,62,32,340,30,10.0,2-4,other
30065,82,43,1900,540,10.0,2-4,other
30066,85,81,470,2840,8.0,2-6,other
30067,66,57,320,40,8.0,2-6,other
30068,90,57,60,1430,8.0,4-24,other
30069,97,63,200,640,8.0,4-24,other
30070,66,46,220,660,3.0,2-5,other
30071,87,48,160,40,3.0,2-5,other
30072,62,37,90,30,3.0,2-5,other
30073,62,49,740,630,7.0,4-26,minor
30074,96,63,320,840,7.0,4-26,minor
30075,90,67,240,1600,3.0,2-1,other
30076,88,45,280,430,3.0,2-1,other
30077,87,64,290,560,3.0,2-1,other
30078,86,46,200,430,3.0,2-1,other
30079,62,32,130,620,10.0,2-4,other
30080,78,41,300,330,10.0,2-4,other
30081,66,56,80,1460,10.0,2-4,other
30082,62,46,120,50,10.0,2-4,other
30083,77,82,160,310,10.0,2-4,other
30084,75,85,250,340,10.0,2-4,other
30085,56,57,270,90,10.0,2-4,other
30086,66,35,110,30,10.0,2-4,other
30087,62,30,250,40,10.0,2-4,other
30088,74,85,210,150,10.0,2-4,other
30089,77,92,770,360,10.0,2-4,other
30090,62,30,250,810,0.0,2-5,other
30091,74,74,530,80,0.0,2-5,other
30092,70,64,1800,570,0.0,2-5,other
30093,60,40,890,100,7.0,3-7B,other
30094,63,39,1810,2020,7.0,3-7B,other
30095,82,102,350,1980,11.0,3-5B,other
30096,80,85,360,510,11.0,3-5B,other
30097,59,43,230,210,11.0,3-5B,other
30098,58,28,230,70,11.0,3-5B,other
30099,75,62,230,40,11.0,3-5B,other
30100,71,45,180,350,11.0,3-5B,other
30101,70,67,280,290,11.0,3-5B,other
30102,69,59,240,310,11.0,3-5B,other
30103,68,63,190,300,11.0,3-5B,other
30104,63,32,340,70,11.0,3-5B,other
30105,60,40,760,70,11.0,3-5B,other
30106,56,37,790,30,11.0,3-5B,other
30107,53,20,1030,40,11.0,3-5B,other
30108,67,41,410,90,11.0,3-5B,other
30109,68,68,340,690,11.0,3-5B,other
30110,65,53,130,370,11.0,3-5B,other
30111,67,73,220,330,11.0,3-5B,other
30112,52,38,1330,270,0.0,2-2,other
30113,66,60,260,60,0.0,2-2,other
30114,67,56,240,370,0.0,2-2,other
30115,64,61,260,340,0.0,2-2,other
30116,63,55,270,330,0.0,2-2,other
30117,61,49,230,310,0.0,2-2,other
30118,60,54,190,310,0.0,2-2,other
30119,58,42,240,300,0.0,2-2,other
30120,56,63,350,690,0.0,2-2,other
30121,55,51,170,640,0.0,2-2,other
30122,52,54,140,260,0.0,2-2,other
30123,48,19,170,170,0.0,2-2,other
30124,53,68,490,140,0.0,2-2,other
30125,48,38,130,520,0.0,2-2,other
30126,55,58,220,170,0.0,2-2,other
30127,56,55,250,300,0.0,2-2,other
30128,58,77,350,330,0.0,2-2,other
30129,60,60,110,590,0.0,2-2,other
30130,62,57,190,330,0.0,2-2,other
30131,63,61,340,310,0.0,2-2,other
30132,56,49,180,1650,0.0,2-3,minor
30133,65,36,100,310,0.0,2-3,minor
30134,67,58,110,340,0.0,2-3,minor
30135,68,85,300,270,0.0,2-3,minor
30136,70,82,500,410,0.0,2-3,minor
30137,67,48,320,900,0.0,2-3,minor
30138,56,24,520,80,2.0,2-2,other
30139,74,85,370,930,2.0,2-2,other
30140,75,74,250,570,2.0,2-2,other
30141,77,55,350,410,5.0,3-5B,other
30142,53,57,270,590,7.0,3-11A,minor
30143,55,54,300,40,7.0,3-11A,minor
30144,55,39,550,450,10.0,3-11B,major
30145,80,43,280,90,8.0,2-2,other
30146,79,46,310,1420,7.0,5-32A,minor
30147,82,39,260,60,7.0,5-32A,minor
30148,79,44,370,490,3.0,5-27A,major
30149,58,48,370,680,2.0,3-3A,minor
30150,79,41,210,50,2.0,3-3A,minor
30151,52,46,1380,680,7.0,4-22B,minor
30152,52,36,90,1800,10.0,2-4,major
30153,86,68,60,1070,0.0,3-7B,other
30154,85,41,90,400,3.0,2-4,major
30155,58,82,150,470,3.0,2-4,major
30156,62,63,70,30,3.0,2-4,major
30157,61,70,130,340,5.0,2-4,other
30158,91,127,150,3850,5.0,4-14A,other
30159,91,98,290,640,7.0,2-1,other
30160,92,43,90,40,7.0,2-1,other
30161,89,76,160,280,7.0,2-1,other
30162,87,88,200,340,7.0,2-1,other
30163,86,92,230,330,7.0,2-1,other
30164,53,40,1300,110,3.0,2-4,other
30165,84,82,300,480,3.0,2-4,other
30166,86,39,90,50,3.0,2-4,other
30167,83,81,180,470,3.0,2-4,other
30168,80,72,240,420,3.0,2-4,other
30169,79,72,150,310,3.0,2-4,other
30170,51,31,390,310,2.0,2-3,minor
30171,57,54,270,30,2.0,2-3,minor
30172,75,74,170,300,2.0,2-3,minor
30173,74,68,190,340,2.0,2-3,minor
30174,77,75,250,340,2.0,2-3,minor
30175,74,75,150,310,2.0,2-3,minor
30176,75,82,250,280,2.0,2-3,minor
30177,57,32,140,170,2.0,2-3,minor
30178,67,43,410,200,2.0,2-3,minor
30179,67,60,280,600,2.0,2-3,minor
30180,62,41,90,40,2.0,2-3,minor
30181,57,42,80,70,2.0,2-3,minor
30182,63,39,130,300,2.0,2-3,minor
30183,60,50,200,600,2.0,2-3,minor
30184,62,60,600,340,2.0,2-3,minor
30185,67,63,150,560,2.0,2-3,minor
30186,71,56,190,360,2.0,2-3,minor
30187,74,85,220,340,2.0,2-3,minor
30188,63,57,260,350,7.0,2-4,major
30189,74,79,250,320,4.0,2-2,other
30190,73,39,90,50,4.0,2-2,other
30191,62,50,190,340,3.0,3-12,augmented
30192,74,72,260,280,3.0,3-12,augmented
30193,74,61,310,710,3.0,4-19B,augmented
30194,53,50,900,2370,3.0,3-11A,other
30195,66,38,130,1060,3.0,3-11A,other
30196,46,62,5050,1540,2.0,2-4,major
30197,53,39,310,1930,2.0,2-4,major
30198,56,63,850,270,2.0,2-4,major
30199,46,82,2050,3520,7.0,2-2,other
30200,61,59,380,3780,3.0,6-16A,other
30201,82,69,180,630,3.0,4-22B,other
30202,61,44,390,30,3.0,4-22B,other
30203,60,52,960,720,7.0,2-5,other
30204,55,77,340,2520,2.0,4-10,minor
30205,58,35,170,600,0.0,3-1,other
30206,90,49,110,590,5.0,3-6,major
30207,56,33,100,80,5.0,3-6,major
30208,53,59,660,1640,3.0,2-4,other
30209,58,25,380,80,3.0,2-4,other
30210,83,56,440,380,3.0,2-4,other
30211,59,56,390,460,3.0,2-4,other
30212,63,68,90,30,3.0,2-4,other
30213,79,75,240,30,3.0,2-4,other
30214,75,46,500,410,3.0,2-4,other
30215,60,47,640,600,0.0,2-3,minor
30216,56,43,1390,40,0.0,2-3,minor
30217,75,60,490,290,0.0,2-3,minor
30218,53,1,620,420,0.0,2-3,minor
30219,60,36,350,130,0.0,2-3,minor
30220,65,21,240,120,0.0,2-3,minor
30221,68,39,490,320,0.0,2-3,minor
30222,72,66,360,520,0.0,2-3,minor
30223,52,35,980,160,0.0,2-2,other
30224,70,49,730,290,0.0,2-2,other
30225,61,52,290,510,0.0,2-2,other
30226,60,48,460,390,0.0,2-2,other
30227,58,64,250,540,0.0,2-2,other
30228,48,39,280,80,0.0,2-2,other
30229,56,52,700,290,0.0,2-2,other
30230,51,22,80,570,0.0,2-2,other
30231,56,4,840,360,0.0,2-2,other
30232,51,56,100,500,0.0,2-2,other
30233,41,39,230,50,0.0,2-2,other
30234,53,43,240,420,0.0,2-2,other
30235,55,63,180,350,0.0,2-2,other
30236,56,66,270,310,0.0,2-2,other
30237,58,58,170,300,0.0,2-2,other
30238,59,60,240,250,0.0,2-2,other
30239,61,55,290,230,0.0,2-2,other
30240,63,54,190,240,8.0,2-3,other
30241,65,65,700,270,8.0,2-3,other
30242,67,50,190,710,8.0,2-3,other
30243,68,66,230,250,8.0,2-3,other
30244,70,66,330,280,8.0,2-3,other
30245,71,62,180,430,8.0,2-3,other
30246,73,63,330,290,8.0,2-3,other
30247,58,43,950,30,8.0,2-3,other
30248,68,37,850,40,8.0,2-3,other
30249,63,39,780,40,8.0,2-3,other
30250,60,42,830,40,8.0,2-3,other
30251,75,64,400,150,8.0,2-3,other
30252,77,48,100,570,8.0,2-3,other
30253,79,57,140,290,8.0,2-3,other
30254,80,73,710,310,8.0,2-3,other
30255,67,57,590,130,8.0,2-3,other
30256,82,63,420,460,8.0,2-6,other
30257,62,41,450,690,8.0,2-3,minor
30258,62,42,310,1590,8.0,2-2,other
30259,55,33,110,1980,10.0,2-4,major
30260,81,75,210,210,10.0,2-4,major
30261,78,66,200,330,10.0,2-4,major
30262,62,36,100,390,7.0,2-3,minor
30263,81,67,200,290,7.0,2-3,minor
30264,82,68,200,570,7.0,2-3,minor
30265,56,41,290,100,0.0,2-3,minor
30266,84,60,150,300,0.0,2-3,minor
30267,80,59,200,620,0.0,2-3,minor
30268,81,72,240,400,0.0,2-3,minor
30269,77,42,330,950,10.0,2-5,other
30270,75,65,270,570,10.0,2-5,other
30271,74,56,390,410,10.0,2-5,other
30272,70,64,260,560,10.0,2-5,other
30273,65,45,540,390,10.0,2-4,major
30274,62,57,470,970,10.0,2-4,major
30275,63,63,2010,600,10.0,2-4,major
30276,55,52,730,400,10.0,2-4,major
30277,55,54,370,970,10.0,2-4,major
30278,43,57,130,590,10.0,2-4,major
30279,66,56,70,1300,1.0,2-3,other
30280,71,54,180,320,1.0,2-3,other
30281,62,32,100,30,1.0,2-3,other
30282,59,63,60,230,1.0,2-3,other
30283,62,53,460,360,7.0,2-5,other
30284,63,31,90,1400,7.0,2-3,minor
30285,48,29,140,580,10.0,3-11B,major
30286,42,51,200,510,10.0,3-11B,major
30287,51,33,430,120,0.0,2-3,minor
30288,41,55,240,80,0.0,2-3,minor
30289,60,66,540,730,8.0,2-1,other
30290,63,48,270,30,8.0,2-1,other
30291,67,57,390,1260,0.0,3-7A,minor
30292,56,63,600,710,0.0,2-4,other
30293,60,68,660,1460,5.0,2-5,other
30294,68,40,180,1440,0.0,4-20,other
30295,77,68,250,50,0.0,4-20,other
30296,65,54,540,60,0.0,4-20,other
30297,80,47,670,1260,0.0,2-4,other
30298,71,54,850,860,0.0,2-4,other
30299,67,55,660,30,0.0,2-4,other
30300,46,46,2580,1840,4.0,3-7A,minor
30301,56,42,120,1050,4.0,3-3B,other
30302,56,42,360,990,4.0,5-32B,other
30303,62,32,120,80,4.0,3-11A,minor
30304,65,57,210,2860,0.0,3-6,other
30305,56,63,310,490,0.0,3-6,other
30306,70,77,230,30,0.0,3-6,other
30307,62,61,950,620,5.0,3-9,other
30308,62,36,200,1760,8.0,2-2,other
30309,64,1,810,290,8.0,2-2,other
30310,56,49,800,1520,10.0,3-12,augmented
30311,46,60,200,640,10.0,3-12,augmented
30312,66,63,260,1790,10.0,3-12,augmented
30313,58,43,110,1430,2.0,4-23,minor
30314,89,39,90,40,2.0,4-23,minor
30315,58,48,930,3720,3.0,3-8B,other
30316,63,52,410,2150,3.0,4-16A,other
30317,82,29,320,160,10.0,4-18A,major
30318,63,50,220,3910,6.0,3-10,other
30319,70,57,220,180,1.0,2-6,other
30320,64,58,180,1010,1.0,3-10,other
30321,79,52,360,410,1.0,3-10,other
30322,75,19,230,1050,0.0,2-3,minor
30323,73,36,280,840,1.0,4-28,diminished
30324,72,58,70,550,2.0,2-3,minor
30325,46,68,2750,1850,10.0,3-9,other
30326,56,63,810,1950,0.0,3-11A,minor
30327,56,50,930,1300,7.0,3-11A,minor
30328,65,10,160,1960,8.0,2-3,other
30329,54,56,440,1050,8.0,2-6,other
30330,49,40,210,2630,7.0,2-2,other
30331,65,60,1020,230,10.0,2-5,other
30332,61,75,530,680,8.0,2-2,other
30333,53,65,650,40,8.0,2-2,other
30334,49,60,530,620,10.0,3-11A,other
30335,67,58,520,610,1.0,3-10,minor
30336,64,47,520,40,1.0,3-10,minor
30337,58,57,530,1800,2.0,3-6,major
30338,83,36,170,1650,0.0,4-20,other
30339,52,74,300,1710,0.0,2-5,other
30340,53,75,190,330,0.0,2-5,other
30341,55,77,530,390,0.0,2-5,other
30342,60,42,380,40,0.0,2-5,other
30343,70,20,920,100,0.0,2-5,other
30344,53,67,550,590,0.0,2-5,other
30345,51,66,210,610,0.0,2-5,other
30346,50,47,300,1860,8.0,2-6,other
30347,60,57,420,410,5.0,3-9,other
30348,69,48,210,30,5.0,3-9,other
30349,65,26,110,640,11.0,2-6,other
30350,70,38,100,970,0.0,2-5,other
30351,80,60,70,870,3.0,2-1,other
30352,63,46,450,4990,5.0,2-5,other
30353,60,18,830,30,5.0,2-5,other
30354,65,56,220,650,5.0,2-5,other
30355,67,55,130,350,5.0,2-5,other
30356,68,49,390,920,5.0,2-5,other
30357,65,37,260,80,3.0,3-4A,other
30358,58,43,160,650,3.0,3-11A,other
30359,65,23,90,90,3.0,3-11A,other
30360,65,36,110,1020,3.0,4-14A,other
30361,65,37,120,490,3.0,4-14A,other
30362,63,50,380,620,3.0,4-14A,other
30363,65,38,130,100,8.0,3-2B,other
30364,68,57,240,1630,8.0,2-3,other
30365,70,63,210,470,8.0,2-3,other
30366,71,65,260,560,8.0,2-3,other
30367,70,60,800,480,8.0,2-3,other
30368,68,51,170,710,8.0,2-3,other
30369,46,43,2190,1580,5.0,2-2,other
30370,55,43,1880,420,5.0,2-2,other
30371,77,81,400,5280,0.0,4-22A,other
30372,74,57,450,620,0.0,4-22A,other
30373,70,44,1080,660,0.0,4-22A,other
30374,65,48,730,40,0.0,4-22A,other
30375,39,42,490,80,0.0,4-22A,other
30376,46,52,460,580,0.0,4-22A,other
30377,55,48,190,680,0.0,4-22A,other
30378,58,49,640,460,0.0,4-22A,other
30379,69,31,170,650,2.0,2-5,other
30380,77,58,510,520,2.0,2-5,other
30381,68,19,2130,740,0.0,2-3,minor
30382,58,50,1990,510,0.0,2-3,minor
30383,84,56,240,750,0.0,2-3,minor
30384,89,81,490,550,0.0,2-3,minor
30385,89,60,600,700,0.0,2-3,minor
30386,86,67,420,710,0.0,2-3,minor
30387,46,39,300,1280,3.0,2-5,other
30388,55,39,670,700,3.0,2-5,other
30389,67,49,640,1400,2.0,2-2,other
30390,68,48,580,750,2.0,2-2,other
30391,72,63,240,1630,0.0,4-11A,other
30392,53,31,790,100,0.0,4-11A,other
30393,74,66,260,640,0.0,4-11A,other
30394,79,59,400,3150,5.0,1-1,other
30395,75,48,800,2190,8.0,2-2,other
30396,47,38,5050,60,8.0,2-2,other
30397,54,45,860,820,8.0,2-2,other
30398,66,63,290,1550,1.0,3-7B,other
30399,54,42,880,60,1.0,3-7B,other
30400,58,40,770,780,1.0,2-3,other
30401,75,58,340,740,1.0,2-3,other
30402,54,38,1820,100,1.0,2-3,other
30403,58,52,320,1760,1.0,2-3,other
30404,47,35,190,80,1.0,2-3,other
30405,70,62,170,4320,9.0,1-1,other
30406,58,51,300,30,9.0,1-1,other
30407,74,74,230,340,9.0,1-1,other
30408,62,53,150,50,9.0,1-1,other
30409,78,85,240,300,9.0,1-1,other
30410,66,52,1130,50,9.0,1-1,other
30411,81,96,340,300,9.0,1-1,other
30412,78,86,240,370,9.0,1-1,other
30413,67,49,390,70,9.0,1-1,other
30414,79,79,240,270,9.0,1-1,other
30415,69,60,290,160,9.0,1-1,other
30416,81,79,310,180,9.0,1-1,other
30417,70,48,350,220,9.0,1-1,other
30418,82,79,220,100,9.0,1-1,other
30419,90,67,290,780,2.0,1-1,other
30420,78,52,1160,40,2.0,1-1,other
30421,93,66,330,390,2.0,1-1,other
30422,91,60,280,780,7.0,2-1,other
30423,81,37,410,90,7.0,2-1,other
30424,94,57,160,790,10.0,2-1,other
30425,86,35,100,190,10.0,2-1,other
30426,98,56,250,270,10.0,2-1,other
30427,93,59,190,930,6.0,1-1,other
30428,105,55,460,30,6.0,1-1,other
30429,67,81,1341,0,,,
30430,55,79,1640,57,,,
30431,69,90,1269,1495,,,
30432,57,78,1332,35,,,
30433,48,60,995,2782,3.0,2-5,other
30434,55,59,950,977,3.0,2-5,other
30435,63,50,2309,2004,10.0,2-4,major
30436,74,63,1293,1208,7.0,2-3,minor
30437,67,56,293,1311,7.0,2-3,minor
30438,62,61,1036,1294,7.0,2-3,minor
30439,67,55,1077,1104,7.0,2-3,minor
30440,51,27,1409,1373,7.0,2-2,other
30441,61,27,1421,1116,7.0,2-2,other
30442,41,36,1838,1575,7.0,2-2,other
30443,29,34,299,1592,9.0,2-3,minor
30444,86,68,479,4615,2.0,1-1,other
30445,75,59,735,1660,3.0,1-1,other
30446,76,60,560,2297,3.0,1-1,other
30447,61,47,1447,33,3.0,1-1,other
30448,73,19,551,127,7.0,2-3,minor
30449,62,41,349,1069,7.0,2-3,minor
30450,79,62,473,145,7.0,2-3,minor
30451,64,54,1181,71,1.0,2-3,other
30452,79,60,503,3981,2.0,1-1,other
30453,64,49,1051,59,1.0,2-3,other
30454,82,60,794,4733,9.0,2-6,other
30455,74,57,825,63,9.0,2-6,other
30456,67,42,299,47,9.0,2-6,other
30457,44,28,340,2652,9.0,2-6,other
30458,43,36,506,385,9.0,2-6,other
30459,52,28,2137,408,9.0,2-6,other
30460,42,48,3196,128,3.0,2-5,other
30461,72,88,1631,4348,3.0,2-5,other
30462,74,74,618,2244,3.0,2-5,other
30463,67,64,352,118,0.0,2-2,other
30464,55,38,278,1332,3.0,2-5,other
30465,86,79,1130,33,3.0,2-5,other
30466,86,74,1563,1743,3.0,2-5,other
30467,79,45,382,1607,3.0,2-5,other
30468,74,64,3806,1664,3.0,2-5,other
30469,63,49,965,1335,3.0,2-5,other
30470,67,51,684,62,3.0,2-5,other
30471,62,32,139,71,3.0,2-5,other
30472,74,43,1273,3469,3.0,2-4,major
30473,65,36,1125,4333,5.0,2-1,other
30474,65,48,308,1554,5.0,2-1,other
30475,77,53,554,1504,5.0,2-1,other
30476,77,48,1282,1945,5.0,2-1,other
30477,77,42,799,2495,5.0,2-1,other
30478,79,40,1142,6631,9.0,2-6,other
30479,82,50,2373,3703,9.0,2-6,other
30480,67,38,7800,112,2.0,3-7A,minor
30481,82,92,743,4621,2.0,3-7A,minor
30482,82,94,802,1222,2.0,3-7A,minor
30483,82,85,758,1163,2.0,3-7A,minor
30484,82,67,971,1386,2.0,3-7A,minor
30485,82,40,4043,1530,2.0,3-7A,minor
30486,84,40,497,4135,2.0,3-7A,minor
30487,62,66,250,2030,2.0,2-2,other
30488,50,45,266,58,2.0,2-2,other
30489,74,62,190,8342,9.0,2-3,minor
30490,54,60,1428,329,9.0,2-3,minor
30491,64,26,79,137,2.0,3-7A,minor
30492,84,80,456,837,2.0,3-7A,minor
30493,72,75,285,1599,2.0,3-7A,minor
30494,61,32,74,847,10.0,5-27A,major
30495,72,67,228,576,10.0,5-27A,major
30496,61,64,348,713,10.0,5-27A,major
30497,58,44,339,2092,0.0,3-6,other
30498,70,65,1217,605,0.0,3-6,other
30499,46,57,1065,34,0.0,3-6,other
30500,56,50,94,873,0.0,3-6,other
30501,68,58,247,872,0.0,3-6,other
30502,62,50,1013,1958,7.0,1-1,other
30503,39,32,884,134,7.0,1-1,other
30504,46,52,207,792,7.0,1-1,other
30505,70,69,194,2228,0.0,2-5,other
30506,70,55,96,616,0.0,2-5,other
30507,78,49,334,437,2.0,1-1,other
30508,82,62,272,619,2.0,1-1,other
30509,74,48,108,77,8.0,2-2,other
30510,66,37,146,893,8.0,1-1,other
30511,56,25,159,1051,2.0,3-11B,major
30512,67,48,2064,3816,0.0,2-5,other
30513,60,36,2049,70,3.0,2-1,other
30514,79,77,264,1104,3.0,2-1,other
30515,81,85,209,626,3.0,2-1,other
30516,82,84,662,322,3.0,2-1,other
30517,62,45,884,3021,3.0,3-4A,major
30518,72,31,110,1040,3.0,3-4A,major
30519,81,47,132,4656,1.0,1-1,other
30520,61,34,293,1461,9.0,4-27B,major
30521,89,56,259,120,9.0,4-27B,major
30522,77,40,160,75,9.0,4-27B,major
30523,62,51,734,26,9.0,4-27B,major
30524,45,52,89,1661,9.0,4-27B,major
30525,51,44,487,1296,0.0,2-3,minor
30526,66,51,1168,701,0.0,2-3,minor
30527,60,36,1039,79,10.0,2-4,major
30528,54,49,362,883,10.0,2-4,major
30529,72,39,245,403,10.0,2-4,major
30530,54,56,645,903,6.0,3-10,minor
30531,72,55,293,631,6.0,3-10,minor
30532,54,43,581,446,9.0,2-6,other
30533,67,46,1020,603,7.0,3-11A,minor
30534,72,49,307,1231,7.0,3-11A,minor
30535,52,25,2983,756,10.0,2-4,major
30536,58,33,1298,1829,10.0,2-4,major
30537,82,39,302,895,7.0,2-5,other
30538,74,43,238,33,7.0,2-5,other
30539,82,47,94,425,7.0,2-5,other
30540,53,29,401,2429,3.0,2-5,other
30541,58,34,418,62,3.0,2-5,other
30542,81,64,775,879,3.0,2-5,other
30543,77,47,874,1485,6.0,3-10,other
30544,85,19,87,1296,6.0,3-10,other
30545,76,35,124,980,10.0,5-30B,other
30546,60,32,125,621,5.0,3-11B,major
30547,77,33,1152,2455,7.0,3-11A,minor
30548,57,34,475,53,7.0,3-11A,minor
30549,63,67,1349,1164,7.0,3-11A,minor
30550,55,41,1193,31,7.0,3-11A,minor
30551,74,58,213,3459,5.0,3-5B,other
30552,86,74,422,365,5.0,3-5B,other
30553,84,54,233,650,5.0,3-5B,other
30554,62,28,1060,238,5.0,3-5B,other
30555,82,53,206,756,9.0,2-2,other
30556,84,66,511,314,9.0,2-2,other
30557,82,57,372,919,9.0,2-2,other
30558,60,41,924,3874,8.0,2-6,other
30559,62,19,171,1545,8.0,2-2,other
30560,78,68,472,752,8.0,2-2,other
30561,60,46,1577,3470,3.0,4-14B,other
30562,70,48,223,552,3.0,4-14B,other
30563,67,42,499,60,3.0,4-14B,other
30564,70,40,235,293,3.0,4-14B,other
30565,56,34,274,1010,2.0,2-4,major
30566,63,51,386,2451,2.0,3-11B,major
30567,79,63,612,1485,2.0,2-5,other
30568,70,27,590,75,2.0,2-5,other
30569,63,64,197,525,2.0,2-5,other
30570,51,46,2467,1176,2.0,2-5,other
30571,58,39,238,1651,10.0,2-4,major
30572,67,103,573,236,10.0,2-4,major
30573,69,62,235,624,10.0,2-4,major
30574,58,28,115,55,10.0,2-4,major
30575,70,71,533,290,10.0,2-4,major
30576,74,76,3588,939,10.0,2-4,major
30577,62,47,228,648,10.0,2-4,major
30578,60,38,547,547,10.0,2-4,major
30579,63,50,1824,703,10.0,2-4,major
30580,59,39,725,41,10.0,2-4,major
30581,67,41,1521,29,10.0,2-4,major
30582,62,47,408,679,10.0,2-4,major
30583,60,37,290,660,10.0,2-4,major
30584,63,37,646,667,10.0,2-4,major
30585,57,38,1906,31,10.0,2-4,major
30586,72,41,797,43,10.0,2-4,major
30587,72,70,307,1426,10.0,2-4,major
30588,74,87,425,470,10.0,2-4,major
30589,75,78,322,845,10.0,2-4,major
30590,61,39,612,1906,4.0,2-3,minor
30591,79,59,252,1610,10.0,3-11B,major
30592,64,47,127,34,10.0,3-11B,major
30593,65,24,190,926,10.0,3-11B,major
30594,66,71,689,358,10.0,3-11B,major
30595,69,68,243,734,0.0,2-3,minor
30596,66,45,504,363,0.0,2-3,minor
30597,82,62,600,508,0.0,2-3,minor
30598,74,62,321,27,0.0,2-3,minor
30599,72,51,118,914,9.0,3-7A,minor
30600,58,46,1318,1301,4.0,4-27A,diminished
30601,77,63,382,2810,4.0,3-8B,other
30602,53,25,2525,1037,7.0,2-3,minor
30603,53,46,4224,2811,3.0,2-5,other
30604,62,33,3916,996,5.0,2-5,other
30605,77,71,307,888,5.0,2-5,other
30606,79,46,202,662,5.0,2-5,other
30607,82,65,324,372,5.0,2-5,other
30608,74,40,422,826,5.0,2-5,other
30609,75,54,281,614,5.0,2-5,other
30610,77,60,303,379,5.0,2-5,other
30611,72,42,372,975,5.0,2-5,other
30612,74,66,281,547,5.0,2-5,other
30613,63,45,248,141,5.0,2-5,other
30614,75,71,348,308,5.0,2-5,other
30615,74,52,238,556,5.0,2-5,other
30616,72,32,376,416,5.0,2-5,other
30617,70,45,84,556,5.0,2-5,other
30618,69,82,666,365,5.0,2-5,other
30619,68,44,115,657,5.0,2-5,other
30620,69,43,641,279,5.0,2-5,other
30621,72,78,1577,940,5.0,2-5,other
30622,55,34,930,1922,9.0,2-6,other
30623,60,27,1079,61,9.0,2-6,other
30624,67,44,107,960,9.0,2-6,other
30625,72,92,183,625,9.0,2-6,other
30626,75,78,233,965,2.0,1-1,other
30627,77,81,247,372,2.0,1-1,other
30628,75,65,260,578,2.0,1-1,other
30629,55,25,2880,300,2.0,1-1,other
30630,74,54,420,85,10.0,2-4,major
30631,72,51,223,603,10.0,2-4,major
30632,70,44,505,325,10.0,2-4,major
30633,71,37,127,1042,10.0,2-4,major
30634,72,40,607,112,10.0,2-4,major
30635,58,39,116,508,10.0,2-4,major
30636,70,71,736,222,10.0,2-4,major
30637,70,37,171,1533,0.0,2-4,other
30638,68,34,246,185,0.0,2-4,other
30639,67,33,233,283,0.0,2-4,other
30640,68,75,278,356,0.0,2-4,other
30641,70,60,237,314,8.0,2-2,other
30642,72,70,235,308,8.0,2-2,other
30643,74,66,251,308,8.0,2-2,other
30644,66,36,950,108,8.0,2-2,other
30645,75,59,201,235,8.0,2-2,other
30646,77,56,221,353,8.0,2-2,other
30647,79,44,250,337,8.0,2-2,other
30648,82,55,210,391,8.0,2-2,other
30649,86,67,332,319,8.0,2-2,other
30650,81,39,260,436,8.0,2-2,other
30651,81,57,431,547,8.0,2-2,other
30652,56,31,164,3320,0.0,3-11A,minor
30653,66,35,484,1317,0.0,3-11A,minor
30654,56,37,532,33,0.0,3-11A,minor
30655,60,33,110,1504,2.0,2-3,minor
30656,86,87,418,2203,2.0,2-2,other
30657,90,71,262,530,2.0,2-2,other
30658,91,84,553,383,2.0,2-2,other
30659,89,68,324,29,2.0,2-2,other
30660,86,33,220,620,2.0,2-2,other
30661,60,19,110,102,2.0,2-2,other
30662,89,83,645,251,2.0,2-2,other
30663,87,62,491,566,2.0,2-2,other
30664,60,27,156,50,2.0,2-2,other
30665,79,14,260,526,2.0,2-2,other
30666,86,78,830,404,2.0,2-2,other
30667,84,43,472,443,2.0,2-2,other
30668,79,55,253,514,2.0,2-2,other
30669,60,31,186,126,5.0,2-2,other
30670,67,44,516,1171,5.0,2-2,other
30671,74,55,559,57,5.0,2-2,other
30672,75,64,206,640,3.0,3-4B,other
30673,77,90,516,339,3.0,3-4B,other
30674,76,48,93,40,3.0,3-4B,other
30675,63,28,114,618,7.0,2-5,other
30676,62,28,87,29,7.0,2-5,other
30677,67,43,614,326,7.0,2-5,other
30678,67,41,567,868,7.0,2-5,other
30679,67,47,474,1056,7.0,2-5,other
30680,60,41,344,1562,5.0,2-2,other
30681,58,55,1005,2203,4.0,1-1,other
30682,73,39,541,597,4.0,1-1,other
30683,69,29,457,412,4.0,1-1,other
30684,69,56,322,1531,2.0,2-2,other
30685,65,45,555,389,2.0,2-2,other
30686,63,53,156,672,2.0,2-2,other
30687,60,30,218,104,2.0,2-2,other
30688,72,89,445,118,2.0,2-2,other
30689,63,46,805,626,2.0,2-2,other
30690,60,30,391,454,2.0,2-2,other
30691,66,79,333,515,2.0,2-2,other
30692,63,69,344,520,2.0,2-2,other
30693,62,75,245,473,2.0,2-2,other
30694,60,54,591,370,2.0,2-2,other
30695,58,57,229,543,2.0,2-2,other
30696,43,26,1556,297,2.0,2-2,other
30697,58,68,574,932,2.0,2-5,other
30698,57,53,642,980,2.0,2-4,major
30699,54,25,183,697,2.0,2-4,major
30700,55,28,509,287,2.0,2-4,major
30701,57,55,285,590,2.0,2-4,major
30702,58,44,484,404,2.0,2-4,major
30703,59,55,223,526,2.0,2-4,major
30704,62,75,591,341,2.0,2-4,major
30705,58,33,360,54,2.0,2-4,major
30706,52,37,829,59,2.0,2-4,major
30707,59,36,235,592,2.0,2-4,major
30708,60,53,489,260,2.0,2-4,major
30709,62,71,264,606,2.0,2-4,major
30710,63,59,432,416,4.0,2-6,other
30711,64,66,310,501,4.0,2-6,other
30712,65,54,387,430,4.0,2-6,other
30713,82,13,285,4085,2.0,4-21,major
30714,54,55,459,1773,10.0,4-22A,major
30715,60,40,283,977,3.0,3-9,other
30716,55,31,1113,969,10.0,2-4,major
30717,62,44,79,1506,9.0,1-1,other
30718,72,57,287,325,10.0,2-1,other
30719,70,47,221,293,10.0,2-1,other
30720,69,62,168,321,10.0,2-1,other
30721,55,35,119,1010,10.0,2-4,major
30722,72,63,199,325,10.0,2-4,major
30723,70,46,312,277,10.0,2-4,major
30724,69,45,149,310,10.0,2-4,major
30725,75,70,283,274,0.0,2-3,minor
30726,74,47,274,356,0.0,2-3,minor
30727,72,55,75,295,0.0,2-3,minor
30728,63,51,104,179,0.0,2-3,minor
30729,58,42,197,3763,2.0,2-5,other
30730,77,103,510,293,2.0,2-5,other
30731,74,49,191,568,2.0,2-5,other
30732,57,29,152,102,2.0,2-5,other
30733,76,89,517,256,2.0,2-5,other
30734,75,74,351,603,2.0,2-5,other
30735,73,37,578,393,2.0,2-5,other
30736,72,66,242,559,2.0,2-5,other
30737,70,21,680,458,2.0,2-5,other
30738,68,42,229,524,2.0,2-5,other
30739,67,59,751,358,2.0,2-5,other
30740,62,24,85,676,2.0,2-5,other
30741,66,67,774,183,0.0,2-4,other
30742,62,35,86,634,0.0,2-4,other
30743,65,22,616,464,0.0,2-4,other
30744,62,32,89,560,0.0,2-4,other
30745,66,54,192,41,0.0,2-4,other
30746,69,78,661,298,0.0,2-4,other
30747,66,37,289,634,0.0,2-4,other
30748,67,49,537,364,0.0,2-4,other
30749,62,53,215,680,0.0,2-4,other
30750,63,45,150,1897,0.0,2-4,other
30751,60,34,100,48,0.0,2-4,other
30752,65,30,140,399,0.0,2-4,other
30753,67,52,181,298,0.0,2-4,other
30754,68,71,233,293,0.0,2-4,other
30755,66,43,102,71,0.0,2-4,other
30756,70,47,176,302,0.0,2-4,other
30757,72,60,191,310,0.0,2-4,other
30758,66,46,200,222,0.0,2-4,other
30759,75,54,262,449,8.0,2-6,other
30760,77,73,330,321,8.0,2-6,other
30761,74,74,320,335,8.0,2-6,other
30762,65,42,102,31,8.0,2-6,other
30763,62,29,183,29,8.0,2-6,other
30764,60,26,131,27,8.0,2-6,other
30765,74,72,259,691,8.0,2-6,other
30766,74,80,430,574,8.0,2-6,other
30767,75,71,341,513,8.0,2-6,other
30768,67,48,443,387,8.0,2-6,other
30769,67,49,524,843,8.0,2-6,other
30770,65,45,94,3452,8.0,2-6,other
30771,60,31,124,57,8.0,2-6,other
30772,79,22,285,388,8.0,2-6,other
30773,82,74,279,512,8.0,2-6,other
30774,83,89,414,397,8.0,2-6,other
30775,86,81,331,547,8.0,2-6,other
30776,60,37,297,92,3.0,2-4,major
30777,84,56,443,295,3.0,2-4,major
30778,79,47,273,545,3.0,2-4,major
30779,75,38,466,439,3.0,2-4,major
30780,74,41,158,597,3.0,2-4,major
30781,60,18,176,65,3.0,2-4,major
30782,77,74,526,239,3.0,2-4,major
30783,74,47,172,622,3.0,2-4,major
30784,75,49,707,291,3.0,2-4,major
30785,74,60,592,928,3.0,2-4,major
30786,73,32,231,653,3.0,2-4,major
30787,72,24,619,412,3.0,2-4,major
30788,68,62,1209,613,3.0,2-4,major
30789,69,37,1816,1290,3.0,2-4,major
30790,70,52,568,1880,3.0,2-4,major
30791,73,70,437,1057,0.0,1-1,other
30792,75,83,377,615,0.0,1-1,other
30793,54,26,177,121,0.0,2-3,minor
30794,73,36,414,420,0.0,2-3,minor
30795,74,66,221,443,0.0,2-3,minor
30796,58,53,79,1862,3.0,2-1,other
30797,74,41,219,2820,1.0,1-1,other
30798,52,24,110,1099,10.0,2-4,major
30799,79,70,252,927,10.0,2-4,major
30800,82,85,514,533,10.0,2-4,major
30801,58,33,364,863,5.0,2-2,other
30802,63,54,175,1437,5.0,2-2,other
30803,60,34,102,29,5.0,2-2,other
30804,58,37,231,44,5.0,2-2,other
30805,75,83,266,926,5.0,2-2,other
30806,74,70,358,399,5.0,2-2,other
30807,75,65,243,512,5.0,2-2,other
30808,60,46,322,366,2.0,2-3,minor
30809,55,35,156,35,2.0,2-3,minor
30810,67,58,347,828,2.0,2-3,minor
30811,63,52,347,1891,2.0,3-7A,minor
30812,57,26,256,147,0.0,2-5,other
30813,81,78,478,1812,6.0,3-8B,other
30814,82,62,202,628,6.0,3-8B,other
30815,84,85,395,335,6.0,3-8B,other
30816,84,80,241,643,6.0,3-8B,other
30817,62,37,77,112,6.0,3-8B,other
30818,84,78,824,254,6.0,3-8B,other
30819,83,62,200,711,6.0,3-8B,other
30820,82,67,398,162,6.0,3-8B,other
30821,81,48,455,186,6.0,3-8B,other
30822,84,85,682,603,6.0,3-8B,other
30823,62,36,83,29,6.0,3-8B,other
30824,58,25,90,87,6.0,3-8B,other
30825,83,59,251,456,6.0,3-8B,other
30826,82,44,383,197,6.0,3-8B,other
30827,81,52,201,238,6.0,3-8B,other
30828,62,19,71,172,6.0,3-8B,other
30829,84,87,620,137,6.0,3-8B,other
30830,81,56,252,547,6.0,3-8B,other
30831,82,69,389,367,6.0,3-8B,other
30832,57,38,304,640,0.0,2-5,other
30833,75,50,564,356,0.0,2-5,other
30834,72,38,109,611,0.0,2-5,other
30835,74,71,1466,292,0.0,2-5,other
30836,62,24,68,599,6.0,2-6,other
30837,75,71,507,965,6.0,2-6,other
30838,62,57,73,27,6.0,2-6,other
30839,74,68,548,355,10.0,2-1,other
30840,70,44,476,939,2.0,2-2,other
30841,70,52,539,852,2.0,2-2,other
30842,69,45,208,664,2.0,2-2,other
30843,67,30,410,376,2.0,2-2,other
30844,67,38,173,1450,2.0,2-2,other
30845,63,31,244,27,2.0,2-2,other
30846,60,24,189,71,2.0,2-2,other
30847,62,30,94,940,2.0,2-2,other
30848,60,24,125,42,2.0,2-2,other
30849,68,40,224,337,2.0,2-2,other
30850,67,43,335,289,2.0,2-2,other
30851,65,42,102,349,2.0,2-2,other
30852,70,58,428,766,2.0,2-2,other
30853,68,47,358,253,2.0,2-2,other
30854,62,24,171,356,2.0,2-2,other
30855,67,26,333,60,2.0,2-2,other
30856,74,70,347,785,2.0,2-2,other
30857,69,56,304,349,2.0,2-2,other
30858,62,30,205,273,2.0,2-2,other
30859,60,34,100,919,2.0,2-3,minor
30860,77,71,212,291,2.0,2-3,minor
30861,74,48,260,314,2.0,2-3,minor
30862,63,48,146,1198,0.0,2-2,other
30863,79,68,194,370,5.0,2-5,other
30864,75,59,255,319,5.0,2-5,other
30865,72,35,104,428,3.0,2-4,major
30866,82,73,460,680,3.0,2-4,major
30867,78,64,267,314,3.0,2-4,major
30868,56,36,439,429,2.0,2-4,major
30869,65,53,98,1464,2.0,2-4,major
30870,62,27,71,46,2.0,2-4,major
30871,78,60,293,1614,2.0,2-5,other
30872,62,25,118,227,2.0,2-5,other
30873,74,51,185,129,2.0,2-5,other
30874,67,28,228,412,2.0,2-5,other
30875,79,74,1241,343,2.0,2-5,other
30876,65,46,141,52,2.0,2-5,other
30877,60,24,132,1085,2.0,2-3,minor
30878,74,57,586,238,2.0,2-3,minor
30879,67,33,111,748,2.0,2-3,minor
30880,70,44,410,339,2.0,2-3,minor
30881,71,72,245,560,2.0,2-3,minor
30882,65,54,92,33,2.0,2-3,minor
30883,62,40,168,40,2.0,2-3,minor
30884,60,20,176,75,2.0,2-3,minor
30885,74,85,444,228,2.0,2-3,minor
30886,77,82,276,575,2.0,2-3,minor
30887,75,52,427,459,2.0,2-3,minor
30888,63,42,235,533,2.0,2-3,minor
30889,67,44,741,374,2.0,2-3,minor
30890,74,68,285,564,2.0,2-3,minor
30891,62,34,172,77,2.0,2-3,minor
30892,73,17,127,274,2.0,2-3,minor
30893,72,52,720,146,2.0,2-3,minor
30894,63,60,803,788,2.0,2-3,minor
30895,62,48,842,949,2.0,2-3,minor
30896,61,37,2581,957,2.0,2-3,minor
30897,57,36,98,1580,2.0,2-3,minor
30898,64,91,653,2236,2.0,2-3,minor
30899,62,66,505,1001,6.0,2-5,other
30900,57,52,235,630,6.0,2-5,other
30901,58,34,422,418,6.0,2-5,other
30902,60,58,351,510,6.0,2-5,other
30903,62,40,364,399,6.0,2-5,other
30904,63,63,133,424,6.0,2-5,other
30905,67,46,176,323,6.0,2-5,other
30906,72,43,310,368,6.0,2-5,other
30907,75,57,156,260,6.0,2-5,other
30908,76,32,96,102,6.0,2-5,other
30909,79,60,341,239,6.0,2-5,other
30910,84,58,254,349,6.0,2-5,other
30911,87,70,273,341,6.0,2-5,other
30912,89,74,385,315,6.0,2-5,other
30913,86,70,373,357,6.0,2-2,other
30914,58,33,414,662,2.0,2-5,other
30915,84,71,402,480,2.0,2-5,other
30916,82,63,651,618,2.0,2-5,other
30917,62,29,88,655,2.0,2-5,other
30918,82,56,323,175,0.0,2-2,other
30919,81,42,512,243,0.0,2-2,other
30920,82,74,270,471,0.0,2-2,other
30921,62,32,112,54,0.0,2-2,other
30922,84,65,353,368,0.0,2-2,other
30923,85,62,369,559,0.0,2-2,other
30924,62,33,104,54,0.0,2-2,other
30925,58,34,204,36,0.0,2-2,other
30926,85,30,281,428,0.0,2-2,other
30927,75,32,242,31,0.0,2-2,other
30928,86,17,362,154,0.0,2-2,other
30929,74,17,233,119,0.0,2-2,other
30930,86,49,406,472,0.0,2-2,other
30931,74,58,411,40,0.0,2-2,other
30932,86,44,281,1225,4.0,2-6,other
30933,74,35,339,35,4.0,2-6,other
30934,82,54,387,587,4.0,2-6,other
30935,58,60,489,3814,3.0,3-4A,major
30936,72,80,505,1906,10.0,4-16A,other
30937,55,31,285,3642,10.0,3-4A,major
30938,81,49,199,907,10.0,3-4A,major
30939,55,44,1212,397,10.0,4-11A,major
30940,84,58,271,532,10.0,4-11A,major
30941,72,45,578,32,10.0,4-11A,major
30942,62,44,452,253,10.0,4-11A,major
30943,55,20,179,4528,10.0,3-4A,major
30944,72,19,374,244,10.0,3-4A,major
30945,80,26,154,129,10.0,3-4A,major
30946,81,59,198,172,10.0,3-4A,major
30947,62,51,210,1321,0.0,1-1,other
30948,57,25,70,90,7.0,2-3,minor
30949,72,71,302,247,2.0,2-2,other
30950,58,37,477,701,7.0,2-5,other
30951,72,24,728,277,7.0,2-5,other
30952,81,40,217,35,7.0,2-5,other
30953,79,49,264,955,3.0,2-5,other
30954,56,68,459,876,3.0,3-11B,major
30955,60,53,520,29,3.0,3-11B,major
30956,62,47,510,2296,8.0,4-27A,diminished
30957,78,65,1365,709,8.0,4-27A,diminished
30958,60,42,1207,98,2.0,4-29B,major
30959,62,9,994,173,2.0,4-29B,major
30960,79,67,337,2494,9.0,3-7A,minor
30961,65,36,389,58,9.0,3-7A,minor
30962,62,25,308,29,9.0,3-7A,minor
30963,70,56,443,817,9.0,3-7A,minor
30964,70,52,194,616,9.0,3-7A,minor
30965,70,43,551,350,9.0,3-7A,minor
30966,70,42,508,1000,8.0,2-2,other
30967,62,24,69,2550,8.0,2-2,other
30968,57,24,179,62,8.0,2-2,other
30969,74,60,175,1804,2.0,2-4,major
30970,79,54,188,39,2.0,2-4,major
30971,78,59,322,1864,5.0,2-5,other
30972,67,47,229,445,6.0,2-6,other
30973,74,44,291,331,6.0,2-6,other
30974,79,49,229,31,6.0,2-6,other
30975,67,45,96,264,6.0,2-6,other
30976,61,37,198,967,7.0,2-2,other
30977,83,34,94,1028,9.0,1-1,other
30978,62,46,379,1412,3.0,3-11B,major
30979,86,54,339,88,3.0,3-11B,major
30980,74,70,237,62,3.0,3-11B,major
30981,62,44,350,549,3.0,3-11B,major
30982,86,17,304,1119,3.0,4-20,major
30983,74,57,235,61,3.0,4-20,major
30984,57,41,118,2504,3.0,2-4,major
30985,73,30,285,2762,9.0,3-8B,other
30986,82,25,170,824,4.0,1-1,other
30987,73,34,293,31,4.0,1-1,other
30988,68,49,208,1306,10.0,2-4,major
30989,63,79,1027,1708,6.0,2-6,other
30990,57,55,198,921,6.0,2-6,other
30991,62,49,362,373,10.0,2-4,other
30992,56,42,560,852,2.0,2-5,other
30993,54,42,222,635,2.0,2-5,other
30994,36,31,89,1032,9.0,3-7B,other
30995,74,95,266,975,9.0,3-7B,other
30996,70,46,298,422,10.0,2-4,major
30997,74,74,252,493,10.0,2-4,major
30998,58,46,114,61,10.0,2-4,major
30999,52,34,164,29,10.0,2-4,major
31000,70,40,376,54,10.0,2-4,major
31001,67,51,333,270,10.0,2-4,major
31002,64,60,349,381,10.0,2-4,major
31003,63,64,218,460,10.0,2-4,major
31004,62,63,276,416,10.0,2-4,major
31005,41,31,669,447,1.0,2-2,other
31006,59,27,314,428,1.0,2-2,other
31007,60,19,127,56,1.0,2-2,other
31008,58,65,196,341,1.0,2-2,other
31009,57,46,431,377,1.0,2-2,other
31010,58,62,233,578,1.0,2-2,other
31011,51,27,138,31,1.0,2-2,other
31012,60,69,564,314,1.0,2-2,other
31013,57,50,216,577,1.0,2-2,other
31014,53,31,256,79,1.0,2-2,other
31015,60,66,628,231,1.0,2-2,other
31016,57,38,262,630,1.0,2-2,other
31017,58,60,495,349,1.0,2-2,other
31018,60,58,308,599,1.0,2-2,other
31019,62,43,427,416,10.0,2-1,other
31020,63,63,211,524,10.0,2-1,other
31021,67,62,438,369,10.0,2-1,other
31022,57,36,253,653,0.0,3-11A,minor
31023,75,68,324,416,0.0,3-11A,minor
31024,79,71,303,489,0.0,3-11A,minor
31025,55,48,237,41,0.0,3-11A,minor
31026,60,19,92,133,0.0,3-11A,minor
31027,84,71,391,258,0.0,3-11A,minor
31028,89,85,358,1111,6.0,4-12B,other
31029,64,51,141,564,2.0,2-4,major
31030,60,31,104,45,2.0,2-4,major
31031,82,57,277,331,2.0,2-4,major
31032,81,64,189,281,2.0,2-4,major
31033,84,80,680,341,2.0,2-4,major
31034,55,38,1433,71,10.0,3-4A,major
31035,82,60,325,588,10.0,3-4A,major
31036,86,84,846,685,10.0,2-1,other
31037,84,51,258,707,10.0,2-4,major
31038,82,55,220,333,10.0,2-4,major
31039,84,52,291,1002,3.0,1-1,other
31040,82,52,262,296,3.0,1-1,other
31041,55,36,984,380,9.0,2-6,other
31042,60,26,930,48,9.0,2-6,other
31043,87,56,356,1248,5.0,1-1,other
31044,84,39,143,377,0.0,2-5,other
31045,64,53,85,682,5.0,4-6,other
31046,87,46,508,382,5.0,4-6,other
31047,84,43,246,260,5.0,4-6,other
31048,55,32,125,1371,10.0,3-4A,major
31049,89,56,343,1989,6.0,3-2A,minor
31050,86,58,377,162,6.0,3-2A,minor
31051,81,34,204,345,6.0,3-2A,minor
31052,94,69,859,514,6.0,3-2A,minor
31053,60,53,1292,54,3.0,4-14B,other
31054,91,38,346,655,3.0,4-14B,other
31055,87,59,350,160,3.0,4-14B,other
31056,82,35,86,258,3.0,4-14B,other
31057,90,48,538,970,8.0,2-3,minor
31058,87,27,428,156,8.0,2-3,minor
31059,83,53,256,226,8.0,2-3,minor
31060,93,36,539,1080,0.0,2-4,other
31061,95,12,245,56,0.0,2-4,other
31062,89,46,226,146,0.0,2-4,other
31063,84,50,524,195,2.0,2-4,major
31064,86,1,973,618,9.0,4-23,minor
31065,93,16,801,170,9.0,4-23,minor
31066,86,50,426,1278,2.0,5-32B,other
31067,61,46,167,1501,2.0,5-32B,other
31068,65,60,474,1307,0.0,2-4,other
31069,54,42,158,2573,7.0,2-5,other
31070,54,62,322,892,7.0,2-5,other
31071,66,36,938,39,7.0,2-5,other
31072,57,50,594,319,2.0,2-5,other
31073,54,35,298,644,2.0,2-2,other
31074,67,71,618,1317,7.0,3-11A,minor
31075,62,39,173,699,7.0,3-11A,minor
31076,63,64,644,279,7.0,3-11A,minor
31077,62,60,811,882,7.0,2-4,major
31078,55,28,178,649,7.0,2-4,major
31079,57,30,94,64,7.0,2-4,major
31080,60,62,606,216,7.0,2-4,major
31081,55,38,210,656,7.0,2-4,major
31082,58,35,576,322,7.0,2-4,major
31083,55,31,177,709,2.0,2-2,other
31084,59,40,414,456,2.0,2-2,other
31085,60,68,243,449,2.0,2-2,other
31086,60,69,403,387,2.0,2-2,other
31087,60,70,312,559,2.0,2-2,other
31088,55,24,135,144,2.0,2-2,other
31089,59,37,441,279,2.0,2-2,other
31090,60,67,242,507,2.0,2-2,other
31091,55,37,235,44,2.0,2-2,other
31092,60,73,464,335,2.0,2-2,other
31093,62,62,409,620,2.0,2-2,other
31094,63,74,697,584,2.0,2-2,other
31095,62,60,520,755,2.0,2-2,other
31096,60,62,2142,612,2.0,2-2,other
31097,53,37,110,2860,2.0,2-2,other
31098,57,47,165,428,2.0,2-2,other
31099,58,57,278,273,2.0,2-2,other
31100,63,37,253,757,0.0,2-2,other
31101,60,68,197,1504,0.0,2-2,other
31102,61,55,228,341,0.0,2-2,other
31103,63,53,150,353,0.0,2-2,other
31104,64,68,204,148,0.0,2-2,other
31105,60,34,95,200,0.0,2-2,other
31106,67,77,755,135,0.0,2-2,other
31107,55,25,250,711,0.0,2-2,other
31108,57,31,245,73,0.0,2-2,other
31109,63,31,93,256,0.0,2-2,other
31110,67,58,224,312,0.0,2-2,other
31111,72,62,447,291,0.0,2-2,other
31112,60,38,237,117,6.0,2-2,other
31113,75,83,312,228,6.0,2-2,other
31114,76,33,87,86,6.0,2-2,other
31115,77,78,406,272,6.0,2-2,other
31116,74,72,224,352,6.0,2-2,other
31117,58,43,210,114,6.0,2-2,other
31118,70,46,382,300,6.0,2-2,other
31119,69,29,114,428,6.0,2-2,other
31120,69,50,262,566,0.0,2-2,other
31121,70,68,254,353,0.0,2-2,other
31122,58,28,109,237,0.0,2-2,other
31123,66,34,206,119,0.0,2-2,other
31124,69,50,322,312,0.0,2-2,other
31125,66,39,181,349,0.0,2-2,other
31126,62,30,87,167,0.0,2-2,other
31127,67,60,202,102,0.0,2-2,other
31128,62,48,400,347,0.0,2-2,other
31129,65,78,366,568,0.0,2-2,other
31130,67,66,427,580,0.0,2-2,other
31131,58,38,198,235,0.0,2-2,other
31132,62,56,403,302,0.0,2-2,other
31133,63,71,385,553,0.0,2-2,other
31134,64,48,420,522,0.0,2-2,other
31135,60,48,553,828,7.0,3-11A,minor
31136,60,51,431,913,7.0,3-11A,minor
31137,65,78,635,959,7.0,3-11A,minor
31138,64,48,235,639,7.0,3-11A,minor
31139,65,55,474,314,7.0,3-11A,minor
31140,68,65,1517,1882,5.0,3-8B,other
31141,54,49,1171,88,0.0,2-4,major
31142,54,36,899,2491,9.0,3-10,diminished
31143,63,40,237,271,9.0,3-10,diminished
31144,70,52,724,66,9.0,3-10,diminished
31145,70,59,1207,2939,0.0,3-7B,other
31146,62,42,1077,32,0.0,3-7B,other
31147,55,32,996,79,10.0,2-1,other
31148,60,48,836,2417,3.0,4-16A,major
31149,96,32,85,1635,2.0,2-2,other
31150,60,55,359,7359,8.0,3-8B,other
31151,60,36,368,1048,2.0,2-4,major
31152,60,36,801,1002,8.0,3-5A,other
31153,62,38,550,1483,7.0,3-7B,other
31154,53,47,341,1999,0.0,3-11A,minor
31155,46,59,472,868,0.0,3-11A,minor
31156,46,49,921,1897,7.0,4-18A,major
31157,64,54,250,374,8.0,4-18A,diminished
31158,57,60,1023,963,2.0,2-4,major
31159,51,49,940,1860,7.0,2-5,other
31160,74,57,217,3581,3.0,4-16A,major
31161,62,45,71,483,2.0,2-5,other
31162,57,45,100,27,2.0,2-5,other
31163,51,23,79,37,2.0,2-5,other
31164,70,44,71,714,10.0,2-4,major
31165,62,43,347,992,3.0,2-4,major
31166,62,44,284,1051,7.0,3-11A,minor
31167,86,60,333,1000,7.0,3-11A,minor
31168,67,36,260,29,7.0,3-11A,minor
31169,62,37,231,75,3.0,4-20,major
31170,58,38,306,638,0.0,3-7B,other
31171,62,24,106,94,0.0,3-7B,other
31172,57,41,271,607,3.0,4-16A,major
31173,57,73,886,984,3.0,3-4A,major
31174,57,52,229,1265,3.0,4-16A,major
31175,64,63,283,2565,1.0,3-10,other
31176,61,45,951,384,1.0,3-10,other
31177,76,36,274,61,1.0,3-10,other
31178,70,18,283,977,7.0,3-7B,other
31179,54,42,545,2692,6.0,4-28,diminished
31180,69,33,162,108,6.0,4-28,diminished
31181,67,62,1042,2804,4.0,3-8B,other
31182,77,80,639,2891,4.0,3-8B,other
31183,77,58,303,928,4.0,3-8B,other
31184,89,66,332,986,7.0,2-2,other
31185,77,49,435,942,10.0,2-5,other
31186,53,39,1601,849,10.0,2-5,other
31187,86,74,474,60,10.0,2-5,other
31188,86,71,477,971,10.0,2-5,other
31189,62,32,1352,65,5.0,2-5,other
31190,53,34,1424,880,5.0,2-5,other
31191,81,60,361,27,5.0,2-5,other
31192,65,26,791,985,2.0,2-5,other
31193,60,27,769,32,2.0,2-5,other
31194,58,35,720,1865,5.0,2-2,other
31195,65,36,971,32,5.0,2-2,other
31196,70,49,378,859,5.0,2-2,other
31197,53,37,1618,56,5.0,2-2,other
31198,65,38,1758,994,3.0,2-5,other
31199,77,40,909,1906,5.0,1-1,other
31200,65,43,612,1834,5.0,1-1,other
31201,60,20,3063,149,2.0,1-1,other
31202,65,39,327,835,2.0,1-1,other
31203,53,28,9751,985,2.0,1-1,other
31204,65,34,750,44,2.0,1-1,other
31205,67,35,451,949,2.0,1-1,other
31206,67,24,935,952,2.0,1-1,other
31207,69,38,674,914,2.0,2-3,minor
31208,69,27,607,1014,2.0,2-3,minor
31209,70,28,427,982,2.0,2-3,minor
31210,70,28,778,960,2.0,2-3,minor
31211,72,1,794,1929,2.0,2-3,minor
31212,74,40,438,816,2.0,2-3,minor
31213,74,24,788,1080,2.0,2-3,minor
31214,60,69,291,0,,,
31215,64,44,1502,376,,,
31216,67,35,169,1564,,,
31217,72,32,315,1350,9.0,3-7B,other
31218,45,31,815,967,9.0,5-31B,major
31219,64,59,269,902,9.0,5-31B,major
31220,49,38,163,62,1.0,3-10,other
31221,57,57,1062,977,0.0,2-5,other
31222,53,42,122,331,0.0,2-5,other
31223,50,38,1327,323,0.0,2-5,other
31224,53,33,117,646,0.0,2-5,other
31225,57,52,184,281,0.0,2-5,other
31226,56,48,443,344,0.0,2-5,other
31227,53,24,156,987,7.0,3-8A,major
31228,64,47,105,262,7.0,3-8A,major
31229,67,40,137,193,7.0,3-8A,major
31230,71,57,162,209,7.0,3-8A,major
31231,71,38,125,2864,0.0,2-4,other
31232,70,37,96,97,0.0,2-4,other
31233,69,29,1055,110,0.0,2-4,other
31234,57,62,318,1499,0.0,3-4A,major
31235,54,62,794,450,0.0,3-4A,major
31236,59,47,588,955,3.0,2-5,other
31237,53,52,144,482,3.0,2-5,other
31238,76,68,184,816,0.0,2-5,other
31239,79,68,102,328,0.0,2-5,other
31240,69,29,197,1308,0.0,3-11B,major
31241,52,28,192,919,9.0,3-7B,other
31242,70,67,447,3181,5.0,3-11B,other
31243,44,30,1353,662,6.0,4-29A,other
31244,61,64,293,562,6.0,4-29A,other
31245,61,55,202,688,6.0,2-5,other
31246,63,64,296,301,6.0,2-5,other
31247,65,51,1274,348,6.0,2-5,other
31248,37,37,237,37,6.0,2-5,other
31249,44,39,117,249,6.0,2-5,other
31250,44,18,1887,272,6.0,2-5,other
31251,53,34,1903,36,6.0,2-5,other
31252,56,42,266,350,6.0,2-5,other
31253,60,42,616,289,6.0,2-5,other
31254,63,54,494,260,6.0,2-5,other
31255,65,61,187,272,6.0,2-5,other
31256,65,55,604,287,6.0,2-5,other
31257,56,39,148,455,6.0,2-5,other
31258,45,39,527,408,1.0,3-8A,other
31259,64,63,900,446,1.0,3-8A,other
31260,54,25,213,528,5.0,3-11A,other
31261,55,46,674,4196,4.0,4-26,minor
31262,84,90,562,534,4.0,4-26,minor
31263,55,46,836,472,4.0,4-26,minor
31264,72,32,1754,568,5.0,1-1,other
31265,55,45,337,429,5.0,1-1,other
31266,55,51,325,498,5.0,1-1,other
31267,55,57,813,497,5.0,1-1,other
31268,79,62,852,477,5.0,1-1,other
31269,64,54,920,67,9.0,3-11A,minor
31270,55,56,305,462,9.0,3-11A,minor
31271,55,42,150,468,9.0,3-11A,minor
31272,31,42,115,1862,8.0,4-12A,minor
31273,64,38,72,106,8.0,4-12A,minor
31274,64,59,118,232,8.0,4-12A,minor
31275,67,57,149,200,8.0,4-12A,minor
31276,72,55,249,224,8.0,4-12A,minor
31277,60,47,412,284,8.0,4-24,other
31278,75,50,329,937,4.0,3-11A,minor
31279,73,18,438,352,4.0,3-11A,minor
31280,58,57,772,605,6.0,3-8B,other
31281,67,6,369,105,6.0,3-8B,other
31282,53,30,622,879,9.0,2-6,other
31283,65,29,310,39,9.0,2-6,other
31284,49,25,162,3757,3.0,5-30B,other
31285,43,32,631,620,3.0,5-30B,other
31286,72,44,740,978,2.0,3-9,other
31287,59,27,97,374,0.0,2-4,major
31288,76,53,107,253,0.0,2-4,major
31289,79,44,111,271,0.0,2-4,major
31290,84,66,127,639,11.0,2-2,other
31291,81,64,133,319,11.0,2-2,other
31292,77,47,135,596,0.0,2-1,other
31293,78,62,229,339,0.0,2-1,other
31294,79,30,105,74,0.0,2-1,other
31295,79,41,209,1692,5.0,3-5B,other
31296,82,64,466,235,5.0,3-5B,other
31297,75,59,134,432,11.0,2-6,other
31298,71,53,124,173,11.0,2-6,other
31299,70,37,188,183,11.0,2-6,other
31300,68,38,132,128,11.0,2-6,other
31301,67,36,115,174,11.0,2-6,other
31302,66,33,177,179,7.0,2-2,other
31303,65,47,116,531,7.0,2-2,other
31304,67,29,89,138,7.0,2-2,other
31305,65,30,125,60,7.0,2-2,other
31306,62,30,100,124,7.0,2-2,other
31307,52,25,514,114,0.0,2-5,other
31308,63,46,114,31,0.0,2-5,other
31309,64,46,198,147,0.0,2-5,other
31310,67,35,140,254,0.0,2-5,other
31311,71,54,180,193,0.0,2-5,other
31312,74,68,353,211,0.0,2-5,other
31313,60,32,105,234,4.0,2-5,other
31314,46,38,941,930,5.0,3-9,other
31315,48,30,221,1851,7.0,3-9,other
31316,45,46,558,905,0.0,3-11B,major
31317,47,58,457,476,8.0,3-10,other
31318,48,55,484,446,9.0,3-7B,other
31319,52,47,371,935,9.0,3-7A,minor
31320,47,19,155,1048,2.0,2-4,major
31321,55,1,143,126,2.0,2-4,major
31322,69,30,140,568,2.0,2-5,other
31323,69,43,154,499,4.0,4-23,minor
31324,78,38,153,32,4.0,4-23,minor
31325,78,21,270,237,2.0,2-5,other
31326,69,32,109,215,2.0,2-5,other
31327,77,41,290,662,5.0,2-4,other
31328,67,20,257,37,5.0,2-4,other
31329,81,48,117,2664,11.0,3-11A,minor
31330,86,65,148,186,11.0,3-11A,minor
31331,90,79,197,220,11.0,3-11A,minor
31332,90,74,191,317,6.0,3-5B,other
31333,90,67,171,295,6.0,3-5B,other
31334,90,74,196,288,6.0,3-5B,other
31335,90,64,193,272,6.0,3-5B,other
31336,90,71,194,310,5.0,3-8B,other
31337,89,60,182,217,5.0,3-8B,other
31338,88,67,136,240,5.0,3-8B,other
31339,59,38,247,262,6.0,2-2,other
31340,88,65,149,237,6.0,2-2,other
31341,85,44,146,221,6.0,2-2,other
31342,85,44,148,208,6.0,2-2,other
31343,85,44,173,207,6.0,2-2,other
31344,85,43,571,245,2.0,3-11B,major
31345,81,58,113,199,2.0,3-11B,major
31346,81,47,104,214,2.0,3-11B,major
31347,81,44,134,203,2.0,3-11B,major
31348,43,33,184,148,2.0,3-11B,major
31349,83,55,612,28,2.0,3-11B,major
31350,59,29,79,977,7.0,3-9,other
31351,59,24,161,3874,10.0,2-4,other
31352,65,32,532,977,2.0,3-7B,other
31353,57,37,361,572,2.0,3-7B,other
31354,57,27,72,467,5.0,3-11B,major
31355,50,26,361,531,5.0,3-11B,major
31356,67,27,468,426,4.0,5-5A,minor
31357,64,29,341,908,6.0,3-5B,other
31358,60,61,122,561,6.0,3-5B,other
31359,76,63,235,682,5.0,4-20,major
31360,74,49,233,255,5.0,4-20,major
31361,76,48,206,629,2.0,5-27B,minor
31362,72,17,316,28,2.0,5-27B,minor
31363,74,53,230,270,2.0,5-27B,minor
31364,75,55,292,977,11.0,2-6,other
31365,52,36,1474,1319,7.0,2-5,other
31366,62,33,1104,469,7.0,2-5,other
31367,59,26,971,32,7.0,2-5,other
31368,69,33,76,447,7.0,2-5,other
31369,83,70,124,327,7.0,2-5,other
31370,82,71,219,340,7.0,2-5,other
31371,55,18,1398,329,9.0,3-11B,major
31372,75,59,103,287,9.0,3-11B,major
31373,64,33,345,682,1.0,2-2,other
31374,76,68,594,583,1.0,2-2,other
31375,86,90,624,1044,2.0,3-7B,other
31376,84,70,177,989,2.0,2-1,other
31377,59,29,207,341,4.0,3-5B,other
31378,82,71,238,247,4.0,3-5B,other
31379,80,48,184,196,4.0,3-5B,other
31380,75,56,197,139,4.0,3-5B,other
31381,71,50,190,187,4.0,3-5B,other
31382,43,27,211,39,4.0,3-5B,other
31383,53,17,315,30,4.0,3-5B,other
31384,70,56,136,127,4.0,3-5B,other
31385,69,33,139,187,4.0,3-5B,other
31386,68,32,75,165,4.0,3-5B,other
31387,67,28,116,128,4.0,3-5B,other
31388,65,45,169,156,4.0,3-5B,other
31389,52,34,298,254,7.0,4-22A,major
31390,41,30,255,865,4.0,2-5,other
31391,55,17,80,132,0.0,3-11A,minor
31392,47,30,192,468,4.0,3-7A,minor
31393,38,28,297,2253,6.0,2-1,other
31394,62,39,170,1232,5.0,3-4A,major
31395,60,48,157,271,5.0,3-4A,major
31396,57,43,192,271,5.0,3-4A,major
31397,59,25,96,542,5.0,2-5,other
31398,50,45,282,314,5.0,2-5,other
31399,43,31,569,649,3.0,3-8B,other
31400,52,50,294,602,3.0,3-8B,other
31401,62,35,423,943,7.0,2-1,other
31402,74,72,146,579,7.0,2-1,other
31403,69,58,331,1884,1.0,3-10,diminished
31404,55,24,166,471,9.0,5-27B,minor
31405,57,67,206,333,9.0,5-27B,minor
31406,55,44,159,330,9.0,5-27B,minor
31407,67,32,295,793,0.0,3-11B,major
31408,49,33,498,1405,3.0,3-11A,other
31409,52,32,316,1003,4.0,4-27B,major
31410,52,43,633,504,9.0,4-23,minor
31411,45,61,82,878,9.0,4-23,minor
31412,72,30,740,2444,2.0,5-27B,minor
31413,48,74,1009,485,2.0,5-27B,minor
31414,53,44,175,283,2.0,5-27B,minor
31415,56,65,162,197,2.0,5-27B,minor
31416,58,51,87,171,2.0,5-27B,minor
31417,60,58,95,123,2.0,5-27B,minor
31418,63,59,79,131,2.0,5-27B,minor
31419,65,68,93,139,2.0,5-27B,minor
31420,68,52,136,123,2.0,5-27B,minor
31421,70,51,37,140,2.0,5-27B,minor
31422,72,36,692,114,2.0,5-27B,minor
31423,75,52,86,138,2.0,5-27B,minor
31424,77,48,101,164,2.0,5-27B,minor
31425,80,53,128,128,2.0,5-27B,minor
31426,84,60,163,294,2.0,5-27B,minor
31427,53,30,304,573,7.0,2-4,major
31428,59,22,268,39,7.0,2-4,major
31429,64,1,132,83,7.0,2-4,major
31430,52,17,845,1043,7.0,3-11B,major
31431,67,36,95,477,7.0,3-11B,major
31432,74,45,201,236,7.0,3-11B,major
31433,79,50,94,228,7.0,3-11B,major
31434,84,72,126,238,7.0,3-11B,major
31435,85,29,200,291,5.0,3-8B,other
31436,86,40,56,30,5.0,3-8B,other
31437,77,39,227,2856,9.0,3-11A,minor
31438,53,31,129,460,9.0,3-11A,minor
31439,53,33,1016,505,3.0,3-4A,other
31440,43,46,461,452,3.0,3-4A,other
31441,63,64,619,482,3.0,3-4A,other
31442,60,69,595,974,0.0,5-18A,other
31443,77,57,145,4671,1.0,3-10,other
31444,65,26,90,494,9.0,3-11A,minor
31445,50,32,477,971,5.0,2-4,major
31446,59,24,338,502,3.0,3-8B,other
31447,43,29,75,442,3.0,3-8B,other
31448,84,49,134,1944,8.0,2-6,other
31449,73,50,138,304,8.0,2-6,other
31450,77,55,121,234,8.0,2-3,other
31451,79,44,127,135,8.0,2-3,other
31452,80,37,112,94,8.0,2-3,other
31453,82,51,44,96,8.0,2-3,other
31454,84,58,101,116,8.0,2-3,other
31455,85,46,132,129,8.0,2-3,other
31456,87,48,51,125,8.0,2-3,other
31457,89,47,118,131,8.0,2-3,other
31458,91,44,125,125,7.0,2-2,other
31459,92,50,199,129,7.0,2-2,other
31460,94,45,129,154,7.0,2-2,other
31461,95,61,168,140,7.0,2-2,other
31462,96,57,123,183,7.0,2-2,other
31463,98,68,195,210,7.0,2-2,other
31464,54,43,719,1059,0.0,2-4,major
31465,63,36,491,927,0.0,2-4,major
31466,59,33,751,53,10.0,2-4,other
31467,65,50,61,193,10.0,2-4,other
31468,66,29,140,78,10.0,2-4,other
31469,68,49,108,90,10.0,2-4,other
31470,70,45,73,86,10.0,2-4,other
31471,71,52,47,103,10.0,2-4,other
31472,73,36,87,107,10.0,2-4,other
31473,75,44,95,72,10.0,2-4,other
31474,78,52,133,243,11.0,2-6,other
31475,80,57,113,110,11.0,2-6,other
31476,81,26,69,172,11.0,2-6,other
31477,84,39,57,127,11.0,2-6,other
31478,85,37,80,69,11.0,2-6,other
31479,86,44,140,75,11.0,2-6,other
31480,87,51,104,126,11.0,2-6,other
31481,88,53,169,106,11.0,2-6,other
31482,89,68,164,124,11.0,2-6,other
31483,83,68,138,394,4.0,1-1,other
31484,79,46,99,236,4.0,1-1,other
31485,86,68,166,173,4.0,1-1,other
31486,84,68,170,397,7.0,2-4,major
31487,79,56,182,199,7.0,2-4,major
31488,76,45,153,229,7.0,2-4,major
31489,55,36,377,1783,9.0,3-11B,major
31490,53,24,239,2833,10.0,2-1,other
31491,70,55,147,904,3.0,4-27A,other
31492,43,29,122,27,3.0,4-27A,other
31493,40,50,115,438,3.0,4-27A,other
31494,62,30,45,430,4.0,2-4,major
31495,46,60,878,587,4.0,3-8A,major
31496,51,71,485,1908,1.0,3-8A,other
31497,44,74,392,507,1.0,3-8A,other
31498,46,31,217,1093,8.0,1-1,other
31499,79,76,81,2981,7.0,1-1,other
31500,45,22,324,2291,5.0,3-12,augmented
31501,67,68,140,5004,5.0,2-1,other
31502,71,74,161,221,5.0,2-1,other
31503,72,53,452,217,5.0,2-1,other
31504,69,40,75,2221,0.0,2-1,other
31505,70,46,42,117,0.0,2-1,other
31506,73,43,84,219,0.0,2-1,other
31507,75,25,40,125,0.0,2-1,other
31508,76,34,112,71,0.0,2-1,other
31509,77,50,109,118,0.0,2-1,other
31510,79,41,61,262,7.0,2-2,other
31511,80,45,50,169,7.0,2-2,other
31512,81,51,80,128,7.0,2-2,other
31513,82,44,132,139,7.0,2-2,other
31514,86,66,135,334,0.0,2-1,other
31515,80,36,81,334,0.0,1-1,other
31516,83,66,148,143,0.0,1-1,other
31517,80,35,86,170,0.0,1-1,other
31518,81,57,112,135,0.0,1-1,other
31519,76,55,107,178,0.0,1-1,other
31520,53,36,489,1073,3.0,3-4A,other
31521,78,69,286,343,3.0,3-4A,other
31522,76,64,171,271,3.0,3-4A,other
31523,56,34,49,342,1.0,3-6,other
31524,80,53,218,302,1.0,3-6,other
31525,82,67,204,308,1.0,3-6,other
31526,75,47,140,28,1.0,3-6,other
31527,76,50,547,364,0.0,4-20,major
31528,52,68,1275,2433,9.0,4-26,minor
31529,55,53,572,484,0.0,2-4,major
31530,65,68,256,635,0.0,2-4,major
31531,50,60,452,820,9.0,4-26,minor
31532,57,34,72,572,0.0,3-11A,minor
31533,44,46,299,427,0.0,3-11A,minor
31534,43,19,1329,1997,3.0,4-24,augmented
31535,52,36,718,392,9.0,4-23,minor
31536,52,53,325,4755,9.0,3-7A,minor
31537,48,70,495,956,9.0,4-26,minor
31538,62,48,163,454,8.0,4-28,diminished
31539,59,33,821,1904,2.0,2-5,other
31540,77,36,175,1950,9.0,2-4,major
31541,77,35,477,485,9.0,2-4,major
31542,65,18,77,35,9.0,2-4,major
31543,62,34,607,915,9.0,2-4,major
31544,69,28,102,307,4.0,3-11A,minor
31545,74,43,113,103,4.0,3-11A,minor
31546,78,47,75,110,4.0,3-11A,minor
31547,81,59,85,158,4.0,3-11A,minor
31548,86,54,82,98,4.0,3-11A,minor
31549,90,47,37,91,4.0,3-11A,minor
31550,93,60,71,141,4.0,3-11A,minor
31551,55,15,500,74,11.0,2-3,minor
31552,98,36,108,39,11.0,2-3,minor
31553,102,47,141,92,11.0,2-3,minor
31554,103,67,134,161,11.0,2-3,minor
31555,102,44,133,85,11.0,2-3,minor
31556,98,55,91,312,11.0,2-3,minor
31557,55,17,681,297,6.0,2-5,other
31558,100,64,137,177,6.0,2-5,other
31559,97,59,166,237,6.0,2-5,other
31560,97,56,194,615,1.0,4-28,diminished
31561,94,59,272,212,1.0,4-28,diminished
31562,89,39,98,254,1.0,4-28,diminished
31563,86,50,131,550,11.0,2-2,other
31564,86,57,108,279,11.0,2-2,other
31565,86,70,148,257,11.0,2-2,other
31566,86,73,123,273,2.0,3-11B,major
31567,86,61,128,238,2.0,3-11B,major
31568,88,59,135,118,2.0,3-11B,major
31569,86,45,121,97,2.0,3-11B,major
31570,85,53,126,118,2.0,3-11B,major
31571,86,59,100,156,2.0,3-11B,major
31572,91,70,217,147,7.0,2-5,other
31573,79,52,67,272,7.0,2-5,other
31574,59,51,507,680,7.0,2-5,other
31575,43,37,155,478,7.0,2-5,other
31576,61,33,227,440,7.0,2-5,other
31577,52,28,202,55,6.0,2-3,minor
31578,64,68,307,1947,6.0,3-7A,minor
31579,58,38,224,1296,1.0,4-26,other
31580,60,37,200,1819,9.0,2-5,other
31581,57,59,83,292,9.0,2-5,other
31582,43,30,1046,377,5.0,4-16A,major
31583,53,32,834,607,11.0,2-3,minor
31584,43,47,168,653,11.0,2-3,minor
31585,49,56,305,286,11.0,2-3,minor
31586,50,40,553,353,5.0,3-11B,major
31587,38,63,1267,602,5.0,3-11B,major
31588,50,31,255,704,5.0,2-1,other
31589,60,18,184,29,5.0,2-1,other
31590,53,20,112,298,2.0,2-5,other
31591,59,31,79,3197,4.0,4-26,minor
31592,60,38,196,1967,6.0,2-3,other
31593,81,34,59,1402,2.0,4-26,minor
31594,43,30,613,2819,4.0,4-3,other
31595,43,36,623,966,0.0,5-22,minor
31596,43,48,834,972,0.0,3-11B,major
31597,43,27,641,947,7.0,4-18A,minor
31598,43,32,636,996,6.0,3-5B,other
31599,43,33,618,958,5.0,3-9,other
31600,43,41,741,930,5.0,3-9,other
31601,43,39,582,942,3.0,3-8B,other
31602,53,28,349,503,3.0,2-4,other
31603,43,33,125,430,3.0,2-4,other
31604,40,18,897,536,7.0,3-5B,other
31605,26,17,1221,1964,2.0,4-15B,other
31606,26,59,425,1453,2.0,3-8A,major
31607,59,59,183,4591,0.0,4-20,major
31608,60,71,566,307,0.0,4-20,major
31609,57,56,54,603,0.0,2-4,major
31610,46,53,262,322,0.0,2-4,major
31611,55,32,426,1375,5.0,2-4,other
31612,76,78,3585,642,5.0,2-4,other
31613,64,55,780,297,5.0,2-4,major
31614,69,37,95,1158,5.0,3-4A,major
31615,69,49,124,582,5.0,2-4,major
31616,65,30,119,26,5.0,2-4,major
31617,43,35,160,941,8.0,2-3,other
31618,76,61,291,776,8.0,2-3,other
31619,52,38,1078,639,7.0,2-4,major
31620,59,44,502,668,7.0,2-4,major
31621,69,52,155,508,7.0,2-4,major
31622,70,67,189,197,7.0,2-4,major
31623,65,35,209,727,5.0,4-16A,other
31624,60,31,89,1002,5.0,2-4,other
31625,41,49,160,994,2.0,3-7B,other
31626,44,54,173,178,2.0,3-7B,other
31627,46,52,84,163,2.0,3-7B,other
31628,48,67,90,105,2.0,3-7B,other
31629,51,59,136,150,2.0,3-7B,other
31630,53,48,93,170,2.0,3-7B,other
31631,56,67,120,128,2.0,3-7B,other
31632,58,46,54,143,2.0,3-7B,other
31633,60,49,102,93,2.0,3-7B,other
31634,43,28,421,303,2.0,3-7B,other
31635,53,18,486,28,2.0,3-7B,other
31636,65,60,106,416,2.0,3-7B,other
31637,66,64,97,171,2.0,3-7B,other
31638,67,59,98,140,2.0,3-7B,other
31639,68,55,72,129,2.0,3-7B,other
31640,70,45,51,256,4.0,3-5B,other
31641,71,37,65,123,4.0,3-5B,other
31642,72,36,210,115,4.0,3-5B,other
31643,73,36,46,94,4.0,3-5B,other
31644,74,56,80,106,4.0,3-5B,other
31645,75,40,83,85,4.0,3-5B,other
31646,76,19,66,133,4.0,3-5B,other
31647,77,47,175,68,4.0,3-5B,other
31648,76,60,212,129,4.0,3-7A,minor
31649,71,47,209,280,4.0,3-7A,minor
31650,67,45,89,254,4.0,3-7A,minor
31651,83,68,193,245,4.0,3-7A,minor
31652,55,28,395,143,4.0,3-7A,minor
31653,83,43,181,111,4.0,3-7A,minor
31654,79,58,126,246,4.0,3-7A,minor
31655,79,40,122,229,4.0,3-7A,minor
31656,84,69,132,194,4.0,3-7A,minor
31657,81,54,104,435,9.0,2-3,minor
31658,81,52,101,204,9.0,2-3,minor
31659,88,69,136,193,9.0,2-3,minor
31660,55,17,122,270,4.0,2-6,other
31661,84,55,120,170,4.0,2-6,other
31662,84,46,84,242,4.0,2-6,other
31663,91,64,136,190,4.0,2-6,other
31664,50,24,248,282,5.0,4-22A,major
31665,88,55,119,182,5.0,4-22A,major
31666,88,51,109,234,5.0,4-22A,major
31667,96,54,106,236,5.0,4-22A,major
31668,64,48,121,210,5.0,4-22A,major
31669,53,17,129,70,9.0,2-3,minor
31670,93,46,98,207,9.0,2-3,minor
31671,93,53,110,237,9.0,2-3,minor
31672,43,29,204,476,9.0,2-3,minor
31673,53,22,250,1010,4.0,2-5,other
31674,83,53,161,1446,7.0,3-5B,other
31675,87,44,149,1921,4.0,2-3,minor
31676,78,53,382,1439,6.0,5-25A,diminished
31677,87,29,161,475,6.0,5-25A,diminished
31678,90,48,185,220,6.0,5-25A,diminished
31679,78,34,170,26,6.0,5-25A,diminished
31680,79,44,560,237,4.0,3-2B,minor
31681,82,33,148,2492,3.0,2-5,other
31682,91,36,235,471,4.0,2-5,other
31683,60,40,118,1963,9.0,3-7B,other
31684,57,54,73,650,9.0,2-5,other
31685,52,50,275,651,7.0,4-18A,minor
31686,49,52,217,323,7.0,4-18A,minor
31687,38,50,721,560,2.0,4-26,minor
31688,45,62,204,661,2.0,3-7B,other
31689,41,35,214,298,2.0,3-7B,other
31690,42,53,316,303,2.0,3-7B,other
31691,55,34,97,609,7.0,2-4,major
31692,59,31,113,104,7.0,2-4,major
31693,63,53,50,131,7.0,2-4,major
31694,67,59,71,156,7.0,2-4,major
31695,71,55,133,105,7.0,2-4,major
31696,75,59,286,138,7.0,2-4,major
31697,71,68,184,440,7.0,2-4,major
31698,73,44,150,224,7.0,2-4,major
31699,75,64,227,219,7.0,2-4,major
31700,62,38,653,33,7.0,2-4,major
31701,76,62,284,200,4.0,2-4,major
31702,72,40,978,273,4.0,2-4,major
31703,79,36,74,2530,1.0,2-2,other
31704,79,30,58,272,1.0,2-2,other
31705,79,47,56,460,1.0,2-2,other
31706,54,56,1303,217,1.0,2-2,other
31707,60,32,760,49,1.0,2-2,other
31708,60,27,396,980,4.0,2-2,other
31709,53,22,172,909,4.0,2-5,other
31710,76,27,83,494,1.0,2-2,other
31711,77,53,111,214,1.0,2-2,other
31712,43,35,121,199,1.0,2-2,other
31713,77,54,118,256,1.0,2-2,other
31714,77,51,103,230,1.0,2-2,other
31715,77,38,56,218,1.0,2-2,other
31716,71,58,394,260,0.0,5-21A,other
31717,86,34,168,2908,5.0,6-31A,other
31718,83,36,96,457,5.0,5-30B,other
31719,73,12,215,928,1.0,3-10,minor
31720,77,61,172,407,1.0,3-10,minor
31721,65,38,144,983,9.0,3-11A,minor
31722,65,36,54,479,7.0,3-5B,other
31723,62,47,79,891,5.0,3-11A,other
31724,43,28,228,36,5.0,3-11A,other
31725,50,51,468,1412,4.0,2-2,other
31726,44,40,453,519,4.0,2-2,other
31727,50,24,1632,2448,6.0,2-6,other
31728,64,57,120,147,6.0,2-6,other
31729,66,34,117,130,6.0,2-6,other
31730,68,50,78,110,6.0,2-6,other
31731,71,41,139,154,6.0,2-6,other
31732,73,51,98,398,6.0,2-6,other
31733,60,28,634,153,6.0,2-6,other
31734,75,57,87,44,6.0,2-6,other
31735,76,46,121,143,6.0,2-6,other
31736,77,50,93,175,6.0,2-6,other
31737,78,47,45,122,6.0,2-6,other
31738,79,35,80,114,6.0,2-6,other
31739,80,44,128,100,6.0,2-6,other
31740,81,48,112,148,6.0,2-6,other
31741,84,65,129,121,6.0,2-6,other
31742,81,39,198,152,9.0,2-3,minor
31743,77,50,365,241,9.0,2-3,minor
31744,53,28,526,554,4.0,2-5,other
31745,71,41,186,334,4.0,2-5,other
31746,80,69,136,161,4.0,2-5,other
31747,83,67,158,167,4.0,2-5,other
31748,80,23,87,288,4.0,4-26,minor
31749,84,65,147,475,0.0,1-1,other
31750,84,55,135,228,0.0,1-1,other
31751,81,57,143,647,7.0,4-14B,major
31752,69,50,101,26,7.0,4-14B,major
31753,45,60,745,916,5.0,4-24,augmented
31754,54,75,290,1154,7.0,4-18A,minor
31755,43,54,143,2197,2.0,4-27A,minor
31756,89,45,84,272,2.0,4-27A,minor
31757,92,64,144,89,2.0,4-27A,minor
31758,89,42,80,103,2.0,4-27A,minor
31759,86,50,94,107,2.0,4-27A,minor
31760,85,49,177,140,2.0,4-27A,minor
31761,84,49,106,101,2.0,4-27A,minor
31762,83,47,54,131,2.0,4-27A,minor
31763,81,22,106,274,8.0,5-31B,other
31764,80,52,207,75,8.0,5-31B,other
31765,62,24,589,712,4.0,3-11A,minor
31766,83,65,121,303,4.0,3-11A,minor
31767,84,68,328,142,4.0,3-11A,minor
31768,86,70,136,159,4.0,3-11A,minor
31769,83,54,116,145,4.0,3-11A,minor
31770,79,37,102,157,4.0,3-11A,minor
31771,76,47,130,136,11.0,2-3,minor
31772,72,17,223,234,11.0,2-3,minor
31773,71,36,156,150,11.0,2-3,minor
31774,62,47,403,957,0.0,4-19A,augmented
31775,74,67,183,894,4.0,3-11A,minor
31776,55,32,102,28,4.0,3-11A,minor
31777,48,31,163,507,0.0,3-11B,major
31778,47,68,317,1003,8.0,3-10,other
31779,52,62,387,1442,9.0,4-26,minor
31780,43,43,902,881,0.0,4-20,major
31781,55,29,79,2182,11.0,4-26,minor
31782,45,49,1066,292,6.0,4-29A,minor
31783,65,33,471,150,6.0,4-29A,minor
31784,55,33,325,697,5.0,2-4,other
31785,78,69,1164,720,5.0,2-4,other
31786,69,51,114,233,5.0,2-4,other
31787,66,55,181,267,5.0,2-4,other
31788,62,47,188,345,5.0,2-4,other
31789,52,51,1030,361,5.0,2-4,other
31790,62,49,664,332,5.0,2-4,other
31791,66,52,355,301,5.0,2-4,other
31792,69,37,109,325,5.0,2-4,other
31793,63,52,294,698,9.0,2-3,minor
31794,63,64,108,603,9.0,2-5,other
31795,51,50,87,306,9.0,2-5,other
31796,57,53,905,651,2.0,1-1,other
31797,64,47,210,1134,6.0,4-26,minor
31798,61,46,86,219,6.0,4-26,minor
31799,53,29,372,1279,11.0,2-3,minor
31800,64,53,541,2808,6.0,4-27A,diminished
31801,57,57,188,2323,5.0,3-11B,major
31802,64,61,814,309,5.0,3-11B,major
31803,81,58,412,339,5.0,3-11B,major
31804,72,34,484,296,5.0,3-11B,major
31805,76,49,162,310,5.0,3-11B,major
31806,76,43,160,474,4.0,5-13A,minor
31807,53,29,239,368,3.0,4-19A,augmented
31808,76,26,72,205,3.0,4-19A,augmented
31809,59,35,245,693,3.0,4-2A,major
31810,76,47,54,91,3.0,4-2A,major
31811,69,28,267,839,5.0,2-1,other
31812,50,43,123,933,5.0,3-4A,major
31813,64,58,322,493,4.0,4-18A,major
31814,63,70,361,455,4.0,4-18A,major
31815,53,38,181,954,8.0,4-28,diminished
31816,79,33,49,1013,2.0,5-23B,major
31817,67,64,39,934,2.0,4-22A,major
31818,81,35,39,498,6.0,5-31B,diminished
31819,85,45,38,1907,2.0,3-11A,minor
31820,44,72,289,313,2.0,3-11A,minor
31821,46,71,303,246,2.0,3-11A,minor
31822,48,73,434,219,2.0,3-11A,minor
31823,51,55,121,140,2.0,3-11A,minor
31824,53,34,85,173,2.0,3-11A,minor
31825,56,56,144,128,2.0,3-11A,minor
31826,58,51,46,146,2.0,3-11A,minor
31827,60,58,84,107,2.0,3-11A,minor
31828,63,40,81,141,2.0,3-11A,minor
31829,67,64,107,128,2.0,3-11A,minor
31830,43,26,67,112,2.0,3-11A,minor
31831,68,54,102,72,2.0,3-11A,minor
31832,70,57,86,215,2.0,3-11A,minor
31833,71,66,104,120,2.0,3-11A,minor
31834,73,26,83,269,2.0,3-11A,minor
31835,74,66,104,111,2.0,3-11A,minor
31836,75,53,143,115,2.0,3-11A,minor
31837,53,30,617,121,4.0,2-5,other
31838,76,41,139,43,4.0,2-5,other
31839,77,48,101,198,4.0,2-5,other
31840,78,51,91,157,4.0,2-5,other
31841,79,43,122,154,4.0,2-5,other
31842,80,46,110,131,4.0,2-5,other
31843,81,50,150,126,4.0,2-5,other
31844,82,65,107,135,4.0,2-5,other
31845,67,35,185,79,4.0,2-5,other
31846,55,34,1310,873,4.0,3-7B,other
31847,84,53,159,536,4.0,3-7B,other
31848,55,40,198,942,1.0,2-3,other
31849,55,54,667,447,1.0,2-3,other
31850,76,34,693,421,1.0,2-3,other
31851,77,54,145,285,1.0,2-3,other
31852,79,51,792,290,1.0,2-3,other
31853,50,34,112,33,1.0,2-3,other
31854,64,45,258,278,1.0,2-3,other
31855,62,47,281,308,1.0,2-3,other
31856,65,57,175,324,1.0,2-3,other
31857,50,37,584,307,1.0,2-3,other
31858,72,30,541,2113,7.0,2-2,other
31859,59,49,138,1888,5.0,2-1,other
31860,51,55,244,894,4.0,2-6,other
31861,53,34,207,1453,5.0,4-22A,major
31862,71,50,480,33,5.0,4-22A,major
31863,44,55,498,438,5.0,4-22A,major
31864,42,25,50,427,5.0,4-22A,major
31865,31,53,102,563,5.0,4-22A,major
31866,68,56,320,982,3.0,3-8B,other
31867,37,27,45,39,3.0,3-8B,other
31868,55,22,90,488,3.0,4-16A,other
31869,72,44,291,2561,0.0,1-1,other
31870,77,76,202,3373,5.0,4-20,major
31871,53,33,198,1542,4.0,5-31B,major
31872,69,42,202,324,4.0,5-31B,major
31873,71,53,254,316,4.0,5-31B,major
31874,64,50,49,347,4.0,5-31B,major
31875,72,24,271,29,4.0,5-31B,major
31876,42,25,872,280,4.0,5-31B,major
31877,57,56,911,344,0.0,2-4,major
31878,42,44,143,726,0.0,2-4,major
31879,30,39,229,313,0.0,2-4,major
31880,40,34,150,2263,0.0,3-11B,major
31881,40,27,105,998,0.0,3-11B,major
31882,40,25,111,555,0.0,3-11B,major
31883,55,32,353,1272,0.0,2-3,minor
31884,57,49,206,1546,2.0,3-7A,minor
31885,53,32,198,2286,1.0,4-22B,other
31886,71,71,713,5548,7.0,1-1,other
31887,59,68,773,41,7.0,1-1,other
31888,78,59,570,1470,2.0,1-1,other
31889,66,37,557,30,2.0,1-1,other
31890,88,53,162,1817,1.0,1-1,other
31891,76,33,637,29,1.0,1-1,other
31892,95,41,219,1398,8.0,1-1,other
31893,83,27,733,49,8.0,1-1,other
31894,90,31,311,1691,3.0,1-1,other
31895,102,26,1765,26,3.0,1-1,other
31896,56,58,73,0,0.0,3-12,augmented
31897,52,57,114,245,9.0,6-32,minor
31898,72,56,15,137,9.0,4-23,minor
31899,63,97,66,98,2.0,4-14A,minor
31900,61,70,60,119,2.0,3-11A,minor
31901,57,53,10,113,5.0,3-11B,major
31902,74,101,16,241,2.0,3-7B,other
31903,77,88,21,131,5.0,4-20,major
31904,43,85,36,105,4.0,5-25B,minor
31905,55,61,17,550,9.0,5-35,minor
31906,74,105,69,171,4.0,3-7A,minor
31907,74,83,24,133,7.0,4-27B,major
31908,60,43,27,656,6.0,5-8,diminished
31909,69,86,87,193,5.0,4-22A,major
31910,67,66,49,101,5.0,4-22A,major
31911,69,82,41,32,5.0,4-22A,major
31912,67,70,193,39,5.0,4-22A,major
31913,40,81,12,239,11.0,2-6,other
31914,84,86,34,165,5.0,6-24B,other
31915,50,70,80,77,5.0,6-24B,other
31916,65,92,26,356,4.0,2-3,minor
31917,64,76,15,48,4.0,2-3,minor
31918,52,78,114,136,7.0,3-9,other
31919,72,83,18,96,0.0,3-4B,other
31920,61,75,48,145,2.0,4-26,minor
31921,62,75,49,57,2.0,4-26,minor
31922,57,77,27,175,2.0,3-7A,minor
31923,49,97,60,246,2.0,3-11A,minor
31924,69,66,9,367,7.0,4-27B,major
31925,84,69,36,349,9.0,5-35,minor
31926,84,57,14,62,9.0,5-35,minor
31927,71,70,34,245,4.0,2-3,minor
31928,74,72,25,50,4.0,2-3,minor
31929,66,13,54,106,3.0,3-11B,other
31930,73,5,17,44,3.0,3-11B,other
31931,70,76,83,37,3.0,3-11B,other
31932,72,87,38,239,2.0,3-11A,minor
31933,53,81,17,247,5.0,3-11B,major
31934,67,70,32,243,5.0,3-11B,major
31935,69,76,40,44,5.0,3-11B,major
31936,63,55,47,122,4.0,4-29A,minor
31937,59,64,46,134,2.0,2-3,minor
31938,43,49,49,115,0.0,2-4,major
31939,52,57,12,53,0.0,2-4,major
31940,57,62,11,52,0.0,2-4,major
31941,77,67,12,147,4.0,4-23,minor
31942,70,66,43,107,1.0,4-28,diminished
31943,62,86,56,132,2.0,4-26,minor
31944,64,76,16,44,2.0,4-26,minor
31945,43,76,52,183,4.0,4-29A,minor
31946,41,87,50,118,7.0,4-27B,major
31947,40,101,25,57,7.0,4-27B,major
31948,33,101,12,244,0.0,5-30B,other
31949,63,73,58,299,2.0,5-27B,minor
31950,77,74,13,120,2.0,5-27B,minor
31951,60,62,69,117,5.0,4-20,major
31952,50,62,16,123,11.0,4-27A,diminished
31953,36,83,10,63,11.0,4-27A,diminished
31954,72,17,16,310,8.0,2-3,minor
31955,48,89,16,98,9.0,4-26,minor
31956,42,96,93,64,9.0,4-26,minor
31957,54,62,64,298,4.0,4-22B,minor
31958,66,70,45,107,9.0,3-8A,other
31959,71,80,25,77,9.0,3-8A,other
31960,66,73,12,122,4.0,5-35,minor
31961,59,54,175,176,11.0,5-35,minor
31962,45,80,12,185,2.0,2-4,major
31963,72,81,36,122,9.0,5-26A,diminished
31964,71,77,49,47,9.0,5-26A,diminished
31965,62,46,44,390,2.0,4-27A,minor
31966,64,85,26,38,2.0,4-27A,minor
31967,62,73,20,49,2.0,4-27A,minor
31968,63,61,48,248,11.0,3-8A,other
31969,64,72,11,264,2.0,4-29A,minor
31970,51,68,9,349,8.0,3-8A,other
31971,60,66,65,59,8.0,3-8A,other
31972,60,61,13,176,9.0,4-22B,minor
31973,59,74,32,60,9.0,4-22B,minor
31974,43,47,15,50,9.0,4-22B,minor
31975,49,88,60,132,2.0,4-26,minor
31976,31,93,14,225,7.0,3-11B,major
31977,53,106,112,69,7.0,3-11B,major
31978,74,90,26,771,0.0,2-1,other
31979,71,70,33,136,3.0,3-11B,other
31980,71,77,20,55,3.0,3-11B,other
31981,70,73,23,57,3.0,3-11B,other
31982,57,69,59,125,2.0,4-26,minor
31983,55,91,120,483,5.0,4-22A,major
31984,69,75,30,109,4.0,3-11A,minor
31985,67,55,18,122,3.0,5-13A,augmented
31986,59,56,28,102,7.0,1-1,other
31987,43,66,39,513,3.0,4-27A,other
31988,60,40,26,125,9.0,5-35,minor
31989,64,84,30,40,9.0,5-35,minor
31990,65,64,34,37,9.0,5-35,minor
31991,57,61,61,129,2.0,2-2,other
31992,49,70,79,127,0.0,3-11B,major
31993,42,47,33,267,5.0,3-11B,major
31994,31,80,7,117,5.0,4-22A,major
31995,50,67,12,360,5.0,3-11B,major
31996,53,55,16,170,4.0,4-29A,minor
31997,69,66,7,70,4.0,4-29A,minor
31998,63,60,31,493,4.0,4-26,minor
31999,74,102,33,188,4.0,2-3,minor
32000,45,50,31,284,10.0,3-11B,other
32001,50,76,114,234,2.0,6-47B,minor
32002,31,75,12,322,2.0,5-35,minor
32003,67,66,24,137,5.0,4-16A,major
32004,69,81,29,28,5.0,4-16A,major
32005,59,1,44,75,7.0,2-2,other
32006,55,70,38,85,7.0,2-2,other
32007,59,44,9,81,7.0,2-2,other
32008,40,65,10,39,7.0,2-2,other
32009,74,76,58,284,6.0,3-8B,other
32010,75,72,31,151,3.0,5-38A,other
32011,77,94,23,202,0.0,3-11B,major
32012,76,80,15,32,0.0,3-11B,major
32013,72,81,38,241,9.0,6-32,minor
32014,50,58,18,891,7.0,3-11B,major
32015,69,69,11,78,7.0,3-11B,major
32016,71,47,18,570,4.0,3-7A,minor
32017,50,69,157,474,2.0,4-26,minor
32018,31,89,35,391,2.0,4-26,minor
32019,31,89,14,45,2.0,4-26,minor
32020,43,79,56,797,7.0,2-1,other
32021,31,80,3,46,7.0,2-1,other
32022,64,72,17,279,2.0,3-11A,minor
32023,79,94,13,409,0.0,2-5,other
32024,84,85,19,66,0.0,4-24,augmented
32025,79,73,32,37,0.0,4-24,augmented
32026,77,74,41,91,5.0,5-30B,other
32027,67,73,9,121,5.0,3-4A,other
32028,60,73,35,39,5.0,3-4A,other
32029,61,79,72,82,2.0,3-11A,minor
32030,77,77,17,147,5.0,4-20,major
32031,62,69,17,231,8.0,4-13B,other
32032,36,80,12,56,8.0,4-13B,other
32033,56,50,45,169,4.0,2-5,other
32034,48,77,50,129,4.0,4-23,minor
32035,48,78,38,65,4.0,4-23,minor
32036,48,91,15,73,4.0,4-23,minor
32037,52,76,206,521,0.0,3-4B,other
32038,72,89,24,647,9.0,4-21,major
32039,71,78,24,33,9.0,4-21,major
32040,50,98,52,93,2.0,5-34,major
32041,50,79,34,66,2.0,5-34,major
32042,64,57,20,290,2.0,4-27A,minor
32043,62,39,12,37,2.0,4-27A,minor
32044,31,63,9,40,2.0,4-27A,minor
32045,64,73,89,321,9.0,5-35,minor
32046,64,83,30,116,11.0,4-27A,diminished
32047,74,72,37,465,10.0,5-30B,other
32048,62,70,24,120,2.0,5-27B,minor
32049,43,77,55,117,5.0,2-5,other
32050,45,84,69,121,10.0,6-14A,major
32051,56,79,62,478,0.0,4-18A,minor
32052,48,84,22,119,9.0,4-23,minor
32053,69,89,130,121,6.0,3-7A,minor
32054,71,76,25,238,4.0,3-7A,minor
32055,74,83,22,32,4.0,3-7A,minor
32056,57,96,68,448,2.0,4-26,minor
32057,60,91,55,122,2.0,4-26,minor
32058,50,80,38,117,2.0,4-26,minor
32059,32,73,27,114,7.0,5-9A,minor
32060,53,62,106,365,7.0,1-1,other
32061,79,89,23,256,9.0,5-35,minor
32062,79,70,16,101,9.0,2-2,other
32063,83,72,8,276,2.0,2-5,other
32064,71,63,19,208,0.0,2-4,major
32065,64,64,22,227,9.0,2-2,other
32066,59,69,273,149,8.0,2-3,minor
32067,64,64,187,45,8.0,2-3,minor
32068,71,39,18,37,8.0,2-3,minor
32069,76,65,20,28,8.0,2-3,minor
32070,80,67,12,26,8.0,2-3,minor
32071,95,74,18,113,4.0,2-4,major
32072,95,71,20,37,4.0,2-4,major
32073,95,63,17,36,4.0,2-4,major
32074,95,56,16,37,4.0,2-4,major
32075,62,61,660,0,7.0,1-1,other
32076,39,57,720,40,7.0,1-1,other
32077,46,68,600,690,7.0,1-1,other
32078,55,68,240,690,7.0,1-1,other
32079,58,65,3330,740,7.0,1-1,other
32080,79,61,1180,870,7.0,1-1,other
32081,67,39,1650,90,2.0,2-3,minor
32082,77,82,650,2220,2.0,2-3,minor
32083,63,43,840,990,5.0,3-12,augmented
32084,75,69,320,5200,7.0,3-11B,major
32085,80,67,750,970,7.0,3-11B,major
32086,68,51,200,100,5.0,2-5,other
32087,68,14,360,390,5.0,2-5,other
32088,51,61,1340,400,5.0,2-5,other
32089,63,59,690,790,0.0,2-5,other
32090,67,77,490,680,0.0,2-5,other
32091,67,73,2290,740,0.0,2-5,other
32092,55,56,1890,930,1.0,3-2B,other
32093,60,63,840,1000,1.0,3-2B,other
32094,58,41,750,60,1.0,3-2B,other
32095,65,64,530,970,1.0,3-2B,other
32096,51,68,720,2800,0.0,2-3,minor
32097,68,65,1680,6160,0.0,2-3,minor
32098,65,44,2040,70,3.0,2-4,other
32099,58,43,3550,30,3.0,2-4,other
32100,67,65,510,1480,3.0,2-4,other
32101,65,61,440,1980,3.0,2-4,other
32102,56,50,2150,970,11.0,3-10,diminished
32103,43,40,590,5020,0.0,2-4,major
32104,67,77,670,3700,2.0,3-11B,major
32105,72,82,960,1750,3.0,2-5,other
32106,42,51,590,1550,0.0,2-3,minor
32107,51,42,610,30,0.0,2-3,minor
32108,65,54,730,7500,0.0,3-7A,minor
32109,71,55,1030,1850,0.0,3-7A,minor
32110,47,39,1290,100,8.0,3-10,other
32111,75,66,5230,2340,8.0,3-10,other
32112,67,47,1960,110,8.0,3-10,other
32113,48,41,750,30,8.0,3-10,other
32114,63,39,1880,30,8.0,3-10,other
32115,55,56,300,840,8.0,3-10,other
32116,62,62,1940,870,8.0,3-10,other
32117,63,43,700,930,8.0,3-10,other
32118,67,48,1350,1060,0.0,2-3,minor
32119,63,42,660,1350,0.0,2-3,minor
32120,67,63,460,740,0.0,2-3,minor
32121,74,94,380,540,0.0,2-3,minor
32122,72,72,470,1470,3.0,2-4,other
32123,71,73,590,740,3.0,2-4,other
32124,72,70,340,730,3.0,2-4,other
32125,71,47,310,100,3.0,2-4,other
32126,75,59,2390,860,3.0,2-4,other
32127,41,50,700,80,3.0,2-5,other
32128,55,66,670,730,3.0,2-5,other
32129,56,76,2520,790,3.0,2-5,other
32130,74,85,480,990,3.0,2-5,other
32131,63,72,1310,40,3.0,2-5,other
32132,68,25,70,80,3.0,2-5,other
32133,68,62,620,1860,0.0,2-3,minor
32134,56,46,820,30,0.0,2-3,minor
32135,71,66,560,1030,0.0,2-3,minor
32136,65,56,700,60,8.0,2-6,other
32137,68,40,550,50,8.0,2-6,other
32138,72,63,1120,1010,8.0,2-6,other
32139,56,47,340,40,8.0,2-6,other
32140,46,45,560,2250,8.0,2-2,other
32141,46,55,1240,840,8.0,2-2,other
32142,66,51,590,2780,8.0,3-6,other
32143,54,33,1440,1200,8.0,3-8B,other
32144,74,89,460,1090,8.0,3-8B,other
32145,72,66,990,2260,8.0,3-8B,other
32146,67,66,620,1630,7.0,2-4,major
32147,72,61,760,3600,0.0,2-5,other
32148,78,75,780,2980,0.0,2-5,other
32149,73,60,750,80,0.0,2-5,other
32150,70,62,760,30,0.0,2-5,other
32151,56,37,550,110,2.0,2-4,major
32152,73,54,1400,1520,2.0,2-4,major
32153,46,39,1480,110,8.0,4-24,other
32154,56,37,1600,2210,0.0,3-8A,major
32155,72,59,1040,2720,0.0,3-8A,major
32156,60,54,1160,40,0.0,3-8A,major
32157,56,36,910,30,0.0,3-8A,major
32158,48,72,910,4370,0.0,2-5,other
32159,50,75,1350,1130,0.0,2-5,other
32160,59,66,2090,2480,8.0,2-3,other
32161,63,64,1300,1120,8.0,2-3,other
32162,43,55,2340,30,8.0,2-3,other
32163,62,63,800,1100,8.0,3-10,diminished
32164,63,57,1340,1820,0.0,2-4,other
32165,41,57,970,30,0.0,2-4,other
32166,48,80,480,740,0.0,2-4,other
32167,52,85,1870,1800,1.0,3-10,other
32168,53,59,1060,1840,0.0,4-26,other
32169,52,60,1040,1000,0.0,4-26,other
32170,53,57,250,990,0.0,4-26,other
32171,65,51,850,1080,0.0,4-22A,other
32172,46,54,1110,970,0.0,4-22A,other
32173,80,68,1200,1030,0.0,4-22A,other
32174,58,48,1590,100,0.0,4-22A,other
32175,68,72,1200,30,0.0,4-22A,other
32176,46,44,1710,1010,0.0,4-22A,other
32177,62,56,360,2280,10.0,2-5,other
32178,70,77,390,2130,8.0,4-27B,other
32179,82,102,370,2170,7.0,1-1,other
32180,83,82,250,60,7.0,1-1,other
32181,72,74,470,1060,10.0,3-11A,other
32182,80,81,520,1110,10.0,3-11A,other
32183,52,39,880,1220,10.0,3-3B,major
32184,79,68,230,1090,10.0,3-3B,major
32185,48,50,640,1630,2.0,3-11B,major
32186,48,52,480,1620,7.0,2-3,minor
32187,72,81,4040,1700,7.0,2-3,minor
32188,51,85,1170,1290,0.0,3-4A,other
32189,52,82,1690,1220,0.0,3-4A,other
32190,70,37,1740,1640,0.0,3-4A,other
32191,68,66,520,1130,5.0,2-5,other
32192,50,49,1610,970,2.0,2-2,other
32193,56,56,1030,720,2.0,2-2,other
32194,67,61,470,690,2.0,2-2,other
32195,68,75,650,510,2.0,2-2,other
32196,70,68,370,480,2.0,2-2,other
32197,71,67,460,450,3.0,3-8B,other
32198,82,66,960,540,3.0,3-8B,other
32199,43,52,710,50,3.0,3-8B,other
32200,53,41,820,40,3.0,3-8B,other
32201,80,63,250,810,3.0,3-8B,other
32202,79,59,220,540,3.0,3-8B,other
32203,77,66,190,370,3.0,3-8B,other
32204,75,59,310,350,3.0,3-8B,other
32205,74,47,200,360,3.0,3-8B,other
32206,74,48,120,750,5.0,2-5,other
32207,75,56,250,300,5.0,2-5,other
32208,55,36,2580,60,5.0,2-5,other
32209,67,40,150,370,5.0,2-5,other
32210,74,66,240,600,5.0,2-5,other
32211,60,38,180,90,5.0,2-5,other
32212,72,66,190,440,5.0,2-5,other
32213,65,57,320,480,5.0,2-5,other
32214,63,56,380,520,5.0,2-5,other
32215,62,65,2070,670,5.0,2-5,other
32216,41,49,660,110,5.0,2-5,other
32217,51,49,200,620,5.0,2-5,other
32218,58,56,660,800,5.0,2-5,other
32219,59,63,210,560,5.0,2-5,other
32220,62,63,320,390,5.0,2-5,other
32221,67,63,130,370,5.0,2-5,other
32222,74,72,340,360,5.0,2-5,other
32223,79,69,440,400,5.0,2-5,other
32224,57,39,4190,540,3.0,4-19B,augmented
32225,62,52,900,710,3.0,4-19B,augmented
32226,63,52,2700,870,3.0,4-19B,augmented
32227,67,45,640,980,3.0,4-19B,augmented
32228,77,64,390,1000,3.0,4-19B,augmented
32229,65,31,320,110,3.0,4-19B,augmented
32230,79,83,290,980,5.0,1-1,other
32231,79,70,200,530,5.0,1-1,other
32232,80,61,670,1200,5.0,1-1,other
32233,41,44,1310,140,3.0,2-4,other
32234,80,58,400,710,3.0,2-4,other
32235,51,56,650,30,3.0,2-4,other
32236,75,41,1350,690,8.0,3-10,minor
32237,56,64,2590,1380,7.0,2-1,other
32238,59,59,400,680,7.0,2-1,other
32239,61,67,510,400,7.0,2-1,other
32240,63,73,280,390,7.0,2-1,other
32241,65,72,240,360,7.0,2-1,other
32242,67,66,350,310,7.0,2-1,other
32243,68,66,290,290,7.0,2-1,other
32244,70,63,70,260,7.0,2-1,other
32245,71,57,190,180,7.0,2-1,other
32246,72,54,200,190,7.0,2-1,other
32247,73,63,110,190,7.0,2-1,other
32248,74,61,80,220,7.0,2-1,other
32249,75,36,130,230,7.0,2-1,other
32250,76,57,200,130,7.0,2-1,other
32251,77,70,330,260,7.0,2-1,other
32252,74,61,1000,240,7.0,3-5B,other
32253,46,65,2900,1050,7.0,3-5B,other
32254,68,70,370,1320,7.0,3-5B,other
32255,70,70,390,800,7.0,3-5B,other
32256,71,63,220,830,7.0,3-5B,other
32257,70,52,1610,1320,7.0,3-5B,other
32258,62,43,2360,30,7.0,3-5B,other
32259,65,56,2090,30,7.0,3-5B,other
32260,68,52,820,1580,8.0,2-2,other
32261,68,42,1720,1900,8.0,2-2,other
32262,59,37,1730,30,8.0,2-2,other
32263,56,37,3010,2970,8.0,2-3,minor
32264,91,77,1480,2774,8.0,2-3,minor
32265,60,48,1760,110,7.0,3-7B,other
32266,79,1,1030,280,7.0,3-7B,other
32267,89,63,150,2670,7.0,3-7B,other
32268,88,54,180,600,7.0,3-7B,other
32269,53,37,360,390,3.0,3-8B,other
32270,87,85,200,1570,3.0,3-8B,other
32271,53,35,1250,90,3.0,2-4,other
32272,86,72,370,260,3.0,2-4,other
32273,87,77,140,870,3.0,2-4,other
32274,88,54,170,160,3.0,2-4,other
32275,89,83,540,90,3.0,2-4,other
32276,80,47,190,1440,0.0,2-5,other
32277,58,41,100,1930,1.0,2-3,minor
32278,84,94,210,280,1.0,2-3,minor
32279,82,62,230,650,1.0,2-3,minor
32280,73,61,180,820,1.0,2-3,minor
32281,63,43,90,100,1.0,2-3,minor
32282,60,31,110,50,1.0,2-3,minor
32283,56,33,140,40,1.0,2-3,minor
32284,72,40,230,270,1.0,2-3,minor
32285,77,81,270,440,1.0,2-3,minor
32286,60,55,80,1200,1.0,2-3,minor
32287,56,35,110,60,1.0,2-3,minor
32288,75,59,170,300,1.0,2-3,minor
32289,72,69,210,330,1.0,2-3,minor
32290,68,76,250,350,1.0,2-3,minor
32291,67,56,190,350,1.0,2-3,minor
32292,70,68,330,340,1.0,2-3,minor
32293,68,59,190,330,1.0,2-3,minor
32294,58,27,90,30,1.0,2-3,minor
32295,63,49,230,320,1.0,2-3,minor
32296,59,40,230,330,1.0,2-3,minor
32297,58,42,350,290,1.0,2-3,minor
32298,56,27,330,380,1.0,2-3,minor
32299,46,40,100,1280,1.0,2-3,minor
32300,46,34,240,1020,1.0,2-3,minor
32301,70,60,340,430,1.0,2-3,minor
32302,56,40,360,70,10.0,3-12,augmented
32303,67,46,170,200,10.0,3-12,augmented
32304,67,49,140,630,8.0,2-2,other
32305,71,45,440,370,8.0,2-2,other
32306,67,53,110,230,8.0,3-8B,other
32307,56,45,490,410,8.0,3-8B,other
32308,62,31,270,90,11.0,2-5,other
32309,67,37,90,110,11.0,2-5,other
32310,63,48,1000,3180,7.0,2-2,other
32311,56,48,970,60,5.0,2-5,other
32312,63,47,1120,1170,0.0,2-4,other
32313,69,57,780,30,0.0,2-4,other
32314,57,43,880,90,6.0,1-1,other
32315,72,56,100,590,6.0,1-1,other
32316,67,50,140,1830,7.0,3-11A,minor
32317,70,45,350,420,7.0,3-11A,minor
32318,77,111,300,530,7.0,3-11A,minor
32319,74,49,330,490,7.0,3-11A,minor
32320,75,66,300,490,7.0,3-11A,minor
32321,67,38,480,430,7.0,3-11A,minor
32322,66,48,310,850,7.0,3-11A,minor
32323,58,39,100,670,3.0,2-4,major
32324,70,52,290,360,3.0,2-4,major
32325,74,107,300,550,3.0,2-4,major
32326,54,39,3780,200,0.0,2-3,minor
32327,57,41,3410,30,0.0,2-3,minor
32328,75,96,620,210,0.0,2-3,minor
32329,74,49,150,680,0.0,2-3,minor
32330,73,57,180,130,0.0,2-3,minor
32331,72,58,550,200,0.0,2-3,minor
32332,78,76,490,890,0.0,2-3,minor
32333,77,62,150,540,0.0,2-3,minor
32334,76,63,270,160,0.0,2-3,minor
32335,75,61,370,270,0.0,2-3,minor
32336,84,107,310,600,0.0,2-3,minor
32337,82,72,420,630,8.0,2-3,other
32338,80,62,460,780,8.0,2-3,other
32339,79,50,220,630,8.0,2-3,other
32340,82,31,120,60,8.0,2-3,other
32341,77,43,370,400,8.0,2-3,other
32342,75,48,550,690,8.0,2-3,other
32343,60,41,1310,630,3.0,2-5,other
32344,63,47,640,2930,8.0,2-6,other
32345,58,33,140,30,8.0,2-6,other
32346,75,76,540,250,8.0,2-6,other
32347,80,69,190,3500,0.0,2-4,other
32348,82,72,490,340,0.0,2-4,other
32349,56,45,1300,690,2.0,3-8A,major
32350,82,56,90,2210,3.0,4-15A,other
32351,91,72,150,1480,8.0,3-2A,other
32352,69,57,290,1630,10.0,4-22A,major
32353,60,36,170,40,10.0,4-22A,major
32354,62,46,520,690,0.0,4-24,augmented
32355,60,46,410,30,0.0,4-24,augmented
32356,71,66,330,850,0.0,4-24,augmented
32357,57,42,220,70,4.0,3-11B,major
32358,58,41,160,2040,0.0,2-2,other
32359,57,41,90,2540,2.0,2-4,major
32360,57,28,100,890,7.0,2-4,major
32361,59,54,80,1800,7.0,2-4,major
32362,67,62,110,1160,3.0,2-4,other
32363,71,68,220,310,3.0,2-4,other
32364,75,79,150,330,3.0,2-4,other
32365,58,46,80,110,3.0,2-4,other
32366,79,85,190,200,3.0,2-4,other
32367,53,58,250,670,3.0,2-4,other
32368,91,96,280,320,3.0,2-4,other
32369,89,86,300,320,3.0,2-4,other
32370,91,28,90,50,3.0,2-4,other
32371,89,75,240,620,11.0,2-3,minor
32372,87,66,170,350,11.0,2-3,minor
32373,84,58,300,280,11.0,2-3,minor
32374,63,43,1220,110,11.0,2-3,minor
32375,56,34,1570,50,11.0,2-3,minor
32376,80,50,320,190,0.0,2-5,other
32377,79,36,270,430,0.0,2-5,other
32378,79,42,350,630,0.0,2-5,other
32379,79,50,210,530,0.0,2-5,other
32380,60,45,1020,430,4.0,2-6,other
32381,56,48,230,3390,7.0,2-5,other
32382,62,22,240,720,8.0,2-1,other
32383,55,44,120,720,0.0,2-4,other
32384,63,63,270,580,0.0,2-4,other
32385,59,44,110,100,10.0,2-4,other
32386,63,49,240,590,10.0,2-4,other
32387,54,42,260,30,10.0,2-4,other
32388,60,57,840,680,3.0,2-5,other
32389,46,65,180,2420,3.0,2-5,other
32390,62,50,230,390,3.0,2-5,other
32391,67,78,180,580,3.0,2-5,other
32392,70,80,380,390,3.0,2-5,other
32393,72,66,370,1000,8.0,4-18A,diminished
32394,73,87,290,490,8.0,4-18A,diminished
32395,58,26,110,230,8.0,4-18A,diminished
32396,74,85,330,190,8.0,4-18A,diminished
32397,77,122,260,560,8.0,4-18A,diminished
32398,73,73,360,490,10.0,2-5,other
32399,65,60,260,530,10.0,2-5,other
32400,61,57,370,410,10.0,2-5,other
32401,42,31,90,1590,10.0,2-5,other
32402,48,36,100,350,10.0,2-5,other
32403,49,60,150,160,10.0,2-5,other
32404,51,54,60,200,10.0,2-5,other
32405,52,68,160,120,10.0,2-5,other
32406,54,68,90,230,10.0,2-5,other
32407,55,68,170,200,10.0,2-5,other
32408,57,61,140,230,10.0,2-5,other
32409,58,64,120,140,10.0,2-5,other
32410,60,51,120,220,10.0,2-5,other
32411,61,39,120,180,10.0,2-5,other
32412,63,59,80,110,10.0,2-5,other
32413,64,60,190,200,10.0,2-5,other
32414,52,47,1640,80,0.0,2-2,other
32415,66,51,70,120,0.0,2-2,other
32416,67,55,160,200,0.0,2-2,other
32417,69,56,90,180,0.0,2-2,other
32418,70,60,70,130,0.0,2-2,other
32419,72,63,190,200,0.0,2-2,other
32420,73,55,160,220,0.0,2-2,other
32421,75,44,80,180,0.0,2-2,other
32422,76,74,170,160,0.0,2-2,other
32423,77,56,120,200,0.0,2-2,other
32424,78,58,70,120,0.0,2-2,other
32425,79,38,100,250,0.0,2-2,other
32426,82,69,350,400,0.0,2-2,other
32427,79,81,510,290,0.0,2-2,other
32428,63,40,1350,590,0.0,2-2,other
32429,60,31,2030,90,7.0,2-1,other
32430,75,57,340,370,7.0,2-1,other
32431,72,65,270,580,7.0,2-1,other
32432,68,54,70,590,7.0,2-1,other
32433,70,61,510,640,9.0,3-8B,other
32434,68,60,510,600,9.0,3-8B,other
32435,50,32,1200,120,0.0,2-4,other
32436,64,44,460,560,0.0,2-4,other
32437,67,66,490,570,0.0,2-4,other
32438,59,57,600,1220,7.0,2-2,other
32439,50,39,130,420,7.0,2-2,other
32440,62,60,900,350,7.0,2-2,other
32441,48,47,1970,600,7.0,2-2,other
32442,56,55,380,40,7.0,2-2,other
32443,55,48,680,590,7.0,2-2,other
32444,60,51,590,740,7.0,2-2,other
32445,63,63,460,630,7.0,2-2,other
32446,65,61,460,580,7.0,2-2,other
32447,70,65,570,640,7.0,2-2,other
32448,57,49,860,630,3.0,3-12,augmented
32449,62,41,820,30,3.0,3-12,augmented
32450,74,68,680,580,3.0,3-12,augmented
32451,67,53,350,530,3.0,3-12,augmented
32452,79,73,350,80,2.0,3-5B,other
32453,57,60,380,690,3.0,4-19B,augmented
32454,74,80,510,610,3.0,4-16A,major
32455,84,71,210,690,9.0,2-6,other
32456,58,56,1180,730,11.0,2-5,other
32457,53,37,790,2100,3.0,3-4A,other
32458,58,14,740,140,3.0,3-4A,other
32459,74,55,1220,1830,8.0,2-6,other
32460,89,87,1040,3920,7.0,2-5,other
32461,88,42,100,120,2.0,3-7A,minor
32462,77,37,930,50,2.0,3-7A,minor
32463,86,59,930,1670,2.0,3-7A,minor
32464,82,68,950,30,2.0,3-7A,minor
32465,92,70,1030,1810,0.0,3-9,other
32466,80,57,910,140,0.0,7-35,other
32467,72,32,110,2840,10.0,2-4,other
32468,68,39,90,30,10.0,2-4,other
32469,60,48,1780,1061,2.0,4-23,minor
32470,77,87,150,3400,2.0,4-23,minor
32471,75,56,190,270,2.0,4-23,minor
32472,75,68,180,830,11.0,2-6,other
32473,71,59,120,470,11.0,2-6,other
32474,67,58,200,1390,11.0,2-6,other
32475,65,58,310,410,11.0,2-6,other
32476,63,75,280,530,11.0,2-6,other
32477,53,33,1390,180,0.0,2-4,other
32478,60,43,650,460,0.0,2-4,other
32479,63,52,780,770,0.0,2-4,other
32480,58,43,200,650,0.0,2-4,other
32481,60,66,540,440,0.0,2-4,other
32482,55,68,350,570,0.0,2-4,other
32483,56,78,470,390,0.0,2-4,other
32484,58,87,350,510,0.0,2-4,other
32485,41,53,100,140,0.0,2-4,other
32486,56,63,460,280,0.0,2-4,other
32487,52,43,170,530,0.0,2-4,other
32488,55,73,460,280,0.0,2-4,other
32489,52,60,240,570,0.0,2-4,other
32490,53,54,470,370,5.0,2-2,other
32491,55,76,230,600,5.0,2-2,other
32492,56,65,240,340,5.0,2-2,other
32493,58,74,210,300,5.0,2-2,other
32494,61,57,300,1080,8.0,2-3,other
32495,63,57,70,280,8.0,2-3,other
32496,65,66,310,200,8.0,2-3,other
32497,67,56,340,350,8.0,2-3,other
32498,68,60,270,250,8.0,2-3,other
32499,70,63,70,260,8.0,2-3,other
32500,58,36,1050,280,11.0,2-5,other
32501,73,62,200,120,11.0,2-5,other
32502,75,42,80,220,11.0,2-5,other
32503,77,68,100,160,11.0,2-5,other
32504,79,73,160,320,11.0,2-5,other
32505,80,72,170,500,11.0,2-5,other
32506,82,60,220,480,11.0,2-5,other
32507,67,43,520,1110,0.0,2-4,other
32508,62,52,670,30,0.0,2-4,other
32509,79,36,220,880,2.0,3-4A,major
32510,82,47,90,580,7.0,2-5,other
32511,90,42,110,3150,0.0,2-5,other
32512,95,49,70,310,5.0,2-5,other
32513,57,49,590,1790,6.0,2-6,other
32514,62,38,910,1800,7.0,3-7A,minor
32515,89,122,340,940,7.0,3-7A,minor
32516,86,94,230,570,7.0,3-7A,minor
32517,87,78,230,420,7.0,3-7A,minor
32518,79,60,120,600,7.0,3-7A,minor
32519,63,39,110,90,7.0,3-7A,minor
32520,86,66,130,280,7.0,3-7A,minor
32521,84,68,180,590,7.0,3-7A,minor
32522,74,54,530,410,3.0,2-4,major
32523,63,36,460,900,7.0,2-5,other
32524,60,34,510,30,7.0,2-5,other
32525,59,43,2780,970,3.0,3-4A,major
32526,73,45,320,480,3.0,3-4A,major
32527,72,46,260,160,3.0,3-4A,major
32528,71,50,460,290,3.0,3-4A,major
32529,63,42,1590,680,7.0,2-5,other
32530,71,47,750,520,7.0,2-5,other
32531,72,63,620,690,7.0,2-5,other
32532,74,85,270,530,7.0,2-5,other
32533,75,71,400,310,7.0,2-5,other
32534,72,63,450,410,0.0,2-4,other
32535,72,58,480,650,0.0,2-4,other
32536,72,69,620,610,0.0,2-4,other
32537,74,68,260,590,0.0,2-4,other
32538,75,85,330,330,0.0,2-4,other
32539,72,81,560,380,0.0,2-4,other
32540,67,55,490,40,0.0,2-4,other
32541,60,54,480,60,3.0,2-5,other
32542,72,84,660,560,3.0,2-5,other
32543,63,68,600,80,7.0,2-1,other
32544,60,69,610,30,7.0,2-1,other
32545,74,81,260,540,7.0,2-1,other
32546,75,90,410,340,7.0,2-1,other
32547,72,85,640,950,0.0,2-4,other
32548,74,72,220,610,0.0,2-4,other
32549,75,62,200,330,0.0,2-4,other
32550,77,63,230,330,0.0,2-4,other
32551,79,66,160,340,0.0,2-4,other
32552,80,72,230,310,0.0,2-4,other
32553,62,36,530,450,8.0,3-6,other
32554,82,45,400,810,8.0,3-6,other
32555,56,32,320,70,10.0,2-4,other
32556,62,32,340,30,10.0,2-4,other
32557,82,43,1900,540,10.0,2-4,other
32558,85,81,470,2840,8.0,2-6,other
32559,66,57,320,40,8.0,2-6,other
32560,90,57,60,1430,8.0,4-24,other
32561,97,63,200,640,8.0,4-24,other
32562,66,46,220,660,3.0,2-5,other
32563,87,48,160,40,3.0,2-5,other
32564,62,37,90,30,3.0,2-5,other
32565,62,49,740,630,7.0,4-26,minor
32566,96,63,320,840,7.0,4-26,minor
32567,90,67,240,1600,3.0,2-1,other
32568,88,45,280,430,3.0,2-1,other
32569,87,64,290,560,3.0,2-1,other
32570,86,46,200,430,3.0,2-1,other
32571,62,32,130,620,10.0,2-4,other
32572,78,41,300,330,10.0,2-4,other
32573,66,56,80,1460,10.0,2-4,other
32574,62,46,120,50,10.0,2-4,other
32575,77,82,160,310,10.0,2-4,other
32576,75,85,250,340,10.0,2-4,other
32577,56,57,270,90,10.0,2-4,other
32578,66,35,110,30,10.0,2-4,other
32579,62,30,250,40,10.0,2-4,other
32580,74,85,210,150,10.0,2-4,other
32581,77,92,770,360,10.0,2-4,other
32582,62,30,250,810,0.0,2-5,other
32583,74,74,530,80,0.0,2-5,other
32584,70,64,1800,570,0.0,2-5,other
32585,60,40,890,100,7.0,3-7B,other
32586,63,39,1810,2020,7.0,3-7B,other
32587,82,102,350,1980,11.0,3-5B,other
32588,80,85,360,510,11.0,3-5B,other
32589,59,43,230,210,11.0,3-5B,other
32590,58,28,230,70,11.0,3-5B,other
32591,75,62,230,40,11.0,3-5B,other
32592,71,45,180,350,11.0,3-5B,other
32593,70,67,280,290,11.0,3-5B,other
32594,69,59,240,310,11.0,3-5B,other
32595,68,63,190,300,11.0,3-5B,other
32596,63,32,340,70,11.0,3-5B,other
32597,60,40,760,70,11.0,3-5B,other
32598,56,37,790,30,11.0,3-5B,other
32599,53,20,1030,40,11.0,3-5B,other
32600,67,41,410,90,11.0,3-5B,other
32601,68,68,340,690,11.0,3-5B,other
32602,65,53,130,370,11.0,3-5B,other
32603,67,73,220,330,11.0,3-5B,other
32604,52,38,1330,270,0.0,2-2,other
32605,66,60,260,60,0.0,2-2,other
32606,67,56,240,370,0.0,2-2,other
32607,64,61,260,340,0.0,2-2,other
32608,63,55,270,330,0.0,2-2,other
32609,61,49,230,310,0.0,2-2,other
32610,60,54,190,310,0.0,2-2,other
32611,58,42,240,300,0.0,2-2,other
32612,56,63,350,690,0.0,2-2,other
32613,55,51,170,640,0.0,2-2,other
32614,52,54,140,260,0.0,2-2,other
32615,48,19,170,170,0.0,2-2,other
32616,53,68,490,140,0.0,2-2,other
32617,48,38,130,520,0.0,2-2,other
32618,55,58,220,170,0.0,2-2,other
32619,56,55,250,300,0.0,2-2,other
32620,58,77,350,330,0.0,2-2,other
32621,60,60,110,590,0.0,2-2,other
32622,62,57,190,330,0.0,2-2,other
32623,63,61,340,310,0.0,2-2,other
32624,56,49,180,1650,0.0,2-3,minor
32625,65,36,100,310,0.0,2-3,minor
32626,67,58,110,340,0.0,2-3,minor
32627,68,85,300,270,0.0,2-3,minor
32628,70,82,500,410,0.0,2-3,minor
32629,67,48,320,900,0.0,2-3,minor
32630,56,24,520,80,2.0,2-2,other
32631,74,85,370,930,2.0,2-2,other
32632,75,74,250,570,2.0,2-2,other
32633,77,55,350,410,5.0,3-5B,other
32634,53,57,270,590,7.0,3-11A,minor
32635,55,54,300,40,7.0,3-11A,minor
32636,55,39,550,450,10.0,3-11B,major
32637,80,43,280,90,8.0,2-2,other
32638,79,46,310,1420,7.0,5-32A,minor
32639,82,39,260,60,7.0,5-32A,minor
32640,79,44,370,490,3.0,5-27A,major
32641,58,48,370,680,2.0,3-3A,minor
32642,79,41,210,50,2.0,3-3A,minor
32643,52,46,1380,680,7.0,4-22B,minor
32644,52,36,90,1800,10.0,2-4,major
32645,86,68,60,1070,0.0,3-7B,other
32646,85,41,90,400,3.0,2-4,major
32647,58,82,150,470,3.0,2-4,major
32648,62,63,70,30,3.0,2-4,major
32649,61,70,130,340,5.0,2-4,other
32650,91,127,150,3850,5.0,4-14A,other
32651,91,98,290,640,7.0,2-1,other
32652,92,43,90,40,7.0,2-1,other
32653,89,76,160,280,7.0,2-1,other
32654,87,88,200,340,7.0,2-1,other
32655,86,92,230,330,7.0,2-1,other
32656,53,40,1300,110,3.0,2-4,other
32657,84,82,300,480,3.0,2-4,other
32658,86,39,90,50,3.0,2-4,other
32659,83,81,180,470,3.0,2-4,other
32660,80,72,240,420,3.0,2-4,other
32661,79,72,150,310,3.0,2-4,other
32662,51,31,390,310,2.0,2-3,minor
32663,57,54,270,30,2.0,2-3,minor
32664,75,74,170,300,2.0,2-3,minor
32665,74,68,190,340,2.0,2-3,minor
32666,77,75,250,340,2.0,2-3,minor
32667,74,75,150,310,2.0,2-3,minor
32668,75,82,250,280,2.0,2-3,minor
32669,57,32,140,170,2.0,2-3,minor
32670,67,43,410,200,2.0,2-3,minor
32671,67,60,280,600,2.0,2-3,minor
32672,62,41,90,40,2.0,2-3,minor
32673,57,42,80,70,2.0,2-3,minor
32674,63,39,130,300,2.0,2-3,minor
32675,60,50,200,600,2.0,2-3,minor
32676,62,60,600,340,2.0,2-3,minor
32677,67,63,150,560,2.0,2-3,minor
32678,71,56,190,360,2.0,2-3,minor
32679,74,85,220,340,2.0,2-3,minor
32680,63,57,260,350,7.0,2-4,major
32681,74,79,250,320,4.0,2-2,other
32682,73,39,90,50,4.0,2-2,other
32683,62,50,190,340,3.0,3-12,augmented
32684,74,72,260,280,3.0,3-12,augmented
32685,74,61,310,710,3.0,4-19B,augmented
32686,53,50,900,2370,3.0,3-11A,other
32687,66,38,130,1060,3.0,3-11A,other
32688,46,62,5050,1540,2.0,2-4,major
32689,53,39,310,1930,2.0,2-4,major
32690,56,63,850,270,2.0,2-4,major
32691,46,82,2050,3520,7.0,2-2,other
32692,61,59,380,3780,3.0,6-16A,other
32693,82,69,180,630,3.0,4-22B,other
32694,61,44,390,30,3.0,4-22B,other
32695,60,52,960,720,7.0,2-5,other
32696,55,77,340,2520,2.0,4-10,minor
32697,58,35,170,600,0.0,3-1,other
32698,90,49,110,590,5.0,3-6,major
32699,56,33,100,80,5.0,3-6,major
32700,53,59,660,1640,3.0,2-4,other
32701,58,25,380,80,3.0,2-4,other
32702,83,56,440,380,3.0,2-4,other
32703,59,56,390,460,3.0,2-4,other
32704,63,68,90,30,3.0,2-4,other
32705,79,75,240,30,3.0,2-4,other
32706,75,46,500,410,3.0,2-4,other
32707,60,47,640,600,0.0,2-3,minor
32708,56,43,1390,40,0.0,2-3,minor
32709,75,60,490,290,0.0,2-3,minor
32710,53,1,620,420,0.0,2-3,minor
32711,60,36,350,130,0.0,2-3,minor
32712,65,21,240,120,0.0,2-3,minor
32713,68,39,490,320,0.0,2-3,minor
32714,72,66,360,520,0.0,2-3,minor
32715,52,35,980,160,0.0,2-2,other
32716,70,49,730,290,0.0,2-2,other
32717,61,52,290,510,0.0,2-2,other
32718,60,48,460,390,0.0,2-2,other
32719,58,64,250,540,0.0,2-2,other
32720,48,39,280,80,0.0,2-2,other
32721,56,52,700,290,0.0,2-2,other
32722,51,22,80,570,0.0,2-2,other
32723,56,4,840,360,0.0,2-2,other
32724,51,56,100,500,0.0,2-2,other
32725,41,39,230,50,0.0,2-2,other
32726,53,43,240,420,0.0,2-2,other
32727,55,63,180,350,0.0,2-2,other
32728,56,66,270,310,0.0,2-2,other
32729,58,58,170,300,0.0,2-2,other
32730,59,60,240,250,0.0,2-2,other
32731,61,55,290,230,0.0,2-2,other
32732,63,54,190,240,8.0,2-3,other
32733,65,65,700,270,8.0,2-3,other
32734,67,50,190,710,8.0,2-3,other
32735,68,66,230,250,8.0,2-3,other
32736,70,66,330,280,8.0,2-3,other
32737,71,62,180,430,8.0,2-3,other
32738,73,63,330,290,8.0,2-3,other
32739,58,43,950,30,8.0,2-3,other
32740,68,37,850,40,8.0,2-3,other
32741,63,39,780,40,8.0,2-3,other
32742,60,42,830,40,8.0,2-3,other
32743,75,64,400,150,8.0,2-3,other
32744,77,48,100,570,8.0,2-3,other
32745,79,57,140,290,8.0,2-3,other
32746,80,73,710,310,8.0,2-3,other
32747,67,57,590,130,8.0,2-3,other
32748,82,63,420,460,8.0,2-6,other
32749,62,41,450,690,8.0,2-3,minor
32750,62,42,310,1590,8.0,2-2,other
32751,55,33,110,1980,10.0,2-4,major
32752,81,75,210,210,10.0,2-4,major
32753,78,66,200,330,10.0,2-4,major
32754,62,36,100,390,7.0,2-3,minor
32755,81,67,200,290,7.0,2-3,minor
32756,82,68,200,570,7.0,2-3,minor
32757,56,41,290,100,0.0,2-3,minor
32758,84,60,150,300,0.0,2-3,minor
32759,80,59,200,620,0.0,2-3,minor
32760,81,72,240,400,0.0,2-3,minor
32761,77,42,330,950,10.0,2-5,other
32762,75,65,270,570,10.0,2-5,other
32763,74,56,390,410,10.0,2-5,other
32764,70,64,260,560,10.0,2-5,other
32765,65,45,540,390,10.0,2-4,major
32766,62,57,470,970,10.0,2-4,major
32767,63,63,2010,600,10.0,2-4,major
32768,55,52,730,400,10.0,2-4,major
32769,55,54,370,970,10.0,2-4,major
32770,43,57,130,590,10.0,2-4,major
32771,66,56,70,1300,1.0,2-3,other
32772,71,54,180,320,1.0,2-3,other
32773,62,32,100,30,1.0,2-3,other
32774,59,63,60,230,1.0,2-3,other
32775,62,53,460,360,7.0,2-5,other
32776,63,31,90,1400,7.0,2-3,minor
32777,48,29,140,580,10.0,3-11B,major
32778,42,51,200,510,10.0,3-11B,major
32779,51,33,430,120,0.0,2-3,minor
32780,41,55,240,80,0.0,2-3,minor
32781,60,66,540,730,8.0,2-1,other
32782,63,48,270,30,8.0,2-1,other
32783,67,57,390,1260,0.0,3-7A,minor
32784,56,63,600,710,0.0,2-4,other
32785,60,68,660,1460,5.0,2-5,other
32786,68,40,180,1440,0.0,4-20,other
32787,77,68,250,50,0.0,4-20,other
32788,65,54,540,60,0.0,4-20,other
32789,80,47,670,1260,0.0,2-4,other
32790,71,54,850,860,0.0,2-4,other
32791,67,55,660,30,0.0,2-4,other
32792,46,46,2580,1840,4.0,3-7A,minor
32793,56,42,120,1050,4.0,3-3B,other
32794,56,42,360,990,4.0,5-32B,other
32795,62,32,120,80,4.0,3-11A,minor
32796,65,57,210,2860,0.0,3-6,other
32797,56,63,310,490,0.0,3-6,other
32798,70,77,230,30,0.0,3-6,other
32799,62,61,950,620,5.0,3-9,other
32800,62,36,200,1760,8.0,2-2,other
32801,64,1,810,290,8.0,2-2,other
32802,56,49,800,1520,10.0,3-12,augmented
32803,46,60,200,640,10.0,3-12,augmented
32804,66,63,260,1790,10.0,3-12,augmented
32805,58,43,110,1430,2.0,4-23,minor
32806,89,39,90,40,2.0,4-23,minor
32807,58,48,930,3720,3.0,3-8B,other
32808,63,52,410,2150,3.0,4-16A,other
32809,82,29,320,160,10.0,4-18A,major
32810,63,50,220,3910,6.0,3-10,other
32811,70,57,220,180,1.0,2-6,other
32812,64,58,180,1010,1.0,3-10,other
32813,79,52,360,410,1.0,3-10,other
32814,75,19,230,1050,0.0,2-3,minor
32815,73,36,280,840,1.0,4-28,diminished
32816,72,58,70,550,2.0,2-3,minor
32817,46,68,2750,1850,10.0,3-9,other
32818,56,63,810,1950,0.0,3-11A,minor
32819,56,50,930,1300,7.0,3-11A,minor
32820,65,10,160,1960,8.0,2-3,other
32821,54,56,440,1050,8.0,2-6,other
32822,49,40,210,2630,7.0,2-2,other
32823,65,60,1020,230,10.0,2-5,other
32824,61,75,530,680,8.0,2-2,other
32825,53,65,650,40,8.0,2-2,other
32826,49,60,530,620,10.0,3-11A,other
32827,67,58,520,610,1.0,3-10,minor
32828,64,47,520,40,1.0,3-10,minor
32829,58,57,530,1800,2.0,3-6,major
32830,83,36,170,1650,0.0,4-20,other
32831,52,74,300,1710,0.0,2-5,other
32832,53,75,190,330,0.0,2-5,other
32833,55,77,530,390,0.0,2-5,other
32834,60,42,380,40,0.0,2-5,other
32835,70,20,920,100,0.0,2-5,other
32836,53,67,550,590,0.0,2-5,other
32837,51,66,210,610,0.0,2-5,other
32838,50,47,300,1860,8.0,2-6,other
32839,60,57,420,410,5.0,3-9,other
32840,69,48,210,30,5.0,3-9,other
32841,65,26,110,640,11.0,2-6,other
32842,70,38,100,970,0.0,2-5,other
32843,80,60,70,870,3.0,2-1,other
32844,63,46,450,4990,5.0,2-5,other
32845,60,18,830,30,5.0,2-5,other
32846,65,56,220,650,5.0,2-5,other
32847,67,55,130,350,5.0,2-5,other
32848,68,49,390,920,5.0,2-5,other
32849,65,37,260,80,3.0,3-4A,other
32850,58,43,160,650,3.0,3-11A,other
32851,65,23,90,90,3.0,3-11A,other
32852,65,36,110,1020,3.0,4-14A,other
32853,65,37,120,490,3.0,4-14A,other
32854,63,50,380,620,3.0,4-14A,other
32855,65,38,130,100,8.0,3-2B,other
32856,68,57,240,1630,8.0,2-3,other
32857,70,63,210,470,8.0,2-3,other
32858,71,65,260,560,8.0,2-3,other
32859,70,60,800,480,8.0,2-3,other
32860,68,51,170,710,8.0,2-3,other
32861,46,43,2190,1580,5.0,2-2,other
32862,55,43,1880,420,5.0,2-2,other
32863,77,81,400,5280,0.0,4-22A,other
32864,74,57,450,620,0.0,4-22A,other
32865,70,44,1080,660,0.0,4-22A,other
32866,65,48,730,40,0.0,4-22A,other
32867,39,42,490,80,0.0,4-22A,other
32868,46,52,460,580,0.0,4-22A,other
32869,55,48,190,680,0.0,4-22A,other
32870,58,49,640,460,0.0,4-22A,other
32871,69,31,170,650,2.0,2-5,other
32872,77,58,510,520,2.0,2-5,other
32873,68,19,2130,740,0.0,2-3,minor
32874,58,50,1990,510,0.0,2-3,minor
32875,84,56,240,750,0.0,2-3,minor
32876,89,81,490,550,0.0,2-3,minor
32877,89,60,600,700,0.0,2-3,minor
32878,86,67,420,710,0.0,2-3,minor
32879,46,39,300,1280,3.0,2-5,other
32880,55,39,670,700,3.0,2-5,other
32881,67,49,640,1400,2.0,2-2,other
32882,68,48,580,750,2.0,2-2,other
32883,72,63,240,1630,0.0,4-11A,other
32884,53,31,790,100,0.0,4-11A,other
32885,74,66,260,640,0.0,4-11A,other
32886,79,59,400,3150,5.0,1-1,other
32887,75,48,800,2190,8.0,2-2,other
32888,47,38,5050,60,8.0,2-2,other
32889,54,45,860,820,8.0,2-2,other
32890,66,63,290,1550,1.0,3-7B,other
32891,54,42,880,60,1.0,3-7B,other
32892,58,40,770,780,1.0,2-3,other
32893,75,58,340,740,1.0,2-3,other
32894,54,38,1820,100,1.0,2-3,other
32895,58,52,320,1760,1.0,2-3,other
32896,47,35,190,80,1.0,2-3,other
32897,70,62,170,4320,9.0,1-1,other
32898,58,51,300,30,9.0,1-1,other
32899,74,74,230,340,9.0,1-1,other
32900,62,53,150,50,9.0,1-1,other
32901,78,85,240,300,9.0,1-1,other
32902,66,52,1130,50,9.0,1-1,other
32903,81,96,340,300,9.0,1-1,other
32904,78,86,240,370,9.0,1-1,other
32905,67,49,390,70,9.0,1-1,other
32906,79,79,240,270,9.0,1-1,other
32907,69,60,290,160,9.0,1-1,other
32908,81,79,310,180,9.0,1-1,other
32909,70,48,350,220,9.0,1-1,other
32910,82,79,220,100,9.0,1-1,other
32911,90,67,290,780,2.0,1-1,other
32912,78,52,1160,40,2.0,1-1,other
32913,93,66,330,390,2.0,1-1,other
32914,91,60,280,780,7.0,2-1,other
32915,81,37,410,90,7.0,2-1,other
32916,94,57,160,790,10.0,2-1,other
32917,86,35,100,190,10.0,2-1,other
32918,98,56,250,270,10.0,2-1,other
32919,93,59,190,930,6.0,1-1,other
32920,105,55,460,30,6.0,1-1,other
32921,57,45,243,0,5.0,3-4A,major
32922,67,53,13,365,9.0,2-2,other
32923,82,69,57,232,0.0,4-25,major
32924,56,46,16,209,10.0,4-19B,augmented
32925,54,61,54,141,7.0,3-11A,minor
32926,67,116,48,469,4.0,3-8B,other
32927,69,50,11,35,4.0,3-8B,other
32928,69,82,43,82,6.0,3-5B,other
32929,70,93,35,40,6.0,3-5B,other
32930,70,70,19,96,7.0,3-3A,minor
32931,69,57,26,121,10.0,3-4A,major
32932,48,61,179,182,2.0,2-5,other
32933,62,107,32,40,2.0,2-5,other
32934,63,102,42,34,2.0,2-5,other
32935,65,91,39,81,9.0,2-5,other
32936,66,71,35,41,9.0,2-5,other
32937,46,65,143,350,7.0,3-5B,other
32938,62,73,26,87,8.0,3-10,other
32939,64,88,37,28,8.0,3-10,other
32940,65,78,28,32,8.0,3-10,other
32941,67,71,16,31,8.0,3-10,other
32942,56,47,9,419,10.0,3-11B,major
32943,77,23,6,487,1.0,1-1,other
32944,57,44,244,112,2.0,4-14A,minor
32945,74,61,30,122,5.0,3-4A,major
32946,73,70,22,28,5.0,3-4A,major
32947,62,94,61,86,2.0,3-11A,minor
32948,60,60,14,117,2.0,4-19A,minor
32949,73,56,24,238,9.0,4-27A,diminished
32950,74,55,22,33,9.0,4-27A,diminished
32951,67,63,8,354,10.0,2-1,other
32952,54,86,23,81,7.0,2-5,other
32953,54,84,30,34,7.0,2-5,other
32954,52,81,59,590,9.0,5-31B,major
32955,70,101,22,113,1.0,4-28,diminished
32956,57,42,283,122,10.0,2-4,major
32957,50,46,16,123,9.0,2-3,minor
32958,48,53,225,58,9.0,2-3,minor
32959,65,88,23,197,9.0,3-5A,other
32960,66,77,21,28,9.0,3-5A,other
32961,53,55,119,309,0.0,4-24,augmented
32962,64,93,35,103,8.0,2-6,other
32963,65,43,9,42,8.0,2-6,other
32964,69,65,21,203,7.0,4-19A,minor
32965,69,69,11,38,7.0,4-19A,minor
32966,52,64,125,94,9.0,5-31B,major
32967,65,66,5,149,1.0,3-10,minor
32968,76,87,13,78,2.0,3-11A,minor
32969,76,84,13,35,2.0,3-11A,minor
32970,69,70,17,339,9.0,2-2,other
32971,72,79,23,28,9.0,2-2,other
32972,55,80,56,208,10.0,3-4A,major
32973,54,52,42,247,10.0,3-11B,major
32974,45,60,95,1014,9.0,3-11A,minor
32975,72,86,8,152,3.0,2-4,major
32976,76,107,12,60,9.0,4-27A,diminished
32977,78,76,9,65,6.0,4-5B,other
32978,78,64,7,28,6.0,4-5B,other
32979,78,67,33,61,6.0,3-8B,other
32980,70,56,5,176,10.0,3-4A,major
32981,72,81,27,687,4.0,3-8B,other
32982,72,65,29,39,4.0,3-8B,other
32983,76,87,14,271,9.0,1-1,other
32984,79,77,35,915,4.0,4-27A,diminished
32985,79,59,16,412,10.0,3-4A,major
32986,78,72,20,119,6.0,3-5B,other
32987,77,54,22,28,6.0,3-5B,other
32988,74,70,22,142,1.0,4-13B,diminished
32989,73,58,23,27,1.0,4-13B,diminished
32990,70,84,16,88,6.0,3-5B,other
32991,69,68,23,26,6.0,3-5B,other
32992,67,55,3,29,6.0,3-5B,other
32993,50,82,110,702,2.0,4-26,minor
32994,48,91,70,183,2.0,3-11A,minor
32995,53,77,53,651,8.0,4-27B,other
32996,41,80,60,119,8.0,2-6,other
32997,34,67,11,60,8.0,2-6,other
32998,69,65,189,661,10.0,4-20,major
32999,89,76,9,370,9.0,1-1,other
33000,57,33,103,233,2.0,3-2B,minor
33001,57,49,203,121,5.0,4-20,major
33002,61,75,45,118,2.0,3-11A,minor
33003,57,60,37,120,5.0,3-11B,major
33004,50,60,11,34,5.0,3-11B,major
33005,68,62,6,196,9.0,4-27A,diminished
33006,69,61,11,37,9.0,4-27A,diminished
33007,82,92,7,78,6.0,3-8B,other
33008,82,84,10,37,6.0,3-8B,other
33009,78,80,20,128,9.0,3-1,other
33010,78,58,32,86,7.0,4-14A,minor
33011,79,89,23,38,7.0,4-14A,minor
33012,74,58,7,64,10.0,2-4,major
33013,74,60,14,26,10.0,2-4,major
33014,65,39,39,111,2.0,3-3A,minor
33015,53,72,15,123,10.0,3-11B,major
33016,70,75,26,245,10.0,4-16A,major
33017,45,52,6,246,5.0,4-16A,other
33018,70,66,15,31,5.0,4-16A,other
33019,48,59,141,270,2.0,3-11A,minor
33020,62,56,10,351,0.0,6-24B,other
33021,46,99,93,54,0.0,6-24B,other
33022,46,90,93,113,8.0,3-10,other
33023,70,72,37,555,10.0,2-4,major
33024,72,97,34,42,10.0,2-4,major
33025,70,103,36,39,10.0,2-4,major
33026,45,61,122,277,10.0,2-4,major
33027,65,71,22,217,9.0,5-31B,major
33028,57,51,18,124,2.0,1-1,other
33029,62,43,20,123,5.0,4-20,major
33030,74,60,68,377,7.0,4-14A,minor
33031,73,43,25,82,7.0,4-14A,minor
33032,73,55,23,360,2.0,2-3,minor
33033,74,71,145,34,2.0,2-3,minor
33034,74,111,92,198,4.0,3-8B,other
33035,73,76,18,88,4.0,3-8B,other
33036,74,92,28,39,4.0,3-8B,other
33037,72,71,33,157,2.0,5-27B,minor
33038,56,45,20,82,2.0,5-27B,minor
33039,52,62,39,225,8.0,4-24,other
33040,60,57,43,167,9.0,1-1,other
33041,63,77,10,42,9.0,1-1,other
33042,67,84,20,37,9.0,1-1,other
33043,75,79,22,85,2.0,3-8A,major
33044,77,108,27,43,2.0,3-8A,major
33045,72,54,17,88,2.0,4-12A,major
33046,74,94,30,41,2.0,4-12A,major
33047,72,85,33,83,7.0,4-14A,minor
33048,67,62,19,166,10.0,2-4,major
33049,53,57,156,282,10.0,2-4,other
33050,51,44,24,1013,2.0,4-26,minor
33051,81,110,31,770,10.0,2-4,major
33052,79,83,12,92,10.0,2-1,other
33053,79,79,18,125,10.0,2-1,other
33054,77,73,26,47,10.0,2-1,other
33055,76,72,20,36,10.0,2-1,other
33056,74,82,16,36,10.0,2-1,other
33057,76,88,25,112,5.0,3-8B,other
33058,67,29,8,87,1.0,3-10,minor
33059,69,81,76,36,1.0,3-10,minor
33060,55,37,20,117,2.0,2-5,other
33061,55,35,26,82,9.0,4-26,minor
33062,49,33,21,264,5.0,3-9,other
33063,49,55,69,166,1.0,4-28,diminished
33064,61,65,42,246,2.0,1-1,other
33065,46,79,15,309,8.0,4-22B,other
33066,46,85,26,247,0.0,5-27B,other
33067,64,76,32,441,8.0,3-8A,other
33068,64,77,105,77,10.0,2-4,major
33069,40,73,19,78,10.0,2-4,major
33070,69,81,65,174,10.0,4-16A,major
33071,72,79,28,116,10.0,2-4,major
33072,81,63,34,71,10.0,2-4,major
33073,55,51,18,465,1.0,2-6,other
33074,76,65,17,118,2.0,4-14A,minor
33075,46,59,15,386,2.0,3-11A,minor
33076,61,109,30,191,0.0,3-11A,minor
33077,62,92,40,36,0.0,3-11A,minor
33078,56,70,35,370,6.0,2-3,minor
33079,55,74,33,78,7.0,3-11A,minor
33080,54,80,36,36,7.0,3-11A,minor
33081,57,59,152,936,2.0,3-7B,other
33082,64,77,43,122,0.0,2-4,major
33083,48,58,21,117,9.0,2-5,other
33084,65,78,28,33,9.0,2-5,other
33085,67,63,57,92,0.0,5-26B,other
33086,46,92,13,118,0.0,3-8B,other
33087,34,102,91,119,0.0,3-8A,major
33088,58,50,121,720,2.0,3-9,other
33089,52,53,13,121,10.0,2-4,major
33090,64,108,54,157,9.0,5-31B,major
33091,64,66,106,79,9.0,5-31B,major
33092,65,60,118,107,9.0,5-31B,major
33093,74,59,16,255,2.0,3-11A,minor
33094,77,66,17,210,10.0,3-11B,major
33095,77,65,12,32,10.0,3-11B,major
33096,77,56,6,29,10.0,3-11B,major
33097,69,74,24,471,10.0,4-20,major
33098,69,65,10,69,10.0,2-1,other
33099,70,60,20,100,4.0,3-8B,other
33100,70,60,16,47,4.0,3-8B,other
33101,70,59,44,43,4.0,3-8B,other
33102,33,62,15,58,4.0,3-8B,other
33103,82,48,66,272,5.0,4-16A,other
33104,57,48,688,198,2.0,2-5,other
33105,62,50,635,55,2.0,2-5,other
33106,64,44,27,33,2.0,2-5,other
33107,65,60,26,32,2.0,2-5,other
33108,69,58,7,32,2.0,2-5,other
33109,73,57,15,34,2.0,2-5,other
33110,76,52,26,32,2.0,2-5,other
33111,81,57,32,35,2.0,2-5,other
33112,85,52,28,33,2.0,2-5,other
33113,88,58,11,36,2.0,2-5,other
33114,93,62,302,38,2.0,2-5,other
33115,81,97,28,0,,,
33116,74,62,29,143,5.0,3-11B,major
33117,76,87,17,90,9.0,3-11A,minor
33118,77,101,21,32,9.0,3-11A,minor
33119,72,74,21,85,0.0,3-8A,major
33120,68,84,19,43,0.0,3-8A,major
33121,62,78,78,221,5.0,3-11B,major
33122,60,73,25,88,9.0,2-3,minor
33123,62,82,36,38,9.0,2-3,minor
33124,64,62,24,82,0.0,3-7A,minor
33125,68,64,23,38,0.0,3-7A,minor
33126,76,60,27,80,0.0,3-8A,major
33127,80,84,26,41,0.0,3-8A,major
33128,84,108,24,83,5.0,3-11B,major
33129,72,66,26,42,5.0,3-11B,major
33130,79,80,24,80,5.0,4-20,major
33131,76,80,28,118,0.0,4-16A,other
33132,67,65,19,38,0.0,4-16A,other
33133,72,71,29,81,7.0,3-2A,minor
33134,60,76,30,164,9.0,4-26,minor
33135,72,95,21,120,10.0,2-5,other
33136,74,77,13,64,2.0,4-5A,major
33137,77,109,18,27,2.0,4-5A,major
33138,75,102,17,33,2.0,4-5A,major
33139,72,84,16,63,2.0,4-15B,other
33140,70,70,23,28,2.0,4-15B,other
33141,74,115,22,131,4.0,3-5B,other
33142,67,79,26,134,2.0,1-1,other
33143,59,53,49,85,2.0,2-3,minor
33144,50,63,24,147,7.0,3-11B,major
33145,65,72,22,362,7.0,4-22B,minor
33146,64,65,33,121,5.0,2-5,other
33147,60,51,30,83,5.0,2-4,major
33148,61,66,20,33,5.0,2-4,major
33149,70,98,20,79,7.0,2-2,other
33150,72,120,31,42,7.0,2-2,other
33151,74,69,24,85,2.0,4-5A,major
33152,77,95,74,37,2.0,4-5A,major
33153,74,73,19,81,5.0,3-5B,other
33154,65,70,16,33,5.0,3-5B,other
33155,65,72,10,86,4.0,4-18A,major
33156,65,58,21,118,11.0,2-3,minor
33157,64,67,21,287,9.0,4-18A,major
33158,65,1,79,72,5.0,6-46A,major
33159,64,65,15,81,9.0,2-3,minor
33160,48,46,21,74,9.0,2-3,minor
33161,36,76,6,121,0.0,4-27B,major
33162,68,75,19,84,4.0,2-6,other
33163,72,75,31,39,4.0,2-6,other
33164,79,94,14,242,5.0,4-20,major
33165,74,72,44,450,5.0,4-20,major
33166,49,56,9,508,0.0,3-11B,major
33167,38,70,12,163,6.0,4-28,diminished
33168,50,53,32,77,6.0,4-28,diminished
33169,61,54,16,113,4.0,2-2,other
33170,63,64,25,78,2.0,2-3,minor
33171,64,76,24,36,2.0,2-3,minor
33172,69,103,91,84,4.0,3-5B,other
33173,50,69,75,337,10.0,4-19B,other
33174,43,68,15,74,10.0,4-19B,other
33175,36,81,133,84,10.0,4-19B,other
33176,60,68,19,152,1.0,4-28,diminished
33177,65,87,456,44,1.0,4-28,diminished
33178,48,41,32,909,4.0,4-21,major
33179,72,67,11,136,0.0,5-35,minor
33180,77,70,13,78,3.0,4-16B,other
33181,79,97,20,37,3.0,4-16B,other
33182,48,64,81,161,9.0,1-1,other
33183,75,51,26,83,9.0,1-1,other
33184,91,111,39,84,5.0,3-6,major
33185,75,49,13,201,0.0,4-22B,minor
33186,57,62,62,283,10.0,3-11B,major
33187,67,81,22,110,5.0,2-4,major
33188,69,84,13,28,5.0,2-4,major
33189,73,93,19,97,10.0,2-5,other
33190,69,74,27,37,10.0,2-5,other
33191,75,81,17,79,1.0,1-1,other
33192,76,103,20,36,1.0,1-1,other
33193,74,74,16,80,2.0,3-7A,minor
33194,75,92,26,39,2.0,3-7A,minor
33195,74,54,21,86,5.0,1-1,other
33196,77,78,11,39,5.0,1-1,other
33197,77,52,9,85,7.0,4-29A,minor
33198,76,52,17,75,6.0,4-29A,minor
33199,75,67,22,78,5.0,4-29A,other
33200,43,55,61,119,4.0,5-25B,minor
33201,69,69,18,78,11.0,4-27A,diminished
33202,57,72,20,42,11.0,4-27A,diminished
33203,50,38,9,243,7.0,3-7B,other
33204,49,50,27,195,9.0,4-27B,major
33205,31,74,5,276,7.0,3-11B,major
33206,69,81,35,119,7.0,4-14A,minor
33207,74,83,42,122,10.0,3-4A,major
33208,70,107,88,123,3.0,3-8B,other
33209,69,75,40,119,5.0,2-2,other
33210,37,88,20,89,3.0,3-12,augmented
33211,44,65,17,38,3.0,3-12,augmented
33212,53,70,32,38,3.0,3-12,augmented
33213,59,67,15,45,3.0,3-12,augmented
33214,49,65,18,36,3.0,3-12,augmented
33215,48,70,82,44,3.0,3-12,augmented
33216,60,54,13,38,3.0,3-12,augmented
33217,58,68,12,34,3.0,3-12,augmented
33218,58,61,27,120,1.0,4-27A,minor
33219,76,77,12,205,5.0,2-4,major
33220,79,115,25,39,5.0,2-4,major
33221,72,48,25,85,4.0,2-6,other
33222,68,73,181,38,4.0,2-6,other
33223,48,59,31,114,0.0,2-2,other
33224,67,62,13,121,5.0,2-4,major
33225,69,57,26,77,5.0,4-20,major
33226,64,57,33,40,5.0,4-20,major
33227,67,63,22,81,0.0,3-7B,other
33228,64,74,21,83,0.0,2-1,other
33229,64,60,32,36,0.0,2-1,other
33230,52,102,72,163,2.0,5-27B,minor
33231,53,43,65,40,2.0,5-27B,minor
33232,50,97,30,47,2.0,5-27B,minor
33233,48,81,45,32,2.0,5-27B,minor
33234,52,68,19,202,0.0,2-4,other
33235,46,85,35,38,0.0,2-4,other
33236,33,87,11,84,9.0,4-26,minor
33237,72,101,26,158,0.0,2-5,other
33238,77,86,68,82,5.0,4-13B,other
33239,65,73,22,157,2.0,3-8A,major
33240,69,45,17,70,8.0,4-28,diminished
33241,62,62,37,236,5.0,5-33,augmented
33242,64,55,45,578,5.0,2-5,other
33243,65,82,330,71,5.0,2-5,other
33244,88,50,325,0,,,
33245,48,26,178,61,5.0,3-6,major
33246,57,36,155,1028,5.0,2-5,other
33247,79,46,196,930,0.0,1-1,other
33248,48,27,202,26,0.0,1-1,other
33249,62,36,151,865,0.0,1-1,other
33250,57,29,134,63,5.0,2-5,other
33251,81,43,134,659,2.0,1-1,other
33252,86,27,100,671,5.0,4-16A,major
33253,86,45,62,290,5.0,4-16A,major
33254,64,48,67,209,5.0,4-16A,major
33255,64,42,871,3914,9.0,3-7A,minor
33256,77,82,149,536,9.0,3-7A,minor
33257,72,58,348,911,5.0,3-11B,major
33258,69,48,66,492,2.0,1-1,other
33259,74,56,234,445,2.0,1-1,other
33260,53,22,4233,484,3.0,3-11B,major
33261,79,73,238,1445,5.0,2-2,other
33262,63,25,482,544,7.0,4-23,minor
33263,81,69,279,440,7.0,4-23,minor
33264,81,53,263,474,7.0,4-23,minor
33265,69,32,175,72,10.0,5-17,other
33266,82,60,324,428,10.0,5-17,other
33267,74,16,148,75,10.0,5-17,other
33268,84,68,203,830,10.0,2-4,major
33269,72,24,234,558,5.0,2-4,major
33270,86,71,370,366,5.0,2-4,major
33271,74,22,122,207,5.0,2-4,major
33272,86,56,310,277,5.0,2-4,major
33273,74,55,150,72,2.0,4-26,minor
33274,89,68,289,431,2.0,4-26,minor
33275,77,45,208,523,5.0,1-1,other
33276,84,47,262,423,5.0,1-1,other
33277,72,34,141,82,5.0,1-1,other
33278,34,54,254,1313,5.0,3-11B,other
33279,74,71,142,2674,1.0,2-3,minor
33280,75,68,188,202,1.0,2-3,minor
33281,45,42,301,198,1.0,2-3,minor
33282,74,56,258,56,1.0,2-3,minor
33283,72,45,1230,290,1.0,2-3,minor
33284,67,52,128,1268,9.0,3-11A,minor
33285,69,51,113,137,9.0,3-11A,minor
33286,67,28,145,56,9.0,3-11A,minor
33287,64,53,134,107,9.0,3-11A,minor
33288,66,39,574,173,2.0,1-1,other
33289,60,37,78,824,6.0,2-2,other
33290,69,40,89,500,6.0,2-2,other
33291,72,66,167,152,6.0,2-2,other
33292,70,57,136,220,6.0,2-2,other
33293,43,34,72,74,6.0,2-2,other
33294,62,48,85,197,6.0,2-2,other
33295,62,53,92,328,6.0,2-2,other
33296,62,52,119,290,6.0,2-2,other
33297,58,32,78,75,6.0,2-2,other
33298,62,46,270,236,6.0,2-2,other
33299,63,51,210,288,6.0,2-2,other
33300,64,45,702,272,6.0,2-2,other
33301,36,17,84,297,6.0,2-2,other
33302,64,47,58,776,6.0,2-2,other
33303,58,37,68,38,6.0,2-2,other
33304,84,71,168,627,6.0,2-2,other
33305,77,69,408,1243,5.0,4-20,major
33306,71,71,1002,1428,0.0,3-9,other
33307,70,67,976,965,7.0,2-5,other
33308,71,73,183,966,5.0,4-16A,major
33309,71,51,284,959,9.0,2-5,other
33310,73,15,78,310,9.0,2-5,other
33311,52,31,603,667,8.0,3-7B,other
33312,62,50,432,478,8.0,3-7B,other
33313,48,17,179,1093,5.0,3-4B,other
33314,52,19,158,867,4.0,3-11B,major
33315,58,69,362,1417,9.0,2-5,other
33316,60,55,152,944,7.0,4-27B,major
33317,61,35,193,533,3.0,3-11B,major
33318,48,62,127,421,3.0,3-11B,major
33319,57,43,1464,951,10.0,2-5,other
33320,63,34,1075,35,10.0,2-5,other
33321,53,45,709,4815,2.0,4-26,minor
33322,60,28,333,508,2.0,3-11A,minor
33323,84,49,51,460,2.0,3-11A,minor
33324,60,24,180,26,2.0,3-11A,minor
33325,77,72,159,417,5.0,4-20,other
33326,58,21,105,54,5.0,4-20,other
33327,85,51,235,406,5.0,4-20,other
33328,80,25,171,1018,5.0,2-4,other
33329,73,31,698,429,1.0,3-2B,other
33330,79,45,190,1484,1.0,2-3,minor
33331,82,55,179,477,9.0,5-27B,minor
33332,79,39,159,1428,0.0,2-4,major
33333,72,27,1243,431,2.0,4-27B,major
33334,54,55,215,905,2.0,4-27B,major
33335,79,64,253,1016,0.0,3-7A,minor
33336,79,39,150,989,3.0,3-11B,major
33337,78,67,286,1451,9.0,2-2,other
33338,69,61,252,30,9.0,2-2,other
33339,74,53,279,994,6.0,2-3,minor
33340,65,41,918,431,6.0,2-3,minor
33341,62,50,1468,26,6.0,2-3,minor
33342,60,37,1413,29,6.0,2-3,minor
33343,81,88,176,498,6.0,2-3,minor
33344,82,69,169,333,6.0,2-3,minor
33345,53,32,1356,84,6.0,2-3,minor
33346,82,67,2235,329,6.0,2-3,minor
33347,77,53,192,300,6.0,2-3,minor
33348,77,55,1563,352,2.0,3-7A,minor
33349,53,36,133,856,2.0,3-7A,minor
33350,79,44,315,692,2.0,3-7A,minor
33351,62,44,345,1218,9.0,2-2,other
33352,55,20,178,80,4.0,2-5,other
33353,55,31,751,899,6.0,2-5,other
33354,96,80,158,335,6.0,2-5,other
33355,94,73,172,310,6.0,2-5,other
33356,85,64,206,244,6.0,2-5,other
33357,55,32,507,81,5.0,2-4,other
33358,84,57,176,182,5.0,2-4,other
33359,82,51,189,256,5.0,2-4,other
33360,81,45,189,231,5.0,2-4,other
33361,78,29,166,507,11.0,2-5,other
33362,81,60,105,234,11.0,2-5,other
33363,73,57,111,222,11.0,2-5,other
33364,73,35,181,521,1.0,2-3,minor
33365,69,36,96,225,1.0,2-3,minor
33366,69,41,666,249,1.0,2-3,minor
33367,66,46,144,718,2.0,3-11B,major
33368,66,56,175,253,2.0,3-11B,major
33369,59,34,72,337,6.0,1-1,other
33370,67,62,205,277,6.0,1-1,other
33371,68,76,278,313,6.0,1-1,other
33372,83,51,171,2734,6.0,3-5A,other
33373,82,64,153,86,6.0,3-5A,other
33374,81,60,129,134,6.0,3-5A,other
33375,59,36,373,1267,6.0,3-11A,minor
33376,54,35,370,867,2.0,3-11B,major
33377,48,69,330,1284,6.0,3-11A,minor
33378,49,75,275,338,6.0,3-11A,minor
33379,50,64,503,344,6.0,3-11A,minor
33380,49,53,346,538,6.0,3-11A,minor
33381,51,52,196,694,2.0,4-26,minor
33382,52,55,122,200,2.0,4-26,minor
33383,53,52,1921,146,2.0,4-26,minor
33384,53,45,352,2225,8.0,3-3A,minor
33385,67,64,163,330,8.0,3-3A,minor
33386,65,60,173,282,8.0,3-3A,minor
33387,86,66,149,2831,7.0,2-5,other
33388,67,45,69,881,4.0,2-5,other
33389,58,49,787,912,10.0,3-11B,major
33390,62,50,386,481,10.0,3-11B,major
33391,60,57,1269,521,10.0,3-11B,major
33392,65,60,789,451,10.0,3-11B,major
33393,70,47,256,491,10.0,3-11B,major
33394,75,48,694,478,10.0,3-11B,major
33395,85,60,161,467,10.0,3-11B,major
33396,81,33,274,470,5.0,2-1,other
33397,91,56,114,477,5.0,2-1,other
33398,53,11,2476,495,9.0,3-11A,minor
33399,64,64,553,896,9.0,3-11A,minor
33400,62,61,312,520,9.0,3-11A,minor
33401,74,70,180,952,0.0,3-11B,major
33402,60,41,67,29,0.0,3-11B,major
33403,64,74,547,1476,11.0,2-2,other
33404,62,55,389,486,11.0,2-2,other
33405,56,78,718,945,8.0,2-3,other
33406,74,56,318,996,4.0,2-4,major
33407,72,44,387,1526,5.0,4-20,major
33408,57,47,716,1392,9.0,3-11A,minor
33409,50,37,426,2343,2.0,2-5,other
33410,57,74,1026,3375,10.0,2-4,major
33411,55,65,516,948,10.0,2-4,major
33412,57,65,500,1009,10.0,3-12,augmented
33413,54,51,118,1251,7.0,3-11A,minor
33414,61,29,51,231,7.0,3-11A,minor
33415,53,24,940,127,0.0,3-6,other
33416,61,48,423,679,0.0,3-6,other
33417,44,43,204,1914,0.0,2-1,other
33418,65,20,101,582,1.0,2-3,other
33419,52,36,273,458,9.0,4-26,minor
33420,84,75,3678,476,9.0,4-26,minor
33421,72,40,284,934,9.0,2-3,minor
33422,72,44,385,470,9.0,2-3,minor
33423,72,39,365,948,0.0,2-1,other
33424,60,51,317,1471,5.0,3-5B,other
33425,78,33,194,491,5.0,3-5B,other
33426,83,22,108,63,5.0,3-5B,other
33427,67,46,495,4759,0.0,4-27B,major
33428,36,37,212,1835,7.0,2-3,minor
33429,52,30,333,39,7.0,2-3,minor
33430,74,46,420,941,10.0,3-11A,other
33431,48,58,829,1960,0.0,2-1,other
33432,47,27,45,36,0.0,2-1,other
33433,36,55,351,424,0.0,2-1,other
33434,48,58,2090,1444,9.0,3-7A,minor
33435,48,53,999,2369,0.0,2-2,other
33436,42,34,298,3853,4.0,4-21,major
33437,49,26,297,42,4.0,4-21,major
33438,60,27,168,471,5.0,4-11A,major
33439,48,18,174,53,5.0,4-11A,major
33440,84,65,289,967,5.0,2-1,other
33441,76,38,177,184,2.0,2-5,other
33442,36,46,124,685,2.0,2-5,other
33443,89,73,259,637,2.0,2-5,other
33444,81,56,261,84,0.0,2-4,major
33445,77,46,141,92,0.0,2-4,major
33446,62,40,114,232,0.0,2-4,major
33447,60,19,93,48,0.0,2-4,major
33448,57,19,84,35,0.0,2-4,major
33449,84,68,231,241,0.0,2-4,major
33450,79,51,261,40,0.0,2-4,major
33451,72,44,215,53,0.0,2-4,major
33452,47,36,219,568,0.0,2-4,major
33453,86,63,318,355,0.0,2-4,major
33454,83,64,333,39,0.0,2-4,major
33455,79,58,249,26,0.0,2-4,major
33456,74,26,175,76,0.0,2-4,major
33457,76,58,198,678,11.0,3-7A,minor
33458,40,54,129,515,11.0,3-7A,minor
33459,56,63,479,1196,7.0,3-5B,other
33460,44,50,176,394,7.0,3-5B,other
33461,67,29,188,1901,2.0,3-7A,minor
33462,61,72,478,389,2.0,3-7A,minor
33463,69,48,589,522,0.0,3-11B,major
33464,57,54,409,460,0.0,3-11B,major
33465,74,59,182,491,0.0,3-11B,major
33466,48,33,1052,536,3.0,3-11B,major
33467,55,24,987,26,3.0,3-11B,major
33468,62,46,133,681,3.0,3-11B,major
33469,63,46,47,126,3.0,3-11B,major
33470,58,34,167,53,3.0,3-11B,major
33471,65,48,142,53,3.0,3-11B,major
33472,67,30,112,179,3.0,3-11B,major
33473,69,38,102,83,3.0,3-11B,major
33474,70,47,45,126,3.0,3-11B,major
33475,75,46,156,339,3.0,3-11B,major
33476,76,59,125,149,3.0,3-11B,major
33477,75,49,85,400,5.0,2-4,major
33478,63,36,359,738,9.0,2-2,other
33479,74,71,228,510,9.0,2-2,other
33480,72,35,169,239,9.0,2-2,other
33481,70,32,122,158,9.0,2-2,other
33482,69,42,145,129,2.0,2-2,other
33483,84,74,96,234,2.0,2-2,other
33484,81,57,52,315,2.0,2-2,other
33485,70,51,157,626,2.0,2-3,minor
33486,69,29,66,252,2.0,2-3,minor
33487,72,64,275,189,2.0,2-3,minor
33488,60,32,169,229,10.0,3-11B,major
33489,69,56,130,183,10.0,3-11B,major
33490,65,48,147,211,10.0,3-11B,major
33491,60,31,112,245,10.0,3-11B,major
33492,60,45,145,275,10.0,3-11B,major
33493,53,20,111,47,10.0,3-11B,major
33494,60,46,171,246,10.0,3-11B,major
33495,60,57,144,263,10.0,3-11B,major
33496,60,51,161,241,10.0,3-11B,major
33497,61,47,316,521,5.0,2-5,other
33498,27,37,217,1632,1.0,2-5,other
33499,57,45,109,247,1.0,2-5,other
33500,58,37,138,186,1.0,2-5,other
33501,60,45,145,180,1.0,2-5,other
33502,45,17,64,328,1.0,2-6,other
33503,64,42,126,138,1.0,2-6,other
33504,69,33,117,223,1.0,2-6,other
33505,73,46,166,169,1.0,2-6,other
33506,76,68,145,206,1.0,2-6,other
33507,72,32,92,243,1.0,2-6,other
33508,45,35,83,309,1.0,2-6,other
33509,60,25,70,277,1.0,2-6,other
33510,67,47,214,249,1.0,2-6,other
33511,72,50,80,240,1.0,2-6,other
33512,79,60,70,227,1.0,2-6,other
33513,82,56,1083,822,2.0,3-1,other
33514,81,74,277,299,2.0,3-1,other
33515,60,29,505,400,4.0,2-3,minor
33516,78,43,203,306,4.0,2-3,minor
33517,81,80,572,304,4.0,2-3,minor
33518,79,55,252,682,7.0,3-7A,minor
33519,74,57,251,284,7.0,3-7A,minor
33520,74,47,181,678,7.0,3-7A,minor
33521,77,85,189,315,7.0,3-7A,minor
33522,57,35,290,2220,5.0,2-5,other
33523,84,48,668,709,9.0,2-5,other
33524,86,11,252,66,9.0,2-5,other
33525,81,19,310,263,5.0,3-8A,major
33526,81,48,182,579,4.0,1-1,other
33527,81,29,323,1256,2.0,5-35,minor
33528,64,40,145,1817,11.0,2-3,minor
33529,83,31,95,670,4.0,1-1,other
33530,46,51,114,864,2.0,1-1,other
33531,63,37,48,524,2.0,1-1,other
33532,55,22,178,938,0.0,3-9,other
33533,57,62,302,460,0.0,3-9,other
33534,69,42,455,1418,9.0,4-26,minor
33535,63,57,1989,1885,7.0,3-7B,other
33536,65,44,107,508,10.0,2-5,other
33537,70,57,136,181,10.0,2-5,other
33538,77,57,157,194,10.0,2-5,other
33539,77,58,85,521,10.0,2-5,other
33540,82,69,135,161,10.0,2-5,other
33541,77,58,70,208,10.0,2-5,other
33542,82,67,123,190,10.0,2-5,other
33543,87,56,121,213,10.0,2-5,other
33544,89,69,159,178,10.0,2-5,other
33545,86,64,114,217,10.0,2-5,other
33546,87,74,156,221,10.0,2-5,other
33547,89,81,182,240,10.0,2-5,other
33548,86,73,143,297,10.0,2-5,other
33549,87,70,154,224,10.0,2-5,other
33550,89,71,171,199,10.0,2-5,other
33551,65,31,346,99,10.0,2-5,other
33552,62,27,1671,40,10.0,2-5,other
33553,60,17,3447,35,10.0,2-5,other
33554,86,60,112,32,10.0,2-5,other
33555,77,57,72,547,10.0,2-5,other
33556,77,48,78,264,10.0,2-5,other
33557,53,18,2334,71,10.0,2-5,other
33558,77,39,118,259,10.0,2-5,other
33559,77,46,156,363,10.0,2-5,other
33560,77,50,139,271,10.0,2-5,other
33561,62,25,749,232,2.0,2-3,minor
33562,72,39,136,252,2.0,2-3,minor
33563,62,24,566,635,5.0,2-5,other
33564,73,56,1162,448,5.0,2-5,other
33565,56,38,1107,490,5.0,3-4A,other
33566,39,57,101,1454,5.0,2-4,other
33567,69,50,599,447,5.0,3-4A,other
33568,65,43,379,896,1.0,2-3,other
33569,57,44,429,1941,0.0,3-9,other
33570,53,17,2689,2855,3.0,4-22A,major
33571,86,84,688,762,3.0,4-22A,major
33572,60,40,345,263,3.0,4-22A,major
33573,87,74,247,357,3.0,4-22A,major
33574,89,69,157,290,3.0,4-22A,major
33575,46,33,1017,2263,2.0,3-11A,minor
33576,64,32,233,6756,9.0,4-12A,major
33577,64,38,226,507,9.0,4-12A,major
33578,50,44,342,942,6.0,3-11A,minor
33579,55,38,422,4243,11.0,5-35,minor
33580,61,42,316,3310,2.0,2-4,major
33581,79,92,151,3911,2.0,4-26,minor
33582,65,27,362,429,2.0,4-26,minor
33583,69,53,225,494,2.0,4-26,minor
33584,43,22,151,1440,8.0,4-28,diminished
33585,48,17,389,1017,7.0,2-4,major
33586,62,67,814,487,7.0,2-4,major
33587,60,68,812,950,4.0,2-3,minor
33588,59,70,936,945,4.0,2-3,minor
33589,55,51,508,977,4.0,2-3,minor
33590,55,45,75,985,10.0,3-11B,major
33591,58,47,189,481,10.0,3-11B,major
33592,65,55,101,433,10.0,3-11B,major
33593,64,40,345,435,10.0,3-11B,major
33594,61,42,151,893,2.0,2-1,other
33595,64,31,380,61,1.0,3-7A,other
33596,57,38,266,933,5.0,3-9,other
33597,64,56,68,860,4.0,2-5,other
33598,60,42,110,31,4.0,2-5,other
33599,57,26,275,1953,2.0,3-7A,minor
33600,47,51,150,929,2.0,1-1,other
33601,76,52,184,175,9.0,2-6,other
33602,76,48,173,283,4.0,2-5,other
33603,76,46,141,273,4.0,2-5,other
33604,57,33,63,288,2.0,3-2B,minor
33605,76,42,157,203,4.0,2-5,other
33606,76,46,159,266,4.0,2-5,other
33607,76,37,209,303,4.0,2-5,other
33608,40,39,168,84,4.0,2-5,other
33609,80,44,171,57,4.0,2-5,other
33610,76,29,160,157,4.0,2-5,other
33611,76,38,135,271,8.0,2-3,minor
33612,76,39,151,244,4.0,3-11B,major
33613,88,24,54,202,8.0,2-3,minor
33614,76,47,158,303,8.0,2-3,minor
33615,80,28,451,152,8.0,2-3,minor
33616,76,35,215,120,4.0,2-5,other
33617,41,33,186,267,4.0,2-5,other
33618,48,43,329,81,4.0,2-5,other
33619,53,33,928,1125,5.0,4-20,major
33620,67,83,498,1446,9.0,3-7A,minor
33621,65,72,450,487,9.0,3-7A,minor
33622,64,64,379,490,9.0,4-26,minor
33623,63,57,384,982,9.0,3-8B,other
33624,69,38,648,514,0.0,3-11A,minor
33625,60,14,342,36,0.0,3-11A,minor
33626,57,36,375,412,0.0,3-11A,minor
33627,54,28,143,530,2.0,3-8A,major
33628,70,58,293,424,2.0,3-8A,major
33629,57,52,674,557,5.0,4-24,augmented
33630,41,52,129,427,5.0,4-24,augmented
33631,46,54,521,530,2.0,3-11A,minor
33632,53,35,75,461,2.0,3-11A,minor
33633,60,45,2015,546,2.0,2-3,minor
33634,78,42,423,865,2.0,2-5,other
33635,74,47,168,1455,2.0,3-11A,minor
33636,84,66,251,925,0.0,2-1,other
33637,27,39,104,1424,10.0,3-11A,other
33638,82,68,324,1430,1.0,3-10,minor
33639,60,46,608,2488,4.0,2-4,major
33640,38,44,116,2536,9.0,3-10,diminished
33641,51,45,97,774,9.0,3-10,diminished
33642,50,42,473,1827,6.0,3-10,other
33643,43,35,3838,549,4.0,2-6,other
33644,50,22,115,772,4.0,2-6,other
33645,55,47,495,187,10.0,3-11B,major
33646,50,44,687,979,10.0,3-9,other
33647,50,37,144,1850,10.0,3-11B,major
33648,50,48,51,593,7.0,4-26,minor
33649,24,45,77,1464,7.0,4-26,minor
33650,58,40,113,567,1.0,3-11A,minor
33651,57,17,92,1877,9.0,2-3,minor
33652,48,26,121,2781,5.0,3-11B,major
33653,55,33,82,1927,7.0,2-3,minor
33654,36,33,129,947,1.0,4-12A,minor
33655,24,50,184,904,1.0,4-12A,minor
33656,41,39,226,514,1.0,4-12A,minor
33657,76,56,276,489,1.0,4-12A,minor
33658,77,73,465,726,1.0,4-12A,minor
33659,64,31,165,605,1.0,4-12A,minor
33660,72,45,258,573,1.0,4-12A,minor
33661,53,24,134,424,1.0,4-12A,minor
33662,74,61,155,498,1.0,4-12A,minor
33663,76,74,116,492,1.0,4-12A,minor
33664,35,38,90,462,1.0,4-12A,minor
33665,64,35,166,970,1.0,4-12A,minor
33666,56,42,334,594,1.0,4-12A,minor
33667,88,77,145,399,1.0,4-12A,minor
33668,74,50,203,445,1.0,4-12A,minor
33669,62,35,62,465,1.0,4-12A,minor
33670,56,19,68,61,1.0,4-12A,minor
33671,83,80,215,400,1.0,4-12A,minor
33672,76,53,151,484,1.0,4-12A,minor
33673,48,29,233,465,5.0,2-4,major
33674,77,94,226,485,5.0,2-4,major
33675,72,46,307,464,5.0,2-4,major
33676,64,31,367,441,5.0,2-4,major
33677,74,55,407,468,5.0,2-4,major
33678,60,45,343,493,5.0,2-4,major
33679,75,69,693,474,5.0,2-4,major
33680,53,30,131,439,5.0,2-4,major
33681,63,34,218,271,5.0,2-4,major
33682,66,53,227,283,5.0,2-4,major
33683,75,60,195,306,5.0,2-4,major
33684,74,64,190,332,5.0,2-4,major
33685,62,34,132,298,5.0,2-4,major
33686,41,34,144,329,5.0,2-4,major
33687,66,55,199,291,5.0,2-4,major
33688,72,78,298,384,5.0,2-4,major
33689,68,55,136,788,3.0,2-5,other
33690,69,51,178,203,3.0,2-5,other
33691,46,33,112,157,3.0,2-5,other
33692,65,36,259,42,3.0,2-5,other
33693,62,36,64,300,3.0,2-5,other
33694,62,53,127,283,3.0,2-5,other
33695,62,52,123,250,3.0,2-5,other
33696,60,37,100,175,3.0,2-5,other
33697,62,39,128,108,3.0,2-5,other
33698,62,53,121,791,3.0,2-5,other
33699,53,36,164,497,3.0,2-5,other
33700,65,46,227,412,3.0,2-5,other
33701,72,75,272,447,3.0,2-5,other
33702,75,77,1644,452,3.0,2-5,other
33703,63,44,133,427,3.0,2-5,other
33704,61,46,369,430,3.0,2-5,other
33705,70,53,1058,937,8.0,2-3,other
33706,39,46,170,461,8.0,2-3,other
33707,63,37,390,502,8.0,2-3,other
33708,67,36,136,492,8.0,2-3,other
33709,60,52,202,967,0.0,2-4,major
33710,57,24,76,498,0.0,2-4,major
33711,60,44,225,433,0.0,2-4,major
33712,54,54,209,482,0.0,2-4,major
33713,26,48,109,468,0.0,2-4,major
33714,76,66,170,469,0.0,2-4,major
33715,65,34,293,981,2.0,2-4,major
33716,62,33,364,1006,7.0,2-5,other
33717,64,64,121,953,10.0,2-5,other
33718,75,84,162,454,10.0,2-5,other
33719,70,48,284,986,1.0,2-3,other
33720,72,45,175,479,1.0,2-3,other
33721,69,24,92,35,1.0,2-3,other
33722,41,28,151,1406,0.0,2-4,major
33723,60,38,144,1458,9.0,4-26,minor
33724,47,35,84,985,2.0,2-5,other
33725,60,20,201,3950,5.0,2-1,other
33726,69,48,337,1882,0.0,3-11B,major
33727,65,57,205,917,7.0,3-9,other
33728,70,37,256,1452,3.0,2-5,other
33729,75,53,111,243,3.0,2-5,other
33730,76,40,115,218,3.0,2-5,other
33731,82,67,130,254,3.0,2-5,other
33732,87,64,182,197,3.0,2-5,other
33733,89,68,155,265,3.0,2-5,other
33734,41,28,100,176,3.0,2-5,other
33735,86,51,144,549,2.0,2-5,other
33736,85,47,195,681,9.0,2-6,other
33737,84,54,140,131,9.0,2-6,other
33738,83,50,260,136,9.0,2-6,other
33739,65,46,177,447,9.0,2-6,other
33740,84,65,192,26,9.0,2-6,other
33741,81,51,159,265,2.0,2-2,other
33742,82,58,183,381,2.0,2-2,other
33743,53,34,197,181,2.0,2-2,other
33744,84,75,142,325,2.0,2-2,other
33745,81,48,156,209,2.0,2-2,other
33746,77,28,153,268,2.0,2-2,other
33747,65,36,197,160,2.0,2-2,other
33748,60,25,1256,73,7.0,2-5,other
33749,81,22,100,275,7.0,2-5,other
33750,74,36,192,197,7.0,2-5,other
33751,74,53,181,497,7.0,2-5,other
33752,77,53,210,499,7.0,2-5,other
33753,72,30,151,302,7.0,2-5,other
33754,75,42,140,499,1.0,1-1,other
33755,72,20,224,213,1.0,1-1,other
33756,61,25,292,513,5.0,3-6,other
33757,72,49,126,272,5.0,3-6,other
33758,72,35,149,486,1.0,2-2,other
33759,56,30,385,221,5.0,3-6,other
33760,55,34,170,960,1.0,3-2B,other
33761,72,37,145,250,1.0,3-2B,other
33762,48,44,2489,1174,5.0,3-4B,other
33763,71,58,139,236,5.0,3-4B,other
33764,76,38,210,239,5.0,2-5,other
33765,41,31,468,851,5.0,2-5,other
33766,57,34,400,30,5.0,2-5,other
33767,71,59,125,748,0.0,2-4,major
33768,71,57,179,987,0.0,2-4,major
33769,69,24,145,985,3.0,2-5,other
33770,58,29,216,224,3.0,2-5,other
33771,67,39,112,1304,9.0,2-6,other
33772,41,35,222,634,9.0,2-6,other
33773,67,39,130,763,9.0,2-6,other
33774,46,39,1251,192,9.0,2-6,other
33775,53,39,440,504,2.0,2-5,other
33776,69,22,613,1478,2.0,2-4,major
33777,55,69,491,420,2.0,2-4,major
33778,54,52,127,756,2.0,3-11B,major
33779,53,44,177,346,2.0,3-11B,major
33780,40,45,85,869,2.0,3-9,other
33781,74,55,139,710,2.0,3-9,other
33782,81,55,114,205,2.0,3-9,other
33783,84,73,96,251,2.0,3-9,other
33784,82,38,73,259,2.0,3-9,other
33785,69,41,96,231,2.0,3-9,other
33786,73,33,136,206,2.0,3-9,other
33787,81,65,134,257,2.0,3-9,other
33788,61,32,157,202,2.0,3-9,other
33789,70,38,115,280,2.0,3-9,other
33790,79,59,154,216,2.0,3-9,other
33791,78,50,93,275,2.0,3-9,other
33792,50,57,111,183,2.0,3-9,other
33793,69,45,135,269,2.0,3-9,other
33794,75,50,115,200,2.0,3-9,other
33795,64,49,106,249,2.0,3-9,other
33796,59,56,100,495,2.0,3-9,other
33797,66,28,248,198,2.0,3-9,other
33798,69,32,164,516,2.0,3-9,other
33799,54,50,147,474,2.0,3-9,other
33800,61,46,190,471,2.0,3-9,other
33801,64,51,86,260,2.0,3-9,other
33802,66,40,310,218,2.0,3-9,other
33803,55,18,457,533,2.0,3-9,other
33804,69,17,72,334,2.0,3-6,major
33805,47,36,230,1035,4.0,2-3,minor
33806,69,50,307,984,5.0,3-4A,other
33807,59,53,115,306,5.0,3-4A,other
33808,58,63,62,100,5.0,3-4A,other
33809,50,42,901,1092,6.0,2-5,other
33810,81,66,162,898,6.0,2-5,other
33811,69,39,80,286,6.0,2-5,other
33812,69,35,95,1423,1.0,2-2,other
33813,69,40,128,961,1.0,2-2,other
33814,69,32,132,941,2.0,2-2,other
33815,74,54,231,228,0.0,2-5,other
33816,69,33,148,758,2.0,2-2,other
33817,65,37,394,171,2.0,2-2,other
33818,72,27,226,28,2.0,2-2,other
33819,74,41,164,27,2.0,2-2,other
33820,67,35,77,925,11.0,2-3,minor
33821,67,34,184,482,7.0,3-11B,major
33822,69,81,447,2402,4.0,2-5,other
33823,67,58,431,494,4.0,2-5,other
33824,55,42,177,1906,3.0,3-11B,major
33825,43,22,90,964,2.0,2-3,minor
33826,58,37,74,1489,1.0,4-27A,minor
33827,48,53,2391,499,2.0,4-23,minor
33828,64,59,206,1518,2.0,4-23,minor
33829,53,30,60,58,4.0,3-11B,major
33830,53,58,148,718,2.0,4-26,minor
33831,58,31,66,351,2.0,4-26,minor
33832,60,51,268,292,2.0,4-26,minor
33833,57,29,186,65,0.0,3-11B,major
33834,64,42,351,2983,11.0,3-8B,other
33835,65,22,218,136,11.0,3-8B,other
33836,70,48,155,533,4.0,3-3A,major
33837,65,22,149,431,4.0,4-15A,other
33838,65,50,87,529,4.0,3-8B,other
33839,71,32,203,488,5.0,3-4A,major
33840,72,40,246,2383,9.0,3-7B,other
33841,46,27,195,5306,5.0,2-4,major
33842,84,69,114,884,5.0,2-4,major
33843,65,33,552,37,5.0,2-4,major
33844,83,51,151,29,5.0,2-4,major
33845,82,60,151,127,2.0,2-2,other
33846,81,58,98,144,2.0,2-2,other
33847,77,36,92,169,2.0,2-2,other
33848,74,45,79,484,2.0,2-2,other
33849,69,38,393,447,2.0,2-2,other
33850,62,19,105,499,5.0,2-5,other
33851,70,52,149,260,5.0,2-5,other
33852,69,47,195,230,5.0,2-5,other
33853,70,62,151,280,5.0,2-5,other
33854,65,35,230,132,5.0,2-5,other
33855,56,31,300,68,9.0,2-4,major
33856,61,56,326,481,9.0,2-4,major
33857,27,51,110,1924,1.0,2-3,other
33858,70,49,184,804,5.0,2-5,other
33859,55,30,172,444,9.0,3-11A,minor
33860,84,80,167,570,9.0,3-11A,minor
33861,72,34,227,208,9.0,3-11A,minor
33862,60,30,96,470,9.0,2-5,other
33863,69,30,261,442,9.0,2-5,other
33864,76,74,172,492,9.0,2-5,other
33865,62,55,1059,290,9.0,2-5,other
33866,52,52,67,405,9.0,2-5,other
33867,30,40,225,1894,2.0,1-1,other
33868,74,82,107,207,2.0,1-1,other
33869,38,13,461,49,2.0,1-1,other
33870,74,37,174,237,2.0,1-1,other
33871,69,30,137,438,2.0,1-1,other
33872,72,62,162,192,2.0,1-1,other
33873,72,60,160,275,2.0,1-1,other
33874,66,30,105,457,2.0,1-1,other
33875,69,43,137,205,2.0,2-2,other
33876,69,54,140,259,2.0,2-2,other
33877,54,26,50,80,2.0,2-2,other
33878,62,30,106,116,2.0,2-2,other
33879,62,35,96,331,2.0,2-2,other
33880,65,57,153,458,7.0,2-2,other
33881,58,30,121,237,7.0,2-2,other
33882,58,56,83,275,7.0,2-2,other
33883,62,37,170,212,7.0,2-2,other
33884,62,62,148,265,7.0,2-2,other
33885,53,24,111,253,7.0,2-2,other
33886,43,18,62,66,7.0,2-2,other
33887,53,45,100,202,7.0,2-2,other
33888,43,32,188,52,7.0,2-2,other
33889,62,49,118,907,2.0,1-1,other
33890,50,49,149,28,2.0,1-1,other
33891,65,71,137,168,2.0,1-1,other
33892,53,45,110,28,2.0,1-1,other
33893,65,62,158,236,2.0,1-1,other
33894,53,44,119,40,2.0,1-1,other
33895,62,32,85,192,2.0,1-1,other
33896,51,17,103,2041,4.0,1-1,other
33897,63,46,44,73,4.0,1-1,other
33898,62,31,137,88,4.0,1-1,other
33899,49,35,169,50,4.0,1-1,other
33900,61,51,115,88,4.0,1-1,other
33901,45,34,220,2017,8.0,1-1,other
33902,57,26,118,49,8.0,1-1,other
33903,60,45,154,222,8.0,1-1,other
33904,48,34,118,31,8.0,1-1,other
33905,60,29,63,477,2.0,1-1,other
33906,62,52,203,604,5.0,1-1,other
33907,48,39,152,31,5.0,1-1,other
33908,43,26,117,3358,7.0,4-26,minor
33909,62,32,86,439,7.0,4-26,minor
33910,58,15,122,39,7.0,4-26,minor
33911,61,51,1506,298,4.0,3-10,diminished
33912,39,60,485,657,4.0,3-10,diminished
33913,40,50,945,498,4.0,3-10,diminished
33914,41,46,865,965,4.0,3-10,diminished
33915,64,101,361,643,4.0,3-10,diminished
33916,35,45,924,319,4.0,3-10,diminished
33917,65,65,383,51,4.0,3-10,diminished
33918,60,80,566,592,4.0,3-10,diminished
33919,34,18,204,40,4.0,3-10,diminished
33920,36,44,895,240,4.0,3-10,diminished
33921,62,33,147,312,4.0,3-10,diminished
33922,60,42,243,103,4.0,3-10,diminished
33923,59,45,127,239,4.0,3-10,diminished
33924,29,27,954,239,4.0,3-10,diminished
33925,60,52,675,36,4.0,3-10,diminished
33926,62,54,285,608,4.0,3-10,diminished
33927,76,71,241,982,4.0,2-5,other
33928,65,54,154,297,4.0,2-5,other
33929,46,35,386,629,4.0,2-5,other
33930,40,50,786,330,4.0,2-5,other
33931,44,18,182,718,8.0,3-7B,other
33932,47,41,483,231,8.0,3-7B,other
33933,62,53,131,308,8.0,3-7B,other
33934,39,25,217,123,8.0,3-7B,other
33935,40,58,302,226,8.0,3-7B,other
33936,57,32,201,356,0.0,4-14B,major
33937,36,43,216,606,0.0,4-14B,major
33938,29,35,822,314,2.0,4-26,minor
33939,57,42,879,735,0.0,3-11B,major
33940,41,34,712,258,0.0,3-11B,major
33941,38,40,233,677,0.0,3-11B,major
33942,40,47,322,921,2.0,3-11A,minor
33943,39,39,50,1040,0.0,5-35,minor
33944,55,57,543,299,5.0,4-27B,major
33945,48,25,123,750,5.0,4-27B,major
33946,41,50,719,192,5.0,4-27B,major
33947,57,24,667,910,9.0,2-6,other
33948,56,68,210,1559,10.0,4-20,major
33949,55,50,149,270,10.0,4-20,major
33950,53,48,708,305,2.0,4-26,minor
33951,53,27,182,856,2.0,4-26,minor
33952,41,54,1229,614,2.0,4-26,minor
33953,34,42,804,885,2.0,3-7B,other
33954,40,56,289,959,10.0,2-5,other
33955,39,44,238,2218,2.0,2-3,minor
33956,63,60,195,50,2.0,2-3,minor
33957,53,28,139,603,10.0,1-1,other
33958,36,58,250,962,9.0,3-7A,minor
33959,40,58,573,318,9.0,3-7A,minor
33960,37,42,266,639,9.0,3-7A,minor
33961,38,37,743,319,9.0,3-7A,minor
33962,26,41,263,653,10.0,3-8B,other
33963,32,49,714,324,10.0,3-8B,other
33964,31,35,329,970,10.0,4-20,major
33965,38,50,206,391,10.0,4-20,major
33966,34,61,260,327,10.0,4-20,major
33967,35,55,648,343,10.0,4-20,major
33968,36,66,1580,621,10.0,4-20,major
33969,64,54,229,604,10.0,4-20,major
33970,56,62,136,26,10.0,4-20,major
33971,61,34,167,28,10.0,4-20,major
33972,34,45,411,294,10.0,4-20,major
33973,73,42,218,349,4.0,2-4,major
33974,65,51,50,29,4.0,2-4,major
33975,34,35,287,261,4.0,2-4,major
33976,29,34,356,1229,2.0,4-23,minor
33977,65,62,331,924,0.0,2-4,major
33978,36,20,177,74,0.0,2-4,major
33979,41,36,808,192,0.0,2-4,major
33980,60,46,1542,74,0.0,2-4,major
33981,38,24,144,664,0.0,2-4,major
33982,33,44,277,835,0.0,2-4,major
33983,62,51,2041,34,0.0,2-4,major
33984,39,67,706,1292,4.0,2-5,other
33985,35,39,274,700,4.0,2-5,other
33986,76,92,165,944,2.0,3-9,other
33987,28,40,450,267,2.0,3-9,other
33988,68,51,213,60,2.0,3-9,other
33989,64,36,68,288,2.0,3-9,other
33990,71,49,235,612,8.0,2-6,other
33991,33,46,438,44,8.0,2-6,other
33992,72,58,238,270,8.0,2-6,other
33993,29,46,1227,274,8.0,2-6,other
33994,69,51,263,39,8.0,2-6,other
33995,64,30,90,378,8.0,2-6,other
33996,60,39,165,268,8.0,2-6,other
33997,36,36,428,262,8.0,2-6,other
33998,57,56,1727,40,8.0,2-6,other
33999,45,52,991,979,8.0,2-6,other
34000,55,39,155,735,8.0,2-6,other
34001,58,53,364,640,9.0,2-2,other
34002,48,33,1822,38,9.0,2-2,other
34003,55,37,132,272,9.0,2-2,other
34004,57,49,150,255,9.0,2-2,other
34005,58,61,167,218,9.0,2-2,other
34006,36,36,727,151,9.0,2-2,other
34007,60,36,183,90,9.0,2-2,other
34008,62,63,149,221,9.0,2-2,other
34009,65,63,209,471,3.0,2-1,other
34010,41,44,1672,190,3.0,2-1,other
34011,59,50,122,381,3.0,2-1,other
34012,60,59,189,218,3.0,2-1,other
34013,62,71,202,248,3.0,2-1,other
34014,53,33,1150,89,3.0,2-1,other
34015,63,60,166,144,3.0,2-1,other
34016,65,66,169,237,3.0,2-1,other
34017,67,48,307,227,3.0,2-1,other
34018,69,65,207,244,3.0,2-1,other
34019,46,34,3304,85,3.0,2-1,other
34020,72,50,233,214,3.0,2-1,other
34021,69,50,120,350,3.0,2-1,other
34022,66,59,190,330,3.0,2-1,other
34023,66,47,49,589,2.0,2-5,other
34024,57,50,145,43,2.0,2-5,other
34025,66,55,101,251,2.0,2-5,other
34026,62,37,1068,39,2.0,2-5,other
34027,65,62,2255,44,2.0,2-5,other
34028,55,48,160,196,2.0,2-5,other
34029,53,62,1147,648,2.0,2-5,other
34030,46,46,252,893,10.0,2-4,major
34031,53,16,446,471,1.0,3-7A,other
34032,61,25,620,808,5.0,4-19B,other
34033,67,40,481,944,5.0,2-4,other
34034,27,50,474,593,5.0,2-4,other
34035,55,25,719,394,1.0,3-7B,other
34036,48,70,326,1498,9.0,3-7A,minor
34037,50,58,292,349,9.0,3-7A,minor
34038,48,36,336,324,9.0,3-7A,minor
34039,50,49,316,329,9.0,3-7A,minor
34040,48,41,303,347,9.0,3-7A,minor
34041,50,64,419,321,9.0,3-7A,minor
34042,48,44,344,337,9.0,3-7A,minor
34043,48,53,341,695,9.0,4-23,minor
34044,48,44,349,667,3.0,4-20,major
34045,48,57,299,658,3.0,4-20,major
34046,55,37,343,349,3.0,2-5,other
34047,48,51,342,318,3.0,2-5,other
34048,55,37,121,334,3.0,3-9,other
34049,41,37,1050,310,3.0,3-9,other
34050,55,38,247,294,3.0,2-5,other
34051,48,38,497,272,3.0,2-5,other
34052,55,49,233,314,10.0,2-5,other
34053,41,48,132,503,10.0,2-5,other
34054,67,36,257,1321,10.0,4-20,major
34055,51,43,201,668,10.0,4-20,major
34056,52,37,115,139,10.0,4-20,major
34057,62,56,426,78,10.0,2-5,other
34058,52,47,137,334,10.0,2-5,other
34059,51,62,131,122,10.0,2-5,other
34060,50,46,894,167,7.0,3-11A,minor
34061,59,36,57,1817,7.0,3-9,other
34062,69,53,436,493,7.0,3-9,other
34063,69,32,288,513,7.0,3-9,other
34064,55,30,282,1498,1.0,3-10,minor
34065,61,34,634,1891,6.0,3-7A,minor
34066,73,47,99,208,6.0,3-7A,minor
34067,69,34,409,1727,1.0,2-3,minor
34068,40,49,150,954,6.0,2-2,other
34069,68,23,110,517,0.0,3-4A,major
34070,57,51,159,427,0.0,3-4A,major
34071,81,68,144,485,0.0,3-4A,major
34072,55,24,150,493,6.0,4-8,other
34073,55,42,176,491,5.0,4-8,other
34074,55,44,532,495,6.0,4-8,other
34075,81,56,110,408,6.0,4-8,other
34076,59,54,253,1555,6.0,3-7B,other
34077,61,20,130,351,6.0,4-26,minor
34078,59,54,230,1063,1.0,5-24A,minor
34079,59,54,238,493,6.0,3-7B,other
34080,84,30,141,1958,5.0,2-4,major
34081,55,60,493,2709,4.0,4-26,minor
34082,79,54,183,620,4.0,4-26,minor
34083,55,32,199,1845,7.0,3-11B,major
34084,76,22,303,1031,7.0,4-26,minor
34085,65,58,338,423,7.0,3-7A,minor
34086,70,51,300,475,7.0,3-7B,other
34087,68,42,245,1440,0.0,4-25,major
34088,68,40,253,1423,0.0,4-25,major
34089,69,45,195,480,9.0,3-11A,minor
34090,60,55,442,499,9.0,4-26,minor
34091,53,47,1334,900,2.0,5-27B,minor
34092,69,47,833,471,0.0,4-22A,major
34093,60,58,597,479,0.0,4-22A,major
34094,40,47,138,974,5.0,2-4,major
34095,64,64,758,487,5.0,4-16A,major
34096,70,32,651,1954,4.0,3-3A,major
34097,76,57,1304,1680,4.0,4-15A,other
34098,73,42,44,41,4.0,4-15A,other
34099,74,49,278,26,4.0,4-15A,other
34100,72,42,1195,37,4.0,4-15A,other
34101,69,48,1069,72,4.0,4-15A,other
34102,67,52,682,96,4.0,4-15A,other
34103,57,24,445,57,5.0,2-5,other
34104,57,32,972,923,5.0,3-4B,other
34105,77,96,294,442,5.0,3-4B,other
34106,64,34,490,912,9.0,3-7A,minor
34107,62,37,280,469,9.0,3-7A,minor
34108,74,58,94,479,9.0,3-7A,minor
34109,81,62,122,965,9.0,3-7A,minor
34110,75,60,175,280,9.0,3-7A,minor
34111,72,41,191,220,9.0,3-7A,minor
34112,69,47,142,274,9.0,3-7A,minor
34113,65,42,376,207,9.0,3-7A,minor
34114,50,25,104,517,2.0,2-4,major
34115,62,46,156,425,2.0,2-4,major
34116,56,42,186,974,2.0,2-4,major
34117,84,95,212,491,2.0,2-4,major
34118,82,64,151,286,2.0,2-4,major
34119,81,46,263,221,2.0,2-4,major
34120,78,38,115,285,2.0,2-4,major
34121,81,64,256,201,5.0,2-5,other
34122,62,36,1011,31,5.0,2-5,other
34123,77,26,55,280,5.0,2-5,other
34124,74,35,73,462,7.0,2-2,other
34125,77,54,181,180,7.0,2-2,other
34126,69,46,496,295,7.0,2-2,other
34127,69,40,328,663,2.0,2-3,minor
34128,69,47,249,455,2.0,2-3,minor
34129,69,53,199,503,5.0,3-11B,other
34130,70,47,127,190,5.0,3-11B,other
34131,71,43,96,142,5.0,3-11B,other
34132,72,68,424,112,5.0,3-11B,other
34133,70,53,759,963,5.0,3-12,augmented
34134,61,43,413,435,5.0,3-12,augmented
34135,55,33,1209,41,5.0,3-12,augmented
34136,70,75,162,492,5.0,3-12,augmented
34137,61,33,184,26,5.0,3-12,augmented
34138,70,71,139,271,5.0,3-12,augmented
34139,72,58,193,200,5.0,2-4,other
34140,72,57,191,260,5.0,2-4,other
34141,70,59,161,215,5.0,2-4,other
34142,70,62,100,296,5.0,2-4,other
34143,59,34,150,688,0.0,2-4,major
34144,59,39,153,464,0.0,2-4,major
34145,59,24,93,546,9.0,3-11A,minor
34146,57,37,180,884,0.0,3-4A,major
34147,57,28,140,1016,0.0,3-4A,major
34148,50,28,294,2808,9.0,3-7A,minor
34149,50,27,120,541,6.0,4-13A,diminished
34150,58,58,334,3797,10.0,2-5,other
34151,77,64,420,1967,2.0,4-23,minor
34152,73,38,763,1820,7.0,2-3,minor
34153,79,52,404,153,1.0,2-3,minor
34154,67,27,771,729,1.0,2-3,minor
34155,77,54,335,145,2.0,3-7B,other
34156,72,42,77,963,2.0,4-22B,minor
34157,77,56,115,2394,5.0,3-5B,other
34158,67,70,225,986,7.0,3-11A,minor
34159,75,53,267,1903,10.0,1-1,other
34160,87,46,82,32,10.0,1-1,other
34161,92,55,595,420,10.0,1-1,other
34162,99,40,122,486,10.0,1-1,other
34163,84,38,0,447,10.0,1-1,other
34164,57,26,1143,1988,0.0,3-9,other
34165,74,56,114,1499,0.0,3-9,other
34166,76,72,108,400,0.0,3-9,other
34167,77,54,147,113,0.0,3-9,other
34168,76,40,131,113,0.0,3-9,other
34169,77,38,78,149,0.0,3-9,other
34170,76,28,131,82,0.0,3-9,other
34171,77,33,71,149,0.0,3-9,other
34172,76,37,146,64,0.0,3-9,other
34173,77,40,67,163,0.0,3-9,other
34174,76,33,141,66,0.0,3-9,other
34175,76,30,138,232,5.0,2-1,other
34176,77,35,74,156,5.0,2-1,other
34177,76,46,137,70,5.0,2-1,other
34178,77,40,76,145,5.0,2-1,other
34179,76,36,143,79,5.0,2-1,other
34180,77,41,86,151,5.0,2-1,other
34181,76,35,133,90,5.0,2-1,other
34182,77,46,94,139,5.0,2-1,other
34183,76,32,155,82,8.0,2-6,other
34184,77,44,94,162,8.0,2-6,other
34185,76,29,152,71,8.0,2-6,other
34186,77,41,81,166,8.0,2-6,other
34187,76,38,139,84,8.0,2-6,other
34188,77,45,116,132,8.0,2-6,other
34189,76,26,163,89,8.0,2-6,other
34190,40,35,71,126,8.0,2-6,other
34191,77,38,85,32,8.0,2-6,other
34192,76,24,182,64,8.0,2-6,other
34193,77,37,88,168,8.0,2-6,other
34194,76,35,130,94,8.0,2-6,other
34195,77,48,107,122,8.0,2-6,other
34196,76,35,121,112,8.0,2-6,other
34197,77,46,104,126,8.0,2-6,other
34198,76,39,151,89,8.0,2-6,other
34199,41,57,155,85,8.0,2-6,other
34200,77,54,118,61,8.0,2-6,other
34201,76,55,141,107,8.0,2-6,other
34202,77,49,124,135,8.0,2-6,other
34203,76,54,138,103,8.0,2-6,other
34204,77,48,127,142,8.0,2-6,other
34205,76,55,142,95,8.0,2-6,other
34206,77,62,152,141,8.0,2-6,other
34207,76,53,146,115,8.0,2-6,other
34208,64,92,597,54,8.0,2-6,other
34209,77,69,139,76,8.0,2-6,other
34210,76,55,138,117,8.0,2-6,other
34211,77,62,118,130,8.0,2-6,other
34212,76,61,156,109,8.0,2-6,other
34213,77,63,188,179,8.0,2-6,other
34214,77,60,137,288,5.0,2-1,other
34215,76,55,147,114,5.0,2-1,other
34216,77,62,146,136,5.0,2-1,other
34217,76,55,200,139,5.0,2-1,other
34218,76,64,144,292,5.0,2-5,other
34219,77,52,117,133,5.0,2-5,other
34220,76,56,173,115,5.0,2-5,other
34221,77,72,160,178,5.0,2-5,other
34222,62,84,259,41,5.0,2-5,other
34223,76,62,140,106,5.0,2-5,other
34224,77,55,124,136,5.0,2-5,other
34225,76,46,219,120,5.0,2-5,other
34226,77,35,467,195,5.0,2-5,other
34227,75,75,147,190,5.0,2-5,other
34228,75,36,131,245,3.0,2-4,major
34229,77,55,156,132,3.0,2-4,major
34230,75,42,278,129,3.0,2-4,major
34231,77,42,172,136,3.0,2-4,major
34232,63,53,194,391,3.0,2-4,major
34233,57,40,175,51,3.0,2-4,major
34234,42,46,165,575,3.0,2-4,major
34235,51,20,307,405,10.0,2-5,other
34236,62,26,1680,1953,10.0,3-12,augmented
34237,69,22,1712,40,10.0,3-12,augmented
34238,55,53,428,449,10.0,3-12,augmented
34239,57,59,520,480,10.0,3-12,augmented
34240,54,53,509,510,10.0,3-12,augmented
34241,69,24,922,540,7.0,3-4B,other
34242,56,38,237,1871,10.0,3-11A,other
34243,61,40,1388,876,10.0,3-11A,other
34244,56,30,808,55,5.0,2-5,other
34245,72,38,130,234,5.0,2-5,other
34246,73,49,201,128,5.0,2-5,other
34247,72,14,142,118,5.0,2-5,other
34248,69,24,91,197,5.0,2-5,other
34249,70,46,576,177,5.0,2-5,other
34250,27,57,109,992,7.0,2-2,other
34251,57,80,108,1518,0.0,3-9,other
34252,52,54,403,466,0.0,3-9,other
34253,38,39,472,899,9.0,2-2,other
34254,58,57,175,2471,7.0,3-7B,other
34255,64,30,163,526,4.0,5-25A,diminished
34256,76,79,268,1396,0.0,2-1,other
34257,88,74,364,910,1.0,3-11A,minor
34258,77,78,403,2004,5.0,4-20,major
34259,71,63,445,1437,0.0,2-4,major
34260,74,36,82,485,7.0,3-11A,minor
34261,57,60,360,470,9.0,3-9,other
34262,47,46,56,432,9.0,3-9,other
34263,64,38,385,521,11.0,3-8B,other
34264,52,33,290,1893,7.0,3-5B,other
34265,47,36,79,434,7.0,3-5B,other
34266,71,62,292,1504,1.0,4-17,minor
34267,57,39,895,1125,9.0,4-26,minor
34268,67,34,145,2043,0.0,2-5,other
34269,69,28,103,183,0.0,2-5,other
34270,70,46,53,87,0.0,2-5,other
34271,72,30,125,151,0.0,2-5,other
34272,74,56,116,109,0.0,2-5,other
34273,77,51,116,286,3.0,2-1,other
34274,81,40,170,215,3.0,2-1,other
34275,82,58,110,153,3.0,2-1,other
34276,83,45,153,116,3.0,2-1,other
34277,84,71,135,113,3.0,2-1,other
34278,57,28,1707,146,3.0,2-4,major
34279,81,60,54,85,3.0,2-4,major
34280,77,58,58,285,3.0,2-4,major
34281,75,58,183,279,3.0,2-4,major
34282,74,64,153,326,3.0,2-4,major
34283,72,57,152,334,3.0,2-4,major
34284,70,60,204,267,3.0,2-4,major
34285,69,38,108,233,3.0,2-4,major
34286,65,32,232,181,3.0,2-4,major
34287,70,58,117,335,2.0,2-2,other
34288,69,57,135,275,2.0,2-2,other
34289,65,43,144,256,2.0,2-2,other
34290,53,40,375,53,2.0,2-2,other
34291,57,40,109,501,2.0,2-2,other
34292,57,32,65,311,10.0,2-4,major
34293,57,42,282,1209,10.0,3-11B,major
34294,46,31,58,1630,5.0,3-11B,other
34295,46,45,54,834,5.0,3-11B,other
34296,58,49,226,979,7.0,2-5,other
34297,50,51,118,924,3.0,3-11B,major
34298,58,13,88,36,3.0,3-11B,major
34299,41,29,634,348,9.0,3-7A,minor
34300,48,45,331,585,9.0,3-7A,minor
34301,62,55,109,332,9.0,3-7A,minor
34302,57,34,82,36,9.0,3-7A,minor
34303,67,48,376,244,9.0,3-7A,minor
34304,72,56,145,309,9.0,3-7A,minor
34305,64,31,281,1302,5.0,2-5,other
34306,53,1,698,1562,3.0,3-11B,major
34307,81,36,51,103,7.0,2-5,other
34308,82,63,526,309,7.0,2-5,other
34309,53,40,206,2896,10.0,4-20,major
34310,60,36,1363,972,2.0,2-3,minor
34311,72,54,183,299,2.0,2-3,minor
34312,73,55,153,205,2.0,2-3,minor
34313,76,64,101,215,2.0,2-3,minor
34314,53,18,1644,184,2.0,2-3,minor
34315,77,71,117,254,2.0,2-3,minor
34316,78,60,105,225,2.0,2-3,minor
34317,77,22,54,313,2.0,2-3,minor
34318,84,70,120,452,9.0,2-3,minor
34319,85,69,137,230,9.0,2-3,minor
34320,86,67,157,200,9.0,2-3,minor
34321,88,71,131,219,9.0,2-3,minor
34322,62,44,60,1033,9.0,2-5,other
34323,59,27,59,61,9.0,2-5,other
34324,59,58,68,265,9.0,2-5,other
34325,62,71,143,284,9.0,2-5,other
34326,52,29,182,76,9.0,2-5,other
34327,45,40,1674,295,1.0,4-28,diminished
34328,64,24,359,925,1.0,3-10,other
34329,76,52,191,2886,1.0,2-3,minor
34330,73,40,288,528,1.0,2-3,minor
34331,54,51,184,965,9.0,3-11B,major
34332,59,46,498,402,2.0,4-14B,major
34333,66,47,467,889,2.0,2-5,other
34334,62,37,352,33,2.0,2-5,other
34335,59,34,471,36,2.0,2-5,other
34336,96,87,239,255,2.0,2-5,other
34337,94,55,246,214,2.0,2-5,other
34338,89,53,161,171,2.0,2-5,other
34339,85,48,129,110,2.0,2-5,other
34340,55,32,1560,222,6.0,3-5A,other
34341,82,63,147,187,6.0,3-5A,other
34342,84,64,113,247,6.0,3-5A,other
34343,82,47,202,59,6.0,3-5A,other
34344,81,52,166,154,6.0,3-5A,other
34345,80,60,194,263,6.0,3-5A,other
34346,79,41,154,198,6.0,2-5,other
34347,78,57,186,212,6.0,2-5,other
34348,77,42,173,185,6.0,2-5,other
34349,76,35,96,270,6.0,2-5,other
34350,59,33,535,211,6.0,1-1,other
34351,73,37,173,227,6.0,1-1,other
34352,69,44,167,270,6.0,1-1,other
34353,61,25,531,528,6.0,1-1,other
34354,59,31,305,67,6.0,1-1,other
34355,64,61,178,253,6.0,1-1,other
34356,66,84,243,270,6.0,1-1,other
34357,59,33,182,360,9.0,3-11B,major
34358,57,25,52,904,6.0,3-7B,other
34359,74,71,197,5141,4.0,3-11A,minor
34360,75,69,211,263,4.0,3-11A,minor
34361,76,47,158,296,4.0,3-11A,minor
34362,79,34,73,318,4.0,3-11A,minor
34363,81,48,169,257,4.0,3-11A,minor
34364,84,72,161,320,4.0,3-11A,minor
34365,81,33,196,307,4.0,3-11A,minor
34366,82,51,187,268,4.0,3-11A,minor
34367,86,60,139,311,4.0,3-11A,minor
34368,89,41,131,319,4.0,3-11A,minor
34369,93,73,211,288,4.0,3-11A,minor
34370,62,35,798,312,4.0,3-11A,minor
34371,95,64,160,475,5.0,2-4,major
34372,94,50,120,111,5.0,2-4,major
34373,93,53,130,136,5.0,2-4,major
34374,90,60,263,404,10.0,2-4,major
34375,93,66,224,298,10.0,2-4,major
34376,91,69,646,337,10.0,2-4,major
34377,52,28,198,332,10.0,2-4,major
34378,87,43,198,336,10.0,2-4,major
34379,89,62,210,286,10.0,2-4,major
34380,88,60,232,983,9.0,3-5B,other
34381,57,36,472,333,5.0,3-4B,other
34382,74,24,224,983,4.0,3-11B,major
34383,60,67,840,1499,2.0,2-5,other
34384,59,40,56,857,4.0,3-7A,minor
34385,71,44,92,459,5.0,4-16A,major
34386,88,84,333,491,5.0,4-16A,major
34387,62,46,427,1469,8.0,3-7B,other
34388,56,48,72,433,8.0,3-7B,other
34389,52,31,61,988,8.0,3-10,other
34390,69,66,377,1955,0.0,4-14B,major
34391,63,47,312,2275,0.0,2-5,other
34392,55,41,238,45,0.0,2-5,other
34393,39,30,203,1615,9.0,3-8B,other
34394,27,30,215,26,9.0,3-8B,other
34395,38,36,192,325,2.0,2-4,major
34396,70,44,505,1924,7.0,2-3,minor
34397,65,78,973,1489,2.0,3-11A,minor
34398,64,71,410,944,2.0,3-11A,minor
34399,63,50,381,481,2.0,3-11A,minor
34400,62,41,118,443,2.0,3-11A,minor
34401,53,30,1256,1085,1.0,3-7A,other
34402,70,64,283,849,5.0,3-11B,other
34403,70,51,224,1874,1.0,2-2,other
34404,65,18,68,27,1.0,2-2,other
34405,55,36,322,454,9.0,3-11A,minor
34406,64,41,210,911,9.0,3-11A,minor
34407,68,50,64,526,9.0,2-3,minor
34408,69,33,125,661,4.0,2-4,major
34409,68,44,138,88,4.0,2-4,major
34410,64,52,90,109,4.0,2-4,major
34411,67,63,128,172,4.0,2-4,major
34412,69,37,154,162,4.0,2-4,major
34413,67,34,92,141,4.0,2-4,major
34414,64,48,56,97,4.0,2-4,major
34415,55,34,720,80,4.0,2-4,major
34416,67,76,109,632,4.0,2-4,major
34417,69,50,139,133,4.0,2-4,major
34418,67,42,118,119,4.0,2-4,major
34419,64,51,98,117,4.0,2-4,major
34420,54,28,275,1131,0.0,2-4,major
34421,67,53,198,1105,6.0,2-6,other
34422,68,50,143,236,6.0,2-6,other
34423,69,40,113,178,6.0,2-6,other
34424,70,55,112,156,6.0,2-6,other
34425,71,53,121,156,6.0,3-8B,other
34426,72,32,139,162,6.0,3-8B,other
34427,73,36,108,78,6.0,3-8B,other
34428,75,42,112,241,6.0,3-8B,other
34429,76,36,121,128,6.0,3-8B,other
34430,77,58,154,114,6.0,3-8B,other
34431,77,69,626,576,10.0,5-20B,major
34432,43,48,139,500,10.0,5-20B,major
34433,67,46,477,1020,7.0,4-23,minor
34434,75,35,47,1751,7.0,5-27B,minor
34435,43,34,271,35,7.0,5-27B,minor
34436,74,41,610,58,0.0,4-16B,major
34437,76,26,938,1895,1.0,4-28,diminished
34438,58,35,379,889,1.0,4-28,diminished
34439,87,67,725,8683,1.0,3-10,minor
34440,57,24,323,67,5.0,2-5,other
34441,88,66,306,556,5.0,2-5,other
34442,60,25,55,370,5.0,2-1,other
34443,84,57,236,583,5.0,2-1,other
34444,41,44,170,335,5.0,2-1,other
34445,64,45,121,903,5.0,2-1,other
34446,57,24,104,80,5.0,2-5,other
34447,40,44,172,924,5.0,2-5,other
34448,52,20,236,34,5.0,2-5,other
34449,62,47,50,946,9.0,2-5,other
34450,28,60,116,918,4.0,2-5,other
34451,89,91,532,44,4.0,2-5,other
34452,88,56,182,463,4.0,2-5,other
34453,87,53,113,145,4.0,2-5,other
34454,86,50,81,128,4.0,2-5,other
34455,41,44,137,1119,7.0,3-5B,other
34456,100,110,175,653,7.0,3-5B,other
34457,100,78,218,253,7.0,3-5B,other
34458,57,39,66,117,0.0,2-4,major
34459,101,79,149,217,0.0,2-4,major
34460,101,74,223,262,0.0,2-4,major
34461,96,76,157,227,0.0,2-4,major
34462,98,73,147,546,0.0,1-1,other
34463,98,66,185,242,0.0,1-1,other
34464,100,83,198,284,0.0,1-1,other
34465,64,49,94,63,0.0,1-1,other
34466,60,29,157,26,0.0,1-1,other
34467,57,28,84,33,0.0,1-1,other
34468,100,64,188,157,0.0,1-1,other
34469,101,75,158,261,0.0,1-1,other
34470,101,68,223,247,0.0,1-1,other
34471,58,48,266,231,0.0,1-1,other
34472,48,35,135,50,0.0,1-1,other
34473,103,81,194,29,0.0,1-1,other
34474,99,64,162,359,0.0,1-1,other
34475,91,71,141,259,0.0,1-1,other
34476,67,38,491,322,0.0,1-1,other
34477,89,53,132,59,3.0,3-4B,other
34478,63,43,164,916,6.0,2-5,other
34479,41,52,53,601,6.0,2-5,other
34480,60,28,63,1403,2.0,2-3,minor
34481,34,31,49,562,2.0,2-3,minor
34482,55,40,570,1332,10.0,2-4,major
34483,54,43,63,1504,7.0,4-26,minor
34484,69,60,681,60,5.0,3-4A,other
34485,57,50,611,29,5.0,3-4A,other
34486,56,38,119,542,5.0,3-4A,other
34487,54,55,189,299,5.0,3-4A,other
34488,57,69,491,715,5.0,3-4A,other
34489,55,42,396,538,10.0,3-11A,other
34490,61,33,732,1064,3.0,2-5,other
34491,58,20,772,48,3.0,2-5,other
34492,52,36,287,940,9.0,3-7A,minor
34493,76,60,190,1578,0.0,2-5,other
34494,68,25,460,381,6.0,4-29A,other
34495,76,27,409,26,6.0,4-29A,other
34496,54,27,224,945,2.0,2-2,other
34497,50,35,203,926,7.0,2-3,minor
34498,77,33,447,29,7.0,2-3,minor
34499,81,42,84,1574,0.0,1-1,other
34500,84,70,234,1920,9.0,2-5,other
34501,64,67,300,1860,9.0,4-26,minor
34502,62,57,594,701,5.0,3-11B,major
34503,62,48,159,2505,9.0,3-9,other
34504,77,65,200,1911,4.0,2-2,other
34505,79,53,183,294,4.0,2-2,other
34506,80,64,218,304,4.0,2-2,other
34507,81,68,233,291,4.0,2-2,other
34508,41,41,184,50,4.0,2-2,other
34509,82,53,218,252,4.0,2-2,other
34510,83,71,197,294,4.0,2-2,other
34511,86,73,247,303,4.0,2-2,other
34512,84,62,151,526,11.0,2-6,other
34513,88,58,282,268,11.0,2-6,other
34514,96,67,217,628,0.0,2-5,other
34515,96,73,219,365,0.0,2-5,other
34516,64,53,122,222,0.0,2-5,other
34517,57,30,146,61,5.0,2-5,other
34518,96,73,294,145,5.0,2-5,other
34519,95,85,422,486,5.0,2-5,other
34520,63,38,440,395,7.0,3-11A,minor
34521,63,36,416,899,3.0,2-4,major
34522,83,30,307,32,3.0,2-4,major
34523,57,22,1517,927,1.0,2-2,other
34524,69,50,553,1535,2.0,2-2,other
34525,65,36,211,265,2.0,2-2,other
34526,65,65,560,407,2.0,2-2,other
34527,79,57,45,1242,5.0,2-5,other
34528,60,33,69,3171,5.0,3-11B,other
34529,27,37,126,945,5.0,3-12,augmented
34530,65,24,252,398,10.0,3-11A,other
34531,41,33,2622,2523,9.0,3-11A,minor
34532,48,24,317,46,9.0,3-11A,minor
34533,50,40,172,776,9.0,3-11A,minor
34534,50,57,450,665,9.0,4-26,minor
34535,50,62,459,960,9.0,2-2,other
34536,53,50,538,474,3.0,4-22A,major
34537,52,66,513,473,3.0,4-22A,major
34538,55,54,484,543,3.0,3-9,other
34539,53,49,477,468,3.0,3-9,other
34540,54,25,459,987,11.0,2-5,other
34541,54,37,261,971,11.0,2-2,other
34542,65,40,372,1328,5.0,2-4,major
34543,62,38,1387,40,5.0,2-4,major
34544,60,32,1221,32,5.0,2-4,major
34545,69,55,131,299,5.0,2-4,major
34546,70,79,228,306,5.0,2-4,major
34547,53,35,1240,253,5.0,2-4,major
34548,65,44,152,68,5.0,2-4,major
34549,65,35,93,345,5.0,2-4,major
34550,67,51,97,331,5.0,2-4,major
34551,53,24,83,859,2.0,3-7A,minor
34552,52,27,128,413,10.0,2-4,major
34553,62,31,140,948,7.0,2-1,other
34554,61,37,201,922,7.0,2-1,other
34555,66,27,101,31,7.0,2-1,other
34556,108,60,135,296,7.0,2-1,other
34557,97,63,240,316,7.0,2-1,other
34558,94,51,173,673,9.0,3-7A,minor
34559,93,58,206,304,9.0,3-7A,minor
34560,50,26,72,352,6.0,3-5A,other
34561,90,33,190,303,6.0,3-5A,other
34562,93,71,133,317,6.0,3-5A,other
34563,54,25,159,327,6.0,3-7B,other
34564,59,20,67,45,6.0,3-7B,other
34565,83,31,159,284,6.0,3-7B,other
34566,83,37,833,293,6.0,3-7B,other
34567,54,27,135,352,1.0,2-3,minor
34568,85,49,149,377,1.0,2-3,minor
34569,83,53,156,293,1.0,2-3,minor
34570,83,60,147,626,11.0,4-26,minor
34571,83,83,207,311,11.0,4-26,minor
34572,83,74,190,319,11.0,4-26,minor
34573,83,77,186,308,11.0,4-26,minor
34574,83,66,185,656,4.0,2-3,minor
34575,83,65,168,302,4.0,2-3,minor
34576,83,74,216,315,4.0,2-3,minor
34577,85,70,907,615,6.0,4-9,other
34578,55,28,110,1256,5.0,3-12,augmented
34579,81,74,98,935,11.0,2-5,other
34580,64,74,1299,690,6.0,2-3,minor
34581,62,89,834,1264,6.0,2-3,minor
34582,66,50,721,379,6.0,2-3,minor
34583,69,44,697,33,6.0,2-3,minor
34584,61,86,580,300,6.0,2-3,minor
34585,73,1,110,396,6.0,2-3,minor
34586,57,57,57,852,5.0,3-11B,major
34587,53,55,616,393,2.0,4-26,minor
34588,62,44,590,1893,8.0,3-10,minor
34589,72,66,159,1546,0.0,3-4A,major
34590,57,46,859,415,7.0,2-5,other
34591,52,67,1609,534,7.0,2-5,other
34592,74,88,319,913,7.0,2-5,other
34593,72,64,367,1002,4.0,2-3,minor
34594,58,39,329,391,2.0,2-3,minor
34595,72,50,372,577,2.0,2-3,minor
34596,52,22,229,1371,1.0,2-3,minor
34597,42,30,595,841,1.0,2-5,other
34598,48,32,277,963,5.0,4-20,major
34599,58,46,488,999,4.0,3-8A,major
34600,69,35,80,521,0.0,3-11B,major
34601,57,40,526,493,9.0,4-26,minor
34602,65,40,122,3003,5.0,4-16A,major
34603,71,47,158,95,5.0,4-16A,major
34604,69,17,89,50,5.0,4-16A,major
34605,65,22,267,101,5.0,4-16A,major
34606,62,43,681,558,8.0,3-7B,other
34607,56,43,129,894,2.0,2-3,minor
34608,57,28,410,1011,5.0,4-20,major
34609,60,57,987,2415,9.0,3-7A,minor
34610,69,54,464,552,7.0,2-5,other
34611,62,51,151,412,7.0,2-5,other
34612,69,42,495,512,0.0,3-11A,minor
34613,38,15,97,1960,2.0,2-4,major
34614,60,39,531,905,6.0,2-2,other
34615,74,113,1047,550,6.0,2-2,other
34616,62,41,1566,429,5.0,2-5,other
34617,72,60,748,561,5.0,2-5,other
34618,53,30,1534,390,5.0,2-5,other
34619,70,59,471,236,5.0,2-5,other
34620,69,74,414,455,5.0,2-5,other
34621,60,32,1220,330,2.0,2-3,minor
34622,81,84,1472,250,2.0,2-3,minor
34623,53,35,1413,622,2.0,2-3,minor
34624,78,57,1692,539,2.0,2-3,minor
34625,77,46,291,134,2.0,2-3,minor
34626,53,37,257,1143,5.0,2-4,other
34627,46,32,252,2529,5.0,2-4,other
34628,55,43,128,2325,0.0,2-4,major
34629,50,41,186,914,9.0,4-26,minor
34630,45,40,857,3896,6.0,3-10,diminished
34631,61,25,50,2258,10.0,2-5,other
34632,61,34,150,2258,7.0,4-26,minor
34633,63,44,195,56,7.0,4-26,minor
34634,65,57,323,184,4.0,5-25A,diminished
34635,66,40,144,373,4.0,5-25A,diminished
34636,77,35,105,111,10.0,2-4,major
34637,69,57,238,27,10.0,2-4,major
34638,72,36,305,448,2.0,2-5,other
34639,76,52,204,850,0.0,4-26,minor
34640,71,38,70,205,0.0,4-26,minor
34641,70,52,110,55,0.0,4-26,minor
34642,76,34,302,651,9.0,3-3A,major
34643,73,40,415,446,4.0,2-6,other
34644,41,39,570,1161,7.0,3-9,other
34645,48,46,497,469,7.0,3-9,other
34646,57,42,180,481,7.0,3-9,other
34647,67,46,509,488,7.0,3-9,other
34648,60,37,213,47,7.0,3-9,other
34649,72,51,461,445,7.0,3-9,other
34650,50,28,97,1017,2.0,3-8A,major
34651,57,53,149,924,7.0,5-27B,minor
34652,58,71,134,258,7.0,5-27B,minor
34653,65,57,122,491,2.0,2-3,minor
34654,69,51,142,259,2.0,2-3,minor
34655,72,51,161,242,2.0,2-3,minor
34656,43,28,879,235,2.0,2-3,minor
34657,73,56,172,527,0.0,2-4,major
34658,74,70,146,240,0.0,2-4,major
34659,52,28,114,101,0.0,2-4,major
34660,75,56,105,129,0.0,2-4,major
34661,76,53,119,159,0.0,2-4,major
34662,77,58,154,111,0.0,2-4,major
34663,78,25,53,179,0.0,2-4,major
34664,79,29,122,136,0.0,2-4,major
34665,80,50,112,108,0.0,2-4,major
34666,81,38,220,135,0.0,2-4,major
34667,41,33,246,57,0.0,2-4,major
34668,76,61,1017,124,9.0,2-3,minor
34669,57,27,53,901,0.0,2-4,major
34670,77,55,202,601,0.0,2-4,major
34671,36,42,82,297,0.0,2-4,major
34672,72,19,72,68,0.0,2-4,major
34673,57,22,77,942,0.0,2-4,major
34674,74,51,179,595,0.0,2-4,major
34675,75,31,158,586,4.0,2-5,other
34676,76,54,120,246,4.0,2-5,other
34677,89,55,115,421,4.0,2-5,other
34678,87,34,124,299,4.0,2-5,other
34679,88,60,135,246,4.0,2-5,other
34680,40,38,72,404,4.0,2-5,other
34681,100,87,155,630,4.0,2-5,other
34682,92,45,126,628,8.0,2-6,other
34683,98,72,219,322,8.0,2-6,other
34684,41,36,211,325,8.0,2-6,other
34685,98,84,319,500,9.0,2-3,minor
34686,99,53,122,262,9.0,2-3,minor
34687,100,71,125,65,9.0,2-3,minor
34688,100,80,179,492,9.0,2-3,minor
34689,96,77,318,275,9.0,2-3,minor
34690,96,68,197,699,11.0,2-2,other
34691,95,76,223,302,11.0,2-2,other
34692,94,72,225,451,5.0,2-4,major
34693,98,71,187,298,5.0,2-4,major
34694,94,64,197,285,5.0,2-4,major
34695,58,49,249,231,5.0,2-4,major
34696,87,49,145,325,0.0,2-5,other
34697,86,58,162,250,0.0,2-5,other
34698,89,71,163,250,0.0,2-5,other
34699,67,38,130,239,0.0,2-5,other
34700,87,48,170,67,3.0,2-5,other
34701,77,50,159,248,3.0,2-5,other
34702,77,56,148,329,3.0,2-5,other
34703,77,58,146,627,5.0,4-21,major
34704,77,56,163,260,5.0,4-21,major
34705,41,50,87,293,5.0,4-21,major
34706,77,65,117,47,5.0,4-21,major
34707,77,62,108,283,5.0,4-21,major
34708,77,67,175,273,5.0,4-21,major
34709,77,71,175,631,10.0,2-5,other
34710,77,54,175,957,2.0,2-2,other
34711,89,74,151,286,2.0,2-2,other
34712,89,73,168,270,2.0,2-2,other
34713,53,40,163,77,2.0,2-2,other
34714,77,31,68,218,2.0,2-2,other
34715,77,50,144,168,2.0,2-2,other
34716,86,70,140,251,2.0,2-2,other
34717,86,69,176,225,2.0,2-2,other
34718,77,57,118,436,10.0,2-5,other
34719,89,68,116,191,10.0,2-5,other
34720,89,60,156,238,10.0,2-5,other
34721,56,36,118,248,10.0,2-5,other
34722,77,49,124,237,10.0,2-5,other
34723,85,57,121,206,10.0,2-5,other
34724,85,62,190,234,10.0,2-5,other
34725,77,54,103,203,10.0,2-5,other
34726,77,61,98,268,5.0,3-11B,other
34727,89,72,185,498,5.0,2-1,other
34728,77,54,146,489,5.0,2-2,other
34729,87,73,134,211,5.0,2-2,other
34730,87,64,187,244,5.0,2-2,other
34731,77,53,117,227,5.0,2-2,other
34732,58,29,66,69,1.0,2-3,minor
34733,77,44,145,221,1.0,2-3,minor
34734,85,67,127,215,1.0,2-3,minor
34735,85,67,164,229,1.0,2-3,minor
34736,72,50,463,300,1.0,2-3,minor
34737,84,81,153,454,1.0,2-3,minor
34738,84,63,137,255,1.0,2-3,minor
34739,64,45,61,237,1.0,2-3,minor
34740,69,50,125,40,1.0,2-3,minor
34741,69,48,107,255,1.0,2-3,minor
34742,81,61,123,172,1.0,2-3,minor
34743,80,20,47,81,1.0,2-3,minor
34744,50,19,247,505,6.0,3-8A,other
34745,80,78,254,579,6.0,3-8A,other
34746,43,54,225,1283,6.0,3-8B,other
34747,89,96,359,641,6.0,3-8B,other
34748,53,27,129,324,10.0,3-4A,major
34749,82,36,206,28,10.0,3-4A,major
34750,86,44,86,300,10.0,3-4A,major
34751,89,89,189,335,10.0,3-4A,major
34752,82,61,127,601,4.0,2-6,other
34753,77,50,75,320,4.0,2-6,other
34754,107,84,537,807,1.0,3-10,minor
34755,106,40,63,418,1.0,3-10,minor
34756,105,61,211,61,1.0,3-10,minor
34757,41,36,107,29,1.0,3-10,minor
34758,104,67,177,143,1.0,3-10,minor
34759,103,53,257,186,1.0,3-10,minor
34760,100,63,223,307,1.0,3-10,minor
34761,100,73,118,714,9.0,2-3,minor
34762,43,39,60,566,4.0,2-1,other
34763,100,85,210,474,4.0,2-1,other
34764,57,22,106,520,4.0,2-2,other
34765,101,63,160,224,4.0,2-2,other
34766,103,74,308,219,4.0,2-2,other
34767,40,45,163,2355,2.0,3-11A,minor
34768,98,62,109,1253,7.0,4-13B,other
34769,100,65,155,198,7.0,4-13B,other
34770,101,68,142,235,7.0,4-13B,other
34771,96,66,108,593,5.0,2-1,other
34772,93,71,142,295,5.0,2-1,other
34773,64,41,136,280,5.0,2-1,other
34774,84,53,130,342,9.0,3-11A,minor
34775,86,73,468,318,9.0,3-11A,minor
34776,57,41,266,1305,0.0,2-4,major
34777,53,18,275,32,0.0,2-4,major
34778,48,32,181,957,7.0,2-3,minor
34779,89,70,485,980,3.0,2-1,other
34780,66,46,177,1807,3.0,2-4,other
34781,63,37,600,29,3.0,2-4,other
34782,82,44,174,736,9.0,2-4,major
34783,62,39,1432,274,2.0,4-26,minor
34784,53,31,1557,1009,9.0,2-3,minor
34785,81,55,289,984,2.0,3-7A,minor
34786,75,25,160,1097,5.0,3-9,other
34787,62,30,52,781,5.0,3-4A,other
34788,68,1,174,181,5.0,3-4A,other
34789,52,32,176,2671,3.0,3-4B,other
34790,61,25,828,30,3.0,3-4B,other
34791,42,17,204,30,3.0,3-4B,other
34792,49,19,138,29,3.0,3-4B,other
34793,57,24,302,1459,4.0,3-7A,minor
34794,64,35,85,937,7.0,2-5,other
34795,64,26,341,1410,5.0,4-20,major
34796,60,49,592,1367,3.0,3-11B,major
34797,79,63,351,967,9.0,3-10,diminished
34798,53,40,854,42,9.0,3-10,diminished
34799,53,44,759,959,1.0,4-21,other
34800,53,29,898,954,5.0,2-4,other
34801,53,33,1295,1442,7.0,2-5,other
34802,60,22,1303,968,2.0,3-11A,minor
34803,82,54,142,223,2.0,3-11A,minor
34804,77,57,92,219,2.0,3-11A,minor
34805,79,56,96,267,2.0,3-11A,minor
34806,53,29,474,242,2.0,3-11A,minor
34807,67,49,560,1878,2.0,2-5,other
34808,81,20,693,77,8.0,3-10,other
34809,55,22,236,946,6.0,2-5,other
34810,76,81,296,2420,2.0,4-20,major
34811,64,74,995,898,6.0,2-3,minor
34812,69,38,228,1015,2.0,2-4,major
34813,69,48,132,949,6.0,2-3,minor
34814,69,58,252,478,6.0,2-3,minor
34815,64,53,932,461,7.0,2-4,major
34816,67,53,69,974,4.0,2-5,other
34817,57,27,568,941,1.0,3-10,other
34818,76,60,180,933,1.0,3-10,other
34819,81,74,273,1085,2.0,3-11B,major
34820,59,27,732,462,6.0,2-3,minor
34821,73,20,790,961,6.0,3-7A,minor
34822,62,55,104,798,6.0,3-7A,minor
34823,55,58,238,545,6.0,3-7A,minor
34824,50,50,507,990,5.0,3-11B,major
34825,31,29,67,943,5.0,4-22A,major
34826,65,22,684,630,7.0,3-7B,other
34827,53,31,214,850,11.0,3-10,diminished
34828,36,28,845,948,4.0,2-5,other
34829,53,39,148,4760,7.0,2-5,other
34830,65,55,278,408,7.0,2-5,other
34831,56,55,606,2440,4.0,3-11B,major
34832,57,60,2508,928,0.0,4-14B,major
34833,74,48,236,2422,0.0,3-9,other
34834,64,26,256,514,5.0,4-16A,major
34835,64,48,223,485,5.0,4-16A,major
34836,64,43,182,495,5.0,4-16A,major
34837,64,39,358,488,5.0,4-16A,major
34838,64,60,233,1450,4.0,4-15A,other
34839,64,64,304,492,4.0,4-15A,other
34840,64,51,244,981,4.0,2-3,minor
34841,65,82,402,471,4.0,2-3,minor
34842,65,62,268,468,4.0,2-3,minor
34843,62,32,74,1458,5.0,3-11B,major
34844,55,31,668,1864,5.0,3-4A,other
34845,84,103,1512,533,5.0,3-4A,other
34846,60,42,177,1327,6.0,3-8B,other
34847,57,26,272,1945,10.0,2-4,major
34848,65,33,650,936,10.0,2-4,major
34849,69,40,184,313,10.0,2-4,major
34850,70,64,98,247,10.0,2-4,major
34851,74,70,114,215,10.0,2-4,major
34852,65,26,422,186,10.0,2-4,major
34853,77,68,123,37,10.0,2-4,major
34854,81,70,109,219,10.0,2-4,major
34855,82,55,109,231,10.0,2-4,major
34856,84,67,149,207,10.0,2-4,major
34857,89,58,87,531,0.0,2-4,other
34858,94,63,101,261,0.0,2-4,other
34859,96,77,149,257,0.0,2-4,other
34860,97,77,157,277,5.0,3-4A,other
34861,99,77,122,258,5.0,3-4A,other
34862,97,63,135,264,5.0,3-4A,other
34863,99,69,134,228,5.0,3-4A,other
34864,97,50,175,270,5.0,2-4,other
34865,99,53,139,229,5.0,2-4,other
34866,97,56,155,249,5.0,2-4,other
34867,99,60,163,199,5.0,2-4,other
34868,27,42,130,235,5.0,2-4,other
34869,97,48,712,46,5.0,2-4,other
34870,84,62,209,1396,9.0,2-3,minor
34871,84,52,73,403,9.0,3-11A,minor
34872,96,73,180,460,9.0,3-11A,minor
34873,84,61,169,247,9.0,3-11A,minor
34874,96,62,185,585,0.0,1-1,other
34875,84,56,169,272,0.0,1-1,other
34876,52,19,170,433,9.0,2-3,minor
34877,54,39,532,1924,5.0,2-5,other
34878,62,55,144,2379,0.0,4-27A,minor
34879,69,60,355,1034,10.0,3-11B,major
34880,43,33,2271,38,10.0,3-11B,major
34881,62,31,255,31,10.0,3-11B,major
34882,58,31,148,66,10.0,3-11B,major
34883,50,41,479,774,10.0,2-4,major
34884,50,34,397,1391,7.0,2-2,other
34885,43,45,58,502,7.0,2-2,other
34886,76,56,148,970,1.0,3-10,other
34887,76,37,236,1006,1.0,2-3,other
34888,62,39,77,4241,9.0,3-7A,minor
34889,44,37,159,1003,0.0,4-27B,other
34890,49,26,510,3900,1.0,2-3,other
34891,77,81,198,2365,9.0,3-11A,minor
34892,63,56,270,709,5.0,4-20,major
34893,62,51,281,329,5.0,4-20,major
34894,60,56,176,951,2.0,4-19A,minor
34895,65,39,366,1295,9.0,3-9,other
34896,88,75,224,362,2.0,2-5,other
34897,81,48,640,307,2.0,2-5,other
34898,52,24,67,306,8.0,2-6,other
34899,88,65,185,303,8.0,2-6,other
34900,80,49,1071,317,8.0,2-6,other
34901,48,57,303,899,8.0,3-5B,other
34902,41,54,144,398,8.0,3-5B,other
34903,72,28,139,178,8.0,3-5B,other
34904,74,61,172,91,8.0,3-5B,other
34905,72,29,160,136,8.0,3-5B,other
34906,71,44,173,163,8.0,3-5B,other
34907,72,50,140,177,8.0,3-5B,other
34908,60,24,79,215,2.0,2-5,other
34909,72,34,158,297,2.0,2-5,other
34910,74,54,162,120,2.0,2-5,other
34911,72,24,165,158,2.0,2-5,other
34912,71,47,137,158,2.0,2-5,other
34913,41,34,96,124,2.0,2-5,other
34914,72,24,78,48,2.0,2-5,other
34915,81,70,113,142,2.0,2-5,other
34916,71,66,91,304,2.0,2-5,other
34917,72,55,171,712,9.0,2-3,minor
34918,72,71,139,1175,5.0,2-2,other
34919,74,55,139,151,5.0,2-2,other
34920,72,27,205,89,5.0,2-2,other
34921,71,64,122,163,5.0,2-2,other
34922,62,35,453,119,3.0,3-11B,major
34923,72,61,188,72,3.0,3-11B,major
34924,74,74,103,241,3.0,3-11B,major
34925,75,52,139,211,3.0,3-11B,major
34926,77,73,140,227,3.0,3-11B,major
34927,57,22,1330,307,6.0,2-3,other
34928,80,59,145,189,6.0,2-3,other
34929,81,68,135,211,6.0,2-3,other
34930,82,65,107,237,6.0,2-3,other
34931,84,42,130,326,1.0,3-6,other
34932,86,42,166,118,1.0,3-6,other
34933,87,35,118,216,1.0,3-6,other
34934,88,52,85,125,1.0,3-6,other
34935,89,80,131,164,1.0,3-6,other
34936,89,73,144,517,2.0,2-2,other
34937,86,68,103,235,2.0,2-2,other
34938,81,57,164,232,2.0,2-2,other
34939,53,44,411,47,2.0,2-2,other
34940,77,50,191,251,2.0,2-2,other
34941,84,66,137,256,2.0,2-2,other
34942,74,51,57,280,2.0,2-2,other
34943,74,47,92,265,2.0,2-2,other
34944,65,20,124,95,2.0,2-2,other
34945,71,27,86,258,2.0,2-2,other
34946,74,62,152,364,2.0,2-2,other
34947,65,57,185,237,2.0,2-2,other
34948,69,48,165,596,2.0,3-7A,minor
34949,72,53,261,306,2.0,3-7A,minor
34950,46,39,94,339,9.0,2-1,other
34951,70,52,172,256,9.0,2-1,other
34952,72,55,258,268,9.0,2-1,other
34953,75,49,164,603,5.0,2-4,other
34954,77,61,244,289,5.0,2-4,other
34955,80,51,172,622,3.0,2-4,major
34956,82,52,207,302,3.0,2-4,major
34957,81,50,79,1212,3.0,1-1,other
34958,57,37,197,110,3.0,1-1,other
34959,48,24,99,64,3.0,1-1,other
34960,81,30,256,69,3.0,1-1,other
34961,84,39,189,48,3.0,1-1,other
34962,88,19,99,267,4.0,1-1,other
34963,76,15,270,84,9.0,2-3,minor
34964,88,44,131,132,9.0,2-3,minor
34965,81,46,60,790,0.0,2-4,major
34966,55,39,229,517,9.0,2-3,minor
34967,81,40,105,199,0.0,2-4,major
34968,84,53,1052,264,0.0,2-4,major
34969,57,43,109,1485,10.0,4-20,major
34970,43,53,163,551,10.0,4-20,major
34971,64,67,463,378,10.0,3-11B,major
34972,64,51,408,908,1.0,4-14A,other
34973,49,43,454,930,1.0,4-22B,minor
34974,57,33,256,945,5.0,2-5,other
34975,57,34,104,2895,2.0,3-7A,minor
34976,83,44,715,1135,3.0,1-1,other
34977,88,47,641,40,3.0,1-1,other
34978,56,50,467,1810,7.0,2-5,other
34979,83,32,341,950,4.0,2-2,other
34980,79,46,287,857,5.0,3-11B,major
34981,67,71,573,1422,9.0,4-14A,minor
34982,65,60,507,489,9.0,4-14A,minor
34983,64,71,512,500,9.0,4-14A,minor
34984,65,58,412,1008,9.0,4-26,minor
34985,63,62,463,1021,3.0,4-18A,major
34986,64,63,466,989,10.0,2-5,other
34987,62,58,312,985,3.0,2-4,major
34988,63,52,410,976,5.0,2-4,major
34989,46,38,2578,958,10.0,3-11B,major
34990,55,53,424,946,2.0,3-11A,minor
34991,53,49,1065,962,5.0,2-4,major
34992,46,48,663,940,2.0,2-3,minor
34993,60,89,998,936,5.0,2-4,other
34994,58,74,992,960,5.0,2-4,other
34995,61,39,350,517,5.0,2-4,other
34996,65,41,827,26,5.0,2-4,other
34997,55,57,727,448,5.0,2-4,other
34998,65,17,560,459,5.0,2-4,other
34999,61,33,464,28,5.0,2-4,other
35000,48,31,1439,484,5.0,2-4,other
35001,41,34,848,435,0.0,2-4,major
35002,57,31,371,898,0.0,3-9,other
35003,57,44,130,1402,4.0,4-25,other
35004,69,33,127,1038,4.0,3-7A,minor
35005,60,60,978,1008,10.0,2-5,other
35006,63,68,633,444,10.0,2-5,other
35007,69,48,190,292,10.0,2-5,other
35008,71,45,193,233,10.0,2-5,other
35009,73,54,193,156,10.0,2-5,other
35010,75,56,93,180,10.0,2-5,other
35011,57,32,1699,176,3.0,3-6,major
35012,79,44,97,160,3.0,3-6,major
35013,81,49,54,134,3.0,3-6,major
35014,83,49,82,157,3.0,3-6,major
35015,85,48,134,144,3.0,3-6,major
35016,89,31,75,331,3.0,3-6,major
35017,91,43,89,559,3.0,2-4,major
35018,93,62,191,53,3.0,2-4,major
35019,94,57,114,175,3.0,2-4,major
35020,95,51,171,125,3.0,2-4,major
35021,96,67,144,130,3.0,2-4,major
35022,62,4,1291,216,5.0,2-5,other
35023,93,66,84,37,5.0,2-5,other
35024,89,49,112,283,5.0,2-5,other
35025,86,57,133,254,5.0,2-5,other
35026,53,16,1567,107,5.0,2-5,other
35027,82,42,212,183,5.0,2-5,other
35028,81,41,103,229,5.0,2-5,other
35029,84,64,187,175,5.0,2-5,other
35030,81,38,102,215,5.0,2-5,other
35031,82,53,183,184,5.0,2-5,other
35032,77,30,83,255,2.0,3-7A,minor
35033,77,48,77,254,2.0,3-7A,minor
35034,77,51,113,246,2.0,3-7A,minor
35035,53,24,374,129,2.0,3-7A,minor
35036,77,59,108,156,2.0,3-7A,minor
35037,77,46,81,244,2.0,3-7A,minor
35038,77,45,108,192,2.0,3-7A,minor
35039,77,53,100,213,2.0,3-7A,minor
35040,74,24,46,267,9.0,3-5B,other
35041,55,50,178,1774,5.0,3-12,augmented
35042,59,46,130,2874,6.0,4-26,minor
35043,59,29,132,470,6.0,2-2,other
35044,74,53,220,2365,11.0,3-7B,other
35045,68,20,124,46,11.0,3-7B,other
35046,67,48,244,143,11.0,3-7B,other
35047,79,42,147,1256,7.0,2-3,minor
35048,64,44,485,436,1.0,2-3,minor
35049,75,32,45,66,1.0,4-28,diminished
35050,61,55,194,470,1.0,4-28,diminished
35051,55,13,136,596,1.0,3-10,diminished
35052,38,33,413,955,6.0,3-11A,minor
35053,45,43,2740,466,6.0,3-11A,minor
35054,52,54,736,976,6.0,3-11A,minor
35055,54,75,922,964,9.0,2-4,major
35056,61,32,842,465,9.0,2-4,major
35057,57,32,622,26,9.0,2-4,major
35058,45,29,648,420,9.0,2-4,major
35059,45,55,490,995,5.0,3-11B,major
35060,31,46,566,929,5.0,2-4,major
35061,43,43,585,986,8.0,4-12A,minor
35062,76,91,1708,2848,0.0,4-11A,major
35063,71,53,1368,487,4.0,2-4,major
35064,62,55,490,946,4.0,2-4,major
35065,74,58,176,467,4.0,2-4,major
35066,65,50,467,504,2.0,2-2,other
35067,43,40,534,446,2.0,2-2,other
35068,69,55,193,973,7.0,3-11A,minor
35069,64,51,381,4750,0.0,3-11B,major
35070,62,45,429,523,2.0,3-11A,minor
35071,71,24,725,954,11.0,2-2,other
35072,62,36,538,913,5.0,2-4,major
35073,62,32,1230,962,7.0,2-1,other
35074,88,71,286,325,7.0,2-1,other
35075,79,27,360,61,7.0,2-1,other
35076,67,26,223,569,10.0,2-5,other
35077,86,66,291,455,10.0,2-5,other
35078,41,36,428,909,0.0,2-4,major
35079,48,48,243,411,0.0,2-4,major
35080,57,54,196,320,0.0,2-4,major
35081,60,44,1897,326,0.0,2-4,major
35082,64,44,198,1561,5.0,4-20,major
35083,76,60,161,302,5.0,4-20,major
35084,77,61,156,271,5.0,4-20,major
35085,63,51,321,277,5.0,4-20,major
35086,84,64,126,341,9.0,3-7A,minor
35087,72,36,235,314,9.0,3-7A,minor
35088,63,44,1038,259,9.0,3-7A,minor
35089,54,62,116,621,9.0,2-3,minor
35090,55,40,117,105,9.0,2-3,minor
35091,54,64,346,306,9.0,2-3,minor
35092,74,44,62,644,6.0,2-6,other
35093,60,41,66,296,6.0,2-6,other
35094,54,33,147,29,6.0,2-6,other
35095,54,64,566,3326,7.0,3-11A,minor
35096,62,42,399,551,10.0,2-5,other
35097,46,47,328,458,10.0,2-5,other
35098,65,53,1499,490,1.0,2-3,other
35099,57,68,378,460,1.0,2-3,other
35100,55,62,517,488,1.0,2-3,other
35101,54,56,471,468,1.0,2-3,other
35102,46,47,742,975,5.0,2-4,other
35103,46,50,414,965,5.0,4-20,other
35104,70,53,346,28,5.0,4-20,other
35105,55,82,371,962,9.0,3-11A,minor
35106,54,53,363,487,9.0,3-11A,minor
35107,53,53,303,475,9.0,3-11A,minor
35108,45,47,772,973,0.0,2-4,major
35109,52,44,746,511,0.0,2-4,major
35110,45,54,218,435,0.0,2-4,major
35111,54,64,465,934,0.0,3-11B,other
35112,53,56,281,500,0.0,3-11B,other
35113,52,48,483,445,0.0,3-11B,other
35114,51,48,1653,488,0.0,3-11B,other
35115,44,32,394,912,6.0,3-10,other
35116,44,37,341,512,6.0,3-10,other
35117,46,32,564,1074,1.0,2-3,other
35118,53,18,108,29,1.0,2-3,other
35119,62,58,153,280,1.0,2-3,other
35120,65,50,93,300,1.0,2-3,other
35121,53,29,178,88,1.0,2-3,other
35122,53,29,376,1337,0.0,2-2,other
35123,55,37,660,1173,7.0,4-26,minor
35124,55,35,291,997,10.0,3-11B,major
35125,64,36,1488,969,1.0,3-10,other
35126,36,18,955,52,1.0,3-10,other
35127,52,25,277,843,1.0,3-10,other
35128,41,52,478,965,1.0,3-10,other
35129,62,29,72,511,5.0,2-4,major
35130,62,24,48,503,5.0,3-11B,major
35131,46,40,408,430,5.0,3-11B,major
35132,38,28,73,58,5.0,3-11B,major
35133,60,38,71,3284,7.0,2-2,other
35134,44,38,105,912,5.0,3-4A,other
35135,69,30,71,44,5.0,3-4A,other
35136,69,34,77,470,5.0,4-20,other
35137,48,36,202,1422,2.0,4-26,minor
35138,60,37,84,1511,2.0,4-26,minor
35139,60,44,274,486,3.0,4-22A,major
35140,46,37,361,530,0.0,4-22B,minor
35141,81,40,137,3525,5.0,3-11B,major
35142,83,37,172,164,5.0,3-11B,major
35143,86,47,216,91,5.0,3-11B,major
35144,88,31,109,117,5.0,3-11B,major
35145,91,50,58,102,5.0,3-11B,major
35146,95,48,125,178,5.0,3-11B,major
35147,98,32,119,139,5.0,3-11B,major
35148,100,43,109,83,5.0,3-11B,major
35149,72,70,44,0,,,
35150,74,58,48,47,,,
35151,60,31,81,186,0.0,3-4A,major
35152,74,97,50,179,0.0,3-8A,major
35153,77,94,43,119,0.0,3-8A,major
35154,72,64,37,124,9.0,3-11A,minor
35155,57,75,48,121,9.0,3-11A,minor
35156,65,52,8,261,0.0,3-6,major
35157,55,52,174,95,0.0,3-11B,major
35158,77,66,11,375,0.0,3-6,major
35159,63,91,65,99,2.0,4-14A,minor
35160,61,71,60,124,2.0,3-11A,minor
35161,43,62,64,115,5.0,3-11B,major
35162,31,61,44,64,5.0,3-11B,major
35163,62,65,20,62,5.0,3-11B,major
35164,69,87,38,126,2.0,4-14A,minor
35165,41,90,23,347,11.0,3-10,diminished
35166,65,90,52,126,4.0,3-7A,minor
35167,65,89,48,115,4.0,3-7A,minor
35168,81,61,27,736,7.0,3-6,major
35169,50,59,20,292,6.0,6-29,diminished
35170,60,81,41,170,4.0,4-29A,minor
35171,62,76,30,33,4.0,4-29A,minor
35172,43,81,16,101,0.0,3-4A,major
35173,55,75,124,54,0.0,3-4A,major
35174,56,81,180,653,0.0,3-12,augmented
35175,60,59,177,68,0.0,3-12,augmented
35176,77,84,22,57,0.0,3-12,augmented
35177,55,68,112,121,9.0,4-23,minor
35178,79,50,9,123,0.0,2-5,other
35179,40,69,16,55,0.0,2-5,other
35180,52,73,60,306,9.0,2-4,major
35181,58,95,48,60,9.0,2-4,major
35182,56,100,71,115,9.0,3-11B,major
35183,55,96,58,62,9.0,3-11B,major
35184,60,54,158,480,2.0,4-27A,minor
35185,50,87,55,729,2.0,2-3,minor
35186,57,90,12,53,2.0,2-3,minor
35187,74,78,28,283,2.0,4-26,minor
35188,69,60,38,32,2.0,4-26,minor
35189,74,57,47,94,8.0,4-11A,other
35190,60,49,31,318,4.0,5-16A,other
35191,62,49,42,46,4.0,5-16A,other
35192,43,55,42,143,0.0,2-4,major
35193,50,61,44,40,0.0,2-4,major
35194,60,82,26,197,4.0,3-11A,minor
35195,62,79,35,80,0.0,2-4,other
35196,60,52,36,159,9.0,3-11A,minor
35197,57,53,88,46,9.0,3-11A,minor
35198,48,60,213,72,9.0,3-11A,minor
35199,84,107,16,122,0.0,3-12,augmented
35200,72,49,16,84,0.0,2-4,other
35201,74,64,37,38,0.0,2-4,other
35202,50,59,17,699,2.0,4-26,minor
35203,63,57,41,126,4.0,4-29A,minor
35204,69,54,17,212,2.0,5-32A,minor
35205,69,51,16,30,2.0,5-32A,minor
35206,69,61,19,29,2.0,5-32A,minor
35207,69,59,17,59,5.0,4-17,major
35208,69,71,16,29,5.0,4-17,major
35209,69,63,19,30,5.0,4-17,major
35210,79,113,34,228,4.0,3-5B,other
35211,77,94,85,120,4.0,4-27A,diminished
35212,76,66,31,82,7.0,3-5B,other
35213,77,78,30,39,7.0,3-5B,other
35214,45,76,101,117,6.0,3-5B,other
35215,45,71,14,121,1.0,4-28,diminished
35216,42,75,168,42,1.0,4-28,diminished
35217,54,73,13,284,6.0,4-27B,minor
35218,49,81,48,396,4.0,1-1,other
35219,74,106,33,237,5.0,5-27A,major
35220,67,72,48,119,0.0,4-20,major
35221,48,93,232,121,0.0,3-4A,major
35222,65,82,26,368,0.0,2-5,other
35223,55,65,119,462,0.0,3-11B,major
35224,60,73,83,56,0.0,3-11B,major
35225,62,61,22,273,4.0,2-6,other
35226,59,67,22,27,4.0,2-6,other
35227,60,63,25,28,4.0,2-6,other
35228,79,95,28,208,3.0,2-1,other
35229,77,72,22,29,3.0,2-1,other
35230,69,92,20,194,1.0,3-10,minor
35231,71,106,29,37,1.0,3-10,minor
35232,53,84,33,465,0.0,4-19A,augmented
35233,74,82,9,236,9.0,3-7A,minor
35234,84,91,22,464,5.0,3-11B,major
35235,81,76,35,36,5.0,3-11B,major
35236,62,73,47,159,5.0,2-5,other
35237,50,39,21,207,8.0,4-24,other
35238,45,71,26,69,10.0,3-11B,major
35239,44,66,33,40,10.0,3-11B,major
35240,31,66,7,80,2.0,4-22B,minor
35241,36,108,164,162,4.0,5-16A,other
35242,43,67,179,123,9.0,4-26,minor
35243,67,78,26,120,4.0,4-23,minor
35244,76,63,29,479,0.0,3-4A,major
35245,77,88,29,238,4.0,2-2,other
35246,72,60,16,80,9.0,4-26,minor
35247,80,67,6,237,0.0,1-1,other
35248,76,62,12,34,0.0,1-1,other
35249,68,68,73,92,0.0,2-4,major
35250,48,42,54,87,7.0,2-4,major
35251,48,58,37,70,7.0,2-4,major
35252,48,82,140,162,9.0,5-32A,other
35253,76,58,21,160,4.0,3-10,diminished
35254,62,78,73,129,2.0,4-14A,minor
35255,77,70,12,1072,7.0,3-11B,major
35256,76,56,12,27,7.0,3-11B,major
35257,69,74,15,108,1.0,2-6,other
35258,70,92,22,35,1.0,2-6,other
35259,73,83,17,64,9.0,3-7A,minor
35260,60,45,100,92,5.0,3-1,other
35261,69,60,14,34,5.0,3-1,other
35262,76,82,17,144,9.0,3-11A,minor
35263,78,100,20,32,9.0,3-11A,minor
35264,71,74,16,69,9.0,3-8A,other
35265,76,100,30,795,4.0,3-11A,minor
35266,72,64,15,159,0.0,3-12,augmented
35267,67,66,8,255,0.0,3-11B,major
35268,60,68,19,318,0.0,2-4,other
35269,64,107,26,35,0.0,2-4,other
35270,65,83,12,31,0.0,2-4,other
35271,67,79,40,106,9.0,5-35,minor
35272,67,77,11,117,4.0,2-3,minor
35273,56,94,67,239,4.0,5-29B,diminished
35274,45,86,208,124,9.0,4-18A,major
35275,55,86,145,119,1.0,4-27A,minor
35276,45,100,112,117,1.0,3-10,minor
35277,71,94,14,151,9.0,5-31B,major
35278,72,88,30,95,6.0,4-27A,diminished
35279,72,76,47,117,0.0,1-1,other
35280,60,65,19,125,5.0,4-17,major
35281,72,107,16,118,11.0,2-1,other
35282,74,101,13,28,11.0,2-1,other
35283,67,97,45,89,0.0,4-20,major
35284,67,66,9,118,0.0,5-26B,other
35285,33,91,101,116,9.0,4-25,other
35286,21,74,32,66,9.0,4-25,other
35287,65,79,34,57,9.0,4-25,other
35288,64,62,10,35,9.0,4-25,other
35289,76,58,47,869,5.0,4-16A,major
35290,76,46,36,62,5.0,4-16A,major
35291,55,56,147,118,0.0,1-1,other
35292,62,60,48,56,0.0,1-1,other
35293,64,66,125,64,0.0,1-1,other
35294,48,78,287,58,0.0,1-1,other
35295,56,91,215,57,0.0,1-1,other
35296,60,56,97,66,0.0,1-1,other
35297,68,62,35,77,0.0,1-1,other
35298,67,58,32,39,0.0,1-1,other
35299,56,41,309,296,0.0,2-4,other
35300,62,49,132,63,0.0,2-4,other
35301,60,31,38,81,0.0,2-4,other
35302,74,57,48,37,0.0,2-4,other
35303,55,53,97,59,0.0,2-4,other
35304,56,64,190,242,5.0,2-5,other
35305,60,57,56,66,5.0,2-5,other
35306,62,48,36,52,5.0,2-5,other
35307,55,44,234,1140,0.0,3-11B,major
35308,65,84,55,0,,,
35309,48,46,242,120,5.0,2-1,other
35310,57,49,221,62,5.0,2-1,other
35311,62,60,36,90,5.0,2-1,other
35312,50,65,252,85,5.0,1-1,other
35313,62,74,43,120,8.0,3-10,minor
35314,52,61,266,361,4.0,3-5A,other
35315,55,58,88,69,4.0,3-5A,other
35316,51,77,184,170,3.0,3-11B,major
35317,55,71,117,65,3.0,3-11B,major
35318,65,85,35,91,3.0,3-11B,major
35319,51,50,180,94,5.0,2-4,major
35320,57,39,48,60,5.0,2-4,major
35321,65,60,82,29,5.0,2-4,major
35322,52,65,38,266,2.0,3-11A,minor
35323,27,80,25,127,5.0,5-33,augmented
35324,69,105,30,56,5.0,5-33,augmented
35325,70,117,57,53,5.0,5-33,augmented
35326,50,55,14,367,0.0,4-27A,minor
35327,44,58,51,63,0.0,4-27A,minor
35328,50,64,10,176,5.0,3-9,other
35329,82,110,31,123,10.0,4-16A,other
35330,70,81,24,577,1.0,5-26B,other
35331,46,67,56,132,9.0,4-29A,minor
35332,45,71,14,75,9.0,4-29A,minor
35333,50,68,12,170,10.0,5-30B,other
35334,48,59,47,373,5.0,3-4A,major
35335,63,82,45,238,8.0,4-28,diminished
35336,62,74,22,56,8.0,4-28,diminished
35337,43,74,17,395,0.0,4-27B,major
35338,55,78,51,273,0.0,4-26,minor
35339,58,75,33,52,0.0,4-26,minor
35340,65,58,32,320,2.0,2-5,other
35341,39,65,11,315,5.0,4-24,augmented
35342,70,88,45,144,5.0,4-24,augmented
35343,63,86,55,239,6.0,4-27A,diminished
35344,50,73,129,120,2.0,4-18A,major
35345,70,55,32,362,10.0,5-27A,major
35346,66,73,42,130,10.0,5-30B,other
35347,49,55,62,227,7.0,3-11A,minor
35348,62,73,26,114,2.0,2-1,other
35349,55,54,39,147,8.0,2-3,other
35350,69,66,25,125,0.0,2-4,major
35351,57,80,19,103,11.0,4-27A,diminished
35352,64,57,21,235,4.0,4-15A,other
35353,52,42,186,231,9.0,1-1,other
35354,60,39,113,66,9.0,1-1,other
35355,53,75,86,173,9.0,2-3,minor
35356,53,71,65,124,5.0,2-5,other
35357,54,73,93,125,11.0,2-2,other
35358,53,65,53,237,9.0,2-3,minor
35359,53,66,63,120,5.0,2-5,other
35360,52,58,198,127,9.0,1-1,other
35361,71,63,20,110,0.0,2-4,major
35362,69,63,23,29,0.0,2-4,major
35363,53,57,213,99,9.0,2-3,minor
35364,60,36,17,121,5.0,2-5,other
35365,45,69,209,58,5.0,2-5,other
35366,54,65,110,56,5.0,2-5,other
35367,69,82,19,95,0.0,4-16A,major
35368,59,64,60,149,2.0,4-21,major
35369,58,53,39,60,2.0,4-21,major
35370,57,41,21,45,2.0,4-21,major
35371,45,69,152,369,9.0,4-26,minor
35372,63,77,61,239,5.0,4-20,major
35373,59,65,9,241,0.0,4-8,major
35374,67,50,46,363,5.0,5-34,major
35375,65,50,46,240,1.0,5-34,other
35376,64,50,49,240,9.0,4-21,other
35377,24,60,16,181,7.0,4-22B,minor
35378,65,76,25,62,7.0,4-22B,minor
35379,48,69,49,123,5.0,4-20,major
35380,50,70,98,53,5.0,4-20,major
35381,62,72,30,62,5.0,4-20,major
35382,52,55,54,121,8.0,3-10,minor
35383,53,63,100,53,8.0,3-10,minor
35384,62,54,40,65,8.0,3-10,minor
35385,65,81,59,367,4.0,1-1,other
35386,66,99,39,51,4.0,1-1,other
35387,67,98,43,57,4.0,1-1,other
35388,69,89,46,129,3.0,4-20,major
35389,79,97,51,118,3.0,4-20,major
35390,69,60,50,246,2.0,4-18A,major
35391,53,64,131,116,10.0,4-20,major
35392,65,85,23,85,9.0,2-2,other
35393,69,94,31,28,9.0,2-2,other
35394,65,75,34,26,9.0,2-2,other
35395,61,47,113,82,7.0,1-1,other
35396,69,56,18,107,5.0,2-4,major
35397,52,58,68,153,9.0,2-3,minor
35398,69,68,13,100,9.0,3-11A,minor
35399,59,64,64,141,6.0,4-28,diminished
35400,58,66,53,63,6.0,4-28,diminished
35401,50,51,63,169,2.0,4-23,minor
35402,70,67,22,120,7.0,2-3,minor
35403,65,68,33,118,6.0,4-17,minor
35404,63,66,59,97,0.0,3-6,major
35405,63,64,50,142,4.0,4-29A,minor
35406,70,54,20,234,0.0,4-12A,major
35407,48,49,43,263,5.0,2-1,other
35408,62,66,30,123,2.0,4-26,minor
35409,50,48,41,122,8.0,2-3,other
35410,44,58,31,117,4.0,4-27B,major
35411,50,43,44,121,7.0,4-26,minor
35412,62,48,21,75,4.0,3-10,diminished
35413,62,51,17,59,7.0,3-7A,minor
35414,74,115,17,227,4.0,2-6,other
35415,74,81,26,84,3.0,5-27A,major
35416,75,83,84,37,3.0,5-27A,major
35417,65,31,23,87,10.0,3-9,other
35418,74,72,30,35,10.0,3-9,other
35419,67,80,18,312,10.0,3-4B,other
35420,72,81,7,32,10.0,3-4B,other
35421,70,74,11,90,2.0,4-26,minor
35422,74,82,18,28,2.0,4-26,minor
35423,77,102,21,30,2.0,4-26,minor
35424,82,94,21,64,5.0,5-30B,other
35425,58,66,35,492,10.0,6-22A,augmented
35426,57,82,40,38,10.0,6-22A,augmented
35427,44,43,30,113,6.0,5-31B,diminished
35428,50,52,38,120,5.0,4-22A,major
35429,51,66,79,79,10.0,3-11B,major
35430,38,50,45,157,10.0,5-30B,other
35431,49,56,45,476,3.0,4-16A,other
35432,48,54,12,50,3.0,4-16A,other
35433,48,58,27,556,1.0,5-34,minor
35434,41,54,164,41,1.0,5-34,minor
35435,47,53,44,77,1.0,5-34,minor
35436,47,49,6,117,9.0,3-7A,minor
35437,50,56,150,122,8.0,4-28,diminished
35438,56,67,31,76,7.0,2-2,other
35439,59,76,20,62,8.0,2-2,other
35440,57,48,24,63,0.0,2-5,other
35441,58,62,24,31,0.0,2-5,other
35442,65,79,20,61,2.0,2-3,minor
35443,71,80,19,82,10.0,2-1,other
35444,72,57,62,61,10.0,4-11A,major
35445,64,59,11,27,10.0,4-11A,major
35446,64,46,18,35,10.0,4-11A,major
35447,70,71,20,58,0.0,2-2,other
35448,69,60,24,28,0.0,2-2,other
35449,68,69,16,33,0.0,2-2,other
35450,63,59,86,66,9.0,3-2A,minor
35451,48,72,35,157,6.0,2-2,other
35452,65,59,18,377,9.0,2-2,other
35453,69,79,29,71,0.0,3-9,other
35454,70,110,34,39,0.0,3-9,other
35455,77,60,33,251,10.0,4-14A,other
35456,55,41,15,109,9.0,3-11A,minor
35457,75,113,68,207,6.0,3-8B,other
35458,74,49,31,110,2.0,3-8A,major
35459,69,56,33,38,2.0,3-8A,major
35460,70,66,97,89,7.0,4-22B,minor
35461,58,67,22,384,2.0,2-2,other
35462,69,91,26,221,5.0,3-11B,major
35463,62,49,215,316,10.0,4-5B,other
35464,46,61,37,71,10.0,4-5B,other
35465,47,55,7,39,10.0,4-5B,other
35466,35,68,35,75,10.0,4-5B,other
35467,64,44,15,364,9.0,3-11A,minor
35468,76,88,22,76,9.0,2-5,other
35469,74,88,18,33,9.0,2-5,other
35470,64,57,25,92,9.0,2-3,minor
35471,64,63,143,42,9.0,2-3,minor
35472,53,59,112,46,9.0,2-3,minor
35473,45,85,26,72,9.0,2-3,minor
35474,74,95,24,87,9.0,2-5,other
35475,62,61,33,115,6.0,2-2,other
35476,60,49,33,36,6.0,2-2,other
35477,60,1,15,95,2.0,2-3,minor
35478,62,63,45,26,2.0,2-3,minor
35479,55,47,98,42,2.0,2-3,minor
35480,60,59,22,39,2.0,2-3,minor
35481,62,61,17,38,2.0,2-3,minor
35482,59,68,21,119,2.0,2-2,other
35483,62,90,53,34,2.0,2-2,other
35484,60,76,150,26,2.0,2-2,other
35485,57,71,103,34,2.0,2-2,other
35486,45,86,21,34,2.0,2-2,other
35487,45,77,147,39,2.0,2-2,other
35488,53,74,122,75,2.0,2-2,other
35489,60,54,29,47,2.0,2-2,other
35490,69,58,24,37,2.0,2-2,other
35491,72,55,81,122,6.0,3-7A,minor
35492,64,1,20,28,6.0,3-7A,minor
35493,44,35,15,382,6.0,3-10,other
35494,51,55,23,465,9.0,4-26,minor
35495,43,60,13,402,4.0,4-18A,major
35496,67,56,14,73,4.0,4-18A,major
35497,70,5,50,84,0.0,4-26,minor
35498,47,72,17,152,2.0,5-31B,major
35499,46,87,13,239,1.0,4-21,other
35500,46,79,16,26,1.0,4-21,other
35501,41,64,159,465,1.0,4-12A,minor
35502,50,61,42,119,5.0,4-20,major
35503,54,60,18,201,8.0,5-31B,diminished
35504,53,58,93,38,8.0,5-31B,diminished
35505,44,58,20,125,8.0,2-6,other
35506,36,80,10,321,0.0,4-27B,major
35507,41,86,177,385,3.0,5-27A,major
35508,41,50,7,253,2.0,4-18A,major
35509,69,95,28,355,1.0,3-8A,other
35510,69,95,19,44,1.0,3-8A,other
35511,69,76,20,36,1.0,3-8A,other
35512,70,73,27,39,1.0,3-8A,other
35513,67,73,40,823,6.0,5-16A,minor
35514,65,74,32,124,6.0,3-5B,other
35515,63,66,40,123,4.0,4-29A,minor
35516,70,59,38,233,10.0,4-22A,major
35517,69,52,21,109,9.0,3-5B,other
35518,44,66,11,115,5.0,3-4A,other
35519,53,62,25,28,5.0,3-4A,other
35520,60,48,69,53,0.0,3-11B,other
35521,65,73,19,26,0.0,3-11B,other
35522,70,79,14,56,3.0,2-5,other
35523,75,73,17,60,0.0,1-1,other
35524,77,82,22,33,0.0,1-1,other
35525,80,84,20,31,0.0,1-1,other
35526,92,96,21,122,5.0,2-2,other
35527,89,79,38,88,1.0,3-7A,other
35528,89,84,55,119,3.0,3-9,other
35529,84,73,25,59,3.0,3-9,other
35530,82,77,67,58,3.0,3-9,other
35531,80,78,38,69,3.0,3-9,other
35532,77,69,64,56,3.0,3-9,other
35533,48,40,57,129,5.0,3-4A,major
35534,57,35,64,115,4.0,4-23,minor
35535,67,56,49,239,0.0,4-22A,major
35536,79,34,57,245,2.0,3-9,other
35537,50,38,804,0,,,
35538,60,39,110,300,,,
35539,62,53,71,116,,,
35540,67,75,51,79,,,
35541,69,82,49,72,,,
35542,71,76,87,55,,,
35543,74,54,97,134,7.0,3-11B,major
35544,71,50,542,179,2.0,2-2,other
35545,62,44,85,187,0.0,2-5,other
35546,59,33,270,241,2.0,1-1,other
35547,67,38,98,118,2.0,1-1,other
35548,76,57,198,111,2.0,1-1,other
35549,68,30,86,284,0.0,4-29B,other
35550,67,38,91,86,0.0,4-29B,other
35551,75,60,74,100,0.0,4-29B,other
35552,74,69,34,106,0.0,1-1,other
35553,75,77,19,33,0.0,1-1,other
35554,77,71,32,26,0.0,1-1,other
35555,89,57,25,156,3.0,2-1,other
35556,86,69,42,86,0.0,3-2B,minor
35557,84,50,19,51,0.0,3-2B,minor
35558,79,53,53,169,8.0,2-2,other
35559,77,43,67,61,8.0,2-2,other
35560,82,49,52,59,8.0,2-2,other
35561,79,46,47,140,0.0,5-24B,other
35562,77,50,28,54,0.0,5-24B,other
35563,75,63,26,53,0.0,5-24B,other
35564,74,75,58,136,5.0,2-2,other
35565,72,34,55,154,2.0,2-3,minor
35566,76,71,66,323,7.0,2-5,other
35567,50,29,66,163,4.0,3-7B,other
35568,62,25,86,86,4.0,3-7B,other
35569,74,68,68,73,4.0,3-7B,other
35570,59,31,94,140,11.0,2-3,minor
35571,68,38,87,776,0.0,2-3,minor
35572,72,29,49,181,0.0,2-3,minor
35573,68,25,9,152,0.0,2-3,minor
35574,50,36,625,173,0.0,2-3,minor
35575,62,63,51,597,0.0,3-11B,other
35576,62,48,90,398,2.0,1-1,other
35577,67,71,95,753,2.0,2-5,other
35578,62,78,75,690,8.0,4-21,other
35579,62,58,86,235,9.0,4-23,minor
35580,62,28,118,443,2.0,4-25,major
35581,58,56,61,413,11.0,2-3,minor
35582,56,53,48,118,7.0,3-9,other
35583,54,53,48,98,7.0,3-11B,major
35584,52,60,49,100,2.0,2-3,minor
35585,49,48,48,203,3.0,2-4,major
35586,38,42,161,126,2.0,4-26,minor
35587,45,42,132,64,2.0,4-26,minor
35588,53,54,42,59,2.0,4-26,minor
35589,57,65,31,55,2.0,4-26,minor
35590,61,71,23,43,2.0,4-26,minor
35591,64,71,26,44,2.0,4-26,minor
35592,69,80,52,41,2.0,4-26,minor
35593,73,62,38,41,2.0,4-26,minor
35594,76,72,20,44,2.0,4-26,minor
35595,81,77,96,50,2.0,4-26,minor
35596,85,69,118,49,2.0,4-26,minor
35597,62,1,77,338,3.0,3-11A,other
35598,62,17,248,204,7.0,1-1,other
35599,77,49,66,241,8.0,2-3,other
35600,55,34,286,262,0.0,2-4,major
35601,64,30,104,91,0.0,2-4,major
35602,79,68,211,86,0.0,2-4,major
35603,55,54,292,154,2.0,2-5,other
35604,67,60,127,77,2.0,2-5,other
35605,79,78,40,72,2.0,2-5,other
35606,57,36,210,210,6.0,2-6,other
35607,69,59,135,77,6.0,2-6,other
35608,57,40,75,165,6.0,2-3,minor
35609,69,33,61,83,6.0,2-3,minor
35610,79,49,96,435,9.0,1-1,other
35611,81,40,120,142,9.0,1-1,other
35612,57,29,101,198,7.0,2-4,major
35613,74,67,351,189,2.0,2-4,major
35614,48,43,109,215,5.0,4-21,major
35615,28,49,13,260,9.0,2-6,other
35616,56,33,159,102,9.0,2-6,other
35617,74,9,22,31,9.0,2-6,other
35618,62,36,49,67,9.0,2-6,other
35619,34,52,46,202,9.0,2-6,other
35620,56,10,46,135,9.0,2-6,other
35621,74,75,212,360,4.0,4-15B,other
35622,67,58,20,1958,7.0,3-11B,major
35623,74,41,86,1328,10.0,3-9,other
35624,74,38,205,119,10.0,3-9,other
35625,50,48,280,559,4.0,2-3,minor
35626,55,49,28,490,0.0,3-8A,major
35627,69,13,53,325,9.0,3-9,other
35628,57,30,15,89,9.0,3-9,other
35629,74,48,88,306,8.0,4-27B,other
35630,74,48,171,1337,2.0,1-1,other
35631,74,82,373,198,2.0,1-1,other
35632,83,87,92,107,2.0,1-1,other
35633,55,63,184,37,2.0,1-1,other
35634,69,56,24,250,10.0,2-1,other
35635,68,56,25,32,10.0,2-1,other
35636,64,69,22,105,6.0,2-1,other
35637,47,66,19,386,1.0,2-1,other
35638,42,51,41,116,5.0,5-11A,major
35639,41,54,26,32,5.0,5-11A,major
35640,40,69,20,30,5.0,5-11A,major
35641,35,63,22,113,1.0,2-1,other
35642,30,62,36,122,8.0,2-1,other
35643,29,62,26,37,8.0,2-1,other
35644,26,77,42,81,3.0,2-5,other
35645,25,92,611,38,3.0,2-5,other
35646,24,68,88,713,3.0,2-5,other
35647,48,50,120,98,3.0,2-5,other
35648,60,42,492,108,3.0,2-5,other
35649,76,78,137,431,0.0,3-11B,major
35650,81,60,47,631,2.0,3-11B,major
35651,79,68,21,300,7.0,4-22A,major
35652,74,68,59,281,5.0,7-34,major
35653,76,51,67,320,9.0,6-48,minor
35654,34,39,19,159,9.0,6-48,minor
35655,72,49,38,593,5.0,5-30B,other
35656,72,50,43,76,5.0,5-30B,other
35657,72,33,73,81,5.0,5-30B,other
35658,54,29,208,235,2.0,4-21,major
35659,66,40,67,231,6.0,2-6,other
35660,57,60,99,343,0.0,3-11B,major
35661,76,89,222,317,7.0,3-11B,major
35662,74,59,82,294,5.0,3-11B,major
35663,68,36,143,446,3.0,4-24,augmented
35664,84,94,103,584,9.0,6-32,minor
35665,84,81,65,138,9.0,6-32,minor
35666,72,79,127,3382,4.0,2-3,minor
35667,52,26,569,1274,9.0,2-3,minor
35668,74,84,43,638,0.0,3-11B,major
35669,71,61,44,196,0.0,3-11B,major
35670,35,54,59,701,2.0,4-22A,major
35671,83,68,37,1470,7.0,4-18A,major
35672,83,74,36,73,7.0,4-18A,major
35673,83,66,50,92,7.0,4-18A,major
35674,85,59,80,468,6.0,4-5B,other
35675,85,49,38,118,6.0,4-5B,other
35676,85,62,48,98,6.0,4-5B,other
35677,86,52,57,273,10.0,5-30B,other
35678,86,32,89,361,2.0,1-1,other
35679,26,24,75,722,0.0,6-35,augmented
35680,74,24,28,429,0.0,6-35,augmented
35681,74,17,25,1987,4.0,2-2,other
35682,52,32,176,424,10.0,2-1,other
35683,59,32,190,91,10.0,2-1,other
35684,60,49,107,81,10.0,2-1,other
35685,67,57,157,502,6.0,2-6,other
35686,59,26,192,448,11.0,2-3,minor
35687,86,90,74,107,11.0,2-3,minor
35688,79,61,37,87,11.0,2-3,minor
35689,65,92,166,1877,8.0,5-31B,diminished
35690,65,30,30,182,8.0,5-31B,diminished
35691,55,41,222,303,0.0,3-11B,major
35692,64,38,125,159,0.0,3-11B,major
35693,55,30,135,140,0.0,3-11B,major
35694,57,41,170,237,6.0,3-10,diminished
35695,57,42,30,258,6.0,2-3,minor
35696,55,50,133,236,7.0,2-4,major
35697,47,33,20,219,7.0,3-11B,major
35698,28,44,64,140,7.0,3-11B,major
35699,64,39,100,903,9.0,4-26,minor
35700,69,52,94,95,9.0,4-26,minor
35701,76,77,60,96,9.0,4-26,minor
35702,74,61,99,245,10.0,5-33,augmented
35703,84,87,66,322,2.0,2-2,other
35704,48,48,19,260,3.0,3-8B,other
35705,67,48,35,211,3.0,2-4,other
35706,28,41,190,332,0.0,5-30B,other
35707,52,30,63,1103,9.0,2-4,major
35708,57,44,72,77,9.0,2-4,major
35709,59,35,194,80,9.0,2-4,major
35710,59,20,98,230,1.0,3-8B,other
35711,71,65,103,221,9.0,2-2,other
35712,55,64,25,210,0.0,4-26,minor
35713,62,66,12,180,9.0,2-6,other
35714,54,25,51,248,6.0,5-31B,diminished
35715,70,59,157,301,5.0,3-8A,major
35716,75,50,45,2437,4.0,2-6,other
35717,57,39,43,268,11.0,2-3,minor
35718,76,68,133,1537,0.0,5-30B,other
35719,33,56,80,642,0.0,5-27A,major
35720,62,72,298,2223,2.0,1-1,other
35721,67,83,73,419,1.0,4-27A,diminished
35722,67,82,71,226,0.0,4-26,minor
35723,67,64,50,255,7.0,4-22A,major
35724,67,61,37,261,1.0,4-13A,other
35725,67,67,80,314,9.0,3-7A,minor
35726,67,50,334,797,0.0,4-16A,other
35727,58,92,2700,0,10.0,1-1,other
35728,82,32,140,3030,10.0,1-1,other
35729,83,30,120,710,0.0,1-1,other
35730,61,85,1860,1300,0.0,1-1,other
35731,89,40,130,3990,7.0,1-1,other
35732,54,66,570,7490,0.0,1-1,other
35733,56,63,350,300,0.0,1-1,other
35734,60,66,300,220,0.0,1-1,other
35735,58,36,150,70,0.0,1-1,other
35736,62,73,400,210,0.0,1-1,other
35737,64,56,230,300,0.0,1-1,other
35738,66,56,510,260,0.0,1-1,other
35739,68,59,470,100,0.0,1-1,other
35740,70,49,250,230,0.0,1-1,other
35741,72,45,350,190,0.0,1-1,other
35742,74,63,420,220,0.0,1-1,other
35743,76,54,340,250,0.0,1-1,other
35744,78,54,530,340,0.0,1-1,other
35745,80,57,510,90,0.0,1-1,other
35746,82,66,320,200,0.0,1-1,other
35747,84,56,410,240,0.0,1-1,other
35748,86,62,480,270,0.0,1-1,other
35749,88,57,310,320,0.0,1-1,other
35750,90,61,1910,300,0.0,1-1,other
35751,94,60,1440,450,0.0,1-1,other
35752,91,43,280,30,0.0,1-1,other
35753,96,122,1850,570,0.0,1-1,other
35754,63,86,720,4310,0.0,1-1,other
35755,62,64,330,900,0.0,1-1,other
35756,61,61,480,300,0.0,1-1,other
35757,60,58,290,300,0.0,1-1,other
35758,59,57,250,310,0.0,1-1,other
35759,58,50,260,320,0.0,1-1,other
35760,57,55,280,340,0.0,1-1,other
35761,55,64,290,330,0.0,1-1,other
35762,51,48,2020,380,0.0,1-1,other
35763,48,53,2470,2020,8.0,2-3,other
35764,56,56,350,1840,8.0,2-3,other
35765,60,58,460,50,8.0,2-3,other
35766,51,39,710,70,8.0,2-3,other
35767,50,63,1560,6610,3.0,1-1,other
35768,74,79,1520,40,3.0,1-1,other
35769,62,65,1480,30,3.0,1-1,other
35770,60,64,310,12270,5.0,4-18A,major
35771,65,58,460,460,5.0,4-18A,major
35772,69,63,240,450,5.0,4-18A,major
35773,78,75,220,360,5.0,4-18A,major
35774,72,47,230,410,5.0,4-18A,major
35775,77,58,320,300,5.0,4-18A,major
35776,81,75,200,320,5.0,4-18A,major
35777,90,82,170,370,5.0,4-18A,major
35778,84,56,290,310,5.0,4-18A,major
35779,90,54,100,140,5.0,4-18A,major
35780,89,55,330,180,5.0,4-18A,major
35781,93,70,210,330,5.0,4-18A,major
35782,99,55,90,440,5.0,4-18A,major
35783,96,37,1960,300,5.0,4-18A,major
35784,101,60,1520,190,5.0,4-18A,major
35785,105,73,1230,350,5.0,4-18A,major
35786,39,52,640,4820,5.0,4-18A,major
35787,58,55,670,30,5.0,4-18A,major
35788,46,42,2340,50,5.0,4-18A,major
35789,70,88,570,1780,5.0,4-18A,major
35790,55,52,850,1570,6.0,2-3,minor
35791,70,69,510,750,6.0,2-3,minor
35792,67,57,610,1080,0.0,3-11A,minor
35793,69,74,660,910,0.0,3-11A,minor
35794,54,49,2430,1110,0.0,3-11A,minor
35795,68,61,1420,30,0.0,3-11A,minor
35796,63,46,1030,50,0.0,3-11A,minor
35797,60,24,1740,70,0.0,3-11A,minor
35798,63,66,2270,1510,0.0,3-11A,minor
35799,67,64,940,3360,0.0,3-11A,minor
35800,55,44,1500,120,5.0,2-4,major
35801,67,66,1040,1610,5.0,2-4,major
35802,67,49,3960,1390,3.0,2-4,other
35803,64,49,970,260,7.0,2-2,other
35804,63,66,910,890,7.0,2-2,other
35805,62,61,1380,1180,7.0,2-2,other
35806,59,24,1410,50,7.0,2-2,other
35807,62,66,410,1800,7.0,2-2,other
35808,53,63,900,1410,1.0,2-3,other
35809,55,78,770,1130,1.0,2-3,other
35810,61,54,830,1390,1.0,2-3,other
35811,48,57,2110,100,4.0,2-6,other
35812,73,67,920,1670,4.0,2-6,other
35813,58,48,670,130,4.0,2-4,major
35814,41,63,340,4650,0.0,3-6,other
35815,55,49,1290,1580,0.0,2-4,other
35816,53,54,170,1470,0.0,2-3,minor
35817,37,56,1300,2170,3.0,3-11B,major
35818,44,22,1650,1870,4.0,2-5,other
35819,53,54,1390,800,3.0,3-11B,other
35820,65,57,540,1830,8.0,1-1,other
35821,62,60,490,50,8.0,1-1,other
35822,47,62,820,4290,10.0,1-1,other
35823,59,66,670,30,10.0,1-1,other
35824,50,68,690,900,10.0,1-1,other
35825,62,83,870,60,10.0,1-1,other
35826,49,54,790,2090,2.0,1-1,other
35827,61,71,660,40,2.0,1-1,other
35828,60,68,1600,1130,2.0,1-1,other
35829,48,60,1200,1170,3.0,3-7A,other
35830,58,68,610,4220,3.0,3-7A,other
35831,43,60,1090,80,7.0,2-2,other
35832,67,71,420,3520,10.0,3-4A,major
35833,55,71,360,30,10.0,3-4A,major
35834,71,68,400,1260,10.0,3-4A,major
35835,65,34,140,170,0.0,2-4,major
35836,75,81,440,1080,0.0,2-4,major
35837,77,64,940,3020,7.0,2-2,other
35838,55,57,1620,2520,0.0,2-3,minor
35839,63,54,600,1220,0.0,2-3,minor
35840,74,81,1020,2500,7.0,2-5,other
35841,74,61,1150,1500,7.0,2-5,other
35842,62,56,660,1180,7.0,2-4,major
35843,67,52,1270,930,7.0,2-4,major
35844,74,63,310,920,7.0,2-4,major
35845,74,71,660,1120,7.0,2-4,major
35846,62,46,2450,70,3.0,3-11B,major
35847,75,71,930,1050,3.0,3-11B,major
35848,63,1,350,440,3.0,3-11B,major
35849,67,54,1030,710,3.0,3-11B,major
35850,69,66,540,1200,3.0,3-11B,major
35851,51,48,1020,1450,3.0,2-5,other
35852,57,37,760,30,3.0,2-5,other
35853,72,57,360,1230,3.0,2-5,other
35854,70,42,720,90,3.0,2-5,other
35855,51,42,3080,1590,6.0,2-6,other
35856,69,46,1450,50,6.0,2-6,other
35857,41,43,2260,30,6.0,2-6,other
35858,74,72,2300,2110,6.0,2-6,other
35859,62,49,1870,50,6.0,2-6,other
35860,71,57,520,4150,6.0,3-7A,other
35861,71,57,160,980,6.0,3-7A,other
35862,73,48,390,1890,1.0,2-5,other
35863,69,61,1050,1050,1.0,2-5,other
35864,74,58,130,1060,2.0,3-6,major
35865,80,57,2570,1260,2.0,3-6,major
35866,81,61,400,2920,4.0,3-9,other
35867,69,54,330,40,4.0,3-9,other
35868,82,60,950,1070,4.0,3-9,other
35869,74,36,350,160,3.0,2-5,other
35870,46,48,720,790,3.0,2-5,other
35871,55,54,950,890,3.0,2-5,other
35872,58,58,4750,870,3.0,2-5,other
35873,67,49,2770,2170,2.0,2-3,minor
35874,86,53,2780,1450,2.0,2-3,minor
35875,79,28,2070,120,2.0,1-1,other
35876,85,83,730,3440,2.0,1-1,other
35877,84,54,440,920,2.0,1-1,other
35878,83,62,370,330,2.0,1-1,other
35879,81,50,300,470,2.0,1-1,other
35880,82,67,980,500,2.0,1-1,other
35881,43,43,1110,130,2.0,1-1,other
35882,53,55,1120,1140,2.0,1-1,other
35883,65,55,870,1220,1.0,2-3,other
35884,70,73,910,940,1.0,2-3,other
35885,60,49,730,70,1.0,2-3,other
35886,73,63,770,1020,1.0,2-3,other
35887,70,57,1340,60,4.0,2-4,major
35888,61,57,1000,30,4.0,2-4,major
35889,70,77,790,3590,0.0,3-8A,major
35890,68,86,780,3240,5.0,2-5,other
35891,65,71,610,60,5.0,2-5,other
35892,60,48,570,1170,3.0,3-7A,other
35893,56,56,400,1630,3.0,2-4,major
35894,63,75,640,2590,2.0,2-3,minor
35895,60,66,520,50,2.0,2-3,minor
35896,63,75,320,990,2.0,2-3,minor
35897,75,78,640,2350,3.0,2-4,major
35898,62,49,890,100,3.0,2-4,major
35899,74,85,520,950,3.0,2-4,major
35900,63,56,3130,1220,2.0,2-4,major
35901,60,51,1310,30,2.0,2-4,major
35902,50,35,2710,140,2.0,2-4,major
35903,72,70,800,980,2.0,2-4,major
35904,57,49,1760,50,2.0,2-4,major
35905,71,67,1010,1240,2.0,2-4,major
35906,60,42,620,60,2.0,2-4,major
35907,69,71,1190,1060,2.0,2-4,major
35908,50,50,140,90,2.0,2-4,major
35909,70,67,1870,1240,2.0,2-4,major
35910,39,57,930,60,2.0,2-4,major
35911,46,55,900,1010,2.0,2-4,major
35912,62,70,690,60,2.0,2-4,major
35913,70,85,480,1730,7.0,1-1,other
35914,58,63,2490,40,7.0,1-1,other
35915,77,102,1010,960,7.0,1-1,other
35916,62,69,860,40,7.0,1-1,other
35917,67,55,100,1110,7.0,1-1,other
35918,75,63,560,2420,3.0,2-1,other
35919,73,66,480,1030,9.0,3-8A,major
35920,55,42,1400,1260,0.0,2-4,other
35921,71,68,600,1030,0.0,2-4,other
35922,70,59,2110,1240,0.0,2-4,other
35923,65,42,1970,120,6.0,2-6,other
35924,53,56,680,1200,6.0,2-6,other
35925,60,41,2190,1500,3.0,2-5,other
35926,53,42,1050,100,3.0,2-5,other
35927,53,54,3540,1450,3.0,2-5,other
35928,53,43,1330,5920,0.0,3-11B,major
35929,55,44,640,1930,5.0,2-4,major
35930,54,43,160,3030,3.0,2-5,other
35931,53,47,560,1150,7.0,4-26,minor
35932,53,32,180,1500,7.0,2-2,other
35933,63,57,640,4890,2.0,2-3,minor
35934,67,63,520,3280,0.0,3-8A,major
35935,41,46,1040,1590,0.0,2-3,minor
35936,55,76,1010,1100,0.0,2-3,minor
35937,56,79,5490,1080,0.0,2-3,minor
35938,60,71,2110,1030,0.0,2-3,minor
35939,67,73,1180,1350,0.0,2-3,minor
35940,63,75,1130,30,0.0,2-3,minor
35941,66,1,200,940,0.0,2-3,minor
35942,68,77,980,360,0.0,2-3,minor
35943,63,61,610,1260,7.0,2-3,minor
35944,75,73,1490,2020,7.0,2-3,minor
35945,56,54,380,100,7.0,2-3,minor
35946,37,52,940,1610,11.0,2-6,other
35947,44,57,1130,1090,11.0,2-6,other
35948,82,64,2640,1130,11.0,2-6,other
35949,71,40,1900,90,5.0,2-2,other
35950,59,40,6070,1210,5.0,2-2,other
35951,80,68,1050,3700,8.0,2-3,minor
35952,75,88,1090,1420,8.0,2-3,minor
35953,77,83,390,1200,8.0,2-3,minor
35954,46,63,3280,4560,6.0,2-3,other
35955,55,78,1580,1260,6.0,2-3,other
35956,63,90,750,1360,6.0,2-3,other
35957,44,61,760,2990,8.0,2-2,other
35958,63,72,630,2970,5.0,2-1,other
35959,58,66,500,1820,1.0,2-3,other
35960,53,49,530,100,7.0,2-2,other
35961,65,83,800,1620,1.0,2-3,other
35962,61,78,880,50,1.0,2-3,other
35963,63,84,1390,1600,3.0,4-16A,other
35964,70,66,1310,5210,10.0,3-6,major
35965,55,46,1400,100,10.0,3-6,major
35966,48,38,4190,2220,4.0,2-6,other
35967,61,36,2290,2420,4.0,2-6,other
35968,60,57,310,8560,0.0,4-22A,other
35969,61,57,2050,1080,0.0,4-22A,other
35970,53,52,660,2750,10.0,2-4,major
35971,62,50,110,890,10.0,2-4,major
35972,53,37,130,40,10.0,2-4,major
35973,59,57,2790,1020,3.0,3-11A,other
35974,34,56,640,1090,3.0,3-11A,other
35975,34,54,530,1030,3.0,3-11A,other
35976,46,79,820,1080,0.0,3-11B,major
35977,56,79,2720,2040,10.0,3-11A,other
35978,46,60,350,1290,10.0,3-11A,other
35979,46,52,290,620,10.0,3-11A,other
35980,46,58,1160,730,10.0,3-11A,other
35981,61,33,150,610,10.0,4-19B,augmented
35982,66,56,460,770,10.0,4-19B,augmented
35983,46,52,300,40,10.0,4-19B,augmented
35984,57,56,90,60,10.0,4-19B,augmented
35985,46,49,1300,1090,3.0,3-11B,major
35986,46,55,920,1780,3.0,3-11B,major
35987,34,58,3350,760,3.0,3-11B,major
35988,46,52,2410,2490,5.0,3-11B,major
35989,34,54,410,1100,5.0,3-11B,major
35990,34,48,3900,1280,5.0,3-11B,major
35991,70,60,450,480,5.0,3-11B,major
35992,46,46,350,30,5.0,3-11B,major
35993,61,44,260,30,5.0,3-11B,major
35994,66,46,330,30,5.0,3-11B,major
35995,46,43,2180,2500,11.0,2-3,minor
35996,67,41,1390,40,11.0,2-3,minor
35997,84,75,230,3835,10.0,1-1,other
35998,60,53,110,70,10.0,1-1,other
35999,91,83,1260,2830,0.0,1-1,other
36000,82,49,110,3000,0.0,2-4,other
36001,86,80,720,1440,0.0,2-4,other
36002,63,40,140,1380,0.0,3-11B,other
36003,79,50,100,40,0.0,3-11B,other
36004,56,72,280,810,10.0,2-4,major
36005,82,52,100,70,2.0,1-1,other
36006,82,82,400,3940,0.0,2-5,other
36007,84,57,130,590,0.0,2-5,other
36008,82,50,370,100,0.0,2-5,other
36009,81,50,380,350,0.0,2-5,other
36010,82,63,120,500,0.0,2-5,other
36011,65,25,110,200,2.0,2-2,other
36012,55,34,210,30,2.0,2-2,other
36013,86,74,300,140,2.0,2-2,other
36014,89,80,280,510,2.0,2-2,other
36015,96,122,700,480,2.0,2-2,other
36016,94,85,270,630,2.0,2-2,other
36017,60,37,190,80,2.0,2-2,other
36018,93,47,100,180,2.0,2-2,other
36019,91,85,330,490,2.0,2-2,other
36020,58,39,450,170,0.0,2-3,minor
36021,53,26,380,50,0.0,2-3,minor
36022,87,68,620,440,0.0,2-3,minor
36023,63,47,110,160,0.0,2-3,minor
36024,60,13,430,30,0.0,2-3,minor
36025,58,24,430,130,0.0,2-3,minor
36026,84,63,280,430,0.0,2-3,minor
36027,58,44,260,710,2.0,2-3,minor
36028,55,27,190,100,2.0,2-3,minor
36029,85,68,250,710,2.0,2-3,minor
36030,77,46,400,490,2.0,2-3,minor
36031,77,49,270,880,2.0,2-3,minor
36032,63,48,255,1895,2.0,2-3,minor
36033,73,63,350,2555,4.0,3-8B,other
36034,70,35,170,160,1.0,2-5,other
36035,56,49,110,4030,3.0,2-5,other
36036,63,46,130,70,0.0,2-5,other
36037,63,55,2140,1010,7.0,2-4,major
36038,68,33,140,4290,7.0,2-5,other
36039,67,67,110,60,7.0,2-5,other
36040,66,40,350,210,7.0,2-5,other
36041,67,61,520,340,7.0,2-5,other
36042,62,27,180,810,2.0,2-3,minor
36043,60,29,180,50,2.0,2-3,minor
36044,67,57,280,710,2.0,2-3,minor
36045,65,57,130,1690,2.0,2-3,minor
36046,56,43,310,40,2.0,2-3,minor
36047,63,50,1140,1260,2.0,2-3,minor
36048,57,42,200,1650,3.0,2-1,other
36049,70,40,430,370,3.0,2-1,other
36050,71,60,120,530,3.0,2-1,other
36051,57,34,170,100,3.0,2-1,other
36052,76,84,360,290,3.0,2-1,other
36053,77,69,110,40,3.0,2-1,other
36054,57,42,140,590,3.0,2-1,other
36055,51,26,120,1040,2.0,2-5,other
36056,56,35,160,960,2.0,2-5,other
36057,74,102,450,230,0.0,2-5,other
36058,77,94,290,610,0.0,2-5,other
36059,75,54,570,410,0.0,2-5,other
36060,63,38,240,550,0.0,2-5,other
36061,74,84,490,310,0.0,2-5,other
36062,63,55,200,610,0.0,2-5,other
36063,71,40,140,30,0.0,2-5,other
36064,72,54,390,370,0.0,2-5,other
36065,74,81,260,560,0.0,2-5,other
36066,60,36,780,480,3.0,1-1,other
36067,72,57,110,620,3.0,1-1,other
36068,68,65,280,720,3.0,1-1,other
36069,67,49,800,450,3.0,1-1,other
36070,70,78,710,890,3.0,1-1,other
36071,56,46,280,1020,8.0,2-2,other
36072,70,28,160,110,8.0,2-2,other
36073,62,54,570,800,8.0,2-2,other
36074,46,23,150,720,8.0,2-2,other
36075,65,79,670,270,8.0,2-2,other
36076,62,68,420,960,8.0,2-2,other
36077,39,48,140,620,8.0,2-2,other
36078,46,37,170,50,8.0,2-2,other
36079,58,58,580,290,8.0,2-2,other
36080,55,39,140,710,8.0,2-2,other
36081,57,54,470,360,8.0,2-2,other
36082,58,68,280,600,8.0,2-2,other
36083,46,52,120,90,8.0,2-2,other
36084,60,47,430,400,8.0,2-2,other
36085,61,58,290,510,8.0,2-2,other
36086,63,62,290,880,8.0,2-2,other
36087,65,85,770,430,8.0,2-2,other
36088,58,37,150,630,8.0,2-2,other
36089,55,22,210,70,8.0,2-2,other
36090,61,52,490,230,8.0,2-2,other
36091,64,76,450,540,8.0,2-2,other
36092,61,60,600,580,8.0,2-2,other
36093,58,48,160,160,8.0,2-2,other
36094,60,52,330,570,8.0,2-2,other
36095,58,65,450,570,8.0,2-2,other
36096,56,52,540,500,8.0,2-2,other
36097,48,38,240,540,8.0,2-2,other
36098,55,57,500,290,8.0,2-2,other
36099,53,52,300,640,8.0,2-2,other
36100,63,52,250,2360,8.0,2-2,other
36101,55,40,210,60,8.0,2-2,other
36102,57,34,165,80,8.0,2-2,other
36103,60,56,1290,1390,10.0,3-4A,other
36104,65,55,200,3690,5.0,3-9,other
36105,60,49,160,50,5.0,3-9,other
36106,55,34,150,50,5.0,3-9,other
36107,65,45,110,900,5.0,3-9,other
36108,84,96,490,260,0.0,2-5,other
36109,72,89,90,30,0.0,2-5,other
36110,82,75,430,1970,10.0,3-9,other
36111,70,65,310,30,10.0,3-9,other
36112,58,28,250,700,0.0,2-3,minor
36113,60,45,340,930,0.0,1-1,other
36114,58,39,430,70,0.0,1-1,other
36115,82,77,540,230,0.0,1-1,other
36116,70,72,450,30,0.0,1-1,other
36117,80,38,160,100,0.0,1-1,other
36118,53,17,370,70,0.0,1-1,other
36119,58,45,170,2370,10.0,1-1,other
36120,58,39,230,1040,0.0,1-1,other
36121,63,57,650,840,10.0,1-1,other
36122,60,56,910,1950,4.0,2-6,other
36123,67,60,1880,2160,4.0,2-6,other
36124,56,52,970,2060,0.0,2-3,minor
36125,68,70,810,3960,0.0,2-4,other
36126,54,48,620,1500,3.0,3-11A,other
36127,55,48,600,360,7.0,2-3,minor
36128,62,49,370,40,7.0,2-3,minor
36129,44,68,720,1350,7.0,2-3,minor
36130,70,85,370,1010,7.0,2-3,minor
36131,65,55,380,940,7.0,2-3,minor
36132,58,45,155,180,7.0,2-3,minor
36133,66,53,230,240,7.0,2-5,other
36134,67,56,310,280,7.0,2-5,other
36135,58,40,120,380,7.0,2-5,other
36136,55,32,150,80,7.0,2-5,other
36137,70,99,560,80,7.0,2-5,other
36138,58,43,310,590,7.0,2-5,other
36139,68,72,600,320,7.0,2-5,other
36140,58,43,270,730,7.0,2-5,other
36141,67,82,600,250,7.0,2-5,other
36142,65,78,660,980,7.0,2-5,other
36143,63,70,500,980,5.0,3-11A,other
36144,60,57,470,970,5.0,3-11A,other
36145,60,68,260,690,5.0,3-11A,other
36146,34,58,8060,2940,5.0,3-11A,other
36147,60,63,780,1300,5.0,3-11A,other
36148,57,68,630,1580,1.0,2-3,minor
36149,46,56,810,30,1.0,2-3,minor
36150,53,77,1080,1270,10.0,2-4,major
36151,55,81,550,3600,5.0,2-5,other
36152,46,60,620,30,5.0,2-5,other
36153,34,64,280,800,5.0,2-5,other
36154,46,57,130,150,5.0,2-5,other
36155,54,69,420,260,6.0,2-5,other
36156,67,70,3240,950,6.0,2-5,other
36157,58,50,110,2030,3.0,2-1,other
36158,61,50,280,1720,3.0,2-1,other
36159,55,35,220,130,10.0,2-5,other
36160,61,60,90,1520,10.0,2-5,other
36161,58,43,170,70,10.0,2-5,other
36162,85,50,350,870,1.0,2-3,other
36163,70,44,160,50,1.0,2-3,other
36164,60,42,1280,1030,0.0,2-3,minor
36165,82,82,480,800,0.0,2-3,minor
36166,80,63,290,400,0.0,2-3,minor
36167,79,73,310,520,0.0,2-3,minor
36168,67,39,960,180,0.0,2-3,minor
36169,77,45,670,320,3.0,2-5,other
36170,60,20,850,40,3.0,2-5,other
36171,75,61,170,780,3.0,2-5,other
36172,63,55,410,990,3.0,2-5,other
36173,55,39,240,70,3.0,2-5,other
36174,60,40,180,50,3.0,2-5,other
36175,84,40,180,2680,6.0,2-6,other
36176,85,48,140,180,6.0,2-6,other
36177,86,55,100,240,6.0,2-6,other
36178,89,99,340,240,6.0,2-6,other
36179,65,52,100,80,6.0,2-6,other
36180,84,26,230,460,2.0,2-2,other
36181,85,48,260,50,2.0,2-2,other
36182,86,54,140,300,2.0,2-2,other
36183,89,63,230,170,2.0,2-2,other
36184,79,63,390,270,2.0,2-2,other
36185,65,42,420,930,2.0,2-2,other
36186,79,60,130,30,2.0,2-2,other
36187,62,40,330,50,2.0,2-2,other
36188,60,40,360,30,2.0,2-2,other
36189,55,31,500,60,2.0,2-2,other
36190,63,57,230,1390,2.0,2-2,other
36191,60,49,130,60,2.0,2-2,other
36192,58,44,140,40,2.0,2-2,other
36193,53,24,150,60,2.0,2-2,other
36194,58,42,1810,1240,5.0,3-7B,other
36195,60,37,170,2950,8.0,2-6,other
36196,75,77,360,920,8.0,2-6,other
36197,76,81,280,560,8.0,2-6,other
36198,56,41,330,120,8.0,2-6,other
36199,79,89,380,290,8.0,2-6,other
36200,77,81,390,500,8.0,2-6,other
36201,63,50,100,170,8.0,2-6,other
36202,59,50,170,40,8.0,2-6,other
36203,73,54,490,240,8.0,2-6,other
36204,77,90,430,950,8.0,2-6,other
36205,73,43,120,590,8.0,2-6,other
36206,61,31,150,60,8.0,2-6,other
36207,75,84,440,280,8.0,2-6,other
36208,73,68,260,600,8.0,2-6,other
36209,52,24,620,300,3.0,2-5,other
36210,72,51,370,120,3.0,2-5,other
36211,70,67,330,570,3.0,2-5,other
36212,60,38,150,1060,3.0,2-5,other
36213,56,36,210,40,3.0,2-5,other
36214,67,71,570,250,3.0,2-5,other
36215,68,38,140,710,3.0,2-5,other
36216,67,72,320,80,3.0,2-5,other
36217,65,50,420,240,3.0,2-5,other
36218,64,48,120,650,3.0,2-5,other
36219,67,63,610,220,3.0,2-5,other
36220,60,32,140,540,3.0,2-5,other
36221,56,31,170,70,3.0,2-5,other
36222,64,47,300,70,3.0,2-5,other
36223,65,63,360,290,3.0,2-5,other
36224,63,50,370,1220,8.0,2-3,minor
36225,59,54,230,50,8.0,2-3,minor
36226,56,43,310,50,8.0,2-3,minor
36227,59,49,330,670,3.0,2-5,other
36228,63,59,1250,640,3.0,2-5,other
36229,56,44,680,1280,11.0,2-1,other
36230,70,61,1560,640,11.0,2-1,other
36231,55,48,2010,90,5.0,2-5,other
36232,54,57,160,1850,5.0,2-5,other
36233,66,56,430,250,5.0,2-5,other
36234,67,46,430,610,5.0,2-5,other
36235,65,72,1000,1180,5.0,2-5,other
36236,56,57,1140,40,5.0,2-5,other
36237,60,48,980,30,5.0,2-5,other
36238,55,28,790,140,5.0,2-5,other
36239,63,70,1040,1450,5.0,2-5,other
36240,53,34,1210,160,8.0,2-3,minor
36241,67,66,250,740,8.0,2-3,minor
36242,70,57,330,440,8.0,2-3,minor
36243,71,107,290,550,8.0,2-3,minor
36244,57,50,1080,310,3.0,2-1,other
36245,74,122,350,150,3.0,2-1,other
36246,74,115,330,550,3.0,2-1,other
36247,67,64,330,390,3.0,2-1,other
36248,72,79,280,940,9.0,2-2,other
36249,57,55,240,610,0.0,2-3,minor
36250,65,57,130,390,0.0,2-3,minor
36251,65,64,190,490,0.0,2-3,minor
36252,67,73,300,360,0.0,2-3,minor
36253,67,76,300,520,0.0,2-3,minor
36254,60,34,130,190,0.0,2-3,minor
36255,56,34,220,50,0.0,2-3,minor
36256,53,31,150,50,0.0,2-3,minor
36257,63,63,360,80,0.0,2-3,minor
36258,56,46,130,490,0.0,2-3,minor
36259,63,75,410,120,0.0,2-3,minor
36260,60,58,670,430,0.0,2-3,minor
36261,56,49,130,490,0.0,2-3,minor
36262,62,79,720,390,0.0,2-3,minor
36263,63,69,1300,960,0.0,2-3,minor
36264,60,60,320,950,10.0,2-5,other
36265,67,72,1120,970,10.0,2-5,other
36266,56,60,1590,60,11.0,2-3,minor
36267,62,77,750,3490,5.0,2-4,major
36268,56,64,890,80,5.0,2-4,major
36269,54,50,390,910,5.0,2-4,major
36270,60,75,1250,330,7.0,3-7A,minor
36271,59,64,580,1550,9.0,2-5,other
36272,54,63,1260,40,9.0,2-5,other
36273,51,48,350,880,9.0,2-5,other
36274,62,63,230,1320,5.0,2-5,other
36275,72,61,330,3570,0.0,2-3,minor
36276,79,63,280,50,0.0,2-3,minor
36277,76,40,110,980,0.0,5-27A,other
36278,80,58,360,1170,0.0,5-27A,other
36279,79,75,350,970,0.0,3-11B,other
36280,60,52,460,130,3.0,3-4B,other
36281,65,55,90,700,8.0,2-3,other
36282,75,40,140,80,8.0,2-3,other
36283,58,48,120,830,5.0,6-46A,major
36284,87,45,120,30,5.0,6-46A,major
36285,87,79,400,1180,3.0,2-4,major
36286,75,80,300,40,3.0,2-4,major
36287,57,52,280,30,3.0,2-4,major
36288,55,45,1060,2920,0.0,2-2,other
36289,62,56,1120,1560,5.0,2-5,other
36290,55,44,1280,30,5.0,2-5,other
36291,58,22,350,1010,5.0,2-5,other
36292,53,36,2580,1260,0.0,3-7A,minor
36293,63,42,130,1410,0.0,3-7A,minor
36294,60,38,1150,40,0.0,3-7A,minor
36295,58,34,1160,110,0.0,3-7A,minor
36296,82,94,710,170,0.0,3-7A,minor
36297,81,68,240,580,0.0,3-7A,minor
36298,80,61,500,170,0.0,3-7A,minor
36299,79,55,280,290,0.0,3-7A,minor
36300,82,88,730,580,0.0,3-7A,minor
36301,81,49,280,600,0.0,3-7A,minor
36302,80,56,360,190,0.0,3-7A,minor
36303,79,49,120,280,0.0,3-7A,minor
36304,82,89,2770,330,0.0,3-7A,minor
36305,58,39,130,620,0.0,3-7A,minor
36306,55,39,120,850,10.0,2-4,major
36307,63,57,1360,1250,10.0,2-4,major
36308,78,84,430,1000,4.0,2-6,other
36309,79,94,450,700,4.0,2-6,other
36310,73,65,290,1300,4.0,2-6,other
36311,63,46,1070,950,0.0,3-4A,other
36312,60,47,1000,40,0.0,3-4A,other
36313,75,72,390,1280,0.0,3-4A,other
36314,67,43,150,310,0.0,3-4A,other
36315,63,42,720,30,0.0,3-4A,other
36316,56,24,350,60,0.0,3-4A,other
36317,68,49,360,110,0.0,3-4A,other
36318,60,10,350,240,0.0,3-4A,other
36319,68,63,250,370,0.0,3-4A,other
36320,63,56,310,820,0.0,3-4A,other
36321,59,54,250,60,0.0,3-4A,other
36322,53,33,150,50,0.0,3-4A,other
36323,63,61,450,2910,10.0,2-5,other
36324,65,50,1080,1310,11.0,2-1,other
36325,60,52,940,60,7.0,2-5,other
36326,58,1,260,890,7.0,2-5,other
36327,82,90,350,530,7.0,2-5,other
36328,72,50,230,1230,0.0,2-2,other
36329,53,57,1060,780,0.0,2-2,other
36330,55,55,960,70,10.0,2-4,major
36331,73,63,320,1260,7.0,2-2,other
36332,34,63,6100,2340,4.0,3-8A,other
36333,46,53,150,480,4.0,3-8A,other
36334,41,45,180,1670,4.0,3-8A,other
36335,61,66,320,1330,3.0,2-5,other
36336,57,47,240,110,4.0,2-6,other
36337,56,31,150,30,4.0,2-6,other
36338,46,62,170,2420,3.0,3-11B,other
36339,65,57,600,1320,1.0,3-7A,other
36340,53,24,140,2660,10.0,2-1,other
36341,56,64,1240,230,3.0,3-12,augmented
36342,68,75,790,1850,3.0,3-12,augmented
36343,63,44,570,140,5.0,3-11A,other
36344,69,75,330,1360,5.0,3-11A,other
36345,63,80,290,40,5.0,3-11A,other
36346,61,57,130,750,0.0,2-4,other
36347,67,49,390,1000,2.0,5-15,major
36348,60,57,1310,540,2.0,5-15,major
36349,62,54,300,1660,7.0,2-3,minor
36350,60,40,180,30,7.0,2-3,minor
36351,67,72,510,270,7.0,2-3,minor
36352,66,49,170,590,7.0,2-3,minor
36353,60,37,150,110,7.0,2-3,minor
36354,67,49,400,290,7.0,2-3,minor
36355,74,78,380,500,7.0,2-3,minor
36356,72,66,500,420,7.0,2-3,minor
36357,66,56,550,980,10.0,2-4,major
36358,62,38,130,460,10.0,2-4,major
36359,58,31,150,120,10.0,2-4,major
36360,65,61,450,290,10.0,2-4,major
36361,58,43,270,730,10.0,2-4,major
36362,64,63,630,230,10.0,2-4,major
36363,61,59,610,990,10.0,2-4,major
36364,60,57,460,910,10.0,2-4,major
36365,56,39,140,1690,0.0,2-3,minor
36366,63,58,130,1220,0.0,2-3,minor
36367,60,42,130,100,0.0,2-3,minor
36368,65,50,150,1420,0.0,2-3,minor
36369,60,49,100,1950,2.0,2-3,minor
36370,89,66,100,240,2.0,2-3,minor
36371,77,47,110,40,2.0,2-3,minor
36372,86,45,110,380,2.0,2-3,minor
36373,89,82,340,170,2.0,2-3,minor
36374,62,54,120,50,2.0,2-3,minor
36375,86,52,430,250,2.0,2-3,minor
36376,82,55,280,340,2.0,2-3,minor
36377,77,56,100,350,2.0,2-3,minor
36378,58,54,1920,1400,0.0,2-3,minor
36379,53,46,1740,60,0.0,2-3,minor
36380,63,68,120,2340,0.0,2-3,minor
36381,53,37,140,110,0.0,2-2,other
36382,62,48,110,1000,0.0,2-2,other
36383,55,31,150,120,0.0,2-2,other
36384,89,76,100,170,0.0,2-2,other
36385,77,53,100,50,0.0,2-2,other
36386,86,31,140,370,0.0,2-2,other
36387,58,48,210,30,0.0,2-2,other
36388,86,61,400,370,5.0,1-1,other
36389,82,63,340,370,5.0,1-1,other
36390,77,42,110,500,10.0,2-4,major
36391,85,67,520,270,10.0,2-4,major
36392,84,99,370,1520,10.0,2-4,major
36393,58,43,120,150,10.0,2-4,major
36394,85,50,320,410,10.0,2-4,major
36395,84,56,280,180,10.0,2-4,major
36396,83,58,190,300,10.0,2-4,major
36397,58,39,150,180,10.0,2-4,major
36398,82,76,420,130,10.0,2-4,major
36399,84,77,315,590,10.0,2-4,major
36400,58,45,140,150,10.0,2-4,major
36401,79,54,380,320,10.0,2-4,major
36402,77,77,220,520,10.0,2-4,major
36403,75,14,330,580,3.0,2-5,other
36404,72,56,140,430,3.0,2-5,other
36405,58,53,240,60,3.0,2-5,other
36406,75,57,400,280,3.0,2-5,other
36407,77,81,300,550,3.0,2-5,other
36408,56,46,430,190,0.0,2-3,minor
36409,53,30,180,30,0.0,2-3,minor
36410,79,102,600,180,0.0,2-3,minor
36411,72,72,500,930,0.0,2-3,minor
36412,68,63,355,570,0.0,2-3,minor
36413,63,42,150,160,0.0,2-3,minor
36414,67,55,290,270,0.0,2-3,minor
36415,60,51,380,610,3.0,2-5,other
36416,63,60,680,1270,3.0,2-5,other
36417,59,49,530,90,3.0,2-5,other
36418,53,41,460,80,3.0,2-5,other
36419,53,44,330,1430,3.0,2-4,other
36420,58,38,410,70,3.0,2-4,other
36421,60,45,500,1340,7.0,3-7B,other
36422,60,55,140,1470,2.0,2-3,minor
36423,74,54,390,430,2.0,2-3,minor
36424,74,92,300,590,2.0,2-3,minor
36425,77,99,380,390,2.0,2-3,minor
36426,62,41,190,590,5.0,1-1,other
36427,60,40,130,60,5.0,1-1,other
36428,70,36,330,330,5.0,1-1,other
36429,70,43,310,460,5.0,1-1,other
36430,74,78,330,430,5.0,1-1,other
36431,60,41,130,700,7.0,2-1,other
36432,67,61,280,850,7.0,2-1,other
36433,63,64,140,180,7.0,2-1,other
36434,59,54,120,40,7.0,2-1,other
36435,56,35,200,120,7.0,2-1,other
36436,70,79,340,40,7.0,2-1,other
36437,56,41,300,530,7.0,2-1,other
36438,65,61,240,1080,3.0,2-1,other
36439,57,56,300,60,3.0,2-1,other
36440,67,86,290,400,3.0,2-1,other
36441,57,41,150,390,3.0,2-1,other
36442,67,81,290,100,3.0,2-1,other
36443,57,49,240,920,3.0,2-1,other
36444,62,69,120,200,3.0,2-1,other
36445,65,81,390,280,3.0,2-1,other
36446,56,47,110,1300,5.0,2-4,major
36447,59,57,150,210,5.0,2-4,major
36448,63,83,290,360,5.0,2-4,major
36449,54,48,120,430,5.0,2-4,major
36450,63,81,320,60,5.0,2-4,major
36451,59,42,120,470,5.0,2-4,major
36452,51,45,85,520,5.0,2-4,major
36453,59,54,120,80,5.0,2-4,major
36454,62,75,430,310,5.0,2-4,major
36455,57,66,160,550,5.0,2-4,major
36456,59,57,380,410,5.0,2-4,major
36457,60,75,350,550,5.0,2-4,major
36458,62,76,1410,420,5.0,2-4,major
36459,59,63,250,1540,5.0,2-4,major
36460,56,55,130,40,5.0,2-4,major
36461,60,57,370,370,5.0,2-4,major
36462,62,69,320,560,5.0,2-4,major
36463,63,56,430,390,5.0,2-4,major
36464,64,50,330,640,5.0,2-4,major
36465,66,52,450,370,5.0,2-4,major
36466,67,69,300,550,5.0,2-4,major
36467,62,38,180,160,5.0,2-4,major
36468,56,35,150,60,5.0,2-4,major
36469,68,54,400,280,5.0,2-4,major
36470,70,81,350,460,5.0,2-4,major
36471,62,42,2000,180,8.0,2-2,other
36472,71,58,360,320,8.0,2-2,other
36473,73,70,140,540,8.0,2-2,other
36474,66,63,290,60,8.0,2-2,other
36475,74,63,150,270,8.0,2-2,other
36476,75,49,340,220,8.0,2-2,other
36477,76,66,270,340,8.0,2-2,other
36478,77,88,470,310,8.0,2-2,other
36479,71,54,140,1090,4.0,2-2,other
36480,67,63,290,580,4.0,2-2,other
36481,60,54,100,990,2.0,2-3,minor
36482,55,36,180,60,2.0,2-3,minor
36483,55,51,1130,1170,10.0,3-11B,major
36484,90,33,120,2990,8.0,2-3,minor
36485,87,82,1130,890,0.0,5-35,other
36486,56,56,945,1565,5.0,3-7B,other
36487,64,40,140,4285,0.0,4-23,minor
36488,84,25,430,260,0.0,4-23,minor
36489,53,52,290,3110,2.0,2-2,other
36490,54,56,410,230,2.0,2-2,other
36491,70,79,1250,2100,5.0,2-5,other
36492,55,70,1130,60,0.0,3-11B,other
36493,67,50,1220,30,0.0,3-11B,other
36494,53,59,1090,1470,0.0,3-11B,other
36495,44,56,330,940,0.0,3-11B,other
36496,63,71,230,260,0.0,3-11B,other
36497,67,70,1330,970,0.0,3-11B,other
36498,55,54,1400,80,0.0,2-4,other
36499,62,38,1030,50,0.0,2-4,other
36500,56,60,1300,1810,0.0,2-4,other
36501,60,65,1060,50,0.0,2-4,other
36502,62,58,910,50,0.0,2-4,other
36503,46,25,330,1390,0.0,2-4,other
36504,36,81,250,2960,0.0,2-4,major
36505,63,40,130,1460,0.0,2-4,major
36506,60,73,370,1320,0.0,4-20,other
36507,60,68,400,580,0.0,4-20,other
36508,60,61,300,670,0.0,4-20,other
36509,92,86,470,1740,0.0,4-16A,other
36510,87,67,280,1310,2.0,2-2,other
36511,60,48,120,120,8.0,3-8A,other
36512,56,58,220,780,8.0,3-8A,other
36513,89,74,340,70,8.0,3-8A,other
36514,65,23,110,90,5.0,2-5,other
36515,87,39,430,4910,7.0,2-3,minor
36516,70,63,300,4170,0.0,5-32B,other
36517,67,30,130,170,0.0,3-7A,minor
36518,60,56,110,1170,3.0,3-9,other
36519,60,57,290,920,3.0,3-9,other
36520,34,38,2320,1080,0.0,3-6,other
36521,34,57,870,2700,10.0,3-9,other
36522,46,34,150,3060,10.0,3-9,other
36523,46,38,160,850,10.0,2-4,other
36524,46,48,930,950,1.0,2-5,other
36525,46,44,1880,1620,1.0,2-5,other
36526,34,49,7920,980,1.0,2-5,other
36527,60,56,710,1720,1.0,2-5,other
36528,46,36,550,100,3.0,2-5,other
36529,57,46,810,1300,1.0,3-10,minor
36530,46,39,880,2890,6.0,2-3,other
36531,59,54,1940,40,6.0,2-3,other
36532,46,47,940,1420,6.0,2-3,other
36533,34,39,12050,960,6.0,2-3,other
36534,46,45,1530,380,6.0,2-3,other
36535,66,45,810,4010,1.0,2-5,other
36536,62,22,330,160,10.0,2-1,other
36537,58,92,2700,0,10.0,1-1,other
36538,82,32,140,3030,10.0,1-1,other
36539,83,30,120,710,0.0,1-1,other
36540,61,85,1860,1300,0.0,1-1,other
36541,89,40,130,3990,7.0,1-1,other
36542,54,66,570,7490,0.0,1-1,other
36543,56,63,350,300,0.0,1-1,other
36544,60,66,300,220,0.0,1-1,other
36545,58,36,150,70,0.0,1-1,other
36546,62,73,400,210,0.0,1-1,other
36547,64,56,230,300,0.0,1-1,other
36548,66,56,510,260,0.0,1-1,other
36549,68,59,470,100,0.0,1-1,other
36550,70,49,250,230,0.0,1-1,other
36551,72,45,350,190,0.0,1-1,other
36552,74,63,420,220,0.0,1-1,other
36553,76,54,340,250,0.0,1-1,other
36554,78,54,530,340,0.0,1-1,other
36555,80,57,510,90,0.0,1-1,other
36556,82,66,320,200,0.0,1-1,other
36557,84,56,410,240,0.0,1-1,other
36558,86,62,480,270,0.0,1-1,other
36559,88,57,310,320,0.0,1-1,other
36560,90,61,1910,300,0.0,1-1,other
36561,94,60,1440,450,0.0,1-1,other
36562,91,43,280,30,0.0,1-1,other
36563,96,122,1850,570,0.0,1-1,other
36564,63,86,720,4310,0.0,1-1,other
36565,62,64,330,900,0.0,1-1,other
36566,61,61,480,300,0.0,1-1,other
36567,60,58,290,300,0.0,1-1,other
36568,59,57,250,310,0.0,1-1,other
36569,58,50,260,320,0.0,1-1,other
36570,57,55,280,340,0.0,1-1,other
36571,55,64,290,330,0.0,1-1,other
36572,51,48,2020,380,0.0,1-1,other
36573,48,53,2470,2020,8.0,2-3,other
36574,56,56,350,1840,8.0,2-3,other
36575,60,58,460,50,8.0,2-3,other
36576,51,39,710,70,8.0,2-3,other
36577,50,63,1560,6610,3.0,1-1,other
36578,74,79,1520,40,3.0,1-1,other
36579,62,65,1480,30,3.0,1-1,other
36580,60,64,310,12270,5.0,4-18A,major
36581,65,58,460,460,5.0,4-18A,major
36582,69,63,240,450,5.0,4-18A,major
36583,78,75,220,360,5.0,4-18A,major
36584,72,47,230,410,5.0,4-18A,major
36585,77,58,320,300,5.0,4-18A,major
36586,81,75,200,320,5.0,4-18A,major
36587,90,82,170,370,5.0,4-18A,major
36588,84,56,290,310,5.0,4-18A,major
36589,90,54,100,140,5.0,4-18A,major
36590,89,55,330,180,5.0,4-18A,major
36591,93,70,210,330,5.0,4-18A,major
36592,99,55,90,440,5.0,4-18A,major
36593,96,37,1960,300,5.0,4-18A,major
36594,101,60,1520,190,5.0,4-18A,major
36595,105,73,1230,350,5.0,4-18A,major
36596,39,52,640,4820,5.0,4-18A,major
36597,58,55,670,30,5.0,4-18A,major
36598,46,42,2340,50,5.0,4-18A,major
36599,70,88,570,1780,5.0,4-18A,major
36600,55,52,850,1570,6.0,2-3,minor
36601,70,69,510,750,6.0,2-3,minor
36602,67,57,610,1080,0.0,3-11A,minor
36603,69,74,660,910,0.0,3-11A,minor
36604,54,49,2430,1110,0.0,3-11A,minor
36605,68,61,1420,30,0.0,3-11A,minor
36606,63,46,1030,50,0.0,3-11A,minor
36607,60,24,1740,70,0.0,3-11A,minor
36608,63,66,2270,1510,0.0,3-11A,minor
36609,67,64,940,3360,0.0,3-11A,minor
36610,55,44,1500,120,5.0,2-4,major
36611,67,66,1040,1610,5.0,2-4,major
36612,67,49,3960,1390,3.0,2-4,other
36613,64,49,970,260,7.0,2-2,other
36614,63,66,910,890,7.0,2-2,other
36615,62,61,1380,1180,7.0,2-2,other
36616,59,24,1410,50,7.0,2-2,other
36617,62,66,410,1800,7.0,2-2,other
36618,53,63,900,1410,1.0,2-3,other
36619,55,78,770,1130,1.0,2-3,other
36620,61,54,830,1390,1.0,2-3,other
36621,48,57,2110,100,4.0,2-6,other
36622,73,67,920,1670,4.0,2-6,other
36623,58,48,670,130,4.0,2-4,major
36624,41,63,340,4650,0.0,3-6,other
36625,55,49,1290,1580,0.0,2-4,other
36626,53,54,170,1470,0.0,2-3,minor
36627,37,56,1300,2170,3.0,3-11B,major
36628,44,22,1650,1870,4.0,2-5,other
36629,53,54,1390,800,3.0,3-11B,other
36630,65,57,540,1830,8.0,1-1,other
36631,62,60,490,50,8.0,1-1,other
36632,47,62,820,4290,10.0,1-1,other
36633,59,66,670,30,10.0,1-1,other
36634,50,68,690,900,10.0,1-1,other
36635,62,83,870,60,10.0,1-1,other
36636,49,54,790,2090,2.0,1-1,other
36637,61,71,660,40,2.0,1-1,other
36638,60,68,1600,1130,2.0,1-1,other
36639,48,60,1200,1170,3.0,3-7A,other
36640,58,68,610,4220,3.0,3-7A,other
36641,43,60,1090,80,7.0,2-2,other
36642,67,71,420,3520,10.0,3-4A,major
36643,55,71,360,30,10.0,3-4A,major
36644,71,68,400,1260,10.0,3-4A,major
36645,65,34,140,170,0.0,2-4,major
36646,75,81,440,1080,0.0,2-4,major
36647,77,64,940,3020,7.0,2-2,other
36648,55,57,1620,2520,0.0,2-3,minor
36649,63,54,600,1220,0.0,2-3,minor
36650,74,81,1020,2500,7.0,2-5,other
36651,74,61,1150,1500,7.0,2-5,other
36652,62,56,660,1180,7.0,2-4,major
36653,67,52,1270,930,7.0,2-4,major
36654,74,63,310,920,7.0,2-4,major
36655,74,71,660,1120,7.0,2-4,major
36656,62,46,2450,70,3.0,3-11B,major
36657,75,71,930,1050,3.0,3-11B,major
36658,63,1,350,440,3.0,3-11B,major
36659,67,54,1030,710,3.0,3-11B,major
36660,69,66,540,1200,3.0,3-11B,major
36661,51,48,1020,1450,3.0,2-5,other
36662,57,37,760,30,3.0,2-5,other
36663,72,57,360,1230,3.0,2-5,other
36664,70,42,720,90,3.0,2-5,other
36665,51,42,3080,1590,6.0,2-6,other
36666,69,46,1450,50,6.0,2-6,other
36667,41,43,2260,30,6.0,2-6,other
36668,74,72,2300,2110,6.0,2-6,other
36669,62,49,1870,50,6.0,2-6,other
36670,71,57,520,4150,6.0,3-7A,other
36671,71,57,160,980,6.0,3-7A,other
36672,73,48,390,1890,1.0,2-5,other
36673,69,61,1050,1050,1.0,2-5,other
36674,74,58,130,1060,2.0,3-6,major
36675,80,57,2570,1260,2.0,3-6,major
36676,81,61,400,2920,4.0,3-9,other
36677,69,54,330,40,4.0,3-9,other
36678,82,60,950,1070,4.0,3-9,other
36679,74,36,350,160,3.0,2-5,other
36680,46,48,720,790,3.0,2-5,other
36681,55,54,950,890,3.0,2-5,other
36682,58,58,4750,870,3.0,2-5,other
36683,67,49,2770,2170,2.0,2-3,minor
36684,86,53,2780,1450,2.0,2-3,minor
36685,79,28,2070,120,2.0,1-1,other
36686,85,83,730,3440,2.0,1-1,other
36687,84,54,440,920,2.0,1-1,other
36688,83,62,370,330,2.0,1-1,other
36689,81,50,300,470,2.0,1-1,other
36690,82,67,980,500,2.0,1-1,other
36691,43,43,1110,130,2.0,1-1,other
36692,53,55,1120,1140,2.0,1-1,other
36693,65,55,870,1220,1.0,2-3,other
36694,70,73,910,940,1.0,2-3,other
36695,60,49,730,70,1.0,2-3,other
36696,73,63,770,1020,1.0,2-3,other
36697,70,57,1340,60,4.0,2-4,major
36698,61,57,1000,30,4.0,2-4,major
36699,70,77,790,3590,0.0,3-8A,major
36700,68,86,780,3240,5.0,2-5,other
36701,65,71,610,60,5.0,2-5,other
36702,60,48,570,1170,3.0,3-7A,other
36703,56,56,400,1630,3.0,2-4,major
36704,63,75,640,2590,2.0,2-3,minor
36705,60,66,520,50,2.0,2-3,minor
36706,63,75,320,990,2.0,2-3,minor
36707,75,78,640,2350,3.0,2-4,major
36708,62,49,890,100,3.0,2-4,major
36709,74,85,520,950,3.0,2-4,major
36710,63,56,3130,1220,2.0,2-4,major
36711,60,51,1310,30,2.0,2-4,major
36712,50,35,2710,140,2.0,2-4,major
36713,72,70,800,980,2.0,2-4,major
36714,57,49,1760,50,2.0,2-4,major
36715,71,67,1010,1240,2.0,2-4,major
36716,60,42,620,60,2.0,2-4,major
36717,69,71,1190,1060,2.0,2-4,major
36718,50,50,140,90,2.0,2-4,major
36719,70,67,1870,1240,2.0,2-4,major
36720,39,57,930,60,2.0,2-4,major
36721,46,55,900,1010,2.0,2-4,major
36722,62,70,690,60,2.0,2-4,major
36723,70,85,480,1730,7.0,1-1,other
36724,58,63,2490,40,7.0,1-1,other
36725,77,102,1010,960,7.0,1-1,other
36726,62,69,860,40,7.0,1-1,other
36727,67,55,100,1110,7.0,1-1,other
36728,75,63,560,2420,3.0,2-1,other
36729,73,66,480,1030,9.0,3-8A,major
36730,55,42,1400,1260,0.0,2-4,other
36731,71,68,600,1030,0.0,2-4,other
36732,70,59,2110,1240,0.0,2-4,other
36733,65,42,1970,120,6.0,2-6,other
36734,53,56,680,1200,6.0,2-6,other
36735,60,41,2190,1500,3.0,2-5,other
36736,53,42,1050,100,3.0,2-5,other
36737,53,54,3540,1450,3.0,2-5,other
36738,53,43,1330,5920,0.0,3-11B,major
36739,55,44,640,1930,5.0,2-4,major
36740,54,43,160,3030,3.0,2-5,other
36741,53,47,560,1150,7.0,4-26,minor
36742,53,32,180,1500,7.0,2-2,other
36743,63,57,640,4890,2.0,2-3,minor
36744,67,63,520,3280,0.0,3-8A,major
36745,41,46,1040,1590,0.0,2-3,minor
36746,55,76,1010,1100,0.0,2-3,minor
36747,56,79,5490,1080,0.0,2-3,minor
36748,60,71,2110,1030,0.0,2-3,minor
36749,67,73,1180,1350,0.0,2-3,minor
36750,63,75,1130,30,0.0,2-3,minor
36751,66,1,200,940,0.0,2-3,minor
36752,68,77,980,360,0.0,2-3,minor
36753,63,61,610,1260,7.0,2-3,minor
36754,75,73,1490,2020,7.0,2-3,minor
36755,56,54,380,100,7.0,2-3,minor
36756,37,52,940,1610,11.0,2-6,other
36757,44,57,1130,1090,11.0,2-6,other
36758,82,64,2640,1130,11.0,2-6,other
36759,71,40,1900,90,5.0,2-2,other
36760,59,40,6070,1210,5.0,2-2,other
36761,80,68,1050,3700,8.0,2-3,minor
36762,75,88,1090,1420,8.0,2-3,minor
36763,77,83,390,1200,8.0,2-3,minor
36764,46,63,3280,4560,6.0,2-3,other
36765,55,78,1580,1260,6.0,2-3,other
36766,63,90,750,1360,6.0,2-3,other
36767,44,61,760,2990,8.0,2-2,other
36768,63,72,630,2970,5.0,2-1,other
36769,58,66,500,1820,1.0,2-3,other
36770,53,49,530,100,7.0,2-2,other
36771,65,83,800,1620,1.0,2-3,other
36772,61,78,880,50,1.0,2-3,other
36773,63,84,1390,1600,3.0,4-16A,other
36774,70,66,1310,5210,10.0,3-6,major
36775,55,46,1400,100,10.0,3-6,major
36776,48,38,4190,2220,4.0,2-6,other
36777,61,36,2290,2420,4.0,2-6,other
36778,60,57,310,8560,0.0,4-22A,other
36779,61,57,2050,1080,0.0,4-22A,other
36780,53,52,660,2750,10.0,2-4,major
36781,62,50,110,890,10.0,2-4,major
36782,53,37,130,40,10.0,2-4,major
36783,59,57,2790,1020,3.0,3-11A,other
36784,34,56,640,1090,3.0,3-11A,other
36785,34,54,530,1030,3.0,3-11A,other
36786,46,79,820,1080,0.0,3-11B,major
36787,56,79,2720,2040,10.0,3-11A,other
36788,46,60,350,1290,10.0,3-11A,other
36789,46,52,290,620,10.0,3-11A,other
36790,46,58,1160,730,10.0,3-11A,other
36791,61,33,150,610,10.0,4-19B,augmented
36792,66,56,460,770,10.0,4-19B,augmented
36793,46,52,300,40,10.0,4-19B,augmented
36794,57,56,90,60,10.0,4-19B,augmented
36795,46,49,1300,1090,3.0,3-11B,major
36796,46,55,920,1780,3.0,3-11B,major
36797,34,58,3350,760,3.0,3-11B,major
36798,46,52,2410,2490,5.0,3-11B,major
36799,34,54,410,1100,5.0,3-11B,major
36800,34,48,3900,1280,5.0,3-11B,major
36801,70,60,450,480,5.0,3-11B,major
36802,46,46,350,30,5.0,3-11B,major
36803,61,44,260,30,5.0,3-11B,major
36804,66,46,330,30,5.0,3-11B,major
36805,46,43,2180,2500,11.0,2-3,minor
36806,67,41,1390,40,11.0,2-3,minor
36807,84,75,230,3835,10.0,1-1,other
36808,60,53,110,70,10.0,1-1,other
36809,91,83,1260,2830,0.0,1-1,other
36810,82,49,110,3000,0.0,2-4,other
36811,86,80,720,1440,0.0,2-4,other
36812,63,40,140,1380,0.0,3-11B,other
36813,79,50,100,40,0.0,3-11B,other
36814,56,72,280,810,10.0,2-4,major
36815,82,52,100,70,2.0,1-1,other
36816,82,82,400,3940,0.0,2-5,other
36817,84,57,130,590,0.0,2-5,other
36818,82,50,370,100,0.0,2-5,other
36819,81,50,380,350,0.0,2-5,other
36820,82,63,120,500,0.0,2-5,other
36821,65,25,110,200,2.0,2-2,other
36822,55,34,210,30,2.0,2-2,other
36823,86,74,300,140,2.0,2-2,other
36824,89,80,280,510,2.0,2-2,other
36825,96,122,700,480,2.0,2-2,other
36826,94,85,270,630,2.0,2-2,other
36827,60,37,190,80,2.0,2-2,other
36828,93,47,100,180,2.0,2-2,other
36829,91,85,330,490,2.0,2-2,other
36830,58,39,450,170,0.0,2-3,minor
36831,53,26,380,50,0.0,2-3,minor
36832,87,68,620,440,0.0,2-3,minor
36833,63,47,110,160,0.0,2-3,minor
36834,60,13,430,30,0.0,2-3,minor
36835,58,24,430,130,0.0,2-3,minor
36836,84,63,280,430,0.0,2-3,minor
36837,58,44,260,710,2.0,2-3,minor
36838,55,27,190,100,2.0,2-3,minor
36839,85,68,250,710,2.0,2-3,minor
36840,77,46,400,490,2.0,2-3,minor
36841,77,49,270,880,2.0,2-3,minor
36842,63,48,255,1895,2.0,2-3,minor
36843,73,63,350,2555,4.0,3-8B,other
36844,70,35,170,160,1.0,2-5,other
36845,56,49,110,4030,3.0,2-5,other
36846,63,46,130,70,0.0,2-5,other
36847,63,55,2140,1010,7.0,2-4,major
36848,68,33,140,4290,7.0,2-5,other
36849,67,67,110,60,7.0,2-5,other
36850,66,40,350,210,7.0,2-5,other
36851,67,61,520,340,7.0,2-5,other
36852,62,27,180,810,2.0,2-3,minor
36853,60,29,180,50,2.0,2-3,minor
36854,67,57,280,710,2.0,2-3,minor
36855,65,57,130,1690,2.0,2-3,minor
36856,56,43,310,40,2.0,2-3,minor
36857,63,50,1140,1260,2.0,2-3,minor
36858,57,42,200,1650,3.0,2-1,other
36859,70,40,430,370,3.0,2-1,other
36860,71,60,120,530,3.0,2-1,other
36861,57,34,170,100,3.0,2-1,other
36862,76,84,360,290,3.0,2-1,other
36863,77,69,110,40,3.0,2-1,other
36864,57,42,140,590,3.0,2-1,other
36865,51,26,120,1040,2.0,2-5,other
36866,56,35,160,960,2.0,2-5,other
36867,74,102,450,230,0.0,2-5,other
36868,77,94,290,610,0.0,2-5,other
36869,75,54,570,410,0.0,2-5,other
36870,63,38,240,550,0.0,2-5,other
36871,74,84,490,310,0.0,2-5,other
36872,63,55,200,610,0.0,2-5,other
36873,71,40,140,30,0.0,2-5,other
36874,72,54,390,370,0.0,2-5,other
36875,74,81,260,560,0.0,2-5,other
36876,60,36,780,480,3.0,1-1,other
36877,72,57,110,620,3.0,1-1,other
36878,68,65,280,720,3.0,1-1,other
36879,67,49,800,450,3.0,1-1,other
36880,70,78,710,890,3.0,1-1,other
36881,56,46,280,1020,8.0,2-2,other
36882,70,28,160,110,8.0,2-2,other
36883,62,54,570,800,8.0,2-2,other
36884,46,23,150,720,8.0,2-2,other
36885,65,79,670,270,8.0,2-2,other
36886,62,68,420,960,8.0,2-2,other
36887,39,48,140,620,8.0,2-2,other
36888,46,37,170,50,8.0,2-2,other
36889,58,58,580,290,8.0,2-2,other
36890,55,39,140,710,8.0,2-2,other
36891,57,54,470,360,8.0,2-2,other
36892,58,68,280,600,8.0,2-2,other
36893,46,52,120,90,8.0,2-2,other
36894,60,47,430,400,8.0,2-2,other
36895,61,58,290,510,8.0,2-2,other
36896,63,62,290,880,8.0,2-2,other
36897,65,85,770,430,8.0,2-2,other
36898,58,37,150,630,8.0,2-2,other
36899,55,22,210,70,8.0,2-2,other
36900,61,52,490,230,8.0,2-2,other
36901,64,76,450,540,8.0,2-2,other
36902,61,60,600,580,8.0,2-2,other
36903,58,48,160,160,8.0,2-2,other
36904,60,52,330,570,8.0,2-2,other
36905,58,65,450,570,8.0,2-2,other
36906,56,52,540,500,8.0,2-2,other
36907,48,38,240,540,8.0,2-2,other
36908,55,57,500,290,8.0,2-2,other
36909,53,52,300,640,8.0,2-2,other
36910,63,52,250,2360,8.0,2-2,other
36911,55,40,210,60,8.0,2-2,other
36912,57,34,165,80,8.0,2-2,other
36913,60,56,1290,1390,10.0,3-4A,other
36914,65,55,200,3690,5.0,3-9,other
36915,60,49,160,50,5.0,3-9,other
36916,55,34,150,50,5.0,3-9,other
36917,65,45,110,900,5.0,3-9,other
36918,84,96,490,260,0.0,2-5,other
36919,72,89,90,30,0.0,2-5,other
36920,82,75,430,1970,10.0,3-9,other
36921,70,65,310,30,10.0,3-9,other
36922,58,28,250,700,0.0,2-3,minor
36923,60,45,340,930,0.0,1-1,other
36924,58,39,430,70,0.0,1-1,other
36925,82,77,540,230,0.0,1-1,other
36926,70,72,450,30,0.0,1-1,other
36927,80,38,160,100,0.0,1-1,other
36928,53,17,370,70,0.0,1-1,other
36929,58,45,170,2370,10.0,1-1,other
36930,58,39,230,1040,0.0,1-1,other
36931,63,57,650,840,10.0,1-1,other
36932,60,56,910,1950,4.0,2-6,other
36933,67,60,1880,2160,4.0,2-6,other
36934,56,52,970,2060,0.0,2-3,minor
36935,68,70,810,3960,0.0,2-4,other
36936,54,48,620,1500,3.0,3-11A,other
36937,55,48,600,360,7.0,2-3,minor
36938,62,49,370,40,7.0,2-3,minor
36939,44,68,720,1350,7.0,2-3,minor
36940,70,85,370,1010,7.0,2-3,minor
36941,65,55,380,940,7.0,2-3,minor
36942,58,45,155,180,7.0,2-3,minor
36943,66,53,230,240,7.0,2-5,other
36944,67,56,310,280,7.0,2-5,other
36945,58,40,120,380,7.0,2-5,other
36946,55,32,150,80,7.0,2-5,other
36947,70,99,560,80,7.0,2-5,other
36948,58,43,310,590,7.0,2-5,other
36949,68,72,600,320,7.0,2-5,other
36950,58,43,270,730,7.0,2-5,other
36951,67,82,600,250,7.0,2-5,other
36952,65,78,660,980,7.0,2-5,other
36953,63,70,500,980,5.0,3-11A,other
36954,60,57,470,970,5.0,3-11A,other
36955,60,68,260,690,5.0,3-11A,other
36956,34,58,8060,2940,5.0,3-11A,other
36957,60,63,780,1300,5.0,3-11A,other
36958,57,68,630,1580,1.0,2-3,minor
36959,46,56,810,30,1.0,2-3,minor
36960,53,77,1080,1270,10.0,2-4,major
36961,55,81,550,3600,5.0,2-5,other
36962,46,60,620,30,5.0,2-5,other
36963,34,64,280,800,5.0,2-5,other
36964,46,57,130,150,5.0,2-5,other
36965,54,69,420,260,6.0,2-5,other
36966,67,70,3240,950,6.0,2-5,other
36967,58,50,110,2030,3.0,2-1,other
36968,61,50,280,1720,3.0,2-1,other
36969,55,35,220,130,10.0,2-5,other
36970,61,60,90,1520,10.0,2-5,other
36971,58,43,170,70,10.0,2-5,other
36972,85,50,350,870,1.0,2-3,other
36973,70,44,160,50,1.0,2-3,other
36974,60,42,1280,1030,0.0,2-3,minor
36975,82,82,480,800,0.0,2-3,minor
36976,80,63,290,400,0.0,2-3,minor
36977,79,73,310,520,0.0,2-3,minor
36978,67,39,960,180,0.0,2-3,minor
36979,77,45,670,320,3.0,2-5,other
36980,60,20,850,40,3.0,2-5,other
36981,75,61,170,780,3.0,2-5,other
36982,63,55,410,990,3.0,2-5,other
36983,55,39,240,70,3.0,2-5,other
36984,60,40,180,50,3.0,2-5,other
36985,84,40,180,2680,6.0,2-6,other
36986,85,48,140,180,6.0,2-6,other
36987,86,55,100,240,6.0,2-6,other
36988,89,99,340,240,6.0,2-6,other
36989,65,52,100,80,6.0,2-6,other
36990,84,26,230,460,2.0,2-2,other
36991,85,48,260,50,2.0,2-2,other
36992,86,54,140,300,2.0,2-2,other
36993,89,63,230,170,2.0,2-2,other
36994,79,63,390,270,2.0,2-2,other
36995,65,42,420,930,2.0,2-2,other
36996,79,60,130,30,2.0,2-2,other
36997,62,40,330,50,2.0,2-2,other
36998,60,40,360,30,2.0,2-2,other
36999,55,31,500,60,2.0,2-2,other
37000,63,57,230,1390,2.0,2-2,other
37001,60,49,130,60,2.0,2-2,other
37002,58,44,140,40,2.0,2-2,other
37003,53,24,150,60,2.0,2-2,other
37004,58,42,1810,1240,5.0,3-7B,other
37005,60,37,170,2950,8.0,2-6,other
37006,75,77,360,920,8.0,2-6,other
37007,76,81,280,560,8.0,2-6,other
37008,56,41,330,120,8.0,2-6,other
37009,79,89,380,290,8.0,2-6,other
37010,77,81,390,500,8.0,2-6,other
37011,63,50,100,170,8.0,2-6,other
37012,59,50,170,40,8.0,2-6,other
37013,73,54,490,240,8.0,2-6,other
37014,77,90,430,950,8.0,2-6,other
37015,73,43,120,590,8.0,2-6,other
37016,61,31,150,60,8.0,2-6,other
37017,75,84,440,280,8.0,2-6,other
37018,73,68,260,600,8.0,2-6,other
37019,52,24,620,300,3.0,2-5,other
37020,72,51,370,120,3.0,2-5,other
37021,70,67,330,570,3.0,2-5,other
37022,60,38,150,1060,3.0,2-5,other
37023,56,36,210,40,3.0,2-5,other
37024,67,71,570,250,3.0,2-5,other
37025,68,38,140,710,3.0,2-5,other
37026,67,72,320,80,3.0,2-5,other
37027,65,50,420,240,3.0,2-5,other
37028,64,48,120,650,3.0,2-5,other
37029,67,63,610,220,3.0,2-5,other
37030,60,32,140,540,3.0,2-5,other
37031,56,31,170,70,3.0,2-5,other
37032,64,47,300,70,3.0,2-5,other
37033,65,63,360,290,3.0,2-5,other
37034,63,50,370,1220,8.0,2-3,minor
37035,59,54,230,50,8.0,2-3,minor
37036,56,43,310,50,8.0,2-3,minor
37037,59,49,330,670,3.0,2-5,other
37038,63,59,1250,640,3.0,2-5,other
37039,56,44,680,1280,11.0,2-1,other
37040,70,61,1560,640,11.0,2-1,other
37041,55,48,2010,90,5.0,2-5,other
37042,54,57,160,1850,5.0,2-5,other
37043,66,56,430,250,5.0,2-5,other
37044,67,46,430,610,5.0,2-5,other
37045,65,72,1000,1180,5.0,2-5,other
37046,56,57,1140,40,5.0,2-5,other
37047,60,48,980,30,5.0,2-5,other
37048,55,28,790,140,5.0,2-5,other
37049,63,70,1040,1450,5.0,2-5,other
37050,53,34,1210,160,8.0,2-3,minor
37051,67,66,250,740,8.0,2-3,minor
37052,70,57,330,440,8.0,2-3,minor
37053,71,107,290,550,8.0,2-3,minor
37054,57,50,1080,310,3.0,2-1,other
37055,74,122,350,150,3.0,2-1,other
37056,74,115,330,550,3.0,2-1,other
37057,67,64,330,390,3.0,2-1,other
37058,72,79,280,940,9.0,2-2,other
37059,57,55,240,610,0.0,2-3,minor
37060,65,57,130,390,0.0,2-3,minor
37061,65,64,190,490,0.0,2-3,minor
37062,67,73,300,360,0.0,2-3,minor
37063,67,76,300,520,0.0,2-3,minor
37064,60,34,130,190,0.0,2-3,minor
37065,56,34,220,50,0.0,2-3,minor
37066,53,31,150,50,0.0,2-3,minor
37067,63,63,360,80,0.0,2-3,minor
37068,56,46,130,490,0.0,2-3,minor
37069,63,75,410,120,0.0,2-3,minor
37070,60,58,670,430,0.0,2-3,minor
37071,56,49,130,490,0.0,2-3,minor
37072,62,79,720,390,0.0,2-3,minor
37073,63,69,1300,960,0.0,2-3,minor
37074,60,60,320,950,10.0,2-5,other
37075,67,72,1120,970,10.0,2-5,other
37076,56,60,1590,60,11.0,2-3,minor
37077,62,77,750,3490,5.0,2-4,major
37078,56,64,890,80,5.0,2-4,major
37079,54,50,390,910,5.0,2-4,major
37080,60,75,1250,330,7.0,3-7A,minor
37081,59,64,580,1550,9.0,2-5,other
37082,54,63,1260,40,9.0,2-5,other
37083,51,48,350,880,9.0,2-5,other
37084,62,63,230,1320,5.0,2-5,other
37085,72,61,330,3570,0.0,2-3,minor
37086,79,63,280,50,0.0,2-3,minor
37087,76,40,110,980,0.0,5-27A,other
37088,80,58,360,1170,0.0,5-27A,other
37089,79,75,350,970,0.0,3-11B,other
37090,60,52,460,130,3.0,3-4B,other
37091,65,55,90,700,8.0,2-3,other
37092,75,40,140,80,8.0,2-3,other
37093,58,48,120,830,5.0,6-46A,major
37094,87,45,120,30,5.0,6-46A,major
37095,87,79,400,1180,3.0,2-4,major
37096,75,80,300,40,3.0,2-4,major
37097,57,52,280,30,3.0,2-4,major
37098,55,45,1060,2920,0.0,2-2,other
37099,62,56,1120,1560,5.0,2-5,other
37100,55,44,1280,30,5.0,2-5,other
37101,58,22,350,1010,5.0,2-5,other
37102,53,36,2580,1260,0.0,3-7A,minor
37103,63,42,130,1410,0.0,3-7A,minor
37104,60,38,1150,40,0.0,3-7A,minor
37105,58,34,1160,110,0.0,3-7A,minor
37106,82,94,710,170,0.0,3-7A,minor
37107,81,68,240,580,0.0,3-7A,minor
37108,80,61,500,170,0.0,3-7A,minor
37109,79,55,280,290,0.0,3-7A,minor
37110,82,88,730,580,0.0,3-7A,minor
37111,81,49,280,600,0.0,3-7A,minor
37112,80,56,360,190,0.0,3-7A,minor
37113,79,49,120,280,0.0,3-7A,minor
37114,82,89,2770,330,0.0,3-7A,minor
37115,58,39,130,620,0.0,3-7A,minor
37116,55,39,120,850,10.0,2-4,major
37117,63,57,1360,1250,10.0,2-4,major
37118,78,84,430,1000,4.0,2-6,other
37119,79,94,450,700,4.0,2-6,other
37120,73,65,290,1300,4.0,2-6,other
37121,63,46,1070,950,0.0,3-4A,other
37122,60,47,1000,40,0.0,3-4A,other
37123,75,72,390,1280,0.0,3-4A,other
37124,67,43,150,310,0.0,3-4A,other
37125,63,42,720,30,0.0,3-4A,other
37126,56,24,350,60,0.0,3-4A,other
37127,68,49,360,110,0.0,3-4A,other
37128,60,10,350,240,0.0,3-4A,other
37129,68,63,250,370,0.0,3-4A,other
37130,63,56,310,820,0.0,3-4A,other
37131,59,54,250,60,0.0,3-4A,other
37132,53,33,150,50,0.0,3-4A,other
37133,63,61,450,2910,10.0,2-5,other
37134,65,50,1080,1310,11.0,2-1,other
37135,60,52,940,60,7.0,2-5,other
37136,58,1,260,890,7.0,2-5,other
37137,82,90,350,530,7.0,2-5,other
37138,72,50,230,1230,0.0,2-2,other
37139,53,57,1060,780,0.0,2-2,other
37140,55,55,960,70,10.0,2-4,major
37141,73,63,320,1260,7.0,2-2,other
37142,34,63,6100,2340,4.0,3-8A,other
37143,46,53,150,480,4.0,3-8A,other
37144,41,45,180,1670,4.0,3-8A,other
37145,61,66,320,1330,3.0,2-5,other
37146,57,47,240,110,4.0,2-6,other
37147,56,31,150,30,4.0,2-6,other
37148,46,62,170,2420,3.0,3-11B,other
37149,65,57,600,1320,1.0,3-7A,other
37150,53,24,140,2660,10.0,2-1,other
37151,56,64,1240,230,3.0,3-12,augmented
37152,68,75,790,1850,3.0,3-12,augmented
37153,63,44,570,140,5.0,3-11A,other
37154,69,75,330,1360,5.0,3-11A,other
37155,63,80,290,40,5.0,3-11A,other
37156,61,57,130,750,0.0,2-4,other
37157,67,49,390,1000,2.0,5-15,major
37158,60,57,1310,540,2.0,5-15,major
37159,62,54,300,1660,7.0,2-3,minor
37160,60,40,180,30,7.0,2-3,minor
37161,67,72,510,270,7.0,2-3,minor
37162,66,49,170,590,7.0,2-3,minor
37163,60,37,150,110,7.0,2-3,minor
37164,67,49,400,290,7.0,2-3,minor
37165,74,78,380,500,7.0,2-3,minor
37166,72,66,500,420,7.0,2-3,minor
37167,66,56,550,980,10.0,2-4,major
37168,62,38,130,460,10.0,2-4,major
37169,58,31,150,120,10.0,2-4,major
37170,65,61,450,290,10.0,2-4,major
37171,58,43,270,730,10.0,2-4,major
37172,64,63,630,230,10.0,2-4,major
37173,61,59,610,990,10.0,2-4,major
37174,60,57,460,910,10.0,2-4,major
37175,56,39,140,1690,0.0,2-3,minor
37176,63,58,130,1220,0.0,2-3,minor
37177,60,42,130,100,0.0,2-3,minor
37178,65,50,150,1420,0.0,2-3,minor
37179,60,49,100,1950,2.0,2-3,minor
37180,89,66,100,240,2.0,2-3,minor
37181,77,47,110,40,2.0,2-3,minor
37182,86,45,110,380,2.0,2-3,minor
37183,89,82,340,170,2.0,2-3,minor
37184,62,54,120,50,2.0,2-3,minor
37185,86,52,430,250,2.0,2-3,minor
37186,82,55,280,340,2.0,2-3,minor
37187,77,56,100,350,2.0,2-3,minor
37188,58,54,1920,1400,0.0,2-3,minor
37189,53,46,1740,60,0.0,2-3,minor
37190,63,68,120,2340,0.0,2-3,minor
37191,53,37,140,110,0.0,2-2,other
37192,62,48,110,1000,0.0,2-2,other
37193,55,31,150,120,0.0,2-2,other
37194,89,76,100,170,0.0,2-2,other
37195,77,53,100,50,0.0,2-2,other
37196,86,31,140,370,0.0,2-2,other
37197,58,48,210,30,0.0,2-2,other
37198,86,61,400,370,5.0,1-1,other
37199,82,63,340,370,5.0,1-1,other
37200,77,42,110,500,10.0,2-4,major
37201,85,67,520,270,10.0,2-4,major
37202,84,99,370,1520,10.0,2-4,major
37203,58,43,120,150,10.0,2-4,major
37204,85,50,320,410,10.0,2-4,major
37205,84,56,280,180,10.0,2-4,major
37206,83,58,190,300,10.0,2-4,major
37207,58,39,150,180,10.0,2-4,major
37208,82,76,420,130,10.0,2-4,major
37209,84,77,315,590,10.0,2-4,major
37210,58,45,140,150,10.0,2-4,major
37211,79,54,380,320,10.0,2-4,major
37212,77,77,220,520,10.0,2-4,major
37213,75,14,330,580,3.0,2-5,other
37214,72,56,140,430,3.0,2-5,other
37215,58,53,240,60,3.0,2-5,other
37216,75,57,400,280,3.0,2-5,other
37217,77,81,300,550,3.0,2-5,other
37218,56,46,430,190,0.0,2-3,minor
37219,53,30,180,30,0.0,2-3,minor
37220,79,102,600,180,0.0,2-3,minor
37221,72,72,500,930,0.0,2-3,minor
37222,68,63,355,570,0.0,2-3,minor
37223,63,42,150,160,0.0,2-3,minor
37224,67,55,290,270,0.0,2-3,minor
37225,60,51,380,610,3.0,2-5,other
37226,63,60,680,1270,3.0,2-5,other
37227,59,49,530,90,3.0,2-5,other
37228,53,41,460,80,3.0,2-5,other
37229,53,44,330,1430,3.0,2-4,other
37230,58,38,410,70,3.0,2-4,other
37231,60,45,500,1340,7.0,3-7B,other
37232,60,55,140,1470,2.0,2-3,minor
37233,74,54,390,430,2.0,2-3,minor
37234,74,92,300,590,2.0,2-3,minor
37235,77,99,380,390,2.0,2-3,minor
37236,62,41,190,590,5.0,1-1,other
37237,60,40,130,60,5.0,1-1,other
37238,70,36,330,330,5.0,1-1,other
37239,70,43,310,460,5.0,1-1,other
37240,74,78,330,430,5.0,1-1,other
37241,60,41,130,700,7.0,2-1,other
37242,67,61,280,850,7.0,2-1,other
37243,63,64,140,180,7.0,2-1,other
37244,59,54,120,40,7.0,2-1,other
37245,56,35,200,120,7.0,2-1,other
37246,70,79,340,40,7.0,2-1,other
37247,56,41,300,530,7.0,2-1,other
37248,65,61,240,1080,3.0,2-1,other
37249,57,56,300,60,3.0,2-1,other
37250,67,86,290,400,3.0,2-1,other
37251,57,41,150,390,3.0,2-1,other
37252,67,81,290,100,3.0,2-1,other
37253,57,49,240,920,3.0,2-1,other
37254,62,69,120,200,3.0,2-1,other
37255,65,81,390,280,3.0,2-1,other
37256,56,47,110,1300,5.0,2-4,major
37257,59,57,150,210,5.0,2-4,major
37258,63,83,290,360,5.0,2-4,major
37259,54,48,120,430,5.0,2-4,major
37260,63,81,320,60,5.0,2-4,major
37261,59,42,120,470,5.0,2-4,major
37262,51,45,85,520,5.0,2-4,major
37263,59,54,120,80,5.0,2-4,major
37264,62,75,430,310,5.0,2-4,major
37265,57,66,160,550,5.0,2-4,major
37266,59,57,380,410,5.0,2-4,major
37267,60,75,350,550,5.0,2-4,major
37268,62,76,1410,420,5.0,2-4,major
37269,59,63,250,1540,5.0,2-4,major
37270,56,55,130,40,5.0,2-4,major
37271,60,57,370,370,5.0,2-4,major
37272,62,69,320,560,5.0,2-4,major
37273,63,56,430,390,5.0,2-4,major
37274,64,50,330,640,5.0,2-4,major
37275,66,52,450,370,5.0,2-4,major
37276,67,69,300,550,5.0,2-4,major
37277,62,38,180,160,5.0,2-4,major
37278,56,35,150,60,5.0,2-4,major
37279,68,54,400,280,5.0,2-4,major
37280,70,81,350,460,5.0,2-4,major
37281,62,42,2000,180,8.0,2-2,other
37282,71,58,360,320,8.0,2-2,other
37283,73,70,140,540,8.0,2-2,other
37284,66,63,290,60,8.0,2-2,other
37285,74,63,150,270,8.0,2-2,other
37286,75,49,340,220,8.0,2-2,other
37287,76,66,270,340,8.0,2-2,other
37288,77,88,470,310,8.0,2-2,other
37289,71,54,140,1090,4.0,2-2,other
37290,67,63,290,580,4.0,2-2,other
37291,60,54,100,990,2.0,2-3,minor
37292,55,36,180,60,2.0,2-3,minor
37293,55,51,1130,1170,10.0,3-11B,major
37294,90,33,120,2990,8.0,2-3,minor
37295,87,82,1130,890,0.0,5-35,other
37296,56,56,945,1565,5.0,3-7B,other
37297,64,40,140,4285,0.0,4-23,minor
37298,84,25,430,260,0.0,4-23,minor
37299,53,52,290,3110,2.0,2-2,other
37300,54,56,410,230,2.0,2-2,other
37301,70,79,1250,2100,5.0,2-5,other
37302,55,70,1130,60,0.0,3-11B,other
37303,67,50,1220,30,0.0,3-11B,other
37304,53,59,1090,1470,0.0,3-11B,other
37305,44,56,330,940,0.0,3-11B,other
37306,63,71,230,260,0.0,3-11B,other
37307,67,70,1330,970,0.0,3-11B,other
37308,55,54,1400,80,0.0,2-4,other
37309,62,38,1030,50,0.0,2-4,other
37310,56,60,1300,1810,0.0,2-4,other
37311,60,65,1060,50,0.0,2-4,other
37312,62,58,910,50,0.0,2-4,other
37313,46,25,330,1390,0.0,2-4,other
37314,36,81,250,2960,0.0,2-4,major
37315,63,40,130,1460,0.0,2-4,major
37316,60,73,370,1320,0.0,4-20,other
37317,60,68,400,580,0.0,4-20,other
37318,60,61,300,670,0.0,4-20,other
37319,92,86,470,1740,0.0,4-16A,other
37320,87,67,280,1310,2.0,2-2,other
37321,60,48,120,120,8.0,3-8A,other
37322,56,58,220,780,8.0,3-8A,other
37323,89,74,340,70,8.0,3-8A,other
37324,65,23,110,90,5.0,2-5,other
37325,87,39,430,4910,7.0,2-3,minor
37326,70,63,300,4170,0.0,5-32B,other
37327,67,30,130,170,0.0,3-7A,minor
37328,60,56,110,1170,3.0,3-9,other
37329,60,57,290,920,3.0,3-9,other
37330,34,38,2320,1080,0.0,3-6,other
37331,34,57,870,2700,10.0,3-9,other
37332,46,34,150,3060,10.0,3-9,other
37333,46,38,160,850,10.0,2-4,other
37334,46,48,930,950,1.0,2-5,other
37335,46,44,1880,1620,1.0,2-5,other
37336,34,49,7920,980,1.0,2-5,other
37337,60,56,710,1720,1.0,2-5,other
37338,46,36,550,100,3.0,2-5,other
37339,57,46,810,1300,1.0,3-10,minor
37340,46,39,880,2890,6.0,2-3,other
37341,59,54,1940,40,6.0,2-3,other
37342,46,47,940,1420,6.0,2-3,other
37343,34,39,12050,960,6.0,2-3,other
37344,46,45,1530,380,6.0,2-3,other
37345,66,45,810,4010,1.0,2-5,other
37346,62,22,330,160,10.0,2-1,other
37347,94,51,152,0,7.0,1-1,other
37348,84,4,124,88,5.0,2-2,other
37349,46,49,652,156,5.0,2-2,other
37350,70,58,72,496,7.0,4-23,minor
37351,70,36,44,3520,0.0,3-11A,minor
37352,41,61,816,1064,3.0,2-4,major
37353,70,70,192,100,0.0,4-20,other
37354,57,47,384,1356,5.0,5-26B,augmented
37355,53,51,200,372,5.0,2-4,other
37356,53,52,560,368,0.0,4-22A,other
37357,68,64,192,1104,8.0,4-29A,other
37358,70,78,68,716,9.0,5-38A,diminished
37359,74,84,120,388,0.0,4-16A,other
37360,74,68,136,420,2.0,4-23,minor
37361,50,52,1060,476,9.0,5-29B,diminished
37362,77,71,100,916,6.0,3-10,other
37363,78,72,64,100,6.0,3-10,other
37364,79,74,40,72,6.0,3-10,other
37365,80,68,52,60,6.0,3-10,other
37366,81,77,72,64,6.0,3-10,other
37367,82,78,60,56,6.0,3-10,other
37368,83,81,44,60,6.0,3-10,other
37369,84,89,48,76,6.0,3-10,other
37370,84,90,68,80,6.0,3-10,other
37371,84,92,68,96,6.0,3-10,other
37372,84,50,72,1020,0.0,2-2,other
37373,55,41,32,512,0.0,2-2,other
37374,41,48,448,1568,0.0,3-11B,other
37375,69,63,40,944,0.0,3-11B,other
37376,55,63,192,1888,9.0,5-24A,other
37377,53,49,176,436,6.0,4-27A,minor
37378,64,75,184,648,0.0,5-35,other
37379,65,76,64,128,0.0,5-35,other
37380,68,74,84,396,0.0,5-27A,other
37381,69,63,104,632,8.0,4-12A,other
37382,70,85,80,504,7.0,2-5,other
37383,70,85,200,404,6.0,5-16A,minor
37384,51,49,16,480,2.0,5-28B,other
37385,49,54,180,1100,7.0,5-32A,minor
37386,72,63,64,372,7.0,4-26,minor
37387,73,25,16,128,7.0,4-26,minor
37388,75,49,64,296,1.0,5-31B,diminished
37389,66,31,16,1932,6.0,6-47A,minor
37390,60,29,132,492,3.0,4-22B,other
37391,45,38,160,1892,4.0,4-27B,major
37392,54,41,1144,356,4.0,4-27B,major
37393,62,33,680,396,4.0,4-27B,major
37394,79,61,140,632,4.0,4-27B,major
37395,80,72,88,120,4.0,4-27B,major
37396,82,80,128,104,4.0,4-27B,major
37397,50,49,188,636,0.0,3-4A,other
37398,74,90,108,604,0.0,3-11A,minor
37399,72,68,104,84,0.0,3-11A,minor
37400,57,61,204,1040,7.0,3-11A,minor
37401,70,79,88,336,10.0,4-22A,major
37402,53,81,248,1820,0.0,3-4A,other
37403,65,79,184,1044,2.0,5-15,major
37404,65,31,428,260,3.0,5-13A,augmented
37405,63,72,216,204,3.0,5-13A,augmented
37406,68,55,104,488,11.0,3-10,diminished
37407,67,51,140,152,11.0,3-10,diminished
37408,80,17,188,1580,0.0,2-1,other
37409,79,68,176,192,0.0,2-1,other
37410,77,68,272,196,0.0,2-1,other
37411,75,60,100,176,0.0,2-1,other
37412,50,60,264,1252,3.0,4-26,other
37413,65,81,80,536,3.0,3-11B,other
37414,67,68,136,3080,2.0,5-24A,minor
37415,63,52,272,1184,0.0,4-22A,other
37416,63,48,220,1124,3.0,4-16A,other
37417,44,73,422,3084,7.0,4-23,minor
37418,33,61,48,164,7.0,3-7A,minor
37419,77,31,16,140,9.0,3-2A,minor
37420,32,65,436,96,9.0,3-2A,minor
37421,60,24,124,488,5.0,1-1,other
37422,51,40,190,280,5.0,1-1,other
37423,71,50,64,544,7.0,3-11A,minor
37424,72,61,52,60,7.0,3-11A,minor
37425,73,67,44,56,7.0,3-11A,minor
37426,74,75,48,60,7.0,3-11A,minor
37427,77,64,92,180,4.0,5-38A,diminished
37428,74,57,48,100,4.0,5-38A,diminished
37429,51,40,190,152,10.0,2-5,other
37430,78,67,32,28,10.0,2-5,other
37431,79,36,28,68,3.0,3-4A,major
37432,82,48,60,40,3.0,3-4A,major
37433,86,81,48,116,3.0,2-4,other
37434,83,59,32,68,3.0,2-4,other
37435,84,63,60,60,3.0,2-4,other
37436,77,48,20,136,7.0,2-2,other
37437,36,51,56,56,7.0,2-2,other
37438,44,52,84,180,5.0,2-2,other
37439,35,68,724,436,0.0,5-27A,other
37440,61,36,112,212,6.0,5-29B,minor
37441,34,66,24,756,0.0,4-20,other
37442,56,61,44,176,3.0,2-5,other
37443,68,58,20,148,4.0,2-3,minor
37444,71,71,36,32,4.0,2-3,minor
37445,79,46,12,68,4.0,2-2,other
37446,83,63,36,40,4.0,2-2,other
37447,33,57,160,268,4.0,3-7A,minor
37448,32,63,1208,572,3.0,2-5,other
37449,44,52,64,364,0.0,4-16A,other
37450,35,33,16,324,0.0,4-16A,other
37451,72,61,44,572,2.0,4-12A,major
37452,66,49,44,136,5.0,2-4,major
37453,65,52,52,52,5.0,2-4,major
37454,50,74,100,28,5.0,2-4,major
37455,62,51,124,156,3.0,3-11B,major
37456,35,30,44,576,8.0,6-46A,other
37457,48,58,332,340,11.0,1-1,other
37458,51,61,202,508,8.0,4-28,diminished
37459,41,84,172,200,0.0,4-22A,other
37460,53,1,176,368,0.0,3-11B,other
37461,51,49,210,192,9.0,3-5B,other
37462,35,48,16,696,4.0,2-3,minor
37463,61,24,40,724,9.0,3-8B,other
37464,64,14,248,208,0.0,4-26,other
37465,35,35,92,124,0.0,4-26,other
37466,34,66,404,196,3.0,2-5,other
37467,35,60,24,124,0.0,4-20,other
37468,51,56,226,216,0.0,5-34,other
37469,70,82,132,664,9.0,5-28A,other
37470,51,56,190,140,9.0,5-28A,other
37471,55,45,108,800,3.0,5-27A,major
37472,51,40,174,368,7.0,5-25A,minor
37473,51,37,196,362,10.0,3-11B,major
37474,50,89,196,26,10.0,3-11B,major
37475,66,31,28,60,10.0,3-11B,major
37476,53,56,156,410,0.0,3-3A,major
37477,51,48,282,186,1.0,3-10,minor
37478,70,57,44,228,0.0,4-26,other
37479,68,45,48,84,0.0,4-26,other
37480,70,58,48,108,0.0,4-26,other
37481,70,54,44,188,0.0,3-11B,other
37482,68,35,72,84,0.0,3-11B,other
37483,70,49,52,96,0.0,3-11B,other
37484,56,35,32,1636,3.0,2-5,other
37485,67,83,60,176,3.0,2-5,other
37486,45,22,24,328,8.0,2-1,other
37487,45,72,100,148,10.0,2-1,other
37488,35,37,24,44,10.0,2-1,other
37489,35,32,66,86,0.0,3-4A,other
37490,74,75,48,522,5.0,2-5,other
37491,74,68,40,116,5.0,2-5,other
37492,50,41,340,244,3.0,4-16A,major
37493,44,74,68,212,3.0,4-16A,major
37494,51,44,32,212,6.0,3-10,other
37495,43,63,368,204,7.0,5-23A,minor
37496,81,50,16,44,7.0,5-23A,minor
37497,82,72,40,60,7.0,5-23A,minor
37498,51,53,410,72,7.0,5-23A,minor
37499,74,41,16,340,2.0,2-5,other
37500,77,71,40,56,2.0,2-5,other
37501,74,45,24,64,2.0,2-5,other
37502,75,75,40,56,2.0,2-5,other
37503,52,30,652,92,0.0,5-9B,other
37504,73,57,32,40,0.0,5-9B,other
37505,72,46,20,72,0.0,5-9B,other
37506,44,55,52,224,0.0,5-9B,other
37507,51,48,562,28,0.0,5-9B,other
37508,62,42,60,268,10.0,2-4,major
37509,63,63,48,76,10.0,2-4,major
37510,66,48,40,148,5.0,3-11A,other
37511,67,66,32,40,5.0,3-11A,other
37512,67,50,32,96,3.0,2-5,other
37513,68,85,64,72,3.0,2-5,other
37514,44,56,48,40,3.0,2-5,other
37515,29,66,136,292,3.0,2-5,other
37516,68,65,56,60,3.0,2-5,other
37517,35,27,118,262,10.0,3-11B,major
37518,46,87,96,322,8.0,5-26B,other
37519,74,82,44,32,8.0,5-26B,other
37520,44,81,52,88,8.0,5-26B,other
37521,70,72,36,32,8.0,5-26B,other
37522,67,60,100,312,3.0,4-24,augmented
37523,44,58,28,136,3.0,4-24,augmented
37524,68,61,72,192,3.0,4-24,augmented
37525,35,28,32,42,3.0,4-24,augmented
37526,67,37,44,94,3.0,4-24,augmented
37527,51,52,196,66,3.0,4-24,augmented
37528,36,71,456,30,3.0,4-24,augmented
37529,53,36,164,184,0.0,5-26B,other
37530,51,44,184,182,0.0,2-2,other
37531,53,35,106,198,7.0,2-3,minor
37532,55,22,576,280,9.0,2-6,other
37533,84,48,20,28,9.0,2-6,other
37534,60,1,132,28,9.0,2-6,other
37535,91,72,24,92,3.0,2-4,other
37536,96,63,32,68,3.0,2-4,other
37537,103,73,32,240,9.0,4-27A,diminished
37538,103,68,36,92,9.0,4-27A,diminished
37539,33,42,24,64,9.0,4-27A,diminished
37540,102,49,16,264,3.0,4-19B,other
37541,101,39,40,36,3.0,4-19B,other
37542,51,52,228,102,4.0,2-1,other
37543,37,48,208,210,3.0,3-4A,other
37544,67,115,64,720,8.0,4-29A,other
37545,51,44,14,52,8.0,4-29A,other
37546,67,85,36,76,8.0,4-29A,other
37547,51,60,216,106,8.0,4-29A,other
37548,35,31,20,714,1.0,5-31B,other
37549,61,68,164,308,2.0,3-11A,minor
37550,67,56,32,488,9.0,2-3,minor
37551,51,44,194,48,9.0,2-3,minor
37552,51,53,184,394,8.0,2-2,other
37553,46,54,20,338,4.0,5-32B,other
37554,51,40,190,40,4.0,5-32B,other
37555,46,82,160,204,7.0,4-23,minor
37556,53,46,44,872,0.0,4-22A,other
37557,75,60,28,88,3.0,2-5,other
37558,77,68,40,36,3.0,2-5,other
37559,75,60,52,44,3.0,2-5,other
37560,46,69,44,28,3.0,2-5,other
37561,74,56,40,28,3.0,2-5,other
37562,38,66,132,88,3.0,1-1,other
37563,79,59,28,28,3.0,1-1,other
37564,82,63,40,48,3.0,1-1,other
37565,55,41,604,88,2.0,4-10,minor
37566,89,82,28,44,2.0,4-10,minor
37567,89,82,148,148,2.0,4-10,minor
37568,82,59,32,336,2.0,2-3,minor
37569,82,55,124,68,2.0,2-3,minor
37570,39,42,20,84,2.0,2-3,minor
37571,79,58,24,32,2.0,2-3,minor
37572,77,51,36,188,5.0,4-6,other
37573,77,55,96,72,5.0,4-6,other
37574,74,40,24,116,5.0,4-6,other
37575,60,39,156,72,10.0,5-17,other
37576,33,63,32,92,10.0,5-17,other
37577,30,61,64,200,8.0,2-2,other
37578,43,82,208,1236,3.0,2-5,other
37579,35,27,16,272,6.0,2-6,other
37580,44,52,64,464,0.0,4-20,other
37581,51,41,180,26,0.0,4-20,other
37582,51,41,180,1152,0.0,4-26,other
37583,34,66,1288,30,0.0,4-26,other
37584,35,30,44,636,3.0,3-7A,other
37585,70,69,92,368,11.0,1-1,other
37586,33,56,212,292,6.0,3-9,other
37587,75,63,88,96,6.0,3-9,other
37588,77,70,120,248,0.0,7-35,other
37589,65,9,88,28,0.0,7-35,other
37590,53,62,176,384,10.0,2-5,other
37591,44,47,88,32,10.0,2-5,other
37592,51,49,210,160,10.0,2-5,other
37593,60,58,24,164,9.0,2-2,other
37594,33,78,188,36,9.0,2-2,other
37595,62,54,44,28,9.0,2-2,other
37596,63,56,36,60,9.0,2-2,other
37597,65,69,40,60,9.0,2-2,other
37598,50,33,184,68,0.0,5-28A,other
37599,68,57,40,64,0.0,5-28A,other
37600,70,57,40,112,9.0,2-3,minor
37601,71,60,36,60,9.0,2-3,minor
37602,74,66,56,184,1.0,6-15B,other
37603,72,56,44,72,1.0,6-15B,other
37604,69,48,156,72,1.0,6-15B,other
37605,62,7,72,216,0.0,4-22A,other
37606,63,44,72,428,3.0,2-4,other
37607,64,66,60,96,3.0,2-4,other
37608,35,35,92,32,3.0,2-4,other
37609,61,58,92,44,3.0,2-4,other
37610,51,56,220,492,0.0,2-4,other
37611,55,49,48,168,11.0,3-5B,other
37612,58,55,40,140,8.0,2-3,minor
37613,44,45,54,96,0.0,2-3,minor
37614,62,65,44,108,0.0,2-3,minor
37615,67,63,60,180,11.0,2-6,other
37616,68,73,56,60,11.0,2-6,other
37617,72,45,24,136,1.0,5-34,other
37618,73,49,44,44,1.0,5-34,other
37619,75,49,16,44,1.0,5-34,other
37620,77,27,32,72,0.0,2-4,major
37621,78,47,44,36,0.0,2-4,major
37622,80,42,40,52,0.0,2-4,major
37623,82,72,152,280,0.0,3-6,major
37624,44,75,112,524,6.0,5-29B,minor
37625,51,40,174,32,6.0,5-29B,minor
37626,35,76,160,108,6.0,4-27A,minor
37627,30,68,112,140,5.0,4-24,augmented
37628,53,56,156,610,8.0,2-6,other
37629,39,51,152,250,3.0,2-5,other
37630,39,53,560,196,7.0,4-26,minor
37631,33,56,64,504,9.0,2-4,major
37632,55,40,244,104,3.0,4-23,other
37633,32,51,44,700,3.0,2-5,other
37634,49,60,64,124,7.0,5-32A,minor
37635,34,61,368,140,7.0,4-26,minor
37636,37,59,116,384,1.0,4-21,other
37637,50,56,36,464,0.0,4-26,minor
37638,49,65,36,56,0.0,4-26,minor
37639,44,64,74,28,0.0,4-26,minor
37640,51,49,216,374,4.0,2-5,other
37641,35,66,892,810,6.0,5-29B,minor
37642,90,28,24,256,6.0,6-41B,minor
37643,90,30,28,264,6.0,6-41B,minor
37644,51,44,790,38,6.0,6-41B,minor
37645,46,52,40,170,1.0,3-9,other
37646,46,60,112,180,0.0,4-20,other
37647,60,43,116,232,3.0,4-14B,other
37648,34,63,172,172,3.0,4-14B,other
37649,67,81,92,108,3.0,4-14B,other
37650,67,63,52,148,3.0,3-9,other
37651,68,82,300,152,3.0,3-9,other
37652,44,54,52,168,3.0,3-9,other
37653,51,48,178,28,3.0,3-9,other
37654,51,52,360,970,0.0,4-19A,minor
37655,33,68,576,194,0.0,4-19A,minor
37656,35,27,118,190,0.0,3-9,other
37657,87,57,104,58,0.0,3-9,other
37658,89,88,76,264,3.0,2-5,other
37659,58,41,456,88,7.0,2-5,other
37660,87,75,76,56,7.0,2-5,other
37661,86,72,80,172,1.0,3-8A,other
37662,81,59,36,96,1.0,3-8A,other
37663,84,77,96,64,1.0,3-8A,other
37664,51,44,170,160,9.0,2-1,other
37665,77,66,64,148,10.0,2-4,major
37666,77,52,48,112,11.0,2-1,other
37667,74,56,36,48,11.0,2-1,other
37668,76,50,80,120,0.0,4-21,major
37669,84,74,40,104,0.0,4-21,major
37670,53,36,164,40,0.0,4-21,major
37671,84,69,48,64,0.0,4-21,major
37672,73,56,52,212,10.0,3-12,augmented
37673,72,57,56,156,5.0,2-5,other
37674,35,31,30,44,5.0,2-5,other
37675,70,61,80,140,11.0,2-6,other
37676,68,55,36,100,11.0,2-6,other
37677,65,86,44,372,7.0,2-4,major
37678,65,78,60,80,7.0,2-4,major
37679,63,82,56,104,7.0,2-4,major
37680,51,41,212,34,7.0,2-4,major
37681,46,50,160,58,3.0,2-5,other
37682,62,79,44,104,3.0,2-5,other
37683,62,65,48,80,3.0,2-5,other
37684,44,55,54,148,5.0,2-2,other
37685,53,53,42,298,10.0,4-17,major
37686,53,32,156,1072,1.0,4-12A,minor
37687,64,63,48,454,3.0,2-5,other
37688,35,31,20,32,3.0,2-5,other
37689,67,69,44,264,9.0,2-2,other
37690,45,70,112,380,0.0,2-5,other
37691,33,31,28,804,3.0,2-4,other
37692,37,81,380,572,3.0,2-5,other
37693,61,52,200,2140,2.0,5-24A,minor
37694,22,81,248,1100,0.0,4-22A,other
37695,60,48,492,1884,0.0,3-6,other
37696,53,49,148,4000,2.0,5-16A,other
37697,54,50,1292,156,2.0,5-16A,other
37698,56,49,1088,144,2.0,5-16A,other
37699,57,57,80,104,2.0,5-16A,other
37700,59,60,68,96,2.0,5-16A,other
37701,60,60,128,96,2.0,5-16A,other
37702,62,56,56,136,2.0,5-16A,other
37703,63,65,44,56,2.0,5-16A,other
37704,65,79,60,56,2.0,5-16A,other
37705,66,77,52,48,2.0,5-16A,other
37706,68,71,16,44,2.0,5-16A,other
37707,69,77,36,32,2.0,5-16A,other
37708,71,81,44,40,2.0,5-16A,other
37709,72,63,36,40,2.0,5-16A,other
37710,74,83,40,32,2.0,5-16A,other
37711,75,88,112,56,2.0,5-16A,other
37712,77,90,84,112,2.0,5-16A,other
37713,78,75,80,76,2.0,5-16A,other
37714,80,80,48,64,2.0,5-16A,other
37715,81,80,40,64,2.0,5-16A,other
37716,83,77,64,60,2.0,5-16A,other
37717,84,74,56,60,2.0,5-16A,other
37718,86,70,44,68,2.0,5-16A,other
37719,87,76,52,76,2.0,5-16A,other
37720,89,75,72,76,2.0,5-16A,other
37721,90,71,92,72,2.0,5-16A,other
37722,92,67,56,76,2.0,5-16A,other
37723,93,63,68,76,2.0,5-16A,other
37724,94,65,80,92,2.0,5-16A,other
37725,95,32,116,124,2.0,5-16A,other
37726,96,58,156,128,2.0,5-16A,other
37727,98,70,164,132,2.0,5-16A,other
37728,58,49,364,744,7.0,1-1,other
37729,67,48,196,368,10.0,3-11B,major
37730,74,51,152,388,10.0,3-4A,major
37731,79,8,192,212,10.0,3-9,other
37732,82,43,608,164,10.0,3-9,other
37733,69,92,33,0,,,
37734,69,81,50,43,,,
37735,69,72,25,64,,,
37736,69,85,34,53,,,
37737,69,82,29,52,,,
37738,69,85,22,58,,,
37739,69,62,16,33,,,
37740,69,69,10,29,,,
37741,69,61,10,26,,,
37742,71,70,514,37,,,
37743,60,76,37,568,5.0,3-12,augmented
37744,82,74,12,206,5.0,4-22A,major
37745,84,70,12,30,5.0,4-22A,major
37746,81,64,55,38,5.0,4-22A,major
37747,57,58,43,179,10.0,3-3A,major
37748,58,68,54,118,0.0,4-19B,augmented
37749,50,47,200,121,9.0,4-19A,minor
37750,57,55,61,125,0.0,3-12,augmented
37751,38,49,76,126,0.0,2-4,major
37752,26,55,16,50,0.0,2-4,major
37753,69,105,22,83,0.0,2-4,major
37754,69,111,39,40,0.0,2-4,major
37755,69,91,35,61,0.0,2-4,major
37756,69,72,73,55,0.0,2-4,major
37757,74,77,16,55,0.0,2-4,major
37758,50,52,54,134,4.0,4-29A,minor
37759,38,59,62,226,2.0,4-26,minor
37760,43,71,30,247,7.0,5-34,major
37761,67,58,96,121,3.0,5-13A,augmented
37762,60,82,25,1097,0.0,1-1,other
37763,65,57,37,40,0.0,1-1,other
37764,69,57,33,80,0.0,1-1,other
37765,72,69,6,117,2.0,5-27B,minor
37766,50,77,55,240,2.0,5-34,major
37767,44,63,6,126,2.0,5-34,major
37768,70,92,39,123,2.0,5-35,minor
37769,77,100,19,87,10.0,2-4,major
37770,70,85,31,35,10.0,2-4,major
37771,68,74,32,112,5.0,4-24,augmented
37772,67,64,35,40,5.0,4-24,augmented
37773,52,62,16,80,5.0,4-24,augmented
37774,49,43,28,1056,7.0,4-26,minor
37775,60,88,22,337,3.0,2-4,other
37776,62,79,19,30,3.0,2-4,other
37777,65,60,68,56,3.0,3-6,major
37778,62,78,70,74,3.0,3-6,major
37779,65,77,27,83,10.0,3-11B,major
37780,69,79,30,38,10.0,3-11B,major
37781,76,96,103,129,0.0,4-27B,major
37782,74,74,42,115,8.0,2-2,other
37783,81,59,12,199,5.0,4-16A,other
37784,50,61,10,276,10.0,3-8B,other
37785,47,56,33,254,10.0,3-11B,major
37786,60,50,18,85,0.0,3-8A,major
37787,65,85,34,33,0.0,3-8A,major
37788,68,70,24,78,0.0,2-5,other
37789,69,75,21,37,0.0,2-5,other
37790,72,59,10,82,2.0,5-27B,minor
37791,63,55,20,160,9.0,2-6,other
37792,82,72,14,373,10.0,3-4A,major
37793,82,67,21,117,7.0,4-26,minor
37794,53,54,39,357,9.0,3-7A,minor
37795,56,63,30,217,11.0,4-23,minor
37796,62,9,129,233,9.0,4-26,minor
37797,50,54,35,616,7.0,4-26,minor
37798,54,64,44,257,6.0,4-28,diminished
37799,60,64,30,166,7.0,3-11A,minor
37800,62,58,19,36,7.0,3-11A,minor
37801,65,74,10,36,7.0,3-11A,minor
37802,65,50,17,78,4.0,4-25,other
37803,65,64,25,108,10.0,2-4,major
37804,67,64,36,38,10.0,2-4,major
37805,48,84,259,495,9.0,4-1,minor
37806,65,73,10,236,9.0,4-1,minor
37807,68,100,68,38,9.0,4-1,minor
37808,69,85,35,74,9.0,4-1,minor
37809,69,70,25,46,9.0,4-1,minor
37810,68,47,26,33,9.0,4-1,minor
37811,69,67,17,35,9.0,4-1,minor
37812,81,71,13,136,11.0,2-3,minor
37813,77,72,22,713,5.0,4-24,augmented
37814,73,80,23,28,5.0,4-24,augmented
37815,69,57,18,76,9.0,4-10,minor
37816,67,59,30,26,9.0,4-10,minor
37817,62,71,18,110,2.0,3-8A,major
37818,38,57,48,93,2.0,2-1,other
37819,44,65,23,32,2.0,2-1,other
37820,45,67,35,116,3.0,3-11A,other
37821,50,71,34,160,6.0,2-3,minor
37822,58,67,31,759,7.0,4-27B,major
37823,57,59,36,41,7.0,4-27B,major
37824,55,62,16,82,4.0,4-17,other
37825,79,92,7,816,5.0,2-2,other
37826,80,84,8,50,5.0,2-2,other
37827,60,85,34,388,0.0,3-8A,major
37828,65,97,49,41,0.0,3-8A,major
37829,65,52,34,73,0.0,3-8A,major
37830,69,62,53,44,0.0,3-8A,major
37831,72,48,27,75,0.0,3-8A,major
37832,72,68,16,118,2.0,4-26,minor
37833,50,71,68,283,6.0,3-8B,other
37834,56,59,33,399,5.0,3-12,augmented
37835,51,70,90,93,5.0,3-8B,other
37836,72,85,21,516,9.0,4-26,minor
37837,46,69,21,31,9.0,4-26,minor
37838,55,34,28,513,0.0,4-27B,other
37839,50,67,140,248,10.0,3-11B,major
37840,54,65,34,195,2.0,4-27B,major
37841,43,41,48,123,7.0,4-26,minor
37842,52,33,14,241,9.0,5-24A,minor
37843,60,74,39,113,0.0,4-11A,other
37844,72,82,15,83,9.0,2-2,other
37845,77,94,15,36,9.0,2-2,other
37846,81,62,25,158,5.0,5-30B,other
37847,77,87,21,40,5.0,5-30B,other
37848,77,68,31,40,5.0,5-30B,other
37849,72,67,23,80,5.0,4-16A,other
37850,70,80,31,40,5.0,4-16A,other
37851,72,102,24,102,10.0,2-1,other
37852,65,91,30,124,10.0,2-4,other
37853,62,64,109,87,6.0,3-10,other
37854,50,57,13,56,6.0,3-10,other
37855,57,68,41,249,7.0,3-7A,minor
37856,58,66,19,45,7.0,3-7A,minor
37857,36,59,26,462,10.0,4-22A,major
37858,58,49,47,318,0.0,3-12,augmented
37859,41,18,110,0,7.0,4-26,minor
37860,66,31,710,3910,0.0,3-7B,other
37861,51,47,270,1700,8.0,3-8A,other
37862,52,50,100,120,8.0,3-8A,other
37863,51,38,190,810,2.0,2-3,minor
37864,53,58,640,270,2.0,2-3,minor
37865,62,45,250,100,7.0,3-7A,minor
37866,34,85,230,1470,3.0,2-4,major
37867,56,41,1010,2390,10.0,3-12,augmented
37868,39,58,920,2790,10.0,3-12,augmented
37869,47,66,320,1590,3.0,3-11B,major
37870,48,57,610,340,3.0,3-11B,major
37871,39,36,200,630,3.0,3-11B,major
37872,42,47,750,240,3.0,3-11B,major
37873,39,39,190,680,3.0,3-11B,major
37874,57,48,90,260,5.0,2-2,other
37875,36,39,150,670,5.0,2-2,other
37876,33,55,710,240,5.0,2-2,other
37877,34,57,1100,750,0.0,2-3,minor
37878,37,46,250,890,0.0,2-3,minor
37879,56,70,670,320,0.0,2-3,minor
37880,63,59,670,60,5.0,2-5,other
37881,51,52,220,620,5.0,2-5,other
37882,49,42,190,1960,3.0,2-4,major
37883,36,75,160,3790,2.0,3-7A,minor
37884,53,39,70,1050,0.0,2-4,major
37885,41,48,1760,1280,0.0,2-4,major
37886,48,41,500,1000,0.0,2-3,minor
37887,65,41,330,30,0.0,2-3,minor
37888,56,57,210,1460,0.0,2-3,minor
37889,60,49,180,60,5.0,1-1,other
37890,63,28,290,70,5.0,1-1,other
37891,67,49,940,1200,0.0,3-7A,minor
37892,46,55,180,620,0.0,3-7A,minor
37893,46,40,1170,380,0.0,3-7A,minor
37894,64,43,1230,700,8.0,2-6,other
37895,46,68,1480,870,8.0,2-6,other
37896,59,40,140,410,8.0,2-6,other
37897,53,46,140,640,8.0,2-6,other
37898,46,66,230,830,2.0,2-3,minor
37899,44,47,190,900,2.0,2-3,minor
37900,43,63,180,210,2.0,2-3,minor
37901,46,42,300,1830,3.0,4-29A,other
37902,46,41,160,920,6.0,5-34,minor
37903,66,52,240,300,6.0,5-34,minor
37904,61,49,260,30,6.0,5-34,minor
37905,63,40,100,70,6.0,5-34,minor
37906,40,46,650,620,10.0,3-11B,other
37907,47,70,100,840,10.0,3-11B,other
37908,64,31,100,2090,5.0,3-9,other
37909,51,44,130,2880,3.0,2-4,major
37910,63,53,610,150,0.0,3-4A,other
37911,55,1,470,360,0.0,3-4A,other
37912,60,39,220,650,3.0,3-9,other
37913,62,56,330,960,7.0,3-3A,major
37914,56,82,620,960,2.0,3-8A,major
37915,67,52,300,180,2.0,3-8A,major
37916,54,42,100,450,2.0,3-8A,major
37917,64,50,380,1360,11.0,3-7B,other
37918,65,57,680,950,0.0,3-7B,other
37919,46,65,190,590,0.0,3-7B,other
37920,47,56,670,330,0.0,3-7B,other
37921,65,56,1340,590,0.0,3-7B,other
37922,62,55,1230,60,10.0,2-5,other
37923,48,49,900,50,10.0,2-5,other
37924,43,58,170,880,10.0,2-5,other
37925,42,41,850,320,10.0,2-5,other
37926,43,27,70,850,10.0,2-5,other
37927,39,58,180,710,0.0,2-1,other
37928,40,48,890,330,0.0,2-1,other
37929,39,39,210,670,0.0,2-1,other
37930,63,39,800,260,0.0,2-1,other
37931,60,40,770,80,8.0,2-3,other
37932,36,48,110,540,8.0,2-3,other
37933,29,45,760,300,8.0,2-3,other
37934,36,43,90,730,8.0,2-3,other
37935,52,82,770,1230,5.0,2-5,other
37936,60,78,500,710,3.0,2-5,other
37937,46,63,480,50,3.0,2-5,other
37938,46,34,1140,600,3.0,2-5,other
37939,62,75,770,1270,8.0,3-7B,other
37940,67,44,720,50,8.0,3-7B,other
37941,46,58,1420,840,8.0,3-7B,other
37942,65,55,90,380,8.0,3-8A,other
37943,70,69,810,2540,6.0,4-23,minor
37944,61,55,630,1320,5.0,3-11A,other
37945,45,55,580,3560,1.0,4-27A,diminished
37946,60,46,710,1360,3.0,4-14B,other
37947,50,66,1140,650,3.0,4-14B,other
37948,51,54,770,1160,3.0,4-14B,other
37949,60,38,1340,80,3.0,3-11B,major
37950,52,57,740,900,3.0,3-11B,major
37951,51,46,190,750,3.0,3-11B,major
37952,42,49,980,1130,0.0,4-26,other
37953,41,40,82,1030,8.0,3-10,other
37954,64,72,50,900,2.0,4-25,major
37955,67,31,350,140,2.0,4-25,major
37956,54,34,120,650,2.0,4-25,major
37957,64,59,290,830,11.0,3-7B,other
37958,50,57,160,3950,7.0,3-8A,major
37959,63,43,290,290,11.0,2-6,other
37960,50,56,70,560,11.0,2-6,other
37961,46,72,150,910,3.0,3-12,augmented
37962,47,65,620,330,3.0,3-12,augmented
37963,48,66,740,660,3.0,3-11B,major
37964,42,60,230,920,3.0,3-11B,major
37965,43,60,890,300,3.0,3-11B,major
37966,63,23,170,1020,0.0,2-5,other
37967,34,46,320,670,0.0,2-5,other
37968,42,54,700,280,0.0,2-5,other
37969,56,31,530,50,0.0,2-5,other
37970,36,46,200,660,0.0,2-5,other
37971,51,48,990,230,0.0,2-5,other
37972,39,67,900,910,5.0,3-11B,major
37973,37,48,210,740,5.0,3-11B,major
37974,38,67,900,230,5.0,3-11B,major
37975,26,84,200,710,6.0,3-5B,other
37976,60,83,950,5800,3.0,3-9,other
37977,53,38,250,1020,3.0,3-9,other
37978,64,55,1130,270,7.0,4-18A,major
37979,59,45,390,970,10.0,2-4,major
37980,52,48,120,770,10.0,2-4,major
37981,47,66,920,1110,7.0,3-7B,other
37982,43,52,910,1930,0.0,4-26,minor
37983,60,47,90,1000,3.0,3-7A,other
37984,55,82,820,900,0.0,4-20,other
37985,64,57,60,1670,8.0,2-6,other
37986,67,48,570,210,8.0,2-6,other
37987,70,66,770,980,8.0,2-6,other
37988,65,66,1080,1690,0.0,3-7B,other
37989,69,23,700,60,0.0,3-7B,other
37990,44,87,1200,790,0.0,3-7B,other
37991,43,60,1920,1190,0.0,3-7B,other
37992,46,42,190,1820,7.0,4-26,minor
37993,64,51,980,210,0.0,3-7B,other
37994,42,72,1140,610,0.0,3-7B,other
37995,51,75,880,1900,0.0,2-4,other
37996,48,36,210,980,0.0,2-4,other
37997,41,82,150,950,5.0,2-5,other
37998,46,58,910,1220,5.0,2-5,other
37999,65,38,80,740,8.0,3-10,diminished
38000,65,39,970,1350,8.0,2-2,other
38001,55,61,60,4610,10.0,1-1,other
38002,46,89,280,1810,0.0,5-27A,other
38003,46,72,1070,390,0.0,5-27A,other
38004,46,83,250,1480,7.0,4-18A,major
38005,62,46,90,390,7.0,4-18A,major
38006,46,43,150,600,7.0,4-18A,major
38007,47,61,280,1860,3.0,2-1,other
38008,48,53,700,300,3.0,2-1,other
38009,58,19,100,120,3.0,2-4,major
38010,42,36,790,770,3.0,3-11B,major
38011,39,38,180,740,3.0,3-11B,major
38012,36,57,170,990,9.0,2-3,minor
38013,33,45,820,330,9.0,2-3,minor
38014,63,4,280,380,9.0,2-3,minor
38015,50,32,410,1570,0.0,5-35,minor
38016,54,50,329,582,0.0,5-35,minor
38017,55,60,685,354,10.0,3-9,other
38018,62,40,80,28,10.0,3-9,other
38019,65,57,89,791,10.0,3-9,other
38020,62,79,1172,721,10.0,3-11A,other
38021,50,74,260,789,10.0,3-11A,other
38022,46,48,895,313,10.0,3-11A,other
38023,47,32,86,793,10.0,3-11A,other
38024,48,52,612,158,10.0,3-11A,other
38025,36,57,170,592,10.0,3-11A,other
38026,43,38,78,1036,10.0,3-11B,major
38027,48,70,164,792,4.0,3-10,diminished
38028,55,39,767,3218,0.0,3-11A,minor
38029,53,44,1021,953,5.0,3-7B,other
38030,46,70,255,1676,0.0,2-2,other
38031,46,56,1153,428,0.0,2-2,other
38032,62,67,997,620,8.0,2-6,other
38033,46,78,174,958,8.0,2-6,other
38034,46,63,2036,355,8.0,2-6,other
38035,55,82,1390,646,10.0,3-9,other
38036,54,39,77,1349,10.0,3-9,other
38037,63,54,517,2576,9.0,3-4A,major
38038,56,16,370,93,9.0,3-4A,major
38039,63,31,213,936,6.0,3-11A,minor
38040,47,39,485,899,4.0,2-4,major
38041,47,29,205,965,4.0,2-4,major
38042,46,48,69,945,7.0,2-5,other
38043,65,57,179,959,0.0,3-7B,other
38044,54,48,710,244,0.0,3-7B,other
38045,51,48,118,739,0.0,3-7B,other
38046,48,43,813,1292,3.0,2-4,major
38047,56,49,644,923,3.0,2-4,major
38048,48,48,182,755,5.0,2-5,other
38049,53,48,699,275,5.0,2-5,other
38050,62,52,287,949,7.0,2-1,other
38051,67,66,1151,731,8.0,3-10,diminished
38052,54,35,113,1127,8.0,3-10,diminished
38053,70,56,431,126,8.0,3-10,diminished
38054,54,54,225,711,4.0,2-5,other
38055,55,50,461,246,10.0,3-9,other
38056,54,44,242,607,10.0,3-9,other
38057,55,56,714,298,10.0,3-9,other
38058,44,63,455,860,10.0,3-9,other
38059,64,41,604,734,7.0,2-5,other
38060,48,39,2131,244,7.0,2-5,other
38061,36,81,236,572,7.0,2-5,other
38062,36,55,646,411,7.0,2-5,other
38063,48,82,243,1488,1.0,4-28,diminished
38064,55,31,86,413,1.0,4-28,diminished
38065,46,85,1711,4331,5.0,2-2,other
38066,46,68,3970,1935,5.0,2-2,other
38067,65,37,83,845,3.0,4-14A,other
38068,46,82,187,3745,7.0,4-23,minor
38069,60,57,82,340,7.0,4-23,minor
38070,69,60,851,668,5.0,3-4A,other
38071,55,57,698,2829,1.0,2-3,minor
38072,45,37,400,59,1.0,2-3,minor
38073,44,59,3314,865,0.0,2-3,minor
38074,50,72,307,897,0.0,2-3,minor
38075,51,62,1299,336,0.0,2-3,minor
38076,60,43,1002,1022,3.0,3-11B,major
38077,52,81,1319,682,3.0,3-11B,major
38078,55,26,848,408,3.0,3-11B,major
38079,51,36,129,733,3.0,3-11B,major
38080,53,50,777,158,3.0,3-11B,major
38081,63,54,790,697,3.0,3-11B,major
38082,53,48,165,272,0.0,2-4,other
38083,53,48,169,693,0.0,2-4,other
38084,53,47,86,1024,11.0,2-3,minor
38085,55,75,1150,981,10.0,3-9,other
38086,59,36,469,1193,6.0,3-7A,minor
38087,51,39,136,835,6.0,3-7A,minor
38088,55,56,530,206,10.0,3-9,other
38089,44,82,1175,656,10.0,3-9,other
38090,43,51,810,1319,10.0,3-9,other
38091,53,55,54,735,3.0,3-12,augmented
38092,53,39,65,975,3.0,3-12,augmented
38093,59,68,762,941,11.0,3-10,diminished
38094,46,42,271,892,11.0,3-10,diminished
38095,58,39,364,306,0.0,2-3,minor
38096,55,31,334,32,0.0,2-3,minor
38097,55,37,218,1025,3.0,2-5,other
38098,54,61,315,595,3.0,2-5,other
38099,58,51,414,1286,3.0,3-11B,major
38100,63,49,579,31,3.0,3-11B,major
38101,51,52,217,604,3.0,3-11B,major
38102,57,48,433,1163,5.0,4-27B,major
38103,63,32,556,79,5.0,2-5,other
38104,49,56,244,584,5.0,2-5,other
38105,50,68,193,1892,5.0,3-5B,other
38106,43,66,2911,301,5.0,3-5B,other
38107,50,52,259,2648,9.0,2-3,minor
38108,67,78,291,541,9.0,2-3,minor
38109,60,32,85,55,9.0,2-3,minor
38110,46,81,1060,1281,7.0,2-3,minor
38111,68,20,382,260,7.0,2-3,minor
38112,46,54,65,989,7.0,2-3,minor
38113,48,48,847,4014,3.0,3-11B,major
38114,67,60,130,677,0.0,3-7A,minor
38115,53,59,821,924,0.0,4-20,other
38116,62,45,248,2279,7.0,4-3,other
38117,64,43,198,40,7.0,4-3,other
38118,53,46,265,745,7.0,4-3,other
38119,62,73,409,214,6.0,2-6,other
38120,56,68,565,32,6.0,2-6,other
38121,67,50,223,103,6.0,2-6,other
38122,62,49,61,627,0.0,2-5,other
38123,69,43,335,1847,7.0,4-23,minor
38124,44,74,701,775,7.0,4-23,minor
38125,60,81,716,1876,2.0,3-7A,minor
38126,48,60,1373,1228,2.0,3-7A,minor
38127,48,48,20,1702,3.0,4-16A,other
38128,60,38,259,1262,3.0,3-7A,other
38129,53,46,396,972,0.0,2-3,minor
38130,58,63,198,586,0.0,2-3,minor
38131,46,55,237,407,0.0,2-3,minor
38132,46,80,1621,591,0.0,2-3,minor
38133,46,60,182,1910,8.0,4-28,diminished
38134,46,68,2033,414,8.0,4-28,diminished
38135,68,58,401,559,8.0,4-28,diminished
38136,65,57,277,63,8.0,3-10,diminished
38137,55,77,1206,884,10.0,3-9,other
38138,48,53,294,2801,3.0,3-11B,major
38139,60,49,416,1171,3.0,3-7A,other
38140,67,39,81,1614,0.0,2-2,other
38141,54,44,240,2289,4.0,6-49,other
38142,54,60,380,890,2.0,2-3,minor
38143,69,25,120,100,2.0,2-3,minor
38144,62,47,410,280,7.0,3-7A,minor
38145,58,60,220,790,3.0,2-4,major
38146,48,46,210,40,3.0,2-4,major
38147,60,70,720,710,3.0,2-4,major
38148,42,46,680,270,3.0,2-4,major
38149,52,35,250,50,3.0,2-4,major
38150,62,66,190,350,3.0,2-4,major
38151,63,83,230,330,3.0,2-4,major
38152,65,14,100,1000,5.0,3-7B,other
38153,48,28,650,150,5.0,3-7B,other
38154,68,66,60,1750,8.0,4-27A,diminished
38155,67,61,700,180,8.0,4-27A,diminished
38156,54,39,160,890,8.0,4-27A,diminished
38157,57,52,60,850,7.0,2-2,other
38158,76,65,240,990,7.0,4-26,minor
38159,67,63,60,910,10.0,3-11B,major
38160,72,78,270,1520,7.0,2-2,other
38161,84,86,190,690,7.0,2-2,other
38162,87,78,170,640,7.0,2-2,other
38163,70,57,200,680,3.0,2-1,other
38164,58,76,170,2110,0.0,3-7A,minor
38165,56,60,290,210,0.0,3-7A,minor
38166,60,68,400,1420,7.0,2-1,other
38167,63,49,290,30,7.0,2-1,other
38168,53,59,670,580,3.0,2-5,other
38169,46,52,5150,780,4.0,4-27B,major
38170,74,86,360,1200,4.0,4-27B,major
38171,74,85,290,620,4.0,4-27B,major
38172,56,49,420,620,11.0,3-11A,minor
38173,67,52,160,200,11.0,3-11A,minor
38174,55,55,760,1240,10.0,3-9,other
38175,54,63,440,810,10.0,3-9,other
38176,64,49,130,70,11.0,2-2,other
38177,55,68,170,330,11.0,2-2,other
38178,70,27,70,70,11.0,2-2,other
38179,68,58,90,500,3.0,2-1,other
38180,72,46,70,40,3.0,2-1,other
38181,61,52,240,260,3.0,2-1,other
38182,56,65,200,1800,3.0,3-11B,other
38183,54,57,260,220,3.0,3-11B,other
38184,40,72,1240,1650,6.0,3-9,other
38185,47,44,100,840,6.0,3-9,other
38186,61,62,330,320,4.0,2-4,major
38187,70,80,270,1590,3.0,4-20,major
38188,62,43,80,460,3.0,4-20,major
38189,70,78,220,970,5.0,3-9,other
38190,71,102,180,480,5.0,3-9,other
38191,74,98,200,450,5.0,3-9,other
38192,77,94,270,510,5.0,3-9,other
38193,63,54,600,380,5.0,3-9,other
38194,68,66,240,600,5.0,2-2,other
38195,60,46,410,70,5.0,2-2,other
38196,67,39,300,350,5.0,2-2,other
38197,72,80,300,550,5.0,2-2,other
38198,53,37,80,1150,8.0,2-6,other
38199,62,45,260,220,8.0,2-2,other
38200,60,54,90,3840,7.0,2-3,minor
38201,55,58,260,1670,4.0,1-1,other
38202,60,75,390,1860,0.0,3-11B,major
38203,75,58,180,3300,5.0,3-7B,other
38204,65,63,160,70,3.0,2-5,other
38205,67,41,120,1780,10.0,2-1,other
38206,46,35,660,730,10.0,2-1,other
38207,71,48,520,140,8.0,3-8B,other
38208,67,36,160,330,8.0,3-8B,other
38209,53,39,260,1320,8.0,4-27A,diminished
38210,62,40,320,290,8.0,3-7A,minor
38211,55,57,1080,690,10.0,3-9,other
38212,54,49,900,1110,10.0,3-9,other
38213,60,45,810,820,7.0,3-7A,minor
38214,51,50,90,5760,1.0,3-8B,other
38215,50,60,300,890,0.0,2-2,other
38216,51,54,1550,330,0.0,2-2,other
38217,60,36,310,70,3.0,3-11B,major
38218,60,39,350,920,3.0,3-11B,major
38219,52,72,1300,590,3.0,3-11B,major
38220,55,43,490,320,3.0,3-11B,major
38221,58,38,800,30,3.0,3-11B,major
38222,60,26,490,80,3.0,3-11B,major
38223,51,48,300,580,3.0,3-11B,major
38224,63,36,360,350,5.0,3-11A,other
38225,60,42,350,950,3.0,2-5,other
38226,46,43,990,890,3.0,2-5,other
38227,58,46,380,30,3.0,2-5,other
38228,58,48,590,980,3.0,2-5,other
38229,46,46,190,600,3.0,2-5,other
38230,39,40,1690,320,7.0,2-3,minor
38231,62,34,440,30,7.0,2-3,minor
38232,46,68,1220,1530,7.0,3-11A,minor
38233,62,39,530,390,7.0,2-3,minor
38234,46,26,240,1580,8.0,3-8A,other
38235,59,55,470,240,3.0,2-4,major
38236,50,68,210,1590,3.0,2-4,other
38237,63,52,640,340,11.0,1-1,other
38238,59,57,550,900,11.0,1-1,other
38239,63,48,610,50,11.0,1-1,other
38240,58,47,460,870,0.0,3-11A,minor
38241,55,122,1260,1660,3.0,3-11B,major
38242,63,55,660,1290,10.0,2-4,other
38243,51,48,210,660,10.0,2-4,other
38244,57,49,500,300,5.0,2-2,other
38245,48,36,70,1730,9.0,2-6,other
38246,60,52,550,240,2.0,2-4,major
38247,54,63,710,1620,6.0,2-6,other
38248,31,68,160,960,7.0,4-22A,major
38249,43,102,210,1940,11.0,3-7B,other
38250,46,92,220,1890,0.0,4-26,minor
38251,94,88,980,980,0.0,4-26,minor
38252,57,68,200,190,3.0,5-30A,other
38253,47,99,360,3570,10.0,3-9,other
38254,48,81,1710,400,10.0,3-9,other
38255,42,52,300,1590,3.0,3-11B,major
38256,41,54,1560,350,3.0,3-11B,major
38257,53,36,810,710,0.0,3-11B,other
38258,48,52,240,800,0.0,3-11B,other
38259,46,46,1750,340,0.0,3-11B,other
38260,62,46,700,710,8.0,3-7B,other
38261,49,50,290,820,8.0,3-7B,other
38262,50,54,1790,320,8.0,3-7B,other
38263,49,50,220,1690,7.0,3-11A,minor
38264,51,65,710,290,7.0,3-11A,minor
38265,44,59,900,760,7.0,3-11A,minor
38266,51,45,250,760,7.0,3-11A,minor
38267,49,58,640,1240,7.0,4-26,minor
38268,48,71,580,700,4.0,2-6,other
38269,43,90,240,850,4.0,2-6,other
38270,52,45,90,410,4.0,2-6,other
38271,41,63,920,990,4.0,2-6,other
38272,73,29,100,1450,0.0,4-26,other
38273,59,43,470,2620,8.0,2-2,other
38274,39,57,810,3860,4.0,6-49,other
38275,46,53,70,630,4.0,6-49,other
38276,67,56,180,280,4.0,6-49,other
38277,44,52,180,690,5.0,3-4A,other
38278,65,59,750,900,3.0,2-5,other
38279,58,36,110,60,5.0,2-5,other
38280,35,71,1030,1070,5.0,2-5,other
38281,22,60,540,1560,6.0,2-3,other
38282,56,57,320,1360,10.0,1-1,other
38283,39,72,1390,650,10.0,1-1,other
38284,37,51,1080,2210,3.0,4-20,major
38285,70,48,410,680,3.0,4-20,major
38286,65,57,940,5380,0.0,5-27A,other
38287,62,41,100,1080,3.0,4-20,major
38288,69,25,310,680,3.0,4-20,major
38289,74,75,340,400,3.0,4-20,major
38290,81,86,420,500,3.0,4-20,major
38291,79,68,280,480,3.0,4-20,major
38292,86,76,400,480,3.0,4-20,major
38293,81,63,140,450,3.0,4-20,major
38294,93,72,370,440,3.0,4-20,major
38295,86,46,250,470,3.0,4-20,major
38296,91,60,300,410,3.0,4-20,major
38297,98,66,190,400,3.0,4-20,major
38298,103,60,250,480,3.0,4-20,major
38299,105,66,290,510,3.0,4-20,major
38300,77,90,29,0,2.0,4-26,minor
38301,77,71,18,112,5.0,1-1,other
38302,77,62,30,369,2.0,4-26,minor
38303,77,56,38,106,5.0,1-1,other
38304,29,58,24,193,9.0,5-36A,diminished
38305,65,99,31,85,9.0,5-36A,diminished
38306,70,75,21,34,9.0,5-36A,diminished
38307,64,89,67,365,2.0,2-3,minor
38308,70,71,24,304,0.0,1-1,other
38309,67,72,112,103,5.0,6-34B,augmented
38310,61,32,23,68,5.0,6-34B,augmented
38311,65,56,29,90,5.0,6-34B,augmented
38312,62,52,112,151,10.0,2-4,major
38313,29,66,41,118,10.0,2-4,major
38314,44,64,88,302,5.0,3-4A,other
38315,68,80,25,117,5.0,2-5,other
38316,63,67,25,115,1.0,5-34,minor
38317,65,86,34,111,5.0,5-34,major
38318,70,77,59,77,5.0,5-34,major
38319,67,38,13,361,2.0,2-3,minor
38320,72,76,28,52,2.0,2-3,minor
38321,69,72,26,124,10.0,2-4,major
38322,70,71,50,114,0.0,5-23A,minor
38323,51,76,19,188,3.0,3-11B,major
38324,45,82,95,182,2.0,2-4,major
38325,45,88,12,118,6.0,3-8B,other
38326,33,102,7,61,6.0,3-8B,other
38327,81,64,67,121,1.0,5-29B,diminished
38328,79,57,37,72,1.0,5-29B,diminished
38329,45,52,23,82,2.0,2-5,other
38330,52,53,34,30,2.0,2-5,other
38331,54,55,126,27,2.0,2-5,other
38332,59,46,23,30,2.0,2-5,other
38333,64,55,26,26,2.0,2-5,other
38334,66,57,7,30,2.0,2-5,other
38335,71,52,19,29,2.0,2-5,other
38336,77,76,15,61,0.0,4-26,minor
38337,77,65,7,30,0.0,4-26,minor
38338,84,79,9,29,0.0,4-26,minor
38339,70,86,27,218,7.0,4-26,minor
38340,70,95,32,113,1.0,4-28,diminished
38341,70,77,23,121,0.0,5-27B,minor
38342,70,62,23,139,2.0,5-32B,other
38343,54,71,69,104,10.0,3-12,augmented
38344,57,76,20,116,7.0,2-5,other
38345,53,77,38,504,10.0,3-12,augmented
38346,93,70,7,491,7.0,2-2,other
38347,99,56,11,114,2.0,2-3,minor
38348,72,72,11,330,10.0,3-11B,major
38349,46,61,87,179,10.0,3-11B,major
38350,72,75,38,72,10.0,3-11B,major
38351,69,73,32,111,10.0,3-11B,major
38352,70,67,26,134,5.0,5-26B,other
38353,51,55,12,167,3.0,3-11B,major
38354,48,91,21,281,4.0,3-11A,minor
38355,70,64,21,283,7.0,4-22B,minor
38356,61,60,8,184,0.0,2-2,other
38357,65,59,18,32,0.0,2-2,other
38358,70,67,21,29,0.0,2-2,other
38359,75,73,31,83,0.0,2-1,other
38360,77,72,42,35,0.0,2-1,other
38361,68,62,21,595,7.0,2-2,other
38362,53,56,25,111,2.0,4-26,minor
38363,53,65,172,46,2.0,4-26,minor
38364,72,102,45,75,2.0,4-26,minor
38365,53,66,27,120,9.0,4-18A,major
38366,53,84,162,45,9.0,4-18A,major
38367,68,99,34,76,9.0,4-18A,major
38368,53,70,33,119,0.0,4-26,minor
38369,53,57,16,50,0.0,4-26,minor
38370,70,62,16,71,0.0,4-26,minor
38371,51,48,130,82,2.0,4-17,other
38372,69,116,67,325,9.0,2-3,minor
38373,72,99,33,85,10.0,2-1,other
38374,69,84,36,107,1.0,4-28,diminished
38375,68,58,20,121,9.0,4-18A,major
38376,58,60,10,166,0.0,4-26,minor
38377,67,54,16,44,0.0,4-26,minor
38378,70,52,10,35,0.0,4-26,minor
38379,51,56,84,117,2.0,4-17,other
38380,43,70,45,521,7.0,4-23,minor
38381,74,103,13,60,7.0,4-23,minor
38382,56,46,25,98,10.0,5-26B,augmented
38383,43,68,30,83,7.0,3-11A,minor
38384,50,76,13,36,7.0,3-11A,minor
38385,51,81,8,38,7.0,3-11A,minor
38386,36,94,58,85,4.0,2-6,other
38387,72,88,8,162,2.0,1-1,other
38388,56,68,47,115,10.0,4-20,major
38389,43,43,33,118,7.0,3-11A,minor
38390,72,82,19,123,0.0,3-8A,major
38391,74,79,24,86,10.0,2-4,major
38392,72,66,21,36,10.0,2-4,major
38393,55,54,28,341,3.0,4-20,major
38394,41,65,8,119,3.0,4-22A,major
38395,50,74,146,59,3.0,4-22A,major
38396,69,107,33,62,3.0,4-22A,major
38397,57,32,14,65,9.0,3-3A,minor
38398,69,63,15,158,9.0,5-31B,major
38399,68,69,27,35,9.0,5-31B,major
38400,67,72,50,42,9.0,5-31B,major
38401,49,68,32,77,1.0,3-7A,minor
38402,74,99,19,373,0.0,2-1,other
38403,69,64,11,66,3.0,4-16A,major
38404,74,106,19,26,3.0,4-16A,major
38405,65,69,10,98,2.0,3-7B,other
38406,65,67,13,49,2.0,3-7B,other
38407,72,91,16,75,5.0,3-11B,major
38408,72,88,13,37,5.0,3-11B,major
38409,72,83,8,41,5.0,3-11B,major
38410,48,58,143,240,7.0,2-3,minor
38411,60,51,32,76,7.0,2-3,minor
38412,67,61,17,76,3.0,2-5,other
38413,60,66,11,138,5.0,3-2B,other
38414,61,90,23,28,5.0,3-2B,other
38415,65,72,10,196,2.0,3-7A,minor
38416,65,78,14,30,2.0,3-7A,minor
38417,65,62,87,28,2.0,3-7A,minor
38418,74,73,18,68,2.0,2-3,minor
38419,74,78,28,36,2.0,2-3,minor
38420,70,82,105,116,10.0,5-27A,major
38421,53,63,40,48,10.0,5-27A,major
38422,74,52,7,71,10.0,5-27A,major
38423,67,77,27,227,7.0,6-24A,minor
38424,55,68,154,122,1.0,4-28,diminished
38425,49,78,32,117,1.0,2-3,other
38426,67,116,24,32,1.0,2-3,other
38427,65,54,9,225,2.0,3-7B,other
38428,73,69,15,478,7.0,4-22B,minor
38429,77,106,117,117,2.0,3-5B,other
38430,74,65,36,128,5.0,2-4,other
38431,53,63,28,116,10.0,4-22A,major
38432,53,62,100,46,10.0,4-22A,major
38433,70,69,16,70,10.0,4-22A,major
38434,43,66,82,123,3.0,4-19B,other
38435,68,45,22,132,3.0,3-11A,other
38436,65,115,50,352,5.0,5-33,augmented
38437,67,90,20,43,5.0,5-33,augmented
38438,67,73,16,43,5.0,5-33,augmented
38439,68,70,26,35,5.0,5-33,augmented
38440,68,51,12,86,2.0,4-26,minor
38441,69,66,14,37,2.0,4-26,minor
38442,69,67,16,214,9.0,4-18A,major
38443,69,76,19,33,9.0,4-18A,major
38444,68,80,16,86,5.0,2-4,major
38445,68,88,28,32,5.0,2-4,major
38446,67,92,21,79,0.0,4-26,minor
38447,70,105,28,37,0.0,4-26,minor
38448,74,79,118,77,10.0,2-5,other
38449,41,75,73,37,10.0,2-5,other
38450,57,77,29,81,2.0,3-3A,major
38451,63,71,8,88,2.0,2-5,other
38452,57,66,123,189,2.0,3-7A,minor
38453,69,91,8,46,2.0,3-7A,minor
38454,69,91,32,58,2.0,3-7A,minor
38455,68,72,14,33,2.0,3-7A,minor
38456,72,87,114,67,9.0,5-31B,major
38457,70,72,16,352,7.0,3-3A,minor
38458,74,68,15,27,7.0,3-3A,minor
38459,75,71,21,32,7.0,3-3A,minor
38460,57,43,11,194,2.0,3-11B,major
38461,74,73,15,27,2.0,3-11B,major
38462,56,61,45,366,2.0,3-11A,minor
38463,74,67,14,117,7.0,4-26,minor
38464,55,51,42,242,10.0,5-30B,augmented
38465,50,70,25,326,7.0,5-27B,minor
38466,57,96,83,36,7.0,5-27B,minor
38467,55,88,70,161,10.0,3-11B,major
38468,53,84,40,78,10.0,3-11B,major
38469,70,77,26,326,3.0,4-20,major
38470,42,63,22,36,3.0,4-20,major
38471,48,42,27,135,5.0,4-24,augmented
38472,71,92,27,432,1.0,3-10,minor
38473,70,92,21,38,1.0,3-10,minor
38474,64,82,17,88,9.0,2-2,other
38475,67,89,100,32,9.0,2-2,other
38476,55,20,52,112,0.0,3-7A,minor
38477,60,64,87,48,0.0,3-7A,minor
38478,62,75,22,84,0.0,3-7A,minor
38479,57,74,24,396,2.0,3-7A,minor
38480,69,112,17,39,2.0,3-7A,minor
38481,72,103,26,36,2.0,3-7A,minor
38482,57,91,39,114,9.0,4-17,other
38483,56,61,6,48,9.0,4-17,other
38484,56,79,24,44,9.0,4-17,other
38485,67,94,23,154,0.0,4-26,minor
38486,70,56,25,87,7.0,2-3,minor
38487,74,69,11,35,7.0,2-3,minor
38488,74,72,13,466,2.0,4-26,minor
38489,50,54,49,110,2.0,4-23,minor
38490,74,64,8,122,7.0,2-3,minor
38491,67,66,37,244,10.0,5-26B,augmented
38492,57,71,56,118,1.0,3-10,other
38493,58,59,188,59,1.0,3-10,other
38494,73,104,29,805,7.0,4-22B,minor
38495,73,53,26,217,5.0,3-8A,major
38496,74,66,24,28,5.0,3-8A,major
38497,65,91,21,212,1.0,3-9,other
38498,63,74,27,110,11.0,3-9,other
38499,79,79,21,0,,,
38500,80,76,27,26,,,
38501,69,79,81,467,2.0,3-7B,other
38502,36,71,6,597,9.0,4-13A,diminished
38503,48,54,28,120,4.0,4-29A,other
38504,69,97,60,206,2.0,5-19B,major
38505,56,54,35,199,11.0,3-7A,minor
38506,68,57,18,42,11.0,3-7A,minor
38507,69,71,26,33,11.0,3-7A,minor
38508,54,73,80,85,1.0,3-10,other
38509,55,58,106,84,1.0,3-10,other
38510,46,56,29,68,1.0,3-10,other
38511,52,62,56,121,6.0,5-25A,diminished
38512,44,63,20,368,2.0,4-26,minor
38513,74,71,8,202,7.0,4-26,minor
38514,77,104,16,33,7.0,4-26,minor
38515,43,72,14,760,6.0,4-28,diminished
38516,70,93,44,307,5.0,5-30B,other
38517,65,81,32,236,2.0,4-14A,minor
38518,64,72,42,122,5.0,2-4,other
38519,65,64,87,125,0.0,2-4,major
38520,68,104,29,99,2.0,1-1,other
38521,69,102,27,38,2.0,1-1,other
38522,57,61,8,159,4.0,2-6,other
38523,68,67,32,72,9.0,3-3A,major
38524,48,61,29,477,9.0,4-13A,diminished
38525,68,114,20,205,2.0,3-7A,minor
38526,69,112,23,39,2.0,3-7A,minor
38527,56,75,34,325,9.0,4-12A,major
38528,55,69,38,39,9.0,4-12A,major
38529,54,66,32,42,9.0,4-12A,major
38530,53,63,27,38,9.0,4-12A,major
38531,52,62,38,203,9.0,4-26,minor
38532,64,55,33,37,9.0,4-26,minor
38533,65,74,11,36,9.0,4-26,minor
38534,62,52,20,442,7.0,5-32A,minor
38535,56,52,32,408,4.0,4-27B,major
38536,62,49,19,113,9.0,4-23,minor
38537,61,75,24,217,6.0,3-10,other
38538,62,72,9,33,6.0,3-10,other
38539,48,67,8,106,0.0,4-26,other
38540,52,83,87,720,3.0,4-20,major
38541,46,94,188,359,0.0,4-26,other
38542,46,90,30,246,8.0,4-29A,other
38543,39,67,325,46,8.0,4-29A,other
38544,80,84,26,1155,9.0,1-1,other
38545,55,77,134,118,9.0,4-19A,minor
38546,84,70,31,200,2.0,4-21,major
38547,84,93,16,118,0.0,2-4,major
38548,74,57,21,86,0.0,5-26A,augmented
38549,72,74,15,33,0.0,5-26A,augmented
38550,68,52,27,29,0.0,5-26A,augmented
38551,65,75,22,35,0.0,5-26A,augmented
38552,62,43,9,26,0.0,5-26A,augmented
38553,60,74,17,37,0.0,5-26A,augmented
38554,56,39,27,27,0.0,5-26A,augmented
38555,57,52,14,86,4.0,4-29A,minor
38556,59,67,18,128,7.0,2-3,minor
38557,62,73,20,27,7.0,2-3,minor
38558,65,74,11,35,7.0,2-3,minor
38559,70,79,22,652,5.0,4-24,augmented
38560,69,53,10,40,5.0,4-24,augmented
38561,57,45,110,118,2.0,2-5,other
38562,52,81,98,413,2.0,3-11A,minor
38563,52,60,28,149,11.0,2-5,other
38564,46,67,31,37,11.0,2-5,other
38565,55,13,20,382,9.0,4-13A,diminished
38566,54,84,99,700,1.0,3-10,other
38567,45,90,19,168,7.0,2-3,minor
38568,67,65,71,803,7.0,3-11A,minor
38569,69,56,10,105,0.0,2-4,major
38570,36,66,10,244,0.0,2-1,other
38571,36,63,29,172,0.0,2-1,other
38572,55,57,90,237,7.0,4-26,minor
38573,46,49,39,73,7.0,4-26,minor
38574,69,85,71,0,,,
38575,68,60,42,72,,,
38576,69,59,76,51,,,
38577,68,54,73,233,,,
38578,69,64,19,82,,,
38579,68,54,16,487,2.0,3-7B,other
38580,69,96,94,37,2.0,3-7B,other
38581,69,57,18,200,4.0,5-15,other
38582,69,62,72,39,4.0,5-15,other
38583,68,56,24,77,4.0,5-15,other
38584,69,58,29,42,4.0,5-15,other
38585,70,93,48,1084,0.0,2-3,minor
38586,80,71,51,436,2.0,4-18A,major
38587,81,73,53,83,2.0,4-18A,major
38588,68,68,25,402,11.0,3-7A,minor
38589,69,60,341,51,11.0,3-7A,minor
38590,56,51,110,225,5.0,3-12,augmented
38591,45,73,360,326,4.0,2-6,other
38592,77,97,92,1222,7.0,4-26,minor
38593,74,50,55,136,4.0,2-1,other
38594,76,63,82,138,10.0,4-29B,major
38595,72,1,18,143,10.0,4-29B,major
38596,72,56,26,45,10.0,4-29B,major
38597,56,26,34,480,4.0,2-2,other
38598,49,46,39,1436,9.0,4-27B,major
38599,49,39,22,240,1.0,4-28,diminished
38600,64,20,118,55,9.0,5-32A,other
38601,38,68,233,97,9.0,5-32A,other
38602,45,82,26,238,5.0,3-11B,major
38603,70,58,27,665,4.0,3-8B,other
38604,69,42,67,83,0.0,2-2,other
38605,70,72,19,73,0.0,2-2,other
38606,72,70,17,57,0.0,2-2,other
38607,73,69,13,66,0.0,2-2,other
38608,77,77,18,43,0.0,2-2,other
38609,82,101,21,62,0.0,2-2,other
38610,84,116,42,48,0.0,2-2,other
38611,85,107,37,62,0.0,2-2,other
38612,84,85,38,55,0.0,2-2,other
38613,82,90,33,58,0.0,2-2,other
38614,79,69,24,123,5.0,4-24,augmented
38615,77,23,58,50,5.0,4-24,augmented
38616,76,52,39,69,5.0,4-24,augmented
38617,79,90,60,252,3.0,3-11B,major
38618,74,53,92,64,3.0,3-11B,major
38619,79,82,63,113,3.0,3-11B,major
38620,79,76,33,183,9.0,4-25,other
38621,47,76,405,401,9.0,2-6,other
38622,51,48,31,184,9.0,2-6,other
38623,62,54,62,53,5.0,3-4A,major
38624,65,72,23,1069,9.0,3-11A,minor
38625,77,91,20,874,10.0,4-20,major
38626,74,69,12,98,10.0,4-20,major
38627,77,94,35,99,10.0,4-20,major
38628,75,71,75,159,4.0,3-8B,other
38629,74,50,67,124,4.0,3-8B,other
38630,58,35,35,71,4.0,3-8B,other
38631,73,58,65,37,4.0,3-8B,other
38632,71,55,28,311,5.0,2-5,other
38633,72,67,165,45,5.0,2-5,other
38634,60,44,29,73,5.0,2-5,other
38635,71,80,22,120,5.0,2-5,other
38636,71,52,21,122,6.0,3-10,other
38637,72,73,321,39,6.0,3-10,other
38638,67,60,20,433,0.0,4-26,other
38639,68,45,74,57,0.0,4-26,other
38640,70,86,28,65,0.0,4-26,other
38641,75,52,33,125,0.0,3-11B,other
38642,79,64,48,49,0.0,3-11B,other
38643,82,107,38,63,0.0,3-11B,other
38644,79,70,55,58,0.0,3-11B,other
38645,75,57,47,225,7.0,2-5,other
38646,74,92,52,120,8.0,3-8B,other
38647,77,96,209,180,5.0,3-9,other
38648,75,78,37,179,5.0,3-9,other
38649,74,49,72,28,5.0,3-9,other
38650,62,47,47,161,10.0,2-4,major
38651,70,89,102,31,10.0,2-4,major
38652,67,77,23,100,10.0,2-4,major
38653,70,88,374,43,10.0,2-4,major
38654,50,56,37,2838,2.0,4-26,minor
38655,53,78,170,51,2.0,4-26,minor
38656,50,60,28,205,3.0,4-19A,other
38657,56,93,100,763,9.0,3-11A,minor
38658,55,79,194,115,9.0,3-11A,minor
38659,84,91,27,341,6.0,3-8B,other
38660,60,32,34,100,9.0,2-5,other
38661,76,29,31,54,9.0,2-5,other
38662,69,54,64,146,0.0,2-4,major
38663,68,54,51,186,2.0,4-27A,minor
38664,67,109,73,474,4.0,3-7B,other
38665,55,1,147,102,11.0,2-5,other
38666,67,47,49,38,11.0,2-5,other
38667,58,55,52,680,0.0,1-1,other
38668,76,63,34,1322,0.0,4-22A,major
38669,81,108,34,1336,1.0,2-3,minor
38670,81,78,27,64,1.0,2-3,minor
38671,81,67,42,51,1.0,2-3,minor
38672,81,71,45,129,3.0,4-29B,major
38673,81,87,45,110,3.0,4-29B,major
38674,81,43,51,127,3.0,2-5,other
38675,77,73,63,684,9.0,3-8B,other
38676,65,49,11,418,2.0,2-5,other
38677,54,42,15,67,2.0,2-5,other
38678,65,76,108,55,5.0,4-24,augmented
38679,46,52,61,355,5.0,3-8B,other
38680,64,94,26,2156,5.0,4-22A,major
38681,67,111,81,111,5.0,4-22A,major
38682,66,70,34,79,5.0,4-22A,major
38683,65,67,44,27,5.0,4-22A,major
38684,64,48,49,34,5.0,4-22A,major
38685,65,85,51,75,5.0,4-22A,major
38686,60,99,176,114,5.0,4-22A,major
38687,59,70,28,165,5.0,4-22A,major
38688,60,63,87,104,5.0,4-22A,major
38689,55,30,19,200,4.0,2-6,other
38690,58,53,74,49,4.0,2-6,other
38691,58,70,47,244,11.0,2-2,other
38692,65,45,46,124,2.0,2-2,other
38693,69,88,35,61,2.0,2-2,other
38694,70,80,51,47,2.0,2-2,other
38695,72,90,41,71,2.0,2-2,other
38696,82,76,45,174,5.0,3-3B,other
38697,84,114,39,69,5.0,3-3B,other
38698,84,88,49,167,2.0,3-4B,other
38699,80,87,40,72,2.0,3-4B,other
38700,81,78,51,77,2.0,3-4B,other
38701,86,82,41,88,2.0,3-4B,other
38702,81,82,25,77,2.0,3-4B,other
38703,77,83,47,111,2.0,3-4B,other
38704,76,58,46,55,2.0,3-4B,other
38705,74,72,39,71,2.0,3-4B,other
38706,73,37,39,59,2.0,3-4B,other
38707,76,75,41,63,2.0,3-4B,other
38708,74,16,53,49,2.0,3-4B,other
38709,69,72,41,63,2.0,3-4B,other
38710,69,75,74,169,4.0,4-27A,diminished
38711,69,77,93,126,4.0,4-27A,diminished
38712,58,57,31,926,0.0,4-23,minor
38713,57,71,57,124,0.0,4-23,minor
38714,58,58,57,52,0.0,4-23,minor
38715,62,75,39,68,0.0,4-23,minor
38716,59,30,64,50,0.0,4-23,minor
38717,60,60,40,65,0.0,4-23,minor
38718,60,69,33,119,9.0,2-6,other
38719,61,39,36,60,9.0,2-6,other
38720,65,48,36,115,2.0,2-5,other
38721,69,80,36,60,2.0,2-5,other
38722,72,101,45,46,2.0,2-5,other
38723,65,30,42,132,9.0,2-3,minor
38724,57,57,65,114,2.0,2-3,minor
38725,57,69,83,94,2.0,2-3,minor
38726,46,72,386,110,2.0,2-3,minor
38727,79,108,73,827,9.0,4-26,minor
38728,78,56,60,70,9.0,4-26,minor
38729,77,50,40,29,9.0,4-26,minor
38730,76,63,33,28,9.0,4-26,minor
38731,79,92,92,47,9.0,4-26,minor
38732,76,61,53,122,9.0,4-26,minor
38733,77,85,39,73,9.0,4-26,minor
38734,74,84,18,111,9.0,4-26,minor
38735,72,77,33,173,10.0,4-20,major
38736,69,69,47,109,0.0,2-2,other
38737,65,47,29,143,10.0,3-4A,major
38738,62,43,30,106,5.0,2-4,major
38739,58,26,18,184,5.0,2-1,other
38740,62,45,49,46,5.0,2-1,other
38741,64,61,110,81,5.0,2-1,other
38742,60,68,144,301,5.0,3-12,augmented
38743,55,72,18,187,5.0,3-12,augmented
38744,64,44,33,44,5.0,3-12,augmented
38745,68,95,32,64,5.0,3-12,augmented
38746,71,103,56,51,5.0,3-12,augmented
38747,72,71,45,121,2.0,3-7B,other
38748,69,67,33,73,2.0,3-7B,other
38749,66,35,30,61,2.0,3-7B,other
38750,69,101,21,770,10.0,3-6,major
38751,70,96,45,52,10.0,3-6,major
38752,72,102,57,64,10.0,3-6,major
38753,70,80,44,51,10.0,3-6,major
38754,67,53,56,130,9.0,2-2,other
38755,64,38,56,108,7.0,2-2,other
38756,67,90,66,70,7.0,2-2,other
38757,62,75,38,118,2.0,3-11A,minor
38758,57,67,85,49,2.0,3-11A,minor
38759,57,62,120,116,2.0,3-11A,minor
38760,79,65,27,814,10.0,4-16A,major
38761,74,50,44,51,10.0,4-16A,major
38762,84,112,46,229,7.0,3-5B,other
38763,82,86,40,68,7.0,3-5B,other
38764,77,74,105,156,5.0,3-8B,other
38765,73,81,52,123,5.0,3-8B,other
38766,70,45,69,128,0.0,3-3A,major
38767,69,73,60,240,0.0,4-23,minor
38768,67,54,69,147,3.0,2-4,major
38769,63,34,10,45,3.0,2-4,major
38770,66,68,68,49,3.0,2-4,major
38771,41,79,139,318,2.0,4-29A,minor
38772,48,69,31,120,2.0,4-29A,minor
38773,67,82,261,112,6.0,3-11A,minor
38774,46,86,175,764,10.0,2-5,other
38775,77,65,27,1649,10.0,4-20,major
38776,69,63,75,770,0.0,4-19B,other
38777,54,34,37,266,0.0,3-11B,major
38778,60,31,71,637,0.0,4-26,other
38779,67,17,52,170,5.0,2-5,other
38780,70,63,15,117,8.0,2-6,other
38781,72,79,9,129,10.0,2-4,major
38782,74,51,24,115,2.0,2-2,other
38783,75,71,18,114,8.0,3-8B,other
38784,79,82,32,135,2.0,3-7A,minor
38785,62,27,28,75,2.0,3-7A,minor
38786,79,92,51,34,2.0,3-7A,minor
38787,79,55,30,117,2.0,2-4,major
38788,84,111,98,796,0.0,4-20,other
38789,83,55,37,68,0.0,4-20,other
38790,80,93,45,141,9.0,2-2,other
38791,79,95,34,98,9.0,2-2,other
38792,77,84,34,84,9.0,2-2,other
38793,74,63,41,148,3.0,4-8,other
38794,77,88,45,116,3.0,2-1,other
38795,70,50,59,123,8.0,2-6,other
38796,62,23,52,191,0.0,2-5,other
38797,72,75,65,34,0.0,2-5,other
38798,72,80,77,127,10.0,2-4,major
38799,70,66,56,105,7.0,2-5,other
38800,70,33,44,266,5.0,3-5B,other
38801,54,52,29,176,5.0,2-5,other
38802,70,59,49,33,5.0,2-5,other
38803,69,24,66,713,2.0,4-26,minor
38804,65,53,52,34,2.0,4-26,minor
38805,56,80,55,790,9.0,4-26,minor
38806,57,80,115,55,9.0,4-26,minor
38807,56,71,79,116,9.0,4-26,minor
38808,55,82,121,86,9.0,4-26,minor
38809,69,79,35,170,0.0,2-4,major
38810,74,97,47,119,0.0,2-4,major
38811,76,101,51,65,0.0,2-4,major
38812,60,38,44,26,0.0,2-4,major
38813,72,64,40,30,0.0,2-4,major
38814,65,38,20,139,9.0,3-11A,minor
38815,48,58,37,279,0.0,4-19A,augmented
38816,48,43,30,118,0.0,4-26,other
38817,41,58,53,146,2.0,4-27A,minor
38818,49,59,46,1886,9.0,4-12A,major
38819,49,52,50,127,1.0,4-28,diminished
38820,57,2,53,183,6.0,2-3,other
38821,49,50,32,62,6.0,2-3,other
38822,69,84,67,1545,7.0,1-1,other
38823,70,91,55,52,7.0,1-1,other
38824,72,103,50,65,7.0,1-1,other
38825,75,65,21,128,3.0,4-20,major
38826,79,22,37,63,3.0,4-20,major
38827,86,66,50,104,7.0,2-3,minor
38828,86,71,42,118,7.0,2-2,other
38829,86,81,51,372,9.0,3-8B,other
38830,84,74,72,99,3.0,2-4,major
38831,77,46,72,140,2.0,3-11A,minor
38832,74,53,100,101,2.0,3-11A,minor
38833,62,72,38,1670,1.0,1-1,other
38834,67,65,92,841,10.0,4-22A,major
38835,69,68,22,121,10.0,4-22A,major
38836,65,93,896,135,10.0,4-22A,major
38837,36,50,2154,0,,,
38838,63,48,453,1008,,,
38839,36,57,213,1633,4.0,3-5B,other
38840,29,48,960,320,4.0,3-5B,other
38841,36,47,83,695,4.0,3-5B,other
38842,51,55,165,248,4.0,3-5B,other
38843,62,44,454,33,4.0,3-5B,other
38844,36,39,115,627,5.0,2-4,major
38845,35,85,238,854,2.0,2-5,other
38846,36,84,795,303,2.0,2-5,other
38847,34,68,177,751,2.0,2-5,other
38848,63,58,665,239,2.0,2-5,other
38849,36,39,129,910,4.0,2-6,other
38850,63,54,463,51,4.0,2-6,other
38851,58,53,539,43,4.0,2-6,other
38852,52,13,291,68,4.0,2-6,other
38853,29,46,325,556,4.0,2-6,other
38854,43,70,324,2007,5.0,2-4,major
38855,44,67,803,338,5.0,2-4,major
38856,42,46,242,647,5.0,2-4,major
38857,45,52,1637,267,5.0,2-4,major
38858,55,22,73,1009,0.0,2-4,major
38859,40,44,227,568,0.0,2-4,major
38860,37,57,239,884,4.0,2-3,minor
38861,52,50,767,1322,2.0,3-11A,minor
38862,55,30,219,1931,4.0,2-5,other
38863,55,33,357,985,11.0,2-3,minor
38864,69,90,773,2879,5.0,2-1,other
38865,72,52,673,1830,2.0,3-11A,minor
38866,60,22,127,2092,9.0,3-11A,minor
38867,45,46,215,533,9.0,3-11A,minor
38868,38,52,1850,294,9.0,3-11A,minor
38869,48,41,82,1651,9.0,3-11A,minor
38870,57,36,464,347,5.0,2-5,other
38871,47,47,194,548,5.0,2-5,other
38872,59,27,763,446,4.0,3-7A,minor
38873,52,58,1216,822,4.0,3-7A,minor
38874,48,32,105,1796,4.0,3-7A,minor
38875,42,60,1307,206,4.0,3-7A,minor
38876,42,58,257,1554,9.0,3-11A,minor
38877,47,60,1693,1295,6.0,4-23,minor
38878,54,57,787,897,6.0,4-23,minor
38879,48,26,2028,2136,2.0,4-14A,minor
38880,72,86,1002,1505,2.0,4-14A,minor
38881,57,41,1002,4144,7.0,3-11B,major
38882,53,35,790,82,2.0,3-7A,minor
38883,45,52,873,925,2.0,3-7A,minor
38884,39,60,153,1518,5.0,3-11B,major
38885,55,66,1587,273,5.0,3-11B,major
38886,52,107,1097,981,4.0,3-7B,other
38887,72,115,339,1559,7.0,2-4,major
38888,41,45,1913,339,7.0,2-4,major
38889,57,41,748,117,9.0,3-11A,minor
38890,48,48,1022,847,9.0,3-11A,minor
38891,57,48,906,969,9.0,3-11A,minor
38892,84,73,279,583,9.0,3-11A,minor
38893,81,67,261,27,9.0,3-11A,minor
38894,79,42,437,431,4.0,2-5,other
38895,64,36,573,941,7.0,2-4,major
38896,67,57,502,905,7.0,2-4,major
38897,52,45,276,42,7.0,2-4,major
38898,77,57,701,953,7.0,2-4,major
38899,65,24,801,75,2.0,3-7B,other
38900,57,25,388,1579,2.0,2-2,other
38901,53,40,176,1327,8.0,5-31B,diminished
38902,46,77,473,2484,11.0,2-3,minor
38903,39,79,2688,421,11.0,2-3,minor
38904,46,26,152,744,11.0,2-3,minor
38905,46,89,1177,831,7.0,2-5,other
38906,44,63,2326,1146,7.0,2-5,other
38907,63,30,258,1015,0.0,2-5,other
38908,49,58,1846,1836,0.0,3-11A,minor
38909,60,35,266,102,0.0,3-11A,minor
38910,53,20,180,69,0.0,3-11A,minor
38911,49,37,199,2442,5.0,3-4A,other
38912,47,42,73,2803,5.0,2-5,other
38913,48,77,1661,346,5.0,2-5,other
38914,58,57,443,983,3.0,2-4,major
38915,60,52,252,26,3.0,2-4,major
38916,44,39,295,573,3.0,2-4,major
38917,60,39,607,424,3.0,2-4,major
38918,41,67,1215,839,3.0,2-4,major
38919,57,55,538,719,0.0,3-11A,minor
38920,41,61,332,942,0.0,3-11A,minor
38921,53,33,160,1123,0.0,3-11A,minor
38922,72,36,91,342,10.0,4-20,major
38923,62,32,69,971,8.0,3-7B,other
38924,84,53,563,5568,0.0,1-1,other
38925,45,52,1925,1880,0.0,1-1,other
38926,52,32,283,749,0.0,1-1,other
38927,64,26,113,317,0.0,2-5,other
38928,52,34,78,762,0.0,2-5,other
38929,45,68,243,877,0.0,3-11B,major
38930,38,41,624,369,0.0,3-11B,major
38931,45,54,64,600,0.0,3-11B,major
38932,64,41,837,277,5.0,3-11B,major
38933,52,86,871,575,5.0,3-11B,major
38934,64,30,760,402,5.0,3-11B,major
38935,47,53,310,556,5.0,3-11B,major
38936,55,57,1094,302,5.0,3-11B,major
38937,50,52,585,68,11.0,2-3,minor
38938,40,78,1416,585,11.0,2-3,minor
38939,52,56,219,1379,11.0,2-3,minor
38940,38,54,1955,946,5.0,2-5,other
38941,61,35,75,955,5.0,2-4,major
38942,60,56,711,931,5.0,2-4,major
38943,55,50,767,888,5.0,2-4,major
38944,40,64,636,1719,0.0,2-5,other
38945,60,54,516,344,0.0,2-5,other
38946,55,26,102,55,0.0,2-5,other
38947,37,57,281,515,0.0,2-5,other
38948,26,73,1112,887,2.0,5-27B,minor
38949,38,72,168,1045,2.0,5-27B,minor
38950,59,57,1313,1284,4.0,3-7A,minor
38951,52,77,1933,894,4.0,3-7A,minor
38952,40,60,197,1574,7.0,3-11B,major
38953,42,69,1312,394,7.0,3-11B,major
38954,52,63,877,681,9.0,2-3,minor
38955,42,62,457,881,9.0,2-3,minor
38956,54,35,77,3148,3.0,3-11B,other
38957,64,52,475,1003,5.0,2-4,major
38958,48,50,1825,34,5.0,2-4,major
38959,55,31,499,3016,4.0,4-26,minor
38960,67,50,710,1437,4.0,4-26,minor
38961,55,29,391,63,4.0,3-7B,other
38962,45,34,923,1311,2.0,4-26,minor
38963,53,25,840,75,2.0,4-26,minor
38964,65,21,522,1613,2.0,4-26,minor
38965,55,47,553,2127,4.0,4-26,minor
38966,69,66,96,585,4.0,4-26,minor
38967,76,127,259,367,4.0,4-26,minor
38968,76,117,282,470,4.0,4-26,minor
38969,48,33,1541,1360,5.0,4-20,major
38970,69,49,210,947,5.0,4-20,major
38971,64,44,249,26,5.0,4-20,major
38972,41,59,180,635,5.0,4-20,major
38973,40,63,972,400,5.0,4-20,major
38974,52,52,1071,748,7.0,2-5,other
38975,49,42,229,958,7.0,2-5,other
38976,61,63,649,295,3.0,3-11A,other
38977,49,42,202,575,3.0,3-11A,other
38978,45,52,57,1939,5.0,3-11B,major
38979,53,43,419,279,5.0,3-11B,major
38980,38,45,75,687,9.0,2-3,minor
38981,57,52,1158,295,5.0,3-9,other
38982,43,22,724,26,5.0,3-9,other
38983,43,51,343,1562,8.0,3-10,minor
38984,43,52,151,899,8.0,3-10,minor
38985,36,47,2174,319,8.0,3-10,minor
38986,43,49,95,670,8.0,3-10,minor
38987,48,51,778,350,4.0,2-6,other
38988,40,62,234,1476,4.0,2-6,other
38989,36,54,78,997,2.0,2-5,other
38990,34,71,183,1637,9.0,2-3,minor
38991,35,80,296,331,9.0,2-3,minor
38992,36,74,1807,379,9.0,2-3,minor
38993,40,67,269,2523,3.0,3-5B,other
38994,43,115,869,1254,2.0,4-29A,minor
38995,42,47,180,787,2.0,4-29A,minor
38996,44,84,866,195,2.0,4-29A,minor
38997,71,86,109,2410,0.0,3-4A,major
38998,72,96,175,375,0.0,3-4A,major
38999,79,127,226,528,0.0,3-4A,major
39000,78,51,61,70,0.0,3-4A,major
39001,69,50,1070,1298,2.0,2-3,minor
39002,61,34,476,105,2.0,2-3,minor
39003,60,76,1190,596,5.0,2-1,other
39004,74,75,763,349,5.0,2-1,other
39005,50,68,149,553,5.0,2-1,other
39006,52,68,1781,369,5.0,2-1,other
39007,67,38,313,44,5.0,2-1,other
39008,71,68,935,988,2.0,1-1,other
39009,59,58,170,578,2.0,1-1,other
39010,67,48,215,323,2.0,1-1,other
39011,64,32,241,26,2.0,1-1,other
39012,72,98,335,559,2.0,1-1,other
39013,50,56,998,233,2.0,1-1,other
39014,69,66,808,146,2.0,1-1,other
39015,57,46,86,610,2.0,2-2,other
39016,65,56,249,206,2.0,2-2,other
39017,60,6,150,251,2.0,2-2,other
39018,50,57,56,411,2.0,2-2,other
39019,34,45,196,947,9.0,2-3,minor
39020,33,77,169,1037,0.0,2-4,major
39021,57,61,59,1831,0.0,3-4A,major
39022,67,30,67,33,0.0,3-4A,major
39023,60,61,112,590,2.0,3-9,other
39024,69,61,1135,838,2.0,2-5,other
39025,50,62,110,872,2.0,2-5,other
39026,40,65,1581,777,2.0,2-5,other
39027,47,55,1659,87,2.0,2-5,other
39028,55,68,700,69,2.0,2-5,other
39029,71,78,294,2281,4.0,3-11A,minor
39030,64,57,196,44,4.0,3-11A,minor
39031,52,58,856,1583,6.0,3-7A,minor
39032,57,56,118,984,6.0,3-7A,minor
39033,64,50,160,354,6.0,3-7A,minor
39034,69,75,126,252,6.0,3-7A,minor
39035,62,49,430,1003,7.0,2-4,major
39036,51,49,93,68,7.0,2-4,major
39037,57,48,373,592,5.0,2-5,other
39038,57,46,283,646,5.0,3-11B,major
39039,41,70,1814,1030,5.0,3-11B,major
39040,57,61,1006,946,5.0,3-11B,major
39041,67,72,549,2060,4.0,2-2,other
39042,71,62,613,819,4.0,2-2,other
39043,50,53,1192,1933,5.0,2-5,other
39044,60,55,325,828,5.0,2-4,major
39045,50,42,271,910,5.0,2-4,major
39046,50,57,240,722,5.0,2-5,other
39047,51,63,182,182,5.0,2-5,other
39048,67,69,60,772,4.0,4-26,minor
39049,59,31,77,60,4.0,4-26,minor
39050,47,57,76,1180,4.0,3-11A,minor
39051,59,57,322,26,4.0,3-11A,minor
39052,55,31,372,33,4.0,3-11A,minor
39053,48,50,99,628,4.0,3-11A,minor
39054,71,66,104,2553,5.0,4-20,major
39055,72,80,165,313,5.0,4-20,major
39056,67,70,215,975,4.0,3-7A,minor
39057,67,68,238,561,4.0,3-7A,minor
39058,67,76,196,579,4.0,3-7A,minor
39059,60,48,649,1108,5.0,2-1,other
39060,57,44,535,26,5.0,2-1,other
39061,62,42,535,1002,5.0,3-11B,major
39062,65,53,274,942,5.0,3-11B,major
39063,60,27,154,26,5.0,3-11B,major
39064,53,44,1188,1011,7.0,4-18A,major
39065,72,71,1252,800,7.0,4-18A,major
39066,46,50,324,1559,7.0,4-18A,major
39067,39,56,2197,359,7.0,4-18A,major
39068,67,56,5438,51,7.0,4-18A,major
39069,46,76,982,1592,7.0,2-5,other
39070,55,42,752,377,7.0,2-5,other
39071,39,60,275,598,7.0,2-5,other
39072,44,63,1871,365,7.0,2-5,other
39073,60,39,82,1004,3.0,2-4,major
39074,60,36,297,935,3.0,2-4,major
39075,53,54,370,865,3.0,2-4,major
39076,37,63,632,74,5.0,2-5,other
39077,53,58,1346,944,5.0,2-5,other
39078,60,77,536,952,8.0,2-3,other
39079,44,56,239,602,8.0,2-3,other
39080,53,47,780,391,10.0,2-4,other
39081,66,9,1307,62,10.0,2-4,other
39082,53,45,61,1637,10.0,2-4,other
39083,58,52,89,114,10.0,2-4,other
39084,57,1,374,481,10.0,2-4,other
39085,48,58,1578,142,10.0,2-4,other
39086,48,75,1037,2109,4.0,2-3,minor
39087,41,64,1972,1156,4.0,2-3,minor
39088,63,57,1116,657,4.0,2-3,minor
39089,51,50,761,69,9.0,2-3,minor
39090,48,38,329,918,9.0,2-3,minor
39091,51,57,180,311,9.0,2-3,minor
39092,46,63,2086,956,9.0,3-10,diminished
39093,57,48,58,687,9.0,3-10,diminished
39094,57,50,59,1168,2.0,2-5,other
39095,69,49,970,3771,0.0,3-8A,major
39096,52,43,769,26,0.0,3-8A,major
39097,52,45,800,4001,9.0,4-26,minor
39098,45,54,228,1451,4.0,2-3,minor
39099,38,48,1614,339,4.0,2-3,minor
39100,45,57,60,1550,5.0,4-20,major
39101,45,58,166,981,5.0,4-20,major
39102,55,56,447,280,5.0,4-20,major
39103,72,87,667,4560,5.0,3-11B,major
39104,57,56,399,52,5.0,4-20,major
39105,45,73,1112,1900,0.0,4-22A,major
39106,64,54,630,1149,9.0,2-3,minor
39107,49,57,197,703,9.0,2-3,minor
39108,67,23,188,418,2.0,3-7B,other
39109,65,1,1018,331,2.0,3-7B,other
39110,65,66,2402,1388,2.0,3-7B,other
39111,60,57,982,26,2.0,3-7B,other
39112,47,33,202,1057,2.0,2-5,other
39113,40,54,1892,255,2.0,2-5,other
39114,47,32,158,714,2.0,2-5,other
39115,47,26,128,945,4.0,2-5,other
39116,52,41,761,2051,9.0,2-5,other
39117,76,56,869,4720,6.0,4-27B,minor
39118,62,36,600,3078,4.0,3-11A,minor
39119,55,40,333,1507,4.0,4-26,minor
39120,53,25,838,1340,2.0,4-26,minor
39121,53,23,431,1578,2.0,4-26,minor
39122,52,60,116,2639,4.0,1-1,other
39123,69,58,70,373,4.0,1-1,other
39124,76,90,192,558,4.0,1-1,other
39125,41,50,1536,384,4.0,1-1,other
39126,57,54,605,61,0.0,2-5,other
39127,41,53,228,1952,9.0,2-5,other
39128,41,63,163,627,9.0,2-5,other
39129,40,65,1355,372,9.0,2-5,other
39130,47,25,88,790,9.0,2-5,other
39131,62,36,384,216,4.0,2-3,minor
39132,39,48,754,855,6.0,2-5,other
39133,57,50,1792,1920,5.0,2-5,other
39134,45,78,211,643,5.0,2-5,other
39135,44,69,411,673,5.0,2-5,other
39136,59,57,2137,1302,8.0,3-10,other
39137,31,52,1085,33,8.0,3-10,other
39138,43,55,201,1834,8.0,3-10,other
39139,36,46,1961,286,8.0,3-10,other
39140,43,31,103,706,8.0,3-10,other
39141,58,56,2308,291,0.0,3-3B,other
39142,36,50,181,1554,0.0,3-3B,other
39143,29,52,1873,320,0.0,3-3B,other
39144,36,40,117,699,0.0,3-3B,other
39145,51,41,2128,268,0.0,3-3B,other
39146,45,45,77,1641,2.0,3-11A,minor
39147,36,59,2295,313,2.0,3-11A,minor
39148,39,67,245,2507,0.0,2-4,major
39149,41,50,1920,342,0.0,2-4,major
39150,36,36,114,713,0.0,2-4,major
39151,51,39,420,255,0.0,2-4,major
39152,51,46,842,951,2.0,2-5,other
39153,62,36,750,50,2.0,2-5,other
39154,57,35,708,58,2.0,2-5,other
39155,35,49,250,500,2.0,2-5,other
39156,36,45,1761,325,2.0,2-5,other
39157,63,48,2429,749,2.0,2-5,other
39158,58,56,2402,46,2.0,2-5,other
39159,52,20,2303,36,2.0,2-5,other
39160,36,39,214,1860,2.0,2-5,other
39161,29,46,2481,339,2.0,2-5,other
39162,35,35,222,2629,5.0,2-4,major
39163,36,45,2950,276,5.0,2-4,major
39164,63,49,865,642,5.0,2-4,major
39165,63,39,419,1305,4.0,2-6,other
39166,57,34,805,1080,5.0,1-1,other
39167,34,37,213,2420,5.0,2-4,major
39168,58,45,1926,311,0.0,3-3B,other
39169,36,49,84,1392,0.0,3-3B,other
39170,41,54,1622,1214,0.0,3-3B,other
39171,67,48,757,1072,9.0,2-6,other
39172,43,33,296,1708,9.0,2-6,other
39173,36,54,1136,277,9.0,2-6,other
39174,43,40,482,743,9.0,2-6,other
39175,63,41,1218,248,9.0,2-6,other
39176,41,33,807,2003,2.0,3-2A,minor
39177,57,27,750,73,2.0,3-2A,minor
39178,62,33,2433,1507,5.0,2-2,other
39179,57,37,666,41,5.0,2-2,other
39180,31,30,109,920,5.0,2-2,other
39181,29,30,1676,3135,0.0,3-8A,major
39182,41,21,646,280,0.0,3-8A,major
39183,41,8,242,875,9.0,2-6,other
39184,71,61,596,0,,,
39185,62,31,268,120,4.0,2-3,minor
39186,52,40,224,264,4.0,2-3,minor
39187,60,47,1152,468,0.0,3-11B,major
39188,64,26,828,284,0.0,3-4A,major
39189,69,12,28,3248,7.0,4-22A,major
39190,50,46,400,296,8.0,4-22A,other
39191,67,57,56,492,2.0,4-29B,major
39192,69,76,128,556,11.0,3-7B,other
39193,50,45,216,32,11.0,3-7B,other
39194,69,71,72,388,6.0,2-3,minor
39195,52,16,216,304,10.0,5-26B,augmented
39196,43,48,240,240,10.0,5-26B,augmented
39197,58,40,140,540,2.0,4-22A,major
39198,74,79,100,628,11.0,3-7A,minor
39199,74,69,84,392,8.0,3-8A,other
39200,74,59,312,532,9.0,4-23,minor
39201,43,32,380,992,10.0,3-11B,major
39202,49,63,176,176,10.0,3-11B,major
39203,57,87,560,392,10.0,3-11B,major
39204,55,81,528,464,10.0,3-11B,major
39205,50,56,72,528,10.0,3-11B,major
39206,64,9,320,900,0.0,5-18B,major
39207,69,68,104,2144,4.0,4-22A,major
39208,48,52,248,496,4.0,4-22A,major
39209,65,56,128,644,0.0,5-31B,major
39210,49,54,232,716,5.0,5-27A,major
39211,51,67,168,432,2.0,4-26,minor
39212,52,72,200,624,9.0,3-7A,minor
39213,53,71,192,200,9.0,3-7A,minor
39214,48,57,244,2656,0.0,4-26,other
39215,53,68,504,500,0.0,3-4A,other
39216,48,84,252,480,5.0,3-11A,other
39217,41,72,196,508,0.0,3-11B,other
39218,34,55,844,2140,3.0,5-29B,other
39219,65,49,84,956,3.0,4-14A,other
39220,48,43,756,1480,0.0,5-27B,other
39221,63,1,184,412,0.0,3-4A,other
39222,53,48,152,96,0.0,3-4A,other
39223,69,82,128,6740,2.0,4-27B,major
39224,74,96,172,260,2.0,4-27B,major
39225,53,61,196,600,11.0,3-11A,minor
39226,54,57,252,212,11.0,3-11A,minor
39227,57,68,232,204,11.0,3-11A,minor
39228,61,50,468,484,11.0,3-11A,minor
39229,62,54,68,528,2.0,2-4,major
39230,86,54,96,2816,2.0,2-2,other
39231,90,57,644,2536,0.0,4-11A,major
39232,86,49,112,624,0.0,4-11A,major
39233,38,45,740,1900,10.0,3-3B,major
39234,49,58,188,1512,7.0,5-27A,major
39235,50,56,476,212,7.0,5-27A,major
39236,54,58,180,228,7.0,5-27A,major
39237,69,73,96,532,11.0,4-26,minor
39238,69,68,92,576,10.0,6-34A,augmented
39239,47,54,64,1656,11.0,2-2,other
39240,62,94,176,284,11.0,2-2,other
39241,61,84,116,152,11.0,2-2,other
39242,60,75,124,128,11.0,2-2,other
39243,59,63,148,144,11.0,2-2,other
39244,46,53,360,360,7.0,3-7A,minor
39245,50,52,156,184,7.0,3-7A,minor
39246,53,63,68,176,7.0,3-7A,minor
39247,56,68,188,368,10.0,4-20,major
39248,55,69,164,188,10.0,4-20,major
39249,55,58,44,632,1.0,5-31B,diminished
39250,73,31,116,292,4.0,3-8B,other
39251,81,68,68,192,4.0,3-8B,other
39252,76,34,60,516,4.0,2-4,major
39253,77,57,216,448,4.0,2-6,other
39254,48,49,200,888,7.0,2-2,other
39255,52,61,168,432,5.0,3-12,augmented
39256,49,66,416,420,2.0,4-19A,minor
39257,48,81,376,384,5.0,3-12,augmented
39258,41,64,248,408,5.0,3-11B,major
39259,36,71,496,432,9.0,3-11A,minor
39260,29,63,532,488,9.0,3-11A,minor
39261,29,45,28,700,9.0,3-11A,minor
39262,48,60,212,548,0.0,4-26,other
39263,53,78,492,460,0.0,4-26,other
39264,54,78,256,460,0.0,4-26,other
39265,41,55,88,524,0.0,5-27B,other
39266,64,82,220,1184,8.0,4-27B,minor
39267,66,44,24,500,8.0,4-28,diminished
39268,86,77,276,1260,4.0,2-2,other
39269,72,37,268,60,0.0,4-20,major
39270,72,49,668,560,7.0,3-9,other
39271,52,51,48,252,7.0,3-9,other
39272,59,49,376,240,7.0,3-9,other
39273,57,39,156,916,0.0,3-9,other
39274,57,31,244,552,0.0,2-4,major
39275,71,63,272,744,0.0,4-18A,minor
39276,71,68,84,584,0.0,4-18A,minor
39277,72,71,76,184,0.0,4-18A,minor
39278,59,52,36,456,6.0,4-28,diminished
39279,58,58,84,32,6.0,4-28,diminished
39280,69,37,60,96,6.0,4-28,diminished
39281,56,40,44,124,6.0,4-28,diminished
39282,55,50,20,56,6.0,4-28,diminished
39283,53,39,36,476,6.0,3-10,diminished
39284,52,48,64,44,6.0,3-10,diminished
39285,53,23,432,3872,7.0,4-21,major
39286,71,52,322,652,7.0,4-21,major
39287,44,63,186,722,9.0,2-2,other
39288,36,19,26,256,9.0,4-26,minor
39289,38,41,1760,930,6.0,4-12B,other
39290,70,99,92,506,0.0,4-27B,other
39291,50,89,1900,266,0.0,5-28B,other
39292,66,57,60,242,0.0,5-28B,other
39293,67,48,84,384,6.0,2-6,other
39294,28,45,14,104,6.0,2-6,other
39295,70,61,72,156,9.0,1-1,other
39296,74,69,64,296,5.0,5-3B,major
39297,78,88,68,100,5.0,5-3B,major
39298,81,85,52,188,0.0,2-5,other
39299,35,55,676,842,2.0,5-23B,major
39300,40,32,22,1254,7.0,3-11B,major
39301,84,42,44,404,10.0,2-1,other
39302,82,63,52,36,10.0,2-1,other
39303,81,49,48,72,10.0,2-1,other
39304,38,41,100,34,10.0,2-1,other
39305,82,80,68,218,2.0,2-3,minor
39306,81,82,88,200,6.0,2-6,other
39307,79,63,60,96,4.0,2-6,other
39308,76,60,48,104,4.0,2-6,other
39309,75,51,64,88,4.0,2-6,other
39310,38,32,56,38,4.0,2-6,other
39311,73,48,64,62,4.0,2-6,other
39312,70,57,68,196,5.0,2-5,other
39313,66,47,60,136,0.0,2-4,other
39314,62,54,56,172,9.0,5-19A,other
39315,61,42,20,76,9.0,5-19A,other
39316,60,37,28,44,9.0,5-19A,other
39317,59,45,28,44,9.0,5-19A,other
39318,36,76,600,38,9.0,5-19A,other
39319,40,43,240,164,9.0,2-5,other
39320,62,59,44,382,9.0,4-17,other
39321,60,61,32,40,9.0,4-17,other
39322,59,46,24,56,9.0,4-17,other
39323,60,45,32,60,9.0,4-17,other
39324,64,63,20,52,9.0,4-17,other
39325,36,41,116,34,9.0,4-17,other
39326,67,117,96,26,9.0,4-17,other
39327,65,68,84,220,1.0,3-3A,minor
39328,36,38,88,146,2.0,2-2,other
39329,64,1,156,124,9.0,2-3,minor
39330,45,42,36,390,9.0,4-26,minor
39331,60,36,24,252,9.0,3-7B,other
39332,55,58,100,112,9.0,4-26,minor
39333,52,54,92,128,9.0,4-26,minor
39334,57,39,28,140,5.0,3-4B,other
39335,65,45,20,140,2.0,3-9,other
39336,57,31,208,346,9.0,6-32,minor
39337,35,32,68,268,5.0,3-11B,major
39338,57,26,44,716,5.0,3-11B,major
39339,68,57,80,226,6.0,2-6,other
39340,70,71,44,68,6.0,2-6,other
39341,72,81,52,56,6.0,2-6,other
39342,77,90,60,124,0.0,2-3,minor
39343,29,74,736,74,3.0,4-7,other
39344,82,72,36,62,3.0,4-7,other
39345,84,64,52,60,3.0,4-7,other
39346,87,66,28,68,3.0,4-7,other
39347,89,58,40,80,3.0,4-7,other
39348,44,63,144,96,3.0,4-7,other
39349,94,72,52,36,3.0,4-7,other
39350,96,56,28,84,3.0,4-7,other
39351,27,47,26,522,0.0,5-21B,other
39352,56,17,40,368,8.0,2-2,other
39353,38,41,60,424,10.0,3-3A,major
39354,49,61,724,128,3.0,4-7,other
39355,25,47,26,118,3.0,4-7,other
39356,27,63,48,386,4.0,4-18A,major
39357,56,29,28,174,3.0,2-1,other
39358,65,45,80,120,2.0,2-3,minor
39359,63,17,100,52,2.0,2-3,minor
39360,28,49,142,144,2.0,2-3,minor
39361,37,42,120,50,2.0,2-3,minor
39362,44,81,128,466,4.0,4-10,minor
39363,25,42,18,234,4.0,4-10,minor
39364,46,58,92,44,4.0,4-10,minor
39365,63,54,20,218,11.0,1-1,other
39366,67,46,28,80,11.0,1-1,other
39367,71,70,36,68,11.0,1-1,other
39368,74,120,60,72,11.0,1-1,other
39369,72,82,56,184,11.0,1-1,other
39370,74,87,56,80,11.0,1-1,other
39371,39,36,128,46,11.0,1-1,other
39372,75,82,56,42,11.0,1-1,other
39373,82,81,56,216,0.0,5-35,minor
39374,83,115,64,88,0.0,5-35,minor
39375,86,120,60,100,0.0,5-35,minor
39376,77,63,32,280,7.0,2-5,other
39377,77,81,60,284,3.0,4-19B,augmented
39378,75,64,80,76,3.0,4-19B,augmented
39379,25,32,80,60,3.0,4-19B,augmented
39380,60,34,266,96,7.0,1-1,other
39381,74,77,48,156,0.0,5-32B,other
39382,75,75,80,84,0.0,5-32B,other
39383,42,38,120,86,0.0,5-32B,other
39384,77,70,52,26,0.0,5-32B,other
39385,25,56,50,212,9.0,3-8B,other
39386,75,66,60,84,9.0,3-8B,other
39387,57,30,252,192,1.0,6-19A,other
39388,67,54,136,84,1.0,6-19A,other
39389,25,47,66,114,1.0,6-19A,other
39390,38,60,1824,940,6.0,5-10A,other
39391,64,59,36,162,6.0,5-10A,other
39392,65,46,48,52,6.0,5-10A,other
39393,66,57,16,48,6.0,5-10A,other
39394,72,42,44,128,0.0,4-19B,other
39395,75,71,52,36,0.0,4-19B,other
39396,78,68,76,68,0.0,4-19B,other
39397,75,56,28,60,0.0,4-19B,other
39398,87,81,44,644,2.0,6-34B,major
39399,90,81,88,76,2.0,6-34B,major
39400,88,70,44,148,1.0,2-2,other
39401,89,58,52,52,1.0,2-2,other
39402,90,68,16,60,2.0,3-9,other
39403,91,48,20,60,2.0,3-9,other
39404,94,49,36,88,2.0,3-9,other
39405,97,85,56,304,4.0,2-4,major
39406,57,46,308,132,2.0,2-4,major
39407,25,39,38,48,2.0,2-4,major
39408,28,38,14,112,0.0,4-21,major
39409,44,75,162,388,0.0,4-11A,major
39410,28,35,14,380,8.0,4-18A,diminished
39411,35,43,36,830,4.0,3-10,diminished
39412,46,5,24,360,4.0,4-18A,major
39413,34,55,248,56,4.0,4-18A,major
39414,32,52,28,248,4.0,2-5,other
39415,88,31,208,62,0.0,4-20,major
39416,33,51,664,26,0.0,4-20,major
39417,40,49,36,656,0.0,5-27A,major
39418,25,46,22,336,0.0,4-20,major
39419,40,26,72,52,0.0,4-20,major
39420,25,60,42,322,9.0,6-32,minor
39421,40,29,56,66,0.0,5-20B,major
39422,28,43,14,58,0.0,5-20B,major
39423,52,49,312,34,0.0,5-20B,major
39424,35,12,26,228,0.0,5-20B,major
39425,40,27,76,68,0.0,5-20B,major
39426,94,89,84,110,0.0,3-3A,minor
39427,96,102,60,112,0.0,3-3A,minor
39428,89,29,24,276,0.0,2-4,major
39429,87,65,60,84,2.0,2-1,other
39430,84,51,20,92,2.0,2-1,other
39431,45,34,36,42,2.0,2-1,other
39432,82,53,20,38,2.0,2-1,other
39433,75,61,64,192,10.0,2-5,other
39434,74,51,44,84,10.0,2-5,other
39435,72,52,28,136,1.0,1-1,other
39436,71,54,24,256,2.0,2-5,other
39437,45,40,288,206,4.0,5-34,major
39438,69,67,76,70,4.0,5-34,major
39439,62,50,44,104,4.0,5-34,major
39440,66,63,68,80,4.0,5-34,major
39441,43,43,1788,122,2.0,4-22A,major
39442,58,31,104,398,2.0,5-24B,major
39443,59,24,196,346,2.0,3-6,major
39444,55,10,56,78,1.0,2-3,other
39445,59,43,20,188,7.0,4-29B,major
39446,65,42,128,1448,7.0,3-7A,minor
39447,65,52,64,648,2.0,2-5,other
39448,67,49,88,116,2.0,2-5,other
39449,28,26,142,76,2.0,2-5,other
39450,48,60,316,154,8.0,4-22A,other
39451,35,26,32,228,7.0,2-3,minor
39452,38,27,80,96,9.0,4-18A,major
39453,55,51,64,214,9.0,3-11B,major
39454,70,61,56,360,0.0,3-3A,major
39455,70,39,28,132,3.0,4-7,other
39456,69,17,204,178,0.0,2-4,major
39457,27,42,50,204,7.0,3-3A,minor
39458,27,67,22,256,4.0,3-8B,other
39459,67,57,72,54,4.0,3-8B,other
39460,60,48,52,520,5.0,3-11B,major
39461,62,42,20,56,9.0,4-4B,other
39462,63,57,36,104,5.0,4-20,major
39463,65,1,116,70,2.0,2-3,minor
39464,61,41,28,66,2.0,2-3,minor
39465,52,54,52,288,6.0,2-3,minor
39466,52,67,72,392,5.0,3-4A,major
39467,48,52,52,180,5.0,3-4A,major
39468,53,41,56,92,2.0,2-2,other
39469,46,9,26,52,2.0,2-2,other
39470,35,28,38,128,2.0,3-7A,minor
39471,35,19,32,854,7.0,2-3,minor
39472,63,56,32,278,11.0,2-1,other
39473,28,50,142,36,11.0,2-1,other
39474,70,48,20,192,5.0,2-5,other
39475,72,45,24,68,5.0,2-5,other
39476,75,36,24,68,5.0,2-5,other
39477,77,51,24,64,5.0,2-5,other
39478,80,56,20,64,5.0,2-5,other
39479,82,46,16,76,3.0,4-7,other
39480,84,54,20,60,3.0,4-7,other
39481,87,37,24,72,3.0,4-7,other
39482,89,51,24,68,3.0,4-7,other
39483,92,45,24,64,3.0,4-7,other
39484,96,63,32,144,0.0,4-20,major
39485,99,55,36,92,0.0,4-20,major
39486,101,61,16,72,0.0,4-20,major
39487,27,53,38,30,0.0,4-20,major
39488,44,70,138,150,3.0,4-4A,other
39489,34,37,164,278,3.0,4-4A,other
39490,37,56,1912,128,1.0,6-28,other
39491,27,46,26,118,1.0,6-28,other
39492,27,49,34,126,1.0,6-28,other
39493,44,79,90,118,3.0,4-20,other
39494,66,33,24,676,8.0,4-28,diminished
39495,44,79,112,92,4.0,3-7B,other
39496,45,42,156,416,4.0,3-7A,minor
39497,86,98,60,252,4.0,3-7A,minor
39498,35,25,26,340,9.0,6-32,minor
39499,64,23,138,114,0.0,4-20,major
39500,28,45,14,26,0.0,4-20,major
39501,55,45,20,200,9.0,5-23A,minor
39502,55,39,24,128,0.0,4-20,major
39503,28,46,144,310,9.0,5-23A,minor
39504,74,39,68,190,8.0,4-12B,diminished
39505,81,46,52,32,8.0,4-12B,diminished
39506,34,22,64,562,2.0,5-34,major
39507,72,48,20,802,7.0,4-8,major
39508,39,52,784,114,5.0,4-4B,other
39509,66,61,88,418,1.0,5-11B,minor
39510,68,60,48,56,1.0,5-11B,minor
39511,70,66,24,32,1.0,5-11B,minor
39512,72,66,40,52,1.0,5-11B,minor
39513,75,66,44,84,1.0,2-3,minor
39514,78,40,72,104,5.0,3-5B,other
39515,32,54,724,26,5.0,3-5B,other
39516,80,50,20,30,5.0,3-5B,other
39517,82,58,20,36,5.0,3-5B,other
39518,84,51,20,72,5.0,3-5B,other
39519,85,56,24,36,5.0,3-5B,other
39520,87,63,16,52,5.0,3-5B,other
39521,89,61,24,52,5.0,3-5B,other
39522,94,48,16,144,0.0,3-12,augmented
39523,95,62,44,48,0.0,3-12,augmented
39524,96,49,76,52,0.0,3-12,augmented
39525,100,54,88,164,11.0,2-3,minor
39526,100,86,84,176,5.0,4-22A,major
39527,96,98,100,112,5.0,4-22A,major
39528,35,14,38,938,4.0,2-4,major
39529,62,48,24,1390,0.0,2-1,other
39530,44,61,112,120,4.0,4-23,minor
39531,65,1,48,534,4.0,2-5,other
39532,35,12,24,132,5.0,4-16A,major
39533,40,52,656,512,8.0,3-10,minor
39534,69,52,76,386,4.0,4-15B,other
39535,70,47,68,36,4.0,4-15B,other
39536,71,32,56,92,4.0,4-15B,other
39537,74,87,100,92,4.0,4-15B,other
39538,35,23,24,229,10.0,3-4A,major
39539,71,29,44,26,10.0,3-4A,major
39540,60,39,106,64,10.0,3-4A,major
39541,64,46,130,628,0.0,2-3,minor
39542,55,1,166,58,0.0,2-3,minor
39543,44,81,112,276,1.0,2-2,other
39544,55,22,240,38,1.0,2-2,other
39545,38,46,732,312,3.0,3-4A,other
39546,85,90,84,266,0.0,2-4,major
39547,82,77,80,216,0.0,2-4,major
39548,83,77,68,100,0.0,2-4,major
39549,72,50,68,288,6.0,3-10,other
39550,53,47,80,184,6.0,3-10,other
39551,45,75,264,102,6.0,3-10,other
39552,60,28,296,56,3.0,3-7B,other
39553,72,39,24,154,10.0,3-3A,major
39554,38,48,40,282,2.0,2-2,other
39555,59,1,116,40,2.0,2-2,other
39556,43,42,24,86,9.0,2-4,major
39557,35,9,32,448,4.0,6-14B,minor
39558,57,68,68,148,3.0,6-31A,augmented
39559,46,49,20,868,3.0,5-37,augmented
39560,59,23,90,662,3.0,3-11B,other
39561,45,60,232,112,3.0,3-11B,other
39562,59,30,212,264,1.0,6-33A,other
39563,60,63,104,94,1.0,6-33A,other
39564,50,15,60,76,1.0,6-33A,other
39565,62,34,156,214,3.0,4-22A,major
39566,58,57,60,114,11.0,3-2A,minor
39567,57,56,28,64,11.0,3-2A,minor
39568,66,52,44,292,7.0,5-27B,minor
39569,67,57,36,52,7.0,5-27B,minor
39570,69,60,40,60,7.0,5-27B,minor
39571,70,63,20,48,7.0,5-27B,minor
39572,72,57,20,56,7.0,5-27B,minor
39573,76,59,20,144,10.0,4-8,major
39574,34,43,80,66,10.0,4-8,major
39575,81,66,48,78,10.0,4-8,major
39576,84,67,44,96,11.0,2-1,other
39577,87,56,24,128,10.0,4-20,major
39578,88,63,40,60,10.0,4-20,major
39579,89,48,24,56,10.0,4-20,major
39580,90,54,16,40,10.0,4-20,major
39581,92,54,32,80,3.0,4-19B,augmented
39582,94,61,48,52,3.0,4-19B,augmented
39583,84,67,92,172,0.0,3-6,major
39584,34,47,44,114,0.0,3-6,major
39585,39,34,100,1144,3.0,2-4,major
39586,55,6,204,180,5.0,4-20,major
39587,52,43,100,466,0.0,4-19B,augmented
39588,35,9,32,144,9.0,4-27A,diminished
39589,55,9,184,522,5.0,6-44A,major
39590,36,50,44,116,5.0,6-44A,major
39591,35,19,26,514,7.0,2-2,other
39592,57,45,372,168,5.0,2-5,other
39593,60,6,180,390,4.0,2-3,minor
39594,60,31,272,352,4.0,4-18A,diminished
39595,63,75,116,90,4.0,4-18A,diminished
39596,56,21,184,694,3.0,2-5,other
39597,51,39,70,210,5.0,2-5,other
39598,63,14,176,570,0.0,5-32A,other
39599,80,54,96,34,0.0,5-32A,other
39600,35,37,70,162,8.0,6-28,other
39601,67,25,188,140,3.0,3-4A,other
39602,39,64,136,232,3.0,3-4A,other
39603,62,33,276,168,3.0,4-7,other
39604,51,65,48,230,3.0,4-7,other
39605,34,23,42,230,2.0,4-16B,major
39606,82,34,28,350,3.0,6-3B,other
39607,35,37,22,60,3.0,6-3B,other
39608,34,35,40,110,3.0,6-3B,other
39609,39,46,448,112,8.0,4-12B,other
39610,46,75,364,388,7.0,5-35,minor
39611,39,33,116,252,2.0,2-2,other
39612,51,56,320,162,11.0,1-1,other
39613,67,44,24,788,0.0,4-14A,minor
39614,63,22,24,260,0.0,4-19A,minor
39615,35,37,32,364,0.0,4-14A,minor
39616,57,81,108,396,3.0,1-1,other
39617,62,72,148,636,0.0,2-5,other
39618,72,82,88,376,0.0,4-20,other
39619,73,25,20,156,3.0,2-1,other
39620,77,89,96,232,9.0,5-28B,other
39621,35,40,26,92,9.0,5-28B,other
39622,35,51,38,368,3.0,1-1,other
39623,77,68,52,56,1.0,2-2,other
39624,75,41,64,28,1.0,2-2,other
39625,60,8,154,166,2.0,3-3A,major
39626,77,43,60,74,2.0,3-3A,major
39627,45,47,68,78,2.0,3-3A,major
39628,74,48,60,186,0.0,4-27B,other
39629,52,50,88,70,0.0,4-27B,other
39630,53,40,88,128,0.0,4-27B,other
39631,69,21,68,74,11.0,3-11A,minor
39632,54,70,272,54,11.0,3-11A,minor
39633,66,45,256,434,0.0,5-28A,other
39634,52,40,52,58,0.0,5-28A,other
39635,50,22,60,156,0.0,5-28A,other
39636,35,32,64,34,0.0,5-28A,other
39637,35,7,48,144,11.0,5-32B,minor
39638,47,50,140,1028,6.0,2-3,minor
39639,39,43,152,346,3.0,4-15A,other
39640,71,29,24,190,11.0,2-3,minor
39641,35,12,36,618,8.0,3-5B,other
39642,64,40,296,112,3.0,4-18B,other
39643,34,26,18,536,8.0,4-28,diminished
39644,60,27,244,272,9.0,5-27B,minor
39645,55,1,112,112,9.0,5-27B,minor
39646,33,43,68,500,3.0,2-4,other
39647,33,26,36,388,9.0,7-35,minor
39648,37,20,48,772,7.0,4-22A,major
39649,51,67,68,1110,11.0,4-23,minor
39650,62,28,228,158,9.0,3-8A,other
39651,35,16,34,262,9.0,3-8A,other
39652,66,68,40,340,1.0,7-29B,other
39653,51,72,48,776,10.0,2-1,other
39654,35,30,26,404,7.0,5-27A,major
39655,51,39,52,364,3.0,6-17B,other
39656,44,56,84,40,3.0,6-17B,other
39657,61,26,308,502,6.0,8-12A,diminished
39658,57,73,72,522,10.0,2-5,other
39659,37,40,36,854,7.0,3-7A,minor
39660,64,27,206,536,0.0,4-26,minor
39661,43,49,116,224,1.0,3-10,minor
39662,55,24,164,156,0.0,5-30B,other
39663,68,56,68,778,3.0,5-18A,other
39664,64,38,296,382,5.0,2-2,other
39665,62,39,48,266,9.0,3-7A,minor
39666,40,32,22,988,5.0,3-4B,other
39667,50,49,68,180,3.0,2-4,other
39668,55,1,220,98,5.0,5-38B,major
39669,40,30,22,104,5.0,5-38B,major
39670,35,25,26,130,5.0,5-38B,major
39671,50,43,80,28,5.0,5-38B,major
39672,39,60,112,710,9.0,2-3,minor
39673,35,19,36,36,9.0,2-3,minor
39674,51,51,68,1146,5.0,4-14A,other
39675,34,23,86,400,5.0,3-11A,other
39676,58,66,36,256,0.0,4-17,other
39677,61,68,26,102,3.0,2-4,other
39678,64,71,48,106,2.0,1-1,other
39679,67,69,44,116,8.0,3-10,minor
39680,68,77,44,88,8.0,3-10,minor
39681,70,80,44,88,8.0,3-10,minor
39682,56,40,280,162,3.0,3-9,other
39683,73,61,52,26,3.0,3-9,other
39684,79,77,52,460,3.0,3-8B,other
39685,80,78,112,84,3.0,3-8B,other
39686,61,6,324,206,1.0,5-34,other
39687,84,72,64,50,1.0,5-34,other
39688,86,77,68,92,1.0,5-34,other
39689,87,87,76,96,1.0,2-2,other
39690,83,61,88,224,4.0,2-2,other
39691,58,46,72,1468,4.0,4-2A,major
39692,53,68,100,200,4.0,4-2A,major
39693,81,44,112,428,11.0,5-24A,minor
39694,35,16,32,362,9.0,3-11A,minor
39695,37,49,80,244,6.0,2-3,other
39696,100,85,60,38,6.0,2-3,other
39697,61,23,220,238,3.0,4-14A,other
39698,97,83,80,82,3.0,4-14A,other
39699,96,60,28,96,3.0,4-14A,other
39700,94,67,72,72,3.0,4-14A,other
39701,92,63,64,52,3.0,4-14A,other
39702,61,23,130,82,3.0,5-23A,other
39703,89,66,24,26,3.0,5-23A,other
39704,87,63,16,60,3.0,5-23A,other
39705,85,56,28,60,3.0,5-23A,other
39706,82,65,56,96,3.0,2-5,other
39707,80,63,56,40,3.0,2-5,other
39708,77,48,16,120,4.0,2-6,other
39709,75,63,60,40,4.0,2-6,other
39710,73,64,24,56,4.0,2-6,other
39711,72,45,24,56,4.0,2-6,other
39712,66,54,56,124,3.0,3-9,other
39713,63,44,24,120,5.0,2-5,other
39714,62,40,44,52,5.0,2-5,other
39715,61,60,32,44,5.0,2-5,other
39716,39,43,100,82,5.0,2-5,other
39717,43,46,544,170,2.0,6-40B,minor
39718,31,25,42,104,2.0,6-40B,minor
39719,50,39,32,124,5.0,2-4,other
39720,57,72,60,64,5.0,2-4,other
39721,45,55,500,26,5.0,2-4,other
39722,50,39,32,74,5.0,7-17,major
39723,31,40,38,494,4.0,5-38A,major
39724,38,47,104,56,4.0,5-38A,major
39725,35,51,380,136,7.0,4-27B,major
39726,69,1,32,138,0.0,8-17,other
39727,53,52,20,612,10.0,2-1,other
39728,57,12,132,90,0.0,4-19B,other
39729,32,23,22,602,4.0,6-48,minor
39730,52,38,76,76,4.0,6-48,minor
39731,51,32,84,324,7.0,3-11B,major
39732,65,54,248,152,5.0,5-15,major
39733,35,25,38,888,4.0,5-28A,other
39734,35,48,60,90,4.0,5-28A,other
39735,35,42,32,394,4.0,4-18A,major
39736,35,51,48,800,9.0,8-26,other
39737,59,1,124,194,9.0,7-35,minor
39738,37,55,396,268,9.0,7-35,minor
39739,51,46,84,286,7.0,4-22A,major
39740,37,29,72,398,11.0,3-5B,other
39741,60,25,188,148,4.0,2-4,major
39742,51,35,68,990,6.0,5-31A,diminished
39743,83,49,16,180,11.0,3-7A,minor
39744,84,31,48,216,11.0,4-23,minor
39745,36,52,428,494,3.0,2-4,other
39746,34,16,40,132,3.0,2-4,other
39747,35,25,40,120,10.0,4-24,augmented
39748,46,57,352,880,2.0,3-11B,major
39749,78,60,80,78,11.0,3-11A,minor
39750,45,56,376,302,0.0,2-3,minor
39751,96,73,92,542,1.0,4-22B,other
39752,31,60,40,30,1.0,4-22B,other
39753,57,41,680,242,3.0,6-31A,other
39754,94,48,84,128,0.0,2-5,other
39755,93,80,76,284,3.0,6-25A,other
39756,90,59,60,80,3.0,6-25A,other
39757,91,70,68,100,3.0,6-25A,other
39758,88,41,68,88,3.0,6-25A,other
39759,31,52,424,26,3.0,6-25A,other
39760,87,63,72,82,3.0,3-4B,other
39761,85,49,28,100,3.0,3-4B,other
39762,84,56,52,108,3.0,3-4B,other
39763,83,56,48,216,3.0,4-11B,other
39764,84,57,44,92,3.0,4-11B,other
39765,51,68,298,216,0.0,7-25A,major
39766,35,28,32,254,10.0,1-1,other
39767,44,91,96,134,9.0,7-15,other
39768,34,19,72,242,9.0,7-15,other
39769,79,66,104,706,7.0,2-1,other
39770,35,21,56,62,7.0,2-1,other
39771,57,1,156,196,0.0,4-20,major
39772,69,36,72,482,0.0,3-6,major
39773,71,2,80,136,0.0,2-3,minor
39774,60,30,224,106,5.0,4-27B,major
39775,53,67,132,258,4.0,2-2,other
39776,28,58,376,82,4.0,2-2,other
39777,53,50,80,162,5.0,6-46B,major
39778,52,42,68,336,5.0,2-5,other
39779,48,46,104,80,5.0,2-5,other
39780,37,33,80,876,0.0,1-1,other
39781,35,11,52,518,0.0,4-26,other
39782,32,15,48,1052,0.0,4-20,other
39783,48,56,372,44,0.0,4-20,other
39784,46,56,324,388,0.0,2-1,other
39785,34,26,52,158,0.0,4-20,other
39786,35,28,32,126,0.0,4-20,other
39787,46,52,404,84,0.0,4-20,other
39788,34,19,72,292,0.0,5-27A,other
39789,35,14,42,922,3.0,4-20,major
39790,46,58,96,104,3.0,4-20,major
39791,55,57,88,116,3.0,4-20,major
39792,74,77,228,252,7.0,2-1,other
39793,51,47,70,920,8.0,4-18A,diminished
39794,50,49,36,292,0.0,4-14A,minor
39795,55,42,20,120,0.0,4-14A,minor
39796,75,96,76,300,5.0,1-1,other
39797,36,38,84,42,5.0,1-1,other
39798,74,84,68,662,1.0,2-2,other
39799,72,69,64,80,1.0,2-2,other
39800,67,60,48,100,1.0,2-2,other
39801,35,11,40,730,9.0,4-5B,other
39802,72,80,44,222,9.0,3-8B,other
39803,55,60,176,152,9.0,4-13B,diminished
39804,77,77,76,220,0.0,4-20,other
39805,35,18,32,158,3.0,2-4,major
39806,31,33,58,362,11.0,2-3,minor
39807,37,20,52,58,11.0,2-3,minor
39808,38,17,144,276,0.0,2-3,minor
39809,65,52,124,214,2.0,5-10B,other
39810,54,22,28,280,6.0,3-10,other
39811,31,28,54,226,0.0,2-5,other
39812,62,17,256,1036,9.0,3-8A,other
39813,47,51,36,472,5.0,2-4,major
39814,35,40,228,116,5.0,2-4,major
39815,86,40,24,74,2.0,5-28A,major
39816,46,52,92,330,11.0,1-1,other
39817,62,38,38,164,3.0,4-4A,other
39818,90,22,92,90,8.0,2-6,other
39819,31,32,26,510,4.0,3-3A,major
39820,74,57,96,166,3.0,4-13A,other
39821,31,47,58,122,3.0,4-13A,other
39822,72,58,44,138,0.0,4-22A,other
39823,57,45,124,164,0.0,4-20,major
39824,71,48,20,84,0.0,4-20,major
39825,71,50,48,316,0.0,4-20,major
39826,60,37,24,244,4.0,2-5,other
39827,55,16,220,90,9.0,7-18B,other
39828,80,18,112,438,6.0,2-3,other
39829,57,33,288,330,3.0,2-1,other
39830,40,52,324,708,10.0,4-19A,augmented
39831,57,28,192,60,3.0,2-4,other
39832,55,39,28,2490,11.0,4-26,minor
39833,57,45,112,200,3.0,4-9,other
39834,55,45,52,120,3.0,4-9,other
39835,65,50,44,516,8.0,4-26,other
39836,43,50,98,504,10.0,5-20A,major
39837,38,57,120,202,10.0,5-20A,major
39838,69,86,108,294,3.0,6-18B,other
39839,65,66,280,272,3.0,5-20B,major
39840,31,33,54,492,7.0,5-27B,minor
39841,51,39,52,124,7.0,5-27B,minor
39842,50,87,404,482,9.0,4-17,other
39843,67,36,308,56,1.0,6-33A,other
39844,59,65,52,1382,0.0,2-4,major
39845,84,66,124,176,5.0,5-27A,major
39846,79,46,104,40,5.0,5-27A,major
39847,35,9,50,156,5.0,5-27A,major
39848,51,47,80,1932,0.0,3-3B,other
39849,35,34,48,382,4.0,4-4A,major
39850,51,44,64,1154,5.0,2-2,other
39851,39,59,60,222,0.0,4-26,other
39852,38,47,128,128,0.0,4-26,other
39853,35,26,42,50,0.0,4-26,other
39854,44,52,280,120,1.0,4-21,other
39855,64,4,188,434,3.0,2-5,other
39856,51,39,132,326,3.0,2-4,other
39857,71,63,20,420,8.0,1-1,other
39858,51,47,32,220,11.0,3-2B,minor
39859,39,19,56,818,3.0,2-4,other
39860,59,13,224,488,9.0,6-18A,diminished
39861,72,57,116,166,9.0,6-18A,diminished
39862,51,39,80,64,9.0,6-18A,diminished
39863,63,25,28,30,9.0,6-18A,diminished
39864,61,85,168,294,9.0,6-24A,minor
39865,51,40,20,60,9.0,6-24A,minor
39866,50,75,320,340,4.0,4-14B,major
39867,50,68,252,388,6.0,5-19A,minor
39868,45,32,100,442,3.0,2-5,other
39869,51,23,84,366,9.0,3-10,diminished
39870,35,33,26,390,6.0,6-47B,minor
39871,51,42,96,762,0.0,3-11B,other
39872,44,26,72,54,0.0,3-11B,other
39873,74,28,36,322,5.0,4-20,major
39874,35,18,38,406,5.0,4-27B,major
39875,43,53,120,220,3.0,6-30A,other
39876,35,61,382,252,2.0,2-5,other
39877,71,66,48,238,5.0,4-15B,major
39878,51,51,68,44,5.0,4-15B,major
39879,43,56,160,352,0.0,5-27A,major
39880,71,66,160,980,7.0,2-5,other
39881,72,56,140,180,7.0,2-5,other
39882,48,43,184,180,5.0,2-2,other
39883,86,72,56,240,7.0,4-22A,major
39884,84,53,464,1488,3.0,3-4A,major
39885,43,48,164,848,4.0,3-7A,minor
39886,55,50,220,396,2.0,3-9,other
39887,59,50,208,452,2.0,3-9,other
39888,64,43,208,444,2.0,3-11B,major
39889,69,52,232,428,7.0,3-4B,other
39890,86,39,196,268,11.0,3-7B,other
39891,74,52,268,208,11.0,3-7B,other
39892,24,49,64,1344,2.0,3-11B,major
39893,60,34,12,0,8.0,5-18A,diminished
39894,59,75,11,87,1.0,2-2,other
39895,35,47,30,487,8.0,5-18A,diminished
39896,35,40,26,120,1.0,3-8B,other
39897,59,72,21,130,8.0,5-18A,diminished
39898,37,83,34,48,8.0,5-18A,diminished
39899,59,71,30,184,5.0,1-1,other
39900,59,55,10,292,0.0,4-16A,other
39901,60,27,11,83,8.0,5-31B,diminished
39902,35,47,29,43,8.0,5-31B,diminished
39903,59,71,23,312,3.0,4-7,other
39904,58,26,28,136,3.0,3-12,augmented
39905,53,69,23,102,1.0,3-1,other
39906,51,85,85,53,1.0,3-1,other
39907,59,47,14,234,3.0,3-4A,major
39908,35,50,28,363,0.0,4-19A,minor
39909,59,74,42,305,9.0,4-2B,other
39910,59,76,36,1195,8.0,6-5B,diminished
39911,62,19,28,141,11.0,3-2B,minor
39912,35,47,30,99,11.0,1-1,other
39913,35,41,28,180,11.0,1-1,other
39914,79,68,30,206,7.0,7-19A,major
39915,43,94,290,156,8.0,6-29,diminished
39916,59,81,44,190,2.0,2-1,other
39917,35,46,31,228,3.0,2-1,other
39918,59,96,37,67,0.0,4-5B,other
39919,35,42,26,53,0.0,4-5B,other
39920,59,65,23,380,0.0,1-1,other
39921,51,84,320,42,0.0,1-1,other
39922,59,79,24,189,1.0,2-2,other
39923,35,40,30,169,7.0,2-4,major
39924,53,57,15,300,11.0,1-1,other
39925,59,49,18,538,11.0,2-6,other
39926,59,47,12,666,1.0,5-31A,diminished
39927,36,85,288,542,1.0,5-23A,other
39928,59,57,16,241,4.0,2-6,other
39929,52,92,96,232,3.0,2-4,other
39930,72,82,73,187,11.0,1-1,other
39931,59,40,13,49,11.0,1-1,other
39932,53,22,126,396,8.0,5-8,other
39933,49,95,324,330,5.0,3-11A,other
39934,59,81,50,172,1.0,3-7B,other
39935,53,34,26,454,8.0,3-10,diminished
39936,49,95,317,327,8.0,4-28,diminished
39937,60,46,9,95,8.0,4-27B,minor
39938,35,50,31,31,8.0,4-27B,minor
39939,59,50,10,850,0.0,4-16A,other
39940,59,76,28,178,7.0,5-18A,major
39941,35,47,30,232,11.0,1-1,other
39942,35,40,26,120,3.0,3-12,augmented
39943,90,25,14,329,3.0,4-24,augmented
39944,43,89,307,97,8.0,3-2B,other
39945,35,52,30,114,3.0,4-16A,other
39946,59,83,30,63,3.0,4-16A,other
39947,59,68,39,541,11.0,7-32B,minor
39948,35,49,23,56,11.0,7-32B,minor
39949,59,73,47,350,0.0,5-32A,other
39950,43,85,180,267,0.0,5-32A,other
39951,59,79,30,33,0.0,5-32A,other
39952,35,50,21,310,0.0,5-37,minor
39953,50,44,18,269,11.0,1-1,other
39954,46,33,26,242,11.0,2-5,other
39955,35,50,27,89,9.0,4-11B,minor
39956,35,54,24,120,8.0,3-3A,minor
39957,87,77,40,1526,3.0,2-4,other
39958,51,31,15,43,3.0,2-4,other
39959,86,83,144,469,7.0,2-4,major
39960,79,42,59,211,3.0,2-4,other
39961,36,91,295,100,3.0,3-1,other
39962,51,86,34,175,3.0,3-12,augmented
39963,75,67,29,29,3.0,3-12,augmented
39964,49,35,13,296,4.0,4-6,other
39965,55,32,22,117,11.0,4-15B,minor
39966,63,53,35,46,11.0,4-15B,minor
39967,55,37,14,135,3.0,4-24,augmented
39968,51,30,13,106,3.0,2-4,other
39969,51,106,43,943,3.0,2-4,other
39970,51,96,31,482,8.0,5-18A,diminished
39971,35,47,30,483,3.0,2-4,other
39972,60,33,13,268,3.0,4-8,other
39973,75,75,35,112,3.0,3-4B,other
39974,75,35,35,356,3.0,5-30B,augmented
39975,75,75,25,55,4.0,3-1,other
39976,51,43,21,411,3.0,3-12,augmented
39977,51,73,25,957,3.0,4-19B,augmented
39978,55,28,17,142,1.0,6-39A,other
39979,94,78,36,1066,3.0,4-8,other
39980,88,58,38,244,1.0,5-12,other
39981,55,32,14,138,1.0,6-28,other
39982,55,40,13,230,0.0,6-3A,other
39983,73,68,44,73,3.0,2-4,other
39984,35,42,31,448,9.0,5-19B,diminished
39985,70,71,64,37,9.0,5-19B,diminished
39986,39,26,49,292,5.0,2-2,other
39987,51,96,29,2129,3.0,2-4,other
39988,64,43,34,155,11.0,4-12B,diminished
39989,35,47,30,567,3.0,3-4A,other
39990,51,96,75,242,3.0,3-12,augmented
39991,55,55,29,625,11.0,4-15B,minor
39992,64,87,75,713,0.0,7-16B,other
39993,48,101,455,404,3.0,2-1,other
39994,51,115,39,179,3.0,3-3B,other
39995,63,70,56,147,3.0,3-3B,other
39996,72,54,13,363,8.0,3-10,diminished
39997,51,86,31,454,1.0,3-6,other
39998,51,36,12,67,1.0,3-6,other
39999,51,106,35,172,9.0,6-15A,diminished
40000,51,65,21,717,1.0,6-34A,other
40001,62,34,14,47,1.0,6-34A,other
40002,35,42,29,130,1.0,5-13B,other
40003,51,86,32,54,1.0,5-13B,other
40004,51,106,36,490,9.0,5-8,other
40005,64,84,30,49,9.0,5-8,other
40006,50,82,293,331,1.0,7-12,other
40007,66,20,20,418,1.0,5-5B,other
40008,37,74,27,343,11.0,2-3,minor
40009,67,66,40,192,1.0,5-1,other
40010,72,80,32,121,3.0,1-1,other
40011,79,81,41,119,3.0,2-4,other
40012,51,115,35,580,1.0,2-2,other
40013,56,6,329,471,3.0,3-8B,other
40014,51,77,20,265,1.0,3-6,other
40015,64,87,30,55,1.0,3-6,other
40016,39,55,22,79,3.0,3-4B,other
40017,51,21,9,55,1.0,6-34B,other
40018,51,96,103,39,1.0,6-34B,other
40019,63,81,34,1107,1.0,4-2B,other
40020,51,68,24,575,0.0,4-5B,other
40021,51,96,42,957,3.0,3-12,augmented
40022,31,81,285,71,4.0,2-4,major
40023,51,68,37,167,0.0,3-3A,minor
40024,35,52,28,181,3.0,4-19B,augmented
40025,75,72,28,135,3.0,3-4A,other
40026,51,106,38,396,3.0,2-4,other
40027,35,63,28,129,0.0,5-30B,other
40028,98,42,16,606,11.0,5-28B,diminished
40029,79,54,24,1040,0.0,3-2B,minor
40030,57,45,12,180,3.0,2-1,other
40031,67,29,22,702,3.0,3-11A,other
40032,51,115,91,225,3.0,3-12,augmented
40033,76,58,27,702,3.0,2-4,other
40034,65,71,31,485,3.0,2-4,other
40035,63,60,35,59,3.0,2-4,other
40036,51,80,15,685,0.0,4-15A,minor
40037,51,59,13,468,3.0,2-1,other
40038,75,80,27,69,0.0,2-3,minor
40039,66,42,31,1156,11.0,2-2,other
40040,51,93,68,467,1.0,5-12,other
40041,35,52,28,176,1.0,5-3B,other
40042,35,58,26,180,1.0,5-31B,other
40043,66,62,37,587,3.0,3-4A,other
40044,35,58,26,373,1.0,4-1,other
40045,48,24,21,514,5.0,4-25,major
40046,68,74,68,534,11.0,3-2B,minor
40047,51,56,20,38,11.0,3-2B,minor
40048,51,65,18,1437,3.0,3-11A,other
40049,51,59,14,475,3.0,2-4,other
40050,35,54,28,1442,3.0,3-8B,other
40051,56,23,62,82,3.0,5-26B,augmented
40052,51,58,18,403,9.0,7-9B,other
40053,51,60,17,237,2.0,2-3,minor
40054,35,52,28,418,2.0,4-22B,minor
40055,59,76,24,790,0.0,3-8B,other
40056,48,26,13,1813,1.0,6-27A,diminished
40057,71,69,28,95,3.0,3-4B,other
40058,59,83,26,723,3.0,2-4,other
40059,35,57,25,119,0.0,6-14A,other
40060,59,84,36,176,3.0,3-3B,other
40061,56,39,36,330,0.0,5-27A,major
40062,59,45,10,107,11.0,3-2B,minor
40063,86,84,65,308,4.0,3-11B,major
40064,91,83,45,365,11.0,1-1,other
40065,35,47,30,34,11.0,1-1,other
40066,75,78,26,81,0.0,4-20,major
40067,80,67,40,142,11.0,1-1,other
40068,75,78,26,2004,7.0,3-11B,major
40069,55,46,36,477,11.0,2-3,minor
40070,68,58,39,664,3.0,3-12,augmented
40071,72,60,31,77,1.0,4-13A,minor
40072,76,53,33,112,3.0,2-4,other
40073,88,40,19,253,3.0,2-4,other
40074,92,44,51,56,11.0,2-5,other
40075,64,75,43,105,0.0,6-4,other
40076,59,74,73,346,3.0,2-4,other
40077,41,66,13,1046,4.0,3-11A,minor
40078,35,60,28,397,1.0,2-2,other
40079,63,75,28,248,8.0,4-28,diminished
40080,62,27,10,380,7.0,2-4,major
40081,53,11,51,306,8.0,5-8,other
40082,79,73,53,216,0.0,4-4B,other
40083,59,57,23,49,0.0,4-4B,other
40084,72,51,33,87,1.0,5-1,other
40085,35,52,99,575,3.0,4-18B,other
40086,59,59,20,62,3.0,4-18B,other
40087,38,55,13,627,4.0,2-5,other
40088,59,69,20,578,0.0,4-19A,minor
40089,59,51,20,485,3.0,2-4,other
40090,59,58,9,475,0.0,4-19A,minor
40091,62,72,23,305,0.0,2-1,other
40092,62,87,36,75,0.0,4-19A,minor
40093,60,24,11,535,3.0,8-12A,other
40094,35,50,27,278,5.0,3-6,other
40095,62,78,22,312,0.0,3-9,other
40096,57,76,17,172,0.0,6-24A,minor
40097,64,87,22,67,5.0,2-4,other
40098,62,77,18,710,3.0,5-29B,other
40099,74,54,29,420,11.0,8-21,diminished
40100,55,77,132,137,11.0,5-16B,other
40101,51,75,27,1296,1.0,2-2,other
40102,63,67,22,71,1.0,2-2,other
40103,51,59,19,171,3.0,3-8B,other
40104,62,82,26,721,1.0,4-21,other
40105,51,60,16,62,1.0,4-21,other
40106,51,48,10,717,3.0,3-3B,other
40107,51,63,18,183,1.0,7-26A,other
40108,62,91,33,31,1.0,7-26A,other
40109,51,49,16,26,1.0,7-26A,other
40110,55,60,23,200,11.0,5-28B,diminished
40111,35,46,31,464,1.0,5-9A,other
40112,64,78,27,75,1.0,5-9A,other
40113,60,57,32,659,3.0,3-8B,other
40114,43,22,10,136,11.0,4-17,minor
40115,63,26,23,768,3.0,2-1,other
40116,72,82,41,0,9.0,3-7A,minor
40117,70,75,23,110,10.0,5-33,augmented
40118,69,62,47,117,7.0,5-27B,minor
40119,67,65,31,122,0.0,5-34,major
40120,65,66,148,94,11.0,4-27A,diminished
40121,60,84,57,49,11.0,4-27A,diminished
40122,60,72,17,326,0.0,3-4A,other
40123,43,97,11,131,5.0,4-22A,major
40124,77,68,26,133,5.0,4-22A,major
40125,52,70,39,100,7.0,6-45,major
40126,65,63,45,116,8.0,4-28,diminished
40127,51,75,50,143,0.0,4-27B,major
40128,52,78,19,55,0.0,4-27B,major
40129,57,51,19,283,2.0,4-21,major
40130,54,75,35,263,9.0,3-7A,minor
40131,50,84,24,95,7.0,3-7A,minor
40132,51,83,56,117,9.0,3-8A,other
40133,76,81,13,264,7.0,5-35,minor
40134,64,93,67,111,4.0,4-18A,major
40135,74,68,21,99,8.0,3-10,other
40136,48,73,41,674,2.0,4-26,minor
40137,79,101,21,1395,5.0,4-22A,major
40138,44,89,188,175,5.0,1-1,other
40139,52,52,137,302,4.0,2-3,minor
40140,62,79,50,114,0.0,2-5,other
40141,69,81,23,232,2.0,4-12A,major
40142,72,88,20,239,7.0,3-11A,minor
40143,38,91,56,131,10.0,5-33,augmented
40144,51,85,74,112,9.0,3-11A,minor
40145,45,88,70,123,2.0,5-35,minor
40146,38,74,38,66,2.0,5-35,minor
40147,38,70,15,58,2.0,5-35,minor
40148,31,80,23,64,2.0,5-35,minor
40149,72,55,40,298,0.0,5-35,other
40150,70,67,29,116,1.0,5-35,other
40151,69,60,13,121,5.0,4-14B,major
40152,67,55,24,102,4.0,4-13B,diminished
40153,60,59,38,399,5.0,3-11B,major
40154,64,104,59,42,5.0,3-11B,major
40155,65,77,16,61,5.0,3-11B,major
40156,55,63,82,124,4.0,3-7A,minor
40157,69,105,65,57,4.0,3-7A,minor
40158,55,75,40,175,9.0,3-11A,minor
40159,55,60,74,69,9.0,3-11A,minor
40160,55,74,36,291,4.0,3-7A,minor
40161,55,78,177,61,4.0,3-7A,minor
40162,64,79,30,126,1.0,3-10,minor
40163,65,66,36,163,2.0,4-26,minor
40164,64,55,39,124,0.0,4-24,augmented
40165,62,64,48,122,2.0,5-35,minor
40166,62,58,39,128,5.0,4-20,other
40167,62,54,6,344,5.0,4-20,major
40168,55,63,236,263,4.0,3-7A,minor
40169,67,62,28,482,0.0,4-27B,major
40170,63,66,41,108,9.0,3-8A,other
40171,69,77,21,244,9.0,3-8A,major
40172,50,87,130,120,6.0,4-27A,diminished
40173,69,77,49,110,11.0,3-7B,other
40174,43,83,278,66,11.0,3-7B,other
40175,69,68,19,158,7.0,4-27B,major
40176,71,72,32,45,7.0,4-27B,major
40177,51,66,85,590,3.0,3-7A,other
40178,65,78,32,48,3.0,3-7A,other
40179,73,92,29,51,3.0,3-7A,other
40180,61,75,134,182,5.0,5-26B,other
40181,70,78,17,62,5.0,5-26B,other
40182,48,70,120,603,3.0,3-9,other
40183,68,85,26,118,7.0,2-1,other
40184,53,56,143,122,11.0,4-18A,diminished
40185,68,73,27,117,8.0,2-3,minor
40186,54,72,64,127,3.0,3-11B,major
40187,55,70,46,63,3.0,3-11B,major
40188,65,63,15,278,0.0,2-3,minor
40189,77,66,30,145,1.0,4-22A,other
40190,73,58,25,222,9.0,4-18A,major
40191,72,66,31,121,9.0,3-10,diminished
40192,57,50,54,133,8.0,5-27B,other
40193,58,68,77,55,8.0,5-27B,other
40194,49,67,25,54,8.0,5-27B,other
40195,47,83,12,62,8.0,5-27B,other
40196,51,74,25,420,5.0,3-11B,other
40197,56,71,21,120,5.0,5-17,other
40198,70,65,21,128,1.0,5-34,other
40199,52,63,58,118,0.0,3-11B,other
40200,53,59,39,62,0.0,3-11B,other
40201,69,63,26,176,7.0,5-27B,minor
40202,49,56,33,252,9.0,3-7A,minor
40203,43,58,10,120,10.0,5-33,augmented
40204,47,75,37,121,10.0,4-20,major
40205,41,60,36,125,1.0,5-31B,diminished
40206,45,71,46,359,5.0,4-22A,major
40207,55,93,38,234,9.0,4-26,minor
40208,66,79,23,249,7.0,6-42,major
40209,48,81,148,238,4.0,4-27A,diminished
40210,60,70,55,120,4.0,4-27A,diminished
40211,50,55,76,42,4.0,4-27A,diminished
40212,50,72,29,124,2.0,4-27B,major
40213,43,75,8,71,2.0,4-27B,major
40214,53,56,34,606,7.0,4-14A,minor
40215,55,57,25,41,7.0,4-14A,minor
40216,48,85,33,431,10.0,4-22A,major
40217,48,76,153,46,10.0,4-22A,major
40218,48,82,27,195,9.0,4-18A,major
40219,48,61,49,47,9.0,4-18A,major
40220,67,72,13,77,9.0,4-18A,major
40221,48,79,59,351,0.0,2-1,other
40222,36,87,12,47,0.0,2-1,other
40223,58,62,15,434,7.0,5-27B,minor
40224,51,68,28,245,2.0,4-14A,minor
40225,49,67,37,118,2.0,2-5,other
40226,48,64,39,46,2.0,2-5,other
40227,33,89,28,302,5.0,5-27A,major
40228,50,76,10,124,5.0,5-27A,major
40229,44,87,87,123,7.0,4-18A,major
40230,69,84,34,1091,7.0,4-23,minor
40231,56,69,22,113,7.0,4-14A,minor
40232,55,65,18,43,7.0,4-14A,minor
40233,48,66,90,564,10.0,3-11B,major
40234,48,73,57,121,9.0,4-18A,major
40235,64,68,33,441,2.0,4-26,minor
40236,65,101,37,86,9.0,3-11A,minor
40237,65,76,21,70,9.0,3-11A,minor
40238,69,88,18,117,4.0,3-7A,minor
40239,64,78,30,121,7.0,1-1,other
40240,84,113,82,120,5.0,3-11B,major
40241,55,69,210,51,5.0,3-11B,major
40242,81,82,21,39,5.0,3-11B,major
40243,77,88,32,38,5.0,3-11B,major
40244,72,79,72,115,4.0,3-7A,minor
40245,55,67,170,43,4.0,3-7A,minor
40246,69,66,65,42,4.0,3-7A,minor
40247,55,92,94,152,1.0,4-28,diminished
40248,76,113,32,44,1.0,4-28,diminished
40249,60,66,31,524,1.0,2-5,other
40250,62,68,28,38,1.0,2-5,other
40251,43,73,78,122,0.0,4-20,major
40252,76,98,189,86,4.0,4-23,minor
40253,62,78,20,149,5.0,3-4A,major
40254,81,97,26,334,4.0,3-7A,minor
40255,79,88,32,30,4.0,3-7A,minor
40256,55,90,91,122,5.0,4-20,major
40257,84,110,34,44,5.0,4-20,major
40258,65,1,104,157,0.0,4-27B,major
40259,46,58,44,31,0.0,4-27B,major
40260,44,48,38,126,9.0,3-8A,other
40261,34,70,43,111,8.0,3-8A,other
40262,33,80,8,119,9.0,3-8A,major
40263,53,35,70,286,7.0,3-8A,major
40264,71,64,18,122,9.0,2-2,other
40265,59,44,73,466,2.0,2-2,other
40266,60,64,10,88,2.0,2-2,other
40267,43,69,16,240,10.0,5-33,augmented
40268,47,75,45,366,2.0,4-22B,minor
40269,54,85,25,331,9.0,2-2,other
40270,44,62,16,38,9.0,2-2,other
40271,43,74,105,116,9.0,3-7A,minor
40272,50,66,22,763,2.0,3-8A,major
40273,69,80,38,550,7.0,4-23,minor
40274,56,79,35,121,7.0,4-14A,minor
40275,55,72,39,42,7.0,4-14A,minor
40276,63,67,38,198,4.0,5-31B,major
40277,43,55,32,366,0.0,1-1,other
40278,67,66,28,148,9.0,1-1,other
40279,47,101,46,205,2.0,4-26,minor
40280,48,81,133,46,2.0,4-26,minor
40281,36,91,33,69,2.0,4-26,minor
40282,36,76,109,47,2.0,4-26,minor
40283,64,70,55,437,5.0,3-11B,major
40284,74,118,34,243,0.0,3-8A,major
40285,55,66,37,239,5.0,3-11B,major
40286,60,62,29,120,0.0,2-2,other
40287,63,56,18,679,4.0,3-10,diminished
40288,50,86,87,290,2.0,3-8A,major
40289,53,59,34,714,7.0,5-27B,minor
40290,75,90,35,114,9.0,2-5,other
40291,65,70,37,121,8.0,3-10,diminished
40292,47,89,39,730,5.0,3-11B,major
40293,48,72,180,42,5.0,3-11B,major
40294,59,72,39,208,2.0,2-2,other
40295,73,92,21,108,2.0,2-2,other
40296,60,64,89,113,5.0,3-11B,major
40297,57,66,32,44,5.0,3-11B,major
40298,62,68,39,45,5.0,3-11B,major
40299,64,78,31,37,5.0,3-11B,major
40300,58,68,11,158,0.0,3-11B,major
40301,69,76,14,40,0.0,3-11B,major
40302,70,78,16,39,0.0,3-11B,major
40303,47,46,30,250,9.0,2-3,minor
40304,36,84,43,112,9.0,3-7A,minor
40305,52,61,24,118,9.0,3-7A,minor
40306,70,12,41,678,0.0,4-22A,major
40307,51,61,33,43,0.0,4-22A,major
40308,50,61,12,718,6.0,3-10,diminished
40309,55,79,37,115,7.0,4-14A,minor
40310,53,61,11,49,7.0,4-14A,minor
40311,47,91,92,77,7.0,4-14A,minor
40312,48,74,19,632,9.0,4-18A,major
40313,67,74,13,78,9.0,4-18A,major
40314,65,49,31,92,0.0,4-26,minor
40315,65,53,30,122,1.0,4-26,minor
40316,48,85,24,158,2.0,4-26,minor
40317,55,65,11,236,4.0,4-26,minor
40318,55,86,62,238,5.0,3-11B,major
40319,84,116,21,130,7.0,2-4,major
40320,83,85,24,74,4.0,3-7A,minor
40321,79,94,36,36,4.0,3-7A,minor
40322,55,73,169,38,4.0,3-7A,minor
40323,76,71,61,46,4.0,3-7A,minor
40324,55,54,44,208,1.0,3-10,minor
40325,70,72,53,77,1.0,3-10,minor
40326,51,56,36,355,4.0,5-16A,other
40327,43,75,47,237,0.0,4-20,major
40328,52,84,17,43,0.0,4-20,major
40329,43,62,101,313,8.0,5-31B,diminished
40330,72,95,13,481,7.0,1-1,other
40331,54,67,14,486,9.0,3-8A,major
40332,69,77,33,358,4.0,4-29A,minor
40333,71,77,19,41,4.0,4-29A,minor
40334,72,89,79,124,4.0,4-29A,minor
40335,39,85,13,70,4.0,4-29A,minor
40336,77,72,59,298,1.0,2-3,other
40337,75,72,10,304,0.0,4-26,minor
40338,44,79,301,243,10.0,3-11A,other
40339,54,73,36,119,0.0,4-20,other
40340,53,65,50,48,0.0,4-20,other
40341,52,68,34,70,0.0,4-20,other
40342,55,53,18,411,0.0,3-7A,minor
40343,68,73,25,70,0.0,3-7A,minor
40344,69,78,31,119,8.0,5-31B,other
40345,41,70,7,597,5.0,2-2,other
40346,53,57,44,368,5.0,3-12,augmented
40347,53,54,20,119,5.0,4-19B,other
40348,38,43,38,1095,0.0,4-22A,other
40349,39,44,21,42,0.0,4-22A,other
40350,46,20,764,0,3.0,2-4,major
40351,79,61,284,4680,4.0,5-15,other
40352,80,60,76,284,9.0,3-8B,other
40353,81,80,104,140,9.0,3-8B,other
40354,46,56,368,420,3.0,3-9,other
40355,55,63,72,160,3.0,3-9,other
40356,56,57,68,96,3.0,3-9,other
40357,58,61,56,104,3.0,3-9,other
40358,60,63,60,96,3.0,3-9,other
40359,59,37,120,152,8.0,3-8A,other
40360,41,65,136,4444,2.0,5-31B,major
40361,42,56,116,420,2.0,5-31B,major
40362,41,34,424,184,2.0,5-31B,major
40363,62,45,88,264,2.0,5-31B,major
40364,66,34,180,164,3.0,3-4B,other
40365,62,42,180,1660,8.0,2-6,other
40366,47,63,56,236,8.0,2-6,other
40367,60,39,88,632,5.0,3-6,other
40368,87,26,76,936,3.0,3-7A,other
40369,75,25,24,32,3.0,3-7A,other
40370,27,66,140,468,5.0,3-8B,other
40371,63,51,220,584,5.0,3-8B,other
40372,51,43,196,28,5.0,3-8B,other
40373,75,61,60,608,10.0,1-1,other
40374,56,42,32,408,10.0,3-11B,major
40375,56,41,72,376,10.0,2-4,major
40376,56,48,80,372,10.0,2-4,major
40377,60,60,36,788,5.0,3-9,other
40378,67,56,60,220,10.0,2-4,other
40379,66,44,64,40,10.0,2-4,other
40380,62,53,28,64,10.0,2-4,other
40381,65,66,60,64,10.0,2-4,other
40382,67,57,32,64,10.0,2-4,other
40383,65,37,36,40,10.0,2-4,other
40384,60,66,236,1332,3.0,4-14B,other
40385,57,25,24,28,3.0,4-14B,other
40386,56,37,44,260,3.0,4-14B,other
40387,56,52,384,1292,1.0,4-22B,other
40388,55,52,292,396,1.0,4-22B,other
40389,66,36,140,1740,1.0,4-26,minor
40390,65,59,88,2280,0.0,5-35,other
40391,67,65,64,728,9.0,4-27A,diminished
40392,67,66,72,136,9.0,4-27A,diminished
40393,67,49,40,492,0.0,3-4A,other
40394,51,48,108,1116,10.0,2-5,other
40395,55,51,148,160,10.0,2-5,other
40396,60,30,24,252,10.0,2-5,other
40397,58,49,20,124,10.0,2-5,other
40398,67,46,84,144,10.0,2-5,other
40399,74,82,152,120,10.0,2-5,other
40400,70,35,28,28,10.0,2-5,other
40401,70,50,80,236,5.0,2-4,major
40402,69,49,104,40,5.0,2-4,major
40403,68,56,56,92,5.0,2-4,major
40404,70,62,92,224,9.0,2-6,other
40405,71,85,104,120,9.0,2-6,other
40406,71,65,60,260,4.0,4-25,other
40407,72,81,164,132,4.0,4-25,other
40408,75,74,84,260,3.0,4-16A,major
40409,77,78,152,128,3.0,4-16A,major
40410,80,71,76,256,8.0,3-5B,other
40411,82,57,76,132,8.0,3-5B,other
40412,73,54,120,352,1.0,1-1,other
40413,85,45,76,32,1.0,1-1,other
40414,74,55,60,104,1.0,1-1,other
40415,67,57,52,28,1.0,1-1,other
40416,74,52,60,92,8.0,2-6,other
40417,86,39,52,68,8.0,2-6,other
40418,74,52,64,48,8.0,2-6,other
40419,86,56,56,68,8.0,2-6,other
40420,56,61,84,404,8.0,2-2,other
40421,47,67,140,2512,7.0,4-26,minor
40422,52,46,116,824,0.0,4-26,minor
40423,41,48,20,404,5.0,4-27B,major
40424,60,49,64,284,3.0,3-4A,major
40425,62,41,52,1628,1.0,2-5,other
40426,74,43,56,68,1.0,2-5,other
40427,62,40,64,56,1.0,2-5,other
40428,74,51,76,64,1.0,2-5,other
40429,62,51,72,76,1.0,2-5,other
40430,62,44,52,148,8.0,2-6,other
40431,74,48,52,60,8.0,2-6,other
40432,62,45,56,64,8.0,2-6,other
40433,74,50,64,64,8.0,2-6,other
40434,62,44,72,72,8.0,2-6,other
40435,74,48,64,64,8.0,2-6,other
40436,50,22,92,28,8.0,2-6,other
40437,62,41,52,44,8.0,2-6,other
40438,74,56,80,60,8.0,2-6,other
40439,85,47,28,772,5.0,3-6,other
40440,85,52,68,504,1.0,2-2,other
40441,87,49,52,312,1.0,4-22A,other
40442,87,56,60,104,1.0,4-22A,other
40443,55,24,32,172,5.0,2-4,other
40444,27,37,28,244,5.0,2-4,other
40445,55,63,52,712,0.0,3-7A,minor
40446,44,56,724,1352,0.0,3-11A,minor
40447,55,29,112,188,0.0,3-11A,minor
40448,51,33,232,432,10.0,2-4,major
40449,54,12,88,1728,9.0,4-19A,minor
40450,52,38,204,1260,10.0,3-6,major
40451,43,47,140,264,10.0,3-6,major
40452,48,32,116,420,1.0,3-10,minor
40453,46,45,28,1392,7.0,3-11A,minor
40454,43,32,72,476,0.0,2-4,major
40455,48,49,240,852,5.0,4-20,major
40456,52,36,72,860,4.0,4-26,minor
40457,67,55,48,528,4.0,3-7A,minor
40458,72,68,52,124,4.0,3-7A,minor
40459,80,58,92,676,9.0,3-11A,minor
40460,83,81,72,132,9.0,3-11A,minor
40461,57,26,192,180,0.0,3-8B,other
40462,81,64,96,112,0.0,3-8B,other
40463,76,55,28,144,0.0,3-8B,other
40464,81,55,56,220,9.0,3-3A,minor
40465,80,56,60,60,9.0,3-3A,minor
40466,76,47,20,64,9.0,3-3A,minor
40467,79,89,92,80,9.0,3-3A,minor
40468,81,64,56,172,9.0,3-11A,minor
40469,79,66,72,48,9.0,3-11A,minor
40470,76,52,48,64,9.0,3-11A,minor
40471,77,77,80,116,9.0,3-11A,minor
40472,54,32,200,176,6.0,3-8B,other
40473,81,78,52,244,6.0,3-8B,other
40474,63,48,104,292,9.0,4-26,minor
40475,61,39,96,276,2.0,4-26,minor
40476,43,49,28,544,2.0,3-11A,minor
40477,72,74,224,2152,3.0,4-16A,major
40478,68,57,72,2320,2.0,2-5,other
40479,72,54,44,260,6.0,3-10,diminished
40480,76,72,64,124,6.0,3-10,diminished
40481,81,76,236,288,0.0,4-24,augmented
40482,81,64,232,420,0.0,3-12,augmented
40483,58,39,628,292,3.0,3-4A,other
40484,54,55,252,392,3.0,3-4A,other
40485,43,54,296,1244,1.0,2-5,other
40486,78,37,28,488,5.0,4-14B,major
40487,57,36,24,216,10.0,4-22A,major
40488,53,26,28,660,10.0,5-27A,major
40489,52,43,188,304,10.0,4-22A,major
40490,58,28,32,916,0.0,3-11B,major
40491,53,49,68,824,7.0,3-11B,major
40492,41,62,212,228,7.0,3-11B,major
40493,41,41,240,428,7.0,4-22A,major
40494,67,5,84,252,11.0,4-26,minor
40495,67,42,116,308,11.0,3-7A,minor
40496,60,57,32,828,4.0,2-6,other
40497,61,50,64,44,4.0,2-6,other
40498,63,46,20,60,4.0,2-6,other
40499,64,54,28,36,4.0,2-6,other
40500,66,55,20,52,4.0,2-6,other
40501,69,57,24,112,7.0,2-1,other
40502,72,60,28,100,1.0,3-10,minor
40503,75,55,20,88,1.0,3-10,minor
40504,76,64,32,48,1.0,3-10,minor
40505,78,51,20,60,1.0,3-10,minor
40506,79,37,120,60,1.0,3-10,minor
40507,81,63,28,260,9.0,3-7B,other
40508,82,52,56,72,9.0,3-7B,other
40509,83,63,60,64,9.0,3-7B,other
40510,86,102,124,64,9.0,3-7B,other
40511,81,72,60,204,2.0,3-7B,other
40512,77,46,68,96,2.0,3-7B,other
40513,64,41,40,216,9.0,4-16B,major
40514,53,54,1220,1444,0.0,5-27A,other
40515,62,66,128,844,10.0,3-9,other
40516,56,51,28,208,10.0,3-9,other
40517,63,31,44,448,0.0,3-11B,major
40518,41,41,32,784,0.0,2-5,other
40519,38,14,104,952,4.0,4-27B,major
40520,74,117,116,2004,0.0,2-4,major
40521,62,50,24,124,0.0,2-4,major
40522,72,64,80,168,7.0,2-4,major
40523,76,82,84,144,7.0,2-4,major
40524,57,45,152,144,7.0,2-2,other
40525,86,122,328,136,7.0,2-2,other
40526,56,37,160,316,5.0,4-20,major
40527,76,85,108,716,4.0,4-26,minor
40528,71,50,64,148,4.0,4-26,minor
40529,71,46,44,144,4.0,4-26,minor
40530,74,66,108,136,4.0,4-26,minor
40531,72,50,48,208,9.0,3-7B,other
40532,72,53,76,116,9.0,3-7B,other
40533,68,62,72,124,9.0,3-7B,other
40534,71,61,56,136,0.0,3-4A,major
40535,71,58,104,140,0.0,3-4A,major
40536,69,57,76,140,0.0,3-4A,major
40537,68,56,96,144,2.0,2-2,other
40538,68,51,84,148,2.0,2-2,other
40539,69,60,92,124,2.0,2-2,other
40540,64,38,32,280,0.0,2-4,major
40541,57,41,80,116,0.0,2-4,major
40542,51,58,148,424,6.0,4-27A,diminished
40543,45,45,104,440,2.0,4-27B,major
40544,52,17,48,204,2.0,5-27B,minor
40545,74,75,60,2360,4.0,4-23,minor
40546,48,26,40,172,7.0,5-34,major
40547,67,57,72,620,7.0,3-11B,major
40548,55,22,60,172,4.0,3-7B,other
40549,47,42,100,232,4.0,3-7A,minor
40550,74,120,76,388,7.0,3-11B,major
40551,57,72,136,424,0.0,2-5,other
40552,56,56,140,164,0.0,2-5,other
40553,74,66,56,3960,10.0,5-27A,major
40554,60,44,80,176,10.0,5-27A,major
40555,60,33,36,424,10.0,4-22A,major
40556,48,48,20,1476,0.0,2-2,other
40557,52,36,336,188,4.0,2-6,other
40558,60,35,28,248,7.0,2-3,minor
40559,72,83,124,116,7.0,2-3,minor
40560,41,58,68,1604,9.0,4-23,minor
40561,60,67,200,2648,1.0,2-3,minor
40562,42,33,100,1780,5.0,2-4,major
40563,57,66,80,380,7.0,2-1,other
40564,58,66,52,100,7.0,2-1,other
40565,59,61,52,72,7.0,2-1,other
40566,60,52,52,68,7.0,2-1,other
40567,61,60,40,48,7.0,2-1,other
40568,62,66,44,56,7.0,2-1,other
40569,63,48,24,68,7.0,2-1,other
40570,64,61,52,44,7.0,2-1,other
40571,65,40,44,56,7.0,2-1,other
40572,66,65,88,44,7.0,2-1,other
40573,46,57,656,284,3.0,2-4,major
40574,55,75,404,180,3.0,2-4,major
40575,62,74,72,208,3.0,2-4,major
40576,67,107,112,168,3.0,2-4,major
40577,74,122,116,200,3.0,2-4,major
40578,60,57,28,412,0.0,3-4A,other
40579,70,66,60,428,7.0,4-26,minor
40580,70,56,24,196,7.0,4-26,minor
40581,71,55,24,108,7.0,4-26,minor
40582,74,81,104,96,7.0,4-26,minor
40583,74,68,60,308,0.0,2-2,other
40584,75,65,52,96,0.0,2-2,other
40585,79,80,48,100,0.0,2-2,other
40586,83,87,60,192,3.0,4-20,major
40587,86,117,92,88,3.0,4-20,major
40588,83,79,68,120,3.0,4-20,major
40589,79,49,36,224,0.0,2-3,minor
40590,75,60,44,96,0.0,2-3,minor
40591,76,48,32,328,9.0,3-8B,other
40592,78,85,108,88,9.0,3-8B,other
40593,77,70,96,268,4.0,4-25,other
40594,76,63,88,124,4.0,4-25,other
40595,75,68,108,264,9.0,4-27A,diminished
40596,72,64,88,116,9.0,4-27A,diminished
40597,65,49,40,264,3.0,3-9,other
40598,68,60,120,116,3.0,3-9,other
40599,65,52,40,276,10.0,2-5,other
40600,46,58,644,120,10.0,2-5,other
40601,60,35,28,284,10.0,2-5,other
40602,56,66,380,108,10.0,2-5,other
40603,63,54,24,276,0.0,2-3,minor
40604,46,55,292,108,0.0,2-3,minor
40605,46,52,124,388,7.0,3-11A,minor
40606,60,46,28,640,5.0,3-5B,other
40607,53,52,24,108,5.0,3-5B,other
40608,50,61,84,1164,2.0,2-3,minor
40609,48,48,116,768,0.0,4-17,other
40610,57,31,32,180,2.0,5-16A,other
40611,81,49,244,452,9.0,6-18A,diminished
40612,81,45,104,384,0.0,5-33,augmented
40613,83,68,196,244,0.0,5-33,augmented
40614,84,61,56,168,9.0,3-8B,other
40615,82,1,52,484,8.0,4-5B,other
40616,68,39,200,1572,1.0,4-23,other
40617,59,57,144,660,1.0,4-14B,other
40618,59,48,100,432,0.0,4-14B,other
40619,59,53,120,396,0.0,4-14B,other
40620,73,27,48,192,1.0,4-27B,other
40621,27,60,604,212,1.0,4-27B,other
40622,51,57,84,588,1.0,4-27B,other
40623,55,68,96,252,1.0,4-27B,other
40624,58,66,164,168,1.0,4-27B,other
40625,63,55,336,236,1.0,4-27B,other
40626,70,68,104,2528,7.0,4-23,minor
40627,68,50,100,1616,0.0,4-26,minor
40628,67,19,100,192,0.0,4-22A,other
40629,67,31,152,380,0.0,3-7A,minor
40630,49,35,428,384,3.0,3-11A,other
40631,53,52,112,220,3.0,3-11A,other
40632,55,40,112,156,3.0,3-11A,other
40633,56,57,408,120,3.0,3-11A,other
40634,58,64,336,400,3.0,2-4,other
40635,56,55,20,516,3.0,2-4,other
40636,53,42,28,3148,10.0,3-9,other
40637,55,36,72,2344,10.0,4-14B,major
40638,56,39,44,1300,9.0,3-10,diminished
40639,56,39,52,216,9.0,3-10,diminished
40640,67,44,92,1276,0.0,3-7A,minor
40641,56,28,36,136,0.0,3-7A,minor
40642,56,36,48,188,0.0,3-11A,minor
40643,39,57,64,1504,8.0,2-2,other
40644,32,49,144,572,7.0,2-5,other
40645,32,48,124,592,3.0,4-22A,major
40646,62,11,132,692,7.0,3-7A,minor
40647,57,36,156,1108,2.0,4-17,other
40648,70,51,56,1248,2.0,4-27B,major
40649,72,30,192,88,2.0,4-27B,major
40650,62,54,64,732,11.0,3-7A,minor
40651,57,52,172,1156,1.0,4-23,other
40652,58,49,404,188,1.0,4-23,other
40653,54,52,172,984,1.0,2-5,other
40654,73,1,92,92,1.0,2-5,other
40655,49,39,32,344,1.0,2-6,other
40656,53,55,184,1780,8.0,5-25B,other
40657,68,60,68,2504,10.0,5-33,augmented
40658,63,54,280,640,4.0,4-29A,minor
40659,67,64,56,976,0.0,4-21,major
40660,56,36,248,272,3.0,3-9,other
40661,48,48,288,196,3.0,3-9,other
40662,53,51,44,200,3.0,3-9,other
40663,47,66,1580,1516,3.0,4-29A,other
40664,49,52,28,260,3.0,4-29A,other
40665,51,58,16,56,3.0,4-29A,other
40666,54,62,20,48,3.0,4-29A,other
40667,56,60,16,40,3.0,4-29A,other
40668,58,68,20,32,3.0,4-29A,other
40669,61,67,20,48,3.0,4-29A,other
40670,63,68,16,32,3.0,4-29A,other
40671,66,70,20,40,3.0,4-29A,other
40672,68,68,20,32,3.0,4-29A,other
40673,70,66,20,32,3.0,4-29A,other
40674,73,66,20,44,3.0,4-29A,other
40675,75,63,16,36,3.0,4-29A,other
40676,78,64,16,48,3.0,4-29A,other
40677,80,62,20,36,3.0,4-29A,other
40678,82,61,16,36,3.0,4-29A,other
40679,85,60,16,52,3.0,4-29A,other
40680,87,60,16,32,3.0,4-29A,other
40681,90,62,20,48,3.0,4-29A,other
40682,92,57,20,36,3.0,4-29A,other
40683,94,57,20,36,3.0,4-29A,other
40684,97,58,24,52,3.0,4-29A,other
40685,99,56,28,44,3.0,4-29A,other
40686,102,56,32,60,3.0,4-29A,other
40687,104,65,20,40,3.0,4-29A,other
40688,106,39,76,44,3.0,4-29A,other
40689,60,39,252,1412,7.0,2-5,other
40690,51,42,2444,524,3.0,2-4,major
40691,58,42,2364,60,3.0,2-4,major
40692,62,38,2268,64,3.0,2-4,major
40693,67,41,60,44,3.0,2-4,major
40694,69,34,28,72,3.0,2-4,major
40695,70,60,20,28,3.0,2-4,major
40696,72,56,68,60,3.0,2-4,major
40697,74,44,24,76,3.0,2-4,major
40698,75,53,20,36,3.0,2-4,major
40699,77,58,52,56,3.0,2-4,major
40700,79,37,28,60,3.0,2-4,major
40701,81,39,20,48,3.0,2-4,major
40702,82,54,20,32,3.0,2-4,major
40703,84,49,64,64,3.0,2-4,major
40704,86,49,248,80,3.0,2-4,major
40705,87,39,28,260,3.0,2-4,major
40706,89,52,52,60,3.0,2-4,major
40707,91,47,52,72,3.0,2-4,major
40708,93,43,24,60,3.0,2-4,major
40709,94,52,20,48,3.0,2-4,major
40710,96,68,52,68,3.0,2-4,major
40711,98,56,52,80,3.0,2-4,major
40712,99,44,32,68,3.0,2-4,major
40713,101,57,96,76,3.0,2-4,major
40714,103,55,48,120,3.0,2-4,major
40715,105,63,92,116,3.0,2-4,major
40716,106,57,80,152,3.0,2-4,major
40717,108,55,180,160,3.0,2-4,major
40718,106,48,112,192,3.0,2-4,major
40719,106,54,1528,212,3.0,2-4,major
40720,62,88,1216,0,,,
40721,41,56,838,40,,,
40722,39,52,648,903,,,
40723,38,41,963,778,1.0,2-1,other
40724,56,69,236,304,1.0,2-1,other
40725,57,75,1159,187,1.0,2-1,other
40726,42,51,904,550,1.0,2-1,other
40727,39,42,262,729,1.0,2-1,other
40728,53,46,231,53,1.0,2-1,other
40729,43,45,839,241,1.0,2-1,other
40730,55,56,601,60,1.0,2-1,other
40731,57,77,184,591,1.0,2-1,other
40732,37,43,823,184,1.0,2-1,other
40733,48,54,455,194,1.0,2-1,other
40734,48,73,148,565,1.0,2-1,other
40735,36,45,594,217,1.0,2-1,other
40736,43,51,188,754,1.0,2-1,other
40737,46,58,688,219,1.0,2-1,other
40738,44,45,240,741,1.0,2-1,other
40739,64,54,456,334,9.0,2-4,major
40740,49,37,746,901,9.0,2-4,major
40741,70,68,559,31,9.0,2-4,major
40742,64,46,268,93,9.0,2-4,major
40743,46,46,206,567,9.0,2-4,major
40744,64,57,503,330,2.0,4-27B,major
40745,38,66,911,681,2.0,4-27B,major
40746,62,68,84,62,2.0,4-27B,major
40747,42,31,100,798,2.0,4-27B,major
40748,31,52,61,1013,11.0,3-5A,other
40749,62,41,252,338,7.0,2-3,minor
40750,36,52,1196,566,7.0,2-3,minor
40751,58,82,1112,42,7.0,2-3,minor
40752,43,74,314,964,2.0,3-9,other
40753,58,55,344,324,2.0,3-9,other
40754,52,55,90,777,2.0,3-9,other
40755,63,61,712,1190,3.0,3-11A,other
40756,62,37,207,991,2.0,3-11A,minor
40757,61,62,559,881,2.0,3-11A,minor
40758,58,43,336,50,2.0,3-11A,minor
40759,45,43,662,39,2.0,3-11A,minor
40760,46,54,712,712,2.0,2-5,other
40761,62,55,471,1266,2.0,2-5,other
40762,46,40,104,75,2.0,2-5,other
40763,53,23,142,1667,8.0,4-28,diminished
40764,64,48,328,157,8.0,2-6,other
40765,62,50,222,1597,9.0,2-3,minor
40766,69,44,199,867,0.0,2-2,other
40767,62,60,489,3136,7.0,2-3,minor
40768,52,56,666,31,7.0,2-3,minor
40769,53,45,81,762,5.0,2-5,other
40770,57,50,122,30,5.0,2-5,other
40771,46,46,129,1853,0.0,2-1,other
40772,61,46,203,101,0.0,2-1,other
40773,62,60,767,102,0.0,2-1,other
40774,60,61,795,933,0.0,2-1,other
40775,42,36,112,710,0.0,2-1,other
40776,44,48,81,61,0.0,2-1,other
40777,56,57,345,41,0.0,2-1,other
40778,38,50,943,1112,9.0,1-1,other
40779,43,51,916,950,9.0,1-1,other
40780,55,45,566,41,9.0,1-1,other
40781,37,44,811,894,9.0,1-1,other
40782,62,76,336,650,9.0,1-1,other
40783,36,34,809,252,9.0,1-1,other
40784,60,61,666,276,9.0,1-1,other
40785,50,72,1181,558,9.0,1-1,other
40786,46,57,838,215,9.0,1-1,other
40787,39,31,120,875,9.0,1-1,other
40788,45,57,950,120,9.0,1-1,other
40789,39,49,830,985,9.0,1-1,other
40790,57,107,348,668,9.0,1-1,other
40791,38,41,889,174,9.0,1-1,other
40792,56,54,414,273,9.0,1-1,other
40793,57,66,255,520,9.0,1-1,other
40794,42,49,817,265,9.0,1-1,other
40795,60,66,549,94,9.0,1-1,other
40796,39,46,217,549,9.0,1-1,other
40797,67,83,321,52,9.0,1-1,other
40798,43,49,1025,165,9.0,1-1,other
40799,65,63,745,286,9.0,1-1,other
40800,46,39,159,1336,11.0,1-1,other
40801,64,79,606,60,11.0,1-1,other
40802,48,54,685,149,11.0,1-1,other
40803,36,66,65,752,11.0,1-1,other
40804,69,74,223,692,4.0,4-25,other
40805,72,90,1047,434,4.0,4-25,other
40806,56,62,607,1202,7.0,3-9,other
40807,62,40,123,730,9.0,2-3,minor
40808,50,57,489,1011,5.0,2-5,other
40809,53,30,691,2019,5.0,2-4,major
40810,59,50,351,40,5.0,2-4,major
40811,62,45,842,40,5.0,2-4,major
40812,72,68,564,3062,8.0,3-10,minor
40813,69,37,648,104,9.0,2-3,minor
40814,62,39,104,638,9.0,2-3,minor
40815,73,36,343,1327,9.0,3-5B,other
40816,76,54,382,29,9.0,3-5B,other
40817,69,14,294,40,9.0,3-5B,other
40818,57,58,1379,2498,2.0,2-2,other
40819,62,122,510,2024,2.0,2-2,other
40820,63,52,71,51,2.0,2-2,other
40821,63,75,336,448,2.0,2-2,other
40822,62,46,296,163,2.0,2-2,other
40823,41,47,3125,279,2.0,2-2,other
40824,60,41,449,43,2.0,2-2,other
40825,62,82,278,578,2.0,2-2,other
40826,48,42,107,171,2.0,2-2,other
40827,63,66,309,235,2.0,2-2,other
40828,64,78,170,553,2.0,2-2,other
40829,48,45,234,54,2.0,2-2,other
40830,53,39,514,1211,5.0,1-1,other
40831,48,56,171,585,5.0,1-1,other
40832,64,40,91,61,5.0,1-1,other
40833,65,55,553,272,5.0,1-1,other
40834,53,29,372,70,5.0,3-11B,major
40835,53,29,91,705,0.0,2-3,minor
40836,48,66,206,1713,9.0,3-10,diminished
40837,67,75,1189,964,9.0,3-8B,other
40838,46,61,1568,33,9.0,3-8B,other
40839,62,66,649,108,6.0,2-3,minor
40840,53,26,106,1022,6.0,2-3,minor
40841,62,56,235,211,5.0,3-9,other
40842,60,57,226,1002,9.0,2-6,other
40843,56,68,222,2524,2.0,3-11A,minor
40844,55,58,373,312,2.0,3-11A,minor
40845,54,59,242,625,2.0,3-11A,minor
40846,58,56,1009,324,2.0,3-11A,minor
40847,62,52,957,62,5.0,1-1,other
40848,50,65,250,655,5.0,1-1,other
40849,65,61,765,915,9.0,4-23,minor
40850,62,81,343,974,9.0,4-23,minor
40851,50,35,171,60,9.0,4-23,minor
40852,65,69,462,331,9.0,4-23,minor
40853,43,49,222,1667,7.0,4-27B,major
40854,62,63,425,269,7.0,4-27B,major
40855,65,33,492,1022,9.0,3-7A,minor
40856,60,21,134,991,7.0,1-1,other
40857,43,46,1035,604,9.0,3-9,other
40858,31,75,203,857,9.0,3-9,other
40859,70,63,1516,1279,9.0,3-9,other
40860,60,70,1346,645,2.0,2-3,minor
40861,60,70,1426,1976,8.0,2-3,other
40862,72,61,1243,1245,8.0,2-3,other
40863,60,66,1390,675,10.0,3-11B,major
40864,73,61,1172,1244,10.0,3-11B,major
40865,64,32,1070,62,8.0,2-2,other
40866,60,68,744,652,8.0,2-2,other
40867,67,68,749,2183,9.0,2-3,minor
40868,62,37,778,67,9.0,2-3,minor
40869,44,64,666,2095,2.0,2-5,other
40870,65,81,622,45,2.0,2-5,other
40871,54,39,444,33,2.0,2-5,other
40872,43,36,288,767,2.0,2-3,minor
40873,59,26,93,648,9.0,2-6,other
40874,46,64,860,2030,0.0,2-4,major
40875,56,50,702,30,0.0,2-4,major
40876,60,48,243,2841,2.0,2-5,other
40877,69,63,291,3337,1.0,2-6,other
40878,36,66,280,948,9.0,3-11B,major
40879,52,57,432,35,9.0,3-11B,major
40880,69,40,252,1504,1.0,3-10,diminished
40881,71,35,91,30,1.0,3-10,diminished
40882,74,42,81,172,1.0,3-10,diminished
40883,67,36,194,809,5.0,2-5,other
40884,62,36,164,31,5.0,2-5,other
40885,58,63,866,857,4.0,3-2A,minor
40886,64,48,548,79,8.0,2-6,other
40887,69,42,149,269,8.0,2-6,other
40888,72,66,376,579,8.0,2-6,other
40889,46,50,1271,915,7.0,3-9,other
40890,53,28,1403,173,2.0,2-3,minor
40891,62,54,535,813,2.0,2-3,minor
40892,73,39,136,1382,11.0,1-1,other
40893,74,107,357,571,11.0,1-1,other
40894,57,56,1686,655,0.0,1-1,other
40895,62,78,1178,885,0.0,1-1,other
40896,69,72,625,1293,0.0,1-1,other
40897,58,43,202,333,1.0,2-3,other
40898,61,57,406,636,1.0,2-3,other
40899,64,31,802,1121,1.0,2-6,other
40900,60,52,1132,1554,5.0,2-4,major
40901,62,36,1092,60,5.0,2-4,major
40902,40,58,464,811,5.0,2-4,major
40903,41,29,2437,462,5.0,2-4,major
40904,62,115,2672,877,5.0,2-4,major
40905,39,41,109,1556,5.0,2-4,major
40906,38,44,884,288,5.0,2-4,major
40907,43,36,661,1866,2.0,2-3,minor
40908,34,35,277,747,2.0,2-3,minor
40909,37,39,626,306,2.0,2-3,minor
40910,52,60,84,608,2.0,2-3,minor
40911,36,39,533,159,2.0,2-3,minor
40912,39,26,187,727,2.0,2-3,minor
40913,55,67,430,937,4.0,2-6,other
40914,39,54,810,1337,2.0,3-4B,other
40915,38,48,647,944,2.0,3-4B,other
40916,66,23,324,765,0.0,3-11B,other
40917,44,41,677,29,0.0,3-11B,other
40918,60,60,331,520,3.0,2-5,other
40919,39,44,384,181,3.0,2-5,other
40920,59,66,561,436,4.0,2-3,minor
40921,37,57,681,782,4.0,2-3,minor
40922,36,55,1287,782,10.0,4-19B,augmented
40923,58,64,571,1310,10.0,4-19B,augmented
40924,66,30,519,125,4.0,2-3,minor
40925,41,63,1809,903,7.0,3-9,other
40926,66,63,505,931,7.0,3-9,other
40927,57,63,438,67,1.0,2-2,other
40928,50,52,771,657,5.0,3-9,other
40929,45,73,1257,830,5.0,3-9,other
40930,46,51,637,1314,5.0,3-9,other
40931,57,69,527,50,5.0,3-9,other
40932,58,70,298,586,5.0,3-9,other
40933,46,45,955,130,5.0,3-9,other
40934,59,48,342,300,5.0,3-9,other
40935,44,43,262,443,5.0,3-9,other
40936,62,74,272,50,5.0,3-9,other
40937,47,41,684,181,5.0,3-9,other
40938,65,50,359,239,5.0,3-9,other
40939,68,88,261,533,5.0,3-9,other
40940,46,36,152,43,5.0,3-9,other
40941,47,39,783,54,5.0,3-9,other
40942,71,75,426,318,5.0,3-9,other
40943,46,52,287,406,5.0,3-9,other
40944,74,94,238,109,5.0,3-9,other
40945,48,45,574,168,5.0,3-9,other
40946,72,57,423,199,5.0,3-9,other
40947,69,76,334,556,5.0,3-9,other
40948,48,42,1680,189,5.0,3-9,other
40949,65,55,529,222,5.0,3-9,other
40950,60,47,127,634,5.0,3-9,other
40951,36,52,2315,254,5.0,3-9,other
40952,69,79,400,84,5.0,3-9,other
40953,67,50,295,43,5.0,3-9,other
40954,64,78,337,558,5.0,3-9,other
40955,48,41,822,116,5.0,3-9,other
40956,61,44,501,307,5.0,3-9,other
40957,57,36,96,597,5.0,3-9,other
40958,43,50,139,32,5.0,3-9,other
40959,67,84,487,265,5.0,3-9,other
40960,60,43,500,965,0.0,2-4,major
40961,46,35,102,459,0.0,2-4,major
40962,47,57,71,122,9.0,2-3,minor
40963,59,50,187,424,9.0,2-3,minor
40964,65,50,230,263,9.0,2-3,minor
40965,59,51,230,175,9.0,2-3,minor
40966,48,47,878,132,9.0,2-3,minor
40967,53,38,77,165,9.0,2-3,minor
40968,61,41,144,256,10.0,2-4,major
40969,40,46,92,739,0.0,2-4,other
40970,53,70,185,874,5.0,2-4,major
40971,37,40,174,174,5.0,2-4,major
40972,50,50,206,146,5.0,2-4,major
40973,39,30,536,165,5.0,2-4,major
40974,53,53,371,113,5.0,2-4,major
40975,55,85,433,289,5.0,2-4,major
40976,53,64,670,268,5.0,2-4,major
40977,38,57,898,50,5.0,2-4,major
40978,44,52,730,929,5.0,2-4,major
40979,39,48,296,782,5.0,2-4,major
40980,43,58,946,239,5.0,2-4,major
40981,55,55,259,1345,1.0,2-6,other
40982,54,64,200,210,1.0,2-6,other
40983,57,86,346,969,0.0,2-5,other
40984,43,50,508,43,0.0,2-5,other
40985,46,56,521,327,0.0,2-5,other
40986,58,63,295,29,0.0,2-5,other
40987,59,79,285,492,0.0,2-5,other
40988,43,48,207,49,0.0,2-5,other
40989,45,48,915,256,0.0,2-5,other
40990,60,75,402,70,0.0,2-5,other
40991,57,41,169,540,0.0,2-5,other
40992,58,41,148,264,0.0,2-5,other
40993,39,36,592,63,0.0,2-5,other
40994,60,50,106,191,0.0,2-5,other
40995,61,56,349,232,0.0,2-5,other
40996,63,76,180,296,0.0,2-5,other
40997,38,35,1618,233,0.0,2-5,other
40998,64,55,211,32,0.0,2-5,other
40999,65,56,77,427,0.0,2-5,other
41000,66,79,187,495,0.0,2-5,other
41001,50,56,187,77,0.0,2-5,other
41002,67,68,92,266,0.0,2-5,other
41003,43,57,688,881,8.0,2-2,other
41004,69,57,79,29,8.0,2-2,other
41005,70,82,216,551,8.0,2-2,other
41006,47,48,658,176,8.0,2-2,other
41007,71,63,216,226,8.0,2-2,other
41008,46,51,247,452,8.0,2-2,other
41009,74,120,226,114,8.0,2-2,other
41010,47,57,206,72,8.0,2-2,other
41011,48,52,1380,248,8.0,2-2,other
41012,77,127,374,62,8.0,2-2,other
41013,76,111,301,571,8.0,2-2,other
41014,36,47,93,124,8.0,2-2,other
41015,75,68,298,331,8.0,2-2,other
41016,73,76,292,865,2.0,2-2,other
41017,41,66,1358,28,2.0,2-2,other
41018,72,90,330,519,2.0,2-2,other
41019,57,42,245,113,2.0,2-2,other
41020,69,36,247,328,2.0,2-2,other
41021,70,86,258,484,2.0,2-2,other
41022,45,48,1484,357,2.0,2-2,other
41023,69,79,393,39,2.0,2-2,other
41024,65,85,197,491,2.0,2-2,other
41025,60,48,352,364,2.0,2-2,other
41026,48,55,111,604,2.0,2-2,other
41027,65,81,483,282,2.0,2-2,other
41028,46,32,500,91,2.0,2-2,other
41029,53,39,117,575,2.0,2-2,other
41030,46,44,851,256,2.0,2-2,other
41031,58,41,403,158,2.0,2-2,other
41032,59,72,248,558,2.0,2-2,other
41033,47,59,621,124,2.0,2-2,other
41034,65,72,648,271,2.0,2-2,other
41035,53,44,350,42,2.0,2-2,other
41036,46,48,178,1395,11.0,2-6,other
41037,60,61,1490,105,11.0,2-6,other
41038,65,35,1574,32,11.0,2-6,other
41039,48,48,661,52,11.0,2-6,other
41040,57,1,578,641,11.0,2-6,other
41041,47,56,315,200,11.0,2-6,other
41042,48,48,547,378,11.0,2-6,other
41043,36,45,105,652,11.0,2-6,other
41044,64,72,356,1269,9.0,3-11A,minor
41045,48,49,193,31,9.0,3-11A,minor
41046,57,40,132,30,9.0,3-11A,minor
41047,58,58,1239,937,9.0,3-11A,minor
41048,48,71,1313,652,9.0,3-11A,minor
41049,65,72,1712,1397,1.0,4-28,diminished
41050,46,48,194,1626,0.0,2-1,other
41051,62,85,837,1038,5.0,2-1,other
41052,60,71,317,1601,11.0,2-6,other
41053,53,52,972,240,11.0,2-6,other
41054,62,50,401,232,11.0,2-6,other
41055,63,73,334,479,11.0,2-6,other
41056,48,49,992,190,11.0,2-6,other
41057,64,45,394,282,11.0,2-6,other
41058,66,78,374,508,11.0,2-6,other
41059,41,47,83,135,11.0,2-6,other
41060,68,62,431,272,11.0,2-6,other
41061,71,69,302,539,11.0,2-6,other
41062,58,49,536,479,5.0,3-7B,other
41063,73,78,299,474,5.0,3-7B,other
41064,74,82,402,361,5.0,3-7B,other
41065,63,26,115,702,3.0,3-7B,other
41066,62,60,801,303,5.0,1-1,other
41067,74,39,296,1069,9.0,2-2,other
41068,77,84,285,515,9.0,2-2,other
41069,57,72,874,1049,3.0,2-4,major
41070,77,68,694,855,3.0,2-4,major
41071,60,61,1107,91,2.0,3-11A,minor
41072,77,70,392,1342,2.0,3-11A,minor
41073,65,68,231,493,2.0,2-5,other
41074,74,58,270,437,2.0,3-7A,minor
41075,74,70,291,539,2.0,3-7A,minor
41076,53,63,322,32,2.0,3-7A,minor
41077,69,57,212,394,2.0,3-7A,minor
41078,69,75,164,472,2.0,3-7A,minor
41079,65,67,258,388,2.0,3-7A,minor
41080,43,49,330,557,7.0,2-2,other
41081,62,37,196,415,7.0,2-2,other
41082,62,65,65,522,7.0,2-2,other
41083,50,56,76,239,7.0,2-2,other
41084,43,51,174,32,7.0,2-2,other
41085,57,63,369,140,7.0,2-2,other
41086,53,23,133,144,7.0,2-2,other
41087,43,81,174,369,7.0,2-2,other
41088,31,56,2828,123,7.0,2-2,other
41089,43,62,680,1808,6.0,2-5,other
41090,55,48,218,418,11.0,2-3,minor
41091,38,40,98,359,11.0,2-3,minor
41092,54,24,305,305,0.0,4-19B,other
41093,51,67,247,1826,2.0,2-3,minor
41094,43,67,1738,364,2.0,2-3,minor
41095,50,50,116,1684,5.0,1-1,other
41096,56,70,622,1023,8.0,3-10,other
41097,72,72,1297,839,8.0,3-10,other
41098,48,57,275,949,2.0,3-7A,minor
41099,48,42,3759,420,2.0,3-7A,minor
41100,73,65,1637,576,2.0,3-7A,minor
41101,55,48,141,957,4.0,3-8B,other
41102,58,49,159,345,4.0,3-8B,other
41103,64,56,159,731,8.0,2-6,other
41104,58,46,95,42,8.0,2-6,other
41105,58,43,247,347,4.0,3-8A,major
41106,69,46,336,1166,4.0,4-25,other
41107,67,68,193,727,9.0,2-3,minor
41108,62,45,318,39,9.0,2-3,minor
41109,62,44,588,674,5.0,3-11B,major
41110,53,45,308,39,5.0,3-11B,major
41111,43,51,618,1284,4.0,3-5B,other
41112,67,10,535,581,4.0,3-5B,other
41113,36,45,215,1226,3.0,2-4,other
41114,52,43,299,75,10.0,2-4,major
41115,55,56,376,1706,8.0,3-8A,other
41116,49,45,198,1685,9.0,3-5A,other
41117,68,40,640,248,0.0,3-2B,minor
41118,59,82,1615,1552,6.0,3-8A,other
41119,43,49,891,166,6.0,3-8A,other
41120,53,39,391,39,6.0,3-8A,other
41121,46,48,200,801,6.0,3-8A,other
41122,67,66,462,231,6.0,3-8A,other
41123,47,51,786,73,6.0,3-8A,other
41124,46,34,102,674,6.0,3-8A,other
41125,48,60,786,122,10.0,2-4,other
41126,36,66,415,821,10.0,2-4,other
41127,66,57,67,377,0.0,2-5,other
41128,57,56,637,945,5.0,4-27B,major
41129,57,39,153,900,3.0,3-6,major
41130,71,36,191,1028,9.0,2-3,minor
41131,45,60,443,825,9.0,2-3,minor
41132,57,64,432,961,10.0,3-11B,major
41133,53,44,1521,40,10.0,3-11B,major
41134,62,63,205,593,10.0,3-11B,major
41135,57,47,248,65,10.0,3-11B,major
41136,65,55,392,361,10.0,3-11B,major
41137,47,71,201,564,9.0,2-1,other
41138,67,51,81,504,3.0,2-1,other
41139,73,38,122,558,8.0,2-3,other
41140,65,60,134,316,2.0,1-1,other
41141,68,43,93,62,2.0,1-1,other
41142,60,24,661,661,5.0,3-11B,other
41143,72,76,349,214,5.0,3-11B,other
41144,64,41,120,80,5.0,3-11B,other
41145,62,34,299,539,5.0,2-4,major
41146,36,74,172,795,5.0,2-4,major
41147,64,61,994,2447,9.0,5-31B,major
41148,41,55,368,3376,2.0,5-35,minor
41149,76,71,63,116,2.0,2-5,other
41150,62,53,338,1099,2.0,2-5,other
41151,60,45,189,49,2.0,2-5,other
41152,57,32,209,60,2.0,2-5,other
41153,84,66,347,606,2.0,2-5,other
41154,60,39,563,293,2.0,2-5,other
41155,50,30,477,75,2.0,2-5,other
41156,53,58,1758,1652,9.0,2-3,minor
41157,62,41,412,420,9.0,2-3,minor
41158,58,39,461,39,9.0,2-3,minor
41159,79,70,226,461,9.0,2-3,minor
41160,58,46,1059,265,2.0,2-5,other
41161,79,61,207,163,2.0,2-5,other
41162,78,50,176,197,2.0,2-5,other
41163,79,63,238,290,2.0,2-5,other
41164,82,85,254,643,9.0,2-5,other
41165,84,85,235,414,9.0,2-5,other
41166,58,57,226,28,9.0,2-5,other
41167,62,53,818,38,9.0,2-5,other
41168,86,71,341,319,9.0,2-5,other
41169,88,56,303,904,3.0,2-4,major
41170,96,98,351,889,9.0,3-11B,major
41171,94,54,72,52,9.0,3-11B,major
41172,99,89,294,1024,6.0,2-2,other
41173,98,66,254,431,6.0,2-2,other
41174,96,60,363,433,0.0,2-4,major
41175,94,89,321,524,0.0,2-4,major
41176,53,71,1614,64,0.0,2-4,major
41177,95,81,337,405,0.0,2-4,major
41178,91,94,263,505,0.0,2-4,major
41179,86,49,384,454,4.0,2-5,other
41180,93,66,303,968,4.0,2-6,other
41181,91,85,272,494,4.0,2-6,other
41182,89,61,465,404,10.0,2-4,major
41183,88,60,91,589,10.0,2-4,major
41184,63,35,147,91,10.0,2-4,major
41185,91,85,839,272,10.0,2-4,major
41186,67,52,340,134,9.0,2-6,other
41187,58,64,699,844,9.0,2-6,other
41188,67,46,320,922,8.0,2-3,other
41189,77,36,103,691,2.0,3-5B,other
41190,57,40,589,268,3.0,2-4,major
41191,65,48,338,728,2.0,1-1,other
41192,62,44,1086,61,2.0,1-1,other
41193,60,43,984,82,2.0,1-1,other
41194,53,54,2706,719,1.0,1-1,other
41195,84,59,205,431,1.0,1-1,other
41196,72,54,216,54,1.0,1-1,other
41197,71,69,249,594,8.0,3-10,diminished
41198,77,74,284,1274,11.0,2-3,minor
41199,65,57,379,53,11.0,2-3,minor
41200,48,71,1349,1515,9.0,2-3,minor
41201,60,57,222,375,5.0,3-11B,major
41202,48,77,252,1561,4.0,3-5A,other
41203,48,66,1840,412,4.0,3-5A,other
41204,58,70,850,570,4.0,3-5A,other
41205,64,57,460,60,7.0,2-5,other
41206,51,48,279,916,7.0,2-5,other
41207,65,65,426,300,7.0,2-5,other
41208,60,52,416,71,5.0,2-4,major
41209,60,45,333,983,5.0,2-4,major
41210,62,25,276,86,5.0,2-4,major
41211,60,50,582,823,5.0,2-4,major
41212,60,42,571,879,2.0,2-2,other
41213,62,23,401,140,5.0,2-4,major
41214,48,75,1413,542,5.0,2-4,major
41215,62,37,400,435,9.0,2-3,minor
41216,49,64,188,2482,9.0,2-3,minor
41217,55,79,897,294,9.0,2-3,minor
41218,60,69,226,1554,2.0,3-7B,other
41219,48,60,1196,30,2.0,3-7B,other
41220,58,70,161,862,6.0,2-6,other
41221,64,54,85,28,6.0,2-6,other
41222,73,75,363,563,6.0,2-6,other
41223,68,73,322,42,6.0,2-6,other
41224,45,77,1028,1305,9.0,4-15B,other
41225,61,32,295,224,9.0,4-15B,other
41226,43,63,198,3662,5.0,4-16A,major
41227,36,62,262,1930,4.0,3-8B,other
41228,45,76,1265,3935,1.0,2-2,other
41229,46,71,918,1906,10.0,3-4A,major
41230,47,63,973,983,8.0,4-28,diminished
41231,35,74,186,865,8.0,4-28,diminished
41232,67,61,501,1465,9.0,2-3,minor
41233,76,66,264,2826,4.0,2-6,other
41234,73,49,185,53,9.0,3-5B,other
41235,64,59,846,872,9.0,5-31B,major
41236,79,122,349,2626,0.0,2-5,other
41237,74,73,393,392,0.0,2-5,other
41238,77,89,314,454,0.0,2-5,other
41239,63,69,169,294,0.0,2-5,other
41240,75,67,337,56,10.0,2-5,other
41241,78,69,333,1908,6.0,2-5,other
41242,77,66,167,628,0.0,2-5,other
41243,78,63,399,1707,5.0,2-4,major
41244,57,68,922,1027,1.0,4-22A,other
41245,76,63,197,929,1.0,4-22A,other
41246,72,52,166,52,1.0,4-22A,other
41247,63,54,83,31,1.0,4-22A,other
41248,53,31,125,52,1.0,4-22A,other
41249,65,56,408,1077,10.0,2-4,major
41250,46,48,2369,34,10.0,2-4,major
41251,57,39,329,57,10.0,2-4,major
41252,52,64,328,770,10.0,2-4,major
41253,58,31,462,440,2.0,2-3,minor
41254,57,51,741,943,5.0,2-4,other
41255,41,68,209,551,5.0,2-4,other
41256,57,37,173,382,5.0,2-4,other
41257,65,52,2481,639,2.0,2-5,other
41258,56,78,216,922,2.0,2-5,other
41259,55,59,147,469,2.0,2-5,other
41260,54,65,206,559,2.0,2-5,other
41261,53,55,1588,342,2.0,2-5,other
41262,43,76,3474,598,2.0,2-5,other
41263,50,40,607,1014,2.0,2-5,other
41264,53,60,84,754,2.0,2-5,other
41265,50,37,1637,63,2.0,2-5,other
41266,55,46,73,189,2.0,2-5,other
41267,55,55,110,172,2.0,2-5,other
41268,57,75,160,240,2.0,2-5,other
41269,57,61,120,280,2.0,2-5,other
41270,59,40,90,250,2.0,2-5,other
41271,59,75,75,210,2.0,2-5,other
41272,60,82,161,226,2.0,2-5,other
41273,60,45,204,225,2.0,2-5,other
41274,62,71,75,268,2.0,2-5,other
41275,62,58,125,253,2.0,2-5,other
41276,64,78,177,188,2.0,2-5,other
41277,64,79,177,250,2.0,2-5,other
41278,65,44,407,334,9.0,2-3,minor
41279,67,84,299,491,9.0,2-3,minor
41280,65,61,663,107,9.0,2-3,minor
41281,60,22,1101,43,9.0,2-3,minor
41282,68,72,325,429,9.0,2-3,minor
41283,69,90,260,508,9.0,2-3,minor
41284,71,84,284,925,11.0,2-6,other
41285,72,75,375,385,11.0,2-6,other
41286,73,74,272,563,11.0,2-6,other
41287,74,52,376,397,10.0,2-4,major
41288,70,71,1509,567,10.0,2-4,major
41289,60,68,1456,64,10.0,2-4,major
41290,48,66,266,906,10.0,2-4,major
41291,48,63,1199,432,10.0,2-4,major
41292,48,72,237,1646,11.0,3-10,diminished
41293,48,59,1226,405,11.0,3-10,diminished
41294,62,63,1137,663,5.0,2-5,other
41295,48,68,1891,830,5.0,2-5,other
41296,60,68,429,422,5.0,2-5,other
41297,66,68,70,698,0.0,2-1,other
41298,58,72,786,1197,4.0,3-8A,major
41299,69,44,283,275,4.0,3-8A,major
41300,72,60,328,588,4.0,3-8A,major
41301,65,38,210,1912,2.0,3-7B,other
41302,62,40,116,32,2.0,3-7B,other
41303,67,68,326,620,2.0,3-7B,other
41304,59,51,74,997,2.0,2-5,other
41305,37,54,287,127,2.0,2-5,other
41306,36,46,264,941,0.0,2-2,other
41307,52,50,264,879,0.0,2-2,other
41308,52,52,183,996,8.0,2-2,other
41309,49,72,284,1800,1.0,4-28,diminished
41310,50,68,902,343,1.0,2-5,other
41311,38,68,196,608,9.0,2-3,minor
41312,62,70,726,29,9.0,2-3,minor
41313,62,66,1006,907,7.0,3-8A,major
41314,46,51,154,939,7.0,3-8A,major
41315,45,37,96,29,7.0,3-8A,major
41316,36,85,205,1861,0.0,2-4,major
41317,86,48,132,1192,4.0,2-3,minor
41318,81,44,76,2301,9.0,2-6,other
41319,46,42,1013,1871,4.0,2-5,other
41320,57,40,427,43,4.0,2-5,other
41321,62,61,256,555,4.0,2-5,other
41322,57,50,149,74,4.0,2-5,other
41323,53,37,96,75,4.0,2-5,other
41324,62,52,68,734,8.0,3-10,minor
41325,62,57,220,3251,5.0,3-11B,major
41326,24,48,61,1842,9.0,4-17,other
41327,62,55,162,50,9.0,4-17,other
41328,41,42,163,2668,5.0,3-9,other
41329,101,77,1941,1574,5.0,3-9,other
41330,46,55,59,0,3.0,1-1,other
41331,77,86,7,158,3.0,2-4,major
41332,75,97,34,213,3.0,2-5,other
41333,55,63,184,111,9.0,2-6,other
41334,50,90,164,250,6.0,4-28,diminished
41335,72,69,15,132,6.0,4-28,diminished
41336,50,53,134,198,7.0,2-5,other
41337,57,78,28,86,7.0,2-5,other
41338,58,77,13,53,7.0,2-5,other
41339,76,80,22,133,2.0,5-27A,major
41340,75,81,27,125,1.0,5-27A,other
41341,75,79,27,52,1.0,5-27A,other
41342,75,70,30,52,1.0,5-27A,other
41343,46,54,87,132,3.0,3-12,augmented
41344,70,72,14,109,0.0,4-26,other
41345,72,92,33,368,0.0,2-4,major
41346,72,81,31,115,0.0,2-4,other
41347,72,74,72,176,5.0,2-5,other
41348,70,77,23,185,10.0,4-22A,major
41349,68,75,24,117,3.0,5-26A,other
41350,77,78,15,241,7.0,2-5,other
41351,59,75,46,117,0.0,3-11A,minor
41352,55,57,74,121,3.0,3-11B,major
41353,55,52,88,123,0.0,3-7A,minor
41354,60,52,59,54,0.0,3-7A,minor
41355,62,76,14,92,0.0,3-7A,minor
41356,62,79,39,97,8.0,4-28,diminished
41357,63,74,27,106,0.0,2-3,minor
41358,65,70,51,126,5.0,3-11A,other
41359,65,69,28,117,0.0,4-19A,augmented
41360,72,90,101,127,0.0,4-26,other
41361,74,95,25,245,2.0,4-27A,minor
41362,43,81,205,230,2.0,3-11A,minor
41363,72,90,27,536,3.0,3-11B,major
41364,50,57,8,668,2.0,4-22B,minor
41365,63,71,61,119,5.0,3-4A,major
41366,61,70,52,123,2.0,3-11A,minor
41367,57,59,7,114,5.0,3-11B,major
41368,58,53,167,364,0.0,4-22A,other
41369,70,48,49,61,0.0,4-22A,other
41370,59,46,208,241,3.0,2-1,other
41371,50,73,53,246,0.0,3-11A,minor
41372,50,67,53,654,7.0,2-5,other
41373,62,59,39,237,7.0,2-3,minor
41374,70,62,26,363,0.0,2-4,other
41375,70,71,33,239,9.0,5-34,major
41376,71,55,13,33,9.0,5-34,major
41377,60,43,32,85,0.0,2-4,other
41378,60,52,57,61,0.0,2-4,other
41379,72,87,24,61,0.0,2-4,other
41380,72,83,30,122,0.0,2-4,major
41381,72,81,28,54,0.0,2-4,major
41382,72,73,33,57,0.0,2-4,major
41383,44,74,294,184,5.0,2-5,other
41384,60,53,17,60,5.0,2-5,other
41385,54,81,52,120,5.0,3-9,other
41386,68,77,36,116,0.0,4-23,minor
41387,55,60,60,668,0.0,3-8A,major
41388,51,68,62,173,2.0,4-18A,minor
41389,68,82,46,299,5.0,3-11A,other
41390,68,79,40,248,0.0,4-26,other
41391,67,76,176,244,0.0,3-8B,other
41392,31,83,19,115,0.0,3-8B,other
41393,74,71,13,183,3.0,4-27A,other
41394,72,67,54,411,7.0,3-11A,minor
41395,60,63,33,190,9.0,2-6,other
41396,63,56,9,103,3.0,2-1,other
41397,65,76,36,251,3.0,3-11A,other
41398,67,63,28,238,8.0,4-18A,diminished
41399,75,69,6,183,3.0,2-4,major
41400,53,55,20,400,8.0,4-22B,other
41401,46,71,7,40,8.0,4-22B,other
41402,75,71,41,219,0.0,5-35,minor
41403,75,64,42,57,0.0,5-35,minor
41404,75,50,43,60,0.0,5-35,minor
41405,75,48,12,64,0.0,5-35,minor
41406,82,66,39,55,0.0,5-35,minor
41407,82,61,29,66,0.0,5-35,minor
41408,82,52,17,58,0.0,5-35,minor
41409,57,28,2422,0,2.0,1-1,other
41410,74,74,417,1770,2.0,2-4,major
41411,50,24,1976,658,10.0,3-12,augmented
41412,58,37,2144,489,10.0,3-12,augmented
41413,61,38,315,569,10.0,3-12,augmented
41414,74,51,288,803,10.0,3-12,augmented
41415,59,39,591,828,11.0,3-11A,minor
41416,59,80,1144,715,11.0,3-11A,minor
41417,67,88,1384,464,11.0,3-11A,minor
41418,78,80,443,363,11.0,3-11A,minor
41419,67,43,2145,1147,1.0,3-2A,minor
41420,73,21,784,628,1.0,3-2A,minor
41421,76,39,658,859,1.0,3-2A,minor
41422,69,46,811,917,2.0,3-4A,major
41423,59,71,1024,503,2.0,3-4A,major
41424,57,90,2422,971,6.0,2-3,minor
41425,66,51,351,432,6.0,2-3,minor
41426,50,60,1604,438,6.0,2-3,minor
41427,61,37,184,495,6.0,2-3,minor
41428,64,35,107,57,6.0,2-3,minor
41429,74,63,646,504,6.0,2-3,minor
41430,67,36,295,1037,0.0,4-11A,major
41431,75,49,507,3756,10.0,4-16A,other
41432,50,19,879,1235,10.0,4-24,augmented
41433,72,43,489,842,10.0,4-24,augmented
41434,71,26,654,847,10.0,4-24,augmented
41435,59,17,916,641,7.0,3-11B,major
41436,74,68,1668,532,7.0,3-11B,major
41437,62,40,521,52,7.0,3-11B,major
41438,59,37,575,517,7.0,3-11B,major
41439,59,78,500,926,2.0,2-4,major
41440,59,71,133,849,2.0,1-1,other
41441,69,71,999,554,2.0,4-27B,major
41442,58,74,2998,755,2.0,4-27B,major
41443,64,75,2617,381,2.0,4-27B,major
41444,69,26,75,967,2.0,4-27B,major
41445,74,40,110,168,2.0,4-27B,major
41446,78,55,101,108,2.0,4-27B,major
41447,81,58,32,120,2.0,4-27B,major
41448,81,69,105,81,2.0,4-27B,major
41449,86,58,110,101,2.0,4-27B,major
41450,90,44,42,101,2.0,4-27B,major
41451,93,58,475,159,2.0,4-27B,major
41452,98,30,308,112,2.0,4-27B,major
41453,102,50,259,54,2.0,4-27B,major
41454,105,51,155,142,2.0,4-27B,major
41455,74,66,427,1294,2.0,4-27B,major
41456,50,17,690,590,2.0,2-4,major
41457,57,35,277,373,2.0,2-4,major
41458,62,49,215,280,2.0,2-4,major
41459,74,74,183,238,2.0,2-4,major
41460,74,66,826,283,2.0,2-4,major
41461,47,48,2124,32,2.0,2-4,major
41462,54,29,1801,360,2.0,2-4,major
41463,62,34,117,493,2.0,2-4,major
41464,86,56,299,1127,2.0,2-4,major
41465,79,18,264,703,11.0,2-3,minor
41466,90,48,403,707,11.0,2-3,minor
41467,69,40,588,3356,1.0,2-3,minor
41468,81,32,769,747,1.0,2-3,minor
41469,55,3,612,136,9.0,4-27B,major
41470,53,30,2248,10544,8.0,4-27B,other
41471,55,46,276,7211,4.0,3-7A,minor
41472,36,37,497,2330,4.0,2-5,other
41473,52,38,618,28,4.0,2-5,other
41474,33,44,361,2542,9.0,2-5,other
41475,88,48,343,4677,9.0,1-1,other
41476,57,24,1611,840,2.0,1-1,other
41477,66,30,653,480,2.0,1-1,other
41478,69,50,580,558,2.0,1-1,other
41479,78,38,1683,593,2.0,1-1,other
41480,50,12,528,72,2.0,1-1,other
41481,58,47,1786,378,2.0,1-1,other
41482,74,53,572,1241,10.0,3-11B,other
41483,59,62,698,977,2.0,2-4,major
41484,61,30,1277,1878,4.0,2-2,other
41485,67,38,1731,570,4.0,2-2,other
41486,64,24,642,27,4.0,2-2,other
41487,76,32,322,754,4.0,2-2,other
41488,57,40,720,1829,2.0,1-1,other
41489,62,64,1402,388,2.0,1-1,other
41490,74,79,364,332,2.0,1-1,other
41491,74,57,1528,517,2.0,1-1,other
41492,47,33,1492,36,2.0,1-1,other
41493,54,31,971,521,2.0,1-1,other
41494,62,30,67,904,2.0,1-1,other
41495,66,35,363,1044,2.0,1-1,other
41496,62,15,151,292,2.0,1-1,other
41497,38,36,693,406,2.0,1-1,other
41498,45,30,812,58,2.0,1-1,other
41499,55,46,172,55,2.0,1-1,other
41500,64,43,313,97,0.0,2-1,other
41501,67,64,251,97,0.0,2-1,other
41502,81,63,622,543,0.0,2-1,other
41503,81,39,133,663,0.0,2-1,other
41504,69,54,292,2566,11.0,5-16A,minor
41505,60,63,83,2927,7.0,3-11B,major
41506,59,54,139,95,7.0,3-11B,major
41507,58,34,108,157,7.0,3-11B,major
41508,59,63,64,165,7.0,3-11B,major
41509,64,63,89,216,7.0,3-11B,major
41510,62,49,89,218,7.0,3-11B,major
41511,61,45,86,172,7.0,3-11B,major
41512,62,67,52,167,7.0,3-11B,major
41513,69,74,142,168,7.0,3-11B,major
41514,66,63,111,166,7.0,3-11B,major
41515,67,51,91,181,7.0,3-11B,major
41516,69,52,78,172,7.0,3-11B,major
41517,70,54,117,191,7.0,3-11B,major
41518,59,22,341,50,7.0,3-11B,major
41519,71,51,145,145,7.0,3-11B,major
41520,74,67,153,206,7.0,3-11B,major
41521,78,51,161,212,7.0,3-11B,major
41522,58,34,1084,290,2.0,4-22A,major
41523,48,34,72,1381,2.0,4-22A,major
41524,64,48,2343,841,2.0,4-22A,major
41525,70,57,2028,74,2.0,4-22A,major
41526,81,33,1499,138,2.0,4-22A,major
41527,74,32,1195,1300,2.0,4-22A,major
41528,79,54,401,716,2.0,4-22A,major
41529,74,51,899,864,2.0,4-22A,major
41530,50,22,869,31,2.0,4-22A,major
41531,57,33,330,465,2.0,4-22A,major
41532,62,51,549,316,2.0,4-22A,major
41533,74,64,178,204,2.0,4-22A,major
41534,54,47,471,547,11.0,2-3,minor
41535,62,66,270,308,11.0,2-3,minor
41536,74,70,106,337,11.0,2-3,minor
41537,62,43,35,2310,4.0,3-11A,minor
41538,57,54,449,9937,2.0,3-11B,major
41539,33,39,821,2177,9.0,3-11B,major
41540,48,58,1857,1084,9.0,3-11B,major
41541,58,13,264,772,2.0,3-11A,minor
41542,58,18,279,659,4.0,3-7A,minor
41543,64,55,1559,2584,8.0,3-10,diminished
41544,45,40,317,468,8.0,3-10,diminished
41545,52,32,467,362,8.0,3-10,diminished
41546,54,28,1634,415,8.0,3-10,diminished
41547,56,25,923,680,4.0,2-5,other
41548,56,39,127,1806,4.0,2-5,other
41549,92,47,78,49,4.0,2-5,other
41550,52,49,313,2896,9.0,2-4,major
41551,58,46,228,325,9.0,2-4,major
41552,57,19,398,59,9.0,2-4,major
41553,61,59,97,199,9.0,2-4,major
41554,67,62,261,328,9.0,2-4,major
41555,70,65,76,287,9.0,2-4,major
41556,79,53,365,719,1.0,2-2,other
41557,64,27,385,53,1.0,2-2,other
41558,70,49,166,348,1.0,2-2,other
41559,73,20,322,477,7.0,2-3,minor
41560,81,65,333,1096,1.0,3-10,diminished
41561,62,24,630,844,9.0,3-9,other
41562,71,77,418,461,9.0,3-9,other
41563,76,72,212,978,6.0,3-5B,other
41564,78,72,731,502,6.0,3-5B,other
41565,50,38,323,30,6.0,3-5B,other
41566,57,42,1235,376,6.0,3-5B,other
41567,64,46,717,365,6.0,3-5B,other
41568,65,70,338,338,6.0,3-5B,other
41569,66,77,367,354,6.0,3-5B,other
41570,73,60,276,607,9.0,1-1,other
41571,57,32,658,723,6.0,2-5,other
41572,66,70,315,360,6.0,2-5,other
41573,69,96,355,743,6.0,2-3,minor
41574,57,58,460,702,2.0,2-4,major
41575,62,80,208,301,2.0,2-4,major
41576,69,87,266,287,2.0,2-4,major
41577,49,60,645,348,4.0,3-9,other
41578,59,68,54,378,4.0,3-9,other
41579,71,76,288,311,4.0,3-9,other
41580,78,77,343,317,4.0,3-9,other
41581,52,50,222,936,3.0,2-5,other
41582,70,18,160,846,3.0,3-5B,other
41583,82,55,282,275,3.0,3-5B,other
41584,49,26,320,540,11.0,2-5,other
41585,82,69,1322,2153,3.0,2-1,other
41586,82,78,487,2449,3.0,3-5B,other
41587,78,77,241,1515,2.0,3-9,other
41588,78,64,177,437,2.0,3-9,other
41589,78,53,334,457,2.0,3-9,other
41590,79,58,234,1439,9.0,2-6,other
41591,79,68,341,403,9.0,2-6,other
41592,79,60,212,445,9.0,2-6,other
41593,62,48,1542,753,0.0,4-24,augmented
41594,76,55,288,657,0.0,4-24,augmented
41595,76,41,191,499,0.0,4-24,augmented
41596,76,43,237,464,0.0,4-24,augmented
41597,78,47,465,1293,1.0,2-6,other
41598,78,39,357,620,1.0,2-6,other
41599,78,37,194,626,1.0,2-6,other
41600,62,73,310,1608,7.0,4-26,minor
41601,62,80,339,981,2.0,3-11A,minor
41602,62,70,366,1207,4.0,3-8A,major
41603,62,62,157,1286,3.0,3-4A,major
41604,55,44,528,2013,6.0,3-7A,other
41605,64,49,251,1965,4.0,4-26,minor
41606,64,47,1407,1747,9.0,3-7B,other
41607,26,29,941,2144,7.0,2-5,other
41608,52,46,1431,929,7.0,2-5,other
41609,55,41,440,1465,7.0,2-5,other
41610,52,47,411,356,7.0,2-5,other
41611,50,38,678,767,2.0,2-4,major
41612,83,68,458,2162,9.0,1-1,other
41613,59,57,506,29,9.0,1-1,other
41614,33,37,411,4126,7.0,4-20,major
41615,88,77,554,1288,6.0,3-5B,other
41616,64,40,656,1682,6.0,3-11A,minor
41617,86,73,404,618,6.0,3-11A,minor
41618,81,48,176,2285,2.0,2-5,other
41619,59,30,1166,748,4.0,4-26,minor
41620,69,68,391,1537,10.0,1-1,other
41621,57,36,131,26,10.0,1-1,other
41622,55,49,816,1220,9.0,2-4,major
41623,69,81,312,354,9.0,2-4,major
41624,71,77,325,354,9.0,2-4,major
41625,69,76,90,310,9.0,2-4,major
41626,58,62,1538,819,6.0,2-6,other
41627,64,60,1106,366,6.0,2-6,other
41628,69,47,1862,390,6.0,2-6,other
41629,74,48,1108,401,6.0,2-6,other
41630,78,43,246,418,6.0,2-6,other
41631,57,58,337,1414,11.0,2-5,other
41632,59,77,324,338,11.0,2-5,other
41633,61,83,331,288,11.0,2-5,other
41634,62,88,292,338,11.0,2-5,other
41635,66,78,282,329,11.0,2-5,other
41636,47,44,453,717,2.0,4-22A,major
41637,69,36,271,493,7.0,3-9,other
41638,79,58,438,329,7.0,3-9,other
41639,55,35,380,471,6.0,3-7A,other
41640,76,80,344,359,6.0,3-7A,other
41641,78,54,1432,911,11.0,2-2,other
41642,74,48,163,856,11.0,2-2,other
41643,64,30,1191,580,6.0,3-11A,minor
41644,81,54,485,819,6.0,3-11A,minor
41645,59,49,562,1296,4.0,2-5,other
41646,64,36,111,340,4.0,2-5,other
41647,81,58,227,678,4.0,2-5,other
41648,85,68,1868,1127,4.0,2-5,other
41649,33,43,151,34,4.0,2-5,other
41650,81,55,413,1847,6.0,3-5B,other
41651,81,54,448,534,6.0,3-5B,other
41652,81,40,230,719,6.0,3-5B,other
41653,60,27,402,662,10.0,4-22A,major
41654,60,35,822,537,10.0,4-22A,major
41655,65,57,503,439,10.0,4-22A,major
41656,70,61,330,322,10.0,4-22A,major
41657,60,25,964,428,4.0,2-3,minor
41658,57,34,2140,1475,2.0,2-4,major
41659,74,52,363,1567,2.0,3-6,major
41660,81,78,420,400,2.0,3-6,major
41661,57,33,1898,979,2.0,2-4,major
41662,66,28,1276,516,2.0,2-4,major
41663,69,36,1231,479,2.0,2-4,major
41664,78,55,258,872,2.0,2-4,major
41665,78,49,225,348,2.0,2-4,major
41666,78,38,324,1487,1.0,2-2,other
41667,78,54,119,1249,10.0,2-4,other
41668,59,79,578,1422,2.0,2-1,other
41669,57,58,121,1154,10.0,3-12,augmented
41670,36,43,3391,627,10.0,3-12,augmented
41671,43,35,3401,41,10.0,3-12,augmented
41672,57,50,379,92,10.0,3-12,augmented
41673,69,47,126,678,6.0,2-3,minor
41674,81,54,148,80,6.0,2-3,minor
41675,81,39,184,780,6.0,2-3,minor
41676,93,42,202,57,6.0,2-3,minor
41677,93,44,403,776,6.0,2-3,minor
41678,105,49,224,70,6.0,2-3,minor
41679,50,36,1533,2308,6.0,3-11A,minor
41680,78,55,442,959,6.0,2-3,minor
41681,62,37,524,42,6.0,2-3,minor
41682,78,47,197,581,6.0,2-3,minor
41683,28,49,133,638,6.0,2-3,minor
41684,57,36,245,5680,9.0,1-1,other
41685,55,66,698,3379,9.0,1-1,other
41686,82,59,4162,267,5.0,2-2,other
41687,27,43,77,1084,5.0,2-2,other
41688,26,39,2880,2721,5.0,2-2,other
41689,85,52,214,2102,5.0,2-2,other
41690,86,54,706,267,2.0,2-5,other
41691,57,24,738,795,2.0,2-4,major
41692,50,19,255,554,2.0,2-4,major
41693,74,70,299,1983,10.0,3-3B,major
41694,67,66,287,351,10.0,3-3B,major
41695,50,24,2867,476,4.0,3-11A,minor
41696,74,77,1271,1519,11.0,3-2B,minor
41697,61,39,1413,787,9.0,2-5,other
41698,64,26,1481,468,9.0,2-5,other
41699,76,66,270,326,9.0,2-5,other
41700,76,51,234,850,4.0,2-2,other
41701,76,63,258,422,4.0,2-2,other
41702,57,34,296,801,6.0,2-3,minor
41703,57,69,905,2340,9.0,2-4,major
41704,57,51,794,1245,6.0,2-3,minor
41705,50,42,77,519,6.0,2-3,minor
41706,50,49,2384,240,6.0,2-3,minor
41707,59,76,720,194,0.0,3-4A,major
41708,69,71,1142,408,0.0,3-4A,major
41709,59,28,686,888,0.0,2-4,major
41710,50,34,1588,1174,0.0,2-4,major
41711,65,27,673,114,10.0,3-6,major
41712,60,28,586,1256,2.0,3-3B,other
41713,50,53,331,567,2.0,3-3B,other
41714,62,74,1157,607,2.0,3-3B,other
41715,54,78,1275,1890,11.0,3-7A,minor
41716,50,50,1298,1279,11.0,3-7A,minor
41717,62,53,94,1516,11.0,3-7A,minor
41718,69,72,141,193,11.0,3-7A,minor
41719,58,18,358,318,2.0,4-27B,major
41720,58,31,1956,1280,2.0,4-27B,major
41721,64,16,1468,266,2.0,4-27B,major
41722,69,49,109,84,2.0,4-27B,major
41723,74,55,101,102,2.0,4-27B,major
41724,81,57,36,111,2.0,4-27B,major
41725,81,61,122,106,2.0,4-27B,major
41726,86,51,49,120,2.0,4-27B,major
41727,91,32,42,83,2.0,4-27B,major
41728,93,43,190,127,2.0,4-27B,major
41729,98,58,124,71,2.0,4-27B,major
41730,105,65,163,113,2.0,4-27B,major
41731,98,43,47,138,2.0,4-27B,major
41732,62,33,120,1918,4.0,2-6,other
41733,62,77,373,1162,2.0,4-20,major
41734,62,91,495,551,2.0,4-20,major
41735,62,66,120,868,2.0,4-20,major
41736,61,43,202,182,2.0,4-20,major
41737,71,57,902,549,11.0,2-3,minor
41738,62,34,197,848,11.0,2-3,minor
41739,81,48,189,637,11.0,2-3,minor
41740,67,30,327,1074,4.0,2-3,minor
41741,74,45,148,409,4.0,2-3,minor
41742,79,77,178,201,4.0,2-3,minor
41743,69,60,245,547,6.0,1-1,other
41744,66,38,613,338,6.0,1-1,other
41745,62,48,238,290,6.0,1-1,other
41746,62,53,549,331,6.0,1-1,other
41747,55,28,1104,39,6.0,1-1,other
41748,67,52,463,362,6.0,1-1,other
41749,71,80,177,1525,8.0,3-10,other
41750,74,89,218,239,8.0,3-10,other
41751,73,67,972,306,8.0,3-10,other
41752,57,39,1108,53,8.0,3-10,other
41753,64,58,239,343,8.0,3-10,other
41754,64,71,1012,382,8.0,3-10,other
41755,76,81,293,313,8.0,3-10,other
41756,55,54,632,70,8.0,3-10,other
41757,76,71,627,329,8.0,3-10,other
41758,69,57,146,294,8.0,3-10,other
41759,69,56,663,291,8.0,3-10,other
41760,54,35,760,200,8.0,3-10,other
41761,62,26,666,48,8.0,3-10,other
41762,74,52,146,147,8.0,3-10,other
41763,74,57,685,300,8.0,3-10,other
41764,69,12,262,33,8.0,3-10,other
41765,66,43,285,287,8.0,3-10,other
41766,66,36,333,363,8.0,3-10,other
41767,63,37,240,595,11.0,2-2,other
41768,63,37,291,364,11.0,2-2,other
41769,69,78,435,1123,7.0,2-5,other
41770,67,68,342,344,7.0,2-5,other
41771,59,22,219,369,6.0,1-1,other
41772,67,65,459,412,6.0,1-1,other
41773,69,64,315,400,6.0,1-1,other
41774,62,28,454,970,4.0,2-5,other
41775,61,56,973,658,4.0,2-5,other
41776,64,62,223,646,9.0,2-2,other
41777,67,71,217,1366,7.0,2-3,minor
41778,65,57,236,1480,0.0,2-3,minor
41779,63,37,538,2712,8.0,5-27A,other
41780,67,58,190,1941,7.0,2-4,major
41781,29,30,451,412,2.0,4-22B,minor
41782,67,52,158,394,2.0,4-22B,minor
41783,67,36,90,970,7.0,2-5,other
41784,69,66,143,794,2.0,1-1,other
41785,59,37,427,442,0.0,3-4A,major
41786,71,59,261,490,0.0,3-4A,major
41787,55,20,71,41,0.0,3-4A,major
41788,74,42,353,738,0.0,3-4A,major
41789,76,40,380,1554,2.0,2-3,minor
41790,81,33,1103,1413,9.0,2-5,other
41791,86,58,175,1909,9.0,1-1,other
41792,85,50,117,194,2.0,2-5,other
41793,86,57,671,183,2.0,2-5,other
41794,86,92,220,1233,2.0,2-5,other
41795,85,86,142,182,2.0,2-5,other
41796,82,50,463,526,2.0,1-1,other
41797,74,35,251,714,2.0,1-1,other
41798,85,52,89,836,10.0,2-4,major
41799,86,76,136,168,10.0,2-4,major
41800,50,44,1671,170,10.0,2-4,major
41801,90,81,351,26,10.0,2-4,major
41802,90,57,301,412,10.0,2-4,major
41803,90,39,559,690,10.0,2-4,major
41804,62,24,406,60,11.0,2-5,other
41805,90,36,95,660,11.0,2-5,other
41806,90,60,134,197,11.0,2-5,other
41807,90,69,321,214,11.0,2-5,other
41808,50,37,1923,29,11.0,2-5,other
41809,88,51,103,269,11.0,2-5,other
41810,88,68,193,283,11.0,2-5,other
41811,76,77,1084,525,1.0,2-3,minor
41812,88,80,203,463,1.0,2-3,minor
41813,88,74,125,343,1.0,2-3,minor
41814,88,70,115,177,1.0,2-3,minor
41815,74,38,416,232,2.0,1-1,other
41816,57,38,782,497,2.0,1-1,other
41817,64,38,848,1757,6.0,2-5,other
41818,59,76,1131,535,6.0,2-5,other
41819,64,55,762,566,6.0,2-5,other
41820,57,55,300,564,6.0,2-5,other
41821,83,49,186,2397,4.0,2-5,other
41822,65,37,437,665,10.0,3-6,major
41823,77,22,1514,81,10.0,3-6,major
41824,26,40,102,1078,10.0,3-6,major
41825,50,31,563,1926,11.0,2-3,minor
41826,52,66,1187,1102,11.0,4-26,minor
41827,50,43,654,1201,11.0,3-7A,minor
41828,50,36,110,1184,11.0,3-7A,minor
41829,36,43,962,483,11.0,3-7A,minor
41830,62,53,339,167,7.0,2-3,minor
41831,69,39,311,95,6.0,2-2,other
41832,69,46,353,556,6.0,2-2,other
41833,81,42,343,77,6.0,2-2,other
41834,69,31,142,478,6.0,2-2,other
41835,81,42,153,89,6.0,2-2,other
41836,81,31,251,480,6.0,2-2,other
41837,93,54,233,69,6.0,2-2,other
41838,81,33,518,498,6.0,2-2,other
41839,62,57,119,2163,9.0,3-5B,other
41840,61,49,116,137,9.0,3-5B,other
41841,57,35,114,1337,2.0,2-4,major
41842,74,68,224,566,2.0,2-4,major
41843,74,48,1731,557,2.0,2-4,major
41844,57,19,703,1479,2.0,2-4,major
41845,74,40,105,726,2.0,2-4,major
41846,78,65,420,1822,7.0,3-11B,major
41847,81,80,297,999,7.0,3-4B,other
41848,74,29,469,549,7.0,3-4B,other
41849,74,35,348,581,4.0,2-3,minor
41850,64,35,949,1811,2.0,2-5,other
41851,76,75,646,520,2.0,2-5,other
41852,62,51,945,588,1.0,2-6,other
41853,73,36,422,724,1.0,2-6,other
41854,54,36,603,483,1.0,2-6,other
41855,69,62,294,660,2.0,2-5,other
41856,41,25,989,627,2.0,2-5,other
41857,74,53,240,978,9.0,2-2,other
41858,55,40,1842,871,4.0,3-7A,minor
41859,71,77,645,1127,4.0,3-7A,minor
41860,74,79,422,1337,2.0,2-4,major
41861,59,29,884,730,4.0,4-26,minor
41862,74,62,658,803,4.0,4-26,minor
41863,73,31,348,832,4.0,4-26,minor
41864,45,22,1348,58,9.0,3-7B,other
41865,74,57,127,361,9.0,3-7B,other
41866,76,44,979,454,9.0,3-7B,other
41867,74,58,444,2917,2.0,2-2,other
41868,65,58,477,29,2.0,2-2,other
41869,58,21,503,41,2.0,2-2,other
41870,72,57,764,566,2.0,2-2,other
41871,48,31,142,627,4.0,2-6,other
41872,62,57,566,2817,7.0,3-2B,minor
41873,69,76,157,232,7.0,3-2B,minor
41874,47,36,283,2347,4.0,2-2,other
41875,52,26,197,389,4.0,2-2,other
41876,56,39,2680,312,4.0,2-2,other
41877,59,37,309,1017,4.0,1-1,other
41878,100,68,326,292,4.0,1-1,other
41879,64,15,549,79,4.0,1-1,other
41880,95,36,677,353,4.0,2-5,other
41881,56,46,82,0,,,
41882,44,45,54,147,1.0,1-1,other
41883,53,40,248,140,5.0,3-11A,other
41884,60,37,157,79,5.0,3-11A,other
41885,54,29,70,425,3.0,2-4,other
41886,61,35,64,170,11.0,2-5,other
41887,61,21,233,103,11.0,2-5,other
41888,63,30,142,88,11.0,2-5,other
41889,75,47,43,211,11.0,2-5,other
41890,44,44,36,279,5.0,2-4,other
41891,53,45,61,86,5.0,2-4,other
41892,58,31,97,88,5.0,2-4,other
41893,60,37,7,87,5.0,2-4,other
41894,56,60,420,1455,3.0,3-7A,other
41895,53,40,5,2041,8.0,3-7A,minor
41896,26,28,104,536,4.0,4-22A,major
41897,53,47,248,602,8.0,1-1,other
41898,60,48,173,59,8.0,1-1,other
41899,74,50,28,143,0.0,2-2,other
41900,77,53,31,77,3.0,2-1,other
41901,38,49,19,268,4.0,4-22A,major
41902,76,58,46,534,4.0,4-16B,other
41903,76,50,27,78,4.0,4-16B,other
41904,44,32,48,207,1.0,4-14A,other
41905,52,32,55,74,1.0,4-14A,other
41906,56,37,278,63,1.0,4-14A,other
41907,63,42,51,160,4.0,3-11B,major
41908,56,25,11,172,1.0,3-11A,minor
41909,54,36,65,142,0.0,5-26B,augmented
41910,60,36,10,65,0.0,5-26B,augmented
41911,59,36,122,185,4.0,2-5,other
41912,64,40,24,80,4.0,2-5,other
41913,56,62,42,1082,3.0,3-7A,other
41914,56,49,60,340,6.0,3-7A,other
41915,56,49,52,341,3.0,3-7A,other
41916,75,45,88,442,3.0,2-5,other
41917,65,62,25,292,5.0,4-20,other
41918,66,38,37,180,2.0,4-20,major
41919,68,52,49,290,3.0,4-20,other
41920,69,58,36,233,5.0,4-20,major
41921,71,33,49,475,11.0,2-5,other
41922,26,63,27,314,0.0,6-34A,augmented
41923,49,29,608,2101,3.0,1-1,other
41924,56,29,522,81,3.0,1-1,other
41925,60,45,122,77,3.0,1-1,other
41926,60,44,75,242,3.0,1-1,other
41927,65,58,57,88,3.0,1-1,other
41928,70,74,57,67,3.0,1-1,other
41929,73,57,43,145,5.0,4-16A,other
41930,75,67,48,68,5.0,4-16A,other
41931,76,57,65,79,5.0,4-16A,other
41932,75,47,46,206,1.0,4-12A,minor
41933,72,40,51,472,1.0,3-10,minor
41934,84,43,21,505,2.0,5-29B,minor
41935,84,49,35,39,2.0,5-29B,minor
41936,86,53,27,288,4.0,4-12A,major
41937,86,34,18,51,4.0,4-12A,major
41938,89,50,25,124,2.0,3-7A,minor
41939,89,40,19,50,2.0,3-7A,minor
41940,92,56,28,156,0.0,2-4,other
41941,92,54,18,78,0.0,2-4,other
41942,41,38,25,92,0.0,2-4,other
41943,61,44,26,1065,10.0,4-14A,other
41944,60,40,15,46,10.0,4-14A,other
41945,58,39,20,42,10.0,4-14A,other
41946,56,33,23,38,10.0,4-14A,other
41947,55,46,18,43,10.0,4-14A,other
41948,54,34,15,39,10.0,4-14A,other
41949,53,47,16,27,10.0,4-14A,other
41950,50,36,19,77,4.0,2-1,other
41951,49,44,23,26,4.0,2-1,other
41952,43,38,56,107,0.0,3-8A,major
41953,36,47,13,61,0.0,3-8A,major
41954,48,39,53,371,5.0,4-14A,other
41955,60,47,27,170,5.0,4-14A,other
41956,60,45,15,76,5.0,4-14A,other
41957,53,60,79,165,8.0,4-29A,other
41958,56,54,28,63,8.0,4-29A,other
41959,62,52,7,64,8.0,4-29A,other
41960,46,62,81,149,1.0,6-40B,other
41961,54,62,17,74,1.0,6-40B,other
41962,58,64,7,81,1.0,6-40B,other
41963,58,24,181,978,0.0,2-4,major
41964,58,56,165,322,6.0,3-7A,other
41965,63,42,120,463,0.0,5-33,augmented
41966,59,50,22,680,5.0,4-27B,major
41967,63,32,96,388,11.0,3-8A,other
41968,73,28,98,206,11.0,3-8A,other
41969,34,39,30,261,0.0,3-11B,other
41970,22,33,73,193,0.0,3-11B,other
41971,75,59,56,1427,9.0,4-25,other
41972,61,30,68,545,1.0,2-2,other
41973,39,37,40,1551,1.0,1-1,other
41974,39,34,34,236,5.0,3-11B,other
41975,39,39,36,328,5.0,3-11B,other
41976,61,39,58,57,10.0,2-4,other
41977,39,32,26,154,1.0,2-5,other
41978,61,37,59,159,10.0,2-4,other
41979,61,33,83,113,10.0,2-4,other
41980,68,32,76,28,10.0,2-4,other
41981,38,50,113,60,10.0,2-4,other
41982,52,38,53,154,10.0,2-4,other
41983,64,47,40,90,8.0,2-3,minor
41984,54,34,302,409,0.0,6-34A,augmented
41985,70,77,60,1086,3.0,3-9,other
41986,76,55,31,149,4.0,3-9,other
41987,83,73,29,43,4.0,3-9,other
41988,80,46,14,41,4.0,3-9,other
41989,92,5,36,313,1.0,4-14B,other
41990,63,1,89,235,5.0,3-11A,other
41991,68,75,50,29,5.0,3-11A,other
41992,76,56,239,196,4.0,3-9,other
41993,71,41,58,258,4.0,2-5,other
41994,68,55,22,352,1.0,2-5,other
41995,52,61,159,669,3.0,3-11A,other
41996,52,40,13,218,3.0,2-4,other
41997,37,62,49,645,1.0,5-27A,other
41998,53,66,45,105,8.0,2-2,other
41999,68,77,45,159,0.0,2-3,minor
42000,53,54,41,599,8.0,2-2,other
42001,56,48,183,51,8.0,2-2,other
42002,76,31,132,356,4.0,4-22A,major
42003,76,71,49,222,4.0,3-11B,major
42004,71,57,33,56,4.0,3-11B,major
42005,71,55,39,52,4.0,3-11B,major
42006,68,57,42,329,0.0,3-11B,other
42007,73,44,23,42,0.0,3-11B,other
42008,79,37,20,96,5.0,2-1,other
42009,45,26,12,1397,1.0,4-28,diminished
42010,75,85,26,391,0.0,4-11B,minor
42011,77,95,33,70,0.0,4-11B,minor
42012,78,55,24,157,6.0,3-5B,other
42013,90,49,48,75,6.0,3-5B,other
42014,76,46,12,922,1.0,2-2,other
42015,82,43,7,82,9.0,2-2,other
42016,55,35,49,108,1.0,4-13B,diminished
42017,90,59,19,32,1.0,4-13B,diminished
42018,89,60,25,36,1.0,4-13B,diminished
42019,88,62,20,30,1.0,4-13B,diminished
42020,86,57,24,33,1.0,4-13B,diminished
42021,88,68,68,85,1.0,4-23,minor
42022,81,31,20,44,1.0,4-23,minor
42023,81,41,28,47,1.0,4-23,minor
42024,81,48,28,49,1.0,4-23,minor
42025,83,51,28,120,9.0,4-22A,major
42026,84,64,34,217,5.0,4-20,major
42027,84,48,33,112,0.0,1-1,other
42028,81,44,46,425,2.0,3-9,other
42029,71,47,21,280,2.0,2-5,other
42030,76,71,55,1102,4.0,3-9,other
42031,100,51,77,946,4.0,3-9,other
42032,54,50,63,231,4.0,3-11B,major
42033,54,43,37,75,4.0,3-11B,major
42034,73,53,66,384,3.0,4-23,other
42035,78,20,19,113,5.0,3-11B,other
42036,80,1,33,560,0.0,5-27A,other
42037,44,34,14,69,0.0,5-27A,other
42038,46,30,165,33,0.0,5-27A,other
42039,46,32,202,205,0.0,4-26,minor
42040,46,30,181,244,4.0,5-32B,other
42041,46,46,25,202,8.0,3-10,diminished
42042,34,52,20,76,8.0,3-10,diminished
42043,57,1,49,123,6.0,3-7B,other
42044,68,63,31,41,6.0,3-7B,other
42045,80,77,49,75,6.0,3-7B,other
42046,80,64,44,239,9.0,3-4B,other
42047,78,44,25,36,9.0,3-4B,other
42048,54,29,64,115,9.0,5-24A,other
42049,68,56,25,355,6.0,4-27A,minor
42050,55,58,291,129,5.0,2-4,major
42051,65,28,79,68,5.0,4-19B,other
42052,32,43,8,350,5.0,4-19B,other
42053,54,33,60,348,10.0,4-22A,major
42054,68,31,18,115,10.0,4-22A,major
42055,75,84,52,454,3.0,3-9,other
42056,75,74,28,123,6.0,2-6,other
42057,75,64,356,64,6.0,2-6,other
42058,73,55,22,365,4.0,3-5B,other
42059,67,53,64,502,0.0,5-24B,other
42060,86,44,15,304,4.0,3-3B,other
42061,56,6,48,314,9.0,4-20,major
42062,54,47,39,51,9.0,4-20,major
42063,42,57,240,69,9.0,4-20,major
42064,66,65,56,266,6.0,3-11A,minor
42065,66,52,59,504,9.0,4-16A,other
42066,33,47,8,79,9.0,4-16A,other
42067,77,44,59,176,5.0,5-30B,other
42068,77,43,76,92,5.0,5-30B,other
42069,77,44,60,97,5.0,5-30B,other
42070,75,49,138,71,5.0,5-30B,other
42071,32,48,10,79,5.0,5-30B,other
42072,75,1,38,410,2.0,5-32B,other
42073,68,59,124,60,2.0,5-32B,other
42074,44,36,31,2707,5.0,3-4A,other
42075,53,28,22,62,5.0,3-4A,other
42076,56,26,317,61,5.0,3-4A,other
42077,60,40,187,64,5.0,3-4A,other
42078,63,44,115,65,5.0,3-4A,other
42079,75,44,25,143,5.0,3-11A,other
42080,88,60,43,169,4.0,4-22A,major
42081,68,60,480,531,4.0,3-11B,major
42082,71,46,11,677,4.0,3-9,other
42083,76,40,14,37,4.0,3-9,other
42084,80,70,23,40,4.0,3-9,other
42085,83,88,26,40,4.0,3-9,other
42086,78,59,29,252,8.0,2-2,other
42087,72,47,35,65,8.0,2-2,other
42088,68,48,285,114,0.0,3-7A,minor
42089,68,69,57,328,4.0,3-9,other
42090,66,45,23,43,4.0,3-9,other
42091,69,68,30,84,4.0,3-9,other
42092,68,43,30,37,4.0,3-9,other
42093,72,68,26,315,0.0,4-26,other
42094,70,43,18,37,0.0,4-26,other
42095,72,68,23,98,0.0,2-3,minor
42096,68,74,19,82,0.0,2-3,minor
42097,64,27,13,84,0.0,2-3,minor
42098,61,37,98,42,0.0,2-3,minor
42099,51,45,24,232,6.0,2-3,minor
42100,63,29,26,158,6.0,4-14A,minor
42101,88,39,14,633,4.0,4-22A,major
42102,65,51,22,526,5.0,3-7B,other
42103,68,28,20,26,5.0,3-7B,other
42104,72,36,19,38,5.0,3-7B,other
42105,75,83,30,27,5.0,3-7B,other
42106,73,31,25,69,0.0,1-1,other
42107,75,45,8,43,0.0,1-1,other
42108,77,58,19,31,0.0,1-1,other
42109,80,64,17,74,3.0,2-4,major
42110,82,77,24,35,3.0,2-4,major
42111,88,71,31,89,4.0,3-9,other
42112,84,94,19,564,0.0,4-26,other
42113,84,77,26,42,0.0,4-26,other
42114,77,55,27,79,5.0,2-5,other
42115,80,77,21,46,5.0,2-5,other
42116,73,34,18,79,0.0,3-11B,other
42117,73,46,27,40,0.0,3-11B,other
42118,77,62,30,82,4.0,4-6,other
42119,71,49,20,39,4.0,4-6,other
42120,71,58,20,42,4.0,4-6,other
42121,76,68,24,32,4.0,4-6,other
42122,76,70,27,40,4.0,4-6,other
42123,68,46,23,73,8.0,2-3,minor
42124,71,53,13,38,8.0,2-3,minor
42125,65,52,10,75,4.0,2-5,other
42126,64,49,11,51,4.0,2-5,other
42127,70,78,34,30,4.0,2-5,other
42128,65,68,28,119,8.0,2-2,other
42129,60,40,85,39,8.0,2-2,other
42130,60,47,27,119,8.0,2-2,other
42131,86,70,20,775,2.0,3-7B,other
42132,84,61,29,34,2.0,3-7B,other
42133,81,48,29,37,2.0,3-7B,other
42134,77,37,18,38,2.0,3-7B,other
42135,81,63,23,76,10.0,2-5,other
42136,77,50,27,40,10.0,2-5,other
42137,75,37,32,859,5.0,2-2,other
42138,74,29,19,36,5.0,2-2,other
42139,74,35,41,172,5.0,3-7B,other
42140,75,71,24,67,5.0,3-7B,other
42141,78,62,26,1115,7.0,4-20,major
42142,67,48,20,30,7.0,4-20,major
42143,69,60,33,30,7.0,4-20,major
42144,70,64,17,32,7.0,4-20,major
42145,78,34,21,152,6.0,3-4B,other
42146,83,87,41,69,6.0,3-4B,other
42147,73,54,87,158,1.0,4-23,minor
42148,69,37,9,95,1.0,4-23,minor
42149,65,71,30,714,4.0,2-3,minor
42150,67,55,19,408,11.0,3-10,diminished
42151,68,59,21,36,11.0,3-10,diminished
42152,72,73,21,85,10.0,4-20,other
42153,73,64,32,36,10.0,4-20,other
42154,75,69,23,41,10.0,4-20,other
42155,77,68,26,37,10.0,4-20,other
42156,78,61,23,36,10.0,4-20,other
42157,64,52,14,1989,8.0,2-3,minor
42158,65,55,10,572,0.0,2-4,other
42159,63,15,18,544,6.0,5-29B,minor
42160,54,67,33,1299,8.0,3-10,minor
42161,57,49,20,629,9.0,3-8B,other
42162,61,19,24,978,1.0,6-32,other
42163,75,71,31,350,0.0,3-11B,other
42164,73,36,18,32,0.0,3-11B,other
42165,75,72,18,43,0.0,3-11B,other
42166,75,64,27,42,0.0,3-11B,other
42167,73,39,23,36,0.0,3-11B,other
42168,75,56,28,89,3.0,3-5B,other
42169,73,37,29,36,3.0,3-5B,other
42170,75,59,69,48,3.0,3-5B,other
42171,52,3,89,226,3.0,2-5,other
42172,73,77,28,92,3.0,2-5,other
42173,72,65,67,163,8.0,2-3,minor
42174,54,46,26,796,0.0,3-9,other
42175,54,52,28,248,9.0,3-4B,other
42176,66,52,26,374,9.0,4-16A,other
42177,77,85,115,3147,1.0,6-32,other
42178,68,86,30,546,0.0,3-7A,minor
42179,76,77,52,163,4.0,3-9,other
42180,76,75,59,77,4.0,3-9,other
42181,76,64,48,188,4.0,2-5,other
42182,69,62,23,67,4.0,2-5,other
42183,69,47,32,46,4.0,2-5,other
42184,79,55,30,943,4.0,3-9,other
42185,53,28,31,268,0.0,4-23,minor
42186,56,69,52,79,0.0,4-23,minor
42187,61,48,30,69,0.0,4-23,minor
42188,65,64,23,43,0.0,4-23,minor
42189,66,8,154,101,1.0,5-32A,minor
42190,56,62,66,55,1.0,5-32A,minor
42191,54,70,27,245,9.0,4-16A,other
42192,48,78,120,208,3.0,4-23,other
42193,55,78,41,50,3.0,4-23,other
42194,56,78,38,36,3.0,4-23,other
42195,62,72,35,86,0.0,2-2,other
42196,63,60,17,31,0.0,2-2,other
42197,74,71,30,311,7.0,4-13B,other
42198,80,57,77,491,9.0,3-4A,major
42199,78,45,44,287,9.0,2-1,other
42200,72,65,30,1461,10.0,5-20B,other
42201,75,75,33,449,3.0,3-7A,other
42202,73,37,36,36,3.0,3-7A,other
42203,63,85,117,176,0.0,5-26B,other
42204,41,91,31,355,1.0,5-17,other
42205,55,58,29,2295,5.0,3-12,augmented
42206,71,73,78,732,4.0,4-22A,major
42207,73,48,70,502,8.0,4-22A,other
42208,74,64,70,330,7.0,5-23B,major
42209,75,65,82,374,0.0,4-22A,other
42210,77,60,79,709,5.0,3-4A,other
42211,44,60,49,77,5.0,3-4A,other
42212,53,63,63,64,5.0,3-4A,other
42213,56,39,414,59,5.0,3-4A,other
42214,60,53,115,55,5.0,3-4A,other
42215,63,61,32,48,5.0,3-4A,other
42216,67,63,37,96,3.0,2-5,other
42217,68,62,34,44,3.0,2-5,other
42218,72,58,23,75,0.0,3-7A,minor
42219,75,60,17,30,0.0,3-7A,minor
42220,77,59,25,37,0.0,3-7A,minor
42221,82,74,29,34,0.0,3-7A,minor
42222,82,52,10,101,8.0,2-3,other
42223,84,61,23,28,8.0,2-3,other
42224,89,62,28,68,0.0,2-3,minor
42225,92,62,34,82,3.0,2-4,major
42226,96,65,33,84,0.0,2-2,other
42227,99,48,19,91,1.0,2-1,other
42228,101,22,40,47,1.0,2-1,other
42229,103,47,44,50,1.0,2-1,other
42230,104,59,68,55,1.0,2-1,other
42231,106,50,63,64,1.0,2-1,other
42232,62,75,79,0,9.0,2-3,minor
42233,64,80,46,58,9.0,2-3,minor
42234,67,77,24,116,10.0,3-11B,major
42235,70,79,40,121,9.0,2-3,minor
42236,60,66,45,122,9.0,3-7A,minor
42237,64,80,54,119,2.0,2-2,other
42238,70,84,31,230,9.0,2-3,minor
42239,38,80,19,311,0.0,3-11B,major
42240,77,77,17,209,6.0,4-27A,diminished
42241,65,105,10,558,5.0,4-20,major
42242,84,76,39,1033,9.0,4-26,minor
42243,84,79,38,59,9.0,4-26,minor
42244,81,63,51,178,6.0,4-18A,diminished
42245,81,58,20,66,6.0,4-18A,diminished
42246,50,60,72,112,7.0,2-3,minor
42247,72,55,63,244,9.0,4-29A,minor
42248,59,69,10,297,0.0,3-11B,major
42249,71,57,16,42,0.0,3-11B,major
42250,57,65,8,199,2.0,3-11B,major
42251,52,85,23,40,2.0,3-11B,major
42252,51,71,30,39,2.0,3-11B,major
42253,43,73,98,78,7.0,4-26,minor
42254,62,76,9,157,7.0,4-27A,minor
42255,50,79,58,354,7.0,6-30B,major
42256,53,61,66,116,9.0,4-26,minor
42257,46,58,22,258,0.0,4-19B,other
42258,49,73,13,877,2.0,1-1,other
42259,37,54,21,75,2.0,1-1,other
42260,36,55,137,48,2.0,1-1,other
42261,52,54,59,81,2.0,1-1,other
42262,64,62,18,47,2.0,1-1,other
42263,36,73,7,67,2.0,1-1,other
42264,58,71,23,240,11.0,4-29A,other
42265,45,68,101,78,5.0,3-11B,major
42266,55,97,83,130,0.0,3-11B,major
42267,54,65,90,77,0.0,3-11B,major
42268,38,63,21,36,0.0,3-11B,major
42269,45,71,20,41,0.0,3-11B,major
42270,44,77,60,79,10.0,5-30B,other
42271,57,56,15,676,0.0,3-9,other
42272,71,61,17,36,0.0,3-9,other
42273,72,107,11,526,10.0,3-11B,major
42274,48,64,80,119,10.0,3-4A,major
42275,41,63,30,167,0.0,2-2,other
42276,52,94,113,550,5.0,4-22A,major
42277,45,90,36,118,2.0,4-26,minor
42278,52,92,55,125,3.0,4-20,other
42279,44,60,26,120,8.0,4-28,diminished
42280,51,63,29,85,4.0,5-24A,minor
42281,61,60,33,398,4.0,2-6,other
42282,57,64,36,78,2.0,3-11A,minor
42283,50,72,41,39,2.0,3-11A,minor
42284,44,74,31,121,0.0,5-27A,major
42285,43,61,39,242,11.0,3-10,diminished
42286,46,65,29,482,1.0,3-8A,other
42287,45,76,78,45,1.0,3-8A,other
42288,44,74,26,194,10.0,3-12,augmented
42289,71,63,20,445,0.0,3-9,other
42290,62,68,26,520,2.0,2-1,other
42291,66,76,16,82,9.0,3-11A,minor
42292,79,83,12,234,5.0,4-20,major
42293,79,90,14,33,5.0,4-20,major
42294,79,101,24,78,9.0,4-26,minor
42295,77,82,14,30,9.0,4-26,minor
42296,79,104,199,27,9.0,4-26,minor
42297,46,71,28,228,0.0,4-16A,other
42298,52,40,42,155,2.0,5-27B,minor
42299,44,90,59,253,2.0,4-26,minor
42300,72,51,50,179,0.0,1-1,other
42301,43,62,19,216,10.0,3-11B,major
42302,37,89,34,49,10.0,3-11B,major
42303,51,84,22,77,10.0,3-11B,major
42304,37,84,27,36,10.0,3-11B,major
42305,36,68,154,41,10.0,3-11B,major
42306,52,65,47,122,1.0,3-10,minor
42307,67,66,8,75,1.0,3-10,minor
42308,45,102,71,356,9.0,3-7A,minor
42309,61,90,16,72,0.0,2-5,other
42310,73,84,15,118,7.0,5-29B,minor
42311,77,84,23,30,7.0,5-29B,minor
42312,82,94,22,30,7.0,5-29B,minor
42313,85,94,23,62,5.0,3-4A,other
42314,84,87,28,30,5.0,3-4A,other
42315,82,85,24,30,5.0,3-4A,other
42316,84,78,20,93,10.0,2-1,other
42317,81,82,17,30,10.0,2-1,other
42318,77,64,16,59,6.0,2-6,other
42319,75,73,16,63,6.0,2-6,other
42320,57,80,22,311,7.0,4-26,minor
42321,56,71,36,37,7.0,4-26,minor
42322,43,66,55,235,10.0,4-20,major
42323,53,48,38,122,7.0,4-26,minor
42324,31,79,12,1004,5.0,3-11B,major
42325,32,62,8,243,5.0,4-16A,major
42326,52,73,15,395,0.0,3-9,other
42327,39,72,24,41,0.0,3-9,other
42328,38,76,15,42,0.0,3-9,other
42329,44,71,33,192,2.0,3-11B,major
42330,60,71,17,410,9.0,2-3,minor
42331,60,47,17,34,9.0,2-3,minor
42332,60,69,14,39,9.0,2-3,minor
42333,48,66,76,406,2.0,4-26,minor
42334,36,78,26,39,2.0,4-26,minor
42335,75,108,18,894,2.0,2-2,other
42336,65,69,26,311,7.0,3-7B,other
42337,67,66,9,37,7.0,3-7B,other
42338,52,70,29,411,5.0,4-20,major
42339,46,76,58,274,0.0,2-4,major
42340,52,65,26,242,2.0,5-27B,minor
42341,51,70,36,26,2.0,5-27B,minor
42342,65,66,6,241,8.0,2-3,other
42343,73,63,16,86,0.0,2-5,other
42344,72,58,72,38,0.0,2-5,other
42345,70,65,38,81,10.0,3-4A,major
42346,60,62,285,162,5.0,3-8B,other
42347,50,72,24,40,5.0,3-8B,other
42348,43,68,14,39,5.0,3-8B,other
42349,51,73,14,37,5.0,3-8B,other
42350,52,74,31,43,5.0,3-8B,other
42351,36,80,95,41,5.0,3-8B,other
42352,52,79,36,76,5.0,3-8B,other
42353,62,73,59,122,0.0,3-11B,major
42354,45,67,82,278,9.0,2-3,minor
42355,56,75,24,39,9.0,2-3,minor
42356,61,81,55,82,0.0,3-11B,major
42357,51,85,30,35,0.0,3-11B,major
42358,36,73,14,586,0.0,5-31B,major
42359,42,65,27,133,1.0,5-34,minor
42360,48,83,31,237,9.0,3-7A,minor
42361,51,73,29,128,6.0,4-27A,diminished
42362,44,74,34,73,2.0,4-27B,major
42363,81,82,98,278,10.0,3-11B,major
42364,69,63,16,117,9.0,3-11A,minor
42365,52,81,68,713,5.0,5-21B,other
42366,45,90,23,120,2.0,4-26,minor
42367,52,79,51,126,8.0,3-10,diminished
42368,53,76,76,51,8.0,3-10,diminished
42369,44,68,30,69,8.0,3-10,diminished
42370,74,1,34,352,5.0,3-3B,other
42371,50,54,24,146,2.0,3-11A,minor
42372,66,1,27,188,7.0,2-5,other
42373,64,64,20,441,10.0,3-11B,major
42374,62,70,18,560,4.0,2-4,major
42375,57,59,21,400,0.0,3-9,other
42376,71,70,19,44,0.0,3-9,other
42377,76,75,16,125,0.0,3-2B,minor
42378,76,59,16,27,0.0,3-2B,minor
42379,73,56,27,57,6.0,3-8B,other
42380,74,77,17,36,6.0,3-8B,other
42381,74,76,18,28,6.0,3-8B,other
42382,69,53,23,64,7.0,3-11A,minor
42383,72,91,20,28,7.0,3-11A,minor
42384,65,75,24,83,10.0,2-4,major
42385,71,74,24,115,7.0,3-7A,minor
42386,72,92,19,33,7.0,3-7A,minor
42387,69,63,17,29,7.0,3-7A,minor
42388,60,69,18,99,1.0,2-3,minor
42389,58,55,27,30,1.0,2-3,minor
42390,48,13,35,81,9.0,2-3,minor
42391,65,69,29,166,3.0,3-12,augmented
42392,52,8,33,352,9.0,4-26,minor
42393,45,65,26,120,0.0,2-4,major
42394,53,74,41,187,8.0,3-10,diminished
42395,44,78,37,47,8.0,3-10,diminished
42396,43,86,27,51,8.0,3-10,diminished
42397,72,69,30,167,10.0,4-20,major
42398,81,59,27,32,10.0,4-20,major
42399,37,76,38,117,2.0,2-2,other
42400,51,50,32,41,2.0,2-2,other
42401,36,70,54,82,2.0,2-2,other
42402,52,48,33,41,2.0,2-2,other
42403,74,75,15,423,1.0,2-2,other
42404,52,57,18,99,9.0,2-3,minor
42405,59,72,36,34,9.0,2-3,minor
42406,57,70,19,85,0.0,3-8A,major
42407,55,83,78,113,0.0,3-12,augmented
42408,54,71,35,76,0.0,3-12,augmented
42409,53,72,15,40,0.0,3-12,augmented
42410,52,72,18,33,0.0,3-12,augmented
42411,51,54,21,28,0.0,3-12,augmented
42412,50,76,66,32,0.0,3-12,augmented
42413,38,77,9,70,0.0,3-12,augmented
42414,50,89,209,126,2.0,5-31B,major
42415,44,63,26,242,6.0,4-28,diminished
42416,57,98,127,121,7.0,4-26,minor
42417,54,69,44,237,7.0,5-27B,minor
42418,43,63,12,118,7.0,4-26,minor
42419,57,89,106,122,1.0,3-7A,other
42420,56,90,41,117,10.0,3-11A,other
42421,46,75,75,121,7.0,4-27A,minor
42422,69,74,22,361,7.0,4-22A,major
42423,31,82,19,289,5.0,2-4,major
42424,55,81,92,540,9.0,3-7A,minor
42425,67,70,20,586,7.0,4-26,minor
42426,69,56,28,129,9.0,5-24A,minor
42427,81,64,5,145,9.0,2-3,minor
42428,73,72,18,331,9.0,4-22A,major
42429,71,66,15,129,7.0,4-22A,major
42430,71,60,9,28,7.0,4-22A,major
42431,69,75,11,90,5.0,4-22A,major
42432,74,101,128,0,,,
42433,68,75,36,364,2.0,2-2,other
42434,67,72,76,44,2.0,2-2,other
42435,65,76,56,68,2.0,2-2,other
42436,62,67,56,220,2.0,2-2,other
42437,53,43,132,1244,7.0,4-23,minor
42438,67,63,68,892,8.0,1-1,other
42439,65,73,88,60,8.0,1-1,other
42440,62,66,68,96,8.0,1-1,other
42441,65,82,92,204,8.0,1-1,other
42442,74,113,184,1904,5.0,4-22A,major
42443,72,72,88,204,5.0,4-22A,major
42444,55,26,236,664,5.0,3-12,augmented
42445,72,83,92,388,5.0,3-12,augmented
42446,67,37,32,272,2.0,4-15B,other
42447,43,60,76,376,2.0,4-15B,other
42448,68,32,24,468,2.0,4-15B,other
42449,56,57,200,144,3.0,4-20,major
42450,74,105,100,2528,0.0,1-1,other
42451,72,78,84,172,0.0,1-1,other
42452,68,57,40,184,0.0,1-1,other
42453,67,44,36,56,0.0,1-1,other
42454,65,82,104,32,0.0,1-1,other
42455,62,61,80,104,0.0,1-1,other
42456,65,82,100,212,0.0,1-1,other
42457,72,73,84,1852,2.0,2-1,other
42458,68,73,76,216,2.0,2-1,other
42459,67,62,76,64,2.0,2-1,other
42460,65,55,40,80,2.0,2-1,other
42461,47,71,112,908,11.0,5-28B,diminished
42462,46,38,32,680,5.0,3-9,other
42463,67,84,216,432,5.0,3-9,other
42464,68,76,152,176,5.0,3-9,other
42465,69,62,92,204,5.0,3-9,other
42466,72,49,56,200,5.0,3-9,other
42467,77,54,52,196,5.0,3-9,other
42468,81,50,28,404,5.0,4-16A,other
42469,93,62,28,416,5.0,3-11A,other
42470,39,50,60,224,5.0,3-11A,other
42471,50,34,116,476,10.0,5-30B,other
42472,60,33,372,640,3.0,4-22B,other
42473,57,32,180,444,3.0,4-22B,other
42474,62,60,80,344,7.0,3-7A,minor
42475,65,72,100,140,7.0,3-7A,minor
42476,71,61,92,448,10.0,3-4A,major
42477,74,79,104,144,10.0,3-4A,major
42478,71,36,72,164,10.0,3-4A,major
42479,61,57,56,828,0.0,1-1,other
42480,62,56,100,64,0.0,1-1,other
42481,65,60,136,148,0.0,1-1,other
42482,67,64,80,204,0.0,1-1,other
42483,60,51,96,664,5.0,4-20,major
42484,42,56,288,672,2.0,3-7A,minor
42485,69,57,304,472,2.0,4-4A,major
42486,61,62,184,204,2.0,4-4A,major
42487,69,32,44,256,6.0,3-10,other
42488,57,46,32,192,6.0,3-10,other
42489,62,67,172,1584,10.0,2-4,major
42490,47,37,384,280,8.0,4-28,diminished
42491,62,40,36,408,8.0,4-28,diminished
42492,56,53,124,724,5.0,3-11A,other
42493,45,59,808,360,9.0,4-23,minor
42494,52,74,60,1084,3.0,2-1,other
42495,41,66,556,392,3.0,4-22A,major
42496,63,31,28,364,5.0,4-24,augmented
42497,41,63,580,324,5.0,4-24,augmented
42498,41,61,64,724,2.0,4-23,minor
42499,72,71,52,2940,9.0,4-26,minor
42500,74,80,96,64,9.0,4-26,minor
42501,72,54,96,68,9.0,4-26,minor
42502,72,64,60,248,0.0,3-4B,other
42503,74,66,76,52,0.0,3-4B,other
42504,72,34,44,96,0.0,3-4B,other
42505,71,19,28,92,0.0,3-4B,other
42506,72,69,84,104,0.0,3-4B,other
42507,73,71,128,172,0.0,3-4B,other
42508,74,64,168,152,2.0,3-8A,major
42509,65,24,116,200,2.0,3-8A,major
42510,81,55,84,1316,7.0,3-11A,minor
42511,80,50,108,72,7.0,3-11A,minor
42512,79,33,48,84,7.0,3-11A,minor
42513,84,83,248,156,7.0,3-11A,minor
42514,43,51,80,204,7.0,3-11A,minor
42515,36,58,156,468,7.0,3-11A,minor
42516,52,53,28,228,7.0,3-11A,minor
42517,67,30,36,1012,0.0,3-3A,major
42518,64,36,36,160,1.0,2-3,other
42519,56,53,40,152,1.0,2-3,other
42520,51,34,28,196,9.0,4-27A,diminished
42521,86,75,172,1572,10.0,4-16A,other
42522,55,55,172,3372,1.0,3-10,minor
42523,86,84,132,104,1.0,3-10,minor
42524,85,48,24,32,1.0,3-10,minor
42525,84,53,88,56,1.0,3-10,minor
42526,79,80,152,516,8.0,2-1,other
42527,77,69,156,232,5.0,3-11B,major
42528,74,41,84,188,5.0,3-11B,major
42529,77,79,384,180,5.0,3-11B,major
42530,72,49,36,412,9.0,3-8B,other
42531,74,74,96,56,9.0,3-8B,other
42532,72,46,84,72,9.0,3-8B,other
42533,71,29,64,84,9.0,3-8B,other
42534,72,82,108,144,9.0,3-8B,other
42535,60,59,88,444,2.0,4-12A,major
42536,67,29,96,2576,8.0,3-10,diminished
42537,68,42,32,476,8.0,3-10,other
42538,66,53,88,180,4.0,2-4,major
42539,68,48,120,360,8.0,5-31A,diminished
42540,66,44,108,200,8.0,5-31A,diminished
42541,45,24,940,412,9.0,3-7A,minor
42542,64,59,44,872,5.0,4-22A,major
42543,65,66,72,32,5.0,4-22A,major
42544,63,25,100,112,5.0,4-22A,major
42545,64,1,24,36,5.0,4-22A,major
42546,64,61,100,100,5.0,4-22A,major
42547,41,68,704,404,10.0,3-9,other
42548,41,47,420,904,9.0,3-8B,other
42549,72,77,168,2148,5.0,4-24,augmented
42550,65,54,192,296,1.0,2-6,other
42551,47,39,36,412,7.0,2-3,minor
42552,72,95,76,1404,0.0,4-20,major
42553,50,63,96,740,10.0,5-30B,other
42554,54,57,400,260,10.0,5-30B,other
42555,44,43,196,224,2.0,2-3,minor
42556,57,54,136,1204,2.0,3-7A,minor
42557,55,52,248,396,2.0,3-7A,minor
42558,61,33,136,260,9.0,4-29A,minor
42559,60,71,160,900,1.0,3-10,minor
42560,65,96,176,440,2.0,2-2,other
42561,60,56,148,224,2.0,2-2,other
42562,62,65,128,208,2.0,2-2,other
42563,65,75,572,232,2.0,2-2,other
42564,46,44,176,448,2.0,2-2,other
42565,43,38,164,740,5.0,4-22A,major
42566,42,53,64,252,5.0,4-22A,major
42567,62,64,236,1460,3.0,4-20,major
42568,51,38,168,704,2.0,3-11B,major
42569,72,66,100,2244,10.0,2-4,major
42570,70,48,108,76,10.0,2-4,major
42571,69,48,40,108,10.0,2-4,major
42572,70,46,68,164,10.0,2-4,major
42573,72,76,88,168,10.0,2-4,major
42574,50,34,156,184,10.0,1-1,other
42575,65,36,172,184,10.0,1-1,other
42576,54,62,188,944,10.0,2-4,major
42577,41,58,544,2132,3.0,4-5B,other
42578,62,56,24,732,2.0,4-29A,minor
42579,46,48,136,1440,9.0,5-31B,major
42580,55,81,136,760,2.0,4-26,minor
42581,54,68,124,160,2.0,4-26,minor
42582,53,66,108,192,2.0,4-26,minor
42583,50,61,160,180,2.0,4-26,minor
42584,52,52,120,188,2.0,4-26,minor
42585,48,44,68,152,2.0,4-26,minor
42586,39,44,32,364,0.0,3-11B,other
42587,51,73,364,572,5.0,4-19B,other
42588,50,35,108,652,5.0,4-19B,other
42589,59,64,88,260,6.0,5-28B,diminished
42590,60,60,200,116,6.0,5-28B,diminished
42591,59,50,40,204,6.0,5-28B,diminished
42592,58,61,72,72,6.0,5-28B,diminished
42593,57,66,164,100,6.0,5-28B,diminished
42594,54,49,104,216,6.0,5-28B,diminished
42595,54,60,64,172,6.0,5-28B,diminished
42596,59,58,104,160,6.0,5-28B,diminished
42597,44,59,104,28,6.0,5-28B,diminished
42598,43,49,176,192,10.0,2-5,other
42599,65,54,240,276,10.0,3-4A,major
42600,57,65,116,180,10.0,3-4A,major
42601,43,33,1020,648,7.0,3-11A,minor
42602,70,56,80,1480,10.0,3-4B,other
42603,71,68,76,36,10.0,3-4B,other
42604,82,29,116,76,1.0,4-18A,diminished
42605,69,49,28,168,1.0,4-18A,diminished
42606,51,49,28,940,9.0,4-27B,major
42607,49,23,152,1544,0.0,2-4,other
42608,52,68,80,28,0.0,2-4,other
42609,67,20,148,232,5.0,4-16A,major
42610,43,45,1416,908,5.0,4-16A,major
42611,55,38,28,1000,11.0,2-6,other
42612,50,16,148,476,6.0,2-5,other
42613,48,44,36,216,4.0,3-10,diminished
42614,36,63,28,400,4.0,3-10,diminished
42615,64,24,156,1896,10.0,3-6,major
42616,58,31,224,188,10.0,3-6,major
42617,60,66,616,672,9.0,4-23,minor
42618,41,45,80,676,11.0,2-3,minor
42619,60,50,160,924,2.0,5-36A,major
42620,66,37,80,396,6.0,3-10,minor
42621,62,26,32,40,6.0,3-10,minor
42622,60,19,40,1084,10.0,2-4,major
42623,70,71,164,408,10.0,2-4,major
42624,63,64,120,688,8.0,3-10,diminished
42625,64,61,184,256,8.0,3-10,diminished
42626,65,61,92,196,11.0,2-6,other
42627,69,68,192,188,11.0,2-6,other
42628,70,74,104,164,11.0,2-6,other
42629,72,66,84,348,4.0,4-22B,minor
42630,60,39,80,168,4.0,4-22B,minor
42631,60,43,92,176,4.0,4-22B,minor
42632,60,30,36,388,2.0,2-5,other
42633,65,67,52,148,2.0,2-5,other
42634,76,74,68,196,2.0,2-5,other
42635,63,51,512,220,7.0,4-26,minor
42636,65,29,300,32,7.0,4-26,minor
42637,72,54,132,1224,5.0,5-33,augmented
42638,50,33,1012,288,10.0,3-11B,major
42639,74,79,88,2660,10.0,3-11A,other
42640,72,81,104,764,9.0,4-26,minor
42641,74,68,88,372,0.0,4-20,major
42642,72,58,84,84,0.0,4-20,major
42643,71,39,52,100,0.0,4-20,major
42644,72,64,72,136,0.0,4-20,major
42645,74,74,76,144,0.0,4-20,major
42646,76,68,80,296,2.0,4-12A,major
42647,77,68,104,148,2.0,4-12A,major
42648,66,38,324,176,2.0,4-12A,major
42649,44,62,76,748,0.0,2-2,other
42650,43,68,52,224,0.0,2-2,other
42651,60,64,84,468,10.0,5-27A,major
42652,72,68,72,664,2.0,2-3,minor
42653,45,62,60,1764,0.0,4-24,augmented
42654,58,40,28,508,5.0,4-16A,other
42655,38,54,72,924,2.0,2-2,other
42656,64,18,184,3172,0.0,4-13B,other
42657,57,96,588,1912,5.0,4-20,major
42658,48,45,404,520,5.0,3-4B,other
42659,50,41,192,260,5.0,3-4B,other
42660,51,76,1552,692,9.0,3-10,diminished
42661,57,50,352,776,9.0,3-10,diminished
42662,58,92,836,768,10.0,3-11B,major
42663,50,68,308,512,10.0,3-11B,major
42664,51,90,228,252,10.0,3-11B,major
42665,36,45,252,508,4.0,3-8B,other
42666,48,51,92,240,4.0,3-8B,other
42667,52,50,132,280,1.0,4-28,diminished
42668,58,52,56,380,1.0,4-28,diminished
42669,52,34,72,28,1.0,4-28,diminished
42670,45,62,80,528,9.0,3-7A,minor
42671,76,79,132,792,2.0,3-7A,minor
42672,77,83,80,236,2.0,3-7A,minor
42673,57,54,284,524,3.0,3-4A,major
42674,55,39,312,1284,2.0,4-26,minor
42675,77,61,120,248,2.0,4-26,minor
42676,60,56,68,760,2.0,3-11A,minor
42677,65,76,88,168,2.0,3-11A,minor
42678,69,94,108,160,2.0,3-11A,minor
42679,72,84,220,364,3.0,2-5,other
42680,69,69,180,176,3.0,2-5,other
42681,81,88,112,680,5.0,3-8B,other
42682,82,81,108,172,5.0,3-8B,other
42683,84,87,108,168,5.0,3-8B,other
42684,57,36,224,192,9.0,3-11A,minor
42685,72,50,248,452,9.0,3-11A,minor
42686,86,50,80,1232,6.0,3-5B,other
42687,82,52,92,52,6.0,3-5B,other
42688,78,47,40,44,6.0,3-5B,other
42689,77,49,200,48,6.0,3-5B,other
42690,75,71,128,220,6.0,3-5B,other
42691,72,57,124,396,2.0,3-8A,major
42692,71,51,136,184,2.0,3-8A,major
42693,69,51,168,184,2.0,3-8A,major
42694,66,35,120,408,7.0,3-11A,minor
42695,69,82,156,168,7.0,3-11A,minor
42696,67,45,136,196,7.0,3-11A,minor
42697,64,37,112,196,10.0,3-6,major
42698,62,54,120,176,10.0,3-6,major
42699,63,59,164,180,10.0,3-6,major
42700,64,54,120,188,10.0,3-6,major
42701,64,24,104,412,0.0,3-7B,other
42702,60,43,28,180,0.0,3-7B,other
42703,76,62,116,588,0.0,3-11B,major
42704,72,24,32,200,7.0,2-3,minor
42705,69,60,104,572,9.0,3-7A,minor
42706,60,47,240,160,9.0,3-7A,minor
42707,66,23,32,56,9.0,3-7A,minor
42708,65,71,68,1380,2.0,2-4,major
42709,68,91,148,232,2.0,2-4,major
42710,72,62,244,760,4.0,2-2,other
42711,43,54,404,752,7.0,4-14A,minor
42712,43,32,344,804,10.0,3-11B,major
42713,72,34,60,1532,0.0,2-4,other
42714,60,41,60,792,9.0,4-23,minor
42715,62,65,80,112,9.0,4-23,minor
42716,60,53,88,56,9.0,4-23,minor
42717,59,60,60,88,9.0,4-23,minor
42718,62,80,168,320,0.0,1-1,other
42719,59,55,156,208,0.0,1-1,other
42720,60,73,164,188,0.0,1-1,other
42721,63,80,168,432,2.0,3-3A,major
42722,69,79,484,864,6.0,3-10,diminished
42723,67,54,108,800,7.0,3-4B,other
42724,69,43,36,212,7.0,3-4B,other
42725,70,65,84,208,7.0,3-4B,other
42726,77,45,56,408,10.0,3-6,major
42727,81,37,68,184,10.0,3-6,major
42728,74,48,40,528,1.0,3-7B,other
42729,86,47,84,88,1.0,3-7B,other
42730,74,62,64,80,1.0,3-7B,other
42731,59,40,292,500,8.0,3-10,other
42732,58,37,716,2404,3.0,3-4A,major
42733,86,60,36,524,5.0,2-1,other
42734,86,71,88,172,5.0,2-1,other
42735,86,55,36,492,5.0,1-1,other
42736,86,65,104,164,5.0,1-1,other
42737,77,51,188,752,10.0,3-11B,major
42738,77,75,60,752,10.0,2-4,major
42739,77,76,52,180,10.0,2-4,major
42740,83,67,80,344,0.0,3-7A,minor
42741,82,59,128,60,0.0,3-7A,minor
42742,81,63,60,80,0.0,3-7A,minor
42743,81,88,168,176,0.0,3-7A,minor
42744,80,54,92,160,0.0,3-7A,minor
42745,79,55,120,44,0.0,3-7A,minor
42746,74,71,116,336,5.0,3-8B,other
42747,72,40,104,188,5.0,3-8B,other
42748,70,62,108,172,5.0,3-8B,other
42749,60,47,144,392,9.0,3-7B,other
42750,62,72,176,216,9.0,3-7B,other
42751,60,53,56,204,9.0,3-7B,other
42752,38,68,64,440,5.0,3-11B,major
42753,63,30,548,1392,10.0,4-16A,other
42754,50,51,128,464,10.0,4-16A,other
42755,43,57,36,276,10.0,4-16A,other
42756,57,71,228,2012,0.0,4-24,augmented
42757,56,67,180,212,0.0,4-24,augmented
42758,48,64,300,468,9.0,5-31B,major
42759,61,59,140,332,9.0,5-31B,major
42760,58,45,60,120,9.0,5-31B,major
42761,72,103,68,668,5.0,3-11B,major
42762,77,84,108,508,3.0,4-16A,major
42763,79,92,92,260,3.0,4-16A,major
42764,74,73,100,148,3.0,4-16A,major
42765,65,54,732,672,8.0,4-13B,other
42766,72,88,100,3964,5.0,4-24,augmented
42767,57,22,284,304,10.0,5-27A,major
42768,69,74,220,488,10.0,5-27A,major
42769,65,42,200,792,10.0,4-22A,major
42770,62,30,136,748,7.0,3-11A,minor
42771,36,61,24,836,10.0,3-11B,major
42772,84,40,36,292,10.0,5-30B,augmented
42773,41,73,68,2052,3.0,5-30B,augmented
42774,64,29,32,2700,8.0,4-10,minor
42775,65,30,96,164,7.0,2-3,minor
42776,54,39,140,644,7.0,4-23,minor
42777,39,68,116,396,7.0,4-26,minor
42778,38,40,28,2844,0.0,4-25,major
42779,50,26,160,920,6.0,3-7A,minor
42780,57,51,56,520,5.0,2-4,major
42781,58,44,28,88,5.0,2-4,major
42782,62,63,52,96,5.0,2-4,major
42783,65,32,72,92,5.0,2-4,major
42784,69,44,60,84,5.0,2-4,major
42785,70,59,36,92,5.0,2-4,major
42786,81,67,52,272,10.0,3-6,major
42787,84,83,64,92,10.0,3-6,major
42788,82,68,84,112,10.0,3-6,major
42789,78,50,64,112,10.0,3-6,major
42790,81,65,100,96,10.0,3-6,major
42791,79,60,88,96,10.0,3-6,major
42792,57,32,52,112,10.0,2-4,major
42793,43,66,72,384,10.0,2-4,major
42794,54,40,104,908,7.0,2-2,other
42795,53,57,108,116,7.0,2-2,other
42796,52,43,72,104,7.0,2-2,other
42797,68,6,112,636,5.0,4-24,augmented
42798,39,34,120,824,5.0,4-19A,augmented
42799,64,47,192,336,10.0,4-24,augmented
42800,59,40,172,1088,6.0,3-7A,minor
42801,44,55,192,228,6.0,3-7A,minor
42802,57,47,96,848,2.0,2-2,other
42803,49,37,68,192,2.0,2-2,other
42804,50,53,340,72,2.0,4-27A,minor
42805,57,48,132,60,2.0,4-27A,minor
42806,43,35,584,352,2.0,4-27A,minor
42807,62,58,196,60,1.0,2-5,other
42808,49,30,68,264,2.0,2-5,other
42809,59,54,572,132,2.0,1-1,other
42810,43,64,444,464,2.0,1-1,other
42811,65,84,184,568,4.0,5-31B,major
42812,64,59,84,260,4.0,5-31B,major
42813,67,73,184,676,0.0,4-27B,major
42814,72,80,124,288,0.0,4-27B,major
42815,79,62,192,700,9.0,3-5B,other
42816,82,62,80,300,9.0,3-5B,other
42817,76,54,380,452,0.0,3-12,augmented
42818,36,54,48,388,0.0,3-12,augmented
42819,85,58,124,40,0.0,3-12,augmented
42820,80,31,512,1360,4.0,2-6,other
42821,64,30,404,68,1.0,3-10,minor
42822,48,57,136,1444,1.0,3-10,minor
42823,41,27,700,196,1.0,3-10,minor
42824,60,49,532,472,9.0,3-11A,minor
42825,48,61,152,292,9.0,3-11A,minor
42826,42,38,648,196,9.0,3-11A,minor
42827,42,64,120,800,2.0,5-31B,major
42828,42,26,24,160,2.0,5-31B,major
42829,43,51,624,44,2.0,5-31B,major
42830,43,62,96,784,10.0,3-11B,major
42831,44,50,840,196,10.0,3-11B,major
42832,62,47,112,480,8.0,3-10,minor
42833,59,53,88,156,8.0,3-10,minor
42834,45,57,192,1152,9.0,3-11A,minor
42835,41,45,188,488,3.0,3-11B,major
42836,54,19,32,1076,2.0,2-3,minor
42837,56,39,84,48,2.0,2-3,minor
42838,70,49,104,404,2.0,4-26,minor
42839,70,59,120,316,10.0,4-14A,other
42840,69,62,100,44,10.0,4-14A,other
42841,65,60,76,44,10.0,4-14A,other
42842,61,47,68,36,10.0,4-14A,other
42843,60,48,32,228,10.0,4-14A,other
42844,72,35,32,1144,7.0,2-5,other
42845,67,29,28,204,10.0,4-16A,other
42846,43,51,32,964,10.0,4-16A,other
42847,58,19,52,380,2.0,4-26,minor
42848,70,51,72,132,2.0,4-26,minor
42849,70,51,64,496,5.0,3-11B,major
42850,58,37,72,492,0.0,3-12,augmented
42851,45,64,236,936,0.0,2-5,other
42852,47,41,32,352,9.0,3-11A,minor
42853,38,41,28,184,9.0,3-11A,minor
42854,76,67,172,496,10.0,5-30B,other
42855,50,47,168,532,8.0,2-2,other
42856,43,46,104,488,10.0,3-11B,major
42857,37,49,196,172,10.0,3-11B,major
42858,36,69,132,352,10.0,3-11B,major
42859,72,82,184,344,4.0,2-6,other
42860,73,83,120,144,4.0,2-6,other
42861,77,60,76,340,0.0,2-4,major
42862,79,68,96,156,0.0,2-4,major
42863,81,59,92,336,9.0,2-1,other
42864,83,76,92,140,9.0,2-1,other
42865,57,31,48,208,2.0,3-7A,minor
42866,83,57,92,324,2.0,3-7A,minor
42867,43,58,64,1240,8.0,2-3,minor
42868,74,103,140,348,8.0,2-3,minor
42869,60,24,32,192,10.0,2-4,major
42870,67,44,44,132,10.0,2-4,major
42871,68,74,76,128,10.0,2-4,major
42872,70,67,84,124,10.0,2-4,major
42873,71,48,76,144,8.0,2-3,minor
42874,72,35,116,152,8.0,2-3,minor
42875,73,52,80,128,8.0,2-3,minor
42876,74,76,96,112,8.0,2-3,minor
42877,76,66,68,244,3.0,4-18B,other
42878,77,54,56,124,3.0,4-18B,other
42879,79,66,72,128,3.0,4-18B,other
42880,72,48,48,272,9.0,3-7B,other
42881,72,52,60,140,9.0,3-7B,other
42882,72,60,60,128,9.0,3-7B,other
42883,74,71,84,268,9.0,3-11A,minor
42884,72,54,24,132,9.0,3-11A,minor
42885,72,65,60,132,9.0,3-11A,minor
42886,72,50,44,296,3.0,4-20,major
42887,74,72,88,100,3.0,4-20,major
42888,72,57,40,148,3.0,4-20,major
42889,77,68,108,276,5.0,4-21,major
42890,72,55,36,128,5.0,4-21,major
42891,72,55,56,140,5.0,4-21,major
42892,65,43,212,352,10.0,2-4,major
42893,65,52,36,596,10.0,3-11B,major
42894,69,71,316,688,5.0,4-16A,other
42895,65,51,112,352,3.0,2-5,other
42896,61,63,148,172,3.0,2-5,other
42897,57,69,68,576,5.0,2-5,other
42898,59,78,60,252,10.0,2-1,other
42899,60,50,104,84,10.0,2-1,other
42900,59,51,56,108,10.0,2-1,other
42901,58,50,68,60,10.0,2-1,other
42902,57,43,64,92,10.0,2-1,other
42903,55,64,80,100,10.0,2-1,other
42904,50,80,160,1072,10.0,4-16A,other
42905,43,54,28,196,10.0,4-16A,other
42906,60,40,28,660,10.0,3-11B,major
42907,45,60,60,1876,9.0,3-11A,minor
42908,68,65,140,192,9.0,3-11A,minor
42909,72,71,76,376,9.0,3-8B,other
42910,74,90,128,168,9.0,3-8B,other
42911,76,54,88,368,0.0,5-29B,minor
42912,77,90,292,176,0.0,5-29B,minor
42913,43,57,156,1156,8.0,3-5B,other
42914,65,75,184,188,8.0,3-5B,other
42915,53,64,84,172,8.0,3-5B,other
42916,50,64,216,192,8.0,3-5B,other
42917,36,56,404,368,8.0,3-5B,other
42918,43,68,148,244,8.0,3-5B,other
42919,46,56,164,532,1.0,5-31B,diminished
42920,57,68,56,788,4.0,6-29,major
42921,48,51,128,380,0.0,3-1,other
42922,44,64,72,1172,6.0,5-26A,diminished
42923,43,58,52,896,3.0,5-30B,other
42924,50,28,36,652,0.0,3-6,major
42925,41,59,712,2704,3.0,4-22A,major
42926,51,56,324,220,3.0,4-22A,major
42927,41,54,304,620,9.0,3-8B,other
42928,60,32,36,872,10.0,3-11B,major
42929,77,58,72,1596,6.0,2-6,other
42930,75,50,100,144,6.0,2-6,other
42931,72,52,124,180,5.0,2-1,other
42932,67,54,100,164,5.0,2-1,other
42933,72,67,588,176,5.0,2-1,other
42934,57,43,76,276,2.0,3-7A,minor
42935,36,59,28,364,2.0,3-7A,minor
42936,68,23,52,1092,2.0,2-3,minor
42937,53,47,184,1356,3.0,3-9,other
42938,48,79,568,668,0.0,4-24,augmented
42939,48,56,24,860,1.0,4-27A,minor
42940,60,66,112,2132,11.0,3-2A,minor
42941,62,67,148,76,11.0,3-2A,minor
42942,65,79,152,320,11.0,3-2A,minor
42943,65,84,240,256,11.0,3-2A,minor
42944,41,54,28,372,11.0,3-2A,minor
42945,57,36,1208,916,5.0,4-24,augmented
42946,72,83,88,952,5.0,4-24,augmented
42947,72,92,100,252,5.0,4-24,augmented
42948,72,74,76,196,5.0,4-24,augmented
42949,53,39,152,380,10.0,3-9,other
42950,58,42,220,356,2.0,3-11A,minor
42951,58,60,188,452,10.0,3-11B,major
42952,36,52,28,784,4.0,2-6,other
42953,59,27,36,312,4.0,4-27A,diminished
42954,58,25,28,512,1.0,5-31A,diminished
42955,41,57,212,600,9.0,2-6,other
42956,57,22,64,408,6.0,4-28,diminished
42957,82,62,108,804,7.0,3-11A,minor
42958,79,50,60,76,7.0,3-11A,minor
42959,77,43,32,76,7.0,3-11A,minor
42960,77,59,88,92,7.0,3-11A,minor
42961,79,58,72,88,7.0,3-11A,minor
42962,77,37,64,60,7.0,3-11A,minor
42963,74,74,76,532,2.0,3-7A,minor
42964,72,43,92,64,2.0,3-7A,minor
42965,69,62,84,76,2.0,3-7A,minor
42966,70,59,80,136,2.0,3-7A,minor
42967,71,68,84,120,2.0,3-7A,minor
42968,72,84,196,140,2.0,3-7A,minor
42969,69,62,88,176,3.0,2-5,other
42970,61,52,100,168,3.0,2-5,other
42971,60,62,152,152,3.0,2-5,other
42972,58,52,124,208,3.0,2-5,other
42973,57,48,92,168,3.0,2-5,other
42974,57,29,112,184,3.0,2-5,other
42975,55,51,108,176,3.0,2-5,other
42976,54,57,148,584,6.0,2-3,minor
42977,50,56,96,180,6.0,2-3,minor
42978,52,74,96,348,2.0,2-5,other
42979,52,67,120,168,2.0,2-5,other
42980,50,40,368,40,2.0,2-5,other
42981,54,77,112,160,2.0,2-5,other
42982,54,77,140,200,2.0,2-5,other
42983,43,52,836,28,2.0,2-5,other
42984,55,83,104,124,2.0,2-5,other
42985,55,76,108,160,2.0,2-5,other
42986,56,72,100,140,2.0,2-5,other
42987,56,68,124,172,2.0,2-5,other
42988,50,32,216,56,2.0,2-5,other
42989,57,68,116,96,2.0,2-5,other
42990,57,40,108,188,2.0,2-5,other
42991,62,74,116,140,2.0,2-5,other
42992,65,74,104,332,10.0,2-4,major
42993,65,67,108,168,10.0,2-4,major
42994,69,75,88,164,10.0,2-4,major
42995,72,71,108,372,10.0,3-4A,major
42996,72,74,136,216,10.0,3-4A,major
42997,70,53,140,200,10.0,3-4A,major
42998,61,31,1348,480,5.0,3-8B,other
42999,82,77,128,472,5.0,2-4,other
43000,82,56,84,584,1.0,2-3,other
43001,82,50,80,188,1.0,2-3,other
43002,38,28,32,548,1.0,6-43B,minor
43003,60,48,896,560,6.0,4-27A,diminished
43004,65,48,508,312,6.0,4-27A,diminished
43005,43,52,2856,1472,5.0,4-16A,major
43006,54,50,232,240,5.0,4-16A,major
43007,50,50,92,244,5.0,4-16A,major
43008,72,71,132,6560,2.0,4-26,minor
43009,71,24,68,3104,2.0,2-2,other
43010,84,101,160,2244,9.0,4-26,minor
43011,73,77,392,312,6.0,6-17A,other
43012,76,77,100,444,6.0,6-17A,other
43013,63,68,276,344,3.0,4-22A,major
43014,55,78,204,472,3.0,4-22A,major
43015,47,54,92,812,2.0,4-18A,major
43016,77,80,112,1572,7.0,3-11A,minor
43017,72,47,292,300,5.0,3-8B,other
43018,72,88,132,2852,5.0,6-17A,other
43019,38,58,96,1060,10.0,5-30B,other
43020,77,95,116,488,10.0,5-30B,other
43021,72,71,240,416,0.0,2-5,other
43022,60,32,32,768,10.0,2-4,major
43023,36,69,28,456,10.0,2-4,major
43024,77,77,196,2656,8.0,3-5B,other
43025,74,65,76,220,8.0,3-5B,other
43026,50,51,100,1564,10.0,4-16A,other
43027,43,32,80,256,10.0,4-16A,other
43028,68,51,112,772,7.0,2-5,other
43029,67,39,88,80,7.0,2-5,other
43030,65,45,64,104,7.0,2-5,other
43031,62,59,104,172,7.0,2-5,other
43032,60,51,64,164,7.0,2-5,other
43033,53,58,156,432,5.0,2-5,other
43034,55,71,124,192,5.0,2-5,other
43035,60,64,104,476,9.0,2-3,minor
43036,62,69,168,232,9.0,2-3,minor
43037,45,49,252,724,9.0,2-3,minor
43038,39,63,260,480,5.0,3-9,other
43039,38,50,1048,480,5.0,3-9,other
43040,38,45,284,1204,10.0,5-30B,other
43041,62,50,236,2312,0.0,4-11A,other
43042,65,66,112,600,0.0,4-11A,other
43043,62,37,112,196,0.0,4-11A,other
43044,65,54,2164,228,0.0,4-11A,other
43045,29,51,88,820,0.0,4-11A,other
43046,41,40,220,3640,3.0,4-16A,major
43047,63,35,1160,608,3.0,4-16A,major
43048,74,58,68,152,9.0,2-2,other
43049,79,58,24,92,9.0,2-2,other
43050,81,66,60,68,9.0,2-2,other
43051,86,48,52,68,9.0,2-2,other
43052,91,32,32,72,9.0,2-2,other
43053,93,49,112,72,9.0,2-2,other
43054,98,45,108,68,9.0,2-2,other
43055,103,65,112,100,9.0,2-2,other
43056,50,50,366,0,0.0,2-5,other
43057,57,38,360,385,10.0,2-5,other
43058,62,44,242,670,5.0,2-5,other
43059,62,43,720,367,5.0,2-5,other
43060,69,2,509,552,10.0,2-5,other
43061,82,46,321,367,10.0,2-5,other
43062,62,31,294,61,10.0,2-5,other
43063,25,62,528,936,10.0,2-5,other
43064,62,56,637,2868,5.0,2-4,other
43065,69,73,171,356,5.0,2-4,other
43066,48,57,380,749,6.0,3-9,other
43067,49,27,339,439,9.0,2-4,major
43068,51,45,1059,352,9.0,2-4,major
43069,52,44,571,863,9.0,2-4,major
43070,61,32,916,452,9.0,2-4,major
43071,54,36,326,68,6.0,2-3,minor
43072,54,49,96,475,6.0,2-3,minor
43073,54,59,394,703,6.0,2-3,minor
43074,55,33,320,4219,1.0,2-2,other
43075,58,27,485,776,4.0,2-4,major
43076,68,33,483,453,1.0,2-3,minor
43077,58,33,800,507,1.0,2-3,minor
43078,68,38,476,451,1.0,2-3,minor
43079,49,17,177,492,1.0,2-3,minor
43080,82,39,35,1974,11.0,1-1,other
43081,56,29,2430,569,7.0,3-11A,minor
43082,65,57,1433,1268,6.0,1-1,other
43083,62,55,766,725,6.0,1-1,other
43084,63,45,169,3933,3.0,2-5,other
43085,51,53,1844,27,3.0,2-5,other
43086,75,83,806,793,3.0,2-5,other
43087,75,52,3043,958,3.0,2-5,other
43088,63,34,422,849,4.0,4-16A,other
43089,63,52,445,930,4.0,4-16A,other
43090,63,35,183,805,4.0,4-16A,other
43091,76,64,2217,702,4.0,4-16A,other
43092,38,48,454,36,4.0,4-16A,other
43093,52,47,319,458,4.0,4-16A,other
43094,53,48,312,362,5.0,2-4,major
43095,57,64,258,303,5.0,2-4,major
43096,60,60,1314,297,5.0,2-4,major
43097,65,60,350,802,5.0,3-4A,major
43098,64,40,416,32,5.0,3-4A,major
43099,74,74,291,247,5.0,3-4A,major
43100,69,64,184,232,5.0,3-4A,major
43101,65,64,218,205,5.0,3-4A,major
43102,50,47,214,451,0.0,2-5,other
43103,58,33,1400,486,10.0,3-4B,other
43104,62,31,136,317,5.0,2-5,other
43105,62,46,393,232,5.0,2-5,other
43106,67,26,345,366,10.0,2-5,other
43107,82,64,384,322,10.0,2-5,other
43108,62,43,86,30,10.0,2-5,other
43109,80,18,197,204,10.0,2-5,other
43110,49,71,1560,221,10.0,2-5,other
43111,53,40,1501,430,10.0,2-5,other
43112,68,60,1158,976,9.0,4-22A,major
43113,62,55,724,491,9.0,4-22A,major
43114,53,37,678,423,1.0,2-2,other
43115,49,56,127,638,11.0,3-7A,minor
43116,42,53,2483,834,1.0,2-5,other
43117,48,57,376,384,1.0,2-5,other
43118,49,25,372,427,9.0,2-4,major
43119,51,55,825,368,9.0,2-4,major
43120,52,54,409,819,9.0,2-4,major
43121,49,40,109,415,9.0,2-4,major
43122,60,47,314,2127,0.0,4-29B,major
43123,69,64,817,827,0.0,4-18A,minor
43124,76,80,159,366,0.0,4-18A,minor
43125,60,30,57,40,0.0,4-18A,minor
43126,55,24,453,877,1.0,2-2,other
43127,56,57,799,1706,4.0,2-4,major
43128,73,74,854,359,4.0,2-4,major
43129,49,52,129,376,4.0,2-4,major
43130,34,69,93,484,4.0,2-4,major
43131,56,60,82,1391,10.0,3-12,augmented
43132,62,42,446,1739,8.0,3-10,other
43133,56,57,109,550,8.0,3-10,other
43134,63,40,989,3290,3.0,4-16A,other
43135,47,55,416,3383,4.0,2-5,other
43136,75,69,291,2110,11.0,2-3,minor
43137,59,28,320,69,11.0,2-3,minor
43138,80,71,178,233,11.0,2-3,minor
43139,56,42,283,28,11.0,2-3,minor
43140,78,55,2712,299,11.0,2-3,minor
43141,51,36,749,38,11.0,2-3,minor
43142,58,25,291,305,11.0,2-3,minor
43143,63,42,417,631,10.0,3-11B,other
43144,64,51,290,717,10.0,2-4,other
43145,63,37,145,792,10.0,3-4A,other
43146,59,31,515,538,1.0,3-11A,minor
43147,56,48,1048,470,1.0,3-11A,minor
43148,63,85,328,431,1.0,3-11A,minor
43149,64,94,243,283,1.0,3-11A,minor
43150,68,74,257,278,1.0,3-11A,minor
43151,42,34,570,832,4.0,3-9,other
43152,54,28,622,1107,4.0,4-22A,major
43153,58,18,633,983,3.0,3-11B,other
43154,53,37,359,393,3.0,3-11B,other
43155,56,61,851,783,3.0,3-11A,other
43156,58,71,447,794,3.0,2-5,other
43157,63,77,680,430,3.0,2-5,other
43158,59,55,111,427,3.0,2-5,other
43159,78,79,252,937,7.0,5-27A,major
43160,57,61,279,838,7.0,3-4B,other
43161,57,58,924,423,7.0,3-4B,other
43162,79,73,105,339,7.0,3-4B,other
43163,83,84,211,407,7.0,3-4B,other
43164,83,68,124,381,7.0,3-4B,other
43165,57,40,626,29,7.0,3-4B,other
43166,66,15,300,451,6.0,3-11A,minor
43167,57,38,136,307,6.0,3-11A,minor
43168,45,48,1709,379,6.0,3-11A,minor
43169,57,50,755,1130,6.0,3-11A,minor
43170,66,85,234,469,6.0,3-11A,minor
43171,33,71,520,1204,7.0,4-22A,major
43172,33,48,521,1694,7.0,3-9,other
43173,62,49,687,476,9.0,3-8A,major
43174,33,64,140,394,9.0,3-8A,major
43175,54,64,481,1066,8.0,1-1,other
43176,54,45,109,2299,5.0,3-11A,other
43177,60,33,878,529,5.0,3-11A,other
43178,68,61,155,445,5.0,3-11A,other
43179,69,58,109,191,5.0,3-11A,other
43180,70,63,106,151,5.0,3-11A,other
43181,71,68,116,133,5.0,3-11A,other
43182,72,54,127,118,5.0,3-11A,other
43183,73,59,85,111,5.0,3-11A,other
43184,74,75,103,105,5.0,3-11A,other
43185,75,62,166,108,5.0,3-11A,other
43186,76,74,917,162,5.0,3-11A,other
43187,50,54,347,27,5.0,3-11A,other
43188,57,56,858,319,5.0,3-11A,other
43189,50,46,387,2029,5.0,3-9,other
43190,70,64,2826,635,10.0,3-4B,other
43191,50,31,536,40,10.0,3-4B,other
43192,55,37,801,366,10.0,3-4B,other
43193,50,27,804,541,10.0,3-4B,other
43194,58,35,457,423,10.0,3-4B,other
43195,43,32,119,360,10.0,3-4B,other
43196,25,60,139,527,10.0,3-4B,other
43197,49,31,801,1285,5.0,2-4,other
43198,53,35,2209,42,5.0,2-4,other
43199,59,35,303,1364,1.0,2-5,other
43200,49,51,448,1898,6.0,3-9,other
43201,51,45,423,434,9.0,2-4,major
43202,52,69,430,375,9.0,2-4,major
43203,56,61,445,473,9.0,2-4,major
43204,54,59,741,439,9.0,2-4,major
43205,61,43,688,441,9.0,2-4,major
43206,57,42,468,28,9.0,2-4,major
43207,62,58,792,1204,5.0,4-3,major
43208,75,51,249,3986,1.0,2-2,other
43209,75,49,626,477,1.0,2-2,other
43210,73,25,822,3826,0.0,4-18A,minor
43211,69,69,764,441,0.0,4-18A,minor
43212,49,35,2316,1216,3.0,3-4A,other
43213,55,47,537,488,3.0,3-4A,other
43214,73,38,398,1097,4.0,2-4,major
43215,58,25,622,34,4.0,2-4,major
43216,59,27,576,626,1.0,3-11A,minor
43217,61,42,778,526,1.0,3-11A,minor
43218,63,28,936,656,1.0,3-11A,minor
43219,64,31,229,1060,1.0,3-11A,minor
43220,57,50,43,869,1.0,3-11A,minor
43221,60,41,305,58,5.0,4-20,major
43222,53,33,1664,1942,10.0,3-4A,major
43223,72,111,238,1269,10.0,3-4A,major
43224,70,78,281,352,10.0,3-4A,major
43225,59,41,611,339,3.0,2-5,other
43226,53,1,529,132,3.0,2-5,other
43227,69,52,43,1998,6.0,4-26,minor
43228,73,35,60,174,6.0,4-26,minor
43229,76,68,60,141,6.0,4-26,minor
43230,78,83,142,135,6.0,4-26,minor
43231,80,72,94,187,6.0,4-26,minor
43232,78,49,81,137,6.0,4-26,minor
43233,80,82,102,156,6.0,4-26,minor
43234,78,66,329,159,6.0,4-26,minor
43235,73,52,105,304,6.0,4-26,minor
43236,74,52,35,555,5.0,5-18B,major
43237,59,18,258,1637,1.0,3-11A,minor
43238,68,32,307,454,3.0,3-5B,other
43239,34,56,270,1329,1.0,3-11A,minor
43240,56,43,100,926,1.0,3-11A,minor
43241,56,49,143,309,4.0,5-32A,other
43242,54,31,45,695,4.0,5-32A,other
43243,68,70,367,583,7.0,4-27A,minor
43244,65,75,187,1242,1.0,2-6,other
43245,64,63,229,638,2.0,5-27B,minor
43246,64,50,152,306,2.0,5-27B,minor
43247,65,68,93,206,2.0,5-27B,minor
43248,69,75,115,132,2.0,5-27B,minor
43249,72,85,75,139,2.0,5-27B,minor
43250,76,92,111,144,2.0,5-27B,minor
43251,79,122,115,146,2.0,5-27B,minor
43252,78,39,37,40,2.0,5-27B,minor
43253,77,89,148,105,2.0,5-27B,minor
43254,70,52,130,316,2.0,2-3,minor
43255,69,57,112,148,2.0,2-3,minor
43256,72,63,147,177,2.0,2-3,minor
43257,69,42,120,155,2.0,2-3,minor
43258,70,51,266,159,2.0,2-3,minor
43259,62,37,309,143,2.0,2-3,minor
43260,64,55,151,336,2.0,2-3,minor
43261,65,54,289,172,2.0,2-3,minor
43262,53,28,1101,354,3.0,4-19A,other
43263,68,54,104,310,3.0,4-19A,other
43264,70,70,119,149,3.0,4-19A,other
43265,71,57,104,164,3.0,4-19A,other
43266,73,50,117,131,3.0,4-19A,other
43267,75,64,29,110,3.0,4-19A,other
43268,76,68,68,71,3.0,4-19A,other
43269,77,71,69,110,3.0,4-19A,other
43270,80,85,207,346,3.0,4-19A,other
43271,81,68,109,581,1.0,2-5,other
43272,78,50,987,618,6.0,5-27B,minor
43273,65,33,45,1942,8.0,5-27A,other
43274,66,58,94,48,8.0,5-27A,other
43275,68,56,32,89,8.0,5-27A,other
43276,70,45,33,65,8.0,5-27A,other
43277,72,60,33,59,8.0,5-27A,other
43278,73,49,16,80,8.0,5-27A,other
43279,75,60,28,31,8.0,5-27A,other
43280,77,58,27,108,8.0,5-27A,other
43281,78,50,80,54,8.0,5-27A,other
43282,80,43,36,71,8.0,5-27A,other
43283,84,54,31,131,8.0,5-27A,other
43284,85,57,68,63,8.0,5-27A,other
43285,87,51,68,87,8.0,5-27A,other
43286,88,56,65,76,8.0,5-27A,other
43287,89,72,69,87,8.0,5-27A,other
43288,88,69,54,237,8.0,5-27A,other
43289,87,63,79,218,8.0,5-27A,other
43290,85,60,60,261,8.0,5-27A,other
43291,54,22,50,39,8.0,5-27A,other
43292,60,27,45,239,6.0,3-7B,other
43293,61,38,76,5496,3.0,3-4A,other
43294,61,36,62,519,3.0,3-4A,other
43295,54,5,469,1225,3.0,3-7B,other
43296,66,52,256,270,3.0,3-7B,other
43297,56,45,581,376,10.0,3-11B,other
43298,54,31,610,31,10.0,3-11B,other
43299,49,42,35,876,10.0,3-11B,other
43300,56,22,33,45,10.0,3-11B,other
43301,56,52,127,438,3.0,4-20,other
43302,58,49,189,681,1.0,3-11A,minor
43303,47,35,1404,960,6.0,1-1,other
43304,58,33,39,409,6.0,1-1,other
43305,61,46,33,102,6.0,1-1,other
43306,63,39,39,87,6.0,1-1,other
43307,66,54,59,83,6.0,1-1,other
43308,68,50,25,84,6.0,1-1,other
43309,70,54,30,61,6.0,1-1,other
43310,73,56,51,86,6.0,1-1,other
43311,75,55,25,77,6.0,1-1,other
43312,78,54,27,84,6.0,1-1,other
43313,80,50,29,71,6.0,1-1,other
43314,82,50,26,67,6.0,1-1,other
43315,85,52,31,91,6.0,1-1,other
43316,87,50,28,74,6.0,1-1,other
43317,90,51,36,91,6.0,1-1,other
43318,92,50,39,70,6.0,1-1,other
43319,94,50,26,71,6.0,1-1,other
43320,97,57,57,75,6.0,1-1,other
43321,99,56,40,65,6.0,1-1,other
43322,57,94,503,102,6.0,1-1,other
43323,45,77,108,333,6.0,1-1,other
43324,76,45,592,2616,1.0,4-23,minor
43325,61,44,87,722,1.0,4-23,minor
43326,85,36,36,348,7.0,4-20,major
43327,80,28,40,400,7.0,4-20,major
43328,55,45,104,269,11.0,3-11A,minor
43329,70,68,171,1330,5.0,4-17,major
43330,69,62,225,233,5.0,4-17,major
43331,65,1,69,208,5.0,4-17,major
43332,60,48,84,840,8.0,2-3,other
43333,62,45,40,95,8.0,2-3,other
43334,64,39,32,70,8.0,2-3,other
43335,65,41,35,55,8.0,2-3,other
43336,67,45,44,60,8.0,2-3,other
43337,69,42,33,66,8.0,2-3,other
43338,71,39,34,66,8.0,2-3,other
43339,72,40,36,56,8.0,2-3,other
43340,74,43,27,71,8.0,2-3,other
43341,76,42,31,67,8.0,2-3,other
43342,77,43,38,69,8.0,2-3,other
43343,79,38,30,85,8.0,2-3,other
43344,81,41,43,76,8.0,2-3,other
43345,83,39,47,78,8.0,2-3,other
43346,84,42,30,87,8.0,2-3,other
43347,86,47,28,66,8.0,2-3,other
43348,88,43,308,59,8.0,2-3,other
43349,88,75,143,366,2.0,4-26,minor
43350,88,69,155,240,2.0,4-26,minor
43351,88,71,96,250,2.0,4-26,minor
43352,88,90,201,822,10.0,4-20,major
43353,87,58,88,169,10.0,4-20,major
43354,86,63,38,97,10.0,4-20,major
43355,85,63,110,57,10.0,4-20,major
43356,84,43,83,139,10.0,4-20,major
43357,82,68,47,288,10.0,4-20,major
43358,81,65,68,212,10.0,4-20,major
43359,81,15,109,146,10.0,4-20,major
43360,82,68,175,119,10.0,4-20,major
43361,59,44,1450,240,0.0,3-11B,other
43362,53,11,1364,68,0.0,3-11B,other
43363,82,55,76,178,0.0,3-11B,other
43364,75,56,92,209,0.0,3-11B,other
43365,71,45,120,288,0.0,3-11B,other
43366,82,58,262,195,0.0,3-11B,other
43367,80,57,442,307,0.0,3-11B,other
43368,75,48,115,349,0.0,3-11B,other
43369,71,36,77,159,0.0,3-11B,other
43370,73,39,48,692,9.0,3-4B,other
43371,73,41,43,493,9.0,2-1,other
43372,32,60,62,1205,8.0,5-27A,other
43373,58,35,54,1379,8.0,2-2,other
43374,64,48,43,693,3.0,4-14A,other
43375,44,63,381,1525,3.0,2-1,other
43376,60,39,33,1221,5.0,4-18A,major
43377,79,49,76,2593,3.0,4-20,other
43378,80,56,70,104,3.0,4-20,other
43379,81,60,70,101,3.0,4-20,other
43380,82,58,27,103,3.0,4-20,other
43381,83,45,70,92,3.0,4-20,other
43382,84,45,96,52,3.0,4-20,other
43383,86,55,105,112,3.0,4-20,other
43384,87,81,91,77,3.0,4-20,other
43385,57,42,2575,528,4.0,2-2,other
43386,64,50,2364,255,4.0,2-2,other
43387,65,42,76,133,4.0,2-2,other
43388,69,48,37,83,4.0,2-2,other
43389,77,70,76,170,4.0,2-2,other
43390,81,61,106,80,4.0,2-2,other
43391,88,92,986,71,4.0,2-2,other
43392,81,63,67,106,4.0,2-2,other
43393,81,53,57,186,4.0,2-2,other
43394,81,51,124,204,4.0,2-2,other
43395,81,41,89,222,4.0,2-2,other
43396,81,52,422,270,4.0,2-2,other
43397,86,67,382,332,4.0,2-2,other
43398,81,66,455,344,4.0,2-2,other
43399,77,58,337,342,4.0,2-2,other
43400,84,62,306,351,4.0,2-2,other
43401,43,52,428,34,4.0,2-2,other
43402,50,63,250,283,4.0,2-2,other
43403,57,68,237,244,4.0,2-2,other
43404,58,63,2121,194,4.0,2-2,other
43405,62,75,84,155,4.0,2-2,other
43406,65,77,121,151,4.0,2-2,other
43407,62,51,290,35,4.0,2-2,other
43408,69,84,127,134,4.0,2-2,other
43409,70,82,90,150,4.0,2-2,other
43410,67,64,1176,29,4.0,2-2,other
43411,74,81,99,156,4.0,2-2,other
43412,84,99,204,189,4.0,2-2,other
43413,81,82,174,208,4.0,2-2,other
43414,62,39,146,27,4.0,2-2,other
43415,82,71,105,182,4.0,2-2,other
43416,86,67,967,208,4.0,2-2,other
43417,62,41,633,27,4.0,2-2,other
43418,96,69,193,192,4.0,2-2,other
43419,94,49,223,477,9.0,2-2,other
43420,58,33,1472,45,9.0,2-2,other
43421,90,39,279,211,9.0,2-2,other
43422,62,26,520,81,9.0,2-2,other
43423,93,52,302,197,9.0,2-2,other
43424,67,8,748,99,9.0,2-2,other
43425,91,45,299,237,9.0,2-2,other
43426,62,35,104,514,9.0,2-2,other
43427,60,59,317,5895,6.0,5-27B,minor
43428,63,57,452,663,9.0,2-4,major
43429,73,35,47,399,9.0,2-5,other
43430,66,57,822,341,9.0,2-5,other
43431,68,46,113,787,9.0,2-4,major
43432,44,36,1208,757,8.0,5-27A,other
43433,56,63,321,2375,8.0,5-27A,other
43434,56,54,478,1853,4.0,3-11B,major
43435,55,49,368,1294,1.0,3-9,other
43436,56,48,406,403,1.0,3-9,other
43437,58,50,496,427,1.0,3-9,other
43438,63,49,1067,977,4.0,2-4,major
43439,73,1,1639,248,4.0,2-4,major
43440,61,52,102,803,4.0,2-4,major
43441,42,79,203,1806,8.0,1-1,other
43442,44,75,67,161,8.0,1-1,other
43443,45,73,99,117,8.0,1-1,other
43444,48,80,131,98,8.0,1-1,other
43445,52,75,47,112,8.0,1-1,other
43446,54,75,101,72,8.0,1-1,other
43447,56,66,76,53,8.0,1-1,other
43448,57,58,63,78,8.0,1-1,other
43449,60,80,92,47,8.0,1-1,other
43450,64,71,55,78,8.0,1-1,other
43451,69,68,71,118,8.0,2-2,other
43452,72,72,61,70,8.0,2-2,other
43453,76,78,51,47,8.0,2-2,other
43454,81,54,1680,135,8.0,2-2,other
43455,84,57,5083,59,8.0,2-2,other
43456,88,82,1995,43,8.0,2-2,other
43457,87,64,1309,1415,8.0,2-2,other
43458,81,59,2923,487,8.0,2-2,other
43459,100,54,1946,1228,8.0,2-2,other
43460,25,80,280,5923,3.0,2-5,other
43461,52,43,188,2251,7.0,4-22A,major
43462,56,46,246,561,1.0,4-26,other
43463,49,31,206,2667,4.0,4-22A,major
43464,64,44,3090,5227,1.0,3-11A,minor
43465,66,54,2905,220,1.0,3-11A,minor
43466,68,63,2685,169,1.0,3-11A,minor
43467,71,51,125,151,1.0,3-11A,minor
43468,75,66,157,141,1.0,3-11A,minor
43469,78,68,74,148,1.0,3-11A,minor
43470,83,48,130,168,1.0,3-11A,minor
43471,87,68,84,155,1.0,3-11A,minor
43472,90,57,40,164,1.0,3-11A,minor
43473,95,57,1348,164,1.0,3-11A,minor
43474,99,53,1181,186,1.0,3-11A,minor
43475,102,56,994,173,1.0,3-11A,minor
43476,57,73,67,0,3.0,2-5,other
43477,58,88,49,52,3.0,2-5,other
43478,60,87,45,54,3.0,2-5,other
43479,46,62,23,122,0.0,2-4,major
43480,48,81,86,242,8.0,2-3,other
43481,50,90,59,58,8.0,2-3,other
43482,49,66,61,176,2.0,3-11B,major
43483,50,56,96,65,2.0,3-11B,major
43484,54,68,38,39,2.0,3-11B,major
43485,57,61,11,622,5.0,2-4,major
43486,60,40,28,62,5.0,2-4,major
43487,69,57,16,54,5.0,2-4,major
43488,71,48,35,242,3.0,3-4A,other
43489,75,92,35,180,3.0,3-11B,major
43490,72,84,16,73,3.0,3-11B,major
43491,72,97,25,30,3.0,3-11B,major
43492,83,84,8,224,5.0,3-5B,other
43493,43,72,55,98,7.0,4-27A,minor
43494,61,84,45,480,2.0,4-29A,minor
43495,60,58,28,121,0.0,2-3,minor
43496,46,58,41,174,8.0,4-22B,other
43497,46,83,262,183,0.0,4-26,minor
43498,55,70,13,57,0.0,4-26,minor
43499,70,105,17,58,0.0,4-26,minor
43500,79,90,11,120,4.0,5-32B,other
43501,58,71,22,140,7.0,4-17,other
43502,62,90,34,692,5.0,2-5,other
43503,48,74,14,123,2.0,4-18A,major
43504,60,71,8,94,6.0,2-3,other
43505,43,71,92,91,6.0,2-3,other
43506,44,96,38,712,5.0,2-4,major
43507,82,110,48,70,5.0,2-4,major
43508,75,98,40,239,3.0,3-11B,major
43509,67,66,35,118,7.0,2-3,minor
43510,54,45,48,124,5.0,3-11A,other
43511,44,53,39,119,6.0,3-5B,other
43512,60,48,46,460,1.0,3-10,minor
43513,60,72,27,286,11.0,3-2A,minor
43514,55,70,39,394,3.0,2-4,major
43515,48,49,97,371,3.0,2-1,other
43516,55,53,45,54,3.0,2-1,other
43517,72,85,28,114,0.0,2-5,other
43518,74,48,16,266,3.0,3-12,augmented
43519,56,80,122,95,0.0,3-11B,other
43520,61,94,50,240,3.0,3-5A,other
43521,55,45,118,243,0.0,3-11A,minor
43522,63,60,20,52,0.0,3-11A,minor
43523,58,107,75,186,3.0,3-4A,major
43524,42,67,40,110,3.0,2-4,major
43525,79,65,8,132,2.0,5-24A,minor
43526,79,48,4,133,9.0,5-29B,diminished
43527,43,60,9,209,2.0,2-3,minor
43528,41,43,332,620,9.0,2-6,other
43529,51,55,109,53,9.0,2-6,other
43530,51,50,148,182,2.0,5-31B,major
43531,67,62,58,116,9.0,4-27A,diminished
43532,46,61,32,129,10.0,3-11B,major
43533,46,54,26,52,10.0,3-11B,major
43534,46,68,104,62,10.0,3-11B,major
43535,46,71,46,123,1.0,4-28,diminished
43536,46,71,41,58,1.0,4-28,diminished
43537,46,78,103,59,1.0,4-28,diminished
43538,46,97,38,119,0.0,5-27A,other
43539,46,101,50,57,0.0,5-27A,other
43540,60,79,40,483,10.0,1-1,other
43541,60,80,26,50,10.0,1-1,other
43542,60,71,73,59,10.0,1-1,other
43543,52,72,58,65,10.0,1-1,other
43544,41,68,8,243,2.0,4-27A,minor
43545,74,81,28,126,2.0,5-29B,minor
43546,62,111,61,117,2.0,3-11B,major
43547,61,93,50,61,2.0,3-11B,major
43548,60,75,57,58,2.0,3-11B,major
43549,55,70,28,119,10.0,3-11B,major
43550,51,75,54,118,3.0,3-11B,major
43551,48,82,116,118,3.0,3-11B,major
43552,58,70,41,63,3.0,3-11B,major
43553,45,50,176,119,10.0,1-1,other
43554,74,55,23,420,3.0,4-14A,other
43555,79,89,38,126,3.0,3-11B,major
43556,72,65,23,124,3.0,3-11B,major
43557,64,58,35,117,6.0,4-29A,other
43558,43,34,6,336,10.0,3-11A,other
43559,67,67,11,47,10.0,3-11A,other
43560,60,61,20,216,1.0,3-10,minor
43561,61,75,46,120,2.0,4-29A,minor
43562,60,50,25,237,8.0,4-22B,other
43563,60,49,46,135,0.0,3-6,other
43564,46,61,66,118,3.0,1-1,other
43565,46,76,16,367,10.0,1-1,other
43566,39,59,7,43,10.0,1-1,other
43567,70,96,20,160,5.0,3-9,other
43568,72,97,24,31,5.0,3-9,other
43569,52,47,32,203,1.0,4-28,diminished
43570,74,85,20,274,5.0,3-11A,other
43571,62,84,23,84,2.0,4-18A,major
43572,61,79,32,42,2.0,4-18A,major
43573,57,58,7,79,6.0,4-28,diminished
43574,43,55,38,83,6.0,4-28,diminished
43575,94,101,33,675,9.0,4-27A,diminished
43576,89,78,15,116,8.0,2-2,other
43577,83,65,19,61,3.0,4-20,other
43578,82,83,17,30,3.0,4-20,other
43579,81,75,20,28,3.0,4-20,other
43580,75,25,7,134,7.0,2-3,minor
43581,51,63,15,116,7.0,1-1,other
43582,60,64,25,93,6.0,4-29A,other
43583,64,74,29,150,6.0,2-3,other
43584,65,63,24,78,8.0,3-2B,other
43585,42,82,25,399,1.0,4-27A,minor
43586,48,68,58,163,2.0,5-37,minor
43587,41,52,10,77,2.0,5-37,minor
43588,34,62,271,125,0.0,3-6,other
43589,46,57,10,120,5.0,3-11A,other
43590,46,97,70,111,3.0,3-11B,major
43591,63,77,23,94,3.0,3-11B,major
43592,67,95,35,37,3.0,3-11B,major
43593,67,63,20,75,8.0,2-2,other
43594,68,92,20,28,8.0,2-2,other
43595,70,97,20,27,8.0,2-2,other
43596,74,75,11,61,7.0,5-18A,major
43597,79,92,18,27,7.0,5-18A,major
43598,86,107,22,31,7.0,5-18A,major
43599,74,72,53,71,3.0,3-4B,other
43600,66,64,29,349,1.0,3-10,other
43601,60,76,17,89,0.0,4-26,other
43602,41,69,27,119,5.0,3-11A,other
43603,75,109,29,173,6.0,4-28,diminished
43604,77,93,28,70,6.0,4-12B,other
43605,78,87,31,40,6.0,4-12B,other
43606,75,58,21,112,3.0,5-36A,major
43607,74,84,16,46,3.0,5-36A,major
43608,67,63,19,76,10.0,2-4,major
43609,63,71,26,30,10.0,2-4,major
43610,60,58,13,28,10.0,2-4,major
43611,60,59,14,222,0.0,3-7A,minor
43612,52,71,75,89,5.0,3-11B,major
43613,45,73,9,145,5.0,3-11B,major
43614,54,71,21,259,3.0,3-12,augmented
43615,74,103,18,224,3.0,3-11B,major
43616,86,103,12,85,8.0,5-26B,other
43617,74,79,20,156,10.0,2-5,other
43618,43,74,65,119,7.0,5-32A,minor
43619,55,59,29,43,7.0,5-32A,minor
43620,56,63,19,34,7.0,5-32A,minor
43621,58,69,25,29,7.0,5-32A,minor
43622,59,64,27,32,7.0,5-32A,minor
43623,61,88,36,106,0.0,2-4,major
43624,64,69,23,74,3.0,2-1,other
43625,65,70,22,26,3.0,2-1,other
43626,66,87,21,30,3.0,2-1,other
43627,68,75,20,63,5.0,3-6,major
43628,69,74,22,27,5.0,3-6,major
43629,72,84,21,29,5.0,3-6,major
43630,75,78,25,71,9.0,4-27A,diminished
43631,77,71,15,35,9.0,4-27A,diminished
43632,63,64,9,86,0.0,4-20,other
43633,46,65,106,156,8.0,4-29A,other
43634,46,80,31,119,7.0,5-35,minor
43635,46,85,15,117,10.0,3-9,other
43636,34,72,47,121,0.0,5-27A,other
43637,81,54,10,249,10.0,1-1,other
43638,77,79,14,450,0.0,4-26,other
43639,72,70,15,141,0.0,4-26,other
43640,72,73,19,94,6.0,3-10,other
43641,75,74,19,32,6.0,3-10,other
43642,72,67,23,79,9.0,3-8B,other
43643,54,54,48,119,7.0,4-23,minor
43644,63,68,27,397,7.0,4-22B,minor
43645,53,60,34,166,5.0,3-11B,major
43646,82,84,16,39,5.0,3-11B,major
43647,63,71,14,368,7.0,2-3,minor
43648,63,82,13,36,7.0,2-3,minor
43649,57,54,13,77,9.0,2-2,other
43650,65,88,30,34,9.0,2-2,other
43651,65,38,9,325,7.0,4-26,minor
43652,73,71,7,83,2.0,3-3A,minor
43653,49,79,17,37,2.0,3-3A,minor
43654,37,98,21,37,2.0,3-3A,minor
43655,42,65,20,241,1.0,4-28,diminished
43656,39,79,13,482,0.0,5-35,other
43657,46,104,97,116,7.0,4-26,minor
43658,46,76,33,114,3.0,3-11B,major
43659,43,64,31,248,1.0,4-24,other
43660,67,77,19,123,0.0,3-11A,minor
43661,72,55,27,80,0.0,1-1,other
43662,48,55,80,40,0.0,1-1,other
43663,48,61,71,119,7.0,2-5,other
43664,48,76,88,121,3.0,1-1,other
43665,48,82,81,116,3.0,2-5,other
43666,48,90,91,120,0.0,3-11B,other
43667,48,80,65,115,3.0,2-1,other
43668,72,120,24,363,3.0,3-4A,major
43669,42,59,25,241,9.0,3-10,diminished
43670,41,40,12,241,9.0,3-10,diminished
43671,67,1,145,115,3.0,2-4,other
43672,47,66,14,126,11.0,3-10,diminished
43673,62,95,57,225,0.0,3-11A,minor
43674,59,97,68,121,0.0,4-14A,minor
43675,41,69,294,240,9.0,2-6,other
43676,51,58,263,56,9.0,2-6,other
43677,41,51,7,303,9.0,4-23,minor
43678,58,64,13,121,10.0,1-1,other
43679,46,60,15,119,10.0,1-1,other
43680,34,65,189,242,6.0,5-32B,minor
43681,34,86,10,236,0.0,5-35,other
43682,65,1,52,106,4.0,7-31B,other
43683,66,11,15,142,2.0,4-20,major
43684,72,75,17,251,7.0,3-11A,minor
43685,51,72,16,199,4.0,2-3,minor
43686,52,58,42,39,4.0,2-3,minor
43687,41,64,135,85,5.0,2-5,other
43688,62,79,44,122,5.0,3-11A,other
43689,61,48,20,107,2.0,4-18A,major
43690,42,73,19,86,2.0,3-5B,other
43691,42,77,12,46,2.0,3-5B,other
43692,77,60,58,859,8.0,3-6,other
43693,46,56,65,179,3.0,3-3B,major
43694,67,53,51,124,7.0,1-1,other
43695,72,76,30,57,7.0,1-1,other
43696,60,59,49,175,6.0,2-6,other
43697,53,69,59,186,7.0,3-7A,minor
43698,58,68,43,59,7.0,3-7A,minor
43699,67,60,32,57,7.0,3-7A,minor
43700,61,64,41,120,1.0,5-31B,diminished
43701,60,52,37,116,1.0,3-10,minor
43702,61,64,47,126,2.0,4-29A,minor
43703,60,43,25,239,0.0,4-11A,other
43704,60,47,25,123,8.0,4-22B,other
43705,63,50,42,182,1.0,4-23,other
43706,63,58,27,237,11.0,5-32B,minor
43707,62,36,28,0,10.0,5-22,augmented
43708,62,41,40,84,10.0,5-22,augmented
43709,62,43,36,92,6.0,2-3,minor
43710,62,36,32,92,2.0,3-11B,major
43711,62,40,28,160,6.0,2-3,minor
43712,62,35,20,76,6.0,2-3,minor
43713,62,39,24,268,10.0,4-19B,augmented
43714,62,35,28,68,10.0,4-19B,augmented
43715,70,39,40,460,10.0,4-19B,augmented
43716,72,52,40,68,10.0,4-19B,augmented
43717,84,54,20,204,5.0,4-20,other
43718,84,59,24,104,5.0,4-20,other
43719,84,68,32,108,5.0,4-20,other
43720,84,81,52,216,5.0,4-20,other
43721,84,80,64,92,5.0,4-20,other
43722,84,71,68,96,5.0,4-20,other
43723,84,55,76,132,10.0,2-1,other
43724,82,50,32,104,10.0,2-1,other
43725,79,68,40,356,5.0,2-4,other
43726,75,62,80,116,5.0,2-4,other
43727,51,32,28,476,0.0,3-4A,other
43728,55,12,128,860,3.0,2-5,other
43729,44,73,100,468,1.0,4-11A,other
43730,53,75,92,104,1.0,4-11A,other
43731,68,20,20,156,3.0,3-12,augmented
43732,56,79,88,104,3.0,3-12,augmented
43733,79,68,48,1188,3.0,4-20,major
43734,80,58,44,440,3.0,3-4A,major
43735,82,66,32,72,3.0,3-4A,major
43736,74,56,100,260,5.0,2-2,other
43737,75,58,28,128,5.0,2-2,other
43738,83,60,44,204,3.0,3-4A,major
43739,84,54,52,80,3.0,3-4A,major
43740,86,55,40,116,3.0,3-4A,major
43741,87,53,92,84,0.0,4-20,other
43742,60,62,40,2608,4.0,4-27A,diminished
43743,61,66,56,60,4.0,4-27A,diminished
43744,66,68,32,144,4.0,2-2,other
43745,67,65,52,48,4.0,2-2,other
43746,69,68,36,48,4.0,2-2,other
43747,70,68,28,32,4.0,2-2,other
43748,72,75,44,44,4.0,2-2,other
43749,73,66,48,36,4.0,2-2,other
43750,77,66,40,192,0.0,5-27B,other
43751,75,61,36,68,0.0,5-27B,other
43752,72,48,48,60,0.0,5-27B,other
43753,68,45,52,64,0.0,5-27B,other
43754,70,59,72,156,0.0,3-11A,minor
43755,68,58,56,108,0.0,3-11A,minor
43756,46,64,292,352,7.0,4-29A,minor
43757,46,60,48,380,8.0,4-24,other
43758,74,82,96,384,10.0,5-22,augmented
43759,62,49,48,308,10.0,5-22,augmented
43760,63,70,52,64,10.0,5-22,augmented
43761,65,78,44,72,10.0,5-22,augmented
43762,66,81,76,60,10.0,5-22,augmented
43763,69,79,44,120,8.0,2-6,other
43764,71,80,72,60,8.0,2-6,other
43765,72,82,44,56,8.0,2-6,other
43766,74,82,36,56,8.0,2-6,other
43767,75,76,68,56,8.0,2-6,other
43768,74,86,76,72,8.0,2-6,other
43769,77,75,64,136,3.0,2-1,other
43770,78,72,68,64,3.0,2-1,other
43771,80,69,32,60,3.0,2-1,other
43772,81,72,44,48,3.0,2-1,other
43773,82,68,44,44,3.0,2-1,other
43774,83,69,44,44,3.0,2-1,other
43775,84,76,60,60,5.0,3-4A,other
43776,84,63,48,92,5.0,3-4A,other
43777,84,57,36,88,5.0,3-4A,other
43778,84,66,40,92,5.0,3-4A,other
43779,84,56,48,240,5.0,3-4A,other
43780,84,66,40,108,5.0,3-4A,other
43781,82,45,36,72,5.0,3-4A,other
43782,85,57,148,192,5.0,4-16A,other
43783,75,54,104,652,0.0,5-35,other
43784,72,15,72,388,0.0,6-48,minor
43785,58,28,84,940,0.0,2-3,minor
43786,92,85,76,336,3.0,4-20,other
43787,90,85,72,104,3.0,4-20,other
43788,87,72,64,196,3.0,3-8B,other
43789,85,62,40,84,3.0,3-8B,other
43790,83,61,28,60,3.0,3-8B,other
43791,82,56,68,48,3.0,3-8B,other
43792,80,52,44,44,3.0,3-8B,other
43793,77,44,16,84,3.0,5-20B,other
43794,75,44,28,48,3.0,5-20B,other
43795,73,34,16,40,3.0,5-20B,other
43796,70,85,128,368,3.0,4-16A,other
43797,68,61,52,80,3.0,4-16A,other
43798,66,52,40,40,3.0,4-16A,other
43799,64,41,20,44,3.0,4-16A,other
43800,62,35,40,92,3.0,4-16A,other
43801,62,42,80,156,3.0,4-22A,major
43802,55,63,228,140,3.0,4-22A,major
43803,58,60,56,240,3.0,4-22A,major
43804,62,62,32,96,3.0,4-22A,major
43805,65,107,48,100,3.0,4-22A,major
43806,63,59,68,192,7.0,4-22B,minor
43807,59,52,68,80,7.0,4-22B,minor
43808,62,63,52,108,7.0,4-22B,minor
43809,60,66,48,184,10.0,2-1,other
43810,62,49,64,84,10.0,2-1,other
43811,63,52,36,100,10.0,2-1,other
43812,67,52,16,180,5.0,3-11A,other
43813,68,44,56,80,5.0,3-11A,other
43814,70,52,44,108,5.0,3-11A,other
43815,74,62,24,192,0.0,3-11A,minor
43816,75,48,20,76,0.0,3-11A,minor
43817,77,54,36,108,0.0,3-11A,minor
43818,85,22,56,1104,0.0,5-23A,minor
43819,37,42,64,780,3.0,4-23,other
43820,44,48,224,204,3.0,4-23,other
43821,53,39,16,180,3.0,4-23,other
43822,72,22,24,1612,0.0,1-1,other
43823,73,49,92,268,5.0,3-4A,other
43824,72,39,44,132,5.0,3-4A,other
43825,84,62,228,208,5.0,2-4,other
43826,86,13,20,1796,1.0,4-28,diminished
43827,70,75,80,1708,8.0,5-27B,other
43828,48,57,236,768,0.0,4-26,minor
43829,68,83,100,944,5.0,1-1,other
43830,70,75,52,116,5.0,1-1,other
43831,72,68,48,80,5.0,1-1,other
43832,73,66,36,108,5.0,1-1,other
43833,74,59,52,116,1.0,4-4A,minor
43834,74,57,32,92,1.0,4-4A,minor
43835,86,70,24,88,1.0,4-4A,minor
43836,86,69,40,100,1.0,4-4A,minor
43837,74,52,24,192,0.0,3-6,major
43838,86,55,20,80,0.0,3-6,major
43839,86,63,28,108,0.0,3-6,major
43840,74,45,24,196,0.0,4-11A,major
43841,74,46,20,88,0.0,4-11A,major
43842,74,53,60,104,0.0,4-11A,major
43843,86,89,84,1000,6.0,3-8B,other
43844,87,61,48,68,6.0,3-8B,other
43845,88,55,56,56,6.0,3-8B,other
43846,88,63,76,208,3.0,3-9,other
43847,89,74,52,96,3.0,3-9,other
43848,79,54,76,252,0.0,2-3,minor
43849,86,70,56,92,0.0,2-3,minor
43850,84,63,64,84,0.0,2-3,minor
43851,53,4,152,168,8.0,3-8A,other
43852,58,63,136,944,1.0,4-28,diminished
43853,58,54,180,196,1.0,4-28,diminished
43854,46,57,684,184,1.0,4-28,diminished
43855,46,57,340,784,0.0,5-27A,other
43856,46,66,36,396,8.0,5-31B,other
43857,62,20,40,380,8.0,4-24,other
43858,96,58,12,1896,5.0,4-20,other
43859,96,68,44,136,5.0,4-20,other
43860,89,56,28,196,5.0,2-4,other
43861,94,57,32,80,5.0,2-4,other
43862,94,66,40,112,5.0,2-4,other
43863,85,55,28,176,5.0,3-8B,other
43864,89,58,28,80,5.0,3-8B,other
43865,89,66,36,100,5.0,3-8B,other
43866,79,54,40,196,1.0,3-10,diminished
43867,85,60,40,68,1.0,3-10,diminished
43868,85,66,44,116,1.0,3-10,diminished
43869,82,66,44,196,0.0,4-23,minor
43870,79,47,28,92,0.0,4-23,minor
43871,75,61,64,104,0.0,4-23,minor
43872,51,48,36,1204,0.0,3-11A,minor
43873,81,67,28,2204,10.0,2-4,major
43874,82,87,40,60,10.0,2-4,major
43875,86,83,48,132,0.0,5-37,minor
43876,83,64,44,64,0.0,5-37,minor
43877,84,77,52,64,0.0,5-37,minor
43878,79,58,48,60,0.0,5-37,minor
43879,77,66,36,60,0.0,5-37,minor
43880,74,52,44,180,0.0,3-11A,minor
43881,77,68,92,72,0.0,3-11A,minor
43882,74,54,48,112,0.0,3-11A,minor
43883,60,25,96,224,3.0,2-4,major
43884,53,37,36,2348,5.0,4-20,other
43885,63,66,84,748,0.0,5-27B,minor
43886,62,22,120,188,5.0,2-2,other
43887,63,55,56,132,5.0,2-2,other
43888,67,50,48,204,5.0,2-2,other
43889,70,68,72,188,5.0,2-2,other
43890,72,86,68,196,5.0,2-2,other
43891,72,72,304,96,5.0,2-2,other
43892,72,42,16,324,5.0,2-2,other
43893,69,29,24,200,5.0,3-4A,other
43894,72,52,132,52,5.0,3-4A,other
43895,69,40,34,144,5.0,3-4A,other
43896,72,55,40,180,10.0,3-11A,other
43897,73,49,88,68,10.0,3-11A,other
43898,82,76,104,188,5.0,3-3B,other
43899,84,84,44,128,5.0,3-3B,other
43900,82,33,20,212,5.0,3-12,augmented
43901,84,66,120,52,5.0,3-12,augmented
43902,60,99,96,2992,8.0,2-2,other
43903,61,50,64,100,8.0,2-2,other
43904,60,61,52,28,8.0,2-2,other
43905,57,68,48,52,8.0,2-2,other
43906,59,73,56,188,8.0,3-2B,other
43907,63,69,68,196,0.0,3-8B,other
43908,60,39,44,88,0.0,3-8B,other
43909,56,49,20,100,0.0,3-8B,other
43910,63,50,76,68,0.0,3-8B,other
43911,70,37,20,188,7.0,2-1,other
43912,79,75,44,676,0.0,3-11B,other
43913,82,71,36,84,0.0,3-11B,other
43914,84,86,40,116,0.0,3-11B,other
43915,86,48,36,236,2.0,2-2,other
43916,74,57,44,48,2.0,2-2,other
43917,86,50,36,44,2.0,2-2,other
43918,74,54,48,40,2.0,2-2,other
43919,74,44,72,92,0.0,4-11A,major
43920,86,54,40,56,0.0,4-11A,major
43921,57,31,20,104,0.0,2-4,major
43922,74,52,36,244,11.0,2-2,other
43923,74,50,36,84,0.0,3-6,major
43924,74,57,36,332,2.0,2-5,other
43925,74,52,36,76,4.0,2-2,other
43926,74,46,36,84,4.0,3-7A,minor
43927,46,64,404,2280,3.0,2-5,other
43928,55,83,420,408,1.0,4-28,diminished
43929,46,80,144,200,1.0,4-28,diminished
43930,46,75,636,180,1.0,4-28,diminished
43931,56,68,120,392,0.0,5-27A,other
43932,56,57,216,188,0.0,5-27A,other
43933,46,52,276,180,0.0,5-27A,other
43934,65,50,20,1428,3.0,4-20,major
43935,67,52,28,40,3.0,4-20,major
43936,70,68,32,32,3.0,4-20,major
43937,72,73,32,48,3.0,4-20,major
43938,74,74,12,36,3.0,4-20,major
43939,77,74,40,44,3.0,4-20,major
43940,79,63,28,40,3.0,4-20,major
43941,82,70,32,28,3.0,4-20,major
43942,84,67,40,48,3.0,4-20,major
43943,86,58,12,40,3.0,4-20,major
43944,89,57,36,48,3.0,4-20,major
43945,91,68,36,36,3.0,4-20,major
43946,94,57,12,40,3.0,4-20,major
43947,96,40,24,52,3.0,4-20,major
43948,98,11,24,28,3.0,4-20,major
43949,103,63,40,96,5.0,2-1,other
43950,107,52,12,64,5.0,2-1,other
43951,72,31,16,2660,0.0,4-26,minor
43952,62,9,288,2316,0.0,4-26,minor
43953,67,53,124,164,0.0,4-26,minor
43954,77,70,100,1244,2.0,3-5B,other
43955,72,42,64,408,8.0,1-1,other
43956,72,56,24,340,0.0,3-11A,minor
43957,72,65,52,56,0.0,3-11A,minor
43958,77,82,52,712,3.0,2-5,other
43959,79,68,32,412,3.0,4-24,augmented
43960,91,64,112,660,3.0,4-27A,other
43961,72,61,40,512,3.0,4-24,augmented
43962,55,58,104,1068,0.0,3-11B,major
43963,48,81,128,1524,0.0,3-11B,other
43964,48,75,120,184,0.0,3-11B,other
43965,41,63,28,160,0.0,3-11B,other
43966,63,68,108,1188,8.0,4-12A,other
43967,65,60,120,400,3.0,2-5,other
43968,27,67,12,416,3.0,1-1,other
43969,46,41,60,4584,0.0,4-26,minor
43970,57,16,52,156,5.0,2-5,other
43971,82,54,88,840,9.0,2-3,minor
43972,86,51,96,172,9.0,2-3,minor
43973,89,68,248,84,9.0,2-3,minor
43974,58,48,776,452,10.0,2-1,other
43975,65,39,44,680,0.0,1-1,other
43976,105,51,244,196,0.0,1-1,other
43977,72,31,237,0,8.0,3-10,other
43978,88,86,98,1436,7.0,2-3,minor
43979,61,38,945,36,7.0,2-3,minor
43980,76,80,529,473,7.0,2-3,minor
43981,84,73,508,451,7.0,2-3,minor
43982,84,50,358,922,1.0,2-3,other
43983,50,73,1588,1533,2.0,4-27A,minor
43984,62,51,438,1920,2.0,4-27A,minor
43985,56,66,1380,416,2.0,4-27A,minor
43986,60,62,818,474,2.0,4-27A,minor
43987,65,66,244,545,2.0,4-27A,minor
43988,49,48,1345,445,2.0,4-27A,minor
43989,49,44,260,1418,7.0,2-4,major
43990,73,80,219,963,0.0,3-7B,other
43991,58,40,378,514,1.0,3-10,minor
43992,72,50,107,377,1.0,3-10,minor
43993,53,50,681,1143,3.0,2-4,major
43994,56,57,440,375,3.0,2-4,major
43995,48,59,109,420,3.0,2-4,major
43996,65,45,48,430,8.0,4-22A,other
43997,32,82,1023,428,8.0,4-22A,other
43998,32,85,134,1131,6.0,3-8A,other
43999,56,10,1871,2006,3.0,3-9,other
44000,60,56,512,401,5.0,3-11A,other
44001,65,26,137,1965,0.0,2-4,other
44002,53,43,238,1353,5.0,3-11A,other
44003,43,40,382,2502,10.0,2-5,other
44004,58,63,182,374,10.0,2-5,other
44005,60,78,200,200,10.0,2-5,other
44006,61,85,123,227,10.0,2-5,other
44007,65,82,192,201,10.0,2-5,other
44008,70,94,199,243,10.0,2-5,other
44009,72,92,244,250,10.0,2-5,other
44010,75,86,305,564,1.0,4-13B,other
44011,73,76,223,236,1.0,4-13B,other
44012,75,63,283,240,1.0,4-13B,other
44013,41,36,234,1301,2.0,4-26,minor
44014,53,25,191,985,9.0,2-3,minor
44015,48,36,318,880,0.0,4-24,augmented
44016,84,122,313,593,0.0,4-24,augmented
44017,63,52,43,345,0.0,4-24,augmented
44018,72,55,157,674,0.0,2-2,other
44019,74,81,258,868,7.0,4-22B,minor
44020,41,58,1620,917,3.0,3-4A,major
44021,51,48,599,357,3.0,3-4A,major
44022,57,39,549,994,6.0,3-7A,other
44023,45,47,404,3001,9.0,4-26,minor
44024,62,20,212,559,9.0,4-26,minor
44025,42,71,263,920,2.0,2-2,other
44026,49,50,310,940,7.0,2-5,other
44027,53,56,53,981,7.0,3-11A,minor
44028,61,48,538,372,7.0,3-11A,minor
44029,46,39,402,52,5.0,3-11A,other
44030,70,62,700,553,5.0,3-11A,other
44031,58,52,125,335,5.0,3-11A,other
44032,61,50,80,353,5.0,3-11A,other
44033,43,60,166,657,8.0,2-2,other
44034,69,82,287,970,0.0,2-2,other
44035,53,61,494,948,1.0,4-24,other
44036,49,57,217,1529,3.0,4-24,augmented
44037,50,78,1117,914,7.0,4-26,minor
44038,43,48,395,990,10.0,3-11B,major
44039,36,39,315,418,0.0,3-8A,major
44040,60,61,552,2853,9.0,4-26,minor
44041,50,42,384,1003,6.0,4-27A,diminished
44042,54,45,1539,921,5.0,2-5,other
44043,48,55,783,2410,7.0,2-2,other
44044,48,62,654,955,0.0,4-24,augmented
44045,48,75,779,945,1.0,4-27A,minor
44046,55,60,180,361,1.0,4-27A,minor
44047,72,42,728,156,2.0,3-11A,minor
44048,48,98,623,448,2.0,3-11A,minor
44049,48,117,769,961,2.0,3-11A,minor
44050,67,46,168,2367,0.0,2-3,minor
44051,70,24,151,45,0.0,2-3,minor
44052,86,69,61,549,0.0,2-3,minor
44053,63,28,192,343,7.0,3-11A,minor
44054,42,48,179,551,7.0,3-11A,minor
44055,52,25,56,39,7.0,3-11A,minor
44056,41,54,62,392,2.0,3-11A,minor
44057,41,14,1030,122,2.0,3-11A,minor
44058,48,29,1183,486,2.0,3-11A,minor
44059,41,36,135,910,9.0,3-8B,other
44060,77,117,126,1039,5.0,2-5,other
44061,60,48,270,375,2.0,2-3,minor
44062,65,58,140,270,2.0,2-3,minor
44063,46,64,78,307,2.0,2-3,minor
44064,55,43,118,370,9.0,3-7A,minor
44065,73,48,43,785,9.0,3-2B,minor
44066,50,45,239,577,6.0,4-28,diminished
44067,65,51,788,580,10.0,2-4,major
44068,57,89,342,305,10.0,2-4,major
44069,55,75,725,305,10.0,2-4,major
44070,54,75,258,653,10.0,3-11B,major
44071,53,59,217,308,10.0,3-11B,major
44072,52,54,106,197,10.0,3-11B,major
44073,51,60,127,86,10.0,3-11B,major
44074,50,68,106,84,10.0,3-11B,major
44075,49,78,776,92,5.0,3-11B,other
44076,60,45,189,2739,9.0,4-26,minor
44077,55,58,642,3886,2.0,2-3,minor
44078,48,76,736,562,2.0,2-3,minor
44079,48,81,266,935,1.0,4-28,diminished
44080,61,61,133,939,1.0,3-10,diminished
44081,46,90,373,3858,2.0,4-26,minor
44082,74,66,264,1587,11.0,3-7A,minor
44083,76,66,292,309,11.0,3-7A,minor
44084,40,27,264,369,5.0,2-1,other
44085,76,66,229,614,5.0,2-1,other
44086,68,31,96,405,8.0,4-28,diminished
44087,52,42,69,533,8.0,4-28,diminished
44088,60,60,105,1969,0.0,4-20,major
44089,52,46,405,377,6.0,3-7A,minor
44090,74,68,84,2403,2.0,4-29A,minor
44091,57,31,555,459,3.0,3-4A,major
44092,79,87,406,441,3.0,3-4A,major
44093,76,59,823,514,3.0,3-4A,major
44094,52,41,1088,33,3.0,3-4A,major
44095,64,51,227,460,3.0,3-4A,major
44096,46,56,250,950,7.0,3-5B,other
44097,72,48,217,525,9.0,3-7B,other
44098,52,66,41,476,9.0,3-7B,other
44099,55,48,212,501,0.0,4-20,major
44100,82,60,37,1390,0.0,4-20,major
44101,56,66,652,1894,2.0,4-27A,minor
44102,60,72,504,472,2.0,4-27A,minor
44103,52,52,71,3869,5.0,2-4,major
44104,75,50,38,463,4.0,2-3,minor
44105,57,30,416,525,2.0,4-4B,other
44106,52,66,906,411,2.0,4-4B,other
44107,72,16,273,165,2.0,4-4B,other
44108,62,46,335,367,9.0,3-7A,minor
44109,52,47,59,468,9.0,3-7A,minor
44110,57,36,801,518,0.0,3-9,other
44111,38,41,745,492,0.0,3-9,other
44112,57,42,507,473,2.0,2-4,major
44113,38,39,435,466,2.0,2-4,major
44114,43,48,739,495,2.0,4-26,minor
44115,43,45,47,1903,10.0,4-20,major
44116,65,27,52,42,10.0,4-20,major
44117,85,31,68,727,9.0,1-1,other
44118,65,43,133,673,5.0,1-1,other
44119,81,61,77,1420,5.0,2-4,major
44120,48,42,322,4657,0.0,1-1,other
44121,41,36,227,348,2.0,3-11A,minor
44122,86,57,165,1117,2.0,2-3,minor
44123,74,15,92,34,2.0,2-3,minor
44124,84,58,127,268,2.0,2-3,minor
44125,84,62,125,823,4.0,2-2,other
44126,82,56,36,244,4.0,2-2,other
44127,52,31,381,244,10.0,2-4,major
44128,75,50,41,231,10.0,2-4,major
44129,76,57,149,41,10.0,2-4,major
44130,73,51,36,284,10.0,2-4,major
44131,72,48,51,97,10.0,2-4,major
44132,71,49,93,57,10.0,2-4,major
44133,70,54,82,108,10.0,2-4,major
44134,72,58,860,621,5.0,3-11B,major
44135,63,69,865,285,5.0,3-11B,major
44136,60,26,41,352,5.0,3-11B,major
44137,67,69,297,257,5.0,3-11B,major
44138,70,55,93,373,5.0,3-11B,major
44139,41,46,1000,325,9.0,2-6,other
44140,48,19,265,655,9.0,2-6,other
44141,41,48,189,718,6.0,3-10,minor
44142,44,66,128,2166,10.0,5-27A,major
44143,60,51,573,1086,10.0,3-12,augmented
44144,42,56,247,509,10.0,3-12,augmented
44145,45,40,376,5954,4.0,2-3,minor
44146,60,14,133,81,4.0,2-3,minor
44147,55,96,638,3090,7.0,5-27B,minor
44148,48,69,1675,584,7.0,5-27B,minor
44149,64,39,47,1369,0.0,2-2,other
44150,60,66,213,265,0.0,2-2,other
44151,62,68,294,265,0.0,2-2,other
44152,60,49,235,644,5.0,2-5,other
44153,62,54,245,298,5.0,2-5,other
44154,74,88,193,963,5.0,3-9,other
44155,50,56,883,932,6.0,2-6,other
44156,82,68,207,952,6.0,2-6,other
44157,68,57,317,922,4.0,5-36A,major
44158,70,57,216,986,9.0,3-9,other
44159,48,42,208,367,4.0,4-18B,other
44160,84,55,34,1276,2.0,1-1,other
44161,84,42,241,629,5.0,2-4,major
44162,84,59,82,653,2.0,1-1,other
44163,84,42,221,659,2.0,4-26,minor
44164,86,70,115,321,2.0,4-26,minor
44165,82,57,148,469,0.0,2-2,other
44166,80,50,117,128,0.0,2-2,other
44167,78,45,136,76,0.0,2-2,other
44168,76,39,161,85,0.0,2-2,other
44169,74,59,270,99,0.0,2-2,other
44170,73,57,321,94,0.0,2-2,other
44171,72,59,558,118,0.0,2-2,other
44172,52,40,412,211,0.0,2-2,other
44173,72,75,178,412,0.0,2-2,other
44174,70,56,142,142,0.0,2-2,other
44175,68,47,133,102,0.0,2-2,other
44176,67,43,170,111,0.0,2-2,other
44177,64,62,279,419,5.0,3-11B,major
44178,67,81,301,307,5.0,3-11B,major
44179,60,64,229,745,10.0,4-22A,major
44180,63,69,240,272,10.0,4-22A,major
44181,41,34,1140,385,2.0,3-5B,other
44182,61,63,420,301,2.0,3-5B,other
44183,64,19,363,321,2.0,3-5B,other
44184,69,127,153,799,9.0,3-10,diminished
44185,72,122,768,239,9.0,3-10,diminished
44186,65,59,175,548,5.0,1-1,other
44187,69,72,324,300,5.0,1-1,other
44188,45,71,95,897,2.0,4-23,minor
44189,50,77,641,995,9.0,5-35,minor
44190,54,56,174,333,9.0,5-35,minor
44191,44,49,156,644,6.0,5-31B,diminished
44192,43,24,1147,292,6.0,5-31B,diminished
44193,50,61,1189,73,10.0,3-3B,major
44194,57,72,269,574,10.0,3-3B,major
44195,49,46,290,346,10.0,3-3B,major
44196,58,72,227,26,10.0,3-3B,major
44197,60,70,146,270,10.0,3-3B,major
44198,61,65,86,183,10.0,3-3B,major
44199,65,63,146,200,10.0,3-3B,major
44200,46,49,238,238,8.0,2-2,other
44201,72,67,176,167,8.0,2-2,other
44202,73,70,199,200,8.0,2-2,other
44203,75,80,85,187,8.0,2-2,other
44204,77,83,119,159,8.0,2-2,other
44205,79,83,142,171,8.0,2-2,other
44206,55,39,609,131,5.0,2-4,other
44207,80,75,188,83,5.0,2-4,other
44208,82,74,111,200,5.0,2-4,other
44209,83,61,122,194,5.0,2-4,other
44210,86,68,139,188,5.0,2-4,other
44211,81,61,44,205,5.0,2-4,other
44212,62,38,577,199,9.0,3-2A,minor
44213,82,69,204,328,9.0,3-2A,minor
44214,55,31,45,1203,7.0,2-3,minor
44215,37,75,205,808,3.0,3-12,augmented
44216,44,82,263,272,3.0,3-12,augmented
44217,46,57,253,29,3.0,3-12,augmented
44218,55,87,268,535,3.0,4-24,augmented
44219,56,86,183,268,3.0,4-24,augmented
44220,56,70,304,630,10.0,4-20,major
44221,55,66,361,330,10.0,4-20,major
44222,50,72,260,340,10.0,4-20,major
44223,58,43,232,302,10.0,4-20,major
44224,52,10,277,755,0.0,3-8A,major
44225,59,42,390,2808,0.0,2-4,major
44226,50,47,389,977,6.0,2-6,other
44227,89,43,129,175,6.0,2-6,other
44228,90,82,113,120,6.0,2-6,other
44229,88,66,54,142,6.0,2-6,other
44230,87,63,93,89,6.0,2-6,other
44231,84,44,34,133,6.0,2-6,other
44232,81,46,34,88,6.0,2-6,other
44233,78,56,54,108,6.0,2-6,other
44234,77,63,51,70,6.0,2-6,other
44235,64,18,414,55,6.0,2-6,other
44236,76,50,32,60,6.0,2-6,other
44237,75,66,37,226,6.0,2-6,other
44238,74,63,41,161,6.0,2-6,other
44239,72,62,41,142,6.0,2-6,other
44240,70,58,124,152,6.0,2-6,other
44241,62,33,515,132,10.0,2-1,other
44242,69,52,126,33,10.0,2-1,other
44243,72,78,155,192,10.0,2-1,other
44244,69,74,88,192,10.0,2-1,other
44245,70,74,142,192,10.0,2-1,other
44246,62,45,115,213,10.0,2-1,other
44247,67,71,139,469,7.0,4-26,minor
44248,68,68,169,259,7.0,4-26,minor
44249,43,74,88,938,1.0,2-3,minor
44250,78,62,29,409,0.0,5-9A,major
44251,84,42,122,1266,9.0,2-2,other
44252,53,27,174,623,2.0,2-2,other
44253,84,45,194,657,3.0,2-5,other
44254,88,55,380,322,0.0,2-4,major
44255,84,66,269,567,0.0,2-4,major
44256,67,66,197,971,1.0,4-27A,minor
44257,61,61,191,616,7.0,2-3,minor
44258,59,68,393,357,7.0,2-3,minor
44259,59,72,262,430,7.0,2-3,minor
44260,53,66,131,587,0.0,3-11A,minor
44261,41,80,1299,338,0.0,3-11A,minor
44262,41,46,187,1525,6.0,4-27A,minor
44263,77,81,108,673,10.0,5-27A,major
44264,65,62,266,325,10.0,5-27A,major
44265,69,78,243,635,0.0,3-9,other
44266,70,85,267,316,0.0,3-9,other
44267,52,48,346,352,9.0,3-7A,minor
44268,60,57,248,321,9.0,3-7A,minor
44269,50,57,315,988,6.0,2-6,other
44270,60,81,1021,915,10.0,3-11B,major
44271,57,73,222,986,2.0,2-3,minor
44272,53,49,131,299,2.0,2-3,minor
44273,65,54,506,1309,1.0,2-3,other
44274,39,54,98,278,1.0,2-3,other
44275,55,30,497,1678,0.0,2-1,other
44276,83,57,206,600,0.0,2-1,other
44277,50,36,471,350,6.0,2-6,other
44278,74,59,233,918,2.0,4-15B,other
44279,64,51,36,1016,7.0,4-26,minor
44280,63,40,63,65,7.0,4-26,minor
44281,55,61,1084,631,7.0,3-7B,other
44282,41,5,627,4623,9.0,2-3,minor
44283,52,35,578,416,5.0,3-11B,major
44284,50,107,708,523,5.0,3-11B,major
44285,48,76,517,682,5.0,3-11B,major
44286,44,45,98,522,5.0,3-11B,major
44287,41,85,1014,663,11.0,4-27A,diminished
44288,35,50,385,1006,2.0,2-5,other
44289,45,37,227,2327,0.0,3-11B,major
44290,41,85,968,4424,2.0,3-11A,minor
44291,55,80,100,862,2.0,4-29A,minor
44292,56,46,337,1419,7.0,2-5,other
44293,74,81,142,575,7.0,2-5,other
44294,67,48,217,2344,9.0,3-11A,minor
44295,50,77,540,1522,9.0,3-11A,minor
44296,67,85,307,348,9.0,3-11A,minor
44297,68,89,159,265,9.0,3-11A,minor
44298,72,82,143,248,9.0,3-11A,minor
44299,82,82,239,712,5.0,3-11A,other
44300,80,67,196,268,5.0,3-11A,other
44301,82,17,129,44,5.0,3-11A,other
44302,53,33,254,354,3.0,4-19A,augmented
44303,43,47,88,622,3.0,4-19A,augmented
44304,43,47,326,938,3.0,2-4,other
44305,44,60,323,2000,0.0,3-11B,major
44306,33,74,94,921,9.0,4-26,minor
44307,55,122,750,344,9.0,4-26,minor
44308,52,53,80,760,9.0,4-26,minor
44309,53,77,165,122,9.0,4-26,minor
44310,43,49,266,3600,8.0,3-10,minor
44311,65,49,512,343,10.0,3-4A,major
44312,55,47,81,1439,2.0,4-26,minor
44313,65,36,171,126,10.0,3-4A,major
44314,55,44,90,1908,7.0,3-11A,minor
44315,58,42,121,375,0.0,2-4,major
44316,48,51,360,3576,0.0,1-1,other
44317,84,63,79,900,2.0,2-3,minor
44318,84,61,167,933,5.0,2-4,major
44319,36,49,200,339,5.0,2-4,major
44320,76,70,470,618,4.0,3-8B,other
44321,48,54,33,915,4.0,2-6,other
44322,51,38,118,425,7.0,3-11A,minor
44323,48,64,59,520,7.0,3-11A,minor
44324,72,74,197,719,3.0,4-20,major
44325,70,41,159,43,3.0,4-20,major
44326,41,54,1557,253,3.0,4-20,major
44327,48,1,625,1586,6.0,4-27A,minor
44328,41,38,106,346,6.0,4-27A,minor
44329,62,38,51,1436,5.0,3-11B,major
44330,46,47,299,513,5.0,3-11B,major
44331,44,41,38,248,5.0,3-11B,major
44332,39,39,188,675,9.0,4-26,minor
44333,26,51,33,901,2.0,3-8A,major
44334,52,56,233,1790,10.0,4-29B,major
44335,53,52,237,246,10.0,4-29B,major
44336,46,54,129,1827,1.0,4-27B,other
44337,45,38,1105,392,0.0,3-11B,major
44338,79,40,98,2872,6.0,4-28,diminished
44339,79,77,184,7149,4.0,2-6,other
44340,77,65,307,930,0.0,2-4,other
44341,48,36,2128,0,,,
44342,79,55,592,272,4.0,2-2,other
44343,79,41,280,696,4.0,2-2,other
44344,33,70,336,1504,4.0,2-2,other
44345,84,49,264,3328,4.0,3-7B,other
44346,72,26,464,1552,7.0,3-8A,major
44347,72,25,216,2064,7.0,3-7B,other
44348,60,35,3872,1464,4.0,2-3,minor
44349,67,36,440,488,4.0,2-3,minor
44350,64,22,3264,32,4.0,2-3,minor
44351,72,76,720,528,4.0,2-3,minor
44352,74,48,176,720,4.0,2-3,minor
44353,72,35,200,104,4.0,2-3,minor
44354,71,73,344,192,4.0,2-3,minor
44355,72,69,432,352,4.0,2-3,minor
44356,74,66,192,376,4.0,2-3,minor
44357,76,51,184,376,4.0,2-3,minor
44358,79,44,368,384,4.0,2-3,minor
44359,86,63,136,432,4.0,2-3,minor
44360,74,44,464,528,11.0,2-6,other
44361,60,29,2008,480,11.0,2-6,other
44362,60,38,1216,2896,4.0,2-3,minor
44363,72,66,400,776,4.0,2-3,minor
44364,71,55,400,416,4.0,2-3,minor
44365,72,47,264,408,4.0,2-3,minor
44366,57,35,120,1016,11.0,2-3,minor
44367,28,39,368,3368,5.0,4-16A,major
44368,76,92,800,3048,0.0,4-16A,other
44369,75,21,112,728,0.0,4-16A,other
44370,74,30,120,176,0.0,4-16A,other
44371,73,29,128,160,0.0,4-16A,other
44372,52,43,72,544,9.0,2-3,minor
44373,59,40,1448,416,9.0,2-3,minor
44374,60,55,1376,424,9.0,2-3,minor
44375,79,64,248,920,4.0,2-5,other
44376,79,55,456,456,4.0,2-5,other
44377,55,32,2392,32,4.0,2-5,other
44378,60,34,584,432,4.0,2-5,other
44379,60,33,928,976,4.0,2-4,major
44380,58,31,536,1240,4.0,3-8A,major
44381,60,58,96,3616,4.0,2-2,other
44382,62,36,448,2192,8.0,2-1,other
44383,76,66,168,1720,0.0,3-9,other
44384,74,47,128,312,0.0,3-9,other
44385,52,35,1592,960,9.0,2-3,minor
44386,64,80,360,952,9.0,3-11A,minor
44387,64,64,600,520,9.0,3-11A,minor
44388,67,45,272,616,9.0,3-11A,minor
44389,58,23,400,760,6.0,4-27A,diminished
44390,63,34,1288,1632,2.0,2-3,minor
44391,67,26,640,560,3.0,2-4,other
44392,81,54,408,656,3.0,2-4,other
44393,59,44,488,1208,4.0,2-5,other
44394,81,70,128,752,2.0,2-5,other
44395,63,46,536,2416,9.0,3-11A,minor
44396,72,40,272,592,2.0,3-11A,minor
44397,43,32,1152,1432,4.0,4-18A,major
44398,53,15,352,928,3.0,2-4,other
44399,36,37,144,1616,3.0,2-4,other
44400,36,51,2624,424,3.0,2-4,other
44401,56,35,944,632,3.0,2-4,other
44402,64,54,1096,64,0.0,2-1,other
44403,67,40,1184,40,0.0,2-1,other
44404,62,47,488,1128,0.0,2-1,other
44405,67,64,184,424,9.0,2-3,minor
44406,71,85,320,352,9.0,2-3,minor
44407,74,78,296,352,9.0,2-3,minor
44408,56,33,464,856,2.0,2-5,other
44409,55,38,440,1880,4.0,2-3,minor
44410,83,77,376,872,2.0,3-2B,minor
44411,65,41,216,928,0.0,3-4A,major
44412,71,24,48,1152,5.0,2-4,major
44413,64,36,368,1104,7.0,2-4,major
44414,69,73,312,664,4.0,2-3,minor
44415,71,80,176,264,4.0,2-3,minor
44416,72,64,168,208,0.0,2-4,major
44417,74,55,136,144,0.0,2-4,major
44418,76,55,40,152,0.0,2-4,major
44419,77,62,168,88,0.0,2-4,major
44420,79,46,144,120,0.0,2-4,major
44421,81,62,136,96,0.0,2-4,major
44422,60,36,1608,552,11.0,2-6,other
44423,65,24,296,480,4.0,2-5,other
44424,81,60,208,376,4.0,2-5,other
44425,72,58,240,32,4.0,2-5,other
44426,60,19,1592,1832,4.0,2-3,minor
44427,67,41,328,424,4.0,2-3,minor
44428,64,30,1112,40,4.0,2-3,minor
44429,72,77,440,440,4.0,2-3,minor
44430,71,49,1000,480,4.0,2-3,minor
44431,72,38,664,464,4.0,2-3,minor
44432,47,36,104,480,4.0,2-3,minor
44433,76,73,440,464,4.0,2-3,minor
44434,57,29,1088,480,2.0,2-3,minor
44435,76,73,304,408,2.0,2-3,minor
44436,83,85,408,880,2.0,2-3,minor
44437,34,54,2880,400,2.0,2-3,minor
44438,82,72,448,32,2.0,2-3,minor
44439,83,64,960,448,2.0,2-3,minor
44440,80,52,552,920,7.0,3-5B,other
44441,86,39,416,1000,7.0,1-1,other
44442,72,22,328,952,9.0,3-11A,minor
44443,83,70,208,936,0.0,2-4,major
44444,83,62,256,440,0.0,2-4,major
44445,74,27,312,88,0.0,3-4A,major
44446,81,60,448,408,0.0,3-4A,major
44447,52,20,288,536,4.0,2-3,minor
44448,60,33,840,584,4.0,2-3,minor
44449,67,89,352,1432,0.0,3-11B,major
44450,67,62,120,464,0.0,3-11B,major
44451,64,61,760,536,6.0,2-6,other
44452,52,46,64,400,6.0,2-6,other
44453,60,71,640,408,6.0,2-6,other
44454,79,54,112,1280,0.0,1-1,other
44455,41,45,424,392,0.0,1-1,other
44456,48,42,416,64,0.0,1-1,other
44457,86,75,144,632,9.0,3-8B,other
44458,62,1,592,1552,7.0,3-6,major
44459,84,34,160,792,3.0,2-4,major
44460,52,33,1936,736,7.0,2-5,other
44461,59,35,1328,520,7.0,2-5,other
44462,69,58,160,776,7.0,2-5,other
44463,69,68,192,200,7.0,2-5,other
44464,71,73,144,192,7.0,2-5,other
44465,71,60,144,176,7.0,2-5,other
44466,72,70,104,136,7.0,2-5,other
44467,72,62,112,152,7.0,2-5,other
44468,74,45,80,128,7.0,2-5,other
44469,74,64,104,144,7.0,2-5,other
44470,76,58,96,128,7.0,2-5,other
44471,76,52,120,168,7.0,2-5,other
44472,77,51,184,120,7.0,2-5,other
44473,79,58,136,168,7.0,2-5,other
44474,81,65,128,224,7.0,2-5,other
44475,81,27,184,312,7.0,2-5,other
44476,81,35,56,272,7.0,2-5,other
44477,83,48,96,88,7.0,2-5,other
44478,83,44,224,304,7.0,2-5,other
44479,84,37,240,288,7.0,2-5,other
44480,48,33,232,688,11.0,2-6,other
44481,76,32,328,392,11.0,2-2,other
44482,60,32,432,384,11.0,2-2,other
44483,81,47,792,400,11.0,2-2,other
44484,64,31,800,64,4.0,4-23,minor
44485,64,33,408,2112,7.0,3-9,other
44486,67,38,120,440,2.0,3-7A,minor
44487,60,38,1696,944,0.0,2-4,major
44488,72,82,224,720,4.0,2-3,minor
44489,74,84,280,336,4.0,2-3,minor
44490,76,51,248,328,4.0,2-3,minor
44491,72,39,976,312,4.0,2-3,minor
44492,53,18,2280,40,4.0,2-3,minor
44493,60,28,400,312,4.0,2-3,minor
44494,64,43,112,360,4.0,2-3,minor
44495,60,32,984,376,4.0,2-3,minor
44496,83,52,192,368,4.0,2-3,minor
44497,67,42,704,2760,0.0,2-5,other
44498,33,40,160,656,0.0,2-4,major
44499,57,29,1848,1992,0.0,2-4,major
44500,81,53,1592,208,7.0,2-2,other
44501,84,44,816,72,7.0,2-2,other
44502,84,31,368,1016,7.0,2-2,other
44503,69,52,480,2264,2.0,3-11A,minor
44504,31,49,128,4024,7.0,5-31B,major
44505,43,33,2216,2048,4.0,3-11B,major
44506,53,17,2168,40,4.0,3-11B,major
44507,67,43,88,5176,7.0,5-23B,major
44508,76,77,160,208,7.0,5-23B,major
44509,72,35,328,528,0.0,4-11A,major
44510,55,24,304,1520,9.0,3-9,other
44511,60,28,240,992,5.0,4-20,major
44512,65,43,312,1448,9.0,3-9,other
44513,74,38,312,472,9.0,3-7B,other
44514,72,24,80,688,7.0,2-2,other
44515,60,26,2040,544,0.0,3-11B,major
44516,64,37,1768,160,0.0,3-11B,major
44517,67,34,112,136,0.0,3-11B,major
44518,72,59,72,136,0.0,3-11B,major
44519,79,50,64,112,0.0,3-11B,major
44520,84,66,64,152,0.0,3-11B,major
44521,91,83,128,136,0.0,3-11B,major
44522,79,54,520,360,7.0,2-2,other
44523,81,59,240,400,7.0,2-2,other
44524,88,70,272,176,7.0,2-2,other
44525,86,69,136,160,7.0,2-2,other
44526,76,47,160,160,7.0,2-2,other
44527,74,38,128,200,7.0,2-2,other
44528,81,60,360,168,7.0,2-2,other
44529,69,6,160,240,5.0,3-4B,other
44530,76,40,184,168,5.0,3-4B,other
44531,69,24,200,192,5.0,3-4B,other
44532,67,52,184,192,5.0,3-4B,other
44533,53,33,192,752,0.0,2-4,major
44534,52,33,120,1160,7.0,3-9,other
44535,50,39,152,152,7.0,3-9,other
44536,52,40,152,192,7.0,3-9,other
44537,40,36,320,288,7.0,3-9,other
44538,48,20,768,1216,7.0,3-9,other
44539,56,49,528,312,7.0,3-9,other
44540,64,50,352,48,7.0,3-9,other
44541,74,44,64,2088,2.0,3-11A,minor
44542,76,43,32,88,2.0,3-11A,minor
44543,76,51,64,72,2.0,3-11A,minor
44544,77,61,48,80,2.0,3-11A,minor
44545,77,38,80,72,2.0,3-11A,minor
44546,79,55,32,88,2.0,3-11A,minor
44547,79,45,72,72,2.0,3-11A,minor
44548,81,59,40,80,2.0,3-11A,minor
44549,81,42,64,88,2.0,3-11A,minor
44550,83,57,32,72,2.0,3-11A,minor
44551,83,43,64,88,2.0,2-3,minor
44552,84,56,24,80,2.0,2-3,minor
44553,84,41,56,96,2.0,2-3,minor
44554,86,71,24,72,2.0,2-3,minor
44555,67,36,80,1320,8.0,3-10,other
44556,68,49,72,72,8.0,3-10,other
44557,70,54,40,88,8.0,3-10,other
44558,71,56,80,72,8.0,3-10,other
44559,73,42,56,96,8.0,3-10,other
44560,74,37,80,112,8.0,3-10,other
44561,76,54,40,120,8.0,3-10,other
44562,56,40,56,464,8.0,3-10,other
44563,59,40,64,72,8.0,3-10,other
44564,62,53,72,88,8.0,3-10,other
44565,64,57,80,224,8.0,3-10,other
44566,68,46,48,192,8.0,3-10,other
44567,71,58,80,192,8.0,3-10,other
44568,74,61,64,128,8.0,3-10,other
44569,77,61,80,128,8.0,3-10,other
44570,79,53,88,120,8.0,3-10,other
44571,45,49,416,88,8.0,3-10,other
44572,77,55,72,64,8.0,3-10,other
44573,76,60,136,160,8.0,3-10,other
44574,52,31,168,40,8.0,3-10,other
44575,74,57,128,144,8.0,3-10,other
44576,57,27,80,56,8.0,3-10,other
44577,72,42,80,96,8.0,3-10,other
44578,71,51,80,120,8.0,3-10,other
44579,74,51,104,104,8.0,3-10,other
44580,71,48,80,104,8.0,3-10,other
44581,45,55,288,456,0.0,3-4A,major
44582,43,49,640,1632,9.0,4-26,minor
44583,72,62,96,984,4.0,4-27A,diminished
44584,79,83,96,408,4.0,4-27A,diminished
44585,48,43,1016,2792,9.0,4-23,minor
44586,41,57,80,984,2.0,2-5,other
44587,45,36,1120,3856,9.0,4-23,minor
44588,64,78,160,960,0.0,3-11B,major
44589,64,60,120,240,0.0,3-11B,major
44590,67,83,176,224,0.0,3-11B,major
44591,67,62,112,248,0.0,3-11B,major
44592,67,35,64,248,0.0,3-11B,major
44593,67,53,40,240,0.0,3-11B,major
44594,58,28,368,312,6.0,3-10,diminished
44595,41,28,408,1856,5.0,2-4,major
44596,69,64,312,480,5.0,2-4,major
44597,62,66,624,552,4.0,4-17,other
44598,33,53,96,1928,5.0,5-34,major
44599,67,64,432,448,5.0,5-34,major
44600,53,19,192,2336,4.0,4-29A,minor
44601,52,26,1120,1024,9.0,4-23,minor
44602,76,71,176,1152,9.0,4-23,minor
44603,55,47,80,656,4.0,3-11B,major
44604,71,69,264,344,4.0,3-11B,major
44605,74,73,128,280,4.0,3-11B,major
44606,71,62,240,144,4.0,3-11B,major
44607,79,62,112,456,9.0,2-3,minor
44608,86,88,344,248,9.0,2-3,minor
44609,83,75,488,312,9.0,2-3,minor
44610,84,85,264,456,0.0,3-4A,major
44611,76,63,304,272,0.0,3-4A,major
44612,83,76,368,296,0.0,3-4A,major
44613,81,71,296,264,0.0,2-4,major
44614,71,49,312,280,0.0,2-4,major
44615,69,51,360,272,0.0,2-4,major
44616,76,54,200,544,5.0,4-20,major
44617,71,47,384,240,5.0,4-20,major
44618,48,31,272,464,5.0,4-20,major
44619,57,45,288,32,5.0,4-20,major
44620,77,57,112,1560,7.0,2-4,major
44621,69,38,72,32,7.0,2-4,major
44622,67,53,592,648,0.0,3-11B,major
44623,60,32,584,640,0.0,3-11B,major
44624,64,15,504,32,0.0,3-11B,major
44625,67,50,56,56,0.0,3-11B,major
44626,69,46,32,88,0.0,3-11B,major
44627,69,46,40,80,0.0,3-11B,major
44628,71,64,40,72,0.0,3-11B,major
44629,71,40,72,80,0.0,3-11B,major
44630,72,55,40,72,0.0,3-11B,major
44631,72,52,64,88,0.0,3-11B,major
44632,74,56,32,72,0.0,3-11B,major
44633,74,43,72,80,0.0,3-11B,major
44634,76,57,56,72,0.0,3-11B,major
44635,77,45,112,384,0.0,2-4,major
44636,79,55,96,168,0.0,2-4,major
44637,81,35,72,288,9.0,2-2,other
44638,82,48,80,128,9.0,2-2,other
44639,86,65,104,208,4.0,3-5B,other
44640,84,53,56,176,4.0,3-5B,other
44641,83,49,80,176,4.0,3-5B,other
44642,79,41,80,168,4.0,3-5B,other
44643,76,44,96,152,4.0,3-5B,other
44644,67,46,48,416,4.0,2-5,other
44645,69,64,264,928,0.0,4-8,major
44646,67,51,112,320,0.0,4-8,major
44647,65,55,120,144,0.0,4-8,major
44648,50,19,208,328,4.0,3-7A,minor
44649,59,24,88,1040,4.0,4-26,minor
44650,93,41,104,440,4.0,4-26,minor
44651,52,18,40,496,7.0,3-11B,major
44652,77,51,280,2304,9.0,3-8B,other
44653,77,50,192,952,3.0,4-16A,major
44654,74,39,120,32,3.0,4-16A,major
44655,67,44,368,472,0.0,2-4,other
44656,79,36,344,496,0.0,2-4,other
44657,72,1,464,640,8.0,2-1,other
44658,45,44,2368,2176,9.0,4-26,minor
44659,52,41,736,936,0.0,3-4A,major
44660,52,34,56,1272,9.0,2-5,other
44661,52,44,688,136,9.0,2-5,other
44662,67,61,192,2296,0.0,3-11B,major
44663,59,50,160,40,0.0,3-11B,major
44664,54,34,1728,1104,6.0,3-8B,other
44665,60,20,176,1376,9.0,2-5,other
44666,41,53,72,1528,3.0,2-4,major
44667,57,22,48,1496,3.0,3-4A,major
44668,72,37,72,720,3.0,3-4A,major
44669,60,57,152,1752,4.0,2-3,minor
44670,62,64,80,208,4.0,2-3,minor
44671,64,64,160,208,4.0,2-3,minor
44672,72,64,128,344,4.0,4-26,minor
44673,72,55,136,328,11.0,2-2,other
44674,76,51,104,176,11.0,2-2,other
44675,79,59,112,136,11.0,2-2,other
44676,57,45,432,112,5.0,2-5,other
44677,83,57,152,64,5.0,2-5,other
44678,86,74,184,168,5.0,2-5,other
44679,83,36,112,192,5.0,2-5,other
44680,84,64,208,160,5.0,2-5,other
44681,76,47,408,192,5.0,2-5,other
44682,60,32,552,200,5.0,3-4A,major
44683,62,17,512,1744,4.0,2-3,minor
44684,59,13,464,40,4.0,2-3,minor
44685,52,46,840,416,4.0,2-3,minor
44686,59,19,640,464,7.0,3-11B,major
44687,52,43,256,456,7.0,3-11B,major
44688,59,36,536,464,4.0,3-11B,major
44689,61,39,456,1416,5.0,4-19B,augmented
44690,67,24,112,4256,7.0,3-11B,major
44691,69,24,72,112,7.0,3-11B,major
44692,71,30,64,96,7.0,3-11B,major
44693,72,42,56,88,7.0,3-11B,major
44694,74,32,40,80,7.0,3-11B,major
44695,76,40,40,64,7.0,3-11B,major
44696,77,43,48,64,7.0,3-11B,major
44697,79,40,40,72,7.0,3-11B,major
44698,81,45,56,72,7.0,3-11B,major
44699,83,35,40,64,7.0,3-11B,major
44700,84,44,24,80,7.0,3-11B,major
44701,86,50,32,56,7.0,3-11B,major
44702,88,43,40,64,7.0,3-11B,major
44703,89,41,48,56,7.0,3-11B,major
44704,91,36,56,72,7.0,3-11B,major
44705,93,40,32,72,7.0,3-11B,major
44706,95,38,32,56,7.0,3-11B,major
44707,76,53,288,2152,0.0,3-4A,major
44708,77,20,112,256,0.0,3-4A,major
44709,78,45,96,32,0.0,3-4A,major
44710,79,60,176,112,0.0,3-4A,major
44711,76,32,64,160,0.0,3-4A,major
44712,50,24,2192,144,5.0,3-11B,major
44713,74,33,704,200,5.0,3-11B,major
44714,57,60,96,1992,9.0,2-3,minor
44715,57,58,72,288,9.0,2-3,minor
44716,57,42,608,360,7.0,1-1,other
44717,60,64,368,200,7.0,1-1,other
44718,59,35,160,1930,5.0,4-22A,major
44719,67,63,1804,992,5.0,4-22A,major
44720,36,47,961,28,5.0,4-22A,major
44721,43,34,1417,512,5.0,4-22A,major
44722,52,36,1564,529,5.0,4-22A,major
44723,57,35,433,521,5.0,4-22A,major
44724,62,39,146,522,5.0,4-22A,major
44725,67,71,246,456,5.0,4-22A,major
44726,74,88,604,358,5.0,4-22A,major
44727,45,42,596,36,5.0,4-22A,major
44728,52,56,363,275,5.0,4-22A,major
44729,57,55,426,372,0.0,2-5,other
44730,59,74,539,376,0.0,2-5,other
44731,72,55,563,1105,0.0,2-5,other
44732,57,32,930,3621,4.0,2-2,other
44733,64,31,1517,2167,7.0,3-9,other
44734,56,21,440,4904,0.0,2-4,major
44735,59,30,336,466,0.0,2-4,major
44736,60,33,1071,346,0.0,2-4,major
44737,64,37,226,335,0.0,2-4,major
44738,48,30,2073,1144,0.0,2-4,major
44739,56,23,2003,284,0.0,2-4,major
44740,59,32,1726,278,0.0,2-4,major
44741,60,28,137,282,0.0,2-4,major
44742,64,43,1755,598,0.0,2-4,major
44743,48,24,3955,876,0.0,2-4,major
44744,56,18,3593,339,0.0,2-4,major
44745,59,28,306,367,0.0,2-4,major
44746,64,33,103,806,0.0,2-4,major
44747,71,24,341,620,0.0,2-4,major
44748,63,25,57,0,3.0,3-12,augmented
44749,73,23,88,131,7.0,3-8A,major
44750,85,52,12,152,11.0,3-8B,other
44751,82,63,73,320,7.0,3-7A,minor
44752,79,33,33,119,3.0,3-4A,major
44753,63,1,56,349,1.0,2-2,other
44754,61,38,36,40,1.0,2-2,other
44755,61,34,15,85,1.0,4-24,other
44756,61,28,14,57,1.0,4-24,other
44757,61,33,28,73,1.0,4-24,other
44758,75,46,33,624,1.0,4-22B,other
44759,47,29,50,92,1.0,3-9,other
44760,54,33,28,28,1.0,3-9,other
44761,63,50,16,86,1.0,2-5,other
44762,68,51,23,31,1.0,2-5,other
44763,63,50,6,27,1.0,2-5,other
44764,59,28,97,818,3.0,3-12,augmented
44765,59,19,7,259,5.0,5-33,augmented
44766,75,36,27,459,5.0,3-4A,other
44767,79,41,49,107,11.0,3-8A,other
44768,95,70,10,161,5.0,5-33,augmented
44769,63,39,24,627,1.0,5-35,other
44770,54,27,62,175,1.0,4-22B,other
44771,61,25,425,122,1.0,3-7B,other
44772,75,34,9,217,3.0,2-5,other
44773,86,55,15,32,3.0,2-5,other
44774,86,48,9,28,3.0,2-5,other
44775,74,39,224,149,0.0,4-20,major
44776,86,79,35,67,0.0,4-20,major
44777,74,62,193,173,6.0,3-8B,other
44778,86,84,45,55,6.0,3-8B,other
44779,83,94,36,181,4.0,3-9,other
44780,74,67,19,330,11.0,2-5,other
44781,50,33,91,93,0.0,4-22A,major
44782,60,24,64,292,0.0,3-12,augmented
44783,50,47,170,187,2.0,3-11B,major
44784,57,42,59,114,2.0,2-5,other
44785,38,52,116,125,2.0,2-4,major
44786,72,89,51,120,2.0,1-1,other
44787,87,49,136,360,1.0,4-21,other
44788,27,37,13,57,1.0,4-21,other
44789,91,90,20,159,3.0,2-5,other
44790,94,83,18,28,3.0,2-5,other
44791,92,83,23,31,3.0,2-5,other
44792,91,80,20,57,0.0,4-23,minor
44793,89,74,15,28,0.0,4-23,minor
44794,79,44,28,29,0.0,4-23,minor
44795,87,72,18,29,0.0,4-23,minor
44796,84,70,10,36,0.0,4-23,minor
44797,82,62,16,29,0.0,4-23,minor
44798,72,67,31,236,8.0,4-26,other
44799,70,53,119,241,0.0,4-3,other
44800,51,37,65,246,0.0,3-4A,other
44801,34,47,18,173,0.0,4-26,minor
44802,84,52,28,286,0.0,3-4A,other
44803,67,59,96,1039,0.0,2-5,other
44804,82,55,42,69,10.0,2-5,other
44805,63,52,131,49,10.0,2-5,other
44806,79,49,43,57,7.0,2-5,other
44807,63,44,58,340,1.0,3-8A,other
44808,83,62,7,55,7.0,3-8A,major
44809,46,38,36,810,0.0,3-11A,minor
44810,58,37,293,111,7.0,2-5,other
44811,62,59,31,116,0.0,3-9,other
44812,70,55,13,735,0.0,2-4,other
44813,84,92,24,570,7.0,4-23,minor
44814,82,77,82,42,7.0,4-23,minor
44815,79,78,34,87,0.0,2-2,other
44816,75,68,186,37,0.0,2-2,other
44817,67,66,35,225,3.0,3-8B,other
44818,71,64,20,258,3.0,4-19B,other
44819,70,63,17,67,1.0,4-22B,other
44820,68,56,11,58,1.0,4-22B,other
44821,65,1,38,350,4.0,6-49,other
44822,65,63,29,103,8.0,3-10,diminished
44823,84,67,86,603,3.0,3-4A,major
44824,67,65,45,446,5.0,3-11A,other
44825,62,57,40,162,3.0,2-1,other
44826,61,42,54,79,8.0,4-15B,other
44827,57,51,23,177,8.0,2-3,minor
44828,75,50,43,455,7.0,4-23,minor
44829,49,34,146,54,7.0,4-23,minor
44830,49,34,13,184,3.0,5-30B,other
44831,42,39,13,259,5.0,6-35,augmented
44832,79,58,16,81,0.0,4-26,other
44833,46,40,11,193,0.0,3-11B,other
44834,62,34,10,658,7.0,3-7B,other
44835,86,81,18,38,7.0,3-7B,other
44836,74,51,12,64,2.0,2-5,other
44837,74,44,9,26,2.0,2-5,other
44838,86,51,13,26,2.0,2-5,other
44839,98,73,6,56,4.0,3-7A,minor
44840,98,103,12,35,4.0,3-7A,minor
44841,98,94,19,32,4.0,3-7A,minor
44842,98,43,11,66,2.0,1-1,other
44843,98,44,14,29,2.0,1-1,other
44844,98,58,15,29,2.0,1-1,other
44845,98,57,12,58,2.0,4-21,major
44846,98,61,10,27,2.0,4-21,major
44847,98,70,14,29,2.0,4-21,major
44848,86,64,6,330,1.0,2-2,other
44849,79,56,11,136,6.0,2-2,other
44850,71,54,9,89,4.0,4-22B,minor
44851,69,48,49,140,0.0,4-20,major
44852,70,64,15,88,10.0,4-24,augmented
44853,70,73,20,26,10.0,4-24,augmented
44854,72,78,21,28,10.0,4-24,augmented
44855,66,46,22,91,10.0,3-8B,other
44856,27,48,17,785,0.0,5-27A,other
44857,73,33,14,204,3.0,4-18A,major
44858,51,35,8,60,0.0,3-4A,other
44859,58,29,140,34,0.0,3-4A,other
44860,61,44,17,452,8.0,2-2,other
44861,65,61,19,27,8.0,2-2,other
44862,70,52,25,99,5.0,3-4A,other
44863,79,62,78,603,4.0,6-49,other
44864,59,33,118,742,3.0,4-24,augmented
44865,67,46,13,237,4.0,5-28A,other
44866,71,51,26,58,4.0,5-28A,other
44867,84,74,16,37,4.0,5-28A,other
44868,84,79,15,39,4.0,5-28A,other
44869,84,72,20,107,0.0,3-4A,other
44870,82,61,21,119,7.0,3-7A,minor
44871,79,58,25,117,3.0,3-4A,major
44872,75,44,9,138,5.0,3-4A,other
44873,61,27,16,117,7.0,2-2,other
44874,67,64,8,361,1.0,5-33,other
44875,63,31,34,408,1.0,5-35,other
44876,75,49,230,186,1.0,4-22B,other
44877,54,33,55,116,1.0,3-7B,other
44878,61,29,75,111,1.0,3-7B,other
44879,72,73,54,245,3.0,4-24,augmented
44880,75,60,24,61,3.0,4-24,augmented
44881,79,50,17,56,3.0,4-24,augmented
44882,46,37,40,368,3.0,2-5,other
44883,55,46,63,50,3.0,2-5,other
44884,67,35,67,189,10.0,2-4,major
44885,70,42,117,60,10.0,2-4,major
44886,80,34,116,176,7.0,3-11A,minor
44887,82,27,56,58,7.0,3-11A,minor
44888,81,65,49,0,3.0,4-20,major
44889,46,67,360,395,10.0,1-1,other
44890,79,66,41,248,10.0,1-1,other
44891,75,57,66,186,10.0,1-1,other
44892,72,68,58,464,6.0,4-28,diminished
44893,46,71,135,329,3.0,3-11B,major
44894,70,73,56,1751,8.0,2-2,other
44895,62,54,96,226,5.0,4-24,augmented
44896,61,71,128,124,5.0,4-24,augmented
44897,59,55,36,371,9.0,2-3,minor
44898,71,62,105,1002,0.0,3-4A,other
44899,67,63,126,445,8.0,1-1,other
44900,65,85,236,467,8.0,2-2,other
44901,64,70,142,183,8.0,2-2,other
44902,55,49,112,2867,3.0,2-4,major
44903,62,50,17,244,10.0,1-1,other
44904,58,65,26,256,0.0,4-22A,other
44905,70,80,65,289,0.0,4-22A,other
44906,70,80,61,102,0.0,4-22A,other
44907,69,73,35,69,0.0,4-22A,other
44908,63,66,129,931,7.0,2-1,other
44909,39,78,68,150,7.0,2-1,other
44910,46,83,325,764,7.0,4-23,minor
44911,75,113,133,167,7.0,4-23,minor
44912,74,100,80,156,7.0,4-23,minor
44913,68,67,168,1246,5.0,3-8B,other
44914,56,59,347,898,0.0,2-5,other
44915,55,52,315,359,0.0,2-5,other
44916,46,71,212,1509,3.0,3-12,augmented
44917,70,67,50,247,7.0,2-5,other
44918,55,55,240,273,0.0,3-8A,major
44919,48,51,136,593,7.0,3-7A,minor
44920,49,66,45,267,8.0,3-10,other
44921,63,6,55,182,0.0,2-4,other
44922,56,73,137,277,2.0,4-23,minor
44923,46,73,30,149,2.0,4-23,minor
44924,70,104,48,94,2.0,4-23,minor
44925,68,72,199,1345,1.0,5-31B,other
44926,70,67,87,168,1.0,5-31B,other
44927,51,59,55,335,0.0,2-4,other
44928,52,71,93,103,0.0,2-4,other
44929,53,77,493,100,0.0,2-4,other
44930,52,55,87,605,9.0,2-6,other
44931,53,61,118,92,9.0,2-6,other
44932,74,88,48,340,6.0,3-10,minor
44933,74,77,71,102,6.0,3-10,minor
44934,72,71,38,90,6.0,3-10,minor
44935,62,4,141,165,0.0,2-2,other
44936,53,57,88,51,0.0,2-2,other
44937,54,49,77,90,0.0,2-2,other
44938,66,60,14,417,7.0,3-11A,minor
44939,62,52,28,74,7.0,2-1,other
44940,65,69,22,38,7.0,2-1,other
44941,62,45,33,90,7.0,2-2,other
44942,58,118,95,400,0.0,2-4,major
44943,60,103,66,117,0.0,2-4,major
44944,60,95,105,107,0.0,2-4,major
44945,58,89,63,104,0.0,2-4,major
44946,58,78,24,108,0.0,2-4,major
44947,68,74,41,257,0.0,4-26,other
44948,70,65,24,221,0.0,5-35,minor
44949,53,82,72,244,0.0,5-27B,other
44950,53,66,161,250,0.0,4-26,other
44951,53,58,260,286,0.0,5-35,other
44952,70,64,31,278,0.0,2-4,other
44953,67,50,97,351,4.0,6-49,other
44954,65,44,265,524,4.0,5-32B,other
44955,46,54,80,368,3.0,1-1,other
44956,82,56,66,580,7.0,2-3,minor
44957,82,53,105,140,7.0,2-3,minor
44958,53,74,113,762,11.0,2-6,other
44959,56,73,1235,105,11.0,2-6,other
44960,59,73,1141,79,11.0,2-6,other
44961,63,70,1040,79,11.0,2-6,other
44962,65,72,68,76,11.0,2-6,other
44963,68,70,50,77,11.0,2-6,other
44964,71,69,61,66,11.0,2-6,other
44965,75,61,63,75,11.0,2-6,other
44966,77,64,80,75,11.0,2-6,other
44967,80,61,162,88,11.0,2-6,other
44968,83,59,60,80,11.0,2-6,other
44969,85,63,49,95,11.0,2-6,other
44970,87,70,113,140,11.0,2-6,other
44971,85,48,131,131,11.0,2-6,other
44972,83,28,184,151,11.0,2-6,other
44973,56,71,177,351,10.0,1-1,other
44974,58,56,34,147,10.0,1-1,other
44975,59,64,40,61,10.0,1-1,other
44976,62,62,47,50,10.0,1-1,other
44977,64,73,43,41,10.0,1-1,other
44978,67,60,21,47,10.0,1-1,other
44979,68,63,512,49,10.0,1-1,other
44980,70,61,465,33,10.0,1-1,other
44981,76,67,203,85,11.0,2-3,minor
44982,79,70,211,39,11.0,2-3,minor
44983,77,53,153,176,11.0,2-3,minor
44984,70,106,176,261,11.0,2-3,minor
44985,74,80,104,158,11.0,2-3,minor
44986,65,61,66,678,11.0,6-49,other
44987,66,81,64,57,11.0,6-49,other
44988,68,82,35,54,11.0,6-49,other
44989,69,76,40,47,11.0,6-49,other
44990,71,79,31,49,11.0,6-49,other
44991,72,84,32,49,11.0,6-49,other
44992,74,67,26,49,11.0,6-49,other
44993,75,64,30,49,11.0,6-49,other
44994,77,77,42,50,11.0,6-49,other
44995,78,70,36,53,11.0,6-49,other
44996,80,58,30,55,11.0,6-49,other
44997,81,58,41,46,11.0,6-49,other
44998,83,61,36,58,11.0,6-49,other
44999,84,72,53,55,11.0,6-49,other
45000,86,47,96,68,11.0,6-49,other
45001,87,55,69,98,11.0,6-49,other
45002,89,71,209,77,11.0,6-49,other
45003,90,48,110,98,11.0,6-49,other
45004,46,52,51,229,3.0,2-4,major
45005,46,5,28,82,3.0,2-4,major
45006,58,43,811,163,7.0,4-23,minor
45007,76,66,783,0,,,
45008,77,71,925,780,,,
45009,79,55,2366,1057,,,
45010,67,34,1432,38,,,
45011,55,36,3208,2212,4.0,2-2,other
45012,91,94,4003,1742,4.0,2-2,other
45013,89,62,1003,3865,4.0,2-2,other
45014,88,63,1071,974,4.0,2-2,other
45015,48,33,4616,2313,2.0,2-3,minor
45016,71,42,2509,1212,2.0,2-3,minor
45017,67,29,2328,132,2.0,2-3,minor
45018,57,32,3564,141,2.0,2-3,minor
45019,62,5,1584,234,2.0,2-3,minor
45020,53,50,569,1239,2.0,2-3,minor
45021,62,24,1011,711,2.0,2-3,minor
45022,64,74,453,1181,2.0,2-3,minor
45023,65,92,639,735,2.0,2-3,minor
45024,63,45,1026,4748,11.0,2-5,other
45025,57,33,1505,1907,6.0,3-10,other
45026,69,47,891,1615,5.0,2-5,other
45027,61,32,1319,26,5.0,2-5,other
45028,62,41,1056,3546,2.0,3-11A,minor
45029,59,31,1213,2522,8.0,2-3,other
45030,67,67,1146,5469,8.0,2-3,other
45031,36,57,2768,1653,8.0,2-3,other
45032,43,24,2837,92,8.0,2-3,other
45033,56,27,1462,207,8.0,2-3,other
45034,59,57,1287,161,8.0,2-3,other
45035,52,29,2562,101,8.0,2-3,other
45036,64,39,1209,95,8.0,2-3,other
45037,67,57,1284,55,8.0,2-3,other
45038,76,54,1308,1988,8.0,2-3,other
45039,71,53,783,1282,8.0,2-3,other
45040,56,32,2118,75,4.0,2-4,major
45041,62,29,2201,1031,4.0,2-4,major
45042,79,54,596,721,4.0,2-4,major
45043,88,83,469,662,4.0,2-4,major
45044,62,36,3540,1742,8.0,2-1,other
45045,89,66,1766,45,8.0,2-1,other
45046,83,30,2233,1178,8.0,2-1,other
45047,67,35,2118,26,8.0,2-1,other
45048,88,71,1759,1280,8.0,2-1,other
45049,86,70,734,973,8.0,2-1,other
45050,83,55,870,766,8.0,2-1,other
45051,45,44,438,792,8.0,2-1,other
45052,84,75,1492,75,8.0,2-1,other
45053,81,36,1172,1207,8.0,2-1,other
45054,64,29,1506,43,8.0,2-1,other
45055,60,35,1350,113,8.0,2-1,other
45056,59,7,1157,187,8.0,2-1,other
45057,83,69,1094,745,8.0,2-1,other
45058,84,80,703,945,8.0,2-1,other
45059,86,67,932,3053,2.0,1-1,other
45060,67,36,1056,34,2.0,1-1,other
45061,88,62,3490,1325,2.0,1-1,other
45062,83,40,9189,2292,2.0,1-1,other
45063,33,24,562,144,2.0,1-1,other
45064,59,24,568,1972,0.0,2-4,major
45065,64,39,584,1375,0.0,2-4,major
45066,21,75,1076,3594,0.0,2-4,major
45067,96,66,2083,3830,5.0,4-5B,other
45068,100,83,1000,2250,5.0,4-5B,other
45069,99,86,880,1288,5.0,4-5B,other
45070,98,82,571,1027,5.0,4-5B,other
45071,97,81,475,704,5.0,4-5B,other
45072,96,71,457,645,5.0,4-5B,other
45073,93,81,649,693,5.0,4-5B,other
45074,50,33,1306,658,5.0,4-5B,other
45075,89,53,627,63,5.0,4-5B,other
45076,88,64,493,684,5.0,2-4,major
45077,91,79,673,631,5.0,2-4,major
45078,88,72,566,632,5.0,2-4,major
45079,89,74,722,669,5.0,2-4,major
45080,84,61,706,751,5.0,2-4,major
45081,88,74,1003,804,5.0,2-4,major
45082,87,71,697,804,5.0,2-4,major
45083,86,61,2241,872,5.0,2-4,major
45084,53,25,6918,101,4.0,2-5,other
45085,81,45,1061,1177,4.0,2-5,other
45086,84,68,1035,1041,4.0,2-5,other
45087,81,58,864,788,4.0,2-5,other
45088,83,66,844,962,4.0,2-5,other
45089,86,87,502,700,4.0,2-5,other
45090,89,96,1555,888,4.0,2-5,other
45091,88,70,725,1371,4.0,2-5,other
45092,87,71,456,723,4.0,2-5,other
45093,88,60,1654,680,4.0,2-5,other
45094,83,57,729,1031,4.0,2-3,minor
45095,79,53,318,764,4.0,2-3,minor
45096,76,49,819,738,4.0,2-3,minor
45097,71,42,990,900,4.0,2-3,minor
45098,69,46,939,1050,4.0,2-3,minor
45099,67,37,738,1031,4.0,2-3,minor
45100,65,37,882,870,4.0,2-3,minor
45101,64,53,760,3271,0.0,2-4,major
45102,55,36,5250,58,0.0,2-4,major
45103,66,70,584,680,0.0,2-4,major
45104,68,63,455,452,0.0,2-4,major
45105,70,64,205,365,0.0,2-4,major
45106,72,64,234,360,0.0,2-4,major
45107,74,66,227,335,0.0,2-4,major
45108,76,79,317,391,0.0,2-4,major
45109,78,69,472,355,0.0,2-4,major
45110,80,55,311,380,0.0,2-4,major
45111,82,43,98,328,0.0,2-4,major
45112,84,62,221,271,0.0,2-4,major
45113,86,65,107,394,0.0,2-4,major
45114,88,51,219,429,0.0,2-4,major
45115,90,43,403,441,0.0,2-4,major
45116,92,67,285,334,0.0,2-4,major
45117,94,52,265,429,0.0,2-4,major
45118,96,61,434,507,0.0,2-4,major
45119,103,24,202,1347,0.0,2-4,major
45120,104,50,352,233,0.0,2-4,major
45121,105,57,135,398,0.0,2-4,major
45122,106,50,394,314,0.0,2-4,major
45123,57,41,1493,538,5.0,2-4,major
45124,48,47,665,1539,5.0,2-4,major
45125,57,61,242,899,5.0,2-4,major
45126,60,66,1650,749,5.0,2-4,major
45127,69,58,392,1310,5.0,2-1,other
45128,72,61,391,522,5.0,2-1,other
45129,76,79,495,544,5.0,2-1,other
45130,72,59,527,678,7.0,2-3,minor
45131,91,74,913,1215,7.0,2-3,minor
45132,84,42,1465,1333,4.0,2-3,minor
45133,56,20,3816,150,4.0,2-3,minor
45134,62,27,2212,1428,4.0,2-3,minor
45135,86,108,976,2250,4.0,2-3,minor
45136,85,58,395,762,4.0,2-3,minor
45137,84,54,397,211,4.0,2-3,minor
45138,83,55,241,386,4.0,2-3,minor
45139,67,34,744,106,4.0,2-3,minor
45140,64,32,5202,63,4.0,2-3,minor
45141,62,24,5463,38,4.0,2-3,minor
45142,79,47,112,519,4.0,2-3,minor
45143,76,45,167,755,4.0,2-3,minor
45144,55,40,5308,756,4.0,2-3,minor
45145,77,40,196,43,4.0,2-3,minor
45146,74,58,159,758,4.0,2-3,minor
45147,75,71,239,765,4.0,2-3,minor
45148,76,69,273,574,4.0,2-3,minor
45149,72,46,239,493,4.0,2-3,minor
45150,67,49,228,495,4.0,2-3,minor
45151,65,56,294,561,4.0,2-3,minor
45152,64,46,167,585,4.0,2-3,minor
45153,65,66,279,565,4.0,2-3,minor
45154,67,52,662,581,4.0,2-3,minor
45155,65,63,1121,766,4.0,2-3,minor
45156,48,36,2204,37,4.0,2-3,minor
45157,58,30,948,110,4.0,2-3,minor
45158,62,67,740,945,4.0,2-3,minor
45159,55,49,585,43,4.0,2-3,minor
45160,55,45,645,2653,10.0,3-11B,other
45161,49,15,964,121,10.0,3-11B,other
45162,67,58,740,7788,4.0,2-3,minor
45163,64,74,1595,1832,7.0,3-9,other
45164,79,40,3197,5070,0.0,2-4,major
45165,74,40,2422,26,0.0,2-4,major
45166,71,44,2143,29,0.0,2-4,major
45167,64,33,865,52,0.0,2-4,major
45168,54,25,3665,3302,0.0,2-4,major
45169,64,20,3280,83,9.0,2-5,other
45170,60,29,3323,72,9.0,2-5,other
45171,84,73,945,1580,9.0,2-5,other
45172,83,60,772,1049,9.0,2-5,other
45173,84,56,46,835,9.0,2-5,other
45174,57,29,2742,2131,3.0,2-4,other
45175,83,68,590,2117,2.0,2-5,other
45176,59,40,1057,1560,9.0,2-5,other
45177,79,65,463,750,9.0,2-5,other
45178,62,40,1227,63,9.0,2-5,other
45179,81,65,629,567,9.0,2-5,other
45180,56,54,3222,2025,7.0,1-1,other
45181,67,42,1603,1290,7.0,1-1,other
45182,62,37,1551,32,7.0,1-1,other
45183,77,51,1339,1417,7.0,1-1,other
45184,76,64,599,1221,7.0,1-1,other
45185,77,57,570,498,7.0,1-1,other
45186,45,39,259,585,7.0,1-1,other
45187,76,55,1259,49,7.0,1-1,other
45188,72,47,710,2143,0.0,2-1,other
45189,71,54,1225,866,0.0,2-1,other
45190,54,33,3323,1009,0.0,2-1,other
45191,69,51,2430,29,0.0,2-1,other
45192,60,42,1978,1045,0.0,2-1,other
45193,71,66,1287,1097,0.0,2-1,other
45194,64,37,749,55,0.0,2-1,other
45195,72,61,974,1042,0.0,2-1,other
45196,65,42,1947,1248,2.0,2-5,other
45197,60,26,1172,43,2.0,2-5,other
45198,76,69,555,1126,2.0,2-5,other
45199,57,45,3269,57,2.0,2-5,other
45200,77,56,687,1262,2.0,2-5,other
45201,65,53,563,29,2.0,2-5,other
45202,60,32,2131,31,2.0,2-5,other
45203,72,30,859,38,2.0,2-5,other
45204,81,63,1393,1412,2.0,2-5,other
45205,76,47,2378,1678,7.0,2-4,major
45206,65,36,1877,54,7.0,2-4,major
45207,55,46,258,1862,7.0,2-4,major
45208,31,38,2120,2636,7.0,2-4,major
45209,43,1,1316,902,7.0,2-4,major
45210,76,57,1809,4138,7.0,2-4,major
45211,71,63,1598,76,7.0,2-4,major
45212,68,42,1641,43,7.0,2-4,major
45213,74,29,1503,32,7.0,2-4,major
45214,59,30,1897,72,5.0,1-1,other
45215,77,51,2088,2765,5.0,1-1,other
45216,67,52,1173,4449,4.0,2-2,other
45217,69,71,679,1083,4.0,2-2,other
45218,67,43,1079,3808,7.0,2-2,other
45219,67,35,2466,1336,7.0,2-2,other
45220,60,1,1694,57,7.0,2-2,other
45221,64,35,856,2578,9.0,2-5,other
45222,52,20,3156,110,9.0,2-5,other
45223,59,24,1933,1030,9.0,2-5,other
45224,79,58,564,891,9.0,2-5,other
45225,71,54,495,52,9.0,2-5,other
45226,62,30,930,83,9.0,2-5,other
45227,57,28,466,2996,11.0,3-7A,minor
45228,55,25,1422,26,11.0,3-7A,minor
45229,45,66,1192,2971,0.0,2-4,major
45230,38,61,303,1146,0.0,2-4,major
45231,81,30,150,1567,5.0,3-11B,major
45232,31,63,1589,6092,5.0,3-11B,major
45233,94,77,239,3838,5.0,3-11B,major
45234,92,62,334,715,5.0,3-11B,major
45235,87,54,271,441,5.0,3-11B,major
45236,83,46,233,383,5.0,3-11B,major
45237,82,42,372,416,5.0,3-11B,major
45238,80,32,301,403,5.0,3-11B,major
45239,79,34,158,396,5.0,3-11B,major
45240,53,31,5150,446,4.0,2-5,other
45241,75,70,706,2013,4.0,2-5,other
45242,71,54,432,775,4.0,2-5,other
45243,74,81,418,697,4.0,2-5,other
45244,75,74,792,573,4.0,2-5,other
45245,76,73,478,582,4.0,2-5,other
45246,77,60,492,553,4.0,2-5,other
45247,76,44,1988,670,4.0,2-5,other
45248,48,42,1913,66,4.0,2-5,other
45249,55,37,1158,804,4.0,2-5,other
45250,60,44,1287,544,4.0,2-5,other
45251,64,57,403,591,4.0,2-5,other
45252,72,55,396,550,4.0,2-5,other
45253,76,78,496,532,4.0,2-5,other
45254,62,54,1048,1257,0.0,2-4,other
45255,64,46,314,472,0.0,2-4,other
45256,68,55,300,490,0.0,2-4,other
45257,71,80,357,472,0.0,2-4,other
45258,74,80,519,449,0.0,2-4,other
45259,45,40,1056,450,0.0,2-4,other
45260,72,49,1501,43,0.0,2-4,other
45261,52,38,646,587,0.0,2-4,other
45262,57,39,367,455,0.0,2-4,other
45263,64,47,294,344,0.0,2-4,other
45264,69,60,472,377,0.0,2-4,other
45265,72,66,287,567,0.0,2-4,other
45266,79,82,2275,607,0.0,2-4,other
45267,56,38,3226,311,0.0,2-4,other
45268,62,37,1915,818,0.0,2-4,other
45269,67,33,594,673,0.0,2-4,other
45270,72,36,424,683,0.0,2-4,other
45271,74,74,419,570,0.0,2-4,other
45272,76,84,728,586,0.0,2-4,other
45273,57,56,1472,109,0.0,2-4,other
45274,77,61,556,726,0.0,2-4,other
45275,79,57,1864,973,0.0,2-4,major
45276,58,53,1380,29,0.0,2-4,major
45277,64,28,1122,115,9.0,2-4,major
45278,61,15,1158,61,9.0,2-4,major
45279,81,61,740,867,9.0,2-4,major
45280,57,49,257,127,9.0,2-4,major
45281,50,36,1006,984,5.0,2-4,major
45282,57,62,365,848,5.0,2-4,major
45283,79,69,749,967,5.0,2-4,major
45284,62,56,953,1242,5.0,3-11B,major
45285,67,57,812,1109,4.0,2-5,other
45286,60,48,1086,54,4.0,2-5,other
45287,74,51,608,1083,4.0,2-5,other
45288,59,44,130,95,5.0,2-4,major
45289,48,41,1743,1223,5.0,2-4,major
45290,72,37,1263,43,5.0,2-4,major
45291,70,45,463,1332,10.0,3-11B,major
45292,55,29,1210,115,2.0,2-3,minor
45293,69,49,677,1233,2.0,2-3,minor
45294,55,20,2238,3291,4.0,2-6,other
45295,65,74,614,1612,4.0,2-6,other
45296,67,66,650,655,4.0,2-6,other
45297,50,45,1247,872,5.0,3-11B,major
45298,67,44,637,43,5.0,3-11B,major
45299,71,79,402,896,5.0,3-11B,major
45300,57,22,129,60,5.0,3-11B,major
45301,69,36,115,112,5.0,3-11B,major
45302,48,48,1660,683,5.0,3-11B,major
45303,74,76,348,1052,5.0,2-5,other
45304,57,42,840,32,5.0,2-5,other
45305,76,72,675,999,5.0,2-5,other
45306,69,63,497,31,5.0,2-5,other
45307,47,41,319,29,5.0,2-5,other
45308,64,35,150,74,5.0,2-5,other
45309,88,74,1090,1285,5.0,2-5,other
45310,76,68,1018,26,5.0,2-5,other
45311,57,29,770,115,5.0,2-5,other
45312,88,48,1286,1535,2.0,2-3,minor
45313,83,35,848,55,4.0,2-4,major
45314,65,33,1034,1329,4.0,2-4,major
45315,62,29,1110,68,4.0,2-4,major
45316,86,99,896,830,4.0,2-4,major
45317,85,59,368,723,4.0,2-4,major
45318,84,38,360,311,4.0,2-4,major
45319,83,47,255,394,4.0,2-4,major
45320,45,38,3451,388,4.0,2-4,major
45321,84,77,1875,89,4.0,2-4,major
45322,81,37,748,987,4.0,2-4,major
45323,55,13,2203,195,4.0,2-4,major
45324,74,44,395,690,4.0,2-4,major
45325,77,44,547,767,4.0,2-4,major
45326,82,53,204,524,4.0,2-4,major
45327,84,69,619,452,4.0,2-4,major
45328,89,58,504,501,4.0,2-4,major
45329,94,62,289,455,4.0,2-4,major
45330,44,50,902,90,4.0,2-4,major
45331,96,40,654,571,4.0,2-4,major
45332,101,40,525,550,4.0,2-4,major
45333,106,55,559,620,4.0,2-4,major
45334,108,44,458,599,4.0,2-4,major
45335,54,25,3506,666,4.0,2-4,major
45336,106,46,621,63,4.0,2-4,major
45337,65,24,3332,88,4.0,2-4,major
45338,60,26,3001,43,4.0,2-4,major
45339,58,25,3473,75,4.0,2-4,major
45340,72,40,357,3024,4.0,2-4,major
45341,74,64,436,477,4.0,2-4,major
45342,64,52,2660,632,0.0,3-11B,major
45343,76,70,665,1126,0.0,3-11B,major
45344,76,60,310,1077,0.0,3-11B,major
45345,72,36,547,1059,0.0,3-11B,major
45346,72,28,400,1127,0.0,3-11B,major
45347,67,34,850,1134,0.0,3-11B,major
45348,55,6,496,311,0.0,2-4,major
45349,67,36,1384,1098,0.0,2-4,major
45350,60,20,648,86,4.0,2-3,minor
45351,43,43,222,1404,4.0,2-3,minor
45352,70,51,259,1508,4.0,2-3,minor
45353,71,70,371,83,4.0,2-3,minor
45354,72,57,750,259,5.0,4-20,major
45355,84,71,458,1174,5.0,4-20,major
45356,83,34,126,147,2.0,3-11A,minor
45357,81,56,472,1125,2.0,3-11A,minor
45358,65,54,1228,100,2.0,3-7A,minor
45359,77,41,582,1208,2.0,3-7A,minor
45360,71,22,251,175,2.0,2-5,other
45361,86,87,617,1281,2.0,2-5,other
45362,83,52,429,1354,4.0,3-11A,minor
45363,67,58,953,78,4.0,3-7A,minor
45364,81,22,267,135,4.0,3-7A,minor
45365,64,32,2885,1187,7.0,3-11B,major
45366,81,65,567,6491,2.0,2-5,other
45367,77,51,875,1455,5.0,2-5,other
45368,72,35,485,1367,2.0,2-2,other
45369,55,49,1499,46,2.0,2-2,other
45370,71,51,831,3861,7.0,3-11B,major
45371,79,38,503,34,7.0,3-11B,major
45372,76,50,491,29,7.0,3-11B,major
45373,64,35,1641,55,7.0,3-11B,major
45374,61,33,921,1733,1.0,4-28,diminished
45375,73,31,2094,3464,1.0,4-28,diminished
45376,65,41,1098,2384,2.0,1-1,other
45377,69,52,844,38,2.0,1-1,other
45378,60,9,1026,230,2.0,1-1,other
45379,76,56,594,1037,2.0,1-1,other
45380,77,53,648,1340,5.0,3-11B,major
45381,60,22,1181,153,5.0,2-5,other
45382,79,43,990,1333,5.0,2-5,other
45383,57,28,110,138,4.0,2-3,minor
45384,81,49,1074,1759,4.0,2-3,minor
45385,83,44,1715,2053,9.0,2-2,other
45386,84,36,2524,2757,11.0,2-6,other
45387,64,31,3438,115,0.0,2-5,other
45388,59,25,3558,26,0.0,2-5,other
45389,53,20,3792,49,0.0,2-5,other
45390,86,52,3079,3265,0.0,2-5,other
45391,74,31,2163,54,0.0,2-5,other
45392,84,40,971,4021,0.0,2-5,other
45393,72,24,557,49,0.0,2-5,other
45394,36,34,1046,28,0.0,2-5,other
45395,43,36,127,1063,0.0,2-5,other
45396,62,43,6501,1122,0.0,2-5,other
45397,91,52,577,46,0.0,2-5,other
45398,83,42,704,69,0.0,2-5,other
45399,64,27,2475,1123,0.0,2-5,other
45400,76,26,2224,1262,7.0,1-1,other
45401,64,31,1368,2475,7.0,1-1,other
45402,69,40,512,1512,7.0,1-1,other
45403,60,34,1077,2097,5.0,3-6,major
45404,50,24,5137,57,5.0,3-6,major
45405,69,58,1187,1986,5.0,3-6,major
45406,69,47,2270,1547,5.0,3-6,major
45407,76,44,1913,1480,5.0,3-6,major
45408,76,60,1248,2966,5.0,3-6,major
45409,77,74,1226,1952,4.0,3-5B,other
45410,43,30,1406,1027,11.0,2-6,other
45411,55,20,1240,135,8.0,2-3,other
45412,79,53,1686,784,8.0,2-3,other
45413,74,61,1554,58,8.0,2-3,other
45414,64,36,1248,1816,4.0,4-26,minor
45415,76,66,170,1272,5.0,3-11B,major
45416,77,77,214,312,5.0,3-11B,major
45417,55,60,884,376,4.0,4-26,minor
45418,81,64,184,1548,4.0,4-26,minor
45419,83,56,178,372,4.0,4-26,minor
45420,79,30,84,4414,11.0,5-36B,other
45421,59,36,98,1982,7.0,2-5,other
45422,56,37,306,1234,0.0,3-9,other
45423,72,59,204,634,0.0,3-9,other
45424,62,26,292,324,7.0,3-5B,other
45425,74,60,718,26,7.0,3-5B,other
45426,62,47,872,2962,0.0,4-19B,other
45427,55,51,94,3564,6.0,4-29A,minor
45428,91,52,88,4564,4.0,4-6,other
45429,91,50,320,1064,4.0,3-5B,other
45430,55,58,302,108,4.0,2-2,other
45431,89,47,412,490,4.0,2-2,other
45432,55,43,236,122,4.0,3-7B,other
45433,55,45,194,652,4.0,3-7B,other
45434,58,82,362,2502,1.0,3-9,other
45435,62,51,976,516,9.0,3-7A,minor
45436,69,64,278,1356,9.0,3-7A,minor
45437,51,26,236,2024,0.0,3-4A,other
45438,57,33,870,274,4.0,3-7A,minor
45439,55,34,524,2084,4.0,2-6,other
45440,52,54,584,968,1.0,4-28,diminished
45441,79,45,944,4540,7.0,3-5B,other
45442,60,35,664,124,4.0,2-3,minor
45443,81,47,116,4358,11.0,2-5,other
45444,69,36,80,32,11.0,2-5,other
45445,64,46,336,290,11.0,2-5,other
45446,60,40,168,34,11.0,2-5,other
45447,57,36,612,980,3.0,2-1,other
45448,64,44,844,9620,9.0,4-26,minor
45449,72,41,340,836,9.0,4-26,minor
45450,69,44,302,42,9.0,4-26,minor
45451,53,49,1016,966,3.0,3-11A,other
45452,43,45,1026,934,3.0,3-11A,other
45453,41,55,488,2966,0.0,3-11B,major
45454,65,75,274,944,0.0,3-11B,major
45455,40,45,716,874,0.0,3-11B,major
45456,69,78,198,1564,7.0,2-5,other
45457,72,63,294,1908,0.0,3-3A,minor
45458,72,49,1622,518,0.0,3-3A,minor
45459,69,71,1086,52,0.0,3-3A,minor
45460,64,27,1070,1782,8.0,3-10,minor
45461,71,85,212,634,8.0,3-10,minor
45462,69,43,448,444,8.0,3-10,minor
45463,67,50,172,560,8.0,3-10,minor
45464,76,78,216,874,4.0,3-7B,other
45465,74,48,326,428,4.0,3-7B,other
45466,56,21,154,592,2.0,3-7A,minor
45467,83,79,264,860,2.0,3-7A,minor
45468,81,53,224,450,2.0,3-7A,minor
45469,76,43,416,1052,9.0,2-3,minor
45470,72,33,584,770,9.0,2-3,minor
45471,56,26,1160,1072,2.0,2-3,minor
45472,72,52,154,1236,2.0,2-3,minor
45473,74,83,202,320,2.0,2-3,minor
45474,57,37,1018,316,2.0,2-3,minor
45475,64,22,816,72,0.0,2-4,major
45476,75,52,220,310,0.0,2-4,major
45477,76,74,276,332,0.0,2-4,major
45478,77,73,414,370,0.0,2-4,major
45479,79,58,160,2194,6.0,3-5B,other
45480,80,68,242,300,6.0,3-5B,other
45481,81,66,284,376,5.0,4-20,major
45482,81,44,240,944,5.0,4-20,major
45483,64,48,98,602,5.0,4-20,major
45484,59,44,84,34,5.0,4-20,major
45485,81,49,620,1294,11.0,1-1,other
45486,79,70,292,528,11.0,1-1,other
45487,62,24,66,52,11.0,1-1,other
45488,55,30,96,58,11.0,1-1,other
45489,76,65,448,392,11.0,1-1,other
45490,76,64,650,770,11.0,1-1,other
45491,52,71,68,1620,10.0,3-11B,major
45492,77,39,92,372,7.0,1-1,other
45493,88,65,196,2294,5.0,4-20,major
45494,85,29,68,1204,7.0,2-3,minor
45495,55,44,96,664,1.0,4-28,diminished
45496,53,45,782,658,9.0,3-11A,minor
45497,84,46,84,2516,9.0,2-3,minor
45498,76,62,756,3314,5.0,4-16A,major
45499,62,56,696,70,8.0,3-10,minor
45500,74,63,254,1414,8.0,3-10,minor
45501,61,50,248,3140,5.0,4-14A,other
45502,84,65,298,2968,0.0,2-4,major
45503,60,48,78,658,4.0,3-2A,minor
45504,84,64,206,2718,9.0,3-11A,minor
45505,81,24,82,88,5.0,4-22A,major
45506,55,46,2436,1244,5.0,2-4,major
45507,65,30,170,26,5.0,2-4,major
45508,72,56,358,3486,4.0,3-11A,minor
45509,67,53,84,354,4.0,3-11A,minor
45510,56,52,2882,912,4.0,3-11A,minor
45511,55,48,1932,72,2.0,2-2,other
45512,43,50,160,1826,2.0,2-2,other
45513,76,69,299,799,2.0,2-2,other
45514,77,66,574,366,2.0,2-2,other
45515,76,105,339,2765,4.0,2-2,other
45516,72,73,297,955,4.0,2-2,other
45517,71,60,1113,977,4.0,2-2,other
45518,55,29,352,101,4.0,3-7B,other
45519,67,72,355,883,4.0,3-7B,other
45520,64,24,1562,1000,9.0,3-3A,major
45521,55,31,1331,52,9.0,3-3A,major
45522,72,103,523,3358,9.0,2-5,other
45523,73,36,84,64,9.0,2-5,other
45524,64,34,890,392,11.0,2-6,other
45525,69,80,268,521,11.0,2-6,other
45526,67,39,276,426,11.0,2-6,other
45527,65,49,315,506,11.0,2-6,other
45528,62,17,409,417,4.0,2-5,other
45529,55,24,441,30,4.0,2-5,other
45530,65,50,208,573,4.0,2-5,other
45531,67,62,694,335,4.0,2-5,other
45532,68,45,489,892,4.0,2-5,other
45533,69,70,231,600,8.0,2-6,other
45534,71,85,464,362,8.0,2-6,other
45535,69,48,92,50,8.0,2-6,other
45536,74,80,384,519,8.0,2-6,other
45537,69,50,704,1294,0.0,2-4,major
45538,68,44,804,972,0.0,2-4,major
45539,71,68,446,873,0.0,2-4,major
45540,67,62,261,2058,0.0,2-4,major
45541,60,26,208,60,0.0,2-4,major
45542,55,24,188,45,0.0,2-4,major
45543,60,34,898,3752,5.0,3-4A,major
45544,76,105,565,977,5.0,3-4A,major
45545,72,51,307,610,5.0,3-4A,major
45546,71,35,261,553,5.0,3-4A,major
45547,64,25,136,739,5.0,3-4A,major
45548,59,31,112,42,5.0,3-4A,major
45549,71,58,312,1563,4.0,3-11A,minor
45550,67,35,427,322,4.0,3-11A,minor
45551,58,34,191,637,4.0,3-11A,minor
45552,72,80,519,258,4.0,3-11A,minor
45553,68,45,258,610,4.0,3-11A,minor
45554,65,53,239,977,9.0,2-3,minor
45555,64,33,595,415,9.0,2-3,minor
45556,64,46,783,920,9.0,2-3,minor
45557,62,44,2517,878,9.0,2-3,minor
45558,55,25,98,2736,9.0,2-3,minor
45559,65,83,506,207,9.0,2-3,minor
45560,63,47,268,603,9.0,2-3,minor
45561,64,33,452,446,9.0,2-3,minor
45562,67,71,270,576,9.0,2-3,minor
45563,70,75,535,395,9.0,2-3,minor
45564,68,50,220,602,9.0,2-3,minor
45565,69,57,399,379,9.0,2-3,minor
45566,72,58,254,553,9.0,2-3,minor
45567,60,26,109,169,9.0,2-3,minor
45568,76,84,474,223,9.0,2-3,minor
45569,79,80,451,544,9.0,2-3,minor
45570,77,54,618,423,9.0,2-3,minor
45571,67,42,754,881,9.0,2-3,minor
45572,76,80,221,1909,4.0,2-2,other
45573,55,38,268,42,4.0,2-2,other
45574,77,62,211,576,4.0,2-2,other
45575,79,62,382,372,4.0,2-2,other
45576,81,61,235,553,4.0,2-2,other
45577,64,19,1463,422,6.0,2-6,other
45578,84,74,1030,61,6.0,2-6,other
45579,81,35,355,913,6.0,2-6,other
45580,78,56,335,553,6.0,2-6,other
45581,76,32,657,504,6.0,2-6,other
45582,75,71,697,798,6.0,2-6,other
45583,79,57,446,1895,4.0,3-11A,minor
45584,76,62,322,563,4.0,3-11A,minor
45585,75,49,687,481,4.0,3-11A,minor
45586,62,19,109,841,4.0,3-11A,minor
45587,74,57,751,52,4.0,3-11A,minor
45588,55,29,982,1051,0.0,2-4,major
45589,57,26,992,55,0.0,2-4,major
45590,57,39,484,3407,5.0,2-5,other
45591,81,103,811,290,5.0,2-5,other
45592,77,74,509,945,5.0,2-5,other
45593,74,66,431,601,5.0,2-5,other
45594,59,22,412,297,5.0,2-5,other
45595,53,27,1126,35,5.0,2-5,other
45596,64,22,918,52,5.0,2-5,other
45597,72,27,674,87,5.0,2-5,other
45598,59,42,870,553,5.0,2-5,other
45599,71,82,494,300,5.0,2-5,other
45600,74,113,914,928,5.0,2-5,other
45601,71,40,533,1006,4.0,2-3,minor
45602,67,32,305,705,4.0,2-3,minor
45603,57,31,320,381,4.0,2-3,minor
45604,60,24,206,38,4.0,2-3,minor
45605,53,16,238,89,4.0,2-3,minor
45606,69,64,536,79,4.0,2-3,minor
45607,64,46,710,672,4.0,2-3,minor
45608,67,54,508,901,4.0,2-3,minor
45609,55,34,121,37,4.0,2-3,minor
45610,62,35,442,932,4.0,2-3,minor
45611,61,34,468,968,4.0,2-3,minor
45612,55,30,280,121,4.0,2-3,minor
45613,62,60,511,1823,4.0,2-3,minor
45614,64,53,248,615,2.0,2-2,other
45615,69,94,453,2255,4.0,2-5,other
45616,72,80,342,592,4.0,2-5,other
45617,71,62,533,439,4.0,2-5,other
45618,67,73,239,540,4.0,2-5,other
45619,64,24,414,405,4.0,2-5,other
45620,62,40,282,506,4.0,2-5,other
45621,67,73,463,382,4.0,2-5,other
45622,62,80,316,555,4.0,2-5,other
45623,56,43,489,434,4.0,2-5,other
45624,55,34,92,687,4.0,2-5,other
45625,60,65,541,228,4.0,2-5,other
45626,45,57,249,439,4.0,2-5,other
45627,57,34,532,316,4.0,2-5,other
45628,60,62,253,748,4.0,2-5,other
45629,62,56,382,407,4.0,2-5,other
45630,64,45,397,967,3.0,2-5,other
45631,67,76,260,613,3.0,2-5,other
45632,60,32,137,138,3.0,2-5,other
45633,57,34,118,36,3.0,2-5,other
45634,64,36,345,304,3.0,2-5,other
45635,55,33,195,1442,1.0,2-3,minor
45636,67,51,231,909,1.0,2-3,minor
45637,69,43,295,335,1.0,2-3,minor
45638,70,56,176,370,1.0,2-3,minor
45639,72,56,228,275,1.0,2-3,minor
45640,75,39,131,744,1.0,2-3,minor
45641,76,49,146,216,1.0,2-3,minor
45642,79,83,373,267,1.0,2-3,minor
45643,76,58,226,392,1.0,2-3,minor
45644,77,73,293,298,1.0,2-3,minor
45645,72,49,184,459,1.0,2-3,minor
45646,55,51,105,1661,11.0,2-3,minor
45647,52,22,89,1811,10.0,2-4,major
45648,79,41,119,1327,9.0,3-11B,major
45649,76,60,241,605,9.0,1-1,other
45650,60,47,99,67,1.0,3-10,diminished
45651,57,38,181,37,1.0,3-10,diminished
45652,79,31,290,454,9.0,1-1,other
45653,81,63,325,771,9.0,1-1,other
45654,69,47,258,45,9.0,1-1,other
45655,64,36,201,902,9.0,1-1,other
45656,81,96,380,2800,5.0,3-11B,major
45657,84,92,377,655,5.0,3-11B,major
45658,84,79,504,657,5.0,3-11B,major
45659,83,74,499,719,5.0,3-11B,major
45660,81,66,278,588,5.0,3-11B,major
45661,86,77,431,1362,2.0,2-5,other
45662,84,57,184,597,2.0,2-5,other
45663,79,67,549,595,8.0,4-13B,other
45664,62,19,151,715,8.0,2-3,other
45665,88,67,349,573,8.0,2-3,other
45666,55,37,605,243,8.0,2-3,other
45667,57,36,674,27,8.0,2-3,other
45668,86,68,657,231,8.0,2-3,other
45669,55,33,117,793,9.0,3-11A,minor
45670,64,52,967,6731,5.0,2-4,major
45671,57,45,727,3764,0.0,3-9,other
45672,62,36,906,3849,9.0,2-3,minor
45673,43,39,104,1913,9.0,2-3,minor
45674,76,68,238,632,9.0,2-3,minor
45675,77,74,429,379,9.0,2-3,minor
45676,79,67,228,596,9.0,2-3,minor
45677,64,40,1064,79,9.0,2-3,minor
45678,62,1,890,404,9.0,2-3,minor
45679,71,58,250,427,9.0,2-3,minor
45680,72,40,476,409,9.0,2-3,minor
45681,74,73,191,603,9.0,2-3,minor
45682,67,57,211,917,9.0,2-3,minor
45683,69,45,452,399,9.0,2-3,minor
45684,55,46,104,665,11.0,2-3,minor
45685,64,38,151,883,11.0,2-3,minor
45686,65,34,307,417,11.0,2-3,minor
45687,57,45,109,605,6.0,3-10,other
45688,60,64,87,1845,6.0,3-10,other
45689,57,48,89,37,6.0,3-10,other
45690,53,42,101,30,6.0,3-10,other
45691,69,40,100,979,6.0,3-10,other
45692,72,43,188,343,6.0,3-10,other
45693,79,89,256,545,6.0,3-10,other
45694,76,57,444,429,9.0,3-11A,minor
45695,59,56,394,901,4.0,1-1,other
45696,53,37,360,27,4.0,1-1,other
45697,59,37,370,860,4.0,1-1,other
45698,55,48,285,63,2.0,1-1,other
45699,52,29,242,46,2.0,1-1,other
45700,74,79,528,852,2.0,1-1,other
45701,72,48,322,629,2.0,1-1,other
45702,69,57,345,977,8.0,2-3,minor
45703,68,35,338,481,8.0,2-3,minor
45704,71,54,394,511,8.0,2-3,minor
45705,57,22,1078,184,0.0,2-4,major
45706,69,55,645,270,0.0,2-4,major
45707,64,33,528,843,0.0,2-4,major
45708,68,31,210,1987,8.0,3-10,other
45709,71,66,268,305,8.0,3-10,other
45710,74,80,258,337,8.0,3-10,other
45711,57,29,1081,263,0.0,2-4,major
45712,71,54,301,99,0.0,2-4,major
45713,72,46,342,335,0.0,2-4,major
45714,60,30,132,404,0.0,2-4,major
45715,79,59,176,60,0.0,2-4,major
45716,83,58,201,471,0.0,2-4,major
45717,84,74,307,305,0.0,2-4,major
45718,55,57,1223,342,6.0,2-5,other
45719,81,35,119,206,6.0,2-5,other
45720,53,30,1188,1577,9.0,3-11A,minor
45721,64,36,104,1585,9.0,3-11A,minor
45722,93,55,152,322,9.0,2-3,minor
45723,81,30,184,57,9.0,2-3,minor
45724,91,48,223,273,9.0,2-3,minor
45725,93,87,308,330,9.0,2-3,minor
45726,81,60,206,27,9.0,2-3,minor
45727,91,38,144,437,5.0,2-4,major
45728,62,29,788,816,5.0,2-4,major
45729,59,32,548,34,5.0,2-4,major
45730,91,55,184,925,4.0,2-3,minor
45731,79,46,111,43,4.0,2-3,minor
45732,89,45,137,307,4.0,2-3,minor
45733,52,34,754,566,10.0,2-4,major
45734,89,44,251,133,10.0,2-4,major
45735,86,51,286,1922,8.0,1-1,other
45736,93,70,240,1489,2.0,2-3,minor
45737,64,53,90,121,7.0,2-2,other
45738,57,24,112,129,7.0,2-2,other
45739,91,40,370,213,7.0,2-2,other
45740,57,27,105,600,7.0,2-5,other
45741,91,64,424,253,7.0,2-5,other
45742,84,64,238,727,5.0,1-1,other
45743,88,47,394,496,5.0,1-1,other
45744,76,53,345,791,4.0,2-5,other
45745,86,68,372,885,4.0,2-5,other
45746,79,46,330,75,10.0,2-4,major
45747,52,32,226,52,10.0,2-4,major
45748,84,55,246,833,10.0,2-4,major
45749,62,44,295,57,0.0,3-7B,other
45750,52,24,124,42,0.0,3-7B,other
45751,60,55,518,3835,8.0,3-3A,minor
45752,91,71,563,1512,8.0,3-3A,minor
45753,64,59,588,2929,6.0,2-6,other
45754,77,42,588,1399,5.0,2-1,other
45755,84,34,82,1570,11.0,2-1,other
45756,83,39,617,1310,4.0,2-3,minor
45757,88,50,854,2878,0.0,4-20,major
45758,88,47,897,4688,9.0,1-1,other
45759,83,50,99,2817,4.0,3-5B,other
45760,55,57,1052,982,4.0,2-2,other
45761,91,42,850,3889,5.0,3-11B,major
45762,55,37,692,54,4.0,4-26,minor
45763,93,92,311,1865,7.0,6-18A,minor
45764,58,62,649,928,5.0,5-26B,augmented
45765,57,52,1190,1039,5.0,3-4B,other
45766,57,33,98,2870,4.0,2-5,other
45767,59,42,994,1078,5.0,3-6,major
45768,55,55,923,74,4.0,2-2,other
45769,84,62,1022,2329,4.0,2-2,other
45770,60,39,898,1391,9.0,3-9,other
45771,62,55,171,1796,8.0,2-1,other
45772,64,36,1356,1590,8.0,2-1,other
45773,55,34,1218,81,9.0,2-3,minor
45774,84,78,411,1258,9.0,2-3,minor
45775,85,76,248,568,9.0,2-3,minor
45776,61,39,1221,349,9.0,2-3,minor
45777,55,40,830,43,9.0,2-3,minor
45778,88,67,263,602,4.0,2-1,other
45779,89,40,374,422,4.0,2-1,other
45780,60,22,201,667,11.0,2-2,other
45781,57,25,154,52,11.0,2-2,other
45782,89,45,553,283,11.0,2-2,other
45783,89,57,315,900,11.0,2-2,other
45784,91,63,441,930,11.0,2-2,other
45785,53,29,188,87,4.0,2-5,other
45786,92,67,310,476,4.0,2-5,other
45787,94,60,387,449,4.0,2-5,other
45788,95,64,224,478,4.0,2-5,other
45789,62,70,181,1042,4.0,2-5,other
45790,59,40,134,64,4.0,2-5,other
45791,55,27,112,53,4.0,2-5,other
45792,99,87,533,1210,4.0,2-5,other
45793,64,32,94,2549,4.0,2-6,other
45794,57,37,114,50,4.0,2-6,other
45795,96,95,519,235,4.0,2-6,other
45796,97,64,247,616,4.0,2-6,other
45797,93,39,377,463,4.0,2-6,other
45798,93,75,447,796,4.0,2-6,other
45799,94,67,292,628,4.0,2-6,other
45800,61,47,208,37,4.0,2-6,other
45801,91,17,334,479,4.0,2-6,other
45802,50,26,124,463,4.0,2-6,other
45803,93,90,530,328,4.0,2-6,other
45804,91,87,442,870,4.0,2-6,other
45805,89,77,370,640,4.0,2-6,other
45806,88,49,371,447,4.0,2-6,other
45807,86,57,265,543,4.0,2-6,other
45808,88,62,677,404,4.0,2-6,other
45809,65,41,123,846,4.0,2-6,other
45810,57,25,221,39,4.0,2-6,other
45811,86,71,208,650,4.0,2-6,other
45812,84,73,548,409,8.0,3-10,other
45813,82,30,92,2897,9.0,4-26,minor
45814,44,69,5708,2249,3.0,2-5,other
45815,60,75,2272,5835,4.0,2-3,minor
45816,52,57,6593,43,4.0,2-3,minor
45817,43,76,5424,1339,4.0,2-3,minor
45818,55,80,2431,968,4.0,2-3,minor
45819,64,75,1445,1118,4.0,2-3,minor
45820,57,63,1175,4400,0.0,3-11B,major
45821,65,80,991,2316,9.0,3-11A,minor
45822,60,80,1433,34,9.0,3-11A,minor
45823,72,43,701,1482,9.0,3-11A,minor
45824,57,61,508,64,2.0,3-11A,minor
45825,65,51,1007,1620,0.0,2-4,major
45826,56,28,1443,2297,7.0,2-5,other
45827,53,25,1426,78,7.0,2-5,other
45828,40,29,1469,2943,7.0,2-5,other
45829,71,68,628,1489,7.0,2-4,major
45830,62,13,236,510,7.0,2-4,major
45831,64,43,628,1077,7.0,3-11B,major
45832,45,26,1690,58,7.0,3-11B,major
45833,49,32,1901,1967,4.0,2-3,minor
45834,65,52,785,1792,4.0,2-3,minor
45835,50,48,1345,66,9.0,2-3,minor
45836,62,60,626,4372,5.0,3-11B,major
45837,57,50,591,26,5.0,3-11B,major
45838,64,44,1852,1998,5.0,2-5,other
45839,69,40,1202,2082,2.0,2-3,minor
45840,62,22,1011,75,2.0,2-3,minor
45841,83,45,6033,3068,2.0,2-3,minor
45842,76,53,5656,54,8.0,2-3,minor
45843,53,26,807,112,3.0,2-4,other
45844,31,45,221,2601,3.0,2-4,other
45845,72,53,1363,5463,5.0,3-9,other
45846,44,61,3110,58,5.0,3-9,other
45847,51,35,1181,2025,5.0,3-9,other
45848,55,30,1140,1224,5.0,3-9,other
45849,56,57,3922,1060,5.0,3-9,other
45850,79,58,1083,1048,5.0,3-9,other
45851,72,45,596,26,5.0,3-9,other
45852,60,38,1233,28,5.0,3-9,other
45853,65,47,1485,1130,0.0,2-5,other
45854,84,48,914,1344,0.0,2-5,other
45855,36,34,1746,3050,7.0,2-2,other
45856,52,42,1723,213,2.0,3-11B,major
45857,43,40,216,1513,2.0,3-11B,major
45858,79,51,1194,101,2.0,3-11B,major
45859,69,36,2935,1652,2.0,2-4,major
45860,57,36,1466,47,2.0,2-4,major
45861,62,34,2016,1676,2.0,2-4,major
45862,64,35,746,2013,2.0,2-5,other
45863,79,75,526,0,,,
45864,55,66,511,32,,,
45865,70,78,502,4159,7.0,2-5,other
45866,70,74,1051,744,7.0,2-5,other
45867,58,55,649,75,2.0,2-4,major
45868,58,50,342,800,2.0,2-4,major
45869,53,49,756,766,10.0,3-4A,major
45870,67,70,374,852,10.0,3-4A,major
45871,46,55,607,1854,1.0,4-26,other
45872,54,73,357,474,1.0,4-26,other
45873,60,70,333,386,1.0,4-26,other
45874,61,66,387,351,1.0,4-26,other
45875,63,81,168,313,1.0,4-26,other
45876,65,77,176,253,1.0,4-26,other
45877,66,69,227,237,1.0,4-26,other
45878,68,63,210,163,1.0,4-26,other
45879,70,61,53,188,1.0,4-26,other
45880,72,67,132,115,1.0,4-26,other
45881,73,55,152,178,1.0,4-26,other
45882,75,74,108,144,1.0,4-26,other
45883,77,69,122,149,1.0,4-26,other
45884,78,55,167,146,1.0,4-26,other
45885,80,41,69,152,1.0,4-26,other
45886,82,57,65,104,1.0,4-26,other
45887,84,75,111,154,1.0,4-26,other
45888,85,71,136,178,1.0,4-26,other
45889,87,55,64,176,1.0,4-26,other
45890,89,69,135,107,1.0,4-26,other
45891,90,55,176,168,1.0,4-26,other
45892,92,54,239,129,1.0,4-26,other
45893,94,54,204,143,1.0,4-26,other
45894,95,61,269,160,1.0,4-26,other
45895,96,78,3255,213,8.0,2-2,other
45896,60,41,1231,2221,6.0,3-5B,other
45897,94,49,214,2401,6.0,3-5B,other
45898,58,42,643,53,6.0,3-5B,other
45899,62,77,1079,549,0.0,1-1,other
45900,98,78,810,63,0.0,1-1,other
45901,53,38,270,1949,10.0,3-11B,major
45902,62,49,931,3102,10.0,3-11B,major
45903,84,57,1097,3748,2.0,1-1,other
45904,72,35,1095,32,2.0,1-1,other
45905,82,34,603,1183,2.0,1-1,other
45906,70,35,260,34,2.0,1-1,other
45907,86,63,500,1356,2.0,1-1,other
45908,44,29,278,111,8.0,2-2,other
45909,77,33,475,43,8.0,2-2,other
45910,86,50,256,838,8.0,2-2,other
45911,82,47,252,52,8.0,2-2,other
45912,54,61,2221,38,8.0,2-2,other
45913,77,53,224,59,8.0,2-2,other
45914,82,39,336,633,8.0,2-2,other
45915,74,47,291,162,5.0,2-5,other
45916,77,45,368,785,5.0,2-5,other
45917,74,57,353,28,5.0,2-5,other
45918,70,53,1246,1019,10.0,2-5,other
45919,43,35,1930,71,3.0,2-4,major
45920,68,45,457,1171,11.0,2-6,other
45921,50,33,692,28,11.0,2-6,other
45922,67,37,1288,1774,11.0,2-6,other
45923,67,66,515,3451,11.0,3-10,diminished
45924,67,85,359,715,11.0,3-10,diminished
45925,67,93,415,600,11.0,3-10,diminished
45926,67,94,347,613,11.0,3-10,diminished
45927,67,77,520,616,11.0,3-10,diminished
45928,70,45,835,2353,11.0,3-10,diminished
45929,70,61,465,976,0.0,1-1,other
45930,70,65,314,670,0.0,1-1,other
45931,70,58,386,585,0.0,1-1,other
45932,50,29,2683,845,2.0,2-2,other
45933,63,78,435,1018,2.0,2-2,other
45934,67,91,785,822,2.0,2-2,other
45935,70,87,1052,936,2.0,2-2,other
45936,72,61,1005,2512,2.0,2-2,other
45937,58,33,1260,78,3.0,2-4,major
45938,60,33,1000,2966,4.0,2-3,minor
45939,70,49,2609,2444,4.0,2-3,minor
45940,63,49,2200,115,7.0,2-2,other
45941,58,37,2090,43,7.0,2-2,other
45942,29,41,420,2043,7.0,2-2,other
45943,51,45,11991,1455,7.0,2-2,other
45944,57,49,11572,360,7.0,2-2,other
45945,62,53,380,354,7.0,2-2,other
45946,66,51,270,404,7.0,2-2,other
45947,69,37,333,456,7.0,2-2,other
45948,72,38,147,1007,7.0,2-2,other
45949,77,41,183,830,7.0,2-2,other
45950,81,45,123,712,7.0,2-2,other
45951,86,50,155,1420,7.0,2-2,other
45952,90,41,158,634,7.0,2-2,other
45953,93,49,107,648,7.0,2-2,other
45954,98,50,549,848,7.0,2-2,other
45955,98,37,437,937,7.0,2-2,other
45956,98,39,607,963,7.0,2-2,other
45957,98,34,235,2151,7.0,2-2,other
45958,64,54,350,2279,6.0,2-3,other
45959,55,39,371,31,6.0,2-3,other
45960,65,50,384,386,6.0,2-3,other
45961,56,35,345,40,6.0,2-3,other
45962,66,49,356,384,6.0,2-3,other
45963,57,37,344,33,6.0,2-3,other
45964,68,37,276,794,7.0,2-3,minor
45965,59,39,251,32,7.0,2-3,minor
45966,69,43,245,332,7.0,2-3,minor
45967,60,34,280,27,7.0,2-3,minor
45968,78,41,307,3565,8.0,2-3,other
45969,69,42,351,66,8.0,2-3,other
45970,80,61,341,727,7.0,2-3,minor
45971,71,66,384,29,7.0,2-3,minor
45972,83,73,267,1152,1.0,2-3,other
45973,74,61,65,33,1.0,2-3,other
45974,84,69,232,361,1.0,2-3,other
45975,86,73,226,230,1.0,2-3,other
45976,87,53,196,243,1.0,2-3,other
45977,88,62,159,216,1.0,2-3,other
45978,65,33,256,1717,7.0,2-5,other
45979,55,49,610,2938,3.0,3-4B,other
45980,64,37,709,2833,9.0,2-3,minor
45981,75,43,765,1426,7.0,2-4,major
45982,63,29,527,31,7.0,2-4,major
45983,59,34,133,1387,8.0,3-10,minor
45984,67,78,3245,985,8.0,3-10,minor
45985,63,69,986,541,8.0,3-10,minor
45986,58,39,675,44,8.0,3-10,minor
45987,60,69,361,3821,7.0,3-11A,minor
45988,67,58,184,960,3.0,2-4,major
45989,70,85,1215,448,3.0,2-4,major
45990,40,46,494,468,3.0,2-4,major
45991,69,82,393,503,3.0,2-4,major
45992,58,53,869,1018,2.0,3-9,other
45993,79,81,348,689,2.0,3-9,other
45994,82,66,327,3068,1.0,2-3,minor
45995,81,66,222,399,1.0,2-3,minor
45996,79,62,160,235,1.0,2-3,minor
45997,81,57,870,257,2.0,3-7B,other
45998,76,57,568,851,2.0,3-7B,other
45999,77,71,450,1047,0.0,2-5,other
46000,72,59,2748,487,0.0,2-5,other
46001,60,42,657,566,6.0,2-1,other
46002,26,57,227,1551,6.0,2-1,other
46003,55,67,459,2677,10.0,3-9,other
46004,56,49,539,2363,1.0,5-26B,other
46005,63,38,600,1599,7.0,2-4,major
46006,70,81,805,2541,0.0,2-5,other
46007,63,62,115,901,10.0,3-6,major
46008,67,61,67,367,10.0,3-6,major
46009,71,69,147,347,10.0,3-6,major
46010,55,45,1025,404,10.0,2-4,major
46011,71,57,202,336,10.0,2-4,major
46012,72,71,271,333,10.0,2-4,major
46013,67,58,273,362,10.0,2-4,major
46014,63,49,315,392,10.0,2-4,major
46015,55,37,613,33,10.0,2-4,major
46016,63,61,318,447,10.0,2-4,major
46017,65,67,1032,479,10.0,2-4,major
46018,42,45,592,480,10.0,2-4,major
46019,53,30,680,40,10.0,2-4,major
46020,60,62,244,399,10.0,2-4,major
46021,65,66,273,315,10.0,2-4,major
46022,70,71,133,273,10.0,2-4,major
46023,72,79,288,236,10.0,2-4,major
46024,77,69,263,214,10.0,2-4,major
46025,58,46,726,111,5.0,3-5B,other
46026,82,55,98,158,5.0,3-5B,other
46027,84,62,184,239,5.0,3-5B,other
46028,89,69,309,227,5.0,3-5B,other
46029,94,63,192,221,5.0,3-5B,other
46030,96,71,205,258,5.0,3-5B,other
46031,94,65,213,278,5.0,3-5B,other
46032,63,37,798,91,5.0,3-5B,other
46033,90,49,974,216,5.0,2-5,other
46034,89,79,347,909,5.0,2-5,other
46035,60,41,725,528,3.0,1-1,other
46036,86,78,166,901,3.0,1-1,other
46037,87,83,227,310,3.0,1-1,other
46038,89,70,176,305,3.0,1-1,other
46039,65,41,681,27,3.0,1-1,other
46040,62,38,2332,26,3.0,1-1,other
46041,60,26,1841,59,3.0,1-1,other
46042,87,75,183,385,3.0,1-1,other
46043,85,51,134,370,3.0,1-1,other
46044,86,69,203,257,3.0,1-1,other
46045,84,62,166,235,3.0,1-1,other
46046,53,49,4092,107,3.0,1-1,other
46047,81,49,124,141,3.0,1-1,other
46048,84,67,161,249,3.0,1-1,other
46049,81,49,120,220,3.0,1-1,other
46050,82,50,238,261,3.0,1-1,other
46051,77,53,173,270,3.0,1-1,other
46052,77,51,137,312,3.0,1-1,other
46053,62,39,770,219,3.0,1-1,other
46054,77,57,186,85,5.0,2-5,other
46055,74,61,108,357,5.0,2-5,other
46056,74,61,168,320,5.0,2-5,other
46057,69,61,151,278,5.0,2-5,other
46058,69,57,143,319,5.0,2-5,other
46059,60,29,778,343,2.0,2-3,minor
46060,69,70,246,882,2.0,2-3,minor
46061,70,73,282,321,2.0,2-3,minor
46062,58,65,347,2536,0.0,3-11A,minor
46063,46,54,830,491,0.0,3-11A,minor
46064,55,53,541,4173,8.0,5-30B,other
46065,74,89,625,2502,3.0,3-3B,other
46066,72,69,3787,791,3.0,3-3B,other
46067,67,77,1116,27,3.0,3-3B,other
46068,60,41,2198,43,3.0,3-3B,other
46069,67,47,1304,1582,3.0,3-3B,other
46070,62,47,776,34,3.0,3-3B,other
46071,51,45,139,792,3.0,3-3B,other
46072,55,49,2229,839,5.0,3-4A,other
46073,72,78,377,781,5.0,3-4A,other
46074,73,77,252,348,5.0,3-4A,other
46075,82,82,285,799,5.0,3-4A,other
46076,84,94,293,386,5.0,3-4A,other
46077,86,93,304,368,5.0,3-4A,other
46078,86,73,725,899,6.0,4-13B,other
46079,84,77,162,752,6.0,4-13B,other
46080,82,31,273,304,6.0,4-13B,other
46081,84,75,363,446,0.0,2-4,major
46082,82,59,681,373,0.0,2-4,major
46083,81,69,261,600,0.0,2-4,major
46084,62,50,645,629,0.0,2-4,major
46085,62,55,629,1633,7.0,3-2B,minor
46086,77,86,543,1032,7.0,5-27B,minor
46087,65,29,741,718,10.0,4-24,augmented
46088,84,81,228,2455,6.0,3-5B,other
46089,81,62,181,290,6.0,3-5B,other
46090,78,47,126,843,7.0,3-11A,minor
46091,81,71,184,250,7.0,3-11A,minor
46092,79,58,155,306,7.0,3-11A,minor
46093,74,49,70,286,7.0,3-11A,minor
46094,58,34,895,286,7.0,2-5,other
46095,70,61,2311,909,7.0,2-5,other
46096,65,57,205,326,7.0,2-5,other
46097,64,59,809,2020,0.0,3-7B,other
46098,60,46,708,46,0.0,3-7B,other
46099,58,27,487,29,0.0,3-7B,other
46100,69,98,488,881,0.0,3-7B,other
46101,69,78,476,1651,9.0,2-3,minor
46102,69,46,321,1786,9.0,2-3,minor
46103,43,29,3256,665,11.0,2-6,other
46104,53,22,1539,1834,1.0,3-6,other
46105,69,74,694,2532,1.0,3-6,other
46106,48,39,1644,59,3.0,3-11B,major
46107,69,75,472,837,3.0,3-11B,major
46108,69,69,584,807,3.0,3-11B,major
46109,57,53,1059,1004,5.0,2-2,other
46110,77,79,523,2767,5.0,2-2,other
46111,62,41,2244,752,5.0,2-5,other
46112,53,46,2211,1043,5.0,2-5,other
46113,67,61,368,2402,5.0,2-5,other
46114,51,54,1544,1091,0.0,2-2,other
46115,70,59,258,660,0.0,2-2,other
46116,74,89,229,498,0.0,2-2,other
46117,77,93,411,487,0.0,2-2,other
46118,60,25,991,2378,5.0,3-11B,major
46119,80,75,294,1360,5.0,3-11B,major
46120,78,65,196,240,5.0,3-11B,major
46121,53,42,751,252,4.0,3-11A,minor
46122,43,41,232,1708,4.0,3-11A,minor
46123,77,70,216,1801,4.0,3-11A,minor
46124,74,50,203,214,0.0,2-2,other
46125,75,86,4269,234,0.0,2-2,other
46126,63,35,494,1433,7.0,2-5,other
46127,63,25,563,3467,7.0,2-3,minor
46128,72,81,198,883,0.0,2-2,other
46129,70,69,187,248,0.0,2-2,other
46130,72,74,929,269,0.0,2-2,other
46131,40,53,567,262,0.0,2-2,other
46132,69,66,228,603,0.0,2-2,other
46133,68,51,124,231,0.0,2-2,other
46134,69,86,3043,231,0.0,2-2,other
46135,65,95,247,3356,0.0,2-5,other
46136,64,69,171,278,0.0,2-5,other
46137,65,82,999,266,0.0,2-5,other
46138,55,61,1076,30,0.0,2-5,other
46139,45,45,890,26,0.0,2-5,other
46140,67,30,144,401,0.0,2-5,other
46141,64,73,196,628,0.0,2-5,other
46142,63,53,244,249,0.0,2-5,other
46143,57,47,1472,373,2.0,2-3,minor
46144,63,42,251,415,2.0,2-3,minor
46145,64,62,950,315,2.0,2-3,minor
46146,62,61,1262,911,2.0,2-3,minor
46147,57,33,325,48,2.0,2-3,minor
46148,57,62,292,787,2.0,2-3,minor
46149,72,86,283,1694,5.0,4-20,major
46150,78,66,143,1250,5.0,2-5,other
46151,84,65,272,407,5.0,2-5,other
46152,93,69,152,464,5.0,2-5,other
46153,94,81,619,1384,7.0,3-11A,minor
46154,93,86,423,1389,10.0,3-6,major
46155,94,87,553,554,10.0,3-6,major
46156,87,55,812,1109,8.0,1-1,other
46157,83,45,619,536,8.0,1-1,other
46158,70,45,639,2244,1.0,2-2,other
46159,67,73,442,949,10.0,3-6,major
46160,63,55,487,1659,7.0,2-3,minor
46161,63,54,1848,847,7.0,2-3,minor
46162,58,55,679,28,7.0,2-3,minor
46163,55,57,420,883,7.0,2-3,minor
46164,58,61,160,761,7.0,2-3,minor
46165,55,57,63,32,7.0,2-3,minor
46166,74,98,450,770,7.0,2-3,minor
46167,46,43,286,28,7.0,2-3,minor
46168,63,61,800,832,7.0,2-5,other
46169,45,61,847,38,7.0,2-5,other
46170,51,69,1973,499,7.0,2-5,other
46171,57,70,1642,489,7.0,2-5,other
46172,59,85,341,424,7.0,2-5,other
46173,60,93,330,437,7.0,2-5,other
46174,63,81,193,436,7.0,2-5,other
46175,65,89,295,409,7.0,2-5,other
46176,70,81,328,396,7.0,2-5,other
46177,77,66,356,822,2.0,3-8A,major
46178,82,59,148,393,2.0,3-8A,major
46179,84,70,285,418,2.0,3-8A,major
46180,94,57,357,871,5.0,2-5,other
46181,96,57,376,429,5.0,2-5,other
46182,93,53,340,456,5.0,2-5,other
46183,90,42,373,905,7.0,3-11A,minor
46184,93,61,642,454,7.0,3-11A,minor
46185,90,37,322,422,7.0,3-11A,minor
46186,58,41,2693,502,7.0,3-9,other
46187,86,57,68,375,7.0,3-9,other
46188,86,61,69,445,7.0,3-9,other
46189,86,63,80,446,7.0,3-9,other
46190,55,41,2945,467,2.0,1-1,other
46191,86,73,54,438,2.0,1-1,other
46192,86,101,95,459,2.0,1-1,other
46193,86,106,139,438,2.0,1-1,other
46194,58,39,1219,497,2.0,1-1,other
46195,86,65,150,407,2.0,1-1,other
46196,86,69,391,868,2.0,2-3,minor
46197,51,37,2297,486,1.0,1-1,other
46198,58,27,279,31,1.0,1-1,other
46199,58,39,1196,513,1.0,1-1,other
46200,73,37,723,535,1.0,1-1,other
46201,58,34,875,1020,1.0,1-1,other
46202,51,33,193,883,1.0,1-1,other
46203,44,37,1289,1039,10.0,4-16A,other
46204,44,29,1029,1904,2.0,3-11B,major
46205,86,79,683,3660,10.0,3-9,other
46206,60,42,1049,72,2.0,2-3,minor
46207,86,73,298,743,2.0,2-3,minor
46208,74,33,58,82,2.0,2-3,minor
46209,86,70,258,398,2.0,2-3,minor
46210,86,62,1758,572,2.0,2-3,minor
46211,59,35,985,1029,3.0,2-5,other
46212,84,65,764,1006,0.0,2-5,other
46213,82,49,1116,882,0.0,2-5,other
46214,77,57,359,1638,8.0,2-6,other
46215,44,43,88,767,8.0,2-6,other
46216,54,66,2654,583,8.0,2-6,other
46217,60,54,868,549,8.0,2-6,other
46218,74,66,151,1164,10.0,2-5,other
46219,60,38,1579,35,10.0,2-5,other
46220,54,39,360,1291,10.0,2-5,other
46221,86,65,665,30,10.0,2-5,other
46222,55,49,1246,870,8.0,2-3,other
46223,65,37,677,31,8.0,2-3,other
46224,63,38,182,701,8.0,2-3,other
46225,63,43,1068,723,8.0,2-3,other
46226,59,25,922,71,8.0,2-3,other
46227,65,49,1900,618,8.0,2-3,other
46228,59,41,1670,1019,8.0,3-5B,other
46229,53,30,185,32,8.0,3-5B,other
46230,50,37,357,998,8.0,3-5B,other
46231,53,29,2993,1102,8.0,2-3,minor
46232,67,93,1344,1974,8.0,2-3,minor
46233,68,38,209,1247,8.0,2-3,minor
46234,69,65,225,155,8.0,2-3,minor
46235,70,87,1616,305,8.0,2-3,minor
46236,48,67,1281,37,8.0,2-3,minor
46237,36,35,572,2960,0.0,3-7A,minor
46238,38,41,1374,1227,5.0,2-5,other
46239,26,38,1233,27,5.0,2-5,other
46240,75,75,619,2495,5.0,2-5,other
46241,51,57,3948,44,5.0,2-5,other
46242,84,62,696,4133,10.0,1-1,other
46243,51,37,2082,89,10.0,1-1,other
46244,58,35,1641,738,10.0,1-1,other
46245,67,49,663,780,10.0,1-1,other
46246,62,30,327,53,10.0,1-1,other
46247,58,42,1725,992,1.0,3-10,minor
46248,74,85,1986,1346,1.0,3-10,minor
46249,70,53,4026,2978,1.0,3-10,minor
46250,67,57,3778,56,1.0,3-10,minor
46251,63,53,3814,33,1.0,3-10,minor
46252,53,22,745,79,10.0,2-5,other
46253,29,53,171,2354,10.0,2-5,other
46254,41,69,913,2598,10.0,2-5,other
46255,51,62,6169,564,10.0,2-5,other
46256,57,53,5219,574,10.0,2-5,other
46257,62,62,7601,496,10.0,2-5,other
46258,66,54,6999,543,10.0,2-5,other
46259,72,51,802,597,10.0,2-5,other
46260,72,38,730,968,10.0,2-5,other
46261,72,38,3564,1770,10.0,2-5,other
46262,65,52,7119,4551,10.0,2-5,other
46263,53,54,28840,2679,2.0,2-2,other
46264,86,127,653,1546,2.0,2-2,other
46265,87,79,207,500,2.0,2-2,other
46266,88,96,179,164,2.0,2-2,other
46267,89,127,463,223,2.0,2-2,other
46268,86,114,740,602,2.0,2-2,other
46269,77,74,515,730,2.0,2-2,other
46270,77,63,358,753,2.0,2-2,other
46271,82,81,478,1884,3.0,3-9,other
46272,87,87,477,522,3.0,3-9,other
46273,83,61,471,429,3.0,3-9,other
46274,84,75,420,443,3.0,3-9,other
46275,87,96,410,429,3.0,3-9,other
46276,91,97,208,475,3.0,3-9,other
46277,94,86,285,478,3.0,3-9,other
46278,101,127,490,480,3.0,3-9,other
46279,101,127,611,718,3.0,3-9,other
46280,65,50,1486,28,3.0,3-9,other
46281,99,107,477,673,3.0,3-9,other
46282,98,93,399,620,3.0,3-9,other
46283,99,82,401,473,3.0,3-9,other
46284,60,41,1142,407,3.0,3-9,other
46285,98,78,1435,99,2.0,2-3,minor
46286,89,53,348,732,2.0,2-3,minor
46287,89,56,1312,657,2.0,2-3,minor
46288,84,75,398,6725,7.0,2-3,minor
46289,58,47,1064,5213,3.0,3-9,other
46290,63,35,1083,52,3.0,3-9,other
46291,65,40,1087,31,3.0,3-9,other
46292,91,87,322,1317,3.0,3-9,other
46293,79,75,302,131,3.0,3-9,other
46294,89,78,1787,491,3.0,3-9,other
46295,60,40,550,1905,2.0,2-3,minor
46296,53,24,183,117,2.0,2-3,minor
46297,70,45,127,4247,5.0,4-16A,other
46298,75,60,202,635,5.0,4-16A,other
46299,77,123,317,432,5.0,4-16A,other
46300,54,28,150,286,5.0,4-16A,other
46301,50,52,2834,112,5.0,4-16A,other
46302,57,59,2703,84,5.0,2-5,other
46303,79,125,436,126,5.0,2-5,other
46304,81,97,280,925,5.0,2-5,other
46305,79,74,295,563,5.0,2-5,other
46306,81,74,256,348,5.0,2-5,other
46307,79,67,397,381,5.0,2-5,other
46308,81,65,250,412,5.0,2-5,other
46309,79,48,3485,412,5.0,2-5,other
46310,69,54,2863,642,5.0,2-5,other
46311,53,46,2235,87,4.0,2-5,other
46312,74,75,341,3041,4.0,2-5,other
46313,67,34,1543,505,2.0,4-10,minor
46314,74,67,423,430,2.0,4-10,minor
46315,75,75,462,445,2.0,4-10,minor
46316,79,69,323,503,2.0,4-10,minor
46317,67,59,350,476,2.0,4-10,minor
46318,67,49,252,618,2.0,4-10,minor
46319,67,45,148,793,2.0,4-10,minor
46320,67,45,295,668,2.0,4-10,minor
46321,84,87,340,1778,2.0,4-10,minor
46322,67,63,436,27,2.0,4-10,minor
46323,58,50,384,65,0.0,3-11A,minor
46324,87,88,223,651,0.0,3-11A,minor
46325,58,46,96,127,3.0,2-4,major
46326,60,44,90,48,3.0,2-4,major
46327,94,70,295,3919,5.0,2-4,major
46328,82,53,193,41,5.0,2-4,major
46329,55,49,1183,734,5.0,3-12,augmented
46330,55,41,874,2105,5.0,2-4,other
46331,53,49,1571,2037,9.0,2-2,other
46332,57,56,155,1392,9.0,2-2,other
46333,55,56,438,1012,5.0,4-20,major
46334,50,70,134,1881,5.0,4-20,major
46335,60,83,432,942,10.0,5-21B,other
46336,60,70,341,673,10.0,4-16A,other
46337,89,65,282,1829,10.0,1-1,other
46338,55,30,242,161,10.0,1-1,other
46339,94,65,277,1000,9.0,2-2,other
46340,55,53,170,105,10.0,2-1,other
46341,96,73,179,315,10.0,2-1,other
46342,57,36,99,129,7.0,2-3,minor
46343,94,70,939,1983,7.0,2-3,minor
46344,53,50,2427,107,3.0,3-12,augmented
46345,82,52,933,28,3.0,3-12,augmented
46346,67,24,1329,3924,0.0,3-2B,minor
46347,67,45,1592,1632,3.0,2-5,other
46348,81,63,147,236,3.0,2-5,other
46349,82,88,738,296,3.0,2-5,other
46350,79,56,219,830,3.0,2-5,other
46351,58,48,440,719,3.0,2-4,major
46352,75,65,81,541,3.0,2-4,major
46353,60,31,557,1434,3.0,2-4,major
46354,54,44,3588,1794,10.0,3-9,other
46355,83,88,222,1590,0.0,2-1,other
46356,84,90,415,149,0.0,2-1,other
46357,84,78,383,638,0.0,2-1,other
46358,82,72,151,515,0.0,2-1,other
46359,83,90,226,59,0.0,2-1,other
46360,84,62,383,177,0.0,2-1,other
46361,84,83,350,535,0.0,2-1,other
46362,84,82,683,646,0.0,2-1,other
46363,57,44,2463,109,5.0,2-2,other
46364,77,62,1980,577,5.0,2-2,other
46365,89,127,584,679,5.0,2-2,other
46366,89,110,1216,773,5.0,2-2,other
46367,77,86,431,699,5.0,2-2,other
46368,65,51,880,576,5.0,2-2,other
46369,87,119,549,942,2.0,3-7A,minor
46370,85,84,420,475,2.0,3-7A,minor
46371,53,68,4764,445,2.0,3-7A,minor
46372,86,67,528,45,2.0,3-7A,minor
46373,81,62,308,498,2.0,3-7A,minor
46374,84,97,765,418,2.0,3-7A,minor
46375,82,80,403,465,2.0,3-7A,minor
46376,74,65,2705,495,2.0,3-7A,minor
46377,65,47,856,1938,2.0,3-7A,minor
46378,67,55,143,3266,0.0,2-4,other
46379,68,83,165,333,0.0,2-4,other
46380,72,60,199,708,3.0,2-4,major
46381,74,98,266,308,3.0,2-4,major
46382,75,85,150,333,3.0,2-4,major
46383,77,86,228,283,3.0,2-4,major
46384,78,104,351,324,3.0,2-4,major
46385,86,81,234,653,8.0,2-2,other
46386,90,97,459,294,8.0,2-2,other
46387,94,92,250,315,8.0,2-2,other
46388,96,91,254,333,8.0,2-2,other
46389,93,77,142,329,8.0,2-2,other
46390,66,65,968,930,8.0,2-2,other
46391,93,96,182,756,8.0,2-6,other
46392,94,100,234,265,8.0,2-6,other
46393,55,55,2657,370,5.0,2-5,other
46394,96,85,147,403,5.0,2-5,other
46395,96,83,160,416,5.0,2-5,other
46396,96,76,164,410,5.0,2-5,other
46397,96,69,166,349,5.0,2-5,other
46398,96,70,173,385,5.0,2-5,other
46399,96,76,78,397,5.0,2-5,other
46400,96,86,103,457,5.0,2-5,other
46401,96,90,138,410,5.0,2-5,other
46402,96,93,166,265,5.0,2-5,other
46403,96,94,165,247,5.0,2-5,other
46404,96,109,205,279,5.0,2-5,other
46405,96,87,158,400,0.0,2-5,other
46406,96,76,151,397,0.0,2-5,other
46407,96,69,151,407,0.0,2-5,other
46408,96,66,202,329,0.0,2-5,other
46409,96,80,169,355,0.0,2-5,other
46410,96,75,96,528,0.0,2-5,other
46411,96,75,89,629,0.0,2-5,other
46412,96,81,178,260,0.0,2-5,other
46413,96,80,628,327,0.0,2-5,other
46414,57,53,1419,166,0.0,2-3,minor
46415,55,46,1341,50,0.0,2-3,minor
46416,96,75,151,522,0.0,2-3,minor
46417,96,78,176,639,0.0,2-3,minor
46418,96,77,448,486,0.0,2-3,minor
46419,103,81,272,506,0.0,2-3,minor
46420,96,67,288,574,0.0,2-3,minor
46421,63,30,215,123,0.0,2-3,minor
46422,101,78,447,591,0.0,2-3,minor
46423,90,67,911,660,6.0,2-6,other
46424,54,44,881,1139,6.0,2-6,other
46425,70,83,118,3989,7.0,4-14A,minor
46426,69,73,61,499,7.0,4-14A,minor
46427,70,79,81,454,7.0,4-14A,minor
46428,72,127,429,460,7.0,4-14A,minor
46429,60,45,1271,545,10.0,2-4,other
46430,69,75,193,486,10.0,2-4,other
46431,69,69,344,478,10.0,2-4,other
46432,67,56,232,432,10.0,2-4,other
46433,60,24,951,45,10.0,2-4,other
46434,69,72,650,1295,4.0,2-3,minor
46435,70,67,880,931,4.0,2-3,minor
46436,70,71,469,1067,7.0,4-14A,minor
46437,96,98,214,3419,4.0,3-8B,other
46438,94,98,199,342,4.0,3-8B,other
46439,92,87,235,293,4.0,3-8B,other
46440,88,82,153,272,4.0,3-8B,other
46441,85,85,197,298,4.0,3-8B,other
46442,84,72,129,267,4.0,3-8B,other
46443,82,75,210,333,4.0,3-8B,other
46444,80,70,204,258,4.0,3-8B,other
46445,76,74,166,279,4.0,3-8B,other
46446,75,63,84,319,4.0,3-8B,other
46447,73,58,274,316,4.0,3-8B,other
46448,72,64,131,300,4.0,3-8B,other
46449,70,55,991,326,4.0,3-8B,other
46450,63,24,999,75,4.0,3-8B,other
46451,58,33,1030,39,4.0,3-8B,other
46452,60,40,1139,27,4.0,3-8B,other
46453,69,104,440,2022,4.0,3-8B,other
46454,55,61,471,80,3.0,3-11B,major
46455,69,91,296,594,3.0,3-11B,major
46456,67,34,198,74,3.0,3-11B,major
46457,69,70,661,555,3.0,3-11B,major
46458,53,45,90,2578,3.0,2-4,other
46459,62,42,642,1380,9.0,2-6,other
46460,63,39,471,931,7.0,2-3,minor
46461,62,52,853,1007,3.0,3-11B,major
46462,69,63,477,3939,5.0,3-8A,major
46463,72,61,70,160,5.0,3-8A,major
46464,55,44,1428,1617,1.0,2-3,other
46465,65,40,3217,3991,7.0,2-3,minor
46466,70,85,147,183,7.0,2-3,minor
46467,74,75,180,265,7.0,2-3,minor
46468,77,78,164,237,7.0,2-3,minor
46469,74,80,73,234,7.0,2-3,minor
46470,75,86,144,472,7.0,2-3,minor
46471,79,55,72,497,7.0,2-3,minor
46472,82,81,70,394,7.0,2-3,minor
46473,86,86,81,436,7.0,2-3,minor
46474,89,127,276,469,7.0,2-3,minor
46475,50,58,166,1115,7.0,2-3,minor
46476,57,48,255,987,2.0,2-3,minor
46477,86,48,638,2587,11.0,2-6,other
46478,63,66,346,1709,11.0,4-16B,other
46479,74,60,180,830,3.0,3-3B,other
46480,58,53,660,968,1.0,4-5A,other
46481,86,60,222,348,1.0,4-5A,other
46482,84,63,224,592,10.0,4-14B,major
46483,63,52,647,922,7.0,2-5,other
46484,58,43,520,83,7.0,2-5,other
46485,82,71,690,850,7.0,2-5,other
46486,62,37,352,97,3.0,2-5,other
46487,70,53,2724,997,7.0,3-11A,minor
46488,58,48,900,1787,7.0,3-11A,minor
46489,72,95,215,4468,5.0,2-4,major
46490,65,51,130,701,5.0,2-4,major
46491,55,45,2506,1672,1.0,2-6,other
46492,69,33,182,33,1.0,2-6,other
46493,64,70,309,512,4.0,2-3,minor
46494,70,55,94,42,4.0,2-3,minor
46495,69,72,333,1235,5.0,2-2,other
46496,76,78,522,624,5.0,2-2,other
46497,69,52,85,680,2.0,3-3A,minor
46498,60,56,489,650,5.0,2-5,other
46499,62,58,1069,1396,5.0,2-5,other
46500,39,78,438,525,5.0,2-5,other
46501,87,33,112,2184,2.0,3-8A,major
46502,88,42,109,333,0.0,2-2,other
46503,88,54,300,603,2.0,2-2,other
46504,58,54,484,740,5.0,3-2B,other
46505,60,40,114,79,5.0,3-2B,other
46506,55,46,745,2926,7.0,2-3,minor
46507,82,61,414,710,7.0,2-3,minor
46508,82,59,2933,961,7.0,2-3,minor
46509,59,27,513,1915,3.0,3-6,major
46510,82,72,192,1562,3.0,2-5,other
46511,81,63,154,258,3.0,2-5,other
46512,60,53,3448,291,3.0,4-20,major
46513,70,65,188,1256,3.0,4-20,major
46514,69,49,105,260,3.0,4-20,major
46515,70,73,167,215,3.0,4-20,major
46516,67,49,903,68,3.0,4-20,major
46517,82,80,187,639,3.0,4-20,major
46518,81,75,165,204,3.0,4-20,major
46519,82,94,1577,298,3.0,4-20,major
46520,63,65,226,2245,7.0,2-3,minor
46521,67,99,258,491,7.0,2-3,minor
46522,70,112,285,464,7.0,2-3,minor
46523,63,67,228,33,7.0,2-3,minor
46524,72,116,283,421,7.0,2-3,minor
46525,74,106,390,475,7.0,2-3,minor
46526,74,68,284,1030,9.0,2-2,other
46527,75,73,370,425,9.0,2-2,other
46528,74,50,358,525,9.0,2-2,other
46529,65,53,346,471,9.0,2-2,other
46530,65,56,136,592,9.0,2-2,other
46531,67,63,526,725,9.0,2-2,other
46532,60,29,1036,574,9.0,2-2,other
46533,89,88,401,1562,6.0,1-1,other
46534,60,53,359,70,5.0,2-1,other
46535,84,70,500,1949,10.0,5-27A,major
46536,58,40,184,2911,5.0,2-4,major
46537,57,40,163,817,10.0,2-4,major
46538,53,35,101,40,10.0,2-4,major
46539,62,22,183,986,5.0,2-4,major
46540,87,65,132,367,5.0,2-4,major
46541,91,59,146,27,5.0,2-4,major
46542,94,89,357,2335,5.0,2-4,major
46543,61,56,596,567,10.0,3-4A,other
46544,61,74,141,1338,10.0,3-4A,other
46545,63,87,103,261,10.0,3-4A,other
46546,65,75,62,256,10.0,3-4A,other
46547,66,69,77,248,10.0,3-4A,other
46548,68,86,137,248,10.0,3-4A,other
46549,70,75,59,282,10.0,3-4A,other
46550,61,42,114,50,10.0,3-4A,other
46551,72,67,83,191,10.0,3-4A,other
46552,73,74,67,259,10.0,3-4A,other
46553,75,73,66,256,10.0,3-4A,other
46554,77,71,68,285,10.0,3-4A,other
46555,64,35,750,100,6.0,2-6,other
46556,78,80,62,171,6.0,2-6,other
46557,80,79,197,429,6.0,2-6,other
46558,81,71,160,401,6.0,2-6,other
46559,82,77,167,307,6.0,2-6,other
46560,83,94,197,313,6.0,2-6,other
46561,54,61,727,29,6.0,2-6,other
46562,84,77,191,271,0.0,2-4,major
46563,85,77,77,215,0.0,2-4,major
46564,86,69,69,212,0.0,2-4,major
46565,87,69,77,180,0.0,2-4,major
46566,88,65,167,206,6.0,2-2,other
46567,89,62,175,189,6.0,2-2,other
46568,94,50,97,586,6.0,2-2,other
46569,98,90,633,292,6.0,2-2,other
46570,60,39,2712,171,2.0,2-3,minor
46571,96,93,313,333,2.0,2-3,minor
46572,93,78,200,466,2.0,2-3,minor
46573,89,71,346,451,2.0,2-3,minor
46574,81,63,246,1021,2.0,2-3,minor
46575,76,58,2471,502,2.0,2-3,minor
46576,60,52,3553,929,10.0,2-5,other
46577,55,36,3384,68,10.0,2-5,other
46578,77,110,714,1465,10.0,2-5,other
46579,75,64,421,598,10.0,2-5,other
46580,75,70,711,581,10.0,2-5,other
46581,86,83,513,777,10.0,2-5,other
46582,74,60,430,554,10.0,2-5,other
46583,86,67,471,1317,0.0,2-2,other
46584,74,65,369,560,0.0,2-2,other
46585,58,40,210,607,2.0,3-3B,other
46586,60,34,112,57,2.0,3-3B,other
46587,86,62,178,510,2.0,3-3B,other
46588,63,56,885,515,2.0,3-3B,other
46589,87,88,455,40,2.0,3-3B,other
46590,58,38,1023,81,3.0,3-8B,other
46591,87,69,395,580,3.0,3-8B,other
46592,75,53,335,97,3.0,3-8B,other
46593,53,42,146,2230,11.0,2-1,other
46594,79,59,567,966,3.0,3-11B,major
46595,55,61,550,1870,0.0,3-7B,other
46596,70,99,331,642,0.0,3-7B,other
46597,70,78,250,604,0.0,3-7B,other
46598,70,69,1369,588,0.0,3-7B,other
46599,63,72,445,2008,7.0,2-2,other
46600,51,66,497,42,7.0,2-2,other
46601,55,72,318,519,3.0,2-4,major
46602,60,82,861,1500,0.0,4-27B,major
46603,70,61,1350,3726,0.0,5-33,augmented
46604,67,53,941,69,3.0,3-9,other
46605,63,63,894,1793,3.0,3-9,other
46606,57,41,629,101,6.0,3-10,other
46607,69,34,631,64,6.0,3-10,other
46608,70,51,596,1770,6.0,3-10,other
46609,55,44,810,79,2.0,2-3,minor
46610,84,118,382,1390,2.0,2-3,minor
46611,81,92,460,506,2.0,2-3,minor
46612,77,66,293,592,2.0,2-3,minor
46613,77,67,263,813,2.0,2-3,minor
46614,77,67,447,562,2.0,2-3,minor
46615,77,67,2134,747,2.0,2-3,minor
46616,57,46,1157,68,10.0,2-4,major
46617,84,127,566,2438,10.0,3-4A,major
46618,77,70,186,1277,4.0,2-6,other
46619,77,67,177,693,4.0,2-6,other
46620,77,58,269,637,4.0,2-6,other
46621,77,66,596,740,4.0,2-6,other
46622,89,83,164,1510,2.0,2-5,other
46623,89,77,171,499,2.0,2-5,other
46624,89,58,563,852,2.0,2-5,other
46625,89,49,136,968,2.0,2-5,other
46626,62,48,2585,1003,5.0,2-5,other
46627,77,84,60,1441,5.0,2-5,other
46628,77,127,132,484,5.0,2-5,other
46629,79,93,124,440,5.0,2-5,other
46630,77,91,129,456,5.0,2-5,other
46631,75,75,236,484,5.0,2-5,other
46632,65,45,2162,514,10.0,3-6,major
46633,55,46,2649,35,10.0,3-6,major
46634,75,63,221,418,10.0,3-6,major
46635,74,99,521,1040,10.0,3-6,major
46636,70,85,1224,529,10.0,3-6,major
46637,67,53,340,1222,10.0,3-6,major
46638,60,37,1950,544,2.0,3-11A,minor
46639,43,55,1087,3793,2.0,3-11A,minor
46640,55,66,264,418,2.0,3-11A,minor
46641,56,80,329,314,2.0,3-11A,minor
46642,58,81,263,302,2.0,3-11A,minor
46643,59,68,227,282,2.0,3-11A,minor
46644,61,85,283,310,2.0,3-11A,minor
46645,62,68,218,331,2.0,3-11A,minor
46646,63,78,298,316,2.0,3-11A,minor
46647,64,81,241,330,2.0,3-11A,minor
46648,59,56,640,35,2.0,3-11A,minor
46649,53,58,730,49,2.0,3-11A,minor
46650,65,81,318,245,2.0,3-11A,minor
46651,62,48,250,345,2.0,3-11A,minor
46652,63,83,292,297,2.0,3-11A,minor
46653,67,59,213,364,2.0,3-11A,minor
46654,70,94,316,263,2.0,3-11A,minor
46655,71,109,256,324,2.0,3-11A,minor
46656,63,61,2067,397,1.0,2-6,other
46657,58,46,1635,102,1.0,2-6,other
46658,71,53,253,187,1.0,2-6,other
46659,72,67,385,326,1.0,2-6,other
46660,74,89,209,348,1.0,2-6,other
46661,75,81,178,313,1.0,2-6,other
46662,79,78,239,328,1.0,2-6,other
46663,82,86,236,332,1.0,2-6,other
46664,86,116,275,336,1.0,2-6,other
46665,84,91,279,345,1.0,2-6,other
46666,84,60,1436,2081,3.0,4-20,major
46667,74,60,853,963,3.0,4-20,major
46668,61,42,1724,1084,5.0,2-5,other
46669,82,42,84,4637,5.0,2-4,other
46670,81,96,248,539,5.0,2-4,other
46671,81,77,352,461,5.0,2-4,other
46672,72,66,396,521,1.0,2-3,minor
46673,70,53,472,448,1.0,2-3,minor
46674,69,72,314,618,1.0,2-3,minor
46675,53,38,3979,164,1.0,2-3,minor
46676,50,34,4352,60,1.0,2-3,minor
46677,67,45,483,244,9.0,2-3,minor
46678,67,60,417,796,9.0,2-3,minor
46679,67,56,402,973,9.0,2-3,minor
46680,69,74,1081,495,9.0,2-3,minor
46681,65,61,725,484,9.0,2-3,minor
46682,65,58,579,978,9.0,2-3,minor
46683,66,88,458,572,9.0,2-3,minor
46684,63,62,422,946,6.0,2-1,other
46685,62,63,1294,492,6.0,2-1,other
46686,60,64,268,1329,6.0,2-1,other
46687,58,60,160,468,6.0,2-1,other
46688,60,75,248,166,6.0,2-1,other
46689,58,56,243,206,6.0,2-1,other
46690,57,66,218,248,6.0,2-1,other
46691,43,42,94,179,6.0,2-1,other
46692,58,66,512,115,6.0,2-1,other
46693,62,85,1077,574,6.0,2-1,other
46694,67,76,813,1017,6.0,2-1,other
46695,69,60,74,875,6.0,2-1,other
46696,74,69,442,4285,3.0,5-27A,major
46697,75,73,111,665,3.0,5-27A,major
46698,63,64,466,583,3.0,5-27A,major
46699,67,58,523,28,3.0,5-27A,major
46700,72,61,1973,1376,3.0,3-4A,major
46701,84,106,357,5617,5.0,2-5,other
46702,85,74,380,406,5.0,2-5,other
46703,84,69,127,493,5.0,2-5,other
46704,82,58,156,465,5.0,2-5,other
46705,81,58,113,508,5.0,2-5,other
46706,54,57,294,991,5.0,2-5,other
46707,53,66,3798,537,5.0,2-5,other
46708,89,96,204,493,5.0,2-5,other
46709,90,74,222,253,5.0,2-5,other
46710,89,78,211,118,5.0,2-5,other
46711,88,60,115,241,5.0,2-5,other
46712,87,81,91,416,5.0,2-5,other
46713,63,49,739,54,5.0,2-5,other
46714,65,42,567,28,5.0,2-5,other
46715,84,78,99,387,5.0,2-5,other
46716,81,61,65,437,5.0,2-5,other
46717,63,32,270,33,5.0,2-5,other
46718,65,40,128,57,5.0,2-5,other
46719,78,68,84,322,5.0,2-5,other
46720,77,95,194,475,5.0,2-5,other
46721,75,78,125,461,5.0,2-5,other
46722,73,75,268,459,2.0,3-7A,minor
46723,74,78,422,407,2.0,3-7A,minor
46724,69,60,278,514,2.0,3-7A,minor
46725,72,102,879,436,2.0,3-7A,minor
46726,70,87,438,469,2.0,3-7A,minor
46727,62,40,639,45,2.0,3-7A,minor
46728,69,67,756,439,2.0,3-7A,minor
46729,65,63,383,521,2.0,3-7A,minor
46730,62,42,322,515,2.0,3-7A,minor
46731,62,60,2254,951,2.0,3-7A,minor
46732,60,48,2902,2923,3.0,2-5,other
46733,62,87,199,1538,3.0,2-5,other
46734,63,85,308,310,3.0,2-5,other
46735,62,67,97,317,3.0,2-5,other
46736,63,85,253,236,3.0,2-5,other
46737,65,71,226,316,3.0,2-5,other
46738,63,62,201,396,3.0,2-5,other
46739,65,81,283,300,3.0,2-5,other
46740,66,76,294,357,3.0,2-5,other
46741,56,51,1604,33,3.0,2-5,other
46742,62,39,137,41,3.0,2-5,other
46743,62,68,173,311,3.0,2-5,other
46744,66,81,406,300,3.0,2-5,other
46745,70,85,167,336,3.0,2-5,other
46746,74,97,188,285,3.0,2-5,other
46747,62,21,2302,148,3.0,2-5,other
46748,78,99,375,186,3.0,2-5,other
46749,82,84,167,331,8.0,2-2,other
46750,56,56,522,715,6.0,1-1,other
46751,94,99,238,320,6.0,1-1,other
46752,96,95,239,326,6.0,1-1,other
46753,66,48,194,63,6.0,1-1,other
46754,56,51,254,28,6.0,1-1,other
46755,93,85,227,245,6.0,1-1,other
46756,94,85,310,334,0.0,2-5,other
46757,91,63,213,401,0.0,2-5,other
46758,91,60,219,535,0.0,2-5,other
46759,91,60,339,557,0.0,2-5,other
46760,91,61,1780,610,0.0,2-5,other
46761,98,86,338,613,0.0,2-5,other
46762,98,74,421,619,0.0,2-5,other
46763,96,81,485,571,0.0,2-5,other
46764,96,74,1267,700,0.0,2-5,other
46765,91,69,305,607,0.0,2-5,other
46766,91,60,1535,658,0.0,2-5,other
46767,74,127,362,4091,9.0,2-2,other
46768,75,100,402,450,9.0,2-2,other
46769,77,116,218,470,9.0,2-2,other
46770,75,79,155,479,9.0,2-2,other
46771,54,46,98,32,9.0,2-2,other
46772,63,26,98,56,9.0,2-2,other
46773,74,75,128,414,9.0,2-2,other
46774,72,58,123,450,9.0,2-2,other
46775,70,77,424,491,9.0,2-2,other
46776,54,56,1683,28,9.0,2-2,other
46777,60,49,1377,28,9.0,2-2,other
46778,64,41,1365,29,9.0,2-2,other
46779,69,51,394,480,9.0,2-2,other
46780,72,94,433,445,9.0,2-2,other
46781,69,52,272,484,9.0,2-2,other
46782,70,81,296,349,9.0,2-2,other
46783,66,67,314,364,9.0,2-2,other
46784,58,45,3212,99,9.0,2-2,other
46785,62,19,974,77,9.0,2-2,other
46786,69,57,291,234,9.0,2-2,other
46787,66,65,255,356,9.0,2-2,other
46788,67,47,228,375,9.0,2-2,other
46789,62,40,287,306,9.0,2-2,other
46790,62,55,226,450,9.0,2-2,other
46791,62,56,227,481,9.0,2-2,other
46792,62,56,169,410,9.0,2-2,other
46793,62,60,182,379,9.0,2-2,other
46794,62,63,132,360,9.0,2-2,other
46795,62,47,121,354,9.0,2-2,other
46796,62,57,489,400,9.0,2-2,other
46797,54,36,1817,29,9.0,2-2,other
46798,60,37,1911,66,9.0,2-2,other
46799,62,51,1033,572,9.0,2-2,other
46800,65,69,543,1033,9.0,2-2,other
46801,66,103,313,463,9.0,2-2,other
46802,72,103,266,496,6.0,2-6,other
46803,77,127,366,461,6.0,2-6,other
46804,82,114,472,438,6.0,2-6,other
46805,80,27,77,368,7.0,4-14A,minor
46806,84,107,501,148,7.0,4-14A,minor
46807,81,72,420,493,7.0,4-14A,minor
46808,82,79,3316,496,7.0,4-14A,minor
46809,74,58,459,530,7.0,4-14A,minor
46810,74,55,1192,714,7.0,4-14A,minor
46811,62,34,2134,1290,7.0,4-14A,minor
46812,58,41,1925,34,7.0,4-14A,minor
46813,52,40,1846,46,7.0,4-14A,minor
46814,74,53,326,5061,9.0,2-6,other
46815,79,50,306,55,9.0,2-6,other
46816,75,65,571,436,9.0,2-6,other
46817,81,60,706,44,9.0,2-6,other
46818,59,56,3114,1899,5.0,2-2,other
46819,91,121,255,490,5.0,2-2,other
46820,90,52,77,86,5.0,2-2,other
46821,89,94,246,257,5.0,2-2,other
46822,87,92,297,384,5.0,2-2,other
46823,83,81,168,316,5.0,2-2,other
46824,80,83,266,333,5.0,2-2,other
46825,79,69,215,313,5.0,2-2,other
46826,77,69,121,358,5.0,2-2,other
46827,75,69,250,346,5.0,2-2,other
46828,71,56,180,324,5.0,2-2,other
46829,77,86,291,313,5.0,2-2,other
46830,74,65,231,315,5.0,2-2,other
46831,75,69,327,328,5.0,2-2,other
46832,67,53,190,375,5.0,2-2,other
46833,67,58,451,406,5.0,2-2,other
46834,74,77,382,449,5.0,2-2,other
46835,72,62,1147,472,5.0,2-2,other
46836,63,60,387,486,5.0,2-2,other
46837,63,63,447,505,10.0,2-4,major
46838,72,74,316,440,10.0,2-4,major
46839,63,59,357,422,10.0,2-4,major
46840,63,53,264,500,9.0,3-5A,other
46841,69,59,1209,498,9.0,3-5A,other
46842,66,107,410,1389,9.0,3-5A,other
46843,65,109,371,473,9.0,3-5A,other
46844,66,39,81,93,9.0,3-5A,other
46845,67,85,382,391,9.0,3-5A,other
46846,67,52,88,977,0.0,2-5,other
46847,65,59,203,100,0.0,2-5,other
46848,64,52,200,145,0.0,2-5,other
46849,65,85,908,279,0.0,2-5,other
46850,67,73,199,896,0.0,2-5,other
46851,65,63,176,220,0.0,2-5,other
46852,64,53,132,190,0.0,2-5,other
46853,65,91,563,217,0.0,2-5,other
46854,67,60,119,558,0.0,2-5,other
46855,65,53,154,169,0.0,2-5,other
46856,64,55,109,176,0.0,2-5,other
46857,55,48,2473,311,5.0,2-5,other
46858,67,78,315,285,5.0,2-5,other
46859,62,61,298,382,5.0,2-5,other
46860,62,50,848,488,5.0,2-5,other
46861,74,81,2064,417,5.0,2-5,other
46862,60,6,465,225,5.0,2-5,other
46863,67,58,1301,262,5.0,2-5,other
46864,57,44,1919,1971,2.0,3-7A,minor
46865,77,77,325,2183,4.0,2-3,minor
46866,74,56,331,91,4.0,2-3,minor
46867,77,58,287,884,4.0,2-3,minor
46868,74,62,316,32,4.0,2-3,minor
46869,53,42,1522,524,4.0,3-11A,minor
46870,71,61,928,915,2.0,2-3,minor
46871,75,61,882,51,2.0,2-3,minor
46872,64,50,394,1468,11.0,2-3,minor
46873,68,62,850,472,11.0,2-3,minor
46874,63,44,2936,887,11.0,2-3,minor
46875,62,33,2653,100,7.0,2-3,minor
46876,79,70,575,560,7.0,2-3,minor
46877,74,59,530,605,7.0,2-3,minor
46878,79,67,290,1275,3.0,2-4,major
46879,86,85,184,609,3.0,2-4,major
46880,87,107,286,293,3.0,2-4,major
46881,79,71,109,838,3.0,2-4,major
46882,79,69,89,423,3.0,2-4,major
46883,79,61,107,348,3.0,2-4,major
46884,79,60,88,368,3.0,2-4,major
46885,79,61,174,324,3.0,2-4,major
46886,79,61,113,394,3.0,2-4,major
46887,79,65,227,368,3.0,2-4,major
46888,89,71,190,410,3.0,2-4,major
46889,79,60,204,505,3.0,2-4,major
46890,81,81,324,1890,5.0,4-16A,other
46891,93,86,417,560,5.0,4-16A,other
46892,60,72,460,832,9.0,2-3,minor
46893,96,73,292,636,5.0,4-16A,other
46894,55,53,192,112,0.0,2-1,other
46895,93,75,368,571,0.0,2-1,other
46896,55,52,107,111,5.0,4-19B,other
46897,61,44,259,1960,0.0,4-14B,major
46898,55,46,275,44,0.0,4-14B,major
46899,81,55,766,2698,2.0,2-3,minor
46900,53,53,328,1012,9.0,2-3,minor
46901,60,45,509,32,9.0,2-3,minor
46902,57,28,169,83,9.0,2-3,minor
46903,58,53,2944,1274,9.0,2-3,minor
46904,60,45,2506,74,5.0,2-1,other
46905,89,123,373,403,5.0,2-1,other
46906,87,89,254,306,5.0,2-1,other
46907,84,74,187,313,5.0,2-1,other
46908,78,75,96,300,5.0,2-1,other
46909,77,71,169,316,5.0,2-1,other
46910,75,73,222,278,5.0,2-1,other
46911,74,71,197,361,5.0,2-1,other
46912,72,69,183,273,5.0,2-1,other
46913,70,62,201,317,5.0,2-1,other
46914,69,59,160,333,5.0,2-1,other
46915,72,73,258,255,5.0,2-1,other
46916,57,35,1731,111,5.0,2-1,other
46917,55,40,2908,112,10.0,2-4,major
46918,69,56,256,102,10.0,2-4,major
46919,70,67,204,354,10.0,2-4,major
46920,62,55,278,292,10.0,2-4,major
46921,62,58,262,470,10.0,2-4,major
46922,62,61,183,477,10.0,2-4,major
46923,62,49,109,1320,10.0,2-4,major
46924,53,45,1179,903,3.0,3-11B,major
46925,59,45,1131,32,3.0,3-11B,major
46926,81,64,69,4308,3.0,3-4A,major
46927,82,70,67,428,3.0,3-4A,major
46928,84,127,379,494,3.0,3-4A,major
46929,82,81,1325,539,3.0,3-4A,major
46930,74,63,120,463,3.0,3-4A,major
46931,74,71,1219,537,3.0,3-4A,major
46932,75,75,275,1522,3.0,3-4A,major
46933,75,76,2603,466,3.0,3-4A,major
46934,63,50,600,933,7.0,2-3,minor
46935,86,98,445,3631,9.0,2-2,other
46936,87,107,431,769,7.0,2-5,other
46937,81,82,246,69,7.0,2-5,other
46938,75,78,255,35,7.0,2-5,other
46939,60,31,187,65,9.0,2-6,other
46940,89,99,477,982,9.0,2-6,other
46941,86,74,426,69,9.0,2-6,other
46942,82,86,503,32,9.0,2-6,other
46943,87,77,587,660,5.0,1-1,other
46944,82,63,650,54,5.0,1-1,other
46945,58,31,368,146,6.0,3-2B,other
46946,86,66,546,1012,6.0,3-2B,other
46947,54,33,1005,109,10.0,2-4,major
46948,60,32,676,34,10.0,2-4,major
46949,84,71,711,596,10.0,2-4,major
46950,81,58,664,39,10.0,2-4,major
46951,62,6,892,1347,7.0,2-3,minor
46952,77,58,655,346,7.0,2-3,minor
46953,81,67,291,44,7.0,2-3,minor
46954,55,45,985,1361,10.0,3-4A,major
46955,74,53,183,510,10.0,3-4A,major
46956,77,58,225,46,10.0,3-4A,major
46957,55,55,769,2036,10.0,3-4A,major
46958,54,40,3191,3209,10.0,3-11A,other
46959,72,93,240,1284,10.0,3-11A,other
46960,69,70,236,303,10.0,3-11A,other
46961,70,75,193,305,10.0,3-11A,other
46962,72,81,179,306,10.0,3-11A,other
46963,73,90,366,273,10.0,3-11A,other
46964,75,83,156,317,10.0,3-11A,other
46965,58,44,695,54,10.0,3-11A,other
46966,61,35,125,39,10.0,3-11A,other
46967,77,67,190,232,10.0,3-11A,other
46968,80,94,454,2702,6.0,2-6,other
46969,82,98,292,361,6.0,2-6,other
46970,84,85,252,369,10.0,4-16A,other
46971,85,92,230,319,10.0,4-16A,other
46972,86,96,217,288,10.0,4-16A,other
46973,87,107,243,289,10.0,4-16A,other
46974,65,44,525,179,10.0,4-16A,other
46975,89,96,296,113,2.0,2-2,other
46976,85,85,221,335,2.0,2-2,other
46977,87,97,283,267,2.0,2-2,other
46978,53,53,2171,158,2.0,2-2,other
46979,85,69,193,159,2.0,2-2,other
46980,86,85,253,294,2.0,2-2,other
46981,81,65,220,320,2.0,2-2,other
46982,84,75,312,301,2.0,2-2,other
46983,62,41,1079,74,2.0,2-2,other
46984,82,72,280,273,5.0,2-5,other
46985,74,65,209,310,5.0,2-5,other
46986,74,68,160,436,5.0,2-5,other
46987,74,59,185,385,5.0,2-5,other
46988,74,61,127,375,5.0,2-5,other
46989,58,34,3228,240,5.0,2-5,other
46990,65,45,2913,70,5.0,2-5,other
46991,74,63,285,62,0.0,2-5,other
46992,75,50,210,399,0.0,2-5,other
46993,77,68,2142,305,0.0,2-5,other
46994,70,60,609,1077,0.0,2-5,other
46995,70,45,216,968,0.0,2-5,other
46996,60,12,632,1160,2.0,2-4,major
46997,86,106,377,2129,2.0,2-4,major
46998,74,49,290,159,0.0,2-2,other
46999,87,106,387,575,0.0,2-2,other
47000,82,83,321,49,0.0,2-2,other
47001,60,48,74,80,3.0,3-11A,other
47002,53,56,676,582,3.0,3-4A,other
47003,85,39,894,83,3.0,2-4,other
47004,87,72,216,3101,10.0,2-5,other
47005,75,58,216,32,10.0,2-5,other
47006,58,61,1005,429,10.0,2-5,other
47007,75,61,336,102,3.0,1-1,other
47008,60,28,768,107,3.0,1-1,other
47009,87,75,318,2229,0.0,5-27B,minor
47010,84,72,333,1441,10.0,2-4,major
47011,53,49,456,757,11.0,1-1,other
47012,62,32,349,70,11.0,1-1,other
47013,80,74,330,614,11.0,1-1,other
47014,68,59,393,30,11.0,1-1,other
47015,62,49,147,74,11.0,2-6,other
47016,53,44,829,548,7.0,3-11B,major
47017,77,66,314,1230,7.0,3-11B,major
47018,52,48,1473,588,10.0,3-6,major
47019,68,73,621,1880,10.0,3-6,major
47020,62,52,1007,65,4.0,2-4,major
47021,70,99,345,454,4.0,2-4,major
47022,72,92,174,433,4.0,2-4,major
47023,75,109,426,457,4.0,2-4,major
47024,53,52,9087,565,3.0,3-9,other
47025,67,55,834,530,3.0,3-9,other
47026,70,58,669,510,3.0,3-9,other
47027,75,69,2244,488,3.0,3-9,other
47028,66,57,633,498,3.0,3-9,other
47029,66,58,688,924,2.0,2-5,other
47030,62,37,3457,961,5.0,2-5,other
47031,67,56,221,457,5.0,2-5,other
47032,65,49,306,418,5.0,2-5,other
47033,67,51,295,484,5.0,2-5,other
47034,65,57,806,461,5.0,2-5,other
47035,77,70,475,501,5.0,2-5,other
47036,65,55,671,514,5.0,2-5,other
47037,65,52,331,912,5.0,2-5,other
47038,67,52,403,456,5.0,2-5,other
47039,60,34,1611,547,2.0,2-3,minor
47040,77,100,375,423,2.0,2-3,minor
47041,66,107,512,1959,5.0,1-1,other
47042,60,48,1047,475,5.0,1-1,other
47043,54,50,3105,56,10.0,2-5,other
47044,77,88,324,428,10.0,2-5,other
47045,65,58,271,464,10.0,2-5,other
47046,65,53,185,474,10.0,2-5,other
47047,66,52,442,1035,5.0,2-5,other
47048,65,52,176,480,5.0,2-5,other
47049,65,48,130,479,5.0,2-5,other
47050,60,44,223,500,5.0,1-1,other
47051,66,63,278,419,5.0,1-1,other
47052,65,44,264,489,5.0,1-1,other
47053,41,28,1207,1051,10.0,2-5,other
47054,29,45,334,848,10.0,2-5,other
47055,93,69,1337,900,10.0,2-5,other
47056,60,45,2927,88,2.0,2-3,minor
47057,81,60,1387,60,2.0,2-3,minor
47058,89,65,1074,1763,2.0,2-3,minor
47059,77,58,1230,53,2.0,2-3,minor
47060,53,51,896,42,2.0,2-3,minor
47061,57,33,463,8767,0.0,2-5,other
47062,76,52,322,422,0.0,2-5,other
47063,53,42,2147,771,4.0,2-5,other
47064,75,58,320,2799,2.0,2-3,minor
47065,67,7,4124,744,2.0,2-2,other
47066,72,58,713,757,2.0,2-2,other
47067,72,51,2207,1012,2.0,2-2,other
47068,86,79,308,5250,2.0,2-2,other
47069,84,67,3311,607,3.0,4-20,major
47070,72,54,3164,129,5.0,2-4,other
47071,73,65,313,6075,4.0,3-10,diminished
47072,73,25,308,475,3.0,3-11A,other
47073,69,23,188,1887,2.0,3-7A,minor
47074,62,48,2660,957,2.0,3-7A,minor
47075,89,95,722,4423,5.0,3-11B,major
47076,60,63,585,72,10.0,4-19B,other
47077,77,61,692,44,10.0,4-19B,other
47078,87,79,384,699,10.0,4-19B,other
47079,71,44,1003,6400,3.0,2-4,major
47080,67,22,2172,1879,0.0,2-3,minor
47081,62,66,562,6306,3.0,3-4A,major
47082,72,86,341,620,3.0,3-4A,major
47083,60,61,2515,704,10.0,4-16A,other
47084,66,69,451,626,10.0,4-16A,other
47085,65,62,468,2049,10.0,3-8B,other
47086,66,67,410,713,10.0,3-8B,other
47087,65,65,486,1358,10.0,3-8B,other
47088,65,43,681,2957,10.0,2-1,other
47089,53,40,690,28,10.0,2-1,other
47090,57,44,840,30,10.0,2-1,other
47091,89,89,263,3006,10.0,2-1,other
47092,86,88,213,62,10.0,2-1,other
47093,77,78,229,46,10.0,2-1,other
47094,86,65,2575,512,10.0,2-1,other
47095,91,81,1251,3920,0.0,2-5,other
47096,94,69,630,2488,0.0,2-5,other
47097,60,54,565,113,3.0,3-4B,other
47098,82,11,248,148,3.0,3-4B,other
47099,98,81,514,1679,3.0,3-4B,other
47100,60,40,258,924,8.0,3-8A,other
47101,62,49,368,1258,7.0,2-1,other
47102,60,46,281,39,7.0,2-1,other
47103,55,52,787,1274,5.0,2-5,other
47104,67,42,101,7939,2.0,3-5B,other
47105,63,41,280,859,2.0,3-5B,other
47106,62,39,125,83,9.0,2-2,other
47107,63,37,284,510,9.0,2-2,other
47108,69,54,174,1442,3.0,3-4A,major
47109,63,24,128,952,2.0,3-11B,major
47110,62,48,198,3729,6.0,2-3,minor
47111,62,34,234,537,7.0,3-7A,minor
47112,60,32,114,85,7.0,3-7A,minor
47113,58,48,227,2328,7.0,4-26,minor
47114,60,44,93,48,7.0,4-26,minor
47115,72,39,927,2304,6.0,3-2B,other
47116,52,45,2295,5954,10.0,2-4,major
47117,81,102,245,3259,10.0,2-4,major
47118,81,84,2511,472,10.0,2-4,major
47119,63,50,586,2036,7.0,1-1,other
47120,80,6,653,102,7.0,1-1,other
47121,75,61,2701,1741,7.0,1-1,other
47122,74,89,2047,3793,11.0,2-6,other
47123,67,69,2279,56,11.0,2-6,other
47124,62,72,1005,973,3.0,2-5,other
47125,72,80,1571,979,3.0,2-5,other
47126,67,62,241,1306,3.0,2-5,other
47127,51,47,956,647,2.0,3-11B,major
47128,77,106,244,2818,9.0,2-6,other
47129,65,51,2894,943,9.0,2-6,other
47130,74,76,1364,2411,2.0,3-7A,minor
47131,70,64,916,479,2.0,3-7A,minor
47132,70,59,171,2887,7.0,2-2,other
47133,74,107,313,666,7.0,2-2,other
47134,77,127,513,593,7.0,2-2,other
47135,79,102,1299,639,7.0,2-2,other
47136,53,50,2556,109,9.0,3-7A,minor
47137,81,86,379,1550,9.0,3-7A,minor
47138,79,77,1335,706,9.0,3-7A,minor
47139,68,59,1167,1499,9.0,3-7A,minor
47140,74,61,1592,56,9.0,3-7A,minor
47141,59,50,92,1861,11.0,2-3,minor
47142,74,86,287,486,11.0,2-3,minor
47143,75,112,307,468,11.0,2-3,minor
47144,77,127,372,500,11.0,2-3,minor
47145,76,53,85,67,11.0,2-3,minor
47146,79,91,242,963,0.0,4-14A,minor
47147,79,69,195,471,0.0,4-14A,minor
47148,79,78,197,486,0.0,4-14A,minor
47149,79,82,717,481,0.0,4-14A,minor
47150,72,58,195,446,0.0,4-14A,minor
47151,72,44,941,578,0.0,4-14A,minor
47152,84,75,697,909,0.0,4-14A,minor
47153,84,76,282,903,3.0,2-4,major
47154,84,81,318,513,3.0,2-4,major
47155,84,112,1720,491,3.0,2-4,major
47156,67,46,132,65,3.0,2-4,major
47157,63,47,132,31,3.0,2-4,major
47158,72,81,206,397,3.0,2-4,major
47159,72,73,658,569,3.0,2-4,major
47160,78,46,110,1021,5.0,5-30B,other
47161,81,102,284,399,5.0,5-30B,other
47162,58,38,112,607,5.0,2-4,other
47163,61,87,1250,835,5.0,4-22A,major
47164,72,75,412,865,5.0,4-22A,major
47165,81,98,874,2851,4.0,2-3,minor
47166,79,86,336,1347,9.0,4-27B,major
47167,72,70,878,573,9.0,2-2,other
47168,62,53,513,1026,5.0,2-5,other
47169,69,56,237,959,5.0,2-5,other
47170,62,72,473,2356,2.0,3-8A,major
47171,65,123,327,923,2.0,3-8A,major
47172,65,107,414,531,2.0,3-8A,major
47173,69,127,443,856,6.0,2-6,other
47174,62,56,1129,1030,9.0,3-2A,minor
47175,55,44,2257,43,9.0,3-2A,minor
47176,69,69,448,848,9.0,3-2A,minor
47177,58,52,546,646,10.0,2-4,major
47178,63,56,273,4106,1.0,3-5A,other
47179,56,44,298,44,1.0,3-5A,other
47180,91,52,482,2126,3.0,2-5,other
47181,67,89,188,4292,3.0,2-5,other
47182,67,85,145,791,3.0,3-11B,major
47183,63,81,432,513,7.0,2-3,minor
47184,55,74,316,2876,9.0,3-10,diminished
47185,57,74,473,627,0.0,4-14A,minor
47186,96,56,114,1454,0.0,3-9,other
47187,99,67,381,1422,6.0,3-10,other
47188,93,38,152,932,6.0,3-10,other
47189,99,81,398,538,6.0,3-10,other
47190,93,40,116,159,6.0,3-10,other
47191,98,61,230,542,6.0,3-10,other
47192,93,44,105,112,2.0,4-12A,major
47193,54,58,347,461,2.0,4-12A,major
47194,84,55,114,139,0.0,2-3,minor
47195,62,53,748,450,0.0,2-3,minor
47196,94,66,609,937,7.0,2-3,minor
47197,82,54,686,35,7.0,2-3,minor
47198,62,51,421,27,7.0,2-3,minor
47199,55,29,1665,65,7.0,2-3,minor
47200,58,48,952,849,2.0,2-5,other
47201,58,49,170,1362,2.0,2-5,other
47202,55,34,970,533,10.0,3-4A,major
47203,70,119,451,1288,10.0,3-4A,major
47204,57,71,1387,72,10.0,2-4,major
47205,55,58,1382,43,10.0,2-4,major
47206,70,114,392,468,10.0,2-4,major
47207,69,87,334,535,10.0,2-4,major
47208,67,58,282,468,10.0,2-4,major
47209,69,95,351,471,10.0,2-4,major
47210,61,65,446,468,10.0,2-4,major
47211,60,86,694,670,10.0,2-4,other
47212,61,89,466,539,10.0,2-4,other
47213,54,42,838,784,10.0,3-11A,other
47214,66,85,323,670,10.0,3-11A,other
47215,68,71,441,639,10.0,3-11A,other
47216,44,55,2047,656,6.0,4-27A,diminished
47217,70,67,277,643,6.0,4-27A,diminished
47218,54,54,399,723,5.0,2-5,other
47219,60,49,240,27,5.0,2-5,other
47220,74,90,248,1351,1.0,1-1,other
47221,62,78,207,33,1.0,1-1,other
47222,53,36,1918,2025,2.0,2-2,other
47223,65,32,148,883,2.0,2-2,other
47224,65,52,208,580,2.0,2-2,other
47225,60,42,144,105,2.0,1-1,other
47226,74,102,374,583,2.0,1-1,other
47227,74,85,849,573,2.0,1-1,other
47228,72,77,2933,766,7.0,2-3,minor
47229,70,85,1671,1089,7.0,2-3,minor
47230,62,48,982,31,7.0,2-3,minor
47231,54,50,1100,3918,10.0,3-11B,major
47232,63,56,840,1794,0.0,2-2,other
47233,59,58,818,90,8.0,2-3,other
47234,58,47,1053,40,8.0,2-3,other
47235,86,61,83,1927,10.0,2-5,other
47236,53,74,283,743,3.0,4-19B,other
47237,63,81,190,594,3.0,4-19B,other
47238,91,99,242,56,3.0,4-19B,other
47239,79,90,83,38,3.0,4-19B,other
47240,87,76,74,629,10.0,1-1,other
47241,87,32,612,260,10.0,1-1,other
47242,94,79,598,1040,10.0,1-1,other
47243,56,60,752,2287,3.0,2-1,other
47244,50,56,2027,98,3.0,4-24,augmented
47245,63,69,466,1884,3.0,4-24,augmented
47246,67,92,389,668,3.0,4-24,augmented
47247,70,103,390,631,3.0,4-24,augmented
47248,72,103,875,684,3.0,4-24,augmented
47249,55,60,479,94,0.0,4-26,minor
47250,67,66,842,3803,5.0,2-2,other
47251,65,65,6554,3730,9.0,1-1,other
47252,89,73,105,945,2.0,2-2,other
47253,77,52,97,683,2.0,2-2,other
47254,77,51,130,807,2.0,2-2,other
47255,77,60,88,602,2.0,2-2,other
47256,77,69,98,847,2.0,2-2,other
47257,77,52,99,654,2.0,2-2,other
47258,89,87,230,670,2.0,2-2,other
47259,77,73,522,573,2.0,2-2,other
47260,77,72,768,966,2.0,2-2,other
47261,58,66,6111,1476,5.0,1-1,other
47262,63,65,5688,526,5.0,1-1,other
47263,65,76,2672,547,5.0,1-1,other
47264,67,69,260,672,5.0,1-1,other
47265,69,75,311,347,5.0,1-1,other
47266,70,98,226,363,5.0,1-1,other
47267,72,90,244,334,5.0,1-1,other
47268,74,100,356,340,5.0,1-1,other
47269,75,100,222,347,5.0,1-1,other
47270,77,98,247,309,5.0,1-1,other
47271,79,102,374,343,5.0,1-1,other
47272,81,94,285,356,5.0,1-1,other
47273,84,90,269,612,10.0,2-5,other
47274,86,89,282,242,10.0,2-5,other
47275,87,86,72,268,10.0,2-5,other
47276,89,87,284,216,10.0,2-5,other
47277,91,83,434,226,10.0,2-5,other
47278,93,65,133,210,10.0,2-5,other
47279,94,76,246,153,10.0,2-5,other
47280,95,81,441,251,10.0,2-5,other
47281,96,116,1546,259,10.0,2-5,other
47282,93,106,652,213,2.0,3-7A,minor
47283,89,87,852,674,2.0,3-7A,minor
47284,86,57,145,1320,2.0,2-3,minor
47285,60,38,291,974,5.0,1-1,other
47286,62,44,2359,932,5.0,1-1,other
47287,60,45,2202,47,5.0,1-1,other
47288,74,53,240,835,5.0,1-1,other
47289,74,61,168,525,5.0,1-1,other
47290,53,50,322,121,5.0,1-1,other
47291,77,75,237,822,5.0,1-1,other
47292,53,14,2224,188,5.0,1-1,other
47293,77,69,235,448,5.0,1-1,other
47294,77,65,6790,647,5.0,1-1,other
47295,53,56,298,1517,10.0,2-5,other
47296,53,60,2961,533,10.0,2-5,other
47297,67,36,195,1487,10.0,2-5,other
47298,65,32,90,67,10.0,2-5,other
47299,67,33,2204,350,10.0,2-5,other
47300,53,51,177,1415,10.0,2-5,other
47301,53,41,170,590,10.0,2-5,other
47302,34,54,3831,1937,10.0,4-20,major
47303,53,38,663,838,10.0,4-20,major
47304,57,51,931,748,10.0,4-20,major
47305,61,47,8610,824,10.0,4-20,major
47306,62,73,7718,818,10.0,4-20,major
47307,66,47,7158,602,10.0,4-20,major
47308,69,45,147,394,10.0,4-20,major
47309,74,53,204,299,10.0,4-20,major
47310,78,61,125,263,10.0,4-20,major
47311,81,62,107,290,10.0,4-20,major
47312,86,71,167,283,10.0,4-20,major
47313,90,65,86,258,10.0,4-20,major
47314,93,72,122,306,10.0,4-20,major
47315,98,82,175,282,10.0,4-20,major
47316,102,70,200,279,10.0,4-20,major
47317,105,91,168,299,10.0,4-20,major
47318,105,83,149,381,10.0,4-20,major
47319,105,80,188,446,10.0,4-20,major
47320,105,62,208,520,10.0,4-20,major
47321,105,60,250,553,10.0,4-20,major
47322,105,51,314,630,10.0,4-20,major
47323,105,47,292,584,10.0,4-20,major
47324,76,53,1509,0,,,
47325,52,29,2697,78,7.0,3-6,major
47326,62,24,2850,35,7.0,3-6,major
47327,77,90,1217,1818,7.0,3-6,major
47328,79,83,997,1891,7.0,3-6,major
47329,64,68,1549,124,0.0,3-4A,major
47330,69,41,853,2015,9.0,2-2,other
47331,64,42,1527,1928,9.0,2-3,minor
47332,69,53,548,1841,4.0,2-2,other
47333,64,46,894,2122,5.0,2-4,major
47334,68,33,2059,1553,2.0,2-3,minor
47335,64,30,613,105,11.0,2-3,minor
47336,47,32,398,1081,11.0,2-3,minor
47337,53,32,187,94,11.0,2-3,minor
47338,52,36,3134,884,11.0,2-3,minor
47339,48,38,3071,49,11.0,2-3,minor
47340,76,99,535,1776,11.0,2-3,minor
47341,77,103,584,968,11.0,2-3,minor
47342,69,46,884,2928,9.0,2-5,other
47343,64,54,1186,1884,7.0,2-2,other
47344,62,46,1020,1848,7.0,2-2,other
47345,65,55,792,42,7.0,2-2,other
47346,57,24,739,1989,11.0,2-3,minor
47347,55,32,342,3632,4.0,2-2,other
47348,64,38,2696,1975,9.0,2-3,minor
47349,72,80,240,774,0.0,2-1,other
47350,74,79,254,739,0.0,2-1,other
47351,76,95,2992,507,0.0,2-1,other
47352,69,50,405,996,0.0,2-1,other
47353,69,33,338,933,0.0,2-1,other
47354,69,50,317,965,0.0,2-1,other
47355,65,44,1806,887,0.0,2-1,other
47356,64,43,869,102,11.0,3-7A,minor
47357,62,34,933,950,11.0,3-7A,minor
47358,71,17,690,1067,9.0,2-5,other
47359,62,30,788,926,9.0,2-5,other
47360,65,34,1771,855,9.0,2-5,other
47361,70,44,3400,102,4.0,3-8A,major
47362,62,24,838,996,4.0,3-8A,major
47363,68,59,1507,947,2.0,3-2B,minor
47364,62,40,574,940,2.0,3-2B,minor
47365,60,41,1679,986,0.0,3-11B,major
47366,69,50,1126,53,0.0,3-11B,major
47367,69,67,764,1844,4.0,2-2,other
47368,64,53,543,3861,0.0,2-4,other
47369,62,47,1714,1852,0.0,3-4A,other
47370,55,51,1489,60,0.0,3-4A,other
47371,56,50,1408,1869,0.0,3-4A,other
47372,62,35,887,137,7.0,2-2,other
47373,53,30,732,1795,3.0,2-5,other
47374,59,46,901,36,3.0,2-5,other
47375,58,48,961,3217,6.0,2-3,minor
47376,43,35,799,119,6.0,2-3,minor
47377,53,28,982,29,6.0,2-3,minor
47378,69,64,176,3122,0.0,2-5,other
47379,58,25,715,1045,0.0,1-1,other
47380,67,41,1479,3710,1.0,2-3,minor
47381,52,26,1933,155,5.0,2-1,other
47382,64,50,1689,1912,5.0,2-1,other
47383,57,38,1256,35,5.0,2-1,other
47384,57,55,317,3294,9.0,2-4,major
47385,62,54,335,88,9.0,2-4,major
47386,50,41,436,71,9.0,2-4,major
47387,48,31,148,577,9.0,2-4,major
47388,48,41,768,781,9.0,2-4,major
47389,41,39,360,1010,0.0,2-4,other
47390,67,53,127,2827,3.0,3-5A,other
47391,60,46,140,29,3.0,3-5A,other
47392,91,74,518,3248,2.0,2-2,other
47393,77,64,866,3365,5.0,4-5B,other
47394,75,56,1307,1929,5.0,3-5B,other
47395,87,1,711,518,5.0,3-5B,other
47396,64,44,1042,1334,5.0,3-5B,other
47397,52,48,145,4474,11.0,3-2A,minor
47398,55,44,144,46,11.0,3-2A,minor
47399,62,22,996,1074,11.0,3-2A,minor
47400,63,59,841,74,9.0,2-2,other
47401,91,74,418,35,9.0,2-2,other
47402,84,59,1081,2034,7.0,2-5,other
47403,67,42,975,39,7.0,2-5,other
47404,84,40,1095,1992,7.0,3-7B,other
47405,89,70,1263,1810,7.0,3-7B,other
47406,76,27,908,112,7.0,4-13B,other
47407,66,55,806,1757,7.0,1-1,other
47408,81,68,1211,1436,9.0,3-7B,other
47409,84,77,651,3393,9.0,3-7B,other
47410,81,57,285,1420,2.0,4-26,minor
47411,69,60,255,75,2.0,4-26,minor
47412,72,34,134,42,2.0,4-26,minor
47413,76,63,1196,1093,2.0,4-26,minor
47414,71,56,1612,97,8.0,2-3,other
47415,74,53,795,2113,7.0,4-12A,major
47416,72,44,2619,1812,7.0,4-12A,major
47417,55,66,1795,1081,7.0,3-9,other
47418,54,57,320,59,7.0,3-9,other
47419,43,38,453,1469,7.0,3-9,other
47420,43,44,2943,1266,7.0,3-9,other
47421,31,44,1157,1441,7.0,3-9,other
47422,31,47,410,1424,7.0,3-9,other
47423,89,60,480,6315,11.0,4-23,minor
47424,91,89,256,473,0.0,2-4,major
47425,84,55,237,1566,7.0,2-4,major
47426,53,24,452,421,9.0,3-11A,minor
47427,60,31,360,913,4.0,1-1,other
47428,57,34,366,26,4.0,1-1,other
47429,53,19,355,28,4.0,1-1,other
47430,53,14,781,899,9.0,2-3,minor
47431,87,42,317,495,9.0,2-3,minor
47432,88,48,368,381,9.0,2-3,minor
47433,91,41,299,599,9.0,2-3,minor
47434,59,24,1454,2249,9.0,2-3,minor
47435,79,54,504,69,5.0,2-1,other
47436,78,37,320,541,5.0,2-1,other
47437,79,36,268,429,5.0,2-1,other
47438,89,73,478,525,5.0,2-1,other
47439,88,64,478,437,5.0,2-1,other
47440,84,40,394,882,5.0,2-1,other
47441,79,29,617,964,5.0,2-1,other
47442,60,35,604,2826,5.0,2-1,other
47443,64,26,608,34,5.0,2-1,other
47444,59,32,478,52,5.0,2-1,other
47445,76,96,593,982,5.0,2-1,other
47446,77,78,507,533,5.0,2-1,other
47447,76,60,464,429,5.0,2-1,other
47448,74,53,363,559,5.0,2-1,other
47449,72,20,591,489,5.0,2-1,other
47450,69,11,896,971,5.0,2-1,other
47451,65,19,1506,985,5.0,2-1,other
47452,64,50,109,1443,5.0,2-1,other
47453,62,35,130,34,5.0,2-1,other
47454,68,73,530,343,5.0,2-1,other
47455,67,49,121,608,5.0,2-1,other
47456,69,57,484,328,5.0,2-1,other
47457,68,60,256,533,5.0,2-1,other
47458,62,24,317,141,5.0,2-1,other
47459,70,68,567,239,5.0,2-1,other
47460,62,32,279,596,5.0,2-1,other
47461,56,30,195,107,5.0,2-1,other
47462,69,44,668,141,5.0,2-1,other
47463,70,75,334,561,5.0,2-1,other
47464,60,42,343,245,5.0,2-1,other
47465,71,56,461,190,5.0,2-1,other
47466,74,80,631,527,5.0,2-1,other
47467,72,53,668,493,5.0,2-1,other
47468,69,38,726,1048,5.0,2-1,other
47469,64,47,760,838,5.0,2-1,other
47470,76,65,3134,950,5.0,2-1,other
47471,69,44,170,3024,0.0,2-4,major
47472,71,64,550,1930,2.0,4-14A,minor
47473,62,37,450,642,2.0,4-14A,minor
47474,56,37,792,4211,4.0,3-11B,major
47475,62,19,343,57,4.0,3-11B,major
47476,60,26,1239,1711,0.0,2-4,major
47477,55,20,489,32,0.0,2-4,major
47478,59,30,1074,46,0.0,2-4,major
47479,74,47,265,441,0.0,2-4,major
47480,72,45,340,184,0.0,2-4,major
47481,71,50,420,265,0.0,2-4,major
47482,72,60,467,587,0.0,2-4,major
47483,74,49,305,513,0.0,2-4,major
47484,75,50,207,458,0.0,2-4,major
47485,76,24,317,478,0.0,2-4,major
47486,79,54,291,458,0.0,2-4,major
47487,83,60,435,403,0.0,2-4,major
47488,86,68,602,539,0.0,2-4,major
47489,84,53,374,472,0.0,2-4,major
47490,80,49,818,763,0.0,2-4,major
47491,80,46,1567,1034,0.0,2-4,major
47492,65,33,2056,1970,0.0,2-4,major
47493,60,34,1898,58,7.0,1-1,other
47494,56,48,2301,46,7.0,1-1,other
47495,78,45,242,469,7.0,1-1,other
47496,79,29,378,481,7.0,1-1,other
47497,80,62,348,585,7.0,1-1,other
47498,83,80,346,1846,11.0,2-6,other
47499,84,78,339,876,11.0,2-6,other
47500,85,56,470,480,3.0,3-8B,other
47501,86,67,271,484,3.0,3-8B,other
47502,89,83,417,421,3.0,3-8B,other
47503,86,70,323,570,3.0,3-8B,other
47504,82,15,319,611,10.0,2-4,major
47505,81,36,276,435,10.0,2-4,major
47506,84,62,435,403,10.0,2-4,major
47507,81,33,248,607,10.0,2-4,major
47508,82,46,1765,355,10.0,2-4,major
47509,74,60,1420,1817,10.0,2-4,major
47510,73,33,383,1549,10.0,2-4,major
47511,72,34,596,429,10.0,2-4,major
47512,72,27,588,968,10.0,2-4,major
47513,74,96,492,5746,7.0,3-9,other
47514,72,46,280,578,7.0,3-9,other
47515,74,70,386,363,7.0,3-9,other
47516,79,64,334,559,7.0,3-9,other
47517,74,36,207,487,7.0,3-9,other
47518,64,43,3162,1783,7.0,3-9,other
47519,67,35,3387,31,7.0,3-9,other
47520,74,89,444,1037,0.0,2-4,other
47521,72,47,423,553,0.0,2-4,other
47522,74,40,288,452,0.0,2-4,other
47523,79,62,365,493,0.0,2-4,other
47524,74,53,342,435,0.0,2-4,other
47525,62,44,1440,887,7.0,3-5B,other
47526,72,41,493,581,7.0,3-5B,other
47527,74,46,378,409,7.0,3-5B,other
47528,79,74,386,568,7.0,3-5B,other
47529,74,44,458,432,7.0,3-5B,other
47530,64,36,953,6670,6.0,2-6,other
47531,59,47,813,54,2.0,2-3,minor
47532,71,56,469,876,2.0,2-3,minor
47533,67,38,2304,933,2.0,2-3,minor
47534,52,20,4807,86,2.0,2-5,other
47535,57,18,265,2601,2.0,2-5,other
47536,76,96,1287,228,2.0,2-5,other
47537,74,66,415,1477,2.0,2-5,other
47538,71,47,389,406,2.0,2-5,other
47539,68,48,366,513,2.0,2-5,other
47540,64,44,852,435,2.0,2-5,other
47541,74,71,530,967,2.0,2-5,other
47542,71,41,164,654,2.0,2-5,other
47543,72,57,2704,409,2.0,2-5,other
47544,56,60,2456,925,7.0,2-5,other
47545,62,15,369,1592,7.0,2-5,other
47546,70,64,423,288,7.0,2-5,other
47547,70,43,266,1549,7.0,2-2,other
47548,69,44,245,205,7.0,2-2,other
47549,67,31,443,199,7.0,2-2,other
47550,69,39,271,619,7.0,2-2,other
47551,61,32,357,101,7.0,2-2,other
47552,70,38,337,227,7.0,2-2,other
47553,72,57,290,519,7.0,2-2,other
47554,61,31,294,132,7.0,2-2,other
47555,73,44,369,239,7.0,2-2,other
47556,75,57,216,608,7.0,2-2,other
47557,60,32,213,130,7.0,2-2,other
47558,76,33,354,466,4.0,2-2,other
47559,79,85,470,472,4.0,2-2,other
47560,76,66,728,372,4.0,2-2,other
47561,77,80,496,947,4.0,2-2,other
47562,69,43,415,925,4.0,2-2,other
47563,65,28,942,962,4.0,2-2,other
47564,69,40,409,52,4.0,2-2,other
47565,57,24,997,103,0.0,2-5,other
47566,72,74,504,810,0.0,2-5,other
47567,64,24,953,930,0.0,2-5,other
47568,71,59,478,37,0.0,2-5,other
47569,59,31,913,26,0.0,2-5,other
47570,72,51,285,519,0.0,2-5,other
47571,74,60,377,412,0.0,2-5,other
47572,71,55,247,576,0.0,2-5,other
47573,67,29,529,360,0.0,2-5,other
47574,67,43,579,869,0.0,2-5,other
47575,67,49,535,974,0.0,2-5,other
47576,66,46,242,579,0.0,2-5,other
47577,69,49,1452,437,0.0,2-5,other
47578,57,44,1316,81,0.0,2-5,other
47579,67,54,493,1774,6.0,1-1,other
47580,55,32,574,40,6.0,1-1,other
47581,64,41,320,611,6.0,1-1,other
47582,52,28,323,63,6.0,1-1,other
47583,64,34,239,879,6.0,1-1,other
47584,52,24,133,60,6.0,1-1,other
47585,50,47,496,187,6.0,1-1,other
47586,62,49,1072,52,6.0,1-1,other
47587,76,82,303,938,6.0,1-1,other
47588,59,37,184,4017,0.0,2-4,major
47589,79,91,633,1979,0.0,2-4,major
47590,74,60,460,611,0.0,2-4,major
47591,76,52,340,537,0.0,2-4,major
47592,77,84,679,442,0.0,2-4,major
47593,64,36,138,166,0.0,2-4,major
47594,60,24,121,55,0.0,2-4,major
47595,57,24,141,38,0.0,2-4,major
47596,76,57,525,278,0.0,2-4,major
47597,72,59,701,746,0.0,2-4,major
47598,69,32,623,999,0.0,2-4,major
47599,59,41,153,3482,4.0,2-5,other
47600,67,80,544,310,4.0,2-5,other
47601,66,53,275,554,4.0,2-5,other
47602,67,44,394,390,4.0,2-5,other
47603,62,30,160,730,4.0,2-2,other
47604,67,52,506,444,4.0,2-2,other
47605,67,56,493,791,4.0,2-2,other
47606,66,50,295,550,4.0,2-2,other
47607,67,38,390,330,4.0,2-2,other
47608,74,61,327,553,4.0,2-2,other
47609,67,69,672,1348,4.0,2-2,other
47610,67,39,426,1030,4.0,2-2,other
47611,66,49,288,515,4.0,2-2,other
47612,67,31,310,378,4.0,2-2,other
47613,76,62,339,541,4.0,2-2,other
47614,60,24,147,1366,9.0,2-5,other
47615,57,36,192,1594,9.0,2-5,other
47616,67,73,343,348,9.0,2-5,other
47617,68,51,336,564,9.0,2-5,other
47618,69,39,435,425,9.0,2-5,other
47619,71,60,355,1037,10.0,3-11B,major
47620,74,59,317,486,10.0,3-11B,major
47621,72,30,112,90,10.0,3-11B,major
47622,71,52,435,307,10.0,3-11B,major
47623,72,68,455,467,10.0,3-11B,major
47624,62,30,291,29,10.0,3-11B,major
47625,73,55,349,458,10.0,3-11B,major
47626,74,58,266,499,10.0,3-11B,major
47627,76,46,147,64,10.0,3-11B,major
47628,75,46,378,355,2.0,2-3,minor
47629,76,68,313,586,2.0,2-3,minor
47630,64,45,137,77,2.0,2-3,minor
47631,78,44,109,233,2.0,2-3,minor
47632,83,72,304,563,2.0,2-3,minor
47633,64,27,135,224,2.0,2-3,minor
47634,86,89,631,205,2.0,2-3,minor
47635,83,62,262,621,2.0,2-3,minor
47636,84,82,688,416,2.0,2-3,minor
47637,57,17,297,685,2.0,2-3,minor
47638,81,67,1792,144,2.0,2-3,minor
47639,64,44,138,979,2.0,2-3,minor
47640,60,28,141,67,2.0,2-3,minor
47641,84,68,489,631,2.0,2-3,minor
47642,76,46,1481,339,2.0,2-3,minor
47643,72,56,1389,1910,9.0,3-11A,minor
47644,76,49,394,1485,9.0,3-11A,minor
47645,57,39,182,58,9.0,3-11A,minor
47646,62,24,218,28,9.0,3-11A,minor
47647,69,54,3079,317,9.0,3-11A,minor
47648,64,48,128,1549,9.0,3-11A,minor
47649,56,46,563,1379,4.0,2-2,other
47650,56,31,151,1552,4.0,2-2,other
47651,60,30,195,2055,11.0,2-2,other
47652,72,6,692,3116,7.0,2-5,other
47653,66,64,393,71,7.0,2-5,other
47654,64,39,256,1424,7.0,2-5,other
47655,60,36,243,38,7.0,2-5,other
47656,54,27,263,48,7.0,2-5,other
47657,64,39,243,1261,7.0,2-5,other
47658,65,42,208,1622,6.0,2-6,other
47659,56,35,188,68,6.0,2-6,other
47660,60,30,141,28,6.0,2-6,other
47661,65,32,1852,1156,6.0,2-6,other
47662,56,37,2205,57,6.0,2-6,other
47663,79,89,518,967,0.0,2-5,other
47664,80,50,432,614,0.0,2-5,other
47665,53,32,1152,1107,4.0,2-5,other
47666,79,85,435,1146,4.0,2-5,other
47667,80,52,352,515,4.0,2-5,other
47668,59,22,470,80,4.0,2-5,other
47669,79,51,374,170,4.0,2-5,other
47670,77,58,381,371,4.0,2-5,other
47671,59,20,275,397,4.0,2-5,other
47672,53,20,464,131,4.0,2-5,other
47673,74,40,375,262,4.0,2-5,other
47674,62,45,160,605,4.0,2-5,other
47675,58,44,237,29,4.0,2-5,other
47676,57,28,154,38,4.0,2-5,other
47677,77,85,617,391,4.0,2-5,other
47678,74,40,394,838,4.0,2-5,other
47679,65,38,413,563,4.0,2-5,other
47680,65,59,412,647,4.0,2-5,other
47681,58,23,183,409,4.0,2-5,other
47682,65,50,426,307,4.0,2-5,other
47683,65,58,1197,666,4.0,2-5,other
47684,62,29,141,944,4.0,2-5,other
47685,64,51,548,358,4.0,2-5,other
47686,67,61,1942,644,4.0,2-5,other
47687,58,38,121,880,4.0,2-5,other
47688,60,48,899,400,4.0,2-5,other
47689,57,30,1859,4691,1.0,2-6,other
47690,64,29,361,1456,5.0,2-1,other
47691,76,62,265,80,5.0,2-1,other
47692,79,81,563,390,5.0,2-1,other
47693,76,42,157,602,5.0,2-1,other
47694,77,74,439,393,5.0,2-1,other
47695,74,38,316,596,5.0,2-1,other
47696,68,56,297,963,5.0,2-1,other
47697,67,36,598,413,5.0,2-1,other
47698,63,45,160,537,5.0,2-1,other
47699,60,28,387,58,5.0,2-1,other
47700,70,78,544,41,5.0,2-1,other
47701,68,53,812,500,5.0,2-1,other
47702,67,58,368,857,5.0,2-1,other
47703,67,39,314,976,5.0,2-1,other
47704,56,33,413,35,5.0,2-1,other
47705,62,33,426,48,5.0,2-1,other
47706,62,35,1363,1421,8.0,2-1,other
47707,62,38,640,2263,4.0,3-3B,other
47708,75,56,500,444,4.0,3-3B,other
47709,76,51,640,512,4.0,3-3B,other
47710,77,80,791,544,4.0,3-3B,other
47711,55,33,1241,116,6.0,2-5,other
47712,76,38,333,857,6.0,2-5,other
47713,77,67,572,343,6.0,2-5,other
47714,78,71,838,595,6.0,2-5,other
47715,65,51,1303,38,6.0,2-5,other
47716,77,42,224,944,6.0,2-6,other
47717,60,14,346,96,6.0,2-6,other
47718,78,55,563,365,6.0,2-6,other
47719,79,76,857,573,6.0,2-6,other
47720,64,45,1024,54,6.0,2-6,other
47721,78,26,285,880,11.0,2-6,other
47722,79,44,362,368,11.0,2-6,other
47723,81,78,960,583,11.0,2-6,other
47724,62,40,343,44,11.0,2-6,other
47725,59,19,244,32,11.0,2-6,other
47726,52,24,916,80,11.0,2-6,other
47727,55,19,1175,45,11.0,2-6,other
47728,79,52,490,301,11.0,2-6,other
47729,76,49,726,730,11.0,2-6,other
47730,72,31,307,1043,11.0,2-6,other
47731,67,36,381,1856,2.0,3-5B,other
47732,67,40,1511,1417,2.0,3-5B,other
47733,84,74,445,3184,4.0,4-15B,other
47734,79,64,326,807,4.0,4-15B,other
47735,67,33,188,77,8.0,2-6,other
47736,76,31,634,534,8.0,2-6,other
47737,56,9,563,461,8.0,2-6,other
47738,72,55,461,198,8.0,2-6,other
47739,61,38,599,912,8.0,2-6,other
47740,65,36,268,39,8.0,2-6,other
47741,55,33,314,54,8.0,2-6,other
47742,84,99,381,1923,5.0,2-4,other
47743,55,38,285,595,1.0,2-3,other
47744,65,24,122,64,1.0,2-3,other
47745,84,84,404,352,1.0,2-3,other
47746,82,67,329,503,1.0,2-3,other
47747,64,22,253,137,1.0,2-3,other
47748,57,40,451,39,1.0,2-3,other
47749,60,24,176,61,1.0,2-3,other
47750,81,37,544,246,1.0,2-3,other
47751,77,60,640,810,1.0,2-3,other
47752,60,34,358,550,1.0,2-3,other
47753,74,50,541,416,1.0,2-3,other
47754,60,24,198,653,1.0,2-3,other
47755,57,20,189,118,1.0,2-3,other
47756,72,55,612,147,1.0,2-3,other
47757,71,57,2090,877,1.0,2-3,other
47758,53,22,1555,138,4.0,2-5,other
47759,72,66,374,5363,2.0,3-9,other
47760,62,25,496,390,9.0,2-5,other
47761,71,62,397,125,9.0,2-5,other
47762,67,44,304,592,9.0,2-5,other
47763,55,58,295,787,9.0,2-5,other
47764,54,47,230,84,9.0,2-5,other
47765,55,68,310,928,9.0,2-5,other
47766,43,56,739,889,9.0,2-5,other
47767,76,105,443,4424,0.0,3-9,other
47768,77,78,629,580,0.0,3-9,other
47769,76,75,403,471,0.0,3-9,other
47770,72,65,482,834,0.0,3-9,other
47771,72,68,639,1044,0.0,3-9,other
47772,60,24,198,746,0.0,3-9,other
47773,69,38,840,292,0.0,3-9,other
47774,68,79,579,3655,5.0,4-20,major
47775,70,59,340,673,5.0,4-20,major
47776,67,72,473,936,5.0,4-20,major
47777,64,29,282,100,5.0,4-20,major
47778,59,34,316,54,5.0,4-20,major
47779,65,82,403,2144,4.0,2-5,other
47780,62,56,303,597,4.0,2-5,other
47781,59,37,236,27,4.0,2-5,other
47782,63,33,382,421,4.0,2-5,other
47783,64,60,172,439,4.0,2-5,other
47784,55,34,370,337,4.0,2-5,other
47785,67,72,662,984,4.0,2-3,minor
47786,67,46,753,995,4.0,2-3,minor
47787,64,46,591,934,4.0,2-3,minor
47788,63,29,150,34,4.0,2-3,minor
47789,60,42,659,900,4.0,2-3,minor
47790,52,20,961,27,4.0,2-3,minor
47791,60,50,545,930,4.0,2-3,minor
47792,55,39,404,944,4.0,2-3,minor
47793,45,28,232,54,4.0,2-3,minor
47794,60,37,310,1596,0.0,2-4,major
47795,57,38,293,57,0.0,2-4,major
47796,53,33,192,71,0.0,2-4,major
47797,76,57,481,3185,7.0,1-1,other
47798,62,30,175,1801,5.0,2-4,major
47799,74,55,547,91,5.0,2-4,major
47800,62,57,145,665,5.0,2-4,major
47801,56,43,147,61,5.0,2-4,major
47802,62,54,262,870,4.0,2-3,minor
47803,56,49,309,30,4.0,2-3,minor
47804,64,44,141,961,8.0,2-3,other
47805,60,22,135,114,8.0,2-3,other
47806,57,24,225,34,8.0,2-3,other
47807,73,50,110,185,8.0,2-6,other
47808,64,46,390,1864,9.0,2-3,minor
47809,60,50,171,837,9.0,2-3,minor
47810,58,62,262,1099,9.0,2-3,minor
47811,62,43,141,3410,1.0,1-1,other
47812,57,24,148,94,1.0,1-1,other
47813,74,60,343,484,1.0,1-1,other
47814,86,47,299,460,1.0,1-1,other
47815,74,45,517,202,1.0,1-1,other
47816,86,30,370,470,1.0,1-1,other
47817,74,46,470,367,1.0,1-1,other
47818,86,34,386,430,1.0,1-1,other
47819,74,39,467,460,1.0,1-1,other
47820,86,37,414,376,1.0,1-1,other
47821,74,35,460,444,1.0,1-1,other
47822,86,35,450,410,1.0,1-1,other
47823,65,37,148,27,1.0,1-1,other
47824,74,31,487,430,8.0,2-6,other
47825,86,32,353,460,8.0,2-6,other
47826,74,37,403,336,8.0,2-6,other
47827,88,68,383,497,8.0,2-6,other
47828,65,45,151,61,8.0,2-6,other
47829,56,42,265,37,8.0,2-6,other
47830,62,34,151,27,8.0,2-6,other
47831,76,50,470,205,8.0,2-6,other
47832,88,43,524,477,8.0,2-6,other
47833,76,40,498,379,8.0,2-6,other
47834,64,50,266,642,8.0,2-6,other
47835,60,29,144,2077,9.0,2-5,other
47836,81,80,508,221,9.0,2-5,other
47837,80,62,457,572,9.0,2-5,other
47838,81,67,517,413,9.0,2-5,other
47839,82,71,541,833,0.0,2-4,major
47840,81,47,397,652,0.0,2-4,major
47841,60,26,191,145,0.0,2-4,major
47842,82,62,665,208,0.0,2-4,major
47843,83,66,467,907,6.0,3-8B,other
47844,82,49,339,555,6.0,3-8B,other
47845,60,36,322,94,6.0,3-8B,other
47846,83,56,732,383,6.0,3-8B,other
47847,65,39,1125,497,0.0,2-5,other
47848,60,43,494,64,0.0,2-5,other
47849,57,36,1310,30,0.0,2-5,other
47850,84,66,383,1206,0.0,2-1,other
47851,72,51,319,31,0.0,2-1,other
47852,60,34,400,500,0.0,2-1,other
47853,57,16,397,168,1.0,1-1,other
47854,82,44,975,843,5.0,2-5,other
47855,57,22,336,61,5.0,2-5,other
47856,57,22,286,1072,2.0,1-1,other
47857,84,50,450,27,2.0,1-1,other
47858,60,49,252,860,3.0,1-1,other
47859,81,57,175,843,4.0,1-1,other
47860,65,55,124,64,11.0,4-10,minor
47861,55,44,124,27,11.0,4-10,minor
47862,85,34,144,1287,10.0,2-1,other
47863,53,50,3703,571,7.0,3-11A,minor
47864,89,32,182,87,7.0,3-11A,minor
47865,77,60,537,3327,10.0,3-11B,major
47866,61,48,350,2748,10.0,3-11B,major
47867,58,39,222,84,10.0,3-11B,major
47868,61,51,389,1395,10.0,3-11B,major
47869,64,51,127,57,10.0,3-11B,major
47870,57,36,225,97,10.0,3-11B,major
47871,76,96,440,363,10.0,3-11B,major
47872,69,64,299,554,10.0,3-11B,major
47873,73,37,276,437,10.0,3-11B,major
47874,61,47,397,440,10.0,3-11B,major
47875,76,58,380,54,10.0,3-11B,major
47876,81,58,605,420,10.0,3-11B,major
47877,61,51,356,471,10.0,3-11B,major
47878,88,70,229,194,10.0,3-11B,major
47879,89,61,155,575,10.0,3-11B,major
47880,93,64,302,588,10.0,3-11B,major
47881,97,53,212,615,10.0,3-11B,major
47882,100,72,339,450,10.0,3-11B,major
47883,100,76,330,675,10.0,3-11B,major
47884,100,69,601,572,10.0,3-11B,major
47885,97,48,407,715,10.0,3-11B,major
47886,64,67,245,2423,10.0,3-11B,major
47887,99,71,407,1475,0.0,1-1,other
47888,101,67,453,1062,8.0,2-6,other
47889,62,26,575,366,8.0,2-6,other
47890,101,70,494,373,8.0,2-6,other
47891,67,45,272,652,8.0,2-6,other
47892,56,34,305,54,8.0,2-6,other
47893,62,46,470,47,8.0,2-6,other
47894,101,78,521,154,8.0,2-6,other
47895,100,62,387,534,8.0,2-6,other
47896,98,35,406,478,8.0,2-6,other
47897,100,71,1848,524,8.0,2-6,other
47898,67,60,1613,30,8.0,2-6,other
47899,55,49,1132,2302,1.0,2-2,other
47900,88,56,417,6679,9.0,2-5,other
47901,88,83,491,1001,9.0,2-5,other
47902,57,66,601,1906,3.0,4-19B,augmented
47903,93,33,141,40,3.0,4-19B,augmented
47904,91,60,535,890,3.0,4-19B,augmented
47905,67,53,447,37,3.0,4-19B,augmented
47906,62,38,443,58,3.0,3-4A,major
47907,57,37,326,47,3.0,3-4A,major
47908,91,68,306,927,3.0,3-4A,major
47909,67,35,450,2806,7.0,3-5B,other
47910,72,48,396,47,7.0,3-5B,other
47911,65,72,487,2896,1.0,3-10,diminished
47912,55,33,134,47,1.0,3-10,diminished
47913,76,15,182,218,1.0,3-10,diminished
47914,69,84,846,2598,0.0,3-11B,major
47915,75,39,115,53,0.0,3-11B,major
47916,69,72,652,1391,2.0,3-7A,minor
47917,57,62,332,1331,5.0,2-4,major
47918,43,51,985,2943,3.0,2-5,other
47919,63,47,918,1475,11.0,2-6,other
47920,59,37,635,51,11.0,2-6,other
47921,43,44,2050,33,11.0,2-6,other
47922,53,26,296,104,11.0,2-6,other
47923,50,28,242,894,11.0,2-6,other
47924,63,68,1965,2245,5.0,3-11B,other
47925,65,66,1561,1858,3.0,3-11B,major
47926,73,15,101,1359,3.0,3-11B,major
47927,72,47,1618,735,3.0,3-11B,major
47928,88,48,1111,9478,3.0,3-9,other
47929,84,59,1074,63,3.0,3-9,other
47930,74,28,982,167,3.0,3-9,other
47931,79,9,746,156,3.0,3-9,other
47932,89,56,959,1590,3.0,3-9,other
47933,80,35,876,129,1.0,2-2,other
47934,91,51,499,1748,1.0,2-2,other
47935,87,42,662,35,1.0,2-2,other
47936,77,31,723,29,1.0,2-2,other
47937,82,33,671,40,1.0,2-2,other
47938,84,46,5515,1803,1.0,2-2,other
47939,76,32,5912,32,1.0,2-2,other
47940,70,39,3902,66,1.0,2-2,other
47941,79,30,5572,75,1.0,2-2,other
47942,67,73,1198,9472,0.0,3-6,major
47943,64,29,106,52,0.0,3-6,major
47944,77,58,985,1901,0.0,3-6,major
47945,88,41,861,13475,3.0,4-22A,major
47946,89,35,656,1835,0.0,3-9,other
47947,85,38,849,72,3.0,2-5,other
47948,91,41,1147,1952,3.0,2-5,other
47949,87,34,1129,98,10.0,2-5,other
47950,101,30,161,5665,0.0,1-1,other
47951,43,32,754,0,4.0,2-5,other
47952,36,36,703,36,4.0,2-5,other
47953,67,55,1865,2680,2.0,2-5,other
47954,72,90,1039,3052,4.0,2-5,other
47955,72,74,777,1377,4.0,2-5,other
47956,72,75,391,1037,5.0,4-24,augmented
47957,60,30,2121,1132,6.0,2-2,other
47958,50,24,3413,1523,6.0,2-2,other
47959,64,35,1119,1419,9.0,2-3,minor
47960,76,83,1335,1219,9.0,2-3,minor
47961,67,39,72,1702,5.0,3-4B,other
47962,74,58,707,1426,5.0,3-4B,other
47963,62,56,271,31,5.0,3-4B,other
47964,53,32,1569,2144,9.0,2-2,other
47965,61,48,2186,2184,9.0,2-2,other
47966,62,63,1016,2215,11.0,2-6,other
47967,59,38,989,1715,2.0,2-2,other
47968,64,66,245,913,2.0,2-2,other
47969,43,40,845,84,2.0,2-2,other
47970,60,51,1694,1740,4.0,1-1,other
47971,67,46,1181,959,4.0,1-1,other
47972,64,30,2093,53,4.0,1-1,other
47973,60,33,1290,1823,4.0,1-1,other
47974,77,91,507,872,4.0,1-1,other
47975,77,77,414,665,4.0,1-1,other
47976,79,84,1913,647,4.0,1-1,other
47977,45,46,727,29,4.0,1-1,other
47978,52,42,90,710,4.0,1-1,other
47979,72,57,634,84,4.0,1-1,other
47980,72,51,1385,917,4.0,1-1,other
47981,59,31,1143,65,0.0,2-4,major
47982,77,62,650,953,0.0,2-4,major
47983,65,1,1039,1480,0.0,3-9,other
47984,57,33,2095,729,0.0,3-9,other
47985,60,24,940,1052,7.0,2-2,other
47986,64,52,689,952,7.0,2-2,other
47987,40,38,2623,4292,0.0,2-1,other
47988,52,12,623,148,0.0,2-1,other
47989,50,26,1157,1554,8.0,2-2,other
47990,57,44,927,1983,8.0,2-2,other
47991,59,50,958,26,8.0,2-2,other
47992,45,35,4184,44,8.0,2-2,other
47993,59,72,222,1066,0.0,2-4,major
47994,72,75,668,2978,0.0,2-4,major
47995,64,70,674,74,0.0,2-4,major
47996,57,28,640,95,0.0,2-4,major
47997,74,77,420,869,0.0,2-4,major
47998,76,73,1016,838,5.0,2-5,other
47999,54,42,536,59,5.0,2-5,other
48000,60,36,155,572,5.0,2-5,other
48001,64,28,2131,647,5.0,2-5,other
48002,42,43,329,515,5.0,2-5,other
48003,60,32,405,919,5.0,2-5,other
48004,69,56,496,809,5.0,2-5,other
48005,74,75,2109,604,5.0,2-5,other
48006,47,46,82,416,5.0,2-5,other
48007,62,24,1569,836,5.0,2-5,other
48008,65,38,730,689,5.0,2-5,other
48009,74,58,316,754,5.0,2-5,other
48010,77,72,259,418,5.0,2-5,other
48011,76,71,224,422,5.0,2-5,other
48012,52,43,116,368,5.0,2-5,other
48013,74,42,120,44,5.0,2-5,other
48014,72,40,300,437,5.0,2-5,other
48015,71,42,276,385,5.0,2-5,other
48016,65,25,89,255,5.0,2-5,other
48017,69,39,279,207,5.0,2-5,other
48018,74,58,389,471,5.0,2-5,other
48019,68,46,364,477,5.0,2-5,other
48020,62,26,146,47,5.0,2-5,other
48021,56,28,236,57,5.0,2-5,other
48022,65,46,239,344,5.0,2-5,other
48023,46,39,568,454,5.0,2-5,other
48024,64,36,367,32,5.0,2-5,other
48025,62,41,323,460,5.0,2-5,other
48026,60,50,1035,448,5.0,2-5,other
48027,45,36,3069,34,5.0,2-5,other
48028,52,24,3077,587,5.0,2-5,other
48029,59,45,394,446,5.0,2-5,other
48030,60,42,236,494,5.0,2-5,other
48031,59,35,317,1195,0.0,2-5,other
48032,60,47,294,545,0.0,2-5,other
48033,45,33,569,42,0.0,2-5,other
48034,62,87,868,539,0.0,2-5,other
48035,60,61,338,1882,2.0,1-1,other
48036,50,34,2093,1248,6.0,2-3,minor
48037,38,35,1027,1233,6.0,2-3,minor
48038,79,82,5502,4564,8.0,3-2B,other
48039,60,34,2097,3044,5.0,3-9,other
48040,72,53,431,1869,7.0,2-2,other
48041,71,51,2438,764,7.0,2-2,other
48042,43,36,159,1601,2.0,1-1,other
48043,75,49,787,45,2.0,1-1,other
48044,64,28,503,874,2.0,1-1,other
48045,53,15,243,127,4.0,2-5,other
48046,67,41,361,756,4.0,2-5,other
48047,57,25,367,940,7.0,1-1,other
48048,50,49,1177,1085,7.0,1-1,other
48049,81,62,773,26,7.0,1-1,other
48050,69,30,648,78,7.0,1-1,other
48051,82,67,488,1011,7.0,1-1,other
48052,70,29,461,57,7.0,1-1,other
48053,72,47,1096,1143,0.0,2-5,other
48054,52,44,667,70,0.0,2-5,other
48055,84,53,680,46,0.0,2-5,other
48056,81,68,1833,1278,0.0,2-5,other
48057,64,47,986,91,9.0,3-11B,major
48058,58,52,4294,46,9.0,3-11B,major
48059,79,68,551,3054,9.0,2-5,other
48060,76,65,1016,1303,9.0,2-5,other
48061,61,49,458,539,9.0,2-5,other
48062,64,34,728,543,9.0,2-5,other
48063,69,43,270,490,9.0,2-5,other
48064,73,42,328,447,9.0,2-5,other
48065,74,65,1191,448,9.0,2-5,other
48066,62,38,597,353,9.0,2-5,other
48067,57,33,507,659,9.0,2-5,other
48068,58,45,300,1121,9.0,2-5,other
48069,69,61,285,359,9.0,2-5,other
48070,72,75,357,380,9.0,2-5,other
48071,57,26,141,66,9.0,2-5,other
48072,69,66,511,342,9.0,2-5,other
48073,64,39,281,418,9.0,2-5,other
48074,48,27,699,59,9.0,2-5,other
48075,60,26,272,349,9.0,2-5,other
48076,67,65,331,359,9.0,2-5,other
48077,41,25,5546,112,9.0,2-5,other
48078,64,36,220,327,9.0,2-5,other
48079,60,25,323,782,5.0,2-5,other
48080,62,60,338,367,5.0,2-5,other
48081,57,22,213,471,5.0,2-5,other
48082,60,32,381,405,5.0,2-5,other
48083,58,47,378,463,5.0,2-5,other
48084,57,32,433,528,5.0,2-5,other
48085,55,34,2121,532,5.0,2-5,other
48086,54,36,425,2114,5.0,2-5,other
48087,53,50,435,423,5.0,2-5,other
48088,60,43,499,498,5.0,2-5,other
48089,41,37,737,30,5.0,2-5,other
48090,48,36,190,608,5.0,2-5,other
48091,63,59,344,1369,0.0,1-1,other
48092,63,50,794,787,0.0,1-1,other
48093,60,33,703,788,0.0,1-1,other
48094,60,29,97,1132,0.0,2-3,minor
48095,72,64,1954,625,0.0,2-3,minor
48096,46,52,583,704,0.0,2-3,minor
48097,56,56,159,523,0.0,2-3,minor
48098,62,59,982,583,0.0,2-3,minor
48099,62,36,1250,1426,7.0,1-1,other
48100,62,24,196,1603,8.0,2-1,other
48101,52,46,89,1377,8.0,2-1,other
48102,56,31,1364,805,0.0,2-1,other
48103,67,22,1151,31,0.0,2-1,other
48104,62,26,1253,40,0.0,2-1,other
48105,72,60,367,575,0.0,2-1,other
48106,76,80,346,484,0.0,2-1,other
48107,77,74,1724,580,0.0,2-5,other
48108,61,59,2002,533,0.0,2-5,other
48109,60,30,1812,2916,0.0,2-4,major
48110,91,49,3843,2495,6.0,2-6,other
48111,31,33,828,1191,7.0,3-8A,major
48112,31,47,1090,1265,7.0,3-8A,major
48113,31,44,570,1487,7.0,3-8A,major
48114,76,72,523,2881,7.0,3-8A,major
48115,48,45,97,422,7.0,3-8A,major
48116,64,42,404,481,7.0,3-8A,major
48117,50,41,359,590,7.0,3-8A,major
48118,77,61,606,644,7.0,3-8A,major
48119,52,46,91,536,7.0,3-8A,major
48120,65,48,452,657,7.0,3-8A,major
48121,79,52,418,680,7.0,3-8A,major
48122,59,35,253,1295,7.0,3-8A,major
48123,67,40,1313,638,7.0,3-8A,major
48124,62,36,874,682,7.0,3-8A,major
48125,72,71,595,906,7.0,3-8A,major
48126,73,25,190,1654,7.0,3-8A,major
48127,74,66,292,126,7.0,3-8A,major
48128,75,82,253,212,7.0,3-8A,major
48129,44,36,306,1907,4.0,2-2,other
48130,62,52,380,2255,7.0,3-2B,other
48131,79,68,1228,891,7.0,3-2B,other
48132,67,60,985,55,6.0,3-5B,other
48133,45,55,97,915,6.0,3-5B,other
48134,81,60,2631,1189,6.0,3-5B,other
48135,73,21,2023,110,4.0,2-6,other
48136,55,32,1954,48,4.0,2-6,other
48137,68,70,161,3470,6.0,2-1,other
48138,66,37,81,207,9.0,2-2,other
48139,60,35,176,4600,5.0,4-20,major
48140,65,46,141,1688,9.0,3-11A,minor
48141,64,53,281,5892,3.0,2-1,other
48142,84,36,76,7781,2.0,1-1,other
48143,36,38,2203,44,2.0,1-1,other
48144,43,27,146,862,2.0,1-1,other
48145,62,35,2693,1132,0.0,1-1,other
48146,43,33,1272,63,10.0,2-5,other
48147,35,55,331,2047,10.0,2-5,other
48148,36,35,778,462,10.0,2-5,other
48149,36,34,181,1027,10.0,2-5,other
48150,30,35,259,750,0.0,3-11B,major
48151,35,30,222,2401,7.0,4-26,minor
48152,58,34,875,2517,7.0,3-7B,other
48153,53,53,72,723,7.0,3-7B,other
48154,31,46,82,38,7.0,3-7B,other
48155,30,49,213,2057,0.0,4-20,major
48156,31,80,2526,437,10.0,3-11B,major
48157,34,59,269,2553,10.0,3-11B,major
48158,35,63,254,353,10.0,3-11B,major
48159,36,96,2114,334,10.0,3-11B,major
48160,64,103,1646,1104,10.0,3-11B,major
48161,32,31,253,763,10.0,3-11B,major
48162,34,50,2042,323,10.0,3-11B,major
48163,32,40,313,1799,2.0,2-2,other
48164,25,25,188,2222,9.0,5-27B,minor
48165,60,29,1062,214,9.0,5-27B,minor
48166,52,45,858,31,9.0,5-27B,minor
48167,28,43,1068,83,9.0,2-2,other
48168,27,44,1062,1005,9.0,2-2,other
48169,60,28,4509,1132,4.0,3-6,major
48170,26,57,1876,42,4.0,3-6,major
48171,57,36,4199,171,4.0,3-6,major
48172,33,44,129,1578,4.0,3-6,major
48173,38,65,405,340,4.0,3-6,major
48174,32,76,1474,754,4.0,3-6,major
48175,31,67,1094,1468,4.0,3-6,major
48176,38,38,209,1022,4.0,3-6,major
48177,53,89,1937,97,9.0,3-11A,minor
48178,42,48,316,1878,11.0,2-2,other
48179,39,21,92,146,11.0,2-2,other
48180,44,42,165,943,8.0,2-3,minor
48181,48,65,1899,260,8.0,2-3,minor
48182,55,67,431,1069,0.0,3-4A,major
48183,60,32,74,828,8.0,2-3,minor
48184,46,31,239,57,8.0,2-3,minor
48185,62,48,596,247,5.0,4-29B,major
48186,60,32,672,1041,4.0,4-26,minor
48187,42,30,262,775,4.0,4-26,minor
48188,45,45,1596,256,4.0,4-26,minor
48189,60,44,235,705,4.0,4-26,minor
48190,37,37,207,968,9.0,2-2,other
48191,39,34,192,80,9.0,2-2,other
48192,40,36,978,198,2.0,4-26,minor
48193,37,38,252,870,2.0,4-26,minor
48194,39,43,917,300,2.0,4-26,minor
48195,37,34,169,767,2.0,4-26,minor
48196,38,48,2026,228,2.0,4-26,minor
48197,62,46,3841,1103,6.0,3-8A,other
48198,57,60,2245,207,6.0,3-8A,other
48199,33,40,646,849,6.0,3-8A,other
48200,32,77,1664,728,6.0,3-8A,other
48201,33,57,209,1781,6.0,3-8A,other
48202,34,60,129,306,6.0,3-8A,other
48203,35,79,987,346,6.0,3-8A,other
48204,35,18,699,1069,2.0,2-5,other
48205,56,73,1255,663,2.0,2-5,other
48206,28,51,562,59,2.0,2-5,other
48207,28,48,340,750,2.0,2-5,other
48208,34,46,209,85,2.0,2-5,other
48209,33,44,1732,572,2.0,2-5,other
48210,64,50,3031,963,2.0,2-5,other
48211,32,51,180,775,0.0,2-5,other
48212,40,68,1861,304,0.0,2-5,other
48213,39,30,302,1789,0.0,2-5,other
48214,42,57,2790,239,0.0,2-5,other
48215,57,40,547,2099,9.0,2-5,other
48216,52,47,515,36,9.0,2-5,other
48217,45,35,106,876,9.0,2-5,other
48218,46,58,968,150,9.0,2-5,other
48219,44,36,224,727,9.0,2-5,other
48220,41,61,1751,1265,11.0,3-10,diminished
48221,38,46,209,1776,3.0,4-19B,augmented
48222,39,55,671,332,3.0,4-19B,augmented
48223,62,68,201,701,3.0,4-19B,augmented
48224,28,70,2077,988,4.0,3-5A,other
48225,40,83,1191,1105,4.0,3-5A,other
48226,56,62,122,2009,8.0,4-28,diminished
48227,45,55,1918,1334,9.0,4-26,minor
48228,46,29,181,2590,0.0,3-9,other
48229,48,65,959,276,0.0,3-11B,major
48230,39,49,929,1183,0.0,3-11B,major
48231,45,28,157,798,0.0,3-11B,major
48232,38,46,1933,268,6.0,2-6,other
48233,62,27,1864,41,6.0,2-6,other
48234,42,36,414,1666,6.0,2-6,other
48235,44,43,3048,420,0.0,4-16A,other
48236,56,76,1041,1675,0.0,4-16A,other
48237,50,35,289,995,0.0,4-16A,other
48238,61,70,1590,340,0.0,4-16A,other
48239,59,65,1379,36,0.0,4-16A,other
48240,43,60,1240,669,0.0,4-16A,other
48241,53,54,69,1029,2.0,2-2,other
48242,41,80,1330,976,2.0,2-2,other
48243,39,33,346,1056,2.0,2-2,other
48244,42,59,1020,297,2.0,2-2,other
48245,39,40,220,805,0.0,2-4,major
48246,43,49,908,258,0.0,2-4,major
48247,62,53,596,31,0.0,2-4,major
48248,67,74,145,683,0.0,2-4,major
48249,38,41,982,192,0.0,2-4,major
48250,34,43,963,1043,0.0,2-4,major
48251,34,35,213,1810,4.0,2-6,other
48252,67,57,317,281,0.0,2-4,major
48253,69,48,260,40,0.0,2-4,major
48254,61,63,1717,963,9.0,4-29A,minor
48255,36,40,663,1139,9.0,4-29A,minor
48256,58,50,460,893,9.0,4-29A,minor
48257,39,42,213,771,1.0,3-10,diminished
48258,41,47,826,264,1.0,3-10,diminished
48259,60,17,203,792,9.0,2-2,other
48260,36,38,990,114,9.0,2-2,other
48261,60,22,262,452,9.0,3-7B,other
48262,34,30,124,264,9.0,3-7B,other
48263,57,53,312,222,0.0,3-11B,major
48264,41,41,834,133,0.0,3-11B,major
48265,39,35,317,851,9.0,2-3,minor
48266,43,42,690,298,9.0,2-3,minor
48267,39,30,142,724,9.0,2-3,minor
48268,55,24,416,414,9.0,2-3,minor
48269,29,41,973,748,9.0,4-26,minor
48270,60,34,492,272,9.0,3-7B,other
48271,36,36,262,560,9.0,3-7B,other
48272,41,51,750,1229,9.0,5-32A,other
48273,60,33,710,76,9.0,5-32A,other
48274,52,45,504,30,9.0,5-32A,other
48275,40,47,209,688,9.0,5-32A,other
48276,60,40,469,207,9.0,5-32A,other
48277,51,51,479,40,9.0,5-32A,other
48278,55,56,207,699,0.0,3-11B,other
48279,29,52,1054,169,0.0,3-11B,other
48280,55,60,513,201,0.0,2-3,minor
48281,36,36,171,667,0.0,2-3,minor
48282,55,50,1503,332,0.0,4-26,other
48283,45,27,123,785,0.0,4-26,other
48284,48,68,851,205,0.0,4-26,other
48285,46,49,2607,925,0.0,4-26,other
48286,56,67,541,1031,2.0,4-27A,minor
48287,71,27,406,97,2.0,4-27A,minor
48288,56,62,1096,651,2.0,4-27A,minor
48289,72,56,541,390,2.0,4-27A,minor
48290,68,68,264,619,8.0,3-10,other
48291,52,59,1045,1014,7.0,3-11B,major
48292,40,62,70,870,7.0,3-11B,major
48293,56,80,429,1039,0.0,3-9,other
48294,84,64,509,3210,5.0,2-1,other
48295,60,49,568,87,5.0,3-5B,other
48296,81,34,376,30,5.0,3-5B,other
48297,59,30,180,1032,5.0,2-1,other
48298,79,31,673,197,5.0,2-1,other
48299,54,86,347,671,5.0,2-1,other
48300,55,71,543,406,5.0,2-1,other
48301,43,55,875,648,5.0,2-1,other
48302,43,61,1316,1354,4.0,4-26,minor
48303,41,58,2621,2836,9.0,2-3,minor
48304,48,37,1307,182,9.0,2-3,minor
48305,67,88,1390,114,9.0,2-3,minor
48306,57,60,1168,57,3.0,2-1,other
48307,41,68,676,2604,3.0,2-4,major
48308,40,77,228,1297,3.0,2-4,major
48309,72,118,458,2222,7.0,3-5B,other
48310,76,71,169,682,7.0,3-5B,other
48311,79,88,323,323,7.0,3-5B,other
48312,61,64,116,3580,4.0,1-1,other
48313,34,56,134,1026,4.0,1-1,other
48314,41,37,944,1316,2.0,3-7A,minor
48315,44,36,792,2015,9.0,2-3,minor
48316,42,28,129,615,9.0,2-3,minor
48317,57,60,267,90,9.0,2-3,minor
48318,43,36,1308,146,9.0,2-3,minor
48319,65,85,412,448,9.0,2-3,minor
48320,64,78,1567,625,9.0,2-3,minor
48321,31,38,1778,87,9.0,2-3,minor
48322,43,40,528,1033,9.0,2-3,minor
48323,34,39,173,650,9.0,2-3,minor
48324,55,45,351,97,9.0,2-3,minor
48325,35,41,741,245,9.0,2-3,minor
48326,57,42,493,82,9.0,2-3,minor
48327,60,52,209,643,9.0,2-3,minor
48328,36,45,853,69,9.0,2-3,minor
48329,60,28,530,1242,0.0,3-11B,major
48330,62,48,2817,670,0.0,3-11B,major
48331,31,33,1567,114,10.0,2-5,other
48332,35,51,1054,1738,10.0,2-5,other
48333,36,62,978,1073,10.0,2-5,other
48334,30,38,294,842,0.0,3-11B,major
48335,53,30,404,452,7.0,2-5,other
48336,58,33,410,30,7.0,2-5,other
48337,58,56,446,963,7.0,4-26,minor
48338,53,77,190,676,7.0,3-11A,minor
48339,36,81,585,416,7.0,3-11A,minor
48340,55,78,361,55,0.0,2-4,major
48341,64,54,443,864,0.0,2-4,major
48342,62,36,574,661,0.0,2-5,other
48343,31,43,338,57,10.0,2-5,other
48344,53,33,165,975,7.0,3-11A,minor
48345,60,39,1179,486,0.0,3-11B,major
48346,55,46,169,1605,0.0,2-4,major
48347,36,47,217,47,0.0,2-4,major
48348,62,52,403,851,0.0,2-4,major
48349,52,32,355,3838,7.0,3-9,other
48350,64,50,198,2263,7.0,2-5,other
48351,59,37,1037,28,7.0,2-5,other
48352,64,48,1130,2283,7.0,3-9,other
48353,79,45,145,1252,4.0,2-3,minor
48354,71,42,1397,1239,7.0,2-5,other
48355,86,48,764,1617,7.0,3-11B,major
48356,100,34,406,3619,7.0,3-11B,major
48357,52,31,413,32,7.0,3-11B,major
48358,101,49,348,571,7.0,3-11B,major
48359,53,32,494,41,7.0,3-11B,major
48360,55,47,4790,600,7.0,3-11B,major
48361,76,66,783,0,,,
48362,77,71,925,780,,,
48363,79,55,2366,1057,,,
48364,67,34,1432,38,,,
48365,55,36,3208,2212,4.0,2-2,other
48366,91,94,4003,1742,4.0,2-2,other
48367,89,62,1003,3865,4.0,2-2,other
48368,88,63,1071,974,4.0,2-2,other
48369,48,33,4966,2313,2.0,2-3,minor
48370,71,42,2509,1212,2.0,2-3,minor
48371,67,29,2328,132,2.0,2-3,minor
48372,57,32,3564,141,2.0,2-3,minor
48373,62,5,1584,234,2.0,2-3,minor
48374,62,24,1011,1950,2.0,2-3,minor
48375,64,74,453,1181,2.0,2-3,minor
48376,65,92,639,735,2.0,2-3,minor
48377,63,45,1026,4748,11.0,2-5,other
48378,57,33,1505,1907,6.0,3-10,other
48379,69,47,891,1615,5.0,2-5,other
48380,61,32,1319,26,5.0,2-5,other
48381,62,41,1056,3546,2.0,3-11A,minor
48382,59,31,1213,2522,8.0,2-3,other
48383,67,67,1146,5469,8.0,2-3,other
48384,36,57,2768,1653,8.0,2-3,other
48385,43,24,2837,92,8.0,2-3,other
48386,56,27,1462,207,8.0,2-3,other
48387,59,57,1287,161,8.0,2-3,other
48388,52,29,2562,101,8.0,2-3,other
48389,64,39,1209,95,8.0,2-3,other
48390,67,57,1284,55,8.0,2-3,other
48391,76,54,1308,1988,8.0,2-3,other
48392,71,53,783,1282,8.0,2-3,other
48393,56,32,2118,75,4.0,2-4,major
48394,62,29,2201,1031,4.0,2-4,major
48395,79,54,596,721,4.0,2-4,major
48396,88,83,469,662,4.0,2-4,major
48397,62,36,3540,1742,8.0,2-1,other
48398,89,66,1766,45,8.0,2-1,other
48399,83,30,2233,1178,8.0,2-1,other
48400,67,35,2118,26,8.0,2-1,other
48401,88,71,1759,1280,8.0,2-1,other
48402,86,70,734,973,8.0,2-1,other
48403,83,55,870,766,8.0,2-1,other
48404,45,44,438,792,8.0,2-1,other
48405,84,75,1492,75,8.0,2-1,other
48406,81,36,1172,1207,8.0,2-1,other
48407,64,29,1506,43,8.0,2-1,other
48408,60,35,1350,113,8.0,2-1,other
48409,59,7,1157,187,8.0,2-1,other
48410,83,69,1094,745,8.0,2-1,other
48411,84,80,703,945,8.0,2-1,other
48412,86,67,932,3053,2.0,1-1,other
48413,67,36,1056,34,2.0,1-1,other
48414,88,62,3490,1325,2.0,1-1,other
48415,83,40,9189,2292,2.0,1-1,other
48416,33,24,562,144,2.0,1-1,other
48417,59,24,568,1972,0.0,2-4,major
48418,64,39,584,1375,0.0,2-4,major
48419,21,75,1076,3594,0.0,2-4,major
48420,96,66,2083,3830,5.0,4-5B,other
48421,100,83,1000,2250,5.0,4-5B,other
48422,99,86,880,1288,5.0,4-5B,other
48423,98,82,571,1027,5.0,4-5B,other
48424,97,81,475,704,5.0,4-5B,other
48425,96,71,457,645,5.0,4-5B,other
48426,93,81,649,693,5.0,4-5B,other
48427,50,33,1306,658,5.0,4-5B,other
48428,89,53,627,63,5.0,4-5B,other
48429,88,64,493,684,5.0,2-4,major
48430,91,79,673,631,5.0,2-4,major
48431,88,72,566,632,5.0,2-4,major
48432,89,74,722,669,5.0,2-4,major
48433,84,61,706,751,5.0,2-4,major
48434,88,74,1003,804,5.0,2-4,major
48435,87,71,697,804,5.0,2-4,major
48436,86,61,2241,872,5.0,2-4,major
48437,53,25,6918,101,4.0,2-5,other
48438,81,45,1061,1177,4.0,2-5,other
48439,84,68,1035,1041,4.0,2-5,other
48440,81,58,864,788,4.0,2-5,other
48441,83,66,844,962,4.0,2-5,other
48442,86,87,502,700,4.0,2-5,other
48443,89,96,1555,888,4.0,2-5,other
48444,88,70,725,1371,4.0,2-5,other
48445,87,71,456,723,4.0,2-5,other
48446,88,60,1654,680,4.0,2-5,other
48447,83,57,729,1031,4.0,2-3,minor
48448,79,53,318,764,4.0,2-3,minor
48449,76,49,819,738,4.0,2-3,minor
48450,71,42,990,900,4.0,2-3,minor
48451,69,46,939,1050,4.0,2-3,minor
48452,67,37,738,1031,4.0,2-3,minor
48453,65,37,882,870,4.0,2-3,minor
48454,64,53,760,3271,0.0,2-4,major
48455,55,36,5250,58,0.0,2-4,major
48456,66,70,584,680,0.0,2-4,major
48457,68,63,455,452,0.0,2-4,major
48458,70,64,205,365,0.0,2-4,major
48459,72,64,234,360,0.0,2-4,major
48460,74,66,227,335,0.0,2-4,major
48461,76,79,317,391,0.0,2-4,major
48462,78,69,472,355,0.0,2-4,major
48463,80,55,311,380,0.0,2-4,major
48464,82,43,98,328,0.0,2-4,major
48465,84,62,221,271,0.0,2-4,major
48466,86,65,107,394,0.0,2-4,major
48467,88,51,219,429,0.0,2-4,major
48468,90,43,403,441,0.0,2-4,major
48469,92,67,285,334,0.0,2-4,major
48470,94,52,265,429,0.0,2-4,major
48471,96,61,434,507,0.0,2-4,major
48472,103,24,202,1347,0.0,2-4,major
48473,104,50,352,233,0.0,2-4,major
48474,105,57,135,398,0.0,2-4,major
48475,106,50,394,314,0.0,2-4,major
48476,57,41,1493,538,5.0,2-4,major
48477,48,47,665,1539,5.0,2-4,major
48478,57,61,242,899,5.0,2-4,major
48479,60,66,1650,749,5.0,2-4,major
48480,69,58,392,1310,5.0,2-1,other
48481,72,61,391,522,5.0,2-1,other
48482,76,79,495,544,5.0,2-1,other
48483,72,59,527,678,7.0,2-3,minor
48484,91,74,913,1215,7.0,2-3,minor
48485,84,42,1465,1333,4.0,2-3,minor
48486,56,20,3816,150,4.0,2-3,minor
48487,62,27,2212,1428,4.0,2-3,minor
48488,86,108,976,2250,4.0,2-3,minor
48489,85,58,395,762,4.0,2-3,minor
48490,84,54,397,211,4.0,2-3,minor
48491,83,55,241,386,4.0,2-3,minor
48492,67,34,744,106,4.0,2-3,minor
48493,64,32,5202,63,4.0,2-3,minor
48494,62,24,5463,38,4.0,2-3,minor
48495,79,47,112,519,4.0,2-3,minor
48496,76,45,167,755,4.0,2-3,minor
48497,55,40,5308,756,4.0,2-3,minor
48498,77,40,196,43,4.0,2-3,minor
48499,74,58,159,758,4.0,2-3,minor
48500,75,71,239,765,4.0,2-3,minor
48501,76,69,273,574,4.0,2-3,minor
48502,72,46,239,493,4.0,2-3,minor
48503,67,49,228,495,4.0,2-3,minor
48504,65,56,294,561,4.0,2-3,minor
48505,64,46,167,585,4.0,2-3,minor
48506,65,66,279,565,4.0,2-3,minor
48507,67,52,662,581,4.0,2-3,minor
48508,65,63,1121,766,4.0,2-3,minor
48509,48,36,2204,37,4.0,2-3,minor
48510,58,30,948,110,4.0,2-3,minor
48511,62,67,740,945,4.0,2-3,minor
48512,55,49,585,43,4.0,2-3,minor
48513,55,45,645,2653,10.0,3-11B,other
48514,49,15,964,121,10.0,3-11B,other
48515,67,58,740,7788,4.0,2-3,minor
48516,64,74,1595,1832,7.0,3-9,other
48517,79,40,3197,5070,0.0,2-4,major
48518,74,40,2422,26,0.0,2-4,major
48519,71,44,2143,29,0.0,2-4,major
48520,64,33,865,52,0.0,2-4,major
48521,54,25,3665,3302,0.0,2-4,major
48522,64,20,3280,83,9.0,2-5,other
48523,60,29,3323,72,9.0,2-5,other
48524,84,73,945,1580,9.0,2-5,other
48525,83,60,772,1049,9.0,2-5,other
48526,84,56,46,835,9.0,2-5,other
48527,57,29,2742,2131,3.0,2-4,other
48528,83,68,590,2117,2.0,2-5,other
48529,59,40,1057,1560,9.0,2-5,other
48530,79,65,463,750,9.0,2-5,other
48531,62,40,1227,63,9.0,2-5,other
48532,81,65,629,567,9.0,2-5,other
48533,56,54,3222,2025,7.0,1-1,other
48534,67,42,1603,1290,7.0,1-1,other
48535,62,37,1551,32,7.0,1-1,other
48536,77,51,1339,1417,7.0,1-1,other
48537,76,64,599,1221,7.0,1-1,other
48538,77,57,570,498,7.0,1-1,other
48539,45,39,259,585,7.0,1-1,other
48540,76,55,1259,49,7.0,1-1,other
48541,72,47,710,2143,0.0,2-1,other
48542,71,54,1225,866,0.0,2-1,other
48543,54,33,3323,1009,0.0,2-1,other
48544,69,51,2430,29,0.0,2-1,other
48545,60,42,1978,1045,0.0,2-1,other
48546,71,66,1287,1097,0.0,2-1,other
48547,64,37,749,55,0.0,2-1,other
48548,72,61,974,1042,0.0,2-1,other
48549,65,42,1947,1248,2.0,2-5,other
48550,60,26,1172,43,2.0,2-5,other
48551,76,69,555,1126,2.0,2-5,other
48552,57,45,3269,57,2.0,2-5,other
48553,77,56,687,1262,2.0,2-5,other
48554,65,53,563,29,2.0,2-5,other
48555,60,32,2131,31,2.0,2-5,other
48556,72,30,859,38,2.0,2-5,other
48557,81,63,1393,1412,2.0,2-5,other
48558,76,47,2378,1678,7.0,2-4,major
48559,65,36,1877,54,7.0,2-4,major
48560,55,46,258,1862,7.0,2-4,major
48561,31,38,2120,2636,7.0,2-4,major
48562,43,1,1316,902,7.0,2-4,major
48563,76,57,1809,4138,7.0,2-4,major
48564,71,63,1598,76,7.0,2-4,major
48565,68,42,1641,43,7.0,2-4,major
48566,74,29,1503,32,7.0,2-4,major
48567,59,30,1897,72,5.0,1-1,other
48568,77,51,2088,2765,5.0,1-1,other
48569,67,52,1173,4449,4.0,2-2,other
48570,69,71,679,1083,4.0,2-2,other
48571,67,43,1079,3808,7.0,2-2,other
48572,67,35,2466,1336,7.0,2-2,other
48573,60,1,1694,57,7.0,2-2,other
48574,64,35,856,2578,9.0,2-5,other
48575,52,20,3156,110,9.0,2-5,other
48576,59,24,1933,1030,9.0,2-5,other
48577,79,58,564,891,9.0,2-5,other
48578,71,54,495,52,9.0,2-5,other
48579,62,30,930,83,9.0,2-5,other
48580,57,28,466,2996,11.0,3-7A,minor
48581,55,25,1422,26,11.0,3-7A,minor
48582,45,66,1192,2971,0.0,2-4,major
48583,38,61,303,1146,0.0,2-4,major
48584,81,30,150,1567,5.0,3-11B,major
48585,31,63,1589,6092,5.0,3-11B,major
48586,94,77,239,3838,5.0,3-11B,major
48587,92,62,334,715,5.0,3-11B,major
48588,87,54,271,441,5.0,3-11B,major
48589,83,46,233,383,5.0,3-11B,major
48590,82,42,372,416,5.0,3-11B,major
48591,80,32,301,403,5.0,3-11B,major
48592,79,34,158,396,5.0,3-11B,major
48593,53,31,5150,446,4.0,2-5,other
48594,75,70,706,2013,4.0,2-5,other
48595,71,54,432,775,4.0,2-5,other
48596,74,81,418,697,4.0,2-5,other
48597,75,74,792,573,4.0,2-5,other
48598,76,73,478,582,4.0,2-5,other
48599,77,60,492,553,4.0,2-5,other
48600,76,44,1988,670,4.0,2-5,other
48601,48,42,1913,66,4.0,2-5,other
48602,55,37,1158,804,4.0,2-5,other
48603,60,44,1287,544,4.0,2-5,other
48604,64,57,403,591,4.0,2-5,other
48605,72,55,396,550,4.0,2-5,other
48606,76,78,496,532,4.0,2-5,other
48607,62,54,1048,1257,0.0,2-4,other
48608,64,46,314,472,0.0,2-4,other
48609,68,55,300,490,0.0,2-4,other
48610,71,80,357,472,0.0,2-4,other
48611,74,80,519,449,0.0,2-4,other
48612,45,40,1056,450,0.0,2-4,other
48613,72,49,1501,43,0.0,2-4,other
48614,52,38,646,587,0.0,2-4,other
48615,57,39,367,455,0.0,2-4,other
48616,64,47,294,344,0.0,2-4,other
48617,69,60,472,377,0.0,2-4,other
48618,72,66,287,567,0.0,2-4,other
48619,79,82,2275,607,0.0,2-4,other
48620,56,38,3226,311,0.0,2-4,other
48621,62,37,1915,818,0.0,2-4,other
48622,67,33,594,673,0.0,2-4,other
48623,72,36,424,683,0.0,2-4,other
48624,74,74,419,570,0.0,2-4,other
48625,76,84,728,586,0.0,2-4,other
48626,57,56,1472,109,0.0,2-4,other
48627,77,61,556,726,0.0,2-4,other
48628,79,57,1864,973,0.0,2-4,major
48629,58,53,1380,29,0.0,2-4,major
48630,64,28,1122,115,9.0,2-4,major
48631,61,15,1158,61,9.0,2-4,major
48632,81,61,740,867,9.0,2-4,major
48633,57,49,257,127,9.0,2-4,major
48634,50,36,1006,984,5.0,2-4,major
48635,57,62,365,848,5.0,2-4,major
48636,79,69,749,967,5.0,2-4,major
48637,62,56,953,1242,5.0,3-11B,major
48638,67,57,812,1109,4.0,2-5,other
48639,60,48,1086,54,4.0,2-5,other
48640,74,51,608,1083,4.0,2-5,other
48641,59,44,130,95,5.0,2-4,major
48642,48,41,1743,1223,5.0,2-4,major
48643,72,37,1263,43,5.0,2-4,major
48644,70,45,463,1332,10.0,3-11B,major
48645,55,29,1210,115,2.0,2-3,minor
48646,69,49,677,1233,2.0,2-3,minor
48647,55,20,2238,3291,4.0,2-6,other
48648,65,74,614,1612,4.0,2-6,other
48649,67,66,650,655,4.0,2-6,other
48650,50,45,1247,872,5.0,3-11B,major
48651,67,44,637,43,5.0,3-11B,major
48652,71,79,402,896,5.0,3-11B,major
48653,57,22,129,60,5.0,3-11B,major
48654,69,36,115,112,5.0,3-11B,major
48655,48,48,1660,683,5.0,3-11B,major
48656,74,76,348,1052,5.0,2-5,other
48657,57,42,840,32,5.0,2-5,other
48658,76,72,675,999,5.0,2-5,other
48659,69,63,497,31,5.0,2-5,other
48660,47,41,319,29,5.0,2-5,other
48661,64,35,150,74,5.0,2-5,other
48662,88,74,1090,1285,5.0,2-5,other
48663,76,68,1018,26,5.0,2-5,other
48664,57,29,770,115,5.0,2-5,other
48665,88,48,1286,1535,2.0,2-3,minor
48666,83,35,848,55,4.0,2-4,major
48667,65,33,1034,1329,4.0,2-4,major
48668,62,29,1110,68,4.0,2-4,major
48669,86,99,896,830,4.0,2-4,major
48670,85,59,368,723,4.0,2-4,major
48671,84,38,360,311,4.0,2-4,major
48672,83,47,255,394,4.0,2-4,major
48673,45,38,3451,388,4.0,2-4,major
48674,84,77,1875,89,4.0,2-4,major
48675,81,37,748,987,4.0,2-4,major
48676,55,13,2203,195,4.0,2-4,major
48677,74,44,395,690,4.0,2-4,major
48678,77,44,547,767,4.0,2-4,major
48679,82,53,204,524,4.0,2-4,major
48680,84,69,619,452,4.0,2-4,major
48681,89,58,504,501,4.0,2-4,major
48682,94,62,289,455,4.0,2-4,major
48683,44,50,902,90,4.0,2-4,major
48684,96,40,654,571,4.0,2-4,major
48685,101,40,525,550,4.0,2-4,major
48686,106,55,559,620,4.0,2-4,major
48687,108,44,458,599,4.0,2-4,major
48688,54,25,3506,666,4.0,2-4,major
48689,106,46,621,63,4.0,2-4,major
48690,65,24,3332,88,4.0,2-4,major
48691,60,26,3001,43,4.0,2-4,major
48692,58,25,3473,75,4.0,2-4,major
48693,72,40,357,3024,4.0,2-4,major
48694,74,64,436,477,4.0,2-4,major
48695,64,52,2660,632,0.0,3-11B,major
48696,76,70,665,1126,0.0,3-11B,major
48697,76,60,310,1077,0.0,3-11B,major
48698,72,36,547,1059,0.0,3-11B,major
48699,72,28,400,1127,0.0,3-11B,major
48700,67,34,850,1134,0.0,3-11B,major
48701,55,6,496,311,0.0,2-4,major
48702,67,36,1384,1098,0.0,2-4,major
48703,60,20,648,86,4.0,2-3,minor
48704,43,43,222,1404,4.0,2-3,minor
48705,70,51,259,1508,4.0,2-3,minor
48706,71,70,371,83,4.0,2-3,minor
48707,72,57,750,259,5.0,4-20,major
48708,84,71,458,1174,5.0,4-20,major
48709,83,34,126,147,2.0,3-11A,minor
48710,81,56,472,1125,2.0,3-11A,minor
48711,65,54,1228,100,2.0,3-7A,minor
48712,77,41,582,1208,2.0,3-7A,minor
48713,71,22,251,175,2.0,2-5,other
48714,86,87,617,1281,2.0,2-5,other
48715,83,52,429,1354,4.0,3-11A,minor
48716,67,58,953,78,4.0,3-7A,minor
48717,81,22,267,135,4.0,3-7A,minor
48718,64,32,2885,1187,7.0,3-11B,major
48719,81,65,567,6491,2.0,2-5,other
48720,77,51,875,1455,5.0,2-5,other
48721,72,35,485,1367,2.0,2-2,other
48722,55,49,1499,46,2.0,2-2,other
48723,71,51,831,3861,7.0,3-11B,major
48724,79,38,503,34,7.0,3-11B,major
48725,76,50,491,29,7.0,3-11B,major
48726,64,35,1641,55,7.0,3-11B,major
48727,61,33,921,1733,1.0,4-28,diminished
48728,73,31,2094,3464,1.0,4-28,diminished
48729,65,41,1098,2384,2.0,1-1,other
48730,69,52,844,38,2.0,1-1,other
48731,60,9,1026,230,2.0,1-1,other
48732,76,56,594,1037,2.0,1-1,other
48733,77,53,648,1340,5.0,3-11B,major
48734,60,22,1181,153,5.0,2-5,other
48735,79,43,990,1333,5.0,2-5,other
48736,57,28,110,138,4.0,2-3,minor
48737,81,49,1074,1759,4.0,2-3,minor
48738,83,44,1715,2053,9.0,2-2,other
48739,84,36,2524,2757,11.0,2-6,other
48740,64,31,3438,115,0.0,2-5,other
48741,59,25,3558,26,0.0,2-5,other
48742,53,20,3792,49,0.0,2-5,other
48743,86,52,3079,3265,0.0,2-5,other
48744,74,31,2163,54,0.0,2-5,other
48745,84,40,971,4021,0.0,2-5,other
48746,72,24,557,49,0.0,2-5,other
48747,36,34,1046,28,0.0,2-5,other
48748,43,36,127,1063,0.0,2-5,other
48749,62,43,6501,1122,0.0,2-5,other
48750,91,52,577,46,0.0,2-5,other
48751,83,42,704,69,0.0,2-5,other
48752,64,27,2475,1123,0.0,2-5,other
48753,76,26,2224,1262,7.0,1-1,other
48754,64,31,1368,2475,7.0,1-1,other
48755,69,40,512,1512,7.0,1-1,other
48756,60,34,1077,2097,5.0,3-6,major
48757,50,24,5137,57,5.0,3-6,major
48758,69,58,1187,1986,5.0,3-6,major
48759,69,47,2270,1547,5.0,3-6,major
48760,76,44,1913,1480,5.0,3-6,major
48761,76,60,1248,2966,5.0,3-6,major
48762,77,74,1226,1952,4.0,3-5B,other
48763,43,30,1406,1027,11.0,2-6,other
48764,55,20,1240,135,8.0,2-3,other
48765,79,53,1686,784,8.0,2-3,other
48766,74,61,1554,58,8.0,2-3,other
48767,64,36,1248,1816,4.0,4-26,minor
48768,76,66,170,1272,5.0,3-11B,major
48769,77,77,214,312,5.0,3-11B,major
48770,55,60,884,376,4.0,4-26,minor
48771,81,64,184,1548,4.0,4-26,minor
48772,83,56,178,372,4.0,4-26,minor
48773,79,30,84,4414,11.0,5-36B,other
48774,59,36,98,1982,7.0,2-5,other
48775,56,37,306,1234,0.0,3-9,other
48776,72,59,204,634,0.0,3-9,other
48777,62,26,292,324,7.0,3-5B,other
48778,74,60,718,26,7.0,3-5B,other
48779,62,47,872,2962,0.0,4-19B,other
48780,55,51,94,3564,6.0,4-29A,minor
48781,91,52,88,4564,4.0,4-6,other
48782,91,50,320,1064,4.0,3-5B,other
48783,55,58,302,108,4.0,2-2,other
48784,89,47,412,490,4.0,2-2,other
48785,55,43,236,122,4.0,3-7B,other
48786,55,45,194,652,4.0,3-7B,other
48787,58,82,362,2502,1.0,3-9,other
48788,62,51,976,516,9.0,3-7A,minor
48789,69,64,278,1356,9.0,3-7A,minor
48790,51,26,236,2024,0.0,3-4A,other
48791,57,33,870,274,4.0,3-7A,minor
48792,55,34,524,2084,4.0,2-6,other
48793,52,54,584,968,1.0,4-28,diminished
48794,79,45,944,4540,7.0,3-5B,other
48795,60,35,664,124,4.0,2-3,minor
48796,81,47,116,4358,11.0,2-5,other
48797,69,36,80,32,11.0,2-5,other
48798,64,46,336,290,11.0,2-5,other
48799,60,40,168,34,11.0,2-5,other
48800,57,36,612,980,3.0,2-1,other
48801,64,44,844,9620,9.0,4-26,minor
48802,72,41,340,836,9.0,4-26,minor
48803,69,44,302,42,9.0,4-26,minor
48804,53,49,1016,966,3.0,3-11A,other
48805,43,45,1026,934,3.0,3-11A,other
48806,41,55,488,2966,0.0,3-11B,major
48807,65,75,274,944,0.0,3-11B,major
48808,40,45,716,874,0.0,3-11B,major
48809,69,78,198,1564,7.0,2-5,other
48810,72,63,294,1908,0.0,3-3A,minor
48811,72,49,1622,518,0.0,3-3A,minor
48812,69,71,1086,52,0.0,3-3A,minor
48813,64,27,1070,1782,8.0,3-10,minor
48814,71,85,212,634,8.0,3-10,minor
48815,69,43,448,444,8.0,3-10,minor
48816,67,50,172,560,8.0,3-10,minor
48817,76,78,216,874,4.0,3-7B,other
48818,74,48,326,428,4.0,3-7B,other
48819,56,21,154,592,2.0,3-7A,minor
48820,83,79,264,860,2.0,3-7A,minor
48821,81,53,224,450,2.0,3-7A,minor
48822,76,43,416,1052,9.0,2-3,minor
48823,72,33,584,770,9.0,2-3,minor
48824,56,26,1160,1072,2.0,2-3,minor
48825,72,52,154,1236,2.0,2-3,minor
48826,74,83,202,320,2.0,2-3,minor
48827,57,37,1018,316,2.0,2-3,minor
48828,64,22,816,72,0.0,2-4,major
48829,75,52,220,310,0.0,2-4,major
48830,76,74,276,332,0.0,2-4,major
48831,77,73,414,370,0.0,2-4,major
48832,79,58,160,2194,6.0,3-5B,other
48833,80,68,242,300,6.0,3-5B,other
48834,81,66,284,376,5.0,4-20,major
48835,81,44,240,944,5.0,4-20,major
48836,64,48,98,602,5.0,4-20,major
48837,59,44,84,34,5.0,4-20,major
48838,81,49,620,1294,11.0,1-1,other
48839,79,70,292,528,11.0,1-1,other
48840,62,24,66,52,11.0,1-1,other
48841,55,30,96,58,11.0,1-1,other
48842,76,65,448,392,11.0,1-1,other
48843,76,64,650,770,11.0,1-1,other
48844,52,71,68,1620,10.0,3-11B,major
48845,77,39,92,372,7.0,1-1,other
48846,88,65,196,2294,5.0,4-20,major
48847,85,29,68,1204,7.0,2-3,minor
48848,55,44,96,664,1.0,4-28,diminished
48849,53,45,782,658,9.0,3-11A,minor
48850,84,46,84,2516,9.0,2-3,minor
48851,76,62,756,3314,5.0,4-16A,major
48852,62,56,696,70,8.0,3-10,minor
48853,74,63,254,1414,8.0,3-10,minor
48854,61,50,248,3140,5.0,4-14A,other
48855,84,65,298,2968,0.0,2-4,major
48856,60,48,78,658,4.0,3-2A,minor
48857,84,64,206,2718,9.0,3-11A,minor
48858,81,24,82,88,5.0,4-22A,major
48859,55,46,2436,1244,5.0,2-4,major
48860,65,30,170,26,5.0,2-4,major
48861,72,56,358,3486,4.0,3-11A,minor
48862,67,53,84,354,4.0,3-11A,minor
48863,56,52,2882,912,4.0,3-11A,minor
48864,55,48,1932,72,2.0,2-2,other
48865,43,50,160,1826,2.0,2-2,other
48866,76,69,299,799,2.0,2-2,other
48867,77,66,574,366,2.0,2-2,other
48868,76,105,339,2765,4.0,2-2,other
48869,72,73,297,955,4.0,2-2,other
48870,71,60,1113,977,4.0,2-2,other
48871,55,29,352,101,4.0,3-7B,other
48872,67,72,355,883,4.0,3-7B,other
48873,64,24,1562,1000,9.0,3-3A,major
48874,55,31,1331,52,9.0,3-3A,major
48875,72,103,523,3358,9.0,2-5,other
48876,73,36,84,64,9.0,2-5,other
48877,64,34,890,392,11.0,2-6,other
48878,69,80,268,521,11.0,2-6,other
48879,67,39,276,426,11.0,2-6,other
48880,65,49,315,506,11.0,2-6,other
48881,62,17,409,417,4.0,2-5,other
48882,55,24,441,30,4.0,2-5,other
48883,65,50,208,573,4.0,2-5,other
48884,67,62,694,335,4.0,2-5,other
48885,68,45,489,892,4.0,2-5,other
48886,69,70,231,600,8.0,2-6,other
48887,71,85,464,362,8.0,2-6,other
48888,69,48,92,50,8.0,2-6,other
48889,74,80,384,519,8.0,2-6,other
48890,69,50,704,1294,0.0,2-4,major
48891,68,44,804,972,0.0,2-4,major
48892,71,68,446,873,0.0,2-4,major
48893,67,62,261,2058,0.0,2-4,major
48894,60,26,208,60,0.0,2-4,major
48895,55,24,188,45,0.0,2-4,major
48896,60,34,898,3752,5.0,3-4A,major
48897,76,105,565,977,5.0,3-4A,major
48898,72,51,307,610,5.0,3-4A,major
48899,71,35,261,553,5.0,3-4A,major
48900,64,25,136,739,5.0,3-4A,major
48901,59,31,112,42,5.0,3-4A,major
48902,71,58,312,1563,4.0,3-11A,minor
48903,67,35,427,322,4.0,3-11A,minor
48904,58,34,191,637,4.0,3-11A,minor
48905,72,80,519,258,4.0,3-11A,minor
48906,68,45,258,610,4.0,3-11A,minor
48907,65,53,239,977,9.0,2-3,minor
48908,64,33,595,415,9.0,2-3,minor
48909,64,46,783,920,9.0,2-3,minor
48910,62,44,2517,878,9.0,2-3,minor
48911,55,25,98,2736,9.0,2-3,minor
48912,65,83,506,207,9.0,2-3,minor
48913,63,47,268,603,9.0,2-3,minor
48914,64,33,452,446,9.0,2-3,minor
48915,67,71,270,576,9.0,2-3,minor
48916,70,75,535,395,9.0,2-3,minor
48917,68,50,220,602,9.0,2-3,minor
48918,69,57,399,379,9.0,2-3,minor
48919,72,58,254,553,9.0,2-3,minor
48920,60,26,109,169,9.0,2-3,minor
48921,76,84,474,223,9.0,2-3,minor
48922,79,80,451,544,9.0,2-3,minor
48923,77,54,618,423,9.0,2-3,minor
48924,67,42,754,881,9.0,2-3,minor
48925,76,80,221,1909,4.0,2-2,other
48926,55,38,268,42,4.0,2-2,other
48927,77,62,211,576,4.0,2-2,other
48928,79,62,382,372,4.0,2-2,other
48929,81,61,235,553,4.0,2-2,other
48930,64,19,1463,422,6.0,2-6,other
48931,84,74,1030,61,6.0,2-6,other
48932,81,35,355,913,6.0,2-6,other
48933,78,56,335,553,6.0,2-6,other
48934,76,32,657,504,6.0,2-6,other
48935,75,71,697,798,6.0,2-6,other
48936,79,57,446,1895,4.0,3-11A,minor
48937,76,62,322,563,4.0,3-11A,minor
48938,75,49,687,481,4.0,3-11A,minor
48939,62,19,109,841,4.0,3-11A,minor
48940,74,57,751,52,4.0,3-11A,minor
48941,55,29,982,1051,0.0,2-4,major
48942,57,26,992,55,0.0,2-4,major
48943,57,39,484,3407,5.0,2-5,other
48944,81,103,811,290,5.0,2-5,other
48945,77,74,509,945,5.0,2-5,other
48946,74,66,431,601,5.0,2-5,other
48947,59,22,412,297,5.0,2-5,other
48948,53,27,1126,35,5.0,2-5,other
48949,64,22,918,52,5.0,2-5,other
48950,72,27,674,87,5.0,2-5,other
48951,59,42,870,553,5.0,2-5,other
48952,71,82,494,300,5.0,2-5,other
48953,74,113,914,928,5.0,2-5,other
48954,71,40,533,1006,4.0,2-3,minor
48955,67,32,305,705,4.0,2-3,minor
48956,57,31,320,381,4.0,2-3,minor
48957,60,24,206,38,4.0,2-3,minor
48958,53,16,238,89,4.0,2-3,minor
48959,69,64,536,79,4.0,2-3,minor
48960,64,46,710,672,4.0,2-3,minor
48961,67,54,508,901,4.0,2-3,minor
48962,55,34,121,37,4.0,2-3,minor
48963,62,35,442,932,4.0,2-3,minor
48964,61,34,468,968,4.0,2-3,minor
48965,55,30,280,121,4.0,2-3,minor
48966,62,60,511,1823,4.0,2-3,minor
48967,64,53,248,615,2.0,2-2,other
48968,69,94,453,2255,4.0,2-5,other
48969,72,80,342,592,4.0,2-5,other
48970,71,62,533,439,4.0,2-5,other
48971,67,73,239,540,4.0,2-5,other
48972,64,24,414,405,4.0,2-5,other
48973,62,40,282,506,4.0,2-5,other
48974,67,73,463,382,4.0,2-5,other
48975,62,80,316,555,4.0,2-5,other
48976,56,43,489,434,4.0,2-5,other
48977,55,34,92,687,4.0,2-5,other
48978,60,65,541,228,4.0,2-5,other
48979,45,57,249,439,4.0,2-5,other
48980,57,34,532,316,4.0,2-5,other
48981,60,62,253,748,4.0,2-5,other
48982,62,56,382,407,4.0,2-5,other
48983,64,45,397,967,3.0,2-5,other
48984,67,76,260,613,3.0,2-5,other
48985,60,32,137,138,3.0,2-5,other
48986,57,34,118,36,3.0,2-5,other
48987,64,36,345,304,3.0,2-5,other
48988,55,33,195,1442,1.0,2-3,minor
48989,67,51,231,909,1.0,2-3,minor
48990,69,43,295,335,1.0,2-3,minor
48991,70,56,176,370,1.0,2-3,minor
48992,72,56,228,275,1.0,2-3,minor
48993,75,39,131,744,1.0,2-3,minor
48994,76,49,146,216,1.0,2-3,minor
48995,79,83,373,267,1.0,2-3,minor
48996,76,58,226,392,1.0,2-3,minor
48997,77,73,293,298,1.0,2-3,minor
48998,72,49,184,459,1.0,2-3,minor
48999,55,51,105,1661,11.0,2-3,minor
49000,52,22,89,1811,10.0,2-4,major
49001,79,41,119,1327,9.0,3-11B,major
49002,76,60,241,605,9.0,1-1,other
49003,60,47,99,67,1.0,3-10,diminished
49004,57,38,181,37,1.0,3-10,diminished
49005,79,31,290,454,9.0,1-1,other
49006,81,63,325,771,9.0,1-1,other
49007,69,47,258,45,9.0,1-1,other
49008,64,36,201,902,9.0,1-1,other
49009,81,96,380,2800,5.0,3-11B,major
49010,84,92,377,655,5.0,3-11B,major
49011,84,79,504,657,5.0,3-11B,major
49012,83,74,499,719,5.0,3-11B,major
49013,81,66,278,588,5.0,3-11B,major
49014,86,77,431,1362,2.0,2-5,other
49015,84,57,184,597,2.0,2-5,other
49016,79,67,549,595,8.0,4-13B,other
49017,62,19,151,715,8.0,2-3,other
49018,88,67,349,573,8.0,2-3,other
49019,55,37,605,243,8.0,2-3,other
49020,57,36,674,27,8.0,2-3,other
49021,86,68,657,231,8.0,2-3,other
49022,55,33,117,793,9.0,3-11A,minor
49023,64,52,967,6731,5.0,2-4,major
49024,57,45,727,3764,0.0,3-9,other
49025,62,36,906,3849,9.0,2-3,minor
49026,43,39,104,1913,9.0,2-3,minor
49027,76,68,238,632,9.0,2-3,minor
49028,77,74,429,379,9.0,2-3,minor
49029,79,67,228,596,9.0,2-3,minor
49030,64,40,1064,79,9.0,2-3,minor
49031,62,1,890,404,9.0,2-3,minor
49032,71,58,250,427,9.0,2-3,minor
49033,72,40,476,409,9.0,2-3,minor
49034,74,73,191,603,9.0,2-3,minor
49035,67,57,211,917,9.0,2-3,minor
49036,69,45,452,399,9.0,2-3,minor
49037,55,46,104,665,11.0,2-3,minor
49038,64,38,151,883,11.0,2-3,minor
49039,65,34,307,417,11.0,2-3,minor
49040,57,45,109,605,6.0,3-10,other
49041,60,64,87,1845,6.0,3-10,other
49042,57,48,89,37,6.0,3-10,other
49043,53,42,101,30,6.0,3-10,other
49044,69,40,100,979,6.0,3-10,other
49045,72,43,188,343,6.0,3-10,other
49046,79,89,256,545,6.0,3-10,other
49047,76,57,444,429,9.0,3-11A,minor
49048,59,56,394,901,4.0,1-1,other
49049,53,37,360,27,4.0,1-1,other
49050,59,37,370,860,4.0,1-1,other
49051,55,48,285,63,2.0,1-1,other
49052,52,29,242,46,2.0,1-1,other
49053,74,79,528,852,2.0,1-1,other
49054,72,48,322,629,2.0,1-1,other
49055,69,57,345,977,8.0,2-3,minor
49056,68,35,338,481,8.0,2-3,minor
49057,71,54,394,511,8.0,2-3,minor
49058,57,22,1078,184,0.0,2-4,major
49059,69,55,645,270,0.0,2-4,major
49060,64,33,528,843,0.0,2-4,major
49061,68,31,210,1987,8.0,3-10,other
49062,71,66,268,305,8.0,3-10,other
49063,74,80,258,337,8.0,3-10,other
49064,57,29,1081,263,0.0,2-4,major
49065,71,54,301,99,0.0,2-4,major
49066,72,46,342,335,0.0,2-4,major
49067,60,30,132,404,0.0,2-4,major
49068,79,59,176,60,0.0,2-4,major
49069,83,58,201,471,0.0,2-4,major
49070,84,74,307,305,0.0,2-4,major
49071,55,57,1223,342,6.0,2-5,other
49072,81,35,119,206,6.0,2-5,other
49073,53,30,1188,1577,9.0,3-11A,minor
49074,64,36,104,1585,9.0,3-11A,minor
49075,93,55,152,322,9.0,2-3,minor
49076,81,30,184,57,9.0,2-3,minor
49077,91,48,223,273,9.0,2-3,minor
49078,93,87,308,330,9.0,2-3,minor
49079,81,60,206,27,9.0,2-3,minor
49080,91,38,144,437,5.0,2-4,major
49081,62,29,788,816,5.0,2-4,major
49082,59,32,548,34,5.0,2-4,major
49083,91,55,184,925,4.0,2-3,minor
49084,79,46,111,43,4.0,2-3,minor
49085,89,45,137,307,4.0,2-3,minor
49086,52,34,754,566,10.0,2-4,major
49087,89,44,251,133,10.0,2-4,major
49088,86,51,286,1922,8.0,1-1,other
49089,93,70,240,1489,2.0,2-3,minor
49090,64,53,90,121,7.0,2-2,other
49091,57,24,112,129,7.0,2-2,other
49092,91,40,370,213,7.0,2-2,other
49093,57,27,105,600,7.0,2-5,other
49094,91,64,424,253,7.0,2-5,other
49095,84,64,238,727,5.0,1-1,other
49096,88,47,394,496,5.0,1-1,other
49097,76,53,345,791,4.0,2-5,other
49098,86,68,372,885,4.0,2-5,other
49099,79,46,330,75,10.0,2-4,major
49100,52,32,226,52,10.0,2-4,major
49101,84,55,246,833,10.0,2-4,major
49102,62,44,295,57,0.0,3-7B,other
49103,52,24,124,42,0.0,3-7B,other
49104,60,55,518,3835,8.0,3-3A,minor
49105,91,71,563,1512,8.0,3-3A,minor
49106,64,59,588,2929,6.0,2-6,other
49107,77,42,588,1399,5.0,2-1,other
49108,84,34,82,1570,11.0,2-1,other
49109,83,39,617,1310,4.0,2-3,minor
49110,88,50,854,2878,0.0,4-20,major
49111,88,47,897,4688,9.0,1-1,other
49112,83,50,99,2817,4.0,3-5B,other
49113,55,57,1052,982,4.0,2-2,other
49114,91,42,850,3889,5.0,3-11B,major
49115,55,37,692,54,4.0,4-26,minor
49116,93,92,311,1865,7.0,6-18A,minor
49117,58,62,649,928,5.0,5-26B,augmented
49118,57,52,1190,1039,5.0,3-4B,other
49119,57,33,98,2870,4.0,2-5,other
49120,59,42,994,1078,5.0,3-6,major
49121,55,55,923,74,4.0,2-2,other
49122,84,62,1022,2329,4.0,2-2,other
49123,60,39,898,1391,9.0,3-9,other
49124,62,55,171,1796,8.0,2-1,other
49125,64,36,1356,1590,8.0,2-1,other
49126,55,34,1218,81,9.0,2-3,minor
49127,84,78,411,1258,9.0,2-3,minor
49128,85,76,248,568,9.0,2-3,minor
49129,61,39,1221,349,9.0,2-3,minor
49130,55,40,830,43,9.0,2-3,minor
49131,88,67,263,602,4.0,2-1,other
49132,89,40,374,422,4.0,2-1,other
49133,60,22,201,667,11.0,2-2,other
49134,57,25,154,52,11.0,2-2,other
49135,89,45,553,283,11.0,2-2,other
49136,89,57,315,900,11.0,2-2,other
49137,91,63,441,930,11.0,2-2,other
49138,53,29,188,87,4.0,2-5,other
49139,92,67,310,476,4.0,2-5,other
49140,94,60,387,449,4.0,2-5,other
49141,95,64,224,478,4.0,2-5,other
49142,62,70,181,1042,4.0,2-5,other
49143,59,40,134,64,4.0,2-5,other
49144,55,27,112,53,4.0,2-5,other
49145,99,87,533,1210,4.0,2-5,other
49146,64,32,94,2549,4.0,2-6,other
49147,57,37,114,50,4.0,2-6,other
49148,96,95,519,235,4.0,2-6,other
49149,97,64,247,616,4.0,2-6,other
49150,93,39,377,463,4.0,2-6,other
49151,93,75,447,796,4.0,2-6,other
49152,94,67,292,628,4.0,2-6,other
49153,61,47,208,37,4.0,2-6,other
49154,91,17,334,479,4.0,2-6,other
49155,50,26,124,463,4.0,2-6,other
49156,93,90,530,328,4.0,2-6,other
49157,91,87,442,870,4.0,2-6,other
49158,89,77,370,640,4.0,2-6,other
49159,88,49,371,447,4.0,2-6,other
49160,86,57,265,543,4.0,2-6,other
49161,88,62,677,404,4.0,2-6,other
49162,65,41,123,846,4.0,2-6,other
49163,57,25,221,39,4.0,2-6,other
49164,86,71,208,650,4.0,2-6,other
49165,84,73,548,409,8.0,3-10,other
49166,82,30,92,2897,9.0,4-26,minor
49167,44,69,5708,2249,3.0,2-5,other
49168,60,75,2272,5835,4.0,2-3,minor
49169,52,57,6593,43,4.0,2-3,minor
49170,43,76,5424,1339,4.0,2-3,minor
49171,55,80,2431,968,4.0,2-3,minor
49172,64,75,1445,1118,4.0,2-3,minor
49173,57,63,1175,4400,0.0,3-11B,major
49174,65,80,991,2316,9.0,3-11A,minor
49175,60,80,1433,34,9.0,3-11A,minor
49176,72,43,701,1482,9.0,3-11A,minor
49177,57,61,508,64,2.0,3-11A,minor
49178,65,51,1007,1620,0.0,2-4,major
49179,56,28,1443,2297,7.0,2-5,other
49180,53,25,1426,78,7.0,2-5,other
49181,40,29,1469,2943,7.0,2-5,other
49182,71,68,628,1489,7.0,2-4,major
49183,62,13,236,510,7.0,2-4,major
49184,64,43,628,1077,7.0,3-11B,major
49185,45,26,1690,58,7.0,3-11B,major
49186,49,32,1901,1967,4.0,2-3,minor
49187,65,52,785,1792,4.0,2-3,minor
49188,50,48,1345,66,9.0,2-3,minor
49189,62,60,626,4372,5.0,3-11B,major
49190,57,50,591,26,5.0,3-11B,major
49191,64,44,1852,1998,5.0,2-5,other
49192,69,40,1202,2082,2.0,2-3,minor
49193,62,22,1011,75,2.0,2-3,minor
49194,83,45,6033,3068,2.0,2-3,minor
49195,76,53,5656,54,8.0,2-3,minor
49196,53,26,807,112,3.0,2-4,other
49197,31,45,221,2601,3.0,2-4,other
49198,72,53,1363,5463,5.0,3-9,other
49199,44,61,3110,58,5.0,3-9,other
49200,51,35,1181,2025,5.0,3-9,other
49201,55,30,1140,1224,5.0,3-9,other
49202,56,57,3922,1060,5.0,3-9,other
49203,79,58,1083,1048,5.0,3-9,other
49204,72,45,596,26,5.0,3-9,other
49205,60,38,1233,28,5.0,3-9,other
49206,65,47,1485,1130,0.0,2-5,other
49207,84,48,914,1344,0.0,2-5,other
49208,36,34,1746,3050,7.0,2-2,other
49209,52,42,1723,213,2.0,3-11B,major
49210,43,40,216,1513,2.0,3-11B,major
49211,79,51,1194,101,2.0,3-11B,major
49212,69,36,2935,1652,2.0,2-4,major
49213,57,36,1466,47,2.0,2-4,major
49214,62,34,2016,1676,2.0,2-4,major
49215,64,35,746,2013,2.0,2-5,other
49216,62,40,97,0,2.0,3-7A,minor
49217,60,34,63,30,2.0,3-7A,minor
49218,65,42,192,571,2.0,3-7A,minor
49219,54,33,125,1330,9.0,3-11A,minor
49220,70,42,181,243,9.0,3-11A,minor
49221,71,71,110,155,9.0,3-11A,minor
49222,72,77,251,180,9.0,3-11A,minor
49223,62,40,151,987,10.0,3-4A,major
49224,43,32,140,256,10.0,3-4A,major
49225,71,45,642,2103,7.0,4-22B,minor
49226,62,58,439,927,2.0,3-11A,minor
49227,60,25,531,2873,6.0,2-3,other
49228,62,30,753,1880,5.0,2-4,major
49229,56,78,1485,667,5.0,2-4,major
49230,72,91,275,966,2.0,2-3,minor
49231,65,36,168,231,2.0,2-3,minor
49232,74,71,1201,702,1.0,2-1,other
49233,64,36,137,1285,9.0,2-2,other
49234,59,28,60,68,0.0,2-5,other
49235,77,57,136,550,0.0,2-5,other
49236,82,37,278,365,2.0,2-4,major
49237,83,50,157,255,2.0,2-4,major
49238,54,32,173,660,0.0,1-1,other
49239,50,45,148,595,2.0,1-1,other
49240,54,31,97,877,9.0,2-3,minor
49241,56,48,49,112,9.0,2-3,minor
49242,55,37,58,76,5.0,3-11B,major
49243,55,45,222,602,4.0,3-10,diminished
49244,53,26,235,652,5.0,3-12,augmented
49245,64,47,203,1367,5.0,3-12,augmented
49246,65,50,133,272,1.0,2-2,other
49247,57,24,307,1359,0.0,3-6,major
49248,63,52,1729,863,0.0,3-6,major
49249,50,66,428,1025,8.0,1-1,other
49250,51,60,386,510,8.0,1-1,other
49251,53,51,429,1002,4.0,4-27A,diminished
49252,50,39,462,490,4.0,4-27A,diminished
49253,51,53,400,461,4.0,4-27A,diminished
49254,52,51,862,473,4.0,4-27A,diminished
49255,55,28,279,31,4.0,4-27A,diminished
49256,48,56,200,904,4.0,4-27A,diminished
49257,60,50,92,29,4.0,4-27A,diminished
49258,62,49,190,95,4.0,4-27A,diminished
49259,60,42,192,141,4.0,4-27A,diminished
49260,59,43,206,181,4.0,4-27A,diminished
49261,60,44,190,297,4.0,4-27A,diminished
49262,57,26,232,220,5.0,2-5,other
49263,62,50,303,31,5.0,2-5,other
49264,57,22,106,1008,5.0,2-5,other
49265,65,47,130,505,5.0,2-5,other
49266,71,79,140,511,10.0,2-4,other
49267,72,42,1857,149,10.0,2-4,other
49268,43,41,136,1569,2.0,3-8A,major
49269,53,24,663,941,4.0,2-5,other
49270,77,56,271,604,2.0,2-5,other
49271,69,49,144,39,2.0,2-5,other
49272,69,38,450,331,10.0,2-4,major
49273,58,39,887,998,1.0,4-27A,minor
49274,57,41,1230,910,0.0,3-9,other
49275,62,52,124,942,0.0,3-9,other
49276,65,57,122,245,0.0,3-9,other
49277,69,66,151,239,0.0,3-9,other
49278,70,81,165,284,0.0,3-9,other
49279,65,12,257,1309,0.0,2-4,other
49280,69,46,151,299,0.0,2-4,other
49281,72,43,167,212,0.0,2-4,other
49282,62,33,432,248,0.0,2-4,other
49283,73,34,146,1255,2.0,3-11A,minor
49284,74,66,142,254,2.0,3-11A,minor
49285,77,78,143,221,2.0,3-11A,minor
49286,56,43,1493,254,7.0,3-7B,other
49287,77,75,136,332,7.0,3-7B,other
49288,62,24,238,683,2.0,2-3,minor
49289,72,45,389,242,2.0,2-3,minor
49290,71,32,90,760,9.0,2-3,minor
49291,45,38,491,599,9.0,2-3,minor
49292,55,34,218,342,9.0,2-3,minor
49293,62,34,130,254,9.0,2-3,minor
49294,67,57,151,284,9.0,2-3,minor
49295,54,37,1045,379,10.0,4-22A,major
49296,56,40,504,2753,0.0,4-26,minor
49297,66,36,560,994,7.0,4-22A,major
49298,54,53,743,996,8.0,4-26,other
49299,55,36,454,2949,3.0,4-19A,other
49300,59,22,225,933,3.0,3-4B,other
49301,46,25,98,700,3.0,3-4B,other
49302,47,42,143,95,3.0,3-4B,other
49303,41,20,566,1099,5.0,2-4,major
49304,68,37,48,1902,0.0,2-1,other
49305,69,35,247,95,0.0,2-1,other
49306,72,64,222,549,0.0,2-1,other
49307,70,46,219,348,0.0,2-1,other
49308,48,22,2728,39,0.0,2-1,other
49309,72,38,183,213,0.0,2-1,other
49310,70,37,176,182,0.0,2-1,other
49311,69,36,286,168,0.0,2-1,other
49312,70,49,123,347,0.0,2-1,other
49313,60,22,606,29,0.0,2-1,other
49314,58,1,271,187,0.0,2-1,other
49315,74,54,139,72,0.0,2-1,other
49316,77,68,154,299,0.0,2-1,other
49317,81,71,184,282,0.0,2-1,other
49318,60,27,1891,334,0.0,2-2,other
49319,48,28,160,806,0.0,2-2,other
49320,82,64,185,522,0.0,2-2,other
49321,81,51,239,247,0.0,2-2,other
49322,48,26,2924,169,0.0,2-2,other
49323,79,37,606,138,0.0,2-2,other
49324,60,37,203,766,0.0,2-2,other
49325,58,25,297,36,0.0,2-2,other
49326,62,25,156,1860,0.0,2-2,other
49327,48,64,1204,582,0.0,2-2,other
49328,48,35,423,3226,7.0,2-3,minor
49329,65,42,148,580,7.0,2-3,minor
49330,69,53,176,2681,11.0,2-2,other
49331,74,55,242,239,11.0,2-2,other
49332,75,40,55,193,11.0,2-2,other
49333,76,68,117,62,11.0,2-2,other
49334,76,68,164,461,7.0,4-13B,other
49335,74,37,227,189,7.0,4-13B,other
49336,72,42,176,249,7.0,4-13B,other
49337,74,60,221,523,0.0,2-4,major
49338,72,43,1566,257,0.0,2-4,major
49339,50,29,493,1054,5.0,3-11B,major
49340,69,26,168,358,5.0,3-11B,major
49341,52,44,275,1522,2.0,1-1,other
49342,45,55,81,339,2.0,1-1,other
49343,53,26,1048,1900,9.0,2-3,minor
49344,50,17,1029,57,9.0,2-3,minor
49345,76,72,181,902,9.0,2-3,minor
49346,60,53,293,965,4.0,4-26,minor
49347,55,29,107,996,7.0,3-11B,major
49348,43,25,2364,958,4.0,4-29A,minor
49349,53,24,870,908,4.0,2-5,other
49350,50,31,177,775,4.0,2-5,other
49351,36,53,67,1768,0.0,2-1,other
49352,58,44,491,813,0.0,2-1,other
49353,64,45,93,49,0.0,2-1,other
49354,66,44,199,155,0.0,2-1,other
49355,68,43,139,122,0.0,2-1,other
49356,70,38,49,117,0.0,2-1,other
49357,72,37,58,137,0.0,2-1,other
49358,73,50,99,118,0.0,2-1,other
49359,75,40,130,177,0.0,2-1,other
49360,76,31,180,151,0.0,2-1,other
49361,79,64,166,212,0.0,2-1,other
49362,76,58,129,186,0.0,2-1,other
49363,41,55,99,485,0.0,2-1,other
49364,77,75,165,1007,2.0,2-2,other
49365,81,46,151,1879,5.0,3-5B,other
49366,84,70,123,245,5.0,3-5B,other
49367,64,42,435,262,5.0,3-5B,other
49368,43,40,247,1018,5.0,4-16A,major
49369,62,36,824,630,5.0,4-16A,major
49370,64,34,383,1288,9.0,3-3A,major
49371,52,31,135,32,9.0,3-3A,major
49372,62,36,429,887,5.0,2-5,other
49373,48,17,211,105,5.0,2-5,other
49374,57,39,154,818,5.0,2-5,other
49375,62,44,131,303,5.0,2-5,other
49376,65,62,148,300,5.0,2-5,other
49377,72,74,1510,371,5.0,4-18A,major
49378,60,43,192,939,5.0,4-18A,major
49379,47,38,259,1024,2.0,2-5,other
49380,57,42,287,900,2.0,2-5,other
49381,46,35,302,2555,8.0,2-6,other
49382,45,44,939,348,0.0,2-5,other
49383,55,24,466,32,0.0,2-5,other
49384,62,62,470,590,0.0,2-5,other
49385,55,28,71,304,0.0,2-5,other
49386,65,52,168,261,0.0,2-5,other
49387,69,67,125,307,0.0,2-5,other
49388,74,67,177,1823,9.0,2-3,minor
49389,70,43,66,37,9.0,2-3,minor
49390,66,42,678,1407,1.0,3-7A,other
49391,53,31,213,1915,3.0,3-11B,major
49392,47,83,337,3509,7.0,4-26,minor
49393,48,65,532,393,7.0,4-26,minor
49394,41,54,294,612,7.0,4-26,minor
49395,54,39,397,1268,0.0,2-3,minor
49396,44,32,387,27,0.0,2-3,minor
49397,58,47,68,1873,7.0,4-26,minor
49398,48,31,74,47,7.0,4-26,minor
49399,72,48,127,316,7.0,4-26,minor
49400,72,56,246,310,7.0,4-26,minor
49401,63,34,704,2186,9.0,2-5,other
49402,67,55,720,43,9.0,2-5,other
49403,77,77,186,46,9.0,2-5,other
49404,77,82,136,498,9.0,2-5,other
49405,63,26,247,499,7.0,2-2,other
49406,76,71,157,456,7.0,2-2,other
49407,46,25,1224,631,7.0,2-2,other
49408,46,38,400,1381,2.0,2-5,other
49409,69,22,442,579,5.0,5-26B,other
49410,55,33,203,828,10.0,3-11A,other
49411,45,44,943,888,0.0,2-5,other
49412,74,48,66,1851,10.0,4-16A,other
49413,74,37,480,1026,10.0,4-16A,other
49414,55,29,71,1463,1.0,2-3,other
49415,58,35,49,451,10.0,3-11A,other
49416,43,32,208,1755,0.0,1-1,other
49417,52,53,289,182,1.0,2-3,other
49418,43,28,50,618,0.0,1-1,other
49419,36,48,1359,5535,10.0,3-11B,major
49420,60,55,192,1405,1.0,5-31B,diminished
49421,61,51,122,237,1.0,5-31B,diminished
49422,62,20,120,231,1.0,5-31B,diminished
49423,65,51,126,234,1.0,5-31B,diminished
49424,48,28,239,282,2.0,2-3,minor
49425,57,1,95,248,2.0,2-3,minor
49426,72,53,1000,790,2.0,4-26,minor
49427,65,29,372,926,2.0,4-26,minor
49428,88,63,150,2350,7.0,2-2,other
49429,93,92,234,303,7.0,2-2,other
49430,64,44,121,256,7.0,2-2,other
49431,59,40,69,46,7.0,2-2,other
49432,86,36,208,387,7.0,2-2,other
49433,89,71,177,310,7.0,2-2,other
49434,36,37,147,216,7.0,2-2,other
49435,88,65,295,151,7.0,2-2,other
49436,87,56,168,320,7.0,2-2,other
49437,86,62,130,757,1.0,3-10,minor
49438,87,53,255,141,1.0,3-10,minor
49439,86,44,152,131,1.0,3-10,minor
49440,85,57,177,140,1.0,3-10,minor
49441,84,56,132,169,1.0,3-10,minor
49442,82,55,174,155,5.0,2-5,other
49443,81,42,261,209,5.0,2-5,other
49444,84,73,157,347,5.0,2-5,other
49445,60,20,88,425,2.0,3-11A,minor
49446,81,64,149,533,2.0,3-11A,minor
49447,82,55,152,256,2.0,3-11A,minor
49448,80,25,53,32,2.0,3-11A,minor
49449,83,64,186,207,6.0,2-6,other
49450,84,67,168,258,6.0,2-6,other
49451,72,44,193,234,6.0,2-6,other
49452,60,31,418,323,6.0,2-2,other
49453,56,34,501,3862,10.0,3-11B,major
49454,65,22,203,539,4.0,2-3,minor
49455,45,35,1467,436,9.0,4-26,minor
49456,55,45,213,1397,9.0,3-11A,minor
49457,70,61,304,1513,2.0,3-7A,minor
49458,50,48,90,403,2.0,3-7A,minor
49459,58,37,575,543,2.0,4-26,minor
49460,72,24,210,470,2.0,4-26,minor
49461,70,45,260,954,0.0,3-6,other
49462,62,15,113,946,7.0,5-27A,major
49463,69,29,114,42,7.0,5-27A,major
49464,54,53,378,3782,7.0,2-4,major
49465,53,37,622,486,7.0,2-4,major
49466,44,42,328,486,7.0,2-4,major
49467,57,48,129,843,7.0,4-26,minor
49468,46,28,322,38,7.0,4-26,minor
49469,58,58,93,189,7.0,4-26,minor
49470,62,37,140,214,7.0,4-26,minor
49471,65,32,152,169,7.0,4-26,minor
49472,69,54,165,110,7.0,4-26,minor
49473,69,46,239,322,0.0,1-1,other
49474,70,62,59,306,0.0,1-1,other
49475,72,53,136,183,0.0,1-1,other
49476,73,50,172,177,0.0,1-1,other
49477,75,34,53,208,0.0,1-1,other
49478,76,62,119,111,0.0,1-1,other
49479,78,46,51,159,0.0,1-1,other
49480,48,37,68,179,7.0,2-3,minor
49481,81,44,213,127,7.0,2-3,minor
49482,82,51,181,167,7.0,2-3,minor
49483,84,50,223,263,7.0,2-3,minor
49484,86,64,320,174,7.0,2-3,minor
49485,41,33,145,70,7.0,2-3,minor
49486,48,43,200,36,7.0,2-3,minor
49487,57,42,524,1052,9.0,2-3,minor
49488,53,14,423,91,0.0,2-4,major
49489,65,43,323,959,0.0,2-4,major
49490,92,32,55,436,6.0,2-6,other
49491,94,45,247,126,6.0,2-6,other
49492,92,32,190,50,6.0,2-6,other
49493,90,51,150,147,6.0,2-6,other
49494,89,42,101,165,6.0,2-6,other
49495,86,34,151,404,3.0,2-1,other
49496,85,49,132,174,3.0,2-1,other
49497,84,41,124,167,3.0,2-1,other
49498,83,55,138,125,3.0,2-1,other
49499,82,49,107,154,3.0,2-1,other
49500,81,36,411,141,3.0,2-1,other
49501,86,64,165,442,4.0,3-5B,other
49502,79,65,113,319,4.0,3-5B,other
49503,81,62,145,406,4.0,3-11B,major
49504,77,31,155,236,4.0,3-11B,major
49505,74,39,129,209,4.0,3-11B,major
49506,52,32,1411,442,10.0,3-4A,major
49507,77,78,144,356,10.0,3-4A,major
49508,79,26,86,279,10.0,3-4A,major
49509,77,43,145,55,10.0,3-4A,major
49510,74,58,152,138,10.0,3-4A,major
49511,74,27,152,296,10.0,2-4,major
49512,72,28,132,28,10.0,2-4,major
49513,71,45,174,180,10.0,2-4,major
49514,70,57,55,167,10.0,2-4,major
49515,60,30,382,302,10.0,2-4,major
49516,53,8,1035,139,5.0,2-4,major
49517,68,59,199,64,5.0,2-4,major
49518,74,24,327,77,5.0,2-4,major
49519,69,35,127,165,5.0,2-4,major
49520,57,17,125,500,2.0,3-7B,other
49521,65,36,148,160,2.0,3-7B,other
49522,48,38,111,512,2.0,3-7B,other
49523,65,46,997,26,2.0,3-7B,other
49524,60,51,601,33,2.0,3-7B,other
49525,50,41,823,54,2.0,3-7B,other
49526,44,35,221,1690,0.0,3-7B,other
49527,71,37,69,1291,2.0,3-11A,minor
49528,50,35,1106,4838,10.0,5-30B,other
49529,81,43,160,2026,8.0,4-21,other
49530,81,25,50,526,0.0,2-4,other
49531,77,37,74,1703,9.0,2-4,major
49532,46,29,72,975,1.0,4-18B,other
49533,50,44,1226,423,1.0,4-18B,other
49534,67,40,774,2029,3.0,4-19A,other
49535,44,27,190,984,11.0,2-6,other
49536,41,36,2513,944,10.0,3-11B,major
49537,57,44,681,928,10.0,3-11B,major
49538,48,34,2025,56,10.0,3-11B,major
49539,57,51,494,966,10.0,3-11B,major
49540,41,43,116,894,10.0,3-11B,major
49541,48,48,324,1488,10.0,2-4,major
49542,48,51,1516,494,10.0,2-4,major
49543,69,32,288,405,10.0,2-4,major
49544,70,50,148,273,10.0,2-4,major
49545,58,32,666,254,10.0,2-4,major
49546,77,56,66,276,2.0,1-1,other
49547,81,75,144,199,2.0,1-1,other
49548,84,79,274,223,2.0,1-1,other
49549,48,34,1402,176,2.0,1-1,other
49550,82,63,190,36,2.0,1-1,other
49551,78,48,130,449,2.0,1-1,other
49552,81,71,152,258,2.0,1-1,other
49553,79,35,62,257,10.0,2-4,major
49554,74,53,91,438,10.0,2-4,major
49555,77,75,161,248,10.0,2-4,major
49556,70,56,174,634,2.0,2-2,other
49557,62,29,1027,509,10.0,2-1,other
49558,72,54,305,506,10.0,2-1,other
49559,69,53,219,940,0.0,2-2,other
49560,65,49,268,979,7.0,3-11A,minor
49561,48,50,2245,2370,10.0,3-11A,other
49562,69,33,238,991,9.0,3-11A,minor
49563,79,77,370,533,9.0,3-11A,minor
49564,47,65,120,946,5.0,2-4,major
49565,77,101,471,989,2.0,4-14A,minor
49566,74,69,462,486,7.0,3-5B,other
49567,76,68,545,496,7.0,3-5B,other
49568,45,47,101,418,7.0,3-5B,other
49569,74,55,183,350,0.0,2-4,major
49570,72,51,206,132,0.0,2-4,major
49571,71,51,261,144,0.0,2-4,major
49572,81,78,316,700,9.0,3-11A,minor
49573,81,65,219,392,9.0,3-11A,minor
49574,50,53,1139,269,9.0,3-11A,minor
49575,81,51,912,59,9.0,3-11A,minor
49576,57,24,213,928,9.0,2-3,minor
49577,61,26,208,1674,9.0,3-7A,minor
49578,62,38,143,82,9.0,3-7A,minor
49579,76,56,176,1057,2.0,3-7A,minor
49580,72,20,58,75,5.0,3-11B,major
49581,50,32,69,1351,5.0,2-4,major
49582,55,31,63,2016,11.0,3-10,diminished
49583,63,11,328,406,11.0,3-10,diminished
49584,59,27,457,76,7.0,2-2,other
49585,64,8,153,114,7.0,2-2,other
49586,59,27,367,784,4.0,2-3,minor
49587,46,27,318,672,4.0,2-3,minor
49588,49,25,123,164,4.0,2-3,minor
49589,37,52,197,1001,10.0,3-11B,major
49590,49,28,103,37,10.0,3-11B,major
49591,52,35,540,978,10.0,3-11B,major
49592,36,31,245,30,10.0,3-11B,major
49593,60,51,380,267,10.0,3-11B,major
49594,61,62,325,317,10.0,3-11B,major
49595,65,41,191,671,2.0,3-6,major
49596,69,60,287,293,2.0,3-6,major
49597,67,49,174,686,9.0,2-3,minor
49598,68,46,57,224,9.0,2-3,minor
49599,69,34,132,172,9.0,2-3,minor
49600,62,32,238,105,9.0,2-3,minor
49601,72,41,128,49,9.0,2-3,minor
49602,57,22,479,26,9.0,2-3,minor
49603,76,24,66,127,9.0,2-3,minor
49604,77,48,79,108,9.0,2-3,minor
49605,72,42,123,87,9.0,2-3,minor
49606,73,44,75,144,9.0,2-3,minor
49607,76,64,147,160,9.0,2-3,minor
49608,81,40,108,244,9.0,2-3,minor
49609,79,55,202,437,2.0,2-4,major
49610,80,32,92,84,2.0,2-4,major
49611,81,44,124,116,2.0,2-4,major
49612,86,64,53,1432,8.0,2-3,other
49613,89,35,111,524,2.0,2-5,other
49614,91,20,66,258,2.0,2-3,minor
49615,80,44,156,162,7.0,2-2,other
49616,86,33,93,28,7.0,2-2,other
49617,89,24,94,46,7.0,2-2,other
49618,93,32,149,348,5.0,2-4,major
49619,89,50,78,61,2.0,2-5,other
49620,93,65,130,204,2.0,2-5,other
49621,86,56,539,261,4.0,3-8B,other
49622,76,52,236,1493,4.0,2-6,other
49623,84,58,254,913,2.0,2-5,other
49624,72,52,229,41,2.0,2-5,other
49625,81,84,275,931,5.0,3-11B,major
49626,77,68,260,941,6.0,4-18A,diminished
49627,74,58,123,974,2.0,4-15B,other
49628,47,29,1256,510,2.0,2-5,other
49629,57,36,377,909,2.0,2-5,other
49630,65,45,213,492,2.0,2-5,other
49631,62,18,196,32,2.0,2-5,other
49632,56,30,702,1421,0.0,2-4,major
49633,46,35,376,488,0.0,2-4,major
49634,45,36,1077,503,7.0,3-11B,major
49635,60,41,222,959,5.0,2-4,major
49636,62,20,196,33,5.0,2-4,major
49637,72,61,217,1498,10.0,5-30B,other
49638,50,47,186,357,10.0,5-30B,other
49639,74,77,200,29,10.0,5-30B,other
49640,43,32,188,656,2.0,3-7A,minor
49641,43,37,175,920,10.0,3-11B,major
49642,57,48,476,947,10.0,4-20,major
49643,56,39,207,933,10.0,4-20,major
49644,57,39,628,1339,2.0,3-7A,minor
49645,60,42,343,923,2.0,3-11A,minor
49646,53,27,387,3845,2.0,2-5,other
49647,55,36,239,965,7.0,3-11A,minor
49648,57,42,383,1968,7.0,5-29A,major
49649,60,38,256,949,2.0,5-35,minor
49650,62,31,1720,822,2.0,5-35,minor
49651,76,70,189,72,2.0,5-35,minor
49652,67,66,1477,94,9.0,2-6,other
49653,77,80,384,29,9.0,2-6,other
49654,77,89,305,557,9.0,2-6,other
49655,77,80,285,582,9.0,2-6,other
49656,77,61,543,573,9.0,2-6,other
49657,53,32,106,1183,4.0,2-6,other
49658,60,50,662,598,4.0,2-6,other
49659,62,40,127,570,4.0,2-6,other
49660,74,58,127,45,4.0,2-6,other
49661,69,37,3279,803,5.0,4-11A,other
49662,59,45,178,466,5.0,4-11A,other
49663,58,36,82,272,5.0,4-11A,other
49664,57,31,230,161,5.0,4-11A,other
49665,56,44,232,252,5.0,4-11A,other
49666,55,29,2399,304,5.0,4-11A,other
49667,61,13,844,1083,5.0,4-11A,other
49668,70,40,493,1134,5.0,4-11A,other
49669,55,43,100,1057,9.0,2-2,other
49670,64,55,378,838,0.0,2-1,other
49671,50,54,549,484,10.0,2-5,other
49672,60,38,644,1924,10.0,4-19B,other
49673,48,77,697,2697,7.0,2-2,other
49674,49,77,1459,645,7.0,2-2,other
49675,51,69,599,666,7.0,2-2,other
49676,52,49,296,779,7.0,2-3,minor
49677,58,45,2847,1854,1.0,3-11A,minor
49678,65,48,533,3654,0.0,2-4,other
49679,44,45,255,440,0.0,2-1,other
49680,53,35,328,368,0.0,2-1,other
49681,56,32,1783,345,0.0,2-1,other
49682,60,15,308,418,3.0,2-5,other
49683,65,39,133,211,3.0,2-5,other
49684,72,47,157,44,3.0,2-5,other
49685,80,59,703,416,3.0,2-5,other
49686,60,31,578,37,3.0,2-5,other
49687,44,42,187,1750,1.0,3-9,other
49688,56,23,1806,674,5.0,3-11A,other
49689,60,24,502,474,3.0,2-5,other
49690,65,36,110,169,3.0,2-5,other
49691,65,38,278,1770,3.0,2-5,other
49692,63,42,452,388,3.0,2-5,other
49693,60,42,481,362,3.0,2-5,other
49694,41,36,881,837,7.0,2-4,major
49695,48,42,419,507,7.0,2-4,major
49696,56,52,1018,958,7.0,2-5,other
49697,59,36,343,568,7.0,2-5,other
49698,62,36,344,402,7.0,2-5,other
49699,65,38,222,343,11.0,2-3,minor
49700,77,49,65,44,11.0,2-3,minor
49701,80,45,128,1595,5.0,1-1,other
49702,92,38,244,38,5.0,1-1,other
49703,95,48,241,333,5.0,1-1,other
49704,98,45,238,370,5.0,1-1,other
49705,100,46,289,339,5.0,1-1,other
49706,100,35,353,758,7.0,2-2,other
49707,84,94,455,0,,,
49708,82,60,609,502,,,
49709,58,33,696,1257,9.0,2-5,other
49710,62,39,515,639,9.0,2-5,other
49711,74,55,188,494,9.0,2-5,other
49712,81,62,739,243,9.0,2-5,other
49713,70,74,2406,236,9.0,2-5,other
49714,69,62,627,252,9.0,2-5,other
49715,74,61,2068,295,9.0,2-5,other
49716,81,53,824,316,9.0,2-5,other
49717,67,41,973,434,9.0,2-5,other
49718,79,46,447,504,9.0,2-5,other
49719,77,60,1380,442,9.0,2-5,other
49720,70,50,575,384,9.0,2-5,other
49721,72,32,551,569,9.0,2-5,other
49722,45,32,471,49,9.0,2-5,other
49723,73,60,1664,446,9.0,2-5,other
49724,70,62,1138,457,9.0,2-5,other
49725,61,35,2635,36,9.0,2-5,other
49726,67,54,694,545,9.0,2-5,other
49727,64,31,1661,32,9.0,2-5,other
49728,69,77,384,593,9.0,2-5,other
49729,76,92,1000,489,9.0,2-5,other
49730,67,62,1135,639,9.0,2-5,other
49731,66,48,519,617,9.0,2-5,other
49732,77,65,332,955,2.0,2-3,minor
49733,57,24,860,35,2.0,2-3,minor
49734,64,55,363,351,2.0,2-3,minor
49735,63,56,546,385,2.0,2-3,minor
49736,59,39,1005,819,2.0,2-1,other
49737,63,80,382,424,2.0,2-1,other
49738,58,51,609,1925,5.0,3-6,major
49739,41,48,143,1200,11.0,2-5,other
49740,62,42,677,599,6.0,3-10,other
49741,71,8,322,388,6.0,3-10,other
49742,57,22,1082,446,2.0,1-1,other
49743,75,57,648,936,2.0,1-1,other
49744,51,37,910,30,2.0,1-1,other
49745,46,35,587,922,4.0,2-3,minor
49746,53,54,457,524,5.0,2-4,major
49747,84,66,457,2372,2.0,3-7A,minor
49748,53,41,963,29,2.0,3-7A,minor
49749,84,57,430,643,2.0,3-7A,minor
49750,72,29,850,99,2.0,3-7A,minor
49751,65,32,668,1295,5.0,3-12,augmented
49752,73,13,2398,56,5.0,3-12,augmented
49753,61,27,2616,1936,0.0,2-3,minor
49754,73,28,866,682,0.0,2-3,minor
49755,65,31,1749,45,0.0,2-3,minor
49756,82,81,502,683,0.0,2-3,minor
49757,77,68,1302,495,0.0,2-3,minor
49758,79,53,1167,1139,0.0,2-3,minor
49759,60,41,314,1780,9.0,1-1,other
49760,63,56,2625,321,9.0,1-1,other
49761,67,61,232,269,9.0,1-1,other
49762,72,57,195,259,9.0,1-1,other
49763,75,69,90,239,9.0,1-1,other
49764,79,71,97,237,9.0,1-1,other
49765,84,96,170,262,9.0,1-1,other
49766,87,84,193,275,9.0,1-1,other
49767,91,53,130,628,9.0,1-1,other
49768,96,72,142,236,9.0,1-1,other
49769,99,82,156,225,9.0,1-1,other
49770,100,65,103,34,9.0,1-1,other
49771,102,76,199,433,5.0,2-1,other
49772,103,65,196,270,5.0,2-1,other
49773,104,44,287,302,5.0,2-1,other
49774,60,24,804,394,2.0,2-5,other
49775,89,73,503,563,2.0,2-5,other
49776,87,64,353,495,2.0,2-5,other
49777,86,77,268,314,2.0,2-5,other
49778,84,71,179,246,2.0,2-5,other
49779,78,52,205,208,2.0,2-5,other
49780,77,44,195,230,2.0,2-5,other
49781,75,57,214,217,2.0,2-5,other
49782,74,49,326,266,2.0,2-2,other
49783,54,33,1601,318,2.0,2-2,other
49784,72,26,294,33,2.0,2-2,other
49785,70,42,996,409,2.0,2-2,other
49786,69,53,242,1026,2.0,2-2,other
49787,70,68,101,245,2.0,2-2,other
49788,74,62,111,225,2.0,2-2,other
49789,78,53,85,234,2.0,2-2,other
49790,81,67,107,218,2.0,2-2,other
49791,84,88,148,193,2.0,2-2,other
49792,43,53,69,176,2.0,2-2,other
49793,82,69,177,44,2.0,2-2,other
49794,78,43,108,235,2.0,2-2,other
49795,78,37,96,429,9.0,1-1,other
49796,62,33,239,228,7.0,2-3,minor
49797,78,57,162,209,7.0,2-3,minor
49798,77,56,213,217,7.0,2-3,minor
49799,75,62,177,226,7.0,2-3,minor
49800,77,57,197,240,7.0,2-3,minor
49801,75,45,170,246,0.0,2-2,other
49802,76,64,205,222,0.0,2-2,other
49803,73,52,243,225,0.0,2-2,other
49804,72,37,266,240,0.0,2-2,other
49805,70,42,240,297,0.0,2-2,other
49806,69,41,299,284,0.0,2-2,other
49807,67,39,410,337,0.0,2-2,other
49808,45,36,338,415,0.0,2-2,other
49809,70,50,553,51,0.0,2-2,other
49810,67,73,296,552,0.0,2-2,other
49811,60,35,1457,345,5.0,3-12,augmented
49812,55,32,1464,32,5.0,3-12,augmented
49813,70,81,235,206,5.0,3-12,augmented
49814,72,65,339,285,5.0,3-12,augmented
49815,73,60,221,311,5.0,3-12,augmented
49816,81,62,302,660,5.0,1-1,other
49817,83,50,393,711,5.0,2-5,other
49818,84,49,493,429,5.0,2-5,other
49819,60,37,762,2298,2.0,2-2,other
49820,57,27,313,734,2.0,2-2,other
49821,63,57,367,1303,4.0,5-24A,minor
49822,62,52,1123,431,4.0,5-24A,minor
49823,61,76,208,1542,4.0,5-24A,minor
49824,62,76,187,222,4.0,5-24A,minor
49825,65,81,203,245,4.0,5-24A,minor
49826,67,79,188,237,4.0,5-24A,minor
49827,65,65,226,245,4.0,5-24A,minor
49828,67,31,62,52,4.0,5-24A,minor
49829,64,66,234,345,7.0,2-2,other
49830,63,51,446,363,7.0,2-2,other
49831,62,81,509,1415,11.0,2-3,minor
49832,65,80,404,436,11.0,2-3,minor
49833,67,69,534,450,11.0,2-3,minor
49834,36,57,3511,773,11.0,2-3,minor
49835,69,61,60,830,6.0,2-3,minor
49836,81,45,133,41,6.0,2-3,minor
49837,74,54,117,344,6.0,2-3,minor
49838,86,70,103,83,6.0,2-3,minor
49839,81,42,335,439,6.0,2-3,minor
49840,93,61,392,56,6.0,2-3,minor
49841,81,40,2144,489,6.0,2-3,minor
49842,93,60,486,74,6.0,2-3,minor
49843,91,54,354,493,6.0,2-3,minor
49844,91,68,951,542,6.0,2-3,minor
49845,72,71,413,1433,6.0,2-3,minor
49846,72,64,414,819,6.0,2-3,minor
49847,65,45,550,59,10.0,4-11A,major
49848,72,51,306,505,10.0,4-11A,major
49849,60,10,372,1419,7.0,2-3,minor
49850,58,31,1792,2120,10.0,5-30B,augmented
49851,62,48,2304,348,10.0,5-30B,augmented
49852,67,66,101,223,10.0,5-30B,augmented
49853,69,80,115,208,10.0,5-30B,augmented
49854,69,90,324,346,10.0,5-30B,augmented
49855,70,59,150,334,10.0,5-30B,augmented
49856,69,57,128,135,10.0,5-30B,augmented
49857,67,61,95,166,10.0,5-30B,augmented
49858,69,95,185,167,10.0,5-30B,augmented
49859,70,59,181,177,10.0,5-30B,augmented
49860,69,55,145,136,10.0,5-30B,augmented
49861,67,62,99,168,10.0,5-30B,augmented
49862,61,37,2675,674,9.0,2-2,other
49863,84,72,1469,414,9.0,2-2,other
49864,73,46,1155,379,9.0,2-2,other
49865,64,20,1186,576,9.0,2-2,other
49866,72,36,484,596,9.0,2-2,other
49867,70,55,363,500,9.0,2-2,other
49868,71,27,241,62,9.0,2-2,other
49869,65,58,297,254,9.0,2-2,other
49870,69,74,442,329,9.0,2-2,other
49871,67,74,325,365,9.0,2-2,other
49872,57,33,1157,969,2.0,3-7A,minor
49873,64,66,282,448,2.0,3-7A,minor
49874,65,73,269,312,2.0,3-7A,minor
49875,65,74,220,341,2.0,3-7A,minor
49876,67,72,219,260,2.0,3-7A,minor
49877,59,26,1196,345,1.0,2-6,other
49878,68,69,250,253,1.0,2-6,other
49879,68,63,598,355,1.0,2-6,other
49880,56,26,621,33,1.0,2-6,other
49881,70,68,283,299,1.0,2-6,other
49882,71,66,366,834,0.0,2-2,other
49883,55,33,823,72,0.0,2-2,other
49884,71,54,789,386,0.0,2-2,other
49885,58,35,246,32,0.0,2-2,other
49886,72,51,258,397,0.0,2-2,other
49887,62,34,1082,498,6.0,4-28,diminished
49888,73,58,297,470,6.0,4-28,diminished
49889,75,64,395,880,9.0,2-4,major
49890,77,75,369,1344,5.0,2-4,major
49891,84,90,488,803,2.0,2-2,other
49892,74,64,331,393,2.0,2-2,other
49893,53,42,450,27,2.0,2-2,other
49894,89,80,332,888,2.0,2-2,other
49895,85,73,342,760,3.0,1-1,other
49896,55,30,2432,443,5.0,3-4A,other
49897,82,46,471,441,5.0,3-4A,other
49898,82,44,280,1013,5.0,3-12,augmented
49899,84,57,163,416,5.0,3-12,augmented
49900,91,56,130,481,5.0,3-12,augmented
49901,96,57,138,231,5.0,3-12,augmented
49902,99,74,147,214,5.0,3-12,augmented
49903,103,68,172,186,9.0,2-6,other
49904,96,62,91,274,0.0,2-3,minor
49905,93,41,75,124,0.0,2-3,minor
49906,92,50,119,135,0.0,2-3,minor
49907,91,47,57,138,0.0,2-3,minor
49908,90,51,132,80,0.0,2-3,minor
49909,89,34,54,160,0.0,2-3,minor
49910,88,47,83,80,0.0,2-3,minor
49911,87,57,83,134,0.0,2-3,minor
49912,91,68,137,143,0.0,2-3,minor
49913,87,42,123,118,0.0,2-3,minor
49914,84,24,43,141,0.0,2-3,minor
49915,81,36,65,92,0.0,2-3,minor
49916,80,29,88,153,0.0,2-3,minor
49917,79,38,53,114,0.0,2-3,minor
49918,78,42,82,87,0.0,2-3,minor
49919,77,48,90,110,0.0,2-3,minor
49920,76,28,47,142,0.0,2-3,minor
49921,75,48,140,70,0.0,2-3,minor
49922,50,27,428,144,0.0,2-3,minor
49923,54,26,56,444,2.0,2-2,other
49924,65,35,1428,668,2.0,2-2,other
49925,60,1,1532,26,2.0,2-2,other
49926,77,36,1412,352,2.0,2-2,other
49927,84,51,415,419,2.0,2-2,other
49928,82,38,483,496,2.0,2-2,other
49929,81,53,494,496,2.0,2-2,other
49930,82,47,419,1198,2.0,2-5,other
49931,57,46,377,35,2.0,2-5,other
49932,67,53,358,1373,10.0,2-1,other
49933,65,44,353,498,10.0,2-1,other
49934,64,40,269,522,10.0,2-1,other
49935,60,46,473,1070,7.0,2-5,other
49936,59,54,473,469,7.0,2-5,other
49937,58,49,191,489,7.0,2-5,other
49938,63,75,172,1330,7.0,2-5,other
49939,72,81,281,444,7.0,2-5,other
49940,45,27,895,1223,9.0,2-4,major
49941,55,38,1417,487,9.0,2-4,major
49942,60,31,346,2982,9.0,4-22B,minor
49943,62,71,132,1898,0.0,2-1,other
49944,65,87,162,196,0.0,2-1,other
49945,67,84,210,228,0.0,2-1,other
49946,65,72,112,243,0.0,2-1,other
49947,69,66,165,518,8.0,2-6,other
49948,65,53,161,252,8.0,2-6,other
49949,62,58,181,221,8.0,2-6,other
49950,62,20,1853,236,8.0,2-6,other
49951,50,30,1776,557,7.0,2-2,other
49952,57,36,549,594,7.0,2-2,other
49953,53,29,1297,33,7.0,2-2,other
49954,60,50,89,771,7.0,2-2,other
49955,61,67,105,40,7.0,2-2,other
49956,62,47,105,120,7.0,2-2,other
49957,67,85,357,394,2.0,2-3,minor
49958,65,64,140,267,2.0,2-3,minor
49959,62,52,272,862,2.0,2-5,other
49960,59,51,148,320,2.0,2-5,other
49961,58,44,1033,454,2.0,2-5,other
49962,36,36,3734,36,2.0,2-5,other
49963,43,29,3265,509,2.0,2-5,other
49964,77,92,109,2420,0.0,2-5,other
49965,75,82,109,423,0.0,2-5,other
49966,70,76,154,407,0.0,2-5,other
49967,71,59,137,142,0.0,2-5,other
49968,70,47,94,116,0.0,2-5,other
49969,68,37,93,134,0.0,2-5,other
49970,65,56,61,115,0.0,2-5,other
49971,70,75,181,151,0.0,2-5,other
49972,68,55,112,287,0.0,2-5,other
49973,65,65,98,188,0.0,2-5,other
49974,61,69,61,219,0.0,2-5,other
49975,59,56,44,594,10.0,2-5,other
49976,58,67,122,213,10.0,2-5,other
49977,53,58,53,156,10.0,2-5,other
49978,53,62,47,285,10.0,2-4,major
49979,53,61,93,468,9.0,2-3,minor
49980,41,15,545,67,9.0,2-3,minor
49981,48,47,90,120,9.0,2-3,minor
49982,46,54,238,149,9.0,2-3,minor
49983,53,38,50,197,9.0,2-3,minor
49984,44,56,177,246,9.0,2-3,minor
49985,45,36,375,208,5.0,1-1,other
49986,41,39,161,493,5.0,1-1,other
49987,60,87,143,999,5.0,1-1,other
49988,62,108,184,302,5.0,1-1,other
49989,62,113,298,350,5.0,1-1,other
49990,60,83,161,331,5.0,1-1,other
49991,60,50,82,443,5.0,1-1,other
49992,61,71,81,29,5.0,1-1,other
49993,62,66,280,87,5.0,1-1,other
49994,65,80,228,229,5.0,1-1,other
49995,67,80,211,302,5.0,1-1,other
49996,48,36,898,997,5.0,1-1,other
49997,57,44,617,439,5.0,1-1,other
49998,67,80,191,367,5.0,1-1,other
49999,69,87,189,507,5.0,1-1,other
50000,70,69,89,240,5.0,1-1,other
50001,72,60,128,137,5.0,1-1,other
50002,74,60,118,131,5.0,1-1,other
50003,75,68,53,111,5.0,1-1,other
50004,77,54,133,109,5.0,1-1,other
50005,79,57,126,113,5.0,1-1,other
50006,81,49,80,99,5.0,1-1,other
50007,82,52,38,81,5.0,1-1,other
50008,84,62,81,118,5.0,1-1,other
50009,86,62,107,115,5.0,1-1,other
50010,87,35,58,92,5.0,1-1,other
50011,88,46,79,78,5.0,1-1,other
50012,58,43,1389,157,5.0,2-2,other
50013,87,56,269,355,5.0,2-2,other
50014,79,46,246,300,5.0,2-2,other
50015,84,66,161,314,5.0,2-2,other
50016,63,30,596,928,0.0,1-1,other
50017,72,35,322,466,0.0,1-1,other
50018,84,82,195,365,0.0,1-1,other
50019,72,61,834,465,0.0,4-23,minor
50020,84,75,233,481,0.0,4-23,minor
50021,60,27,878,105,0.0,4-23,minor
50022,87,70,367,1348,2.0,1-1,other
50023,58,49,154,624,3.0,4-20,major
50024,55,55,81,968,3.0,3-4A,major
50025,61,60,644,1110,5.0,2-4,major
50026,60,35,600,784,5.0,2-4,major
50027,74,85,565,1307,5.0,2-4,major
50028,75,33,141,499,5.0,2-4,major
50029,76,68,131,121,5.0,2-4,major
50030,77,78,170,167,5.0,2-4,major
50031,75,79,1436,336,5.0,2-4,major
50032,46,42,496,26,5.0,2-4,major
50033,55,38,559,493,11.0,2-5,other
50034,74,58,1254,1531,2.0,3-3A,major
50035,54,35,2069,526,10.0,2-4,major
50036,57,32,1308,691,2.0,2-4,major
50037,65,60,477,895,2.0,2-4,major
50038,66,62,629,437,2.0,2-4,major
50039,67,54,1415,642,2.0,2-4,major
50040,27,45,400,37,2.0,2-4,major
50041,55,30,1080,1135,2.0,2-4,major
50042,61,25,997,184,2.0,2-4,major
50043,69,58,60,327,8.0,2-3,other
50044,70,48,50,145,8.0,2-3,other
50045,72,36,67,134,8.0,2-3,other
50046,73,32,65,134,8.0,2-3,other
50047,75,36,39,138,8.0,2-3,other
50048,76,26,53,126,8.0,2-3,other
50049,78,31,44,130,8.0,2-3,other
50050,79,36,84,125,8.0,2-3,other
50051,81,45,134,126,8.0,2-3,other
50052,82,31,65,142,8.0,2-3,other
50053,83,27,112,102,8.0,2-3,other
50054,84,53,43,147,8.0,2-3,other
50055,55,7,94,1057,8.0,2-3,other
50056,61,37,120,230,8.0,2-3,other
50057,65,47,55,410,8.0,2-3,other
50058,84,80,115,282,8.0,2-3,other
50059,73,60,163,264,8.0,2-3,other
50060,72,52,159,246,8.0,2-3,other
50061,70,67,179,258,8.0,2-3,other
50062,69,57,185,263,8.0,2-3,other
50063,70,55,234,232,8.0,2-3,other
50064,41,41,571,254,8.0,2-3,other
50065,69,49,1232,30,8.0,2-3,other
50066,48,42,249,474,8.0,2-3,other
50067,57,50,157,380,8.0,2-3,other
50068,60,47,574,401,8.0,2-3,other
50069,69,74,393,1012,5.0,3-4A,major
50070,70,80,523,445,5.0,3-4A,major
50071,72,54,501,533,5.0,3-4A,major
50072,67,62,513,1525,9.0,4-27B,major
50073,52,26,1122,593,10.0,3-11A,other
50074,64,58,267,949,10.0,3-11A,other
50075,67,78,1039,287,10.0,3-11A,other
50076,65,60,423,1036,10.0,3-11A,other
50077,50,30,3583,31,10.0,3-11A,other
50078,57,46,3455,525,10.0,3-11A,other
50079,77,80,490,27,10.0,3-11A,other
50080,79,70,338,1640,10.0,3-11A,other
50081,77,57,500,577,0.0,2-2,other
50082,69,39,875,28,0.0,2-2,other
50083,74,57,684,477,0.0,2-2,other
50084,54,39,5782,1186,2.0,4-15B,other
50085,60,48,5550,229,2.0,4-15B,other
50086,65,58,95,169,2.0,4-15B,other
50087,66,53,135,99,2.0,4-15B,other
50088,68,35,53,121,2.0,4-15B,other
50089,70,52,37,69,2.0,4-15B,other
50090,72,43,79,102,2.0,4-15B,other
50091,73,40,87,128,2.0,4-15B,other
50092,74,64,107,261,2.0,4-15B,other
50093,75,57,100,213,2.0,4-15B,other
50094,77,48,107,170,2.0,4-15B,other
50095,78,48,112,142,2.0,4-15B,other
50096,80,56,77,163,2.0,4-15B,other
50097,82,44,37,154,2.0,4-15B,other
50098,84,58,50,144,2.0,4-15B,other
50099,85,40,47,176,2.0,4-15B,other
50100,86,37,69,186,2.0,4-15B,other
50101,89,58,198,518,2.0,4-15B,other
50102,94,77,198,272,2.0,4-15B,other
50103,96,87,262,294,2.0,4-15B,other
50104,92,75,282,301,2.0,4-15B,other
50105,93,85,395,363,2.0,4-15B,other
50106,90,76,373,426,2.0,4-15B,other
50107,89,68,315,421,2.0,4-15B,other
50108,87,80,434,841,4.0,2-1,other
50109,86,78,423,464,4.0,2-1,other
50110,65,31,638,488,9.0,3-7A,minor
50111,81,60,200,494,9.0,3-7A,minor
50112,60,36,756,49,9.0,3-7A,minor
50113,69,68,2392,2152,5.0,3-11B,major
50114,65,64,371,349,5.0,3-11B,major
50115,63,53,470,905,7.0,2-2,other
50116,62,46,755,535,7.0,2-2,other
50117,62,53,165,1042,0.0,2-1,other
50118,67,88,228,438,2.0,2-3,minor
50119,62,83,173,239,2.0,2-3,minor
50120,65,94,235,264,2.0,2-3,minor
50121,67,83,290,275,2.0,2-3,minor
50122,65,75,332,315,2.0,2-3,minor
50123,67,68,952,323,2.0,2-3,minor
50124,58,36,472,1452,10.0,3-6,major
50125,62,75,326,493,10.0,3-6,major
50126,65,81,374,354,10.0,3-6,major
50127,67,80,301,405,10.0,3-6,major
50128,69,92,338,391,10.0,3-6,major
50129,70,84,739,394,10.0,3-6,major
50130,67,66,437,467,10.0,3-6,major
50131,69,81,331,385,10.0,3-6,major
50132,70,76,197,296,10.0,3-6,major
50133,72,60,158,221,10.0,3-6,major
50134,74,64,147,162,10.0,3-6,major
50135,75,71,98,145,10.0,3-6,major
50136,77,54,169,145,10.0,3-6,major
50137,79,48,143,158,0.0,4-20,other
50138,80,47,122,122,0.0,4-20,other
50139,82,46,41,129,0.0,4-20,other
50140,84,31,62,129,0.0,4-20,other
50141,86,66,56,112,0.0,4-20,other
50142,87,49,38,92,0.0,4-20,other
50143,89,46,124,101,0.0,4-20,other
50144,91,44,113,134,0.0,4-20,other
50145,92,49,105,59,0.0,4-20,other
50146,94,56,58,112,0.0,4-20,other
50147,67,40,631,178,0.0,3-8B,other
50148,98,44,114,129,0.0,3-8B,other
50149,99,45,38,168,0.0,3-8B,other
50150,101,57,109,129,0.0,3-8B,other
50151,103,51,97,163,0.0,3-8B,other
50152,105,54,92,148,0.0,3-8B,other
50153,106,51,129,170,0.0,3-8B,other
50154,107,64,146,149,0.0,3-8B,other
50155,108,74,129,220,0.0,3-8B,other
50156,106,73,191,204,0.0,3-8B,other
50157,104,73,180,246,0.0,3-8B,other
50158,105,76,227,211,0.0,3-8B,other
50159,102,64,264,252,0.0,3-8B,other
50160,103,68,264,275,10.0,4-16A,major
50161,100,64,304,261,10.0,4-16A,major
50162,102,72,320,270,10.0,4-16A,major
50163,98,80,277,312,10.0,4-16A,major
50164,101,80,675,263,10.0,4-16A,major
50165,100,88,255,256,10.0,4-16A,major
50166,97,78,286,243,10.0,4-16A,major
50167,96,82,162,254,10.0,4-16A,major
50168,94,76,221,238,10.0,4-16A,major
50169,91,54,276,570,1.0,3-10,other
50170,90,58,301,280,1.0,3-10,other
50171,89,47,287,290,1.0,3-10,other
50172,88,46,364,343,1.0,3-10,other
50173,85,60,262,347,1.0,3-10,other
50174,84,60,201,341,1.0,3-10,other
50175,82,57,237,276,1.0,3-10,other
50176,81,69,201,287,1.0,3-10,other
50177,79,63,120,205,1.0,3-10,other
50178,77,50,218,175,1.0,3-10,other
50179,76,53,111,212,1.0,3-10,other
50180,76,46,105,344,7.0,2-5,other
50181,77,54,156,182,7.0,2-5,other
50182,57,28,1084,154,7.0,2-5,other
50183,74,56,115,51,7.0,2-5,other
50184,69,47,115,186,7.0,2-5,other
50185,62,26,92,77,7.0,2-5,other
50186,65,35,182,150,7.0,2-5,other
50187,62,44,514,234,7.0,2-5,other
50188,80,70,247,1069,1.0,2-3,other
50189,75,60,150,184,1.0,2-3,other
50190,71,43,134,169,1.0,2-3,other
50191,70,55,109,178,1.0,2-3,other
50192,69,42,107,202,1.0,2-3,other
50193,68,25,154,204,1.0,2-3,other
50194,67,40,51,221,1.0,2-3,other
50195,82,69,129,440,2.0,2-2,other
50196,79,61,106,186,2.0,2-2,other
50197,75,53,118,158,2.0,2-2,other
50198,74,48,132,211,2.0,2-2,other
50199,73,38,164,189,2.0,2-2,other
50200,58,20,59,46,2.0,2-2,other
50201,72,24,50,174,2.0,2-2,other
50202,41,54,326,266,2.0,2-2,other
50203,89,64,249,1214,9.0,2-6,other
50204,87,64,296,281,9.0,2-6,other
50205,84,56,271,312,9.0,2-6,other
50206,85,70,176,217,9.0,2-6,other
50207,86,84,164,239,9.0,2-6,other
50208,88,74,201,440,3.0,2-1,other
50209,89,73,184,241,3.0,2-1,other
50210,86,69,208,238,3.0,2-1,other
50211,65,30,112,31,3.0,2-1,other
50212,53,42,746,351,2.0,2-2,other
50213,84,62,116,388,2.0,2-2,other
50214,65,50,295,912,2.0,2-2,other
50215,70,61,318,338,2.0,2-2,other
50216,69,38,1156,427,5.0,4-11A,other
50217,46,39,279,299,5.0,4-11A,other
50218,55,22,154,330,5.0,4-11A,other
50219,57,42,296,255,5.0,4-11A,other
50220,58,33,378,380,5.0,4-11A,other
50221,69,24,65,54,5.0,4-11A,other
50222,58,34,360,707,5.0,2-4,major
50223,60,31,920,1064,9.0,3-8B,other
50224,51,37,720,608,9.0,3-8B,other
50225,57,51,55,400,9.0,3-8B,other
50226,60,57,101,190,9.0,3-8B,other
50227,63,51,37,175,9.0,3-8B,other
50228,67,71,69,162,9.0,3-8B,other
50229,72,66,115,159,9.0,3-8B,other
50230,75,68,77,166,9.0,3-8B,other
50231,79,66,88,183,9.0,3-8B,other
50232,84,71,85,191,9.0,3-8B,other
50233,87,69,113,159,9.0,3-8B,other
50234,89,74,81,206,9.0,3-8B,other
50235,87,65,124,204,9.0,3-8B,other
50236,54,35,70,79,9.0,3-8B,other
50237,78,52,113,116,9.0,3-8B,other
50238,77,32,141,232,9.0,3-8B,other
50239,75,39,198,212,9.0,3-8B,other
50240,54,25,2357,95,9.0,3-8B,other
50241,64,12,1342,57,9.0,3-8B,other
50242,74,37,468,72,9.0,3-8B,other
50243,60,1,1899,215,9.0,3-8B,other
50244,77,52,446,260,9.0,3-8B,other
50245,69,46,382,350,9.0,3-8B,other
50246,75,68,436,374,9.0,3-8B,other
50247,66,68,255,850,7.0,2-1,other
50248,63,53,358,412,7.0,2-1,other
50249,54,19,536,33,7.0,2-1,other
50250,58,57,694,1284,0.0,2-5,other
50251,50,30,1606,29,0.0,2-5,other
50252,57,60,387,485,0.0,2-5,other
50253,58,70,188,458,0.0,2-5,other
50254,53,32,436,567,10.0,2-4,major
50255,57,55,608,494,10.0,3-11B,major
50256,60,45,317,525,2.0,3-11A,minor
50257,73,35,247,1812,4.0,4-18A,diminished
50258,64,60,246,3483,7.0,2-3,minor
50259,45,27,1380,750,1.0,4-27B,other
50260,64,71,144,440,1.0,4-27B,other
50261,49,42,455,27,1.0,4-27B,other
50262,72,71,307,850,1.0,3-10,diminished
50263,55,40,148,48,1.0,3-10,diminished
50264,70,62,568,1057,5.0,4-19B,other
50265,69,66,235,497,5.0,4-19B,other
50266,70,62,238,308,5.0,4-19B,other
50267,60,27,1877,446,2.0,3-11A,minor
50268,57,37,1328,501,2.0,3-11A,minor
50269,64,58,354,533,2.0,3-11A,minor
50270,63,46,588,520,2.0,3-11A,minor
50271,65,54,627,1360,2.0,2-2,other
50272,60,18,785,834,6.0,1-1,other
50273,69,51,569,642,6.0,1-1,other
50274,53,25,1058,1066,4.0,4-22B,minor
50275,77,46,70,2187,2.0,1-1,other
50276,53,26,89,30,2.0,1-1,other
50277,82,51,508,1371,0.0,1-1,other
50278,58,33,459,28,0.0,1-1,other
50279,81,54,222,505,0.0,1-1,other
50280,57,45,234,28,0.0,1-1,other
50281,82,56,180,225,0.0,1-1,other
50282,58,39,145,32,0.0,1-1,other
50283,80,59,420,1629,9.0,1-1,other
50284,56,32,199,39,9.0,1-1,other
50285,58,39,587,934,0.0,2-5,other
50286,60,32,92,277,0.0,2-5,other
50287,61,47,159,159,0.0,2-5,other
50288,63,57,94,152,0.0,2-5,other
50289,64,58,95,143,0.0,2-5,other
50290,66,52,93,147,0.0,2-5,other
50291,67,59,136,132,0.0,2-5,other
50292,69,54,120,160,0.0,2-5,other
50293,70,59,98,146,0.0,2-5,other
50294,72,42,109,160,0.0,2-5,other
50295,73,29,100,170,0.0,2-5,other
50296,75,44,115,164,0.0,2-5,other
50297,76,33,179,192,0.0,2-5,other
50298,78,39,135,327,0.0,2-5,other
50299,79,49,126,195,0.0,2-5,other
50300,81,61,97,187,0.0,2-5,other
50301,82,69,139,193,0.0,2-5,other
50302,84,72,146,198,0.0,2-5,other
50303,78,52,237,225,0.0,2-5,other
50304,76,35,248,252,0.0,2-5,other
50305,81,62,254,270,0.0,2-5,other
50306,79,55,313,253,0.0,2-5,other
50307,73,44,233,236,0.0,2-5,other
50308,72,36,180,245,0.0,2-5,other
50309,70,49,230,231,0.0,2-5,other
50310,69,54,237,267,0.0,2-2,other
50311,72,51,221,269,0.0,2-2,other
50312,70,56,455,291,0.0,2-2,other
50313,66,49,299,283,0.0,2-2,other
50314,64,41,324,287,0.0,2-2,other
50315,69,61,270,267,0.0,2-2,other
50316,67,61,1095,283,0.0,2-2,other
50317,63,68,602,303,0.0,2-2,other
50318,61,56,287,322,0.0,2-2,other
50319,60,69,330,340,0.0,2-2,other
50320,58,71,331,359,0.0,2-2,other
50321,57,73,594,411,0.0,2-2,other
50322,55,80,461,448,0.0,2-2,other
50323,53,81,583,492,0.0,2-2,other
50324,52,62,456,517,0.0,2-2,other
50325,79,47,365,4174,5.0,1-1,other
50326,74,47,330,35,5.0,1-1,other
50327,58,21,284,4959,10.0,4-16A,major
50328,81,103,144,215,10.0,4-16A,major
50329,82,77,115,294,10.0,4-16A,major
50330,84,99,188,287,10.0,4-16A,major
50331,55,34,1387,400,1.0,2-3,other
50332,84,45,130,247,1.0,2-3,other
50333,82,48,132,81,1.0,2-3,other
50334,81,58,125,187,1.0,2-3,other
50335,79,60,101,173,1.0,2-3,other
50336,77,76,187,361,1.0,2-3,other
50337,76,54,154,258,1.0,2-3,other
50338,79,71,192,260,1.0,2-3,other
50339,76,51,118,232,1.0,2-3,other
50340,74,59,153,467,2.0,3-7A,minor
50341,67,52,299,262,2.0,3-7A,minor
50342,62,91,318,1874,0.0,2-2,other
50343,63,73,210,334,0.0,2-2,other
50344,65,56,132,252,0.0,2-2,other
50345,66,57,199,234,0.0,2-2,other
50346,68,62,259,248,0.0,2-2,other
50347,70,59,127,531,2.0,2-2,other
50348,71,75,183,231,2.0,2-2,other
50349,72,72,182,243,2.0,2-2,other
50350,65,46,138,520,5.0,2-4,major
50351,62,40,165,203,5.0,2-4,major
50352,61,57,215,232,5.0,2-4,major
50353,60,49,1411,257,5.0,2-4,major
50354,65,62,234,1385,3.0,2-5,other
50355,70,69,287,283,3.0,2-5,other
50356,55,25,1146,334,0.0,3-11A,minor
50357,57,24,1075,55,0.0,3-11A,minor
50358,72,49,212,215,0.0,3-11A,minor
50359,75,80,142,278,0.0,3-11A,minor
50360,79,74,120,311,0.0,3-11A,minor
50361,84,96,140,298,0.0,3-11A,minor
50362,87,90,224,293,0.0,3-11A,minor
50363,89,80,166,320,0.0,3-11A,minor
50364,89,80,222,619,0.0,2-2,other
50365,88,80,158,336,0.0,2-2,other
50366,89,33,51,29,0.0,2-2,other
50367,87,67,256,287,0.0,2-2,other
50368,84,71,246,348,0.0,2-2,other
50369,84,80,249,637,2.0,3-11A,minor
50370,82,81,353,325,2.0,3-11A,minor
50371,78,70,219,320,2.0,3-11A,minor
50372,81,79,261,294,2.0,3-11A,minor
50373,74,64,252,646,9.0,2-2,other
50374,77,81,268,309,9.0,2-2,other
50375,75,79,260,315,9.0,2-2,other
50376,64,32,399,369,9.0,3-5B,other
50377,79,68,158,277,9.0,3-5B,other
50378,82,77,162,226,9.0,3-5B,other
50379,86,89,162,234,9.0,3-5B,other
50380,55,39,1208,265,6.0,3-5A,other
50381,60,36,1322,2054,5.0,3-8B,other
50382,86,96,164,622,6.0,2-2,other
50383,82,39,44,408,0.0,2-4,other
50384,81,58,133,195,0.0,2-4,other
50385,72,58,182,304,0.0,2-4,other
50386,77,80,208,935,4.0,2-5,other
50387,79,103,561,337,4.0,2-5,other
50388,79,65,178,1097,8.0,2-6,other
50389,77,54,174,208,8.0,2-6,other
50390,77,81,253,545,4.0,2-2,other
50391,64,38,174,44,4.0,2-2,other
50392,79,74,192,216,4.0,2-2,other
50393,77,80,1014,270,4.0,2-2,other
50394,58,33,106,449,2.0,2-5,other
50395,74,87,262,621,2.0,2-5,other
50396,70,69,244,365,2.0,2-5,other
50397,65,36,217,326,2.0,2-5,other
50398,67,83,244,301,2.0,2-5,other
50399,69,95,286,339,2.0,2-5,other
50400,70,77,197,329,2.0,2-5,other
50401,72,73,182,257,2.0,2-5,other
50402,73,49,147,202,2.0,2-5,other
50403,75,59,99,174,2.0,2-5,other
50404,76,64,128,124,2.0,2-5,other
50405,78,51,87,172,2.0,2-5,other
50406,79,51,121,150,2.0,2-5,other
50407,80,43,47,84,2.0,2-5,other
50408,81,46,205,54,2.0,2-5,other
50409,82,47,144,134,2.0,2-5,other
50410,83,44,75,142,2.0,2-5,other
50411,84,66,184,91,2.0,2-5,other
50412,82,62,1155,157,4.0,3-8B,other
50413,81,68,105,1225,4.0,3-8B,other
50414,82,60,171,122,4.0,3-8B,other
50415,81,54,257,127,4.0,3-8B,other
50416,81,65,168,537,7.0,2-2,other
50417,79,35,220,112,7.0,2-2,other
50418,77,77,156,358,7.0,2-2,other
50419,79,71,152,178,7.0,2-2,other
50420,77,57,211,142,7.0,2-2,other
50421,76,74,137,325,7.0,2-2,other
50422,77,62,195,148,7.0,2-2,other
50423,76,64,145,164,7.0,2-2,other
50424,48,38,156,2121,1.0,3-7B,other
50425,58,29,156,32,1.0,3-7B,other
50426,74,75,134,553,1.0,3-7B,other
50427,79,76,106,308,1.0,3-7B,other
50428,82,70,133,278,1.0,3-7B,other
50429,83,28,70,2085,4.0,2-3,minor
50430,65,39,1566,589,1.0,4-8,other
50431,81,34,730,403,1.0,4-8,other
50432,81,71,157,1262,1.0,4-8,other
50433,75,82,205,1666,9.0,2-3,minor
50434,74,87,269,253,9.0,2-3,minor
50435,75,52,44,28,9.0,2-3,minor
50436,72,45,177,319,6.0,3-8B,other
50437,70,76,178,273,6.0,3-8B,other
50438,69,80,284,242,6.0,3-8B,other
50439,70,73,166,224,6.0,3-8B,other
50440,72,70,363,265,6.0,3-8B,other
50441,70,77,149,302,6.0,3-8B,other
50442,53,34,1183,366,6.0,3-8B,other
50443,66,60,139,194,7.0,3-11A,minor
50444,69,74,216,196,7.0,3-11A,minor
50445,66,61,103,209,7.0,3-11A,minor
50446,67,88,207,183,7.0,3-11A,minor
50447,62,53,219,225,7.0,3-11A,minor
50448,62,60,150,321,7.0,3-11A,minor
50449,63,74,185,234,7.0,3-11A,minor
50450,63,69,211,266,7.0,3-11A,minor
50451,58,21,1207,286,0.0,2-4,major
50452,60,46,109,506,0.0,2-4,major
50453,60,34,353,482,0.0,2-4,major
50454,58,46,455,949,5.0,5-30B,other
50455,55,74,177,604,10.0,4-14A,other
50456,58,26,165,43,10.0,4-14A,other
50457,60,64,268,887,4.0,3-8A,other
50458,60,44,618,1015,6.0,2-2,other
50459,81,51,258,464,8.0,2-6,other
50460,81,42,72,710,0.0,2-2,other
50461,77,69,955,198,4.0,3-5B,other
50462,74,56,629,584,4.0,3-5B,other
50463,81,39,71,1257,4.0,4-25,other
50464,77,70,445,236,4.0,4-25,other
50465,74,65,106,1369,11.0,3-2A,minor
50466,47,43,127,32,11.0,3-2A,minor
50467,77,60,252,867,2.0,2-5,other
50468,74,51,143,257,2.0,2-5,other
50469,77,68,192,236,2.0,2-5,other
50470,79,67,159,223,2.0,2-5,other
50471,77,71,1528,233,2.0,2-5,other
50472,58,35,492,5135,3.0,3-4A,major
50473,62,40,1293,1009,3.0,3-4A,major
50474,58,18,1590,37,3.0,3-4A,major
50475,87,56,177,201,3.0,3-4A,major
50476,86,54,142,113,3.0,3-4A,major
50477,84,57,102,144,3.0,3-4A,major
50478,83,66,139,213,3.0,3-4A,major
50479,86,88,152,192,3.0,3-4A,major
50480,67,36,390,48,3.0,3-4A,major
50481,84,77,142,191,3.0,3-4A,major
50482,86,26,44,41,3.0,3-4A,major
50483,79,52,135,175,3.0,3-4A,major
50484,77,50,143,240,3.0,3-4A,major
50485,74,105,113,684,9.0,3-8B,other
50486,75,88,155,220,9.0,3-8B,other
50487,77,80,173,257,9.0,3-8B,other
50488,74,69,156,253,9.0,3-8B,other
50489,69,52,172,249,9.0,3-8B,other
50490,72,71,211,262,9.0,3-8B,other
50491,60,35,137,266,2.0,3-11A,minor
50492,55,24,221,50,2.0,3-11A,minor
50493,65,58,132,229,2.0,3-11A,minor
50494,62,65,288,204,2.0,3-11A,minor
50495,58,61,121,272,2.0,3-11A,minor
50496,60,74,248,230,2.0,3-11A,minor
50497,57,57,135,289,2.0,3-11A,minor
50498,58,57,191,211,2.0,3-11A,minor
50499,60,65,158,255,2.0,3-11A,minor
50500,61,62,87,219,2.0,3-11A,minor
50501,65,59,143,226,2.0,3-11A,minor
50502,70,52,97,209,2.0,3-11A,minor
50503,72,48,119,212,2.0,3-11A,minor
50504,77,62,139,184,2.0,3-11A,minor
50505,82,50,81,179,2.0,3-11A,minor
50506,83,57,120,167,2.0,3-11A,minor
50507,84,54,68,27,2.0,3-11A,minor
50508,88,41,124,170,2.0,3-11A,minor
50509,93,51,57,147,2.0,3-11A,minor
50510,96,75,236,140,2.0,3-11A,minor
50511,93,92,329,1607,0.0,2-5,other
50512,94,52,130,268,0.0,2-5,other
50513,95,65,119,68,0.0,2-5,other
50514,96,69,107,172,0.0,2-5,other
50515,55,28,274,124,5.0,3-4A,other
50516,93,79,126,35,5.0,3-4A,other
50517,93,73,203,2720,5.0,5-21A,major
50518,94,69,138,305,5.0,5-21A,major
50519,95,85,240,303,5.0,5-21A,major
50520,61,55,305,1887,4.0,2-3,minor
50521,84,64,191,406,9.0,4-26,minor
50522,86,30,58,654,9.0,4-26,minor
50523,77,27,128,397,9.0,2-2,other
50524,55,62,137,481,9.0,2-2,other
50525,64,51,61,30,9.0,2-2,other
50526,75,74,222,293,9.0,2-2,other
50527,60,71,878,701,4.0,5-8,major
50528,69,34,70,325,4.0,5-8,major
50529,69,68,204,319,4.0,5-8,major
50530,54,57,204,281,4.0,5-8,major
50531,53,47,249,381,4.0,4-22B,minor
50532,59,59,132,606,8.0,2-2,other
50533,50,55,91,2994,2.0,5-35,minor
50534,55,49,177,987,10.0,4-20,major
50535,65,55,519,262,10.0,3-4A,major
50536,55,50,268,628,10.0,3-4A,major
50537,58,62,151,1681,10.0,3-11B,major
50538,56,51,253,242,10.0,3-11B,major
50539,57,64,1189,325,10.0,4-16A,major
50540,60,80,264,1319,1.0,5-6A,minor
50541,70,26,47,39,1.0,5-6A,minor
50542,67,79,42,274,3.0,3-4B,other
50543,75,25,70,565,3.0,5-11A,major
50544,80,68,193,84,3.0,5-11A,major
50545,82,32,95,708,0.0,4-18A,major
50546,76,64,263,276,1.0,2-3,other
50547,71,38,173,157,1.0,2-3,other
50548,81,40,110,32,1.0,2-3,other
50549,64,30,92,293,1.0,2-3,other
50550,69,35,228,639,5.0,1-1,other
50551,70,40,461,1307,0.0,3-11A,minor
50552,54,40,287,585,0.0,3-11A,minor
50553,54,40,194,941,2.0,3-11B,major
50554,69,81,190,1021,10.0,5-27A,major
50555,70,76,192,353,10.0,5-27A,major
50556,72,66,243,288,10.0,5-27A,major
50557,69,77,290,286,10.0,5-27A,major
50558,70,67,275,358,10.0,5-27A,major
50559,72,54,253,283,10.0,5-27A,major
50560,69,64,334,335,10.0,5-27A,major
50561,55,49,584,93,5.0,3-4A,other
50562,70,62,234,251,5.0,3-4A,other
50563,72,64,291,316,5.0,3-4A,other
50564,69,64,260,326,5.0,3-4A,other
50565,72,55,227,654,9.0,2-2,other
50566,69,58,192,310,9.0,2-2,other
50567,70,68,280,290,9.0,2-2,other
50568,72,37,232,298,9.0,2-2,other
50569,74,73,260,673,6.0,3-10,other
50570,75,71,246,304,6.0,3-10,other
50571,74,90,288,365,6.0,3-10,other
50572,75,71,266,286,6.0,3-10,other
50573,77,80,237,326,6.0,3-10,other
50574,78,80,230,281,6.0,3-10,other
50575,77,27,134,729,7.0,2-5,other
50576,77,29,83,344,2.0,2-5,other
50577,69,44,111,74,2.0,2-5,other
50578,81,47,148,124,2.0,2-5,other
50579,69,44,105,146,2.0,2-5,other
50580,81,37,109,130,2.0,2-5,other
50581,77,27,64,56,2.0,2-5,other
50582,69,46,100,66,2.0,2-5,other
50583,81,32,90,128,2.0,2-5,other
50584,77,41,174,30,2.0,2-5,other
50585,69,32,240,139,2.0,2-5,other
50586,81,53,148,154,2.0,2-5,other
50587,77,38,102,55,2.0,2-5,other
50588,58,27,1130,1866,7.0,2-4,major
50589,72,31,130,193,7.0,2-4,major
50590,72,31,159,262,5.0,3-11B,major
50591,83,32,60,207,9.0,2-3,minor
50592,72,41,196,164,9.0,2-3,minor
50593,84,19,112,44,9.0,2-3,minor
50594,77,51,139,119,9.0,2-3,minor
50595,55,46,657,206,10.0,3-11A,other
50596,77,59,199,1574,6.0,2-2,other
50597,86,113,221,987,2.0,4-21,major
50598,81,27,90,775,8.0,2-6,other
50599,74,66,872,164,8.0,2-6,other
50600,77,81,154,980,4.0,3-5B,other
50601,81,44,117,667,8.0,2-6,other
50602,47,80,50,293,0.0,3-8B,other
50603,77,71,474,460,0.0,3-8B,other
50604,74,46,61,499,0.0,3-8B,other
50605,77,103,502,292,0.0,3-8B,other
50606,79,56,185,520,0.0,3-8B,other
50607,77,57,169,109,0.0,3-8B,other
50608,74,57,67,148,0.0,3-8B,other
50609,77,95,475,188,0.0,3-8B,other
50610,77,94,302,655,0.0,3-8B,other
50611,77,87,596,364,0.0,3-8B,other
50612,74,39,144,647,0.0,3-8B,other
50613,77,94,664,285,0.0,3-8B,other
50614,40,71,1455,1098,7.0,2-2,other
50615,55,75,461,553,7.0,2-2,other
50616,58,75,151,513,7.0,2-2,other
50617,62,72,338,584,7.0,2-2,other
50618,67,62,774,630,7.0,2-2,other
50619,69,68,393,637,9.0,2-2,other
50620,55,27,1966,813,10.0,3-11B,other
50621,72,80,469,1804,10.0,3-11B,other
50622,69,72,722,2133,2.0,2-5,other
50623,68,60,408,1290,1.0,2-2,other
50624,48,48,1062,541,3.0,2-4,major
50625,58,33,962,30,3.0,2-4,major
50626,67,58,760,632,3.0,2-4,major
50627,57,31,1738,889,11.0,3-11A,minor
50628,65,56,764,1094,11.0,3-11A,minor
50629,46,32,680,1165,2.0,2-3,minor
50630,57,26,576,31,2.0,2-3,minor
50631,72,68,496,545,2.0,2-3,minor
50632,53,46,105,29,2.0,2-3,minor
50633,69,78,393,531,2.0,2-3,minor
50634,70,80,232,477,5.0,3-4A,other
50635,27,37,169,636,0.0,2-3,minor
50636,77,64,488,589,0.0,2-3,minor
50637,77,39,1789,700,10.0,4-14A,other
50638,55,30,1644,27,10.0,4-14A,other
50639,84,60,1143,1796,10.0,4-14A,other
50640,63,18,906,1230,9.0,2-3,minor
50641,96,89,554,752,9.0,2-2,other
50642,93,78,614,1502,0.0,2-5,other
50643,92,59,797,1481,0.0,4-16A,major
50644,50,32,460,823,3.0,3-11A,other
50645,91,62,530,711,9.0,2-3,minor
50646,50,56,513,1200,7.0,2-5,other
50647,72,46,553,524,7.0,2-5,other
50648,70,56,578,641,5.0,2-4,major
50649,58,57,1363,31,5.0,2-4,major
50650,69,61,660,642,5.0,2-4,major
50651,70,58,650,727,2.0,3-2B,minor
50652,52,57,138,5144,9.0,2-2,other
50653,55,68,739,767,5.0,4-19B,other
50654,55,61,496,1030,5.0,4-19B,other
50655,54,44,860,988,2.0,5-27B,minor
50656,74,51,977,2335,10.0,2-5,other
50657,53,30,2103,3213,7.0,2-5,other
50658,59,57,936,62,7.0,2-5,other
50659,62,71,473,519,7.0,2-5,other
50660,67,75,435,1131,5.0,2-1,other
50661,65,51,80,45,5.0,2-1,other
50662,65,15,149,283,5.0,2-1,other
50663,59,35,2345,501,9.0,2-6,other
50664,53,31,2932,40,9.0,2-6,other
50665,64,53,624,118,9.0,2-6,other
50666,62,55,490,1833,9.0,2-6,other
50667,65,78,496,555,9.0,2-6,other
50668,67,66,1147,560,9.0,2-6,other
50669,24,35,254,2152,2.0,2-5,other
50670,36,20,148,68,2.0,2-5,other
50671,57,43,1009,943,9.0,1-1,other
50672,62,29,368,1073,2.0,1-1,other
50673,69,28,264,1376,9.0,1-1,other
50674,98,33,151,964,2.0,1-1,other
50675,72,22,203,2346,10.0,2-1,other
50676,24,30,198,1634,10.0,2-1,other
50677,60,59,2880,2179,10.0,2-1,other
50678,62,80,678,2822,10.0,2-1,other
50679,65,95,3830,966,10.0,2-1,other
50680,50,42,2181,1760,8.0,2-3,minor
50681,41,37,2098,986,8.0,2-3,minor
50682,49,33,3820,1250,7.0,2-3,minor
50683,41,39,1756,1283,7.0,2-3,minor
50684,41,44,372,2324,7.0,2-3,minor
50685,69,60,90,0,,,
50686,57,43,201,267,4.0,2-2,other
50687,65,81,83,55,4.0,2-2,other
50688,64,64,48,62,4.0,2-2,other
50689,64,63,192,66,4.0,2-2,other
50690,57,62,67,53,4.0,2-2,other
50691,50,68,464,63,4.0,2-2,other
50692,58,55,310,59,4.0,2-2,other
50693,69,61,77,133,4.0,3-5A,other
50694,76,93,34,45,4.0,3-5A,other
50695,77,94,23,62,4.0,3-5A,other
50696,79,99,17,58,4.0,3-5A,other
50697,57,63,212,295,2.0,3-9,other
50698,65,109,57,61,2.0,3-9,other
50699,65,89,180,61,2.0,3-9,other
50700,64,66,197,63,2.0,3-9,other
50701,57,66,69,57,2.0,3-9,other
50702,50,68,278,63,2.0,3-9,other
50703,58,50,230,55,2.0,3-9,other
50704,69,63,21,122,10.0,4-29B,major
50705,63,58,27,93,1.0,4-28,diminished
50706,82,75,19,128,1.0,3-10,other
50707,57,55,125,139,2.0,2-5,other
50708,62,52,106,59,2.0,2-5,other
50709,74,75,88,36,2.0,2-5,other
50710,63,71,53,154,5.0,4-19B,augmented
50711,62,66,58,55,5.0,4-19B,augmented
50712,61,68,60,58,5.0,4-19B,augmented
50713,72,88,36,125,5.0,3-11B,major
50714,72,80,42,59,5.0,3-11B,major
50715,72,60,71,58,5.0,3-11B,major
50716,61,80,48,122,11.0,3-10,diminished
50717,60,76,56,53,11.0,3-10,diminished
50718,59,73,66,56,11.0,3-10,diminished
50719,67,69,44,132,4.0,3-10,diminished
50720,67,60,81,56,4.0,3-10,diminished
50721,70,68,55,58,4.0,3-10,diminished
50722,59,59,57,123,5.0,3-11B,major
50723,58,55,60,56,5.0,3-11B,major
50724,44,50,16,419,4.0,3-11B,major
50725,44,37,14,67,4.0,3-11B,major
50726,80,1,33,37,4.0,3-11B,major
50727,33,94,42,197,9.0,1-1,other
50728,33,66,16,477,9.0,5-31B,major
50729,69,64,18,244,1.0,4-28,diminished
50730,69,50,12,40,1.0,4-28,diminished
50731,69,55,4,30,1.0,4-28,diminished
50732,57,53,237,107,2.0,4-23,minor
50733,77,79,52,192,5.0,3-4B,other
50734,74,68,5,59,5.0,3-4B,other
50735,48,55,39,289,3.0,4-20,major
50736,65,77,33,247,6.0,5-26A,minor
50737,65,72,21,52,6.0,5-26A,minor
50738,65,62,21,31,6.0,5-26A,minor
50739,53,51,92,167,11.0,3-10,diminished
50740,65,68,191,408,7.0,3-6,major
50741,56,64,88,62,7.0,3-6,major
50742,34,81,71,720,0.0,4-16A,other
50743,33,91,31,121,0.0,4-16A,other
50744,62,85,41,836,2.0,4-14A,minor
50745,45,76,145,119,2.0,4-14A,minor
50746,69,49,22,121,2.0,4-14A,minor
50747,82,88,27,302,4.0,3-10,diminished
50748,62,76,248,358,5.0,2-4,major
50749,52,53,131,240,7.0,2-3,minor
50750,62,47,19,63,7.0,2-3,minor
50751,64,50,23,60,7.0,2-3,minor
50752,45,67,10,60,7.0,2-3,minor
50753,77,88,17,82,1.0,4-28,diminished
50754,79,95,14,31,1.0,4-28,diminished
50755,57,56,144,193,2.0,2-5,other
50756,74,72,48,117,2.0,2-3,minor
50757,57,71,300,115,1.0,1-1,other
50758,64,79,106,57,1.0,1-1,other
50759,54,64,149,187,6.0,3-10,diminished
50760,60,73,32,55,6.0,3-10,diminished
50761,53,71,206,177,11.0,1-1,other
50762,59,53,63,68,11.0,1-1,other
50763,62,57,82,62,11.0,1-1,other
50764,46,71,217,55,11.0,1-1,other
50765,55,56,148,57,11.0,1-1,other
50766,70,86,32,118,0.0,2-4,major
50767,53,58,106,119,9.0,1-1,other
50768,45,56,20,111,2.0,2-5,other
50769,57,69,23,434,4.0,3-11B,major
50770,56,65,97,242,10.0,4-16A,major
50771,55,60,139,110,10.0,4-16A,major
50772,74,83,26,973,5.0,2-1,other
50773,48,66,24,358,3.0,5-27A,major
50774,65,66,51,239,2.0,4-29A,minor
50775,62,53,53,182,11.0,2-6,other
50776,64,51,47,57,11.0,2-6,other
50777,71,60,44,179,8.0,4-18A,diminished
50778,71,60,56,63,8.0,4-18A,diminished
50779,70,70,59,59,8.0,4-18A,diminished
50780,33,101,20,58,8.0,4-18A,diminished
50781,27,91,14,242,1.0,6-29,diminished
50782,57,47,446,298,2.0,2-3,minor
50783,76,75,183,115,5.0,3-4A,major
50784,64,44,56,109,5.0,2-4,major
50785,69,46,51,69,5.0,2-4,major
50786,58,62,589,187,4.0,4-27A,diminished
50787,67,58,12,61,4.0,4-27A,diminished
50788,79,49,182,178,9.0,3-5B,other
50789,53,43,3380,0,9.0,5-35,minor
50790,50,35,1139,3760,5.0,4-22A,major
50791,62,72,401,426,5.0,4-22A,major
50792,65,58,136,1926,4.0,5-16A,other
50793,74,92,173,464,4.0,5-16A,other
50794,77,122,335,402,4.0,5-16A,other
50795,75,80,831,442,4.0,5-16A,other
50796,48,54,817,27,4.0,5-16A,other
50797,62,57,314,1016,3.0,2-4,major
50798,74,58,91,458,3.0,2-4,major
50799,86,62,1296,523,3.0,2-4,major
50800,67,64,262,1524,7.0,2-5,other
50801,51,46,1451,884,5.0,2-2,other
50802,47,42,312,2625,5.0,5-30B,augmented
50803,46,54,936,884,5.0,2-4,major
50804,53,68,468,474,5.0,2-4,major
50805,57,66,51,471,2.0,4-26,minor
50806,60,85,1605,410,2.0,4-26,minor
50807,65,78,646,1017,2.0,2-5,other
50808,69,57,228,942,2.0,2-5,other
50809,62,39,490,472,4.0,4-26,minor
50810,79,59,58,504,4.0,4-26,minor
50811,59,41,945,41,4.0,4-26,minor
50812,55,43,1521,1486,6.0,2-5,other
50813,97,45,313,808,6.0,2-5,other
50814,85,35,183,47,6.0,2-5,other
50815,50,81,460,1413,0.0,4-20,other
50816,51,68,1127,471,0.0,4-20,other
50817,53,88,416,476,0.0,3-11A,minor
50818,44,53,123,1885,0.0,3-11A,minor
50819,50,39,109,2382,2.0,6-32,minor
50820,64,53,329,155,7.0,2-2,other
50821,62,84,225,1389,11.0,3-10,diminished
50822,61,47,99,199,11.0,3-10,diminished
50823,60,48,75,55,11.0,3-10,diminished
50824,59,62,70,70,11.0,3-10,diminished
50825,58,82,280,97,11.0,3-10,diminished
50826,50,63,455,532,11.0,3-10,diminished
50827,57,70,467,455,11.0,3-10,diminished
50828,58,78,2055,431,11.0,3-10,diminished
50829,78,45,55,498,2.0,2-5,other
50830,65,67,235,442,2.0,2-5,other
50831,84,66,98,1010,2.0,2-3,minor
50832,68,36,28,1446,1.0,3-10,minor
50833,41,57,1026,2916,0.0,4-19B,other
50834,65,1,344,1267,0.0,3-12,augmented
50835,46,38,1132,5437,2.0,2-2,other
50836,79,68,118,1457,3.0,3-4A,major
50837,90,32,82,360,3.0,3-4A,major
50838,55,22,73,215,7.0,2-5,other
50839,86,88,386,814,7.0,2-5,other
50840,58,57,1214,531,3.0,3-4A,major
50841,51,60,102,893,7.0,2-5,other
50842,62,77,1492,485,3.0,4-16A,major
50843,74,84,318,460,3.0,4-16A,major
50844,74,65,225,1029,2.0,1-1,other
50845,69,41,494,540,2.0,4-12A,major
50846,63,36,268,868,2.0,4-12A,major
50847,50,35,1019,1046,11.0,2-3,minor
50848,59,25,50,485,6.0,2-3,minor
50849,62,22,58,954,11.0,4-26,minor
50850,62,27,85,453,11.0,3-7B,other
50851,62,36,92,481,11.0,3-7B,other
50852,62,38,222,517,11.0,3-7B,other
50853,51,68,362,390,11.0,3-7B,other
50854,63,1,132,2720,8.0,3-8A,other
50855,45,22,276,674,9.0,3-8A,major
50856,38,38,101,882,9.0,3-8A,major
50857,60,35,130,497,9.0,3-8A,major
50858,57,31,65,27,9.0,3-8A,major
50859,57,31,73,1974,5.0,2-1,other
50860,60,38,102,436,2.0,2-5,other
50861,53,57,125,1449,5.0,5-27A,major
50862,43,84,264,954,9.0,4-26,minor
50863,43,83,812,900,7.0,2-2,other
50864,67,122,120,984,8.0,3-10,diminished
50865,67,89,191,306,8.0,3-10,diminished
50866,55,57,588,739,0.0,2-2,other
50867,55,46,105,971,3.0,3-11B,major
50868,67,40,131,517,3.0,2-5,other
50869,60,51,38,842,3.0,2-4,major
50870,42,40,289,432,3.0,2-4,major
50871,41,46,1097,549,2.0,3-11A,minor
50872,51,57,980,450,2.0,3-11A,minor
50873,41,57,85,950,2.0,3-11A,minor
50874,65,34,58,494,5.0,4-24,augmented
50875,65,36,720,489,5.0,4-24,augmented
50876,57,52,192,1009,5.0,3-7B,other
50877,53,72,487,921,10.0,4-20,major
50878,55,92,492,453,10.0,4-20,major
50879,53,81,1988,478,10.0,4-20,major
50880,57,89,971,958,2.0,4-26,minor
50881,46,57,135,481,2.0,4-26,minor
50882,46,68,504,506,2.0,4-26,minor
50883,58,55,359,953,4.0,4-27A,diminished
50884,62,43,103,480,4.0,4-27A,diminished
50885,45,39,435,508,1.0,4-27B,other
50886,45,34,458,976,1.0,4-28,diminished
50887,79,122,168,453,1.0,4-28,diminished
50888,79,115,211,266,1.0,4-28,diminished
50889,77,81,166,250,1.0,4-28,diminished
50890,60,68,381,946,2.0,2-3,minor
50891,57,56,636,398,2.0,2-3,minor
50892,50,61,204,489,2.0,2-3,minor
50893,65,56,638,572,9.0,2-4,major
50894,31,84,422,1814,5.0,3-11B,major
50895,33,45,41,31,5.0,3-11B,major
50896,43,89,320,2846,11.0,4-27A,diminished
50897,43,94,358,497,11.0,4-27A,diminished
50898,55,55,35,583,7.0,4-26,minor
50899,55,65,118,398,7.0,4-26,minor
50900,55,52,385,522,7.0,4-26,minor
50901,48,44,43,479,7.0,4-26,minor
50902,44,56,144,959,1.0,2-6,other
50903,44,19,328,262,1.0,2-6,other
50904,53,54,172,211,1.0,2-6,other
50905,46,39,63,443,1.0,2-6,other
50906,58,49,449,1397,7.0,2-5,other
50907,58,46,128,2499,10.0,4-14A,other
50908,72,88,222,1886,2.0,2-2,other
50909,64,41,57,74,7.0,3-9,other
50910,63,24,37,488,5.0,4-20,major
50911,41,66,558,424,5.0,4-20,major
50912,69,120,148,917,5.0,4-20,major
50913,70,90,202,237,5.0,4-20,major
50914,45,54,1088,292,5.0,5-30B,other
50915,70,77,239,478,5.0,5-30B,other
50916,69,68,260,522,5.0,5-30B,other
50917,45,57,1395,429,5.0,5-30B,other
50918,67,78,386,926,1.0,3-10,other
50919,65,96,574,484,1.0,3-10,other
50920,45,59,45,442,1.0,3-10,other
50921,64,89,388,970,7.0,4-18B,minor
50922,55,19,67,419,7.0,4-18B,minor
50923,45,96,472,586,2.0,3-11A,minor
50924,53,40,482,2389,5.0,4-20,major
50925,74,66,244,470,5.0,4-20,major
50926,77,117,153,1005,7.0,2-5,other
50927,77,96,179,280,7.0,2-5,other
50928,76,75,135,257,4.0,2-5,other
50929,76,61,135,236,4.0,2-5,other
50930,43,57,129,164,4.0,2-5,other
50931,74,48,253,34,4.0,2-5,other
50932,53,37,112,462,4.0,2-5,other
50933,56,50,392,503,8.0,4-27B,minor
50934,69,82,56,1140,7.0,4-22B,minor
50935,74,122,164,268,7.0,4-22B,minor
50936,74,84,396,493,7.0,4-22B,minor
50937,70,66,33,554,3.0,3-4A,major
50938,70,26,259,96,3.0,3-4A,major
50939,70,32,67,361,0.0,2-3,minor
50940,55,65,40,894,3.0,3-4A,major
50941,41,57,566,522,3.0,2-4,major
50942,48,75,184,454,3.0,2-4,major
50943,64,60,200,539,3.0,4-20,major
50944,70,48,68,435,0.0,2-3,minor
50945,78,45,168,955,11.0,2-5,other
50946,75,73,408,463,6.0,4-27A,minor
50947,80,9,133,215,6.0,4-27A,minor
50948,46,84,215,233,6.0,4-27A,minor
50949,79,35,322,542,2.0,4-26,minor
50950,57,41,371,1870,10.0,2-4,major
50951,53,58,410,476,10.0,2-4,major
50952,69,85,159,2700,4.0,2-3,minor
50953,72,85,153,461,10.0,2-1,other
50954,77,81,159,495,1.0,2-6,other
50955,82,84,159,224,1.0,2-6,other
50956,84,122,185,255,1.0,2-6,other
50957,85,88,155,495,9.0,3-8A,major
50958,84,83,127,205,9.0,3-8A,major
50959,84,83,171,221,9.0,3-8A,major
50960,82,76,157,476,8.0,2-2,other
50961,79,67,157,478,3.0,2-4,major
50962,51,43,624,111,3.0,2-4,major
50963,75,71,233,111,3.0,2-4,major
50964,55,68,486,461,3.0,2-4,major
50965,67,45,743,903,0.0,3-7A,minor
50966,56,68,115,351,0.0,3-7A,minor
50967,56,66,318,284,0.0,3-7A,minor
50968,55,35,97,1306,9.0,4-26,minor
50969,64,48,168,524,0.0,2-5,other
50970,65,63,292,2933,7.0,4-26,minor
50971,58,81,159,313,7.0,4-26,minor
50972,62,82,188,1929,7.0,3-11A,minor
50973,37,54,107,1120,7.0,3-11A,minor
50974,43,41,56,1398,0.0,5-31B,major
50975,61,90,301,28,0.0,5-31B,major
50976,63,43,55,39,0.0,5-31B,major
50977,58,49,183,222,0.0,5-31B,major
50978,59,51,188,206,0.0,5-31B,major
50979,61,64,191,428,0.0,2-2,other
50980,64,74,199,204,0.0,2-2,other
50981,67,78,224,221,0.0,2-2,other
50982,70,87,234,260,0.0,2-2,other
50983,71,72,223,277,4.0,3-5B,other
50984,72,83,141,236,4.0,3-5B,other
50985,73,67,136,180,4.0,3-5B,other
50986,57,37,439,254,2.0,3-7A,minor
50987,75,57,161,137,2.0,3-7A,minor
50988,76,79,112,210,2.0,3-7A,minor
50989,79,96,298,276,2.0,3-7A,minor
50990,76,48,113,396,2.0,3-7A,minor
50991,53,61,2453,307,5.0,2-2,other
50992,72,66,191,232,5.0,2-2,other
50993,60,38,309,129,5.0,2-2,other
50994,68,48,174,107,5.0,2-2,other
50995,56,38,261,2374,10.0,4-19A,augmented
50996,67,31,86,163,10.0,4-19A,augmented
50997,67,1,185,735,8.0,5-26A,other
50998,46,94,367,1479,8.0,3-8A,other
50999,46,74,223,471,8.0,3-8A,other
51000,46,67,96,450,8.0,3-8A,other
51001,66,74,378,3397,3.0,4-16A,major
51002,67,40,330,1003,9.0,4-27A,diminished
51003,51,79,135,449,9.0,4-27A,diminished
51004,62,102,395,477,9.0,4-27A,diminished
51005,60,78,985,509,3.0,2-4,major
51006,54,83,1159,935,2.0,3-3A,major
51007,60,89,415,517,2.0,3-3A,major
51008,50,74,120,462,2.0,3-3A,major
51009,69,31,92,1449,2.0,2-4,major
51010,78,49,172,477,2.0,3-11B,major
51011,62,49,111,936,2.0,3-11B,major
51012,78,48,840,1373,2.0,3-11B,major
51013,31,102,138,8216,2.0,5-35,minor
51014,76,127,656,499,2.0,5-35,minor
51015,69,81,225,475,2.0,5-35,minor
51016,62,51,293,973,0.0,3-4B,other
51017,49,39,144,916,8.0,4-28,diminished
51018,56,31,88,28,8.0,4-28,diminished
51019,48,50,132,1915,3.0,2-5,other
51020,48,50,992,473,3.0,2-5,other
51021,55,35,403,526,3.0,3-11B,major
51022,41,39,62,973,3.0,3-11B,major
51023,41,38,536,2854,5.0,4-24,augmented
51024,46,59,164,1451,2.0,3-11A,minor
51025,46,51,1261,451,2.0,3-11A,minor
51026,53,80,488,987,2.0,3-11A,minor
51027,53,82,386,958,7.0,4-26,minor
51028,65,55,517,496,7.0,3-11A,minor
51029,47,83,658,1383,4.0,3-7A,minor
51030,62,84,172,952,7.0,2-4,major
51031,45,78,78,1923,1.0,4-28,diminished
51032,57,85,692,963,2.0,4-14A,minor
51033,57,81,112,953,2.0,3-11A,minor
51034,49,79,648,962,5.0,3-12,augmented
51035,49,71,137,966,5.0,3-12,augmented
51036,54,85,394,1931,3.0,4-24,augmented
51037,43,102,504,1006,11.0,3-10,diminished
51038,84,64,265,7600,0.0,1-1,other
51039,41,55,724,1523,0.0,2-1,other
51040,48,49,531,1379,7.0,3-9,other
51041,48,55,494,971,2.0,5-35,minor
51042,48,48,456,921,7.0,3-9,other
51043,50,63,459,1006,7.0,3-7B,other
51044,50,55,416,923,4.0,5-25A,diminished
51045,50,36,83,1937,4.0,5-25A,diminished
51046,38,93,32,0,,,
51047,72,80,17,842,3.0,4-24,augmented
51048,73,77,31,56,3.0,4-24,augmented
51049,55,70,99,155,0.0,5-27B,minor
51050,74,80,54,255,1.0,2-3,other
51051,51,58,281,266,5.0,2-4,other
51052,73,78,45,233,2.0,3-11B,major
51053,56,65,123,240,5.0,5-17,other
51054,72,63,113,240,1.0,3-8B,other
51055,55,38,17,240,3.0,2-4,other
51056,70,63,28,316,1.0,2-6,other
51057,57,46,288,157,2.0,4-26,minor
51058,60,52,118,134,2.0,4-26,minor
51059,68,74,29,113,2.0,4-26,minor
51060,69,69,31,47,2.0,4-26,minor
51061,61,67,53,428,2.0,2-3,minor
51062,43,69,142,249,0.0,3-11B,major
51063,31,76,27,356,4.0,4-23,minor
51064,31,87,25,837,4.0,1-1,other
51065,62,92,119,238,5.0,4-20,major
51066,59,59,37,241,5.0,3-11B,major
51067,62,53,56,373,0.0,2-5,other
51068,60,41,93,35,0.0,2-5,other
51069,59,60,93,70,0.0,2-5,other
51070,60,66,56,55,0.0,2-5,other
51071,52,39,163,180,9.0,2-2,other
51072,59,73,75,488,2.0,4-26,minor
51073,59,72,65,116,2.0,4-26,minor
51074,59,57,19,129,2.0,4-26,minor
51075,56,68,70,238,5.0,3-6,major
51076,55,53,52,235,8.0,3-2B,other
51077,60,84,785,121,8.0,3-2B,other
51078,59,73,126,125,8.0,3-2B,other
51079,57,73,125,240,7.0,2-3,minor
51080,56,72,115,113,7.0,2-3,minor
51081,55,74,98,116,7.0,2-3,minor
51082,71,81,35,244,9.0,3-7B,other
51083,50,68,46,487,6.0,3-8B,other
51084,38,70,30,115,6.0,3-8B,other
51085,38,65,45,359,5.0,3-5B,other
51086,55,65,266,241,5.0,4-22A,major
51087,69,77,46,241,4.0,3-11B,major
51088,55,56,152,232,3.0,4-19A,other
51089,68,66,31,246,3.0,3-11B,major
51090,55,63,242,237,3.0,3-11B,major
51091,43,71,202,243,2.0,3-11B,major
51092,43,50,92,240,5.0,3-11B,other
51093,63,70,30,242,5.0,5-27A,major
51094,62,61,22,43,5.0,5-27A,major
51095,61,62,22,37,5.0,5-27A,major
51096,60,49,70,400,4.0,2-3,minor
51097,55,66,25,241,5.0,3-11B,major
51098,81,61,36,237,9.0,3-7A,minor
51099,43,65,249,1198,0.0,4-22A,major
51100,59,68,49,246,0.0,2-4,major
51101,60,75,50,50,0.0,2-4,major
51102,52,49,406,177,9.0,2-2,other
51103,69,67,15,284,9.0,3-3A,major
51104,61,61,124,202,2.0,4-26,minor
51105,59,69,79,250,5.0,4-29B,major
51106,43,72,120,719,9.0,3-11A,minor
51107,59,106,110,239,7.0,4-22A,major
51108,52,59,253,225,9.0,3-11A,minor
51109,71,83,54,247,9.0,4-26,minor
51110,50,66,469,722,6.0,3-5B,other
51111,57,68,53,242,6.0,3-8B,other
51112,55,70,298,253,5.0,4-22A,major
51113,69,70,24,221,4.0,3-11B,major
51114,43,63,181,240,4.0,4-29A,minor
51115,70,85,62,122,4.0,4-29A,minor
51116,72,77,59,1082,9.0,4-23,minor
51117,55,60,17,245,0.0,4-26,minor
51118,58,79,34,233,0.0,4-14A,minor
51119,41,84,691,125,0.0,4-14A,minor
51120,61,84,311,238,2.0,5-25B,minor
51121,60,53,47,121,2.0,5-25B,minor
51122,66,73,36,33,2.0,5-25B,minor
51123,58,54,49,203,3.0,4-20,other
51124,58,51,36,241,10.0,3-11B,major
51125,58,55,51,127,10.0,3-11B,major
51126,58,64,50,117,10.0,3-11B,major
51127,58,86,70,109,10.0,3-11B,major
51128,58,91,34,140,10.0,3-11B,major
51129,53,76,259,225,11.0,4-27A,diminished
51130,47,76,25,234,2.0,3-9,other
51131,28,92,28,128,2.0,3-9,other
51132,54,55,17,545,8.0,3-10,other
51133,65,65,39,116,2.0,3-7A,minor
51134,60,38,13,123,10.0,3-11B,major
51135,44,55,21,112,1.0,2-3,other
51136,60,46,42,125,2.0,5-35,minor
51137,60,51,25,62,2.0,5-35,minor
51138,60,49,21,54,2.0,5-35,minor
51139,64,59,29,118,2.0,5-35,minor
51140,62,53,38,129,8.0,5-31B,diminished
51141,58,94,104,411,0.0,3-4B,other
51142,57,93,106,126,0.0,3-4B,other
51143,74,75,403,726,2.0,2-2,other
51144,45,76,29,115,2.0,2-2,other
51145,38,76,106,116,2.0,2-2,other
51146,26,80,20,122,2.0,2-2,other
51147,76,95,42,478,5.0,6-38,major
51148,75,89,53,108,5.0,6-38,major
51149,76,79,39,136,5.0,6-38,major
51150,50,52,14,244,3.0,2-4,major
51151,74,64,11,299,3.0,4-24,augmented
51152,55,54,100,170,0.0,5-27B,minor
51153,74,68,51,233,1.0,2-3,other
51154,51,50,667,251,5.0,2-4,other
51155,73,60,30,300,2.0,3-11B,major
51156,71,68,68,305,8.0,5-27B,other
51157,72,72,163,115,8.0,5-27B,other
51158,55,41,505,242,3.0,3-12,augmented
51159,70,61,20,310,1.0,3-8A,other
51160,50,53,145,173,7.0,5-27B,minor
51161,62,1,65,166,7.0,2-1,other
51162,69,58,45,70,7.0,2-1,other
51163,24,61,330,246,0.0,5-26A,augmented
51164,61,49,56,295,1.0,5-31B,diminished
51165,41,92,54,59,1.0,5-31B,diminished
51166,48,78,130,122,1.0,5-31B,diminished
51167,48,85,128,483,0.0,5-30B,other
51168,41,105,224,121,0.0,5-30B,other
51169,48,88,138,109,0.0,5-30B,other
51170,48,95,111,491,7.0,5-29B,minor
51171,41,90,161,113,7.0,5-29B,minor
51172,48,71,137,118,7.0,5-29B,minor
51173,75,43,150,363,0.0,5-30B,other
51174,48,68,119,125,0.0,5-30B,other
51175,41,60,211,120,0.0,5-30B,other
51176,48,64,148,115,0.0,5-30B,other
51177,67,68,34,844,5.0,3-11B,major
51178,65,73,33,50,5.0,3-11B,major
51179,57,67,13,669,0.0,3-9,other
51180,81,55,26,956,0.0,3-7B,other
51181,57,48,62,299,2.0,3-11A,minor
51182,62,57,22,193,5.0,4-20,major
51183,61,60,176,167,9.0,3-11B,major
51184,81,80,50,790,0.0,3-7B,other
51185,82,74,45,113,0.0,3-7B,other
51186,45,78,19,124,0.0,3-7B,other
51187,82,76,47,234,7.0,5-29B,minor
51188,81,72,10,38,7.0,5-29B,minor
51189,70,71,34,255,9.0,1-1,other
51190,60,52,82,311,5.0,4-20,major
51191,60,53,97,112,5.0,4-20,major
51192,60,94,95,246,6.0,4-28,diminished
51193,60,108,97,125,6.0,4-28,diminished
51194,60,77,91,232,10.0,4-22A,major
51195,60,65,39,124,10.0,4-22A,major
51196,48,56,15,243,0.0,3-3A,major
51197,36,58,7,119,0.0,3-3A,major
51198,54,58,34,912,3.0,3-11B,major
51199,55,55,114,49,3.0,3-11B,major
51200,46,70,29,72,3.0,3-11B,major
51201,45,66,18,518,8.0,2-6,other
51202,81,86,29,298,0.0,1-1,other
51203,76,78,31,32,0.0,1-1,other
51204,81,90,38,280,5.0,3-5B,other
51205,44,68,29,179,1.0,2-6,other
51206,53,55,62,53,1.0,2-6,other
51207,56,51,27,128,3.0,3-12,augmented
51208,58,67,12,68,3.0,3-12,augmented
51209,55,54,49,293,8.0,4-27B,other
51210,48,57,31,75,8.0,4-27B,other
51211,41,55,350,42,8.0,4-27B,other
51212,55,69,106,918,0.0,3-11B,major
51213,47,94,97,110,0.0,3-11B,major
51214,62,83,117,174,8.0,4-28,diminished
51215,59,64,17,116,8.0,4-28,diminished
51216,55,47,30,85,8.0,4-28,diminished
51217,50,58,20,360,5.0,3-11B,major
51218,67,67,43,279,7.0,4-22B,minor
51219,65,70,436,119,7.0,4-22B,minor
51220,48,73,32,676,4.0,4-21,other
51221,41,51,258,47,4.0,4-21,other
51222,55,50,33,31,4.0,4-21,other
51223,56,70,21,42,4.0,4-21,other
51224,57,56,20,38,4.0,4-21,other
51225,60,51,17,43,4.0,4-21,other
51226,62,85,28,34,4.0,4-21,other
51227,62,49,10,94,5.0,3-11B,major
51228,65,112,477,39,5.0,3-11B,major
51229,45,72,286,30,5.0,3-11B,major
51230,58,59,13,435,7.0,2-3,minor
51231,55,73,88,120,7.0,2-3,minor
51232,67,37,11,52,7.0,2-3,minor
51233,70,79,19,34,7.0,2-3,minor
51234,46,65,5,392,8.0,2-3,other
51235,82,93,28,214,5.0,4-16A,other
51236,77,71,22,42,5.0,4-16A,other
51237,73,60,10,37,5.0,4-16A,other
51238,72,59,23,37,5.0,4-16A,other
51239,70,66,28,39,5.0,4-16A,other
51240,72,103,42,125,10.0,2-1,other
51241,69,98,63,38,10.0,2-1,other
51242,64,42,34,140,8.0,2-2,other
51243,43,74,65,168,4.0,3-5B,other
51244,44,67,17,124,3.0,3-11B,other
51245,37,80,54,47,3.0,3-11B,other
51246,37,85,24,69,3.0,3-11B,other
51247,36,51,59,52,3.0,3-11B,other
51248,38,1,37,33,3.0,3-11B,other
51249,43,67,42,38,3.0,3-11B,other
51250,56,20,36,185,8.0,2-1,other
51251,51,39,22,306,9.0,4-23,minor
51252,48,77,28,357,10.0,6-40A,major
51253,45,70,13,47,10.0,6-40A,major
51254,45,79,15,68,10.0,6-40A,major
51255,34,78,16,120,0.0,4-27B,major
51256,72,75,21,206,7.0,3-5B,other
51257,66,58,28,125,7.0,5-38A,major
51258,77,84,38,265,4.0,2-4,major
51259,48,87,74,118,9.0,2-3,minor
51260,57,66,14,52,9.0,2-3,minor
51261,45,98,25,77,9.0,2-3,minor
51262,38,69,16,118,10.0,5-33,augmented
51263,43,92,113,114,7.0,5-27B,minor
51264,36,91,25,231,9.0,7-10B,other
51265,42,50,29,391,8.0,3-7A,minor
51266,40,91,84,266,1.0,5-34,minor
51267,29,79,19,189,5.0,4-29B,major
51268,82,80,25,1490,9.0,2-3,minor
51269,77,53,17,36,9.0,2-3,minor
51270,73,54,14,39,9.0,2-3,minor
51271,72,38,20,42,9.0,2-3,minor
51272,69,56,30,126,7.0,4-27A,minor
51273,70,70,19,39,7.0,4-27A,minor
51274,69,52,27,83,6.0,3-8B,other
51275,70,53,22,54,6.0,3-8B,other
51276,60,35,31,69,0.0,2-4,major
51277,70,49,19,46,0.0,2-4,major
51278,72,79,23,27,0.0,2-4,major
51279,63,75,31,164,7.0,2-2,other
51280,43,82,67,74,3.0,2-4,other
51281,58,52,63,51,3.0,2-4,other
51282,43,36,13,312,5.0,2-5,other
51283,50,74,68,41,5.0,2-5,other
51284,48,74,37,67,5.0,2-5,other
51285,41,77,43,45,5.0,2-5,other
51286,58,61,99,848,0.0,4-27B,major
51287,46,66,34,122,0.0,4-27B,major
51288,56,68,172,251,8.0,4-28,diminished
51289,47,65,21,125,8.0,4-28,diminished
51290,69,70,11,405,5.0,3-11B,major
51291,70,66,62,176,0.0,4-27B,major
51292,57,55,58,304,2.0,2-3,minor
51293,62,66,7,117,5.0,3-4A,major
51294,50,53,11,112,2.0,3-11A,minor
51295,55,61,26,126,5.0,2-4,other
51296,57,76,26,30,5.0,2-4,other
51297,57,50,130,341,5.0,3-11B,major
51298,67,50,50,536,7.0,3-11A,minor
51299,70,92,21,954,0.0,5-35,minor
51300,65,79,28,117,0.0,5-35,minor
51301,65,92,71,606,0.0,5-35,minor
51302,65,83,42,117,0.0,5-35,minor
51303,63,58,75,229,1.0,5-35,other
51304,63,69,40,125,1.0,5-35,other
51305,63,17,5,63,1.0,5-35,other
51306,63,71,23,27,1.0,5-35,other
51307,70,69,18,160,0.0,5-35,minor
51308,65,54,36,114,0.0,5-35,minor
51309,61,57,82,360,1.0,5-35,other
51310,43,40,121,256,0.0,1-1,other
51311,42,64,14,220,4.0,4-23,minor
51312,42,70,81,49,4.0,4-23,minor
51313,31,82,16,203,5.0,5-27A,major
51314,43,67,84,86,5.0,5-27A,major
51315,64,63,25,185,3.0,5-33,augmented
51316,51,19,13,208,0.0,5-27A,major
51317,41,64,34,191,3.0,4-19A,augmented
51318,42,54,80,52,3.0,4-19A,augmented
51319,31,79,9,191,5.0,4-22A,major
51320,72,67,11,162,5.0,4-22A,major
51321,76,99,29,62,5.0,4-22A,major
51322,83,107,33,117,4.0,4-29A,minor
51323,83,73,65,172,4.0,4-26,minor
51324,76,52,39,139,4.0,2-3,minor
51325,44,80,40,167,0.0,2-5,other
51326,45,74,119,57,0.0,2-5,other
51327,58,71,22,89,9.0,1-1,other
51328,60,71,31,33,9.0,1-1,other
51329,61,76,20,40,9.0,1-1,other
51330,63,89,21,41,9.0,1-1,other
51331,66,83,22,116,10.0,2-5,other
51332,67,73,20,34,10.0,2-5,other
51333,68,75,25,40,10.0,2-5,other
51334,69,87,40,43,10.0,2-5,other
51335,44,53,56,417,2.0,3-11A,minor
51336,53,81,25,296,7.0,2-2,other
51337,46,44,28,261,10.0,4-19A,augmented
51338,72,90,39,154,9.0,4-26,minor
51339,38,66,10,1071,6.0,3-8B,other
51340,59,95,47,508,5.0,3-5B,other
51341,53,72,24,296,5.0,3-11B,major
51342,50,67,29,62,5.0,3-11B,major
51343,43,91,326,58,5.0,3-11B,major
51344,50,48,22,220,9.0,2-5,other
51345,43,86,384,186,3.0,4-27A,other
51346,67,66,69,125,3.0,4-27A,other
51347,43,88,487,303,4.0,4-23,minor
51348,43,69,172,987,9.0,4-26,minor
51349,52,84,73,105,9.0,4-26,minor
51350,67,105,54,125,9.0,4-26,minor
51351,66,51,34,58,9.0,4-26,minor
51352,79,105,37,118,5.0,4-22A,major
51353,79,84,160,62,5.0,4-22A,major
51354,71,59,172,52,5.0,4-22A,major
51355,74,98,113,181,4.0,3-5B,other
51356,43,69,53,237,0.0,4-22A,major
51357,52,62,19,58,0.0,4-22A,major
51358,60,59,197,71,0.0,4-22A,major
51359,74,85,23,115,4.0,2-5,other
51360,79,101,22,51,4.0,2-5,other
51361,83,122,34,60,4.0,2-5,other
51362,83,65,48,181,1.0,2-1,other
51363,76,52,34,119,5.0,3-9,other
51364,67,30,42,121,7.0,2-4,major
51365,74,87,41,52,7.0,2-4,major
51366,71,81,87,252,4.0,2-2,other
51367,69,67,251,168,8.0,2-2,other
51368,46,76,43,63,8.0,2-2,other
51369,43,85,236,600,2.0,4-26,minor
51370,43,74,226,276,4.0,4-29A,minor
51371,43,63,404,248,3.0,3-8B,other
51372,48,71,25,444,2.0,3-9,other
51373,60,76,50,100,2.0,3-9,other
51374,58,86,175,246,0.0,2-4,major
51375,57,84,133,164,0.0,2-5,other
51376,55,74,73,370,0.0,4-20,major
51377,50,92,266,862,2.0,3-7B,other
51378,50,83,169,287,5.0,2-4,major
51379,53,70,143,366,3.0,3-12,augmented
51380,59,56,47,65,3.0,3-12,augmented
51381,43,61,109,61,3.0,3-12,augmented
51382,42,69,52,360,0.0,4-22A,major
51383,43,53,88,59,0.0,4-22A,major
51384,74,72,16,717,7.0,1-1,other
51385,55,58,65,192,0.0,5-27B,minor
51386,84,110,135,127,3.0,2-5,other
51387,77,101,90,224,3.0,4-20,major
51388,77,74,24,233,5.0,3-4A,major
51389,86,115,44,59,5.0,3-4A,major
51390,81,57,43,130,9.0,2-3,minor
51391,74,42,39,121,10.0,3-3B,other
51392,73,56,10,56,10.0,3-3B,other
51393,58,79,16,126,6.0,2-2,other
51394,58,58,15,123,3.0,4-20,other
51395,46,86,101,342,10.0,1-1,other
51396,57,63,178,58,10.0,1-1,other
51397,46,78,61,116,10.0,1-1,other
51398,47,71,276,115,10.0,1-1,other
51399,52,49,58,140,5.0,3-11B,major
51400,47,56,17,227,2.0,3-9,other
51401,28,79,10,189,4.0,4-15B,other
51402,68,67,44,170,8.0,3-5B,other
51403,70,80,28,43,8.0,3-5B,other
51404,72,88,25,38,8.0,3-5B,other
51405,73,84,34,44,8.0,3-5B,other
51406,76,76,23,86,1.0,4-21,other
51407,77,82,41,38,1.0,4-21,other
51408,86,87,25,116,2.0,4-15B,other
51409,74,48,14,53,2.0,4-15B,other
51410,65,42,70,122,5.0,2-5,other
51411,44,70,38,102,2.0,2-4,major
51412,44,75,40,54,2.0,2-4,major
51413,43,108,47,338,4.0,4-29A,minor
51414,59,37,49,61,4.0,4-29A,minor
51415,43,84,56,54,4.0,4-29A,minor
51416,43,79,126,177,9.0,2-3,minor
51417,59,112,100,232,7.0,3-9,other
51418,45,104,72,263,9.0,3-11A,minor
51419,80,29,25,431,6.0,3-10,diminished
51420,78,1,129,682,6.0,3-10,other
51421,57,74,531,303,9.0,4-22B,minor
51422,75,88,49,247,5.0,3-11B,major
51423,76,59,19,64,5.0,3-11B,major
51424,53,46,664,176,3.0,2-4,major
51425,58,12,23,57,3.0,2-4,major
51426,74,65,80,183,3.0,3-11A,other
51427,43,53,195,233,0.0,4-22A,major
51428,64,54,73,243,4.0,3-11A,minor
51429,84,54,135,489,2.0,1-1,other
51430,43,53,230,240,0.0,2-5,other
51431,67,56,31,233,2.0,3-9,other
51432,67,54,381,242,2.0,4-22B,minor
51433,74,56,118,121,2.0,4-22B,minor
51434,72,48,24,120,2.0,4-22B,minor
51435,39,21,51,0,,,
51436,64,62,156,738,7.0,2-5,other
51437,44,25,169,1040,6.0,2-3,minor
51438,49,40,956,1153,11.0,4-26,minor
51439,50,43,973,953,11.0,4-26,minor
51440,62,99,515,928,11.0,4-26,minor
51441,52,33,1797,43,11.0,4-26,minor
51442,62,57,216,636,11.0,4-26,minor
51443,54,37,789,311,11.0,4-26,minor
51444,67,94,261,615,11.0,4-26,minor
51445,65,50,52,27,11.0,4-26,minor
51446,55,26,410,257,11.0,4-26,minor
51447,62,36,447,102,11.0,4-26,minor
51448,64,55,170,543,11.0,4-26,minor
51449,46,26,111,56,11.0,4-26,minor
51450,65,68,3630,250,11.0,4-26,minor
51451,61,56,3035,636,11.0,4-26,minor
51452,56,30,3013,28,11.0,4-26,minor
51453,41,32,176,40,11.0,4-26,minor
51454,46,43,160,271,11.0,4-26,minor
51455,39,56,203,641,11.0,4-26,minor
51456,41,37,649,331,11.0,4-26,minor
51457,38,36,181,662,11.0,4-26,minor
51458,40,50,766,257,11.0,4-26,minor
51459,34,39,207,754,11.0,4-26,minor
51460,34,46,181,915,1.0,4-21,other
51461,27,73,1891,255,1.0,4-21,other
51462,39,78,838,995,1.0,4-21,other
51463,30,70,909,926,1.0,4-21,other
51464,31,57,1008,986,1.0,4-21,other
51465,38,37,884,988,11.0,3-7A,minor
51466,64,54,221,66,11.0,3-7A,minor
51467,57,32,132,39,11.0,3-7A,minor
51468,66,63,159,532,11.0,3-7A,minor
51469,45,73,792,374,11.0,4-26,minor
51470,67,27,49,37,11.0,4-26,minor
51471,44,53,909,809,11.0,4-26,minor
51472,42,20,62,819,11.0,4-26,minor
51473,43,53,938,128,11.0,4-26,minor
51474,38,34,924,2960,7.0,3-11B,major
51475,64,63,301,604,7.0,3-11B,major
51476,59,62,195,29,7.0,3-11B,major
51477,35,42,878,358,7.0,3-11B,major
51478,62,40,2627,102,6.0,2-3,minor
51479,47,80,878,837,6.0,2-3,minor
51480,42,53,273,962,6.0,2-3,minor
51481,38,49,201,659,6.0,2-3,minor
51482,39,59,777,275,6.0,2-3,minor
51483,40,44,1007,831,0.0,4-16A,other
51484,74,91,130,690,0.0,4-16A,other
51485,46,36,1283,340,0.0,4-16A,other
51486,70,61,148,344,0.0,4-16A,other
51487,65,48,164,344,0.0,4-16A,other
51488,58,57,349,677,2.0,2-3,minor
51489,55,22,160,351,2.0,2-3,minor
51490,56,45,182,565,4.0,2-6,other
51491,62,68,207,640,8.0,2-3,minor
51492,45,47,1051,52,8.0,2-3,minor
51493,59,39,283,312,8.0,2-3,minor
51494,33,40,2348,636,8.0,2-3,minor
51495,60,47,79,395,4.0,2-3,minor
51496,57,40,57,281,5.0,2-5,other
51497,39,68,207,1900,9.0,4-26,minor
51498,40,60,1717,332,9.0,4-26,minor
51499,65,57,103,1555,0.0,2-5,other
51500,47,51,174,53,0.0,2-5,other
51501,69,37,54,357,4.0,2-4,major
51502,71,36,131,551,4.0,2-4,major
51503,67,36,218,392,4.0,3-7B,other
51504,46,37,222,558,4.0,3-7B,other
51505,49,33,252,980,9.0,5-27B,minor
51506,53,69,729,324,9.0,5-27B,minor
51507,52,35,968,922,9.0,3-11A,minor
51508,50,37,692,1898,9.0,3-11A,minor
51509,47,41,177,705,9.0,3-11A,minor
51510,48,48,703,285,9.0,3-11A,minor
51511,44,28,133,728,9.0,3-11A,minor
51512,47,57,643,193,9.0,3-11A,minor
51513,44,44,281,669,9.0,3-11A,minor
51514,45,54,837,325,9.0,3-11A,minor
51515,44,32,179,666,9.0,3-11A,minor
51516,46,50,1888,1090,5.0,4-11A,other
51517,55,34,78,1105,5.0,3-12,augmented
51518,61,47,410,276,5.0,3-12,augmented
51519,67,60,416,35,5.0,3-12,augmented
51520,69,69,390,1310,1.0,2-2,other
51521,46,44,1929,674,10.0,3-11A,other
51522,69,64,266,2256,1.0,2-3,other
51523,46,35,258,963,1.0,2-6,other
51524,74,60,416,1333,2.0,1-1,other
51525,50,42,1761,1559,2.0,2-5,other
51526,38,60,1548,466,2.0,2-5,other
51527,45,55,75,1479,0.0,3-11B,other
51528,50,66,526,334,0.0,3-11B,other
51529,50,74,1136,599,0.0,3-11B,other
51530,45,41,60,941,0.0,3-11B,other
51531,42,34,852,299,0.0,3-11B,other
51532,39,31,203,667,0.0,3-11B,other
51533,43,48,885,251,0.0,3-11B,other
51534,62,39,707,673,0.0,3-11B,other
51535,38,34,852,238,0.0,3-11B,other
51536,64,57,114,431,0.0,3-11B,other
51537,66,64,191,261,0.0,3-11B,other
51538,38,44,127,964,9.0,2-2,other
51539,45,38,720,280,9.0,2-2,other
51540,42,37,243,693,9.0,2-2,other
51541,43,40,978,293,9.0,2-2,other
51542,40,46,942,1904,7.0,2-1,other
51543,62,43,852,42,7.0,2-1,other
51544,65,60,783,1895,4.0,2-2,other
51545,39,46,774,46,4.0,2-2,other
51546,53,58,952,918,5.0,2-5,other
51547,51,50,1024,988,5.0,2-5,other
51548,72,6,598,1083,5.0,4-19B,other
51549,69,54,507,1779,5.0,3-12,augmented
51550,41,79,395,1590,8.0,2-3,other
51551,42,72,763,371,8.0,2-3,other
51552,70,23,363,77,8.0,2-3,other
51553,39,29,162,508,8.0,2-3,other
51554,66,65,178,62,11.0,2-3,minor
51555,43,55,961,70,11.0,2-3,minor
51556,66,55,684,372,11.0,2-3,minor
51557,59,22,391,88,2.0,2-5,other
51558,50,35,910,588,2.0,2-5,other
51559,62,53,553,32,2.0,2-5,other
51560,59,18,380,73,2.0,2-5,other
51561,64,71,316,670,2.0,2-5,other
51562,52,38,1063,177,2.0,2-5,other
51563,66,63,376,311,2.0,2-5,other
51564,55,49,968,1711,11.0,4-26,minor
51565,42,51,279,1645,7.0,3-11B,major
51566,59,29,667,339,7.0,2-5,other
51567,39,46,50,1559,4.0,4-29A,minor
51568,34,49,214,980,11.0,4-26,minor
51569,40,59,570,286,11.0,4-26,minor
51570,39,56,121,683,11.0,4-26,minor
51571,52,66,779,284,11.0,4-26,minor
51572,46,21,143,779,11.0,4-26,minor
51573,50,49,680,200,11.0,4-26,minor
51574,46,30,171,703,11.0,4-26,minor
51575,48,49,674,265,11.0,4-26,minor
51576,44,36,223,700,11.0,4-26,minor
51577,62,25,67,328,11.0,2-6,other
51578,40,24,1066,782,4.0,4-18A,major
51579,70,67,134,390,4.0,4-18A,major
51580,71,57,515,81,4.0,4-12A,major
51581,44,30,242,1209,8.0,5-31B,other
51582,45,35,851,277,0.0,3-11B,major
51583,65,57,227,1036,5.0,2-1,other
51584,52,10,891,127,5.0,2-1,other
51585,64,32,160,193,5.0,2-1,other
51586,72,80,167,337,5.0,2-1,other
51587,57,29,659,325,5.0,2-1,other
51588,50,38,172,644,5.0,2-1,other
51589,51,49,863,300,5.0,2-1,other
51590,52,39,918,903,5.0,2-1,other
51591,64,68,183,367,5.0,2-1,other
51592,65,50,73,285,5.0,2-1,other
51593,64,37,185,82,5.0,2-1,other
51594,63,43,161,182,5.0,2-1,other
51595,40,3,1794,182,5.0,2-1,other
51596,64,49,150,114,5.0,2-1,other
51597,65,44,78,271,5.0,2-1,other
51598,71,71,123,272,5.0,2-1,other
51599,52,14,875,172,5.0,2-1,other
51600,74,85,290,217,5.0,2-1,other
51601,74,74,219,418,5.0,2-1,other
51602,47,33,477,297,5.0,2-1,other
51603,74,80,255,106,5.0,2-1,other
51604,44,38,223,514,5.0,2-1,other
51605,71,45,74,118,5.0,2-1,other
51606,45,55,1849,212,5.0,2-1,other
51607,74,81,545,52,5.0,2-1,other
51608,71,34,84,675,5.0,2-1,other
51609,52,30,105,47,5.0,2-1,other
51610,72,70,493,214,5.0,2-1,other
51611,57,40,589,42,5.0,2-1,other
51612,69,68,236,605,5.0,2-1,other
51613,52,31,619,176,5.0,2-1,other
51614,60,35,831,191,5.0,2-1,other
51615,46,61,179,624,5.0,2-1,other
51616,47,39,790,325,5.0,2-1,other
51617,46,28,233,643,5.0,2-1,other
51618,46,25,201,1015,2.0,3-7A,minor
51619,42,52,194,917,2.0,3-7A,minor
51620,57,43,128,1008,3.0,3-4A,major
51621,72,61,484,271,3.0,3-4A,major
51622,63,33,318,38,3.0,3-4A,major
51623,67,30,153,59,3.0,3-4A,major
51624,46,45,268,509,3.0,3-4A,major
51625,66,39,142,1919,11.0,3-11A,minor
51626,74,24,194,3581,9.0,2-2,other
51627,50,43,221,1146,10.0,5-30B,other
51628,62,40,1865,1213,11.0,3-11A,minor
51629,49,36,134,40,11.0,3-11A,minor
51630,49,28,181,879,11.0,3-11A,minor
51631,50,53,1042,257,11.0,3-11A,minor
51632,38,45,1288,613,11.0,3-11A,minor
51633,42,26,267,1010,11.0,3-11A,minor
51634,50,79,668,322,11.0,3-11A,minor
51635,49,38,218,686,11.0,3-11A,minor
51636,50,55,859,267,11.0,3-11A,minor
51637,38,57,968,645,11.0,3-11A,minor
51638,50,79,920,935,11.0,3-11A,minor
51639,49,40,256,922,11.0,3-11A,minor
51640,50,65,1046,300,11.0,3-11A,minor
51641,62,80,580,967,11.0,3-11A,minor
51642,55,48,841,124,11.0,3-11A,minor
51643,64,51,178,584,11.0,3-11A,minor
51644,66,67,714,302,11.0,3-11A,minor
51645,54,31,814,33,11.0,3-11A,minor
51646,69,74,221,613,11.0,3-11A,minor
51647,51,36,213,84,11.0,3-11A,minor
51648,62,71,85,847,4.0,2-3,minor
51649,50,41,857,375,4.0,2-3,minor
51650,48,50,963,906,4.0,2-3,minor
51651,47,64,897,962,4.0,2-3,minor
51652,44,23,115,848,4.0,2-3,minor
51653,66,74,179,781,2.0,2-5,other
51654,42,31,158,964,9.0,2-1,other
51655,65,79,224,897,7.0,2-3,minor
51656,39,51,860,288,7.0,2-3,minor
51657,61,44,667,35,7.0,2-3,minor
51658,55,33,85,677,7.0,2-3,minor
51659,46,25,137,69,7.0,2-3,minor
51660,52,38,677,1186,5.0,2-5,other
51661,63,61,131,664,5.0,2-5,other
51662,55,32,51,26,5.0,2-5,other
51663,51,34,614,245,5.0,2-5,other
51664,39,67,149,672,5.0,2-5,other
51665,69,55,846,335,5.0,4-16A,other
51666,69,51,143,1632,5.0,3-4A,other
51667,39,45,232,933,10.0,3-11B,other
51668,57,25,155,315,2.0,4-14B,major
51669,62,110,520,645,2.0,4-14B,major
51670,38,37,667,251,2.0,4-14B,major
51671,66,82,190,627,4.0,2-2,other
51672,30,58,348,29,4.0,2-2,other
51673,67,69,122,33,4.0,2-2,other
51674,69,89,697,266,4.0,2-2,other
51675,31,71,2309,32,4.0,2-2,other
51676,38,26,128,787,4.0,2-2,other
51677,67,95,794,170,4.0,2-2,other
51678,43,55,924,104,4.0,2-2,other
51679,59,41,473,900,4.0,2-2,other
51680,38,37,878,27,4.0,2-2,other
51681,59,51,92,601,4.0,2-2,other
51682,62,66,114,942,4.0,1-1,other
51683,38,40,681,264,4.0,1-1,other
51684,33,43,245,695,4.0,1-1,other
51685,34,60,781,276,4.0,1-1,other
51686,32,21,201,610,4.0,1-1,other
51687,62,123,560,131,4.0,1-1,other
51688,35,47,1153,104,4.0,1-1,other
51689,64,60,174,477,4.0,1-1,other
51690,62,48,238,171,4.0,1-1,other
51691,61,68,211,223,4.0,1-1,other
51692,26,67,1024,1221,2.0,2-3,minor
51693,63,91,320,695,2.0,2-3,minor
51694,27,57,721,338,2.0,2-3,minor
51695,64,64,399,123,2.0,2-3,minor
51696,28,59,2030,625,5.0,2-1,other
51697,76,96,515,503,5.0,2-1,other
51698,62,55,586,1290,4.0,2-2,other
51699,34,38,884,201,4.0,2-2,other
51700,68,64,136,432,4.0,2-2,other
51701,71,92,252,290,4.0,2-2,other
51702,32,53,739,244,4.0,2-2,other
51703,74,88,207,83,4.0,2-2,other
51704,73,67,202,290,4.0,2-2,other
51705,72,74,272,303,4.0,2-2,other
51706,33,42,3642,141,4.0,2-2,other
51707,71,68,319,500,4.0,2-2,other
51708,68,63,186,247,4.0,2-2,other
51709,69,68,216,339,4.0,2-2,other
51710,45,43,684,37,4.0,2-2,other
51711,64,57,214,262,4.0,2-2,other
51712,62,61,289,333,4.0,2-2,other
51713,40,19,1068,161,4.0,2-2,other
51714,60,31,153,205,4.0,2-2,other
51715,62,66,323,270,4.0,2-2,other
51716,59,63,197,327,4.0,2-2,other
51717,57,50,97,647,9.0,2-3,minor
51718,39,63,292,346,9.0,2-3,minor
51719,40,49,918,342,9.0,2-3,minor
51720,35,52,251,702,9.0,2-3,minor
51721,28,53,2166,303,9.0,2-3,minor
51722,77,57,96,364,9.0,2-3,minor
51723,80,62,253,125,9.0,2-3,minor
51724,77,49,158,144,9.0,2-3,minor
51725,35,27,111,187,9.0,2-3,minor
51726,74,51,120,56,9.0,2-3,minor
51727,72,60,137,272,2.0,2-1,other
51728,71,49,127,186,2.0,2-1,other
51729,35,25,367,158,2.0,2-1,other
51730,70,47,160,29,2.0,2-1,other
51731,69,67,206,198,2.0,2-1,other
51732,65,36,138,437,8.0,2-6,other
51733,62,39,150,223,8.0,2-6,other
51734,60,45,54,505,8.0,2-6,other
51735,40,33,90,44,8.0,2-6,other
51736,59,57,133,437,9.0,3-7B,other
51737,40,37,851,536,2.0,2-2,other
51738,55,26,450,56,2.0,2-2,other
51739,39,27,314,540,2.0,2-2,other
51740,59,64,101,72,2.0,2-2,other
51741,47,60,676,272,2.0,2-2,other
51742,44,34,349,629,2.0,2-2,other
51743,48,55,750,259,2.0,2-2,other
51744,46,26,192,759,2.0,2-2,other
51745,47,51,885,242,2.0,2-2,other
51746,71,95,511,31,2.0,2-2,other
51747,70,80,228,622,2.0,2-2,other
51748,46,28,898,256,2.0,2-2,other
51749,69,48,502,41,2.0,2-2,other
51750,44,27,254,635,2.0,2-2,other
51751,68,26,58,94,2.0,2-2,other
51752,64,40,171,840,9.0,1-1,other
51753,40,32,218,140,9.0,1-1,other
51754,67,67,535,214,9.0,1-1,other
51755,43,34,621,36,9.0,1-1,other
51756,39,54,951,889,9.0,1-1,other
51757,46,45,1419,956,5.0,2-5,other
51758,55,32,691,993,5.0,2-4,other
51759,46,48,369,956,5.0,2-4,other
51760,46,42,278,637,5.0,2-4,other
51761,46,32,1248,1086,5.0,3-7B,other
51762,55,42,1328,936,5.0,2-4,other
51763,70,57,234,906,5.0,2-4,other
51764,72,47,163,353,10.0,3-11A,other
51765,46,35,258,618,10.0,3-11A,other
51766,38,53,193,927,7.0,2-5,other
51767,45,51,928,318,7.0,2-5,other
51768,52,47,1517,916,7.0,2-5,other
51769,45,14,196,798,7.0,2-5,other
51770,53,66,917,137,7.0,2-5,other
51771,45,31,73,698,7.0,2-5,other
51772,54,50,902,297,7.0,2-5,other
51773,45,57,117,669,7.0,2-5,other
51774,38,40,1801,282,7.0,2-5,other
51775,45,41,74,678,7.0,2-5,other
51776,62,103,580,288,7.0,2-5,other
51777,58,77,1216,610,7.0,2-5,other
51778,38,37,210,944,7.0,2-5,other
51779,54,40,641,324,7.0,2-5,other
51780,31,30,1000,47,7.0,2-5,other
51781,50,33,58,682,7.0,2-5,other
51782,52,40,59,232,7.0,2-5,other
51783,38,37,850,37,7.0,2-5,other
51784,37,26,171,705,7.0,2-5,other
51785,40,47,1065,234,7.0,2-5,other
51786,42,42,941,977,7.0,2-5,other
51787,39,29,231,713,7.0,2-5,other
51788,43,39,924,243,7.0,2-5,other
51789,47,27,796,948,2.0,2-2,other
51790,58,46,523,138,2.0,2-2,other
51791,59,68,220,556,2.0,2-2,other
51792,43,35,1054,236,2.0,2-2,other
51793,64,88,550,133,2.0,2-2,other
51794,61,47,205,586,2.0,2-2,other
51795,47,33,552,208,2.0,2-2,other
51796,62,39,696,94,2.0,2-2,other
51797,65,68,370,594,2.0,2-2,other
51798,61,58,823,1001,5.0,2-5,other
51799,60,22,655,245,5.0,2-5,other
51800,70,65,850,123,5.0,2-5,other
51801,58,39,216,618,5.0,2-5,other
51802,56,48,896,1240,5.0,3-12,augmented
51803,61,42,3108,953,5.0,3-12,augmented
51804,46,43,204,667,7.0,2-2,other
51805,39,37,599,342,7.0,2-2,other
51806,46,25,252,614,7.0,2-2,other
51807,53,55,734,302,7.0,2-2,other
51808,46,25,146,716,7.0,2-2,other
51809,51,59,709,225,7.0,2-2,other
51810,49,35,160,744,7.0,2-2,other
51811,50,48,689,215,7.0,2-2,other
51812,70,78,207,49,7.0,2-2,other
51813,71,69,182,317,7.0,2-2,other
51814,74,83,167,278,7.0,2-2,other
51815,42,32,856,214,7.0,2-2,other
51816,43,27,1012,936,3.0,2-4,other
51817,62,41,597,216,3.0,2-4,other
51818,58,64,222,573,3.0,2-4,other
51819,34,44,966,285,3.0,2-4,other
51820,35,41,811,1046,3.0,2-4,other
51821,55,62,57,638,3.0,2-4,other
51822,31,46,1908,212,3.0,2-4,other
51823,38,32,119,776,3.0,2-4,other
51824,62,43,206,937,4.0,2-3,minor
51825,35,5,531,259,4.0,2-3,minor
51826,63,47,472,64,4.0,2-3,minor
51827,64,66,251,564,4.0,2-3,minor
51828,57,37,283,642,6.0,2-2,other
51829,64,57,334,335,6.0,2-2,other
51830,28,31,1727,271,6.0,2-2,other
51831,56,61,394,90,6.0,2-2,other
51832,40,51,869,867,6.0,2-2,other
51833,32,76,1029,978,6.0,2-2,other
51834,28,55,1300,1032,6.0,2-2,other
51835,53,50,167,319,6.0,2-2,other
51836,55,70,205,265,6.0,2-2,other
51837,58,60,154,275,6.0,2-2,other
51838,38,24,1000,88,6.0,2-2,other
51839,60,46,164,156,6.0,2-2,other
51840,62,60,122,254,6.0,2-2,other
51841,65,81,199,237,6.0,2-2,other
51842,67,75,203,239,6.0,2-2,other
51843,32,45,1203,60,6.0,2-2,other
51844,70,56,87,236,6.0,2-2,other
51845,74,53,119,262,6.0,2-2,other
51846,77,78,193,218,6.0,2-2,other
51847,86,87,265,543,10.0,2-4,major
51848,83,71,186,289,10.0,2-4,major
51849,84,80,246,239,10.0,2-4,major
51850,45,54,1520,127,10.0,2-4,major
51851,80,51,231,163,10.0,2-4,major
51852,83,71,381,287,10.0,2-4,major
51853,81,71,182,276,10.0,2-4,major
51854,76,47,198,257,10.0,2-4,major
51855,57,35,639,47,10.0,2-4,major
51856,74,52,239,227,10.0,2-4,major
51857,72,50,309,285,10.0,2-4,major
51858,71,66,163,238,10.0,2-4,major
51859,52,5,935,126,10.0,2-4,major
51860,74,53,237,105,10.0,2-4,major
51861,71,55,191,247,10.0,2-4,major
51862,72,67,270,245,10.0,2-4,major
51863,64,48,745,296,10.0,2-4,major
51864,57,4,419,205,10.0,2-4,major
51865,52,43,214,528,10.0,2-4,major
51866,68,35,164,312,10.0,2-4,major
51867,52,19,893,72,10.0,2-4,major
51868,62,46,62,615,0.0,3-4A,other
51869,40,18,803,281,0.0,3-4A,other
51870,44,36,254,633,0.0,3-4A,other
51871,65,60,119,626,4.0,2-5,other
51872,64,38,201,110,4.0,2-5,other
51873,63,49,141,229,4.0,2-5,other
51874,64,53,160,275,4.0,2-5,other
51875,40,25,344,39,4.0,2-5,other
51876,71,83,216,583,9.0,2-2,other
51877,74,87,267,240,9.0,2-2,other
51878,45,32,1715,172,9.0,2-2,other
51879,71,60,183,134,9.0,2-2,other
51880,72,77,399,273,9.0,2-2,other
51881,71,70,137,311,9.0,2-2,other
51882,57,36,577,206,9.0,2-2,other
51883,64,46,465,122,9.0,2-2,other
51884,60,6,267,152,9.0,2-2,other
51885,56,55,874,691,0.0,2-4,major
51886,55,47,752,971,0.0,2-4,major
51887,70,31,49,712,3.0,2-4,major
51888,60,28,567,321,3.0,2-4,major
51889,59,32,235,902,0.0,2-3,minor
51890,60,14,351,320,3.0,2-4,major
51891,67,42,815,724,3.0,3-12,augmented
51892,47,33,1019,1749,8.0,3-5A,other
51893,78,79,98,761,8.0,3-5A,other
51894,41,31,831,233,8.0,3-5A,other
51895,69,44,519,138,8.0,3-5A,other
51896,79,74,174,585,8.0,3-5A,other
51897,46,26,1530,348,8.0,3-5A,other
51898,68,20,178,91,8.0,3-5A,other
51899,70,7,178,131,8.0,3-5A,other
51900,70,67,92,384,8.0,3-5A,other
51901,34,34,838,290,8.0,3-5A,other
51902,40,48,251,655,8.0,3-5A,other
51903,45,57,769,281,8.0,3-5A,other
51904,67,95,213,659,8.0,3-5A,other
51905,40,43,804,74,8.0,3-5A,other
51906,63,47,92,279,8.0,3-5A,other
51907,64,50,438,59,8.0,3-5A,other
51908,37,50,303,514,8.0,3-5A,other
51909,55,64,347,33,8.0,3-5A,other
51910,38,35,1652,334,8.0,3-5A,other
51911,54,40,780,104,8.0,3-5A,other
51912,50,36,158,797,8.0,3-5A,other
51913,62,80,524,34,8.0,3-5A,other
51914,62,44,178,1662,7.0,2-4,major
51915,64,42,608,289,4.0,2-2,other
51916,60,22,788,1951,9.0,2-5,other
51917,50,80,1786,1592,0.0,4-29B,other
51918,49,71,129,30,0.0,4-29B,other
51919,45,39,85,1895,3.0,2-1,other
51920,50,56,655,80,3.0,2-1,other
51921,66,69,339,640,3.0,2-1,other
51922,63,77,277,279,3.0,2-1,other
51923,42,59,300,30,3.0,2-1,other
51924,38,24,101,974,1.0,2-6,other
51925,31,24,885,255,1.0,2-6,other
51926,62,76,412,631,1.0,2-6,other
51927,43,25,840,241,1.0,2-6,other
51928,54,51,2254,185,1.0,2-6,other
51929,38,45,171,658,1.0,2-6,other
51930,45,46,729,226,1.0,2-6,other
51931,43,22,71,780,1.0,2-6,other
51932,47,49,954,120,1.0,2-6,other
51933,50,45,959,922,1.0,2-6,other
51934,52,45,893,953,1.0,2-6,other
51935,57,108,504,29,1.0,2-6,other
51936,54,39,227,623,1.0,2-6,other
51937,50,34,879,260,1.0,2-6,other
51938,55,51,498,45,1.0,2-6,other
51939,57,68,241,632,1.0,2-6,other
51940,46,34,1318,250,1.0,2-6,other
51941,60,65,245,88,1.0,2-6,other
51942,57,38,218,316,1.0,2-6,other
51943,58,43,185,288,1.0,2-6,other
51944,53,41,860,249,1.0,2-6,other
51945,60,54,249,43,1.0,2-6,other
51946,61,53,160,307,1.0,2-6,other
51947,63,73,249,295,1.0,2-6,other
51948,61,51,168,582,0.0,2-2,other
51949,63,62,205,292,0.0,2-2,other
51950,65,62,270,261,0.0,2-2,other
51951,67,62,293,291,0.0,2-2,other
51952,68,70,380,288,0.0,2-2,other
51953,39,55,3015,346,0.0,2-2,other
51954,67,45,235,52,0.0,2-2,other
51955,68,63,350,349,0.0,2-2,other
51956,70,78,318,297,0.0,2-2,other
51957,67,64,166,690,0.0,2-1,other
51958,68,37,173,262,0.0,2-1,other
51959,70,70,187,255,0.0,2-1,other
51960,51,39,401,208,0.0,2-1,other
51961,72,47,173,89,0.0,2-1,other
51962,73,43,176,291,0.0,2-1,other
51963,74,78,315,309,0.0,2-1,other
51964,46,36,457,105,0.0,2-1,other
51965,75,79,179,164,0.0,2-1,other
51966,76,70,214,253,0.0,2-1,other
51967,78,73,219,563,7.0,2-1,other
51968,43,32,1680,110,7.0,2-1,other
51969,74,57,93,206,7.0,2-1,other
51970,71,63,174,267,7.0,2-1,other
51971,50,30,1067,433,7.0,2-1,other
51972,64,33,59,110,7.0,2-1,other
51973,69,74,435,180,7.0,2-1,other
51974,66,69,796,524,7.0,2-1,other
51975,51,33,957,1037,2.0,2-4,major
51976,52,36,958,976,11.0,3-7A,minor
51977,49,33,195,972,11.0,3-7A,minor
51978,54,39,399,263,11.0,3-7A,minor
51979,43,32,771,949,11.0,3-7A,minor
51980,62,27,78,696,6.0,2-3,minor
51981,46,37,657,170,6.0,2-3,minor
51982,43,33,263,690,6.0,2-3,minor
51983,47,40,828,310,6.0,2-3,minor
51984,57,35,58,704,2.0,2-4,major
51985,41,33,686,177,2.0,2-4,major
51986,38,30,165,730,2.0,2-4,major
51987,41,55,830,282,2.0,2-4,major
51988,38,36,127,757,2.0,2-4,major
51989,39,53,838,238,2.0,2-4,major
51990,37,30,138,670,2.0,2-4,major
51991,56,68,577,31,2.0,2-4,major
51992,40,39,942,170,2.0,2-4,major
51993,59,57,192,436,2.0,2-4,major
51994,35,38,427,425,0.0,2-1,other
51995,61,54,257,195,0.0,2-1,other
51996,28,28,1942,45,0.0,2-1,other
51997,62,48,181,274,0.0,2-1,other
51998,63,69,206,303,0.0,2-1,other
51999,40,36,800,209,0.0,2-1,other
52000,64,41,211,70,0.0,2-1,other
52001,65,64,175,272,0.0,2-1,other
52002,68,69,201,302,0.0,2-1,other
52003,35,45,399,225,0.0,2-1,other
52004,71,68,221,67,0.0,2-1,other
52005,74,69,269,305,0.0,2-1,other
52006,71,63,172,284,0.0,2-1,other
52007,72,68,318,283,0.0,2-1,other
52008,45,56,928,59,0.0,2-1,other
52009,74,67,190,242,0.0,2-1,other
52010,72,68,197,287,0.0,2-1,other
52011,52,34,1156,249,0.0,2-1,other
52012,68,30,175,108,0.0,2-1,other
52013,71,57,208,248,0.0,2-1,other
52014,69,61,215,259,0.0,2-1,other
52015,69,68,184,323,0.0,2-1,other
52016,57,29,973,77,0.0,2-1,other
52017,64,56,272,173,0.0,2-1,other
52018,62,60,222,303,0.0,2-1,other
52019,60,44,331,298,0.0,2-1,other
52020,52,20,1063,171,0.0,2-1,other
52021,59,45,142,122,0.0,2-1,other
52022,60,44,293,234,0.0,2-1,other
52023,59,59,149,308,0.0,2-1,other
52024,60,68,276,219,0.0,2-1,other
52025,45,33,293,78,0.0,2-1,other
52026,60,26,97,336,0.0,2-1,other
52027,40,34,781,827,4.0,2-5,other
52028,47,38,201,755,4.0,2-5,other
52029,52,46,714,297,4.0,2-5,other
52030,53,34,70,703,4.0,3-11B,major
52031,47,19,696,179,4.0,3-11B,major
52032,44,40,240,709,4.0,3-11B,major
52033,45,49,4634,295,4.0,3-11B,major
52034,67,55,176,773,0.0,3-4A,major
52035,69,47,167,305,0.0,3-4A,major
52036,67,43,741,985,0.0,4-5A,major
52037,55,41,1544,2859,9.0,3-11A,minor
52038,67,38,499,975,0.0,3-4A,major
52039,56,25,49,649,0.0,3-4A,major
52040,54,29,243,893,9.0,4-14A,minor
52041,65,66,760,310,9.0,3-3B,other
52042,61,43,1399,1892,8.0,2-3,other
52043,53,41,819,997,5.0,3-6,major
52044,65,28,101,704,1.0,2-3,other
52045,52,31,1010,156,1.0,2-3,other
52046,65,53,1760,1029,1.0,3-7B,other
52047,39,55,166,663,1.0,3-7B,other
52048,46,27,80,350,1.0,3-7B,other
52049,65,48,635,967,9.0,3-8B,other
52050,50,30,1554,872,9.0,3-8B,other
52051,64,37,537,86,0.0,2-5,other
52052,67,43,430,1036,2.0,1-1,other
52053,67,57,1344,564,2.0,1-1,other
52054,50,42,443,29,2.0,1-1,other
52055,49,56,239,935,2.0,1-1,other
52056,50,52,1805,299,2.0,1-1,other
52057,38,71,2282,664,2.0,1-1,other
52058,78,59,413,972,9.0,2-2,other
52059,73,44,314,303,9.0,2-2,other
52060,72,47,208,325,9.0,2-2,other
52061,77,77,350,298,9.0,2-2,other
52062,50,45,1992,80,9.0,2-2,other
52063,76,65,293,224,9.0,2-2,other
52064,71,55,396,302,9.0,2-2,other
52065,70,37,275,313,9.0,2-2,other
52066,38,41,718,66,9.0,2-2,other
52067,75,70,218,253,9.0,2-2,other
52068,74,29,50,367,9.0,2-2,other
52069,42,57,288,304,9.0,2-2,other
52070,68,69,268,36,9.0,2-2,other
52071,67,51,420,252,9.0,2-2,other
52072,43,44,2076,75,9.0,2-2,other
52073,71,76,241,590,9.0,2-2,other
52074,60,35,105,866,7.0,2-1,other
52075,50,33,1443,384,7.0,2-1,other
52076,60,44,113,462,0.0,2-1,other
52077,59,39,155,155,0.0,2-1,other
52078,58,55,107,150,0.0,2-1,other
52079,59,62,50,176,0.0,2-1,other
52080,43,27,1262,88,0.0,2-1,other
52081,62,74,174,101,0.0,2-1,other
52082,64,64,191,171,0.0,2-1,other
52083,62,62,190,181,0.0,2-1,other
52084,61,27,120,223,0.0,2-1,other
52085,62,64,51,148,0.0,2-1,other
52086,50,33,1036,94,0.0,2-1,other
52087,67,75,147,127,0.0,2-1,other
52088,69,57,140,175,0.0,2-1,other
52089,67,36,180,125,0.0,2-1,other
52090,66,34,183,198,0.0,2-1,other
52091,67,65,52,207,0.0,2-1,other
52092,55,45,935,174,0.0,2-1,other
52093,71,79,126,37,0.0,2-1,other
52094,72,51,112,202,0.0,2-1,other
52095,71,58,233,110,0.0,2-1,other
52096,70,34,114,253,0.0,2-1,other
52097,76,63,161,434,2.0,1-1,other
52098,74,43,205,128,2.0,1-1,other
52099,73,25,91,243,2.0,1-1,other
52100,74,31,71,184,2.0,1-1,other
52101,43,53,825,304,2.0,1-1,other
52102,50,43,238,606,2.0,1-1,other
52103,84,90,292,36,2.0,1-1,other
52104,46,30,1760,359,2.0,1-1,other
52105,82,54,702,30,2.0,1-1,other
52106,73,46,303,547,2.0,1-1,other
52107,77,71,302,989,5.0,2-5,other
52108,57,26,940,223,5.0,2-5,other
52109,75,52,394,197,5.0,2-5,other
52110,53,36,879,784,5.0,2-5,other
52111,51,37,406,990,5.0,3-4A,other
52112,61,27,571,43,5.0,3-4A,other
52113,70,59,660,29,5.0,3-4A,other
52114,39,56,2240,614,5.0,3-4A,other
52115,65,57,58,345,1.0,2-2,other
52116,55,45,62,680,5.0,3-4A,other
52117,51,34,1000,51,5.0,3-4A,other
52118,61,42,331,535,5.0,3-9,other
52119,46,34,635,606,5.0,3-9,other
52120,60,30,182,53,3.0,2-4,major
52121,61,28,225,29,3.0,2-4,major
52122,42,26,149,486,3.0,2-4,major
52123,57,46,844,106,11.0,3-11A,minor
52124,43,29,925,113,11.0,3-11A,minor
52125,50,48,1123,832,11.0,3-11A,minor
52126,62,64,141,329,11.0,3-11A,minor
52127,64,60,138,281,11.0,3-11A,minor
52128,66,71,289,321,11.0,3-11A,minor
52129,54,20,735,246,11.0,3-11A,minor
52130,59,37,219,113,11.0,3-11A,minor
52131,61,35,158,250,11.0,3-11A,minor
52132,62,65,154,319,11.0,3-11A,minor
52133,50,40,1056,110,11.0,3-11A,minor
52134,55,43,138,257,11.0,3-11A,minor
52135,57,51,120,368,11.0,3-11A,minor
52136,59,87,144,278,11.0,3-11A,minor
52137,43,43,1683,204,11.0,3-11A,minor
52138,50,44,169,187,11.0,3-11A,minor
52139,52,38,162,259,11.0,3-11A,minor
52140,54,64,213,261,11.0,3-11A,minor
52141,50,37,64,304,11.0,3-11A,minor
52142,50,44,621,684,11.0,3-11A,minor
52143,57,61,488,306,11.0,3-11A,minor
52144,50,35,204,629,11.0,3-11A,minor
52145,55,38,1216,984,2.0,2-4,major
52146,46,38,904,354,2.0,2-4,major
52147,60,53,720,893,2.0,2-4,major
52148,62,77,690,661,2.0,2-4,major
52149,47,38,953,380,2.0,2-4,major
52150,57,51,1857,67,2.0,2-4,major
52151,41,42,655,935,2.0,2-4,major
52152,39,37,190,649,2.0,2-4,major
52153,40,35,1198,243,2.0,2-4,major
52154,55,51,229,264,2.0,2-4,major
52155,56,38,138,283,2.0,2-4,major
52156,58,49,50,145,2.0,2-4,major
52157,59,65,111,108,2.0,2-4,major
52158,28,36,2170,110,2.0,2-4,major
52159,60,25,59,75,2.0,2-4,major
52160,62,38,70,277,2.0,2-4,major
52161,63,37,94,121,2.0,2-4,major
52162,64,57,106,98,2.0,2-4,major
52163,65,94,245,188,2.0,2-4,major
52164,62,74,151,554,4.0,1-1,other
52165,59,46,77,252,4.0,1-1,other
52166,55,27,50,463,4.0,1-1,other
52167,35,31,718,45,4.0,1-1,other
52168,59,74,201,74,4.0,1-1,other
52169,55,57,87,253,4.0,1-1,other
52170,56,39,213,180,4.0,1-1,other
52171,57,54,154,253,4.0,1-1,other
52172,45,45,894,137,4.0,1-1,other
52173,64,57,90,439,4.0,1-1,other
52174,67,87,212,166,4.0,1-1,other
52175,64,52,128,264,4.0,1-1,other
52176,33,28,1090,48,4.0,1-1,other
52177,60,53,197,189,4.0,1-1,other
52178,45,50,748,697,4.0,1-1,other
52179,38,32,159,725,4.0,1-1,other
52180,39,55,685,260,4.0,1-1,other
52181,40,43,2863,865,0.0,4-16A,other
52182,52,11,576,1122,0.0,4-16A,other
52183,52,17,722,808,4.0,4-18A,major
52184,71,46,344,1056,8.0,2-3,other
52185,68,23,314,64,8.0,2-3,other
52186,45,36,3821,729,9.0,4-26,minor
52187,65,50,331,523,2.0,2-5,other
52188,57,34,333,643,0.0,3-11B,major
52189,69,32,116,28,0.0,3-11B,major
52190,60,62,1092,622,4.0,2-5,other
52191,56,54,1131,62,4.0,2-5,other
52192,63,34,472,3103,0.0,3-11A,minor
52193,60,34,390,31,0.0,3-11A,minor
52194,48,42,153,594,0.0,3-11A,minor
52195,67,54,791,353,3.0,3-3B,other
52196,63,40,459,950,9.0,2-3,minor
52197,67,40,309,40,9.0,2-3,minor
52198,57,30,394,874,9.0,2-3,minor
52199,66,64,199,616,11.0,2-5,other
52200,57,24,764,398,11.0,2-5,other
52201,66,57,228,88,11.0,2-5,other
52202,56,36,1437,958,10.0,2-4,major
52203,46,45,507,919,10.0,2-4,major
52204,44,32,51,634,10.0,2-4,major
52205,45,75,2281,28,10.0,2-4,major
52206,55,48,507,348,10.0,2-4,major
52207,55,22,453,795,0.0,1-1,other
52208,67,39,347,223,0.0,1-1,other
52209,48,29,57,949,0.0,2-5,other
52210,63,40,502,854,1.0,2-2,other
52211,67,32,405,2015,11.0,4-26,minor
52212,49,1,431,165,11.0,4-26,minor
52213,50,44,589,429,2.0,3-11B,major
52214,67,49,667,1333,2.0,2-1,other
52215,38,42,1834,643,2.0,2-1,other
52216,45,37,498,1269,0.0,2-4,major
52217,67,37,281,37,0.0,2-4,major
52218,67,1,303,847,9.0,4-22B,minor
52219,60,22,184,992,4.0,2-3,minor
52220,57,45,593,544,7.0,5-27A,major
52221,49,35,195,900,7.0,5-27A,major
52222,66,31,173,88,11.0,3-7A,minor
52223,50,45,878,68,11.0,3-7A,minor
52224,49,31,205,982,7.0,2-4,major
52225,52,24,867,291,11.0,4-26,minor
52226,51,44,714,903,11.0,4-26,minor
52227,66,25,328,671,7.0,5-24B,major
52228,50,35,866,131,7.0,5-24B,major
52229,50,48,784,1083,11.0,3-11A,minor
52230,43,22,1126,790,11.0,4-26,minor
52231,50,30,155,879,11.0,4-26,minor
52232,52,26,719,229,11.0,4-26,minor
52233,53,41,121,722,7.0,4-22A,major
52234,57,33,855,1066,5.0,4-19B,other
52235,53,24,78,921,5.0,4-19B,other
52236,57,38,532,127,5.0,4-19B,other
52237,53,18,122,740,5.0,4-19B,other
52238,55,44,824,201,5.0,4-19B,other
52239,65,43,614,75,1.0,2-3,other
52240,51,1,659,1230,9.0,2-3,minor
52241,65,38,447,732,1.0,3-7B,other
52242,45,44,609,945,5.0,2-4,other
52243,42,31,240,662,5.0,2-4,other
52244,44,40,767,254,5.0,2-4,other
52245,42,21,139,613,5.0,2-4,other
52246,57,34,929,110,2.0,2-4,major
52247,43,40,1041,68,2.0,2-4,major
52248,37,35,355,856,2.0,2-4,major
52249,58,52,211,331,2.0,2-4,major
52250,60,56,262,274,2.0,2-4,major
52251,58,69,188,304,2.0,2-4,major
52252,38,25,829,127,2.0,2-4,major
52253,59,32,437,176,2.0,2-4,major
52254,31,58,1155,664,2.0,2-4,major
52255,61,67,124,504,2.0,2-4,major
52256,64,80,295,308,2.0,2-4,major
52257,61,43,165,299,2.0,2-4,major
52258,38,36,711,54,2.0,2-4,major
52259,62,48,221,229,2.0,2-4,major
52260,45,62,698,890,2.0,2-1,other
52261,39,39,232,664,2.0,2-1,other
52262,63,73,279,920,7.0,2-5,other
52263,44,30,252,854,4.0,2-6,other
52264,65,76,235,96,4.0,2-6,other
52265,47,36,943,172,4.0,2-6,other
52266,66,60,528,215,4.0,2-6,other
52267,67,29,339,86,4.0,2-6,other
52268,57,49,136,472,4.0,2-6,other
52269,41,29,970,290,4.0,2-6,other
52270,38,34,936,1058,4.0,2-6,other
52271,39,58,882,960,4.0,2-6,other
52272,37,26,223,671,4.0,2-6,other
52273,61,46,257,588,4.0,2-2,other
52274,60,34,219,154,4.0,2-2,other
52275,59,47,194,217,4.0,2-2,other
52276,28,37,997,255,4.0,2-2,other
52277,65,81,324,43,4.0,2-2,other
52278,64,52,145,297,4.0,2-2,other
52279,63,43,199,142,4.0,2-2,other
52280,62,54,135,160,4.0,2-2,other
52281,68,77,234,181,4.0,2-2,other
52282,38,43,928,54,4.0,2-2,other
52283,67,44,95,204,4.0,2-2,other
52284,66,26,166,123,4.0,2-2,other
52285,65,54,111,162,4.0,2-2,other
52286,74,79,298,171,4.0,2-2,other
52287,72,46,196,396,1.0,2-5,other
52288,71,57,134,165,1.0,2-5,other
52289,77,74,269,189,1.0,2-5,other
52290,74,44,158,299,1.0,2-5,other
52291,75,71,165,211,1.0,2-5,other
52292,33,50,910,77,1.0,2-5,other
52293,76,73,288,134,1.0,2-5,other
52294,71,68,147,413,1.0,2-5,other
52295,74,76,169,329,1.0,2-5,other
52296,45,38,990,84,1.0,2-5,other
52297,72,64,120,245,1.0,2-5,other
52298,69,75,112,281,1.0,2-5,other
52299,64,49,131,248,1.0,2-5,other
52300,59,58,123,825,4.0,2-2,other
52301,62,61,1158,917,9.0,2-3,minor
52302,40,42,300,34,9.0,2-3,minor
52303,52,31,92,986,4.0,2-4,major
52304,40,60,1099,341,4.0,2-4,major
52305,52,20,1031,784,0.0,4-16A,other
52306,62,48,210,422,0.0,3-4A,other
52307,62,25,168,724,0.0,4-7,other
52308,56,64,265,548,8.0,2-3,other
52309,60,47,167,26,8.0,2-3,other
52310,45,39,783,323,8.0,2-3,other
52311,55,30,81,83,0.0,2-4,major
52312,52,29,191,639,0.0,2-4,major
52313,64,61,189,912,11.0,2-2,other
52314,52,27,959,177,11.0,2-2,other
52315,60,24,410,169,11.0,2-2,other
52316,59,43,205,566,11.0,2-2,other
52317,55,24,652,264,11.0,2-2,other
52318,52,38,232,660,11.0,2-2,other
52319,52,35,672,1029,11.0,2-2,other
52320,59,54,703,284,11.0,2-2,other
52321,52,42,436,693,11.0,2-2,other
52322,57,34,1211,331,11.0,2-2,other
52323,60,44,128,38,11.0,2-2,other
52324,64,50,124,277,11.0,2-2,other
52325,67,68,206,284,11.0,2-2,other
52326,52,33,864,281,11.0,2-2,other
52327,71,71,178,44,11.0,2-2,other
52328,72,72,185,310,11.0,2-2,other
52329,70,83,302,283,11.0,2-2,other
52330,70,15,542,377,5.0,2-2,other
52331,61,50,216,277,5.0,2-2,other
52332,65,46,137,313,5.0,2-2,other
52333,60,39,641,365,5.0,2-2,other
52334,58,44,185,692,5.0,2-2,other
52335,57,48,687,312,5.0,2-2,other
52336,61,42,52,642,5.0,2-2,other
52337,61,67,312,285,10.0,2-5,other
52338,69,52,159,340,10.0,2-5,other
52339,47,44,137,313,1.0,2-3,other
52340,69,36,168,949,5.0,4-16A,other
52341,70,64,962,297,5.0,4-16A,other
52342,53,62,914,40,5.0,4-16A,other
52343,61,43,533,912,5.0,4-16A,other
52344,52,41,619,30,5.0,4-16A,other
52345,45,36,184,1701,10.0,3-11A,other
52346,50,24,1038,293,9.0,3-11A,minor
52347,38,50,1810,617,9.0,3-11A,minor
52348,60,31,112,348,9.0,3-11A,minor
52349,60,38,161,265,9.0,3-11A,minor
52350,50,62,1441,322,9.0,3-11A,minor
52351,55,44,210,369,9.0,3-11A,minor
52352,55,54,230,299,9.0,3-11A,minor
52353,57,73,179,316,9.0,3-11A,minor
52354,38,40,1589,29,9.0,3-11A,minor
52355,57,54,210,266,9.0,3-11A,minor
52356,59,77,201,313,9.0,3-11A,minor
52357,59,63,233,274,9.0,3-11A,minor
52358,50,27,774,291,9.0,3-11A,minor
52359,60,72,179,26,9.0,3-11A,minor
52360,60,74,186,290,9.0,3-11A,minor
52361,62,73,185,290,9.0,3-11A,minor
52362,38,46,1747,102,9.0,3-11A,minor
52363,62,68,127,190,9.0,3-11A,minor
52364,61,23,84,402,8.0,2-6,other
52365,63,56,205,246,8.0,2-6,other
52366,65,54,167,627,5.0,2-1,other
52367,60,36,143,43,5.0,2-1,other
52368,64,35,185,2391,4.0,2-3,minor
52369,59,60,123,170,4.0,2-3,minor
52370,51,43,189,939,4.0,2-5,other
52371,54,23,99,956,2.0,2-5,other
52372,71,52,116,2316,10.0,2-4,major
52373,74,80,166,326,10.0,2-4,major
52374,79,76,221,971,9.0,2-2,other
52375,55,24,609,304,9.0,2-2,other
52376,78,51,420,122,9.0,2-2,other
52377,77,68,420,545,9.0,2-2,other
52378,73,53,1470,395,9.0,2-2,other
52379,51,27,2469,116,9.0,2-2,other
52380,84,72,270,464,9.0,2-2,other
52381,77,24,211,85,9.0,2-2,other
52382,82,50,914,280,9.0,2-2,other
52383,60,8,591,220,9.0,2-2,other
52384,73,34,4822,676,9.0,2-2,other
52385,77,49,4028,36,9.0,2-2,other
52386,58,32,874,52,9.0,2-2,other
52387,57,39,700,893,9.0,2-2,other
52388,56,36,227,706,9.0,2-2,other
52389,55,53,581,293,9.0,2-2,other
52390,51,35,60,609,9.0,2-2,other
52391,46,61,901,266,9.0,2-2,other
52392,82,1,2150,401,9.0,2-2,other
52393,39,50,908,531,9.0,2-2,other
52394,32,71,936,942,9.0,2-2,other
52395,39,40,290,665,9.0,2-2,other
52396,74,36,422,361,7.0,2-4,major
52397,78,65,222,654,7.0,2-4,major
52398,38,37,1128,108,7.0,2-4,major
52399,74,36,448,282,7.0,2-4,major
52400,71,53,160,546,7.0,2-4,major
52401,43,25,725,324,7.0,2-4,major
52402,66,31,839,30,7.0,2-4,major
52403,62,30,77,663,7.0,2-4,major
52404,46,50,875,228,7.0,2-4,major
52405,44,25,194,724,7.0,2-4,major
52406,47,42,866,254,7.0,2-4,major
52407,57,84,393,672,7.0,2-4,major
52408,43,41,379,232,7.0,2-4,major
52409,58,75,537,166,7.0,2-4,major
52410,62,61,425,995,11.0,2-3,minor
52411,62,63,574,927,4.0,2-3,minor
52412,38,51,191,546,4.0,2-3,minor
52413,41,48,869,1331,11.0,4-26,minor
52414,38,39,901,985,11.0,4-26,minor
52415,39,50,951,955,11.0,4-26,minor
52416,58,65,183,27,11.0,4-26,minor
52417,59,53,174,256,11.0,4-26,minor
52418,62,73,178,306,11.0,4-26,minor
52419,76,88,259,377,11.0,4-26,minor
52420,40,24,894,43,11.0,4-26,minor
52421,74,78,176,400,11.0,4-26,minor
52422,62,55,722,1134,4.0,2-4,major
52423,40,38,725,317,4.0,2-4,major
52424,66,21,183,738,8.0,3-5B,other
52425,35,32,655,114,8.0,3-5B,other
52426,34,46,213,800,8.0,3-5B,other
52427,33,45,1239,269,8.0,3-5B,other
52428,40,35,187,725,4.0,2-3,minor
52429,65,40,91,629,9.0,2-5,other
52430,64,45,183,113,9.0,2-5,other
52431,63,48,187,198,9.0,2-5,other
52432,40,36,214,210,9.0,2-5,other
52433,64,50,143,33,9.0,2-5,other
52434,74,82,241,232,9.0,2-5,other
52435,72,66,169,351,9.0,2-5,other
52436,33,36,856,415,9.0,2-5,other
52437,40,49,218,676,4.0,2-3,minor
52438,47,59,234,931,7.0,3-5B,other
52439,52,69,645,307,7.0,3-5B,other
52440,47,45,235,641,7.0,3-5B,other
52441,52,66,920,335,7.0,3-5B,other
52442,64,83,162,573,7.0,3-5B,other
52443,68,60,76,580,11.0,2-6,other
52444,71,75,156,226,11.0,2-6,other
52445,72,80,133,243,11.0,2-6,other
52446,45,45,2162,116,11.0,2-6,other
52447,76,99,486,161,11.0,2-6,other
52448,74,80,254,589,11.0,2-6,other
52449,57,35,716,287,11.0,2-6,other
52450,72,53,552,86,11.0,2-6,other
52451,69,55,259,594,11.0,2-6,other
52452,52,24,1116,101,11.0,2-6,other
52453,64,24,406,289,11.0,2-6,other
52454,60,46,268,543,11.0,2-6,other
52455,45,19,774,145,11.0,2-6,other
52456,59,34,485,197,11.0,2-6,other
52457,41,59,1695,978,2.0,1-1,other
52458,63,59,111,272,2.0,1-1,other
52459,67,40,151,257,2.0,1-1,other
52460,71,62,206,214,2.0,1-1,other
52461,48,33,3079,200,2.0,1-1,other
52462,74,47,52,61,2.0,1-1,other
52463,86,68,153,322,2.0,1-1,other
52464,89,90,181,242,2.0,1-1,other
52465,83,51,128,579,5.0,2-2,other
52466,86,77,306,221,5.0,2-2,other
52467,84,73,155,238,5.0,2-2,other
52468,79,60,136,296,5.0,2-2,other
52469,76,26,60,310,5.0,2-2,other
52470,74,28,161,228,5.0,2-2,other
52471,41,43,260,187,5.0,2-2,other
52472,69,50,107,217,5.0,2-2,other
52473,74,66,167,564,11.0,2-5,other
52474,69,54,137,292,11.0,2-5,other
52475,57,35,96,145,11.0,2-5,other
52476,66,42,201,135,11.0,2-5,other
52477,62,45,150,258,11.0,2-5,other
52478,67,80,2009,263,11.0,2-5,other
52479,46,29,1617,345,11.0,2-5,other
52480,64,34,881,665,1.0,2-3,other
52481,56,25,277,91,1.0,2-3,other
52482,52,38,219,748,1.0,2-3,other
52483,67,40,56,995,0.0,3-4A,major
52484,57,35,169,245,0.0,3-4A,major
52485,60,45,543,1231,3.0,3-11B,other
52486,66,31,490,843,9.0,4-13B,diminished
52487,49,51,262,1558,2.0,2-5,other
52488,50,49,639,321,2.0,2-5,other
52489,38,42,2583,621,2.0,2-5,other
52490,50,38,138,1238,2.0,2-5,other
52491,57,33,109,629,2.0,2-4,major
52492,38,24,1174,1889,0.0,3-2B,minor
52493,43,34,981,2340,8.0,2-2,other
52494,62,37,453,74,8.0,2-2,other
52495,64,59,230,561,8.0,2-2,other
52496,49,43,191,1120,2.0,2-4,major
52497,69,58,663,185,2.0,2-4,major
52498,57,38,891,49,2.0,2-4,major
52499,56,36,921,938,2.0,2-4,major
52500,55,40,975,942,2.0,2-4,major
52501,67,113,421,1004,2.0,2-4,major
52502,67,80,469,626,6.0,1-1,other
52503,52,35,971,287,6.0,1-1,other
52504,62,56,563,223,6.0,1-1,other
52505,56,25,1569,1792,10.0,3-11A,other
52506,51,30,180,721,10.0,3-11A,other
52507,53,52,688,201,10.0,3-11A,other
52508,51,32,90,668,10.0,3-11A,other
52509,60,74,875,251,10.0,3-11A,other
52510,59,52,909,990,10.0,3-11A,other
52511,58,52,823,958,10.0,3-11A,other
52512,57,40,988,913,10.0,3-11A,other
52513,56,32,864,1041,5.0,3-12,augmented
52514,43,36,878,2865,11.0,2-3,minor
52515,54,1,399,117,11.0,2-3,minor
52516,57,49,69,551,11.0,2-5,other
52517,49,25,201,206,11.0,2-5,other
52518,50,28,778,39,11.0,2-5,other
52519,62,65,235,697,11.0,2-5,other
52520,66,63,297,958,4.0,1-1,other
52521,54,33,768,356,4.0,1-1,other
52522,49,37,672,901,6.0,2-3,minor
52523,66,57,173,596,6.0,2-3,minor
52524,59,51,102,52,6.0,2-3,minor
52525,57,35,74,32,6.0,2-3,minor
52526,50,30,1020,86,6.0,2-3,minor
52527,43,34,788,1086,11.0,2-3,minor
52528,64,48,414,147,11.0,2-3,minor
52529,62,19,68,29,11.0,2-3,minor
52530,47,37,899,723,2.0,2-5,other
52531,41,39,731,1071,2.0,3-11B,major
52532,62,57,74,629,6.0,2-3,minor
52533,38,32,910,241,6.0,2-3,minor
52534,39,51,686,1065,2.0,2-4,major
52535,62,36,239,615,7.0,2-1,other
52536,40,44,1233,115,7.0,2-1,other
52537,62,41,264,534,7.0,2-1,other
52538,28,55,986,608,7.0,2-1,other
52539,56,58,152,547,7.0,2-1,other
52540,35,33,973,436,2.0,2-3,minor
52541,56,33,211,346,2.0,2-3,minor
52542,32,51,682,623,2.0,2-3,minor
52543,33,40,2083,858,7.0,2-5,other
52544,64,51,74,770,7.0,2-5,other
52545,65,83,244,35,7.0,2-5,other
52546,64,66,178,238,7.0,2-5,other
52547,45,33,710,84,7.0,2-5,other
52548,63,47,313,98,7.0,2-5,other
52549,64,64,232,532,7.0,2-5,other
52550,40,36,1020,271,7.0,2-5,other
52551,77,66,674,229,7.0,2-5,other
52552,33,33,660,821,7.0,2-5,other
52553,76,51,498,43,7.0,2-5,other
52554,74,72,411,568,7.0,2-5,other
52555,40,35,643,315,7.0,2-5,other
52556,72,53,595,238,7.0,2-5,other
52557,40,13,539,575,7.0,2-5,other
52558,71,47,492,88,7.0,2-5,other
52559,47,53,715,199,7.0,2-5,other
52560,68,67,936,471,7.0,2-5,other
52561,52,41,794,301,7.0,2-5,other
52562,60,41,84,627,7.0,2-5,other
52563,44,39,883,233,7.0,2-5,other
52564,45,39,913,930,6.0,2-2,other
52565,63,55,254,661,6.0,2-2,other
52566,40,28,915,230,6.0,2-2,other
52567,64,52,460,123,6.0,2-2,other
52568,71,75,285,589,6.0,2-2,other
52569,33,28,1472,269,6.0,2-2,other
52570,71,60,524,225,6.0,2-2,other
52571,40,24,938,702,6.0,2-2,other
52572,69,60,519,86,6.0,2-2,other
52573,45,34,710,902,0.0,3-4A,major
52574,40,38,199,806,0.0,3-4A,major
52575,47,40,897,283,0.0,3-4A,major
52576,45,37,758,987,0.0,3-4A,major
52577,38,40,948,891,0.0,3-4A,major
52578,39,53,1048,979,0.0,3-4A,major
52579,65,31,1598,92,9.0,2-4,major
52580,48,53,1059,897,9.0,2-4,major
52581,65,66,524,1026,1.0,3-7B,other
52582,69,64,223,644,1.0,3-7B,other
52583,65,33,90,81,1.0,3-7B,other
52584,57,38,535,205,1.0,3-7B,other
52585,65,64,1931,729,1.0,2-6,other
52586,60,38,655,279,1.0,2-6,other
52587,62,68,676,956,1.0,2-6,other
52588,58,48,721,1819,7.0,2-2,other
52589,60,28,3408,659,9.0,2-5,other
52590,57,33,975,121,9.0,2-5,other
52591,54,56,918,1069,9.0,2-5,other
52592,55,46,932,1010,9.0,2-5,other
52593,52,34,827,993,9.0,2-5,other
52594,50,26,1632,938,9.0,2-5,other
52595,66,44,930,37,9.0,2-5,other
52596,38,35,2421,948,9.0,2-5,other
52597,45,38,111,778,9.0,2-5,other
52598,82,70,356,230,9.0,2-5,other
52599,50,28,109,53,9.0,2-5,other
52600,78,57,224,231,9.0,2-5,other
52601,76,45,151,318,9.0,2-5,other
52602,74,45,199,440,3.0,2-1,other
52603,73,20,127,326,3.0,2-1,other
52604,72,36,182,182,3.0,2-1,other
52605,70,55,192,238,3.0,2-1,other
52606,43,38,1689,131,3.0,2-1,other
52607,71,71,297,223,3.0,2-1,other
52608,66,49,182,852,3.0,2-1,other
52609,64,30,115,272,3.0,2-1,other
52610,66,77,309,244,3.0,2-1,other
52611,55,44,135,316,3.0,2-1,other
52612,62,63,178,36,3.0,2-1,other
52613,59,26,84,344,3.0,2-1,other
52614,50,13,352,258,3.0,2-1,other
52615,52,36,90,326,3.0,2-1,other
52616,43,29,244,80,3.0,2-1,other
52617,54,60,616,131,3.0,2-1,other
52618,50,57,162,477,3.0,2-1,other
52619,52,55,1741,338,3.0,2-1,other
52620,43,35,760,63,3.0,2-1,other
52621,38,30,840,934,3.0,2-1,other
52622,52,48,215,1479,7.0,2-5,other
52623,38,31,687,313,7.0,2-5,other
52624,54,38,578,31,7.0,2-5,other
52625,55,54,203,631,7.0,2-5,other
52626,60,42,489,1231,9.0,2-6,other
52627,58,57,313,690,5.0,2-4,major
52628,46,29,1022,182,5.0,2-4,major
52629,72,58,522,1057,5.0,2-4,major
52630,65,61,754,27,5.0,2-4,major
52631,61,55,440,37,5.0,2-4,major
52632,59,28,317,131,5.0,2-4,major
52633,58,28,885,645,1.0,2-3,other
52634,84,80,193,729,1.0,2-3,other
52635,77,72,217,31,1.0,2-3,other
52636,73,27,76,43,1.0,2-3,other
52637,51,27,1585,215,1.0,2-3,other
52638,73,23,217,102,1.0,2-3,other
52639,82,38,219,31,1.0,2-3,other
52640,61,38,395,973,5.0,2-5,other
52641,44,48,88,808,1.0,2-3,other
52642,64,59,69,650,2.0,2-4,major
52643,54,37,245,219,2.0,2-4,major
52644,43,27,942,41,2.0,2-4,major
52645,63,55,96,76,2.0,2-4,major
52646,64,30,407,145,2.0,2-4,major
52647,62,52,221,92,2.0,2-4,major
52648,73,27,67,832,2.0,1-1,other
52649,71,75,151,565,2.0,1-1,other
52650,54,27,627,170,2.0,1-1,other
52651,71,60,188,762,2.0,2-5,other
52652,52,36,1011,299,2.0,2-5,other
52653,78,48,176,80,2.0,2-5,other
52654,69,33,199,38,2.0,2-5,other
52655,66,51,338,850,2.0,2-5,other
52656,50,32,1049,66,11.0,2-3,minor
52657,62,47,440,987,11.0,2-5,other
52658,43,35,1450,41,11.0,2-5,other
52659,50,32,242,680,11.0,2-5,other
52660,64,37,188,885,2.0,2-4,major
52661,50,34,680,141,2.0,2-4,major
52662,65,57,444,207,2.0,2-4,major
52663,46,23,153,551,2.0,2-4,major
52664,66,57,3963,84,2.0,2-4,major
52665,62,57,2097,49,2.0,2-4,major
52666,47,46,875,104,2.0,2-4,major
52667,41,69,864,1168,2.0,2-4,major
52668,57,29,959,876,2.0,2-4,major
52669,38,43,828,41,2.0,2-4,major
52670,37,28,84,713,2.0,2-4,major
52671,39,39,530,180,2.0,2-4,major
52672,40,34,1042,633,2.0,2-4,major
52673,56,42,170,39,2.0,2-4,major
52674,65,80,243,928,2.0,2-4,major
52675,56,26,71,80,2.0,2-4,major
52676,28,33,1398,90,2.0,2-4,major
52677,62,46,527,282,2.0,2-4,major
52678,35,43,242,543,2.0,2-4,major
52679,38,35,811,319,2.0,2-4,major
52680,59,75,172,598,2.0,2-4,major
52681,32,37,883,211,2.0,2-4,major
52682,56,48,664,168,2.0,2-4,major
52683,40,47,192,1559,9.0,1-1,other
52684,64,84,606,43,9.0,1-1,other
52685,45,24,102,303,9.0,1-1,other
52686,65,67,260,383,9.0,1-1,other
52687,64,44,248,264,9.0,1-1,other
52688,63,48,156,303,9.0,1-1,other
52689,40,13,719,160,9.0,1-1,other
52690,64,31,215,90,9.0,1-1,other
52691,72,83,3131,373,9.0,1-1,other
52692,40,53,198,426,9.0,1-1,other
52693,40,57,72,624,9.0,1-1,other
52694,52,73,809,326,9.0,1-1,other
52695,40,53,1775,887,9.0,1-1,other
52696,47,24,145,760,9.0,1-1,other
52697,65,64,242,833,4.0,1-1,other
52698,47,24,739,199,4.0,1-1,other
52699,64,27,326,227,4.0,1-1,other
52700,44,40,216,487,4.0,1-1,other
52701,74,75,289,33,4.0,1-1,other
52702,45,39,797,246,4.0,1-1,other
52703,76,74,1715,264,4.0,1-1,other
52704,60,57,930,762,4.0,1-1,other
52705,74,55,934,977,4.0,1-1,other
52706,59,30,725,70,4.0,1-1,other
52707,57,33,868,868,4.0,1-1,other
52708,67,36,2376,1040,3.0,2-1,other
52709,55,32,559,928,3.0,2-1,other
52710,54,25,244,594,3.0,2-1,other
52711,53,43,897,348,3.0,2-1,other
52712,67,24,88,766,3.0,2-4,other
52713,50,22,407,185,3.0,2-4,other
52714,67,59,258,430,3.0,2-4,other
52715,46,25,338,188,3.0,2-4,other
52716,63,47,176,117,3.0,2-4,other
52717,41,31,915,1247,11.0,3-11A,minor
52718,61,39,1694,954,11.0,3-11A,minor
52719,65,38,1561,31,11.0,3-11A,minor
52720,46,33,882,627,11.0,3-11A,minor
52721,40,36,248,880,11.0,3-11A,minor
52722,45,37,825,324,11.0,3-11A,minor
52723,39,44,434,895,0.0,2-4,major
52724,38,42,98,684,0.0,2-3,minor
52725,49,77,178,909,0.0,2-3,minor
52726,48,66,282,650,0.0,2-3,minor
52727,47,66,498,663,0.0,2-3,minor
52728,62,77,68,645,11.0,3-7B,other
52729,61,56,409,1477,4.0,3-10,diminished
52730,58,39,149,641,1.0,3-10,other
52731,34,36,514,33,1.0,3-10,other
52732,33,25,463,886,9.0,2-3,minor
52733,40,62,185,803,9.0,2-3,minor
52734,39,53,492,395,9.0,2-3,minor
52735,38,52,641,588,9.0,2-3,minor
52736,62,38,91,901,2.0,3-8A,major
52737,36,77,471,613,2.0,3-8A,major
52738,35,75,1970,657,2.0,3-8A,major
52739,40,89,1269,2593,2.0,3-11B,major
52740,33,67,1872,1302,0.0,3-11B,major
52741,66,101,40,0,,,
52742,46,74,165,121,3.0,3-4A,major
52743,92,27,6,340,10.0,1-1,other
52744,66,81,25,162,3.0,4-20,major
52745,68,92,23,98,0.0,3-4A,other
52746,48,72,10,368,3.0,6-34A,augmented
52747,72,97,49,122,11.0,2-3,minor
52748,75,101,48,109,3.0,3-4A,major
52749,77,89,25,57,3.0,3-4A,major
52750,78,97,29,59,3.0,3-4A,major
52751,65,71,33,123,0.0,4-20,other
52752,52,54,14,242,8.0,5-30B,other
52753,40,55,73,61,8.0,5-30B,other
52754,28,56,24,34,8.0,5-30B,other
52755,67,90,31,153,3.0,3-11B,major
52756,66,86,25,92,7.0,2-5,other
52757,67,86,27,34,7.0,2-5,other
52758,53,63,15,111,0.0,5-35,other
52759,65,56,8,108,0.0,4-20,other
52760,70,63,47,371,3.0,4-19B,other
52761,58,65,34,118,0.0,4-22A,other
52762,48,56,160,131,11.0,5-28B,diminished
52763,53,66,44,229,0.0,4-26,other
52764,53,81,59,68,0.0,4-26,other
52765,46,78,11,52,0.0,4-26,other
52766,69,93,55,127,5.0,3-4A,other
52767,72,78,67,106,10.0,1-1,other
52768,33,69,63,223,6.0,5-38B,minor
52769,72,97,21,161,0.0,3-4A,other
52770,71,82,23,105,0.0,3-4A,other
52771,72,92,22,28,0.0,3-4A,other
52772,60,68,7,67,10.0,3-11A,other
52773,58,68,51,41,10.0,3-11A,other
52774,51,70,13,43,10.0,3-11A,other
52775,71,78,71,151,0.0,3-11B,other
52776,70,80,32,89,0.0,3-11B,other
52777,70,58,30,60,0.0,3-11B,other
52778,68,74,16,126,9.0,3-6,major
52779,65,69,37,110,0.0,5-35,other
52780,67,71,20,134,3.0,3-11B,major
52781,68,90,24,50,3.0,3-11B,major
52782,69,81,25,53,3.0,3-11B,major
52783,54,85,145,129,8.0,4-22B,other
52784,60,67,66,58,8.0,4-22B,other
52785,44,77,51,56,8.0,4-22B,other
52786,79,73,17,359,0.0,4-24,augmented
52787,65,57,24,118,0.0,3-7A,minor
52788,37,59,140,125,0.0,7-16A,other
52789,68,88,31,69,0.0,7-16A,other
52790,70,70,28,55,0.0,7-16A,other
52791,65,48,47,94,10.0,3-8B,other
52792,63,53,35,33,10.0,3-8B,other
52793,55,1,14,86,3.0,2-4,major
52794,63,65,5,32,3.0,2-4,major
52795,46,59,43,595,3.0,3-11B,major
52796,67,75,60,233,3.0,2-4,major
52797,46,85,43,117,3.0,2-5,other
52798,74,95,14,122,9.0,3-8B,other
52799,86,105,57,125,9.0,5-29B,diminished
52800,38,83,17,60,9.0,5-29B,diminished
52801,50,82,95,300,7.0,3-11B,major
52802,38,80,11,235,9.0,5-35,minor
52803,70,77,23,246,7.0,3-11B,major
52804,72,73,19,116,0.0,4-20,major
52805,47,77,12,62,0.0,4-20,major
52806,40,78,24,122,3.0,5-30B,augmented
52807,57,94,50,192,9.0,5-33,other
52808,58,94,47,53,9.0,5-33,other
52809,59,91,48,51,9.0,5-33,other
52810,60,76,59,120,1.0,3-8A,other
52811,61,71,30,61,1.0,3-8A,other
52812,60,59,80,187,9.0,5-35,minor
52813,77,80,39,53,9.0,5-35,minor
52814,81,104,39,55,9.0,5-35,minor
52815,26,71,4,216,9.0,4-22B,minor
52816,38,61,16,334,9.0,5-35,minor
52817,38,62,15,58,9.0,5-35,minor
52818,38,57,21,63,9.0,5-35,minor
52819,38,59,4,31,9.0,5-35,minor
52820,70,84,21,145,11.0,3-7A,minor
52821,72,62,11,131,1.0,4-24,other
52822,74,68,35,93,10.0,5-26B,augmented
52823,72,79,40,116,7.0,3-11B,major
52824,70,84,34,158,9.0,3-8A,other
52825,71,62,73,85,8.0,3-10,diminished
52826,69,48,23,140,9.0,3-8A,major
52827,50,59,10,94,6.0,3-10,diminished
52828,38,78,8,43,6.0,3-10,diminished
52829,43,72,13,281,5.0,3-4A,major
52830,55,57,64,305,0.0,2-4,major
52831,76,70,40,108,0.0,2-3,minor
52832,55,58,15,115,2.0,4-26,minor
52833,31,71,5,94,7.0,1-1,other
52834,75,85,12,217,1.0,3-7A,minor
52835,50,58,18,426,7.0,3-11B,major
52836,57,49,69,240,7.0,4-22A,major
52837,62,61,36,56,7.0,4-22A,major
52838,67,59,21,62,7.0,4-22A,major
52839,62,60,51,351,4.0,5-10B,other
52840,72,84,20,261,5.0,6-34B,major
52841,72,87,17,43,5.0,6-34B,major
52842,74,82,47,36,5.0,6-34B,major
52843,67,66,36,153,9.0,2-5,other
52844,67,65,89,54,9.0,2-5,other
52845,56,55,43,51,9.0,2-5,other
52846,52,74,79,129,9.0,4-26,minor
52847,72,109,18,62,9.0,4-26,minor
52848,67,54,35,174,0.0,4-20,major
52849,67,53,11,120,0.0,4-22A,major
52850,50,68,67,124,7.0,3-11B,major
52851,59,80,57,61,7.0,3-11B,major
52852,60,84,93,60,7.0,3-11B,major
52853,62,89,46,57,7.0,3-11B,major
52854,64,92,33,61,7.0,3-11B,major
52855,65,97,38,60,7.0,3-11B,major
52856,69,92,47,64,7.0,3-11B,major
52857,72,70,13,233,0.0,2-4,major
52858,72,67,14,117,5.0,3-6,major
52859,36,75,4,187,1.0,5-30A,other
52860,72,75,112,119,10.0,5-27A,major
52861,70,72,14,77,10.0,5-27A,major
52862,58,73,14,162,7.0,1-1,other
52863,60,57,18,55,7.0,1-1,other
52864,72,77,34,127,10.0,5-27A,major
52865,72,84,90,54,10.0,5-27A,major
52866,70,65,27,59,10.0,5-27A,major
52867,55,52,119,124,10.0,5-26B,augmented
52868,69,81,75,355,0.0,4-16A,other
52869,67,54,9,249,9.0,5-35,minor
52870,49,74,52,123,7.0,3-11B,major
52871,50,82,64,59,7.0,3-11B,major
52872,51,73,55,54,7.0,3-11B,major
52873,43,74,12,115,4.0,3-7B,other
52874,48,74,7,187,3.0,4-16A,other
52875,70,75,16,175,10.0,5-27A,major
52876,58,47,90,184,7.0,1-1,other
52877,67,66,17,64,7.0,1-1,other
52878,70,86,44,123,9.0,2-3,minor
52879,72,91,37,55,9.0,2-3,minor
52880,70,77,29,51,9.0,2-3,minor
52881,67,55,38,264,7.0,2-5,other
52882,45,81,13,46,7.0,2-5,other
52883,69,108,65,119,5.0,6-24B,other
52884,68,73,20,81,5.0,6-24B,other
52885,57,58,50,186,5.0,5-13B,augmented
52886,67,52,10,48,5.0,5-13B,augmented
52887,70,76,47,650,11.0,2-3,minor
52888,71,70,41,54,11.0,2-3,minor
52889,50,62,43,122,9.0,5-35,minor
52890,50,58,140,57,9.0,5-35,minor
52891,70,98,34,70,9.0,5-35,minor
52892,70,89,23,113,7.0,3-11B,major
52893,72,81,18,114,0.0,3-4A,major
52894,53,64,8,121,7.0,4-22A,major
52895,63,73,17,303,0.0,2-1,other
52896,73,73,15,145,5.0,4-16A,other
52897,76,53,17,28,5.0,4-16A,other
52898,81,77,28,29,5.0,4-16A,other
52899,38,92,36,279,2.0,5-14A,minor
52900,50,59,102,233,0.0,4-25,major
52901,50,55,26,197,7.0,3-11B,major
52902,71,77,23,132,10.0,3-11B,other
52903,50,81,47,118,9.0,4-26,minor
52904,70,87,18,218,7.0,3-11B,major
52905,72,75,20,115,1.0,4-24,other
52906,72,73,57,233,7.0,3-6,major
52907,70,62,31,142,3.0,4-24,augmented
52908,50,63,54,349,6.0,2-6,other
52909,62,84,34,124,5.0,3-4A,major
52910,53,60,20,114,2.0,4-26,minor
52911,43,72,113,119,4.0,3-5B,other
52912,43,74,54,251,0.0,5-27A,major
52913,75,88,19,115,4.0,2-3,minor
52914,76,80,24,28,4.0,2-3,minor
52915,55,71,19,87,2.0,4-26,minor
52916,76,82,22,248,1.0,4-27A,diminished
52917,62,62,13,776,7.0,4-22A,major
52918,86,72,21,154,3.0,4-16A,major
52919,86,71,19,29,3.0,4-16A,major
52920,86,75,16,29,3.0,4-16A,major
52921,86,77,47,29,3.0,4-16A,major
52922,79,72,33,60,3.0,4-16A,major
52923,84,65,35,94,4.0,4-21,major
52924,67,93,84,83,4.0,4-21,major
52925,57,53,37,240,0.0,2-1,other
52926,74,67,28,35,0.0,2-1,other
52927,67,70,56,124,10.0,4-16A,major
52928,67,65,10,159,7.0,2-1,other
52929,45,81,57,42,7.0,2-1,other
52930,67,75,21,311,0.0,4-14B,major
52931,69,64,13,99,0.0,4-22A,major
52932,54,71,131,133,11.0,3-7B,other
52933,47,62,20,114,2.0,3-11A,minor
52934,47,56,59,122,4.0,2-2,other
52935,52,55,151,63,4.0,2-2,other
52936,71,65,30,421,0.0,5-26B,augmented
52937,71,59,16,109,11.0,2-3,minor
52938,50,42,109,142,7.0,3-11B,major
52939,50,46,37,252,2.0,4-26,minor
52940,50,53,32,49,2.0,4-26,minor
52941,43,48,28,65,2.0,4-26,minor
52942,50,54,177,110,7.0,3-11B,major
52943,50,66,8,243,5.0,4-22A,major
52944,43,72,11,48,5.0,4-22A,major
52945,43,76,19,38,5.0,4-22A,major
52946,38,63,39,34,5.0,4-22A,major
52947,38,50,43,125,7.0,3-11B,major
52948,43,48,89,288,5.0,4-22A,major
52949,48,1,26,0,,,
52950,39,68,792,1576,11.0,8-22B,diminished
52951,44,73,422,352,11.0,8-22B,diminished
52952,42,49,56,1104,0.0,3-11A,minor
52953,82,48,52,728,10.0,3-4A,major
52954,84,55,48,72,10.0,3-4A,major
52955,40,44,346,54,10.0,3-4A,major
52956,39,65,116,214,10.0,3-4A,major
52957,87,63,32,436,2.0,5-38A,minor
52958,87,70,28,116,1.0,2-3,minor
52959,48,60,728,48,1.0,2-3,minor
52960,44,52,82,300,5.0,2-5,other
52961,40,40,352,32,5.0,2-5,other
52962,38,50,360,800,4.0,2-4,major
52963,40,31,382,322,0.0,5-25B,other
52964,43,52,580,34,0.0,5-25B,other
52965,38,52,92,460,4.0,2-4,major
52966,37,66,124,144,4.0,2-4,major
52967,60,48,20,36,4.0,2-4,major
52968,61,61,40,56,4.0,2-4,major
52969,64,70,36,116,0.0,3-3B,other
52970,66,60,36,64,0.0,3-3B,other
52971,67,56,24,76,0.0,3-3B,other
52972,69,64,32,52,0.0,3-3B,other
52973,70,63,16,56,0.0,3-3B,other
52974,75,50,16,160,1.0,2-3,minor
52975,76,64,44,44,1.0,2-3,minor
52976,77,56,20,56,1.0,2-3,minor
52977,78,41,20,44,1.0,2-3,minor
52978,80,31,36,88,7.0,2-4,major
52979,82,52,36,188,5.0,3-11A,other
52980,79,49,32,176,8.0,1-1,other
52981,40,34,360,92,8.0,2-3,other
52982,72,50,20,64,8.0,2-3,other
52983,68,63,24,88,8.0,2-3,other
52984,44,69,180,68,8.0,2-3,other
52985,67,43,44,40,8.0,2-3,other
52986,35,33,16,38,8.0,2-3,other
52987,68,45,40,42,8.0,2-3,other
52988,53,27,500,128,3.0,3-11A,other
52989,52,37,88,48,3.0,3-11A,other
52990,67,43,124,84,3.0,3-11A,other
52991,44,55,60,144,3.0,3-11A,other
52992,40,46,356,28,3.0,3-11A,other
52993,39,46,98,180,3.0,3-11A,other
52994,40,34,360,200,3.0,3-11A,other
52995,39,68,760,240,3.0,4-20,major
52996,55,39,180,548,4.0,5-32A,other
52997,49,80,212,388,4.0,2-6,other
52998,40,50,46,338,0.0,4-11B,other
52999,33,79,368,434,4.0,2-4,major
53000,62,102,76,108,4.0,2-4,major
53001,39,62,176,28,4.0,2-4,major
53002,63,85,60,108,4.0,2-4,major
53003,46,39,56,732,7.0,3-5B,other
53004,35,48,16,46,7.0,3-5B,other
53005,46,85,896,282,7.0,4-26,minor
53006,91,88,76,336,2.0,3-7A,minor
53007,34,85,980,40,2.0,3-7A,minor
53008,86,81,72,64,2.0,3-7A,minor
53009,84,63,60,92,2.0,3-7A,minor
53010,87,65,84,196,0.0,5-35,other
53011,35,35,94,46,0.0,5-35,other
53012,84,56,68,50,0.0,5-35,other
53013,80,50,48,92,0.0,5-35,other
53014,46,55,28,32,0.0,5-35,other
53015,35,60,26,146,7.0,2-5,other
53016,77,64,92,190,10.0,2-1,other
53017,40,46,20,28,10.0,2-1,other
53018,39,53,32,692,9.0,3-10,diminished
53019,37,50,64,60,9.0,3-10,diminished
53020,40,46,368,52,9.0,3-10,diminished
53021,38,50,1128,32,9.0,3-10,diminished
53022,58,38,16,768,4.0,4-29A,other
53023,55,17,144,92,10.0,3-11B,major
53024,40,33,352,276,8.0,2-1,other
53025,40,31,376,360,7.0,3-11A,minor
53026,41,81,304,196,5.0,4-20,other
53027,72,86,56,148,5.0,4-20,other
53028,72,61,40,208,3.0,2-5,other
53029,73,57,20,56,3.0,2-5,other
53030,33,68,120,32,3.0,2-5,other
53031,77,80,48,92,3.0,2-1,other
53032,82,64,28,200,0.0,5-35,minor
53033,79,43,16,88,0.0,5-35,minor
53034,44,69,118,124,0.0,5-35,minor
53035,75,57,36,40,0.0,5-35,minor
53036,72,39,32,192,0.0,5-35,minor
53037,72,45,260,188,4.0,2-4,major
53038,39,50,172,168,4.0,2-4,major
53039,75,63,52,132,4.0,2-4,major
53040,40,29,372,60,4.0,2-4,major
53041,74,50,24,32,4.0,2-4,major
53042,72,48,48,428,7.0,4-14A,minor
53043,70,45,48,48,7.0,4-14A,minor
53044,69,55,28,52,7.0,4-14A,minor
53045,70,60,36,64,7.0,4-14A,minor
53046,78,68,12,204,1.0,2-3,minor
53047,81,64,20,100,1.0,2-3,minor
53048,82,60,12,88,1.0,2-3,minor
53049,84,57,32,96,1.0,2-3,minor
53050,34,54,68,548,0.0,3-7A,minor
53051,33,64,136,104,0.0,3-7A,minor
53052,35,37,26,114,0.0,3-7A,minor
53053,32,63,688,26,0.0,3-7A,minor
53054,35,32,68,60,0.0,3-7A,minor
53055,34,52,164,472,0.0,4-26,other
53056,35,49,44,160,0.0,4-26,other
53057,36,57,72,68,3.0,3-9,other
53058,37,69,732,64,3.0,3-9,other
53059,40,36,202,514,3.0,3-11A,other
53060,40,44,176,410,7.0,2-5,other
53061,44,75,40,176,7.0,2-5,other
53062,58,22,20,176,3.0,4-20,major
53063,40,39,356,620,8.0,2-1,other
53064,44,56,48,740,0.0,5-27B,other
53065,40,39,350,34,0.0,5-27B,other
53066,41,76,196,202,0.0,3-4A,other
53067,91,69,60,1104,7.0,5-35,minor
53068,86,56,44,88,7.0,5-35,minor
53069,44,58,28,108,7.0,5-35,minor
53070,40,36,350,34,7.0,5-35,minor
53071,80,57,40,878,4.0,3-10,diminished
53072,82,57,40,580,11.0,2-1,other
53073,79,39,20,84,4.0,2-4,major
53074,74,46,32,252,1.0,2-3,other
53075,39,53,42,772,7.0,5-35,minor
53076,60,42,492,104,4.0,4-16A,other
53077,40,36,196,172,4.0,4-16A,other
53078,80,68,96,28,4.0,4-16A,other
53079,82,92,68,112,4.0,4-16A,other
53080,44,57,34,56,4.0,4-16A,other
53081,80,44,80,40,4.0,4-16A,other
53082,82,64,60,100,4.0,4-16A,other
53083,79,41,80,96,0.0,3-12,augmented
53084,60,25,376,200,3.0,3-9,other
53085,82,81,76,548,3.0,3-9,other
53086,72,42,60,392,7.0,5-35,minor
53087,44,73,422,160,7.0,5-35,minor
53088,46,63,324,192,10.0,4-22A,major
53089,84,54,48,32,10.0,4-22A,major
53090,46,63,148,360,0.0,2-4,major
53091,39,61,176,380,7.0,4-26,minor
53092,39,46,46,1278,8.0,5-30B,other
53093,40,33,368,78,8.0,5-30B,other
53094,38,71,196,192,2.0,4-16A,major
53095,67,42,60,620,4.0,3-2B,minor
53096,46,83,164,152,0.0,4-26,minor
53097,46,79,464,404,0.0,4-26,minor
53098,49,54,72,452,0.0,3-11A,minor
53099,40,31,382,86,8.0,5-24B,other
53100,39,68,184,582,5.0,4-18A,major
53101,40,36,376,192,2.0,4-18A,major
53102,44,55,60,1912,4.0,3-8B,other
53103,40,46,356,28,4.0,3-8B,other
53104,39,46,98,180,4.0,3-8B,other
53105,39,47,68,160,10.0,2-4,major
53106,40,34,360,40,10.0,2-4,major
53107,35,83,296,416,4.0,2-4,major
53108,40,50,382,1098,3.0,3-7B,other
53109,45,89,748,34,3.0,3-7B,other
53110,77,46,40,640,3.0,1-1,other
53111,75,53,68,36,3.0,1-1,other
53112,87,61,16,236,6.0,4-13B,other
53113,87,55,24,120,6.0,4-13B,other
53114,87,47,16,268,5.0,3-7B,other
53115,87,58,40,344,10.0,2-4,major
53116,86,47,56,48,10.0,2-4,major
53117,86,54,36,108,10.0,2-4,major
53118,86,55,612,188,4.0,3-8A,major
53119,56,34,300,516,11.0,4-5A,other
53120,82,60,72,192,3.0,2-5,other
53121,88,64,52,236,3.0,2-4,other
53122,90,66,32,56,3.0,2-4,other
53123,40,46,20,28,3.0,2-4,other
53124,93,63,60,92,7.0,3-3A,major
53125,95,51,40,112,0.0,4-23,minor
53126,96,57,40,68,11.0,1-1,other
53127,96,62,28,100,11.0,1-1,other
53128,96,55,20,112,4.0,2-4,major
53129,96,48,20,104,4.0,2-4,major
53130,96,49,20,92,4.0,2-4,major
53131,96,54,16,96,4.0,2-4,major
53132,40,46,368,28,4.0,2-4,major
53133,96,61,56,68,4.0,2-4,major
53134,98,54,32,184,2.0,2-5,other
53135,98,68,44,80,2.0,2-5,other
53136,98,82,260,96,4.0,3-8A,major
53137,54,24,72,184,3.0,2-1,other
53138,96,57,56,96,3.0,2-1,other
53139,40,52,366,62,3.0,2-1,other
53140,96,49,56,102,7.0,4-14A,minor
53141,94,42,48,48,7.0,4-14A,minor
53142,94,55,64,120,9.0,2-2,other
53143,40,33,352,128,8.0,2-6,other
53144,94,42,20,80,8.0,2-6,other
53145,50,81,188,100,8.0,2-6,other
53146,85,45,60,320,4.0,2-1,other
53147,93,74,60,124,4.0,2-1,other
53148,39,56,158,232,0.0,4-24,augmented
53149,90,71,56,36,0.0,4-24,augmented
53150,40,24,378,234,3.0,2-5,other
53151,85,60,16,78,3.0,2-5,other
53152,84,56,40,108,0.0,3-11B,other
53153,82,55,16,100,0.0,3-11B,other
53154,82,52,60,124,8.0,1-1,other
53155,80,40,36,44,8.0,1-1,other
53156,79,36,16,44,8.0,1-1,other
53157,77,65,48,52,8.0,1-1,other
53158,63,31,92,32,8.0,1-1,other
53159,76,39,64,44,8.0,1-1,other
53160,77,65,56,88,8.0,1-1,other
53161,39,50,172,252,1.0,2-5,other
53162,44,62,86,948,0.0,3-9,other
53163,38,63,32,128,1.0,2-3,minor
53164,37,52,16,92,1.0,2-3,minor
53165,35,63,76,108,1.0,2-3,minor
53166,85,86,40,396,0.0,4-21,major
53167,87,87,72,96,0.0,3-12,augmented
53168,88,88,48,100,0.0,3-12,augmented
53169,85,68,76,100,10.0,2-4,major
53170,62,22,228,972,7.0,4-29A,minor
53171,75,46,36,96,7.0,4-29A,minor
53172,77,68,56,68,7.0,4-29A,minor
53173,40,77,376,156,3.0,2-5,other
53174,39,66,1032,380,8.0,4-29A,other
53175,40,44,176,204,8.0,4-29A,other
53176,44,75,40,176,8.0,4-29A,other
53177,79,84,100,32,8.0,4-29A,other
53178,74,68,76,120,8.0,4-29A,other
53179,46,85,152,64,8.0,4-29A,other
53180,72,36,68,44,8.0,4-29A,other
53181,77,82,68,96,8.0,4-29A,other
53182,72,57,60,192,0.0,3-7A,minor
53183,68,36,56,96,0.0,3-7A,minor
53184,68,35,20,188,4.0,3-3A,major
53185,45,82,196,320,4.0,3-3A,major
53186,44,56,48,384,0.0,4-17,other
53187,35,29,16,60,9.0,5-32A,other
53188,84,51,16,120,9.0,5-32A,other
53189,90,38,24,200,9.0,2-6,other
53190,87,68,56,132,6.0,3-8B,other
53191,90,24,20,28,6.0,3-8B,other
53192,35,27,118,74,2.0,2-5,other
53193,50,71,20,290,4.0,2-4,major
53194,54,46,96,32,4.0,2-4,major
53195,45,65,80,36,4.0,2-4,major
53196,44,68,60,108,4.0,2-4,major
53197,38,49,48,388,4.0,5-29B,diminished
53198,40,36,350,102,8.0,5-5A,other
53199,35,28,32,198,8.0,5-5A,other
53200,87,86,60,300,7.0,2-3,minor
53201,85,81,60,140,4.0,2-1,other
53202,84,70,32,60,4.0,2-1,other
53203,81,70,40,144,9.0,6-45,major
53204,82,39,52,64,9.0,6-45,major
53205,79,54,32,80,9.0,2-6,other
53206,31,67,56,96,11.0,2-5,other
53207,76,53,38,32,11.0,2-5,other
53208,74,46,36,100,5.0,3-7B,other
53209,73,57,44,48,5.0,3-7B,other
53210,72,40,20,156,0.0,2-1,other
53211,72,44,24,168,0.0,3-12,augmented
53212,72,47,24,80,0.0,3-12,augmented
53213,72,47,20,84,0.0,3-12,augmented
53214,72,45,24,72,0.0,3-12,augmented
53215,44,78,302,200,0.0,2-5,other
53216,40,42,24,224,0.0,2-5,other
53217,38,51,48,508,0.0,3-9,other
53218,39,32,158,884,1.0,6-28,other
53219,55,26,44,204,1.0,5-31A,other
53220,35,31,18,284,1.0,5-31A,other
53221,53,83,108,232,4.0,3-3A,major
53222,55,75,100,92,4.0,3-3A,major
53223,53,57,88,204,3.0,2-5,other
53224,58,72,96,276,8.0,2-6,other
53225,56,67,76,200,1.0,2-6,other
53226,58,55,80,88,1.0,2-6,other
53227,40,44,362,146,8.0,2-3,minor
53228,61,43,72,38,8.0,2-3,minor
53229,65,47,64,180,3.0,2-4,other
53230,38,56,52,80,3.0,2-4,other
53231,72,72,64,28,3.0,2-4,other
53232,69,41,80,96,0.0,6-8,other
53233,39,46,46,1030,10.0,3-4A,major
53234,42,89,344,118,4.0,2-6,other
53235,40,37,372,340,4.0,3-8B,other
53236,86,38,20,304,3.0,2-4,major
53237,79,28,16,1148,9.0,2-3,minor
53238,82,63,52,188,2.0,6-32,minor
53239,46,89,36,92,2.0,6-32,minor
53240,46,61,48,644,3.0,3-4A,other
53241,34,59,220,504,4.0,5-28B,other
53242,39,57,32,852,0.0,2-5,other
53243,35,33,16,34,0.0,2-5,other
53244,37,65,64,38,0.0,2-5,other
53245,44,55,60,408,10.0,5-33,augmented
53246,39,46,98,208,5.0,2-5,other
53247,75,76,48,692,4.0,2-4,major
53248,73,45,28,52,4.0,2-4,major
53249,74,79,76,52,4.0,2-4,major
53250,72,70,56,200,4.0,2-5,other
53251,70,65,40,72,4.0,2-5,other
53252,70,58,32,164,5.0,5-13B,other
53253,55,28,160,156,5.0,3-4A,other
53254,45,28,24,280,9.0,2-6,other
53255,40,47,378,434,0.0,4-26,minor
53256,50,27,108,58,0.0,4-26,minor
53257,46,79,172,324,0.0,4-26,minor
53258,46,74,208,196,0.0,4-26,minor
53259,35,48,16,490,6.0,3-10,minor
53260,38,54,24,222,7.0,2-3,minor
53261,34,57,376,68,7.0,2-3,minor
53262,31,69,400,368,4.0,2-4,major
53263,82,44,16,156,4.0,2-4,major
53264,82,31,20,200,1.0,4-13A,minor
53265,85,52,56,188,4.0,2-6,other
53266,45,74,188,224,3.0,4-8,other
53267,53,22,24,228,0.0,4-17,other
53268,40,39,366,362,11.0,1-1,other
53269,39,58,116,122,11.0,1-1,other
53270,38,63,144,136,11.0,1-1,other
53271,40,33,352,1292,7.0,6-33A,minor
53272,65,45,24,196,7.0,5-35,minor
53273,40,31,376,164,7.0,5-37,minor
53274,39,56,158,496,1.0,5-34,minor
53275,51,46,48,32,1.0,5-34,minor
53276,49,43,44,172,1.0,5-31A,diminished
53277,53,23,36,1620,0.0,5-11A,other
53278,79,67,56,1272,10.0,2-4,major
53279,77,63,360,108,10.0,2-4,major
53280,35,37,26,102,10.0,2-4,major
53281,35,32,68,86,3.0,4-22A,major
53282,35,35,50,190,3.0,3-3B,other
53283,79,71,76,94,3.0,3-3B,other
53284,46,86,164,256,10.0,2-5,other
53285,77,79,48,664,8.0,2-2,other
53286,40,36,202,74,8.0,2-2,other
53287,87,92,28,62,8.0,2-2,other
53288,77,58,68,272,0.0,5-35,other
53289,77,62,68,112,5.0,2-1,other
53290,87,66,444,272,8.0,2-3,other
53291,46,87,152,72,8.0,2-3,other
53292,80,49,108,56,8.0,2-3,other
53293,62,46,192,160,4.0,5-10A,other
53294,46,66,316,168,4.0,5-10A,other
53295,75,68,52,528,4.0,4-15B,other
53296,65,13,116,108,4.0,4-27A,diminished
53297,70,51,44,108,4.0,4-27A,diminished
53298,43,85,564,68,4.0,4-27A,diminished
53299,67,7,44,52,4.0,4-27A,diminished
53300,44,56,48,84,4.0,4-27A,diminished
53301,40,39,350,34,4.0,4-27A,diminished
53302,66,60,32,290,11.0,3-10,diminished
53303,69,68,44,56,11.0,3-10,diminished
53304,67,49,44,112,4.0,3-8B,other
53305,69,51,32,64,4.0,3-8B,other
53306,72,56,28,108,0.0,3-1,other
53307,73,56,16,44,0.0,3-1,other
53308,76,54,20,100,3.0,3-4A,other
53309,78,58,16,48,3.0,3-4A,other
53310,84,70,40,68,3.0,3-4A,other
53311,73,56,24,84,3.0,3-4A,other
53312,72,51,48,88,3.0,3-4A,other
53313,68,49,20,168,4.0,3-5A,other
53314,67,49,32,88,4.0,3-5A,other
53315,68,50,64,44,4.0,3-5A,other
53316,67,55,40,40,4.0,3-5A,other
53317,65,55,44,52,4.0,3-5A,other
53318,67,68,56,112,4.0,2-5,other
53319,65,68,80,120,4.0,2-5,other
53320,63,45,64,84,4.0,2-5,other
53321,60,43,28,232,4.0,3-8B,other
53322,58,63,36,424,3.0,3-4A,other
53323,39,35,106,64,3.0,3-4A,other
53324,35,31,28,96,3.0,2-5,other
53325,56,75,56,48,3.0,2-5,other
53326,39,74,176,72,4.0,2-5,other
53327,39,85,556,200,11.0,1-1,other
53328,46,87,156,532,4.0,2-4,major
53329,46,87,176,180,2.0,4-23,minor
53330,34,82,176,376,2.0,2-2,other
53331,39,53,42,108,2.0,2-2,other
53332,57,27,152,484,0.0,3-11B,other
53333,82,67,32,240,9.0,2-5,other
53334,37,64,68,248,2.0,4-21,major
53335,39,32,158,100,2.0,2-4,major
53336,75,61,64,260,9.0,3-4B,other
53337,35,24,32,308,4.0,5-29B,diminished
53338,69,37,40,108,4.0,5-29B,diminished
53339,70,44,972,76,4.0,5-29B,diminished
53340,44,73,422,184,4.0,5-29B,diminished
53341,52,36,224,800,0.0,5-26A,augmented
53342,42,83,208,180,0.0,5-26A,augmented
53343,41,76,392,200,0.0,2-4,major
53344,60,23,440,184,3.0,3-4B,other
53345,67,48,48,124,3.0,3-4B,other
53346,35,107,356,92,4.0,2-4,major
53347,72,47,24,176,3.0,3-11B,major
53348,74,58,28,60,3.0,3-11B,major
53349,77,63,40,196,4.0,2-6,other
53350,79,82,48,64,4.0,2-6,other
53351,39,46,46,166,8.0,3-5B,other
53352,46,99,380,98,4.0,2-6,other
53353,84,69,36,44,4.0,2-6,other
53354,87,57,52,196,8.0,3-5B,other
53355,89,68,52,72,8.0,3-5B,other
53356,40,37,372,48,8.0,3-5B,other
53357,82,51,164,216,2.0,6-33A,minor
53358,44,52,82,156,2.0,6-33A,minor
53359,87,72,44,820,4.0,2-4,major
53360,87,76,48,144,4.0,2-4,major
53361,87,63,40,116,4.0,2-4,major
53362,86,68,300,144,3.0,3-3A,major
53363,82,52,148,156,3.0,3-3A,major
53364,40,36,376,548,4.0,3-3B,other
53365,39,82,408,208,5.0,4-20,other
53366,43,52,120,1136,0.0,6-47A,other
53367,44,55,60,568,4.0,2-6,other
53368,40,46,356,28,4.0,2-6,other
53369,39,46,98,180,10.0,5-30B,other
53370,77,31,72,260,7.0,4-26,minor
53371,38,61,56,64,7.0,4-26,minor
53372,31,71,196,440,10.0,3-11B,major
53373,48,88,172,780,1.0,3-10,other
53374,44,88,276,384,0.0,5-37,other
53375,40,47,378,174,0.0,4-26,other
53376,37,81,400,390,5.0,3-11A,other
53377,49,43,280,332,3.0,4-27A,other
53378,35,48,16,346,4.0,3-8A,major
53379,62,56,40,602,5.0,2-2,other
53380,62,39,20,92,5.0,2-2,other
53381,69,72,64,56,5.0,2-2,other
53382,66,66,32,64,5.0,2-2,other
53383,69,57,32,92,4.0,6-50,other
53384,70,57,16,40,4.0,6-50,other
53385,72,64,36,40,4.0,6-50,other
53386,35,35,94,70,1.0,3-2A,other
53387,76,68,36,38,1.0,3-2A,other
53388,78,57,12,44,1.0,3-2A,other
53389,79,61,16,36,1.0,3-2A,other
53390,48,80,172,80,10.0,2-1,other
53391,83,42,36,36,10.0,2-1,other
53392,84,63,40,44,10.0,2-1,other
53393,35,60,26,42,10.0,2-1,other
53394,82,60,16,138,11.0,1-1,other
53395,80,61,36,272,0.0,4-20,other
53396,79,54,12,180,7.0,2-4,major
53397,77,69,36,164,11.0,2-6,other
53398,75,57,28,80,11.0,2-6,other
53399,62,42,92,224,4.0,5-28B,other
53400,74,68,32,556,10.0,2-4,major
53401,70,61,208,204,4.0,3-8B,other
53402,44,75,112,340,10.0,1-1,other
53403,46,56,132,232,4.0,4-27A,diminished
53404,46,69,128,384,4.0,2-6,other
53405,39,56,158,272,7.0,3-11A,minor
53406,46,55,40,96,7.0,3-11A,minor
53407,70,60,68,508,3.0,4-20,major
53408,67,43,52,100,3.0,4-20,major
53409,70,56,60,92,3.0,4-20,major
53410,67,48,40,96,3.0,4-20,major
53411,70,56,72,96,3.0,4-20,major
53412,46,67,152,232,3.0,4-20,major
53413,70,58,36,48,3.0,4-20,major
53414,46,57,228,144,3.0,4-20,major
53415,34,57,208,196,10.0,2-4,major
53416,79,63,76,136,10.0,2-4,major
53417,41,80,776,64,10.0,2-4,major
53418,82,68,144,212,0.0,4-22A,other
53419,80,63,160,188,0.0,4-22A,other
53420,82,48,60,184,0.0,4-22A,other
53421,82,57,164,396,7.0,4-29A,minor
53422,86,53,68,408,2.0,2-2,other
53423,39,78,208,156,2.0,2-2,other
53424,87,56,140,60,2.0,2-2,other
53425,46,48,100,148,2.0,2-2,other
53426,53,48,100,128,2.0,2-2,other
53427,55,48,1708,124,2.0,2-2,other
53428,58,46,1560,128,2.0,2-2,other
53429,60,49,72,148,2.0,2-2,other
53430,62,63,40,88,2.0,2-2,other
53431,65,59,56,92,2.0,2-2,other
53432,67,56,48,96,2.0,2-2,other
53433,70,60,36,96,2.0,2-2,other
53434,72,58,48,96,2.0,2-2,other
53435,74,42,40,116,2.0,2-2,other
53436,77,57,76,124,2.0,2-2,other
53437,82,58,36,100,2.0,2-2,other
53438,84,56,56,84,2.0,2-2,other
53439,89,60,52,72,2.0,2-2,other
53440,94,59,24,68,2.0,2-2,other
53441,101,66,56,144,0.0,2-1,other
53442,106,68,60,72,0.0,2-1,other
53443,108,71,116,84,0.0,2-1,other
53444,108,63,112,152,0.0,2-1,other
53445,108,61,104,160,0.0,2-1,other
53446,108,51,100,176,0.0,2-1,other
53447,82,73,46,0,,,
53448,82,65,31,103,3.0,3-6,major
53449,82,60,19,101,7.0,2-3,minor
53450,82,71,24,98,3.0,3-6,major
53451,82,76,24,95,7.0,2-3,minor
53452,82,67,24,89,0.0,4-26,other
53453,82,48,24,94,8.0,2-2,other
53454,82,50,36,111,0.0,4-26,other
53455,82,62,28,186,0.0,4-22A,other
53456,55,52,9,172,0.0,2-5,other
53457,61,46,59,658,2.0,5-13A,minor
53458,60,59,66,83,2.0,5-13A,minor
53459,67,74,74,73,2.0,5-13A,minor
53460,74,66,63,175,3.0,4-14A,other
53461,77,69,195,229,7.0,4-18A,major
53462,82,70,48,523,7.0,3-7A,minor
53463,82,67,46,150,7.0,2-3,minor
53464,84,68,60,627,5.0,4-19B,other
53465,81,58,56,69,5.0,4-19B,other
53466,84,60,138,53,5.0,4-19B,other
53467,38,47,15,67,5.0,4-19B,other
53468,81,60,103,302,0.0,2-2,other
53469,84,64,85,100,0.0,2-2,other
53470,61,74,85,354,10.0,3-11B,major
53471,59,66,50,151,2.0,5-31B,major
53472,58,60,31,46,2.0,5-31B,major
53473,57,58,38,38,2.0,5-31B,major
53474,56,40,25,33,2.0,5-31B,major
53475,55,58,32,26,2.0,5-31B,major
53476,60,53,126,120,2.0,4-18A,major
53477,63,43,50,65,2.0,4-18A,major
53478,66,56,20,59,2.0,4-18A,major
53479,60,39,161,191,0.0,4-22B,minor
53480,77,57,33,155,0.0,3-11B,other
53481,74,55,48,203,8.0,5-16A,other
53482,65,34,170,249,8.0,3-8B,other
53483,55,53,31,383,9.0,2-6,other
53484,57,54,24,30,9.0,2-6,other
53485,54,44,341,479,3.0,2-1,other
53486,55,45,61,500,10.0,3-11B,major
53487,56,29,62,319,4.0,3-7A,minor
53488,33,62,23,137,4.0,3-7A,minor
53489,51,60,16,491,8.0,5-23A,other
53490,58,59,61,482,0.0,3-11B,other
53491,75,63,62,185,7.0,3-5B,other
53492,70,53,18,159,7.0,4-26,minor
53493,65,71,40,63,7.0,4-26,minor
53494,62,51,42,49,7.0,4-26,minor
53495,64,50,49,99,0.0,3-7A,minor
53496,65,48,30,51,0.0,3-7A,minor
53497,66,44,54,50,0.0,3-7A,minor
53498,67,32,73,60,0.0,3-7A,minor
53499,61,46,67,59,0.0,3-7A,minor
53500,60,36,55,72,0.0,3-7A,minor
53501,58,31,64,69,0.0,3-7A,minor
53502,67,64,33,527,11.0,2-6,other
53503,70,73,35,270,3.0,3-4B,other
53504,79,64,38,858,7.0,5-31B,major
53505,80,72,33,141,2.0,4-23,minor
53506,86,74,35,1167,0.0,3-2B,minor
53507,84,52,32,48,0.0,3-2B,minor
53508,86,80,301,367,0.0,2-2,other
53509,75,56,88,170,5.0,3-4A,other
53510,55,1,70,345,0.0,4-22A,other
53511,50,48,242,342,4.0,4-23,minor
53512,59,12,208,384,3.0,4-22A,major
53513,68,60,51,74,3.0,4-22A,major
53514,67,58,94,79,3.0,4-22A,major
53515,65,55,32,72,3.0,4-22A,major
53516,72,53,48,637,1.0,4-28,diminished
53517,70,53,34,43,1.0,4-28,diminished
53518,51,36,352,123,0.0,2-4,other
53519,60,55,26,163,0.0,2-4,other
53520,68,64,29,181,0.0,2-5,other
53521,67,25,11,43,0.0,2-5,other
53522,49,34,35,387,3.0,3-11A,other
53523,61,56,62,1090,2.0,4-29A,minor
53524,63,62,55,155,2.0,3-5B,other
53525,46,49,177,168,0.0,5-35,other
53526,46,37,154,202,4.0,5-32B,other
53527,46,49,143,187,4.0,5-32B,other
53528,82,2,48,907,3.0,2-4,major
53529,82,54,42,71,3.0,2-4,major
53530,82,42,34,120,7.0,3-7A,minor
53531,86,91,45,149,7.0,2-3,minor
53532,79,42,23,121,7.0,3-7A,minor
53533,86,80,63,190,10.0,1-1,other
53534,82,68,50,138,0.0,4-26,other
53535,82,67,52,113,8.0,3-7B,other
53536,82,56,61,135,8.0,2-6,other
53537,82,53,50,139,8.0,2-2,other
53538,55,41,192,162,10.0,4-6,other
53539,65,40,64,83,10.0,4-6,other
53540,64,31,48,269,0.0,4-24,augmented
53541,41,53,16,377,0.0,4-24,augmented
53542,71,68,75,650,8.0,6-15A,other
53543,70,68,50,203,7.0,4-18A,major
53544,67,52,53,223,7.0,3-11A,minor
53545,74,85,43,166,7.0,2-5,other
53546,67,66,36,159,3.0,3-4A,major
53547,70,61,158,174,3.0,3-11B,major
53548,74,66,78,464,5.0,4-16A,other
53549,75,60,52,195,2.0,2-2,other
53550,74,63,37,251,6.0,3-10,other
53551,72,48,33,37,6.0,3-10,other
53552,62,44,184,133,7.0,2-5,other
53553,65,38,96,115,7.0,2-5,other
53554,74,61,35,80,7.0,2-5,other
53555,61,30,20,153,2.0,3-3A,major
53556,58,44,18,85,0.0,2-1,other
53557,57,48,21,27,0.0,2-1,other
53558,54,72,169,86,8.0,2-1,other
53559,60,32,101,82,8.0,2-1,other
53560,63,37,44,52,8.0,2-1,other
53561,66,50,80,49,8.0,2-1,other
53562,74,59,31,45,8.0,2-1,other
53563,75,50,32,73,8.0,2-1,other
53564,56,62,61,224,0.0,2-5,other
53565,60,63,33,104,7.0,2-3,minor
53566,62,68,33,30,7.0,2-3,minor
53567,72,64,30,158,8.0,2-2,other
53568,74,53,25,28,8.0,2-2,other
53569,79,44,26,82,5.0,2-2,other
53570,82,35,14,54,5.0,2-2,other
53571,86,64,28,62,0.0,4-16A,other
53572,87,63,18,36,0.0,4-16A,other
53573,89,59,32,28,0.0,4-16A,other
53574,91,58,29,34,0.0,4-16A,other
53575,92,58,25,36,0.0,4-16A,other
53576,94,57,18,36,0.0,4-16A,other
53577,96,65,30,35,0.0,4-16A,other
53578,99,72,41,80,7.0,3-9,other
53579,99,63,35,60,7.0,3-9,other
53580,99,67,28,54,7.0,3-9,other
53581,87,54,29,107,9.0,3-8B,other
53582,87,46,66,47,9.0,3-8B,other
53583,99,64,30,44,9.0,3-8B,other
53584,96,57,26,364,2.0,4-15B,other
53585,94,57,36,101,2.0,4-15B,other
53586,96,62,30,52,2.0,4-15B,other
53587,62,35,282,123,7.0,2-5,other
53588,67,43,170,71,7.0,2-5,other
53589,82,57,49,84,7.0,2-5,other
53590,84,64,34,70,7.0,2-5,other
53591,51,39,95,692,0.0,3-11B,other
53592,53,47,126,639,0.0,5-27A,other
53593,50,43,21,318,7.0,4-26,minor
53594,57,40,60,83,7.0,4-26,minor
53595,81,66,205,942,6.0,1-1,other
53596,66,59,91,500,0.0,2-5,other
53597,67,59,27,62,0.0,2-5,other
53598,59,4,81,105,5.0,3-11B,other
53599,56,25,151,58,5.0,3-11B,other
53600,68,42,43,154,11.0,2-6,other
53601,56,31,62,183,1.0,4-22B,other
53602,70,51,81,184,3.0,3-11A,other
53603,63,58,67,237,7.0,4-26,minor
53604,65,64,48,53,7.0,4-26,minor
53605,61,52,40,472,2.0,4-29A,minor
53606,60,46,524,71,2.0,4-29A,minor
53607,62,59,257,89,2.0,4-29A,minor
53608,63,48,323,87,2.0,4-29A,minor
53609,68,69,16,586,5.0,2-1,other
53610,76,49,28,132,11.0,2-3,minor
53611,77,46,27,53,11.0,2-3,minor
53612,80,39,16,61,11.0,2-3,minor
53613,83,53,23,46,11.0,2-3,minor
53614,86,60,15,55,11.0,2-3,minor
53615,91,47,87,204,7.0,4-13B,other
53616,87,67,86,265,4.0,2-2,other
53617,86,62,98,71,4.0,2-2,other
53618,38,49,9,417,5.0,4-16A,other
53619,96,35,37,426,7.0,3-11A,minor
53620,45,40,22,342,1.0,5-34,other
53621,53,63,96,736,7.0,4-26,minor
53622,43,36,12,94,7.0,4-26,minor
53623,63,36,34,954,3.0,3-11B,major
53624,61,53,24,478,2.0,4-29A,minor
53625,60,44,27,39,2.0,4-29A,minor
53626,51,42,82,52,2.0,4-29A,minor
53627,57,36,29,38,2.0,4-29A,minor
53628,58,51,20,42,2.0,4-29A,minor
53629,46,42,190,48,2.0,4-29A,minor
53630,62,71,44,92,0.0,2-4,other
53631,56,47,45,52,0.0,2-4,other
53632,45,30,13,1716,1.0,4-12A,other
53633,56,46,39,390,0.0,3-11B,other
53634,56,43,65,135,8.0,4-27B,other
53635,43,42,84,135,7.0,4-26,minor
53636,65,55,28,137,10.0,3-11B,major
53637,68,50,20,139,0.0,5-31B,major
53638,53,69,167,295,0.0,3-4A,other
53639,44,46,35,140,0.0,2-3,minor
53640,57,52,56,151,1.0,4-11A,other
53641,56,49,86,79,1.0,4-11A,other
53642,65,54,9,373,3.0,3-11B,major
53643,48,34,47,287,1.0,4-27A,minor
53644,62,33,31,86,5.0,4-24,augmented
53645,63,48,67,102,2.0,2-5,other
53646,34,46,90,262,7.0,3-11A,minor
53647,46,38,52,96,7.0,3-11A,minor
53648,46,33,50,412,0.0,4-20,other
53649,79,51,23,104,0.0,4-20,other
53650,86,81,27,36,0.0,4-20,other
53651,46,36,21,324,7.0,3-11A,minor
53652,79,50,15,188,3.0,4-20,major
53653,86,95,33,37,3.0,4-20,major
53654,80,67,47,132,0.0,3-11B,other
53655,58,35,51,51,0.0,3-11B,other
53656,56,34,21,291,8.0,4-12A,other
53657,63,60,26,48,8.0,4-12A,other
53658,53,40,17,239,5.0,3-9,other
53659,73,35,15,186,0.0,2-2,other
53660,84,70,28,164,0.0,4-27B,major
53661,82,47,15,39,0.0,4-27B,major
53662,81,62,24,35,0.0,4-27B,major
53663,77,59,39,91,5.0,4-15B,major
53664,76,66,20,43,5.0,4-15B,major
53665,78,50,12,73,3.0,3-6,major
53666,77,62,26,32,3.0,3-6,major
53667,75,51,26,34,3.0,3-6,major
53668,72,30,18,43,3.0,3-6,major
53669,72,35,20,75,0.0,4-20,other
53670,73,62,25,38,0.0,4-20,other
53671,74,74,33,36,0.0,4-20,other
53672,67,55,19,104,8.0,2-2,other
53673,46,38,128,39,8.0,2-2,other
53674,46,58,396,143,7.0,3-11A,minor
53675,67,58,28,53,7.0,3-11A,minor
53676,70,65,22,43,7.0,3-11A,minor
53677,70,50,39,147,0.0,2-5,other
53678,46,35,38,184,7.0,2-5,other
53679,69,43,17,260,9.0,4-27A,diminished
53680,72,48,34,35,9.0,4-27A,diminished
53681,69,40,22,249,6.0,3-10,other
53682,72,43,31,38,6.0,3-10,other
53683,55,44,20,283,10.0,2-4,major
53684,54,59,199,51,10.0,2-4,major
53685,54,35,42,239,2.0,4-18A,major
53686,68,40,30,180,0.0,3-11A,minor
53687,86,55,17,251,0.0,2-2,other
53688,95,36,9,118,9.0,2-1,other
53689,98,40,16,62,1.0,2-3,other
53690,44,36,50,1679,0.0,4-26,other
53691,74,74,38,156,7.0,4-26,minor
53692,74,79,49,70,7.0,4-26,minor
53693,72,68,50,68,7.0,4-26,minor
53694,70,71,33,146,0.0,4-15B,other
53695,73,43,58,165,3.0,3-5B,other
53696,72,55,24,43,3.0,3-5B,other
53697,63,42,17,573,1.0,4-22B,other
53698,65,49,51,315,0.0,4-19A,minor
53699,43,58,109,150,0.0,5-31B,major
53700,36,39,8,155,1.0,4-27A,minor
53701,62,43,88,104,5.0,4-24,augmented
53702,41,47,106,58,5.0,4-24,augmented
53703,58,52,36,316,0.0,5-35,other
53704,46,33,23,163,8.0,3-5B,other
53705,99,77,17,564,6.0,3-5B,other
53706,98,85,23,33,6.0,3-5B,other
53707,98,71,8,74,0.0,3-2B,minor
53708,84,89,15,347,6.0,3-5B,other
53709,91,90,22,33,6.0,3-5B,other
53710,87,59,8,65,0.0,4-23,minor
53711,84,60,9,31,0.0,4-23,minor
53712,79,47,9,28,0.0,4-23,minor
53713,75,57,10,31,0.0,4-23,minor
53714,72,50,12,29,0.0,4-23,minor
53715,67,45,7,33,0.0,4-23,minor
53716,89,95,11,97,9.0,3-10,diminished
53717,87,79,13,28,9.0,3-10,diminished
53718,78,49,11,53,5.0,3-5B,other
53719,77,48,16,27,5.0,3-5B,other
53720,75,48,13,27,5.0,3-5B,other
53721,69,44,13,138,10.0,2-4,major
53722,67,58,11,29,10.0,2-4,major
53723,65,60,15,36,10.0,2-4,major
53724,62,51,20,32,10.0,2-4,major
53725,63,49,17,27,10.0,2-4,major
53726,82,59,11,257,9.0,3-1,other
53727,72,49,17,33,9.0,3-1,other
53728,72,58,14,129,1.0,3-1,other
53729,68,49,15,40,1.0,3-1,other
53730,70,52,17,67,3.0,3-11A,other
53731,68,42,16,40,3.0,3-11A,other
53732,67,61,18,246,10.0,2-1,other
53733,63,46,16,26,10.0,2-1,other
53734,58,34,121,35,10.0,2-1,other
53735,72,29,108,445,3.0,2-1,other
53736,74,69,17,118,3.0,2-4,major
53737,70,73,34,152,11.0,2-3,minor
53738,72,60,21,26,11.0,2-3,minor
53739,70,37,24,121,2.0,5-29B,minor
53740,67,44,41,26,2.0,5-29B,minor
53741,68,57,16,121,7.0,2-2,other
53742,70,69,18,28,7.0,2-2,other
53743,74,68,18,57,0.0,4-22A,other
53744,75,78,66,28,0.0,4-22A,other
53745,98,63,9,718,7.0,4-14A,minor
53746,98,62,6,37,7.0,4-14A,minor
53747,98,70,14,32,7.0,4-14A,minor
53748,96,51,6,26,7.0,4-14A,minor
53749,62,32,11,156,2.0,3-7A,minor
53750,91,59,9,34,2.0,3-7A,minor
53751,94,53,11,26,2.0,3-7A,minor
53752,98,74,12,32,2.0,3-7A,minor
53753,74,80,15,454,0.0,3-11B,other
53754,70,54,103,195,9.0,2-3,minor
53755,74,53,13,220,0.0,3-7B,other
53756,74,71,21,45,0.0,3-7B,other
53757,72,58,15,40,0.0,3-7B,other
53758,72,47,16,31,0.0,3-7B,other
53759,70,51,11,27,0.0,3-7B,other
53760,70,56,19,26,0.0,3-7B,other
53761,67,56,12,26,0.0,3-7B,other
53762,67,47,10,28,0.0,3-7B,other
53763,63,49,19,55,0.0,3-7B,other
53764,60,39,58,33,0.0,3-7B,other
53765,74,57,16,414,2.0,4-23,minor
53766,70,50,16,35,2.0,4-23,minor
53767,72,60,14,73,7.0,2-3,minor
53768,73,50,16,26,7.0,2-3,minor
53769,74,54,14,26,7.0,2-3,minor
53770,75,52,16,61,3.0,3-5B,other
53771,73,38,12,31,3.0,3-5B,other
53772,75,58,14,65,3.0,3-5B,other
53773,65,47,15,284,9.0,2-6,other
53774,66,74,25,31,9.0,2-6,other
53775,79,49,12,1888,8.0,2-2,other
53776,77,63,13,40,8.0,2-2,other
53777,70,52,84,147,1.0,2-1,other
53778,67,35,15,87,1.0,2-1,other
53779,65,53,15,180,7.0,2-1,other
53780,63,60,14,48,7.0,2-1,other
53781,65,67,13,106,3.0,2-1,other
53782,59,64,46,88,11.0,2-3,minor
53783,56,56,16,40,11.0,2-3,minor
53784,56,48,18,27,11.0,2-3,minor
53785,82,34,39,1026,8.0,6-9A,other
53786,82,67,31,101,10.0,3-4A,major
53787,74,49,16,630,7.0,3-5B,other
53788,70,58,12,59,10.0,2-4,major
53789,70,62,16,64,10.0,2-4,major
53790,87,92,29,238,1.0,3-5B,other
53791,87,74,25,39,1.0,3-5B,other
53792,87,74,307,38,1.0,3-5B,other
53793,64,41,102,1292,10.0,3-11B,major
53794,63,37,25,91,10.0,3-11B,major
53795,61,57,20,63,0.0,3-8A,major
53796,60,40,25,29,0.0,3-8A,major
53797,58,60,36,30,0.0,3-8A,major
53798,56,60,24,30,0.0,3-8A,major
53799,55,59,15,92,0.0,3-8A,major
53800,63,51,13,218,11.0,2-6,other
53801,56,35,27,137,3.0,4-19B,other
53802,63,58,16,337,7.0,2-3,minor
53803,64,55,18,26,7.0,2-3,minor
53804,98,60,12,221,3.0,2-5,other
53805,96,60,11,41,3.0,2-5,other
53806,96,55,13,67,10.0,3-4B,other
53807,76,49,9,1030,1.0,2-2,other
53808,86,40,10,171,2.0,4-15B,other
53809,86,54,8,32,2.0,4-15B,other
53810,86,44,82,29,2.0,4-15B,other
53811,86,52,6,156,7.0,3-11A,minor
53812,79,95,21,805,0.0,4-20,other
53813,75,42,22,67,8.0,4-12B,other
53814,70,45,28,106,0.0,2-2,other
53815,70,33,54,41,0.0,2-2,other
53816,82,77,26,74,0.0,2-2,other
53817,79,47,20,79,3.0,4-16A,other
53818,77,50,19,27,3.0,4-16A,other
53819,76,35,22,28,3.0,4-16A,other
53820,73,36,32,63,3.0,1-1,other
53821,70,50,34,125,0.0,3-7A,minor
53822,70,45,44,45,0.0,3-7A,minor
53823,67,48,24,68,0.0,2-4,other
53824,65,40,30,123,3.0,3-11A,other
53825,65,44,36,45,3.0,3-11A,other
53826,55,44,38,343,7.0,3-11B,major
53827,61,18,14,1447,6.0,3-5B,other
53828,98,62,12,124,5.0,3-4B,other
53829,94,60,22,75,5.0,3-5B,other
53830,93,69,27,42,5.0,3-5B,other
53831,94,54,24,76,10.0,5-27A,major
53832,86,53,14,31,10.0,5-27A,major
53833,84,99,30,382,6.0,3-5B,other
53834,89,66,24,78,0.0,5-35,minor
53835,87,64,25,45,0.0,5-35,minor
53836,79,43,28,68,0.0,3-7A,minor
53837,79,35,36,49,0.0,3-7A,minor
53838,77,37,17,39,0.0,3-7A,minor
53839,75,52,32,30,0.0,3-7A,minor
53840,74,59,23,86,3.0,2-5,other
53841,72,33,123,31,3.0,2-5,other
53842,72,45,31,238,7.0,3-2B,minor
53843,58,30,26,904,10.0,3-11B,major
53844,70,29,25,963,3.0,3-4A,major
53845,70,25,20,56,7.0,4-26,minor
53846,98,57,8,1832,3.0,4-16A,major
53847,101,59,9,29,3.0,4-16A,major
53848,99,62,16,32,3.0,4-16A,major
53849,95,38,10,28,3.0,4-16A,major
53850,96,54,5,55,3.0,3-4A,major
53851,82,36,20,270,3.0,3-4A,major
53852,79,36,13,26,3.0,3-4A,major
53853,82,37,10,61,7.0,1-1,other
53854,84,64,10,2883,0.0,4-23,minor
53855,79,53,11,39,0.0,4-23,minor
53856,75,56,21,34,0.0,4-23,minor
53857,72,39,42,40,0.0,4-23,minor
53858,46,46,60,124,0.0,4-23,minor
53859,72,71,9,406,10.0,3-11B,major
53860,73,52,15,31,10.0,3-11B,major
53861,73,42,16,62,9.0,3-5A,other
53862,70,33,14,118,10.0,3-6,major
53863,69,51,14,32,10.0,3-6,major
53864,68,27,28,27,10.0,3-6,major
53865,68,46,30,49,10.0,3-6,major
53866,70,61,18,93,7.0,2-1,other
53867,68,37,44,28,7.0,2-1,other
53868,68,73,34,179,7.0,2-1,other
53869,53,31,6,788,0.0,3-2B,minor
53870,82,59,74,728,1.0,6-6,other
53871,63,35,140,301,7.0,2-5,other
53872,86,74,26,41,7.0,2-5,other
53873,63,29,22,127,7.0,3-11A,minor
53874,34,70,120,1276,8.0,4-12A,other
53875,27,42,38,1601,9.0,6-25B,diminished
53876,27,52,75,125,9.0,6-25B,diminished
53877,84,91,3728,0,,,
53878,53,61,1542,37,,,
53879,60,43,828,877,,,
53880,67,46,854,847,5.0,2-5,other
53881,68,48,2232,841,5.0,2-5,other
53882,72,32,904,1063,5.0,2-5,other
53883,78,27,62,1292,0.0,2-4,other
53884,60,31,691,5443,0.0,2-4,major
53885,64,38,261,736,0.0,2-5,other
53886,67,37,3780,691,0.0,2-5,other
53887,72,30,1274,1045,0.0,2-5,other
53888,80,92,491,2897,0.0,2-5,other
53889,79,90,462,774,0.0,2-5,other
53890,77,43,86,37,0.0,2-5,other
53891,77,80,234,653,0.0,2-5,other
53892,60,35,2793,1682,4.0,2-3,minor
53893,55,66,777,1770,4.0,3-10,diminished
53894,70,51,70,1415,8.0,1-1,other
53895,79,79,690,1636,0.0,3-11B,other
53896,75,25,111,960,8.0,2-3,other
53897,67,29,68,1060,8.0,2-2,other
53898,74,94,788,1102,8.0,2-2,other
53899,74,96,1393,1134,8.0,2-2,other
53900,46,71,707,1052,8.0,2-2,other
53901,74,64,1652,5456,8.0,4-28,diminished
53902,75,60,347,2190,8.0,4-28,diminished
53903,74,66,339,334,8.0,4-28,diminished
53904,55,35,2541,1434,0.0,2-3,minor
53905,63,29,572,2940,0.0,3-11A,minor
53906,67,50,240,2721,8.0,1-1,other
53907,65,58,291,153,8.0,1-1,other
53908,64,76,442,285,8.0,1-1,other
53909,65,87,469,492,8.0,1-1,other
53910,68,85,546,574,8.0,1-1,other
53911,72,74,672,662,8.0,1-1,other
53912,72,57,629,985,8.0,1-1,other
53913,72,47,668,1045,8.0,1-1,other
53914,67,36,795,1514,0.0,3-7A,minor
53915,70,49,165,751,0.0,3-7A,minor
53916,79,82,828,997,0.0,3-7A,minor
53917,58,18,1579,112,0.0,3-7A,minor
53918,77,74,582,795,0.0,3-7A,minor
53919,79,62,517,41,0.0,3-7A,minor
53920,74,60,622,1304,3.0,2-4,major
53921,56,27,3715,66,7.0,2-3,minor
53922,72,55,485,597,7.0,2-3,minor
53923,70,63,479,553,7.0,2-3,minor
53924,69,74,460,523,7.0,2-3,minor
53925,72,77,745,576,7.0,2-3,minor
53926,70,65,315,598,7.0,2-3,minor
53927,68,47,705,686,7.0,2-3,minor
53928,65,45,312,744,7.0,2-3,minor
53929,63,36,838,875,7.0,2-3,minor
53930,39,33,1240,35,7.0,2-3,minor
53931,46,39,591,727,7.0,2-3,minor
53932,51,27,166,646,7.0,2-3,minor
53933,58,44,1573,729,7.0,2-3,minor
53934,70,31,929,881,7.0,2-3,minor
53935,58,31,1746,1104,3.0,2-4,major
53936,70,44,850,1130,3.0,2-4,major
53937,67,35,269,973,3.0,2-4,major
53938,58,23,215,85,3.0,2-4,major
53939,75,46,842,1253,3.0,2-4,major
53940,70,35,1732,95,5.0,2-2,other
53941,68,28,1615,41,5.0,2-2,other
53942,72,57,573,3409,8.0,2-2,other
53943,65,52,487,816,0.0,3-6,other
53944,71,68,653,662,0.0,3-6,other
53945,58,33,668,821,7.0,3-11B,major
53946,70,59,351,708,7.0,3-11B,major
53947,70,42,2534,765,7.0,3-11B,major
53948,46,43,640,685,3.0,1-1,other
53949,53,41,537,666,3.0,1-1,other
53950,55,53,2584,640,3.0,1-1,other
53951,58,45,237,707,3.0,1-1,other
53952,58,37,1370,775,3.0,1-1,other
53953,70,61,651,736,3.0,1-1,other
53954,75,81,592,725,3.0,1-1,other
53955,75,73,633,789,3.0,1-1,other
53956,58,51,1114,86,8.0,2-3,other
53957,74,83,517,718,8.0,2-3,other
53958,72,71,812,2397,0.0,2-2,other
53959,67,53,784,998,8.0,4-12A,other
53960,46,28,977,1306,7.0,4-18A,major
53961,70,50,764,1273,7.0,4-18A,major
53962,46,33,394,65,7.0,4-18A,major
53963,67,56,6518,1383,10.0,2-5,other
53964,39,37,2443,43,10.0,2-5,other
53965,64,76,708,817,10.0,2-5,other
53966,63,60,585,1720,4.0,2-6,other
53967,63,47,1851,922,4.0,2-6,other
53968,55,33,1440,50,4.0,2-6,other
53969,62,66,484,846,4.0,2-6,other
53970,62,78,527,732,4.0,2-6,other
53971,63,69,718,1472,3.0,2-4,major
53972,39,49,1908,50,3.0,2-4,major
53973,64,50,588,720,3.0,2-4,major
53974,46,37,5577,73,3.0,2-4,major
53975,64,66,614,810,3.0,2-4,major
53976,63,50,620,896,3.0,2-4,major
53977,63,55,1115,946,3.0,2-4,major
53978,55,40,1104,33,3.0,2-4,major
53979,62,85,788,916,3.0,2-4,major
53980,62,90,963,1045,3.0,2-4,major
53981,55,38,1119,35,3.0,2-4,major
53982,61,86,977,1012,3.0,2-4,major
53983,60,81,1004,1110,3.0,2-4,major
53984,44,67,3617,44,3.0,2-4,major
53985,51,75,2725,903,3.0,2-4,major
53986,56,81,1393,972,3.0,2-4,major
53987,60,74,576,1034,3.0,2-4,major
53988,55,75,3511,1970,1.0,3-7B,other
53989,58,70,552,950,1.0,3-7B,other
53990,77,73,510,1321,1.0,3-7B,other
53991,56,30,1631,2099,0.0,2-3,minor
53992,63,29,1181,908,0.0,2-3,minor
53993,60,29,1161,35,0.0,2-3,minor
53994,56,25,3752,1096,0.0,2-3,minor
53995,87,40,1308,1259,0.0,2-3,minor
53996,75,25,1419,31,0.0,2-3,minor
53997,60,22,2116,42,0.0,2-3,minor
53998,73,51,607,3664,0.0,2-3,minor
53999,55,29,291,75,1.0,2-6,other
54000,39,38,588,8853,3.0,3-11B,major
54001,46,35,609,29,3.0,3-11B,major
54002,75,45,571,1672,3.0,3-11B,major
54003,67,44,320,26,3.0,3-11B,major
54004,63,36,242,32,3.0,3-11B,major
54005,87,37,456,1840,3.0,3-11B,major
54006,74,33,309,42,3.0,3-11B,major
54007,79,20,449,29,3.0,3-11B,major
54008,55,33,1527,3535,4.0,2-6,other
54009,63,30,552,913,4.0,2-6,other
54010,55,37,677,2287,5.0,2-4,other
54011,63,26,267,743,7.0,2-3,minor
54012,63,47,566,742,7.0,2-3,minor
54013,75,42,637,901,7.0,2-3,minor
54014,67,24,638,59,7.0,2-3,minor
54015,70,77,750,856,7.0,2-3,minor
54016,63,26,1082,103,7.0,2-3,minor
54017,72,79,360,745,7.0,2-3,minor
54018,73,71,636,751,7.0,2-3,minor
54019,48,42,2880,783,3.0,2-5,other
54020,56,55,1919,843,3.0,2-5,other
54021,60,42,745,966,3.0,2-5,other
54022,63,42,559,1018,3.0,2-5,other
54023,51,33,730,1321,9.0,2-6,other
54024,41,32,477,62,9.0,2-6,other
54025,81,50,532,1209,9.0,2-6,other
54026,63,23,1352,1458,5.0,2-4,major
54027,81,29,278,1595,5.0,2-4,major
54028,73,55,5177,2300,5.0,2-4,major
54029,58,60,1605,1087,5.0,3-12,augmented
54030,60,32,2039,1233,5.0,2-4,other
54031,56,36,1670,2063,5.0,2-4,other
54032,55,41,394,1683,5.0,3-4A,other
54033,61,31,1511,3097,3.0,2-5,other
54034,61,35,1629,1895,8.0,2-3,other
54035,70,63,5943,2173,3.0,2-4,major
54036,56,46,861,61,1.0,2-2,other
54037,56,44,732,1380,1.0,2-2,other
54038,56,45,443,1369,1.0,2-2,other
54039,56,39,442,1444,1.0,2-2,other
54040,39,50,3202,5456,3.0,2-5,other
54041,56,47,187,3517,0.0,2-3,minor
54042,73,53,172,532,0.0,2-3,minor
54043,72,38,124,390,0.0,2-3,minor
54044,71,50,171,1253,0.0,2-3,minor
54045,72,68,188,290,0.0,2-3,minor
54046,70,55,2280,337,0.0,2-3,minor
54047,58,44,1879,31,0.0,2-3,minor
54048,67,35,1916,899,0.0,2-3,minor
54049,56,29,4321,1944,0.0,2-3,minor
54050,48,30,4232,91,0.0,2-3,minor
54051,77,101,576,586,0.0,2-3,minor
54052,75,69,242,660,0.0,2-3,minor
54053,72,66,116,695,0.0,2-3,minor
54054,68,56,193,627,0.0,2-3,minor
54055,65,24,626,532,0.0,2-3,minor
54056,63,51,1447,721,0.0,2-3,minor
54057,61,30,1977,1446,0.0,2-3,minor
54058,66,38,82,5808,1.0,3-10,minor
54059,63,39,909,1072,1.0,3-10,minor
54060,55,30,1001,39,1.0,3-10,minor
54061,50,40,276,883,3.0,2-5,other
54062,58,23,1262,396,3.0,2-4,major
54063,58,35,170,3110,4.0,2-3,minor
54064,64,82,201,295,4.0,2-3,minor
54065,55,35,2620,1325,5.0,2-4,other
54066,56,94,521,2551,5.0,2-4,other
54067,58,90,597,590,5.0,2-4,other
54068,60,82,594,687,5.0,2-4,other
54069,61,84,599,664,5.0,2-4,other
54070,48,44,1474,762,3.0,2-5,other
54071,65,70,1375,681,3.0,2-5,other
54072,68,43,315,1444,3.0,2-5,other
54073,41,36,183,347,3.0,2-5,other
54074,69,38,720,40,3.0,2-5,other
54075,72,48,835,834,3.0,2-5,other
54076,60,40,121,938,9.0,2-6,other
54077,55,43,1001,3614,5.0,2-4,other
54078,72,55,919,47,5.0,2-4,other
54079,84,77,591,201,5.0,2-4,major
54080,80,34,64,806,5.0,2-4,major
54081,70,39,305,158,5.0,2-4,major
54082,65,35,174,74,1.0,3-8A,other
54083,79,47,204,30,1.0,3-8A,other
54084,82,42,210,45,1.0,3-8A,other
54085,55,37,118,1212,1.0,3-8A,other
54086,60,36,273,4466,0.0,3-11B,other
54087,63,62,250,471,0.0,3-11B,other
54088,68,62,155,442,0.0,3-11B,other
54089,73,70,240,495,0.0,3-11B,other
54090,65,34,676,2376,3.0,2-5,other
54091,58,68,460,1497,3.0,2-5,other
54092,49,31,1610,80,3.0,2-5,other
54093,63,57,114,436,3.0,2-5,other
54094,82,77,369,492,3.0,2-5,other
54095,82,76,402,560,3.0,2-5,other
54096,75,60,230,463,3.0,2-5,other
54097,48,33,3637,498,3.0,2-5,other
54098,72,40,122,463,3.0,2-5,other
54099,87,51,78,425,3.0,2-5,other
54100,87,53,138,508,3.0,2-5,other
54101,85,32,85,459,3.0,2-5,other
54102,85,51,157,505,3.0,2-5,other
54103,84,57,93,381,3.0,2-5,other
54104,84,49,113,558,3.0,2-5,other
54105,82,43,74,394,3.0,2-5,other
54106,82,60,164,568,3.0,2-5,other
54107,55,29,99,440,3.0,2-5,other
54108,79,66,234,555,3.0,2-5,other
54109,75,51,843,1266,3.0,2-5,other
54110,53,36,946,2105,0.0,2-4,other
54111,55,7,303,6702,1.0,3-7B,other
54112,49,51,5257,1849,7.0,3-7A,minor
54113,70,47,523,2868,10.0,2-5,other
54114,75,56,509,1295,10.0,2-5,other
54115,72,51,1255,1950,3.0,3-11B,major
54116,48,38,847,634,0.0,3-11B,other
54117,63,30,375,42,0.0,3-11B,other
54118,69,46,836,1814,5.0,2-4,major
54119,60,33,571,886,5.0,2-4,major
54120,73,46,157,2261,0.0,1-1,other
54121,69,40,199,325,0.0,1-1,other
54122,70,38,119,339,0.0,1-1,other
54123,72,40,164,298,0.0,1-1,other
54124,73,38,152,301,0.0,1-1,other
54125,75,33,87,356,0.0,1-1,other
54126,77,43,104,250,0.0,1-1,other
54127,78,47,193,341,0.0,1-1,other
54128,55,24,111,401,1.0,2-6,other
54129,80,64,152,532,1.0,2-6,other
54130,82,57,1348,414,1.0,2-6,other
54131,68,54,1670,2582,1.0,2-3,other
54132,63,50,1128,671,1.0,2-3,other
54133,56,52,524,624,1.0,2-3,other
54134,63,44,812,648,0.0,2-4,other
54135,68,28,568,525,0.0,2-4,other
54136,63,34,141,753,0.0,2-4,other
54137,60,25,167,843,0.0,2-4,other
54138,65,39,174,270,0.0,2-4,other
54139,68,64,166,322,0.0,2-4,other
54140,69,27,66,75,0.0,2-4,other
54141,70,78,246,215,0.0,2-4,other
54142,53,30,5331,260,0.0,2-4,other
54143,72,61,2737,48,0.0,2-4,other
54144,60,47,209,535,0.0,2-4,other
54145,60,44,295,477,0.0,2-4,other
54146,60,34,315,671,0.0,2-4,other
54147,67,94,187,1996,0.0,2-4,other
54148,68,50,268,190,0.0,2-4,other
54149,67,54,240,178,0.0,2-4,other
54150,65,55,241,236,0.0,2-4,other
54151,64,47,561,312,0.0,2-4,other
54152,60,14,1241,117,0.0,2-4,other
54153,65,68,397,513,0.0,2-4,other
54154,52,31,2142,491,0.0,2-4,other
54155,72,44,469,81,0.0,2-4,other
54156,60,35,426,755,0.0,2-4,other
54157,72,54,302,630,0.0,2-4,other
54158,72,47,696,505,0.0,2-4,other
54159,60,33,169,434,0.0,2-4,other
54160,53,27,2435,478,0.0,2-4,other
54161,67,91,144,913,0.0,2-4,other
54162,68,51,266,165,0.0,2-4,other
54163,67,55,179,192,0.0,2-4,other
54164,65,50,205,203,0.0,2-4,other
54165,64,53,186,221,0.0,2-4,other
54166,67,68,420,271,0.0,2-4,other
54167,64,59,236,394,0.0,2-4,other
54168,65,35,277,376,0.0,2-4,other
54169,60,35,473,919,0.0,2-4,major
54170,44,46,2255,1991,0.0,2-4,major
54171,56,44,1558,990,0.0,3-4B,other
54172,67,81,411,644,0.0,3-4B,other
54173,65,88,556,575,0.0,3-4B,other
54174,46,35,1658,773,0.0,3-11B,other
54175,62,70,323,632,0.0,3-11B,other
54176,78,78,362,1056,0.0,3-11B,other
54177,74,66,315,1387,2.0,2-3,minor
54178,59,24,524,113,2.0,2-3,minor
54179,56,40,552,610,2.0,2-3,minor
54180,65,32,145,1262,11.0,2-3,minor
54181,62,55,236,232,11.0,2-3,minor
54182,48,32,1164,433,3.0,3-11B,major
54183,56,34,2435,2812,5.0,2-5,other
54184,67,37,91,312,5.0,2-5,other
54185,65,44,240,77,5.0,2-5,other
54186,64,51,174,225,5.0,2-5,other
54187,65,71,197,316,5.0,2-5,other
54188,72,50,193,1563,5.0,2-5,other
54189,72,68,499,428,5.0,2-5,other
54190,79,72,215,1063,10.0,1-1,other
54191,75,58,210,960,7.0,2-2,other
54192,74,84,558,531,7.0,2-2,other
54193,72,57,610,676,8.0,2-2,other
54194,70,55,446,648,8.0,2-2,other
54195,69,48,184,424,8.0,2-2,other
54196,72,58,271,465,8.0,2-2,other
54197,70,55,174,272,8.0,2-2,other
54198,68,43,156,290,8.0,2-2,other
54199,65,40,200,162,8.0,2-2,other
54200,63,46,853,240,8.0,2-2,other
54201,51,33,2602,38,8.0,2-2,other
54202,60,24,466,873,8.0,2-2,other
54203,70,74,777,981,8.0,2-2,other
54204,70,72,572,1664,3.0,2-4,major
54205,51,38,286,696,3.0,3-11B,major
54206,51,39,259,1162,3.0,2-5,other
54207,58,37,326,6029,8.0,2-2,other
54208,46,40,276,507,3.0,2-4,major
54209,55,37,478,473,10.0,3-9,other
54210,58,43,3385,502,10.0,3-9,other
54211,62,39,356,464,10.0,2-4,major
54212,67,32,456,488,10.0,2-4,major
54213,70,46,694,464,10.0,2-4,major
54214,62,35,329,36,10.0,2-4,major
54215,79,19,184,34,10.0,2-4,major
54216,70,92,382,885,10.0,2-4,major
54217,67,44,472,28,10.0,2-4,major
54218,75,83,291,474,10.0,2-4,major
54219,75,77,235,442,10.0,2-4,major
54220,75,64,218,503,10.0,2-4,major
54221,58,32,997,563,3.0,3-7A,other
54222,74,61,213,439,3.0,3-7A,other
54223,74,54,258,481,3.0,3-7A,other
54224,72,55,227,477,3.0,3-7A,other
54225,58,29,240,50,3.0,3-7A,other
54226,58,31,124,955,0.0,2-2,other
54227,71,60,303,445,0.0,2-2,other
54228,62,35,66,55,10.0,2-5,other
54229,79,72,1055,891,10.0,2-5,other
54230,39,45,828,1867,11.0,2-1,other
54231,46,37,272,534,11.0,2-1,other
54232,55,64,725,465,1.0,3-10,minor
54233,61,58,781,971,3.0,3-11B,major
54234,62,60,733,1957,7.0,3-11A,minor
54235,51,37,2224,1889,3.0,2-4,major
54236,58,39,2612,541,3.0,2-4,major
54237,63,43,259,403,3.0,2-4,major
54238,58,32,1105,2884,3.0,1-1,other
54239,72,42,196,967,3.0,1-1,other
54240,73,45,188,293,3.0,1-1,other
54241,74,51,216,300,3.0,1-1,other
54242,75,72,265,265,3.0,1-1,other
54243,63,21,864,2915,0.0,2-4,other
54244,55,25,875,33,0.0,2-4,other
54245,58,34,878,29,0.0,2-4,other
54246,79,46,134,290,0.0,2-4,other
54247,80,52,152,341,0.0,2-4,other
54248,81,64,144,323,0.0,2-4,other
54249,82,68,174,310,0.0,2-4,other
54250,79,61,122,309,0.0,2-4,other
54251,75,61,122,322,0.0,2-4,other
54252,49,26,188,686,0.0,2-4,other
54253,56,18,1142,356,0.0,2-4,other
54254,73,35,161,579,0.0,1-1,other
54255,75,65,175,331,0.0,1-1,other
54256,63,25,80,652,0.0,1-1,other
54257,63,36,68,945,0.0,1-1,other
54258,56,21,615,57,0.0,1-1,other
54259,63,42,130,312,0.0,1-1,other
54260,65,49,182,166,0.0,1-1,other
54261,63,36,224,165,0.0,1-1,other
54262,62,40,142,215,0.0,1-1,other
54263,63,60,1907,340,0.0,1-1,other
54264,61,50,312,1587,0.0,1-1,other
54265,60,30,1388,410,0.0,1-1,other
54266,44,31,84,567,0.0,1-1,other
54267,63,50,453,362,0.0,1-1,other
54268,72,52,894,900,0.0,1-1,other
54269,68,33,566,1000,0.0,1-1,other
54270,73,57,217,922,0.0,2-4,other
54271,70,52,177,328,0.0,2-4,other
54272,61,51,235,679,4.0,2-4,major
54273,58,47,161,1598,4.0,2-4,major
54274,51,31,153,28,4.0,2-4,major
54275,74,75,190,785,4.0,2-4,major
54276,77,89,202,306,4.0,2-4,major
54277,75,67,338,311,4.0,2-4,major
54278,67,38,237,572,4.0,2-4,major
54279,65,54,170,340,4.0,2-4,major
54280,63,64,216,308,4.0,2-4,major
54281,62,54,150,318,4.0,2-4,major
54282,65,73,281,304,4.0,2-4,major
54283,62,58,130,317,4.0,2-4,major
54284,63,65,277,295,4.0,2-4,major
54285,58,42,242,352,4.0,2-4,major
54286,55,27,70,308,4.0,2-4,major
54287,49,30,1225,1182,4.0,2-4,major
54288,55,54,168,782,4.0,2-4,major
54289,58,61,336,312,4.0,2-4,major
54290,67,66,160,604,1.0,2-2,other
54291,70,84,202,311,1.0,2-2,other
54292,75,75,221,323,1.0,2-2,other
54293,49,20,144,83,1.0,2-2,other
54294,77,78,202,243,1.0,2-2,other
54295,56,36,671,371,1.0,2-2,other
54296,70,51,1285,344,1.0,2-2,other
54297,75,25,1086,251,1.0,2-2,other
54298,67,54,165,942,1.0,2-2,other
54299,75,59,1899,646,5.0,2-4,other
54300,48,36,2558,56,5.0,2-4,other
54301,63,33,1758,624,5.0,2-4,other
54302,68,39,458,1220,0.0,2-4,other
54303,63,42,497,1887,9.0,2-6,other
54304,65,52,392,1920,0.0,3-4B,other
54305,73,21,285,118,0.0,3-4B,other
54306,87,69,367,574,0.0,3-4B,other
54307,82,69,383,42,0.0,3-4B,other
54308,85,57,486,584,0.0,2-3,minor
54309,80,61,320,54,0.0,2-3,minor
54310,84,64,284,585,0.0,2-1,other
54311,82,46,307,642,0.0,1-1,other
54312,55,35,202,100,1.0,5-34,other
54313,80,56,2757,3998,3.0,2-5,other
54314,68,30,751,1965,0.0,3-11B,other
54315,63,30,171,960,0.0,3-11B,other
54316,68,47,268,861,0.0,3-11B,other
54317,63,33,767,1061,8.0,1-1,other
54318,59,34,149,638,8.0,1-1,other
54319,63,51,513,364,8.0,1-1,other
54320,68,40,435,3694,3.0,3-4A,other
54321,63,30,521,50,3.0,3-4A,other
54322,73,51,140,1882,3.0,2-5,other
54323,73,47,155,580,3.0,2-5,other
54324,70,47,152,33,3.0,2-5,other
54325,73,31,234,329,3.0,2-5,other
54326,69,36,170,36,3.0,2-5,other
54327,46,33,2411,678,1.0,2-3,other
54328,58,18,141,50,1.0,2-3,other
54329,58,25,216,1178,1.0,2-5,other
54330,58,28,892,691,1.0,2-6,other
54331,65,46,180,681,1.0,2-6,other
54332,46,33,215,257,1.0,2-6,other
54333,63,37,216,55,1.0,2-6,other
54334,59,24,666,398,3.0,3-7A,other
54335,56,51,359,530,3.0,3-7A,other
54336,59,74,396,949,11.0,2-6,other
54337,65,22,200,65,11.0,2-6,other
54338,58,48,448,358,11.0,2-6,other
54339,65,31,425,27,11.0,2-6,other
54340,56,42,304,528,11.0,2-6,other
54341,56,33,233,985,11.0,3-5B,other
54342,59,31,1173,340,3.0,4-23,other
54343,51,25,77,1935,3.0,2-5,other
54344,51,58,329,539,3.0,2-5,other
54345,39,63,440,2006,3.0,3-11B,major
54346,39,63,1933,536,3.0,3-11B,major
54347,64,62,531,626,3.0,3-11B,major
54348,51,37,474,32,3.0,3-11B,major
54349,61,35,721,990,3.0,1-1,other
54350,39,35,274,505,3.0,1-1,other
54351,58,40,318,33,3.0,1-1,other
54352,56,42,215,1356,8.0,2-3,minor
54353,51,30,185,655,8.0,2-3,minor
54354,59,80,507,334,3.0,3-11A,other
54355,56,50,340,687,3.0,3-4A,other
54356,56,28,138,1242,8.0,2-3,minor
54357,56,33,199,621,3.0,3-11A,other
54358,66,35,488,2153,11.0,2-5,other
54359,75,39,774,679,11.0,2-5,other
54360,71,47,119,613,11.0,2-5,other
54361,80,49,615,732,11.0,2-5,other
54362,52,33,1803,58,11.0,2-5,other
54363,83,91,291,1473,11.0,2-5,other
54364,80,51,331,429,11.0,2-5,other
54365,76,55,100,455,11.0,2-5,other
54366,73,31,414,2300,1.0,2-3,minor
54367,68,31,569,27,1.0,2-3,minor
54368,64,15,251,34,1.0,2-3,minor
54369,75,42,697,849,1.0,2-3,minor
54370,54,26,809,1061,11.0,2-5,other
54371,59,36,202,471,11.0,2-5,other
54372,63,30,373,456,11.0,2-5,other
54373,71,47,304,469,11.0,2-5,other
54374,71,36,483,490,11.0,2-5,other
54375,52,33,3824,32,11.0,2-5,other
54376,59,33,2121,947,11.0,2-5,other
54377,69,64,334,858,11.0,2-5,other
54378,71,85,399,490,11.0,2-5,other
54379,68,74,1275,507,11.0,2-5,other
54380,64,33,354,36,11.0,2-5,other
54381,59,38,1065,497,11.0,2-5,other
54382,64,49,488,495,11.0,2-5,other
54383,52,43,208,529,11.0,2-5,other
54384,47,26,443,908,11.0,2-5,other
54385,59,48,559,509,4.0,2-4,major
54386,52,47,243,994,4.0,2-4,major
54387,52,59,133,548,4.0,2-4,major
54388,52,57,152,948,4.0,3-11B,major
54389,52,85,697,442,10.0,3-11B,other
54390,52,35,138,976,10.0,3-11B,other
54391,52,52,150,552,10.0,3-11B,other
54392,52,22,105,470,10.0,3-11B,other
54393,59,48,672,1004,6.0,2-3,other
54394,51,33,381,835,6.0,2-3,other
54395,51,19,189,609,3.0,2-4,other
54396,51,27,353,415,3.0,3-11B,other
54397,78,38,998,1720,3.0,2-4,other
54398,59,24,480,99,3.0,2-4,other
54399,59,29,786,1010,3.0,2-4,other
54400,51,31,216,497,3.0,2-4,other
54401,52,32,4776,428,4.0,2-4,major
54402,59,32,518,525,4.0,2-4,major
54403,64,45,84,392,4.0,2-4,major
54404,59,34,465,602,4.0,2-4,major
54405,80,77,414,383,4.0,2-4,major
54406,71,83,470,41,4.0,2-4,major
54407,59,39,201,553,4.0,2-4,major
54408,78,77,1086,374,4.0,2-4,major
54409,64,32,323,559,4.0,2-6,other
54410,66,43,1411,452,4.0,2-6,other
54411,64,31,846,495,4.0,2-6,other
54412,76,54,389,427,4.0,2-6,other
54413,52,26,241,560,4.0,2-6,other
54414,53,55,452,3259,2.0,1-1,other
54415,65,66,284,35,2.0,1-1,other
54416,59,33,337,892,8.0,1-1,other
54417,71,35,289,50,8.0,1-1,other
54418,71,29,193,510,2.0,1-1,other
54419,74,48,362,420,2.0,1-1,other
54420,62,22,363,32,2.0,1-1,other
54421,41,43,1601,864,11.0,1-1,other
54422,62,45,425,40,11.0,1-1,other
54423,59,43,332,66,8.0,2-3,other
54424,62,26,172,955,8.0,2-3,other
54425,59,24,72,50,8.0,2-3,other
54426,59,50,94,462,8.0,3-10,other
54427,47,54,469,414,8.0,3-10,other
54428,59,36,86,107,8.0,3-10,other
54429,53,44,541,844,11.0,2-3,minor
54430,62,29,147,48,11.0,2-3,minor
54431,62,61,555,878,11.0,2-3,minor
54432,59,48,214,31,11.0,2-3,minor
54433,49,40,2172,2530,11.0,2-3,minor
54434,61,42,1691,108,11.0,2-3,minor
54435,64,51,1667,74,11.0,2-3,minor
54436,73,60,381,140,8.0,2-2,other
54437,73,67,331,567,8.0,2-2,other
54438,73,57,254,518,8.0,2-2,other
54439,73,55,133,445,8.0,2-2,other
54440,61,42,837,472,8.0,2-2,other
54441,63,31,878,66,3.0,3-11B,major
54442,63,28,201,2153,3.0,3-11B,major
54443,72,72,275,298,3.0,3-11B,major
54444,72,57,1759,401,3.0,3-11B,major
54445,44,29,1400,31,3.0,3-11B,major
54446,49,37,867,3768,0.0,3-11B,other
54447,58,49,265,560,0.0,3-11B,other
54448,63,56,138,425,0.0,3-11B,other
54449,77,94,433,533,0.0,3-11B,other
54450,75,62,3167,543,0.0,3-11B,other
54451,48,38,2444,46,0.0,3-11B,other
54452,73,43,212,5279,0.0,2-4,other
54453,56,28,2635,401,0.0,2-3,minor
54454,73,48,186,252,0.0,2-3,minor
54455,75,67,215,302,0.0,2-3,minor
54456,60,17,902,1078,0.0,2-3,minor
54457,56,31,235,1789,0.0,2-3,minor
54458,67,48,125,333,0.0,2-3,minor
54459,68,67,168,294,0.0,2-3,minor
54460,70,74,276,287,0.0,2-3,minor
54461,56,19,271,311,0.0,2-3,minor
54462,70,71,249,690,0.0,2-3,minor
54463,51,34,1400,394,7.0,2-3,minor
54464,63,46,502,815,7.0,2-3,minor
54465,55,31,1919,734,7.0,2-3,minor
54466,54,46,210,1864,7.0,2-3,minor
54467,56,86,833,313,7.0,2-3,minor
54468,54,35,260,664,7.0,2-3,minor
54469,55,38,612,363,7.0,2-3,minor
54470,56,60,300,609,7.0,2-3,minor
54471,58,50,1375,485,7.0,2-3,minor
54472,49,47,4162,545,7.0,2-3,minor
54473,63,71,357,856,7.0,2-3,minor
54474,55,49,488,408,7.0,2-3,minor
54475,58,60,165,567,7.0,2-3,minor
54476,39,36,199,926,7.0,2-3,minor
54477,72,48,214,578,3.0,2-5,other
54478,70,46,288,112,3.0,2-5,other
54479,69,36,167,258,3.0,2-5,other
54480,51,28,125,187,3.0,2-5,other
54481,70,60,285,187,3.0,2-5,other
54482,72,62,184,319,3.0,2-5,other
54483,73,58,246,281,3.0,2-5,other
54484,48,53,1062,403,3.0,2-5,other
54485,63,56,112,485,3.0,2-5,other
54486,60,30,358,457,3.0,2-5,other
54487,103,75,307,463,3.0,2-5,other
54488,99,60,223,246,3.0,2-5,other
54489,96,58,144,215,3.0,2-5,other
54490,93,54,109,176,3.0,2-5,other
54491,92,54,112,192,3.0,2-5,other
54492,91,55,146,126,3.0,2-5,other
54493,90,48,89,143,3.0,2-5,other
54494,89,50,136,94,3.0,2-5,other
54495,88,38,105,158,3.0,2-5,other
54496,87,46,107,185,5.0,2-2,other
54497,57,25,2009,64,5.0,2-2,other
54498,91,56,146,96,5.0,2-2,other
54499,87,33,83,99,5.0,2-2,other
54500,84,55,60,64,5.0,2-2,other
54501,80,40,68,321,5.0,2-2,other
54502,78,45,100,198,5.0,2-2,other
54503,77,36,149,133,5.0,2-2,other
54504,77,70,283,493,5.0,2-2,other
54505,73,50,105,360,5.0,2-2,other
54506,68,55,120,406,5.0,2-2,other
54507,67,49,144,226,5.0,2-2,other
54508,66,47,96,190,5.0,2-2,other
54509,65,46,139,127,5.0,2-2,other
54510,64,46,69,176,5.0,2-2,other
54511,63,32,122,136,5.0,2-2,other
54512,62,51,224,151,5.0,2-2,other
54513,61,54,982,208,5.0,2-2,other
54514,63,47,280,1036,8.0,2-2,other
54515,61,49,311,74,8.0,2-2,other
54516,60,40,651,199,8.0,2-2,other
54517,61,49,212,516,8.0,2-2,other
54518,46,23,342,986,0.0,2-3,minor
54519,58,46,1650,334,0.0,2-3,minor
54520,46,19,655,551,0.0,2-3,minor
54521,56,44,664,393,0.0,2-3,minor
54522,55,30,435,531,0.0,2-3,minor
54523,58,69,1353,453,0.0,2-3,minor
54524,55,55,913,32,0.0,2-3,minor
54525,39,28,1502,41,0.0,2-3,minor
54526,58,46,782,1882,0.0,2-3,minor
54527,55,35,441,34,0.0,2-3,minor
54528,44,18,197,29,0.0,2-3,minor
54529,56,47,4287,2659,0.0,2-3,minor
54530,32,36,5275,27,0.0,2-3,minor
54531,51,27,4031,1316,0.0,2-3,minor
54532,60,26,916,1610,0.0,2-3,minor
54533,75,84,366,2202,0.0,2-3,minor
54534,76,94,576,607,0.0,2-3,minor
54535,77,96,2271,758,0.0,2-3,minor
54536,51,64,3314,37,0.0,2-3,minor
54537,58,38,2813,1062,0.0,2-3,minor
54538,75,64,861,1233,0.0,2-3,minor
54539,73,49,230,697,0.0,2-3,minor
54540,70,60,1840,1489,0.0,2-3,minor
54541,68,54,1043,756,0.0,2-3,minor
54542,67,55,1060,916,0.0,2-3,minor
54543,73,64,1371,920,0.0,2-3,minor
54544,70,53,942,742,0.0,2-3,minor
54545,67,49,758,703,0.0,2-3,minor
54546,68,39,4959,929,0.0,2-3,minor
54547,44,26,1867,39,0.0,2-3,minor
54548,51,15,943,932,0.0,2-3,minor
54549,56,27,723,981,0.0,2-3,minor
54550,58,34,1735,775,0.0,2-3,minor
54551,60,26,2563,957,0.0,2-3,minor
54552,75,84,454,2366,0.0,2-3,minor
54553,76,83,332,660,0.0,2-3,minor
54554,77,77,3413,867,0.0,2-3,minor
54555,51,42,4702,51,0.0,2-3,minor
54556,57,34,762,1117,0.0,2-3,minor
54557,67,33,2138,860,0.0,2-3,minor
54558,75,71,629,1564,10.0,1-1,other
54559,73,63,242,703,10.0,1-1,other
54560,75,34,167,42,10.0,1-1,other
54561,70,60,782,1873,1.0,2-2,other
54562,68,64,508,802,1.0,2-2,other
54563,67,63,705,780,1.0,2-2,other
54564,73,56,489,768,1.0,2-2,other
54565,67,57,555,550,1.0,2-2,other
54566,51,28,719,1395,8.0,1-1,other
54567,56,28,557,780,8.0,1-1,other
54568,58,43,2438,605,8.0,1-1,other
54569,63,33,1063,773,8.0,1-1,other
54570,60,36,454,769,8.0,1-1,other
54571,72,59,559,1746,1.0,2-2,other
54572,73,54,294,626,1.0,2-2,other
54573,77,75,422,557,1.0,2-2,other
54574,75,71,427,519,1.0,2-2,other
54575,73,57,212,539,1.0,2-2,other
54576,51,29,1510,1228,0.0,2-4,other
54577,60,27,1770,708,0.0,2-4,other
54578,56,39,1062,738,0.0,2-4,other
54579,63,54,734,738,0.0,2-4,other
54580,72,59,252,625,0.0,2-4,other
54581,69,62,587,1658,1.0,2-2,other
54582,70,65,270,738,1.0,2-2,other
54583,73,57,331,780,1.0,2-2,other
54584,72,53,574,716,1.0,2-2,other
54585,70,58,303,738,1.0,2-2,other
54586,44,29,2551,910,0.0,2-4,other
54587,56,21,983,28,0.0,2-4,other
54588,51,35,1343,859,0.0,2-4,other
54589,60,13,988,1204,3.0,2-5,other
54590,58,36,390,905,3.0,2-5,other
54591,60,28,495,993,3.0,2-5,other
54592,58,71,1045,2549,3.0,2-5,other
54593,39,42,4244,27,3.0,2-5,other
54594,27,40,4032,26,3.0,2-5,other
54595,57,47,888,994,3.0,2-5,other
54596,58,62,883,955,3.0,2-5,other
54597,61,68,966,938,3.0,2-5,other
54598,60,54,1077,988,3.0,2-5,other
54599,58,50,743,1099,3.0,2-5,other
54600,32,31,1201,1752,8.0,1-1,other
54601,48,1,26,0,,,
54602,39,68,792,1576,11.0,8-22B,diminished
54603,44,73,422,352,11.0,8-22B,diminished
54604,42,49,56,1104,0.0,3-11A,minor
54605,82,48,52,728,10.0,3-4A,major
54606,84,55,48,72,10.0,3-4A,major
54607,28,44,346,54,10.0,3-4A,major
54608,39,65,504,214,10.0,3-4A,major
54609,27,46,46,70,10.0,3-4A,major
54610,87,63,32,366,2.0,5-38A,minor
54611,87,70,28,116,1.0,2-3,minor
54612,48,60,728,48,1.0,2-3,minor
54613,44,52,82,300,5.0,2-5,other
54614,28,40,352,32,5.0,2-5,other
54615,38,50,360,800,4.0,2-4,major
54616,28,31,382,322,0.0,5-25B,other
54617,43,52,580,34,0.0,5-25B,other
54618,38,52,92,460,4.0,2-4,major
54619,37,66,124,144,4.0,2-4,major
54620,60,48,20,36,4.0,2-4,major
54621,61,61,40,56,4.0,2-4,major
54622,64,70,36,116,0.0,3-3B,other
54623,66,60,36,64,0.0,3-3B,other
54624,67,56,24,76,0.0,3-3B,other
54625,69,64,32,52,0.0,3-3B,other
54626,70,63,16,56,0.0,3-3B,other
54627,75,50,16,160,1.0,2-3,minor
54628,76,64,44,44,1.0,2-3,minor
54629,77,56,20,56,1.0,2-3,minor
54630,78,41,20,44,1.0,2-3,minor
54631,80,31,36,88,7.0,2-4,major
54632,82,52,36,188,5.0,3-11A,other
54633,79,49,32,176,8.0,1-1,other
54634,28,34,360,92,8.0,2-3,other
54635,72,50,20,64,8.0,2-3,other
54636,68,63,24,88,8.0,2-3,other
54637,44,69,180,68,8.0,2-3,other
54638,67,43,44,40,8.0,2-3,other
54639,35,33,16,38,8.0,2-3,other
54640,68,45,40,42,8.0,2-3,other
54641,53,27,500,128,3.0,3-11A,other
54642,52,37,88,48,3.0,3-11A,other
54643,67,43,124,84,3.0,3-11A,other
54644,44,55,60,144,3.0,3-11A,other
54645,28,46,356,28,3.0,3-11A,other
54646,27,46,98,180,3.0,3-11A,other
54647,28,34,360,200,3.0,3-11A,other
54648,39,68,760,240,3.0,4-20,major
54649,55,39,180,548,4.0,5-32A,other
54650,49,80,212,388,4.0,2-6,other
54651,28,50,382,338,0.0,5-26A,augmented
54652,33,79,368,434,4.0,2-4,major
54653,62,102,76,108,4.0,2-4,major
54654,27,62,176,28,4.0,2-4,major
54655,63,85,60,108,4.0,2-4,major
54656,46,39,56,732,7.0,3-5B,other
54657,35,48,16,46,7.0,3-5B,other
54658,46,85,896,282,7.0,4-26,minor
54659,91,88,76,336,2.0,3-7A,minor
54660,34,85,980,40,2.0,3-7A,minor
54661,86,81,72,64,2.0,3-7A,minor
54662,84,63,60,92,2.0,3-7A,minor
54663,87,65,84,196,0.0,5-35,other
54664,35,35,94,46,0.0,5-35,other
54665,84,56,68,50,0.0,5-35,other
54666,80,50,48,92,0.0,5-35,other
54667,46,55,28,32,0.0,5-35,other
54668,35,60,26,146,7.0,2-5,other
54669,77,64,92,190,10.0,2-1,other
54670,28,46,20,28,10.0,2-1,other
54671,39,53,32,692,9.0,3-10,diminished
54672,37,50,64,60,9.0,3-10,diminished
54673,28,46,368,52,9.0,3-10,diminished
54674,38,50,1128,32,9.0,3-10,diminished
54675,58,38,16,768,4.0,4-29A,other
54676,55,17,144,92,10.0,3-11B,major
54677,28,33,352,276,8.0,2-1,other
54678,28,31,376,360,7.0,3-11A,minor
54679,41,81,304,196,5.0,4-20,other
54680,72,86,56,148,5.0,4-20,other
54681,72,61,40,208,3.0,3-5B,other
54682,73,57,20,56,3.0,3-5B,other
54683,33,68,120,32,3.0,3-5B,other
54684,75,54,16,32,3.0,3-5B,other
54685,77,80,48,60,3.0,3-5B,other
54686,82,64,28,200,0.0,5-35,minor
54687,79,43,16,88,0.0,5-35,minor
54688,44,69,118,124,0.0,5-35,minor
54689,75,57,36,40,0.0,5-35,minor
54690,72,39,32,192,0.0,5-35,minor
54691,72,45,260,188,4.0,2-4,major
54692,27,50,172,168,4.0,2-4,major
54693,75,63,52,132,4.0,2-4,major
54694,28,29,372,60,4.0,2-4,major
54695,74,50,24,32,4.0,2-4,major
54696,72,48,48,428,7.0,4-14A,minor
54697,70,45,48,48,7.0,4-14A,minor
54698,69,55,28,52,7.0,4-14A,minor
54699,70,60,36,64,7.0,4-14A,minor
54700,78,68,12,204,1.0,2-3,minor
54701,81,64,20,100,1.0,2-3,minor
54702,82,60,12,88,1.0,2-3,minor
54703,84,57,32,96,1.0,2-3,minor
54704,34,54,68,548,0.0,3-7A,minor
54705,33,64,136,104,0.0,3-7A,minor
54706,35,37,26,114,0.0,3-7A,minor
54707,32,63,688,26,0.0,3-7A,minor
54708,35,32,68,60,0.0,3-7A,minor
54709,34,52,164,472,0.0,4-26,other
54710,35,49,44,160,0.0,4-26,other
54711,36,57,72,68,3.0,3-9,other
54712,37,69,732,64,3.0,3-9,other
54713,28,36,202,514,3.0,3-11A,other
54714,28,44,176,410,7.0,2-5,other
54715,44,75,40,176,7.0,2-5,other
54716,58,22,20,176,3.0,4-20,major
54717,28,39,356,620,8.0,2-1,other
54718,44,56,48,740,0.0,5-27B,other
54719,28,39,350,34,0.0,5-27B,other
54720,41,76,196,202,0.0,3-4A,other
54721,91,69,60,1104,7.0,5-35,minor
54722,86,56,44,88,7.0,5-35,minor
54723,44,58,28,108,7.0,5-35,minor
54724,28,36,350,34,7.0,5-35,minor
54725,80,57,40,878,4.0,3-10,diminished
54726,82,57,40,580,11.0,2-1,other
54727,79,39,20,84,4.0,2-4,major
54728,74,46,32,252,1.0,2-3,other
54729,27,53,42,772,7.0,5-35,minor
54730,60,42,492,104,4.0,4-16A,other
54731,28,36,196,172,4.0,4-16A,other
54732,80,68,96,28,4.0,4-16A,other
54733,82,92,68,112,4.0,4-16A,other
54734,44,57,34,56,4.0,4-16A,other
54735,80,44,80,40,4.0,4-16A,other
54736,82,64,60,100,4.0,4-16A,other
54737,79,41,80,96,0.0,3-12,augmented
54738,60,25,376,200,3.0,3-9,other
54739,82,81,76,548,3.0,3-9,other
54740,72,42,60,392,7.0,5-35,minor
54741,44,73,422,160,7.0,5-35,minor
54742,46,63,324,192,10.0,4-22A,major
54743,84,54,48,32,10.0,4-22A,major
54744,46,63,148,360,0.0,2-4,major
54745,39,61,176,380,7.0,4-26,minor
54746,27,46,46,1278,8.0,5-30B,other
54747,28,33,368,78,8.0,5-30B,other
54748,38,71,196,192,2.0,4-16A,major
54749,67,42,60,620,4.0,3-2B,minor
54750,46,83,164,152,0.0,4-26,minor
54751,46,79,464,404,0.0,4-26,minor
54752,49,54,72,452,0.0,3-11A,minor
54753,28,31,382,86,8.0,5-24B,other
54754,39,68,184,582,5.0,4-18A,major
54755,28,36,376,192,2.0,4-18A,major
54756,44,55,60,1912,4.0,3-8B,other
54757,28,46,356,28,4.0,3-8B,other
54758,27,46,98,180,4.0,3-8B,other
54759,39,47,68,160,10.0,2-4,major
54760,28,34,360,40,10.0,2-4,major
54761,35,83,296,416,4.0,2-4,major
54762,28,50,382,1098,3.0,3-7B,other
54763,45,89,748,34,3.0,3-7B,other
54764,77,46,40,640,3.0,1-1,other
54765,75,53,68,36,3.0,1-1,other
54766,87,61,16,236,6.0,4-13B,other
54767,87,55,24,120,6.0,4-13B,other
54768,87,47,16,268,5.0,3-7B,other
54769,87,58,40,344,10.0,2-4,major
54770,86,47,56,48,10.0,2-4,major
54771,86,54,36,108,10.0,2-4,major
54772,86,55,612,188,4.0,3-8A,major
54773,56,34,300,516,11.0,4-5A,other
54774,82,60,72,192,3.0,2-5,other
54775,88,64,52,236,3.0,2-4,other
54776,90,66,32,56,3.0,2-4,other
54777,28,46,20,28,3.0,2-4,other
54778,93,63,60,92,7.0,3-3A,major
54779,95,51,40,112,0.0,4-23,minor
54780,96,57,40,68,11.0,1-1,other
54781,96,62,28,100,11.0,1-1,other
54782,96,55,20,112,4.0,2-4,major
54783,96,48,20,104,4.0,2-4,major
54784,96,49,20,92,4.0,2-4,major
54785,96,54,16,96,4.0,2-4,major
54786,28,46,368,28,4.0,2-4,major
54787,96,61,56,68,4.0,2-4,major
54788,98,54,32,184,2.0,2-5,other
54789,98,68,44,80,2.0,2-5,other
54790,98,82,260,96,4.0,3-8A,major
54791,54,24,72,184,3.0,2-1,other
54792,96,57,56,96,3.0,2-1,other
54793,28,52,366,62,3.0,2-1,other
54794,96,49,56,102,7.0,4-14A,minor
54795,94,42,48,48,7.0,4-14A,minor
54796,94,55,64,120,9.0,2-2,other
54797,28,33,352,128,8.0,2-6,other
54798,94,42,20,80,8.0,2-6,other
54799,50,81,188,100,8.0,2-6,other
54800,85,45,60,320,4.0,2-1,other
54801,93,74,60,124,4.0,2-1,other
54802,27,56,158,232,0.0,4-24,augmented
54803,90,71,56,36,0.0,4-24,augmented
54804,28,24,378,234,3.0,2-5,other
54805,85,60,16,78,3.0,2-5,other
54806,84,56,40,108,0.0,3-11B,other
54807,82,55,16,100,0.0,3-11B,other
54808,82,52,60,124,8.0,1-1,other
54809,80,40,36,44,8.0,1-1,other
54810,79,36,16,44,8.0,1-1,other
54811,77,65,48,52,8.0,1-1,other
54812,63,31,92,32,8.0,1-1,other
54813,76,39,64,44,8.0,1-1,other
54814,77,65,56,88,8.0,1-1,other
54815,27,50,172,252,1.0,2-5,other
54816,44,62,86,948,0.0,3-9,other
54817,38,63,32,128,1.0,2-3,minor
54818,37,52,16,92,1.0,2-3,minor
54819,35,63,76,108,1.0,2-3,minor
54820,85,86,40,396,0.0,4-21,major
54821,87,87,72,96,0.0,3-12,augmented
54822,88,88,48,100,0.0,3-12,augmented
54823,85,68,76,100,10.0,2-4,major
54824,41,63,392,152,0.0,4-26,other
54825,62,22,228,820,7.0,4-29A,minor
54826,75,46,36,96,7.0,4-29A,minor
54827,77,68,56,68,7.0,4-29A,minor
54828,40,77,376,156,3.0,2-5,other
54829,28,36,202,174,8.0,4-29A,other
54830,39,66,1032,206,8.0,4-29A,other
54831,28,44,176,204,8.0,4-29A,other
54832,44,75,40,176,8.0,4-29A,other
54833,79,84,100,32,8.0,4-29A,other
54834,74,68,76,120,8.0,4-29A,other
54835,46,85,152,64,8.0,4-29A,other
54836,72,36,68,44,8.0,4-29A,other
54837,77,82,68,96,8.0,4-29A,other
54838,72,57,60,192,0.0,3-7A,minor
54839,68,36,56,96,0.0,3-7A,minor
54840,68,35,20,188,4.0,3-3A,major
54841,45,82,196,320,4.0,3-3A,major
54842,44,56,48,384,0.0,4-17,other
54843,35,29,16,60,9.0,5-32A,other
54844,84,51,16,120,9.0,5-32A,other
54845,90,38,24,200,9.0,2-6,other
54846,87,68,56,132,6.0,3-8B,other
54847,90,24,20,28,6.0,3-8B,other
54848,35,27,118,74,2.0,2-5,other
54849,50,71,20,290,4.0,2-4,major
54850,54,46,96,32,4.0,2-4,major
54851,45,65,80,36,4.0,2-4,major
54852,44,68,60,108,4.0,2-4,major
54853,38,49,48,388,4.0,5-29B,diminished
54854,28,36,350,102,8.0,5-5A,other
54855,35,28,32,198,8.0,5-5A,other
54856,87,86,60,300,7.0,2-3,minor
54857,85,81,60,140,4.0,2-1,other
54858,84,70,32,60,4.0,2-1,other
54859,81,70,40,144,9.0,6-45,major
54860,82,39,52,64,9.0,6-45,major
54861,79,54,32,80,9.0,2-6,other
54862,31,67,56,96,11.0,2-5,other
54863,76,53,38,32,11.0,2-5,other
54864,74,46,36,100,5.0,3-7B,other
54865,73,57,44,48,5.0,3-7B,other
54866,72,40,20,156,0.0,2-1,other
54867,72,44,24,168,0.0,3-12,augmented
54868,72,47,24,80,0.0,3-12,augmented
54869,72,47,20,84,0.0,3-12,augmented
54870,72,45,24,72,0.0,3-12,augmented
54871,44,78,302,200,0.0,2-5,other
54872,28,42,24,224,0.0,2-5,other
54873,38,51,48,508,0.0,3-9,other
54874,27,32,158,884,1.0,6-28,other
54875,55,26,44,204,1.0,5-31A,other
54876,35,31,18,284,1.0,5-31A,other
54877,53,83,108,232,4.0,3-3A,major
54878,55,75,100,92,4.0,3-3A,major
54879,53,57,88,204,3.0,2-5,other
54880,58,72,96,276,8.0,2-6,other
54881,56,67,76,200,1.0,2-6,other
54882,58,55,80,88,1.0,2-6,other
54883,28,44,362,146,8.0,2-3,minor
54884,61,43,72,38,8.0,2-3,minor
54885,65,47,64,180,3.0,2-4,other
54886,38,56,52,80,3.0,2-4,other
54887,72,72,64,28,3.0,2-4,other
54888,69,41,80,96,0.0,6-8,other
54889,27,46,46,1030,10.0,3-4A,major
54890,42,89,344,118,4.0,2-6,other
54891,28,37,372,340,4.0,3-8B,other
54892,86,38,20,304,3.0,2-4,major
54893,79,28,16,1148,9.0,2-3,minor
54894,82,63,52,188,2.0,6-32,minor
54895,46,89,36,92,2.0,6-32,minor
54896,46,61,48,644,3.0,3-4A,other
54897,34,59,220,504,4.0,5-28B,other
54898,39,57,32,852,0.0,2-5,other
54899,35,33,16,34,0.0,2-5,other
54900,37,65,64,38,0.0,2-5,other
54901,44,55,60,408,10.0,5-33,augmented
54902,27,46,98,208,5.0,2-5,other
54903,75,76,48,692,4.0,2-4,major
54904,73,45,28,52,4.0,2-4,major
54905,74,79,76,52,4.0,2-4,major
54906,72,70,56,200,4.0,2-5,other
54907,70,65,40,72,4.0,2-5,other
54908,70,58,32,164,5.0,5-13B,other
54909,55,28,160,156,5.0,3-4A,other
54910,45,28,24,280,9.0,2-6,other
54911,28,47,378,434,0.0,4-26,minor
54912,50,27,108,58,0.0,4-26,minor
54913,46,79,172,324,0.0,4-26,minor
54914,46,74,208,196,0.0,4-26,minor
54915,35,48,16,490,6.0,3-10,minor
54916,38,54,24,222,7.0,2-3,minor
54917,34,57,376,68,7.0,2-3,minor
54918,31,69,400,368,4.0,2-4,major
54919,82,44,16,156,4.0,2-4,major
54920,82,31,20,200,1.0,4-13A,minor
54921,85,52,56,188,4.0,2-6,other
54922,45,74,188,224,3.0,4-8,other
54923,53,22,24,228,0.0,4-17,other
54924,28,39,366,362,11.0,1-1,other
54925,39,58,116,122,11.0,1-1,other
54926,38,63,144,136,11.0,1-1,other
54927,28,33,352,1292,7.0,6-33A,minor
54928,65,45,24,196,7.0,5-35,minor
54929,28,31,376,164,7.0,5-37,minor
54930,27,56,158,496,1.0,5-34,minor
54931,51,46,48,32,1.0,5-34,minor
54932,49,43,44,172,1.0,5-31A,diminished
54933,53,23,36,1620,0.0,5-11A,other
54934,79,67,56,1272,10.0,2-4,major
54935,77,63,360,108,10.0,2-4,major
54936,35,37,26,102,10.0,2-4,major
54937,35,32,68,86,3.0,4-22A,major
54938,35,35,50,190,3.0,3-3B,other
54939,79,71,76,94,3.0,3-3B,other
54940,46,86,164,256,10.0,2-5,other
54941,77,79,48,664,8.0,2-2,other
54942,28,36,202,74,8.0,2-2,other
54943,87,92,28,62,8.0,2-2,other
54944,77,58,68,272,0.0,5-35,other
54945,77,62,68,112,5.0,2-1,other
54946,87,66,444,272,8.0,2-3,other
54947,46,87,152,72,8.0,2-3,other
54948,80,49,108,56,8.0,2-3,other
54949,62,46,192,160,4.0,5-10A,other
54950,46,66,316,168,4.0,5-10A,other
54951,75,68,52,528,4.0,4-15B,other
54952,65,13,116,108,4.0,4-27A,diminished
54953,70,51,44,108,4.0,4-27A,diminished
54954,43,85,564,68,4.0,4-27A,diminished
54955,67,7,44,52,4.0,4-27A,diminished
54956,44,56,48,84,4.0,4-27A,diminished
54957,28,39,350,34,4.0,4-27A,diminished
54958,66,60,32,290,11.0,3-10,diminished
54959,69,68,44,56,11.0,3-10,diminished
54960,67,49,44,112,4.0,3-8B,other
54961,69,51,32,64,4.0,3-8B,other
54962,72,56,28,108,0.0,3-1,other
54963,73,56,16,44,0.0,3-1,other
54964,76,54,20,100,3.0,3-4A,other
54965,78,58,16,48,3.0,3-4A,other
54966,84,70,40,68,3.0,3-4A,other
54967,73,56,24,84,3.0,3-4A,other
54968,72,51,48,88,3.0,3-4A,other
54969,68,49,20,168,4.0,3-5A,other
54970,67,49,32,88,4.0,3-5A,other
54971,68,50,64,44,4.0,3-5A,other
54972,67,55,40,40,4.0,3-5A,other
54973,65,55,44,52,4.0,3-5A,other
54974,67,68,56,112,4.0,2-5,other
54975,65,68,80,120,4.0,2-5,other
54976,63,45,64,84,4.0,2-5,other
54977,60,43,28,232,4.0,3-8B,other
54978,58,63,36,424,3.0,3-4A,other
54979,27,35,106,64,3.0,3-4A,other
54980,35,31,28,96,3.0,2-5,other
54981,56,75,56,48,3.0,2-5,other
54982,39,74,176,72,4.0,2-5,other
54983,39,85,556,200,11.0,1-1,other
54984,46,87,156,532,4.0,2-4,major
54985,46,87,176,180,2.0,4-23,minor
54986,34,82,176,376,2.0,2-2,other
54987,27,53,42,108,2.0,2-2,other
54988,57,27,152,484,0.0,3-11B,other
54989,82,67,32,240,9.0,2-5,other
54990,37,64,68,248,2.0,4-21,major
54991,27,32,158,100,2.0,2-4,major
54992,75,61,64,260,9.0,3-4B,other
54993,35,24,32,308,4.0,5-29B,diminished
54994,69,37,40,108,4.0,5-29B,diminished
54995,70,44,972,76,4.0,5-29B,diminished
54996,44,73,422,184,4.0,5-29B,diminished
54997,52,36,224,800,0.0,5-26A,augmented
54998,42,83,208,180,0.0,5-26A,augmented
54999,41,76,392,200,0.0,2-4,major
55000,60,23,440,184,3.0,3-4B,other
55001,67,48,48,124,3.0,3-4B,other
55002,35,107,356,92,4.0,2-4,major
55003,72,47,24,176,3.0,3-11B,major
55004,74,58,28,60,3.0,3-11B,major
55005,77,63,40,196,4.0,2-6,other
55006,79,82,48,64,4.0,2-6,other
55007,27,46,46,166,8.0,3-5B,other
55008,46,99,380,98,4.0,2-6,other
55009,84,69,36,44,4.0,2-6,other
55010,87,57,52,196,8.0,3-5B,other
55011,89,68,52,72,8.0,3-5B,other
55012,28,37,372,48,8.0,3-5B,other
55013,82,51,164,216,2.0,6-33A,minor
55014,44,52,82,156,2.0,6-33A,minor
55015,87,72,44,820,4.0,2-4,major
55016,87,76,48,144,4.0,2-4,major
55017,87,63,40,116,4.0,2-4,major
55018,86,68,300,144,3.0,3-3A,major
55019,82,52,148,156,3.0,3-3A,major
55020,28,36,376,548,4.0,3-3B,other
55021,39,82,408,208,5.0,4-20,other
55022,43,52,120,1136,0.0,6-47A,other
55023,44,55,60,568,4.0,2-6,other
55024,28,46,356,28,4.0,2-6,other
55025,27,46,98,180,10.0,5-30B,other
55026,77,31,72,260,7.0,4-26,minor
55027,38,61,56,64,7.0,4-26,minor
55028,31,71,196,440,10.0,3-11B,major
55029,48,88,172,780,1.0,3-10,other
55030,44,88,276,384,0.0,5-37,other
55031,28,47,378,174,0.0,4-26,other
55032,37,81,400,390,5.0,3-11A,other
55033,49,43,280,332,3.0,4-27A,other
55034,35,48,16,346,4.0,3-8A,major
55035,62,56,40,602,5.0,2-2,other
55036,62,39,20,92,5.0,2-2,other
55037,69,72,64,56,5.0,2-2,other
55038,66,66,32,64,5.0,2-2,other
55039,69,57,32,92,4.0,6-50,other
55040,70,57,16,40,4.0,6-50,other
55041,72,64,36,40,4.0,6-50,other
55042,35,35,94,70,1.0,3-2A,other
55043,76,68,36,38,1.0,3-2A,other
55044,78,57,12,44,1.0,3-2A,other
55045,79,61,16,36,1.0,3-2A,other
55046,48,80,172,80,10.0,2-1,other
55047,83,42,36,36,10.0,2-1,other
55048,84,63,40,44,10.0,2-1,other
55049,35,60,26,42,10.0,2-1,other
55050,82,60,16,138,11.0,1-1,other
55051,80,61,36,272,0.0,4-20,other
55052,79,54,12,180,7.0,2-4,major
55053,77,69,36,164,11.0,2-6,other
55054,75,57,28,80,11.0,2-6,other
55055,62,42,92,224,4.0,5-28B,other
55056,74,68,32,556,10.0,2-4,major
55057,70,61,208,204,4.0,3-8B,other
55058,44,75,112,340,10.0,1-1,other
55059,46,56,132,232,4.0,4-27A,diminished
55060,46,69,128,384,4.0,2-6,other
55061,27,56,158,272,7.0,3-11A,minor
55062,46,55,40,96,7.0,3-11A,minor
55063,70,60,68,508,3.0,4-20,major
55064,67,43,52,100,3.0,4-20,major
55065,70,56,60,92,3.0,4-20,major
55066,67,48,40,96,3.0,4-20,major
55067,70,56,72,96,3.0,4-20,major
55068,46,67,152,232,3.0,4-20,major
55069,70,58,36,48,3.0,4-20,major
55070,46,57,228,144,3.0,4-20,major
55071,34,57,208,196,10.0,2-4,major
55072,79,63,76,136,10.0,2-4,major
55073,41,80,776,64,10.0,2-4,major
55074,82,68,144,212,0.0,4-22A,other
55075,80,63,160,188,0.0,4-22A,other
55076,82,48,60,184,0.0,4-22A,other
55077,82,57,164,396,7.0,4-29A,minor
55078,86,53,68,408,2.0,2-2,other
55079,39,78,208,156,2.0,2-2,other
55080,87,56,140,60,2.0,2-2,other
55081,46,48,100,148,2.0,2-2,other
55082,53,48,100,128,2.0,2-2,other
55083,55,48,1708,124,2.0,2-2,other
55084,58,46,1560,128,2.0,2-2,other
55085,60,49,72,148,2.0,2-2,other
55086,62,63,40,88,2.0,2-2,other
55087,65,59,56,92,2.0,2-2,other
55088,67,56,48,96,2.0,2-2,other
55089,70,60,36,96,2.0,2-2,other
55090,72,58,48,96,2.0,2-2,other
55091,74,42,40,116,2.0,2-2,other
55092,77,57,76,124,2.0,2-2,other
55093,82,58,36,100,2.0,2-2,other
55094,84,56,56,84,2.0,2-2,other
55095,89,60,52,72,2.0,2-2,other
55096,94,59,24,68,2.0,2-2,other
55097,101,66,56,144,0.0,2-1,other
55098,106,68,60,72,0.0,2-1,other
55099,108,71,116,84,0.0,2-1,other
55100,108,63,112,152,0.0,2-1,other
55101,108,61,104,160,0.0,2-1,other
55102,108,51,100,176,0.0,2-1,other
55103,46,24,182,0,7.0,1-1,other
55104,58,25,84,46,7.0,1-1,other
55105,57,24,144,4618,0.0,1-1,other
55106,41,33,38,196,0.0,1-1,other
55107,53,42,32,190,0.0,4-15B,other
55108,48,26,94,1720,0.0,4-15B,other
55109,63,54,122,372,3.0,1-1,other
55110,60,58,170,558,0.0,1-1,other
55111,46,13,98,328,0.0,1-1,other
55112,55,31,272,8740,4.0,1-1,other
55113,82,37,32,64,9.0,1-1,other
55114,52,43,642,826,2.0,2-2,other
55115,70,35,104,992,10.0,2-4,major
55116,50,44,240,166,10.0,2-4,major
55117,82,37,160,188,10.0,2-4,major
55118,70,25,148,32,10.0,2-4,major
55119,65,60,324,796,5.0,4-22A,major
55120,50,74,100,1866,7.0,1-1,other
55121,50,58,292,174,10.0,1-1,other
55122,48,55,618,396,9.0,1-1,other
55123,50,62,428,990,0.0,2-5,other
55124,52,64,638,530,0.0,2-5,other
55125,87,70,190,414,0.0,2-5,other
55126,88,57,78,390,0.0,2-5,other
55127,87,45,164,376,4.0,2-2,other
55128,88,57,86,216,4.0,2-2,other
55129,48,46,500,154,4.0,2-2,other
55130,88,41,78,32,4.0,2-2,other
55131,88,41,88,218,4.0,2-2,other
55132,89,64,220,170,4.0,2-2,other
55133,52,25,102,220,9.0,3-7A,minor
55134,50,71,124,350,9.0,3-7A,minor
55135,81,34,50,38,9.0,3-7A,minor
55136,50,65,144,158,9.0,3-7A,minor
55137,52,57,570,366,9.0,3-7A,minor
55138,50,54,428,966,0.0,2-2,other
55139,48,36,624,560,0.0,2-2,other
55140,89,71,130,770,9.0,3-7A,minor
55141,50,44,258,396,2.0,2-2,other
55142,86,57,44,222,2.0,2-2,other
55143,52,57,534,164,2.0,2-2,other
55144,76,33,78,644,4.0,2-6,other
55145,50,43,214,510,10.0,2-4,major
55146,48,39,636,384,10.0,2-4,major
55147,81,37,112,66,0.0,1-1,other
55148,55,19,56,560,9.0,2-3,minor
55149,88,51,104,1294,4.0,2-2,other
55150,50,62,122,564,4.0,3-5A,other
55151,86,50,138,32,4.0,3-5A,other
55152,82,31,72,28,4.0,3-5A,other
55153,50,39,240,144,4.0,3-5A,other
55154,50,73,128,1330,9.0,3-7A,minor
55155,86,69,76,430,2.0,2-2,other
55156,58,37,130,750,7.0,1-1,other
55157,90,27,32,238,0.0,2-5,other
55158,48,46,642,716,8.0,2-6,other
55159,77,53,94,224,5.0,1-1,other
55160,89,42,116,108,5.0,1-1,other
55161,77,36,118,98,5.0,1-1,other
55162,50,75,126,524,9.0,2-2,other
55163,72,74,116,42,9.0,2-2,other
55164,77,89,168,432,2.0,1-1,other
55165,52,61,578,92,2.0,1-1,other
55166,79,80,158,228,2.0,1-1,other
55167,59,36,34,798,10.0,2-4,major
55168,50,78,214,146,10.0,2-4,major
55169,82,77,242,48,10.0,2-4,major
55170,48,43,792,312,10.0,2-4,major
55171,81,54,106,34,10.0,2-4,major
55172,84,82,546,228,10.0,2-4,major
55173,72,45,90,366,9.0,2-2,other
55174,84,56,160,576,2.0,2-2,other
55175,52,71,534,354,2.0,2-2,other
55176,72,44,98,34,2.0,2-2,other
55177,50,68,116,912,0.0,2-2,other
55178,50,38,198,216,0.0,2-2,other
55179,57,30,416,968,0.0,2-5,other
55180,50,40,108,344,0.0,2-5,other
55181,50,38,156,188,0.0,1-1,other
55182,52,48,624,374,0.0,1-1,other
55183,50,64,212,1186,2.0,2-2,other
55184,48,38,624,380,2.0,2-2,other
55185,50,80,284,924,2.0,2-3,minor
55186,50,56,102,386,5.0,2-4,major
55187,50,58,246,1386,2.0,2-3,minor
55188,82,51,140,168,2.0,2-3,minor
55189,72,30,62,36,2.0,2-3,minor
55190,48,43,632,166,2.0,2-3,minor
55191,50,77,76,1354,2.0,2-3,minor
55192,52,83,654,196,10.0,2-4,major
55193,50,44,174,1146,10.0,2-4,major
55194,79,47,72,196,10.0,2-4,major
55195,70,21,88,26,10.0,2-4,major
55196,70,33,100,962,5.0,4-22A,major
55197,72,71,80,180,2.0,2-5,other
55198,67,32,36,570,5.0,2-1,other
55199,65,71,134,950,2.0,1-1,other
55200,50,67,266,158,2.0,1-1,other
55201,48,53,616,396,0.0,2-4,major
55202,50,53,410,972,9.0,3-7A,minor
55203,55,36,56,404,9.0,3-7A,minor
55204,52,68,628,170,9.0,3-7A,minor
55205,60,29,1546,1594,0.0,1-1,other
55206,55,47,310,526,0.0,1-1,other
55207,57,24,256,42,0.0,1-1,other
55208,50,73,212,326,0.0,1-1,other
55209,50,67,96,386,0.0,1-1,other
55210,52,66,668,202,0.0,1-1,other
55211,50,78,112,958,0.0,2-2,other
55212,50,46,204,196,0.0,2-2,other
55213,48,45,662,372,0.0,2-2,other
55214,50,65,130,994,9.0,3-7A,minor
55215,50,44,44,334,9.0,3-7A,minor
55216,52,57,722,210,9.0,3-7A,minor
55217,50,75,104,948,0.0,2-2,other
55218,50,50,222,206,0.0,2-2,other
55219,48,46,730,364,0.0,2-2,other
55220,55,38,302,624,9.0,2-3,minor
55221,50,56,108,568,2.0,1-1,other
55222,52,75,622,392,2.0,2-2,other
55223,50,78,114,940,0.0,2-2,other
55224,50,67,232,188,0.0,2-2,other
55225,48,57,656,376,0.0,2-2,other
55226,50,55,84,974,9.0,3-7A,minor
55227,50,49,274,174,9.0,3-7A,minor
55228,52,55,608,386,9.0,3-7A,minor
55229,50,63,112,942,0.0,2-2,other
55230,50,52,262,196,0.0,2-2,other
55231,48,46,666,394,0.0,2-2,other
55232,69,82,136,646,9.0,2-3,minor
55233,50,46,116,318,10.0,1-1,other
55234,84,92,172,226,2.0,2-2,other
55235,52,62,524,352,2.0,1-1,other
55236,58,51,260,610,0.0,2-4,major
55237,50,73,88,354,0.0,2-4,major
55238,50,46,276,194,0.0,2-4,major
55239,48,48,606,392,0.0,2-4,major
55240,50,64,126,928,9.0,3-7A,minor
55241,50,71,226,190,9.0,3-7A,minor
55242,52,57,560,390,9.0,3-7A,minor
55243,50,52,72,1168,10.0,3-9,other
55244,48,58,624,392,10.0,3-9,other
55245,86,80,100,400,10.0,3-9,other
55246,74,37,50,224,9.0,3-7A,minor
55247,77,31,118,164,9.0,3-7A,minor
55248,50,57,206,350,2.0,1-1,other
55249,57,24,306,26,2.0,1-1,other
55250,52,70,650,340,3.0,1-1,other
55251,84,34,48,808,10.0,3-9,other
55252,50,72,114,158,10.0,3-9,other
55253,50,60,300,196,4.0,1-1,other
55254,77,39,120,1020,9.0,3-7A,minor
55255,81,44,128,152,9.0,3-7A,minor
55256,52,68,588,744,1.0,1-1,other
55257,79,27,60,832,0.0,4-27B,major
55258,77,37,104,1370,9.0,3-7A,minor
55259,81,38,116,148,9.0,3-7A,minor
55260,50,42,114,158,9.0,3-7A,minor
55261,50,58,190,186,2.0,1-1,other
55262,52,44,770,398,3.0,1-1,other
55263,50,71,108,954,0.0,2-2,other
55264,50,42,248,214,4.0,1-1,other
55265,48,41,550,388,3.0,1-1,other
55266,50,53,264,1134,2.0,2-2,other
55267,58,32,60,1006,0.0,1-1,other
55268,50,66,168,340,0.0,1-1,other
55269,60,26,50,36,0.0,1-1,other
55270,50,32,72,358,0.0,1-1,other
55271,72,45,88,170,0.0,1-1,other
55272,74,55,106,86,0.0,3-1,other
55273,77,101,130,194,0.0,3-1,other
55274,41,48,78,144,0.0,3-1,other
55275,77,115,200,120,0.0,3-1,other
55276,74,44,144,308,0.0,3-1,other
55277,77,53,104,218,9.0,3-7A,minor
55278,65,38,118,234,9.0,3-7A,minor
55279,41,54,370,1778,2.0,2-2,other
55280,50,71,316,986,9.0,4-26,minor
55281,77,26,36,396,9.0,4-26,minor
55282,48,61,320,116,9.0,4-26,minor
55283,80,87,182,56,9.0,4-26,minor
55284,81,79,128,208,9.0,4-26,minor
55285,86,99,158,186,9.0,4-26,minor
55286,79,24,188,382,8.0,3-8A,other
55287,43,53,214,136,8.0,3-8A,other
55288,41,58,392,564,8.0,3-8A,other
55289,80,70,180,468,8.0,3-8A,other
55290,86,95,174,366,9.0,3-7A,minor
55291,48,58,168,188,9.0,3-7A,minor
55292,43,54,408,512,9.0,3-7A,minor
55293,80,63,168,460,9.0,3-7A,minor
55294,86,84,136,348,5.0,2-4,major
55295,82,42,94,596,0.0,1-1,other
55296,41,54,394,136,0.0,1-1,other
55297,84,77,174,48,0.0,1-1,other
55298,83,89,176,406,0.0,1-1,other
55299,79,20,96,416,7.0,2-3,minor
55300,81,54,142,340,9.0,2-1,other
55301,72,48,108,202,9.0,2-1,other
55302,43,53,398,136,9.0,2-1,other
55303,72,51,184,56,9.0,2-1,other
55304,60,34,32,584,10.0,2-4,major
55305,48,55,66,344,10.0,2-4,major
55306,48,60,302,190,10.0,2-4,major
55307,80,44,40,32,10.0,2-4,major
55308,81,36,110,82,10.0,2-4,major
55309,41,54,368,248,10.0,2-4,major
55310,55,40,34,632,9.0,3-11A,minor
55311,48,69,386,346,9.0,3-11A,minor
55312,89,96,172,256,9.0,3-11A,minor
55313,86,33,48,222,9.0,3-11A,minor
55314,43,63,322,72,9.0,3-11A,minor
55315,87,83,166,70,9.0,3-11A,minor
55316,86,89,194,368,9.0,3-11A,minor
55317,84,40,164,362,2.0,2-2,other
55318,48,70,128,180,2.0,2-2,other
55319,79,56,122,30,2.0,2-2,other
55320,48,59,314,174,2.0,2-2,other
55321,77,51,192,56,2.0,2-2,other
55322,79,65,128,550,5.0,2-1,other
55323,72,44,186,224,5.0,2-1,other
55324,52,39,36,176,9.0,3-7A,minor
55325,72,42,120,88,9.0,3-7A,minor
55326,48,70,484,266,9.0,3-7A,minor
55327,43,59,336,536,9.0,3-7A,minor
55328,62,60,30,608,0.0,2-2,other
55329,73,47,104,76,0.0,2-2,other
55330,75,57,72,114,0.0,2-2,other
55331,76,71,58,124,0.0,2-2,other
55332,48,75,474,54,0.0,2-2,other
55333,78,50,58,62,0.0,2-2,other
55334,79,51,38,136,0.0,2-2,other
55335,81,53,48,124,0.0,2-2,other
55336,82,62,62,126,0.0,2-2,other
55337,41,55,396,84,0.0,2-2,other
55338,84,60,34,54,0.0,2-2,other
55339,85,61,34,120,0.0,2-2,other
55340,87,53,32,138,0.0,2-2,other
55341,88,63,36,144,0.0,2-2,other
55342,91,82,98,104,0.0,2-2,other
55343,88,51,36,136,9.0,4-26,minor
55344,89,64,70,138,9.0,4-26,minor
55345,84,66,50,130,9.0,4-26,minor
55346,48,63,88,48,9.0,4-26,minor
55347,48,46,298,194,9.0,4-26,minor
55348,43,49,354,352,9.0,4-26,minor
55349,48,59,68,960,10.0,2-4,major
55350,48,51,382,184,10.0,2-4,major
55351,82,74,230,452,5.0,1-1,other
55352,86,18,78,244,5.0,1-1,other
55353,84,28,110,526,11.0,2-2,other
55354,48,57,294,166,11.0,2-2,other
55355,43,46,102,382,5.0,2-4,major
55356,86,47,50,50,5.0,2-4,major
55357,48,65,86,1082,10.0,3-11B,major
55358,48,54,328,202,5.0,1-1,other
55359,48,61,96,1344,9.0,4-26,minor
55360,48,45,332,196,9.0,4-26,minor
55361,81,40,260,1004,10.0,4-20,major
55362,79,57,226,756,0.0,2-5,other
55363,41,54,358,160,0.0,2-5,other
55364,72,41,176,760,11.0,4-10,minor
55365,60,14,68,62,11.0,4-10,minor
55366,48,59,82,142,11.0,4-10,minor
55367,72,54,84,44,11.0,4-10,minor
55368,48,43,302,162,11.0,4-10,minor
55369,43,52,358,364,11.0,4-10,minor
55370,48,66,84,952,10.0,2-4,major
55371,48,54,300,216,10.0,2-4,major
55372,41,53,324,366,10.0,2-4,major
55373,48,57,72,950,5.0,2-4,major
55374,48,48,338,192,9.0,2-3,minor
55375,43,55,326,382,5.0,2-4,major
55376,48,55,80,930,4.0,2-3,minor
55377,48,52,310,224,4.0,2-3,minor
55378,41,50,372,380,2.0,2-3,minor
55379,48,60,88,1002,5.0,2-4,major
55380,48,45,300,186,5.0,2-4,major
55381,43,49,324,348,5.0,2-4,major
55382,48,56,160,938,10.0,2-4,major
55383,84,94,108,262,10.0,2-4,major
55384,48,49,78,152,10.0,2-4,major
55385,82,63,118,46,10.0,2-4,major
55386,41,53,284,154,10.0,2-4,major
55387,76,36,116,28,10.0,2-4,major
55388,72,25,182,224,10.0,2-4,major
55389,48,58,492,722,9.0,4-26,minor
55390,43,45,408,524,9.0,4-26,minor
55391,48,54,68,1004,10.0,2-4,major
55392,48,41,328,194,10.0,2-4,major
55393,41,48,330,362,10.0,2-4,major
55394,86,92,108,262,10.0,2-4,major
55395,84,76,150,190,10.0,2-4,major
55396,77,33,134,372,9.0,2-5,other
55397,48,53,560,156,9.0,2-5,other
55398,43,51,394,558,9.0,2-5,other
55399,82,85,138,30,9.0,2-5,other
55400,86,87,138,212,9.0,2-5,other
55401,82,55,142,152,9.0,2-5,other
55402,79,62,76,106,9.0,2-5,other
55403,76,55,88,106,9.0,2-5,other
55404,75,56,32,112,10.0,2-4,major
55405,74,48,86,70,10.0,2-4,major
55406,73,44,60,112,10.0,2-4,major
55407,71,63,82,156,0.0,1-1,other
55408,74,74,106,222,0.0,2-2,other
55409,70,35,82,74,0.0,2-2,other
55410,64,54,76,128,0.0,2-2,other
55411,41,54,352,56,0.0,2-2,other
55412,63,49,30,48,0.0,2-2,other
55413,62,61,80,40,0.0,2-2,other
55414,61,59,48,90,0.0,2-2,other
55415,60,46,60,78,0.0,2-2,other
55416,59,42,86,82,0.0,2-2,other
55417,58,69,52,90,0.0,2-2,other
55418,57,63,206,48,0.0,2-2,other
55419,48,54,96,520,0.0,3-11B,major
55420,48,45,364,176,0.0,3-11B,major
55421,60,32,104,210,0.0,3-11B,major
55422,48,54,208,1100,10.0,2-4,major
55423,77,60,70,832,2.0,2-3,minor
55424,79,74,172,204,2.0,2-3,minor
55425,80,32,128,64,2.0,2-3,minor
55426,81,40,52,128,9.0,3-7A,minor
55427,79,64,170,166,9.0,3-7A,minor
55428,80,44,138,40,9.0,3-7A,minor
55429,74,61,90,524,2.0,2-2,other
55430,81,25,58,612,8.0,2-6,other
55431,74,60,148,732,0.0,2-4,major
55432,77,66,48,220,0.0,2-4,major
55433,50,52,310,160,0.0,2-4,major
55434,81,39,52,250,8.0,4-13B,other
55435,74,32,42,504,9.0,2-3,minor
55436,50,68,452,230,9.0,2-3,minor
55437,77,77,140,388,4.0,2-2,other
55438,52,66,582,142,4.0,2-2,other
55439,81,56,86,310,7.0,3-5B,other
55440,60,1,786,424,10.0,2-1,other
55441,50,35,100,210,7.0,2-5,other
55442,77,53,258,92,7.0,2-5,other
55443,50,60,326,78,7.0,2-5,other
55444,76,36,90,258,7.0,2-5,other
55445,79,54,210,162,7.0,2-5,other
55446,48,43,276,34,7.0,2-5,other
55447,76,35,122,202,7.0,2-5,other
55448,57,25,216,610,0.0,2-5,other
55449,72,53,210,150,0.0,2-5,other
55450,50,41,184,186,0.0,2-5,other
55451,52,49,684,386,0.0,2-5,other
55452,82,68,154,972,2.0,2-3,minor
55453,50,40,84,384,2.0,2-3,minor
55454,48,21,572,206,10.0,2-5,other
55455,72,37,88,932,0.0,2-5,other
55456,79,30,92,28,0.0,2-5,other
55457,50,57,436,350,0.0,2-5,other
55458,52,57,626,564,0.0,2-5,other
55459,50,57,230,784,0.0,2-2,other
55460,48,48,624,388,0.0,2-2,other
55461,72,66,76,804,9.0,3-7A,minor
55462,74,57,88,110,9.0,3-7A,minor
55463,50,45,382,54,9.0,3-7A,minor
55464,74,78,84,150,9.0,3-7A,minor
55465,76,70,78,114,9.0,3-7A,minor
55466,76,83,86,146,9.0,3-7A,minor
55467,77,60,80,106,9.0,3-7A,minor
55468,52,48,692,38,9.0,3-7A,minor
55469,77,71,70,102,9.0,3-7A,minor
55470,79,75,66,112,9.0,3-7A,minor
55471,79,64,72,126,9.0,3-7A,minor
55472,81,68,98,156,9.0,3-7A,minor
55473,82,71,76,190,0.0,2-2,other
55474,82,69,118,184,0.0,2-2,other
55475,50,59,418,102,0.0,2-2,other
55476,79,49,96,244,0.0,1-1,other
55477,79,49,112,184,0.0,1-1,other
55478,48,48,620,118,0.0,1-1,other
55479,81,64,298,58,0.0,1-1,other
55480,77,40,286,326,0.0,1-1,other
55481,74,36,56,410,9.0,3-7A,minor
55482,50,60,444,174,9.0,3-7A,minor
55483,52,56,608,572,0.0,1-1,other
55484,50,61,114,972,0.0,2-2,other
55485,50,45,246,206,0.0,2-2,other
55486,48,45,576,384,0.0,2-2,other
55487,50,68,464,954,10.0,2-4,major
55488,52,62,596,564,2.0,2-3,minor
55489,84,53,60,160,2.0,2-3,minor
55490,76,38,42,30,2.0,2-3,minor
55491,74,35,38,156,2.0,2-3,minor
55492,50,67,116,624,0.0,2-4,major
55493,50,48,220,196,10.0,2-4,major
55494,48,46,600,382,9.0,2-3,minor
55495,72,15,940,778,9.0,3-7A,minor
55496,81,15,436,202,2.0,2-2,other
55497,50,57,260,158,2.0,2-2,other
55498,52,67,616,396,2.0,2-2,other
55499,58,38,138,620,1.0,2-1,other
55500,75,49,154,166,1.0,2-1,other
55501,78,59,130,378,4.0,2-2,other
55502,80,67,94,602,9.0,3-3A,minor
55503,81,42,124,198,9.0,3-3A,minor
55504,57,33,280,184,0.0,3-9,other
55505,84,54,176,198,0.0,3-9,other
55506,50,57,118,138,0.0,3-9,other
55507,52,55,568,584,7.0,2-5,other
55508,80,64,186,384,7.0,2-5,other
55509,86,81,210,392,0.0,2-2,other
55510,84,57,170,392,2.0,2-2,other
55511,57,20,244,1022,0.0,2-5,other
55512,50,61,106,312,0.0,2-5,other
55513,50,49,196,190,0.0,2-5,other
55514,52,60,576,388,0.0,2-5,other
55515,50,68,196,948,0.0,2-2,other
55516,50,43,90,394,0.0,2-2,other
55517,48,40,268,200,0.0,2-2,other
55518,60,42,58,580,10.0,1-1,other
55519,50,65,114,374,11.0,1-1,other
55520,71,49,198,246,2.0,1-1,other
55521,83,39,120,44,2.0,1-1,other
55522,52,48,520,256,0.0,1-1,other
55523,77,33,136,2308,9.0,3-7A,minor
55524,65,31,124,44,9.0,3-7A,minor
55525,52,45,568,720,10.0,1-1,other
55526,60,33,34,634,7.0,2-3,minor
55527,50,72,120,332,9.0,1-1,other
55528,79,42,146,242,7.0,2-5,other
55529,64,15,70,244,7.0,2-5,other
55530,48,34,594,86,7.0,2-5,other
55531,67,54,232,36,7.0,2-5,other
55532,79,48,142,32,7.0,2-5,other
55533,72,48,42,588,9.0,3-7A,minor
55534,50,60,154,300,9.0,3-7A,minor
55535,72,50,368,84,9.0,3-7A,minor
55536,52,50,580,484,9.0,3-7A,minor
55537,66,39,320,790,0.0,2-2,other
55538,78,30,144,40,0.0,2-2,other
55539,67,24,32,274,7.0,2-5,other
55540,70,29,120,368,2.0,2-2,other
55541,70,28,88,376,0.0,2-1,other
55542,72,53,212,104,0.0,2-1,other
55543,84,55,156,30,0.0,2-1,other
55544,50,78,264,524,9.0,1-1,other
55545,50,50,88,388,5.0,1-1,other
55546,52,57,682,200,9.0,1-1,other
55547,60,22,30,652,0.0,2-2,other
55548,50,55,306,520,7.0,1-1,other
55549,77,62,112,608,0.0,2-4,major
55550,65,44,98,26,0.0,2-4,major
55551,50,58,388,684,9.0,3-7A,minor
55552,72,41,170,222,9.0,3-7A,minor
55553,52,37,604,352,9.0,3-7A,minor
55554,48,36,650,1546,0.0,1-1,other
55555,50,80,462,968,0.0,1-1,other
55556,52,78,654,560,5.0,1-1,other
55557,58,37,108,614,7.0,1-1,other
55558,60,24,842,38,7.0,1-1,other
55559,50,1,232,482,4.0,1-1,other
55560,72,51,100,236,4.0,1-1,other
55561,48,37,594,190,4.0,1-1,other
55562,50,84,472,946,9.0,2-2,other
55563,52,80,672,554,9.0,2-2,other
55564,50,28,82,1018,10.0,1-1,other
55565,50,44,204,168,10.0,1-1,other
55566,84,80,528,422,0.0,1-1,other
55567,50,62,126,882,9.0,1-1,other
55568,50,42,256,212,5.0,1-1,other
55569,52,57,694,366,9.0,1-1,other
55570,79,51,320,270,9.0,1-1,other
55571,67,26,310,40,9.0,1-1,other
55572,50,57,180,856,2.0,2-2,other
55573,48,33,592,392,0.0,1-1,other
55574,55,28,54,620,0.0,1-1,other
55575,50,34,118,472,4.0,1-1,other
55576,48,41,630,1980,10.0,1-1,other
55577,58,46,344,792,9.0,2-2,other
55578,70,23,74,66,9.0,2-2,other
55579,50,37,102,88,9.0,2-2,other
55580,50,52,180,196,9.0,2-2,other
55581,52,50,618,370,2.0,1-1,other
55582,67,22,100,1422,7.0,2-5,other
55583,69,60,366,188,9.0,2-3,minor
55584,79,38,52,956,9.0,3-7A,minor
55585,52,59,634,538,2.0,2-5,other
55586,58,51,92,614,7.0,1-1,other
55587,60,31,46,32,7.0,1-1,other
55588,50,64,472,296,4.0,1-1,other
55589,60,30,660,648,0.0,1-1,other
55590,58,34,114,544,0.0,1-1,other
55591,50,62,104,358,0.0,1-1,other
55592,50,53,284,184,5.0,1-1,other
55593,50,54,226,1534,2.0,1-1,other
55594,62,32,138,196,2.0,1-1,other
55595,74,29,130,28,2.0,1-1,other
55596,48,39,620,168,2.0,1-1,other
55597,50,49,130,942,9.0,3-7A,minor
55598,50,74,188,194,9.0,3-7A,minor
55599,52,65,584,396,9.0,3-7A,minor
55600,58,60,90,608,9.0,3-7A,minor
55601,50,67,462,332,9.0,3-7A,minor
55602,48,46,1032,614,9.0,3-7A,minor
55603,82,37,34,1170,10.0,2-4,major
55604,52,49,654,354,2.0,1-1,other
55605,71,62,140,262,0.0,1-1,other
55606,83,60,78,40,0.0,1-1,other
55607,50,66,92,662,0.0,2-2,other
55608,72,30,144,60,0.0,2-2,other
55609,50,44,314,118,0.0,2-2,other
55610,72,45,112,220,0.0,2-2,other
55611,48,36,982,150,0.0,2-2,other
55612,50,58,78,978,9.0,3-7A,minor
55613,50,44,410,162,9.0,3-7A,minor
55614,52,48,794,400,9.0,3-7A,minor
55615,50,46,190,822,0.0,2-2,other
55616,50,53,400,294,0.0,2-2,other
55617,48,43,1002,420,0.0,2-2,other
55618,50,64,130,978,10.0,2-4,major
55619,50,61,372,198,10.0,2-4,major
55620,52,59,794,376,0.0,2-4,major
55621,58,63,56,384,11.0,2-3,minor
55622,50,68,302,398,0.0,2-2,other
55623,50,71,342,372,0.0,2-2,other
55624,48,53,912,392,0.0,2-2,other
55625,50,76,118,950,0.0,2-5,other
55626,50,55,368,192,0.0,2-5,other
55627,52,51,1012,374,0.0,2-5,other
55628,58,29,50,384,0.0,2-5,other
55629,50,80,114,594,0.0,3-7B,other
55630,50,64,328,186,0.0,3-7B,other
55631,48,44,694,374,0.0,3-7B,other
55632,50,87,110,986,9.0,3-7A,minor
55633,50,74,364,174,9.0,3-7A,minor
55634,52,60,662,400,9.0,3-7A,minor
55635,50,91,372,960,0.0,2-2,other
55636,48,57,90,384,0.0,2-2,other
55637,50,61,78,1148,0.0,2-5,other
55638,50,36,374,168,0.0,2-5,other
55639,52,45,596,390,0.0,2-5,other
55640,58,37,40,630,0.0,2-5,other
55641,50,64,110,328,0.0,2-5,other
55642,50,47,250,188,0.0,2-5,other
55643,48,30,226,380,0.0,2-5,other
55644,74,24,34,78,0.0,2-5,other
55645,60,22,44,560,0.0,2-4,major
55646,50,58,580,344,0.0,2-4,major
55647,52,29,646,606,2.0,2-3,minor
55648,50,70,562,934,0.0,2-2,other
55649,48,27,678,598,0.0,2-2,other
55650,81,110,150,776,0.0,2-2,other
55651,50,26,568,162,0.0,2-2,other
55652,84,76,150,204,10.0,2-1,other
55653,86,78,114,196,10.0,2-1,other
55654,82,48,108,378,0.0,2-4,major
55655,58,25,40,442,0.0,1-1,other
55656,70,46,184,356,10.0,2-4,major
55657,50,68,324,164,10.0,2-4,major
55658,82,45,92,162,10.0,2-4,major
55659,70,29,144,28,10.0,2-4,major
55660,57,20,32,806,9.0,2-3,minor
55661,77,44,144,166,9.0,2-3,minor
55662,50,49,556,176,9.0,2-3,minor
55663,79,53,96,26,9.0,2-3,minor
55664,81,56,82,184,9.0,2-3,minor
55665,82,74,124,186,9.0,2-3,minor
55666,79,34,152,952,0.0,2-2,other
55667,79,30,90,228,10.0,2-4,major
55668,69,65,98,368,2.0,2-5,other
55669,48,33,646,190,2.0,2-5,other
55670,77,53,848,38,2.0,2-5,other
55671,65,49,772,26,2.0,2-5,other
55672,48,25,318,1060,5.0,2-5,other
55673,72,40,190,38,5.0,2-5,other
55674,74,46,60,356,5.0,2-5,other
55675,50,68,196,576,4.0,2-3,minor
55676,76,54,144,166,4.0,2-3,minor
55677,70,37,126,28,4.0,2-3,minor
55678,50,52,140,172,4.0,2-3,minor
55679,52,51,322,212,10.0,3-11B,major
55680,48,29,282,750,2.0,3-7B,other
55681,74,52,106,1014,2.0,4-26,minor
55682,70,38,34,26,2.0,4-26,minor
55683,52,51,832,118,2.0,4-26,minor
55684,70,29,32,644,0.0,4-27B,major
55685,50,62,100,306,0.0,4-27B,major
55686,50,43,318,192,10.0,3-11B,major
55687,48,37,938,386,10.0,2-4,major
55688,74,82,172,1194,2.0,2-2,other
55689,77,92,200,252,2.0,2-2,other
55690,52,53,1020,98,2.0,2-2,other
55691,79,110,226,242,2.0,2-2,other
55692,79,83,122,356,2.0,2-2,other
55693,82,80,142,260,2.0,2-2,other
55694,50,49,480,134,2.0,2-2,other
55695,82,77,190,128,2.0,2-2,other
55696,81,67,178,304,2.0,2-2,other
55697,41,49,666,108,2.0,2-2,other
55698,77,49,878,150,2.0,2-2,other
55699,74,34,292,1064,0.0,1-1,other
55700,43,41,970,302,0.0,1-1,other
55701,77,57,260,42,0.0,1-1,other
55702,79,49,166,352,0.0,1-1,other
55703,79,42,88,378,10.0,3-11B,major
55704,76,37,106,26,10.0,3-11B,major
55705,74,31,96,240,0.0,2-2,other
55706,48,33,338,128,0.0,2-2,other
55707,41,37,964,362,9.0,2-3,minor
55708,48,48,110,988,9.0,3-7A,minor
55709,48,42,352,192,9.0,3-7A,minor
55710,43,33,918,360,9.0,3-7A,minor
55711,60,33,36,648,7.0,3-7A,minor
55712,50,71,110,330,10.0,3-11B,major
55713,76,18,92,634,10.0,3-11B,major
55714,72,38,146,356,5.0,2-5,other
55715,48,35,328,754,5.0,3-11B,major
55716,43,30,938,354,9.0,2-3,minor
55717,50,74,140,960,10.0,4-29B,major
55718,48,41,374,202,10.0,3-11B,major
55719,41,38,952,372,10.0,2-4,major
55720,72,43,188,32,10.0,2-4,major
55721,69,32,132,26,10.0,2-4,major
55722,48,59,80,962,4.0,1-1,other
55723,48,48,136,364,5.0,1-1,other
55724,48,48,76,1132,10.0,3-6,major
55725,48,39,320,204,2.0,1-1,other
55726,41,44,1278,358,10.0,1-1,other
55727,82,48,72,782,9.0,2-3,minor
55728,70,27,144,30,9.0,2-3,minor
55729,43,42,1114,736,2.0,1-1,other
55730,53,30,36,636,10.0,3-4A,major
55731,48,55,112,510,10.0,1-1,other
55732,79,31,62,250,4.0,2-3,minor
55733,41,39,634,520,9.0,1-1,other
55734,69,82,354,650,9.0,2-3,minor
55735,48,42,120,314,9.0,2-3,minor
55736,43,42,916,194,5.0,1-1,other
55737,43,18,190,948,4.0,1-1,other
55738,48,45,260,232,2.0,1-1,other
55739,72,49,102,210,2.0,1-1,other
55740,48,48,96,1112,9.0,2-2,other
55741,48,37,332,182,9.0,2-2,other
55742,43,39,1194,386,9.0,2-2,other
55743,48,47,90,962,10.0,3-9,other
55744,48,38,374,182,10.0,3-9,other
55745,70,51,116,222,11.0,1-1,other
55746,82,50,108,28,11.0,1-1,other
55747,80,44,104,82,11.0,1-1,other
55748,41,39,1372,50,11.0,1-1,other
55749,77,53,174,54,11.0,1-1,other
55750,65,22,116,42,11.0,1-1,other
55751,77,41,422,198,11.0,1-1,other
55752,65,47,306,26,11.0,1-1,other
55753,75,42,178,466,9.0,2-3,minor
55754,63,20,184,42,9.0,2-3,minor
55755,48,53,106,178,9.0,2-3,minor
55756,77,24,94,40,9.0,2-3,minor
55757,65,36,54,32,9.0,2-3,minor
55758,48,45,106,300,9.0,2-3,minor
55759,43,37,1162,176,9.0,2-3,minor
55760,83,60,58,364,9.0,2-3,minor
55761,71,36,38,64,0.0,1-1,other
55762,48,49,80,534,0.0,4-23,minor
55763,48,36,352,182,0.0,1-1,other
55764,83,42,56,128,0.0,1-1,other
55765,82,43,176,58,0.0,1-1,other
55766,80,36,110,94,0.0,1-1,other
55767,65,25,116,182,5.0,1-1,other
55768,48,49,84,896,9.0,3-7A,minor
55769,60,20,46,64,9.0,3-7A,minor
55770,48,42,182,318,1.0,1-1,other
55771,85,28,690,102,1.0,1-1,other
55772,43,34,982,70,1.0,1-1,other
55773,48,47,80,982,0.0,1-1,other
55774,95,30,126,70,11.0,1-1,other
55775,48,37,356,100,11.0,1-1,other
55776,84,34,112,194,0.0,1-1,other
55777,41,45,1122,194,0.0,1-1,other
55778,89,10,80,286,7.0,2-2,other
55779,48,39,92,1060,1.0,2-1,other
55780,43,28,938,196,11.0,1-1,other
55781,84,13,788,74,0.0,1-1,other
55782,58,56,226,894,0.0,2-2,other
55783,48,24,356,168,0.0,2-2,other
55784,84,34,98,1180,5.0,1-1,other
55785,50,62,560,148,5.0,1-1,other
55786,52,40,972,592,0.0,1-1,other
55787,60,32,48,632,0.0,1-1,other
55788,50,51,584,346,0.0,1-1,other
55789,98,48,92,804,0.0,2-2,other
55790,72,37,236,172,0.0,2-2,other
55791,96,36,174,38,0.0,2-2,other
55792,50,53,570,510,9.0,1-1,other
55793,52,55,934,574,0.0,1-1,other
55794,69,27,154,36,0.0,1-1,other
55795,93,33,114,26,0.0,1-1,other
55796,94,49,322,1130,2.0,1-1,other
55797,91,30,240,380,0.0,2-5,other
55798,50,44,558,936,9.0,1-1,other
55799,52,48,1040,570,10.0,1-1,other
55800,91,41,280,222,10.0,1-1,other
55801,67,33,176,28,10.0,1-1,other
55802,67,33,342,970,7.0,2-5,other
55803,57,26,48,942,9.0,2-3,minor
55804,50,64,104,330,9.0,2-3,minor
55805,50,65,360,176,9.0,2-3,minor
55806,52,54,898,386,9.0,2-3,minor
55807,91,48,178,770,0.0,2-2,other
55808,67,31,178,30,0.0,2-2,other
55809,64,26,102,240,4.0,2-2,other
55810,50,61,304,148,4.0,2-2,other
55811,64,30,160,194,4.0,2-2,other
55812,88,28,118,28,4.0,2-2,other
55813,48,38,960,138,4.0,2-2,other
55814,43,63,89,0,,,
55815,43,51,24,454,7.0,1-1,other
55816,43,48,25,1075,0.0,2-2,other
55817,62,57,11,306,9.0,1-1,other
55818,72,97,30,569,7.0,1-1,other
55819,42,57,31,1394,7.0,1-1,other
55820,43,59,191,46,7.0,1-1,other
55821,39,65,29,191,7.0,4-26,minor
55822,41,50,98,42,7.0,4-26,minor
55823,44,65,19,200,7.0,4-26,minor
55824,46,69,14,110,9.0,3-10,diminished
55825,43,58,12,289,2.0,2-4,major
55826,44,79,19,82,2.0,2-4,major
55827,45,75,16,47,2.0,2-4,major
55828,31,94,22,1036,7.0,2-3,minor
55829,53,72,197,165,4.0,3-8B,other
55830,52,60,35,190,10.0,2-4,major
55831,38,95,18,370,2.0,5-31B,major
55832,38,92,43,721,10.0,5-30B,other
55833,38,83,145,59,10.0,5-30B,other
55834,50,87,14,188,10.0,4-16A,other
55835,44,78,21,118,10.0,4-16A,other
55836,43,65,150,43,10.0,4-16A,other
55837,42,70,6,172,10.0,3-11B,major
55838,42,93,13,26,10.0,3-11B,major
55839,41,75,221,38,10.0,3-11B,major
55840,40,88,29,195,10.0,3-11B,major
55841,39,73,82,35,10.0,3-11B,major
55842,39,41,33,126,1.0,4-21,other
55843,38,108,110,77,1.0,4-21,other
55844,50,42,24,78,2.0,4-21,major
55845,42,73,24,158,6.0,2-6,other
55846,43,72,77,40,6.0,2-6,other
55847,50,66,16,86,6.0,2-6,other
55848,51,42,21,126,7.0,3-11A,minor
55849,51,60,23,227,10.0,2-4,major
55850,44,61,18,125,9.0,4-27A,diminished
55851,43,76,14,284,0.0,4-27A,minor
55852,44,93,28,73,0.0,4-27A,minor
55853,38,71,10,723,2.0,6-42,major
55854,45,87,21,112,10.0,4-16A,other
55855,44,49,83,48,10.0,4-16A,other
55856,42,55,32,82,10.0,4-16A,other
55857,43,65,211,39,10.0,4-16A,other
55858,39,48,33,209,10.0,3-11B,major
55859,41,36,221,51,10.0,3-11B,major
55860,39,91,21,307,10.0,3-11B,major
55861,39,81,27,109,0.0,3-11A,minor
55862,38,71,120,39,0.0,3-11A,minor
55863,43,51,23,209,2.0,3-8A,major
55864,38,87,16,471,9.0,5-29B,diminished
55865,45,94,323,43,9.0,5-29B,diminished
55866,54,107,213,77,9.0,5-29B,diminished
55867,64,90,20,325,2.0,2-4,major
55868,50,35,19,169,7.0,2-3,minor
55869,69,84,97,32,7.0,2-3,minor
55870,43,68,14,75,7.0,2-3,minor
55871,41,80,139,39,7.0,2-3,minor
55872,41,95,23,201,7.0,3-11A,minor
55873,39,84,170,50,7.0,3-11A,minor
55874,55,43,17,438,1.0,2-6,other
55875,39,104,24,468,1.0,2-3,minor
55876,60,46,17,507,6.0,3-5B,other
55877,60,55,10,104,3.0,3-4A,major
55878,73,1,25,378,2.0,5-31B,major
55879,50,95,63,88,2.0,5-31B,major
55880,75,107,19,54,2.0,5-31B,major
55881,76,106,26,36,2.0,5-31B,major
55882,78,103,22,89,5.0,4-13B,other
55883,69,59,24,102,6.0,2-6,other
55884,68,85,22,36,6.0,2-6,other
55885,66,66,26,95,7.0,4-14A,minor
55886,69,94,25,37,7.0,4-14A,minor
55887,62,58,24,80,7.0,2-5,other
55888,60,47,29,176,0.0,3-5B,other
55889,58,70,12,141,0.0,3-5B,other
55890,39,95,102,110,0.0,3-11A,minor
55891,50,108,23,244,2.0,4-15B,other
55892,45,104,16,115,2.0,4-15B,other
55893,82,1,28,287,9.0,6-25B,diminished
55894,81,59,72,365,2.0,5-28B,other
55895,84,5,40,41,2.0,5-28B,other
55896,67,54,49,461,10.0,3-4A,major
55897,67,50,37,238,10.0,2-1,other
55898,52,69,88,119,10.0,4-20,major
55899,38,110,50,289,2.0,4-19A,minor
55900,60,54,46,53,2.0,4-19A,minor
55901,58,38,16,205,10.0,4-17,major
55902,50,60,12,117,10.0,3-11B,major
55903,45,90,24,233,7.0,3-11A,minor
55904,72,67,43,53,7.0,3-11A,minor
55905,38,91,32,180,7.0,5-29B,minor
55906,74,62,59,181,5.0,3-5B,other
55907,82,91,96,149,9.0,2-3,minor
55908,72,52,60,99,3.0,2-4,major
55909,45,68,32,188,9.0,2-5,other
55910,77,103,33,174,4.0,2-2,other
55911,72,55,43,225,2.0,3-11B,major
55912,69,50,54,124,8.0,4-24,other
55913,70,84,171,115,0.0,2-5,other
55914,62,55,28,116,7.0,3-11A,minor
55915,45,91,18,311,7.0,3-11A,minor
55916,58,69,36,128,9.0,5-29B,diminished
55917,50,95,24,236,2.0,4-18A,major
55918,72,59,39,297,6.0,3-10,minor
55919,69,59,42,142,2.0,2-5,other
55920,72,82,55,76,2.0,2-5,other
55921,50,78,30,159,6.0,3-10,other
55922,44,64,94,352,6.0,4-28,diminished
55923,42,61,29,78,6.0,4-28,diminished
55924,39,71,26,233,7.0,4-26,minor
55925,41,62,215,41,7.0,4-26,minor
55926,37,71,28,198,10.0,3-11B,major
55927,39,72,178,42,10.0,3-11B,major
55928,38,81,146,190,2.0,4-20,major
55929,26,112,22,113,2.0,4-20,major
55930,42,68,29,125,6.0,2-3,minor
55931,43,75,204,42,6.0,2-3,minor
55932,55,17,141,114,7.0,4-26,minor
55933,42,55,19,91,7.0,4-26,minor
55934,46,78,191,34,7.0,4-26,minor
55935,44,62,31,198,10.0,3-11B,major
55936,45,50,100,40,10.0,3-11B,major
55937,39,56,98,134,0.0,4-29A,minor
55938,37,29,13,84,0.0,4-29A,minor
55939,39,44,18,110,2.0,3-8A,major
55940,44,36,86,39,2.0,3-8A,major
55941,39,60,32,77,2.0,3-8A,major
55942,45,66,63,45,2.0,3-8A,major
55943,51,56,98,128,0.0,5-27A,other
55944,46,56,18,197,0.0,2-5,other
55945,49,73,85,30,0.0,2-5,other
55946,46,48,24,220,2.0,3-8A,major
55947,48,74,84,33,2.0,3-8A,major
55948,44,48,18,82,2.0,3-8A,major
55949,46,76,85,31,2.0,3-8A,major
55950,44,53,17,83,2.0,3-8A,major
55951,45,67,77,33,2.0,3-8A,major
55952,43,55,82,108,10.0,4-19B,other
55953,34,60,30,84,10.0,4-19B,other
55954,37,80,84,37,10.0,4-19B,other
55955,37,73,17,209,10.0,3-11B,major
55956,46,97,62,37,10.0,3-11B,major
55957,45,116,21,207,9.0,4-27A,diminished
55958,40,80,12,50,9.0,4-27A,diminished
55959,39,93,20,74,9.0,4-27A,diminished
55960,38,76,119,43,9.0,4-27A,diminished
55961,43,101,28,192,6.0,3-10,other
55962,45,84,105,39,6.0,3-10,other
55963,39,75,21,438,9.0,4-27A,diminished
55964,26,78,148,131,2.0,4-15B,other
55965,42,71,30,351,2.0,4-15B,other
55966,43,72,220,38,2.0,4-15B,other
55967,39,55,33,216,10.0,3-4A,major
55968,41,59,215,39,10.0,3-4A,major
55969,37,64,27,185,10.0,3-11B,major
55970,39,61,162,38,10.0,3-11B,major
55971,37,62,27,198,5.0,3-8B,other
55972,38,69,88,35,5.0,3-8B,other
55973,42,60,21,208,6.0,3-10,other
55974,43,54,79,34,6.0,3-10,other
55975,42,48,29,101,6.0,3-10,other
55976,50,61,111,30,6.0,3-10,other
55977,46,61,92,115,6.0,3-10,other
55978,42,65,16,83,6.0,3-10,other
55979,44,69,122,39,6.0,3-10,other
55980,39,48,10,61,6.0,3-10,other
55981,41,66,18,147,9.0,2-5,other
55982,51,87,112,30,9.0,2-5,other
55983,50,70,96,116,9.0,2-5,other
55984,39,92,21,83,9.0,2-5,other
55985,38,79,85,41,9.0,2-5,other
55986,39,79,16,77,9.0,2-5,other
55987,46,85,93,42,9.0,2-5,other
55988,40,53,18,78,9.0,2-5,other
55989,45,79,96,35,9.0,2-5,other
55990,39,68,112,114,9.0,2-5,other
55991,36,67,82,130,9.0,2-5,other
55992,37,84,31,87,9.0,2-5,other
55993,38,74,94,40,9.0,2-5,other
55994,37,67,24,75,9.0,2-5,other
55995,40,82,108,39,9.0,2-5,other
55996,37,63,21,87,9.0,2-5,other
55997,41,68,110,39,9.0,2-5,other
55998,37,83,16,87,9.0,2-5,other
55999,42,104,100,38,9.0,2-5,other
56000,46,78,118,231,7.0,2-5,other
56001,38,24,14,89,7.0,2-5,other
56002,43,79,98,35,7.0,2-5,other
56003,40,66,13,87,7.0,2-5,other
56004,46,97,112,33,7.0,2-5,other
56005,45,84,102,126,7.0,2-5,other
56006,40,81,26,78,7.0,2-5,other
56007,39,87,64,43,7.0,2-5,other
56008,46,76,86,235,3.0,2-1,other
56009,45,109,272,87,3.0,2-1,other
56010,36,63,33,241,3.0,2-1,other
56011,39,73,203,41,3.0,2-1,other
56012,37,66,23,194,3.0,2-1,other
56013,38,66,384,44,3.0,2-1,other
56014,53,60,45,74,3.0,2-1,other
56015,54,64,286,50,3.0,2-1,other
56016,43,39,9,1639,10.0,1-1,other
56017,50,63,16,541,9.0,1-1,other
56018,46,54,21,532,7.0,1-1,other
56019,58,112,203,0,6.0,2-3,other
56020,58,63,17,302,6.0,2-5,other
56021,63,63,22,112,3.0,2-1,other
56022,63,49,18,132,5.0,2-2,other
56023,68,70,75,127,8.0,3-1,other
56024,46,74,109,237,6.0,3-7A,other
56025,73,88,14,127,10.0,2-4,other
56026,66,79,56,203,6.0,2-3,other
56027,57,61,13,105,2.0,2-5,other
56028,47,53,11,30,2.0,2-5,other
56029,57,55,11,32,2.0,2-5,other
56030,35,51,7,72,4.0,3-8A,major
56031,28,54,8,26,4.0,3-8A,major
56032,56,95,9,82,8.0,4-26,other
56033,53,81,20,30,8.0,4-26,other
56034,46,76,10,28,8.0,4-26,other
56035,45,76,40,72,1.0,3-8A,other
56036,78,93,12,283,3.0,2-4,other
56037,49,80,59,337,10.0,4-16A,other
56038,50,74,74,107,7.0,4-15B,other
56039,63,70,206,673,5.0,3-8A,major
56040,53,47,6,153,8.0,4-12A,other
56041,66,57,150,203,4.0,2-6,other
56042,58,71,94,311,6.0,2-3,other
56043,65,81,16,94,3.0,2-1,other
56044,70,103,15,34,3.0,2-1,other
56045,58,45,17,249,10.0,2-4,other
56046,63,81,40,92,0.0,2-3,minor
56047,63,90,55,64,0.0,2-3,minor
56048,41,53,6,168,3.0,4-16A,other
56049,53,53,53,133,8.0,4-12A,other
56050,66,62,55,454,6.0,4-28,diminished
56051,69,69,49,139,5.0,4-22A,major
56052,68,73,29,130,4.0,4-22A,major
56053,68,75,28,115,4.0,4-18A,major
56054,39,65,57,120,4.0,4-18A,diminished
56055,78,96,12,267,3.0,1-1,other
56056,63,83,28,398,10.0,5-20B,other
56057,62,66,42,36,10.0,5-20B,other
56058,61,73,36,37,10.0,5-20B,other
56059,54,60,4,70,0.0,2-4,other
56060,60,53,9,33,0.0,2-4,other
56061,63,88,21,29,0.0,2-4,other
56062,63,77,30,30,0.0,2-4,other
56063,65,86,51,45,0.0,2-4,other
56064,65,67,21,264,1.0,4-22A,other
56065,63,68,39,107,1.0,4-22A,other
56066,62,73,44,122,8.0,4-12A,other
56067,66,86,47,714,10.0,2-5,other
56068,65,63,14,909,0.0,5-38A,minor
56069,70,58,16,480,8.0,3-8A,other
56070,72,53,21,32,8.0,3-8A,other
56071,74,54,18,33,8.0,3-8A,other
56072,44,64,11,295,10.0,1-1,other
56073,49,54,57,300,10.0,2-4,other
56074,60,46,57,103,10.0,3-9,other
56075,66,68,27,197,6.0,1-1,other
56076,66,73,28,62,6.0,1-1,other
56077,51,45,89,115,5.0,3-8A,major
56078,57,43,9,62,5.0,3-8A,major
56079,70,73,61,35,5.0,3-8A,major
56080,75,65,42,151,9.0,5-33,other
56081,75,64,20,118,8.0,5-24A,other
56082,73,72,33,116,5.0,5-33,augmented
56083,71,84,46,243,3.0,5-33,augmented
56084,71,92,13,113,1.0,5-24A,minor
56085,46,97,110,112,0.0,4-23,minor
56086,22,66,8,104,8.0,4-28,diminished
56087,58,89,205,213,6.0,2-3,other
56088,63,85,162,73,6.0,2-3,other
56089,70,89,25,93,2.0,2-3,minor
56090,48,49,58,194,3.0,2-5,other
56091,58,56,7,49,3.0,2-5,other
56092,41,72,66,67,3.0,2-5,other
56093,53,58,8,285,8.0,4-12A,other
56094,39,85,12,75,8.0,4-12A,other
56095,66,67,32,417,6.0,3-5B,other
56096,57,56,7,92,2.0,2-5,other
56097,47,47,30,29,2.0,2-5,other
56098,57,58,32,27,2.0,2-5,other
56099,68,87,79,35,2.0,2-5,other
56100,52,55,5,32,2.0,2-5,other
56101,47,60,21,30,2.0,2-5,other
56102,46,55,7,85,5.0,3-11B,other
56103,41,54,21,29,5.0,3-11B,other
56104,38,58,27,30,5.0,3-11B,other
56105,51,83,11,216,3.0,4-26,other
56106,71,110,49,91,3.0,5-27B,other
56107,75,106,22,26,3.0,5-27B,other
56108,78,108,19,27,3.0,5-27B,other
56109,71,61,14,210,1.0,1-1,other
56110,70,90,25,125,10.0,4-29B,other
56111,32,54,7,297,8.0,6-34A,other
56112,35,46,11,410,9.0,3-8B,other
56113,62,45,29,124,8.0,3-8A,other
56114,63,72,57,248,0.0,2-1,other
56115,65,79,63,60,0.0,2-1,other
56116,63,71,52,62,0.0,2-1,other
56117,61,53,46,62,0.0,2-1,other
56118,60,53,47,54,0.0,2-1,other
56119,41,58,228,300,3.0,2-5,other
56120,48,116,236,242,9.0,2-6,other
56121,63,83,30,197,10.0,2-5,other
56122,63,80,48,108,5.0,2-4,major
56123,65,90,26,55,5.0,2-4,major
56124,66,89,18,39,5.0,2-4,major
56125,68,91,21,34,5.0,2-4,major
56126,71,85,76,114,6.0,4-23,minor
56127,68,80,39,93,6.0,4-23,minor
56128,60,52,10,145,11.0,2-2,other
56129,42,77,136,171,9.0,2-3,minor
56130,68,96,19,170,9.0,1-1,other
56131,66,93,30,36,9.0,1-1,other
56132,70,96,23,234,9.0,2-1,other
56133,40,77,379,279,2.0,2-4,major
56134,64,97,236,125,4.0,3-8A,major
56135,65,64,16,77,4.0,3-8A,major
56136,59,57,24,207,3.0,1-1,other
56137,46,53,22,872,0.0,4-23,minor
56138,55,58,41,44,0.0,4-23,minor
56139,62,62,26,89,0.0,2-2,other
56140,72,74,24,123,10.0,2-5,other
56141,77,69,27,28,10.0,2-5,other
56142,82,58,10,27,10.0,2-5,other
56143,84,53,45,32,10.0,2-5,other
56144,89,70,46,27,10.0,2-5,other
56145,94,74,30,34,10.0,2-5,other
56146,96,84,39,47,10.0,2-5,other
56147,96,64,558,73,10.0,2-5,other
56148,76,1,895,0,0.0,4-20,major
56149,79,53,52,1908,0.0,3-4A,major
56150,81,101,99,124,0.0,3-4A,major
56151,86,110,343,765,0.0,4-19B,augmented
56152,85,46,55,327,0.0,4-19B,augmented
56153,84,61,84,62,0.0,4-19B,augmented
56154,64,25,454,1236,0.0,2-5,other
56155,71,94,118,908,0.0,3-11B,major
56156,69,90,76,102,0.0,3-11B,major
56157,67,47,71,1059,0.0,3-11B,major
56158,69,46,64,131,0.0,3-11B,major
56159,76,40,213,1123,0.0,5-30B,augmented
56160,77,79,73,1153,6.0,3-8B,other
56161,65,41,56,331,5.0,4-20,major
56162,65,37,59,135,5.0,4-20,major
56163,65,37,60,144,9.0,2-3,minor
56164,65,39,64,142,9.0,2-3,minor
56165,65,46,65,139,9.0,3-11A,minor
56166,65,46,63,134,9.0,2-3,minor
56167,65,49,65,124,9.0,3-11A,minor
56168,65,46,64,120,9.0,3-11A,minor
56169,65,57,63,124,9.0,3-11A,minor
56170,65,57,63,127,9.0,3-11A,minor
56171,65,51,75,129,9.0,2-3,minor
56172,72,19,59,107,9.0,2-5,other
56173,65,18,29,83,9.0,2-5,other
56174,79,57,56,2757,3.0,4-27A,other
56175,52,30,2056,488,4.0,1-1,other
56176,64,25,391,329,11.0,3-8B,other
56177,88,59,223,232,11.0,3-8B,other
56178,100,54,46,523,11.0,3-8B,other
56179,64,17,100,522,11.0,3-8B,other
56180,88,61,41,513,4.0,4-15A,other
56181,64,24,45,307,4.0,4-15A,other
56182,64,19,179,309,8.0,3-7B,other
56183,67,48,62,3585,0.0,4-19B,augmented
56184,69,80,74,133,0.0,4-19B,augmented
56185,74,69,462,1149,3.0,5-30B,augmented
56186,57,33,279,775,3.0,4-19B,augmented
56187,57,35,74,884,0.0,5-27A,major
56188,59,37,69,132,0.0,4-20,major
56189,57,24,40,150,0.0,4-20,major
56190,59,34,369,101,0.0,4-20,major
56191,59,36,448,671,0.0,4-20,major
56192,71,91,208,346,0.0,4-20,major
56193,67,69,64,284,0.0,4-20,major
56194,69,64,60,106,0.0,4-20,major
56195,56,46,459,384,0.0,5-26B,augmented
56196,76,68,122,344,0.0,5-26B,augmented
56197,57,33,344,2357,0.0,4-14B,major
56198,71,37,67,4346,0.0,4-20,major
56199,76,66,68,126,0.0,4-20,major
56200,78,76,101,117,0.0,4-20,major
56201,81,68,132,126,0.0,4-20,major
56202,78,31,86,134,0.0,4-20,major
56203,76,35,74,142,0.0,4-20,major
56204,71,40,76,125,0.0,4-20,major
56205,48,30,27,1114,4.0,4-14A,minor
56206,64,20,287,3223,9.0,5-27B,minor
56207,77,28,47,2891,7.0,1-1,other
56208,78,30,89,525,9.0,1-1,other
56209,57,30,249,942,2.0,3-11B,major
56210,50,27,794,476,2.0,3-11B,major
56211,57,24,27,28,2.0,3-11B,major
56212,66,50,93,975,7.0,3-9,other
56213,65,38,60,579,2.0,4-22A,major
56214,73,57,1181,269,2.0,4-22A,major
56215,52,36,995,29,2.0,4-22A,major
56216,66,69,102,1370,2.0,3-6,major
56217,61,28,122,1726,8.0,4-26,other
56218,64,46,69,635,5.0,2-5,other
56219,63,32,59,558,4.0,2-2,other
56220,67,74,299,1537,2.0,1-1,other
56221,50,24,83,277,2.0,1-1,other
56222,50,17,146,177,7.0,4-14A,minor
56223,57,48,112,789,10.0,2-4,major
56224,60,32,45,1082,10.0,3-4A,major
56225,43,41,284,507,0.0,2-5,other
56226,55,58,34,293,0.0,2-5,other
56227,68,68,52,447,0.0,3-4A,other
56228,72,76,147,160,0.0,3-4A,other
56229,74,73,120,138,0.0,3-4A,other
56230,65,50,270,49,0.0,3-4A,other
56231,75,77,58,71,0.0,3-4A,other
56232,77,80,105,91,0.0,3-4A,other
56233,79,73,99,89,0.0,3-4A,other
56234,80,68,71,78,0.0,3-4A,other
56235,82,59,30,79,0.0,3-4A,other
56236,84,74,74,68,0.0,3-4A,other
56237,86,85,76,67,0.0,3-4A,other
56238,87,81,46,76,0.0,3-4A,other
56239,89,68,108,70,0.0,3-4A,other
56240,56,25,102,91,5.0,3-9,other
56241,92,51,77,38,5.0,3-9,other
56242,94,58,23,81,5.0,3-9,other
56243,96,62,49,73,5.0,3-9,other
56244,97,50,63,56,5.0,3-9,other
56245,99,47,47,94,5.0,3-9,other
56246,100,68,71,44,5.0,3-9,other
56247,98,64,111,252,10.0,4-20,major
56248,93,62,490,137,10.0,4-20,major
56249,44,42,28,2129,10.0,4-19B,other
56250,71,66,61,1270,8.0,5-26B,other
56251,72,70,60,115,8.0,5-26B,other
56252,76,65,81,118,8.0,5-26B,other
56253,79,56,47,109,8.0,5-26B,other
56254,83,54,74,134,8.0,5-26B,other
56255,86,73,79,117,8.0,5-26B,other
56256,83,40,298,230,4.0,3-11A,minor
56257,79,48,227,309,4.0,3-11A,minor
56258,81,58,83,262,4.0,3-11A,minor
56259,76,32,296,143,4.0,3-11A,minor
56260,71,41,117,638,4.0,3-11A,minor
56261,67,50,45,627,0.0,3-4A,major
56262,69,66,91,120,0.0,3-4A,major
56263,68,30,42,282,0.0,4-19B,augmented
56264,71,66,113,109,0.0,4-19B,augmented
56265,68,30,280,142,0.0,4-19B,augmented
56266,69,55,91,865,0.0,3-12,augmented
56267,70,50,54,121,0.0,3-12,augmented
56268,71,55,68,132,0.0,3-12,augmented
56269,76,53,51,131,0.0,3-12,augmented
56270,79,76,110,101,0.0,3-12,augmented
56271,86,105,625,271,0.0,4-19B,augmented
56272,60,33,86,307,4.0,2-3,minor
56273,83,50,82,376,0.0,2-4,major
56274,70,32,269,1898,2.0,4-15B,other
56275,62,51,97,3012,5.0,3-4A,major
56276,72,45,124,136,5.0,3-4A,major
56277,74,53,325,1900,11.0,3-10,diminished
56278,62,57,99,1671,8.0,4-28,diminished
56279,56,32,67,97,8.0,4-28,diminished
56280,78,56,126,656,11.0,2-3,minor
56281,69,40,34,126,11.0,2-3,minor
56282,78,52,75,248,4.0,2-2,other
56283,78,42,82,250,4.0,2-3,minor
56284,74,33,36,156,4.0,2-3,minor
56285,69,38,43,104,4.0,2-3,minor
56286,52,43,2241,498,4.0,2-3,minor
56287,65,47,31,1097,8.0,4-27B,other
56288,67,77,59,106,8.0,4-27B,other
56289,68,67,79,99,8.0,4-27B,other
56290,71,48,76,245,10.0,2-1,other
56291,73,57,69,117,10.0,2-1,other
56292,74,78,73,105,10.0,2-1,other
56293,75,67,79,285,10.0,2-1,other
56294,76,54,69,106,8.0,2-6,other
56295,77,73,57,130,8.0,2-6,other
56296,82,67,47,124,8.0,2-6,other
56297,83,95,89,118,8.0,2-6,other
56298,55,35,567,163,0.0,4-11A,major
56299,84,75,82,111,0.0,4-11A,major
56300,80,58,91,117,0.0,4-11A,major
56301,83,68,103,124,0.0,4-11A,major
56302,81,62,89,124,0.0,4-11A,major
56303,76,49,67,127,0.0,4-11A,major
56304,74,49,105,120,0.0,4-11A,major
56305,72,41,75,137,0.0,4-11A,major
56306,74,54,103,255,9.0,4-14A,minor
56307,71,36,73,145,9.0,4-14A,minor
56308,72,54,86,109,9.0,4-14A,minor
56309,67,38,193,154,9.0,4-14A,minor
56310,67,19,50,396,9.0,4-14A,minor
56311,70,31,32,450,3.0,4-16A,major
56312,71,57,82,44,3.0,4-16A,major
56313,74,76,63,120,3.0,4-16A,major
56314,74,88,57,186,3.0,4-16A,major
56315,74,80,51,189,3.0,4-16A,major
56316,74,76,126,169,3.0,4-16A,major
56317,73,40,80,82,3.0,4-16A,major
56318,72,38,70,73,3.0,4-16A,major
56319,71,51,92,76,3.0,4-16A,major
56320,76,48,67,918,3.0,4-16A,major
56321,83,99,138,236,3.0,4-16A,major
56322,76,36,273,219,0.0,4-20,major
56323,76,24,140,355,4.0,4-22B,minor
56324,79,17,328,845,0.0,6-19B,other
56325,76,69,337,1291,0.0,5-30B,augmented
56326,74,29,34,30,0.0,5-30B,augmented
56327,50,37,520,1124,10.0,4-19B,other
56328,57,41,38,643,10.0,4-19B,other
56329,60,43,42,112,10.0,4-19B,other
56330,52,38,92,160,5.0,4-20,major
56331,50,29,51,143,5.0,4-20,major
56332,52,32,264,100,5.0,4-20,major
56333,72,30,29,497,5.0,3-4A,major
56334,62,36,70,118,5.0,3-4A,major
56335,74,64,56,1562,5.0,3-4A,major
56336,76,76,65,233,5.0,3-4A,major
56337,52,38,435,2544,4.0,3-9,other
56338,59,24,122,278,4.0,3-9,other
56339,64,40,340,297,11.0,3-5B,other
56340,59,41,60,1488,0.0,4-20,major
56341,64,33,104,135,0.0,4-20,major
56342,66,49,61,115,0.0,4-20,major
56343,71,65,85,133,0.0,4-20,major
56344,76,73,154,115,0.0,4-20,major
56345,78,64,67,126,0.0,4-20,major
56346,82,35,62,260,3.0,4-16A,major
56347,83,80,114,119,3.0,4-16A,major
56348,86,95,113,138,3.0,4-16A,major
56349,83,39,65,148,3.0,4-16A,major
56350,84,87,265,98,3.0,4-16A,major
56351,83,53,193,294,3.0,4-16A,major
56352,81,36,74,592,9.0,5-27B,minor
56353,76,24,37,555,9.0,3-2B,minor
56354,81,57,60,104,9.0,3-2B,minor
56355,81,74,116,2043,0.0,3-4A,major
56356,79,70,75,228,0.0,3-4A,major
56357,62,32,207,226,6.0,2-5,other
56358,82,57,86,195,6.0,2-5,other
56359,50,33,935,1119,11.0,3-7A,minor
56360,62,24,333,2117,6.0,3-7A,minor
56361,40,44,82,587,6.0,3-7A,minor
56362,57,42,49,374,6.0,3-7A,minor
56363,73,56,95,419,2.0,4-22A,major
56364,40,36,37,756,2.0,2-5,other
56365,72,57,1340,412,5.0,3-6,other
56366,76,64,84,2898,0.0,4-16A,major
56367,75,50,54,105,0.0,4-16A,major
56368,74,57,432,1434,2.0,2-1,other
56369,58,30,42,1017,2.0,3-11A,minor
56370,79,34,111,1017,10.0,4-20,major
56371,60,36,450,191,5.0,4-2B,major
56372,80,60,178,805,5.0,4-14A,other
56373,82,67,117,192,5.0,4-14A,other
56374,79,46,125,155,5.0,4-14A,other
56375,80,36,90,168,5.0,4-14A,other
56376,79,50,99,38,5.0,4-14A,other
56377,77,35,132,104,5.0,4-14A,other
56378,74,50,74,368,5.0,3-11A,other
56379,75,47,91,123,5.0,3-11A,other
56380,74,55,90,48,5.0,3-11A,other
56381,72,33,62,105,5.0,3-11A,other
56382,70,39,93,112,5.0,3-11A,other
56383,69,41,93,133,5.0,3-11A,other
56384,72,60,81,125,5.0,3-11A,other
56385,58,18,683,85,7.0,3-7B,other
56386,70,56,78,32,7.0,3-7B,other
56387,66,32,45,139,7.0,3-7B,other
56388,69,44,80,105,7.0,3-7B,other
56389,66,48,71,89,7.0,3-7B,other
56390,67,55,77,124,7.0,3-7B,other
56391,62,49,34,96,7.0,3-7B,other
56392,65,53,96,111,7.0,3-7B,other
56393,62,38,36,561,7.0,4-26,minor
56394,65,57,54,137,7.0,4-26,minor
56395,62,47,108,280,7.0,3-7A,minor
56396,44,35,276,2293,8.0,5-26B,other
56397,86,35,30,2541,0.0,3-9,other
56398,95,49,49,275,0.0,3-12,augmented
56399,93,67,57,133,0.0,3-12,augmented
56400,92,54,79,144,0.0,3-12,augmented
56401,95,58,69,125,0.0,3-12,augmented
56402,88,57,73,120,0.0,3-12,augmented
56403,86,61,105,127,0.0,3-12,augmented
56404,84,57,63,123,0.0,3-12,augmented
56405,86,70,96,255,0.0,4-19B,augmented
56406,84,58,45,133,0.0,4-19B,augmented
56407,83,63,87,126,0.0,4-19B,augmented
56408,80,42,72,145,0.0,4-19B,augmented
56409,74,61,109,232,0.0,3-12,augmented
56410,72,47,78,125,0.0,3-12,augmented
56411,71,45,87,121,0.0,3-12,augmented
56412,74,51,101,120,0.0,3-12,augmented
56413,72,44,71,273,0.0,4-20,major
56414,70,50,72,166,0.0,4-20,major
56415,71,58,75,60,0.0,4-20,major
56416,69,33,223,181,0.0,4-20,major
56417,64,40,57,224,0.0,4-20,major
56418,64,27,68,175,0.0,4-20,major
56419,64,44,76,164,0.0,4-20,major
56420,64,30,114,175,0.0,4-20,major
56421,64,38,563,249,0.0,4-20,major
56422,55,40,35,259,0.0,4-20,major
56423,62,40,52,322,0.0,4-20,major
56424,60,18,417,205,10.0,4-19B,other
56425,77,60,85,529,10.0,4-19B,other
56426,74,30,40,141,10.0,4-19B,other
56427,70,30,169,164,6.0,3-5B,other
56428,65,33,49,316,2.0,3-8A,major
56429,70,39,85,945,6.0,2-6,other
56430,43,49,36,415,5.0,2-4,major
56431,55,33,30,484,7.0,3-7B,other
56432,55,58,77,59,7.0,3-7B,other
56433,57,70,56,76,7.0,3-7B,other
56434,57,60,66,83,7.0,3-7B,other
56435,59,73,45,67,7.0,3-7B,other
56436,59,66,59,76,7.0,3-7B,other
56437,60,71,27,66,7.0,3-7B,other
56438,60,49,26,88,7.0,3-7B,other
56439,43,47,56,488,7.0,3-7B,other
56440,43,45,633,187,7.0,3-7B,other
56441,56,45,77,421,7.0,2-2,other
56442,58,50,57,102,7.0,2-2,other
56443,59,54,67,78,7.0,2-2,other
56444,61,60,44,86,7.0,2-2,other
56445,62,56,60,91,7.0,2-2,other
56446,64,53,49,72,7.0,2-2,other
56447,65,40,26,88,7.0,2-2,other
56448,67,60,45,73,7.0,2-2,other
56449,64,15,122,102,8.0,3-10,minor
56450,73,33,25,176,8.0,3-10,minor
56451,72,39,31,85,8.0,3-10,minor
56452,76,43,61,79,8.0,3-10,minor
56453,77,38,48,75,8.0,3-10,minor
56454,79,63,55,94,8.0,3-10,minor
56455,80,60,88,89,8.0,3-10,minor
56456,82,50,73,240,5.0,2-1,other
56457,83,44,84,90,5.0,2-1,other
56458,84,37,108,121,5.0,2-1,other
56459,86,49,26,72,5.0,2-1,other
56460,65,22,23,671,9.0,3-9,other
56461,62,34,67,105,9.0,3-9,other
56462,52,34,157,471,5.0,4-16A,major
56463,88,90,353,615,5.0,4-16A,major
56464,77,26,186,170,5.0,4-16A,major
56465,81,48,128,213,5.0,4-16A,major
56466,65,12,440,585,4.0,1-1,other
56467,69,40,279,200,4.0,1-1,other
56468,76,55,166,285,4.0,1-1,other
56469,65,51,187,203,4.0,1-1,other
56470,68,39,251,225,4.0,1-1,other
56471,76,50,230,250,4.0,3-8B,other
56472,68,62,165,514,2.0,2-3,minor
56473,67,51,206,542,0.0,4-20,major
56474,72,29,47,3067,3.0,4-16A,major
56475,57,24,140,1080,3.0,3-4A,major
56476,57,42,415,6252,2.0,2-3,minor
56477,43,40,488,1103,9.0,4-26,minor
56478,55,46,47,152,9.0,4-26,minor
56479,56,39,50,79,9.0,4-26,minor
56480,58,51,52,57,9.0,4-26,minor
56481,59,60,50,71,9.0,4-26,minor
56482,61,61,41,69,9.0,4-26,minor
56483,53,1,119,33,9.0,4-26,minor
56484,62,44,62,63,9.0,4-26,minor
56485,64,60,76,70,9.0,4-26,minor
56486,65,60,32,99,9.0,4-26,minor
56487,67,62,65,85,9.0,4-26,minor
56488,68,40,63,97,9.0,4-26,minor
56489,70,35,38,111,9.0,4-26,minor
56490,71,34,49,99,9.0,4-26,minor
56491,73,45,63,331,9.0,4-26,minor
56492,75,58,65,200,11.0,4-13B,diminished
56493,76,39,84,107,11.0,4-13B,diminished
56494,77,50,68,92,11.0,4-13B,diminished
56495,78,57,93,116,11.0,4-13B,diminished
56496,79,49,65,113,11.0,4-13B,diminished
56497,81,77,73,124,11.0,4-13B,diminished
56498,79,64,91,130,11.0,4-13B,diminished
56499,79,54,91,291,6.0,2-6,other
56500,78,50,68,100,6.0,2-6,other
56501,74,51,65,104,6.0,2-6,other
56502,69,45,50,110,6.0,2-6,other
56503,66,46,91,102,6.0,2-6,other
56504,62,39,48,113,6.0,2-6,other
56505,64,32,465,116,6.0,2-6,other
56506,79,70,83,2474,2.0,3-11B,major
56507,73,27,69,332,2.0,3-11B,major
56508,62,41,47,165,3.0,3-12,augmented
56509,67,20,38,147,3.0,2-1,other
56510,67,49,82,359,3.0,4-19B,augmented
56511,63,45,50,103,3.0,4-19B,augmented
56512,50,24,2359,181,0.0,4-20,major
56513,69,57,78,749,9.0,1-1,other
56514,59,31,42,31,9.0,1-1,other
56515,69,50,54,583,0.0,4-20,major
56516,57,30,49,41,0.0,4-20,major
56517,64,25,31,123,7.0,2-4,major
56518,50,43,683,2277,10.0,4-19B,augmented
56519,74,80,158,264,10.0,4-19B,augmented
56520,59,39,417,233,11.0,3-11A,minor
56521,50,42,560,276,11.0,3-11A,minor
56522,59,36,625,265,11.0,3-11A,minor
56523,50,45,639,471,2.0,2-5,other
56524,62,40,396,482,11.0,2-5,other
56525,50,39,119,305,11.0,2-5,other
56526,65,37,740,446,4.0,3-8A,major
56527,60,34,63,4207,1.0,5-27A,other
56528,71,35,45,760,1.0,5-27A,other
56529,43,47,553,2253,0.0,4-20,major
56530,50,25,38,292,10.0,3-4A,major
56531,67,48,64,2292,5.0,4-14A,other
56532,68,39,62,70,5.0,4-14A,other
56533,70,52,46,70,5.0,4-14A,other
56534,72,55,52,81,5.0,4-14A,other
56535,74,62,40,75,5.0,4-14A,other
56536,75,67,48,98,5.0,4-14A,other
56537,77,65,81,89,5.0,4-14A,other
56538,74,53,52,101,5.0,4-14A,other
56539,74,81,61,414,5.0,4-14A,other
56540,75,54,80,101,5.0,4-14A,other
56541,74,42,83,49,5.0,4-14A,other
56542,72,34,43,91,5.0,4-14A,other
56543,70,67,60,129,5.0,4-14A,other
56544,70,48,66,241,5.0,3-11A,other
56545,68,49,76,35,5.0,3-11A,other
56546,67,49,54,74,5.0,3-11A,other
56547,65,64,83,120,5.0,3-11A,other
56548,62,33,132,117,5.0,3-11A,other
56549,60,30,30,146,5.0,3-11A,other
56550,67,58,309,98,5.0,3-11A,other
56551,65,53,166,163,5.0,3-11A,other
56552,62,41,172,177,5.0,3-11A,other
56553,58,35,145,181,5.0,3-11A,other
56554,57,24,46,27,5.0,3-11A,other
56555,53,20,530,274,9.0,3-7A,minor
56556,66,56,46,2728,10.0,2-5,other
56557,66,21,217,108,10.0,2-5,other
56558,74,57,78,570,10.0,2-5,other
56559,72,42,82,110,10.0,2-5,other
56560,83,54,449,360,0.0,3-4A,major
56561,81,48,91,5204,0.0,4-20,major
56562,83,58,79,132,0.0,4-20,major
56563,88,66,73,121,0.0,4-20,major
56564,83,44,51,121,0.0,4-20,major
56565,83,54,73,280,0.0,4-20,major
56566,81,35,56,126,0.0,4-20,major
56567,55,40,155,138,0.0,3-4A,major
56568,81,38,84,102,0.0,3-4A,major
56569,83,50,69,120,0.0,3-4A,major
56570,88,78,92,115,0.0,3-4A,major
56571,55,24,29,37,0.0,3-4A,major
56572,83,55,1001,102,0.0,3-4A,major
56573,65,38,670,65,6.0,2-6,other
56574,81,37,75,954,6.0,2-6,other
56575,83,47,78,145,6.0,2-6,other
56576,88,57,70,119,6.0,2-6,other
56577,83,58,88,121,6.0,2-6,other
56578,54,27,101,767,6.0,3-5B,other
56579,43,53,509,1601,5.0,4-16A,major
56580,76,27,88,3047,8.0,4-28,diminished
56581,64,20,383,194,6.0,2-2,other
56582,66,13,340,104,6.0,2-2,other
56583,52,42,699,129,6.0,2-2,other
56584,64,42,419,502,5.0,4-16A,major
56585,52,33,846,278,5.0,4-16A,major
56586,52,41,241,1083,9.0,2-5,other
56587,52,41,307,819,4.0,4-15A,other
56588,69,49,85,1974,11.0,1-1,other
56589,68,34,102,122,11.0,1-1,other
56590,71,55,99,125,11.0,1-1,other
56591,69,61,98,126,11.0,1-1,other
56592,64,49,196,133,11.0,1-1,other
56593,62,57,98,195,11.0,1-1,other
56594,60,24,183,161,11.0,1-1,other
56595,59,34,58,207,11.0,1-1,other
56596,62,58,256,102,11.0,1-1,other
56597,59,32,61,279,11.0,1-1,other
56598,60,43,163,144,11.0,1-1,other
56599,62,60,26,206,11.0,1-1,other
56600,67,53,108,158,11.0,1-1,other
56601,71,39,80,259,11.0,1-1,other
56602,71,35,64,396,0.0,5-23A,minor
56603,72,39,79,389,7.0,2-5,other
56604,71,32,49,396,0.0,5-23A,minor
56605,72,28,54,395,0.0,4-14A,minor
56606,67,36,142,148,3.0,2-1,other
56607,72,51,37,213,3.0,2-1,other
56608,59,28,53,1927,0.0,4-20,major
56609,67,41,38,257,0.0,4-20,major
56610,69,66,57,145,0.0,4-20,major
56611,76,64,130,775,0.0,5-30B,augmented
56612,98,58,71,3681,5.0,5-27A,major
56613,103,61,199,630,4.0,3-5B,other
56614,79,44,61,1695,3.0,2-4,other
56615,67,32,55,28,3.0,2-4,other
56616,78,62,69,601,0.0,2-5,other
56617,79,61,61,124,0.0,2-5,other
56618,78,56,60,129,0.0,2-5,other
56619,74,45,77,135,0.0,2-5,other
56620,71,54,63,113,0.0,2-5,other
56621,66,58,66,131,0.0,2-5,other
56622,64,47,118,125,0.0,2-5,other
56623,55,24,911,296,0.0,4-16A,major
56624,48,47,41,867,0.0,4-16A,major
56625,57,38,114,801,6.0,4-22B,minor
56626,59,29,51,2153,0.0,5-20B,major
56627,71,38,74,114,0.0,5-20B,major
56628,83,19,204,95,0.0,5-20B,major
56629,71,36,85,57,0.0,5-20B,major
56630,64,36,36,787,0.0,2-1,other
56631,69,34,64,100,0.0,2-1,other
56632,59,31,253,148,0.0,4-16A,major
56633,54,43,375,341,0.0,4-16A,major
56634,38,44,28,1031,4.0,2-3,minor
56635,69,69,143,1013,7.0,4-18B,minor
56636,50,29,305,886,11.0,4-26,minor
56637,50,24,484,856,11.0,3-11A,minor
56638,64,34,35,1247,2.0,4-22A,major
56639,52,35,440,1126,2.0,4-20,major
56640,66,53,154,572,2.0,4-20,major
56641,72,58,1453,474,5.0,3-6,other
56642,60,20,25,265,5.0,2-4,other
56643,60,32,35,223,5.0,2-4,other
56644,65,60,79,1251,5.0,3-4A,other
56645,64,51,71,112,5.0,3-4A,other
56646,63,33,1136,531,0.0,3-6,major
56647,50,39,720,756,0.0,2-2,other
56648,62,26,92,1057,0.0,2-2,other
56649,53,16,436,169,7.0,2-5,other
56650,62,37,60,223,7.0,2-5,other
56651,63,59,98,2571,10.0,2-4,major
56652,60,31,50,31,10.0,2-4,major
56653,44,30,200,604,8.0,3-8A,other
56654,65,40,38,514,0.0,4-16A,other
56655,55,35,228,149,0.0,4-16A,other
56656,65,55,83,230,0.0,4-16A,other
56657,81,62,117,807,9.0,2-2,other
56658,84,1,224,1199,10.0,3-4A,major
56659,67,48,81,1306,5.0,4-14A,other
56660,68,52,46,114,5.0,4-14A,other
56661,72,61,68,121,5.0,4-14A,other
56662,75,60,63,91,5.0,4-14A,other
56663,79,65,66,108,5.0,4-14A,other
56664,80,73,122,102,5.0,4-14A,other
56665,79,69,69,103,5.0,4-14A,other
56666,75,60,84,161,5.0,4-14A,other
56667,72,46,48,116,5.0,4-14A,other
56668,68,49,89,123,5.0,4-14A,other
56669,65,31,45,38,5.0,4-14A,other
56670,67,54,37,81,5.0,4-14A,other
56671,70,65,101,105,5.0,4-14A,other
56672,68,60,84,126,5.0,4-14A,other
56673,69,50,80,284,7.0,4-14A,minor
56674,65,45,329,112,7.0,4-14A,minor
56675,67,54,394,317,7.0,4-14A,minor
56676,62,36,201,218,7.0,4-14A,minor
56677,60,44,95,242,7.0,4-14A,minor
56678,53,22,497,165,7.0,2-3,minor
56679,60,34,70,124,7.0,2-3,minor
56680,58,36,77,34,7.0,2-3,minor
56681,57,38,121,76,7.0,2-3,minor
56682,58,31,210,177,7.0,2-3,minor
56683,55,37,84,229,7.0,2-3,minor
56684,53,17,292,63,7.0,2-3,minor
56685,57,40,197,93,7.0,2-3,minor
56686,55,24,200,570,0.0,3-4A,other
56687,65,48,154,218,0.0,3-4A,other
56688,56,36,195,221,0.0,3-4A,other
56689,55,28,63,292,0.0,2-5,other
56690,55,46,41,456,0.0,4-16A,other
56691,55,38,47,256,0.0,4-16A,other
56692,55,33,98,241,0.0,4-16A,other
56693,50,33,61,195,0.0,4-16A,other
56694,43,35,71,841,7.0,3-11A,minor
56695,50,43,90,338,7.0,3-11A,minor
56696,43,33,748,156,7.0,3-11A,minor
56697,53,29,154,630,10.0,2-4,major
56698,43,36,877,342,10.0,2-4,major
56699,79,63,132,1185,0.0,3-4A,other
56700,67,78,93,28,0.0,3-4A,other
56701,55,32,154,28,0.0,3-4A,other
56702,62,49,29,1477,0.0,1-1,other
56703,60,34,31,569,10.0,2-4,major
56704,60,33,326,273,10.0,2-4,major
56705,62,35,255,486,10.0,2-4,major
56706,94,53,96,496,10.0,2-4,major
56707,93,45,73,124,10.0,2-4,major
56708,96,41,227,512,5.0,2-5,other
56709,91,31,754,257,5.0,2-5,other
56710,55,18,32,2270,0.0,2-4,major
56711,43,12,704,3221,0.0,3-4A,other
56712,31,11,137,836,7.0,4-26,minor
56713,72,21,360,608,7.0,4-26,minor
56714,83,15,132,521,10.0,3-6,major
56715,72,11,121,47,10.0,3-6,major
56716,72,8,117,568,2.0,2-3,minor
56717,43,5,419,1667,2.0,2-2,other
56718,50,79,145,0,4.0,4-23,minor
56719,49,54,103,593,3.0,4-19B,other
56720,70,64,23,160,3.0,4-14A,other
56721,51,106,35,280,9.0,5-35,minor
56722,52,76,60,46,9.0,5-35,minor
56723,48,82,17,68,9.0,5-35,minor
56724,47,76,8,45,9.0,5-35,minor
56725,46,80,23,75,9.0,5-35,minor
56726,45,62,93,44,9.0,5-35,minor
56727,33,83,19,81,9.0,5-35,minor
56728,66,86,16,162,3.0,2-1,other
56729,67,83,14,55,3.0,2-1,other
56730,69,85,18,33,3.0,2-1,other
56731,50,70,37,345,9.0,2-5,other
56732,50,76,59,286,6.0,5-26A,diminished
56733,38,96,27,74,6.0,5-26A,diminished
56734,41,82,25,355,5.0,4-16A,major
56735,40,65,80,50,5.0,4-16A,major
56736,55,76,44,73,5.0,4-16A,major
56737,45,74,12,358,4.0,4-26,minor
56738,42,74,178,47,4.0,4-26,minor
56739,47,88,21,429,6.0,5-31B,diminished
56740,40,79,189,55,6.0,5-31B,diminished
56741,55,86,122,77,6.0,5-31B,diminished
56742,42,85,26,334,4.0,5-29B,diminished
56743,43,81,32,36,4.0,5-29B,diminished
56744,32,80,32,121,3.0,4-14A,other
56745,37,45,38,320,1.0,4-22B,other
56746,43,63,193,153,9.0,4-23,minor
56747,52,77,211,45,9.0,4-23,minor
56748,57,61,33,119,9.0,4-23,minor
56749,58,65,27,38,9.0,4-23,minor
56750,60,55,38,37,9.0,4-23,minor
56751,61,63,26,35,9.0,4-23,minor
56752,63,65,27,45,9.0,4-23,minor
56753,64,71,34,39,9.0,4-23,minor
56754,67,71,25,81,6.0,3-2A,minor
56755,69,71,22,37,6.0,3-2A,minor
56756,70,60,18,39,6.0,3-2A,minor
56757,72,64,14,39,6.0,3-2A,minor
56758,73,63,13,40,6.0,3-2A,minor
56759,76,69,23,83,1.0,4-12A,other
56760,77,74,25,38,1.0,4-12A,other
56761,78,80,24,38,1.0,4-12A,other
56762,79,84,16,41,1.0,4-12A,other
56763,80,97,24,43,1.0,4-12A,other
56764,55,55,29,1081,4.0,5-35,minor
56765,64,55,73,510,3.0,4-19B,augmented
56766,50,59,139,487,3.0,3-4A,major
56767,50,55,46,241,9.0,4-27A,diminished
56768,77,67,14,184,8.0,2-2,other
56769,78,66,9,26,8.0,2-2,other
56770,75,74,16,78,7.0,2-2,other
56771,71,45,16,32,7.0,2-2,other
56772,68,66,10,89,7.0,2-2,other
56773,65,58,11,73,3.0,4-24,augmented
56774,62,72,24,31,3.0,4-24,augmented
56775,63,90,26,39,3.0,4-24,augmented
56776,64,73,22,43,3.0,4-24,augmented
56777,67,90,19,82,3.0,4-24,augmented
56778,69,103,23,43,3.0,4-24,augmented
56779,67,76,19,43,3.0,4-24,augmented
56780,67,73,31,82,9.0,3-11A,minor
56781,60,44,49,112,4.0,2-3,minor
56782,55,62,164,129,9.0,2-2,other
56783,43,68,145,70,9.0,2-2,other
56784,60,46,25,133,9.0,2-2,other
56785,65,72,29,34,9.0,2-2,other
56786,70,71,10,41,9.0,2-2,other
56787,75,78,11,42,9.0,2-2,other
56788,80,97,54,40,9.0,2-2,other
56789,79,90,26,67,9.0,2-2,other
56790,74,48,52,44,9.0,2-2,other
56791,53,10,9,96,10.0,3-11B,major
56792,75,49,50,27,10.0,3-11B,major
56793,70,45,60,112,7.0,1-1,other
56794,74,72,37,83,7.0,1-1,other
56795,72,65,66,52,7.0,1-1,other
56796,71,57,36,74,7.0,1-1,other
56797,67,59,102,115,0.0,2-4,major
56798,62,56,12,34,0.0,2-4,major
56799,48,73,65,85,0.0,2-4,major
56800,56,73,36,242,1.0,5-29B,other
56801,41,76,28,118,9.0,4-23,minor
56802,48,78,49,719,5.0,3-11B,major
56803,52,69,35,124,2.0,3-7B,other
56804,72,66,33,194,9.0,4-26,minor
56805,71,80,29,48,9.0,4-26,minor
56806,69,61,24,110,2.0,4-27B,major
56807,71,83,19,111,6.0,4-27A,diminished
56808,74,92,23,124,2.0,2-5,other
56809,72,81,35,93,4.0,2-2,other
56810,71,77,34,27,4.0,2-2,other
56811,69,83,23,115,2.0,4-27B,major
56812,71,73,21,85,6.0,3-10,diminished
56813,72,81,34,33,6.0,3-10,diminished
56814,73,87,18,33,6.0,3-10,diminished
56815,75,99,34,103,6.0,2-3,other
56816,73,88,28,88,1.0,5-27B,other
56817,72,81,40,40,1.0,5-27B,other
56818,70,89,26,112,8.0,3-6,other
56819,60,65,28,125,10.0,4-16A,other
56820,63,56,25,82,5.0,4-20,major
56821,61,59,24,79,2.0,4-26,minor
56822,49,79,26,444,5.0,5-38B,major
56823,49,67,69,280,4.0,4-22B,minor
56824,50,95,31,74,4.0,4-22B,minor
56825,74,1,22,441,4.0,4-26,minor
56826,59,73,27,38,4.0,4-26,minor
56827,52,53,30,230,7.0,4-27B,major
56828,50,56,22,844,3.0,4-16A,major
56829,50,49,141,45,3.0,4-16A,major
56830,50,68,24,212,6.0,4-28,diminished
56831,50,58,64,49,6.0,4-28,diminished
56832,49,64,26,182,3.0,4-19B,other
56833,49,58,101,47,3.0,4-19B,other
56834,49,56,18,198,3.0,3-11A,other
56835,49,69,46,49,3.0,3-11A,other
56836,69,78,27,234,7.0,2-4,major
56837,70,77,22,45,7.0,2-4,major
56838,71,74,23,41,7.0,2-4,major
56839,72,60,13,38,7.0,2-4,major
56840,76,66,26,38,7.0,2-4,major
56841,79,88,17,38,7.0,2-4,major
56842,81,69,33,41,7.0,2-4,major
56843,83,72,24,69,7.0,2-4,major
56844,83,37,10,91,4.0,2-2,other
56845,79,75,21,33,4.0,2-2,other
56846,76,59,16,39,4.0,2-2,other
56847,71,23,27,46,4.0,2-2,other
56848,67,36,16,38,4.0,2-2,other
56849,84,110,25,76,9.0,2-2,other
56850,82,101,29,40,9.0,2-2,other
56851,73,69,10,76,5.0,3-8B,other
56852,72,65,17,27,5.0,3-8B,other
56853,57,35,18,63,9.0,4-22B,minor
56854,74,94,50,61,9.0,4-22B,minor
56855,72,84,21,35,9.0,4-22B,minor
56856,65,77,14,66,9.0,4-22B,minor
56857,64,52,27,30,9.0,4-22B,minor
56858,64,59,26,74,9.0,4-23,minor
56859,65,90,116,37,9.0,4-23,minor
56860,60,64,47,79,5.0,2-5,other
56861,57,63,19,48,5.0,2-5,other
56862,43,97,27,365,11.0,2-6,other
56863,40,106,41,124,11.0,2-6,other
56864,83,94,25,159,4.0,5-32A,other
56865,78,75,15,44,4.0,5-32A,other
56866,78,74,17,80,11.0,2-2,other
56867,79,100,30,35,11.0,2-2,other
56868,71,68,24,77,4.0,3-7B,other
56869,67,72,8,75,4.0,3-7B,other
56870,69,59,22,133,0.0,2-2,other
56871,65,81,28,109,1.0,4-28,diminished
56872,61,51,26,171,4.0,2-2,other
56873,37,70,20,634,9.0,5-29B,diminished
56874,44,64,11,43,9.0,5-29B,diminished
56875,53,82,13,35,9.0,5-29B,diminished
56876,49,68,58,249,3.0,3-11A,other
56877,77,107,22,198,9.0,4-23,minor
56878,76,89,27,37,9.0,4-23,minor
56879,72,77,25,36,9.0,4-23,minor
56880,67,75,18,37,9.0,4-23,minor
56881,64,72,17,136,3.0,2-4,major
56882,64,79,32,60,5.0,3-6,major
56883,62,68,15,31,5.0,3-6,major
56884,59,44,14,31,5.0,3-6,major
56885,45,90,251,147,1.0,2-2,other
56886,49,72,51,294,4.0,2-3,minor
56887,38,74,16,145,2.0,4-26,minor
56888,50,75,16,408,1.0,2-2,other
56889,40,104,23,538,4.0,4-26,minor
56890,40,105,15,362,9.0,3-9,other
56891,50,61,243,775,3.0,4-16A,major
56892,49,80,283,334,3.0,4-20,other
56893,42,74,30,460,9.0,4-23,minor
56894,43,60,73,41,9.0,4-23,minor
56895,43,70,20,125,9.0,4-23,minor
56896,48,71,502,90,9.0,4-23,minor
56897,53,76,356,109,9.0,4-23,minor
56898,58,74,55,78,9.0,4-23,minor
56899,63,69,45,93,9.0,4-23,minor
56900,68,77,17,83,9.0,4-23,minor
56901,73,60,44,77,9.0,4-23,minor
56902,78,70,23,80,9.0,4-23,minor
56903,83,72,35,63,9.0,4-23,minor
56904,43,73,17,125,10.0,4-11A,major
56905,82,70,23,40,10.0,4-11A,major
56906,81,64,24,241,0.0,3-8A,major
56907,82,85,17,164,0.0,2-5,other
56908,83,59,11,36,0.0,2-5,other
56909,48,97,21,118,0.0,4-27B,major
56910,79,87,25,117,10.0,1-1,other
56911,81,80,16,73,8.0,2-2,other
56912,82,94,21,32,8.0,2-2,other
56913,84,107,30,63,5.0,4-29B,major
56914,81,88,23,38,5.0,4-29B,major
56915,76,90,22,38,5.0,4-29B,major
56916,72,59,18,41,5.0,4-29B,major
56917,69,56,30,38,5.0,4-29B,major
56918,67,78,16,40,5.0,4-29B,major
56919,65,74,24,205,9.0,2-3,minor
56920,60,63,27,31,9.0,2-3,minor
56921,55,71,19,78,11.0,3-5A,other
56922,50,87,128,274,9.0,2-3,minor
56923,57,52,12,43,9.0,2-3,minor
56924,41,73,10,82,9.0,2-3,minor
56925,71,86,23,850,2.0,5-31B,major
56926,72,100,30,44,2.0,5-31B,major
56927,74,100,23,66,2.0,5-31B,major
56928,72,66,50,174,10.0,3-11B,other
56929,69,62,83,961,7.0,2-5,other
56930,43,72,18,74,7.0,2-5,other
56931,52,60,44,169,5.0,4-16A,major
56932,51,69,21,69,5.0,4-16A,major
56933,38,89,11,116,2.0,4-26,minor
56934,69,73,21,575,8.0,2-2,other
56935,50,72,20,879,3.0,3-4A,major
56936,37,85,15,347,2.0,3-11B,major
56937,44,71,11,43,2.0,3-11B,major
56938,53,66,17,80,2.0,3-11B,major
56939,56,65,9,120,3.0,3-4A,other
56940,64,55,19,398,3.0,2-4,major
56941,67,58,43,43,3.0,2-4,major
56942,71,75,24,40,3.0,2-4,major
56943,74,116,46,48,3.0,2-4,major
56944,73,92,32,69,3.0,2-4,major
56945,72,66,32,45,3.0,2-4,major
56946,71,74,31,71,3.0,2-4,major
56947,69,62,61,50,3.0,2-4,major
56948,65,46,61,120,7.0,3-5B,other
56949,62,55,63,117,4.0,1-1,other
56950,49,73,22,197,1.0,3-8A,other
56951,42,48,26,119,2.0,3-7A,minor
56952,45,65,108,46,2.0,3-7A,minor
56953,41,65,80,114,2.0,3-7A,minor
56954,39,49,34,75,2.0,3-7A,minor
56955,42,70,83,44,2.0,3-7A,minor
56956,59,54,56,372,7.0,2-3,minor
56957,67,71,35,297,4.0,2-5,other
56958,47,39,104,26,4.0,2-5,other
56959,64,25,43,29,4.0,2-5,other
56960,52,50,112,83,10.0,2-1,other
56961,55,43,50,31,10.0,2-1,other
56962,44,33,24,80,10.0,2-1,other
56963,46,52,116,35,10.0,2-1,other
56964,44,50,24,98,10.0,2-1,other
56965,45,60,107,36,10.0,2-1,other
56966,69,88,19,48,10.0,2-1,other
56967,72,106,38,75,10.0,2-1,other
56968,70,77,32,37,10.0,2-1,other
56969,61,69,15,81,5.0,2-4,major
56970,60,50,28,36,5.0,2-4,major
56971,58,77,32,35,5.0,2-4,major
56972,62,84,20,202,2.0,2-5,other
56973,79,99,28,214,3.0,2-1,other
56974,77,67,20,39,3.0,2-1,other
56975,49,83,16,134,3.0,2-1,other
56976,37,91,61,59,3.0,2-1,other
56977,44,73,23,76,3.0,2-1,other
56978,36,56,324,351,11.0,2-5,other
56979,55,77,23,123,4.0,2-3,minor
56980,57,44,11,52,4.0,2-3,minor
56981,59,84,24,32,4.0,2-3,minor
56982,59,82,21,80,1.0,3-2A,minor
56983,60,58,24,35,1.0,3-2A,minor
56984,64,55,27,30,1.0,3-2A,minor
56985,73,91,50,179,2.0,2-5,other
56986,67,78,22,249,9.0,2-4,major
56987,65,77,35,41,9.0,2-4,major
56988,64,48,70,44,9.0,2-4,major
56989,65,69,80,144,7.0,2-5,other
56990,38,67,148,88,7.0,2-5,other
56991,55,37,18,476,7.0,2-4,major
56992,31,54,98,27,7.0,2-4,major
56993,38,42,20,85,7.0,2-4,major
56994,41,66,86,30,7.0,2-4,major
56995,38,56,22,89,7.0,2-4,major
56996,39,54,99,40,7.0,2-4,major
56997,37,54,21,84,7.0,2-4,major
56998,28,68,238,162,4.0,2-5,other
56999,35,53,23,96,4.0,2-5,other
57000,68,58,17,91,9.0,2-5,other
57001,67,62,30,27,9.0,2-5,other
57002,67,73,56,156,9.0,1-1,other
57003,64,47,53,110,7.0,2-2,other
57004,61,54,61,130,4.0,2-2,other
57005,58,54,45,116,3.0,2-4,major
57006,45,55,26,72,3.0,2-4,major
57007,38,89,219,120,2.0,2-5,other
57008,62,57,27,39,2.0,2-5,other
57009,63,63,13,40,2.0,2-5,other
57010,72,79,21,81,7.0,2-5,other
57011,74,97,23,40,7.0,2-5,other
57012,75,109,32,39,7.0,2-5,other
57013,77,97,31,42,7.0,2-5,other
57014,75,92,46,69,7.0,2-5,other
57015,54,41,24,744,4.0,4-23,minor
57016,55,41,31,118,4.0,4-23,minor
57017,62,74,22,679,7.0,3-7A,minor
57018,69,85,20,74,10.0,3-11B,major
57019,67,72,58,118,10.0,2-4,major
57020,52,43,19,207,0.0,2-2,other
57021,72,77,87,41,0.0,2-2,other
57022,75,90,43,182,0.0,4-27B,major
57023,76,68,34,58,0.0,2-2,other
57024,78,79,21,43,0.0,2-2,other
57025,83,66,17,164,10.0,2-1,other
57026,81,86,37,55,5.0,3-11B,major
57027,76,92,25,54,5.0,3-11B,major
57028,53,61,67,520,5.0,3-11B,major
57029,62,29,11,39,5.0,3-11B,major
57030,52,68,27,32,5.0,3-11B,major
57031,51,63,9,167,5.0,3-11B,major
57032,80,21,18,1348,8.0,3-6,other
57033,51,62,35,640,9.0,3-8A,major
57034,50,47,26,732,5.0,3-11B,major
57035,53,56,64,152,9.0,3-9,other
57036,40,68,21,81,9.0,3-9,other
57037,52,50,32,128,4.0,4-26,minor
57038,52,46,21,122,4.0,6-49,other
57039,57,64,63,147,4.0,4-26,minor
57040,50,102,17,565,1.0,4-28,diminished
57041,37,89,21,460,2.0,3-6,major
57042,44,69,34,66,2.0,3-6,major
57043,51,80,9,52,2.0,3-6,major
57044,52,69,19,486,9.0,4-23,minor
57045,52,63,8,66,9.0,4-23,minor
57046,52,65,27,67,9.0,4-23,minor
57047,51,89,31,724,5.0,4-19B,other
57048,50,69,27,46,5.0,4-19B,other
57049,56,60,9,551,3.0,4-16A,other
57050,49,38,19,47,3.0,4-16A,other
57051,73,109,27,1160,6.0,6-33A,minor
57052,75,106,50,54,6.0,6-33A,minor
57053,73,82,25,69,6.0,6-33A,minor
57054,74,80,95,43,6.0,6-33A,minor
57055,50,73,206,67,6.0,6-33A,minor
57056,37,80,62,500,3.0,5-17,other
57057,57,61,696,0,,,
57058,55,47,211,939,0.0,2-4,major
57059,54,58,1195,495,0.0,2-4,major
57060,55,60,1071,1873,2.0,2-4,major
57061,53,47,277,1373,11.0,2-3,minor
57062,52,71,2095,539,11.0,2-3,minor
57063,59,37,419,557,2.0,2-3,minor
57064,76,65,292,406,2.0,2-3,minor
57065,62,39,446,914,11.0,3-2A,minor
57066,67,45,367,46,11.0,3-2A,minor
57067,53,41,886,442,11.0,3-2A,minor
57068,69,48,2275,26,11.0,3-2A,minor
57069,53,57,186,988,0.0,2-4,major
57070,51,80,1637,504,0.0,2-4,major
57071,50,43,59,63,0.0,2-4,major
57072,60,57,1530,899,0.0,2-4,major
57073,57,63,1357,30,0.0,2-4,major
57074,69,81,336,514,0.0,2-4,major
57075,64,62,136,246,0.0,2-4,major
57076,51,43,345,188,0.0,2-4,major
57077,65,58,189,33,0.0,2-4,major
57078,67,67,172,251,0.0,2-4,major
57079,65,47,110,474,4.0,2-4,major
57080,67,51,159,227,4.0,2-4,major
57081,68,75,171,253,4.0,2-4,major
57082,67,40,143,467,11.0,3-3A,minor
57083,68,74,370,221,11.0,3-3A,minor
57084,56,87,1718,29,11.0,3-3A,minor
57085,70,59,192,281,11.0,3-3A,minor
57086,71,69,141,231,11.0,3-3A,minor
57087,72,78,186,249,11.0,3-3A,minor
57088,73,72,227,213,11.0,3-3A,minor
57089,74,85,145,255,11.0,3-3A,minor
57090,62,47,1032,136,11.0,3-3A,minor
57091,75,55,162,102,11.0,3-3A,minor
57092,76,49,116,270,11.0,3-3A,minor
57093,78,44,55,136,11.0,3-3A,minor
57094,83,75,140,292,11.0,3-3A,minor
57095,83,67,126,467,2.0,2-5,other
57096,84,74,176,211,2.0,2-5,other
57097,64,57,1027,27,2.0,2-5,other
57098,81,69,59,282,2.0,2-5,other
57099,55,70,350,192,2.0,2-5,other
57100,60,9,101,35,2.0,2-5,other
57101,54,84,1189,470,2.0,2-5,other
57102,60,24,53,37,2.0,2-5,other
57103,55,79,1003,1792,0.0,2-4,major
57104,53,45,284,1339,11.0,2-3,minor
57105,52,62,2141,552,11.0,2-3,minor
57106,59,37,1773,536,7.0,2-5,other
57107,76,73,151,253,7.0,2-5,other
57108,71,64,171,263,7.0,2-5,other
57109,67,53,88,270,7.0,2-5,other
57110,62,31,95,70,7.0,2-5,other
57111,62,41,66,416,7.0,2-5,other
57112,74,79,243,167,7.0,2-5,other
57113,71,61,138,294,7.0,2-5,other
57114,62,40,106,1155,9.0,2-3,minor
57115,51,70,1810,442,9.0,2-3,minor
57116,65,74,157,1422,9.0,2-3,minor
57117,62,25,124,248,9.0,2-3,minor
57118,63,55,324,180,9.0,2-3,minor
57119,64,61,147,235,9.0,2-3,minor
57120,64,52,99,526,4.0,2-3,minor
57121,65,43,216,239,4.0,2-3,minor
57122,67,57,176,236,4.0,2-3,minor
57123,70,60,109,517,8.0,3-10,diminished
57124,71,69,82,216,8.0,3-10,diminished
57125,72,58,149,251,8.0,3-10,diminished
57126,74,67,128,469,1.0,2-5,other
57127,76,72,144,482,3.0,2-1,other
57128,79,69,178,241,3.0,2-1,other
57129,76,45,80,274,3.0,2-1,other
57130,56,47,230,96,3.0,2-1,other
57131,77,57,125,96,3.0,2-1,other
57132,79,76,128,261,3.0,2-1,other
57133,57,54,1476,153,3.0,2-1,other
57134,80,67,151,77,3.0,2-1,other
57135,81,60,72,266,3.0,2-1,other
57136,84,60,141,195,3.0,2-1,other
57137,88,69,131,267,3.0,2-1,other
57138,79,55,107,744,7.0,1-1,other
57139,79,57,292,483,7.0,2-1,other
57140,60,35,773,989,6.0,2-2,other
57141,54,58,422,461,6.0,2-2,other
57142,53,43,1319,478,6.0,2-2,other
57143,62,43,997,480,6.0,2-2,other
57144,59,44,1054,26,6.0,2-2,other
57145,52,65,1560,931,6.0,2-2,other
57146,100,101,337,1431,11.0,2-3,minor
57147,52,58,245,422,11.0,2-3,minor
57148,98,97,402,40,11.0,2-3,minor
57149,98,69,261,502,5.0,2-5,other
57150,94,27,64,55,5.0,2-5,other
57151,88,62,325,843,2.0,2-5,other
57152,53,31,251,48,2.0,2-5,other
57153,84,68,440,406,2.0,2-5,other
57154,51,54,1254,506,2.0,2-5,other
57155,98,102,178,1027,2.0,2-5,other
57156,96,73,168,283,2.0,2-5,other
57157,95,98,254,311,2.0,2-5,other
57158,52,52,1595,99,2.0,2-5,other
57159,93,95,179,338,2.0,2-5,other
57160,92,84,218,369,2.0,2-5,other
57161,89,81,173,306,2.0,2-5,other
57162,59,38,648,345,4.0,2-2,other
57163,86,71,139,260,4.0,2-2,other
57164,83,64,179,611,0.0,3-8B,other
57165,81,69,172,309,0.0,3-8B,other
57166,86,78,255,657,8.0,2-6,other
57167,80,53,192,309,8.0,2-6,other
57168,56,41,129,101,8.0,2-6,other
57169,84,86,497,205,8.0,2-6,other
57170,57,71,1407,249,8.0,2-6,other
57171,80,59,132,383,8.0,2-6,other
57172,83,81,336,273,8.0,2-6,other
57173,64,44,1189,75,8.0,2-6,other
57174,60,36,1277,34,8.0,2-6,other
57175,80,60,159,182,8.0,2-6,other
57176,81,82,210,312,8.0,2-6,other
57177,55,47,242,264,8.0,2-6,other
57178,74,42,247,72,8.0,2-6,other
57179,54,74,1379,388,8.0,2-6,other
57180,55,70,958,1464,0.0,2-4,major
57181,53,56,341,1356,11.0,2-3,minor
57182,52,63,1498,517,11.0,2-3,minor
57183,67,35,66,1445,11.0,2-3,minor
57184,71,67,126,240,11.0,2-3,minor
57185,76,95,353,485,0.0,2-4,major
57186,53,50,1153,184,0.0,2-4,major
57187,74,69,2257,53,0.0,2-4,major
57188,51,50,1304,1915,5.0,2-1,other
57189,60,40,170,465,5.0,2-1,other
57190,57,42,279,56,5.0,2-1,other
57191,57,20,700,472,5.0,2-1,other
57192,51,44,333,410,2.0,2-2,other
57193,60,20,408,54,2.0,2-2,other
57194,52,56,533,466,2.0,2-2,other
57195,59,75,537,1010,10.0,4-29B,major
57196,74,48,242,518,4.0,2-2,other
57197,80,74,186,814,4.0,2-2,other
57198,74,42,167,525,8.0,2-3,minor
57199,76,33,73,34,8.0,2-3,minor
57200,84,69,728,917,11.0,3-7A,minor
57201,72,53,319,33,11.0,3-7A,minor
57202,40,80,160,883,9.0,2-3,minor
57203,38,74,329,460,9.0,2-3,minor
57204,60,50,64,1097,5.0,2-1,other
57205,43,60,313,414,5.0,2-1,other
57206,43,39,136,522,5.0,2-1,other
57207,76,68,248,951,9.0,1-1,other
57208,35,80,584,2861,0.0,2-5,other
57209,63,53,808,492,0.0,2-5,other
57210,62,81,436,494,0.0,2-5,other
57211,69,55,869,509,3.0,2-1,other
57212,53,78,1366,477,3.0,2-1,other
57213,63,43,224,461,3.0,2-1,other
57214,51,53,437,502,3.0,2-1,other
57215,65,60,432,2333,5.0,2-1,other
57216,71,63,541,67,4.0,2-4,major
57217,71,50,694,943,4.0,3-3A,major
57218,65,37,413,977,8.0,2-3,minor
57219,52,47,527,442,8.0,2-3,minor
57220,45,40,76,478,8.0,2-3,minor
57221,72,55,178,978,7.0,2-5,other
57222,38,43,141,435,7.0,2-5,other
57223,66,52,733,527,2.0,2-4,major
57224,62,32,55,431,2.0,2-4,major
57225,54,51,172,29,2.0,2-4,major
57226,71,49,329,505,2.0,2-4,major
57227,74,37,304,1787,2.0,2-5,other
57228,43,46,468,460,2.0,2-5,other
57229,64,61,136,511,0.0,2-4,major
57230,72,59,203,531,0.0,2-4,major
57231,74,85,357,469,0.0,2-4,major
57232,72,55,272,461,0.0,2-4,major
57233,63,69,474,478,3.0,2-4,other
57234,73,37,162,984,2.0,1-1,other
57235,74,59,1093,454,2.0,1-1,other
57236,56,62,1400,60,2.0,1-1,other
57237,72,36,347,886,2.0,1-1,other
57238,62,48,224,37,2.0,1-1,other
57239,69,31,357,526,2.0,1-1,other
57240,72,75,862,429,2.0,1-1,other
57241,45,73,1597,29,2.0,1-1,other
57242,64,44,1352,1417,9.0,1-1,other
57243,52,57,197,525,9.0,1-1,other
57244,52,84,312,952,9.0,1-1,other
57245,45,81,1334,946,1.0,2-3,minor
57246,50,65,392,1441,5.0,3-11B,major
57247,43,47,163,460,5.0,3-11B,major
57248,53,49,419,502,4.0,3-11B,major
57249,43,51,181,451,4.0,3-11B,major
57250,36,58,398,479,4.0,3-11B,major
57251,57,70,242,524,4.0,3-7A,minor
57252,67,37,76,1444,0.0,2-4,major
57253,69,62,166,251,0.0,2-4,major
57254,76,103,277,347,0.0,2-4,major
57255,48,49,845,398,5.0,2-4,major
57256,64,63,232,506,5.0,2-4,major
57257,69,67,147,475,5.0,2-4,major
57258,72,71,146,270,5.0,2-4,major
57259,74,87,174,309,5.0,2-4,major
57260,74,82,205,684,9.0,2-6,other
57261,72,71,254,298,9.0,2-6,other
57262,69,56,190,300,9.0,2-6,other
57263,71,31,49,37,9.0,2-6,other
57264,67,67,247,280,9.0,2-6,other
57265,64,59,195,311,9.0,2-6,other
57266,60,46,207,665,7.0,3-5B,other
57267,55,47,281,695,11.0,2-2,other
57268,64,67,124,3373,4.0,4-15B,other
57269,67,81,207,498,4.0,4-15B,other
57270,69,76,174,179,4.0,4-15B,other
57271,67,60,193,119,4.0,4-15B,other
57272,64,56,252,173,4.0,4-15B,other
57273,55,43,234,491,9.0,3-11A,minor
57274,81,103,360,4242,5.0,4-16A,major
57275,75,66,224,1584,2.0,2-5,other
57276,74,51,182,132,2.0,2-5,other
57277,72,55,144,193,2.0,2-5,other
57278,75,63,313,586,2.0,2-5,other
57279,74,43,308,110,2.0,2-5,other
57280,72,53,160,288,2.0,2-5,other
57281,76,103,555,446,2.0,2-5,other
57282,72,70,617,475,2.0,2-5,other
57283,69,51,216,476,2.0,2-5,other
57284,71,56,48,3392,6.0,4-15A,other
57285,64,78,106,1997,1.0,4-6,other
57286,67,89,125,463,1.0,4-6,other
57287,69,52,209,100,1.0,4-6,other
57288,67,41,193,182,1.0,4-6,other
57289,64,49,171,223,1.0,4-6,other
57290,69,85,160,436,1.0,4-6,other
57291,55,42,61,1891,4.0,4-29A,minor
57292,52,69,480,1421,4.0,4-29A,minor
57293,69,40,47,8160,0.0,5-30B,other
57294,67,95,265,8583,4.0,4-29A,minor
57295,55,72,395,100,4.0,4-29A,minor
57296,63,87,168,433,4.0,4-29A,minor
57297,51,77,196,47,4.0,4-29A,minor
57298,63,67,240,592,2.0,1-1,other
57299,62,43,218,140,2.0,1-1,other
57300,48,53,233,215,2.0,1-1,other
57301,60,48,140,44,2.0,1-1,other
57302,62,77,123,438,2.0,1-1,other
57303,51,53,135,29,2.0,1-1,other
57304,50,32,146,34,2.0,1-1,other
57305,63,51,335,61,2.0,1-1,other
57306,62,39,200,246,2.0,1-1,other
57307,67,78,175,1085,4.0,1-1,other
57308,55,77,47,984,3.0,4-24,augmented
57309,64,63,572,1308,3.0,4-24,augmented
57310,67,81,239,579,3.0,4-24,augmented
57311,35,37,61,1202,4.0,4-15B,other
57312,64,74,195,1260,4.0,4-15B,other
57313,67,77,173,468,4.0,4-15B,other
57314,69,61,243,421,4.0,4-15B,other
57315,72,82,726,478,4.0,4-15B,other
57316,72,90,340,2897,4.0,4-29A,minor
57317,69,68,426,445,4.0,4-29A,minor
57318,67,70,261,484,4.0,4-29A,minor
57319,39,34,157,818,4.0,4-29A,minor
57320,63,40,171,583,7.0,2-2,other
57321,41,65,151,533,2.0,3-5B,other
57322,64,70,146,773,2.0,3-5B,other
57323,69,52,138,640,2.0,3-5B,other
57324,72,55,141,320,2.0,3-5B,other
57325,74,82,173,320,2.0,3-5B,other
57326,74,65,220,640,6.0,4-13B,minor
57327,72,70,269,320,6.0,4-13B,minor
57328,69,61,158,320,6.0,4-13B,minor
57329,67,41,95,320,6.0,4-13B,minor
57330,64,73,320,320,6.0,4-13B,minor
57331,62,81,320,320,6.0,4-13B,minor
57332,60,60,320,320,6.0,4-13B,minor
57333,57,70,300,320,6.0,4-13B,minor
57334,55,61,320,280,6.0,4-13B,minor
57335,67,53,1244,2043,4.0,3-8A,major
57336,76,69,167,1466,4.0,3-8A,major
57337,79,81,206,371,4.0,3-8A,major
57338,81,73,193,240,4.0,3-8A,major
57339,79,41,212,240,4.0,3-8A,major
57340,76,64,198,240,4.0,3-8A,major
57341,81,115,3982,240,4.0,3-8A,major
57342,79,63,190,4800,11.0,4-27A,diminished
57343,74,73,392,960,4.0,4-4B,other
57344,74,60,396,960,0.0,4-11A,major
57345,76,79,602,960,9.0,4-13B,diminished
57346,69,62,466,1920,0.0,4-24,augmented
57347,69,79,376,960,4.0,4-15B,other
57348,79,82,716,3840,9.0,3-11A,minor
57349,81,79,208,240,9.0,3-11A,minor
57350,76,71,188,480,5.0,3-11B,major
57351,81,106,1598,240,5.0,3-11B,major
57352,79,31,336,4800,9.0,4-11B,minor
57353,81,82,850,960,9.0,3-11A,minor
57354,71,115,555,7768,4.0,5-33,other
57355,72,78,412,489,4.0,5-33,other
57356,69,64,479,450,4.0,5-33,other
57357,67,54,380,471,4.0,5-33,other
57358,69,96,295,422,4.0,5-33,other
57359,69,101,413,4218,4.0,4-29A,minor
57360,71,43,59,39,4.0,4-29A,minor
57361,67,66,169,453,4.0,4-29A,minor
57362,63,84,155,468,4.0,4-29A,minor
57363,62,89,134,494,4.0,4-29A,minor
57364,63,76,257,132,4.0,4-29A,minor
57365,62,54,208,172,4.0,4-29A,minor
57366,60,60,145,199,4.0,4-29A,minor
57367,62,89,146,461,4.0,4-29A,minor
57368,63,64,243,152,4.0,4-29A,minor
57369,62,48,230,147,4.0,4-29A,minor
57370,60,64,131,228,4.0,4-29A,minor
57371,64,97,418,449,4.0,4-29A,minor
57372,67,80,348,486,4.0,4-29A,minor
57373,64,90,485,2487,3.0,4-29A,other
57374,67,94,302,535,3.0,4-29A,other
57375,64,74,195,2420,8.0,2-6,other
57376,67,77,173,468,8.0,2-6,other
57377,69,61,243,421,8.0,2-6,other
57378,72,82,726,478,8.0,2-6,other
57379,72,90,340,2897,4.0,4-29A,minor
57380,69,68,426,445,4.0,4-29A,minor
57381,67,70,261,484,4.0,4-29A,minor
57382,39,34,157,818,4.0,4-29A,minor
57383,63,40,171,583,7.0,2-2,other
57384,41,65,151,533,2.0,3-5B,other
57385,64,70,146,773,2.0,3-5B,other
57386,69,52,138,640,2.0,3-5B,other
57387,72,55,141,320,2.0,3-5B,other
57388,74,82,173,320,2.0,3-5B,other
57389,74,65,220,640,6.0,4-13B,minor
57390,72,70,269,320,6.0,4-13B,minor
57391,69,61,158,320,6.0,4-13B,minor
57392,67,41,95,320,6.0,4-13B,minor
57393,64,73,320,320,6.0,4-13B,minor
57394,62,81,320,320,6.0,4-13B,minor
57395,60,60,320,320,6.0,4-13B,minor
57396,57,70,300,320,6.0,4-13B,minor
57397,55,61,320,280,6.0,4-13B,minor
57398,67,53,1244,2043,4.0,3-8A,major
57399,84,53,172,1489,2.0,2-5,other
57400,81,54,308,510,2.0,2-5,other
57401,79,38,326,472,2.0,2-5,other
57402,60,40,744,465,9.0,2-5,other
57403,81,51,111,435,9.0,2-5,other
57404,55,39,131,436,9.0,2-5,other
57405,54,59,1827,514,9.0,2-5,other
57406,64,45,376,927,9.0,2-5,other
57407,83,40,250,621,9.0,2-5,other
57408,52,73,1550,2178,11.0,2-3,minor
57409,79,39,110,1492,11.0,2-3,minor
57410,52,34,194,437,11.0,2-3,minor
57411,76,45,372,47,11.0,2-3,minor
57412,69,29,277,1425,3.0,2-1,other
57413,57,51,68,1928,3.0,2-1,other
57414,52,40,1208,479,8.0,2-6,other
57415,67,43,110,903,8.0,2-6,other
57416,68,57,152,253,8.0,2-6,other
57417,70,63,179,239,8.0,2-6,other
57418,71,73,156,219,8.0,2-6,other
57419,72,62,180,235,8.0,2-6,other
57420,73,61,167,256,8.0,2-6,other
57421,62,39,177,248,8.0,3-5B,other
57422,75,57,141,281,8.0,3-5B,other
57423,76,58,177,213,8.0,3-5B,other
57424,77,57,135,258,8.0,3-5B,other
57425,78,79,99,214,8.0,3-5B,other
57426,86,97,296,800,11.0,2-2,other
57427,84,81,215,217,11.0,2-2,other
57428,81,44,130,515,9.0,2-5,other
57429,84,81,203,250,9.0,2-5,other
57430,64,45,108,162,9.0,2-5,other
57431,79,31,92,608,9.0,1-1,other
57432,84,36,88,884,6.0,1-1,other
57433,54,65,117,401,6.0,1-1,other
57434,53,45,1167,476,6.0,1-1,other
57435,83,62,76,1520,11.0,2-3,minor
57436,83,53,172,972,4.0,2-2,other
57437,52,53,65,844,7.0,3-11B,major
57438,52,70,388,521,7.0,3-11B,major
57439,76,37,112,513,7.0,3-11B,major
57440,84,96,152,927,9.0,2-3,minor
57441,81,52,121,1011,3.0,2-4,other
57442,57,51,141,480,7.0,2-5,other
57443,75,55,164,441,7.0,2-5,other
57444,75,66,888,472,7.0,2-5,other
57445,52,51,142,374,7.0,2-5,other
57446,74,54,186,576,7.0,2-5,other
57447,56,40,667,1078,2.0,2-2,other
57448,87,60,281,555,2.0,1-1,other
57449,86,49,216,197,2.0,1-1,other
57450,84,46,196,221,2.0,1-1,other
57451,83,59,202,190,2.0,1-1,other
57452,83,65,115,265,2.0,1-1,other
57453,80,68,75,457,2.0,1-1,other
57454,55,39,153,1355,4.0,1-1,other
57455,54,46,1123,515,4.0,1-1,other
57456,54,67,372,1742,2.0,1-1,other
57457,62,52,362,1579,11.0,3-2B,minor
57458,79,42,228,1014,4.0,2-5,other
57459,62,41,421,424,4.0,2-5,other
57460,53,67,2137,964,4.0,2-5,other
57461,64,47,65,509,4.0,2-5,other
57462,60,37,121,29,4.0,2-5,other
57463,81,51,69,355,4.0,2-5,other
57464,89,69,242,1104,0.0,3-11B,major
57465,51,40,1616,404,0.0,3-11B,major
57466,87,59,142,522,0.0,3-11B,major
57467,84,84,171,294,0.0,3-11B,major
57468,62,24,1114,125,0.0,3-11B,major
57469,57,34,854,34,0.0,3-11B,major
57470,81,54,280,65,0.0,3-11B,major
57471,79,55,197,429,0.0,3-11B,major
57472,52,51,1402,466,0.0,3-11B,major
57473,90,76,286,1225,7.0,2-5,other
57474,85,49,349,247,7.0,2-5,other
57475,84,60,117,252,7.0,2-5,other
57476,89,85,221,179,7.0,2-5,other
57477,83,38,68,315,7.0,2-5,other
57478,87,78,129,435,4.0,2-4,major
57479,86,71,205,258,4.0,2-4,major
57480,85,40,201,240,7.0,2-5,other
57481,84,31,200,239,7.0,2-5,other
57482,83,54,132,263,7.0,2-5,other
57483,83,60,103,497,2.0,2-5,other
57484,60,29,595,254,0.0,2-4,major
57485,81,73,122,223,0.0,2-4,major
57486,55,37,245,176,0.0,2-4,major
57487,74,45,69,35,0.0,2-4,major
57488,54,71,1275,475,0.0,2-4,major
57489,53,53,272,1480,4.0,2-2,other
57490,53,38,1295,432,4.0,2-2,other
57491,82,44,56,544,11.0,2-3,minor
57492,83,62,263,76,11.0,2-3,minor
57493,53,57,333,775,2.0,1-1,other
57494,52,75,1749,490,2.0,1-1,other
57495,88,58,236,1027,10.0,3-3A,major
57496,88,38,65,1467,11.0,2-2,other
57497,84,57,166,445,5.0,2-5,other
57498,53,47,170,414,5.0,2-5,other
57499,51,83,1904,544,5.0,2-5,other
57500,57,33,55,59,5.0,2-5,other
57501,57,43,1383,835,5.0,2-5,other
57502,62,36,187,503,5.0,2-5,other
57503,63,64,184,258,5.0,2-5,other
57504,65,54,291,237,5.0,2-5,other
57505,66,81,120,275,5.0,2-5,other
57506,62,26,198,1128,4.0,3-7A,minor
57507,66,58,141,321,7.0,2-4,major
57508,67,44,234,223,7.0,2-4,major
57509,68,77,192,237,7.0,2-4,major
57510,56,49,1616,73,7.0,2-4,major
57511,62,32,718,67,7.0,2-4,major
57512,70,54,187,84,7.0,2-4,major
57513,71,74,152,239,7.0,2-4,major
57514,67,39,74,74,7.0,2-4,major
57515,72,50,199,152,7.0,2-4,major
57516,73,67,161,260,7.0,2-4,major
57517,62,45,231,41,7.0,2-4,major
57518,74,67,152,229,7.0,2-4,major
57519,83,87,290,469,7.0,2-5,other
57520,57,85,1258,53,7.0,2-5,other
57521,86,87,340,216,7.0,2-5,other
57522,84,66,632,260,7.0,2-5,other
57523,60,48,427,2329,4.0,1-1,other
57524,54,36,62,555,9.0,4-22B,minor
57525,70,69,178,1187,11.0,2-6,other
57526,71,55,243,199,11.0,2-3,minor
57527,72,64,162,242,11.0,2-3,minor
57528,73,63,187,199,11.0,2-3,minor
57529,62,38,938,36,11.0,2-3,minor
57530,74,38,155,225,11.0,2-3,minor
57531,75,42,225,216,11.0,2-3,minor
57532,76,60,125,248,11.0,2-3,minor
57533,77,86,173,207,11.0,2-3,minor
57534,52,59,1454,29,11.0,2-3,minor
57535,75,63,91,252,11.0,2-3,minor
57536,76,71,204,194,11.0,2-3,minor
57537,72,47,114,286,11.0,2-3,minor
57538,62,31,216,88,11.0,2-3,minor
57539,67,44,153,95,11.0,2-3,minor
57540,67,51,670,492,11.0,2-3,minor
57541,62,34,477,35,11.0,2-3,minor
57542,53,42,1319,476,11.0,2-3,minor
57543,67,65,181,802,5.0,2-5,other
57544,69,66,198,190,5.0,2-5,other
57545,72,77,149,244,5.0,2-5,other
57546,71,67,176,237,5.0,2-5,other
57547,73,57,232,228,5.0,2-5,other
57548,75,69,248,208,5.0,2-5,other
57549,57,38,1289,129,3.0,2-1,other
57550,78,59,107,149,3.0,2-1,other
57551,83,70,58,251,3.0,2-1,other
57552,85,44,255,248,3.0,2-1,other
57553,90,76,205,450,3.0,2-1,other
57554,52,43,151,665,3.0,2-1,other
57555,52,51,255,508,3.0,2-1,other
57556,94,90,168,1519,7.0,3-5B,other
57557,91,75,158,258,7.0,3-5B,other
57558,89,72,123,217,7.0,3-5B,other
57559,86,75,147,239,7.0,3-5B,other
57560,65,47,167,62,7.0,3-5B,other
57561,84,66,134,143,7.0,3-5B,other
57562,79,49,220,455,10.0,3-11B,major
57563,77,47,73,276,10.0,3-11B,major
57564,57,65,452,237,10.0,3-11B,major
57565,60,58,143,473,10.0,3-11B,major
57566,64,49,65,26,10.0,3-11B,major
57567,55,52,262,436,10.0,3-11B,major
57568,54,76,2305,490,10.0,3-11B,major
57569,60,40,82,1421,0.0,2-4,major
57570,83,60,128,302,4.0,2-6,other
57571,86,88,196,213,4.0,2-6,other
57572,82,53,190,231,4.0,2-6,other
57573,83,62,173,251,4.0,2-6,other
57574,57,42,1106,108,11.0,2-3,minor
57575,86,82,166,150,11.0,2-3,minor
57576,82,35,190,236,11.0,2-3,minor
57577,83,43,76,266,11.0,2-3,minor
57578,62,31,410,134,11.0,2-3,minor
57579,82,43,134,305,11.0,2-3,minor
57580,83,53,145,211,11.0,2-3,minor
57581,86,86,190,230,11.0,2-3,minor
57582,83,67,149,263,4.0,4-26,minor
57583,86,45,115,207,4.0,4-26,minor
57584,79,62,143,45,4.0,4-26,minor
57585,76,40,144,224,4.0,4-26,minor
57586,71,59,146,267,4.0,4-26,minor
57587,67,39,1412,227,11.0,2-3,minor
57588,53,65,1143,422,11.0,2-3,minor
57589,60,41,65,1010,11.0,2-3,minor
57590,57,34,67,50,11.0,2-3,minor
57591,52,58,284,372,11.0,2-3,minor
57592,51,63,1790,490,11.0,2-3,minor
57593,63,57,200,538,11.0,2-3,minor
57594,69,63,236,311,11.0,2-3,minor
57595,71,75,197,218,11.0,2-3,minor
57596,74,92,157,273,11.0,2-3,minor
57597,74,88,200,243,2.0,2-5,other
57598,68,69,143,1119,4.0,2-3,minor
57599,70,66,170,242,4.0,2-3,minor
57600,71,82,108,238,4.0,2-3,minor
57601,62,41,1164,66,4.0,2-3,minor
57602,70,62,241,149,4.0,2-3,minor
57603,71,58,279,251,4.0,2-3,minor
57604,73,53,243,246,4.0,2-3,minor
57605,74,74,138,240,4.0,2-3,minor
57606,73,49,60,229,4.0,2-3,minor
57607,56,43,1636,29,4.0,2-3,minor
57608,75,43,100,160,4.0,2-3,minor
57609,74,59,143,153,4.0,2-3,minor
57610,76,64,132,168,4.0,2-3,minor
57611,77,83,160,191,4.0,2-3,minor
57612,67,47,158,189,4.0,2-3,minor
57613,77,64,145,285,4.0,2-2,other
57614,78,62,168,238,4.0,2-2,other
57615,79,34,131,279,4.0,2-2,other
57616,64,41,548,129,4.0,2-2,other
57617,83,57,152,282,10.0,2-1,other
57618,86,91,235,243,10.0,2-1,other
57619,83,71,132,266,10.0,2-1,other
57620,84,81,176,219,10.0,2-1,other
57621,64,43,915,32,10.0,2-1,other
57622,81,66,141,222,10.0,2-1,other
57623,74,54,415,244,10.0,2-1,other
57624,80,63,195,462,10.0,2-1,other
57625,54,56,1588,34,10.0,2-1,other
57626,75,72,158,243,10.0,2-1,other
57627,68,69,170,508,10.0,2-1,other
57628,63,53,496,212,10.0,2-1,other
57629,60,51,216,534,10.0,2-1,other
57630,53,27,486,947,10.0,2-1,other
57631,59,31,528,36,10.0,2-1,other
57632,73,76,286,461,10.0,2-1,other
57633,68,58,152,245,10.0,2-1,other
57634,59,21,183,33,10.0,2-1,other
57635,65,41,125,190,10.0,2-1,other
57636,62,37,114,257,10.0,2-1,other
57637,68,39,55,272,4.0,2-5,other
57638,65,86,262,392,4.0,2-5,other
57639,63,76,126,277,4.0,2-5,other
57640,64,78,199,207,4.0,2-5,other
57641,60,65,133,291,4.0,2-5,other
57642,57,47,77,168,4.0,2-5,other
57643,52,50,1075,71,4.0,2-5,other
57644,52,47,281,1365,9.0,2-3,minor
57645,51,65,1886,496,9.0,2-3,minor
57646,57,54,129,930,9.0,2-3,minor
57647,59,57,137,463,9.0,2-3,minor
57648,57,51,814,38,9.0,2-3,minor
57649,60,60,175,213,9.0,2-3,minor
57650,62,52,208,225,9.0,2-3,minor
57651,63,71,185,268,9.0,2-3,minor
57652,52,33,1833,199,9.0,2-3,minor
57653,65,80,389,56,9.0,2-3,minor
57654,63,60,177,471,9.0,2-3,minor
57655,64,62,196,242,9.0,2-3,minor
57656,65,72,154,465,9.0,2-3,minor
57657,62,37,907,43,9.0,2-3,minor
57658,67,68,361,196,9.0,2-3,minor
57659,56,57,1000,503,9.0,2-3,minor
57660,68,62,178,71,9.0,2-3,minor
57661,70,82,106,291,9.0,2-3,minor
57662,71,65,120,389,9.0,2-3,minor
57663,62,44,710,35,9.0,2-3,minor
57664,74,88,469,222,9.0,2-3,minor
57665,72,73,232,760,11.0,2-2,other
57666,60,12,1005,697,9.0,2-5,other
57667,55,42,231,450,9.0,2-5,other
57668,54,64,1695,479,9.0,2-5,other
57669,64,57,155,917,9.0,2-5,other
57670,60,40,336,27,9.0,2-5,other
57671,69,55,202,448,9.0,2-5,other
57672,70,44,116,105,0.0,2-4,major
57673,71,51,159,122,0.0,2-4,major
57674,74,85,328,777,2.0,2-3,minor
57675,59,31,938,487,7.0,2-5,other
57676,53,25,267,475,7.0,2-5,other
57677,62,29,173,167,7.0,2-5,other
57678,59,35,829,1252,4.0,1-1,other
57679,62,32,692,491,2.0,2-5,other
57680,74,58,204,432,9.0,2-6,other
57681,72,54,132,237,9.0,2-6,other
57682,57,37,753,170,5.0,2-5,other
57683,69,12,152,177,5.0,2-5,other
57684,69,65,88,401,5.0,2-5,other
57685,57,42,260,521,9.0,4-22B,minor
57686,75,72,240,222,9.0,4-22B,minor
57687,74,78,164,234,9.0,4-22B,minor
57688,57,55,188,332,0.0,3-2B,minor
57689,71,72,164,422,0.0,3-2B,minor
57690,51,32,82,101,0.0,3-2B,minor
57691,69,59,141,342,0.0,3-2B,minor
57692,51,25,500,150,0.0,3-2B,minor
57693,67,51,210,94,0.0,3-2B,minor
57694,66,71,1021,467,2.0,2-5,other
57695,52,31,2034,495,2.0,2-5,other
57696,64,55,138,505,2.0,2-5,other
57697,62,8,223,312,2.0,2-5,other
57698,65,98,447,162,2.0,2-5,other
57699,59,23,648,394,2.0,2-5,other
57700,62,41,375,81,2.0,2-5,other
57701,64,73,394,472,2.0,2-5,other
57702,60,58,407,949,8.0,2-3,minor
57703,56,32,88,59,8.0,2-3,minor
57704,64,90,975,433,8.0,2-3,minor
57705,57,55,1732,519,8.0,2-3,minor
57706,64,60,148,757,8.0,2-3,minor
57707,67,57,360,205,8.0,2-3,minor
57708,64,31,119,106,8.0,2-3,minor
57709,68,40,130,1326,8.0,2-2,other
57710,64,43,313,480,8.0,2-2,other
57711,60,26,236,33,8.0,2-2,other
57712,53,51,1583,427,8.0,2-2,other
57713,64,56,665,912,8.0,2-2,other
57714,59,44,1148,46,8.0,2-2,other
57715,52,53,1634,906,8.0,2-2,other
57716,81,88,258,1289,11.0,3-11A,minor
57717,79,62,205,217,11.0,3-11A,minor
57718,76,72,155,257,11.0,3-11A,minor
57719,72,62,135,193,11.0,3-11A,minor
57720,67,42,64,295,11.0,3-11A,minor
57721,76,83,231,204,9.0,2-3,minor
57722,72,62,209,425,9.0,2-3,minor
57723,69,69,148,295,9.0,2-3,minor
57724,65,43,257,246,9.0,2-3,minor
57725,65,54,125,412,9.0,2-3,minor
57726,57,39,117,546,3.0,2-1,other
57727,52,57,1033,1382,2.0,3-5B,other
57728,76,54,90,1024,2.0,3-5B,other
57729,80,69,140,248,2.0,3-5B,other
57730,83,90,170,201,2.0,3-5B,other
57731,86,96,190,290,2.0,3-5B,other
57732,62,33,1587,114,8.0,2-1,other
57733,86,98,159,277,8.0,2-1,other
57734,86,91,366,240,8.0,2-1,other
57735,67,32,274,126,8.0,2-1,other
57736,84,81,157,340,8.0,2-1,other
57737,84,87,265,283,8.0,2-1,other
57738,67,54,188,34,8.0,2-1,other
57739,83,89,114,446,8.0,2-1,other
57740,83,81,267,215,8.0,2-1,other
57741,60,31,226,1026,4.0,2-4,major
57742,54,67,1191,1409,4.0,2-3,minor
57743,78,44,172,965,0.0,2-4,major
57744,74,44,260,1458,4.0,2-5,other
57745,64,41,126,415,4.0,2-5,other
57746,75,58,305,41,4.0,2-5,other
57747,62,64,518,500,4.0,3-11A,minor
57748,64,70,146,1081,4.0,3-11A,minor
57749,69,52,138,322,4.0,3-11A,minor
57750,72,55,141,320,4.0,3-11A,minor
57751,74,82,173,320,4.0,3-11A,minor
57752,74,65,220,640,6.0,4-13B,minor
57753,72,70,269,320,6.0,4-13B,minor
57754,69,61,158,320,6.0,4-13B,minor
57755,67,41,95,320,6.0,4-13B,minor
57756,64,73,320,320,6.0,4-13B,minor
57757,62,81,320,320,6.0,4-13B,minor
57758,60,60,320,320,6.0,4-13B,minor
57759,57,70,300,320,6.0,4-13B,minor
57760,55,61,320,280,6.0,4-13B,minor
57761,67,53,1244,2043,4.0,3-8A,major
57762,64,73,156,1419,4.0,3-8A,major
57763,67,85,262,476,4.0,3-8A,major
57764,69,71,233,179,4.0,3-8A,major
57765,67,38,280,175,4.0,3-8A,major
57766,64,54,218,185,4.0,3-8A,major
57767,55,43,234,444,9.0,3-11A,minor
57768,81,103,360,4242,5.0,4-16A,major
57769,75,66,224,1584,2.0,2-5,other
57770,74,51,182,132,2.0,2-5,other
57771,72,55,144,193,2.0,2-5,other
57772,75,63,313,586,2.0,2-5,other
57773,74,43,308,110,2.0,2-5,other
57774,72,53,160,288,2.0,2-5,other
57775,76,103,555,446,2.0,2-5,other
57776,72,70,617,475,2.0,2-5,other
57777,69,51,216,476,2.0,2-5,other
57778,71,56,48,3392,6.0,4-15A,other
57779,64,78,106,1997,1.0,4-6,other
57780,67,89,125,463,1.0,4-6,other
57781,69,52,209,100,1.0,4-6,other
57782,67,41,193,182,1.0,4-6,other
57783,64,49,171,223,1.0,4-6,other
57784,69,85,160,436,1.0,4-6,other
57785,55,42,61,1891,4.0,4-29A,minor
57786,52,69,480,1421,4.0,4-29A,minor
57787,69,40,47,8160,0.0,5-30B,other
57788,67,95,265,8583,4.0,4-29A,minor
57789,55,72,395,100,4.0,4-29A,minor
57790,63,87,168,433,4.0,4-29A,minor
57791,51,77,196,47,4.0,4-29A,minor
57792,63,67,240,592,2.0,1-1,other
57793,62,43,218,140,2.0,1-1,other
57794,48,53,233,215,2.0,1-1,other
57795,60,48,140,44,2.0,1-1,other
57796,62,77,123,438,2.0,1-1,other
57797,51,53,135,29,2.0,1-1,other
57798,50,32,146,34,2.0,1-1,other
57799,63,51,335,61,2.0,1-1,other
57800,62,39,200,246,2.0,1-1,other
57801,67,78,175,1085,4.0,1-1,other
57802,55,77,47,984,3.0,4-24,augmented
57803,64,63,572,1308,3.0,4-24,augmented
57804,67,81,239,579,3.0,4-24,augmented
57805,35,37,61,1202,4.0,4-15B,other
57806,64,74,195,1260,4.0,4-15B,other
57807,67,77,173,468,4.0,4-15B,other
57808,69,61,243,421,4.0,4-15B,other
57809,72,82,726,478,4.0,4-15B,other
57810,72,90,340,2897,4.0,4-29A,minor
57811,69,68,426,445,4.0,4-29A,minor
57812,67,70,261,484,4.0,4-29A,minor
57813,39,34,157,818,4.0,4-29A,minor
57814,63,40,171,583,7.0,2-2,other
57815,41,65,151,533,2.0,3-5B,other
57816,64,70,146,773,2.0,3-5B,other
57817,69,52,138,640,2.0,3-5B,other
57818,72,55,141,320,2.0,3-5B,other
57819,74,82,173,320,2.0,3-5B,other
57820,74,65,220,640,6.0,4-13B,minor
57821,72,70,269,320,6.0,4-13B,minor
57822,69,61,158,320,6.0,4-13B,minor
57823,67,41,95,320,6.0,4-13B,minor
57824,64,73,320,320,6.0,4-13B,minor
57825,62,81,320,320,6.0,4-13B,minor
57826,60,60,320,320,6.0,4-13B,minor
57827,57,70,300,320,6.0,4-13B,minor
57828,55,61,320,280,6.0,4-13B,minor
57829,55,58,35,0,0.0,5-35,minor
57830,43,56,116,949,0.0,5-26A,augmented
57831,61,104,33,219,1.0,4-13B,other
57832,48,64,462,263,8.0,2-3,other
57833,70,87,124,126,3.0,2-5,other
57834,53,51,109,356,0.0,5-26B,other
57835,60,46,32,134,0.0,5-26B,other
57836,75,110,12,409,3.0,3-8B,other
57837,79,107,18,33,3.0,3-8B,other
57838,72,62,30,92,1.0,4-13B,other
57839,67,47,17,114,0.0,2-2,other
57840,63,59,24,255,5.0,2-5,other
57841,46,69,46,604,3.0,3-4A,major
57842,55,80,11,51,3.0,3-4A,major
57843,60,72,112,56,3.0,3-4A,major
57844,48,76,287,1631,7.0,3-7A,minor
57845,70,77,25,231,3.0,4-14B,other
57846,70,80,98,361,4.0,6-49,other
57847,59,98,101,349,5.0,3-4A,other
57848,58,84,24,135,5.0,3-4A,other
57849,56,77,41,117,5.0,3-4A,other
57850,52,56,22,239,9.0,5-25B,minor
57851,47,30,31,97,9.0,5-25B,minor
57852,50,80,113,325,7.0,2-5,other
57853,59,87,52,61,7.0,2-5,other
57854,74,111,23,62,7.0,2-5,other
57855,74,91,70,413,9.0,4-23,minor
57856,74,64,64,484,11.0,4-23,minor
57857,74,78,37,243,8.0,5-32B,other
57858,74,76,41,236,9.0,5-35,minor
57859,50,63,41,237,0.0,5-33,augmented
57860,43,80,22,124,0.0,5-33,augmented
57861,86,115,269,598,0.0,4-21,major
57862,74,60,46,243,0.0,3-8A,major
57863,71,67,28,192,3.0,4-16A,major
57864,72,53,42,46,3.0,4-16A,major
57865,73,82,41,73,3.0,4-16A,major
57866,74,72,30,55,3.0,4-16A,major
57867,71,75,29,55,3.0,4-16A,major
57868,67,3,32,63,3.0,4-16A,major
57869,64,51,22,53,3.0,4-16A,major
57870,73,61,297,417,8.0,5-30B,other
57871,70,101,34,788,3.0,3-11B,major
57872,71,82,25,65,3.0,3-11B,major
57873,72,81,22,52,3.0,3-11B,major
57874,73,78,28,59,3.0,3-11B,major
57875,74,83,22,32,3.0,3-11B,major
57876,75,78,16,38,3.0,3-11B,major
57877,48,71,77,584,8.0,2-3,other
57878,55,53,61,59,8.0,2-3,other
57879,56,76,287,58,8.0,2-3,other
57880,68,115,31,189,0.0,4-26,other
57881,68,95,22,41,0.0,4-26,other
57882,67,91,26,32,0.0,4-26,other
57883,53,47,123,172,8.0,4-29A,other
57884,45,66,33,443,0.0,4-26,minor
57885,46,52,90,40,0.0,4-26,minor
57886,34,75,109,65,0.0,4-26,minor
57887,46,76,20,119,0.0,4-26,minor
57888,45,64,33,122,0.0,4-26,minor
57889,34,66,27,119,0.0,5-35,other
57890,50,68,34,368,4.0,6-49,other
57891,51,63,113,42,4.0,6-49,other
57892,45,52,89,120,4.0,6-49,other
57893,39,62,47,183,7.0,3-11A,minor
57894,42,58,95,52,7.0,3-11A,minor
57895,37,68,28,196,7.0,3-11A,minor
57896,38,52,102,47,7.0,3-11A,minor
57897,38,60,27,199,7.0,4-18B,minor
57898,42,58,60,39,7.0,4-18B,minor
57899,61,58,32,127,0.0,2-5,other
57900,60,41,39,27,0.0,2-5,other
57901,57,66,27,40,0.0,2-5,other
57902,60,79,33,115,1.0,2-3,other
57903,70,56,52,420,9.0,2-2,other
57904,70,46,59,120,0.0,2-4,major
57905,67,70,17,67,0.0,2-4,major
57906,57,68,90,523,3.0,3-11B,major
57907,46,78,74,239,8.0,4-28,diminished
57908,44,87,37,200,0.0,3-11B,other
57909,32,79,68,43,0.0,3-11B,other
57910,63,77,49,140,7.0,1-1,other
57911,58,54,59,104,11.0,2-6,other
57912,42,56,96,239,5.0,2-2,other
57913,39,58,26,77,5.0,2-2,other
57914,60,40,52,283,10.0,1-1,other
57915,63,62,49,127,10.0,2-4,major
57916,67,58,55,112,8.0,3-7B,other
57917,70,73,40,120,9.0,2-6,other
57918,46,67,31,320,7.0,3-11A,minor
57919,46,89,112,354,7.0,3-11A,minor
57920,51,86,27,244,1.0,5-31B,other
57921,50,71,15,49,1.0,5-31B,other
57922,49,79,30,80,1.0,5-31B,other
57923,48,58,101,45,1.0,5-31B,other
57924,46,67,78,111,1.0,5-31B,other
57925,42,53,26,72,1.0,5-31B,other
57926,63,66,39,401,1.0,2-3,minor
57927,60,38,24,253,5.0,2-2,other
57928,41,66,11,222,0.0,2-4,other
57929,46,103,292,197,4.0,5-32B,other
57930,53,46,45,121,4.0,5-32B,other
57931,58,27,12,254,9.0,3-3A,major
57932,59,64,34,111,5.0,3-4A,other
57933,58,59,67,49,5.0,3-4A,other
57934,46,83,101,197,10.0,3-11A,other
57935,69,38,42,159,9.0,2-2,other
57936,70,66,21,27,9.0,2-2,other
57937,71,62,24,28,9.0,2-2,other
57938,69,42,54,76,0.0,3-6,major
57939,70,51,15,27,0.0,3-6,major
57940,62,70,36,212,1.0,3-2A,minor
57941,74,65,50,136,9.0,4-1,minor
57942,71,77,57,88,11.0,3-2A,minor
57943,67,94,194,213,2.0,3-11B,major
57944,57,80,27,753,11.0,3-7A,minor
57945,37,76,9,1207,2.0,1-1,other
57946,52,61,18,119,7.0,4-22B,minor
57947,51,70,22,312,10.0,2-4,major
57948,52,71,77,40,10.0,2-4,major
57949,51,56,19,70,10.0,2-4,major
57950,52,58,263,619,8.0,5-30B,other
57951,52,66,19,310,8.0,2-6,other
57952,39,77,16,887,10.0,3-11B,major
57953,48,82,44,1196,8.0,2-3,other
57954,55,68,18,47,8.0,2-3,other
57955,53,61,15,297,0.0,3-11B,other
57956,46,92,175,149,7.0,4-26,minor
57957,46,99,27,260,4.0,5-32B,other
57958,34,71,23,213,0.0,4-26,minor
57959,34,65,24,112,0.0,4-26,minor
57960,34,79,21,121,0.0,4-26,minor
57961,74,108,16,368,4.0,6-49,other
57962,74,118,15,131,4.0,6-49,other
57963,75,89,12,44,4.0,6-49,other
57964,77,109,18,63,4.0,6-49,other
57965,39,1,188,543,7.0,4-26,minor
57966,48,58,21,49,7.0,4-26,minor
57967,39,89,21,234,0.0,4-26,minor
57968,52,92,21,171,0.0,4-26,minor
57969,68,62,29,387,1.0,4-27B,minor
57970,55,53,23,484,1.0,5-34,minor
57971,48,52,33,288,0.0,3-11B,other
57972,48,55,33,123,3.0,3-4B,other
57973,56,79,37,284,0.0,5-27A,other
57974,44,105,60,196,2.0,3-8A,major
57975,59,52,22,262,3.0,3-9,other
57976,48,49,36,139,3.0,2-5,other
57977,47,86,10,426,0.0,4-26,other
57978,56,91,90,174,8.0,4-24,other
57979,70,58,15,1250,0.0,3-3A,major
57980,73,57,48,241,3.0,4-18A,major
57981,60,47,11,505,5.0,1-1,other
57982,41,95,39,122,3.0,3-9,other
57983,65,64,26,162,0.0,2-3,minor
57984,60,65,110,674,8.0,5-27B,other
57985,59,79,43,114,8.0,5-27B,other
57986,58,68,200,50,8.0,5-27B,other
57987,57,72,37,202,5.0,2-4,other
57988,54,39,16,127,5.0,3-11B,other
57989,45,93,208,113,1.0,2-6,other
57990,45,84,21,227,1.0,2-6,other
57991,43,83,207,168,1.0,3-7A,other
57992,74,110,54,200,7.0,3-11B,major
57993,52,81,124,135,7.0,3-11A,minor
57994,54,60,148,352,0.0,1-1,other
57995,47,87,23,470,11.0,2-6,other
57996,49,53,25,3011,10.0,2-4,major
57997,44,52,24,226,7.0,4-26,minor
57998,74,107,59,637,6.0,2-3,minor
57999,71,41,34,73,6.0,2-3,minor
58000,72,54,61,42,6.0,2-3,minor
58001,75,58,37,143,2.0,3-11A,minor
58002,77,77,40,62,2.0,3-11A,minor
58003,78,60,40,53,2.0,3-11A,minor
58004,80,88,36,129,9.0,3-8B,other
58005,81,92,28,58,9.0,3-8B,other
58006,82,89,40,50,9.0,3-8B,other
58007,84,109,38,65,9.0,3-8B,other
58008,77,79,22,127,0.0,3-11B,other
58009,75,72,21,48,0.0,3-11B,other
58010,68,70,88,225,0.0,2-2,other
58011,46,64,141,219,8.0,3-5B,other
58012,46,62,26,232,8.0,3-10,other
58013,45,71,39,222,0.0,4-26,minor
58014,46,56,167,48,0.0,4-26,minor
58015,34,73,205,76,0.0,4-26,minor
58016,46,72,25,138,0.0,4-26,minor
58017,67,57,16,278,8.0,4-27A,diminished
58018,67,64,44,221,8.0,4-27A,diminished
58019,54,63,34,96,8.0,4-27A,diminished
58020,39,90,78,126,7.0,4-23,minor
58021,46,85,623,76,7.0,4-23,minor
58022,55,106,569,146,7.0,4-23,minor
58023,57,79,49,122,7.0,4-23,minor
58024,58,68,22,57,7.0,4-23,minor
58025,62,70,31,66,7.0,4-23,minor
58026,65,62,38,62,7.0,4-23,minor
58027,69,91,26,60,7.0,4-23,minor
58028,70,73,33,54,7.0,4-23,minor
58029,74,88,24,65,7.0,4-23,minor
58030,77,95,33,45,7.0,4-23,minor
58031,81,116,33,65,7.0,4-23,minor
58032,84,119,35,58,7.0,4-23,minor
58033,79,53,42,125,1.0,3-10,minor
58034,73,24,53,117,1.0,2-3,minor
58035,70,24,52,120,0.0,2-2,other
58036,67,25,9,77,0.0,2-2,other
58037,70,93,66,35,0.0,2-2,other
58038,70,54,48,171,9.0,2-3,minor
58039,67,68,81,87,9.0,2-1,other
58040,65,59,58,125,6.0,2-2,other
58041,60,53,43,229,0.0,2-3,minor
58042,55,63,31,117,7.0,2-1,other
58043,46,88,53,325,0.0,5-26B,other
58044,44,105,165,112,0.0,5-26B,other
58045,54,98,46,110,0.0,5-26B,other
58046,41,76,27,652,0.0,1-1,other
58047,62,76,21,90,0.0,1-1,other
58048,55,66,26,1434,4.0,1-1,other
58049,57,50,26,47,4.0,1-1,other
58050,58,66,21,33,4.0,1-1,other
58051,60,68,29,31,4.0,1-1,other
58052,61,54,26,34,4.0,1-1,other
58053,63,47,14,34,4.0,1-1,other
58054,64,67,18,31,4.0,1-1,other
58055,66,73,17,30,4.0,1-1,other
58056,67,52,32,36,4.0,1-1,other
58057,69,73,36,53,4.0,1-1,other
58058,70,79,16,36,4.0,1-1,other
58059,72,88,12,36,4.0,1-1,other
58060,73,76,11,62,4.0,1-1,other
58061,76,71,29,116,1.0,3-7B,other
58062,78,73,40,46,1.0,3-7B,other
58063,80,71,31,120,7.0,2-1,other
58064,81,84,25,72,7.0,2-1,other
58065,46,95,303,623,7.0,4-6,other
58066,56,54,14,129,7.0,4-6,other
58067,70,95,23,48,7.0,4-6,other
58068,59,72,38,299,5.0,4-19B,other
58069,58,75,78,56,5.0,4-19B,other
58070,52,69,32,190,5.0,4-19A,augmented
58071,46,60,40,48,5.0,4-19A,augmented
58072,51,60,43,231,4.0,3-7A,minor
58073,72,71,45,251,9.0,2-3,minor
58074,73,74,26,74,9.0,2-3,minor
58075,74,72,33,49,9.0,2-3,minor
58076,72,65,20,106,7.0,3-11B,major
58077,73,85,35,58,7.0,3-11B,major
58078,71,85,29,124,11.0,3-7A,minor
58079,72,77,47,52,11.0,3-7A,minor
58080,74,77,60,134,9.0,3-3B,other
58081,72,74,29,121,0.0,4-20,major
58082,72,71,31,228,11.0,2-3,minor
58083,73,73,32,74,11.0,2-3,minor
58084,67,55,50,174,11.0,2-3,minor
58085,86,115,33,1206,4.0,2-5,other
58086,79,79,28,128,4.0,3-8B,other
58087,75,65,46,112,0.0,3-8A,major
58088,73,56,44,114,4.0,2-2,other
58089,71,44,47,121,6.0,2-6,other
58090,70,68,37,58,6.0,2-6,other
58091,52,68,197,605,2.0,4-16A,major
58092,52,66,119,268,2.0,4-16A,major
58093,49,50,28,463,7.0,3-11A,minor
58094,46,69,23,241,3.0,4-20,major
58095,47,73,62,54,3.0,4-20,major
58096,48,95,93,78,3.0,4-20,major
58097,47,79,33,113,3.0,4-20,major
58098,46,60,64,43,3.0,4-20,major
58099,42,94,23,182,6.0,2-3,minor
58100,56,55,30,291,6.0,4-28,diminished
58101,44,76,32,1418,3.0,4-19B,augmented
58102,43,90,21,113,3.0,4-19B,augmented
58103,55,58,18,604,1.0,3-2B,other
58104,52,82,29,218,0.0,3-6,other
58105,75,80,25,1247,3.0,4-20,other
58106,75,74,47,205,3.0,4-20,other
58107,73,63,396,265,3.0,4-20,other
58108,68,65,309,116,3.0,4-20,other
58109,64,49,45,149,3.0,4-20,other
58110,46,55,40,169,3.0,3-4A,major
58111,55,56,60,57,3.0,3-4A,major
58112,63,64,8,111,10.0,2-4,major
58113,65,79,21,30,10.0,2-4,major
58114,67,56,25,30,10.0,2-4,major
58115,68,50,3,33,10.0,2-4,major
58116,70,76,29,27,10.0,2-4,major
58117,72,70,28,42,10.0,2-4,major
58118,74,67,28,27,10.0,2-4,major
58119,75,76,19,27,10.0,2-4,major
58120,77,80,30,35,10.0,2-4,major
58121,82,77,9,77,9.0,2-2,other
58122,84,84,26,26,9.0,2-2,other
58123,86,69,25,31,9.0,2-2,other
58124,87,77,13,34,9.0,2-2,other
58125,89,74,37,31,9.0,2-2,other
58126,94,75,14,81,9.0,2-2,other
58127,95,78,32,31,9.0,2-2,other
58128,96,101,103,40,9.0,2-2,other
58129,96,77,121,120,9.0,2-2,other
58130,46,100,97,0,8.0,4-24,other
58131,46,83,31,115,0.0,3-11A,minor
58132,43,79,7,406,8.0,5-24A,other
58133,32,65,6,549,7.0,5-23A,minor
58134,54,48,6,322,0.0,2-5,other
58135,44,56,261,271,0.0,3-11A,minor
58136,51,53,61,137,0.0,4-20,other
58137,62,66,20,75,5.0,3-11A,other
58138,63,76,16,28,5.0,3-11A,other
58139,64,75,20,29,5.0,3-11A,other
58140,44,68,93,71,5.0,2-4,other
58141,53,87,65,38,5.0,2-4,other
58142,59,57,28,39,5.0,2-4,other
58143,63,64,15,40,5.0,2-4,other
58144,67,73,15,38,5.0,2-4,other
58145,42,63,19,244,3.0,4-19B,other
58146,48,71,30,85,0.0,5-27B,other
58147,55,74,5,34,0.0,5-27B,other
58148,75,58,5,85,0.0,2-4,other
58149,46,81,11,33,0.0,2-4,other
58150,56,56,80,170,8.0,5-38A,diminished
58151,46,60,14,72,8.0,5-38A,diminished
58152,75,106,105,119,3.0,4-24,augmented
58153,71,39,8,99,3.0,3-4A,other
58154,75,92,34,31,3.0,3-4A,other
58155,76,80,12,202,0.0,3-8A,major
58156,77,77,27,30,0.0,3-8A,major
58157,65,64,29,77,0.0,4-20,other
58158,46,76,193,239,4.0,3-7A,minor
58159,70,97,76,163,4.0,5-32B,other
58160,75,89,28,166,5.0,5-30B,other
58161,71,1,38,406,7.0,6-32,minor
58162,51,68,38,495,0.0,5-27B,other
58163,50,58,48,66,0.0,5-27B,other
58164,54,64,110,174,0.0,2-5,other
58165,53,74,109,119,0.0,2-5,other
58166,52,69,70,113,0.0,2-5,other
58167,44,84,108,122,0.0,3-11A,minor
58168,44,77,55,123,0.0,2-5,other
58169,44,62,12,120,0.0,2-5,other
58170,80,87,11,366,7.0,2-2,other
58171,91,85,22,193,0.0,5-25B,other
58172,58,68,17,102,0.0,5-25B,other
58173,46,59,205,71,0.0,5-25B,other
58174,58,69,47,243,7.0,4-18A,major
58175,39,67,156,47,7.0,4-18A,major
58176,39,90,24,191,0.0,4-26,minor
58177,47,85,45,363,0.0,4-26,minor
58178,46,106,220,122,0.0,4-26,minor
58179,39,94,70,118,0.0,4-26,minor
58180,81,63,7,321,5.0,4-20,other
58181,27,75,8,151,7.0,4-27A,minor
58182,45,79,13,125,1.0,5-26A,other
58183,52,77,10,450,1.0,4-24,other
58184,45,72,14,34,1.0,4-24,other
58185,44,77,140,441,9.0,5-25A,diminished
58186,52,66,80,82,0.0,4-22B,minor
58187,44,83,82,75,0.0,4-22B,minor
58188,44,76,159,114,0.0,2-3,minor
58189,66,73,13,166,5.0,1-1,other
58190,67,62,20,49,5.0,1-1,other
58191,70,72,16,41,5.0,1-1,other
58192,74,73,21,68,0.0,4-4B,other
58193,67,43,16,28,0.0,4-4B,other
58194,67,52,6,92,3.0,3-4B,other
58195,70,76,11,26,3.0,3-4B,other
58196,74,108,18,28,3.0,3-4B,other
58197,65,77,8,90,5.0,3-11B,major
58198,65,72,10,120,9.0,2-6,other
58199,62,70,15,117,0.0,5-27B,minor
58200,63,78,9,34,0.0,5-27B,minor
58201,70,75,14,60,7.0,2-3,minor
58202,74,83,22,29,7.0,2-3,minor
58203,74,84,17,92,5.0,2-4,major
58204,75,84,18,27,5.0,2-4,major
58205,76,88,17,32,5.0,2-4,major
58206,79,92,12,62,2.0,5-24A,minor
58207,80,88,9,27,2.0,5-24A,minor
58208,81,72,9,31,2.0,5-24A,minor
58209,58,82,42,65,0.0,4-22A,other
58210,58,73,19,118,0.0,4-26,minor
58211,53,56,26,38,0.0,4-26,minor
58212,46,54,7,37,0.0,4-26,minor
58213,41,60,34,89,0.0,4-22A,other
58214,34,81,31,39,0.0,4-22A,other
58215,34,80,14,41,0.0,4-22A,other
58216,53,60,32,118,2.0,4-16A,major
58217,53,1,20,171,8.0,4-24,other
58218,46,19,110,312,5.0,6-24A,other
58219,46,56,15,160,3.0,3-11B,major
58220,44,55,28,238,6.0,3-5B,other
58221,72,82,116,88,7.0,3-7A,minor
58222,46,82,55,245,8.0,4-26,other
58223,45,61,11,147,9.0,5-33,other
58224,56,46,35,684,0.0,4-26,minor
58225,60,56,150,156,0.0,3-11A,minor
58226,63,75,60,48,0.0,3-11A,minor
58227,64,61,22,40,0.0,3-11A,minor
58228,64,23,21,43,0.0,3-11A,minor
58229,44,50,12,71,11.0,3-8A,other
58230,53,57,29,34,11.0,3-8A,other
58231,55,57,37,40,11.0,3-8A,other
58232,56,71,182,42,11.0,3-8A,other
58233,58,63,114,125,1.0,4-21,other
58234,56,61,7,116,1.0,4-21,other
58235,42,48,12,41,1.0,4-21,other
58236,41,42,5,231,0.0,6-32,other
58237,67,71,10,125,4.0,7-31B,other
58238,58,83,22,48,4.0,7-31B,other
58239,58,81,13,32,4.0,7-31B,other
58240,58,78,10,28,4.0,7-31B,other
58241,58,73,10,28,4.0,7-31B,other
58242,63,71,31,95,1.0,5-35,other
58243,63,55,15,58,1.0,5-35,other
58244,63,58,25,53,1.0,5-35,other
58245,63,66,25,130,11.0,5-32B,minor
58246,63,62,8,57,11.0,5-32B,minor
58247,63,55,13,28,11.0,5-32B,minor
58248,60,33,138,0,0.0,2-4,major
58249,77,76,691,2044,0.0,2-5,other
58250,74,64,712,41,0.0,2-5,other
58251,76,81,936,1042,9.0,3-2A,minor
58252,60,5,414,101,9.0,3-2A,minor
58253,84,65,1389,1988,2.0,2-2,other
58254,69,28,786,96,5.0,2-5,other
58255,69,27,522,1133,5.0,2-5,other
58256,82,69,496,1043,5.0,2-5,other
58257,81,64,358,1108,2.0,2-5,other
58258,69,27,313,59,0.0,1-1,other
58259,72,56,1538,1438,7.0,1-1,other
58260,46,45,350,31,7.0,1-1,other
58261,56,45,1797,876,7.0,1-1,other
58262,72,29,2390,823,7.0,1-1,other
58263,67,35,1194,49,7.0,1-1,other
58264,62,26,835,50,7.0,1-1,other
58265,77,54,1213,955,7.0,1-1,other
58266,76,55,280,1331,7.0,1-1,other
58267,45,38,1272,68,7.0,1-1,other
58268,81,67,355,766,7.0,1-1,other
58269,52,35,549,37,7.0,1-1,other
58270,60,47,625,1869,11.0,2-2,other
58271,71,55,141,622,11.0,2-2,other
58272,64,46,485,43,11.0,2-2,other
58273,76,54,319,699,11.0,2-2,other
58274,67,44,671,40,11.0,2-2,other
58275,86,48,562,2304,9.0,1-1,other
58276,72,24,968,40,9.0,1-1,other
58277,88,45,285,824,9.0,1-1,other
58278,98,44,702,1066,9.0,1-1,other
58279,92,45,407,771,9.0,1-1,other
58280,50,37,1680,74,9.0,1-1,other
58281,54,41,1182,509,9.0,1-1,other
58282,71,42,80,593,0.0,2-4,other
58283,86,59,149,568,0.0,2-4,other
58284,72,31,1400,2037,4.0,2-4,major
58285,79,66,267,3306,0.0,2-5,other
58286,81,82,193,576,0.0,2-5,other
58287,84,71,485,652,0.0,2-5,other
58288,67,36,1787,109,5.0,2-4,major
58289,72,31,2208,47,5.0,2-4,major
58290,81,52,1645,758,5.0,2-4,major
58291,77,52,875,944,5.0,2-4,major
58292,71,34,3468,2626,5.0,3-12,augmented
58293,55,38,895,41,5.0,3-12,augmented
58294,81,57,392,696,5.0,3-12,augmented
58295,81,48,3376,795,5.0,3-12,augmented
58296,31,34,268,1028,5.0,3-12,augmented
58297,71,37,549,2137,5.0,3-12,augmented
58298,77,66,243,2792,5.0,3-12,augmented
58299,81,72,211,1592,4.0,2-2,other
58300,77,63,863,2771,2.0,2-5,other
58301,71,39,1366,2679,5.0,4-24,augmented
58302,74,59,773,864,5.0,4-24,augmented
58303,75,56,1044,2017,5.0,2-2,other
58304,65,25,428,92,5.0,2-2,other
58305,76,48,1436,1196,5.0,2-2,other
58306,65,22,973,26,5.0,2-2,other
58307,77,52,728,1416,5.0,2-2,other
58308,55,39,1809,2269,0.0,2-4,major
58309,79,79,360,782,0.0,2-4,major
58310,77,76,853,912,0.0,2-5,other
58311,76,40,232,95,10.0,2-4,major
58312,65,41,73,1752,10.0,2-4,major
58313,84,75,1355,889,10.0,2-4,major
58314,57,52,1388,1015,0.0,1-1,other
58315,82,66,424,1025,0.0,1-1,other
58316,72,55,298,1011,9.0,2-3,minor
58317,77,76,413,3223,10.0,2-4,major
58318,60,31,156,3329,9.0,3-9,other
58319,64,38,350,863,9.0,3-9,other
58320,59,37,126,1928,0.0,3-4A,major
58321,26,54,228,1065,0.0,3-4A,major
58322,54,40,382,1164,0.0,3-4A,major
58323,64,21,282,1105,4.0,3-9,other
58324,60,30,227,37,4.0,3-9,other
58325,92,48,523,941,4.0,3-9,other
58326,64,19,272,94,4.0,3-9,other
58327,60,24,183,35,4.0,3-9,other
58328,95,37,366,2436,4.0,2-4,major
58329,77,60,487,2980,0.0,2-4,major
58330,81,79,151,1328,7.0,1-1,other
58331,84,72,238,607,7.0,1-1,other
58332,77,61,178,1350,9.0,2-2,other
58333,55,41,1175,3024,11.0,3-10,diminished
58334,65,38,771,794,3.0,2-4,other
58335,67,65,810,1502,5.0,3-11B,major
58336,65,35,2005,5915,11.0,2-3,minor
58337,71,36,587,914,9.0,3-8B,other
58338,73,33,354,1099,7.0,2-4,major
58339,65,34,955,1143,0.0,3-11B,major
58340,76,52,1429,4321,7.0,2-2,other
58341,60,38,2963,55,7.0,2-2,other
58342,67,41,101,1052,7.0,2-2,other
58343,86,69,814,5535,0.0,2-4,major
58344,76,37,818,65,0.0,2-4,other
58345,88,57,1593,2423,0.0,2-4,major
58346,64,39,3296,32,0.0,2-4,major
58347,68,39,995,925,0.0,2-4,major
58348,72,52,332,3524,0.0,2-4,major
58349,68,52,403,26,0.0,2-4,major
58350,74,65,378,958,0.0,2-4,major
58351,69,57,441,1740,0.0,3-11B,major
58352,91,81,664,1340,0.0,3-11B,major
58353,83,58,707,39,0.0,3-11B,major
58354,55,43,1403,909,5.0,2-4,major
58355,86,71,442,1884,0.0,3-11B,major
58356,76,43,1177,71,0.0,2-4,other
58357,88,70,573,782,0.0,2-4,other
58358,56,45,2941,51,0.0,2-4,other
58359,88,59,793,876,0.0,2-4,other
58360,76,39,680,64,4.0,2-4,major
58361,88,48,355,1315,4.0,2-4,major
58362,88,48,877,3046,8.0,2-3,other
58363,79,33,957,45,8.0,2-3,other
58364,79,49,667,2947,0.0,1-1,other
58365,60,21,915,42,0.0,1-1,other
58366,55,31,2252,941,0.0,1-1,other
58367,60,30,482,998,4.0,2-3,minor
58368,60,46,1453,1120,4.0,2-3,minor
58369,46,50,739,2458,10.0,3-11B,major
58370,65,43,415,777,4.0,3-10,diminished
58371,70,51,394,757,4.0,3-5A,other
58372,62,24,437,883,4.0,3-5A,other
58373,65,41,1180,1011,4.0,2-6,other
58374,76,67,518,535,4.0,2-6,other
58375,70,1,980,329,4.0,2-6,other
58376,77,74,462,263,4.0,2-6,other
58377,76,68,782,557,4.0,2-6,other
58378,69,40,635,817,4.0,2-6,other
58379,45,38,1022,61,4.0,2-6,other
58380,57,39,416,1032,4.0,2-6,other
58381,60,39,424,1021,0.0,2-4,major
58382,60,35,586,1038,9.0,2-5,other
58383,60,39,597,811,4.0,2-5,other
58384,72,81,838,703,4.0,2-5,other
58385,50,40,2020,969,9.0,3-11A,minor
58386,69,75,634,877,9.0,3-11A,minor
58387,69,57,480,1013,9.0,3-11A,minor
58388,69,47,967,1107,9.0,3-11A,minor
58389,60,37,181,2363,0.0,2-4,major
58390,45,48,1328,1112,9.0,2-3,minor
58391,64,27,384,79,9.0,2-3,minor
58392,71,76,202,606,9.0,2-3,minor
58393,52,45,624,50,9.0,2-3,minor
58394,67,38,600,744,9.0,3-11A,minor
58395,59,80,664,635,9.0,3-11A,minor
58396,60,75,605,667,9.0,3-11A,minor
58397,64,66,134,746,9.0,3-11A,minor
58398,50,42,5008,857,0.0,4-19B,augmented
58399,83,61,189,720,0.0,4-19B,augmented
58400,54,45,1364,60,0.0,4-19B,augmented
58401,92,55,976,816,0.0,4-19B,augmented
58402,83,27,659,65,0.0,2-4,major
58403,60,31,1218,1896,4.0,2-5,other
58404,104,29,261,1045,4.0,2-5,other
58405,43,39,290,4400,9.0,2-3,minor
58406,43,66,931,4482,5.0,3-11B,major
58407,63,17,139,225,5.0,3-11B,major
58408,31,57,3806,303,7.0,3-11B,major
58409,43,50,173,561,5.0,3-11B,major
58410,57,49,743,1216,7.0,3-7B,other
58411,43,17,368,6301,7.0,2-2,other
58412,59,45,273,2829,0.0,2-4,major
58413,42,42,731,60,0.0,2-4,major
58414,42,62,1907,962,0.0,2-4,major
58415,59,25,232,147,0.0,2-4,major
58416,79,63,203,525,0.0,2-4,major
58417,59,47,127,75,0.0,2-4,major
58418,65,54,1172,302,10.0,3-9,other
58419,74,43,1462,34,10.0,3-9,other
58420,59,46,212,59,10.0,3-9,other
58421,44,50,1586,803,10.0,3-9,other
58422,76,69,769,651,10.0,3-9,other
58423,59,44,101,59,10.0,3-9,other
58424,59,42,234,364,10.0,3-9,other
58425,74,63,111,264,10.0,3-9,other
58426,43,64,230,199,10.0,3-9,other
58427,36,70,3028,385,10.0,3-9,other
58428,42,26,220,921,9.0,3-2B,minor
58429,59,36,1086,141,9.0,3-2B,minor
58430,46,44,955,822,9.0,3-2B,minor
58431,51,62,590,30,9.0,3-2B,minor
58432,48,59,113,953,9.0,2-3,minor
58433,59,45,120,64,9.0,2-3,minor
58434,78,50,73,135,9.0,3-11A,minor
58435,77,36,87,954,0.0,5-30B,other
58436,77,77,272,1524,0.0,5-30B,other
58437,59,43,101,30,0.0,5-30B,other
58438,45,75,5026,135,0.0,5-30B,other
58439,55,31,1714,249,0.0,3-4A,major
58440,75,49,238,227,0.0,3-4A,major
58441,76,56,181,329,0.0,3-4A,major
58442,53,65,92,835,0.0,3-4A,major
58443,83,75,211,33,0.0,3-4A,major
58444,84,60,151,281,0.0,3-4A,major
58445,53,45,386,75,0.0,3-4A,major
58446,88,72,197,186,0.0,3-4A,major
58447,91,78,103,280,0.0,3-4A,major
58448,95,83,229,315,0.0,3-4A,major
58449,59,54,307,172,0.0,3-4A,major
58450,98,120,476,124,0.0,3-4A,major
58451,96,88,307,549,0.0,2-4,major
58452,44,50,176,234,0.0,2-4,major
58453,59,48,444,97,0.0,2-4,major
58454,92,51,405,106,0.0,2-4,major
58455,33,63,189,406,0.0,2-4,major
58456,95,77,219,91,0.0,2-4,major
58457,40,53,221,273,0.0,2-4,major
58458,93,57,549,111,10.0,2-1,other
58459,60,41,1549,856,6.0,2-2,other
58460,93,63,186,357,8.0,2-6,other
58461,93,52,228,582,8.0,2-3,minor
58462,59,50,348,39,8.0,2-3,minor
58463,92,50,211,283,8.0,2-3,minor
58464,53,36,202,76,8.0,2-3,minor
58465,93,50,283,206,8.0,2-3,minor
58466,54,63,669,91,8.0,2-3,minor
58467,64,43,380,321,4.0,2-5,other
58468,60,40,333,30,4.0,2-5,other
58469,59,42,482,918,4.0,2-5,other
58470,60,31,949,130,6.0,2-2,other
58471,59,71,1034,867,6.0,2-2,other
58472,54,48,486,517,6.0,2-2,other
58473,44,71,260,963,0.0,2-4,major
58474,59,40,109,95,0.0,2-4,major
58475,59,52,920,4186,5.0,3-11B,major
58476,55,51,210,1190,5.0,1-1,other
58477,60,36,84,34,5.0,1-1,other
58478,59,60,309,340,5.0,1-1,other
58479,83,45,257,1040,5.0,3-3B,other
58480,88,52,198,27,5.0,3-3B,other
58481,59,56,20,260,5.0,3-3B,other
58482,93,54,197,379,5.0,3-3B,other
58483,65,56,178,838,1.0,4-15B,minor
58484,67,48,173,165,1.0,4-15B,minor
58485,69,63,63,174,1.0,4-15B,minor
58486,59,53,831,352,7.0,2-4,major
58487,73,74,164,46,7.0,2-4,major
58488,75,66,62,164,7.0,2-4,major
58489,77,81,192,143,7.0,2-4,major
58490,43,45,280,142,7.0,2-4,major
58491,79,37,71,81,7.0,2-4,major
58492,81,23,87,51,7.0,2-4,major
58493,83,66,167,167,7.0,2-4,major
58494,55,102,2005,38,7.0,2-4,major
58495,53,45,235,64,7.0,2-4,major
58496,85,73,164,102,7.0,2-4,major
58497,87,65,59,153,7.0,2-4,major
58498,89,73,189,170,7.0,2-4,major
58499,36,23,213,134,7.0,2-4,major
58500,91,66,135,53,7.0,2-4,major
58501,93,74,60,114,7.0,2-4,major
58502,43,52,111,127,7.0,2-4,major
58503,36,29,765,70,7.0,2-4,major
58504,95,60,82,28,7.0,2-4,major
58505,97,63,204,142,7.0,2-4,major
58506,99,56,135,160,7.0,2-4,major
58507,100,66,148,149,7.0,2-4,major
58508,59,43,132,26,7.0,2-4,major
58509,43,66,3131,35,7.0,2-4,major
58510,101,77,131,135,7.0,2-4,major
58511,70,66,238,2241,1.0,3-8B,other
58512,64,63,472,34,1.0,3-8B,other
58513,43,86,7052,844,2.0,4-26,minor
58514,72,57,89,1944,2.0,2-3,minor
58515,69,34,93,44,2.0,2-3,minor
58516,59,55,94,539,2.0,2-3,minor
58517,38,54,117,87,2.0,2-3,minor
58518,59,51,283,281,2.0,2-3,minor
58519,44,57,545,971,5.0,1-1,other
58520,53,54,732,1131,3.0,2-4,other
58521,59,40,103,658,3.0,2-4,other
58522,55,110,2933,118,3.0,2-4,other
58523,53,57,476,270,9.0,3-8A,other
58524,42,83,516,654,9.0,3-8A,other
58525,42,81,563,1001,4.0,3-5B,other
58526,43,54,57,87,4.0,3-5B,other
58527,59,58,267,96,4.0,3-5B,other
58528,38,43,211,168,4.0,3-5B,other
58529,89,98,313,285,4.0,3-5B,other
58530,35,72,301,37,4.0,3-5B,other
58531,64,41,1234,453,11.0,2-3,minor
58532,88,61,202,512,11.0,2-3,minor
58533,59,48,112,923,0.0,2-5,other
58534,79,43,153,30,0.0,2-5,other
58535,76,51,586,354,11.0,2-3,minor
58536,64,34,526,35,11.0,2-3,minor
58537,72,50,154,585,11.0,2-3,minor
58538,55,38,2495,37,11.0,2-3,minor
58539,59,52,386,287,11.0,2-3,minor
58540,77,86,2119,61,11.0,2-3,minor
58541,62,37,579,778,10.0,1-1,other
58542,69,11,1103,35,10.0,1-1,other
58543,48,91,2087,31,10.0,1-1,other
58544,59,63,269,657,10.0,1-1,other
58545,35,52,307,905,2.0,2-3,minor
58546,53,47,112,111,2.0,2-3,minor
58547,55,66,1681,56,2.0,2-3,minor
58548,36,86,1721,213,2.0,2-3,minor
58549,59,54,499,82,2.0,2-3,minor
58550,74,62,59,126,5.0,3-11B,major
58551,48,99,1725,788,5.0,3-11B,major
58552,59,53,487,62,5.0,3-11B,major
58553,36,25,554,873,5.0,3-11B,major
58554,59,60,125,643,5.0,3-11B,major
58555,60,27,75,94,3.0,2-5,other
58556,81,61,62,318,0.0,2-1,other
58557,77,52,62,59,2.0,2-5,other
58558,59,47,186,1900,0.0,3-6,major
58559,56,55,284,536,0.0,3-9,other
58560,53,48,84,116,5.0,2-5,other
58561,45,61,3293,148,5.0,2-5,other
58562,59,32,112,860,0.0,2-4,major
58563,59,50,233,234,0.0,2-4,major
58564,46,62,1678,857,0.0,2-4,major
58565,59,48,217,52,0.0,2-4,major
58566,33,87,2826,971,8.0,2-3,minor
58567,65,41,325,170,8.0,3-2B,other
58568,57,56,250,489,8.0,2-6,other
58569,59,50,101,937,4.0,1-1,other
58570,77,40,84,32,4.0,1-1,other
58571,67,49,211,310,0.0,3-4A,major
58572,59,46,149,27,0.0,3-4A,major
58573,79,38,69,587,5.0,3-4B,other
58574,38,71,5210,291,5.0,3-4B,other
58575,81,80,266,581,0.0,3-3B,other
58576,53,70,228,102,0.0,3-3B,other
58577,50,35,741,214,0.0,3-3B,other
58578,76,48,310,52,0.0,3-3B,other
58579,72,32,334,30,0.0,3-3B,other
58580,59,52,221,1008,6.0,2-6,other
58581,36,17,85,537,6.0,2-6,other
58582,53,56,84,954,9.0,2-3,minor
58583,60,37,499,135,6.0,2-2,other
58584,59,36,270,231,6.0,2-2,other
58585,59,78,165,589,6.0,2-2,other
58586,59,64,344,359,9.0,2-5,other
58587,33,61,118,362,9.0,2-5,other
58588,36,25,190,249,9.0,2-5,other
58589,32,66,173,49,9.0,2-5,other
58590,36,25,493,310,5.0,6-10B,major
58591,31,85,4067,35,5.0,6-10B,major
58592,55,45,101,592,5.0,6-10B,major
58593,69,26,304,401,0.0,3-11B,major
58594,38,48,122,297,0.0,3-11B,major
58595,38,50,162,310,7.0,2-2,other
58596,42,47,265,598,0.0,3-9,other
58597,53,68,230,291,0.0,3-9,other
58598,36,19,114,942,5.0,2-5,other
58599,40,52,114,332,5.0,2-5,other
58600,59,55,274,58,5.0,2-5,other
58601,77,54,145,101,5.0,3-11B,major
58602,40,49,176,161,5.0,3-11B,major
58603,36,20,112,405,5.0,3-11B,major
58604,59,49,313,245,5.0,3-11B,major
58605,77,56,314,36,5.0,3-11B,major
58606,40,70,160,346,9.0,3-11A,minor
58607,30,58,208,180,9.0,3-11A,minor
58608,31,67,2779,296,2.0,2-2,other
58609,55,35,544,202,9.0,3-8A,other
58610,76,31,78,327,9.0,3-8A,other
58611,43,59,69,254,9.0,3-8A,other
58612,59,47,234,876,5.0,3-8A,major
58613,64,56,180,216,5.0,3-8A,major
58614,59,44,372,453,6.0,3-10,minor
58615,36,20,128,256,6.0,3-10,minor
58616,40,98,190,968,11.0,4-13B,diminished
58617,40,63,252,382,11.0,4-13B,diminished
58618,43,85,216,627,0.0,2-1,other
58619,59,52,252,346,0.0,2-1,other
58620,38,77,256,536,0.0,2-1,other
58621,36,17,251,453,11.0,2-3,minor
58622,43,67,1845,82,11.0,2-3,minor
58623,36,20,128,586,11.0,2-3,minor
58624,64,66,932,290,1.0,3-10,other
58625,36,25,222,44,1.0,3-10,other
58626,30,65,323,486,1.0,3-10,other
58627,59,40,96,110,1.0,3-10,other
58628,59,48,215,311,2.0,2-3,minor
58629,36,20,77,1579,11.0,3-5A,other
58630,36,20,222,372,9.0,2-3,minor
58631,59,65,158,548,9.0,2-3,minor
58632,43,88,360,332,9.0,2-3,minor
58633,59,49,99,82,9.0,2-3,minor
58634,77,67,218,510,9.0,2-3,minor
58635,42,52,211,41,9.0,2-3,minor
58636,59,65,61,63,9.0,2-3,minor
58637,73,54,265,1183,4.0,3-5B,other
58638,59,48,190,48,4.0,3-5B,other
58639,71,40,196,295,4.0,3-5B,other
58640,36,24,92,322,4.0,3-5B,other
58641,31,70,1015,1331,11.0,2-6,other
58642,71,56,766,526,11.0,2-6,other
58643,36,24,94,112,4.0,3-5B,other
58644,59,61,331,206,4.0,3-5B,other
58645,34,61,876,160,4.0,3-5B,other
58646,59,59,293,844,0.0,4-8,major
58647,72,68,167,353,11.0,1-1,other
58648,74,80,229,263,11.0,1-1,other
58649,36,30,176,43,11.0,1-1,other
58650,59,50,79,37,11.0,1-1,other
58651,76,111,279,215,11.0,1-1,other
58652,76,92,556,387,2.0,3-9,other
58653,59,28,274,1608,4.0,2-5,other
58654,53,64,165,642,4.0,2-5,other
58655,59,55,241,1358,11.0,2-2,other
58656,59,51,315,890,4.0,2-5,other
58657,88,69,389,183,4.0,2-5,other
58658,57,39,405,75,0.0,2-4,major
58659,86,6,191,194,0.0,2-4,major
58660,35,69,371,173,0.0,2-4,major
58661,53,46,126,98,0.0,2-4,major
58662,84,72,935,999,0.0,2-1,other
58663,52,48,1927,58,8.0,2-6,other
58664,42,56,485,149,4.0,2-2,other
58665,59,51,267,71,4.0,2-2,other
58666,88,75,400,325,4.0,2-2,other
58667,59,49,263,603,4.0,2-2,other
58668,76,60,474,94,0.0,4-24,augmented
58669,86,36,297,67,0.0,4-24,augmented
58670,56,39,103,30,0.0,4-24,augmented
58671,44,51,281,413,0.0,4-24,augmented
58672,48,88,2890,357,0.0,4-24,augmented
58673,59,44,467,36,0.0,4-24,augmented
58674,52,38,2282,102,8.0,2-6,other
58675,36,18,91,481,8.0,2-6,other
58676,42,76,600,270,8.0,2-6,other
58677,71,51,176,103,8.0,2-6,other
58678,72,75,174,323,8.0,2-6,other
58679,59,47,110,239,8.0,2-6,other
58680,76,107,245,44,8.0,2-6,other
58681,42,76,704,239,8.0,2-6,other
58682,34,66,202,302,8.0,2-6,other
58683,76,82,211,98,8.0,2-6,other
58684,35,81,305,227,8.0,2-6,other
58685,74,73,286,80,8.0,2-6,other
58686,71,77,280,942,0.0,2-1,other
58687,42,49,201,310,0.0,2-1,other
58688,59,61,862,41,0.0,2-1,other
58689,74,80,442,27,0.0,2-1,other
58690,71,48,248,572,0.0,2-1,other
58691,68,52,253,914,0.0,2-2,other
58692,59,53,97,39,0.0,2-2,other
58693,59,50,418,395,4.0,2-3,minor
58694,68,42,262,516,4.0,2-3,minor
58695,59,56,245,362,4.0,2-3,minor
58696,60,42,549,711,4.0,2-5,other
58697,59,56,287,270,9.0,2-2,other
58698,35,60,332,605,9.0,2-2,other
58699,52,31,2015,415,0.0,3-3B,other
58700,38,66,178,518,0.0,3-3B,other
58701,59,68,71,375,0.0,3-3B,other
58702,60,63,210,227,0.0,3-3B,other
58703,64,64,286,222,0.0,3-3B,other
58704,59,62,97,153,0.0,3-3B,other
58705,67,65,119,82,0.0,3-3B,other
58706,63,57,73,239,0.0,3-3B,other
58707,59,55,265,43,0.0,3-3B,other
58708,64,63,198,163,0.0,2-4,other
58709,68,57,183,253,0.0,2-4,other
58710,71,66,163,204,0.0,2-4,other
58711,35,57,193,26,0.0,2-4,other
58712,59,56,327,315,7.0,2-1,other
58713,48,95,2851,42,7.0,2-1,other
58714,68,55,185,112,7.0,2-1,other
58715,72,63,213,274,7.0,2-1,other
58716,53,74,212,184,7.0,2-1,other
58717,76,81,160,61,7.0,2-1,other
58718,56,41,114,158,7.0,2-1,other
58719,71,42,167,96,7.0,2-1,other
58720,72,36,192,222,7.0,2-1,other
58721,76,60,293,181,7.0,2-1,other
58722,42,43,94,119,7.0,2-1,other
58723,42,57,171,325,0.0,2-4,other
58724,52,21,232,82,0.0,2-4,other
58725,53,51,272,41,0.0,2-4,other
58726,76,55,229,190,0.0,2-4,other
58727,79,39,103,286,0.0,2-4,other
58728,53,44,77,153,0.0,2-4,other
58729,38,49,209,35,0.0,2-4,other
58730,53,47,174,245,11.0,2-2,other
58731,84,80,183,1696,9.0,4-26,minor
58732,80,25,83,785,9.0,4-11B,minor
58733,79,83,460,194,9.0,4-11B,minor
58734,55,55,334,74,5.0,4-20,major
58735,48,101,2941,246,5.0,4-20,major
58736,57,33,398,214,0.0,3-11B,major
58737,59,57,69,496,0.0,3-11B,major
58738,42,57,306,234,0.0,3-11B,major
58739,52,36,691,62,9.0,4-26,minor
58740,59,55,241,43,9.0,4-26,minor
58741,59,50,261,902,9.0,4-26,minor
58742,46,88,3008,889,9.0,4-26,minor
58743,59,51,77,686,2.0,2-2,other
58744,36,10,135,50,2.0,2-2,other
58745,62,63,376,995,8.0,3-5B,other
58746,42,40,251,186,8.0,3-5B,other
58747,59,58,240,106,8.0,3-5B,other
58748,62,66,332,219,8.0,3-5B,other
58749,34,90,2924,639,11.0,2-3,minor
58750,59,88,508,101,11.0,2-3,minor
58751,36,15,107,560,4.0,3-7B,other
58752,46,65,1579,291,4.0,3-7B,other
58753,59,48,114,56,4.0,3-7B,other
58754,62,63,453,101,5.0,4-14A,other
58755,59,46,79,510,5.0,4-14A,other
58756,59,67,185,372,7.0,2-5,other
58757,36,13,100,574,9.0,2-5,other
58758,33,99,4833,300,9.0,2-5,other
58759,93,75,1482,524,7.0,3-6,major
58760,59,49,118,432,0.0,2-4,major
58761,36,26,147,1155,0.0,2-4,major
58762,45,97,646,343,0.0,2-4,major
58763,55,48,895,143,9.0,3-11A,minor
58764,59,54,125,365,9.0,3-11A,minor
58765,36,21,88,88,9.0,3-11A,minor
58766,44,58,213,55,9.0,3-11A,minor
58767,45,84,1640,330,9.0,3-11A,minor
58768,59,54,121,392,9.0,3-11A,minor
58769,36,36,224,175,9.0,3-11A,minor
58770,83,76,48,119,0.0,3-4A,major
58771,55,49,57,26,0.0,3-4A,major
58772,36,27,338,230,0.0,3-4A,major
58773,55,74,329,397,0.0,4-20,major
58774,37,69,369,274,0.0,4-20,major
58775,38,87,4575,352,11.0,2-5,other
58776,36,17,83,620,2.0,2-5,other
58777,59,42,107,296,2.0,2-5,other
58778,96,99,519,154,2.0,2-5,other
58779,95,86,228,689,2.0,2-5,other
58780,59,50,129,107,2.0,2-5,other
58781,94,75,295,488,2.0,2-5,other
58782,59,32,88,255,2.0,2-5,other
58783,92,76,315,198,2.0,2-5,other
58784,59,63,256,58,2.0,2-5,other
58785,93,79,377,370,2.0,2-5,other
58786,59,52,103,561,0.0,2-4,major
58787,42,67,543,37,0.0,2-4,major
58788,89,48,257,351,0.0,2-4,major
58789,37,45,299,217,0.0,2-4,major
58790,87,71,309,239,0.0,2-4,major
58791,86,57,367,425,10.0,2-4,other
58792,36,17,92,251,10.0,2-4,other
58793,37,37,84,84,10.0,2-4,other
58794,85,58,247,94,10.0,2-4,other
58795,59,61,293,140,10.0,2-4,other
58796,36,11,337,32,10.0,2-4,other
58797,45,77,3034,46,10.0,2-4,other
58798,59,47,934,232,0.0,2-4,major
58799,42,41,334,750,0.0,2-4,major
58800,83,47,247,31,0.0,2-4,major
58801,84,75,212,330,0.0,2-4,major
58802,59,57,133,246,0.0,2-4,major
58803,86,87,244,58,0.0,2-4,major
58804,79,51,321,338,0.0,4-5A,major
58805,81,63,176,342,0.0,4-5A,major
58806,53,60,83,261,0.0,4-5A,major
58807,83,71,92,31,0.0,4-5A,major
58808,33,97,2849,294,0.0,4-5A,major
58809,53,55,311,38,0.0,4-5A,major
58810,74,42,206,96,0.0,4-5A,major
58811,36,20,93,462,0.0,4-5A,major
58812,42,39,316,368,0.0,4-5A,major
58813,53,55,75,612,0.0,4-5A,major
58814,59,36,101,87,0.0,2-4,major
58815,53,53,181,266,0.0,2-4,major
58816,59,66,87,624,0.0,2-4,major
58817,38,75,146,291,2.0,2-2,other
58818,59,55,224,90,2.0,2-2,other
58819,76,68,377,32,2.0,2-2,other
58820,60,47,401,91,4.0,3-9,other
58821,38,75,185,422,4.0,3-9,other
58822,53,46,86,125,6.0,3-8B,other
58823,38,85,755,198,6.0,3-8B,other
58824,64,39,166,217,5.0,2-1,other
58825,60,39,138,31,5.0,2-1,other
58826,38,54,206,707,0.0,3-4A,major
58827,59,59,379,1923,0.0,4-29B,major
58828,38,51,103,56,0.0,4-29B,major
58829,81,35,78,464,2.0,4-21,major
58830,85,67,57,243,0.0,4-16A,major
58831,38,60,163,234,0.0,4-16A,major
58832,53,33,462,26,0.0,4-16A,major
58833,36,30,174,551,5.0,4-5B,other
58834,49,30,150,284,1.0,2-1,other
58835,31,87,7767,47,1.0,2-1,other
58836,58,38,93,201,7.0,3-7B,other
58837,60,68,129,1812,7.0,3-7B,other
58838,62,58,55,225,7.0,3-7B,other
58839,62,73,163,173,7.0,3-7B,other
58840,64,81,152,190,7.0,3-7B,other
58841,64,61,194,218,7.0,3-7B,other
58842,65,77,144,176,7.0,3-7B,other
58843,65,56,153,220,7.0,3-7B,other
58844,67,61,80,197,7.0,3-7B,other
58845,67,64,178,178,7.0,3-7B,other
58846,69,66,115,201,7.0,3-7B,other
58847,43,89,1708,28,7.0,3-7B,other
58848,69,48,182,163,7.0,3-7B,other
58849,71,60,80,210,7.0,3-7B,other
58850,71,63,169,197,7.0,3-7B,other
58851,72,68,139,165,7.0,3-7B,other
58852,72,53,151,201,7.0,3-7B,other
58853,74,67,57,185,7.0,3-7B,other
58854,74,66,156,176,7.0,3-7B,other
58855,76,71,99,170,7.0,3-7B,other
58856,77,76,124,393,6.0,2-2,other
58857,43,97,731,112,9.0,2-2,other
58858,77,61,163,97,9.0,2-2,other
58859,79,57,130,250,9.0,2-2,other
58860,79,50,167,214,9.0,2-2,other
58861,42,49,223,115,9.0,2-2,other
58862,81,57,63,100,9.0,2-2,other
58863,83,54,75,399,9.0,2-2,other
58864,83,55,160,199,9.0,2-2,other
58865,84,57,66,186,9.0,2-2,other
58866,84,65,181,201,9.0,2-2,other
58867,86,70,182,188,9.0,2-2,other
58868,86,66,146,279,9.0,2-2,other
58869,88,67,151,213,9.0,2-2,other
58870,88,67,140,244,9.0,2-2,other
58871,65,57,356,129,9.0,2-2,other
58872,89,76,146,75,9.0,2-2,other
58873,31,98,2501,45,9.0,2-2,other
58874,89,57,167,243,9.0,2-2,other
58875,91,75,175,247,9.0,2-2,other
58876,93,81,233,266,9.0,2-2,other
58877,96,120,373,879,11.0,2-6,other
58878,98,87,255,456,11.0,2-6,other
58879,99,81,376,484,11.0,2-6,other
58880,36,83,927,119,11.0,2-6,other
58881,72,42,579,2628,4.0,2-3,minor
58882,60,14,162,252,4.0,2-3,minor
58883,79,94,238,579,4.0,2-3,minor
58884,77,80,613,618,4.0,2-3,minor
58885,76,84,1039,1110,9.0,2-3,minor
58886,74,59,325,1096,9.0,2-3,minor
58887,72,55,897,1179,5.0,2-5,other
58888,69,44,796,34,5.0,2-5,other
58889,60,39,1587,43,5.0,2-5,other
58890,77,48,541,1135,5.0,2-5,other
58891,60,39,520,1408,10.0,2-4,major
58892,77,51,467,37,10.0,2-4,major
58893,60,35,110,1350,9.0,2-3,minor
58894,77,30,782,3312,0.0,4-24,augmented
58895,83,68,387,4245,4.0,2-5,other
58896,88,76,431,437,4.0,2-5,other
58897,81,56,508,447,4.0,2-5,other
58898,83,66,388,427,4.0,2-5,other
58899,79,57,489,500,4.0,2-5,other
58900,81,60,437,528,4.0,2-5,other
58901,76,48,439,529,4.0,2-5,other
58902,79,48,490,563,4.0,2-5,other
58903,76,55,529,1252,0.0,2-1,other
58904,71,42,1005,645,0.0,2-1,other
58905,64,51,7194,3339,0.0,2-1,other
58906,62,37,7056,152,0.0,2-1,other
58907,43,34,6946,118,0.0,2-1,other
58908,57,42,6850,28,0.0,2-1,other
58909,46,110,32,0,,,
58910,41,66,35,37,,,
58911,38,78,35,35,,,
58912,34,97,165,40,,,
58913,41,90,50,324,5.0,3-11A,other
58914,46,115,17,52,5.0,3-11A,other
58915,41,72,24,36,5.0,3-11A,other
58916,38,79,31,35,5.0,3-11A,other
58917,34,78,104,40,5.0,3-11A,other
58918,41,55,25,70,5.0,3-11A,other
58919,43,72,36,360,3.0,5-26A,other
58920,36,57,105,44,3.0,5-26A,other
58921,74,70,26,184,0.0,5-27B,minor
58922,55,59,101,247,3.0,3-11B,major
58923,53,62,11,688,10.0,4-20,other
58924,51,55,54,42,10.0,4-20,other
58925,46,96,29,685,8.0,5-26B,other
58926,47,92,47,40,8.0,5-26B,other
58927,74,112,19,114,0.0,5-27B,minor
58928,60,55,8,80,3.0,3-4A,major
58929,30,56,22,277,3.0,3-11B,major
58930,53,58,22,239,5.0,1-1,other
58931,53,67,55,126,3.0,4-22A,major
58932,41,71,25,116,3.0,3-11B,major
58933,34,67,182,45,3.0,3-11B,major
58934,41,53,43,71,3.0,3-11B,major
58935,44,71,15,327,5.0,3-11A,other
58936,45,90,32,37,5.0,3-11A,other
58937,46,109,83,44,5.0,3-11A,other
58938,42,55,18,73,5.0,3-11A,other
58939,68,1,23,170,3.0,3-12,augmented
58940,68,60,20,190,3.0,5-30B,other
58941,74,84,344,103,0.0,5-27B,minor
58942,62,94,131,139,3.0,2-4,major
58943,59,75,45,125,3.0,2-4,major
58944,55,63,17,116,0.0,3-11A,minor
58945,48,75,121,45,0.0,3-11A,minor
58946,48,41,7,195,3.0,4-20,major
58947,53,87,127,571,10.0,4-20,other
58948,51,75,85,110,10.0,3-11B,other
58949,32,96,19,265,10.0,3-8B,other
58950,46,101,33,127,0.0,3-11B,other
58951,47,68,68,88,0.0,3-11B,other
58952,55,57,37,273,0.0,5-27B,minor
58953,67,62,104,173,3.0,3-11B,major
58954,48,56,18,73,3.0,3-11B,major
58955,41,80,15,119,5.0,3-8A,major
58956,48,72,32,363,3.0,4-22A,major
58957,46,76,67,43,3.0,4-22A,major
58958,46,61,48,81,3.0,4-22A,major
58959,30,75,23,116,10.0,3-11B,major
58960,54,73,29,241,6.0,4-27A,minor
58961,52,96,43,237,2.0,3-7B,other
58962,55,99,40,122,2.0,4-26,minor
58963,57,61,9,119,2.0,4-26,minor
58964,53,108,78,207,10.0,4-16A,other
58965,49,60,39,155,0.0,4-27A,minor
58966,37,70,14,113,0.0,4-27A,minor
58967,53,82,53,384,10.0,4-20,other
58968,74,88,16,91,10.0,4-20,other
58969,75,110,18,31,10.0,4-20,other
58970,65,74,122,72,2.0,3-7A,minor
58971,53,48,55,76,2.0,3-7A,minor
58972,67,69,30,41,2.0,3-7A,minor
58973,74,79,21,36,2.0,3-7A,minor
58974,65,58,7,715,10.0,2-4,major
58975,65,61,10,83,10.0,4-16A,other
58976,70,88,13,34,10.0,4-16A,other
58977,72,81,15,30,10.0,4-16A,other
58978,70,68,14,80,10.0,4-16A,other
58979,53,107,128,494,10.0,3-11B,other
58980,51,74,45,120,10.0,3-11B,other
58981,37,59,5,359,10.0,4-20,major
58982,36,103,15,766,3.0,5-30B,other
58983,55,43,22,561,0.0,4-26,minor
58984,44,84,172,1033,1.0,4-26,other
58985,54,92,43,86,1.0,4-26,other
58986,47,79,35,208,3.0,2-5,other
58987,55,54,52,242,3.0,5-21B,other
58988,53,96,146,590,5.0,2-5,other
58989,41,82,32,116,9.0,2-3,minor
58990,46,90,33,44,9.0,2-3,minor
58991,41,22,30,81,9.0,2-3,minor
58992,41,66,31,234,0.0,4-22A,other
58993,45,103,55,42,0.0,4-22A,other
58994,46,113,124,73,0.0,4-22A,other
58995,34,70,39,119,0.0,4-22A,other
58996,67,79,11,220,3.0,5-30B,other
58997,67,105,13,30,3.0,5-30B,other
58998,77,116,21,35,3.0,5-30B,other
58999,77,93,16,36,3.0,5-30B,other
59000,63,79,39,38,3.0,5-30B,other
59001,74,82,65,86,7.0,4-22B,minor
59002,74,1,120,115,3.0,2-4,major
59003,62,82,55,44,3.0,2-4,major
59004,36,97,49,473,0.0,4-26,minor
59005,75,43,8,213,0.0,4-26,minor
59006,76,75,11,30,0.0,4-26,minor
59007,72,72,11,583,6.0,3-8A,other
59008,44,81,96,136,2.0,5-34,major
59009,47,81,42,237,6.0,3-10,other
59010,36,95,9,86,7.0,4-22B,minor
59011,53,60,115,517,3.0,4-22A,major
59012,41,76,190,113,3.0,3-11B,major
59013,70,81,23,175,0.0,1-1,other
59014,65,46,26,41,0.0,1-1,other
59015,70,98,81,38,0.0,1-1,other
59016,46,52,90,48,0.0,1-1,other
59017,53,51,6,75,0.0,1-1,other
59018,41,81,70,236,6.0,2-1,other
59019,41,53,47,120,5.0,3-11A,other
59020,44,74,26,117,10.0,3-11B,major
59021,48,73,23,374,7.0,1-1,other
59022,62,71,6,70,7.0,2-5,other
59023,62,92,120,83,0.0,3-3A,minor
59024,60,64,24,116,0.0,3-11A,minor
59025,59,74,40,41,0.0,3-11A,minor
59026,59,65,35,82,0.0,4-14A,minor
59027,55,100,34,95,0.0,3-11A,minor
59028,48,101,36,86,0.0,3-11A,minor
59029,48,80,113,55,0.0,3-11A,minor
59030,36,96,61,76,0.0,3-11A,minor
59031,84,78,29,819,4.0,3-6,major
59032,72,103,16,143,5.0,3-5B,other
59033,47,90,39,563,0.0,4-26,minor
59034,48,105,67,41,0.0,4-26,minor
59035,43,81,16,83,3.0,3-11B,major
59036,29,87,20,151,0.0,5-35,minor
59037,29,73,7,49,0.0,5-35,minor
59038,46,73,82,423,10.0,3-11B,major
59039,52,70,36,493,10.0,4-20,major
59040,53,55,71,44,10.0,4-20,major
59041,46,63,175,72,10.0,4-20,major
59042,49,80,12,362,10.0,3-11B,other
59043,51,79,104,123,10.0,4-20,other
59044,49,65,39,117,10.0,3-11B,other
59045,49,61,39,118,1.0,4-26,other
59046,42,63,352,45,1.0,4-26,other
59047,49,61,43,76,1.0,4-26,other
59048,49,73,31,120,1.0,4-26,other
59049,49,74,55,121,10.0,4-20,other
59050,46,69,58,242,10.0,4-20,major
59051,46,92,17,82,7.0,4-23,minor
59052,47,91,37,38,7.0,4-23,minor
59053,45,111,34,599,10.0,3-11B,major
59054,44,86,48,47,10.0,3-11B,major
59055,43,78,18,71,10.0,3-11B,major
59056,72,67,46,416,10.0,4-16A,other
59057,77,69,18,33,10.0,4-16A,other
59058,49,55,16,125,10.0,4-16A,other
59059,49,56,38,117,10.0,3-9,other
59060,49,85,115,153,10.0,3-9,other
59061,42,52,8,109,10.0,3-9,other
59062,47,109,39,491,3.0,3-12,augmented
59063,42,110,31,118,0.0,4-26,minor
59064,30,93,60,43,0.0,4-26,minor
59065,31,83,9,313,3.0,5-26A,other
59066,75,46,9,247,3.0,4-20,major
59067,47,27,5,479,3.0,3-11B,major
59068,39,77,37,352,10.0,4-20,other
59069,70,52,12,86,10.0,2-5,other
59070,44,84,33,524,6.0,3-5B,other
59071,44,85,74,117,8.0,5-27A,other
59072,47,95,42,121,0.0,4-27A,minor
59073,48,76,38,119,0.0,4-26,minor
59074,42,65,34,119,3.0,3-11B,major
59075,36,69,32,124,0.0,4-26,minor
59076,43,96,88,1317,8.0,4-28,diminished
59077,43,100,53,118,8.0,4-28,diminished
59078,67,104,14,95,8.0,4-28,diminished
59079,67,108,25,31,8.0,4-28,diminished
59080,54,3,9,203,0.0,4-26,minor
59081,48,52,348,1354,5.0,4-15B,major
59082,34,63,41,403,6.0,5-26A,minor
59083,41,61,43,434,5.0,3-11A,other
59084,34,67,71,47,5.0,3-11A,other
59085,41,53,15,72,5.0,3-11A,other
59086,89,69,7,436,3.0,3-1,other
59087,92,63,13,33,3.0,3-1,other
59088,94,43,6,26,3.0,3-1,other
59089,96,58,12,32,3.0,3-1,other
59090,98,55,4,38,3.0,3-1,other
59091,99,42,25,40,3.0,3-1,other
59092,54,44,90,0,11.0,4-26,minor
59093,62,19,136,267,11.0,4-26,minor
59094,47,44,146,1881,6.0,1-1,other
59095,54,30,3,112,11.0,3-11A,minor
59096,71,88,29,248,11.0,2-5,other
59097,50,29,144,126,7.0,5-27A,major
59098,57,33,16,272,6.0,4-26,minor
59099,62,96,13,35,6.0,4-26,minor
59100,64,103,35,29,6.0,4-26,minor
59101,66,39,39,208,4.0,5-27B,minor
59102,62,50,48,239,0.0,4-24,augmented
59103,61,39,103,355,2.0,3-9,other
59104,54,21,40,487,7.0,3-9,other
59105,69,34,45,120,7.0,3-9,other
59106,81,60,57,179,2.0,2-4,major
59107,62,27,24,29,2.0,2-4,major
59108,54,37,25,65,2.0,3-11B,major
59109,55,37,24,113,7.0,3-4B,other
59110,59,48,122,30,7.0,3-4B,other
59111,57,60,59,310,9.0,2-5,other
59112,61,62,94,54,9.0,2-5,other
59113,61,59,111,120,9.0,2-5,other
59114,79,74,48,120,4.0,3-7B,other
59115,59,40,76,180,9.0,1-1,other
59116,61,29,17,53,9.0,1-1,other
59117,69,82,14,610,4.0,5-35,minor
59118,69,57,16,147,4.0,4-26,minor
59119,62,35,82,209,6.0,2-3,minor
59120,86,81,14,242,2.0,3-11B,major
59121,57,54,5,115,11.0,3-7A,minor
59122,66,26,12,109,2.0,5-27A,major
59123,62,47,32,349,4.0,4-14A,minor
59124,50,65,25,56,11.0,4-26,minor
59125,43,61,36,61,11.0,4-26,minor
59126,54,42,132,399,6.0,3-7A,minor
59127,76,33,41,113,9.0,3-11B,major
59128,74,33,26,115,6.0,4-26,minor
59129,62,30,98,241,7.0,4-20,major
59130,86,37,5,299,4.0,2-2,other
59131,47,14,6,192,6.0,1-1,other
59132,43,43,26,587,7.0,5-27A,major
59133,52,35,7,125,6.0,3-11A,minor
59134,59,32,59,235,4.0,3-9,other
59135,67,42,73,300,4.0,4-23,minor
59136,57,39,70,181,7.0,3-9,other
59137,57,58,98,132,2.0,2-4,major
59138,50,35,53,352,7.0,2-4,major
59139,59,62,252,104,4.0,4-14A,minor
59140,54,73,128,613,11.0,4-26,minor
59141,50,32,8,355,4.0,4-14A,minor
59142,54,50,26,476,2.0,1-1,other
59143,50,29,176,128,7.0,3-4B,other
59144,64,67,52,120,7.0,3-11B,major
59145,62,33,164,599,9.0,2-2,other
59146,55,40,30,114,11.0,4-26,minor
59147,74,40,31,467,0.0,4-16A,other
59148,61,38,60,203,4.0,4-23,minor
59149,54,25,205,239,7.0,3-9,other
59150,66,80,1050,0,,,
59151,40,48,5640,80,4.0,3-11A,minor
59152,66,72,380,1240,4.0,3-11A,minor
59153,66,74,360,1260,4.0,3-11A,minor
59154,64,59,290,490,4.0,3-11A,minor
59155,66,63,2670,650,4.0,3-11A,minor
59156,53,72,740,5760,3.0,4-19A,augmented
59157,53,61,2620,1170,3.0,4-19A,augmented
59158,49,61,850,1840,3.0,4-19A,augmented
59159,59,27,130,830,3.0,4-19A,augmented
59160,64,75,270,440,3.0,4-19A,augmented
59161,66,96,270,510,3.0,4-19A,augmented
59162,67,72,200,420,3.0,4-19A,augmented
59163,69,85,450,1480,4.0,2-3,minor
59164,69,75,340,880,4.0,2-3,minor
59165,67,53,330,570,4.0,2-3,minor
59166,62,47,2900,690,4.0,1-1,other
59167,67,49,130,3020,4.0,1-1,other
59168,57,46,1030,3000,11.0,1-1,other
59169,51,37,2100,2070,9.0,4-12A,diminished
59170,55,36,120,5350,4.0,2-5,other
59171,62,37,160,30,4.0,2-5,other
59172,59,31,90,50,4.0,2-5,other
59173,55,47,90,580,4.0,2-5,other
59174,55,34,150,720,4.0,3-7B,other
59175,62,36,210,30,4.0,3-7B,other
59176,59,31,100,30,4.0,3-7B,other
59177,62,41,590,620,4.0,3-7B,other
59178,50,39,80,630,4.0,3-7B,other
59179,64,42,2780,2090,0.0,2-5,other
59180,47,45,600,1140,0.0,2-5,other
59181,40,68,3110,710,0.0,2-5,other
59182,47,56,1300,2820,4.0,2-2,other
59183,40,62,490,580,4.0,2-2,other
59184,50,63,1980,710,4.0,2-2,other
59185,40,85,760,1230,4.0,2-2,other
59186,43,46,760,1950,7.0,3-11B,major
59187,36,56,490,740,7.0,3-11B,major
59188,52,66,580,70,4.0,2-5,other
59189,55,62,970,1970,4.0,3-11A,minor
59190,60,31,100,60,4.0,3-11A,minor
59191,55,44,710,1170,4.0,3-11A,minor
59192,48,46,280,780,4.0,3-11A,minor
59193,42,54,160,4130,4.0,2-2,other
59194,57,63,1180,1250,0.0,4-19B,augmented
59195,35,57,80,2810,0.0,4-19B,augmented
59196,72,78,1290,1110,5.0,2-2,other
59197,76,57,1040,60,9.0,1-1,other
59198,78,67,210,1990,2.0,2-3,minor
59199,81,78,1070,730,2.0,2-3,minor
59200,40,56,450,70,11.0,2-5,other
59201,74,66,990,40,11.0,2-5,other
59202,55,36,610,30,11.0,2-5,other
59203,69,25,1000,80,11.0,2-5,other
59204,78,57,460,1830,11.0,2-5,other
59205,64,48,300,90,7.0,2-4,major
59206,71,33,345,40,7.0,2-4,major
59207,52,54,410,1180,7.0,2-4,major
59208,64,65,970,760,9.0,3-11A,minor
59209,76,120,440,2540,0.0,3-11B,major
59210,75,60,70,60,0.0,3-11B,major
59211,75,26,100,160,0.0,3-11B,major
59212,52,71,510,370,0.0,3-11B,major
59213,78,80,500,1370,7.0,2-4,major
59214,76,67,640,580,7.0,2-4,major
59215,67,43,310,750,6.0,2-5,other
59216,71,49,420,30,6.0,2-5,other
59217,79,72,510,580,6.0,2-5,other
59218,52,38,1860,1340,2.0,2-4,major
59219,59,25,1680,60,7.0,2-4,major
59220,76,68,510,1030,7.0,2-4,major
59221,67,1,280,600,7.0,2-4,major
59222,24,65,320,2040,7.0,2-4,major
59223,58,50,1390,1450,4.0,2-6,other
59224,58,51,130,2050,4.0,2-6,other
59225,47,58,2670,660,4.0,2-6,other
59226,47,43,130,3240,9.0,3-9,other
59227,40,58,760,630,9.0,3-9,other
59228,66,65,700,1130,9.0,3-9,other
59229,52,46,1070,820,4.0,2-3,minor
59230,54,51,220,1080,4.0,2-3,minor
59231,59,55,150,70,7.0,2-1,other
59232,51,54,80,1480,5.0,3-11B,major
59233,47,54,450,1150,5.0,4-27B,major
59234,40,72,2650,2020,4.0,3-11A,minor
59235,47,63,3140,620,4.0,3-11A,minor
59236,66,83,2220,550,4.0,3-11A,minor
59237,40,70,360,2050,4.0,4-26,minor
59238,40,90,2670,720,4.0,4-26,minor
59239,57,34,90,1240,0.0,2-3,minor
59240,40,92,450,1810,0.0,2-3,minor
59241,40,90,2540,700,0.0,2-3,minor
59242,40,80,580,3110,1.0,4-23,minor
59243,40,76,2000,780,1.0,4-23,minor
59244,50,107,740,1170,7.0,3-11B,major
59245,52,82,510,2650,5.0,2-4,other
59246,36,67,1300,50,5.0,2-4,other
59247,43,56,210,1350,5.0,2-4,other
59248,62,52,240,780,4.0,2-5,other
59249,55,45,280,1230,4.0,2-5,other
59250,57,63,180,620,4.0,2-5,other
59251,74,48,80,1360,6.0,2-3,minor
59252,47,57,660,2490,0.0,2-4,major
59253,60,45,460,1160,0.0,2-4,major
59254,59,39,330,100,4.0,4-14B,major
59255,64,35,100,700,0.0,3-3B,other
59256,59,38,90,30,0.0,3-3B,other
59257,57,45,390,1140,4.0,2-5,other
59258,57,54,790,1190,7.0,2-5,other
59259,47,36,1480,40,7.0,2-5,other
59260,51,67,1520,580,7.0,2-5,other
59261,72,78,840,1250,9.0,2-6,other
59262,47,51,80,530,9.0,2-6,other
59263,58,27,150,460,9.0,2-6,other
59264,59,50,1750,910,4.0,2-3,minor
59265,83,73,1120,1260,4.0,2-3,minor
59266,59,29,740,1180,4.0,2-2,other
59267,84,79,700,730,4.0,2-2,other
59268,52,48,2050,80,0.0,2-4,major
59269,60,51,2030,900,0.0,2-4,major
59270,67,60,170,930,4.0,1-1,other
59271,72,72,5080,720,4.0,1-1,other
59272,64,45,940,1930,6.0,3-7B,other
59273,67,58,840,40,6.0,3-7B,other
59274,61,52,1110,1230,6.0,3-7B,other
59275,52,53,1280,1290,6.0,2-2,other
59276,52,60,670,1980,4.0,3-7A,minor
59277,57,99,630,1300,4.0,3-7A,minor
59278,56,56,90,550,4.0,3-7A,minor
59279,55,51,170,180,4.0,3-7A,minor
59280,54,59,140,180,4.0,3-7A,minor
59281,53,57,210,220,4.0,3-7A,minor
59282,48,49,90,3820,4.0,2-2,other
59283,47,39,520,830,5.0,3-8A,major
59284,60,39,310,1220,5.0,3-8A,major
59285,69,36,360,30,5.0,3-8A,major
59286,47,15,180,90,5.0,3-8A,major
59287,51,38,350,1340,6.0,4-28,diminished
59288,47,33,370,60,6.0,4-28,diminished
59289,66,51,390,1060,6.0,4-28,diminished
59290,40,43,1040,70,7.0,3-11B,major
59291,47,51,490,580,7.0,3-11B,major
59292,52,57,60,630,7.0,3-11B,major
59293,78,75,1500,690,7.0,3-11B,major
59294,62,117,1320,650,7.0,3-11B,major
59295,64,81,680,1260,7.0,4-20,major
59296,66,90,1380,640,7.0,4-20,major
59297,64,78,140,1960,11.0,2-3,minor
59298,50,49,210,650,11.0,2-3,minor
59299,43,70,1010,1950,7.0,2-5,other
59300,58,73,400,2690,6.0,4-11B,other
59301,78,41,70,1090,6.0,4-11B,other
59302,61,79,1350,270,10.0,4-20,other
59303,39,57,230,2510,10.0,4-20,other
59304,38,46,90,60,10.0,4-20,other
59305,42,63,320,50,10.0,4-20,other
59306,53,82,560,160,7.0,3-11A,minor
59307,58,54,270,2120,7.0,2-5,other
59308,58,46,530,4030,1.0,2-3,other
59309,49,56,700,3120,7.0,2-5,other
59310,58,26,240,100,5.0,2-4,other
59311,43,75,160,1840,7.0,3-7A,minor
59312,39,58,160,1900,7.0,3-7A,minor
59313,44,74,1240,900,7.0,3-7A,minor
59314,73,68,370,1050,3.0,3-11A,other
59315,74,83,880,900,3.0,3-11A,other
59316,70,54,80,80,9.0,4-23,minor
59317,52,57,80,840,9.0,4-23,minor
59318,59,43,90,1980,7.0,2-5,other
59319,50,58,290,4040,10.0,3-12,augmented
59320,49,77,670,4150,1.0,4-23,minor
59321,48,87,3370,780,1.0,4-23,minor
59322,64,68,1400,2000,7.0,2-3,minor
59323,43,66,200,590,7.0,2-3,minor
59324,36,68,190,620,7.0,2-3,minor
59325,52,48,100,830,5.0,2-4,other
59326,37,73,570,3300,1.0,4-15B,minor
59327,36,79,2060,800,1.0,4-15B,minor
59328,47,72,180,3930,0.0,4-27B,major
59329,64,42,370,2160,5.0,4-19B,augmented
59330,62,25,450,30,5.0,4-19B,augmented
59331,79,58,730,1980,5.0,4-19B,augmented
59332,56,56,580,2180,0.0,5-30B,other
59333,56,47,80,1210,0.0,4-22A,major
59334,60,47,800,830,6.0,4-27A,diminished
59335,35,82,290,4050,9.0,3-11A,minor
59336,57,79,1500,1330,2.0,5-25B,minor
59337,47,33,2110,3502,4.0,3-7B,other
59338,52,29,490,2000,7.0,3-11B,major
59339,52,96,590,1210,7.0,3-11B,major
59340,52,82,2060,730,0.0,3-11B,major
59341,60,58,1250,1840,4.0,2-3,minor
59342,52,56,640,1150,4.0,2-3,minor
59343,59,56,400,730,1.0,3-10,diminished
59344,71,66,280,1200,1.0,3-10,diminished
59345,71,60,1140,700,1.0,3-10,diminished
59346,49,37,540,1200,4.0,2-5,other
59347,55,36,100,760,11.0,2-3,minor
59348,50,43,400,30,11.0,2-3,minor
59349,40,49,1280,1100,11.0,2-3,minor
59350,62,52,820,820,4.0,3-11A,minor
59351,43,52,820,1100,4.0,3-11A,minor
59352,36,58,650,720,4.0,3-11A,minor
59353,60,32,1130,1920,4.0,2-3,minor
59354,48,49,330,1070,4.0,2-3,minor
59355,48,57,1300,1980,2.0,4-27B,major
59356,62,52,1110,820,6.0,2-3,minor
59357,48,52,230,1170,6.0,2-3,minor
59358,47,73,310,790,6.0,2-3,minor
59359,71,57,190,2640,6.0,4-23,minor
59360,71,63,330,520,6.0,4-23,minor
59361,47,40,2460,670,7.0,4-22A,major
59362,79,78,210,3180,3.0,1-1,other
59363,78,65,670,740,3.0,1-1,other
59364,71,57,630,30,3.0,1-1,other
59365,40,52,580,30,3.0,1-1,other
59366,67,54,620,2000,3.0,1-1,other
59367,72,71,510,2700,0.0,2-4,major
59368,79,60,370,30,0.0,2-4,major
59369,76,67,530,590,0.0,2-4,major
59370,60,49,1530,630,0.0,2-5,other
59371,52,51,450,1250,0.0,3-11B,major
59372,61,50,1450,2900,1.0,3-10,diminished
59373,52,46,300,1290,4.0,3-11A,minor
59374,62,41,1560,740,4.0,3-11A,minor
59375,84,54,310,6190,4.0,2-2,other
59376,96,54,470,2190,0.0,1-1,other
59377,84,39,590,60,0.0,1-1,other
59378,72,36,360,40,0.0,1-1,other
59379,47,57,8580,5160,0.0,1-1,other
59380,51,51,1980,960,0.0,1-1,other
59381,51,45,5520,2170,7.0,4-22A,major
59382,79,50,4270,1160,7.0,4-22A,major
59383,71,48,4250,60,7.0,2-5,other
59384,57,26,4230,50,7.0,2-5,other
59385,47,33,190,9500,7.0,2-5,other
59386,66,63,900,880,7.0,2-5,other
59387,66,66,410,1290,4.0,2-5,other
59388,64,63,260,2020,6.0,2-2,other
59389,64,53,1310,2980,7.0,2-4,major
59390,49,48,540,1220,7.0,2-4,major
59391,55,48,790,3130,7.0,2-3,minor
59392,47,76,3250,2250,4.0,2-2,other
59393,47,42,300,3520,4.0,2-2,other
59394,61,45,520,1720,11.0,2-2,other
59395,75,60,440,1240,11.0,2-2,other
59396,52,39,540,70,11.0,2-2,other
59397,61,48,7560,2000,3.0,2-4,other
59398,66,52,6600,870,3.0,2-4,other
59399,69,48,340,760,3.0,2-4,other
59400,71,47,380,700,3.0,2-4,other
59401,73,54,230,450,3.0,2-4,other
59402,75,57,70,240,3.0,2-4,other
59403,77,72,210,200,3.0,2-4,other
59404,79,72,160,210,3.0,2-4,other
59405,81,72,60,150,3.0,2-4,other
59406,83,69,220,200,3.0,2-4,other
59407,85,79,230,190,3.0,2-4,other
59408,87,61,70,200,3.0,2-4,other
59409,89,76,260,150,3.0,2-4,other
59410,91,75,160,250,3.0,2-4,other
59411,93,72,70,150,3.0,2-4,other
59412,95,66,210,220,3.0,2-4,other
59413,97,66,220,200,3.0,2-4,other
59414,99,57,220,220,3.0,2-4,other
59415,52,44,63,0,5.0,2-4,major
59416,50,68,122,471,7.0,2-3,minor
59417,57,61,74,63,7.0,2-3,minor
59418,58,60,14,63,7.0,2-3,minor
59419,48,73,61,358,5.0,1-1,other
59420,55,81,54,57,5.0,1-1,other
59421,57,80,18,60,5.0,1-1,other
59422,45,95,12,68,5.0,1-1,other
59423,54,57,63,291,10.0,2-5,other
59424,55,55,87,64,10.0,2-5,other
59425,46,63,9,51,10.0,2-5,other
59426,77,84,19,151,0.0,5-30B,other
59427,73,87,85,44,0.0,5-30B,other
59428,74,69,32,85,0.0,5-30B,other
59429,52,55,100,89,9.0,2-5,other
59430,59,62,67,58,9.0,2-5,other
59431,60,60,74,44,9.0,2-5,other
59432,38,72,28,80,9.0,2-5,other
59433,72,63,36,312,7.0,6-32,minor
59434,72,76,45,51,7.0,6-32,minor
59435,72,60,12,58,7.0,6-32,minor
59436,45,86,16,304,0.0,2-2,other
59437,50,93,18,240,5.0,4-16A,other
59438,74,77,45,306,7.0,3-11A,minor
59439,81,107,46,51,7.0,3-11A,minor
59440,80,97,44,58,7.0,3-11A,minor
59441,58,57,11,119,6.0,3-5A,other
59442,45,72,108,247,9.0,4-23,minor
59443,45,88,38,118,2.0,4-26,minor
59444,44,86,49,231,8.0,3-10,other
59445,62,70,11,29,8.0,3-10,other
59446,43,88,16,215,7.0,3-11A,minor
59447,44,35,7,38,7.0,3-11A,minor
59448,36,106,9,27,7.0,3-11A,minor
59449,48,68,86,299,5.0,4-22A,major
59450,57,70,122,62,5.0,4-22A,major
59451,81,91,59,51,5.0,4-22A,major
59452,79,78,31,33,5.0,4-22A,major
59453,57,61,6,64,11.0,2-6,other
59454,63,62,197,28,11.0,2-6,other
59455,65,61,167,28,11.0,2-6,other
59456,71,52,118,34,11.0,2-6,other
59457,79,66,28,66,11.0,2-6,other
59458,53,49,50,117,10.0,3-4A,other
59459,57,49,38,60,10.0,3-4A,other
59460,58,54,11,52,10.0,3-4A,other
59461,56,74,58,362,9.0,3-11A,minor
59462,57,67,59,60,9.0,3-11A,minor
59463,62,62,34,284,6.0,2-6,other
59464,65,70,26,34,6.0,2-6,other
59465,74,86,19,326,9.0,5-24A,minor
59466,72,82,38,33,9.0,5-24A,minor
59467,62,61,41,120,0.0,2-2,other
59468,60,59,36,117,5.0,4-20,other
59469,65,64,46,101,2.0,4-20,major
59470,65,51,128,113,3.0,4-20,major
59471,48,62,112,262,2.0,3-11A,minor
59472,57,74,42,56,2.0,3-11A,minor
59473,65,85,13,59,2.0,3-11A,minor
59474,44,56,8,471,5.0,1-1,other
59475,72,84,9,126,6.0,2-3,other
59476,72,87,220,303,3.0,2-5,other
59477,41,57,10,45,3.0,2-5,other
59478,70,1,38,31,3.0,2-5,other
59479,70,89,77,104,1.0,4-28,diminished
59480,58,64,32,106,8.0,2-2,other
59481,61,70,18,33,8.0,2-2,other
59482,46,77,101,103,1.0,5-23B,other
59483,53,80,111,233,8.0,4-28,diminished
59484,59,70,56,65,8.0,4-28,diminished
59485,50,48,4,53,8.0,4-28,diminished
59486,46,74,111,126,1.0,5-23B,other
59487,68,82,10,596,5.0,1-1,other
59488,72,64,20,134,5.0,3-11A,other
59489,73,81,42,107,0.0,3-11B,other
59490,70,80,10,105,5.0,3-8B,other
59491,82,103,21,108,7.0,4-27A,minor
59492,85,92,21,56,0.0,2-2,other
59493,82,79,16,65,0.0,2-2,other
59494,82,71,19,30,0.0,2-2,other
59495,81,72,21,26,0.0,2-2,other
59496,80,75,13,61,9.0,4-9,other
59497,79,63,17,27,9.0,4-9,other
59498,79,55,8,31,9.0,4-9,other
59499,57,59,198,92,9.0,2-4,major
59500,61,73,68,61,9.0,2-4,major
59501,56,55,59,179,9.0,4-22B,minor
59502,57,53,35,62,9.0,4-22B,minor
59503,50,50,10,33,9.0,4-22B,minor
59504,50,46,113,148,7.0,2-2,other
59505,65,61,30,102,10.0,4-20,major
59506,67,63,29,141,9.0,5-16A,other
59507,52,69,48,248,5.0,3-11B,major
59508,45,60,9,121,5.0,3-11B,major
59509,54,55,30,121,8.0,4-18A,diminished
59510,44,63,31,121,8.0,4-28,diminished
59511,55,74,77,204,10.0,2-4,major
59512,49,79,31,36,10.0,2-4,major
59513,50,60,8,244,10.0,2-4,major
59514,47,61,44,283,2.0,4-26,minor
59515,77,74,13,265,10.0,3-4B,other
59516,66,67,20,182,7.0,4-18A,major
59517,59,78,78,72,8.0,4-28,diminished
59518,56,77,75,120,8.0,5-31A,diminished
59519,26,91,8,357,2.0,2-4,major
59520,72,109,11,120,2.0,4-21,major
59521,62,51,22,27,2.0,4-21,major
59522,67,47,14,234,10.0,4-20,major
59523,72,86,11,116,0.0,3-6,major
59524,62,68,9,122,0.0,2-2,other
59525,65,49,29,511,0.0,2-4,other
59526,55,48,64,0,3.0,4-20,major
59527,57,53,53,174,9.0,2-6,other
59528,59,50,49,67,9.0,2-6,other
59529,52,64,60,177,8.0,2-1,other
59530,55,75,57,117,0.0,4-23,minor
59531,56,104,163,59,0.0,4-23,minor
59532,58,112,56,61,0.0,4-23,minor
59533,60,95,50,67,0.0,4-23,minor
59534,63,79,26,56,0.0,4-23,minor
59535,72,110,37,470,0.0,2-2,other
59536,70,104,17,228,0.0,4-26,other
59537,64,78,54,141,10.0,4-14A,other
59538,48,64,17,115,0.0,3-3A,major
59539,48,80,12,124,0.0,4-26,other
59540,80,98,69,122,0.0,3-11B,other
59541,34,98,15,57,0.0,3-11B,other
59542,78,73,19,205,7.0,2-5,other
59543,63,79,45,206,4.0,3-5B,other
59544,64,75,25,32,4.0,3-5B,other
59545,60,73,82,401,3.0,2-4,other
59546,62,85,31,43,3.0,2-4,other
59547,63,81,31,35,3.0,2-4,other
59548,46,70,57,344,2.0,4-18A,major
59549,57,82,124,55,2.0,4-18A,major
59550,72,72,26,187,11.0,2-2,other
59551,74,79,25,29,11.0,2-2,other
59552,75,80,31,27,11.0,2-2,other
59553,46,52,66,175,3.0,2-4,major
59554,58,54,24,123,7.0,1-1,other
59555,45,84,13,60,7.0,1-1,other
59556,58,50,11,897,0.0,2-4,major
59557,72,102,37,182,0.0,3-12,augmented
59558,48,73,151,190,0.0,4-26,other
59559,70,97,36,170,7.0,2-3,minor
59560,70,90,408,59,7.0,2-3,minor
59561,46,75,225,236,0.0,3-11B,other
59562,68,87,33,121,0.0,2-3,minor
59563,68,71,15,242,1.0,5-27B,other
59564,46,69,35,135,0.0,4-14A,minor
59565,62,75,31,226,7.0,4-23,minor
59566,52,85,146,242,1.0,4-28,diminished
59567,45,82,100,122,1.0,4-27A,diminished
59568,45,65,95,114,1.0,4-27A,diminished
59569,45,62,24,122,1.0,4-24,other
59570,72,67,15,125,3.0,2-5,other
59571,75,87,26,26,3.0,2-5,other
59572,51,59,15,112,9.0,4-18A,diminished
59573,50,66,43,115,0.0,4-26,minor
59574,44,64,7,122,0.0,4-26,minor
59575,75,92,18,215,6.0,5-31A,diminished
59576,75,66,10,30,6.0,5-31A,diminished
59577,72,69,10,236,0.0,2-3,minor
59578,72,58,7,89,3.0,3-11B,major
59579,75,96,25,33,3.0,3-11B,major
59580,53,25,58,222,1.0,3-10,other
59581,57,59,31,219,8.0,4-26,other
59582,58,73,30,37,8.0,4-26,other
59583,61,74,14,77,0.0,2-4,other
59584,65,81,29,42,0.0,2-4,other
59585,69,66,18,75,5.0,4-29B,other
59586,71,81,19,28,5.0,4-29B,other
59587,73,92,20,31,5.0,4-29B,other
59588,75,73,17,61,1.0,2-3,minor
59589,72,53,20,28,1.0,2-3,minor
59590,75,76,14,87,7.0,3-5B,other
59591,72,42,4,31,7.0,3-5B,other
59592,44,97,27,364,5.0,3-11A,other
59593,69,77,46,60,6.0,4-13B,minor
59594,63,76,9,445,2.0,3-2A,minor
59595,75,78,75,110,3.0,3-11B,major
59596,72,65,18,82,3.0,3-7B,other
59597,75,76,32,39,3.0,3-7B,other
59598,43,95,19,113,0.0,2-5,other
59599,57,72,14,809,2.0,1-1,other
59600,63,1,20,123,5.0,4-18A,major
59601,46,64,74,130,7.0,3-11A,minor
59602,46,67,43,127,3.0,4-20,major
59603,55,66,54,53,3.0,4-20,major
59604,58,70,201,60,3.0,4-20,major
59605,62,60,30,70,3.0,4-20,major
59606,67,61,39,51,3.0,4-20,major
59607,52,65,50,248,3.0,3-4B,other
59608,53,74,200,53,3.0,3-4B,other
59609,55,68,78,58,3.0,3-4B,other
59610,56,72,71,69,3.0,3-4B,other
59611,58,84,41,63,3.0,3-4B,other
59612,60,70,58,54,3.0,3-4B,other
59613,62,78,54,58,3.0,3-4B,other
59614,71,73,56,355,10.0,2-4,other
59615,72,70,24,123,0.0,4-24,augmented
59616,70,74,154,305,8.0,2-2,other
59617,34,76,43,56,8.0,2-2,other
59618,34,84,43,64,8.0,2-2,other
59619,68,81,31,60,8.0,2-2,other
59620,46,69,12,118,4.0,3-11B,major
59621,46,64,201,61,4.0,3-11B,major
59622,68,55,49,56,4.0,3-11B,major
59623,67,65,15,246,8.0,2-6,other
59624,48,67,34,616,0.0,4-26,other
59625,41,65,7,43,0.0,4-26,other
59626,46,75,7,71,0.0,4-26,other
59627,46,83,28,245,0.0,2-1,other
59628,44,82,33,445,6.0,4-18A,diminished
59629,45,92,25,36,6.0,4-18A,diminished
59630,63,1,194,81,11.0,3-8A,other
59631,44,98,75,35,11.0,3-8A,other
59632,44,83,67,98,11.0,3-8A,other
59633,37,79,29,37,11.0,3-8A,other
59634,51,33,16,227,1.0,4-27B,other
59635,79,110,29,126,0.0,5-27A,other
59636,72,55,31,77,0.0,2-3,minor
59637,75,72,31,41,0.0,2-3,minor
59638,68,52,9,78,8.0,2-1,other
59639,70,81,36,36,8.0,2-1,other
59640,67,75,18,79,0.0,3-11A,minor
59641,63,65,21,42,0.0,3-11A,minor
59642,57,72,27,82,3.0,4-19B,other
59643,56,75,34,39,3.0,4-19B,other
59644,49,68,40,82,3.0,3-12,augmented
59645,72,91,46,203,0.0,2-4,major
59646,72,91,20,74,0.0,2-4,major
59647,56,63,41,80,9.0,4-18A,diminished
59648,55,60,37,44,9.0,4-18A,diminished
59649,60,25,28,206,7.0,3-7A,minor
59650,67,43,20,290,8.0,2-2,other
59651,70,73,13,59,3.0,3-7A,other
59652,82,107,19,112,7.0,3-5B,other
59653,82,63,31,30,7.0,3-5B,other
59654,77,80,10,147,8.0,2-2,other
59655,80,90,25,80,7.0,2-2,other
59656,82,91,20,38,7.0,2-2,other
59657,72,62,20,80,3.0,3-8B,other
59658,77,81,31,43,3.0,3-8B,other
59659,75,94,30,77,0.0,2-2,other
59660,76,95,32,39,0.0,2-2,other
59661,72,64,16,75,1.0,2-3,other
59662,70,77,129,35,1.0,2-3,other
59663,68,78,18,26,1.0,2-3,other
59664,68,61,34,65,7.0,2-3,minor
59665,65,72,30,38,7.0,2-3,minor
59666,46,67,121,80,0.0,3-7A,minor
59667,46,93,125,160,4.0,5-32B,other
59668,70,69,14,81,8.0,4-27B,other
59669,51,75,54,515,3.0,3-11B,major
59670,50,95,41,120,3.0,3-11B,major
59671,58,7,7,120,3.0,3-11B,major
59672,51,69,13,122,3.0,3-11B,major
59673,45,64,30,121,0.0,4-26,minor
59674,57,74,39,601,1.0,5-26B,other
59675,72,76,13,355,0.0,3-8A,major
59676,55,63,21,106,0.0,4-26,other
59677,56,64,7,30,0.0,4-26,other
59678,70,72,16,186,0.0,4-20,other
59679,72,76,20,26,0.0,4-20,other
59680,56,39,52,62,3.0,2-4,major
59681,79,92,24,40,3.0,2-4,major
59682,75,73,25,36,3.0,2-4,major
59683,53,43,30,110,8.0,2-2,other
59684,46,80,34,245,8.0,4-28,diminished
59685,46,71,318,49,8.0,4-28,diminished
59686,46,78,27,389,7.0,3-11A,minor
59687,46,72,26,43,7.0,3-11A,minor
59688,46,72,45,48,7.0,3-11A,minor
59689,46,93,32,67,7.0,3-11A,minor
59690,33,84,6,238,9.0,4-25,other
59691,55,55,10,249,9.0,4-27B,major
59692,50,72,40,121,0.0,6-32,other
59693,48,49,31,83,0.0,4-26,other
59694,44,96,68,157,0.0,4-26,other
59695,72,79,10,97,0.0,4-26,other
59696,73,107,16,31,0.0,4-26,other
59697,75,82,20,65,2.0,4-12A,major
59698,72,62,8,29,2.0,4-12A,major
59699,68,52,14,115,0.0,2-5,other
59700,69,93,19,30,0.0,2-5,other
59701,65,67,11,69,6.0,2-6,other
59702,63,71,13,38,6.0,2-6,other
59703,65,92,32,106,3.0,2-1,other
59704,62,64,23,30,3.0,2-1,other
59705,60,54,21,70,3.0,3-11B,major
59706,60,68,17,44,3.0,3-11B,major
59707,46,74,78,118,0.0,2-5,other
59708,52,54,17,592,1.0,2-3,minor
59709,72,83,17,227,0.0,5-27A,other
59710,72,90,13,83,3.0,2-5,other
59711,63,71,8,136,0.0,4-20,other
59712,62,50,39,141,5.0,2-2,other
59713,63,66,9,34,5.0,2-2,other
59714,75,93,23,123,2.0,2-1,other
59715,63,81,14,144,1.0,3-1,other
59716,63,76,10,41,1.0,3-1,other
59717,54,75,48,39,1.0,3-1,other
59718,54,60,17,116,6.0,4-28,diminished
59719,34,93,16,825,8.0,4-24,other
59720,46,55,234,717,0.0,4-22B,minor
59721,75,72,253,184,9.0,2-6,other
59722,59,59,208,62,9.0,2-6,other
59723,61,51,127,51,9.0,2-6,other
59724,74,61,43,78,9.0,2-6,other
59725,44,45,463,54,9.0,2-6,other
59726,51,48,58,54,9.0,2-6,other
59727,60,71,21,833,0.0,3-8A,major
59728,48,89,61,121,5.0,3-7B,other
59729,55,90,77,59,5.0,3-7B,other
59730,58,92,46,188,0.0,3-11A,minor
59731,58,70,69,57,0.0,3-11A,minor
59732,46,81,278,121,0.0,2-3,minor
59733,46,66,47,299,3.0,4-27A,other
59734,46,64,69,65,3.0,4-27A,other
59735,67,62,26,66,3.0,4-27A,other
59736,39,94,48,473,0.0,4-26,minor
59737,46,87,52,478,5.0,2-5,other
59738,39,101,351,58,5.0,2-5,other
59739,39,75,58,418,0.0,2-3,minor
59740,46,69,398,58,0.0,2-3,minor
59741,46,51,40,549,3.0,3-11B,major
59742,55,52,37,51,3.0,3-11B,major
59743,58,47,310,40,3.0,3-11B,major
59744,60,53,22,36,3.0,3-11B,major
59745,65,53,30,44,3.0,3-11B,major
59746,70,59,18,35,3.0,3-11B,major
59747,72,70,21,43,3.0,3-11B,major
59748,77,56,22,44,3.0,3-11B,major
59749,82,67,21,31,3.0,3-11B,major
59750,84,63,36,37,3.0,3-11B,major
59751,84,47,18,59,3.0,3-11B,major
59752,84,53,23,57,3.0,3-11B,major
59753,84,33,43,63,3.0,3-11B,major
59754,76,67,15,0,2.0,5-27B,minor
59755,84,75,10,84,0.0,3-8A,major
59756,80,58,5,37,0.0,3-8A,major
59757,73,48,14,78,0.0,3-8A,major
59758,72,46,23,38,0.0,3-8A,major
59759,69,23,15,93,0.0,4-16B,major
59760,74,91,24,30,0.0,4-16B,major
59761,76,64,25,79,5.0,3-4A,major
59762,74,61,21,39,5.0,3-4A,major
59763,74,95,73,362,5.0,3-11B,major
59764,76,72,24,84,2.0,3-7A,minor
59765,74,94,23,274,4.0,2-4,major
59766,44,55,27,483,9.0,2-3,minor
59767,65,95,49,404,10.0,4-20,major
59768,64,82,25,35,10.0,4-20,major
59769,63,79,21,26,10.0,4-20,major
59770,62,70,33,28,10.0,4-20,major
59771,61,70,117,31,10.0,4-20,major
59772,46,49,25,76,10.0,4-20,major
59773,69,84,19,83,1.0,4-13A,other
59774,67,54,19,37,1.0,4-13A,other
59775,46,56,9,77,5.0,4-24,augmented
59776,55,62,23,38,5.0,4-24,augmented
59777,58,68,17,79,5.0,3-12,augmented
59778,57,61,44,211,9.0,2-3,minor
59779,65,82,29,43,9.0,2-3,minor
59780,67,77,24,35,9.0,2-3,minor
59781,72,66,13,322,10.0,5-27A,major
59782,84,73,37,114,2.0,3-7B,other
59783,84,54,10,121,4.0,4-25,other
59784,88,93,22,242,2.0,5-35,minor
59785,86,79,30,37,2.0,5-35,minor
59786,86,80,34,119,5.0,4-20,major
59787,70,62,23,227,1.0,4-12A,minor
59788,67,59,14,29,1.0,4-12A,minor
59789,69,70,30,59,5.0,5-21A,major
59790,72,79,22,33,5.0,5-21A,major
59791,74,95,22,31,5.0,5-21A,major
59792,74,74,24,65,9.0,3-11A,minor
59793,72,71,21,36,9.0,3-11A,minor
59794,74,70,23,29,9.0,3-11A,minor
59795,74,61,22,454,9.0,4-8,other
59796,74,89,40,249,7.0,3-5B,other
59797,74,55,34,122,6.0,4-9,other
59798,74,47,85,116,6.0,4-9,other
59799,50,69,16,153,6.0,3-5B,other
59800,50,53,32,207,7.0,5-27B,minor
59801,57,54,17,1001,5.0,3-11B,major
59802,65,90,16,71,5.0,3-11B,major
59803,36,80,17,172,10.0,4-22A,major
59804,52,51,30,161,2.0,4-26,minor
59805,53,80,109,38,2.0,4-26,minor
59806,52,53,38,110,2.0,4-26,minor
59807,48,56,22,123,2.0,3-11A,minor
59808,65,68,19,316,1.0,2-1,other
59809,67,95,31,41,1.0,2-1,other
59810,48,73,15,584,0.0,5-30B,other
59811,58,76,44,126,0.0,4-24,augmented
59812,62,51,23,172,2.0,5-35,minor
59813,68,71,39,185,9.0,5-13A,minor
59814,67,65,37,119,4.0,3-8B,other
59815,48,60,71,126,5.0,3-4A,major
59816,50,93,60,119,9.0,2-3,minor
59817,49,80,171,63,9.0,2-3,minor
59818,57,82,18,37,9.0,2-3,minor
59819,58,90,26,33,9.0,2-3,minor
59820,61,88,21,61,9.0,2-3,minor
59821,65,92,25,32,9.0,2-3,minor
59822,70,98,29,33,9.0,2-3,minor
59823,69,68,33,70,2.0,3-7B,other
59824,77,61,11,883,5.0,3-11B,major
59825,78,55,9,81,7.0,2-4,major
59826,75,60,7,115,4.0,3-11A,minor
59827,76,75,143,36,4.0,3-11A,minor
59828,79,48,6,740,1.0,3-10,other
59829,88,66,15,193,2.0,5-27B,minor
59830,84,71,18,33,2.0,5-27B,minor
59831,76,59,87,118,4.0,3-8B,other
59832,80,70,27,82,0.0,2-2,other
59833,84,90,32,40,0.0,2-2,other
59834,86,79,31,113,4.0,1-1,other
59835,86,63,26,78,5.0,4-20,major
59836,48,73,223,163,4.0,3-8B,other
59837,48,62,78,286,7.0,2-5,other
59838,76,87,23,53,7.0,2-5,other
59839,74,64,19,35,7.0,2-5,other
59840,74,66,14,226,8.0,2-6,other
59841,56,75,40,113,5.0,4-19B,other
59842,46,68,46,110,7.0,4-27A,minor
59843,50,71,17,255,0.0,4-24,augmented
59844,64,52,28,1200,7.0,2-2,other
59845,69,77,30,65,7.0,2-2,other
59846,47,87,41,300,2.0,4-26,minor
59847,48,70,68,45,2.0,4-26,minor
59848,47,65,39,77,2.0,4-26,minor
59849,48,46,28,47,2.0,4-26,minor
59850,48,47,19,71,2.0,4-26,minor
59851,48,63,17,43,2.0,4-26,minor
59852,80,73,9,1360,0.0,3-8A,major
59853,69,74,35,232,2.0,5-35,minor
59854,70,81,17,26,2.0,5-35,minor
59855,71,102,21,33,2.0,5-35,minor
59856,69,74,18,61,2.0,2-2,other
59857,65,59,30,27,2.0,2-2,other
59858,62,50,19,37,2.0,2-2,other
59859,63,88,24,78,9.0,3-8A,major
59860,57,77,26,30,9.0,3-8A,major
59861,60,67,20,72,7.0,2-3,minor
59862,63,95,26,35,7.0,2-3,minor
59863,67,89,30,77,2.0,3-9,other
59864,64,81,31,37,2.0,3-9,other
59865,72,82,10,487,5.0,4-24,augmented
59866,79,95,26,116,1.0,3-5B,other
59867,63,42,15,570,5.0,4-19B,augmented
59868,63,46,14,60,5.0,4-19B,augmented
59869,59,36,20,174,9.0,3-2A,minor
59870,48,61,71,284,8.0,2-6,other
59871,62,61,23,125,7.0,3-11A,minor
59872,76,90,25,121,2.0,3-11A,minor
59873,74,61,22,85,2.0,5-27B,minor
59874,72,97,21,282,0.0,3-8A,major
59875,76,90,81,117,2.0,4-26,minor
59876,74,55,42,523,2.0,3-9,other
59877,53,45,29,68,2.0,3-9,other
59878,74,63,23,232,8.0,2-6,other
59879,56,68,41,115,10.0,3-9,other
59880,46,58,47,115,5.0,3-8B,other
59881,50,47,79,372,7.0,2-3,minor
59882,54,81,53,242,7.0,4-14A,minor
59883,50,72,12,122,10.0,3-11B,major
59884,71,81,27,126,5.0,6-24A,other
59885,69,81,26,616,9.0,2-3,minor
59886,65,50,30,183,10.0,5-27A,major
59887,69,49,114,292,9.0,4-17,other
59888,70,36,6,0,2.0,3-3A,minor
59889,34,33,11,207,1.0,7-32A,other
59890,35,62,23,65,1.0,7-32A,other
59891,29,28,14,1802,5.0,2-2,other
59892,58,37,28,3116,10.0,4-22A,major
59893,61,71,73,47,10.0,4-22A,major
59894,63,87,214,83,10.0,4-22A,major
59895,39,72,37,242,7.0,2-2,other
59896,38,84,103,43,7.0,2-2,other
59897,58,51,10,78,7.0,2-2,other
59898,34,38,27,237,3.0,4-24,augmented
59899,65,70,20,1885,2.0,4-29A,minor
59900,67,61,15,32,2.0,4-29A,minor
59901,70,88,30,38,2.0,4-29A,minor
59902,72,64,23,36,2.0,4-29A,minor
59903,70,87,25,39,2.0,4-29A,minor
59904,46,49,20,43,2.0,4-29A,minor
59905,46,47,33,80,2.0,4-29A,minor
59906,41,42,123,44,2.0,4-29A,minor
59907,38,47,127,128,2.0,4-29A,minor
59908,34,45,110,131,2.0,4-29A,minor
59909,33,46,126,122,2.0,4-29A,minor
59910,55,47,17,44,2.0,4-29A,minor
59911,60,80,26,39,2.0,4-29A,minor
59912,65,78,36,81,1.0,2-2,other
59913,38,44,106,72,2.0,2-1,other
59914,38,53,74,125,2.0,2-1,other
59915,32,53,26,81,2.0,2-1,other
59916,31,64,106,36,2.0,2-1,other
59917,34,51,35,196,4.0,2-2,other
59918,36,48,116,40,4.0,2-2,other
59919,55,55,7,82,4.0,2-2,other
59920,40,36,66,38,4.0,2-2,other
59921,41,37,127,121,3.0,2-1,other
59922,60,51,14,39,3.0,2-1,other
59923,63,86,30,35,3.0,2-1,other
59924,63,55,19,82,7.0,2-2,other
59925,56,57,24,84,0.0,2-2,other
59926,55,54,17,41,0.0,2-2,other
59927,55,60,13,273,3.0,2-5,other
59928,46,54,67,41,3.0,2-5,other
59929,46,38,40,84,3.0,2-5,other
59930,55,48,81,39,3.0,2-5,other
59931,46,34,22,91,3.0,2-5,other
59932,51,78,106,31,3.0,2-5,other
59933,52,60,91,116,3.0,2-5,other
59934,60,53,23,59,3.0,2-5,other
59935,61,32,34,32,3.0,2-5,other
59936,64,40,24,72,4.0,2-1,other
59937,66,71,25,39,4.0,2-1,other
59938,69,59,23,82,1.0,2-6,other
59939,70,72,27,36,1.0,2-6,other
59940,75,68,22,81,1.0,2-1,other
59941,74,58,18,115,5.0,1-1,other
59942,77,76,26,39,5.0,1-1,other
59943,70,28,26,76,2.0,2-3,minor
59944,65,53,23,39,2.0,2-3,minor
59945,39,33,83,42,2.0,2-3,minor
59946,36,38,24,92,2.0,2-3,minor
59947,37,65,110,37,2.0,2-3,minor
59948,34,34,33,86,2.0,2-3,minor
59949,68,83,28,85,2.0,1-1,other
59950,67,44,28,108,8.0,2-2,other
59951,62,68,71,98,3.0,2-4,major
59952,62,80,28,193,11.0,1-1,other
59953,38,38,87,157,7.0,2-3,minor
59954,37,43,29,80,7.0,2-3,minor
59955,39,46,96,35,7.0,2-3,minor
59956,37,34,42,72,7.0,2-3,minor
59957,40,50,75,45,7.0,2-3,minor
59958,60,49,80,371,2.0,2-3,minor
59959,53,38,9,75,2.0,2-3,minor
59960,57,58,14,241,0.0,2-2,other
59961,34,59,25,115,10.0,2-4,major
59962,31,55,85,39,10.0,2-4,major
59963,35,44,23,87,10.0,2-4,major
59964,38,70,79,32,10.0,2-4,major
59965,35,45,27,90,10.0,2-4,major
59966,36,31,81,40,10.0,2-4,major
59967,55,55,22,28,10.0,2-4,major
59968,57,62,21,41,10.0,2-4,major
59969,59,71,18,80,4.0,2-6,other
59970,60,68,27,118,11.0,2-6,other
59971,63,56,33,73,2.0,3-7A,minor
59972,64,60,21,41,2.0,3-7A,minor
59973,62,55,31,159,10.0,2-5,other
59974,44,31,33,372,0.0,2-2,other
59975,39,73,139,114,9.0,1-1,other
59976,37,42,31,128,9.0,1-1,other
59977,38,49,122,37,9.0,1-1,other
59978,60,62,34,45,9.0,1-1,other
59979,63,64,16,41,9.0,1-1,other
59980,42,31,104,29,9.0,1-1,other
59981,66,64,16,50,9.0,1-1,other
59982,72,87,23,81,9.0,2-2,other
59983,70,68,24,39,9.0,2-2,other
59984,69,70,25,79,2.0,2-4,major
59985,67,51,26,39,2.0,2-4,major
59986,62,50,9,39,2.0,2-4,major
59987,62,47,21,119,7.0,2-2,other
59988,58,62,29,240,5.0,2-5,other
59989,53,49,8,120,8.0,2-2,other
59990,59,54,24,77,10.0,1-1,other
59991,61,72,24,40,10.0,1-1,other
59992,64,55,26,41,10.0,1-1,other
59993,66,67,21,40,10.0,1-1,other
59994,69,55,20,85,3.0,2-5,other
59995,72,75,23,39,3.0,2-5,other
59996,67,40,27,81,10.0,1-1,other
59997,64,41,28,40,10.0,1-1,other
59998,61,62,12,40,10.0,1-1,other
59999,55,31,81,40,10.0,1-1,other
60000,46,34,33,85,10.0,1-1,other
60001,51,73,42,120,10.0,1-1,other
60002,52,57,90,47,10.0,1-1,other
60003,52,61,100,117,10.0,1-1,other
60004,66,57,21,156,4.0,1-1,other
60005,75,59,18,117,4.0,2-3,minor
60006,74,62,28,153,2.0,2-3,minor
60007,65,49,10,119,10.0,2-4,major
60008,41,41,92,37,10.0,2-4,major
60009,37,39,23,90,10.0,2-4,major
60010,39,37,107,35,10.0,2-4,major
60011,37,21,22,95,10.0,2-4,major
60012,68,85,27,115,7.0,2-5,other
60013,43,30,112,144,6.0,2-1,other
60014,63,40,55,27,6.0,2-1,other
60015,60,47,77,112,11.0,2-3,minor
60016,55,62,12,312,0.0,1-1,other
60017,43,30,82,27,0.0,1-1,other
60018,39,43,28,88,0.0,1-1,other
60019,42,47,90,36,0.0,1-1,other
60020,39,38,29,82,0.0,1-1,other
60021,41,42,176,40,0.0,1-1,other
60022,53,57,18,44,0.0,1-1,other
60023,55,70,22,36,0.0,1-1,other
60024,41,50,166,126,8.0,2-3,other
60025,57,75,70,41,8.0,2-3,other
60026,53,30,12,81,8.0,2-3,other
60027,57,37,15,123,11.0,2-2,other
60028,38,34,103,147,8.0,2-3,other
60029,34,36,32,91,8.0,2-3,other
60030,46,33,21,242,11.0,3-8A,other
60031,39,42,31,112,0.0,4-15B,other
60032,40,50,80,41,0.0,4-15B,other
60033,41,35,141,93,9.0,3-10,diminished
60034,65,63,9,70,9.0,3-10,diminished
60035,67,66,18,34,9.0,3-10,diminished
60036,72,77,18,113,10.0,2-5,other
60037,74,28,21,86,0.0,3-2B,other
60038,34,79,122,317,5.0,1-1,other
60039,40,35,16,99,5.0,1-1,other
60040,33,64,144,27,5.0,1-1,other
60041,67,48,9,87,5.0,1-1,other
60042,75,77,30,77,5.0,2-2,other
60043,74,69,26,77,2.0,2-2,other
60044,72,63,21,41,2.0,2-2,other
60045,70,69,22,37,2.0,2-2,other
60046,65,51,20,75,6.0,1-1,other
60047,65,53,25,108,7.0,2-5,other
60048,62,43,28,29,7.0,2-5,other
60049,62,55,47,92,7.0,2-3,minor
60050,55,65,7,176,0.0,1-1,other
60051,42,37,97,33,0.0,1-1,other
60052,39,34,25,82,0.0,1-1,other
60053,58,49,41,76,8.0,2-3,other
60054,56,51,24,31,8.0,2-3,other
60055,56,32,22,62,7.0,2-2,other
60056,67,57,21,172,5.0,2-2,other
60057,72,46,15,128,10.0,2-1,other
60058,74,69,25,68,1.0,2-2,other
60059,70,67,22,36,1.0,2-2,other
60060,67,50,16,34,1.0,2-2,other
60061,62,26,45,75,3.0,2-5,other
60062,65,72,26,58,3.0,2-5,other
60063,39,42,83,144,7.0,2-3,minor
60064,46,51,25,84,7.0,2-3,minor
60065,52,61,113,39,7.0,2-3,minor
60066,49,45,117,122,7.0,2-3,minor
60067,84,92,22,120,4.0,2-6,other
60068,82,75,31,39,4.0,2-6,other
60069,72,44,27,78,1.0,1-1,other
60070,70,53,24,39,1.0,1-1,other
60071,65,55,17,176,10.0,2-1,other
60072,58,49,21,108,10.0,2-4,major
60073,55,64,274,41,10.0,2-4,major
60074,37,38,23,83,10.0,2-4,major
60075,39,45,93,38,10.0,2-4,major
60076,37,30,29,78,10.0,2-4,major
60077,38,48,103,35,10.0,2-4,major
60078,56,46,22,47,10.0,2-4,major
60079,60,69,24,39,10.0,2-4,major
60080,60,50,80,409,10.0,3-6,major
60081,55,57,7,72,10.0,3-6,major
60082,39,38,120,34,10.0,3-6,major
60083,37,25,30,84,10.0,3-6,major
60084,43,51,96,34,10.0,3-6,major
60085,39,37,33,82,10.0,3-6,major
60086,39,36,31,124,6.0,2-6,other
60087,56,64,23,120,11.0,2-6,other
60088,29,25,104,32,11.0,2-6,other
60089,36,44,22,84,11.0,2-6,other
60090,41,66,127,40,11.0,2-6,other
60091,32,42,18,84,11.0,2-6,other
60092,33,57,116,37,11.0,2-6,other
60093,55,66,8,204,10.0,1-1,other
60094,46,63,82,34,10.0,1-1,other
60095,39,35,25,86,10.0,1-1,other
60096,44,57,91,34,10.0,1-1,other
60097,39,25,33,82,10.0,1-1,other
60098,43,48,74,36,10.0,1-1,other
60099,35,58,22,85,10.0,1-1,other
60100,36,57,84,38,10.0,1-1,other
60101,39,47,28,194,3.0,4-29A,other
60102,41,54,221,40,3.0,4-29A,other
60103,77,66,23,164,2.0,2-1,other
60104,41,31,32,160,10.0,2-5,other
60105,34,37,96,164,8.0,4-27B,other
60106,41,34,17,90,8.0,4-27B,other
60107,46,78,86,30,8.0,4-27B,other
60108,42,45,30,86,8.0,4-27B,other
60109,49,29,88,152,0.0,3-11A,minor
60110,77,80,24,157,10.0,5-30B,other
60111,70,57,12,117,2.0,1-1,other
60112,67,39,20,165,10.0,2-1,other
60113,69,60,23,75,10.0,2-4,other
60114,67,62,30,32,10.0,2-4,other
60115,46,36,30,136,2.0,1-1,other
60116,47,44,23,125,7.0,4-26,minor
60117,41,51,33,118,0.0,4-20,other
60118,46,57,83,41,0.0,4-20,other
60119,41,50,15,208,3.0,3-9,other
60120,58,54,24,242,7.0,2-5,other
60121,58,83,263,117,0.0,2-2,other
60122,55,40,28,31,0.0,2-2,other
60123,46,29,16,87,0.0,2-2,other
60124,39,48,82,35,0.0,2-2,other
60125,46,50,34,82,0.0,2-2,other
60126,46,33,37,123,1.0,2-3,minor
60127,46,43,33,240,4.0,2-6,other
60128,41,30,91,265,10.0,2-5,other
60129,51,74,110,119,8.0,2-2,other
60130,49,72,104,123,8.0,2-2,other
60131,46,34,27,82,8.0,2-2,other
60132,44,32,90,149,5.0,3-11A,other
60133,43,29,129,107,3.0,3-11A,other
60134,66,67,36,85,8.0,2-3,minor
60135,59,36,20,69,3.0,2-4,major
60136,55,62,154,166,0.0,3-7B,other
60137,43,38,103,62,0.0,3-7B,other
60138,51,56,19,84,0.0,3-7B,other
60139,39,38,66,34,0.0,3-7B,other
60140,39,38,33,85,0.0,3-7B,other
60141,42,62,102,38,0.0,3-7B,other
60142,39,38,31,77,0.0,3-7B,other
60143,62,60,86,758,2.0,2-1,other
60144,65,59,22,92,2.0,2-1,other
60145,39,23,26,116,7.0,2-1,other
60146,42,27,7,167,7.0,2-2,other
60147,41,91,141,72,7.0,2-2,other
60148,29,54,21,119,7.0,2-2,other
60149,33,51,87,43,7.0,2-2,other
60150,60,60,9,35,7.0,2-2,other
60151,62,69,20,38,7.0,2-2,other
60152,67,69,25,123,10.0,2-5,other
60153,41,37,10,125,10.0,2-5,other
60154,46,61,85,156,8.0,2-2,other
60155,42,33,26,81,8.0,2-2,other
60156,49,47,107,148,9.0,2-6,other
60157,46,30,20,90,9.0,2-6,other
60158,70,70,31,67,2.0,2-2,other
60159,65,50,21,35,2.0,2-2,other
60160,60,35,24,58,2.0,2-1,other
60161,58,53,22,28,2.0,2-1,other
60162,57,69,28,153,7.0,2-3,minor
60163,50,62,140,101,7.0,3-3A,minor
60164,37,59,30,33,7.0,3-3A,minor
60165,36,55,197,51,7.0,3-3A,minor
60166,51,46,30,72,7.0,3-3A,minor
60167,55,62,20,87,0.0,2-4,major
60168,55,46,26,122,10.0,2-5,other
60169,56,46,33,35,10.0,2-5,other
60170,60,54,22,75,10.0,2-5,other
60171,63,32,26,86,10.0,2-4,major
60172,64,50,32,40,10.0,2-4,major
60173,66,62,30,42,10.0,2-4,major
60174,71,24,11,85,8.0,2-2,other
60175,75,71,34,115,3.0,2-1,other
60176,70,51,24,39,3.0,2-1,other
60177,67,65,27,363,4.0,2-6,other
60178,46,38,24,240,4.0,2-3,minor
60179,42,46,29,118,1.0,4-28,diminished
60180,42,61,31,121,1.0,4-28,diminished
60181,43,44,23,45,1.0,4-28,diminished
60182,41,66,22,73,1.0,4-28,diminished
60183,53,75,28,120,10.0,3-11B,major
60184,51,46,65,48,10.0,3-11B,major
60185,51,46,27,80,10.0,3-11B,major
60186,49,53,32,119,0.0,5-24A,minor
60187,42,37,28,118,10.0,4-22A,major
60188,42,34,27,112,3.0,3-9,other
60189,48,32,114,255,3.0,3-11B,major
60190,72,40,58,163,0.0,5-27B,minor
60191,48,38,75,106,3.0,4-20,major
60192,39,44,28,80,3.0,4-20,major
60193,40,48,97,42,3.0,4-20,major
60194,39,42,30,74,3.0,4-20,major
60195,36,25,13,115,5.0,5-30B,augmented
60196,41,24,108,153,5.0,3-11B,major
60197,63,49,40,40,5.0,3-11B,major
60198,32,26,24,30,5.0,3-11B,major
60199,42,44,87,288,7.0,4-26,minor
60200,39,23,11,95,7.0,4-26,minor
60201,43,34,18,234,8.0,5-30B,other
60202,36,45,11,241,1.0,4-26,other
60203,55,62,64,160,5.0,1-1,other
60204,46,72,23,201,10.0,1-1,other
60205,45,58,91,44,10.0,1-1,other
60206,38,47,100,228,3.0,2-4,major
60207,63,83,74,237,0.0,2-3,minor
60208,38,34,124,111,2.0,2-1,other
60209,60,73,27,99,2.0,2-1,other
60210,54,29,18,357,7.0,1-1,other
60211,55,57,94,146,9.0,2-3,minor
60212,48,66,15,82,9.0,2-3,minor
60213,41,57,74,47,9.0,2-3,minor
60214,29,72,148,76,9.0,2-3,minor
60215,34,48,129,159,9.0,2-3,minor
60216,53,53,8,54,9.0,2-3,minor
60217,62,76,17,99,8.0,2-2,other
60218,65,108,25,37,8.0,2-2,other
60219,58,37,33,77,3.0,1-1,other
60220,55,43,9,44,3.0,1-1,other
60221,46,40,265,64,3.0,1-1,other
60222,44,23,42,83,3.0,1-1,other
60223,55,54,81,37,3.0,1-1,other
60224,49,26,28,206,5.0,2-4,other
60225,52,45,81,30,5.0,2-4,other
60226,55,45,12,43,5.0,2-4,other
60227,57,66,34,29,5.0,2-4,other
60228,60,55,20,82,4.0,2-6,other
60229,61,64,31,35,4.0,2-6,other
60230,64,50,26,78,1.0,2-2,other
60231,67,46,23,81,6.0,2-5,other
60232,69,48,10,40,6.0,2-5,other
60233,40,36,94,316,2.0,2-1,other
60234,69,46,22,339,2.0,2-2,other
60235,39,36,31,595,0.0,4-26,minor
60236,39,37,36,120,7.0,2-3,minor
60237,42,42,97,36,7.0,2-3,minor
60238,41,47,97,122,9.0,3-10,diminished
60239,29,75,22,79,9.0,3-10,diminished
60240,50,46,15,719,3.0,5-26A,other
60241,47,44,79,38,3.0,5-26A,other
60242,39,39,34,195,0.0,4-26,minor
60243,42,47,102,40,0.0,4-26,minor
60244,39,36,26,89,0.0,4-26,minor
60245,29,71,17,120,5.0,4-12A,major
60246,82,69,17,41,5.0,4-12A,major
60247,79,36,11,44,5.0,4-12A,major
60248,56,31,29,993,1.0,3-10,other
60249,50,34,63,414,10.0,4-22A,major
60250,28,76,222,312,10.0,3-11B,major
60251,34,35,35,123,10.0,3-11B,major
60252,83,55,21,307,4.0,4-21,other
60253,42,45,23,1363,8.0,2-6,other
60254,44,45,84,37,8.0,2-6,other
60255,43,40,116,94,11.0,4-16B,other
60256,26,59,51,347,0.0,4-26,minor
60257,38,36,62,54,0.0,4-26,minor
60258,27,74,47,71,0.0,4-26,minor
60259,39,37,56,46,0.0,4-26,minor
60260,28,67,65,70,0.0,4-26,minor
60261,40,44,69,44,0.0,4-26,minor
60262,29,68,55,76,0.0,4-26,minor
60263,51,44,18,128,5.0,3-8A,major
60264,51,39,30,124,6.0,6-41B,minor
60265,38,67,16,332,2.0,2-3,minor
60266,82,37,42,296,1.0,5-19A,minor
60267,89,69,16,418,2.0,4-29A,minor
60268,91,70,17,31,2.0,4-29A,minor
60269,94,78,26,37,2.0,4-29A,minor
60270,96,82,19,75,2.0,4-29A,minor
60271,94,59,10,43,2.0,4-29A,minor
60272,94,76,22,81,2.0,4-29A,minor
60273,91,60,21,44,2.0,4-29A,minor
60274,38,59,30,1628,10.0,4-16A,other
60275,51,43,14,255,3.0,3-11B,major
60276,29,58,19,932,10.0,3-9,other
60277,65,43,15,48,10.0,3-9,other
60278,67,32,14,34,10.0,3-9,other
60279,70,57,21,37,10.0,3-9,other
60280,72,44,21,38,10.0,3-9,other
60281,74,74,20,63,10.0,3-9,other
60282,75,81,19,63,10.0,3-9,other
60283,79,64,21,77,5.0,4-16A,other
60284,81,74,16,35,5.0,4-16A,other
60285,79,39,7,448,10.0,1-1,other
60286,48,59,19,123,2.0,2-2,other
60287,39,56,18,244,3.0,4-17,major
60288,40,36,93,41,3.0,4-17,major
60289,39,28,21,77,3.0,4-17,major
60290,30,44,17,1947,5.0,1-1,other
60291,27,32,26,221,1.0,1-1,other
60292,58,32,20,836,10.0,1-1,other
60293,61,47,61,41,10.0,1-1,other
60294,37,37,9,205,3.0,1-1,other
60295,52,34,40,1006,7.0,2-3,minor
60296,56,39,18,202,10.0,3-11B,major
60297,37,48,78,38,10.0,3-11B,major
60298,37,44,6,212,3.0,1-1,other
60299,38,43,21,468,7.0,4-27B,major
60300,36,27,18,847,7.0,4-27A,minor
60301,68,95,10,0,8.0,4-26,other
60302,72,99,12,59,8.0,4-26,other
60303,75,87,46,53,8.0,4-26,other
60304,74,49,27,133,6.0,4-15B,minor
60305,72,50,38,239,4.0,4-15B,other
60306,72,75,6,131,1.0,5-30B,other
60307,51,68,42,112,7.0,4-18A,major
60308,55,74,30,119,4.0,3-11A,minor
60309,65,70,5,126,0.0,4-22B,minor
60310,68,80,15,75,8.0,2-3,other
60311,72,38,9,32,8.0,2-3,other
60312,72,70,12,28,8.0,2-3,other
60313,75,76,27,98,1.0,4-22A,other
60314,74,65,44,114,10.0,4-22A,major
60315,73,68,29,119,9.0,4-22A,major
60316,63,69,25,274,2.0,3-2A,minor
60317,65,66,30,88,4.0,2-4,major
60318,65,52,114,47,4.0,2-4,major
60319,67,90,47,76,4.0,2-4,major
60320,68,97,22,53,4.0,2-4,major
60321,72,85,31,38,4.0,2-4,major
60322,72,71,15,133,0.0,5-27A,other
60323,75,69,19,43,0.0,5-27A,other
60324,27,79,14,151,0.0,5-24A,minor
60325,75,73,8,205,5.0,5-30B,other
60326,67,72,17,111,7.0,2-1,other
60327,70,88,21,28,7.0,2-1,other
60328,71,83,20,46,7.0,2-1,other
60329,74,88,24,30,7.0,2-1,other
60330,71,54,17,32,7.0,2-1,other
60331,75,66,12,75,2.0,2-2,other
60332,78,74,10,101,5.0,2-1,other
60333,79,77,14,26,5.0,2-1,other
60334,80,92,10,31,5.0,2-1,other
60335,75,75,8,427,5.0,3-8A,major
60336,65,86,24,171,8.0,5-27B,other
60337,65,79,33,94,5.0,3-12,augmented
60338,68,84,27,136,5.0,3-11B,other
60339,72,107,11,46,5.0,3-11B,other
60340,75,109,43,45,5.0,3-11B,other
60341,85,74,32,141,3.0,4-29A,other
60342,84,66,31,115,2.0,5-25B,minor
60343,83,66,43,120,1.0,5-25B,minor
60344,68,75,22,332,4.0,3-2A,minor
60345,70,71,25,28,4.0,3-2A,minor
60346,72,65,26,30,4.0,3-2A,minor
60347,31,92,11,346,3.0,3-5B,other
60348,71,53,6,643,2.0,2-1,other
60349,68,51,6,30,2.0,2-1,other
60350,70,57,39,30,2.0,2-1,other
60351,72,80,60,108,7.0,2-1,other
60352,63,56,16,372,7.0,4-18A,minor
60353,27,74,8,469,5.0,4-11A,other
60354,75,89,29,122,5.0,3-8B,other
60355,53,63,155,244,0.0,5-37,other
60356,75,55,9,222,0.0,2-5,other
60357,79,78,17,34,0.0,2-5,other
60358,87,66,14,84,9.0,4-27A,diminished
60359,51,48,19,82,5.0,1-1,other
60360,38,72,5,75,5.0,1-1,other
60361,74,73,19,244,8.0,2-2,other
60362,50,71,310,118,11.0,3-7A,minor
60363,59,69,15,49,11.0,3-7A,minor
60364,64,105,31,64,11.0,3-7A,minor
60365,64,97,38,50,11.0,3-7A,minor
60366,50,74,151,201,0.0,3-11B,major
60367,76,61,5,236,7.0,2-5,other
60368,66,70,13,208,2.0,2-5,other
60369,74,86,25,36,2.0,2-5,other
60370,55,61,111,166,7.0,4-20,major
60371,65,85,18,160,8.0,2-6,other
60372,63,49,21,26,8.0,2-6,other
60373,79,76,9,367,4.0,2-5,other
60374,72,110,14,193,6.0,3-10,diminished
60375,66,81,8,30,6.0,3-10,diminished
60376,52,95,111,150,11.0,4-26,minor
60377,72,62,21,336,0.0,2-5,other
60378,76,30,17,119,4.0,3-11B,major
60379,76,52,87,55,9.0,4-26,minor
60380,39,75,8,59,9.0,4-26,minor
60381,38,60,4,61,9.0,4-26,minor
60382,71,54,7,307,7.0,4-20,major
60383,65,66,15,97,8.0,4-28,diminished
60384,68,107,21,33,8.0,4-28,diminished
60385,48,81,17,225,0.0,3-7A,minor
60386,41,77,48,414,6.0,3-2A,other
60387,57,100,174,162,10.0,3-11A,other
60388,53,59,36,165,5.0,2-4,other
60389,68,67,9,110,1.0,2-5,other
60390,76,73,20,258,3.0,2-1,other
60391,73,62,33,209,4.0,4-15B,other
60392,72,55,7,95,1.0,5-6A,other
60393,44,62,107,29,1.0,5-6A,other
60394,75,77,26,490,0.0,3-11A,minor
60395,60,52,65,52,6.0,4-13B,other
60396,41,81,13,397,9.0,5-12,diminished
60397,53,78,28,43,9.0,5-12,diminished
60398,67,94,18,424,8.0,3-8A,other
60399,56,60,48,269,0.0,4-10,minor
60400,27,62,9,177,3.0,4-18A,major
60401,75,74,10,47,3.0,4-18A,major
60402,44,58,351,79,3.0,4-18A,major
60403,66,52,13,961,7.0,4-22A,major
60404,66,43,26,720,0.0,4-29B,other
60405,48,73,57,179,2.0,5-31B,major
60406,52,77,9,356,4.0,4-15A,other
60407,50,66,83,485,1.0,2-2,other
60408,38,89,84,37,1.0,2-2,other
60409,61,60,15,298,11.0,3-2B,minor
60410,62,51,30,26,11.0,3-2B,minor
60411,79,80,61,419,9.0,4-26,minor
60412,76,69,48,57,9.0,4-26,minor
60413,55,62,12,35,9.0,4-26,minor
60414,78,110,16,66,6.0,3-8B,other
60415,50,95,35,125,6.0,3-10,other
60416,67,77,10,26,6.0,3-10,other
60417,48,60,9,446,0.0,3-7A,minor
60418,67,88,10,204,5.0,3-11B,other
60419,70,84,13,44,5.0,3-11B,other
60420,73,74,11,36,5.0,3-11B,other
60421,53,63,56,338,10.0,3-11A,other
60422,53,56,63,117,5.0,4-19B,other
60423,68,112,23,142,8.0,4-26,other
60424,72,107,26,37,8.0,4-26,other
60425,75,88,35,52,8.0,4-26,other
60426,80,93,19,126,4.0,3-8A,other
60427,79,90,10,27,4.0,3-8A,other
60428,62,46,70,160,4.0,4-2A,major
60429,72,59,8,168,1.0,5-9B,other
60430,62,48,20,269,11.0,2-3,minor
60431,86,61,43,201,7.0,3-11B,major
60432,51,59,55,141,3.0,2-5,other
60433,55,67,52,58,3.0,2-5,other
60434,56,66,237,54,3.0,2-5,other
60435,41,72,21,699,9.0,3-10,diminished
60436,48,71,19,26,9.0,3-10,diminished
60437,46,60,50,1092,3.0,1-1,other
60438,57,67,25,198,5.0,3-4A,other
60439,56,63,58,26,5.0,3-4A,other
60440,65,45,20,110,1.0,2-6,other
60441,75,53,18,37,1.0,2-6,other
60442,51,60,428,121,7.0,4-18A,major
60443,55,65,31,45,7.0,4-18A,major
60444,56,66,21,34,7.0,4-18A,major
60445,59,76,23,54,7.0,2-3,minor
60446,91,72,42,296,0.0,3-11B,other
60447,91,64,28,59,8.0,2-2,other
60448,60,45,34,35,8.0,2-2,other
60449,65,50,28,80,0.0,2-3,minor
60450,67,48,46,41,0.0,2-3,minor
60451,68,33,41,54,0.0,2-3,minor
60452,36,46,29,0,,,
60453,43,61,133,843,5.0,4-22A,major
60454,36,46,43,129,5.0,4-22A,major
60455,43,91,77,340,5.0,4-22A,major
60456,36,66,45,131,5.0,4-22A,major
60457,43,42,127,355,5.0,4-22A,major
60458,77,90,49,184,0.0,2-4,major
60459,79,77,34,119,0.0,4-20,major
60460,43,27,19,175,5.0,4-22A,major
60461,79,45,6,100,5.0,4-22A,major
60462,79,40,451,58,9.0,4-26,minor
60463,43,95,134,317,5.0,4-22A,major
60464,36,64,28,132,5.0,4-22A,major
60465,81,70,10,208,7.0,2-3,minor
60466,55,49,81,91,5.0,4-22A,major
60467,55,42,16,112,5.0,4-22A,major
60468,76,82,44,241,0.0,3-11B,major
60469,72,60,44,244,7.0,4-13B,other
60470,88,27,39,370,1.0,4-13B,diminished
60471,55,54,8,112,5.0,3-3B,other
60472,67,77,15,124,2.0,4-26,minor
60473,72,81,32,92,9.0,4-4B,other
60474,60,70,50,120,5.0,3-3B,major
60475,67,51,21,176,5.0,4-22A,major
60476,91,71,20,334,5.0,3-9,other
60477,79,28,64,29,5.0,3-9,other
60478,43,53,5,27,5.0,3-9,other
60479,88,84,25,38,5.0,3-9,other
60480,77,60,41,32,5.0,3-9,other
60481,77,44,19,71,0.0,2-4,major
60482,67,44,21,29,0.0,2-4,major
60483,67,55,16,108,0.0,4-20,major
60484,67,45,11,28,0.0,4-20,major
60485,67,44,16,28,0.0,4-20,major
60486,69,68,24,66,5.0,4-22A,major
60487,79,54,14,114,0.0,2-5,other
60488,79,53,18,31,0.0,2-5,other
60489,76,29,17,27,0.0,2-5,other
60490,76,94,12,211,0.0,3-4A,major
60491,77,101,12,26,0.0,3-4A,major
60492,79,82,8,64,5.0,4-22A,major
60493,79,66,9,36,5.0,4-22A,major
60494,79,50,12,96,7.0,1-1,other
60495,79,37,7,225,0.0,4-20,major
60496,79,34,7,28,0.0,4-20,major
60497,79,35,22,28,0.0,4-20,major
60498,80,64,22,66,5.0,4-14A,other
60499,84,94,39,271,0.0,3-11B,major
60500,65,37,72,451,7.0,3-2B,other
60501,68,51,12,28,7.0,3-2B,other
60502,77,79,23,30,7.0,3-2B,other
60503,100,32,19,696,11.0,4-10,minor
60504,64,43,13,112,5.0,2-4,other
60505,50,51,15,121,2.0,4-26,minor
60506,79,57,22,493,0.0,3-11B,major
60507,72,49,266,109,0.0,3-4A,major
60508,79,69,160,115,4.0,3-7A,minor
60509,43,46,56,119,5.0,4-22A,major
60510,46,47,15,359,5.0,4-20,other
60511,61,23,7,124,1.0,5-31B,other
60512,72,57,30,226,0.0,2-3,minor
60513,73,72,22,37,0.0,2-3,minor
60514,75,55,18,61,1.0,4-22A,other
60515,75,53,8,29,1.0,4-22A,other
60516,75,51,12,295,3.0,1-1,other
60517,75,42,15,78,0.0,3-7A,minor
60518,75,49,14,26,0.0,3-7A,minor
60519,82,51,23,712,5.0,3-11B,other
60520,45,64,194,273,0.0,3-7A,minor
60521,72,91,19,401,0.0,3-11B,other
60522,73,85,14,36,0.0,3-11B,other
60523,43,62,6,102,3.0,3-12,augmented
60524,62,74,23,121,3.0,4-27A,other
60525,76,62,14,126,0.0,4-20,major
60526,79,48,17,122,4.0,4-15B,other
60527,86,76,15,242,5.0,3-4A,other
60528,54,37,77,96,8.0,4-12B,diminished
60529,71,48,4,148,4.0,4-14B,major
60530,43,41,13,344,5.0,4-22A,major
60531,31,52,6,119,5.0,4-22A,major
60532,43,37,79,122,9.0,4-23,minor
60533,43,36,58,117,8.0,4-28,diminished
60534,76,36,16,230,0.0,3-4A,major
60535,77,89,17,33,0.0,3-4A,major
60536,79,71,27,66,5.0,4-22A,major
60537,79,60,18,35,5.0,4-22A,major
60538,79,45,14,28,5.0,4-22A,major
60539,79,36,16,209,9.0,2-2,other
60540,79,43,13,27,9.0,2-2,other
60541,79,1,60,414,0.0,2-4,major
60542,74,28,15,765,2.0,5-34,major
60543,73,47,7,470,6.0,4-5B,other
60544,60,44,29,248,2.0,4-26,minor
60545,65,67,17,236,2.0,6-32,minor
60546,74,53,17,119,4.0,4-29A,minor
60547,84,65,25,121,0.0,4-22A,major
60548,84,63,22,91,0.0,4-22A,major
60549,43,44,18,208,5.0,2-5,other
60550,43,17,58,64,5.0,2-5,other
60551,43,45,128,422,5.0,4-22A,major
60552,72,51,17,80,5.0,4-22A,major
60553,79,80,21,65,0.0,2-4,major
60554,83,90,16,40,0.0,2-4,major
60555,86,67,31,150,2.0,2-1,other
60556,43,45,15,157,2.0,5-35,minor
60557,83,92,22,172,0.0,3-11B,major
60558,79,71,267,121,0.0,4-20,major
60559,43,37,15,173,5.0,4-22A,major
60560,82,81,25,288,9.0,6-33A,minor
60561,81,74,10,40,9.0,6-33A,minor
60562,55,48,126,73,5.0,4-22A,major
60563,67,30,37,80,5.0,4-22A,major
60564,84,62,11,202,4.0,2-2,other
60565,76,36,45,96,0.0,2-5,other
60566,54,90,86,60,0.0,2-5,other
60567,60,79,21,868,2.0,3-11A,minor
60568,60,74,13,144,9.0,2-3,minor
60569,60,62,18,28,9.0,2-3,minor
60570,60,63,13,102,5.0,4-22A,major
60571,79,60,20,113,0.0,3-11B,major
60572,67,45,22,32,0.0,3-11B,major
60573,62,71,55,695,4.0,2-3,minor
60574,43,36,43,119,7.0,2-4,major
60575,76,99,21,217,0.0,3-4A,major
60576,77,87,12,38,0.0,3-4A,major
60577,55,40,159,462,4.0,3-7A,minor
60578,52,43,40,295,0.0,4-11A,major
60579,91,53,15,85,11.0,2-3,minor
60580,96,95,19,70,0.0,3-4A,major
60581,94,87,18,28,0.0,3-4A,major
60582,93,91,12,29,0.0,3-4A,major
60583,91,54,30,161,5.0,4-22A,major
60584,55,34,18,55,5.0,4-22A,major
60585,56,27,111,57,5.0,4-22A,major
60586,73,42,7,811,0.0,2-2,other
60587,40,63,16,338,5.0,4-20,major
60588,29,55,20,115,5.0,3-11B,major
60589,60,66,21,118,5.0,4-2B,major
60590,84,66,15,236,0.0,2-4,major
60591,84,66,15,37,0.0,2-4,major
60592,43,33,27,95,5.0,5-20B,other
60593,43,29,87,116,0.0,5-20B,other
60594,55,45,37,183,0.0,3-11B,major
60595,40,54,5,295,1.0,4-27A,diminished
60596,75,48,242,113,0.0,5-27A,other
60597,72,61,11,251,1.0,4-22A,other
60598,96,53,95,263,3.0,2-4,major
60599,84,39,4,424,3.0,3-4B,other
60600,72,60,13,514,0.0,2-2,other
60601,68,63,27,86,3.0,2-4,major
60602,70,74,17,32,3.0,2-4,major
60603,70,57,25,26,3.0,2-4,major
60604,67,80,24,352,2.0,2-2,other
60605,70,77,16,72,0.0,3-11B,other
60606,55,50,23,758,5.0,3-4A,other
60607,74,50,64,110,10.0,5-30B,other
60608,32,73,9,56,10.0,5-30B,other
60609,62,50,9,332,6.0,3-5B,other
60610,43,53,8,95,2.0,5-35,minor
60611,31,60,4,57,2.0,5-35,minor
60612,43,36,89,293,5.0,4-14A,other
60613,81,18,17,557,9.0,4-26,minor
60614,81,32,4,354,9.0,3-7A,minor
60615,84,103,20,261,0.0,3-4A,major
60616,59,54,53,82,5.0,3-6,major
60617,68,46,45,307,8.0,2-3,other
60618,76,44,13,107,4.0,2-3,minor
60619,84,78,30,34,4.0,2-3,minor
60620,76,52,11,66,6.0,4-27A,diminished
60621,62,48,14,324,4.0,2-3,minor
60622,74,45,12,456,5.0,2-4,major
60623,69,63,11,80,5.0,3-11B,major
60624,72,89,16,110,5.0,5-11A,major
60625,72,78,15,26,5.0,5-11A,major
60626,72,68,13,26,5.0,5-11A,major
60627,72,44,9,124,0.0,1-1,other
60628,79,34,8,382,0.0,2-4,major
60629,55,62,109,90,5.0,3-11B,other
60630,82,62,20,1656,9.0,6-33A,minor
60631,81,61,9,34,9.0,6-33A,minor
60632,55,39,96,88,5.0,4-22A,major
60633,76,58,24,351,6.0,3-7A,minor
60634,54,46,34,120,4.0,4-12A,major
60635,72,38,15,157,8.0,3-10,other
60636,38,75,12,535,2.0,4-26,minor
60637,83,48,106,728,2.0,3-7B,other
60638,86,60,9,358,4.0,4-26,minor
60639,71,37,19,129,9.0,2-3,minor
60640,67,69,12,112,5.0,4-16A,major
60641,67,73,15,30,5.0,4-16A,major
60642,64,68,21,29,5.0,4-16A,major
60643,55,51,11,810,5.0,4-22A,major
60644,43,42,48,122,5.0,4-22A,major
60645,36,42,17,53,5.0,4-22A,major
60646,82,57,24,121,9.0,6-33A,minor
60647,81,57,12,59,9.0,6-33A,minor
60648,55,53,12,111,5.0,3-6,major
60649,43,50,98,58,5.0,3-6,major
60650,44,49,22,125,5.0,3-6,major
60651,67,40,40,543,4.0,4-26,minor
60652,40,73,60,600,2.0,3-11A,minor
60653,60,51,10,282,5.0,4-22A,major
60654,72,45,22,82,0.0,2-4,major
60655,72,58,18,31,0.0,2-4,major
60656,72,57,19,81,0.0,3-11B,major
60657,72,55,15,33,0.0,3-11B,major
60658,72,53,16,26,0.0,3-11B,major
60659,72,58,185,27,0.0,3-11B,major
60660,43,31,191,168,5.0,3-9,other
60661,72,82,28,113,0.0,4-22A,major
60662,72,64,33,123,0.0,2-4,major
60663,51,48,123,119,0.0,5-27A,other
60664,61,40,28,121,1.0,4-18A,diminished
60665,44,36,29,62,1.0,4-18A,diminished
60666,75,43,16,581,3.0,1-1,other
60667,84,113,98,585,0.0,3-7A,minor
60668,82,60,13,93,1.0,4-22A,other
60669,84,108,87,33,1.0,4-22A,other
60670,82,57,10,86,5.0,3-11B,other
60671,84,94,25,33,5.0,3-11B,other
60672,80,76,164,70,3.0,3-9,other
60673,63,14,35,85,3.0,3-9,other
60674,75,46,11,68,3.0,3-9,other
60675,45,54,167,55,3.0,3-9,other
60676,45,38,13,182,3.0,3-11B,other
60677,73,75,25,249,0.0,3-11B,other
60678,43,66,10,105,0.0,3-11B,other
60679,57,62,13,501,9.0,4-14A,minor
60680,95,36,5,443,0.0,3-8B,other
60681,50,38,25,80,0.0,3-8B,other
60682,43,59,28,188,5.0,4-22A,major
60683,43,36,19,769,7.0,1-1,other
60684,43,57,26,570,5.0,3-11B,major
60685,36,84,32,32,5.0,3-11B,major
60686,84,90,25,184,0.0,3-4A,major
60687,82,85,22,34,0.0,3-4A,major
60688,79,49,59,65,9.0,3-5B,other
60689,77,61,49,161,9.0,3-7B,other
60690,76,51,25,130,8.0,4-28,diminished
60691,79,40,27,1379,0.0,1-1,other
60692,76,31,182,32,0.0,1-1,other
60693,43,45,147,302,7.0,2-4,major
60694,107,70,7,197,4.0,2-5,other
60695,43,40,137,279,5.0,4-22A,major
60696,43,38,84,485,5.0,4-22A,major
60697,36,54,36,122,5.0,4-22A,major
60698,43,38,326,405,5.0,4-22A,major
60699,36,44,227,0,0.0,2-5,other
60700,59,38,336,1846,0.0,3-6,major
60701,101,34,1086,2434,9.0,2-3,minor
60702,89,50,1322,57,9.0,2-3,minor
60703,79,58,653,5088,0.0,1-1,other
60704,48,62,1227,31,0.0,1-1,other
60705,55,32,624,661,0.0,1-1,other
60706,64,32,1153,1371,7.0,3-9,other
60707,86,74,154,1246,7.0,2-5,other
60708,72,54,993,623,2.0,3-11A,minor
60709,67,48,426,468,2.0,3-11A,minor
60710,62,38,520,522,2.0,3-11A,minor
60711,55,33,168,515,2.0,3-11A,minor
60712,43,28,1053,621,2.0,3-11A,minor
60713,53,18,1056,58,2.0,3-11A,minor
60714,64,57,400,1131,2.0,3-11A,minor
60715,65,60,822,403,2.0,3-11A,minor
60716,53,40,954,7502,0.0,3-11A,minor
60717,52,43,158,1028,7.0,3-11A,minor
60718,58,60,802,676,10.0,2-4,major
60719,67,57,162,680,10.0,3-11B,major
60720,74,24,53,26,10.0,3-11B,major
60721,55,33,245,821,9.0,4-18A,major
60722,76,44,768,2125,9.0,3-3A,major
60723,69,32,259,30,9.0,3-3A,major
60724,77,40,1162,1742,9.0,3-3A,major
60725,57,38,460,1080,2.0,2-3,minor
60726,81,52,587,2194,5.0,2-5,other
60727,64,58,646,557,5.0,2-5,other
60728,62,58,658,1131,3.0,4-16A,major
60729,60,49,619,1224,0.0,2-1,other
60730,58,64,706,1286,11.0,2-6,other
60731,57,57,731,732,2.0,3-9,other
60732,56,62,552,729,2.0,3-9,other
60733,55,53,611,544,2.0,3-9,other
60734,54,67,332,483,2.0,3-9,other
60735,53,47,403,372,2.0,3-9,other
60736,72,57,941,436,4.0,2-3,minor
60737,56,62,2342,943,4.0,2-3,minor
60738,76,81,449,1581,7.0,2-5,other
60739,79,85,930,574,7.0,2-5,other
60740,74,72,450,459,7.0,2-5,other
60741,71,67,361,938,9.0,2-3,minor
60742,64,45,701,401,9.0,2-3,minor
60743,71,51,428,440,7.0,2-4,major
60744,64,36,159,448,7.0,2-4,major
60745,72,32,527,53,7.0,2-4,major
60746,60,24,154,32,7.0,2-4,major
60747,64,28,635,530,7.0,2-4,major
60748,54,18,242,1502,2.0,2-4,major
60749,60,37,990,583,2.0,2-4,major
60750,72,47,542,1048,9.0,2-5,other
60751,74,69,447,425,9.0,2-5,other
60752,69,13,351,859,0.0,3-12,augmented
60753,69,14,226,816,0.0,2-4,major
60754,76,32,673,607,8.0,2-2,other
60755,69,24,893,129,0.0,2-4,major
60756,50,27,2829,2074,2.0,1-1,other
60757,71,46,1146,160,0.0,2-4,other
60758,76,33,849,138,0.0,2-4,other
60759,74,62,871,908,0.0,2-4,other
60760,72,63,778,706,0.0,2-4,other
60761,71,52,837,691,0.0,2-4,other
60762,69,46,676,755,0.0,2-4,other
60763,70,51,1379,719,0.0,2-4,other
60764,44,38,489,64,0.0,2-4,other
60765,54,36,149,478,0.0,2-4,other
60766,61,32,1923,655,0.0,2-4,other
60767,63,39,200,539,0.0,2-4,other
60768,65,40,168,310,0.0,2-4,other
60769,66,53,209,183,0.0,2-4,other
60770,68,56,158,198,0.0,2-4,other
60771,70,46,54,176,0.0,2-4,other
60772,72,36,92,162,0.0,2-4,other
60773,73,38,64,156,0.0,2-4,other
60774,75,49,53,178,0.0,2-4,other
60775,77,60,73,146,0.0,2-4,other
60776,78,42,131,163,0.0,2-4,other
60777,80,46,77,137,0.0,2-4,other
60778,82,30,120,103,0.0,2-4,other
60779,84,54,128,152,0.0,2-4,other
60780,85,52,143,190,0.0,2-4,other
60781,87,46,170,277,0.0,2-4,other
60782,89,41,162,192,0.0,2-4,other
60783,90,57,182,160,0.0,2-4,other
60784,91,71,813,230,0.0,2-4,other
60785,31,36,516,104,0.0,2-4,other
60786,43,20,608,29,0.0,2-4,other
60787,91,42,512,730,0.0,2-4,other
60788,81,56,594,1518,9.0,2-3,minor
60789,53,22,260,955,4.0,3-11A,minor
60790,91,55,661,922,4.0,3-11A,minor
60791,43,22,636,34,4.0,3-11A,minor
60792,79,55,1199,2756,4.0,3-11A,minor
60793,76,60,1291,44,4.0,3-11A,minor
60794,74,57,1245,30,4.0,3-11A,minor
60795,55,29,1608,1336,7.0,2-4,major
60796,67,49,614,749,7.0,2-4,major
60797,71,61,264,521,7.0,2-4,major
60798,74,74,130,378,7.0,2-4,major
60799,55,40,61,976,2.0,4-26,minor
60800,43,35,1424,498,2.0,4-26,minor
60801,31,36,706,484,2.0,4-26,minor
60802,53,32,474,560,2.0,4-26,minor
60803,57,50,475,503,2.0,4-26,minor
60804,43,33,520,1070,0.0,3-4B,other
60805,67,50,266,480,0.0,3-4B,other
60806,55,48,547,557,2.0,3-9,other
60807,59,37,116,546,4.0,4-26,minor
60808,55,57,413,1475,2.0,4-26,minor
60809,50,49,631,513,2.0,4-26,minor
60810,43,55,522,536,2.0,4-26,minor
60811,59,55,400,535,4.0,2-3,minor
60812,65,68,194,449,4.0,2-3,minor
60813,64,54,69,48,4.0,2-3,minor
60814,52,33,555,565,9.0,4-23,minor
60815,43,55,568,554,9.0,4-23,minor
60816,62,66,66,563,4.0,3-11A,minor
60817,71,68,208,701,4.0,4-26,minor
60818,41,1,453,3331,6.0,4-26,minor
60819,40,57,160,918,9.0,4-27A,diminished
60820,67,54,264,69,7.0,3-11A,minor
60821,58,55,129,754,7.0,3-11A,minor
60822,63,32,53,360,7.0,3-11A,minor
60823,56,46,225,368,7.0,4-26,minor
60824,64,32,163,2565,9.0,3-3A,major
60825,76,42,606,35,9.0,3-3A,major
60826,78,12,277,598,9.0,3-3A,major
60827,76,26,502,415,9.0,4-23,minor
60828,77,45,633,960,9.0,4-23,minor
60829,59,33,2171,3566,4.0,3-7B,other
60830,71,49,384,2160,4.0,3-7B,other
60831,67,19,278,69,4.0,2-2,other
60832,56,50,142,725,4.0,2-2,other
60833,79,52,499,2425,9.0,2-5,other
60834,60,33,167,1344,0.0,2-4,major
60835,59,20,96,45,0.0,2-4,major
60836,50,42,694,722,0.0,3-11B,major
60837,67,30,880,30,0.0,3-11B,major
60838,65,33,859,29,0.0,3-11B,major
60839,57,51,1556,673,0.0,3-11B,major
60840,77,60,297,1340,5.0,3-4A,major
60841,76,63,375,372,5.0,3-4A,major
60842,72,38,296,3101,4.0,2-5,other
60843,74,58,254,293,4.0,2-5,other
60844,34,50,128,296,4.0,2-5,other
60845,76,58,1670,37,4.0,2-5,other
60846,56,37,432,2216,4.0,2-5,other
60847,58,35,295,206,4.0,2-5,other
60848,60,44,197,274,4.0,2-5,other
60849,64,58,264,221,4.0,2-5,other
60850,67,53,141,273,4.0,2-5,other
60851,68,29,232,223,4.0,2-5,other
60852,70,30,176,131,4.0,2-5,other
60853,72,36,288,245,4.0,2-5,other
60854,76,55,258,254,4.0,2-5,other
60855,79,52,171,272,4.0,2-5,other
60856,80,35,74,363,4.0,2-5,other
60857,82,36,251,354,4.0,2-5,other
60858,84,62,280,374,4.0,2-5,other
60859,88,31,210,555,4.0,2-5,other
60860,91,14,232,26,4.0,2-5,other
60861,91,56,427,427,4.0,2-5,other
60862,45,42,549,565,5.0,2-4,other
60863,52,38,155,450,5.0,2-4,other
60864,85,30,525,513,5.0,2-4,other
60865,86,56,384,557,1.0,2-3,minor
60866,64,32,360,50,1.0,2-3,minor
60867,85,39,683,619,1.0,2-3,minor
60868,84,49,514,675,4.0,1-1,other
60869,82,48,307,474,4.0,1-1,other
60870,81,50,314,380,4.0,1-1,other
60871,79,38,266,344,4.0,1-1,other
60872,78,52,312,325,4.0,1-1,other
60873,77,50,406,373,4.0,1-1,other
60874,60,47,1070,26,4.0,1-1,other
60875,50,32,2737,56,4.0,1-1,other
60876,79,47,320,404,4.0,1-1,other
60877,76,44,370,418,4.0,1-1,other
60878,57,31,1778,43,4.0,1-1,other
60879,77,63,421,349,4.0,1-1,other
60880,72,54,190,888,0.0,3-3B,other
60881,69,51,300,414,0.0,3-3B,other
60882,65,40,148,444,0.0,3-3B,other
60883,53,24,947,779,0.0,2-5,other
60884,57,46,363,637,0.0,2-5,other
60885,50,17,4443,27,0.0,2-5,other
60886,60,62,669,1425,8.0,3-10,minor
60887,67,57,203,1295,8.0,2-3,minor
60888,64,39,608,1710,8.0,2-3,minor
60889,43,24,2077,59,7.0,2-4,major
60890,52,18,326,31,7.0,2-4,major
60891,52,31,1586,547,7.0,2-4,major
60892,67,56,168,944,9.0,2-2,other
60893,69,73,322,499,9.0,2-2,other
60894,76,84,488,432,9.0,2-2,other
60895,62,35,593,1034,5.0,3-4A,major
60896,55,34,190,541,5.0,3-4A,major
60897,50,37,728,540,5.0,3-4A,major
60898,43,30,686,623,5.0,3-4A,major
60899,53,22,800,65,5.0,3-4A,major
60900,63,44,1459,754,5.0,3-4A,major
60901,59,34,680,27,5.0,3-4A,major
60902,68,18,650,91,5.0,3-4A,major
60903,62,29,629,1978,5.0,3-4A,major
60904,36,26,403,67,4.0,4-22B,minor
60905,67,60,172,1191,4.0,4-22B,minor
60906,55,26,556,60,4.0,4-22B,minor
60907,74,79,245,885,11.0,1-1,other
60908,55,38,148,1055,7.0,2-2,other
60909,69,81,651,1400,9.0,2-3,minor
60910,70,43,166,552,9.0,2-3,minor
60911,71,70,123,121,9.0,2-3,minor
60912,72,77,365,203,9.0,2-3,minor
60913,71,31,58,50,9.0,2-3,minor
60914,55,48,154,920,7.0,1-1,other
60915,74,71,121,1117,0.0,2-1,other
60916,60,35,1512,605,2.0,3-11A,minor
60917,55,31,310,552,2.0,3-11A,minor
60918,43,35,261,526,2.0,3-11A,minor
60919,56,40,379,688,2.0,3-11A,minor
60920,55,36,597,718,2.0,3-11A,minor
60921,36,39,1182,74,2.0,3-11A,minor
60922,43,34,1090,616,2.0,3-11A,minor
60923,52,36,677,606,2.0,3-11A,minor
60924,67,54,268,412,2.0,3-11A,minor
60925,71,54,266,348,2.0,3-11A,minor
60926,74,71,134,378,2.0,3-11A,minor
60927,55,35,1360,910,5.0,3-11B,major
60928,54,37,766,1556,9.0,3-11B,major
60929,52,37,82,1393,7.0,3-11A,minor
60930,67,49,208,2501,1.0,3-3A,minor
60931,50,43,491,1376,5.0,3-11B,major
60932,53,17,2184,3421,4.0,2-5,other
60933,74,83,448,1814,4.0,2-5,other
60934,73,31,302,389,4.0,2-5,other
60935,72,29,205,221,4.0,2-5,other
60936,71,46,168,184,4.0,2-5,other
60937,77,74,406,237,4.0,2-5,other
60938,74,41,189,390,4.0,2-2,other
60939,76,70,485,315,4.0,2-2,other
60940,64,68,317,2618,8.0,2-2,other
60941,62,42,208,347,8.0,2-2,other
60942,60,49,271,291,8.0,2-2,other
60943,59,55,853,344,8.0,2-2,other
60944,55,34,2526,106,8.0,2-2,other
60945,45,38,2310,32,8.0,2-2,other
60946,60,57,503,641,8.0,2-2,other
60947,56,73,477,562,8.0,2-2,other
60948,57,80,383,486,8.0,2-2,other
60949,59,58,360,452,8.0,2-2,other
60950,52,24,165,51,8.0,2-2,other
60951,60,70,333,374,8.0,2-2,other
60952,60,67,533,472,8.0,2-2,other
60953,50,36,2438,53,8.0,2-2,other
60954,62,40,355,875,2.0,2-5,other
60955,57,24,1704,80,2.0,2-5,other
60956,64,67,285,384,2.0,2-5,other
60957,64,62,219,450,2.0,2-5,other
60958,60,30,596,61,2.0,2-5,other
60959,68,63,258,364,2.0,2-5,other
60960,71,58,221,861,6.0,3-8A,other
60961,68,38,253,509,0.0,2-1,other
60962,72,64,345,445,0.0,2-1,other
60963,74,46,1320,1040,0.0,1-1,other
60964,73,43,1760,1241,0.0,1-1,other
60965,44,29,491,37,0.0,1-1,other
60966,54,45,140,459,0.0,1-1,other
60967,60,41,1490,546,0.0,1-1,other
60968,72,47,377,1010,10.0,2-5,other
60969,73,57,448,452,10.0,2-5,other
60970,74,62,398,506,10.0,2-5,other
60971,75,57,371,437,10.0,2-5,other
60972,50,27,663,33,10.0,2-5,other
60973,72,40,208,925,4.0,2-3,minor
60974,67,35,272,621,5.0,3-4B,other
60975,52,26,1401,1285,4.0,3-7A,minor
60976,59,18,323,32,4.0,3-7A,minor
60977,59,36,697,584,4.0,3-7A,minor
60978,71,64,311,1070,4.0,2-3,minor
60979,74,72,149,445,4.0,2-3,minor
60980,65,60,1683,501,4.0,2-3,minor
60981,55,34,70,544,9.0,2-3,minor
60982,43,34,197,480,9.0,2-3,minor
60983,31,40,881,517,9.0,2-3,minor
60984,43,22,573,558,9.0,2-3,minor
60985,53,32,365,528,9.0,2-3,minor
60986,56,52,301,486,9.0,2-3,minor
60987,55,37,553,535,9.0,2-3,minor
60988,43,27,2163,62,9.0,2-3,minor
60989,52,32,1592,485,9.0,2-3,minor
60990,62,48,163,869,7.0,2-4,major
60991,67,82,291,411,7.0,2-4,major
60992,74,80,150,397,7.0,2-4,major
60993,55,36,1296,536,5.0,3-11B,major
60994,43,32,737,512,5.0,3-11B,major
60995,53,25,1101,1040,3.0,4-19A,other
60996,43,26,1120,771,3.0,4-19A,other
60997,67,39,899,579,3.0,4-19A,other
60998,43,30,2167,688,11.0,4-23,minor
60999,55,43,197,762,11.0,4-23,minor
61000,59,89,309,464,11.0,4-23,minor
61001,62,74,602,475,11.0,4-23,minor
61002,69,31,115,3346,0.0,4-22B,minor
61003,70,56,192,587,4.0,1-1,other
61004,77,33,68,1841,10.0,4-20,major
61005,81,76,538,1261,5.0,2-4,major
61006,67,33,213,2728,1.0,2-3,other
61007,67,35,163,752,9.0,4-18A,major
61008,52,32,605,723,1.0,3-10,minor
61009,67,16,391,157,1.0,3-10,minor
61010,60,44,499,2064,5.0,4-20,major
61011,50,24,621,1483,2.0,3-11A,minor
61012,72,26,398,28,2.0,3-11A,minor
61013,43,20,137,1336,7.0,3-7B,other
61014,59,40,886,667,2.0,3-2B,minor
61015,53,29,939,1163,4.0,2-5,other
61016,62,24,624,1693,9.0,3-11A,minor
61017,56,35,685,584,7.0,2-4,major
61018,71,52,158,568,7.0,2-4,major
61019,62,37,906,667,7.0,4-18A,major
61020,81,43,633,1378,7.0,3-11B,major
61021,45,38,81,547,7.0,3-11B,major
61022,79,50,2947,35,7.0,3-11B,major
61023,64,37,1075,595,7.0,3-11B,major
61024,60,32,378,1483,5.0,2-1,other
61025,59,27,440,39,5.0,2-1,other
61026,76,46,2899,941,9.0,3-11B,major
61027,77,64,226,3014,9.0,3-11B,major
61028,78,67,319,318,9.0,3-11B,major
61029,50,45,540,368,9.0,3-11B,major
61030,79,57,480,26,9.0,3-11B,major
61031,57,49,1728,542,9.0,3-11B,major
61032,65,26,253,605,9.0,2-5,other
61033,77,76,537,975,9.0,2-5,other
61034,76,65,404,572,9.0,2-5,other
61035,64,51,1858,1053,7.0,2-2,other
61036,53,12,1865,127,4.0,2-5,other
61037,72,40,209,2160,4.0,2-5,other
61038,74,48,251,280,4.0,2-5,other
61039,56,40,1239,1881,4.0,2-6,other
61040,58,37,876,371,4.0,2-6,other
61041,62,44,384,376,4.0,2-6,other
61042,64,49,151,333,4.0,2-6,other
61043,56,25,75,1602,4.0,2-2,other
61044,45,40,675,566,1.0,2-2,other
61045,55,16,531,32,1.0,2-2,other
61046,52,40,152,551,1.0,2-2,other
61047,57,51,659,683,1.0,2-2,other
61048,59,45,959,665,1.0,2-2,other
61049,61,46,301,781,1.0,2-2,other
61050,57,56,522,1907,0.0,4-22A,major
61051,64,51,725,599,0.0,4-22A,major
61052,63,62,686,653,9.0,4-26,minor
61053,62,36,651,638,5.0,3-11B,major
61054,76,43,338,614,5.0,3-11B,major
61055,60,35,768,760,7.0,3-8A,major
61056,74,31,819,31,7.0,3-8A,major
61057,59,34,387,757,7.0,3-8A,major
61058,43,20,163,899,4.0,3-5B,other
61059,59,35,1408,811,5.0,2-1,other
61060,72,55,1283,904,5.0,2-1,other
61061,74,39,608,1069,5.0,2-1,other
61062,48,37,83,5208,0.0,2-4,major
61063,64,32,1321,842,0.0,2-4,major
61064,60,26,1280,67,0.0,2-4,major
61065,59,15,1250,43,0.0,2-4,major
61066,67,52,458,520,0.0,2-4,major
61067,71,50,176,597,0.0,2-4,major
61068,74,72,200,329,0.0,2-4,major
61069,53,30,680,2287,4.0,2-5,other
61070,69,54,226,657,4.0,2-5,other
61071,72,64,315,258,4.0,2-5,other
61072,67,52,2084,318,4.0,4-26,minor
61073,62,22,520,866,4.0,4-26,minor
61074,52,13,423,75,7.0,2-4,major
61075,71,57,201,1250,7.0,3-11B,major
61076,74,64,212,265,7.0,3-11B,major
61077,77,50,197,632,5.0,4-22A,major
61078,65,25,640,666,5.0,4-22A,major
61079,57,24,670,53,0.0,2-5,other
61080,55,16,321,965,5.0,2-4,major
61081,76,40,260,572,5.0,2-4,major
61082,52,24,1261,330,5.0,2-4,major
61083,86,71,135,1824,11.0,2-3,minor
61084,55,44,713,1013,5.0,3-11B,major
61085,53,28,806,1973,9.0,2-2,other
61086,52,34,96,894,7.0,3-11A,minor
61087,74,51,123,2304,4.0,2-6,other
61088,77,62,135,262,4.0,2-6,other
61089,55,15,2256,356,5.0,3-12,augmented
61090,69,36,116,264,5.0,3-12,augmented
61091,70,43,160,876,5.0,3-12,augmented
61092,69,50,187,109,5.0,3-12,augmented
61093,68,51,124,191,5.0,3-12,augmented
61094,69,65,333,268,5.0,3-12,augmented
61095,70,65,131,332,5.0,3-12,augmented
61096,72,46,197,262,5.0,3-12,augmented
61097,76,66,172,302,5.0,3-12,augmented
61098,50,11,1510,346,7.0,2-2,other
61099,81,76,237,387,7.0,2-2,other
61100,81,78,443,589,7.0,2-2,other
61101,79,63,335,483,7.0,2-2,other
61102,79,59,294,479,7.0,2-2,other
61103,77,63,272,355,7.0,2-2,other
61104,53,25,2035,469,4.0,3-5B,other
61105,76,37,273,432,4.0,3-5B,other
61106,76,49,333,452,4.0,3-5B,other
61107,64,33,1304,28,4.0,3-5B,other
61108,74,36,243,497,4.0,3-5B,other
61109,74,45,482,472,4.0,3-5B,other
61110,72,35,219,496,4.0,3-5B,other
61111,74,42,198,218,4.0,3-5B,other
61112,75,67,186,147,4.0,3-5B,other
61113,77,38,165,2494,8.0,2-6,other
61114,78,69,168,101,8.0,2-6,other
61115,79,77,320,215,8.0,2-6,other
61116,72,67,1947,248,8.0,2-6,other
61117,56,54,637,899,9.0,3-11A,minor
61118,60,29,761,1013,4.0,2-3,minor
61119,81,28,63,2356,6.0,3-8B,other
61120,84,49,382,620,6.0,4-27A,diminished
61121,81,57,224,520,2.0,4-21,major
61122,76,36,382,2190,6.0,4-27A,diminished
61123,75,45,452,1018,10.0,2-5,other
61124,70,56,349,980,6.0,2-5,other
61125,61,25,675,666,1.0,2-3,other
61126,72,13,78,2453,11.0,2-3,minor
61127,76,53,239,3945,7.0,2-4,major
61128,71,45,230,244,7.0,2-4,major
61129,72,40,1096,936,9.0,3-7A,minor
61130,62,24,1816,2334,4.0,2-3,minor
61131,79,78,226,592,4.0,2-3,minor
61132,83,103,315,602,4.0,2-3,minor
61133,55,30,2242,172,4.0,2-3,minor
61134,86,92,273,447,4.0,2-3,minor
61135,77,58,499,1269,9.0,2-3,minor
61136,55,33,1320,686,9.0,2-3,minor
61137,77,60,1344,29,9.0,2-3,minor
61138,65,36,288,955,9.0,2-3,minor
61139,60,24,249,74,9.0,2-3,minor
61140,76,37,192,323,9.0,2-3,minor
61141,79,50,211,251,9.0,2-3,minor
61142,74,60,131,2650,7.0,3-11B,major
61143,67,56,53,702,5.0,1-1,other
61144,82,54,359,2606,0.0,2-5,other
61145,88,1,1027,3525,9.0,2-2,other
61146,68,39,112,3330,2.0,4-26,minor
61147,69,34,181,142,2.0,4-26,minor
61148,72,32,77,560,9.0,2-5,other
61149,65,47,139,714,9.0,3-11A,minor
61150,74,27,70,392,4.0,3-11A,minor
61151,77,66,171,414,4.0,3-11A,minor
61152,76,54,232,551,2.0,3-7B,other
61153,74,39,230,1592,2.0,4-27A,minor
61154,72,40,237,212,2.0,4-27A,minor
61155,71,57,1589,266,2.0,4-27A,minor
61156,62,17,1056,118,2.0,4-27A,minor
61157,62,30,527,1701,7.0,2-1,other
61158,83,70,396,407,7.0,2-1,other
61159,81,76,272,278,7.0,2-1,other
61160,77,65,542,1242,5.0,2-4,other
61161,74,38,400,1281,7.0,2-2,other
61162,53,22,1080,619,9.0,4-26,minor
61163,50,15,2091,28,9.0,4-26,minor
61164,53,28,544,1569,9.0,2-3,minor
61165,59,22,630,1154,4.0,2-3,minor
61166,76,41,685,1107,0.0,3-4A,major
61167,53,17,496,27,0.0,3-4A,major
61168,53,15,534,1015,4.0,2-5,other
61169,67,34,556,1620,4.0,2-5,other
61170,76,36,85,357,8.0,2-6,other
61171,84,68,124,283,8.0,2-6,other
61172,88,51,288,650,1.0,5-19A,other
61173,84,31,171,355,4.0,3-7A,minor
61174,85,40,91,312,4.0,3-3B,other
61175,76,47,896,1291,1.0,4-12B,diminished
61176,61,49,216,1432,1.0,4-12B,diminished
61177,81,37,67,60,0.0,2-5,other
61178,64,70,651,694,9.0,4-26,minor
61179,62,42,515,650,5.0,3-11B,major
61180,60,36,458,633,5.0,2-5,other
61181,72,44,179,493,5.0,2-5,other
61182,65,47,104,37,5.0,2-5,other
61183,57,34,235,37,5.0,2-5,other
61184,53,29,72,305,5.0,2-5,other
61185,53,28,760,365,5.0,4-20,major
61186,43,24,1052,2498,3.0,3-8B,other
61187,52,32,2684,400,7.0,3-9,other
61188,43,22,1749,886,7.0,3-9,other
61189,55,39,212,658,7.0,3-9,other
61190,57,52,1202,2276,7.0,3-9,other
61191,53,27,963,68,7.0,3-9,other
61192,43,34,233,888,7.0,3-9,other
61193,67,38,722,3774,4.0,2-2,other
61194,43,28,2887,1896,5.0,4-22A,major
61195,60,25,653,4003,5.0,3-6,major
61196,55,24,1327,925,5.0,4-22A,major
61197,71,75,572,1799,5.0,4-22A,major
61198,62,64,576,59,4.0,2-3,minor
61199,55,44,771,27,4.0,2-3,minor
61200,62,33,523,2960,7.0,2-4,major
61201,81,51,1322,5550,8.0,2-6,other
61202,70,8,1536,212,4.0,1-1,other
61203,57,44,371,4337,5.0,3-11B,major
61204,59,26,141,1248,4.0,2-3,minor
61205,53,16,177,34,4.0,2-3,minor
61206,59,17,1331,1008,7.0,3-7B,other
61207,62,24,1955,1942,4.0,1-1,other
61208,56,12,1810,27,4.0,1-1,other
61209,59,60,1440,3704,0.0,4-20,major
61210,56,43,784,2026,0.0,3-12,augmented
61211,57,35,535,838,9.0,3-11A,minor
61212,54,25,2168,1002,2.0,2-4,major
61213,54,38,557,5395,5.0,2-5,other
61214,59,15,408,4202,4.0,3-7A,minor
61215,55,25,193,600,4.0,3-7A,minor
61216,67,37,1092,1321,4.0,2-3,minor
61217,72,41,2296,629,5.0,3-6,major
61218,67,45,280,719,5.0,3-6,major
61219,67,51,744,659,5.0,3-6,major
61220,55,42,1604,601,5.0,3-6,major
61221,64,37,1040,1218,4.0,3-11A,minor
61222,55,26,1208,571,4.0,3-11A,minor
61223,64,51,435,858,4.0,3-11A,minor
61224,64,36,114,657,4.0,3-11A,minor
61225,64,43,284,312,4.0,3-11A,minor
61226,67,45,731,978,5.0,3-11B,major
61227,62,31,1659,722,5.0,3-11B,major
61228,67,24,459,699,5.0,3-11B,major
61229,55,19,1869,40,5.0,3-11B,major
61230,64,34,1035,947,7.0,2-4,major
61231,55,25,313,1562,4.0,4-26,minor
61232,53,29,392,2931,7.0,2-5,other
61233,74,68,711,2782,4.0,2-6,other
61234,64,36,833,1402,1.0,4-28,diminished
61235,64,60,1056,1528,1.0,4-28,diminished
61236,77,50,597,1377,1.0,4-28,diminished
61237,69,28,242,1626,0.0,2-4,major
61238,67,50,213,6309,4.0,4-26,minor
61239,64,46,149,289,4.0,4-26,minor
61240,61,51,1027,343,4.0,4-26,minor
61241,52,29,167,2185,4.0,3-10,diminished
61242,51,27,208,341,4.0,3-10,diminished
61243,50,33,289,367,5.0,3-11B,major
61244,64,33,1107,2937,4.0,4-18A,major
61245,71,24,304,1834,8.0,2-3,other
61246,56,31,360,963,0.0,3-11B,major
61247,62,17,395,26,0.0,3-11B,major
61248,56,25,76,600,0.0,4-22A,major
61249,55,27,152,2456,5.0,3-8B,other
61250,55,34,91,632,5.0,3-8B,other
61251,55,32,1024,868,1.0,3-10,diminished
61252,60,29,166,2026,5.0,3-4A,major
61253,60,32,290,1376,5.0,3-4A,major
61254,57,37,236,294,5.0,3-4A,major
61255,53,17,2798,402,7.0,2-4,major
61256,62,43,624,1523,7.0,2-4,major
61257,55,76,1054,2007,4.0,4-26,minor
61258,43,57,229,966,4.0,4-26,minor
61259,31,63,194,926,4.0,4-26,minor
61260,59,40,220,2268,7.0,4-13B,other
61261,71,57,291,1908,4.0,3-7A,minor
61262,72,39,54,29,4.0,3-7A,minor
61263,62,65,166,909,4.0,4-26,minor
61264,60,53,1263,892,2.0,5-35,minor
61265,57,66,169,2284,5.0,3-9,other
61266,95,66,296,585,4.0,4-26,minor
61267,83,67,201,2271,4.0,2-3,minor
61268,71,37,75,43,4.0,2-3,minor
61269,79,45,160,249,4.0,2-3,minor
61270,60,40,1238,332,5.0,3-6,major
61271,82,87,355,937,5.0,3-6,major
61272,80,62,339,263,5.0,3-6,major
61273,75,73,249,267,5.0,3-6,major
61274,71,53,206,240,5.0,3-6,major
61275,53,24,512,134,4.0,2-5,other
61276,70,47,133,154,4.0,2-5,other
61277,69,32,182,227,4.0,2-5,other
61278,68,44,137,234,4.0,2-5,other
61279,52,14,2377,355,4.0,2-2,other
61280,67,61,255,169,4.0,2-2,other
61281,64,57,65,271,4.0,2-2,other
61282,55,1,1197,41,4.0,2-2,other
61283,67,88,234,210,4.0,2-2,other
61284,69,81,263,278,4.0,2-2,other
61285,67,69,334,255,11.0,2-3,minor
61286,67,71,210,483,11.0,2-3,minor
61287,59,30,460,190,11.0,2-3,minor
61288,62,28,297,28,11.0,2-3,minor
61289,55,16,409,40,11.0,2-3,minor
61290,67,75,229,153,11.0,2-3,minor
61291,69,58,359,248,11.0,2-3,minor
61292,67,76,1557,293,11.0,2-3,minor
61293,53,62,397,1880,3.0,3-12,augmented
61294,74,80,514,512,3.0,3-12,augmented
61295,79,67,133,2752,7.0,3-5B,other
61296,81,75,142,304,7.0,3-5B,other
61297,82,88,219,304,7.0,3-5B,other
61298,81,78,239,313,7.0,3-5B,other
61299,82,46,218,256,5.0,3-8B,other
61300,81,60,225,132,5.0,3-8B,other
61301,79,55,128,211,5.0,3-8B,other
61302,77,70,195,251,5.0,3-8B,other
61303,76,50,117,288,5.0,3-8B,other
61304,73,62,566,754,4.0,2-2,other
61305,75,55,552,41,4.0,2-2,other
61306,69,51,289,530,4.0,2-2,other
61307,65,45,224,672,4.0,2-2,other
61308,69,62,170,329,4.0,2-2,other
61309,57,59,341,48,4.0,2-2,other
61310,62,48,387,309,5.0,2-5,other
61311,60,46,578,27,5.0,2-5,other
61312,62,35,240,1567,2.0,4-26,minor
61313,43,32,1432,349,2.0,4-26,minor
61314,53,28,643,1006,8.0,2-6,other
61315,43,34,77,925,8.0,2-6,other
61316,67,40,181,608,8.0,2-6,other
61317,69,54,121,738,2.0,2-3,minor
61318,69,55,80,1342,2.0,2-3,minor
61319,59,22,192,2080,9.0,2-3,minor
61320,57,66,513,714,0.0,3-11B,major
61321,68,56,385,459,0.0,3-11B,major
61322,72,70,193,480,8.0,3-10,diminished
61323,64,63,744,419,9.0,3-7B,other
61324,60,39,632,26,9.0,3-7B,other
61325,50,49,154,708,6.0,2-3,minor
61326,57,56,403,751,6.0,4-27A,diminished
61327,86,30,91,38,6.0,4-27A,diminished
61328,57,49,353,2538,2.0,5-34,major
61329,89,56,435,1310,10.0,4-20,other
61330,81,50,237,3130,2.0,5-35,minor
61331,53,19,82,2521,4.0,3-2A,minor
61332,59,24,130,37,4.0,3-2A,minor
61333,55,42,357,1325,4.0,4-26,minor
61334,76,24,59,1010,4.0,4-26,minor
61335,69,52,171,1219,2.0,4-26,minor
61336,74,39,213,150,2.0,4-26,minor
61337,72,37,194,32,2.0,4-26,minor
61338,69,35,192,139,2.0,4-26,minor
61339,69,38,195,333,2.0,3-7A,minor
61340,65,83,1624,32,2.0,3-7A,minor
61341,69,32,188,295,2.0,2-2,other
61342,69,33,180,324,2.0,2-2,other
61343,72,38,98,184,2.0,2-2,other
61344,74,33,83,26,2.0,2-2,other
61345,69,39,159,118,2.0,2-2,other
61346,72,41,209,164,2.0,2-2,other
61347,74,26,125,51,2.0,2-2,other
61348,69,32,331,134,2.0,2-2,other
61349,72,22,205,171,2.0,2-2,other
61350,74,19,288,48,2.0,2-2,other
61351,62,44,202,189,1.0,2-1,other
61352,64,59,571,208,4.0,3-11A,minor
61353,71,47,186,568,4.0,3-11A,minor
61354,55,40,803,437,7.0,2-5,other
61355,31,68,1124,2422,7.0,2-5,other
61356,43,53,286,916,7.0,2-5,other
61357,64,110,139,377,7.0,2-5,other
61358,64,77,188,311,7.0,2-5,other
61359,65,87,260,320,7.0,2-5,other
61360,65,60,169,3243,2.0,3-7A,minor
61361,82,47,871,2761,0.0,2-5,other
61362,62,30,1496,1095,7.0,2-1,other
61363,79,68,157,369,7.0,2-1,other
61364,81,76,213,279,7.0,2-1,other
61365,79,61,202,1001,2.0,2-5,other
61366,74,64,159,1496,5.0,3-8B,other
61367,76,89,216,322,5.0,3-8B,other
61368,77,83,223,323,5.0,3-8B,other
61369,79,71,195,306,5.0,3-8B,other
61370,77,77,1365,334,5.0,3-8B,other
61371,69,38,390,1362,9.0,2-3,minor
61372,50,40,565,593,9.0,2-3,minor
61373,53,27,509,71,9.0,2-3,minor
61374,79,33,63,353,5.0,3-11B,major
61375,53,33,285,3130,0.0,3-11B,major
61376,58,36,214,626,4.0,4-26,minor
61377,62,51,168,2134,9.0,3-1,other
61378,76,27,70,48,9.0,3-1,other
61379,57,24,139,5917,5.0,3-4B,other
61380,76,36,72,299,9.0,3-9,other
61381,88,64,459,1171,11.0,3-5A,other
61382,57,27,59,1661,2.0,3-9,other
61383,62,28,352,397,0.0,3-4A,other
61384,58,23,586,1939,4.0,2-5,other
61385,82,40,768,904,1.0,2-6,other
61386,61,37,229,2547,5.0,5-26B,augmented
61387,62,46,230,77,5.0,5-26B,augmented
61388,72,44,220,5274,5.0,3-4B,other
61389,74,47,248,283,5.0,3-4B,other
61390,55,29,1419,1288,7.0,2-5,other
61391,98,68,189,438,7.0,2-5,other
61392,95,39,150,314,7.0,2-5,other
61393,96,60,280,281,7.0,2-5,other
61394,93,54,216,314,7.0,2-5,other
61395,91,44,250,651,7.0,2-4,major
61396,89,36,232,666,9.0,2-3,minor
61397,91,58,235,334,9.0,2-3,minor
61398,88,32,140,307,9.0,2-3,minor
61399,86,43,204,640,7.0,2-2,other
61400,88,56,226,320,7.0,2-2,other
61401,84,42,250,274,7.0,2-2,other
61402,83,35,221,643,7.0,2-5,other
61403,84,50,270,319,7.0,2-5,other
61404,55,19,1429,65,7.0,2-5,other
61405,81,35,224,266,7.0,2-5,other
61406,83,54,237,320,7.0,2-5,other
61407,62,28,852,333,4.0,2-3,minor
61408,81,48,232,300,4.0,2-3,minor
61409,77,35,224,296,4.0,2-3,minor
61410,55,32,1072,304,4.0,2-3,minor
61411,79,32,210,42,4.0,2-3,minor
61412,76,29,255,294,4.0,2-3,minor
61413,77,43,244,300,4.0,2-3,minor
61414,60,17,1201,96,5.0,2-4,major
61415,74,33,262,219,5.0,2-4,major
61416,76,41,245,363,5.0,2-4,major
61417,55,1,3327,430,5.0,2-4,major
61418,74,57,271,216,5.0,2-4,major
61419,71,42,93,312,5.0,2-4,major
61420,71,33,128,608,5.0,2-4,major
61421,62,26,932,416,4.0,3-11A,minor
61422,72,45,203,204,4.0,3-11A,minor
61423,71,37,177,179,4.0,3-11A,minor
61424,69,25,125,214,4.0,3-11A,minor
61425,71,36,496,152,4.0,3-11A,minor
61426,72,40,103,235,4.0,3-11A,minor
61427,64,20,1733,85,4.0,3-11A,minor
61428,69,43,104,195,4.0,3-11A,minor
61429,71,42,3783,176,4.0,3-11A,minor
61430,55,19,1943,1448,4.0,3-11A,minor
61431,65,28,1662,874,4.0,3-11A,minor
61432,55,9,1283,1667,9.0,2-3,minor
61433,86,28,383,1112,9.0,2-3,minor
61434,59,1,635,949,11.0,2-3,minor
61435,86,16,247,334,11.0,2-3,minor
61436,64,12,368,95,11.0,2-3,minor
61437,72,9,360,627,11.0,2-3,minor
61438,81,10,256,648,9.0,3-7A,minor
61439,65,8,232,26,9.0,3-7A,minor
61440,72,4,113,672,5.0,3-11B,major
61441,84,3,171,1110,5.0,2-4,major
61442,51,28,33,0,0.0,1-1,other
61443,60,55,9,855,4.0,4-26,minor
61444,69,35,21,753,2.0,2-2,other
61445,72,81,284,1065,10.0,3-11A,other
61446,65,16,10,923,10.0,1-1,other
61447,63,46,74,146,2.0,4-26,minor
61448,48,68,174,435,7.0,4-14A,minor
61449,34,63,85,241,7.0,4-26,minor
61450,33,72,29,115,7.0,4-26,minor
61451,86,44,8,1064,2.0,5-30A,minor
61452,36,36,13,143,2.0,5-30A,minor
61453,67,61,28,651,10.0,5-27A,major
61454,62,40,18,33,10.0,5-27A,major
61455,67,66,21,37,10.0,5-27A,major
61456,69,84,227,42,10.0,5-27A,major
61457,36,59,9,75,10.0,5-27A,major
61458,48,32,157,86,10.0,5-27A,major
61459,69,79,295,800,7.0,1-1,other
61460,67,54,90,315,7.0,5-35,minor
61461,62,55,23,92,7.0,5-35,minor
61462,67,68,25,37,7.0,5-35,minor
61463,69,92,164,47,7.0,5-35,minor
61464,75,85,172,655,9.0,4-27A,diminished
61465,67,68,64,77,9.0,4-27A,diminished
61466,75,77,53,165,0.0,4-14A,minor
61467,75,60,51,158,0.0,5-15,major
61468,69,43,15,249,10.0,5-30B,other
61469,82,38,49,258,5.0,3-4A,other
61470,82,39,49,119,9.0,2-3,minor
61471,82,42,35,115,5.0,3-4A,other
61472,56,52,25,67,5.0,3-4A,other
61473,36,66,54,2046,7.0,6-47A,other
61474,48,52,58,53,7.0,6-47A,other
61475,36,80,164,187,7.0,6-47A,other
61476,55,26,34,52,7.0,6-47A,other
61477,48,55,9,669,2.0,4-26,minor
61478,48,48,13,49,2.0,4-26,minor
61479,48,72,29,71,2.0,4-26,minor
61480,48,57,13,110,2.0,4-26,minor
61481,48,51,10,46,2.0,4-26,minor
61482,48,45,26,79,2.0,4-26,minor
61483,75,84,45,155,0.0,4-26,other
61484,72,74,76,161,10.0,4-14B,major
61485,68,61,121,445,7.0,3-5B,other
61486,44,42,37,321,1.0,4-24,other
61487,51,44,59,46,1.0,4-24,other
61488,53,73,157,76,1.0,4-24,other
61489,44,39,15,241,3.0,3-12,augmented
61490,37,32,85,38,3.0,3-12,augmented
61491,68,32,19,323,3.0,4-16A,other
61492,68,53,31,107,3.0,4-16A,other
61493,72,37,21,144,3.0,4-20,major
61494,72,50,36,79,7.0,3-11A,minor
61495,67,66,32,37,7.0,3-11A,minor
61496,62,57,10,32,7.0,3-11A,minor
61497,84,53,19,182,7.0,2-5,other
61498,79,59,50,442,2.0,2-2,other
61499,74,72,26,52,2.0,2-2,other
61500,77,67,55,98,3.0,4-5B,other
61501,73,20,37,86,3.0,4-5B,other
61502,73,70,35,68,3.0,4-5B,other
61503,71,26,52,53,3.0,4-5B,other
61504,69,48,49,109,3.0,4-16A,other
61505,65,51,29,166,7.0,4-23,minor
61506,67,36,46,304,6.0,2-3,other
61507,62,41,27,1894,7.0,2-5,other
61508,48,71,16,230,10.0,4-20,major
61509,36,58,93,45,10.0,4-20,major
61510,56,62,33,2353,5.0,2-4,other
61511,70,65,82,158,5.0,3-8B,other
61512,65,41,22,80,5.0,3-8B,other
61513,71,34,24,920,9.0,4-29A,minor
61514,71,29,22,128,10.0,2-1,other
61515,74,60,155,30,10.0,2-1,other
61516,70,53,30,34,10.0,2-1,other
61517,71,24,29,40,10.0,2-1,other
61518,46,25,8,46,10.0,2-1,other
61519,42,29,23,117,2.0,2-3,minor
61520,43,38,120,30,2.0,2-3,minor
61521,38,38,12,93,2.0,2-3,minor
61522,37,34,106,38,2.0,2-3,minor
61523,46,90,110,481,0.0,4-27B,major
61524,40,46,9,204,5.0,4-19B,other
61525,37,36,31,124,9.0,4-18A,major
61526,37,33,29,114,0.0,3-11B,major
61527,36,79,11,1077,2.0,3-11A,minor
61528,62,51,11,844,0.0,2-1,other
61529,65,49,43,37,0.0,2-1,other
61530,65,42,20,177,8.0,3-5B,other
61531,62,38,27,36,8.0,3-5B,other
61532,65,81,68,39,8.0,3-5B,other
61533,62,49,107,121,7.0,2-2,other
61534,60,53,37,108,7.0,2-2,other
61535,79,103,30,798,10.0,4-20,major
61536,79,105,80,93,10.0,4-20,major
61537,74,74,29,84,10.0,4-20,major
61538,79,75,30,64,10.0,4-20,major
61539,81,61,55,116,2.0,3-6,major
61540,93,74,188,93,2.0,3-6,major
61541,90,72,146,62,2.0,3-6,major
61542,86,51,51,70,2.0,3-6,major
61543,81,34,90,67,2.0,3-6,major
61544,79,103,110,357,2.0,3-6,major
61545,74,77,34,88,2.0,3-6,major
61546,79,79,61,73,2.0,3-6,major
61547,79,71,54,399,10.0,3-4A,major
61548,74,53,20,79,10.0,3-4A,major
61549,79,75,32,41,10.0,3-4A,major
61550,81,92,232,54,10.0,3-4A,major
61551,84,58,18,891,0.0,5-27A,major
61552,76,25,222,106,0.0,6-34A,augmented
61553,94,51,22,514,5.0,4-20,other
61554,89,60,26,43,5.0,4-20,other
61555,85,61,28,72,5.0,4-20,other
61556,84,51,83,53,5.0,4-20,other
61557,82,54,264,114,5.0,4-20,other
61558,82,85,61,440,5.0,3-8B,other
61559,77,43,30,77,5.0,3-8B,other
61560,82,71,23,44,5.0,3-8B,other
61561,82,37,24,243,5.0,4-20,other
61562,77,74,36,1625,0.0,4-16A,other
61563,81,78,129,180,7.0,5-29B,minor
61564,73,75,56,83,7.0,5-29B,minor
61565,70,71,29,375,6.0,4-27A,diminished
61566,71,57,58,44,6.0,4-27A,diminished
61567,69,46,23,163,7.0,2-1,other
61568,65,63,84,75,2.0,2-2,other
61569,67,55,29,90,2.0,2-2,other
61570,99,34,9,1018,10.0,3-8B,other
61571,65,44,40,875,6.0,1-1,other
61572,66,46,28,428,7.0,2-1,other
61573,66,15,42,485,0.0,4-24,augmented
61574,94,75,60,2663,5.0,5-30B,other
61575,84,47,11,168,5.0,3-8B,other
61576,48,24,14,1451,2.0,3-11A,minor
61577,47,26,9,345,0.0,2-1,other
61578,60,55,43,43,0.0,2-1,other
61579,62,56,23,70,0.0,2-1,other
61580,65,43,14,45,0.0,2-1,other
61581,69,60,14,72,0.0,2-1,other
61582,74,54,43,123,3.0,4-23,other
61583,72,24,40,60,3.0,4-23,other
61584,91,89,46,539,7.0,3-5B,other
61585,89,80,50,85,7.0,3-5B,other
61586,85,56,27,846,3.0,3-8B,other
61587,85,37,66,196,3.0,3-8B,other
61588,80,40,33,44,3.0,3-8B,other
61589,86,71,30,198,3.0,4-20,major
61590,84,54,22,35,3.0,4-20,major
61591,84,68,44,245,2.0,4-23,minor
61592,82,55,29,37,2.0,4-23,minor
61593,67,67,133,369,3.0,4-20,major
61594,56,44,46,120,3.0,4-20,major
61595,56,34,26,124,1.0,5-24A,other
61596,58,58,74,39,1.0,5-24A,other
61597,56,33,29,85,1.0,5-24A,other
61598,58,56,73,35,1.0,5-24A,other
61599,56,52,94,81,1.0,5-24A,other
61600,36,58,125,354,0.0,5-30B,other
61601,48,35,11,50,0.0,5-30B,other
61602,48,64,34,71,0.0,5-30B,other
61603,43,37,15,355,10.0,4-20,major
61604,74,46,60,3397,2.0,4-21,major
61605,68,45,24,1039,9.0,2-1,other
61606,70,81,34,140,5.0,1-1,other
61607,60,54,22,150,9.0,2-2,other
61608,74,63,34,983,11.0,6-3A,diminished
61609,93,57,64,1789,4.0,4-18A,major
61610,86,20,9,73,4.0,4-18A,major
61611,89,77,63,29,4.0,4-18A,major
61612,84,55,26,737,11.0,3-2A,minor
61613,80,71,26,66,11.0,3-2A,minor
61614,79,58,52,52,11.0,3-2A,minor
61615,74,56,14,69,11.0,3-2A,minor
61616,77,80,43,47,11.0,3-2A,minor
61617,74,22,20,127,7.0,2-2,other
61618,72,85,70,66,7.0,2-2,other
61619,69,60,7,143,2.0,2-2,other
61620,65,45,28,156,9.0,2-2,other
61621,65,44,52,124,11.0,3-2A,minor
61622,62,32,28,38,11.0,3-2A,minor
61623,59,49,42,71,2.0,2-2,other
61624,58,75,28,70,2.0,2-2,other
61625,72,73,32,276,2.0,2-2,other
61626,69,50,65,120,2.0,2-2,other
61627,62,40,55,1677,7.0,3-2B,minor
61628,69,48,30,484,2.0,3-11A,minor
61629,71,67,20,34,2.0,3-11A,minor
61630,71,72,22,33,2.0,3-11A,minor
61631,72,69,19,32,2.0,3-11A,minor
61632,72,33,18,39,2.0,3-11A,minor
61633,75,62,23,121,7.0,3-5B,other
61634,79,58,27,125,0.0,4-20,major
61635,84,92,63,1777,5.0,3-4A,other
61636,84,76,39,164,1.0,3-9,other
61637,84,74,39,84,1.0,3-9,other
61638,84,92,36,175,1.0,3-9,other
61639,82,49,15,88,1.0,3-4B,other
61640,82,61,19,197,1.0,2-1,other
61641,84,94,45,45,1.0,2-1,other
61642,82,57,47,108,1.0,3-5B,other
61643,86,60,41,129,1.0,4-5B,other
61644,87,62,28,59,1.0,4-5B,other
61645,88,46,48,54,1.0,4-5B,other
61646,64,35,20,1735,6.0,4-27A,diminished
61647,93,85,25,38,6.0,4-27A,diminished
61648,89,49,12,39,6.0,4-27A,diminished
61649,89,57,23,82,10.0,3-4A,major
61650,86,47,25,44,10.0,3-4A,major
61651,81,53,23,36,10.0,3-4A,major
61652,77,64,47,185,10.0,2-4,major
61653,69,68,60,126,10.0,2-4,major
61654,69,51,55,228,10.0,2-4,major
61655,65,26,35,126,7.0,3-11A,minor
61656,62,35,32,105,10.0,2-5,other
61657,65,45,40,135,10.0,3-4A,major
61658,62,33,57,87,10.0,3-4A,major
61659,62,22,170,232,10.0,2-4,other
61660,74,47,22,546,2.0,3-11B,major
61661,77,39,26,175,10.0,3-4A,major
61662,81,40,20,171,10.0,4-11A,major
61663,74,57,10,1406,2.0,2-2,other
61664,85,57,8,124,2.0,4-21,major
61665,70,78,73,1195,5.0,4-20,other
61666,68,17,53,154,5.0,3-4A,other
61667,71,45,60,103,8.0,5-27B,other
61668,76,51,60,118,1.0,1-1,other
61669,81,45,52,124,6.0,2-5,other
61670,84,39,47,115,1.0,2-3,other
61671,87,52,43,116,5.0,3-8B,other
61672,91,80,37,118,5.0,4-20,major
61673,88,48,20,45,5.0,4-20,major
61674,85,68,60,88,5.0,4-20,major
61675,88,80,32,70,5.0,4-20,major
61676,86,54,122,52,5.0,4-20,major
61677,84,62,33,275,10.0,3-3A,major
61678,83,55,34,26,10.0,3-3A,major
61679,82,51,32,27,10.0,3-3A,major
61680,81,35,39,37,10.0,3-3A,major
61681,78,55,36,64,10.0,3-3A,major
61682,79,51,57,55,10.0,3-3A,major
61683,70,57,36,188,2.0,2-2,other
61684,69,42,43,51,2.0,2-2,other
61685,60,46,51,241,9.0,3-2B,minor
61686,60,64,26,69,9.0,3-2B,minor
61687,58,28,49,38,9.0,3-2B,minor
61688,58,57,20,69,9.0,3-2B,minor
61689,57,54,37,59,9.0,3-2B,minor
61690,53,57,85,61,9.0,3-2B,minor
61691,46,47,22,237,0.0,2-1,other
61692,72,99,66,38,0.0,2-1,other
61693,67,38,66,149,3.0,4-23,other
61694,67,47,84,94,3.0,4-23,other
61695,67,40,79,120,3.0,4-23,other
61696,65,46,23,84,3.0,4-23,other
61697,67,44,86,43,3.0,4-23,other
61698,75,59,26,428,3.0,3-9,other
61699,77,33,42,62,3.0,3-9,other
61700,79,58,18,65,3.0,3-9,other
61701,86,42,27,1284,2.0,5-14A,minor
61702,93,37,10,459,2.0,4-23,minor
61703,93,83,46,106,2.0,4-23,minor
61704,59,26,29,155,11.0,2-6,other
61705,60,64,20,637,0.0,1-1,other
61706,62,60,11,40,0.0,1-1,other
61707,62,66,16,76,0.0,1-1,other
61708,64,53,15,41,0.0,1-1,other
61709,64,64,13,81,0.0,1-1,other
61710,58,30,65,842,10.0,3-4A,major
61711,84,89,66,46,10.0,3-4A,major
61712,74,44,21,104,10.0,4-20,major
61713,82,80,40,31,10.0,4-20,major
61714,72,41,10,86,4.0,2-3,minor
61715,81,89,61,30,4.0,2-3,minor
61716,70,30,44,102,7.0,3-7B,other
61717,74,34,26,285,7.0,2-1,other
61718,67,30,9,193,10.0,2-4,major
61719,74,80,34,287,10.0,3-4A,major
61720,69,25,10,50,10.0,3-4A,major
61721,70,79,41,112,10.0,4-11A,major
61722,66,47,54,63,10.0,4-11A,major
61723,67,40,57,118,10.0,3-4A,major
61724,65,68,59,118,10.0,2-4,major
61725,63,52,54,119,10.0,2-4,major
61726,51,43,13,167,0.0,2-5,other
61727,82,25,8,1270,0.0,1-1,other
61728,62,34,43,4196,0.0,2-1,other
61729,56,60,21,283,11.0,2-1,other
61730,53,57,76,37,11.0,2-1,other
61731,51,49,23,91,11.0,2-1,other
61732,53,60,58,45,11.0,2-1,other
61733,76,47,206,0,11.0,2-5,other
61734,78,90,513,303,11.0,2-5,other
61735,54,7,4697,658,11.0,2-5,other
61736,59,33,3704,704,6.0,2-2,other
61737,66,109,394,3753,6.0,2-2,other
61738,67,98,481,454,6.0,2-2,other
61739,71,105,392,1206,9.0,2-4,major
61740,61,9,636,98,9.0,2-4,major
61741,69,94,425,408,9.0,2-4,major
61742,67,82,204,494,9.0,2-4,major
61743,64,60,407,1513,4.0,3-9,other
61744,54,11,966,118,4.0,3-9,other
61745,59,24,441,819,6.0,2-2,other
61746,47,42,159,9047,9.0,2-4,major
61747,69,77,1705,810,9.0,2-4,major
61748,47,30,454,120,9.0,2-5,other
61749,47,32,5020,853,9.0,2-5,other
61750,66,32,517,735,9.0,2-5,other
61751,54,33,1674,92,2.0,2-5,other
61752,67,86,322,640,2.0,2-5,other
61753,67,79,264,522,2.0,2-5,other
61754,66,112,835,1004,2.0,2-4,major
61755,64,107,314,485,2.0,2-4,major
61756,62,103,320,322,2.0,2-4,major
61757,64,114,352,389,2.0,2-4,major
61758,62,41,52,61,2.0,2-4,major
61759,66,99,275,295,2.0,2-4,major
61760,62,105,323,411,2.0,2-4,major
61761,61,91,483,375,2.0,2-4,major
61762,61,72,438,1624,4.0,2-2,other
61763,59,64,1846,484,4.0,2-2,other
61764,30,82,2233,1833,4.0,2-2,other
61765,61,96,370,52,4.0,2-2,other
61766,48,86,532,762,4.0,2-2,other
61767,49,95,381,480,4.0,2-2,other
61768,51,99,217,329,4.0,2-2,other
61769,52,100,219,254,4.0,2-2,other
61770,54,104,152,245,4.0,2-2,other
61771,55,103,218,214,4.0,2-2,other
61772,57,103,260,205,4.0,2-2,other
61773,58,109,142,248,4.0,2-2,other
61774,60,108,175,203,4.0,2-2,other
61775,61,105,209,179,4.0,2-2,other
61776,63,92,111,184,4.0,2-2,other
61777,64,100,152,116,4.0,2-2,other
61778,66,103,101,161,4.0,2-2,other
61779,67,95,157,175,4.0,2-2,other
61780,69,87,171,138,4.0,2-2,other
61781,70,89,52,203,4.0,2-2,other
61782,72,95,117,140,4.0,2-2,other
61783,73,95,135,158,4.0,2-2,other
61784,76,91,120,254,4.0,2-2,other
61785,78,77,52,182,4.0,2-2,other
61786,79,69,160,160,4.0,2-2,other
61787,81,77,210,149,4.0,2-2,other
61788,82,79,112,200,4.0,2-2,other
61789,83,55,138,132,4.0,2-2,other
61790,84,77,132,185,4.0,2-2,other
61791,85,78,391,5673,2.0,2-4,major
61792,76,23,336,50,2.0,2-4,major
61793,85,58,630,500,2.0,2-4,major
61794,54,1,315,871,11.0,2-3,minor
61795,59,33,1354,399,11.0,2-5,other
61796,61,41,5950,1306,11.0,2-5,other
61797,64,37,2248,587,11.0,2-5,other
61798,69,52,97,491,11.0,2-5,other
61799,71,49,242,283,11.0,2-5,other
61800,73,65,114,294,11.0,2-5,other
61801,76,60,194,270,11.0,2-5,other
61802,81,63,618,308,11.0,2-5,other
61803,88,78,332,713,11.0,2-5,other
61804,85,38,533,516,11.0,2-5,other
61805,64,50,203,1007,11.0,2-5,other
61806,85,61,150,4802,11.0,2-5,other
61807,83,86,176,1468,11.0,2-3,minor
61808,67,46,215,33,11.0,2-3,minor
61809,50,36,4982,1685,11.0,2-5,other
61810,71,92,269,2129,11.0,2-5,other
61811,62,100,234,26,11.0,2-5,other
61812,76,81,198,1932,2.0,2-4,major
61813,74,69,195,243,2.0,2-4,major
61814,73,82,261,372,2.0,2-4,major
61815,71,73,183,359,2.0,2-4,major
61816,64,60,685,799,9.0,2-4,major
61817,42,38,2368,38,9.0,2-4,major
61818,68,47,503,762,9.0,2-4,major
61819,49,27,3398,76,9.0,2-4,major
61820,54,49,492,1179,9.0,3-11B,major
61821,61,50,552,711,9.0,3-11B,major
61822,57,37,547,61,9.0,3-11B,major
61823,73,107,366,1028,9.0,3-11B,major
61824,57,56,755,32,9.0,3-11B,major
61825,71,101,329,565,9.0,3-11B,major
61826,69,105,123,457,9.0,3-11B,major
61827,40,49,755,667,7.0,2-5,other
61828,69,94,274,627,7.0,2-5,other
61829,47,24,1508,53,7.0,2-5,other
61830,67,73,334,430,7.0,2-5,other
61831,69,101,264,429,7.0,2-5,other
61832,71,109,308,620,7.0,2-5,other
61833,47,63,81,704,7.0,2-5,other
61834,33,54,3056,1436,4.0,4-26,minor
61835,45,24,2012,26,4.0,4-26,minor
61836,66,91,356,1248,4.0,4-26,minor
61837,67,103,243,463,4.0,4-26,minor
61838,64,28,372,59,4.0,4-26,minor
61839,55,79,1041,594,11.0,3-11A,minor
61840,45,30,668,63,11.0,3-11A,minor
61841,64,91,442,559,11.0,3-11A,minor
61842,62,92,165,576,11.0,3-11A,minor
61843,62,91,212,2122,2.0,1-1,other
61844,64,87,156,476,2.0,1-1,other
61845,50,56,1057,667,6.0,2-5,other
61846,59,56,233,451,6.0,2-5,other
61847,57,24,393,93,6.0,2-5,other
61848,61,78,202,196,6.0,2-5,other
61849,64,85,238,288,6.0,2-5,other
61850,66,92,169,262,6.0,2-5,other
61851,69,99,194,270,6.0,2-5,other
61852,71,104,295,245,6.0,2-5,other
61853,73,104,165,262,6.0,2-5,other
61854,38,62,384,81,6.0,2-5,other
61855,59,56,1085,82,1.0,2-3,minor
61856,76,95,261,86,1.0,2-3,minor
61857,78,92,159,270,1.0,2-3,minor
61858,81,90,272,256,1.0,2-3,minor
61859,83,103,280,236,1.0,2-3,minor
61860,85,95,126,273,1.0,2-3,minor
61861,88,42,228,329,1.0,2-3,minor
61862,90,68,522,301,1.0,2-3,minor
61863,93,69,1287,359,1.0,2-3,minor
61864,64,60,111,2961,3.0,2-1,other
61865,86,58,697,2431,7.0,2-2,other
61866,50,16,621,92,7.0,2-2,other
61867,85,59,688,663,7.0,2-2,other
61868,55,51,482,40,7.0,2-2,other
61869,88,61,2349,1208,11.0,2-3,minor
61870,61,32,2417,62,11.0,2-3,minor
61871,74,104,402,6287,6.0,1-1,other
61872,74,101,280,621,6.0,1-1,other
61873,73,76,350,495,6.0,1-1,other
61874,73,72,4331,636,6.0,1-1,other
61875,47,32,5108,77,6.0,2-2,other
61876,54,32,1103,768,6.0,2-2,other
61877,66,50,1617,773,6.0,2-2,other
61878,64,39,1342,32,6.0,2-2,other
61879,54,19,1139,1151,6.0,2-2,other
61880,54,24,1101,1966,6.0,2-2,other
61881,78,61,148,4975,2.0,1-1,other
61882,71,36,92,740,2.0,1-1,other
61883,76,30,34,243,2.0,1-1,other
61884,69,50,51,534,1.0,1-1,other
61885,73,76,113,238,1.0,1-1,other
61886,67,34,132,553,11.0,1-1,other
61887,47,49,302,758,6.0,3-7A,minor
61888,49,47,273,2336,11.0,3-9,other
61889,49,34,116,566,11.0,3-9,other
61890,59,54,1947,190,6.0,2-5,other
61891,50,32,755,4258,1.0,2-3,minor
61892,49,53,857,2622,1.0,2-3,minor
61893,58,80,491,409,1.0,2-3,minor
61894,49,52,209,608,1.0,2-3,minor
61895,49,52,66,353,1.0,2-3,minor
61896,47,42,46,1534,9.0,3-11B,major
61897,52,29,57,1508,4.0,3-7A,minor
61898,57,22,123,51,4.0,3-7A,minor
61899,76,55,108,129,4.0,3-7A,minor
61900,74,34,33,532,2.0,3-11B,major
61901,74,68,95,2793,3.0,2-1,other
61902,53,50,1022,232,10.0,3-11A,other
61903,74,60,457,521,10.0,3-11A,other
61904,76,59,101,536,10.0,3-11A,other
61905,50,31,263,6884,6.0,1-1,other
61906,74,24,0,200,6.0,1-1,other
61907,71,36,48,30,6.0,1-1,other
61908,76,50,128,177,6.0,1-1,other
61909,52,36,107,40,6.0,1-1,other
61910,43,40,120,3258,7.0,1-1,other
61911,79,68,306,1329,4.0,1-1,other
61912,55,60,282,27,4.0,1-1,other
61913,71,28,56,1313,2.0,1-1,other
61914,48,29,66,38,2.0,1-1,other
61915,71,57,76,730,1.0,1-1,other
61916,47,34,43,34,1.0,1-1,other
61917,70,64,135,2273,8.0,2-2,other
61918,42,23,192,1684,6.0,1-1,other
61919,68,70,1,182,6.0,1-1,other
61920,70,83,121,254,6.0,1-1,other
61921,68,37,128,564,9.0,1-1,other
61922,42,29,54,122,7.0,2-1,other
61923,66,43,153,110,7.0,2-1,other
61924,78,74,147,214,7.0,2-1,other
61925,76,80,492,902,6.0,1-1,other
61926,73,31,35,37,6.0,1-1,other
61927,74,60,67,539,6.0,1-1,other
61928,47,58,3067,580,4.0,3-9,other
61929,74,52,109,4042,6.0,1-1,other
61930,50,43,93,36,6.0,1-1,other
61931,69,35,42,1276,1.0,1-1,other
61932,71,64,136,590,1.0,1-1,other
61933,43,27,76,172,1.0,1-1,other
61934,67,55,47,30,1.0,1-1,other
61935,47,53,341,765,6.0,3-7A,minor
61936,54,70,34,249,6.0,3-7A,minor
61937,47,53,106,328,6.0,3-7A,minor
61938,49,45,215,1721,11.0,3-9,other
61939,49,28,124,592,11.0,3-9,other
61940,50,28,36,3897,9.0,2-4,major
61941,59,28,147,1140,2.0,2-4,major
61942,50,42,117,356,2.0,2-4,major
61943,49,36,842,1697,1.0,2-3,minor
61944,58,82,628,369,1.0,2-3,minor
61945,49,38,509,589,1.0,2-3,minor
61946,42,27,2,448,1.0,2-3,minor
61947,42,25,213,78,1.0,2-3,minor
61948,47,32,40,1456,9.0,3-11B,major
61949,74,30,56,887,9.0,3-11B,major
61950,52,38,50,641,2.0,2-4,major
61951,76,53,84,889,2.0,2-5,other
61952,74,58,517,2182,3.0,2-1,other
61953,74,71,460,1147,10.0,3-11A,other
61954,76,64,85,528,10.0,3-11A,other
61955,73,76,410,1412,2.0,4-22A,major
61956,47,37,51,5701,2.0,1-1,other
61957,88,72,1,1632,2.0,1-1,other
61958,79,49,126,1431,11.0,1-1,other
61959,43,37,68,31,11.0,1-1,other
61960,83,51,45,3813,1.0,1-1,other
61961,47,20,32,27,1.0,1-1,other
61962,78,49,156,335,1.0,1-1,other
61963,42,27,133,33,1.0,1-1,other
61964,82,57,125,1899,8.0,2-2,other
61965,37,49,145,1133,6.0,1-1,other
61966,78,36,80,1604,8.0,1-1,other
61967,79,44,75,61,8.0,1-1,other
61968,61,18,102,1122,6.0,1-1,other
61969,63,46,98,32,6.0,1-1,other
61970,57,31,1,3029,11.0,2-3,minor
61971,59,35,3,373,2.0,2-5,other
61972,50,19,89,843,11.0,3-7A,minor
61973,59,30,109,97,11.0,3-7A,minor
61974,50,40,104,212,11.0,3-7A,minor
61975,50,12,197,211,7.0,4-22A,major
61976,71,91,171,1675,7.0,2-5,other
61977,73,108,131,337,7.0,2-5,other
61978,73,77,188,590,2.0,2-5,other
61979,71,66,41,226,2.0,2-5,other
61980,52,56,2234,267,1.0,3-7B,other
61981,74,63,482,27,1.0,3-7B,other
61982,73,74,486,487,1.0,3-7B,other
61983,70,68,755,530,1.0,3-7B,other
61984,58,42,68,1738,4.0,2-2,other
61985,58,46,42,413,4.0,2-2,other
61986,58,53,80,743,6.0,2-2,other
61987,58,23,49,406,6.0,2-2,other
61988,84,44,0,2377,4.0,4-26,minor
61989,79,38,3277,668,4.0,3-11A,minor
61990,82,40,32,3897,1.0,4-27A,diminished
61991,86,45,559,2082,1.0,4-23,minor
61992,54,28,368,1989,11.0,2-3,minor
61993,64,25,522,1080,11.0,3-11A,minor
61994,59,47,40,1125,3.0,3-1,other
61995,73,71,539,779,4.0,3-5B,other
61996,54,62,399,4975,2.0,2-4,major
61997,73,83,365,626,2.0,2-4,major
61998,55,36,889,6744,4.0,4-26,minor
61999,69,113,377,536,4.0,4-26,minor
62000,71,99,273,529,4.0,4-26,minor
62001,73,79,559,396,4.0,4-26,minor
62002,66,37,32,602,4.0,4-26,minor
62003,62,24,53,35,4.0,4-26,minor
62004,59,22,114,37,4.0,4-26,minor
62005,74,66,119,92,4.0,4-26,minor
62006,76,71,113,407,4.0,4-26,minor
62007,76,62,102,786,3.0,3-4B,other
62008,78,72,1605,221,3.0,3-4B,other
62009,61,35,36,1931,3.0,2-1,other
62010,74,74,199,293,3.0,2-1,other
62011,74,88,469,809,10.0,3-11A,other
62012,76,63,91,550,10.0,3-11A,other
62013,67,56,384,1144,2.0,3-9,other
62014,73,67,431,33,2.0,3-9,other
62015,54,52,363,5324,7.0,1-1,other
62016,90,51,189,53,7.0,1-1,other
62017,83,31,86,560,2.0,1-1,other
62018,47,26,68,99,2.0,1-1,other
62019,91,80,108,4684,4.0,1-1,other
62020,55,52,1,102,4.0,1-1,other
62021,83,53,45,2034,1.0,1-1,other
62022,76,40,503,583,6.0,1-1,other
62023,40,42,478,40,6.0,1-1,other
62024,85,77,460,1086,11.0,1-1,other
62025,49,64,365,39,11.0,1-1,other
62026,82,61,286,533,8.0,2-2,other
62027,80,49,122,372,8.0,2-2,other
62028,44,31,101,32,8.0,2-2,other
62029,79,36,90,2381,8.0,1-1,other
62030,90,77,113,368,6.0,1-1,other
62031,63,31,84,850,6.0,2-2,other
62032,69,95,170,2000,2.0,1-1,other
62033,66,61,98,211,2.0,1-1,other
62034,59,26,52,67,2.0,1-1,other
62035,67,42,154,116,2.0,1-1,other
62036,69,71,145,189,2.0,1-1,other
62037,70,55,140,187,2.0,1-1,other
62038,71,56,191,202,2.0,1-1,other
62039,74,33,178,191,2.0,1-1,other
62040,78,64,80,188,2.0,1-1,other
62041,81,31,118,221,2.0,1-1,other
62042,86,74,123,149,2.0,1-1,other
62043,91,47,170,583,9.0,2-2,other
62044,90,69,169,216,9.0,2-2,other
62045,86,45,117,219,9.0,2-2,other
62046,86,53,105,191,9.0,2-2,other
62047,88,81,108,159,9.0,2-2,other
62048,88,68,113,194,9.0,2-2,other
62049,83,57,45,149,9.0,2-2,other
62050,83,63,89,190,9.0,2-2,other
62051,86,58,98,175,9.0,2-2,other
62052,86,47,141,187,9.0,2-2,other
62053,81,52,50,183,9.0,2-2,other
62054,52,37,49,2749,3.0,2-5,other
62055,93,118,149,386,3.0,2-5,other
62056,94,62,286,387,0.0,2-3,minor
62057,88,47,176,362,10.0,2-4,other
62058,91,62,157,395,9.0,2-6,other
62059,87,63,140,204,9.0,2-6,other
62060,85,25,145,173,9.0,2-6,other
62061,88,43,91,397,6.0,2-3,other
62062,87,97,154,1116,3.0,3-5B,other
62063,87,52,183,389,4.0,3-5B,other
62064,52,22,47,257,1.0,3-7B,other
62065,58,37,256,340,1.0,3-7B,other
62066,85,83,133,169,1.0,3-7B,other
62067,86,59,69,28,1.0,3-7B,other
62068,87,75,186,182,1.0,3-7B,other
62069,85,55,205,180,11.0,2-3,minor
62070,84,55,68,210,11.0,2-3,minor
62071,62,39,33,366,7.0,2-4,major
62072,86,96,255,202,11.0,2-6,other
62073,83,68,126,217,11.0,2-6,other
62074,79,37,158,160,11.0,2-6,other
62075,59,22,86,236,2.0,1-1,other
62076,71,28,138,179,2.0,1-1,other
62077,67,32,58,185,2.0,1-1,other
62078,73,90,146,171,2.0,1-1,other
62079,55,39,110,243,11.0,2-3,minor
62080,71,55,167,145,11.0,2-3,minor
62081,67,57,102,211,11.0,2-3,minor
62082,64,29,217,176,11.0,2-3,minor
62083,61,47,105,238,11.0,2-3,minor
62084,67,80,317,144,11.0,2-3,minor
62085,60,42,75,361,11.0,2-3,minor
62086,61,53,79,129,11.0,2-3,minor
62087,63,74,252,126,11.0,2-3,minor
62088,64,50,174,44,11.0,2-3,minor
62089,66,69,90,383,5.0,2-1,other
62090,67,84,291,122,5.0,2-1,other
62091,69,53,92,313,5.0,2-1,other
62092,70,67,69,132,5.0,2-1,other
62093,73,64,101,425,6.0,4-9,other
62094,75,72,92,108,6.0,4-9,other
62095,81,35,38,160,1.0,4-13B,diminished
62096,78,59,80,334,1.0,4-13B,diminished
62097,79,64,101,134,1.0,4-13B,diminished
62098,59,53,1295,168,6.0,3-7A,minor
62099,85,48,96,1141,6.0,3-7A,minor
62100,85,37,125,898,4.0,1-1,other
62101,98,99,175,2727,11.0,3-11A,minor
62102,95,80,128,410,11.0,4-19A,minor
62103,59,41,57,196,11.0,4-19A,minor
62104,90,68,75,732,11.0,3-11A,minor
62105,59,28,50,79,11.0,3-11A,minor
62106,90,46,91,149,11.0,3-11A,minor
62107,91,64,171,41,11.0,3-11A,minor
62108,59,33,108,140,11.0,3-11A,minor
62109,62,56,64,1315,11.0,2-6,other
62110,65,55,50,188,11.0,2-6,other
62111,69,74,149,168,11.0,2-6,other
62112,71,88,231,200,11.0,2-6,other
62113,61,42,74,28,11.0,2-6,other
62114,69,47,131,173,11.0,2-6,other
62115,65,46,128,200,11.0,2-6,other
62116,62,22,128,190,11.0,2-6,other
62117,52,30,45,648,3.0,2-5,other
62118,52,22,35,557,3.0,2-5,other
62119,66,51,145,329,3.0,2-5,other
62120,58,34,106,232,3.0,2-4,major
62121,70,47,109,143,3.0,2-4,major
62122,78,35,98,385,10.0,2-4,major
62123,82,82,149,364,9.0,3-5A,other
62124,82,63,182,391,0.0,4-15B,other
62125,78,25,45,227,0.0,4-15B,other
62126,84,83,104,206,0.0,4-15B,other
62127,85,86,150,353,0.0,4-15B,other
62128,47,36,49,254,6.0,2-5,other
62129,85,83,199,231,6.0,2-5,other
62130,83,67,125,266,6.0,2-5,other
62131,83,71,117,490,11.0,2-5,other
62132,78,53,112,259,11.0,2-5,other
62133,74,46,101,249,11.0,2-5,other
62134,47,48,36,390,11.0,2-5,other
62135,56,37,37,2792,11.0,3-5B,other
62136,59,44,33,71,9.0,3-5B,other
62137,50,30,54,690,8.0,2-2,other
62138,62,46,102,301,7.0,2-1,other
62139,59,35,85,195,7.0,2-1,other
62140,54,51,103,182,7.0,2-1,other
62141,52,25,147,175,7.0,2-1,other
62142,50,37,41,203,7.0,2-1,other
62143,66,74,148,172,7.0,2-1,other
62144,59,51,106,399,2.0,1-1,other
62145,52,11,93,427,2.0,1-1,other
62146,54,75,179,280,7.0,2-5,other
62147,50,58,85,199,7.0,2-5,other
62148,54,56,111,370,7.0,2-5,other
62149,50,32,202,77,7.0,2-5,other
62150,55,33,206,106,7.0,2-5,other
62151,57,56,123,212,7.0,2-5,other
62152,50,25,254,33,7.0,2-5,other
62153,58,38,144,149,7.0,2-5,other
62154,59,34,121,203,7.0,2-5,other
62155,50,27,184,61,7.0,2-5,other
62156,62,75,246,125,7.0,2-5,other
62157,50,32,196,200,7.0,2-5,other
62158,59,34,153,176,7.0,2-5,other
62159,50,47,234,1048,6.0,2-2,other
62160,76,64,192,157,6.0,2-2,other
62161,74,49,150,200,6.0,2-2,other
62162,71,22,91,202,6.0,2-2,other
62163,76,82,111,172,6.0,2-2,other
62164,76,77,216,179,6.0,2-2,other
62165,84,89,397,2510,3.0,2-5,other
62166,82,77,144,361,3.0,2-5,other
62167,58,32,87,113,3.0,2-5,other
62168,78,43,165,120,3.0,2-5,other
62169,76,42,94,166,3.0,2-5,other
62170,58,25,71,54,3.0,2-5,other
62171,81,84,147,117,3.0,2-5,other
62172,79,48,98,194,3.0,2-5,other
62173,75,56,106,193,3.0,2-5,other
62174,52,33,606,220,1.0,3-7B,other
62175,72,43,146,150,1.0,3-7B,other
62176,70,42,100,205,1.0,3-7B,other
62177,69,49,117,191,1.0,3-7B,other
62178,70,55,105,199,1.0,3-7B,other
62179,69,66,119,42,1.0,3-7B,other
62180,58,26,219,38,1.0,3-7B,other
62181,67,40,159,78,1.0,3-7B,other
62182,66,55,126,226,1.0,3-7B,other
62183,58,36,114,31,1.0,3-7B,other
62184,64,26,229,156,1.0,3-7B,other
62185,52,33,54,255,3.0,2-5,other
62186,62,39,167,129,3.0,2-5,other
62187,61,53,116,224,3.0,2-5,other
62188,58,47,101,399,4.0,2-2,other
62189,59,61,192,177,4.0,2-2,other
62190,55,69,136,211,4.0,2-2,other
62191,52,32,195,197,4.0,2-2,other
62192,51,53,62,205,4.0,2-2,other
62193,54,91,216,135,4.0,2-2,other
62194,51,56,114,226,4.0,2-2,other
62195,52,46,131,177,4.0,2-2,other
62196,54,59,82,176,4.0,2-2,other
62197,40,30,79,30,4.0,2-2,other
62198,55,55,97,104,4.0,2-2,other
62199,57,68,103,151,4.0,2-2,other
62200,58,67,96,162,4.0,2-2,other
62201,60,69,113,146,4.0,2-2,other
62202,61,62,102,141,4.0,2-2,other
62203,63,50,111,146,4.0,2-2,other
62204,64,68,92,157,4.0,2-2,other
62205,66,62,79,138,4.0,2-2,other
62206,67,55,91,140,4.0,2-2,other
62207,70,80,108,299,6.0,4-29A,minor
62208,61,20,359,1433,6.0,3-5B,other
62209,75,65,120,244,6.0,3-5B,other
62210,55,25,51,241,6.0,3-5B,other
62211,82,57,108,141,6.0,3-5B,other
62212,82,25,33,207,1.0,4-15B,other
62213,88,68,124,153,1.0,4-15B,other
62214,91,90,192,194,1.0,4-15B,other
62215,85,64,124,387,11.0,2-5,other
62216,81,29,59,244,11.0,2-5,other
62217,88,77,95,122,11.0,2-5,other
62218,88,80,133,172,11.0,2-5,other
62219,85,77,138,189,11.0,2-5,other
62220,59,34,126,70,1.0,2-3,minor
62221,82,19,41,214,1.0,2-3,minor
62222,78,49,93,94,1.0,2-3,minor
62223,61,32,114,29,1.0,2-3,minor
62224,85,73,92,172,1.0,2-3,minor
62225,59,41,48,231,1.0,2-3,minor
62226,83,43,162,182,1.0,2-3,minor
62227,81,58,130,186,1.0,2-3,minor
62228,61,31,41,27,1.0,2-3,minor
62229,78,40,162,153,1.0,2-3,minor
62230,83,90,128,391,4.0,2-5,other
62231,82,26,33,50,4.0,2-5,other
62232,81,56,162,357,4.0,2-5,other
62233,78,60,140,180,4.0,2-5,other
62234,59,39,127,415,11.0,2-3,minor
62235,81,88,128,161,11.0,2-3,minor
62236,78,51,232,390,11.0,2-2,other
62237,71,17,171,395,11.0,2-3,minor
62238,69,34,36,181,11.0,2-3,minor
62239,78,70,124,153,11.0,2-3,minor
62240,76,51,134,431,11.0,3-11A,minor
62241,71,32,115,426,11.0,3-11A,minor
62242,59,28,54,151,11.0,3-11A,minor
62243,74,82,575,168,11.0,3-11A,minor
62244,65,57,33,230,11.0,3-11A,minor
62245,65,47,62,184,11.0,3-11A,minor
62246,65,56,127,375,11.0,3-11A,minor
62247,65,41,101,391,11.0,3-11A,minor
62248,73,87,143,1896,4.0,3-5B,other
62249,58,32,81,179,4.0,3-5B,other
62250,73,65,140,39,4.0,3-5B,other
62251,64,42,151,183,4.0,3-5B,other
62252,64,51,42,241,4.0,3-5B,other
62253,52,29,49,1120,3.0,2-5,other
62254,73,88,173,152,3.0,2-5,other
62255,58,28,204,237,3.0,2-1,other
62256,73,51,162,166,3.0,2-1,other
62257,73,48,149,393,4.0,2-6,other
62258,74,64,164,177,4.0,2-6,other
62259,73,50,172,200,4.0,2-6,other
62260,74,50,190,192,4.0,2-6,other
62261,70,57,221,201,4.0,2-6,other
62262,71,58,123,378,4.0,2-6,other
62263,62,33,214,211,4.0,2-6,other
62264,62,37,341,335,4.0,2-6,other
62265,54,25,42,417,4.0,2-6,other
62266,53,55,87,368,4.0,2-6,other
62267,54,33,201,182,4.0,2-6,other
62268,56,54,138,176,4.0,2-6,other
62269,51,23,48,64,4.0,2-6,other
62270,57,38,187,130,4.0,2-6,other
62271,59,51,94,232,4.0,2-6,other
62272,62,55,138,535,11.0,2-1,other
62273,47,26,714,244,9.0,2-6,other
62274,65,66,99,351,9.0,2-6,other
62275,67,49,175,564,6.0,2-3,minor
62276,69,69,151,572,9.0,2-1,other
62277,70,52,300,214,9.0,2-6,other
62278,71,54,1074,358,9.0,2-6,other
62279,66,44,71,394,9.0,2-6,other
62280,59,22,50,68,9.0,2-6,other
62281,66,34,33,582,7.0,2-4,major
62282,76,45,98,2798,11.0,5-23A,minor
62283,78,60,1592,229,11.0,5-23A,minor
62284,74,80,101,2221,3.0,2-1,other
62285,53,59,970,295,10.0,3-11A,other
62286,74,68,453,535,10.0,3-11A,other
62287,76,69,99,534,10.0,3-11A,other
62288,59,44,1461,2978,3.0,2-4,other
62289,83,53,42,2062,3.0,2-4,other
62290,47,40,18,42,3.0,2-4,other
62291,47,31,112,2006,2.0,1-1,other
62292,86,59,65,3690,7.0,1-1,other
62293,50,56,1,65,7.0,1-1,other
62294,88,88,108,317,7.0,1-1,other
62295,52,81,15,108,7.0,1-1,other
62296,83,41,267,1426,2.0,1-1,other
62297,47,35,273,29,2.0,1-1,other
62298,69,87,123,6110,10.0,1-1,other
62299,57,62,130,28,10.0,1-1,other
62300,68,52,114,101,10.0,1-1,other
62301,56,7,73,122,10.0,1-1,other
62302,67,32,40,29,10.0,1-1,other
62303,66,42,99,79,10.0,1-1,other
62304,77,55,148,277,6.0,1-1,other
62305,76,33,54,27,6.0,1-1,other
62306,64,33,43,415,6.0,1-1,other
62307,76,80,375,617,3.0,2-1,other
62308,84,94,154,1821,2.0,1-1,other
62309,83,68,109,209,2.0,1-1,other
62310,79,36,167,182,2.0,1-1,other
62311,74,29,48,195,2.0,1-1,other
62312,81,84,239,191,2.0,1-1,other
62313,79,52,101,179,2.0,1-1,other
62314,74,39,189,169,2.0,1-1,other
62315,71,37,118,196,2.0,1-1,other
62316,71,36,179,210,2.0,1-1,other
62317,71,46,167,372,2.0,1-1,other
62318,71,68,162,379,2.0,1-1,other
62319,70,37,91,225,2.0,1-1,other
62320,71,34,981,148,2.0,1-1,other
62321,57,22,37,265,11.0,2-3,minor
62322,57,32,41,365,11.0,3-11A,minor
62323,57,28,98,237,11.0,3-11A,minor
62324,57,35,50,1683,11.0,3-11A,minor
62325,76,51,84,1504,1.0,1-1,other
62326,52,39,103,32,1.0,1-1,other
62327,82,64,132,5675,7.0,5-27A,major
62328,66,69,60,475,7.0,5-27A,major
62329,59,52,110,734,2.0,3-11B,major
62330,90,55,234,190,2.0,3-11B,major
62331,83,52,109,374,2.0,1-1,other
62332,59,42,298,207,7.0,3-4B,other
62333,82,49,176,759,6.0,4-9,other
62334,77,41,209,184,6.0,4-9,other
62335,55,44,537,226,6.0,2-5,other
62336,72,32,142,179,6.0,2-5,other
62337,70,61,73,161,6.0,2-5,other
62338,69,15,125,212,6.0,2-5,other
62339,61,39,297,940,6.0,3-5B,other
62340,55,40,41,27,6.0,3-5B,other
62341,69,66,195,126,6.0,3-5B,other
62342,72,71,132,440,7.0,2-4,major
62343,59,33,192,262,4.0,3-8A,other
62344,61,45,57,363,7.0,2-1,other
62345,69,59,76,26,7.0,2-1,other
62346,62,70,186,100,7.0,2-1,other
62347,59,33,40,616,1.0,2-3,minor
62348,64,82,150,367,2.0,2-1,other
62349,61,50,150,194,2.0,2-1,other
62350,57,38,106,209,2.0,2-1,other
62351,54,47,217,119,2.0,2-1,other
62352,52,47,53,228,2.0,2-1,other
62353,57,69,155,184,2.0,2-1,other
62354,49,32,64,221,2.0,2-1,other
62355,52,49,98,26,2.0,2-1,other
62356,54,42,110,169,2.0,2-1,other
62357,55,71,142,197,2.0,2-1,other
62358,57,46,166,201,2.0,2-1,other
62359,43,29,42,213,10.0,2-4,other
62360,59,40,175,155,10.0,2-4,other
62361,62,64,134,189,10.0,2-4,other
62362,66,55,71,146,10.0,2-4,other
62363,69,75,144,149,10.0,2-4,other
62364,59,31,74,38,10.0,2-4,other
62365,74,66,168,109,10.0,2-4,other
62366,78,70,82,144,10.0,2-4,other
62367,59,28,96,63,10.0,2-4,other
62368,81,66,130,100,10.0,2-4,other
62369,86,40,120,150,10.0,2-4,other
62370,90,69,125,142,10.0,2-4,other
62371,93,90,168,139,10.0,2-4,other
62372,90,65,111,168,10.0,2-4,other
62373,55,67,97,2101,11.0,3-10,diminished
62374,56,33,161,190,11.0,3-10,diminished
62375,58,71,148,182,11.0,3-10,diminished
62376,55,26,41,42,11.0,3-10,diminished
62377,59,51,181,143,11.0,3-10,diminished
62378,61,65,136,208,11.0,3-10,diminished
62379,62,59,151,174,11.0,3-10,diminished
62380,64,72,105,214,11.0,3-10,diminished
62381,65,88,174,177,11.0,3-8B,other
62382,57,34,46,234,7.0,3-11B,major
62383,65,33,166,169,7.0,3-11B,major
62384,64,58,131,189,7.0,3-11B,major
62385,62,24,116,229,7.0,3-11B,major
62386,63,72,165,332,0.0,2-2,other
62387,63,42,86,525,4.0,2-6,other
62388,58,51,167,396,1.0,2-3,other
62389,51,37,53,48,1.0,2-3,other
62390,57,48,173,121,1.0,2-3,other
62391,55,57,287,230,1.0,2-3,other
62392,49,31,47,49,1.0,2-3,other
62393,54,48,208,105,1.0,2-3,other
62394,52,31,42,268,1.0,2-3,other
62395,54,91,194,145,1.0,2-3,other
62396,51,55,121,215,1.0,2-3,other
62397,52,36,131,189,1.0,2-3,other
62398,55,51,190,406,6.0,2-2,other
62399,57,59,135,209,6.0,2-2,other
62400,58,47,148,175,6.0,2-2,other
62401,62,54,186,375,11.0,1-1,other
62402,66,72,82,163,11.0,1-1,other
62403,57,43,34,44,11.0,1-1,other
62404,69,80,103,120,11.0,1-1,other
62405,74,76,156,156,11.0,1-1,other
62406,78,60,75,148,11.0,1-1,other
62407,81,68,221,158,11.0,1-1,other
62408,86,65,204,148,11.0,1-1,other
62409,90,65,115,139,11.0,1-1,other
62410,91,67,193,138,11.0,1-1,other
62411,90,71,69,159,11.0,1-1,other
62412,47,68,33,419,11.0,1-1,other
62413,72,69,73,1124,8.0,3-7A,minor
62414,60,32,107,2083,11.0,2-5,other
62415,66,38,73,169,11.0,2-5,other
62416,50,29,62,49,11.0,2-5,other
62417,68,57,68,453,6.0,3-2A,minor
62418,54,64,78,674,7.0,2-1,other
62419,66,83,305,565,7.0,2-1,other
62420,62,68,106,208,7.0,2-1,other
62421,50,24,65,27,7.0,2-1,other
62422,59,39,97,153,7.0,2-1,other
62423,54,43,90,205,7.0,2-1,other
62424,52,17,135,214,7.0,2-1,other
62425,50,51,102,163,7.0,2-1,other
62426,52,54,135,176,7.0,2-1,other
62427,54,68,92,168,7.0,2-1,other
62428,50,13,155,93,7.0,2-1,other
62429,55,60,113,61,7.0,2-1,other
62430,57,55,105,172,7.0,2-1,other
62431,50,17,71,109,7.0,2-1,other
62432,58,58,84,41,7.0,2-1,other
62433,59,57,105,153,7.0,2-1,other
62434,62,60,129,150,7.0,2-1,other
62435,66,55,57,147,7.0,2-1,other
62436,69,50,83,174,7.0,2-1,other
62437,74,48,138,118,7.0,2-1,other
62438,78,45,96,148,7.0,2-1,other
62439,81,85,165,125,7.0,2-1,other
62440,78,57,83,145,7.0,2-1,other
62441,42,37,314,1672,7.0,2-1,other
62442,42,42,169,598,7.0,2-1,other
62443,54,49,42,272,7.0,2-1,other
62444,57,59,84,112,7.0,2-1,other
62445,54,59,71,100,7.0,2-1,other
62446,55,47,86,126,7.0,2-1,other
62447,57,55,74,110,7.0,2-1,other
62448,58,55,32,106,7.0,2-1,other
62449,60,69,81,87,7.0,2-1,other
62450,61,71,99,140,7.0,2-1,other
62451,63,74,86,174,7.0,2-1,other
62452,64,64,79,162,7.0,2-1,other
62453,66,71,73,150,7.0,2-1,other
62454,67,70,80,135,7.0,2-1,other
62455,69,75,84,139,7.0,2-1,other
62456,70,71,65,139,7.0,2-1,other
62457,72,68,84,128,7.0,2-1,other
62458,73,64,76,144,7.0,2-1,other
62459,75,57,71,143,7.0,2-1,other
62460,76,44,45,140,7.0,2-1,other
62461,78,46,39,170,7.0,2-1,other
62462,52,35,47,1537,3.0,2-5,other
62463,79,70,193,372,3.0,2-5,other
62464,81,59,129,163,3.0,2-5,other
62465,84,54,95,403,3.0,3-5B,other
62466,59,19,53,281,10.0,2-4,major
62467,88,62,117,118,10.0,2-4,major
62468,90,46,100,383,7.0,1-1,other
62469,86,22,58,407,7.0,2-4,major
62470,79,44,42,183,7.0,2-4,major
62471,88,92,238,177,7.0,2-4,major
62472,83,40,150,386,11.0,2-3,minor
62473,79,55,114,192,11.0,2-3,minor
62474,76,12,172,204,11.0,2-3,minor
62475,74,28,53,190,11.0,2-3,minor
62476,55,45,320,204,11.0,3-11A,minor
62477,81,50,145,359,11.0,3-11A,minor
62478,78,63,161,588,6.0,3-5B,other
62479,75,84,186,578,1.0,4-13B,diminished
62480,55,36,40,259,10.0,3-11B,other
62481,67,53,117,267,10.0,3-11B,other
62482,61,51,37,130,10.0,3-11B,other
62483,55,46,38,26,10.0,3-11B,other
62484,63,45,205,51,10.0,3-11B,other
62485,65,24,33,868,6.0,3-5B,other
62486,59,43,111,598,6.0,3-7B,other
62487,85,92,149,874,1.0,4-23,minor
62488,86,66,106,403,11.0,2-5,other
62489,59,33,42,236,1.0,2-3,minor
62490,88,94,132,665,1.0,4-23,minor
62491,86,64,122,208,1.0,4-23,minor
62492,54,27,111,229,1.0,3-7A,minor
62493,83,36,186,155,1.0,3-7A,minor
62494,81,35,44,204,1.0,3-7A,minor
62495,85,74,155,181,11.0,3-11A,minor
62496,86,60,100,198,11.0,3-11A,minor
62497,82,67,124,186,11.0,3-11A,minor
62498,78,46,159,371,11.0,3-11A,minor
62499,81,64,147,192,11.0,3-11A,minor
62500,79,37,148,188,11.0,3-11A,minor
62501,74,69,117,179,11.0,3-11A,minor
62502,72,36,103,167,11.0,3-11A,minor
62503,72,64,127,225,11.0,3-11A,minor
62504,54,28,333,623,7.0,3-11B,major
62505,67,80,162,572,11.0,3-10,diminished
62506,67,77,1072,227,11.0,3-10,diminished
62507,59,24,160,146,11.0,3-10,diminished
62508,59,42,58,1198,11.0,3-10,diminished
62509,76,101,165,141,11.0,3-10,diminished
62510,73,71,152,400,7.0,2-4,major
62511,59,32,87,185,7.0,2-4,major
62512,53,20,38,384,11.0,2-3,minor
62513,78,70,77,1534,3.0,3-5B,other
62514,84,101,143,200,3.0,3-5B,other
62515,78,31,160,408,10.0,1-1,other
62516,76,63,106,167,10.0,1-1,other
62517,75,25,236,219,3.0,2-5,other
62518,73,59,144,154,3.0,2-5,other
62519,52,26,54,71,3.0,2-5,other
62520,72,38,117,97,3.0,2-5,other
62521,70,54,123,189,3.0,2-5,other
62522,69,48,195,189,3.0,3-5B,other
62523,67,52,130,199,3.0,3-5B,other
62524,59,34,72,57,3.0,3-5B,other
62525,66,46,179,138,3.0,3-5B,other
62526,66,74,3008,738,11.0,2-2,other
62527,53,35,78,229,11.0,2-2,other
62528,62,55,116,138,11.0,2-2,other
62529,62,44,650,243,11.0,2-2,other
62530,57,41,108,382,11.0,2-2,other
62531,53,36,40,387,11.0,2-2,other
62532,53,27,443,526,11.0,2-3,minor
62533,49,31,143,3338,3.0,3-11A,other
62534,74,64,316,5779,11.0,3-11A,minor
62535,74,64,199,1099,11.0,4-13B,diminished
62536,53,32,91,515,11.0,4-13B,diminished
62537,52,37,55,1267,1.0,3-10,other
62538,59,48,1357,1861,3.0,2-4,other
62539,47,32,110,3031,2.0,1-1,other
62540,71,34,46,32,2.0,1-1,other
62541,71,69,115,1341,1.0,1-1,other
62542,47,28,91,47,1.0,1-1,other
62543,67,34,42,145,1.0,1-1,other
62544,47,38,297,768,6.0,3-7A,minor
62545,47,34,88,581,6.0,4-23,minor
62546,49,49,277,1751,11.0,3-9,other
62547,49,34,118,565,11.0,3-9,other
62548,64,38,375,4433,1.0,2-2,other
62549,49,53,758,2682,1.0,2-3,minor
62550,58,54,555,373,1.0,2-3,minor
62551,49,52,402,603,1.0,2-3,minor
62552,42,55,48,338,1.0,2-3,minor
62553,55,43,38,2743,2.0,2-4,major
62554,78,77,1097,1500,9.0,2-5,other
62555,54,52,824,599,11.0,3-7A,minor
62556,59,29,60,2920,11.0,3-10,diminished
62557,53,19,42,48,11.0,3-10,diminished
62558,64,61,379,1479,6.0,2-5,other
62559,64,62,562,549,1.0,2-2,other
62560,86,46,167,4946,6.0,1-1,other
62561,50,34,172,41,6.0,1-1,other
62562,79,55,105,3221,11.0,1-1,other
62563,43,38,42,33,11.0,1-1,other
62564,86,48,127,2261,6.0,1-1,other
62565,50,37,97,34,6.0,1-1,other
62566,86,50,141,498,11.0,1-1,other
62567,50,42,215,43,11.0,1-1,other
62568,83,62,52,961,1.0,1-1,other
62569,47,32,3,51,1.0,1-1,other
62570,61,56,85,3457,6.0,1-1,other
62571,68,71,87,530,6.0,1-1,other
62572,69,49,87,725,10.0,1-1,other
62573,67,36,192,171,9.0,2-1,other
62574,66,30,128,162,9.0,2-1,other
62575,53,71,766,5764,10.0,4-19B,augmented
62576,66,43,3088,727,2.0,2-5,other
62577,54,87,4285,3961,4.0,4-16B,other
62578,59,68,942,1592,4.0,4-16B,other
62579,64,36,202,281,4.0,4-16B,other
62580,66,36,143,213,4.0,4-16B,other
62581,64,41,197,146,4.0,4-16B,other
62582,66,46,177,156,4.0,4-16B,other
62583,64,39,186,858,11.0,2-5,other
62584,71,24,156,184,11.0,2-5,other
62585,64,36,162,155,11.0,2-5,other
62586,66,29,141,142,11.0,2-5,other
62587,71,19,146,35,11.0,2-5,other
62588,59,17,239,79,11.0,2-5,other
62589,64,36,165,81,11.0,2-5,other
62590,66,29,172,145,11.0,2-5,other
62591,71,24,144,48,11.0,2-5,other
62592,47,25,218,39,11.0,2-5,other
62593,64,39,187,110,11.0,2-5,other
62594,64,24,232,313,11.0,2-5,other
62595,64,36,166,361,11.0,2-5,other
62596,64,27,171,305,11.0,2-5,other
62597,64,28,1558,294,11.0,2-5,other
62598,66,12,1460,119,11.0,2-5,other
62599,36,111,107,0,,,
62600,43,90,86,39,,,
62601,55,50,70,742,9.0,4-3,other
62602,58,54,34,59,9.0,4-3,other
62603,34,69,7,661,0.0,4-27B,major
62604,62,49,50,301,0.0,3-11B,major
62605,64,54,75,33,0.0,3-11B,major
62606,74,69,16,45,0.0,3-11B,major
62607,60,68,48,329,6.0,3-8B,other
62608,64,95,66,66,6.0,3-8B,other
62609,60,64,20,59,6.0,3-8B,other
62610,67,68,37,250,7.0,1-1,other
62611,63,63,46,115,4.0,4-29A,minor
62612,62,50,28,40,4.0,4-29A,minor
62613,68,67,25,64,4.0,4-29A,minor
62614,69,65,28,46,4.0,4-29A,minor
62615,82,72,39,214,0.0,3-9,other
62616,72,54,140,116,5.0,3-8B,other
62617,81,60,28,60,5.0,3-8B,other
62618,79,74,23,66,5.0,3-8B,other
62619,63,68,62,114,5.0,4-20,major
62620,61,58,57,119,2.0,4-14A,minor
62621,57,50,5,99,5.0,3-11B,major
62622,43,75,35,166,3.0,4-24,augmented
62623,36,96,51,37,3.0,4-24,augmented
62624,43,93,73,54,3.0,4-24,augmented
62625,81,74,28,712,0.0,1-1,other
62626,73,61,35,34,0.0,1-1,other
62627,70,77,23,68,0.0,3-8A,major
62628,52,45,88,150,6.0,2-3,minor
62629,48,58,61,114,9.0,2-5,other
62630,52,58,160,128,9.0,2-5,other
62631,53,53,6,474,0.0,4-24,augmented
62632,74,67,10,140,0.0,5-30B,other
62633,52,52,88,110,9.0,2-3,minor
62634,72,73,29,115,9.0,3-11A,minor
62635,50,50,111,118,0.0,4-24,augmented
62636,57,55,20,64,0.0,4-24,augmented
62637,60,62,31,66,0.0,4-24,augmented
62638,65,93,15,28,0.0,4-24,augmented
62639,67,68,36,89,2.0,6-32,minor
62640,67,72,33,57,2.0,6-32,minor
62641,67,58,48,54,2.0,6-32,minor
62642,50,56,73,114,3.0,4-24,augmented
62643,69,61,12,117,8.0,2-3,other
62644,36,64,4,128,0.0,2-4,major
62645,64,51,55,246,4.0,4-26,minor
62646,60,49,39,239,4.0,3-7A,minor
62647,53,59,9,117,9.0,3-11A,minor
62648,48,57,9,121,6.0,3-7A,minor
62649,40,84,32,182,9.0,1-1,other
62650,47,75,115,54,9.0,1-1,other
62651,71,77,16,112,7.0,3-11B,major
62652,51,53,222,131,3.0,4-24,augmented
62653,56,64,31,747,7.0,4-22A,major
62654,57,72,19,36,7.0,4-22A,major
62655,41,71,353,58,7.0,4-22A,major
62656,57,72,173,124,3.0,3-12,augmented
62657,66,58,16,135,3.0,2-4,major
62658,60,47,24,74,0.0,4-24,augmented
62659,62,62,17,28,0.0,4-24,augmented
62660,64,65,18,26,0.0,4-24,augmented
62661,61,61,80,213,0.0,2-5,other
62662,61,52,35,245,7.0,3-9,other
62663,69,85,9,147,9.0,1-1,other
62664,46,59,209,87,5.0,4-24,augmented
62665,55,59,65,64,5.0,4-24,augmented
62666,61,1,29,53,5.0,4-24,augmented
62667,50,63,36,66,5.0,4-24,augmented
62668,50,74,50,540,11.0,5-25A,diminished
62669,50,65,29,62,11.0,5-25A,diminished
62670,50,65,12,53,11.0,5-25A,diminished
62671,32,85,10,121,5.0,3-11A,other
62672,50,55,68,484,3.0,5-26A,other
62673,68,58,17,135,3.0,4-16A,other
62674,43,67,45,122,9.0,5-35,minor
62675,67,72,20,102,4.0,4-23,minor
62676,68,70,38,113,3.0,4-27A,other
62677,69,55,10,130,6.0,4-27A,diminished
62678,72,56,34,122,2.0,4-23,minor
62679,72,63,38,118,0.0,2-5,other
62680,84,102,48,121,9.0,3-2A,minor
62681,72,72,31,110,1.0,3-10,minor
62682,81,88,14,130,5.0,4-20,major
62683,62,48,36,861,0.0,3-12,augmented
62684,60,80,29,155,0.0,2-5,other
62685,60,58,43,53,0.0,2-5,other
62686,60,47,170,135,2.0,3-8A,major
62687,64,52,59,55,2.0,3-8A,major
62688,76,81,9,78,9.0,2-3,minor
62689,79,75,7,41,9.0,2-3,minor
62690,57,54,70,78,0.0,3-9,other
62691,67,58,38,92,0.0,2-4,major
62692,68,62,9,189,4.0,4-29A,minor
62693,69,56,20,50,4.0,4-29A,minor
62694,52,45,28,189,0.0,2-4,major
62695,67,45,15,45,0.0,2-4,major
62696,51,59,34,278,1.0,5-25B,other
62697,38,61,6,80,2.0,4-26,minor
62698,54,85,135,39,2.0,4-26,minor
62699,69,91,25,79,0.0,3-12,augmented
62700,72,106,90,37,0.0,3-12,augmented
62701,71,82,86,83,4.0,3-5B,other
62702,43,52,42,152,7.0,1-1,other
62703,36,65,75,48,7.0,1-1,other
62704,43,55,39,74,7.0,1-1,other
62705,53,57,49,241,3.0,4-27A,other
62706,54,65,41,121,6.0,4-23,minor
62707,81,29,6,94,0.0,2-5,other
62708,43,49,10,71,0.0,1-1,other
62709,81,24,22,42,0.0,1-1,other
62710,73,83,34,134,9.0,3-11A,minor
62711,67,68,6,97,0.0,3-8A,major
62712,64,78,63,117,5.0,3-12,augmented
62713,48,78,30,65,5.0,2-4,major
62714,52,83,12,30,5.0,2-4,major
62715,61,77,32,199,4.0,3-11B,major
62716,53,59,22,75,5.0,3-11B,major
62717,67,70,11,123,0.0,5-26B,other
62718,64,44,23,201,0.0,4-11A,other
62719,46,78,62,161,0.0,3-12,augmented
62720,74,87,12,48,0.0,3-12,augmented
62721,69,52,21,311,6.0,3-8B,other
62722,76,100,80,36,6.0,3-8B,other
62723,72,51,11,83,2.0,3-8A,major
62724,76,77,9,35,2.0,3-8A,major
62725,50,72,26,322,5.0,3-11B,major
62726,43,74,65,35,5.0,3-11B,major
62727,69,89,67,81,4.0,4-18A,major
62728,41,82,24,36,4.0,4-18A,major
62729,56,61,110,95,0.0,3-11B,major
62730,62,95,135,33,0.0,3-11B,major
62731,79,109,15,93,0.0,2-5,other
62732,84,115,190,30,0.0,2-5,other
62733,89,105,12,315,5.0,5-27A,major
62734,84,102,14,117,5.0,4-20,major
62735,83,77,29,26,5.0,4-20,major
62736,79,67,29,62,4.0,4-18A,major
62737,43,80,125,42,4.0,4-18A,major
62738,43,65,25,296,9.0,5-35,minor
62739,81,47,11,453,0.0,1-1,other
62740,81,43,26,61,7.0,5-35,minor
62741,79,62,6,289,9.0,4-18A,major
62742,69,105,29,449,6.0,3-8B,other
62743,53,59,138,373,0.0,5-26B,other
62744,74,72,24,436,11.0,3-7A,minor
62745,64,43,30,67,6.0,3-8A,other
62746,69,49,14,96,9.0,4-19A,minor
62747,71,83,24,40,9.0,4-19A,minor
62748,45,94,20,200,2.0,6-32,minor
62749,44,74,31,35,2.0,6-32,minor
62750,31,105,11,89,4.0,3-11A,minor
62751,59,92,34,77,3.0,4-11B,other
62752,48,81,25,275,9.0,5-14A,minor
62753,72,80,81,123,3.0,5-30B,augmented
62754,41,75,24,124,9.0,3-8B,other
62755,41,69,10,40,9.0,3-8B,other
62756,71,77,20,112,4.0,2-5,other
62757,71,77,17,87,9.0,5-27A,major
62758,54,50,19,133,9.0,4-14A,minor
62759,57,58,41,120,0.0,4-16A,major
62760,71,73,11,117,4.0,4-26,minor
62761,57,35,21,186,0.0,4-15A,minor
62762,67,61,3,33,0.0,4-15A,minor
62763,52,65,23,296,4.0,4-26,minor
62764,67,68,6,89,4.0,4-23,minor
62765,66,74,17,33,4.0,4-23,minor
62766,59,92,91,89,1.0,2-3,minor
62767,52,41,19,360,4.0,4-26,minor
62768,52,30,22,34,4.0,4-26,minor
62769,53,62,7,310,0.0,4-24,augmented
62770,84,100,12,41,0.0,4-24,augmented
62771,62,52,51,74,0.0,6-34A,other
62772,84,112,18,126,5.0,4-5B,other
62773,82,78,30,29,5.0,4-5B,other
62774,72,76,30,86,7.0,4-27A,minor
62775,65,65,15,106,2.0,3-7B,other
62776,65,46,9,34,2.0,3-7B,other
62777,69,98,17,29,2.0,3-7B,other
62778,50,68,22,116,5.0,3-11B,major
62779,69,65,28,105,5.0,4-24,augmented
62780,31,71,8,650,9.0,4-26,minor
62781,43,75,91,1259,3.0,5-29B,other
62782,43,63,6,131,2.0,3-11A,minor
62783,84,79,17,124,7.0,5-35,minor
62784,84,74,15,87,5.0,3-9,other
62785,58,56,31,269,1.0,3-10,minor
62786,56,64,7,558,0.0,3-7B,other
62787,62,64,101,32,0.0,3-7B,other
62788,67,90,22,29,0.0,3-7B,other
62789,62,57,46,107,0.0,3-11B,major
62790,46,56,20,237,0.0,2-4,major
62791,51,47,47,116,9.0,3-7A,minor
62792,51,61,39,125,9.0,4-26,minor
62793,38,74,52,117,2.0,4-27B,major
62794,57,80,22,47,2.0,4-27B,major
62795,60,90,20,34,2.0,4-27B,major
62796,64,88,18,28,2.0,4-27B,major
62797,65,90,13,27,2.0,4-27B,major
62798,67,89,35,96,9.0,4-23,minor
62799,67,88,37,58,9.0,4-23,minor
62800,41,83,33,234,4.0,4-29A,minor
62801,68,96,27,47,4.0,4-29A,minor
62802,69,79,16,38,4.0,4-29A,minor
62803,76,76,99,79,4.0,1-1,other
62804,45,93,146,441,10.0,3-11B,major
62805,45,77,34,176,5.0,4-24,augmented
62806,45,93,61,363,2.0,4-26,minor
62807,50,103,52,55,2.0,4-26,minor
62808,52,85,60,60,2.0,4-26,minor
62809,57,56,22,242,7.0,2-5,other
62810,60,59,25,123,5.0,4-22A,major
62811,67,56,18,238,3.0,4-24,augmented
62812,67,52,13,136,3.0,4-24,augmented
62813,72,64,16,102,0.0,4-22A,other
62814,72,46,14,31,0.0,4-22A,other
62815,73,59,13,92,9.0,4-22A,major
62816,73,72,18,30,9.0,4-22A,major
62817,75,76,15,82,1.0,4-22A,other
62818,75,78,13,32,1.0,4-22A,other
62819,78,84,12,117,8.0,2-3,other
62820,78,76,15,90,2.0,4-22A,major
62821,78,64,11,30,2.0,4-22A,major
62822,80,58,8,90,4.0,4-22A,major
62823,80,62,20,27,4.0,4-22A,major
62824,81,56,13,102,5.0,4-22A,major
62825,52,51,14,300,7.0,3-11B,major
62826,57,55,183,55,7.0,3-11B,major
62827,51,67,756,0,,,
62828,75,39,128,212,2.0,2-3,minor
62829,76,29,48,40,2.0,2-3,minor
62830,75,70,524,3680,0.0,5-27A,other
62831,46,66,128,1264,5.0,1-1,other
62832,79,68,568,436,5.0,1-1,other
62833,68,64,496,132,11.0,2-3,minor
62834,67,49,804,52,11.0,2-3,minor
62835,82,79,64,720,11.0,2-3,minor
62836,79,74,220,300,11.0,2-3,minor
62837,68,52,236,92,11.0,2-3,minor
62838,67,46,328,36,11.0,2-3,minor
62839,82,81,108,392,11.0,2-3,minor
62840,66,45,468,972,2.0,4-6,other
62841,46,52,176,1276,3.0,3-11B,major
62842,55,69,196,196,3.0,3-11B,major
62843,58,59,488,204,3.0,3-11B,major
62844,60,66,192,216,3.0,3-11B,major
62845,62,71,148,200,3.0,3-11B,major
62846,63,70,168,188,3.0,3-11B,major
62847,65,79,232,188,3.0,3-11B,major
62848,46,68,444,552,6.0,2-3,other
62849,65,82,124,664,3.0,3-11A,other
62850,63,30,180,44,3.0,3-11A,other
62851,66,31,56,1176,4.0,3-11B,major
62852,54,42,420,284,10.0,3-11B,other
62853,72,68,224,416,10.0,3-11B,other
62854,60,82,136,2700,7.0,2-3,minor
62855,57,81,84,32,7.0,2-3,minor
62856,61,82,140,104,7.0,2-3,minor
62857,63,72,88,116,7.0,2-3,minor
62858,64,65,92,100,7.0,2-3,minor
62859,65,66,136,72,7.0,2-3,minor
62860,66,45,32,104,7.0,2-3,minor
62861,67,49,64,68,7.0,2-3,minor
62862,44,62,28,388,1.0,2-5,other
62863,63,58,72,748,0.0,4-26,other
62864,61,85,312,1336,5.0,3-8B,other
62865,41,41,420,4884,3.0,2-4,major
62866,57,46,352,64,0.0,3-9,other
62867,50,90,440,2584,9.0,4-26,minor
62868,48,75,276,440,9.0,4-26,minor
62869,35,82,168,1048,9.0,4-26,minor
62870,57,48,120,1496,1.0,4-22B,other
62871,34,62,80,944,0.0,5-27A,other
62872,67,49,652,584,0.0,5-27A,other
62873,69,66,756,1928,4.0,2-2,other
62874,66,48,1432,84,4.0,2-2,other
62875,62,48,1192,32,4.0,2-2,other
62876,75,66,496,1456,11.0,2-3,minor
62877,51,48,820,32,11.0,2-3,minor
62878,58,52,596,252,11.0,2-3,minor
62879,75,73,184,552,0.0,3-11A,minor
62880,62,63,116,676,5.0,3-7B,other
62881,63,60,84,128,5.0,3-7B,other
62882,65,72,100,116,5.0,3-7B,other
62883,68,70,84,168,7.0,2-1,other
62884,70,68,40,64,0.0,2-3,minor
62885,72,61,92,64,0.0,2-3,minor
62886,74,82,72,80,0.0,2-3,minor
62887,75,68,28,56,0.0,2-3,minor
62888,77,76,88,64,0.0,2-3,minor
62889,79,81,88,68,0.0,2-3,minor
62890,80,60,68,48,0.0,2-3,minor
62891,82,66,28,48,0.0,2-3,minor
62892,84,70,80,64,0.0,2-3,minor
62893,86,68,180,80,0.0,2-3,minor
62894,87,63,64,60,0.0,2-3,minor
62895,88,77,64,56,0.0,2-3,minor
62896,56,58,280,108,10.0,2-5,other
62897,89,50,164,560,10.0,2-5,other
62898,90,19,72,312,10.0,2-5,other
62899,94,72,104,696,7.0,4-29A,minor
62900,81,39,300,1260,2.0,2-4,major
62901,78,4,192,424,11.0,2-3,minor
62902,58,63,808,704,0.0,3-11A,minor
62903,60,69,372,356,0.0,3-11A,minor
62904,62,70,196,356,0.0,3-11A,minor
62905,61,14,536,544,3.0,3-11A,other
62906,46,66,608,296,3.0,3-11A,other
62907,65,61,540,836,1.0,4-26,other
62908,54,62,96,1100,8.0,2-2,other
62909,56,56,44,76,8.0,2-2,other
62910,57,57,84,44,8.0,2-2,other
62911,60,66,124,40,8.0,2-2,other
62912,62,48,88,52,8.0,2-2,other
62913,65,65,28,72,8.0,2-2,other
62914,66,61,96,48,8.0,2-2,other
62915,69,52,76,88,8.0,2-2,other
62916,72,66,92,56,8.0,2-2,other
62917,74,57,60,36,8.0,2-2,other
62918,77,59,36,48,8.0,2-2,other
62919,81,38,1040,140,8.0,2-2,other
62920,84,57,980,60,8.0,2-2,other
62921,86,58,892,44,8.0,2-2,other
62922,89,82,548,80,8.0,2-2,other
62923,96,85,236,1228,8.0,2-2,other
62924,96,81,380,360,8.0,2-2,other
62925,91,76,400,556,8.0,2-2,other
62926,44,63,108,704,1.0,2-3,other
62927,56,56,1492,544,8.0,2-3,other
62928,43,78,128,2836,5.0,3-11A,other
62929,72,82,232,1392,9.0,4-18A,major
62930,57,44,240,2940,2.0,4-23,minor
62931,48,64,436,416,2.0,4-23,minor
62932,52,85,344,720,9.0,4-23,minor
62933,54,92,364,668,9.0,3-7A,minor
62934,72,107,592,912,5.0,3-11B,major
62935,67,38,164,1500,3.0,3-4A,other
62936,59,49,52,576,3.0,2-5,other
62937,64,42,280,364,7.0,5-16A,other
62938,53,59,52,340,7.0,5-16A,other
62939,51,52,72,2124,3.0,2-5,other
62940,58,66,1856,260,3.0,2-5,other
62941,60,75,316,244,3.0,2-5,other
62942,75,81,444,256,3.0,2-5,other
62943,67,51,408,60,3.0,2-5,other
62944,60,65,932,304,3.0,2-5,other
62945,63,50,92,452,3.0,2-5,other
62946,68,61,308,492,3.0,2-5,other
62947,53,33,316,432,3.0,3-9,other
62948,52,58,296,324,3.0,3-9,other
62949,55,70,320,636,5.0,3-7B,other
62950,58,87,568,652,0.0,3-11B,other
62951,56,69,68,632,0.0,2-3,minor
62952,53,78,2104,704,3.0,3-7A,other
62953,73,65,284,1192,3.0,2-4,other
62954,63,59,796,308,3.0,2-4,other
62955,66,65,520,296,3.0,2-4,other
62956,73,68,212,288,3.0,2-4,other
62957,44,57,136,1284,1.0,4-27B,other
62958,53,63,192,192,1.0,4-27B,other
62959,57,68,260,204,1.0,4-27B,other
62960,67,50,688,324,3.0,3-4A,other
62961,53,55,888,316,3.0,3-4A,other
62962,68,60,224,740,3.0,2-5,other
62963,73,76,268,1144,1.0,4-23,other
62964,70,56,312,404,1.0,4-23,other
62965,49,75,424,304,1.0,4-23,other
62966,61,49,156,712,1.0,4-26,other
62967,49,79,1824,1412,10.0,3-11B,other
62968,56,92,220,296,10.0,3-11B,other
62969,58,82,472,648,10.0,3-11B,other
62970,61,62,772,340,10.0,3-11B,other
62971,70,66,140,692,10.0,2-4,other
62972,53,43,136,500,0.0,4-26,other
62973,60,43,76,2912,8.0,2-3,other
62974,82,47,288,2108,10.0,1-1,other
62975,70,31,212,32,10.0,1-1,other
62976,70,39,832,532,10.0,2-4,other
62977,75,68,272,4520,0.0,4-26,minor
62978,65,52,212,180,0.0,2-4,other
62979,63,54,276,48,0.0,2-4,other
62980,77,72,148,304,0.0,2-4,other
62981,68,54,160,56,0.0,2-3,minor
62982,65,68,144,72,0.0,2-3,minor
62983,79,81,148,184,0.0,2-3,minor
62984,77,50,116,1108,4.0,3-8B,other
62985,77,75,352,812,4.0,3-8B,other
62986,51,31,180,104,4.0,3-8B,other
62987,59,59,140,132,4.0,3-8B,other
62988,69,56,136,172,2.0,1-1,other
62989,66,48,800,136,2.0,1-1,other
62990,59,42,248,520,2.0,1-1,other
62991,66,45,180,376,2.0,1-1,other
62992,63,48,92,140,2.0,1-1,other
62993,58,64,400,500,0.0,4-26,minor
62994,63,82,132,848,5.0,2-5,other
62995,62,75,104,196,5.0,2-5,other
62996,61,59,136,116,5.0,2-5,other
62997,60,48,64,88,5.0,2-5,other
62998,59,61,68,72,5.0,2-5,other
62999,58,42,32,104,5.0,2-5,other
63000,57,57,76,64,5.0,2-5,other
63001,56,50,60,84,5.0,2-5,other
63002,55,39,68,108,5.0,2-5,other
63003,53,61,36,88,5.0,2-5,other
63004,54,60,392,100,5.0,2-5,other
63005,39,44,796,28,5.0,2-5,other
63006,46,48,424,388,5.0,2-5,other
63007,51,40,180,340,3.0,3-11A,other
63008,65,76,108,224,3.0,3-11A,other
63009,63,34,48,60,3.0,3-11A,other
63010,68,73,120,1160,6.0,5-31B,diminished
63011,70,69,108,252,6.0,5-31B,diminished
63012,72,73,124,228,6.0,5-31B,diminished
63013,67,41,192,1376,1.0,2-3,other
63014,63,50,1080,348,0.0,2-4,other
63015,55,57,344,360,0.0,2-4,other
63016,56,64,256,376,0.0,2-4,other
63017,44,62,272,316,0.0,2-4,other
63018,49,55,36,620,5.0,3-8B,other
63019,72,83,160,28,5.0,3-8B,other
63020,52,58,340,420,0.0,4-12A,major
63021,75,74,212,1204,9.0,3-11B,major
63022,57,44,164,680,0.0,3-9,other
63023,81,77,104,540,0.0,3-9,other
63024,84,82,192,1672,9.0,4-23,minor
63025,85,82,132,1120,9.0,5-24A,other
63026,83,67,172,216,9.0,5-24A,other
63027,85,67,216,240,9.0,5-24A,other
63028,62,47,116,328,7.0,3-2A,minor
63029,22,61,88,592,7.0,3-2A,minor
63030,46,54,664,12080,0.0,5-35,other
63031,56,60,2292,1440,10.0,2-5,other
63032,62,56,132,208,11.0,2-1,other
63033,67,66,56,128,11.0,2-1,other
63034,79,84,608,140,11.0,2-1,other
63035,74,65,96,452,11.0,2-1,other
63036,91,68,784,516,11.0,2-1,other
63037,64,77,29,0,,,
63038,67,64,5,135,7.0,4-27A,minor
63039,65,95,43,334,4.0,4-29A,minor
63040,62,73,33,118,5.0,2-1,other
63041,83,91,19,122,4.0,4-26,minor
63042,83,68,27,111,4.0,4-26,minor
63043,57,59,107,369,2.0,4-23,minor
63044,65,61,43,59,2.0,4-23,minor
63045,67,87,21,49,2.0,4-23,minor
63046,63,62,52,118,4.0,4-29A,minor
63047,71,83,26,111,2.0,3-11A,minor
63048,67,61,6,31,2.0,3-11A,minor
63049,59,74,32,165,9.0,1-1,other
63050,60,80,51,60,9.0,1-1,other
63051,63,63,17,96,9.0,3-8A,major
63052,64,55,21,28,9.0,3-8A,major
63053,67,80,22,27,9.0,3-8A,major
63054,70,64,16,58,9.0,4-27B,major
63055,72,43,27,29,9.0,4-27B,major
63056,79,71,11,30,9.0,4-27B,major
63057,61,55,49,92,2.0,3-11A,minor
63058,81,88,36,123,5.0,4-20,major
63059,57,71,75,363,4.0,4-27A,diminished
63060,56,86,44,114,9.0,4-26,minor
63061,60,56,22,123,0.0,4-27B,major
63062,76,97,27,95,7.0,2-5,other
63063,72,94,14,37,7.0,2-5,other
63064,42,88,16,44,7.0,2-5,other
63065,71,60,34,297,9.0,5-24A,other
63066,62,59,39,245,4.0,3-4A,major
63067,61,56,26,128,1.0,3-7B,other
63068,43,61,221,106,9.0,5-32A,other
63069,62,55,37,126,4.0,4-18A,major
63070,64,88,77,172,9.0,3-11A,minor
63071,81,83,201,436,9.0,4-22B,minor
63072,69,66,145,112,5.0,3-11B,major
63073,45,42,16,122,4.0,3-5B,other
63074,43,70,34,61,4.0,3-5B,other
63075,67,69,27,41,4.0,3-5B,other
63076,40,69,11,78,4.0,3-5B,other
63077,83,64,13,511,4.0,3-7B,other
63078,79,48,9,29,4.0,3-7B,other
63079,74,38,12,29,4.0,3-7B,other
63080,67,9,22,66,11.0,2-3,minor
63081,64,34,25,26,11.0,2-3,minor
63082,62,51,27,28,11.0,2-3,minor
63083,58,71,58,92,9.0,3-8A,major
63084,56,66,52,302,11.0,2-2,other
63085,57,64,58,53,11.0,2-2,other
63086,69,70,11,233,0.0,3-8B,other
63087,74,54,9,523,5.0,4-16A,major
63088,59,56,28,150,7.0,4-14B,major
63089,69,74,27,84,4.0,2-2,other
63090,81,96,18,70,9.0,2-3,minor
63091,84,119,30,39,9.0,2-3,minor
63092,72,71,14,78,5.0,4-24,augmented
63093,63,56,38,84,9.0,3-7B,other
63094,61,55,40,83,2.0,4-26,minor
63095,53,57,9,118,5.0,3-11B,major
63096,50,26,38,117,4.0,5-24A,minor
63097,43,10,24,130,3.0,3-8B,other
63098,69,62,11,553,2.0,4-27B,major
63099,50,53,27,127,6.0,3-8B,other
63100,63,66,28,148,4.0,4-29A,minor
63101,64,72,17,117,11.0,3-10,diminished
63102,84,55,12,230,0.0,4-20,major
63103,83,84,14,124,7.0,3-9,other
63104,74,56,15,91,2.0,3-5B,other
63105,72,66,25,26,2.0,3-5B,other
63106,67,68,19,137,10.0,3-3A,major
63107,45,79,36,155,8.0,4-27B,other
63108,68,1,27,161,9.0,4-18A,major
63109,54,52,24,116,5.0,5-34,major
63110,48,51,22,60,5.0,3-11B,major
63111,51,52,22,61,5.0,3-4A,major
63112,57,36,17,155,5.0,3-11B,major
63113,69,63,17,93,9.0,2-1,other
63114,68,54,21,28,9.0,2-1,other
63115,65,66,9,130,4.0,2-5,other
63116,73,48,20,333,11.0,2-6,other
63117,74,70,23,32,11.0,2-6,other
63118,67,53,131,79,4.0,2-3,minor
63119,61,50,20,472,2.0,3-11A,minor
63120,67,72,32,364,1.0,5-34,other
63121,76,106,27,154,9.0,6-32,minor
63122,50,48,217,365,4.0,2-6,other
63123,58,62,36,78,6.0,6-24B,diminished
63124,69,1,95,84,6.0,4-27A,diminished
63125,56,86,38,77,6.0,4-27A,diminished
63126,43,57,115,76,4.0,3-11A,minor
63127,67,79,15,123,11.0,3-10,diminished
63128,71,97,18,43,11.0,3-10,diminished
63129,67,56,20,80,0.0,2-4,major
63130,83,94,18,115,0.0,4-20,major
63131,84,107,21,26,0.0,4-20,major
63132,86,101,20,29,0.0,4-20,major
63133,67,76,14,321,0.0,4-11A,major
63134,74,96,27,33,0.0,4-11A,major
63135,62,62,13,117,4.0,4-26,minor
63136,51,65,24,235,9.0,3-10,diminished
63137,44,87,17,497,5.0,3-11B,major
63138,42,96,33,224,11.0,5-29B,diminished
63139,43,105,93,46,11.0,5-29B,diminished
63140,31,105,36,70,11.0,5-29B,diminished
63141,60,81,13,70,9.0,3-1,other
63142,43,57,93,161,0.0,2-4,major
63143,36,62,17,105,0.0,2-4,major
63144,52,46,56,519,8.0,4-12A,other
63145,64,90,31,84,9.0,3-8A,major
63146,65,103,29,37,9.0,3-8A,major
63147,67,71,26,75,7.0,2-1,other
63148,68,66,23,39,7.0,2-1,other
63149,60,57,10,159,6.0,4-18A,diminished
63150,41,64,39,235,11.0,2-6,other
63151,62,55,7,81,4.0,2-5,other
63152,62,60,4,243,4.0,2-5,other
63153,70,55,13,76,0.0,4-18A,minor
63154,66,51,6,120,9.0,2-2,other
63155,63,63,24,60,6.0,5-31B,diminished
63156,50,76,113,84,9.0,4-23,minor
63157,64,93,23,91,9.0,2-3,minor
63158,67,92,25,26,9.0,2-3,minor
63159,68,74,43,104,3.0,5-30B,other
63160,65,71,9,149,2.0,4-22B,minor
63161,58,67,26,219,9.0,2-5,other
63162,60,77,47,34,9.0,2-5,other
63163,73,71,20,189,0.0,2-5,other
63164,81,92,17,145,7.0,3-9,other
63165,69,79,15,33,7.0,3-9,other
63166,50,91,20,75,9.0,2-3,minor
63167,50,73,21,33,9.0,2-3,minor
63168,48,82,12,38,9.0,2-3,minor
63169,53,69,22,164,4.0,5-31B,major
63170,57,79,32,237,9.0,4-26,minor
63171,56,72,41,39,9.0,4-26,minor
63172,71,1,38,114,0.0,3-11B,major
63173,47,79,67,712,4.0,3-4A,major
63174,47,76,11,116,3.0,2-5,other
63175,31,101,70,119,9.0,3-7A,minor
63176,43,73,94,125,4.0,6-27B,other
63177,76,107,20,232,0.0,4-20,major
63178,76,100,81,146,9.0,3-8B,other
63179,75,74,25,87,1.0,4-28,diminished
63180,76,77,16,33,1.0,4-28,diminished
63181,81,55,12,86,2.0,5-34,major
63182,43,78,85,268,4.0,3-5B,other
63183,76,68,13,484,3.0,5-33,augmented
63184,76,64,13,78,5.0,4-24,augmented
63185,55,62,44,206,4.0,4-26,minor
63186,57,65,25,34,4.0,4-26,minor
63187,60,73,40,48,4.0,4-26,minor
63188,61,79,36,314,5.0,3-4B,other
63189,50,83,118,81,5.0,4-20,major
63190,62,58,23,317,11.0,7-11B,diminished
63191,64,59,45,473,4.0,5-16A,other
63192,43,60,71,115,0.0,3-11B,major
63193,71,92,18,90,4.0,2-3,minor
63194,72,93,20,27,4.0,2-3,minor
63195,74,76,12,118,5.0,6-34B,major
63196,86,73,31,124,7.0,3-6,major
63197,43,45,96,115,0.0,4-22A,major
63198,52,50,50,62,0.0,4-22A,major
63199,84,77,24,88,7.0,2-4,major
63200,75,55,21,219,3.0,4-16A,major
63201,62,55,16,233,4.0,2-3,minor
63202,60,45,41,225,11.0,5-28B,diminished
63203,43,48,6,139,0.0,3-4A,major
63204,82,49,156,0,,,
63205,57,38,37,240,9.0,2-5,other
63206,69,66,26,95,10.0,2-4,major
63207,70,73,10,26,10.0,2-4,major
63208,74,71,17,26,10.0,2-4,major
63209,78,78,28,33,10.0,2-4,major
63210,81,69,26,37,10.0,2-4,major
63211,86,58,11,52,10.0,2-4,major
63212,90,46,65,54,10.0,2-4,major
63213,93,47,51,58,10.0,2-4,major
63214,93,34,90,82,10.0,2-4,major
63215,91,46,44,85,10.0,2-4,major
63216,91,59,33,60,10.0,2-4,major
63217,93,84,30,39,10.0,2-4,major
63218,93,82,30,44,10.0,2-4,major
63219,94,75,34,43,10.0,2-4,major
63220,96,50,60,120,7.0,4-18A,minor
63221,63,32,508,858,7.0,4-23,minor
63222,67,37,29,42,7.0,4-23,minor
63223,69,62,21,31,7.0,4-23,minor
63224,70,64,13,31,7.0,4-23,minor
63225,74,72,24,31,7.0,4-23,minor
63226,75,64,10,33,7.0,4-23,minor
63227,79,55,7,37,7.0,4-23,minor
63228,82,42,13,41,7.0,4-23,minor
63229,83,54,8,36,7.0,4-23,minor
63230,86,87,13,45,7.0,4-23,minor
63231,84,68,12,45,7.0,4-23,minor
63232,81,59,16,43,7.0,4-23,minor
63233,78,47,35,41,7.0,4-23,minor
63234,74,62,41,207,11.0,2-6,other
63235,48,33,35,149,3.0,5-26B,augmented
63236,60,38,23,179,9.0,4-27A,diminished
63237,56,69,27,312,0.0,4-20,other
63238,60,78,40,45,0.0,4-20,other
63239,63,72,26,49,0.0,4-20,other
63240,51,33,132,179,5.0,5-26B,augmented
63241,67,58,88,828,0.0,4-26,other
63242,46,36,49,448,3.0,2-5,other
63243,55,41,53,59,3.0,2-5,other
63244,72,30,34,48,3.0,2-5,other
63245,82,62,15,81,10.0,3-9,other
63246,89,79,35,77,5.0,2-5,other
63247,60,30,600,302,6.0,2-1,other
63248,72,41,151,611,5.0,1-1,other
63249,79,62,90,1657,2.0,5-27B,minor
63250,79,73,29,115,2.0,5-27B,minor
63251,77,44,46,253,10.0,4-29B,major
63252,46,37,28,136,10.0,4-29B,major
63253,75,37,94,161,1.0,5-27A,other
63254,27,36,46,142,1.0,5-27A,other
63255,70,85,88,476,1.0,2-6,other
63256,70,39,60,1260,10.0,5-26B,augmented
63257,50,34,291,279,2.0,1-1,other
63258,98,79,29,262,2.0,1-1,other
63259,99,71,46,38,2.0,1-1,other
63260,27,53,17,203,5.0,4-16A,other
63261,26,75,76,433,6.0,4-28,diminished
63262,86,87,55,678,6.0,4-28,diminished
63263,86,77,36,78,6.0,4-28,diminished
63264,86,67,30,62,6.0,4-28,diminished
63265,86,55,35,65,6.0,4-28,diminished
63266,86,53,32,63,6.0,4-28,diminished
63267,86,64,22,64,6.0,4-28,diminished
63268,86,69,23,64,6.0,4-28,diminished
63269,54,35,56,217,1.0,5-35,other
63270,61,56,123,144,3.0,4-22B,other
63271,65,80,65,129,3.0,3-11A,other
63272,56,38,19,144,3.0,3-11A,other
63273,75,84,61,246,3.0,4-24,augmented
63274,75,72,50,190,3.0,4-27A,other
63275,74,80,26,63,3.0,4-27A,other
63276,77,62,48,177,8.0,4-28,diminished
63277,77,60,29,151,5.0,1-1,other
63278,55,29,64,150,10.0,3-9,other
63279,44,38,12,510,8.0,3-10,other
63280,60,54,122,63,8.0,3-10,other
63281,60,24,42,235,10.0,4-16A,other
63282,72,34,89,1261,10.0,5-27A,major
63283,70,45,99,227,0.0,5-27A,other
63284,65,70,51,1331,1.0,5-27B,other
63285,65,62,34,153,8.0,5-24A,other
63286,65,51,56,164,2.0,3-7A,minor
63287,65,45,47,262,7.0,3-8A,major
63288,41,36,874,215,10.0,4-20,other
63289,53,53,22,350,10.0,4-20,other
63290,53,65,22,82,10.0,4-20,other
63291,53,59,22,82,10.0,4-20,other
63292,53,40,22,173,5.0,3-11B,major
63293,53,43,22,74,5.0,3-11B,major
63294,53,43,25,82,5.0,3-11B,major
63295,53,60,27,77,5.0,3-11B,major
63296,53,47,22,48,5.0,3-11B,major
63297,53,54,19,58,5.0,3-11B,major
63298,53,57,14,73,5.0,3-11B,major
63299,53,41,18,262,10.0,4-20,other
63300,53,58,27,131,10.0,4-20,other
63301,53,57,15,56,10.0,4-20,other
63302,53,53,24,72,10.0,4-20,other
63303,53,55,21,79,10.0,4-20,other
63304,53,59,6,78,10.0,4-20,other
63305,41,70,161,48,10.0,4-20,other
63306,29,46,37,56,10.0,4-20,other
63307,41,49,26,183,5.0,3-11B,major
63308,41,52,23,80,5.0,3-11B,major
63309,41,49,21,83,5.0,3-11B,major
63310,41,48,19,157,5.0,2-4,major
63311,41,54,17,80,5.0,2-4,major
63312,58,83,38,86,5.0,2-5,other
63313,29,41,43,127,10.0,2-5,other
63314,65,74,60,604,10.0,4-20,other
63315,58,39,9,0,6.0,4-16B,other
63316,44,33,74,187,8.0,5-24A,other
63317,44,29,29,116,6.0,3-8B,other
63318,49,32,33,1328,1.0,5-34,other
63319,73,68,33,42,1.0,5-34,other
63320,55,49,8,319,7.0,4-26,minor
63321,48,47,8,238,9.0,4-17,other
63322,68,99,23,288,0.0,4-26,other
63323,68,67,12,36,0.0,4-26,other
63324,68,77,24,80,0.0,4-26,other
63325,68,35,14,39,0.0,4-26,other
63326,46,44,16,41,0.0,4-26,other
63327,62,51,14,356,8.0,5-30B,other
63328,46,35,36,115,8.0,5-30B,other
63329,44,43,101,724,6.0,3-8B,other
63330,44,40,95,116,6.0,3-10,other
63331,49,29,31,367,0.0,3-11B,other
63332,46,26,11,724,8.0,5-30B,other
63333,39,52,13,39,8.0,5-30B,other
63334,70,55,15,358,5.0,2-5,other
63335,37,30,217,608,10.0,4-19B,other
63336,81,71,61,1027,11.0,4-23,minor
63337,74,35,55,51,11.0,4-23,minor
63338,75,57,32,66,11.0,4-23,minor
63339,79,38,29,116,1.0,4-13B,diminished
63340,81,30,23,51,1.0,4-13B,diminished
63341,82,52,17,29,1.0,4-13B,diminished
63342,87,52,15,101,10.0,4-20,other
63343,99,44,28,169,0.0,2-1,other
63344,101,71,58,180,6.0,3-5B,other
63345,53,26,83,2080,5.0,3-11A,other
63346,41,69,24,42,5.0,3-11A,other
63347,46,39,37,954,5.0,4-24,augmented
63348,55,38,74,53,5.0,4-24,augmented
63349,58,48,108,67,5.0,4-24,augmented
63350,58,51,29,1115,8.0,4-27B,other
63351,68,56,37,217,5.0,4-11B,other
63352,66,62,45,44,5.0,4-11B,other
63353,41,43,11,668,0.0,4-26,other
63354,87,71,33,602,0.0,4-24,augmented
63355,73,74,51,403,0.0,2-1,other
63356,65,61,30,152,0.0,5-35,other
63357,37,49,34,155,5.0,2-5,other
63358,44,45,27,45,5.0,2-5,other
63359,44,20,92,37,5.0,2-5,other
63360,47,44,33,159,5.0,2-5,other
63361,40,58,14,44,5.0,2-5,other
63362,55,57,25,92,11.0,4-26,minor
63363,61,21,14,358,5.0,3-12,augmented
63364,65,43,55,86,10.0,3-11B,other
63365,67,36,26,108,10.0,2-4,other
63366,72,29,24,80,8.0,2-2,other
63367,69,45,51,36,8.0,2-2,other
63368,70,67,60,37,8.0,2-2,other
63369,69,40,25,78,6.0,3-5A,other
63370,70,50,46,30,6.0,3-5A,other
63371,72,35,31,84,5.0,2-2,other
63372,73,48,38,40,5.0,2-2,other
63373,74,49,50,83,5.0,2-4,other
63374,75,62,51,39,5.0,2-4,other
63375,76,37,26,84,3.0,4-14A,other
63376,77,67,38,34,3.0,4-14A,other
63377,77,38,34,82,4.0,4-22A,major
63378,79,34,28,126,3.0,4-16A,other
63379,80,74,34,41,3.0,4-16A,other
63380,80,1,39,1063,10.0,4-16A,major
63381,73,18,22,123,1.0,4-28,diminished
63382,53,61,29,493,0.0,4-26,other
63383,46,61,17,118,0.0,4-26,other
63384,56,29,34,485,8.0,5-30B,other
63385,51,67,337,48,8.0,5-30B,other
63386,65,67,66,550,5.0,4-29A,other
63387,60,24,45,50,5.0,4-29A,other
63388,44,42,22,71,5.0,4-29A,other
63389,56,48,18,351,5.0,3-4A,other
63390,68,52,24,48,5.0,3-4A,other
63391,67,66,10,67,8.0,2-2,other
63392,67,49,11,127,8.0,2-2,other
63393,68,70,42,48,8.0,2-2,other
63394,57,60,65,235,1.0,5-27A,other
63395,55,56,9,486,0.0,2-2,other
63396,38,65,8,362,5.0,5-30B,other
63397,64,56,54,1799,5.0,3-8B,other
63398,95,80,35,1632,3.0,4-26,other
63399,92,62,16,78,3.0,4-20,other
63400,90,76,33,40,3.0,4-20,other
63401,89,60,22,80,3.0,3-4A,other
63402,83,42,9,123,1.0,5-27A,other
63403,86,77,25,119,11.0,5-38A,diminished
63404,82,54,26,38,11.0,5-38A,diminished
63405,74,43,24,77,10.0,3-11B,major
63406,76,40,30,89,3.0,4-5B,other
63407,78,47,17,37,3.0,4-5B,other
63408,79,45,22,29,3.0,4-5B,other
63409,81,60,24,29,3.0,4-5B,other
63410,84,44,25,198,0.0,5-27B,other
63411,80,32,12,26,0.0,5-27B,other
63412,77,48,19,223,0.0,4-27B,other
63413,75,56,26,28,0.0,4-27B,other
63414,72,43,23,30,0.0,4-27B,other
63415,68,23,27,41,0.0,4-27B,other
63416,65,53,33,48,0.0,4-27B,other
63417,56,50,64,48,0.0,4-27B,other
63418,46,47,11,73,0.0,4-27B,other
63419,42,53,21,938,6.0,5-27B,minor
63420,54,53,14,273,6.0,5-34,minor
63421,46,20,9,1136,5.0,4-20,other
63422,53,57,57,51,5.0,4-20,other
63423,60,57,19,51,5.0,4-20,other
63424,65,83,31,63,5.0,4-20,other
63425,51,71,125,282,1.0,5-27A,other
63426,44,70,17,186,8.0,4-22A,other
63427,44,59,32,261,4.0,3-9,other
63428,69,51,32,1084,4.0,6-32,minor
63429,72,53,47,226,6.0,5-16A,minor
63430,77,71,30,241,1.0,5-23B,other
63431,72,44,28,40,1.0,5-23B,other
63432,73,39,18,36,1.0,5-23B,other
63433,78,52,15,78,8.0,3-2A,other
63434,84,74,17,37,8.0,3-2A,other
63435,89,84,25,41,8.0,3-2A,other
63436,94,77,21,83,6.0,4-29A,other
63437,95,80,26,36,6.0,4-29A,other
63438,70,77,30,1168,3.0,4-20,other
63439,71,88,32,38,3.0,4-20,other
63440,75,59,27,79,1.0,3-6,other
63441,77,54,26,40,1.0,3-6,other
63442,80,55,19,82,3.0,4-20,other
63443,82,60,24,40,3.0,4-20,other
63444,85,40,12,83,3.0,3-4A,other
63445,87,67,21,37,3.0,3-4A,other
63446,89,41,11,44,3.0,3-4A,other
63447,90,60,18,36,3.0,3-4A,other
63448,94,61,22,86,3.0,5-29B,other
63449,41,71,10,313,3.0,1-1,other
63450,63,56,77,1028,10.0,4-20,other
63451,44,35,43,774,8.0,5-24A,other
63452,84,84,46,1082,5.0,4-24,augmented
63453,72,47,49,52,5.0,4-24,augmented
63454,81,80,61,142,5.0,3-4A,other
63455,82,75,53,78,5.0,3-4A,other
63456,53,59,360,973,0.0,6-47B,other
63457,78,42,15,255,1.0,4-22A,other
63458,45,52,53,556,7.0,4-22A,major
63459,101,76,28,314,6.0,2-3,other
63460,99,77,53,38,6.0,2-3,other
63461,96,62,13,79,1.0,3-10,minor
63462,94,74,42,37,1.0,3-10,minor
63463,92,67,23,36,1.0,3-10,minor
63464,90,59,26,35,1.0,3-10,minor
63465,85,52,32,118,0.0,4-26,other
63466,84,60,87,43,0.0,4-26,other
63467,87,71,26,83,1.0,2-1,other
63468,80,55,94,40,1.0,2-1,other
63469,84,66,29,85,3.0,3-9,other
63470,77,68,84,40,3.0,3-9,other
63471,80,71,29,78,5.0,3-9,other
63472,75,71,37,41,5.0,3-9,other
63473,71,42,21,85,3.0,3-9,other
63474,75,69,45,34,3.0,3-9,other
63475,56,35,69,644,3.0,3-4A,other
63476,36,59,7,659,0.0,6-42,major
63477,55,48,23,378,0.0,4-26,other
63478,46,56,28,354,0.0,5-27A,other
63479,46,35,20,54,0.0,5-27A,other
63480,46,53,21,67,0.0,5-27A,other
63481,46,44,55,52,0.0,5-27A,other
63482,46,36,29,179,8.0,4-15B,other
63483,51,37,16,250,5.0,4-24,augmented
63484,61,35,34,464,1.0,2-3,minor
63485,47,51,8,248,11.0,2-5,other
63486,41,56,12,46,11.0,2-5,other
63487,46,36,22,331,8.0,4-24,other
63488,58,44,18,39,8.0,4-24,other
63489,68,53,27,194,10.0,3-11A,other
63490,66,40,32,52,10.0,3-11A,other
63491,73,40,30,722,4.0,2-2,other
63492,72,49,34,419,8.0,4-22A,other
63493,71,49,34,53,8.0,4-22A,other
63494,71,75,47,481,4.0,3-9,other
63495,61,52,218,340,0.0,4-18A,major
63496,67,57,33,49,0.0,4-18A,major
63497,72,53,37,35,0.0,4-18A,major
63498,79,74,18,39,0.0,4-18A,major
63499,84,71,66,42,0.0,4-18A,major
63500,91,75,84,42,0.0,4-18A,major
63501,91,45,60,207,0.0,2-5,other
63502,91,55,46,119,0.0,2-5,other
63503,91,53,17,121,0.0,3-5B,other
63504,103,42,43,112,5.0,3-9,other
63505,28,88,22,0,11.0,5-35,minor
63506,72,91,26,244,9.0,3-9,other
63507,48,92,105,184,5.0,4-20,major
63508,55,99,107,57,5.0,4-20,major
63509,57,95,40,55,5.0,4-20,major
63510,55,70,65,118,0.0,3-8A,major
63511,58,69,8,60,0.0,3-8A,major
63512,72,97,29,296,0.0,1-1,other
63513,46,66,48,121,5.0,5-26B,other
63514,57,68,59,63,5.0,5-26B,other
63515,58,70,70,58,5.0,5-26B,other
63516,50,67,49,127,9.0,5-35,minor
63517,50,61,30,61,9.0,5-35,minor
63518,50,65,30,55,9.0,5-35,minor
63519,50,57,17,57,9.0,5-35,minor
63520,50,67,16,65,9.0,5-35,minor
63521,45,69,14,238,2.0,3-8A,major
63522,38,52,80,63,2.0,3-8A,major
63523,26,73,14,54,2.0,3-8A,major
63524,69,89,96,190,2.0,3-8A,major
63525,74,103,29,241,7.0,3-11B,major
63526,63,65,32,536,4.0,5-24A,minor
63527,62,62,15,115,3.0,3-8B,other
63528,60,105,26,184,7.0,2-5,other
63529,64,55,19,541,6.0,4-27A,diminished
63530,76,96,28,113,9.0,2-5,other
63531,63,74,49,122,0.0,4-19A,augmented
63532,62,63,82,64,0.0,4-19A,augmented
63533,52,74,53,662,0.0,4-14B,major
63534,53,78,123,53,0.0,4-14B,major
63535,43,68,35,58,0.0,4-14B,major
63536,52,78,61,127,8.0,3-10,diminished
63537,53,69,103,60,8.0,3-10,diminished
63538,44,72,30,56,8.0,3-10,diminished
63539,67,90,11,213,0.0,3-11B,major
63540,71,110,23,29,0.0,3-11B,major
63541,74,111,28,32,0.0,3-11B,major
63542,72,77,14,58,0.0,3-4A,major
63543,76,65,22,28,0.0,3-4A,major
63544,57,52,47,251,11.0,2-3,minor
63545,58,61,67,107,0.0,4-19B,augmented
63546,50,64,51,114,9.0,4-19A,minor
63547,44,69,54,374,2.0,5-25B,minor
63548,62,70,44,116,4.0,5-16A,other
63549,44,70,18,223,5.0,3-4A,other
63550,53,65,32,29,5.0,3-4A,other
63551,70,82,11,82,5.0,2-5,other
63552,77,106,17,58,5.0,2-5,other
63553,84,111,25,58,10.0,3-4B,other
63554,77,91,36,29,10.0,3-4B,other
63555,82,88,18,29,10.0,3-4B,other
63556,36,53,25,235,0.0,3-6,major
63557,60,6,150,495,6.0,4-27A,diminished
63558,63,68,36,226,4.0,3-3A,major
63559,62,56,86,47,4.0,3-3A,major
63560,54,69,13,71,4.0,3-3A,major
63561,51,60,41,600,0.0,3-11B,major
63562,52,59,69,47,0.0,3-11B,major
63563,44,70,12,72,0.0,3-11B,major
63564,57,87,15,312,0.0,3-4A,major
63565,55,85,144,161,8.0,2-2,other
63566,71,49,14,51,8.0,2-2,other
63567,72,53,17,40,8.0,2-2,other
63568,79,95,14,71,4.0,1-1,other
63569,38,65,19,246,0.0,4-16A,major
63570,71,25,32,324,2.0,6-49,other
63571,56,66,24,66,2.0,6-49,other
63572,43,90,28,766,2.0,4-26,minor
63573,36,82,68,124,4.0,3-11B,major
63574,60,60,48,170,4.0,4-23,minor
63575,62,74,37,76,4.0,4-23,minor
63576,58,79,38,123,0.0,2-4,major
63577,57,61,92,46,0.0,2-4,major
63578,67,73,8,67,0.0,2-4,major
63579,69,47,79,172,2.0,3-9,other
63580,40,90,13,69,2.0,3-9,other
63581,56,89,20,234,4.0,3-11B,major
63582,88,104,121,817,4.0,1-1,other
63583,83,114,23,148,8.0,3-5B,other
63584,84,109,58,86,2.0,3-9,other
63585,83,75,14,110,9.0,4-19A,minor
63586,76,52,33,127,9.0,2-1,other
63587,50,73,20,153,0.0,3-11B,major
63588,58,55,30,121,0.0,4-19B,augmented
63589,56,70,39,113,9.0,5-13A,minor
63590,54,88,155,119,0.0,3-11B,major
63591,70,88,17,113,9.0,2-1,other
63592,44,59,25,262,2.0,4-26,minor
63593,43,86,159,30,2.0,4-26,minor
63594,60,67,18,309,5.0,4-20,other
63595,65,74,26,40,5.0,4-20,other
63596,70,72,9,37,5.0,4-20,other
63597,72,77,17,32,5.0,4-20,other
63598,77,75,24,37,5.0,4-20,other
63599,82,76,28,36,5.0,4-20,other
63600,83,55,27,34,5.0,4-20,other
63601,84,103,29,41,5.0,4-20,other
63602,82,42,26,41,5.0,4-20,other
63603,83,76,26,41,5.0,4-20,other
63604,84,103,39,36,5.0,4-20,other
63605,83,47,26,81,7.0,2-3,minor
63606,82,53,23,88,10.0,5-27A,major
63607,83,57,26,41,10.0,5-27A,major
63608,84,97,34,33,10.0,5-27A,major
63609,83,59,31,81,10.0,2-4,major
63610,84,83,40,33,10.0,2-4,major
63611,83,52,26,82,1.0,2-3,other
63612,84,74,138,39,1.0,2-3,other
63613,72,71,67,135,0.0,2-4,major
63614,66,71,25,219,1.0,3-10,other
63615,60,60,16,135,4.0,3-10,diminished
63616,48,84,291,228,9.0,4-23,minor
63617,51,33,25,251,4.0,5-29B,diminished
63618,52,55,36,82,2.0,4-26,minor
63619,51,106,60,99,2.0,4-26,minor
63620,50,93,442,296,5.0,6-24B,other
63621,57,49,101,175,9.0,5-35,minor
63622,50,71,103,304,9.0,4-14A,minor
63623,56,105,42,118,6.0,5-26A,diminished
63624,55,87,63,52,6.0,5-26A,diminished
63625,66,1,16,110,6.0,2-6,other
63626,68,98,29,81,6.0,2-6,other
63627,69,61,18,43,6.0,2-6,other
63628,70,75,22,33,6.0,2-6,other
63629,53,43,30,281,7.0,2-5,other
63630,44,52,27,366,5.0,4-29A,other
63631,50,74,6,114,3.0,6-22A,augmented
63632,72,1,18,268,4.0,4-26,minor
63633,47,66,33,703,5.0,3-4A,major
63634,40,62,6,47,5.0,3-4A,major
63635,48,85,27,188,8.0,4-27B,other
63636,41,62,9,40,8.0,4-27B,other
63637,50,52,33,438,2.0,4-26,minor
63638,63,88,32,126,0.0,4-17,other
63639,59,74,37,293,5.0,3-4A,other
63640,65,99,38,44,5.0,3-4A,other
63641,64,82,32,35,5.0,3-4A,other
63642,63,20,4,72,9.0,2-3,minor
63643,55,81,69,39,9.0,2-3,minor
63644,52,49,16,38,9.0,2-3,minor
63645,59,95,37,787,10.0,2-1,other
63646,50,35,45,246,2.0,4-26,minor
63647,64,63,88,122,2.0,4-27A,minor
63648,43,53,26,49,2.0,4-27A,minor
63649,62,74,12,39,2.0,4-27A,minor
63650,31,72,55,874,7.0,3-9,other
63651,65,78,23,48,7.0,3-9,other
63652,64,63,26,35,7.0,3-9,other
63653,62,64,32,37,7.0,3-9,other
63654,44,67,28,78,0.0,2-1,other
63655,53,69,51,38,0.0,2-1,other
63656,60,57,17,40,0.0,2-1,other
63657,65,67,29,40,0.0,2-1,other
63658,70,69,12,38,0.0,2-1,other
63659,72,65,20,41,0.0,2-1,other
63660,77,65,22,36,0.0,2-1,other
63661,82,95,22,36,0.0,2-1,other
63662,83,83,25,40,0.0,2-1,other
63663,84,98,24,40,0.0,2-1,other
63664,82,71,22,37,0.0,2-1,other
63665,84,80,28,86,0.0,2-1,other
63666,72,65,26,40,0.0,2-1,other
63667,72,81,14,127,0.0,4-20,major
63668,53,107,114,135,0.0,4-20,major
63669,48,64,15,110,7.0,3-11B,major
63670,76,104,84,122,2.0,3-9,other
63671,62,48,24,80,11.0,3-7A,minor
63672,76,90,30,42,11.0,3-7A,minor
63673,50,56,135,608,2.0,4-26,minor
63674,53,60,30,117,2.0,4-26,minor
63675,63,63,15,106,5.0,2-1,other
63676,65,79,26,74,9.0,2-5,other
63677,67,95,91,37,9.0,2-5,other
63678,65,78,28,89,8.0,2-2,other
63679,67,65,30,40,8.0,2-2,other
63680,70,72,17,83,8.0,2-6,other
63681,71,85,27,33,8.0,2-6,other
63682,71,39,11,90,9.0,5-23A,minor
63683,72,89,25,31,9.0,5-23A,minor
63684,79,82,13,78,4.0,2-4,major
63685,83,110,26,39,4.0,2-4,major
63686,86,100,27,82,0.0,4-22A,major
63687,79,65,15,43,0.0,4-22A,major
63688,84,96,23,82,0.0,3-11B,major
63689,84,94,29,35,0.0,3-11B,major
63690,77,43,7,80,5.0,4-16A,other
63691,83,80,91,37,5.0,4-16A,other
63692,50,89,225,120,6.0,3-8B,other
63693,58,50,33,83,0.0,4-19B,augmented
63694,72,61,11,328,5.0,4-19B,augmented
63695,50,57,27,190,5.0,5-27A,major
63696,51,56,31,120,3.0,4-27A,other
63697,40,84,33,118,4.0,4-23,minor
63698,49,68,22,124,7.0,4-18A,minor
63699,45,75,23,243,4.0,4-17,other
63700,36,75,288,40,4.0,4-17,other
63701,43,67,30,79,4.0,4-17,other
63702,50,71,61,40,4.0,4-17,other
63703,43,58,98,82,4.0,4-17,other
63704,36,85,127,110,9.0,3-9,other
63705,76,107,464,204,5.0,4-16A,major
63706,53,46,30,894,2.0,4-26,minor
63707,47,72,16,239,9.0,2-6,other
63708,62,79,46,107,9.0,2-6,other
63709,40,78,15,36,9.0,2-6,other
63710,56,17,16,81,0.0,5-26B,other
63711,45,86,7,173,9.0,4-26,minor
63712,64,61,17,207,9.0,2-1,other
63713,60,54,20,226,2.0,3-8A,major
63714,59,96,31,362,10.0,1-1,other
63715,50,50,12,358,4.0,4-18A,major
63716,44,68,31,245,5.0,4-20,other
63717,53,71,219,44,5.0,4-20,other
63718,60,60,21,156,5.0,4-20,other
63719,65,69,25,38,5.0,4-20,other
63720,68,81,27,40,5.0,4-20,other
63721,70,93,34,39,5.0,4-20,other
63722,71,87,33,36,5.0,4-20,other
63723,60,49,14,86,10.0,5-27A,major
63724,60,39,23,42,10.0,5-27A,major
63725,50,51,42,118,10.0,2-4,major
63726,37,79,22,161,5.0,2-5,other
63727,81,105,16,86,5.0,2-5,other
63728,82,108,32,234,0.0,4-5A,major
63729,77,74,21,77,0.0,2-2,other
63730,79,93,30,55,0.0,2-2,other
63731,79,93,25,104,1.0,4-12B,minor
63732,63,60,28,86,5.0,4-20,major
63733,61,53,29,76,2.0,4-14A,minor
63734,48,72,316,185,9.0,4-26,minor
63735,56,75,56,248,9.0,3-11A,minor
63736,57,84,11,47,9.0,3-11A,minor
63737,26,87,23,1163,9.0,4-22B,minor
63738,69,82,17,84,9.0,4-22B,minor
63739,70,81,17,34,9.0,4-22B,minor
63740,73,55,33,159,7.0,3-11B,major
63741,48,71,27,186,7.0,3-11B,major
63742,44,56,26,125,2.0,2-3,minor
63743,32,69,78,165,2.0,4-25,major
63744,31,87,11,148,2.0,4-23,minor
63745,47,84,74,720,2.0,3-9,other
63746,57,74,20,76,2.0,3-9,other
63747,62,74,54,77,2.0,3-9,other
63748,56,67,82,158,8.0,4-27B,other
63749,65,60,64,86,8.0,4-27B,other
63750,65,69,22,492,5.0,4-20,major
63751,63,54,17,127,5.0,2-1,other
63752,62,91,222,112,4.0,1-1,other
63753,44,67,135,44,4.0,1-1,other
63754,53,85,35,112,4.0,1-1,other
63755,56,68,59,430,0.0,3-12,augmented
63756,55,85,45,59,0.0,3-12,augmented
63757,83,69,9,426,0.0,4-19B,augmented
63758,57,94,64,227,2.0,4-26,minor
63759,54,77,57,124,2.0,5-32A,minor
63760,43,74,39,122,2.0,4-26,minor
63761,62,85,13,118,4.0,4-18A,major
63762,47,87,141,124,4.0,3-7A,minor
63763,67,83,26,120,7.0,3-11B,major
63764,70,73,42,116,6.0,4-29A,minor
63765,62,62,38,480,4.0,5-16A,other
63766,53,35,22,301,5.0,4-20,other
63767,58,70,35,42,5.0,4-20,other
63768,63,72,19,38,5.0,4-20,other
63769,60,53,25,40,5.0,4-20,other
63770,65,74,23,39,5.0,4-20,other
63771,70,91,29,37,5.0,4-20,other
63772,70,77,39,81,3.0,3-9,other
63773,75,81,22,37,3.0,3-9,other
63774,77,65,36,79,5.0,3-9,other
63775,82,69,29,39,5.0,3-9,other
63776,82,73,28,83,3.0,3-9,other
63777,87,75,34,38,3.0,3-9,other
63778,77,53,25,44,3.0,3-9,other
63779,82,71,26,42,3.0,3-9,other
63780,87,73,30,40,3.0,3-9,other
63781,77,48,25,45,3.0,3-9,other
63782,82,60,23,34,3.0,3-9,other
63783,87,60,26,33,3.0,3-9,other
63784,43,56,51,110,0.0,2-4,major
63785,64,52,46,357,2.0,2-5,other
63786,67,11,41,60,2.0,2-5,other
63787,69,27,126,136,2.0,2-5,other
63788,43,63,124,0,,,
63789,36,55,149,114,,,
63790,42,48,32,195,4.0,5-35,minor
63791,43,44,59,355,0.0,4-11A,major
63792,71,107,30,477,9.0,6-32,minor
63793,71,82,12,121,4.0,2-5,other
63794,43,56,43,714,6.0,5-36A,diminished
63795,36,49,122,43,6.0,5-36A,diminished
63796,31,61,12,256,4.0,4-23,minor
63797,31,34,89,29,4.0,4-23,minor
63798,43,62,32,173,5.0,4-22A,major
63799,36,56,99,43,5.0,4-22A,major
63800,43,65,119,223,4.0,5-35,minor
63801,43,50,57,200,5.0,4-22A,major
63802,36,79,137,46,5.0,4-22A,major
63803,43,52,112,253,4.0,4-26,minor
63804,43,50,44,192,5.0,3-11B,major
63805,36,60,139,44,5.0,3-11B,major
63806,42,72,33,195,9.0,3-9,other
63807,43,53,109,43,9.0,3-9,other
63808,43,95,28,185,5.0,5-27A,major
63809,36,70,159,43,5.0,5-27A,major
63810,42,66,21,206,4.0,4-23,minor
63811,43,62,119,43,4.0,4-23,minor
63812,43,66,37,190,5.0,4-20,major
63813,36,63,143,41,5.0,4-20,major
63814,47,60,23,169,0.0,3-11B,major
63815,46,75,31,36,0.0,3-11B,major
63816,45,64,135,41,0.0,3-11B,major
63817,39,46,30,187,0.0,3-11B,major
63818,26,60,8,121,2.0,2-4,major
63819,64,51,22,48,2.0,2-4,major
63820,72,102,14,73,2.0,2-4,major
63821,36,49,8,774,8.0,5-31B,diminished
63822,43,106,93,354,5.0,4-22A,major
63823,43,77,19,1437,5.0,4-22A,major
63824,42,41,15,314,11.0,3-7A,minor
63825,43,53,41,247,5.0,3-11B,major
63826,36,48,149,47,5.0,3-11B,major
63827,47,65,17,151,4.0,3-11A,minor
63828,46,71,31,36,4.0,3-11A,minor
63829,45,65,217,45,4.0,3-11A,minor
63830,37,44,19,208,9.0,4-26,minor
63831,44,68,141,276,6.0,4-27A,diminished
63832,51,42,42,73,6.0,4-27A,diminished
63833,44,54,20,128,6.0,4-29A,other
63834,72,113,43,724,7.0,4-26,minor
63835,76,110,28,470,5.0,4-20,major
63836,63,77,35,89,5.0,3-4A,major
63837,61,63,23,123,2.0,3-11A,minor
63838,60,53,35,34,2.0,3-11A,minor
63839,48,46,26,476,1.0,4-27B,minor
63840,65,1,50,73,9.0,5-32A,other
63841,46,42,38,48,9.0,5-32A,other
63842,54,83,50,354,3.0,2-4,major
63843,38,61,13,34,3.0,2-4,major
63844,45,45,138,212,6.0,2-6,other
63845,50,65,33,164,6.0,4-27A,diminished
63846,43,67,14,199,7.0,3-11B,major
63847,50,24,15,89,7.0,3-11B,major
63848,51,65,25,28,7.0,3-11B,major
63849,52,53,132,45,7.0,3-11B,major
63850,54,73,35,795,5.0,5-27A,major
63851,50,55,37,123,5.0,4-22A,major
63852,53,47,40,120,5.0,5-27A,major
63853,72,106,34,120,8.0,3-10,diminished
63854,50,43,19,366,9.0,3-7A,minor
63855,43,38,47,111,5.0,3-11B,major
63856,43,51,21,392,4.0,2-3,minor
63857,50,76,7,445,2.0,4-26,minor
63858,43,61,20,40,2.0,4-26,minor
63859,43,71,21,74,2.0,4-26,minor
63860,36,66,145,41,2.0,4-26,minor
63861,42,81,27,213,4.0,3-11A,minor
63862,43,61,113,44,4.0,3-11A,minor
63863,43,97,41,191,5.0,4-22A,major
63864,36,65,167,46,5.0,4-22A,major
63865,42,72,32,200,4.0,3-11A,minor
63866,43,70,110,43,4.0,3-11A,minor
63867,43,81,34,188,5.0,3-11B,major
63868,36,62,141,44,5.0,3-11B,major
63869,44,69,20,197,4.0,3-11A,minor
63870,45,71,10,43,4.0,3-11A,minor
63871,44,84,37,77,4.0,3-11A,minor
63872,44,65,20,116,4.0,2-3,minor
63873,45,77,67,44,4.0,2-3,minor
63874,38,77,23,198,2.0,2-3,minor
63875,45,87,174,48,2.0,2-3,minor
63876,49,93,34,192,1.0,5-31A,diminished
63877,49,77,27,117,2.0,4-26,minor
63878,55,56,36,485,5.0,3-11B,major
63879,43,56,8,41,5.0,3-11B,major
63880,55,58,171,374,7.0,3-11B,major
63881,43,52,15,68,7.0,3-11B,major
63882,43,47,136,120,5.0,4-22A,major
63883,53,64,98,49,5.0,4-22A,major
63884,31,61,10,600,5.0,4-22A,major
63885,71,87,30,432,5.0,4-22A,major
63886,71,89,12,82,5.0,4-22A,major
63887,71,74,19,37,5.0,4-22A,major
63888,67,109,12,230,0.0,3-4A,major
63889,66,83,24,127,9.0,2-2,other
63890,74,85,172,240,4.0,2-3,minor
63891,67,61,57,240,5.0,5-24B,major
63892,43,58,13,36,5.0,5-24B,major
63893,79,117,76,88,5.0,5-24B,major
63894,78,106,88,86,0.0,2-4,major
63895,76,90,74,158,0.0,4-11A,major
63896,71,69,182,76,5.0,4-22A,major
63897,67,86,47,159,7.0,1-1,other
63898,66,89,11,241,0.0,3-4A,major
63899,55,66,33,115,0.0,3-4A,major
63900,43,77,19,43,0.0,3-4A,major
63901,52,85,59,199,7.0,4-14B,major
63902,36,74,26,118,7.0,2-4,major
63903,43,77,132,44,7.0,2-4,major
63904,74,111,16,197,5.0,3-11B,major
63905,50,60,172,604,0.0,4-19B,augmented
63906,50,78,20,241,6.0,4-27A,diminished
63907,43,72,14,1003,5.0,5-27A,major
63908,67,41,19,654,0.0,2-4,major
63909,31,62,15,262,6.0,5-36A,diminished
63910,42,43,30,359,4.0,3-11A,minor
63911,43,81,27,115,5.0,4-22A,major
63912,52,73,108,239,0.0,4-20,major
63913,36,57,24,128,0.0,4-20,major
63914,47,110,30,350,9.0,5-35,minor
63915,46,84,68,51,9.0,5-35,minor
63916,33,87,25,188,4.0,4-13B,diminished
63917,77,79,24,535,0.0,2-4,major
63918,62,60,80,153,9.0,3-7A,minor
63919,55,58,20,72,9.0,3-7A,minor
63920,43,61,284,73,9.0,3-7A,minor
63921,72,115,98,367,10.0,2-5,other
63922,69,75,23,96,10.0,2-4,major
63923,55,64,26,36,10.0,2-4,major
63924,42,56,13,159,0.0,4-24,augmented
63925,50,53,14,319,5.0,3-4A,major
63926,50,48,16,234,2.0,3-7A,minor
63927,56,54,27,565,9.0,4-23,minor
63928,51,48,9,158,5.0,4-20,major
63929,55,85,115,164,9.0,4-26,minor
63930,39,52,29,75,9.0,4-26,minor
63931,74,101,43,243,6.0,3-8B,other
63932,66,95,159,132,6.0,3-2A,minor
63933,64,83,63,105,6.0,3-2A,minor
63934,63,47,7,84,6.0,3-2A,minor
63935,50,67,29,67,7.0,3-11B,major
63936,44,42,27,353,7.0,3-11B,major
63937,33,61,8,98,9.0,4-26,minor
63938,69,69,14,575,7.0,2-5,other
63939,69,62,14,31,7.0,2-5,other
63940,68,62,15,217,4.0,4-18A,major
63941,68,65,21,32,4.0,4-18A,major
63942,67,105,18,216,2.0,3-9,other
63943,72,106,151,83,5.0,4-22A,major
63944,43,58,27,94,5.0,4-22A,major
63945,71,100,43,83,5.0,4-22A,major
63946,67,93,60,75,0.0,2-4,major
63947,64,79,34,53,0.0,2-4,major
63948,52,49,16,31,0.0,2-4,major
63949,31,63,9,241,5.0,3-6,major
63950,36,64,142,120,5.0,3-6,major
63951,43,56,29,82,5.0,3-6,major
63952,65,1,15,392,0.0,5-27A,major
63953,36,97,211,430,9.0,4-27A,diminished
63954,36,80,26,248,4.0,4-26,minor
63955,43,71,126,48,4.0,4-26,minor
63956,43,75,35,195,5.0,4-20,major
63957,36,69,153,114,9.0,4-23,minor
63958,43,67,29,123,4.0,4-23,minor
63959,65,74,22,206,7.0,3-9,other
63960,64,76,29,29,7.0,3-9,other
63961,57,45,84,115,2.0,1-1,other
63962,62,61,104,36,2.0,1-1,other
63963,50,51,6,83,2.0,1-1,other
63964,45,67,17,48,2.0,1-1,other
63965,55,66,23,1058,7.0,1-1,other
63966,55,58,13,46,7.0,1-1,other
63967,55,68,14,58,7.0,1-1,other
63968,43,53,43,611,9.0,4-14A,minor
63969,43,33,8,966,7.0,5-5B,major
63970,31,52,108,145,9.0,4-26,minor
63971,43,39,12,84,9.0,4-26,minor
63972,36,55,64,150,5.0,3-11B,major
63973,36,63,22,81,5.0,3-11B,major
63974,31,57,105,164,0.0,3-11B,major
63975,43,56,40,85,0.0,3-11B,major
63976,43,60,127,891,0.0,4-20,major
63977,43,67,80,197,5.0,5-34,major
63978,36,53,221,44,5.0,5-34,major
63979,43,55,131,238,11.0,4-23,minor
63980,43,74,39,198,5.0,3-11B,major
63981,36,55,174,45,5.0,3-11B,major
63982,44,66,38,189,4.0,3-11A,minor
63983,45,60,139,42,4.0,3-11A,minor
63984,44,47,27,191,0.0,3-11B,major
63985,45,53,81,40,0.0,3-11B,major
63986,40,49,12,77,0.0,3-11B,major
63987,37,64,41,124,0.0,2-5,other
63988,26,79,14,122,2.0,2-4,major
63989,59,46,19,217,5.0,4-20,major
63990,31,67,8,782,5.0,4-22A,major
63991,67,107,31,79,5.0,4-22A,major
63992,43,46,11,1685,9.0,4-26,minor
63993,42,62,31,115,9.0,4-26,minor
63994,43,58,30,119,5.0,3-11B,major
63995,36,58,141,38,5.0,3-11B,major
63996,43,58,28,162,4.0,3-11A,minor
63997,44,66,26,39,4.0,3-11A,minor
63998,45,65,167,47,4.0,3-11A,minor
63999,39,71,34,206,1.0,4-28,diminished
64000,38,64,112,46,1.0,4-28,diminished
64001,62,56,11,189,2.0,4-21,major
64002,55,64,39,225,0.0,5-26B,other
64003,50,16,23,491,3.0,3-12,augmented
64004,72,110,37,238,10.0,3-11B,major
64005,50,79,63,833,7.0,4-26,minor
64006,65,100,27,111,7.0,3-11A,minor
64007,57,77,34,719,5.0,4-20,major
64008,72,107,27,258,6.0,3-8B,other
64009,44,47,26,721,11.0,2-3,minor
64010,50,84,32,361,2.0,3-8A,major
64011,42,64,41,711,8.0,5-27A,other
64012,44,110,60,248,0.0,5-34,other
64013,44,87,33,120,10.0,2-4,other
64014,37,80,14,42,10.0,2-4,other
64015,43,66,30,197,8.0,2-3,other
64016,44,36,118,45,8.0,2-3,other
64017,44,72,19,191,10.0,4-20,other
64018,37,53,216,46,10.0,4-20,other
64019,43,70,26,198,1.0,3-4B,other
64020,44,42,121,42,1.0,3-4B,other
64021,44,64,20,195,10.0,4-20,other
64022,37,56,8,39,10.0,4-20,other
64023,44,73,45,322,5.0,3-11B,other
64024,44,54,22,117,5.0,3-11B,other
64025,37,50,220,40,5.0,3-11B,other
64026,42,60,24,193,1.0,4-22A,other
64027,44,59,113,42,1.0,4-22A,other
64028,44,77,33,197,10.0,4-20,other
64029,37,66,189,49,10.0,4-20,other
64030,43,71,31,197,10.0,4-20,other
64031,44,56,110,43,10.0,4-20,other
64032,44,79,25,199,10.0,4-20,other
64033,37,71,121,44,10.0,4-20,other
64034,48,87,12,168,10.0,4-20,other
64035,47,91,24,34,10.0,4-20,other
64036,46,75,129,40,10.0,4-20,other
64037,46,74,23,198,10.0,3-11A,other
64038,39,61,252,44,10.0,3-11A,other
64039,46,70,19,190,3.0,3-11A,other
64040,46,86,34,237,8.0,4-27B,other
64041,39,82,173,42,8.0,4-27B,other
64042,53,30,14,241,7.0,5-31B,major
64043,56,68,24,194,8.0,3-10,minor
64044,51,85,13,49,8.0,3-10,minor
64045,44,77,63,74,8.0,3-10,minor
64046,32,59,269,45,8.0,3-10,minor
64047,44,55,13,75,8.0,3-10,minor
64048,53,44,19,175,5.0,3-11B,other
64049,32,79,24,71,5.0,3-11B,other
64050,32,58,291,50,5.0,3-11B,other
64051,32,68,17,324,8.0,5-24A,other
64052,37,71,13,160,8.0,5-24A,other
64053,77,87,44,310,8.0,4-22A,other
64054,72,48,54,49,8.0,4-22A,other
64055,75,71,328,64,8.0,4-22A,other
64056,68,59,47,81,1.0,2-5,other
64057,72,74,77,281,8.0,4-22A,other
64058,73,62,888,84,8.0,4-22A,other
64059,68,51,475,159,1.0,2-5,other
64060,66,55,10,45,1.0,2-5,other
64061,44,48,123,234,5.0,3-11B,other
64062,37,54,10,123,5.0,3-11B,other
64063,37,52,143,469,8.0,4-22A,other
64064,44,39,24,78,8.0,4-22A,other
64065,39,45,13,614,5.0,4-20,other
64066,44,40,54,292,8.0,2-2,other
64067,37,1,206,35,8.0,2-2,other
64068,36,1,384,0,,,
64069,24,44,36,3162,0.0,1-1,other
64070,36,39,76,48,0.0,1-1,other
64071,24,47,64,108,0.0,1-1,other
64072,36,34,52,100,0.0,1-1,other
64073,24,47,76,80,0.0,1-1,other
64074,36,40,44,100,0.0,1-1,other
64075,24,43,72,76,0.0,1-1,other
64076,36,43,52,92,0.0,1-1,other
64077,24,42,72,88,0.0,1-1,other
64078,36,36,44,96,0.0,1-1,other
64079,24,42,72,80,0.0,1-1,other
64080,36,37,44,100,0.0,1-1,other
64081,24,41,64,80,0.0,1-1,other
64082,36,36,48,96,0.0,1-1,other
64083,24,42,76,76,0.0,1-1,other
64084,36,38,44,104,0.0,1-1,other
64085,24,48,76,76,0.0,1-1,other
64086,36,40,48,96,0.0,1-1,other
64087,24,49,72,84,0.0,1-1,other
64088,36,45,40,88,0.0,1-1,other
64089,24,50,64,80,0.0,1-1,other
64090,36,46,36,80,0.0,1-1,other
64091,24,54,68,64,0.0,1-1,other
64092,36,48,64,96,0.0,1-1,other
64093,24,56,84,64,0.0,1-1,other
64094,36,56,76,100,0.0,1-1,other
64095,24,72,92,56,0.0,1-1,other
64096,36,64,204,84,0.0,1-1,other
64097,24,77,92,56,0.0,1-1,other
64098,24,80,84,136,0.0,1-1,other
64099,36,60,92,72,0.0,1-1,other
64100,24,70,100,68,0.0,1-1,other
64101,36,48,80,100,0.0,1-1,other
64102,24,63,96,68,0.0,1-1,other
64103,36,48,72,100,0.0,1-1,other
64104,24,56,96,60,0.0,1-1,other
64105,36,48,72,112,0.0,1-1,other
64106,24,51,80,80,0.0,1-1,other
64107,36,36,52,112,0.0,1-1,other
64108,24,50,76,68,0.0,1-1,other
64109,36,42,40,104,0.0,1-1,other
64110,24,56,80,64,0.0,1-1,other
64111,36,45,60,104,0.0,1-1,other
64112,24,50,72,72,0.0,1-1,other
64113,36,46,40,96,0.0,1-1,other
64114,24,54,80,68,0.0,1-1,other
64115,36,58,72,84,0.0,1-1,other
64116,24,68,80,76,0.0,1-1,other
64117,24,54,88,116,0.0,3-11B,major
64118,36,56,72,88,0.0,3-11B,major
64119,24,68,100,56,0.0,3-11B,major
64120,36,58,88,100,0.0,3-11B,major
64121,24,65,104,76,0.0,3-11B,major
64122,36,57,80,104,0.0,3-11B,major
64123,24,55,104,68,0.0,3-11B,major
64124,36,50,84,104,0.0,3-11B,major
64125,24,60,92,80,0.0,3-11B,major
64126,36,48,80,96,0.0,3-11B,major
64127,24,58,100,80,0.0,3-11B,major
64128,36,52,88,100,0.0,3-11B,major
64129,24,55,96,76,0.0,3-11B,major
64130,36,43,52,120,0.0,3-11B,major
64131,24,58,88,60,0.0,3-11B,major
64132,36,60,68,100,0.0,3-11B,major
64133,36,52,224,132,2.0,4-27B,major
64134,24,57,116,180,2.0,4-27B,major
64135,36,61,96,108,2.0,4-27B,major
64136,24,72,124,60,2.0,3-11B,major
64137,36,55,88,112,2.0,3-11B,major
64138,24,56,120,80,2.0,3-11B,major
64139,36,57,80,112,2.0,3-11B,major
64140,36,55,88,152,7.0,5-29A,major
64141,24,60,88,76,7.0,5-29A,major
64142,36,50,80,92,7.0,5-29A,major
64143,24,55,84,80,7.0,5-29A,major
64144,36,47,84,104,7.0,5-29A,major
64145,24,57,92,68,7.0,5-29A,major
64146,36,56,72,100,7.0,5-29A,major
64147,24,72,96,64,7.0,5-29A,major
64148,36,57,80,80,7.0,5-29A,major
64149,24,77,84,68,7.0,5-29A,major
64150,36,68,96,68,7.0,5-29A,major
64151,24,81,88,76,7.0,5-29A,major
64152,36,54,96,64,7.0,5-29A,major
64153,24,81,92,76,7.0,5-29A,major
64154,36,71,92,72,7.0,5-29A,major
64155,24,81,104,68,7.0,5-29A,major
64156,36,66,88,76,7.0,5-29A,major
64157,24,78,112,76,7.0,5-29A,major
64158,36,49,96,88,7.0,5-29A,major
64159,24,56,116,84,7.0,5-29A,major
64160,36,43,88,120,7.0,5-29A,major
64161,24,39,116,84,7.0,5-29A,major
64162,36,47,92,104,7.0,5-29A,major
64163,24,47,116,92,7.0,5-29A,major
64164,36,42,92,120,7.0,5-29A,major
64165,24,39,128,92,7.0,5-29A,major
64166,36,39,96,120,7.0,5-29A,major
64167,24,48,148,76,7.0,5-29A,major
64168,36,38,84,148,7.0,5-29A,major
64169,24,40,104,76,7.0,5-29A,major
64170,36,39,48,128,7.0,5-29A,major
64171,24,48,92,72,7.0,5-29A,major
64172,24,57,172,152,0.0,3-11B,major
64173,36,37,48,200,0.0,3-11B,major
64174,36,52,72,156,4.0,2-3,minor
64175,24,52,92,76,4.0,2-3,minor
64176,24,54,112,168,4.0,2-3,minor
64177,36,51,64,120,4.0,2-3,minor
64178,36,55,96,172,4.0,2-3,minor
64179,24,57,108,84,4.0,2-3,minor
64180,84,52,240,124,0.0,3-11B,major
64181,24,49,120,56,0.0,3-11B,major
64182,36,39,64,140,0.0,3-11B,major
64183,24,49,124,60,0.0,3-11B,major
64184,36,45,64,144,0.0,3-11B,major
64185,24,45,108,72,0.0,3-11B,major
64186,36,47,92,92,0.0,3-11B,major
64187,24,54,100,96,0.0,3-11B,major
64188,24,51,120,524,5.0,4-20,other
64189,24,55,104,368,2.0,4-27B,major
64190,36,47,60,132,2.0,4-27B,major
64191,36,47,124,144,11.0,2-3,minor
64192,36,48,60,192,11.0,2-3,minor
64193,24,57,96,48,11.0,2-3,minor
64194,36,41,80,108,11.0,2-3,minor
64195,24,50,96,60,11.0,2-3,minor
64196,36,42,64,120,11.0,2-3,minor
64197,24,46,80,60,11.0,2-3,minor
64198,36,45,72,108,11.0,2-3,minor
64199,24,51,92,68,11.0,2-3,minor
64200,36,42,72,112,11.0,2-3,minor
64201,24,48,72,76,11.0,2-3,minor
64202,36,48,64,96,11.0,2-3,minor
64203,24,57,80,72,11.0,2-3,minor
64204,36,45,68,92,11.0,2-3,minor
64205,24,56,84,68,11.0,2-3,minor
64206,36,43,76,76,11.0,2-3,minor
64207,24,57,84,68,11.0,2-3,minor
64208,36,48,80,80,11.0,2-3,minor
64209,24,57,80,80,11.0,2-3,minor
64210,36,52,92,72,11.0,2-3,minor
64211,24,63,84,80,11.0,2-3,minor
64212,36,52,88,76,11.0,2-3,minor
64213,24,61,96,72,11.0,2-3,minor
64214,36,54,80,96,11.0,2-3,minor
64215,24,61,84,64,11.0,2-3,minor
64216,36,54,76,80,11.0,2-3,minor
64217,24,62,92,68,11.0,2-3,minor
64218,36,48,76,88,11.0,2-3,minor
64219,24,61,92,68,11.0,2-3,minor
64220,36,50,76,100,11.0,2-3,minor
64221,24,55,96,68,11.0,2-3,minor
64222,36,50,32,116,11.0,2-3,minor
64223,24,56,80,60,11.0,2-3,minor
64224,36,63,68,88,11.0,2-3,minor
64225,24,68,92,68,11.0,2-3,minor
64226,36,63,80,80,11.0,2-3,minor
64227,36,63,108,116,9.0,4-17,other
64228,24,71,116,96,9.0,4-17,other
64229,36,60,96,100,9.0,4-17,other
64230,24,77,120,84,9.0,4-17,other
64231,36,58,108,92,9.0,4-17,other
64232,24,70,112,88,9.0,4-17,other
64233,36,60,100,96,9.0,4-17,other
64234,24,73,116,76,9.0,4-17,other
64235,36,63,100,104,9.0,4-17,other
64236,24,71,104,76,9.0,4-17,other
64237,36,56,92,88,9.0,4-17,other
64238,24,72,116,68,9.0,4-17,other
64239,36,64,84,92,9.0,4-17,other
64240,24,78,116,76,9.0,4-17,other
64241,24,54,128,148,0.0,3-11B,major
64242,36,58,140,92,0.0,3-11B,major
64243,24,56,156,116,0.0,3-11B,major
64244,36,57,100,132,0.0,3-11B,major
64245,24,69,116,96,0.0,3-11B,major
64246,36,75,92,100,0.0,3-11B,major
64247,36,57,148,156,0.0,3-11B,major
64248,24,51,152,136,0.0,3-11B,major
64249,36,48,92,128,0.0,3-11B,major
64250,24,64,192,104,0.0,3-11B,major
64251,36,59,184,64,5.0,3-11B,major
64252,24,42,116,160,5.0,3-11B,major
64253,36,37,116,96,5.0,3-11B,major
64254,24,45,144,92,5.0,3-11B,major
64255,36,37,84,144,5.0,3-11B,major
64256,24,38,144,76,5.0,3-11B,major
64257,36,38,84,148,5.0,3-11B,major
64258,24,42,132,76,5.0,3-11B,major
64259,36,33,84,140,5.0,3-11B,major
64260,24,46,116,96,5.0,3-11B,major
64261,36,35,88,116,5.0,3-11B,major
64262,24,39,140,76,5.0,3-11B,major
64263,36,38,88,136,5.0,3-11B,major
64264,36,34,108,212,5.0,3-11B,major
64265,24,43,580,88,5.0,3-11B,major
64266,36,36,484,196,5.0,3-11B,major
64267,59,24,96,2340,3.0,3-7B,other
64268,43,50,176,836,5.0,3-4A,major
64269,52,38,408,1212,9.0,4-23,minor
64270,24,28,592,1612,9.0,4-23,minor
64271,36,1,128,612,9.0,4-23,minor
64272,24,38,188,140,9.0,4-23,minor
64273,36,25,140,224,9.0,4-23,minor
64274,24,36,148,160,9.0,4-23,minor
64275,36,35,104,168,9.0,4-23,minor
64276,24,37,112,124,9.0,4-23,minor
64277,36,41,76,132,9.0,4-23,minor
64278,24,45,80,96,9.0,4-23,minor
64279,36,39,56,108,9.0,4-23,minor
64280,24,40,76,96,9.0,4-23,minor
64281,36,31,40,104,9.0,4-23,minor
64282,24,46,76,60,9.0,4-23,minor
64283,36,36,36,108,9.0,4-23,minor
64284,24,48,72,56,9.0,4-23,minor
64285,36,40,32,100,9.0,4-23,minor
64286,24,49,72,56,9.0,4-23,minor
64287,36,45,32,92,9.0,4-23,minor
64288,24,46,52,76,9.0,4-23,minor
64289,36,36,40,92,9.0,4-23,minor
64290,24,49,56,76,9.0,4-23,minor
64291,24,49,80,164,9.0,4-23,minor
64292,36,38,44,108,9.0,4-23,minor
64293,24,48,72,76,9.0,4-23,minor
64294,36,55,76,264,0.0,1-1,other
64295,24,50,108,80,0.0,1-1,other
64296,36,50,96,112,0.0,1-1,other
64297,24,59,100,100,0.0,1-1,other
64298,36,50,84,104,0.0,1-1,other
64299,24,61,100,92,0.0,1-1,other
64300,36,56,76,100,0.0,1-1,other
64301,24,59,72,80,0.0,1-1,other
64302,36,46,80,84,0.0,1-1,other
64303,24,55,88,76,0.0,1-1,other
64304,36,52,76,100,0.0,1-1,other
64305,24,66,84,76,0.0,1-1,other
64306,36,56,76,88,0.0,1-1,other
64307,36,49,116,152,2.0,2-2,other
64308,24,68,96,116,2.0,2-2,other
64309,36,68,80,100,2.0,2-2,other
64310,36,43,100,160,2.0,4-27B,major
64311,24,62,112,88,2.0,4-27B,major
64312,36,52,96,272,7.0,4-14B,major
64313,24,57,116,72,7.0,4-14B,major
64314,36,47,92,116,7.0,4-14B,major
64315,24,58,116,76,7.0,4-14B,major
64316,36,43,76,124,7.0,4-14B,major
64317,24,54,112,72,7.0,4-14B,major
64318,36,45,72,124,7.0,4-14B,major
64319,24,54,112,64,7.0,4-14B,major
64320,36,46,76,124,7.0,4-14B,major
64321,24,47,112,68,7.0,4-14B,major
64322,36,39,72,132,7.0,4-14B,major
64323,24,50,84,80,7.0,4-14B,major
64324,36,46,44,108,7.0,4-14B,major
64325,24,58,96,68,7.0,4-14B,major
64326,24,39,108,144,0.0,2-4,major
64327,36,48,72,120,0.0,2-4,major
64328,36,52,92,160,0.0,2-4,major
64329,24,60,116,88,0.0,2-4,major
64330,24,67,112,204,0.0,1-1,other
64331,24,56,124,252,0.0,1-1,other
64332,24,41,168,208,5.0,4-20,other
64333,82,38,40,124,2.0,4-27B,major
64334,24,55,112,132,2.0,4-27B,major
64335,36,43,72,288,11.0,3-2A,minor
64336,24,49,92,60,11.0,3-2A,minor
64337,36,52,76,108,11.0,3-2A,minor
64338,24,55,92,68,11.0,3-2A,minor
64339,36,52,76,100,11.0,3-2A,minor
64340,24,68,100,80,11.0,3-2A,minor
64341,36,57,96,92,11.0,3-2A,minor
64342,24,65,96,84,11.0,3-2A,minor
64343,36,62,108,92,11.0,3-2A,minor
64344,24,72,96,80,11.0,3-2A,minor
64345,36,65,108,88,11.0,3-2A,minor
64346,24,68,92,84,11.0,3-2A,minor
64347,36,58,108,80,11.0,3-2A,minor
64348,24,56,100,88,11.0,3-2A,minor
64349,36,52,96,100,11.0,3-2A,minor
64350,24,54,108,80,11.0,3-2A,minor
64351,36,48,92,116,11.0,3-2A,minor
64352,24,53,108,68,11.0,3-2A,minor
64353,36,46,92,132,11.0,3-2A,minor
64354,24,41,132,80,11.0,3-2A,minor
64355,36,34,92,168,11.0,3-2A,minor
64356,24,57,88,244,11.0,3-2A,minor
64357,36,55,72,112,11.0,3-2A,minor
64358,76,69,588,92,9.0,3-3B,other
64359,36,55,164,44,9.0,3-3B,other
64360,24,67,104,156,9.0,3-3B,other
64361,36,52,108,92,9.0,3-3B,other
64362,24,54,104,88,9.0,3-3B,other
64363,36,55,96,108,9.0,3-3B,other
64364,24,57,96,80,9.0,3-3B,other
64365,36,53,96,96,9.0,3-3B,other
64366,24,63,88,84,9.0,3-3B,other
64367,36,49,80,88,9.0,3-3B,other
64368,24,63,88,68,9.0,3-3B,other
64369,36,64,92,76,9.0,3-3B,other
64370,24,74,92,76,9.0,3-3B,other
64371,24,74,116,140,0.0,3-11B,major
64372,36,54,132,96,0.0,3-11B,major
64373,24,79,128,100,0.0,3-11B,major
64374,36,58,96,124,0.0,3-11B,major
64375,24,72,148,60,0.0,3-11B,major
64376,36,75,92,132,0.0,3-11B,major
64377,36,52,112,172,0.0,3-11B,major
64378,24,66,120,84,0.0,3-11B,major
64379,36,57,72,120,0.0,3-11B,major
64380,24,64,228,72,0.0,3-11B,major
64381,24,68,120,284,5.0,3-11B,major
64382,36,41,104,120,5.0,3-11B,major
64383,24,46,140,72,5.0,3-11B,major
64384,36,39,112,132,5.0,3-11B,major
64385,24,46,144,84,5.0,3-11B,major
64386,36,37,88,148,5.0,3-11B,major
64387,24,45,176,72,5.0,3-11B,major
64388,36,36,128,140,5.0,3-11B,major
64389,24,46,380,124,5.0,3-11B,major
64390,36,36,260,172,5.0,3-11B,major
64391,84,72,324,5004,9.0,5-35,minor
64392,84,55,656,388,9.0,5-35,minor
64393,72,46,244,308,9.0,5-35,minor
64394,72,38,880,396,9.0,5-35,minor
64395,84,51,324,384,9.0,5-35,minor
64396,84,46,460,468,9.0,5-35,minor
64397,72,36,368,468,9.0,5-35,minor
64398,80,66,208,804,0.0,2-3,minor
64399,80,66,164,284,0.0,2-3,minor
64400,80,60,76,276,0.0,2-3,minor
64401,56,35,264,548,7.0,3-3B,other
64402,53,38,720,312,7.0,3-3B,other
64403,36,39,164,2336,0.0,2-1,other
64404,52,35,152,68,4.0,3-11A,minor
64405,53,32,100,388,2.0,4-26,minor
64406,55,40,372,428,4.0,4-26,minor
64407,69,73,184,1204,7.0,2-4,major
64408,71,82,128,148,7.0,2-4,major
64409,72,78,260,152,7.0,2-4,major
64410,74,78,100,264,7.0,2-4,major
64411,76,81,136,272,3.0,2-1,other
64412,77,70,380,152,3.0,2-1,other
64413,80,63,208,436,5.0,3-7B,other
64414,60,33,444,28,5.0,3-7B,other
64415,34,48,124,800,5.0,3-11A,other
64416,62,39,572,1400,8.0,2-3,other
64417,76,53,332,768,8.0,2-3,other
64418,56,42,884,1256,0.0,2-5,other
64419,74,63,88,620,4.0,2-5,other
64420,56,52,924,592,9.0,4-26,minor
64421,51,41,32,2020,3.0,4-26,other
64422,83,77,128,1156,4.0,2-1,other
64423,83,62,132,208,4.0,2-1,other
64424,83,56,96,204,4.0,2-1,other
64425,44,54,96,408,1.0,2-2,other
64426,53,55,216,204,1.0,2-2,other
64427,56,47,1656,220,1.0,2-2,other
64428,59,39,812,664,3.0,3-4A,other
64429,75,34,228,352,8.0,2-3,minor
64430,76,57,116,484,8.0,2-3,minor
64431,70,68,124,1800,7.0,4-26,minor
64432,63,35,40,2320,5.0,4-22A,major
64433,24,31,132,3380,0.0,3-11B,major
64434,36,36,76,168,0.0,3-11B,major
64435,24,45,128,88,0.0,3-11B,major
64436,36,37,80,152,0.0,3-11B,major
64437,24,46,116,84,0.0,3-11B,major
64438,36,40,84,124,0.0,3-11B,major
64439,24,42,112,84,0.0,3-11B,major
64440,36,39,60,128,0.0,3-11B,major
64441,24,48,100,60,0.0,3-11B,major
64442,36,56,72,112,0.0,3-11B,major
64443,24,50,84,68,0.0,3-11B,major
64444,36,41,64,96,0.0,3-11B,major
64445,24,48,68,64,0.0,3-11B,major
64446,36,43,56,96,0.0,3-11B,major
64447,24,56,72,68,0.0,3-11B,major
64448,36,52,40,84,0.0,3-11B,major
64449,24,58,72,48,0.0,3-11B,major
64450,24,61,104,136,2.0,4-27B,major
64451,36,53,64,96,2.0,4-27B,major
64452,24,70,96,72,2.0,4-27B,major
64453,24,57,116,156,2.0,4-27B,major
64454,36,46,60,132,2.0,4-27B,major
64455,24,57,188,56,2.0,4-27B,major
64456,24,69,96,240,7.0,4-14B,major
64457,36,36,76,104,7.0,4-14B,major
64458,24,48,108,64,7.0,4-14B,major
64459,36,47,84,100,7.0,4-14B,major
64460,24,58,92,80,7.0,4-14B,major
64461,36,54,72,100,7.0,4-14B,major
64462,24,57,92,64,7.0,4-14B,major
64463,36,55,80,96,7.0,4-14B,major
64464,24,67,88,72,7.0,4-14B,major
64465,36,61,84,76,7.0,4-14B,major
64466,24,68,84,80,7.0,4-14B,major
64467,36,56,72,80,7.0,4-14B,major
64468,24,70,80,68,7.0,4-14B,major
64469,36,55,76,84,7.0,4-14B,major
64470,24,71,92,64,7.0,4-14B,major
64471,36,60,88,80,7.0,4-14B,major
64472,24,75,100,68,7.0,4-14B,major
64473,36,58,216,84,7.0,4-14B,major
64474,24,79,108,204,0.0,3-11B,major
64475,36,52,108,88,0.0,3-11B,major
64476,36,61,84,192,0.0,3-11B,major
64477,36,56,100,156,0.0,3-11B,major
64478,24,66,128,100,0.0,3-11B,major
64479,36,57,112,80,0.0,3-11B,major
64480,24,67,168,132,0.0,3-11B,major
64481,24,60,140,228,0.0,3-11B,major
64482,24,59,228,232,5.0,4-20,other
64483,24,53,116,312,2.0,4-27B,major
64484,36,40,92,104,2.0,4-27B,major
64485,24,51,116,96,2.0,4-27B,major
64486,24,36,196,148,7.0,4-14B,major
64487,24,65,136,252,7.0,4-14B,major
64488,36,41,128,104,7.0,4-14B,major
64489,24,46,100,128,7.0,4-14B,major
64490,36,39,92,116,7.0,4-14B,major
64491,24,41,92,104,7.0,4-14B,major
64492,36,42,80,100,7.0,4-14B,major
64493,24,45,92,92,7.0,4-14B,major
64494,36,40,76,96,7.0,4-14B,major
64495,24,42,124,72,7.0,4-14B,major
64496,36,41,88,112,7.0,4-14B,major
64497,24,41,120,88,7.0,4-14B,major
64498,36,43,88,112,7.0,4-14B,major
64499,24,43,132,84,7.0,4-14B,major
64500,36,46,100,112,7.0,4-14B,major
64501,24,42,124,100,7.0,4-14B,major
64502,36,39,116,104,7.0,4-14B,major
64503,24,39,140,108,7.0,4-14B,major
64504,36,41,128,112,7.0,4-14B,major
64505,24,20,444,92,7.0,4-14B,major
64506,36,37,144,152,7.0,4-14B,major
64507,36,29,176,264,7.0,4-14B,major
64508,24,36,248,164,7.0,4-14B,major
64509,36,23,200,220,7.0,4-14B,major
64510,24,34,268,192,7.0,4-14B,major
64511,36,31,316,252,7.0,4-14B,major
64512,24,41,184,336,7.0,4-14B,major
64513,36,45,168,184,7.0,4-14B,major
64514,24,50,136,176,7.0,4-14B,major
64515,24,45,136,228,9.0,4-17,other
64516,36,60,120,144,9.0,4-17,other
64517,24,57,144,108,9.0,4-17,other
64518,36,54,96,144,9.0,4-17,other
64519,24,63,132,84,9.0,4-17,other
64520,36,57,96,124,9.0,4-17,other
64521,24,66,96,88,9.0,4-17,other
64522,36,56,72,104,9.0,4-17,other
64523,24,61,68,76,9.0,4-17,other
64524,36,50,84,80,9.0,4-17,other
64525,24,63,64,84,9.0,4-17,other
64526,36,58,72,76,9.0,4-17,other
64527,24,74,88,68,9.0,4-17,other
64528,36,58,88,80,9.0,4-17,other
64529,36,60,68,152,0.0,3-11B,major
64530,24,68,100,68,0.0,3-11B,major
64531,36,65,84,92,0.0,3-11B,major
64532,24,76,108,68,0.0,3-11B,major
64533,24,66,68,160,0.0,3-11B,major
64534,24,70,112,136,0.0,3-11B,major
64535,36,56,76,116,0.0,3-11B,major
64536,24,63,220,60,0.0,3-11B,major
64537,24,65,164,280,5.0,3-11B,major
64538,36,48,132,124,5.0,3-11B,major
64539,24,56,184,108,5.0,3-11B,major
64540,36,50,180,128,5.0,3-11B,major
64541,24,52,196,140,5.0,3-11B,major
64542,36,50,140,160,5.0,3-11B,major
64543,24,45,260,116,5.0,3-11B,major
64544,43,39,620,4100,5.0,2-4,major
64545,77,41,572,1436,8.0,3-10,diminished
64546,53,33,40,1832,10.0,2-4,major
64547,50,49,160,436,10.0,2-4,major
64548,51,51,60,476,10.0,2-4,major
64549,86,79,172,308,10.0,2-4,major
64550,36,54,92,156,10.0,2-4,major
64551,52,26,84,40,10.0,2-4,major
64552,86,70,136,92,10.0,2-4,major
64553,79,50,40,164,10.0,2-4,major
64554,79,52,20,136,10.0,2-4,major
64555,52,54,72,840,4.0,3-10,diminished
64556,44,50,108,460,4.0,3-10,diminished
64557,43,60,52,172,4.0,3-10,diminished
64558,74,67,132,1448,10.0,3-11B,other
64559,62,23,116,3084,3.0,2-4,major
64560,69,60,48,132,3.0,2-4,major
64561,81,85,88,132,3.0,2-4,major
64562,80,47,32,32,3.0,2-4,major
64563,84,111,144,128,3.0,2-4,major
64564,84,72,96,176,3.0,2-4,major
64565,72,55,444,148,3.0,2-4,major
64566,57,25,84,192,3.0,2-4,major
64567,47,54,60,276,3.0,2-4,major
64568,55,65,688,1176,5.0,3-11B,other
64569,78,43,32,1804,9.0,3-7A,minor
64570,75,31,48,316,10.0,1-1,other
64571,71,51,84,436,7.0,2-2,other
64572,74,77,112,160,7.0,2-2,other
64573,52,39,128,176,0.0,1-1,other
64574,74,57,52,132,0.0,1-1,other
64575,72,48,84,36,0.0,1-1,other
64576,71,57,72,76,0.0,1-1,other
64577,72,70,72,140,0.0,1-1,other
64578,76,66,484,436,0.0,2-4,major
64579,81,70,56,488,0.0,3-4A,major
64580,81,58,44,1120,0.0,1-1,other
64581,81,44,44,644,2.0,2-2,other
64582,51,51,52,296,0.0,1-1,other
64583,52,42,144,504,2.0,3-8A,major
64584,44,46,92,1776,10.0,3-11B,major
64585,50,36,140,1088,0.0,1-1,other
64586,81,40,44,52,0.0,1-1,other
64587,81,42,32,288,0.0,1-1,other
64588,73,46,44,148,1.0,1-1,other
64589,82,39,32,148,1.0,1-1,other
64590,36,49,80,276,7.0,3-11A,minor
64591,52,34,112,44,7.0,3-11A,minor
64592,52,30,116,1544,6.0,4-13B,minor
64593,41,60,260,1336,9.0,3-8B,other
64594,70,46,28,516,5.0,2-5,other
64595,72,70,100,484,5.0,2-5,other
64596,54,44,240,244,9.0,5-16A,other
64597,55,49,244,276,9.0,5-16A,other
64598,57,54,28,508,5.0,3-11B,other
64599,46,63,236,264,5.0,3-11B,other
64600,39,57,316,252,5.0,3-11B,other
64601,46,48,36,520,9.0,3-3A,major
64602,71,59,116,2124,7.0,2-2,other
64603,36,45,156,172,7.0,2-2,other
64604,40,58,72,1472,6.0,2-3,other
64605,63,49,100,1024,3.0,3-7A,other
64606,52,58,108,2832,7.0,3-11B,major
64607,53,59,32,488,4.0,4-26,minor
64608,63,61,240,864,0.0,3-11B,other
64609,60,57,40,136,0.0,3-11B,other
64610,52,36,396,1208,0.0,4-20,major
64611,70,39,36,1484,4.0,4-26,minor
64612,59,44,372,960,3.0,2-5,other
64613,37,50,224,960,8.0,1-1,other
64614,90,6,32,420,8.0,1-1,other
64615,58,47,212,1632,7.0,4-26,minor
64616,65,12,112,36,7.0,4-26,minor
64617,54,47,324,988,1.0,4-26,other
64618,68,69,88,252,1.0,4-26,other
64619,54,82,200,532,8.0,4-22B,other
64620,54,76,300,264,8.0,4-22B,other
64621,44,71,104,260,8.0,4-22B,other
64622,50,82,284,592,0.0,3-11B,major
64623,45,63,232,324,0.0,3-11B,major
64624,36,39,124,3744,4.0,3-5B,other
64625,48,40,108,104,4.0,3-5B,other
64626,36,50,80,132,4.0,3-5B,other
64627,48,35,56,116,4.0,3-5B,other
64628,36,41,72,112,4.0,3-5B,other
64629,48,37,36,108,4.0,3-5B,other
64630,36,40,52,84,4.0,3-5B,other
64631,48,45,32,92,4.0,3-5B,other
64632,36,54,36,68,4.0,3-5B,other
64633,48,49,44,84,4.0,3-5B,other
64634,36,56,44,68,4.0,3-5B,other
64635,48,49,28,96,4.0,3-5B,other
64636,36,42,40,72,4.0,3-5B,other
64637,48,54,116,52,4.0,3-5B,other
64638,36,57,100,136,4.0,3-5B,other
64639,36,54,136,156,4.0,3-5B,other
64640,24,60,80,132,4.0,3-5B,other
64641,36,43,72,124,4.0,3-5B,other
64642,24,44,84,60,4.0,3-5B,other
64643,36,47,72,112,4.0,3-5B,other
64644,24,55,80,84,4.0,3-5B,other
64645,36,50,40,96,4.0,3-5B,other
64646,24,55,88,68,4.0,3-5B,other
64647,36,58,68,92,4.0,3-5B,other
64648,24,68,80,60,4.0,3-5B,other
64649,24,65,96,136,0.0,1-1,other
64650,36,55,80,96,0.0,1-1,other
64651,24,68,104,64,0.0,1-1,other
64652,36,63,84,104,0.0,1-1,other
64653,24,69,88,72,0.0,1-1,other
64654,36,58,80,88,0.0,1-1,other
64655,24,71,80,68,0.0,1-1,other
64656,36,58,76,76,0.0,1-1,other
64657,24,71,88,68,0.0,1-1,other
64658,36,58,88,84,0.0,1-1,other
64659,24,66,84,76,0.0,1-1,other
64660,36,50,84,96,0.0,1-1,other
64661,24,60,104,76,0.0,1-1,other
64662,36,57,76,108,0.0,1-1,other
64663,24,57,108,76,0.0,1-1,other
64664,36,45,64,112,0.0,1-1,other
64665,24,63,100,64,0.0,1-1,other
64666,36,65,68,108,0.0,1-1,other
64667,24,72,92,68,0.0,1-1,other
64668,24,75,100,252,2.0,2-2,other
64669,36,65,80,116,2.0,2-2,other
64670,36,54,84,180,2.0,2-2,other
64671,24,67,100,76,2.0,2-2,other
64672,75,26,40,64,2.0,2-2,other
64673,36,47,96,60,2.0,2-2,other
64674,36,55,76,164,7.0,4-14B,major
64675,24,63,104,60,7.0,4-14B,major
64676,36,45,84,108,7.0,4-14B,major
64677,24,55,108,80,7.0,4-14B,major
64678,36,42,84,120,7.0,4-14B,major
64679,24,41,124,76,7.0,4-14B,major
64680,36,39,80,124,7.0,4-14B,major
64681,24,45,112,72,7.0,4-14B,major
64682,36,45,72,124,7.0,4-14B,major
64683,24,46,96,80,7.0,4-14B,major
64684,36,41,76,116,7.0,4-14B,major
64685,24,48,100,72,7.0,4-14B,major
64686,36,36,60,132,7.0,4-14B,major
64687,24,41,100,60,7.0,4-14B,major
64688,36,44,60,120,7.0,4-14B,major
64689,24,43,96,72,7.0,4-14B,major
64690,36,39,64,112,7.0,4-14B,major
64691,24,44,100,68,7.0,4-14B,major
64692,36,43,72,112,7.0,4-14B,major
64693,24,49,96,76,7.0,4-14B,major
64694,36,38,52,112,7.0,4-14B,major
64695,24,48,100,68,7.0,4-14B,major
64696,72,50,264,188,0.0,3-11B,major
64697,36,37,96,124,0.0,3-11B,major
64698,24,45,140,104,0.0,3-11B,major
64699,24,41,168,224,0.0,3-11B,major
64700,72,49,128,196,0.0,3-11B,major
64701,24,50,144,116,0.0,3-11B,major
64702,24,62,112,256,0.0,2-4,major
64703,24,50,120,208,0.0,1-1,other
64704,36,44,48,132,0.0,1-1,other
64705,24,53,172,72,0.0,1-1,other
64706,24,43,136,312,5.0,3-4A,other
64707,24,59,108,300,2.0,2-2,other
64708,36,48,76,112,2.0,2-2,other
64709,24,47,92,276,0.0,2-5,other
64710,36,45,76,92,0.0,2-5,other
64711,24,52,116,72,0.0,2-5,other
64712,36,42,80,120,0.0,2-5,other
64713,24,42,120,76,0.0,2-5,other
64714,36,34,64,132,0.0,2-5,other
64715,24,42,124,64,0.0,2-5,other
64716,36,39,76,132,0.0,2-5,other
64717,24,40,120,80,0.0,2-5,other
64718,36,31,60,132,0.0,2-5,other
64719,24,43,128,72,0.0,2-5,other
64720,36,36,88,128,0.0,2-5,other
64721,24,41,132,92,0.0,2-5,other
64722,36,38,88,124,0.0,2-5,other
64723,24,42,160,80,0.0,2-5,other
64724,36,36,104,152,0.0,2-5,other
64725,24,43,128,124,0.0,2-5,other
64726,36,33,116,112,0.0,2-5,other
64727,24,39,204,100,0.0,2-5,other
64728,36,36,132,168,0.0,2-5,other
64729,24,43,188,148,0.0,2-5,other
64730,36,31,152,192,0.0,2-5,other
64731,24,43,164,176,0.0,2-5,other
64732,36,30,88,184,0.0,2-5,other
64733,24,43,116,92,0.0,2-5,other
64734,36,44,72,128,0.0,2-5,other
64735,36,39,64,200,9.0,4-17,other
64736,24,42,104,80,9.0,4-17,other
64737,36,47,92,112,9.0,4-17,other
64738,24,49,112,96,9.0,4-17,other
64739,36,48,84,112,9.0,4-17,other
64740,24,47,108,84,9.0,4-17,other
64741,36,48,88,108,9.0,4-17,other
64742,24,52,100,80,9.0,4-17,other
64743,36,52,80,108,9.0,4-17,other
64744,24,52,88,72,9.0,4-17,other
64745,36,48,84,92,9.0,4-17,other
64746,24,52,76,92,9.0,4-17,other
64747,36,44,76,92,9.0,4-17,other
64748,24,52,84,72,9.0,4-17,other
64749,36,50,36,108,9.0,4-17,other
64750,24,57,104,48,9.0,4-17,other
64751,36,60,80,96,9.0,4-17,other
64752,24,66,112,64,0.0,3-11B,major
64753,36,40,64,136,0.0,3-11B,major
64754,24,60,100,60,0.0,3-11B,major
64755,36,65,80,104,0.0,3-11B,major
64756,24,71,100,76,0.0,3-11B,major
64757,36,46,104,92,0.0,3-11B,major
64758,24,61,116,96,0.0,3-11B,major
64759,36,57,76,108,0.0,3-11B,major
64760,36,61,168,136,5.0,3-11B,major
64761,24,69,108,152,5.0,3-11B,major
64762,36,61,108,92,5.0,3-11B,major
64763,24,67,128,72,5.0,3-11B,major
64764,36,60,104,116,5.0,3-11B,major
64765,24,72,112,72,5.0,3-11B,major
64766,36,60,104,104,5.0,3-11B,major
64767,24,72,120,72,5.0,3-11B,major
64768,36,57,96,108,5.0,3-11B,major
64769,24,68,128,72,5.0,3-11B,major
64770,36,63,92,120,5.0,3-11B,major
64771,24,66,124,68,5.0,3-11B,major
64772,36,63,104,116,5.0,3-11B,major
64773,24,54,148,76,5.0,3-11B,major
64774,36,54,108,128,5.0,3-11B,major
64775,24,50,124,88,5.0,3-11B,major
64776,36,49,92,128,5.0,3-11B,major
64777,24,42,148,72,5.0,3-11B,major
64778,36,40,96,140,5.0,3-11B,major
64779,24,40,136,100,5.0,3-11B,major
64780,36,35,80,136,5.0,3-11B,major
64781,24,48,108,72,5.0,3-11B,major
64782,36,38,72,128,5.0,3-11B,major
64783,24,40,124,80,5.0,3-11B,major
64784,36,39,76,136,5.0,3-11B,major
64785,24,46,104,88,5.0,3-11B,major
64786,24,45,336,472,0.0,4-18A,minor
64787,70,34,156,168,0.0,4-19B,other
64788,24,52,956,276,0.0,4-19B,other
64789,74,41,32,128,0.0,4-19B,augmented
64790,24,29,48,916,7.0,4-14B,major
64791,24,54,84,152,7.0,4-14B,major
64792,36,46,104,316,0.0,3-11B,other
64793,24,46,116,100,0.0,3-11B,other
64794,24,54,212,212,0.0,3-11B,other
64795,24,48,84,296,9.0,4-17,other
64796,36,34,44,132,9.0,4-17,other
64797,24,41,100,48,9.0,4-17,other
64798,36,38,52,124,9.0,4-17,other
64799,24,43,100,52,9.0,4-17,other
64800,36,35,48,132,9.0,4-17,other
64801,24,42,104,56,9.0,4-17,other
64802,36,29,48,136,9.0,4-17,other
64803,24,40,108,56,9.0,4-17,other
64804,36,40,60,128,9.0,4-17,other
64805,24,45,96,64,9.0,4-17,other
64806,36,39,64,124,9.0,4-17,other
64807,24,41,104,248,0.0,4-18A,minor
64808,24,39,100,228,0.0,4-18A,minor
64809,24,38,64,232,0.0,4-18A,minor
64810,24,48,88,172,0.0,4-18A,minor
64811,36,28,56,512,0.0,1-1,other
64812,24,42,104,44,0.0,1-1,other
64813,36,26,56,160,0.0,1-1,other
64814,24,46,104,60,0.0,1-1,other
64815,36,31,48,152,0.0,1-1,other
64816,24,42,112,48,0.0,1-1,other
64817,36,26,44,156,0.0,1-1,other
64818,24,42,104,52,0.0,1-1,other
64819,36,31,52,144,0.0,1-1,other
64820,24,41,112,60,0.0,1-1,other
64821,36,30,56,128,0.0,1-1,other
64822,24,43,116,68,0.0,1-1,other
64823,36,34,56,148,0.0,1-1,other
64824,24,41,128,60,0.0,1-1,other
64825,36,29,68,160,0.0,1-1,other
64826,24,36,112,88,0.0,1-1,other
64827,36,28,60,132,0.0,1-1,other
64828,24,41,108,80,0.0,1-1,other
64829,36,32,60,128,0.0,1-1,other
64830,24,33,132,80,0.0,1-1,other
64831,36,33,64,148,0.0,1-1,other
64832,24,34,132,76,0.0,1-1,other
64833,36,26,56,156,0.0,1-1,other
64834,24,36,124,80,0.0,1-1,other
64835,36,22,68,144,0.0,1-1,other
64836,24,35,136,84,0.0,1-1,other
64837,36,12,64,172,0.0,1-1,other
64838,24,36,144,76,0.0,1-1,other
64839,36,27,92,148,0.0,1-1,other
64840,24,37,168,96,0.0,1-1,other
64841,36,25,84,168,0.0,1-1,other
64842,24,34,152,100,0.0,1-1,other
64843,36,31,96,144,0.0,1-1,other
64844,24,39,388,108,0.0,1-1,other
64845,36,39,116,124,0.0,1-1,other
64846,36,28,144,260,0.0,1-1,other
64847,24,35,484,132,0.0,1-1,other
64848,36,30,444,176,0.0,1-1,other
64849,67,81,22,0,,,
64850,74,74,11,113,5.0,2-5,other
64851,76,67,14,111,0.0,2-4,major
64852,74,115,11,578,6.0,3-8B,other
64853,76,96,14,32,6.0,3-8B,other
64854,79,79,11,105,5.0,3-11B,major
64855,71,58,8,1100,0.0,5-30B,other
64856,69,58,16,178,9.0,4-18A,major
64857,68,40,7,29,9.0,4-18A,major
64858,45,52,43,258,9.0,4-25,other
64859,67,115,54,117,2.0,2-3,minor
64860,71,74,98,127,5.0,5-21A,major
64861,72,63,78,115,4.0,2-5,other
64862,41,43,38,60,4.0,2-5,other
64863,74,77,19,38,4.0,2-5,other
64864,76,70,12,34,4.0,2-5,other
64865,67,48,24,120,4.0,3-7A,minor
64866,81,101,24,78,4.0,3-7B,other
64867,82,88,16,36,4.0,3-7B,other
64868,75,72,53,341,10.0,4-20,other
64869,65,54,18,240,9.0,5-35,minor
64870,64,56,51,127,3.0,4-24,augmented
64871,76,105,25,132,0.0,3-11B,major
64872,76,53,19,126,4.0,4-15B,other
64873,55,41,28,236,9.0,3-8A,major
64874,74,99,15,195,6.0,3-8B,other
64875,76,101,77,38,6.0,3-8B,other
64876,77,84,37,83,5.0,3-11B,major
64877,79,85,47,47,5.0,3-11B,major
64878,74,55,28,118,4.0,4-18A,major
64879,64,50,28,83,9.0,3-11A,minor
64880,64,46,11,39,9.0,3-11A,minor
64881,62,57,16,79,2.0,4-27A,minor
64882,62,51,11,36,2.0,4-27A,minor
64883,58,49,26,80,5.0,5-23B,major
64884,58,48,8,40,5.0,5-23B,major
64885,52,37,20,83,0.0,5-28A,major
64886,72,65,42,243,5.0,3-11B,major
64887,71,1,17,28,5.0,3-11B,major
64888,76,65,9,131,11.0,5-29B,diminished
64889,45,31,47,597,9.0,4-25,other
64890,81,56,14,477,5.0,5-11A,major
64891,72,92,29,122,9.0,5-35,minor
64892,72,66,18,80,7.0,4-6,other
64893,74,78,15,42,7.0,4-6,other
64894,57,51,26,243,4.0,4-23,minor
64895,58,40,5,349,0.0,4-27B,major
64896,56,40,29,121,10.0,5-26B,augmented
64897,45,54,58,367,10.0,4-16A,major
64898,77,82,32,210,2.0,3-11A,minor
64899,77,83,31,39,2.0,3-11A,minor
64900,77,69,21,81,5.0,3-12,augmented
64901,77,74,23,36,5.0,3-12,augmented
64902,55,74,42,79,0.0,5-35,minor
64903,77,101,48,285,8.0,5-34,other
64904,81,74,24,79,8.0,3-5B,other
64905,79,74,29,239,1.0,3-10,minor
64906,51,42,22,36,1.0,3-10,minor
64907,62,77,81,79,2.0,3-11A,minor
64908,61,85,137,76,5.0,2-4,major
64909,60,71,74,122,5.0,2-4,major
64910,59,67,70,121,3.0,3-11B,major
64911,63,39,3,81,3.0,3-11B,major
64912,74,113,71,117,8.0,4-27B,other
64913,76,73,16,72,7.0,3-5B,other
64914,45,51,102,148,6.0,4-5B,other
64915,74,69,17,333,10.0,4-22A,major
64916,64,66,28,411,8.0,3-8A,other
64917,43,68,4,666,7.0,6-42,major
64918,76,88,19,875,2.0,5-9A,major
64919,76,74,18,30,2.0,5-9A,major
64920,79,81,38,67,4.0,3-5B,other
64921,76,83,21,123,4.0,5-31B,major
64922,60,55,46,115,9.0,3-11A,minor
64923,70,85,28,139,8.0,3-10,diminished
64924,81,66,27,315,11.0,3-5A,other
64925,76,59,49,27,11.0,3-5A,other
64926,58,23,5,38,11.0,3-5A,other
64927,81,56,15,442,11.0,4-23,minor
64928,57,52,19,122,10.0,4-16A,major
64929,50,64,36,515,9.0,1-1,other
64930,88,57,9,238,4.0,5-25B,minor
64931,55,62,67,121,9.0,5-35,minor
64932,43,46,184,41,9.0,5-35,minor
64933,55,68,98,167,5.0,3-11B,major
64934,55,60,67,115,5.0,3-11B,major
64935,43,51,27,33,5.0,3-11B,major
64936,67,110,20,376,4.0,4-17,other
64937,76,64,21,196,0.0,2-4,major
64938,72,44,8,39,0.0,2-4,major
64939,81,60,58,81,3.0,5-6A,other
64940,45,53,38,151,6.0,5-25B,minor
64941,53,62,35,117,1.0,4-28,diminished
64942,74,101,12,197,6.0,3-8B,other
64943,76,105,17,44,6.0,3-8B,other
64944,77,83,14,64,5.0,5-27A,major
64945,77,74,15,28,5.0,5-27A,major
64946,79,80,13,26,5.0,5-27A,major
64947,79,73,11,28,5.0,5-27A,major
64948,76,57,17,61,4.0,5-31B,major
64949,74,57,11,26,4.0,5-31B,major
64950,74,69,14,27,4.0,5-31B,major
64951,72,44,12,65,9.0,3-11A,minor
64952,79,72,12,30,9.0,3-11A,minor
64953,79,67,11,34,9.0,3-11A,minor
64954,65,34,5,116,2.0,2-3,minor
64955,72,54,22,60,10.0,5-27A,major
64956,65,31,12,30,10.0,5-27A,major
64957,67,59,34,98,4.0,3-8A,other
64958,48,40,5,34,4.0,3-8A,other
64959,62,56,24,300,11.0,4-11B,minor
64960,69,70,17,30,11.0,4-11B,minor
64961,76,88,21,26,11.0,4-11B,minor
64962,76,83,53,74,8.0,4-13B,other
64963,71,57,27,31,8.0,4-13B,other
64964,74,77,22,33,8.0,4-13B,other
64965,72,55,35,68,9.0,4-22B,minor
64966,73,65,22,33,9.0,4-22B,minor
64967,75,71,23,28,9.0,4-22B,minor
64968,81,69,26,57,9.0,2-5,other
64969,82,57,8,27,9.0,2-5,other
64970,84,64,13,26,9.0,2-5,other
64971,94,57,25,71,5.0,4-16A,other
64972,90,37,22,31,5.0,4-16A,other
64973,93,66,35,29,5.0,4-16A,other
64974,55,73,119,77,1.0,3-10,diminished
64975,38,57,52,74,1.0,3-10,diminished
64976,53,71,12,44,1.0,3-10,diminished
64977,69,80,25,109,2.0,3-8A,major
64978,72,105,20,36,2.0,3-8A,major
64979,79,79,43,78,5.0,4-20,major
64980,67,46,86,273,4.0,2-3,minor
64981,45,54,10,346,9.0,2-2,other
64982,38,59,11,41,9.0,2-2,other
64983,68,86,17,72,9.0,2-2,other
64984,69,80,14,28,9.0,2-2,other
64985,72,66,25,72,5.0,3-11B,major
64986,69,64,9,36,5.0,3-11B,major
64987,43,36,46,247,3.0,4-27A,other
64988,74,125,25,120,9.0,5-35,minor
64989,79,75,14,80,3.0,5-6A,other
64990,71,60,16,880,9.0,2-3,minor
64991,72,62,69,323,4.0,3-8B,other
64992,48,43,13,44,4.0,3-8B,other
64993,47,70,11,232,9.0,3-11A,minor
64994,76,80,34,87,11.0,3-7A,minor
64995,71,55,11,160,0.0,3-8B,other
64996,69,74,37,173,9.0,5-31B,major
64997,69,65,14,58,9.0,5-31B,major
64998,77,80,17,911,9.0,3-5A,other
64999,52,60,25,288,5.0,2-2,other
65000,36,63,114,30,5.0,2-2,other
65001,84,84,13,85,3.0,3-1,other
65002,72,54,14,123,1.0,3-2A,minor
65003,48,51,5,119,9.0,3-5B,other
65004,48,34,23,120,0.0,4-19B,other
65005,58,55,87,363,9.0,4-18A,major
65006,51,59,25,118,1.0,2-6,other
65007,65,50,62,87,2.0,3-11A,minor
65008,61,91,123,36,2.0,3-11A,minor
65009,77,75,30,492,8.0,4-21,other
65010,81,77,19,78,7.0,3-5B,other
65011,82,80,35,37,7.0,3-5B,other
65012,45,30,4,112,6.0,4-29A,minor
65013,69,60,24,207,2.0,3-11A,minor
65014,69,67,38,122,5.0,4-19B,augmented
65015,65,33,5,41,5.0,4-19B,augmented
65016,72,66,69,82,0.0,5-27B,minor
65017,67,59,14,36,0.0,5-27B,minor
65018,47,62,55,74,2.0,3-11B,major
65019,64,74,44,236,0.0,4-16A,other
65020,65,74,13,27,0.0,4-16A,other
65021,64,55,44,218,1.0,3-10,other
65022,43,50,138,374,11.0,4-13B,diminished
65023,67,55,12,355,2.0,4-27A,minor
65024,64,63,22,285,1.0,3-10,other
65025,74,85,64,108,2.0,2-4,major
65026,50,49,11,113,6.0,3-8B,other
65027,52,17,91,1253,2.0,4-26,minor
65028,72,46,81,160,6.0,3-8A,other
65029,72,60,97,119,7.0,3-7A,minor
65030,72,58,62,122,4.0,3-8B,other
65031,41,71,34,170,9.0,4-23,minor
65032,71,63,10,383,0.0,5-30B,other
65033,66,1,172,207,9.0,5-28A,other
65034,45,91,108,95,9.0,4-25,other
65035,39,68,14,104,1.0,3-8A,other
65036,37,55,31,34,1.0,3-8A,other
65037,31,65,77,327,6.0,4-5A,other
65038,64,54,13,192,4.0,2-3,minor
65039,36,55,3,38,4.0,2-3,minor
65040,72,61,35,125,4.0,4-12A,diminished
65041,63,35,16,159,6.0,3-10,minor
65042,72,55,39,86,8.0,3-10,other
65043,65,39,18,39,8.0,3-10,other
65044,43,39,10,102,0.0,3-11B,major
65045,41,72,1068,0,3.0,1-1,other
65046,62,46,100,1148,6.0,2-3,minor
65047,49,37,52,524,10.0,3-11B,major
65048,49,40,264,980,2.0,3-7A,minor
65049,64,40,76,28,2.0,3-7A,minor
65050,47,53,100,1760,7.0,2-4,major
65051,48,41,640,140,7.0,2-4,major
65052,39,44,96,616,3.0,3-11B,major
65053,42,39,604,120,3.0,3-11B,major
65054,39,41,92,604,3.0,3-11B,major
65055,41,45,1208,120,3.0,3-11B,major
65056,36,32,52,644,2.0,3-5B,other
65057,29,45,408,108,2.0,3-5B,other
65058,57,47,204,288,3.0,2-1,other
65059,62,38,40,744,10.0,3-4B,other
65060,72,122,128,316,10.0,3-4B,other
65061,46,59,88,480,1.0,4-22B,other
65062,65,45,36,340,9.0,2-4,major
65063,59,39,152,1044,3.0,3-6,major
65064,47,52,112,592,11.0,2-3,minor
65065,48,48,476,136,11.0,2-3,minor
65066,55,31,308,360,3.0,3-11B,major
65067,42,48,76,244,3.0,3-11B,major
65068,41,33,560,152,3.0,3-11B,major
65069,57,32,180,260,0.0,3-11A,minor
65070,29,53,32,328,0.0,3-11A,minor
65071,29,66,88,1160,2.0,4-29A,minor
65072,32,74,120,496,2.0,4-29A,minor
65073,31,75,104,1392,10.0,5-30B,other
65074,58,33,40,288,10.0,5-30B,other
65075,48,50,1528,1436,3.0,4-16A,other
65076,54,26,204,432,0.0,3-11A,minor
65077,55,60,116,244,0.0,3-11A,minor
65078,56,59,488,160,0.0,3-11A,minor
65079,55,63,88,600,0.0,2-3,minor
65080,56,74,72,112,0.0,2-3,minor
65081,57,82,496,116,0.0,2-3,minor
65082,48,74,80,636,0.0,2-3,minor
65083,41,57,348,156,0.0,2-3,minor
65084,69,20,252,1268,7.0,2-5,other
65085,59,24,360,400,3.0,4-19B,augmented
65086,67,49,248,400,0.0,1-1,other
65087,81,120,60,804,4.0,4-27A,diminished
65088,82,67,56,100,4.0,4-27A,diminished
65089,81,78,60,80,4.0,4-27A,diminished
65090,77,68,64,108,4.0,4-27A,diminished
65091,73,75,88,92,4.0,4-27A,diminished
65092,72,75,60,244,5.0,3-8B,other
65093,70,62,28,152,5.0,3-8B,other
65094,69,58,80,232,5.0,3-8B,other
65095,50,66,132,1140,6.0,4-26,minor
65096,47,55,60,380,6.0,3-7B,other
65097,62,53,184,168,4.0,4-14A,minor
65098,62,52,24,260,4.0,4-14A,minor
65099,38,77,68,1480,5.0,5-26A,augmented
65100,41,46,32,1248,7.0,1-1,other
65101,46,61,56,1140,3.0,5-30B,other
65102,47,54,272,144,3.0,5-30B,other
65103,39,43,104,624,0.0,3-7B,other
65104,42,45,316,124,0.0,3-7B,other
65105,39,39,48,292,0.0,3-7B,other
65106,39,41,88,380,3.0,3-11B,major
65107,42,48,316,112,3.0,3-11B,major
65108,39,39,44,288,3.0,3-11B,major
65109,30,60,252,492,3.0,4-6,other
65110,29,49,388,324,9.0,2-6,other
65111,41,90,128,308,9.0,2-6,other
65112,51,39,40,144,9.0,2-6,other
65113,68,45,28,416,7.0,4-23,minor
65114,57,43,68,1196,1.0,4-22B,other
65115,44,55,236,728,2.0,4-26,minor
65116,47,49,88,1040,3.0,4-19B,augmented
65117,48,41,444,124,3.0,4-19B,augmented
65118,55,36,396,284,3.0,2-5,other
65119,42,51,52,348,3.0,2-5,other
65120,41,38,396,148,3.0,2-5,other
65121,47,62,84,628,9.0,4-27A,diminished
65122,48,60,560,136,9.0,4-27A,diminished
65123,53,82,264,644,3.0,3-11B,major
65124,76,45,32,1152,10.0,4-16A,major
65125,43,87,328,1060,10.0,5-30B,other
65126,60,48,32,420,3.0,5-20B,other
65127,50,64,52,728,3.0,3-11A,other
65128,47,51,240,120,3.0,3-11A,other
65129,48,48,324,276,3.0,3-11B,major
65130,46,38,104,332,3.0,3-11B,major
65131,50,68,312,136,3.0,3-11B,major
65132,51,49,288,364,3.0,3-11B,major
65133,46,58,268,344,3.0,3-11B,major
65134,46,46,88,680,9.0,4-27A,diminished
65135,39,57,296,88,9.0,4-27A,diminished
65136,54,67,552,268,9.0,4-27A,diminished
65137,42,44,76,352,3.0,2-1,other
65138,44,53,264,120,3.0,2-1,other
65139,31,81,76,612,7.0,4-26,minor
65140,74,77,60,792,7.0,4-26,minor
65141,78,68,72,140,7.0,4-26,minor
65142,78,37,44,1020,9.0,5-24A,minor
65143,78,45,44,216,9.0,5-24A,minor
65144,48,45,32,612,8.0,2-2,other
65145,70,31,36,1212,3.0,1-1,other
65146,41,63,68,1416,5.0,2-4,major
65147,64,30,64,904,11.0,3-7B,other
65148,81,88,112,1104,8.0,3-2B,other
65149,80,99,112,212,8.0,3-2B,other
65150,71,65,108,388,10.0,2-5,other
65151,70,33,184,164,10.0,2-5,other
65152,68,80,128,200,10.0,2-5,other
65153,67,52,128,164,7.0,2-2,other
65154,65,82,92,208,7.0,2-2,other
65155,63,57,124,160,0.0,2-5,other
65156,65,71,84,188,0.0,2-5,other
65157,63,48,92,44,0.0,2-5,other
65158,60,48,228,192,10.0,2-4,major
65159,59,60,80,224,10.0,2-4,major
65160,62,82,236,128,10.0,2-4,major
65161,60,50,172,392,0.0,2-1,other
65162,57,37,36,660,5.0,3-7B,other
65163,57,41,40,1044,6.0,2-3,other
65164,53,48,248,160,2.0,3-11A,minor
65165,46,68,80,216,2.0,3-11A,minor
65166,56,38,60,1036,7.0,4-27A,minor
65167,57,36,108,464,0.0,3-9,other
65168,76,48,52,560,0.0,3-1,other
65169,55,86,476,892,0.0,4-26,minor
65170,51,29,60,456,0.0,4-26,minor
65171,53,63,408,336,2.0,3-11B,major
65172,53,55,348,496,2.0,3-11B,major
65173,53,45,24,416,3.0,3-5B,other
65174,42,56,132,200,3.0,3-5B,other
65175,49,57,196,564,2.0,4-29A,minor
65176,38,68,48,516,2.0,4-15B,other
65177,75,67,120,564,5.0,3-5B,other
65178,77,102,76,200,5.0,3-5B,other
65179,75,75,132,152,5.0,3-5B,other
65180,74,82,96,392,1.0,4-15B,minor
65181,70,92,104,200,1.0,4-15B,minor
65182,71,74,104,172,1.0,4-15B,minor
65183,68,82,120,184,1.0,4-15B,minor
65184,59,57,32,28,1.0,4-15B,minor
65185,67,54,104,156,1.0,4-15B,minor
65186,53,54,216,216,7.0,3-3A,minor
65187,65,45,112,156,7.0,3-3A,minor
65188,63,43,192,720,5.0,2-5,other
65189,39,67,100,616,3.0,3-5B,other
65190,42,59,220,120,3.0,3-5B,other
65191,29,75,44,596,5.0,4-27B,major
65192,88,39,36,432,2.0,5-24A,minor
65193,88,39,40,248,2.0,5-24A,minor
65194,84,29,44,264,3.0,4-16A,major
65195,69,2,212,964,7.0,2-5,other
65196,67,60,52,1300,4.0,2-6,other
65197,69,54,76,132,4.0,2-6,other
65198,62,23,204,52,4.0,2-6,other
65199,70,66,52,76,4.0,2-6,other
65200,72,82,76,104,4.0,2-6,other
65201,73,89,88,120,4.0,2-6,other
65202,76,63,36,256,1.0,4-12A,other
65203,78,78,72,124,1.0,4-12A,other
65204,81,86,72,236,1.0,3-10,diminished
65205,82,96,112,132,1.0,3-10,diminished
65206,85,87,108,364,2.0,3-7B,other
65207,59,48,316,408,6.0,4-10,other
65208,81,55,172,160,6.0,4-10,other
65209,61,24,80,232,6.0,2-2,other
65210,64,38,40,2136,10.0,6-22B,other
65211,34,39,40,820,8.0,1-1,other
65212,65,36,76,792,3.0,3-4A,other
65213,34,41,64,364,3.0,3-4A,other
65214,65,49,412,152,3.0,3-11A,other
65215,46,63,76,232,3.0,3-11A,other
65216,47,57,272,112,3.0,3-11A,other
65217,48,47,304,288,3.0,3-11B,major
65218,39,51,104,316,3.0,3-11B,major
65219,42,42,276,136,3.0,3-11B,major
65220,39,39,68,264,3.0,3-11B,major
65221,39,48,104,332,2.0,2-3,minor
65222,42,49,272,132,2.0,2-3,minor
65223,41,49,564,336,3.0,2-1,other
65224,36,47,48,276,3.0,2-1,other
65225,36,45,56,368,5.0,2-4,other
65226,36,51,80,356,5.0,2-5,other
65227,70,82,104,384,11.0,2-2,other
65228,34,57,460,52,11.0,2-2,other
65229,70,61,28,152,11.0,2-2,other
65230,69,68,160,68,11.0,2-2,other
65231,69,37,788,252,10.0,2-5,other
65232,61,64,584,224,10.0,2-5,other
65233,39,53,116,108,10.0,2-5,other
65234,51,92,68,260,10.0,2-5,other
65235,44,38,88,248,10.0,2-5,other
65236,42,57,88,484,2.0,3-7A,minor
65237,44,60,208,128,2.0,3-7A,minor
65238,31,74,52,592,8.0,4-18A,diminished
65239,67,54,172,536,0.0,3-7A,minor
65240,55,37,272,336,0.0,2-2,other
65241,66,41,36,280,9.0,3-10,diminished
65242,41,79,116,320,9.0,3-10,diminished
65243,41,77,132,176,9.0,3-10,diminished
65244,55,60,268,760,0.0,3-7A,minor
65245,48,55,60,784,0.0,1-1,other
65246,39,57,40,344,6.0,3-7A,other
65247,76,42,32,400,2.0,5-32B,other
65248,76,46,28,348,2.0,3-11B,major
65249,76,45,32,224,2.0,2-5,other
65250,44,82,188,216,2.0,2-5,other
65251,43,81,80,328,2.0,2-5,other
65252,82,102,180,852,3.0,4-16A,other
65253,79,66,120,416,3.0,3-11A,other
65254,77,83,76,200,3.0,3-11A,other
65255,75,63,188,160,0.0,3-7B,other
65256,58,54,48,300,0.0,3-7B,other
65257,74,72,120,32,0.0,3-7B,other
65258,55,1,424,300,11.0,2-6,other
65259,75,72,216,92,11.0,2-6,other
65260,74,82,156,496,7.0,2-3,minor
65261,55,29,216,272,9.0,2-3,minor
65262,49,60,144,508,3.0,1-1,other
65263,50,62,312,172,3.0,1-1,other
65264,31,71,704,1004,7.0,4-26,minor
65265,34,36,108,372,7.0,4-26,minor
65266,61,30,56,756,2.0,4-27B,major
65267,58,42,64,1848,6.0,3-5A,other
65268,58,56,132,868,7.0,3-7A,minor
65269,69,31,64,344,3.0,4-11A,major
65270,41,65,516,332,3.0,4-11A,major
65271,53,59,444,796,2.0,3-11B,major
65272,65,51,296,1272,0.0,2-2,other
65273,44,49,296,308,0.0,2-2,other
65274,31,62,808,652,7.0,2-4,major
65275,38,57,60,772,7.0,2-4,major
65276,35,44,268,132,7.0,2-4,major
65277,36,48,364,292,3.0,3-11B,major
65278,34,44,108,360,3.0,3-11B,major
65279,38,49,272,116,3.0,3-11B,major
65280,34,45,44,264,3.0,3-11B,major
65281,39,54,296,96,3.0,3-11B,major
65282,37,50,84,268,3.0,3-11B,major
65283,40,56,272,108,3.0,3-11B,major
65284,39,46,80,272,3.0,3-11B,major
65285,60,41,324,144,5.0,4-21,major
65286,29,75,480,248,5.0,4-21,major
65287,29,84,112,744,5.0,5-34,major
65288,63,48,36,432,5.0,5-34,major
65289,46,49,772,92,5.0,5-34,major
65290,72,73,80,592,7.0,4-26,minor
65291,65,58,156,520,5.0,5-30A,augmented
65292,57,59,28,624,2.0,3-7A,minor
65293,50,54,120,804,3.0,5-26A,other
65294,47,56,132,300,3.0,5-26A,other
65295,48,66,532,160,3.0,5-26A,other
65296,43,37,40,620,3.0,3-11B,major
65297,41,50,660,120,3.0,3-11B,major
65298,46,52,60,628,2.0,3-11B,major
65299,41,66,76,1200,9.0,2-6,other
65300,39,69,184,144,9.0,2-6,other
65301,75,35,48,848,10.0,5-30B,other
65302,76,39,116,180,10.0,5-21B,other
65303,44,86,124,336,10.0,5-21B,other
65304,43,86,96,192,10.0,5-21B,other
65305,49,48,28,28,10.0,5-21B,other
65306,80,72,196,696,5.0,2-5,other
65307,75,36,88,28,5.0,2-5,other
65308,53,51,332,256,3.0,3-12,augmented
65309,50,58,84,340,3.0,3-12,augmented
65310,47,61,260,136,3.0,3-12,augmented
65311,48,49,328,288,3.0,3-11B,major
65312,39,47,108,320,3.0,3-11B,major
65313,42,40,268,160,3.0,3-11B,major
65314,39,43,72,264,3.0,3-11B,major
65315,43,49,296,104,3.0,3-11B,major
65316,39,42,92,268,3.0,3-11B,major
65317,39,33,40,404,3.0,4-29A,other
65318,57,44,324,120,5.0,2-2,other
65319,29,45,524,352,5.0,2-2,other
65320,29,75,140,640,9.0,2-6,other
65321,70,81,196,2384,4.0,4-27A,diminished
65322,45,51,44,1376,2.0,2-5,other
65323,45,56,584,136,2.0,2-5,other
65324,38,57,516,592,9.0,2-4,major
65325,45,39,416,876,11.0,2-2,other
65326,45,80,100,640,1.0,4-28,diminished
65327,45,38,276,136,1.0,4-28,diminished
65328,45,80,64,588,2.0,3-11B,major
65329,45,54,272,132,2.0,3-11B,major
65330,32,55,328,640,6.0,3-8A,other
65331,31,61,28,676,1.0,5-28B,diminished
65332,74,51,32,1084,8.0,4-28,diminished
65333,70,37,48,1212,0.0,3-11A,minor
65334,57,79,60,648,2.0,4-17,other
65335,69,45,148,884,2.0,3-3A,major
65336,64,38,52,96,2.0,3-3A,major
65337,69,39,48,284,2.0,3-7A,minor
65338,51,57,244,1120,5.0,4-24,augmented
65339,44,68,264,636,2.0,3-7A,minor
65340,43,83,664,324,2.0,3-7A,minor
65341,47,46,88,772,3.0,2-4,other
65342,43,52,232,440,0.0,4-26,minor
65343,41,51,404,308,9.0,2-6,other
65344,29,77,76,292,9.0,2-6,other
65345,55,39,44,424,3.0,2-4,major
65346,68,39,292,116,0.0,3-7A,minor
65347,55,68,36,224,0.0,3-7A,minor
65348,79,30,252,3588,3.0,6-24B,other
65349,48,69,712,748,3.0,2-4,other
65350,54,60,120,680,3.0,3-11B,major
65351,55,49,340,152,3.0,3-11B,major
65352,44,57,104,564,3.0,3-11B,major
65353,45,47,628,136,3.0,3-11B,major
65354,39,43,104,588,0.0,3-11A,minor
65355,38,52,520,148,0.0,3-11A,minor
65356,60,43,480,260,3.0,3-11A,other
65357,44,57,116,356,3.0,3-11A,other
65358,43,39,524,148,3.0,3-11A,other
65359,37,48,88,580,10.0,3-11B,major
65360,38,37,524,140,10.0,3-11B,major
65361,35,57,88,588,10.0,3-11B,major
65362,36,45,324,132,10.0,3-11B,major
65363,48,57,96,2524,9.0,4-23,minor
65364,42,47,152,144,9.0,4-23,minor
65365,41,60,460,232,9.0,4-23,minor
65366,51,88,120,1076,3.0,1-1,other
65367,38,86,68,340,3.0,1-1,other
65368,44,80,308,1160,2.0,3-11B,major
65369,50,52,100,744,3.0,5-30B,other
65370,50,38,40,420,7.0,3-11B,major
65371,50,73,84,288,7.0,3-11B,major
65372,47,54,248,152,7.0,3-11B,major
65373,48,49,380,280,3.0,3-11B,major
65374,46,43,100,376,3.0,3-11B,major
65375,50,51,276,112,3.0,3-11B,major
65376,46,45,100,268,3.0,3-11B,major
65377,51,60,252,108,3.0,3-11B,major
65378,46,45,92,256,3.0,3-11B,major
65379,52,64,224,100,3.0,3-11B,major
65380,48,31,44,324,3.0,3-11B,major
65381,49,48,96,1500,5.0,2-1,other
65382,67,45,108,144,4.0,3-8B,other
65383,66,48,40,3936,3.0,3-4A,other
65384,66,46,36,292,3.0,3-4A,other
65385,79,40,96,2464,9.0,1-1,other
65386,75,81,140,0,,,
65387,74,65,1324,156,,,
65388,72,66,112,1668,2.0,3-7B,other
65389,70,60,280,176,2.0,3-7B,other
65390,43,46,112,300,2.0,3-7B,other
65391,50,49,248,184,2.0,3-7B,other
65392,62,45,464,308,10.0,3-3B,other
65393,56,52,304,272,10.0,3-3B,other
65394,48,58,24,632,7.0,2-5,other
65395,87,79,80,768,3.0,4-20,major
65396,89,98,104,140,3.0,4-20,major
65397,57,48,608,196,3.0,3-4A,major
65398,86,60,100,288,3.0,3-4A,major
65399,81,40,64,296,0.0,4-14A,minor
65400,82,41,84,172,0.0,4-14A,minor
65401,62,35,360,160,5.0,2-5,other
65402,39,58,96,1208,2.0,2-3,minor
65403,46,40,40,188,2.0,2-3,minor
65404,46,21,144,84,2.0,2-3,minor
65405,55,50,60,72,2.0,2-3,minor
65406,54,48,768,400,3.0,3-4A,other
65407,71,85,368,272,3.0,3-4A,other
65408,73,61,72,344,3.0,3-4A,other
65409,75,98,124,140,3.0,3-4A,other
65410,75,45,32,188,1.0,5-24A,other
65411,73,78,148,272,1.0,5-24A,other
65412,63,54,132,132,1.0,5-24A,other
65413,63,29,64,1308,10.0,4-14B,other
65414,46,36,80,844,1.0,2-3,other
65415,63,36,44,124,10.0,4-5B,other
65416,66,57,32,564,0.0,4-14B,other
65417,63,48,28,680,6.0,3-10,minor
65418,48,34,60,36,6.0,3-10,minor
65419,63,52,88,476,6.0,4-27A,minor
65420,53,36,1408,364,0.0,4-27B,major
65421,46,73,640,780,2.0,4-26,minor
65422,72,66,80,364,2.0,4-26,minor
65423,75,82,88,140,2.0,4-26,minor
65424,79,82,72,152,2.0,4-26,minor
65425,84,107,80,164,2.0,4-26,minor
65426,86,122,112,144,2.0,4-26,minor
65427,89,85,84,332,9.0,4-27A,diminished
65428,87,82,108,148,9.0,4-27A,diminished
65429,86,72,76,168,0.0,2-3,minor
65430,87,56,84,112,0.0,2-3,minor
65431,86,56,84,72,0.0,2-3,minor
65432,84,61,68,96,0.0,2-3,minor
65433,82,63,80,108,0.0,2-3,minor
65434,81,46,236,108,2.0,3-8A,major
65435,84,68,292,348,2.0,3-8A,major
65436,74,42,36,332,6.0,2-6,other
65437,84,85,196,240,6.0,2-6,other
65438,43,47,96,36,6.0,2-6,other
65439,50,36,96,32,6.0,2-6,other
65440,82,72,132,116,6.0,2-6,other
65441,70,68,488,160,6.0,2-6,other
65442,54,72,132,356,7.0,3-11A,minor
65443,56,19,112,32,7.0,3-11A,minor
65444,53,72,136,144,7.0,3-11A,minor
65445,58,23,84,240,2.0,3-9,other
65446,78,31,332,200,2.0,3-9,other
65447,52,57,48,584,7.0,3-11A,minor
65448,51,42,408,1368,2.0,4-18A,major
65449,51,41,152,636,9.0,1-1,other
65450,65,36,36,528,10.0,3-11B,major
65451,70,38,156,1616,3.0,4-20,other
65452,82,45,40,344,3.0,4-20,other
65453,82,34,180,680,3.0,4-16A,other
65454,70,20,112,28,3.0,4-16A,other
65455,53,33,40,428,3.0,3-4A,other
65456,39,68,116,320,3.0,3-4A,other
65457,58,36,40,696,1.0,3-7B,other
65458,54,59,172,1248,10.0,3-11B,other
65459,48,75,788,200,10.0,3-11B,other
65460,66,36,40,704,1.0,3-9,other
65461,53,68,640,2052,2.0,3-7A,minor
65462,46,58,152,460,2.0,3-7A,minor
65463,69,39,48,204,2.0,3-7A,minor
65464,70,60,56,136,2.0,3-7A,minor
65465,74,81,92,144,2.0,3-7A,minor
65466,78,84,108,160,2.0,3-7A,minor
65467,81,78,84,148,2.0,3-7A,minor
65468,81,66,76,332,7.0,2-4,major
65469,84,72,64,164,7.0,2-4,major
65470,84,72,64,152,7.0,2-4,major
65471,55,39,380,196,6.0,3-5A,other
65472,83,61,76,128,6.0,3-5A,other
65473,82,66,76,80,6.0,3-5A,other
65474,81,58,68,96,6.0,3-5A,other
65475,55,39,204,220,6.0,3-11A,minor
65476,80,56,136,276,6.0,3-11A,minor
65477,50,59,300,488,11.0,2-2,other
65478,49,64,168,488,6.0,4-26,minor
65479,38,76,180,492,2.0,4-20,major
65480,40,55,200,520,2.0,4-20,major
65481,59,68,180,188,7.0,3-11B,major
65482,69,51,140,1448,6.0,4-18B,other
65483,69,39,104,1820,2.0,2-4,major
65484,60,45,280,700,5.0,2-4,major
65485,55,57,84,292,5.0,2-4,major
65486,60,47,28,620,7.0,2-5,other
65487,62,52,24,76,7.0,2-5,other
65488,62,61,32,72,7.0,2-5,other
65489,64,55,28,88,7.0,2-5,other
65490,64,58,64,72,7.0,2-5,other
65491,65,60,28,80,7.0,2-5,other
65492,67,59,24,148,5.0,4-22A,major
65493,67,50,60,64,5.0,4-22A,major
65494,69,49,28,84,5.0,4-22A,major
65495,69,46,68,76,5.0,4-22A,major
65496,71,65,60,68,5.0,4-22A,major
65497,43,74,96,860,11.0,2-3,minor
65498,71,71,128,144,11.0,2-3,minor
65499,53,60,24,1000,4.0,4-26,minor
65500,56,41,36,196,10.0,3-11B,other
65501,39,68,96,276,10.0,3-11B,other
65502,43,60,772,2152,5.0,4-22A,major
65503,55,79,552,532,5.0,4-16A,major
65504,43,54,28,536,9.0,2-5,other
65505,68,30,44,500,3.0,1-1,other
65506,70,31,44,32,3.0,1-1,other
65507,62,49,184,156,3.0,3-4A,major
65508,62,56,56,332,3.0,3-4A,major
65509,60,76,440,460,3.0,2-4,major
65510,54,49,148,504,3.0,2-4,major
65511,69,31,116,248,6.0,4-28,diminished
65512,50,43,72,256,6.0,4-28,diminished
65513,56,57,132,504,2.0,3-11A,minor
65514,62,38,260,204,7.0,2-3,minor
65515,54,54,116,284,7.0,2-3,minor
65516,51,50,124,516,2.0,2-3,minor
65517,36,69,28,484,4.0,2-6,other
65518,49,33,60,1316,2.0,4-18A,major
65519,41,63,24,180,2.0,4-18A,major
65520,70,64,72,1048,2.0,2-2,other
65521,74,56,80,160,2.0,2-2,other
65522,77,84,88,160,2.0,2-2,other
65523,81,89,136,144,2.0,2-2,other
65524,46,40,52,180,3.0,2-5,other
65525,86,76,80,136,3.0,2-5,other
65526,93,85,100,340,5.0,3-9,other
65527,94,89,116,168,5.0,3-9,other
65528,96,111,124,164,5.0,3-9,other
65529,94,72,68,348,3.0,4-20,other
65530,59,39,300,372,3.0,2-5,other
65531,90,63,88,140,3.0,2-5,other
65532,53,36,728,348,3.0,3-8B,other
65533,88,46,132,172,3.0,3-8B,other
65534,59,37,172,340,3.0,1-1,other
65535,56,38,196,496,1.0,3-7B,other
65536,82,55,104,288,1.0,3-7B,other
65537,47,54,400,512,8.0,2-2,other
65538,63,38,184,1608,6.0,3-11A,minor
65539,47,37,48,1252,6.0,5-34,minor
65540,47,46,196,1272,11.0,1-1,other
65541,46,48,180,1284,6.0,3-2B,other
65542,54,46,52,180,6.0,3-2B,other
65543,58,46,292,384,10.0,4-20,other
65544,73,1,1060,636,10.0,3-11B,other
65545,39,74,164,340,10.0,3-11B,other
65546,39,67,60,240,10.0,3-11B,other
65547,67,43,172,820,0.0,4-26,other
65548,75,85,180,396,0.0,4-26,other
65549,72,70,188,156,0.0,4-26,other
65550,73,75,144,148,0.0,4-26,other
65551,75,63,80,168,0.0,4-26,other
65552,77,68,128,144,0.0,4-26,other
65553,78,55,124,180,6.0,2-3,other
65554,80,68,100,160,6.0,2-3,other
65555,84,84,204,160,6.0,2-3,other
65556,84,81,160,1496,10.0,4-20,other
65557,60,57,240,1240,3.0,3-4B,other
65558,78,52,168,680,0.0,4-20,other
65559,77,57,128,148,0.0,4-20,other
65560,78,56,516,188,6.0,2-3,other
65561,77,48,448,508,6.0,2-3,other
65562,73,45,368,972,1.0,5-27B,other
65563,77,79,608,352,1.0,5-27B,other
65564,75,66,432,360,1.0,5-27B,other
65565,39,51,40,336,1.0,5-27B,other
65566,65,39,60,1028,3.0,2-5,other
65567,46,38,136,272,3.0,2-5,other
65568,46,47,932,508,6.0,3-7A,other
65569,54,46,144,188,6.0,3-7A,other
65570,39,63,124,772,10.0,3-11B,other
65571,46,24,120,44,10.0,3-11B,other
65572,39,43,76,184,10.0,3-11B,other
65573,39,44,40,328,0.0,3-11B,other
65574,39,68,292,448,0.0,3-11B,other
65575,39,75,552,500,0.0,3-11B,other
65576,72,46,80,364,0.0,3-11B,other
65577,74,90,108,136,0.0,3-11B,other
65578,75,74,68,164,0.0,3-11B,other
65579,79,58,44,148,0.0,3-11B,other
65580,84,107,104,156,0.0,3-11B,other
65581,87,85,104,300,2.0,2-5,other
65582,89,107,104,164,2.0,2-5,other
65583,57,39,68,196,0.0,3-11A,minor
65584,87,82,60,136,0.0,3-11A,minor
65585,89,60,84,92,0.0,3-11A,minor
65586,87,54,104,68,0.0,3-11A,minor
65587,86,64,72,104,0.0,3-11A,minor
65588,85,68,176,140,2.0,1-1,other
65589,84,66,132,276,2.0,1-1,other
65590,82,54,120,248,6.0,3-8B,other
65591,81,65,148,252,6.0,3-8B,other
65592,84,63,232,192,7.0,2-5,other
65593,82,63,116,292,7.0,2-5,other
65594,81,60,92,324,7.0,4-19A,minor
65595,79,61,120,160,7.0,4-19A,minor
65596,77,54,44,228,0.0,3-7B,other
65597,79,56,52,80,0.0,3-7B,other
65598,77,54,84,56,0.0,3-7B,other
65599,74,49,72,112,0.0,3-7B,other
65600,75,63,76,116,0.0,3-7B,other
65601,79,75,68,244,4.0,1-1,other
65602,82,83,76,120,4.0,1-1,other
65603,83,84,84,132,4.0,1-1,other
65604,84,120,396,488,3.0,4-20,major
65605,79,57,72,356,3.0,2-4,major
65606,78,56,112,136,3.0,2-4,major
65607,41,56,28,520,5.0,4-21,major
65608,61,32,40,212,9.0,2-1,other
65609,53,45,100,364,9.0,3-4A,major
65610,53,51,28,1748,10.0,2-5,other
65611,53,28,240,1584,3.0,3-11A,other
65612,30,62,128,1372,6.0,2-5,other
65613,47,52,664,764,6.0,2-5,other
65614,47,57,76,880,3.0,3-11A,other
65615,48,63,484,220,3.0,3-11A,other
65616,41,88,96,824,10.0,2-5,other
65617,78,26,216,708,2.0,5-38A,major
65618,87,31,36,392,2.0,4-23,minor
65619,99,19,184,3336,2.0,4-12A,major
65620,106,70,120,1344,10.0,4-11A,major
65621,105,70,116,144,10.0,4-11A,major
65622,103,46,244,188,4.0,3-8B,other
65623,102,59,152,296,4.0,3-8B,other
65624,101,42,244,200,10.0,2-4,major
65625,100,56,124,296,10.0,2-4,major
65626,98,64,124,508,7.0,2-2,other
65627,99,47,144,164,3.0,2-4,major
65628,97,58,136,188,3.0,2-4,major
65629,99,66,144,156,3.0,2-4,major
65630,96,57,120,180,9.0,2-6,other
65631,98,70,120,156,9.0,2-6,other
65632,67,40,168,204,3.0,2-4,other
65633,97,56,140,124,3.0,2-4,other
65634,94,64,120,160,3.0,2-4,other
65635,96,75,176,164,3.0,2-4,other
65636,94,54,140,324,2.0,4-26,minor
65637,93,66,108,340,7.0,1-1,other
65638,90,55,68,160,7.0,1-1,other
65639,91,64,176,148,7.0,1-1,other
65640,46,27,60,180,3.0,2-1,other
65641,89,49,96,160,3.0,2-1,other
65642,84,42,132,168,3.0,2-1,other
65643,87,56,116,168,5.0,3-9,other
65644,82,45,112,156,5.0,3-9,other
65645,86,60,124,172,5.0,3-9,other
65646,81,37,124,176,5.0,3-9,other
65647,84,56,92,164,5.0,3-9,other
65648,83,62,100,316,11.0,3-4B,other
65649,79,46,88,164,11.0,3-4B,other
65650,82,70,144,140,11.0,3-4B,other
65651,80,55,116,340,3.0,5-30B,other
65652,77,54,344,156,3.0,5-30B,other
65653,53,48,76,504,3.0,3-4A,other
65654,63,63,168,516,10.0,4-20,other
65655,73,29,56,236,3.0,3-11A,other
65656,54,52,32,276,3.0,3-11A,other
65657,47,48,776,564,3.0,3-11A,other
65658,63,36,40,236,10.0,3-11B,other
65659,63,27,44,156,10.0,3-11B,other
65660,63,37,44,188,10.0,3-11B,other
65661,63,27,36,172,10.0,3-11B,other
65662,51,43,52,1220,6.0,3-10,minor
65663,46,61,220,2116,2.0,2-3,minor
65664,81,86,308,548,2.0,2-3,minor
65665,59,46,372,208,7.0,3-4B,other
65666,82,55,108,116,7.0,3-4B,other
65667,81,58,84,96,7.0,3-4B,other
65668,79,50,36,104,7.0,3-4B,other
65669,81,83,144,112,7.0,3-4B,other
65670,59,31,148,168,10.0,3-12,augmented
65671,84,66,72,96,10.0,3-12,augmented
65672,89,65,76,132,10.0,3-12,augmented
65673,93,90,104,124,10.0,3-12,augmented
65674,55,48,276,168,6.0,3-5A,other
65675,94,75,132,216,6.0,3-5A,other
65676,91,61,124,428,5.0,4-24,augmented
65677,90,75,260,176,5.0,4-24,augmented
65678,40,43,36,496,1.0,4-23,minor
65679,45,55,68,196,1.0,4-23,minor
65680,45,49,416,836,6.0,3-11A,minor
65681,38,56,72,196,6.0,3-11A,minor
65682,38,44,32,344,6.0,3-11A,minor
65683,57,86,152,524,11.0,5-35,minor
65684,57,68,116,216,11.0,5-35,minor
65685,45,67,84,156,11.0,5-35,minor
65686,45,75,888,200,11.0,5-35,minor
65687,57,71,68,508,9.0,4-18A,major
65688,45,88,816,544,9.0,4-18A,major
65689,57,54,32,528,6.0,4-26,minor
65690,45,68,436,360,6.0,4-26,minor
65691,57,38,36,1104,9.0,3-11A,minor
65692,61,31,80,172,3.0,2-5,other
65693,31,80,72,496,5.0,5-27A,major
65694,52,39,1008,1836,7.0,3-11B,major
65695,55,25,92,536,11.0,2-3,minor
65696,43,55,76,4136,4.0,3-11A,minor
65697,43,47,104,244,4.0,3-11A,minor
65698,43,62,68,1012,11.0,4-27A,diminished
65699,50,43,236,1004,3.0,3-4A,major
65700,50,56,364,344,3.0,3-4A,major
65701,69,39,592,232,6.0,3-10,other
65702,50,58,88,288,6.0,3-10,other
65703,50,37,40,240,6.0,3-10,other
65704,72,56,72,296,6.0,3-10,other
65705,50,46,76,520,7.0,2-3,minor
65706,55,35,100,516,10.0,3-4A,major
65707,64,43,184,216,1.0,2-3,other
65708,48,48,252,284,1.0,2-3,other
65709,75,58,144,1012,3.0,4-20,major
65710,77,63,196,328,3.0,4-20,major
65711,74,58,512,672,9.0,3-8B,other
65712,72,57,716,496,9.0,3-8B,other
65713,70,60,240,736,2.0,4-26,minor
65714,74,74,768,544,5.0,2-5,other
65715,39,52,76,308,5.0,2-5,other
65716,46,45,84,524,7.0,2-5,other
65717,54,31,392,708,3.0,3-4A,other
65718,71,45,68,128,3.0,3-4A,other
65719,59,39,308,384,5.0,2-2,other
65720,73,85,84,240,5.0,2-2,other
65721,75,94,184,124,5.0,2-2,other
65722,71,75,88,440,1.0,2-2,other
65723,56,33,52,224,1.0,3-7B,other
65724,70,54,136,1476,3.0,2-4,other
65725,41,51,256,492,3.0,2-4,other
65726,66,39,184,4084,11.0,1-1,other
65727,46,40,192,572,3.0,1-1,other
65728,54,46,68,188,3.0,1-1,other
65729,58,40,540,372,10.0,4-20,other
65730,39,45,36,1220,10.0,4-20,other
65731,75,57,1324,916,10.0,4-20,other
65732,72,59,1244,88,10.0,4-20,other
65733,68,58,1536,52,10.0,4-20,other
65734,46,39,180,988,0.0,3-11A,minor
65735,39,47,432,236,0.0,3-11A,minor
65736,46,44,240,300,0.0,3-11A,minor
65737,53,41,320,236,0.0,3-11A,minor
65738,39,48,64,1608,10.0,4-20,other
65739,51,43,228,364,10.0,4-20,other
65740,63,54,92,656,0.0,2-4,other
65741,60,31,112,32,0.0,2-4,other
65742,68,52,52,332,5.0,2-2,other
65743,65,39,80,32,5.0,2-2,other
65744,70,60,40,140,5.0,2-2,other
65745,68,31,68,92,5.0,2-2,other
65746,72,54,112,84,5.0,2-2,other
65747,71,28,32,48,5.0,2-2,other
65748,75,50,28,164,5.0,2-2,other
65749,74,36,44,36,5.0,2-2,other
65750,82,57,40,532,8.0,2-3,other
65751,80,39,56,56,8.0,2-3,other
65752,87,56,72,340,0.0,2-2,other
65753,84,38,136,32,0.0,2-2,other
65754,94,57,232,652,8.0,2-3,other
65755,96,61,220,268,8.0,2-3,other
65756,98,58,144,304,8.0,2-3,other
65757,99,57,504,372,8.0,2-3,other
65758,46,39,68,1056,5.0,3-2B,other
65759,72,45,3592,512,5.0,2-2,other
65760,70,51,3572,52,5.0,2-2,other
65761,66,38,3436,116,5.0,2-2,other
65762,75,77,600,0,,,
65763,74,57,520,876,,,
65764,98,57,1104,1132,3.0,4-16A,major
65765,26,66,708,1084,2.0,1-1,other
65766,56,61,340,2400,6.0,4-28,diminished
65767,43,56,1236,708,7.0,3-11A,minor
65768,57,56,140,908,7.0,3-9,other
65769,58,62,80,164,7.0,3-9,other
65770,62,68,108,152,7.0,3-9,other
65771,66,69,116,160,7.0,3-9,other
65772,69,80,132,160,7.0,3-9,other
65773,70,68,124,184,7.0,3-9,other
65774,72,62,1136,176,7.0,3-9,other
65775,78,56,328,548,0.0,2-4,major
65776,84,50,48,700,4.0,3-10,diminished
65777,102,51,260,512,4.0,3-10,diminished
65778,90,29,248,44,4.0,3-10,diminished
65779,71,39,124,1348,3.0,4-19B,augmented
65780,60,45,312,364,3.0,2-4,major
65781,60,38,372,692,3.0,3-11B,major
65782,48,35,344,1556,2.0,3-2A,minor
65783,69,57,208,388,2.0,3-2A,minor
65784,62,33,236,344,10.0,2-5,other
65785,62,1,136,384,10.0,3-9,other
65786,39,43,348,284,7.0,3-11A,minor
65787,55,39,116,796,10.0,2-4,major
65788,58,39,420,468,10.0,2-4,major
65789,63,47,316,2588,1.0,4-22B,other
65790,49,47,288,1804,6.0,2-3,other
65791,54,52,72,288,6.0,2-3,other
65792,80,43,32,360,1.0,3-7B,other
65793,54,45,220,696,11.0,2-5,other
65794,54,26,148,364,11.0,2-5,other
65795,61,37,76,32,11.0,2-5,other
65796,70,54,140,384,11.0,2-5,other
65797,54,31,240,36,11.0,2-5,other
65798,68,64,148,1644,0.0,4-22A,other
65799,68,71,120,292,0.0,4-22A,other
65800,68,62,216,300,0.0,4-22A,other
65801,61,57,316,764,9.0,2-6,other
65802,41,30,564,552,9.0,3-10,diminished
65803,66,55,424,408,9.0,3-10,diminished
65804,57,50,240,1520,2.0,2-5,other
65805,60,27,824,392,2.0,3-11A,minor
65806,77,23,124,1292,2.0,2-3,minor
65807,75,56,720,2088,2.0,2-5,other
65808,77,48,136,728,2.0,2-5,other
65809,75,55,144,140,2.0,2-5,other
65810,74,61,820,660,2.0,2-5,other
65811,63,61,776,160,9.0,2-2,other
65812,62,55,404,128,9.0,2-2,other
65813,50,38,2140,832,6.0,3-10,other
65814,58,49,128,1544,11.0,4-13A,diminished
65815,57,54,132,152,11.0,4-13A,diminished
65816,56,50,228,156,11.0,4-13A,diminished
65817,48,38,304,1724,0.0,4-24,augmented
65818,55,8,176,584,1.0,2-6,other
65819,74,76,80,656,1.0,2-6,other
65820,74,77,152,324,1.0,2-6,other
65821,49,25,60,732,3.0,2-5,other
65822,77,79,100,124,3.0,2-5,other
65823,65,37,216,392,5.0,3-11B,major
65824,75,61,252,1468,9.0,2-6,other
65825,74,68,248,292,9.0,2-6,other
65826,72,62,268,248,9.0,2-6,other
65827,70,47,268,532,2.0,4-26,minor
65828,74,59,284,876,5.0,2-5,other
65829,79,62,836,1344,10.0,2-4,major
65830,62,39,52,28,10.0,2-4,major
65831,81,68,136,884,8.0,2-1,other
65832,82,69,160,188,8.0,2-1,other
65833,59,42,616,1324,3.0,3-11A,other
65834,53,33,124,836,3.0,2-4,other
65835,42,38,488,1584,10.0,1-1,other
65836,49,57,276,216,10.0,1-1,other
65837,54,54,84,280,10.0,1-1,other
65838,47,55,928,700,1.0,2-3,other
65839,54,38,64,360,6.0,4-27A,minor
65840,48,52,740,976,8.0,2-3,minor
65841,63,47,256,648,1.0,2-5,other
65842,48,39,1028,1064,5.0,2-2,other
65843,51,24,700,400,9.0,2-4,major
65844,66,50,380,396,9.0,2-4,major
65845,57,44,332,1340,2.0,3-11A,minor
65846,67,31,40,2200,10.0,3-11B,major
65847,77,43,36,404,10.0,4-20,major
65848,84,71,244,564,10.0,4-20,major
65849,81,75,912,776,10.0,4-20,major
65850,33,68,84,696,9.0,2-5,other
65851,72,22,932,644,6.0,3-5A,other
65852,33,79,188,616,6.0,3-5A,other
65853,92,42,28,1996,9.0,1-1,other
65854,91,47,28,200,6.0,5-35,minor
65855,55,23,324,2776,11.0,2-3,minor
65856,59,45,184,560,2.0,3-11B,major
65857,55,36,96,3264,5.0,5-21B,other
65858,38,75,384,892,1.0,2-2,other
65859,61,71,300,1440,11.0,2-2,other
65860,59,49,328,36,11.0,2-2,other
65861,65,63,188,564,4.0,2-2,other
65862,66,61,104,200,4.0,2-2,other
65863,67,57,88,120,4.0,2-2,other
65864,68,38,88,112,4.0,2-2,other
65865,70,66,96,176,4.0,2-2,other
65866,59,31,284,148,9.0,2-2,other
65867,50,57,116,312,9.0,2-2,other
65868,64,47,336,360,5.0,4-20,major
65869,62,60,336,340,5.0,4-20,major
65870,55,54,532,3500,4.0,3-11A,minor
65871,55,63,336,684,4.0,3-11A,minor
65872,70,48,132,820,7.0,2-1,other
65873,76,31,44,500,1.0,5-27B,other
65874,44,44,28,452,1.0,5-27B,other
65875,46,68,24,68,1.0,5-27B,other
65876,49,63,20,68,1.0,5-27B,other
65877,51,68,24,48,1.0,5-27B,other
65878,54,68,24,56,1.0,5-27B,other
65879,56,70,28,40,1.0,5-27B,other
65880,58,70,24,44,1.0,5-27B,other
65881,61,66,24,56,1.0,5-27B,other
65882,63,66,24,44,1.0,5-27B,other
65883,66,67,24,60,1.0,5-27B,other
65884,68,66,24,44,1.0,5-27B,other
65885,70,60,24,48,1.0,5-27B,other
65886,73,64,24,60,1.0,5-27B,other
65887,75,58,24,48,1.0,5-27B,other
65888,78,63,28,72,1.0,5-27B,other
65889,80,60,28,40,1.0,5-27B,other
65890,82,63,24,48,1.0,5-27B,other
65891,85,58,24,64,1.0,5-27B,other
65892,87,67,24,36,1.0,5-27B,other
65893,90,65,24,72,1.0,5-27B,other
65894,92,56,44,48,1.0,5-27B,other
65895,94,58,24,60,1.0,5-27B,other
65896,97,42,36,80,1.0,5-27B,other
65897,75,55,168,1840,6.0,2-6,other
65898,69,39,136,688,7.0,3-7B,other
65899,50,36,32,488,7.0,3-7B,other
65900,55,36,36,36,7.0,3-7B,other
65901,52,50,44,28,7.0,3-7B,other
65902,57,39,44,32,7.0,3-7B,other
65903,53,54,24,60,7.0,3-7B,other
65904,59,28,36,32,7.0,3-7B,other
65905,62,51,32,336,5.0,2-5,other
65906,67,38,40,40,5.0,2-5,other
65907,64,54,40,36,5.0,2-5,other
65908,69,33,40,48,5.0,2-5,other
65909,65,51,32,32,5.0,2-5,other
65910,71,35,40,44,5.0,2-5,other
65911,67,52,32,32,5.0,2-5,other
65912,72,45,40,36,5.0,2-5,other
65913,69,54,28,40,5.0,2-5,other
65914,74,40,32,44,5.0,2-5,other
65915,71,43,36,32,5.0,2-5,other
65916,76,46,28,36,5.0,2-5,other
65917,72,50,32,28,5.0,2-5,other
65918,77,54,28,32,5.0,2-5,other
65919,74,46,28,52,5.0,2-5,other
65920,79,47,32,36,5.0,2-5,other
65921,76,44,28,48,5.0,2-5,other
65922,81,49,40,28,5.0,2-5,other
65923,77,46,28,52,5.0,2-5,other
65924,83,40,32,36,5.0,2-5,other
65925,79,32,32,60,5.0,2-5,other
65926,81,31,36,84,5.0,2-5,other
65927,83,41,44,80,5.0,2-5,other
65928,89,24,660,168,5.0,3-11B,major
65929,86,49,504,972,5.0,3-11B,major
65930,87,68,228,564,5.0,3-11B,major
65931,87,78,212,280,5.0,3-11B,major
65932,57,39,100,908,0.0,2-3,minor
65933,63,57,32,248,0.0,2-3,minor
65934,55,35,48,28,0.0,2-3,minor
65935,26,50,112,352,0.0,2-3,minor
65936,58,40,36,488,5.0,3-5B,other
65937,54,39,560,452,5.0,4-14B,major
65938,82,34,80,1584,6.0,3-2A,minor
65939,64,23,220,1396,1.0,2-3,minor
65940,57,42,448,1396,9.0,3-10,diminished
65941,53,40,1188,692,2.0,2-5,other
65942,60,31,816,348,9.0,2-6,other
65943,76,66,204,436,9.0,2-6,other
65944,79,78,380,372,9.0,2-6,other
65945,60,43,480,440,2.0,3-2B,minor
65946,77,78,92,284,2.0,3-2B,minor
65947,53,46,380,40,2.0,3-2B,minor
65948,96,47,292,3124,10.0,2-4,major
65949,54,29,132,732,3.0,3-4A,other
65950,70,13,124,776,11.0,2-1,other
65951,70,39,172,1392,1.0,3-6,other
65952,70,49,456,736,6.0,2-5,other
65953,61,36,100,328,6.0,2-5,other
65954,82,33,48,744,1.0,3-2A,other
65955,82,44,32,368,1.0,2-3,other
65956,58,79,304,356,1.0,2-3,other
65957,54,40,264,32,1.0,2-3,other
65958,82,34,44,384,1.0,3-2A,other
65959,82,39,40,452,10.0,3-11A,other
65960,57,9,1016,1104,9.0,4-16A,other
65961,29,77,252,420,9.0,4-16A,other
65962,23,87,268,660,9.0,4-16A,other
65963,75,39,528,2296,6.0,3-11A,minor
65964,72,39,532,1020,10.0,2-5,other
65965,66,48,448,2548,11.0,1-1,other
65966,46,56,304,1652,3.0,3-11A,other
65967,53,62,224,324,3.0,3-11A,other
65968,54,72,396,240,3.0,3-11A,other
65969,61,89,2316,280,3.0,3-11A,other
65970,54,54,332,396,3.0,3-11A,other
65971,53,51,308,368,3.0,3-11A,other
65972,46,48,416,368,3.0,3-11A,other
65973,39,56,640,456,3.0,3-11A,other
65974,48,49,260,612,3.0,3-11A,other
65975,63,60,120,644,0.0,2-4,other
65976,60,31,152,48,0.0,2-4,other
65977,65,71,116,108,0.0,2-4,other
65978,63,48,88,44,0.0,2-4,other
65979,68,66,136,116,0.0,2-4,other
65980,65,7,96,128,0.0,2-4,other
65981,70,60,80,48,0.0,2-4,other
65982,72,57,104,148,0.0,2-4,other
65983,68,47,144,28,0.0,2-4,other
65984,75,50,32,144,0.0,2-4,other
65985,77,62,128,200,0.0,2-4,other
65986,80,60,140,176,0.0,2-4,other
65987,77,31,36,64,0.0,2-4,other
65988,82,46,92,152,0.0,2-4,other
65989,84,54,164,192,0.0,2-4,other
65990,54,41,496,1052,6.0,2-1,other
65991,77,45,392,312,5.0,2-4,other
65992,54,44,304,324,5.0,2-4,other
65993,46,46,648,676,5.0,2-2,other
65994,39,45,340,660,5.0,2-5,other
65995,72,33,448,292,0.0,2-4,other
65996,51,48,156,268,0.0,2-4,other
65997,53,52,1420,284,0.0,2-4,other
65998,63,38,308,684,0.0,2-4,other
65999,68,39,76,332,0.0,2-4,other
66000,75,48,280,360,0.0,2-4,other
66001,39,36,668,1116,5.0,1-1,other
66002,46,39,424,312,5.0,1-1,other
66003,54,37,1400,352,5.0,1-1,other
66004,58,43,2024,540,5.0,1-1,other
66005,39,38,584,1348,5.0,1-1,other
66006,46,35,3148,336,5.0,1-1,other
66007,53,30,56,376,5.0,1-1,other
66008,54,37,2400,364,5.0,1-1,other
66009,75,72,104,3700,1.0,2-3,other
66010,74,60,156,156,1.0,2-3,other
66011,50,35,336,876,6.0,3-10,other
66012,54,36,48,644,6.0,4-28,diminished
66013,55,38,320,88,7.0,3-11A,minor
66014,50,44,28,372,7.0,3-11A,minor
66015,85,48,24,2092,2.0,1-1,other
66016,81,66,68,1244,2.0,3-7A,minor
66017,82,71,116,144,2.0,3-7A,minor
66018,77,42,48,540,5.0,2-5,other
66019,79,28,68,136,5.0,2-5,other
66020,74,39,56,468,10.0,4-8,major
66021,75,43,100,132,10.0,4-8,major
66022,73,40,92,676,10.0,3-4B,other
66023,63,42,84,732,11.0,2-6,other
66024,68,36,156,480,1.0,2-2,other
66025,70,25,64,28,1.0,2-2,other
66026,46,42,52,1588,6.0,2-5,other
66027,48,52,416,84,3.0,4-14A,other
66028,36,50,28,368,3.0,4-14A,other
66029,52,48,176,164,3.0,4-14A,other
66030,42,36,180,56,3.0,4-14A,other
66031,41,46,300,268,6.0,4-27A,minor
66032,48,39,116,400,6.0,4-27A,minor
66033,53,31,160,468,0.0,4-27B,major
66034,53,26,344,420,10.0,5-27A,major
66035,66,25,52,464,0.0,3-8B,other
66036,57,31,60,156,0.0,3-8B,other
66037,50,57,508,1992,6.0,3-10,other
66038,69,46,64,620,10.0,3-4A,major
66039,74,81,112,292,10.0,2-1,other
66040,55,56,76,28,10.0,2-1,other
66041,77,69,88,132,10.0,2-1,other
66042,81,70,64,148,10.0,2-1,other
66043,82,74,140,124,10.0,2-1,other
66044,61,47,168,2236,2.0,5-19B,major
66045,81,50,72,96,2.0,5-19B,major
66046,39,49,36,1276,5.0,2-5,other
66047,65,40,36,200,0.0,2-2,other
66048,54,35,116,128,0.0,2-2,other
66049,44,58,832,776,7.0,4-23,minor
66050,51,39,56,580,3.0,3-4A,other
66051,59,43,44,168,3.0,3-9,other
66052,56,58,72,596,1.0,4-22B,other
66053,58,42,152,468,8.0,4-22A,other
66054,56,38,40,308,10.0,3-11B,other
66055,42,43,84,1960,3.0,2-5,other
66056,41,58,24,1160,1.0,3-9,other
66057,66,36,40,1564,10.0,4-19B,other
66058,57,53,40,660,11.0,4-23,minor
66059,45,42,560,184,11.0,4-23,minor
66060,45,64,84,732,1.0,4-28,diminished
66061,81,120,120,452,1.0,4-28,diminished
66062,73,61,96,312,11.0,2-5,other
66063,69,52,280,160,11.0,2-5,other
66064,76,76,76,300,11.0,2-5,other
66065,73,56,88,144,11.0,2-5,other
66066,69,43,64,140,11.0,2-5,other
66067,66,48,52,144,11.0,2-5,other
66068,66,57,72,452,9.0,3-7B,other
66069,67,66,88,128,9.0,3-7B,other
66070,69,63,80,308,4.0,2-3,minor
66071,66,56,108,128,4.0,2-3,minor
66072,67,55,88,140,4.0,2-3,minor
66073,69,63,88,136,4.0,2-3,minor
66074,70,61,112,132,4.0,2-3,minor
66075,66,40,380,168,9.0,3-8A,major
66076,70,56,176,112,9.0,3-8A,major
66077,72,63,112,144,9.0,3-8A,major
66078,73,51,92,148,9.0,3-8A,major
66079,73,55,80,416,2.0,2-2,other
66080,74,67,56,120,2.0,2-2,other
66081,75,82,80,124,2.0,2-2,other
66082,72,72,72,360,4.0,2-5,other
66083,69,56,68,148,4.0,2-5,other
66084,66,35,88,152,4.0,2-5,other
66085,62,40,64,128,4.0,2-5,other
66086,65,49,352,464,1.0,3-9,other
66087,56,62,136,136,1.0,3-9,other
66088,62,51,108,888,5.0,4-20,major
66089,50,39,132,844,8.0,4-28,diminished
66090,43,67,128,944,4.0,5-35,minor
66091,43,60,436,200,4.0,5-35,minor
66092,43,80,136,700,4.0,3-11A,minor
66093,55,45,44,216,4.0,3-11A,minor
66094,53,50,72,568,1.0,5-27B,other
66095,54,54,104,52,1.0,5-27B,other
66096,56,52,52,76,1.0,5-27B,other
66097,58,54,32,36,1.0,5-27B,other
66098,60,72,64,72,1.0,5-27B,other
66099,61,54,80,64,1.0,5-27B,other
66100,63,57,32,68,1.0,5-27B,other
66101,65,69,60,72,1.0,5-27B,other
66102,66,40,72,72,1.0,5-27B,other
66103,68,45,32,68,1.0,5-27B,other
66104,70,45,32,32,1.0,5-27B,other
66105,72,56,36,68,1.0,5-27B,other
66106,75,56,24,132,6.0,3-9,other
66107,77,62,28,80,6.0,3-9,other
66108,78,39,56,76,6.0,3-9,other
66109,80,32,40,68,6.0,3-9,other
66110,82,35,40,48,6.0,3-9,other
66111,84,56,28,60,6.0,3-9,other
66112,90,45,64,308,10.0,4-20,other
66113,92,55,88,48,10.0,4-20,other
66114,93,56,88,96,10.0,4-20,other
66115,93,79,96,336,5.0,3-11B,major
66116,53,57,128,264,5.0,3-11B,major
66117,59,54,252,1000,8.0,4-28,diminished
66118,50,51,84,744,3.0,3-4A,major
66119,50,41,552,176,3.0,3-4A,major
66120,50,56,100,732,6.0,4-28,diminished
66121,50,43,432,192,6.0,4-28,diminished
66122,67,35,268,308,7.0,4-26,minor
66123,36,49,216,1024,1.0,2-3,other
66124,52,27,260,40,1.0,2-3,other
66125,64,37,108,476,1.0,3-10,other
66126,58,43,76,384,3.0,4-20,major
66127,48,31,60,32,3.0,4-20,major
66128,64,13,96,572,6.0,2-2,other
66129,64,27,176,796,1.0,3-8A,other
66130,69,74,200,544,2.0,2-2,other
66131,72,26,56,892,7.0,3-11A,minor
66132,63,53,200,668,5.0,1-1,other
66133,59,22,128,512,1.0,3-9,other
66134,85,59,140,424,3.0,4-16A,other
66135,83,48,120,416,3.0,3-4A,other
66136,80,35,44,272,11.0,1-1,other
66137,56,19,112,184,3.0,2-5,other
66138,47,38,700,792,1.0,3-7B,other
66139,70,56,96,616,3.0,3-11A,other
66140,41,42,500,624,9.0,4-16A,other
66141,66,57,128,2724,11.0,1-1,other
66142,46,35,56,256,11.0,1-1,other
66143,39,28,284,224,10.0,4-20,other
66144,46,42,696,252,10.0,4-20,other
66145,53,25,368,168,10.0,4-20,other
66146,46,46,164,688,10.0,3-11B,other
66147,39,38,44,512,10.0,2-4,other
66148,48,51,1040,436,0.0,2-3,minor
66149,53,39,32,132,0.0,2-3,minor
66150,56,35,52,84,0.0,2-3,minor
66151,58,49,40,68,0.0,2-3,minor
66152,60,55,56,76,0.0,2-3,minor
66153,63,57,68,84,0.0,2-3,minor
66154,65,68,52,108,0.0,2-3,minor
66155,68,63,80,68,0.0,2-3,minor
66156,70,60,28,88,0.0,2-3,minor
66157,72,58,36,84,0.0,2-3,minor
66158,75,58,32,76,0.0,2-3,minor
66159,77,63,40,108,0.0,2-3,minor
66160,80,50,88,80,0.0,2-3,minor
66161,82,49,96,92,0.0,2-3,minor
66162,84,48,96,132,0.0,2-3,minor
66163,39,59,112,1724,10.0,4-20,other
66164,39,61,116,196,10.0,4-20,other
66165,53,25,580,724,0.0,3-11B,other
66166,72,36,60,152,0.0,3-11B,other
66167,75,60,68,148,0.0,3-11B,other
66168,77,81,84,128,0.0,3-11B,other
66169,82,78,120,148,0.0,3-11B,other
66170,79,55,68,152,0.0,3-11B,other
66171,80,74,172,144,0.0,3-11B,other
66172,39,50,52,104,0.0,3-11B,other
66173,82,52,88,56,0.0,3-11B,other
66174,84,57,80,144,0.0,3-11B,other
66175,85,68,128,148,0.0,3-11B,other
66176,87,53,88,164,10.0,4-20,other
66177,89,57,40,144,10.0,4-20,other
66178,90,58,76,132,10.0,4-20,other
66179,92,56,52,152,10.0,4-20,other
66180,94,57,84,140,10.0,4-20,other
66181,96,71,80,152,10.0,4-20,other
66182,92,54,92,296,10.0,2-4,other
66183,90,66,380,140,10.0,2-4,other
66184,39,53,60,40,10.0,2-4,other
66185,89,48,80,336,10.0,2-4,other
66186,90,54,148,140,10.0,2-4,other
66187,87,50,68,572,0.0,4-26,other
66188,89,41,76,128,0.0,4-26,other
66189,87,50,152,636,0.0,4-26,other
66190,84,37,752,192,6.0,2-3,other
66191,54,24,368,760,10.0,3-11A,other
66192,39,46,1576,1088,10.0,3-11A,other
66193,63,48,2588,4736,5.0,4-11B,other
66194,68,41,2440,100,5.0,4-11B,other
66195,82,46,100,132,6.0,2-5,other
66196,75,74,416,0,,,
66197,74,48,1768,468,,,
66198,69,57,1648,56,,,
66199,67,57,1588,40,,,
66200,63,48,1476,108,,,
66201,62,31,528,48,,,
66202,50,44,104,456,,,
66203,26,41,340,632,,,
66204,68,54,316,1464,2.0,4-26,minor
66205,43,54,396,624,7.0,4-26,minor
66206,57,63,204,284,7.0,4-26,minor
66207,50,43,160,28,7.0,4-26,minor
66208,58,66,76,228,7.0,4-26,minor
66209,62,63,256,288,7.0,4-26,minor
66210,65,58,96,296,7.0,4-26,minor
66211,48,36,1144,408,4.0,2-6,other
66212,72,60,104,304,4.0,2-6,other
66213,74,63,268,340,4.0,2-6,other
66214,75,57,644,456,3.0,3-12,augmented
66215,60,36,872,36,3.0,3-12,augmented
66216,63,1,248,200,3.0,3-12,augmented
66217,77,76,168,792,3.0,3-12,augmented
66218,77,79,168,228,3.0,3-12,augmented
66219,72,63,348,1016,9.0,2-6,other
66220,69,14,204,32,9.0,2-6,other
66221,69,65,356,308,9.0,2-6,other
66222,60,40,484,436,10.0,3-11B,major
66223,72,52,184,192,10.0,3-11B,major
66224,77,51,68,576,2.0,2-3,minor
66225,79,38,88,156,2.0,2-3,minor
66226,84,52,60,388,3.0,2-5,other
66227,86,47,40,132,3.0,2-5,other
66228,91,39,148,724,5.0,3-9,other
66229,94,52,140,216,5.0,3-9,other
66230,96,64,192,208,5.0,3-9,other
66231,59,42,156,992,3.0,3-11A,other
66232,59,49,148,1300,1.0,4-26,other
66233,59,51,192,248,3.0,3-11A,other
66234,58,30,140,588,3.0,3-8B,other
66235,58,32,124,304,3.0,3-8B,other
66236,80,1,200,248,3.0,3-8B,other
66237,63,52,28,40,3.0,3-8B,other
66238,53,32,52,32,3.0,3-8B,other
66239,58,47,356,848,1.0,4-23,other
66240,82,33,84,1048,11.0,3-9,other
66241,80,39,36,344,1.0,4-26,other
66242,48,39,376,1208,8.0,3-6,other
66243,54,38,40,380,8.0,3-6,other
66244,80,66,776,368,8.0,3-6,other
66245,70,40,736,72,1.0,2-2,other
66246,68,55,88,376,1.0,2-2,other
66247,66,33,284,608,6.0,3-10,minor
66248,63,52,32,336,6.0,3-10,minor
66249,41,51,36,848,6.0,3-10,minor
66250,68,31,48,2372,10.0,1-1,other
66251,54,54,808,2480,2.0,3-3A,major
66252,43,49,452,1104,7.0,2-3,minor
66253,50,53,216,248,7.0,2-3,minor
66254,78,22,128,4080,0.0,3-8B,other
66255,78,33,60,208,2.0,4-29A,minor
66256,82,39,40,1160,0.0,3-9,other
66257,75,39,116,296,3.0,2-1,other
66258,39,42,312,348,4.0,1-1,other
66259,83,14,88,52,4.0,1-1,other
66260,91,57,144,608,5.0,2-5,other
66261,58,39,972,400,7.0,1-1,other
66262,83,31,1264,1020,3.0,2-4,other
66263,58,48,940,376,3.0,2-4,other
66264,54,42,232,804,8.0,2-2,other
66265,25,65,412,872,3.0,4-27A,other
66266,25,70,308,496,3.0,4-27A,other
66267,25,66,76,444,3.0,4-27A,other
66268,92,70,420,2344,10.0,2-4,other
66269,54,40,408,792,11.0,2-5,other
66270,58,36,616,372,3.0,2-4,other
66271,54,43,432,352,3.0,2-4,other
66272,90,63,352,1580,8.0,2-2,other
66273,51,49,1004,888,5.0,1-1,other
66274,87,56,772,432,5.0,1-1,other
66275,57,18,516,28,5.0,1-1,other
66276,62,27,172,452,5.0,1-1,other
66277,85,48,220,284,5.0,1-1,other
66278,87,58,96,552,5.0,1-1,other
66279,91,49,184,408,2.0,2-2,other
66280,60,50,884,496,5.0,1-1,other
66281,86,73,84,788,5.0,2-5,other
66282,87,67,72,136,5.0,2-5,other
66283,88,75,124,124,5.0,2-5,other
66284,89,64,120,132,5.0,2-5,other
66285,90,63,80,104,5.0,2-5,other
66286,92,72,68,252,9.0,2-2,other
66287,81,51,192,536,7.0,3-11B,major
66288,86,57,136,256,7.0,3-11B,major
66289,93,75,76,144,7.0,3-11B,major
66290,96,99,92,152,7.0,3-11B,major
66291,94,74,100,160,7.0,3-11B,major
66292,85,68,96,232,6.0,2-1,other
66293,82,28,32,276,0.0,2-5,other
66294,81,51,80,120,0.0,2-5,other
66295,79,60,112,408,0.0,2-5,other
66296,80,63,88,124,0.0,2-5,other
66297,81,46,76,92,0.0,2-5,other
66298,82,63,68,76,0.0,2-5,other
66299,83,35,36,104,0.0,2-5,other
66300,84,81,92,56,0.0,2-5,other
66301,82,63,64,152,1.0,4-23,minor
66302,78,54,152,248,1.0,4-23,minor
66303,81,63,116,172,1.0,4-23,minor
66304,76,48,104,164,1.0,4-23,minor
66305,78,65,168,156,1.0,4-23,minor
66306,73,58,144,148,1.0,4-23,minor
66307,69,58,224,168,1.0,4-23,minor
66308,59,41,164,336,9.0,3-11B,major
66309,59,58,128,2196,2.0,4-14B,major
66310,55,36,44,2124,6.0,5-22,other
66311,64,38,120,2216,6.0,5-35,minor
66312,58,42,200,1480,5.0,5-27A,major
66313,57,31,40,692,5.0,4-22A,major
66314,59,50,220,792,4.0,5-31B,major
66315,88,30,32,868,0.0,4-8,major
66316,64,49,152,856,4.0,4-26,minor
66317,62,52,360,332,4.0,4-26,minor
66318,61,70,140,2560,0.0,2-2,other
66319,63,70,64,136,0.0,2-2,other
66320,65,77,84,100,0.0,2-2,other
66321,66,68,108,92,0.0,2-2,other
66322,68,66,92,76,0.0,2-2,other
66323,70,61,24,80,0.0,2-2,other
66324,72,75,36,64,0.0,2-2,other
66325,73,66,76,68,0.0,2-2,other
66326,75,72,28,68,0.0,2-2,other
66327,77,81,64,76,0.0,2-2,other
66328,78,68,112,68,0.0,2-2,other
66329,80,58,76,48,0.0,2-2,other
66330,84,72,52,144,8.0,2-2,other
66331,85,63,44,68,8.0,2-2,other
66332,87,60,24,68,8.0,2-2,other
66333,89,62,64,80,8.0,2-2,other
66334,90,41,72,84,8.0,2-2,other
66335,94,56,24,88,8.0,2-2,other
66336,96,34,44,124,8.0,2-2,other
66337,97,50,52,56,8.0,2-2,other
66338,63,56,276,1156,10.0,4-16A,other
66339,50,25,308,768,2.0,4-26,minor
66340,63,31,144,536,2.0,4-26,minor
66341,61,21,32,32,2.0,4-26,minor
66342,55,54,116,208,7.0,3-11B,major
66343,55,46,140,272,9.0,3-11A,minor
66344,55,57,100,288,11.0,3-10,diminished
66345,50,48,608,1256,7.0,2-5,other
66346,54,48,460,700,6.0,4-28,diminished
66347,50,63,232,248,6.0,4-28,diminished
66348,63,56,88,172,6.0,4-28,diminished
66349,72,71,116,152,6.0,4-28,diminished
66350,50,53,168,352,7.0,2-3,minor
66351,66,22,156,224,10.0,3-4A,major
66352,56,49,220,156,10.0,3-4A,major
66353,58,56,192,196,10.0,3-4A,major
66354,48,55,312,248,4.0,2-3,minor
66355,55,51,96,240,4.0,2-3,minor
66356,63,61,72,192,4.0,2-3,minor
66357,73,61,232,1436,2.0,4-29A,minor
66358,60,37,680,36,2.0,4-29A,minor
66359,69,52,184,1240,9.0,3-10,diminished
66360,72,46,104,432,2.0,2-2,other
66361,53,54,100,160,2.0,2-2,other
66362,74,46,320,36,2.0,2-2,other
66363,77,43,92,672,2.0,2-2,other
66364,79,57,112,144,2.0,2-2,other
66365,82,60,88,152,3.0,2-5,other
66366,84,60,60,156,3.0,2-5,other
66367,60,44,708,212,7.0,3-7B,other
66368,89,52,84,352,7.0,3-7B,other
66369,94,62,92,232,7.0,3-7B,other
66370,96,67,192,236,7.0,3-7B,other
66371,59,31,72,880,1.0,4-26,other
66372,59,39,84,632,3.0,2-5,other
66373,53,46,116,448,10.0,2-1,other
66374,30,68,96,1024,1.0,1-1,other
66375,54,55,1112,1400,11.0,2-5,other
66376,61,35,816,1660,0.0,3-11B,other
66377,68,58,132,244,0.0,3-11B,other
66378,68,62,96,244,0.0,3-11B,other
66379,68,57,124,216,0.0,3-11B,other
66380,51,37,556,236,6.0,5-26A,minor
66381,66,57,132,220,6.0,5-26A,minor
66382,66,48,124,220,6.0,5-26A,minor
66383,63,30,124,36,6.0,5-26A,minor
66384,56,45,404,1432,5.0,4-14B,major
66385,77,66,1868,2244,3.0,3-11A,other
66386,65,42,48,528,10.0,2-4,other
66387,65,40,40,340,10.0,2-4,other
66388,51,47,2240,976,10.0,2-4,other
66389,60,29,1064,516,5.0,2-5,other
66390,65,16,108,996,8.0,1-1,other
66391,77,68,260,576,5.0,3-11A,other
66392,61,33,224,376,3.0,3-11A,other
66393,77,49,48,1896,10.0,2-4,other
66394,75,13,140,56,10.0,2-4,other
66395,60,26,292,208,3.0,3-7A,other
66396,56,45,1472,288,3.0,3-7A,other
66397,60,36,120,1216,0.0,2-4,other
66398,65,38,196,352,0.0,2-4,other
66399,77,41,536,332,0.0,2-4,other
66400,46,39,228,908,3.0,3-11A,other
66401,54,41,264,280,3.0,3-11A,other
66402,58,46,4928,296,3.0,3-11A,other
66403,60,45,560,228,3.0,3-11A,other
66404,63,43,192,596,3.0,3-11A,other
66405,65,49,144,220,3.0,3-11A,other
66406,66,47,56,172,3.0,3-11A,other
66407,72,51,128,192,3.0,3-11A,other
66408,73,43,44,184,3.0,3-11A,other
66409,77,50,124,176,3.0,3-11A,other
66410,78,42,36,168,3.0,3-11A,other
66411,84,37,104,192,3.0,3-11A,other
66412,85,47,28,160,3.0,3-11A,other
66413,89,28,88,196,3.0,3-11A,other
66414,90,45,36,128,3.0,3-11A,other
66415,96,33,36,212,3.0,3-11A,other
66416,97,42,92,164,3.0,3-11A,other
66417,101,45,156,184,3.0,3-11A,other
66418,102,55,160,180,3.0,3-11A,other
66419,59,95,45,0,,,
66420,51,70,51,365,6.0,4-26,minor
66421,52,66,444,55,6.0,4-26,minor
66422,48,64,120,58,6.0,4-26,minor
66423,57,64,71,64,6.0,4-26,minor
66424,48,56,159,60,6.0,4-26,minor
66425,57,48,61,60,6.0,4-26,minor
66426,54,62,139,178,9.0,3-8A,other
66427,57,77,37,59,9.0,3-8A,other
66428,59,71,8,57,9.0,3-8A,other
66429,41,82,199,59,9.0,3-8A,other
66430,47,75,299,309,11.0,4-22B,minor
66431,54,95,253,53,11.0,4-22B,minor
66432,55,102,63,57,11.0,4-22B,minor
66433,57,89,15,66,11.0,4-22B,minor
66434,62,78,69,63,11.0,4-22B,minor
66435,66,81,25,58,11.0,4-22B,minor
66436,67,76,47,49,11.0,4-22B,minor
66437,52,51,199,129,4.0,4-23,minor
66438,59,77,16,94,1.0,2-6,other
66439,64,82,52,89,1.0,2-6,other
66440,52,75,116,298,0.0,2-4,major
66441,60,71,87,61,0.0,2-4,major
66442,57,73,70,52,0.0,2-4,major
66443,81,79,20,128,5.0,4-24,augmented
66444,81,65,15,122,5.0,5-30B,other
66445,57,73,122,115,2.0,2-4,major
66446,50,58,11,112,2.0,2-4,major
66447,44,92,19,63,2.0,2-4,major
66448,54,84,115,64,2.0,2-4,major
66449,74,77,19,119,10.0,4-22A,major
66450,50,62,55,128,7.0,4-20,major
66451,50,60,60,112,11.0,4-23,minor
66452,50,60,124,123,11.0,4-23,minor
66453,43,73,31,59,11.0,4-23,minor
66454,43,73,12,60,11.0,4-23,minor
66455,67,63,50,128,10.0,5-33,augmented
66456,58,54,7,91,10.0,4-24,augmented
66457,72,107,31,82,10.0,4-24,augmented
66458,50,54,46,307,6.0,3-7A,minor
66459,52,76,121,114,9.0,3-10,diminished
66460,51,70,58,118,9.0,2-3,minor
66461,59,86,42,117,9.0,3-11A,minor
66462,54,71,56,125,11.0,1-1,other
66463,47,69,134,237,0.0,3-11B,major
66464,69,81,45,117,3.0,3-11B,other
66465,52,85,123,361,11.0,3-11A,minor
66466,51,93,63,116,11.0,2-3,minor
66467,50,58,72,127,11.0,2-3,minor
66468,59,55,45,58,11.0,2-3,minor
66469,50,73,175,60,11.0,2-3,minor
66470,55,80,63,363,1.0,2-6,other
66471,57,97,69,55,1.0,2-6,other
66472,55,88,89,60,1.0,2-6,other
66473,59,76,106,62,1.0,2-6,other
66474,55,57,110,60,1.0,2-6,other
66475,59,59,103,61,1.0,2-6,other
66476,49,57,10,54,1.0,2-6,other
66477,30,73,4,119,10.0,2-4,other
66478,52,63,277,490,6.0,2-3,minor
66479,57,63,40,56,6.0,2-3,minor
66480,59,72,24,37,6.0,2-3,minor
66481,60,68,12,27,6.0,2-3,minor
66482,62,79,22,28,6.0,2-3,minor
66483,54,52,319,325,11.0,2-5,other
66484,59,58,18,156,6.0,5-29B,diminished
66485,64,93,18,30,6.0,5-29B,diminished
66486,66,101,40,55,6.0,5-29B,diminished
66487,67,98,45,60,6.0,5-29B,diminished
66488,71,92,19,53,6.0,5-29B,diminished
66489,49,70,11,133,6.0,3-11A,minor
66490,50,79,40,64,6.0,3-11A,minor
66491,57,55,86,177,9.0,2-5,other
66492,66,80,50,59,9.0,2-5,other
66493,66,71,52,59,9.0,2-5,other
66494,54,70,86,120,3.0,2-4,other
66495,57,81,38,57,3.0,2-4,other
66496,63,80,17,56,3.0,2-4,other
66497,47,97,109,369,11.0,4-22B,minor
66498,54,104,54,55,11.0,4-22B,minor
66499,55,105,54,60,11.0,4-22B,minor
66500,52,78,65,122,2.0,3-11B,major
66501,59,69,11,369,6.0,2-2,other
66502,64,97,46,49,6.0,2-2,other
66503,59,91,53,305,0.0,2-4,major
66504,56,83,62,117,9.0,3-11A,minor
66505,60,60,19,121,0.0,3-11B,major
66506,39,96,36,117,5.0,5-26B,other
66507,38,100,141,60,5.0,5-26B,other
66508,50,95,25,180,2.0,3-11B,major
66509,48,88,176,62,2.0,3-11B,major
66510,53,79,53,299,11.0,3-7A,minor
66511,57,90,44,58,11.0,3-7A,minor
66512,59,100,146,55,11.0,3-7A,minor
66513,89,67,29,281,4.0,2-2,other
66514,56,52,388,88,4.0,2-2,other
66515,52,65,293,478,9.0,2-3,minor
66516,45,76,112,240,9.0,2-3,minor
66517,36,65,6,240,0.0,4-26,minor
66518,72,64,90,121,0.0,5-27B,minor
66519,69,56,22,255,11.0,2-3,minor
66520,56,73,44,110,7.0,3-11B,major
66521,55,73,94,47,7.0,3-11B,major
66522,69,70,53,61,7.0,3-11B,major
66523,41,67,137,125,3.0,4-24,augmented
66524,57,75,66,59,3.0,4-24,augmented
66525,62,71,20,57,3.0,4-24,augmented
66526,40,68,56,67,3.0,4-24,augmented
66527,47,63,124,59,3.0,4-24,augmented
66528,56,62,67,62,3.0,4-24,augmented
66529,56,69,29,154,9.0,4-23,minor
66530,52,71,50,271,9.0,3-8A,major
66531,57,58,42,61,9.0,3-8A,major
66532,61,69,15,52,9.0,3-8A,major
66533,39,95,23,238,5.0,5-30B,other
66534,38,106,139,63,5.0,5-30B,other
66535,71,90,16,178,9.0,2-3,minor
66536,58,63,26,94,0.0,5-27A,major
66537,56,60,37,57,9.0,3-11A,minor
66538,66,62,39,110,0.0,3-11B,major
66539,43,81,100,40,0.0,3-11B,major
66540,50,53,60,60,0.0,3-11B,major
66541,50,51,36,122,11.0,4-23,minor
66542,50,66,15,144,11.0,4-23,minor
66543,50,57,7,97,11.0,4-23,minor
66544,43,59,50,120,10.0,5-26B,augmented
66545,50,68,14,55,10.0,5-26B,augmented
66546,52,85,114,62,10.0,5-26B,augmented
66547,58,71,97,63,10.0,5-26B,augmented
66548,52,64,67,58,10.0,5-26B,augmented
66549,58,55,8,59,10.0,5-26B,augmented
66550,52,65,65,483,2.0,1-1,other
66551,43,56,19,57,2.0,1-1,other
66552,64,96,17,330,4.0,2-5,other
66553,66,105,53,26,4.0,2-5,other
66554,71,90,35,123,9.0,2-2,other
66555,52,48,52,122,10.0,2-4,other
66556,54,95,97,119,9.0,3-11B,major
66557,53,76,35,120,9.0,2-4,major
66558,57,43,69,245,11.0,2-2,other
66559,57,70,62,116,6.0,3-8B,other
66560,47,90,36,117,3.0,3-11B,other
66561,47,84,71,59,3.0,3-11B,other
66562,47,70,229,169,4.0,4-26,minor
66563,54,76,29,36,4.0,4-26,minor
66564,54,85,42,96,7.0,4-20,major
66565,43,91,43,124,4.0,4-26,minor
66566,43,89,46,55,4.0,4-26,minor
66567,44,84,138,57,4.0,4-26,minor
66568,56,66,29,63,4.0,4-26,minor
66569,59,86,8,60,4.0,4-26,minor
66570,63,91,56,123,4.0,3-3A,major
66571,59,59,56,120,8.0,3-10,other
66572,45,62,58,244,9.0,4-26,minor
66573,52,68,115,59,9.0,4-26,minor
66574,59,105,50,60,9.0,4-26,minor
66575,60,85,10,57,9.0,4-26,minor
66576,45,71,7,286,9.0,5-35,minor
66577,38,85,18,42,9.0,5-35,minor
66578,38,70,46,33,9.0,5-35,minor
66579,60,60,13,56,9.0,5-35,minor
66580,54,81,132,121,8.0,4-27B,other
66581,86,94,13,122,10.0,4-22A,major
66582,50,59,98,122,11.0,3-7A,minor
66583,50,71,51,117,11.0,4-26,minor
66584,37,56,15,183,4.0,3-7B,other
66585,52,83,132,184,10.0,5-26B,augmented
66586,47,84,189,1137,11.0,2-5,other
66587,47,63,108,293,4.0,2-3,minor
66588,54,69,48,62,4.0,2-3,minor
66589,54,62,62,123,7.0,4-20,major
66590,52,63,46,116,7.0,4-20,major
66591,51,63,43,62,7.0,4-20,major
66592,50,67,107,121,7.0,3-11B,major
66593,50,81,149,176,11.0,2-3,minor
66594,49,71,13,604,4.0,3-11A,minor
66595,49,72,12,179,4.0,3-8A,other
66596,56,71,56,242,9.0,3-11B,major
66597,61,46,15,120,1.0,2-6,other
66598,42,54,310,58,1.0,2-6,other
66599,59,116,34,599,9.0,2-6,other
66600,58,61,22,35,9.0,2-6,other
66601,59,79,43,26,9.0,2-6,other
66602,64,89,35,63,9.0,2-6,other
66603,67,76,19,155,11.0,2-5,other
66604,71,46,20,30,11.0,2-5,other
66605,74,96,18,29,11.0,2-5,other
66606,51,63,45,324,6.0,4-26,minor
66607,66,93,30,117,9.0,2-5,other
66608,63,73,19,210,2.0,2-5,other
66609,65,62,25,29,2.0,2-5,other
66610,68,51,19,68,6.0,2-3,other
66611,74,90,21,116,11.0,1-1,other
66612,79,104,18,63,6.0,2-3,minor
66613,81,111,18,33,6.0,2-3,minor
66614,59,58,128,266,2.0,3-11B,major
66615,52,66,16,120,6.0,2-2,other
66616,46,40,16,58,6.0,2-2,other
66617,45,65,164,57,6.0,2-2,other
66618,45,90,71,180,1.0,4-27A,diminished
66619,60,71,8,63,1.0,4-27A,diminished
66620,64,104,74,40,1.0,4-27A,diminished
66621,63,88,34,42,1.0,4-27A,diminished
66622,45,71,122,215,0.0,3-11B,major
66623,57,77,9,123,0.0,2-4,major
66624,57,70,199,338,2.0,2-5,other
66625,50,79,22,135,2.0,2-4,major
66626,62,58,26,398,5.0,4-16A,major
66627,62,72,73,215,5.0,4-16A,major
66628,65,60,56,54,5.0,4-16A,major
66629,52,82,209,175,8.0,4-28,diminished
66630,52,50,55,487,9.0,3-7A,minor
66631,58,61,37,99,0.0,3-4A,major
66632,45,75,18,135,9.0,2-3,minor
66633,55,60,53,248,0.0,5-27B,minor
66634,71,75,32,350,9.0,4-27A,diminished
66635,70,70,18,35,9.0,4-27A,diminished
66636,57,92,79,90,11.0,2-3,minor
66637,55,81,52,120,7.0,2-5,other
66638,41,69,53,120,3.0,4-24,augmented
66639,63,53,52,61,3.0,4-24,augmented
66640,71,60,38,59,3.0,4-24,augmented
66641,52,61,107,119,0.0,4-19B,augmented
66642,64,54,16,58,0.0,4-19B,augmented
66643,45,54,93,423,9.0,3-7B,other
66644,61,67,40,119,1.0,2-3,minor
66645,38,92,47,307,9.0,1-1,other
66646,45,80,123,58,9.0,1-1,other
66647,60,92,15,117,6.0,4-27A,diminished
66648,60,72,11,29,6.0,4-27A,diminished
66649,66,57,7,214,0.0,3-11B,major
66650,50,68,65,355,4.0,2-2,other
66651,62,82,25,61,4.0,2-2,other
66652,64,78,23,32,4.0,2-2,other
66653,66,93,20,30,4.0,2-2,other
66654,67,61,19,28,4.0,2-2,other
66655,43,49,101,92,10.0,6-34A,augmented
66656,43,56,226,118,4.0,5-26A,diminished
66657,62,78,52,219,4.0,3-8B,other
66658,64,69,30,41,4.0,3-8B,other
66659,50,48,167,101,7.0,4-20,major
66660,62,54,25,603,0.0,4-27B,major
66661,62,58,33,237,4.0,2-6,other
66662,50,64,59,120,4.0,5-35,minor
66663,52,59,65,61,4.0,5-35,minor
66664,54,61,130,58,4.0,5-35,minor
66665,57,50,61,62,4.0,5-35,minor
66666,62,58,62,60,4.0,5-35,minor
66667,66,41,121,60,4.0,5-35,minor
66668,79,58,40,0,,,
66669,88,66,144,176,3.0,2-4,major
66670,88,67,88,840,3.0,2-4,major
66671,84,65,64,56,3.0,2-4,major
66672,79,74,64,80,3.0,2-4,major
66673,76,40,40,696,0.0,2-3,minor
66674,55,90,88,96,0.0,2-3,minor
66675,55,92,104,384,0.0,2-3,minor
66676,55,99,72,400,0.0,2-3,minor
66677,43,80,1880,144,0.0,2-3,minor
66678,67,76,56,608,0.0,2-3,minor
66679,76,62,32,200,3.0,2-4,major
66680,67,71,48,584,0.0,2-4,major
66681,67,24,40,1920,11.0,1-1,other
66682,52,22,416,1648,7.0,3-11B,major
66683,79,88,184,776,5.0,4-16A,other
66684,79,84,144,376,6.0,2-5,other
66685,79,66,232,368,6.0,4-18A,diminished
66686,67,66,32,1688,4.0,3-5B,other
66687,72,85,96,976,11.0,2-6,other
66688,67,74,48,128,11.0,2-6,other
66689,67,84,56,712,7.0,3-11B,major
66690,72,68,264,384,9.0,5-29B,diminished
66691,67,68,240,336,2.0,2-2,other
66692,72,76,80,760,7.0,3-11B,major
66693,91,30,216,408,10.0,6-20,other
66694,79,31,104,112,10.0,6-20,other
66695,87,32,24,1304,0.0,4-20,other
66696,87,25,56,376,0.0,4-20,other
66697,58,19,40,40,0.0,4-20,other
66698,77,46,32,536,1.0,5-28B,diminished
66699,76,62,32,48,1.0,5-28B,diminished
66700,54,46,120,880,7.0,2-1,other
66701,64,14,104,256,7.0,2-1,other
66702,67,71,48,80,7.0,2-1,other
66703,67,70,248,240,11.0,3-7A,minor
66704,79,59,96,2320,5.0,3-8B,other
66705,80,52,184,64,5.0,3-8B,other
66706,81,34,40,96,5.0,3-8B,other
66707,81,61,152,200,1.0,2-3,other
66708,80,46,104,112,1.0,2-3,other
66709,79,62,80,88,1.0,2-3,other
66710,53,31,216,160,0.0,4-23,minor
66711,75,69,176,72,0.0,4-23,minor
66712,60,24,48,160,0.0,4-23,minor
66713,76,84,176,888,0.0,3-7A,minor
66714,77,65,160,88,0.0,3-7A,minor
66715,78,38,96,80,0.0,3-7A,minor
66716,79,69,104,80,0.0,3-7A,minor
66717,78,49,104,88,0.0,3-7A,minor
66718,77,62,104,56,0.0,3-7A,minor
66719,76,57,112,112,0.0,3-7A,minor
66720,75,51,32,96,0.0,3-7A,minor
66721,56,52,336,816,3.0,3-8B,other
66722,73,28,144,112,3.0,3-8B,other
66723,74,28,32,48,3.0,3-8B,other
66724,75,55,112,96,3.0,3-8B,other
66725,74,56,88,56,3.0,3-8B,other
66726,73,55,96,64,3.0,3-8B,other
66727,71,58,64,72,3.0,3-8B,other
66728,51,31,176,104,7.0,3-9,other
66729,72,74,80,272,7.0,3-9,other
66730,67,32,232,160,7.0,3-9,other
66731,67,65,64,320,7.0,3-9,other
66732,60,33,120,1120,9.0,2-3,minor
66733,72,48,88,40,9.0,2-3,minor
66734,73,53,176,64,9.0,2-3,minor
66735,74,65,96,64,9.0,2-3,minor
66736,75,71,152,104,9.0,2-3,minor
66737,74,62,104,72,9.0,2-3,minor
66738,73,61,120,72,9.0,2-3,minor
66739,72,60,64,120,9.0,2-3,minor
66740,65,83,64,1280,10.0,4-16A,other
66741,70,57,72,128,10.0,4-16A,other
66742,74,72,24,112,10.0,4-16A,other
66743,77,74,88,96,10.0,4-16A,other
66744,58,21,48,88,10.0,4-16A,other
66745,82,65,72,32,10.0,4-16A,other
66746,89,74,72,192,10.0,4-16A,other
66747,94,61,80,96,10.0,4-16A,other
66748,98,88,152,96,10.0,4-16A,other
66749,95,73,96,120,4.0,3-5B,other
66750,79,77,64,576,7.0,2-1,other
66751,83,95,152,712,4.0,3-5B,other
66752,83,31,144,248,9.0,4-22B,minor
66753,79,60,192,320,9.0,4-22B,minor
66754,57,73,664,256,9.0,4-22B,minor
66755,63,26,280,192,9.0,4-22B,minor
66756,67,10,184,40,9.0,4-22B,minor
66757,55,78,672,560,3.0,2-4,major
66758,62,24,128,480,3.0,2-4,major
66759,64,42,200,56,3.0,2-4,major
66760,55,76,672,208,3.0,2-4,major
66761,88,61,112,976,5.0,2-4,major
66762,64,35,40,216,5.0,3-11B,major
66763,91,89,136,144,5.0,3-11B,major
66764,57,39,200,240,0.0,2-4,major
66765,84,50,184,144,0.0,2-4,major
66766,64,33,208,240,5.0,3-11B,major
66767,77,9,144,176,5.0,3-11B,major
66768,80,56,88,344,0.0,4-8,major
66769,79,62,104,856,11.0,4-13B,diminished
66770,72,68,64,112,5.0,2-1,other
66771,52,41,376,464,9.0,5-12,diminished
66772,64,57,136,128,9.0,5-12,diminished
66773,66,59,56,336,10.0,3-11B,major
66774,69,62,88,120,10.0,3-11B,major
66775,71,68,72,304,4.0,2-2,other
66776,72,63,104,88,4.0,2-2,other
66777,74,53,40,96,4.0,2-2,other
66778,63,46,80,32,4.0,2-2,other
66779,75,51,24,32,4.0,2-2,other
66780,79,45,88,112,4.0,2-2,other
66781,83,60,80,80,4.0,2-2,other
66782,86,91,152,104,4.0,2-2,other
66783,84,81,128,128,4.0,2-2,other
66784,83,87,56,272,4.0,2-2,other
66785,82,49,128,552,4.0,3-5B,other
66786,86,90,160,384,3.0,3-8B,other
66787,86,68,80,456,10.0,3-4A,major
66788,89,60,88,104,10.0,3-4A,major
66789,94,71,120,208,10.0,2-1,other
66790,90,68,64,136,10.0,2-1,other
66791,93,80,88,104,10.0,2-1,other
66792,90,52,24,136,10.0,2-1,other
66793,91,87,120,88,10.0,2-1,other
66794,90,70,64,664,2.0,2-5,other
66795,91,64,104,80,2.0,2-5,other
66796,90,57,112,72,2.0,2-5,other
66797,88,52,144,240,2.0,2-5,other
66798,85,56,88,392,4.0,2-2,other
66799,87,60,48,96,4.0,2-2,other
66800,88,58,56,48,4.0,2-2,other
66801,87,34,120,32,4.0,2-2,other
66802,84,66,80,184,4.0,2-6,other
66803,82,54,128,96,4.0,2-6,other
66804,57,40,88,216,0.0,2-5,other
66805,84,80,112,48,0.0,2-5,other
66806,81,71,80,168,0.0,2-5,other
66807,57,37,80,168,0.0,2-5,other
66808,79,68,232,144,4.0,2-2,other
66809,57,33,56,224,0.0,2-4,major
66810,72,24,32,80,0.0,2-4,major
66811,76,89,224,96,0.0,2-4,major
66812,69,71,64,304,9.0,3-11A,minor
66813,72,79,160,120,9.0,3-11A,minor
66814,68,75,88,264,0.0,3-12,augmented
66815,72,74,176,120,0.0,3-12,augmented
66816,65,71,72,264,0.0,3-12,augmented
66817,68,73,136,112,0.0,3-12,augmented
66818,62,73,104,256,8.0,2-3,other
66819,65,75,88,136,8.0,2-3,other
66820,58,40,32,2472,0.0,5-25B,other
66821,88,56,32,1536,3.0,4-29A,other
66822,88,63,24,1640,1.0,4-21,other
66823,64,58,64,488,3.0,2-4,major
66824,67,28,32,592,2.0,3-11A,minor
66825,52,39,2348,54,2.0,3-11A,minor
66826,55,67,68,1028,2.0,3-11A,minor
66827,57,46,70,158,2.0,3-11A,minor
66828,60,74,50,244,2.0,3-11A,minor
66829,63,70,84,200,2.0,3-11A,minor
66830,64,87,70,202,2.0,3-11A,minor
66831,65,80,104,156,2.0,3-11A,minor
66832,63,72,88,204,2.0,3-11A,minor
66833,64,71,144,138,2.0,3-11A,minor
66834,60,68,76,222,2.0,3-11A,minor
66835,55,37,178,146,2.0,3-11A,minor
66836,53,57,104,214,2.0,3-11A,minor
66837,43,31,36,26,2.0,3-11A,minor
66838,52,46,676,120,2.0,3-11A,minor
66839,36,44,40,270,2.0,3-11A,minor
66840,50,31,26,380,2.0,3-11A,minor
66841,64,76,210,98,2.0,3-11A,minor
66842,57,34,204,410,2.0,2-2,other
66843,55,60,104,246,2.0,2-2,other
66844,52,44,190,186,2.0,2-2,other
66845,40,60,64,200,2.0,2-2,other
66846,77,91,246,884,7.0,4-27A,minor
66847,72,43,76,530,5.0,4-20,major
66848,69,36,74,132,5.0,4-20,major
66849,65,50,274,114,5.0,4-20,major
66850,64,51,822,268,5.0,4-20,major
66851,72,91,134,1302,4.0,3-5B,other
66852,74,44,98,174,4.0,3-5B,other
66853,72,29,86,66,4.0,3-5B,other
66854,71,51,76,88,4.0,3-5B,other
66855,72,73,464,108,4.0,3-5B,other
66856,74,56,88,474,3.0,3-8B,other
66857,72,24,76,74,3.0,3-8B,other
66858,71,56,60,80,3.0,3-8B,other
66859,72,76,218,96,3.0,3-8B,other
66860,74,53,74,238,3.0,3-8B,other
66861,71,63,262,120,0.0,2-2,other
66862,72,62,102,268,0.0,2-2,other
66863,74,64,184,260,0.0,2-2,other
66864,67,57,208,226,3.0,2-1,other
66865,67,58,50,272,3.0,2-1,other
66866,72,35,42,510,7.0,3-11B,major
66867,91,35,202,438,7.0,5-38A,minor
66868,79,34,170,40,7.0,5-38A,minor
66869,60,30,298,1332,0.0,4-23,minor
66870,94,85,72,306,8.0,2-2,other
66871,94,81,156,188,0.0,2-2,other
66872,93,64,74,130,0.0,2-2,other
66873,92,49,94,48,0.0,2-2,other
66874,91,54,68,90,0.0,2-2,other
66875,87,69,98,292,4.0,3-5B,other
66876,86,74,82,156,4.0,3-5B,other
66877,89,62,74,144,4.0,3-5B,other
66878,87,69,90,202,4.0,3-5B,other
66879,81,29,112,182,4.0,3-5B,other
66880,80,51,128,360,10.0,4-18A,major
66881,77,71,258,358,2.0,2-5,other
66882,57,28,44,292,3.0,2-1,other
66883,75,76,78,94,3.0,2-1,other
66884,74,36,48,40,3.0,2-1,other
66885,75,46,60,574,2.0,3-7A,minor
66886,82,46,210,648,5.0,4-20,other
66887,73,38,44,194,5.0,2-4,other
66888,59,19,186,3518,4.0,3-2A,minor
66889,75,42,198,410,5.0,2-2,other
66890,71,26,54,240,5.0,2-2,other
66891,75,68,224,118,0.0,2-5,other
66892,74,68,222,376,0.0,2-1,other
66893,72,34,96,262,0.0,2-1,other
66894,46,32,712,100,0.0,2-1,other
66895,67,44,314,406,7.0,1-1,other
66896,51,36,86,258,7.0,1-1,other
66897,67,40,30,396,3.0,2-4,major
66898,75,43,124,308,2.0,2-5,other
66899,74,68,74,58,2.0,2-5,other
66900,71,65,122,174,0.0,2-5,other
66901,74,76,84,148,0.0,2-5,other
66902,67,43,92,262,0.0,3-11A,minor
66903,63,57,114,206,0.0,3-11A,minor
66904,60,30,870,154,0.0,3-11A,minor
66905,44,51,52,580,8.0,2-2,other
66906,62,62,84,296,8.0,2-2,other
66907,63,52,90,114,8.0,2-2,other
66908,65,54,68,134,8.0,2-2,other
66909,66,51,86,116,8.0,2-2,other
66910,70,62,84,384,6.0,3-8A,other
66911,53,29,74,150,4.0,2-5,other
66912,73,43,80,98,4.0,2-5,other
66913,74,64,64,124,4.0,2-5,other
66914,43,54,52,50,4.0,2-5,other
66915,75,56,78,72,4.0,2-5,other
66916,76,50,52,136,4.0,2-5,other
66917,77,67,80,116,4.0,2-5,other
66918,79,53,62,256,4.0,4-6,other
66919,80,52,64,124,4.0,4-6,other
66920,81,71,70,124,4.0,4-6,other
66921,83,61,54,254,10.0,3-4A,major
66922,83,50,66,254,2.0,3-9,other
66923,84,80,72,114,2.0,3-9,other
66924,81,63,86,130,2.0,3-9,other
66925,63,19,162,190,5.0,2-4,major
66926,77,73,76,224,5.0,2-4,major
66927,75,57,180,148,9.0,2-6,other
66928,75,59,102,238,9.0,2-6,other
66929,74,58,66,394,4.0,4-26,minor
66930,71,51,158,128,11.0,2-3,minor
66931,71,48,84,250,11.0,2-3,minor
66932,72,40,126,384,4.0,2-3,minor
66933,69,55,196,134,1.0,4-28,diminished
66934,69,43,72,278,1.0,4-28,diminished
66935,65,50,48,374,2.0,4-26,minor
66936,69,82,176,112,2.0,4-26,minor
66937,69,82,84,258,2.0,4-26,minor
66938,53,41,444,36,2.0,4-26,minor
66939,65,47,164,124,2.0,4-26,minor
66940,57,19,104,414,2.0,2-3,minor
66941,43,26,80,358,5.0,2-5,other
66942,57,48,214,350,2.0,2-2,other
66943,43,49,82,234,2.0,2-2,other
66944,59,47,176,532,8.0,4-27B,other
66945,47,53,82,250,8.0,4-27B,other
66946,71,70,62,672,9.0,4-23,minor
66947,74,85,90,116,9.0,4-23,minor
66948,71,39,194,152,3.0,4-16A,major
66949,71,60,64,334,3.0,4-16A,major
66950,74,55,76,116,3.0,4-16A,major
66951,71,61,86,416,4.0,4-26,minor
66952,59,22,240,32,4.0,4-26,minor
66953,74,78,102,92,4.0,4-26,minor
66954,71,69,164,138,4.0,4-26,minor
66955,75,61,112,354,11.0,2-6,other
66956,71,68,124,142,11.0,2-6,other
66957,71,71,108,248,3.0,2-4,other
66958,75,48,26,184,3.0,2-4,other
66959,58,44,110,452,10.0,3-4A,major
66960,62,41,102,722,10.0,3-4A,major
66961,58,38,184,26,10.0,3-4A,major
66962,73,60,92,126,10.0,3-4A,major
66963,76,68,98,128,10.0,3-4A,major
66964,52,56,496,182,10.0,2-4,major
66965,58,25,68,372,10.0,2-4,major
66966,74,42,32,40,10.0,2-4,major
66967,77,64,94,470,1.0,4-12B,minor
66968,74,48,64,108,1.0,4-12B,minor
66969,75,73,88,122,1.0,4-12B,minor
66970,76,38,72,130,1.0,3-10,minor
66971,77,57,88,108,1.0,3-10,minor
66972,78,64,74,118,1.0,3-10,minor
66973,79,40,88,104,1.0,3-10,minor
66974,53,24,350,62,9.0,3-11A,minor
66975,80,38,90,28,9.0,3-11A,minor
66976,81,36,40,128,9.0,3-11A,minor
66977,57,35,94,538,9.0,3-11A,minor
66978,79,25,54,1888,8.0,4-5B,other
66979,62,36,44,124,8.0,3-2B,other
66980,89,54,74,490,4.0,3-7A,minor
66981,88,54,96,110,4.0,3-7A,minor
66982,84,49,68,108,4.0,3-7A,minor
66983,79,33,48,114,4.0,3-7A,minor
66984,77,36,146,106,4.0,3-7A,minor
66985,76,56,74,230,4.0,3-7A,minor
66986,76,66,104,166,4.0,3-7A,minor
66987,76,63,64,468,4.0,4-15B,other
66988,76,51,140,142,4.0,4-15B,other
66989,59,34,406,808,6.0,3-8B,other
66990,91,42,36,1290,6.0,6-33A,minor
66991,65,34,26,194,8.0,5-25B,other
66992,60,34,38,1042,3.0,4-14A,other
66993,60,45,78,128,3.0,3-7A,other
66994,50,24,112,1022,7.0,1-1,other
66995,50,45,594,324,7.0,1-1,other
66996,55,46,68,126,7.0,1-1,other
66997,57,48,60,136,7.0,1-1,other
66998,57,58,58,564,0.0,2-5,other
66999,60,91,306,118,0.0,2-5,other
67000,50,34,94,216,0.0,2-5,other
67001,55,26,42,140,0.0,2-5,other
67002,57,22,48,138,0.0,2-5,other
67003,60,90,284,100,0.0,2-5,other
67004,50,34,148,34,0.0,2-5,other
67005,56,72,76,268,0.0,2-5,other
67006,50,10,122,92,0.0,2-5,other
67007,58,60,80,30,0.0,2-5,other
67008,61,77,318,124,0.0,2-5,other
67009,50,45,60,192,0.0,2-5,other
67010,57,32,74,142,0.0,2-5,other
67011,59,47,100,114,0.0,2-5,other
67012,59,37,128,396,2.0,2-2,other
67013,52,26,340,176,0.0,2-5,other
67014,64,83,576,92,0.0,2-5,other
67015,62,46,92,602,0.0,2-5,other
67016,55,34,30,48,0.0,2-5,other
67017,63,56,58,60,0.0,2-5,other
67018,67,46,78,122,0.0,2-5,other
67019,71,41,84,112,0.0,2-5,other
67020,74,82,82,112,0.0,2-5,other
67021,71,52,46,110,0.0,2-5,other
67022,72,60,92,90,0.0,2-5,other
67023,67,66,54,124,0.0,2-5,other
67024,67,63,54,208,0.0,2-5,other
67025,67,64,52,260,0.0,2-5,other
67026,69,24,42,272,1.0,3-10,diminished
67027,67,36,68,50,1.0,3-10,diminished
67028,66,52,62,74,1.0,3-10,diminished
67029,67,63,1248,102,1.0,3-10,diminished
67030,64,54,72,1246,9.0,3-11A,minor
67031,65,66,74,126,9.0,3-11A,minor
67032,67,85,644,126,9.0,3-11A,minor
67033,57,60,24,638,4.0,2-5,other
67034,60,38,44,126,4.0,2-5,other
67035,62,63,82,128,4.0,2-5,other
67036,64,82,244,126,4.0,2-5,other
67037,55,22,46,366,7.0,2-2,other
67038,50,28,34,84,7.0,2-2,other
67039,55,39,200,566,9.0,2-3,minor
67040,43,39,32,172,9.0,2-3,minor
67041,55,55,232,120,9.0,2-3,minor
67042,41,53,92,368,9.0,2-3,minor
67043,79,81,74,1166,4.0,4-26,minor
67044,53,27,32,1446,0.0,4-22A,other
67045,80,77,250,1142,4.0,3-5B,other
67046,83,59,132,956,1.0,5-34,other
67047,74,40,82,726,2.0,2-2,other
67048,86,48,54,106,2.0,2-2,other
67049,74,46,90,64,2.0,2-2,other
67050,86,53,66,104,2.0,2-2,other
67051,74,31,96,64,2.0,2-2,other
67052,86,44,64,114,2.0,2-2,other
67053,74,44,104,68,2.0,2-2,other
67054,74,40,90,192,3.0,4-19B,augmented
67055,86,33,70,90,3.0,4-19B,augmented
67056,74,39,88,78,3.0,4-19B,augmented
67057,86,47,76,88,3.0,4-19B,augmented
67058,74,33,92,76,3.0,4-19B,augmented
67059,86,53,90,86,3.0,4-19B,augmented
67060,74,47,104,94,3.0,4-19B,augmented
67061,86,50,88,98,3.0,4-19B,augmented
67062,74,51,230,108,5.0,4-20,other
67063,87,48,68,472,1.0,2-2,other
67064,73,44,86,58,1.0,2-2,other
67065,87,68,90,92,1.0,2-2,other
67066,73,38,104,84,1.0,2-2,other
67067,73,38,88,190,1.0,2-2,other
67068,87,55,94,82,1.0,2-2,other
67069,73,34,102,96,1.0,2-2,other
67070,87,57,70,106,1.0,3-10,diminished
67071,73,35,114,78,1.0,3-10,diminished
67072,87,40,132,106,1.0,3-10,diminished
67073,73,30,122,82,1.0,3-10,diminished
67074,82,72,202,566,10.0,5-23B,major
67075,75,39,202,422,3.0,3-11B,major
67076,72,37,84,202,3.0,3-11B,major
67077,70,46,174,124,3.0,3-11B,major
67078,70,37,110,436,0.0,2-5,other
67079,68,46,84,50,0.0,2-5,other
67080,67,62,66,84,0.0,2-5,other
67081,63,39,108,244,5.0,2-1,other
67082,62,49,82,124,5.0,2-1,other
67083,65,74,98,106,5.0,2-1,other
67084,62,45,50,122,5.0,2-1,other
67085,53,22,28,26,5.0,2-1,other
67086,63,57,130,74,5.0,2-1,other
67087,59,68,226,142,5.0,2-1,other
67088,58,37,126,228,7.0,2-2,other
67089,56,67,80,206,7.0,2-2,other
67090,55,59,142,142,7.0,2-2,other
67091,56,25,88,202,7.0,2-2,other
67092,53,44,244,118,7.0,1-1,other
67093,50,48,258,380,3.0,2-4,major
67094,51,44,94,256,3.0,2-4,major
67095,53,42,214,128,3.0,2-4,major
67096,48,55,76,252,3.0,2-4,major
67097,45,58,68,362,3.0,2-4,major
67098,55,55,38,418,3.0,2-4,major
67099,59,68,56,146,3.0,2-4,major
67100,60,67,66,130,3.0,2-4,major
67101,67,74,48,136,3.0,2-4,major
67102,71,68,36,134,3.0,2-4,major
67103,72,54,70,114,3.0,2-4,major
67104,79,70,66,132,3.0,2-4,major
67105,60,20,42,130,6.0,2-6,other
67106,72,31,54,726,5.0,3-5B,other
67107,77,64,96,112,5.0,3-5B,other
67108,84,73,64,256,10.0,4-16A,other
67109,89,74,78,116,10.0,4-16A,other
67110,58,21,62,160,10.0,2-4,other
67111,93,33,82,1056,4.0,4-18A,major
67112,81,51,76,34,4.0,4-18A,major
67113,88,35,26,994,4.0,4-26,minor
67114,91,33,100,466,3.0,7-21B,other
67115,78,30,26,1442,5.0,5-20B,other
67116,81,36,36,118,5.0,5-20B,other
67117,63,49,82,750,5.0,4-20,major
67118,62,33,122,112,5.0,4-20,major
67119,61,48,142,106,2.0,3-11A,minor
67120,57,40,216,470,2.0,4-26,minor
67121,31,64,54,574,2.0,4-26,minor
67122,69,63,84,612,3.0,4-19B,other
67123,68,56,112,118,3.0,4-19B,other
67124,62,39,224,572,11.0,3-10,diminished
67125,50,48,48,1012,7.0,3-9,other
67126,59,24,366,936,4.0,3-7A,minor
67127,62,59,52,262,4.0,3-7A,minor
67128,59,22,322,666,5.0,3-12,augmented
67129,78,26,22,88,3.0,3-12,augmented
67130,77,34,82,382,3.0,3-12,augmented
67131,58,34,46,430,10.0,3-4A,major
67132,79,34,90,174,2.0,2-5,other
67133,79,43,76,304,10.0,4-20,major
67134,79,54,72,264,2.0,2-5,other
67135,77,53,70,304,9.0,1-1,other
67136,72,53,54,662,10.0,2-4,other
67137,74,63,82,126,10.0,2-4,other
67138,76,55,32,132,10.0,2-4,other
67139,84,64,56,266,8.0,3-6,other
67140,86,71,60,128,8.0,3-6,other
67141,88,74,74,126,8.0,3-6,other
67142,91,74,88,128,8.0,3-6,other
67143,41,55,54,96,8.0,3-6,other
67144,88,56,80,36,8.0,3-6,other
67145,84,53,42,126,8.0,3-6,other
67146,60,29,180,154,2.0,4-14A,minor
67147,81,34,98,100,2.0,4-14A,minor
67148,84,68,120,138,2.0,4-14A,minor
67149,79,41,40,644,7.0,3-9,other
67150,81,44,66,134,7.0,3-9,other
67151,84,89,90,118,7.0,3-9,other
67152,77,36,54,272,0.0,3-11B,other
67153,77,40,168,246,0.0,2-5,other
67154,74,70,50,144,0.0,2-5,other
67155,76,66,78,1020,4.0,3-7A,minor
67156,77,66,84,124,4.0,3-7A,minor
67157,72,51,188,254,2.0,3-2B,minor
67158,72,45,54,256,2.0,3-2B,minor
67159,61,42,60,104,2.0,3-2B,minor
67160,76,53,60,166,8.0,3-5B,other
67161,58,28,298,908,5.0,4-16A,other
67162,69,31,148,120,5.0,4-16A,other
67163,74,68,92,756,6.0,3-8B,other
67164,50,44,138,210,6.0,3-8B,other
67165,75,62,68,28,6.0,3-8B,other
67166,55,38,36,150,6.0,2-3,other
67167,67,55,72,122,6.0,2-3,other
67168,76,42,72,90,6.0,2-3,other
67169,67,46,86,56,6.0,2-3,other
67170,76,35,78,96,6.0,2-3,other
67171,67,44,106,54,6.0,2-3,other
67172,55,88,466,162,6.0,2-3,other
67173,43,62,68,386,6.0,2-3,other
67174,69,60,82,728,0.0,2-4,other
67175,77,31,78,92,0.0,2-4,other
67176,69,42,96,54,0.0,2-4,other
67177,77,49,88,108,0.0,2-4,other
67178,69,44,62,78,0.0,2-4,other
67179,59,36,54,556,4.0,3-5B,other
67180,71,48,72,714,7.0,3-4A,major
67181,79,31,74,70,7.0,3-4A,major
67182,71,37,110,58,7.0,3-4A,major
67183,79,37,72,114,7.0,3-4A,major
67184,71,50,90,70,7.0,3-4A,major
67185,43,58,26,56,7.0,3-4A,major
67186,79,36,70,36,7.0,3-4A,major
67187,71,48,98,64,7.0,3-4A,major
67188,79,27,86,98,7.0,3-4A,major
67189,71,60,92,92,7.0,3-4A,major
67190,79,53,92,108,0.0,3-11B,major
67191,71,35,110,72,0.0,3-11B,major
67192,79,36,46,1238,3.0,5-38A,other
67193,56,29,64,392,3.0,4-24,augmented
67194,94,32,24,266,3.0,4-18B,other
67195,84,72,122,512,0.0,5-27A,major
67196,93,60,24,2068,8.0,7-14A,other
67197,93,30,66,296,8.0,6-25B,other
67198,93,44,28,542,5.0,6-15A,major
67199,81,11,86,208,5.0,3-8A,major
67200,81,35,430,246,2.0,3-2B,minor
67201,43,67,66,684,5.0,4-20,major
67202,64,17,78,152,5.0,3-11B,major
67203,43,42,28,246,5.0,3-11B,major
67204,67,62,64,472,4.0,3-5B,other
67205,71,49,36,442,0.0,4-8,major
67206,57,34,28,278,4.0,2-2,other
67207,72,45,180,122,4.0,2-2,other
67208,57,24,24,244,4.0,2-2,other
67209,67,54,54,90,4.0,2-2,other
67210,74,85,88,274,4.0,2-2,other
67211,71,55,74,148,4.0,2-2,other
67212,74,79,74,222,4.0,2-2,other
67213,71,68,54,186,3.0,2-4,major
67214,74,17,106,54,3.0,2-4,major
67215,67,54,108,302,4.0,4-26,minor
67216,74,71,72,250,4.0,4-26,minor
67217,71,37,38,162,4.0,4-26,minor
67218,74,79,74,216,4.0,4-26,minor
67219,72,58,314,150,4.0,4-26,minor
67220,69,57,366,342,1.0,3-10,diminished
67221,72,82,102,1162,3.0,3-9,other
67222,68,59,124,362,5.0,3-9,other
67223,75,83,118,430,5.0,3-9,other
67224,59,51,310,252,5.0,2-1,other
67225,74,40,232,142,5.0,2-1,other
67226,59,22,196,212,5.0,2-1,other
67227,67,40,160,536,8.0,3-10,minor
67228,65,64,72,236,8.0,3-10,minor
67229,63,49,64,150,0.0,2-5,other
67230,65,55,70,82,0.0,2-5,other
67231,63,34,102,66,0.0,2-5,other
67232,62,63,78,98,0.0,2-5,other
67233,48,38,102,50,0.0,2-5,other
67234,63,64,282,64,0.0,2-5,other
67235,59,54,466,262,0.0,2-5,other
67236,60,58,74,500,7.0,2-4,major
67237,61,40,76,106,7.0,2-4,major
67238,60,36,60,52,7.0,2-4,major
67239,57,43,30,78,7.0,2-4,major
67240,57,40,36,184,0.0,3-6,other
67241,58,29,48,96,0.0,3-6,other
67242,60,41,50,88,0.0,3-6,other
67243,61,45,82,78,0.0,3-6,other
67244,56,29,232,26,0.0,3-6,other
67245,63,34,26,72,0.0,3-6,other
67246,65,41,50,88,0.0,3-6,other
67247,67,45,34,96,0.0,3-6,other
67248,68,51,54,114,0.0,3-6,other
67249,70,44,26,120,0.0,3-6,other
67250,72,47,38,100,0.0,3-6,other
67251,73,51,56,112,0.0,3-6,other
67252,76,44,34,260,9.0,3-8B,other
67253,77,68,58,122,9.0,3-8B,other
67254,79,66,80,246,8.0,2-2,other
67255,76,51,74,782,0.0,2-3,minor
67256,77,44,70,90,0.0,2-3,minor
67257,78,50,64,34,0.0,2-3,minor
67258,79,66,94,88,0.0,2-3,minor
67259,78,42,80,142,0.0,2-3,minor
67260,77,52,60,72,0.0,2-3,minor
67261,76,58,70,58,0.0,2-3,minor
67262,75,67,74,82,0.0,2-3,minor
67263,71,67,92,490,4.0,3-5B,other
67264,72,47,68,98,4.0,3-5B,other
67265,73,29,40,74,4.0,3-5B,other
67266,74,55,90,62,4.0,3-5B,other
67267,73,27,90,68,4.0,3-5B,other
67268,72,45,54,52,4.0,3-5B,other
67269,71,47,58,66,4.0,3-5B,other
67270,70,31,24,74,4.0,3-5B,other
67271,69,20,50,106,4.0,3-5B,other
67272,68,39,40,70,4.0,3-5B,other
67273,43,17,36,100,7.0,2-2,other
67274,65,66,68,92,7.0,2-2,other
67275,62,53,24,240,7.0,2-2,other
67276,65,70,96,68,7.0,2-2,other
67277,63,60,114,190,7.0,2-2,other
67278,57,49,42,98,7.0,2-2,other
67279,57,37,88,102,7.0,2-2,other
67280,55,55,46,206,7.0,2-2,other
67281,46,38,92,374,7.0,2-2,other
67282,55,32,30,142,7.0,2-2,other
67283,60,55,52,108,7.0,2-2,other
67284,62,43,48,430,9.0,2-6,other
67285,63,74,90,102,9.0,2-6,other
67286,62,67,86,148,9.0,2-2,other
67287,60,60,58,120,9.0,2-2,other
67288,55,65,344,114,9.0,2-2,other
67289,45,48,398,96,9.0,2-2,other
67290,55,32,154,280,9.0,2-2,other
67291,54,47,76,1950,5.0,2-5,other
67292,58,19,48,30,5.0,2-5,other
67293,82,31,24,506,3.0,4-5B,other
67294,92,33,22,1034,0.0,6-27A,other
67295,79,24,94,2042,7.0,4-14B,major
67296,86,56,298,502,7.0,4-27A,minor
67297,85,42,24,508,7.0,4-18A,minor
67298,57,25,112,1250,5.0,2-5,other
67299,50,31,76,1038,5.0,5-27A,major
67300,52,28,270,138,8.0,4-28,diminished
67301,43,51,78,230,8.0,4-28,diminished
67302,74,72,82,382,8.0,4-28,diminished
67303,72,45,876,154,8.0,4-28,diminished
67304,52,36,74,238,0.0,2-5,other
67305,67,55,120,640,3.0,4-16A,major
67306,66,57,96,110,3.0,4-16A,major
67307,67,57,328,132,3.0,4-16A,major
67308,72,61,100,798,4.0,4-26,minor
67309,69,46,80,486,8.0,1-1,other
67310,81,53,80,110,8.0,1-1,other
67311,69,20,24,72,8.0,1-1,other
67312,74,29,36,692,10.0,5-21A,major
67313,81,78,92,3900,9.0,2-2,other
67314,57,32,60,62,9.0,2-2,other
67315,79,34,154,116,9.0,2-2,other
67316,60,47,82,242,3.0,4-11B,other
67317,60,33,130,184,3.0,3-4B,other
67318,60,38,208,294,3.0,4-11B,other
67319,74,68,76,1026,0.0,4-16A,other
67320,75,47,112,166,4.0,3-7A,minor
67321,76,62,68,124,4.0,3-7A,minor
67322,79,71,102,112,4.0,3-7A,minor
67323,75,36,108,144,4.0,3-7A,minor
67324,76,44,70,130,4.0,3-7A,minor
67325,79,74,106,108,4.0,3-7A,minor
67326,62,43,338,140,3.0,3-4B,other
67327,76,51,212,72,3.0,3-4B,other
67328,67,58,284,282,3.0,3-4B,other
67329,60,27,28,1448,5.0,3-4A,other
67330,74,62,54,108,5.0,3-4A,other
67331,75,61,80,240,5.0,3-4A,other
67332,76,64,92,138,5.0,3-4A,other
67333,31,63,76,1804,2.0,5-35,minor
67334,43,46,92,738,4.0,4-18A,major
67335,60,46,38,506,4.0,4-18A,major
67336,40,57,64,232,4.0,4-18A,major
67337,60,32,42,658,6.0,2-6,other
67338,63,56,110,272,5.0,2-4,major
67339,67,27,30,26,5.0,2-4,major
67340,64,62,66,108,5.0,2-4,major
67341,60,60,70,116,5.0,2-4,major
67342,55,34,48,140,5.0,2-4,major
67343,53,52,80,100,5.0,2-4,major
67344,37,29,78,132,5.0,2-4,major
67345,25,39,230,142,5.0,2-4,major
67346,58,26,207,0,0.0,2-3,minor
67347,77,27,107,1520,3.0,2-4,major
67348,67,36,397,378,7.0,3-7B,other
67349,56,50,451,38,7.0,3-7B,other
67350,59,29,410,41,7.0,3-7B,other
67351,79,68,975,2251,8.0,3-10,diminished
67352,67,57,763,46,8.0,3-10,diminished
67353,59,26,207,77,8.0,2-6,other
67354,75,37,356,1692,0.0,2-4,other
67355,73,25,507,169,0.0,2-4,other
67356,72,37,599,266,0.0,2-4,other
67357,73,55,175,722,0.0,2-4,other
67358,61,32,290,109,0.0,2-4,other
67359,65,33,139,29,0.0,2-4,other
67360,60,22,131,44,0.0,2-4,other
67361,61,59,87,3705,5.0,2-4,other
67362,82,62,1208,2196,0.0,2-3,minor
67363,58,51,505,1994,5.0,2-5,other
67364,89,62,230,605,5.0,2-5,other
67365,75,52,153,458,10.0,2-5,other
67366,87,38,1137,2698,10.0,3-11A,other
67367,60,44,3067,69,3.0,3-5B,other
67368,54,29,1295,36,3.0,3-5B,other
67369,63,27,1163,1830,3.0,3-5B,other
67370,56,37,971,69,3.0,3-5B,other
67371,53,29,1034,62,3.0,3-5B,other
67372,63,52,194,1718,3.0,3-5B,other
67373,56,27,136,138,3.0,3-5B,other
67374,75,62,770,1421,3.0,3-5B,other
67375,62,47,272,793,0.0,2-4,major
67376,61,51,389,249,0.0,2-4,major
67377,60,50,2051,404,0.0,3-12,augmented
67378,73,59,276,1447,0.0,3-12,augmented
67379,71,62,381,911,0.0,3-12,augmented
67380,72,56,272,440,0.0,3-12,augmented
67381,75,73,266,950,0.0,3-12,augmented
67382,75,68,248,709,0.0,3-12,augmented
67383,67,45,986,133,0.0,3-12,augmented
67384,58,15,1260,164,3.0,2-1,other
67385,75,47,422,159,3.0,2-1,other
67386,75,64,456,778,3.0,2-1,other
67387,75,59,274,653,3.0,2-1,other
67388,63,26,494,220,3.0,2-1,other
67389,57,32,1040,33,3.0,2-1,other
67390,67,24,632,39,3.0,2-1,other
67391,75,33,548,51,3.0,2-1,other
67392,72,69,425,957,3.0,2-1,other
67393,73,34,274,515,3.0,2-1,other
67394,71,48,438,517,0.0,2-3,minor
67395,72,74,292,527,0.0,2-3,minor
67396,63,54,264,67,0.0,2-3,minor
67397,57,43,158,54,0.0,2-3,minor
67398,73,59,345,338,0.0,2-3,minor
67399,74,88,333,522,0.0,2-3,minor
67400,75,72,614,499,0.0,2-4,other
67401,75,73,491,845,0.0,2-4,other
67402,74,52,246,624,0.0,2-4,other
67403,65,33,1027,274,0.0,2-4,other
67404,56,34,1354,54,0.0,2-4,other
67405,60,16,880,26,0.0,2-4,other
67406,75,28,492,61,0.0,2-4,other
67407,75,69,369,804,0.0,2-4,other
67408,74,50,238,581,0.0,2-4,other
67409,61,33,1296,312,0.0,2-4,other
67410,55,25,1052,118,5.0,2-2,other
67411,70,88,1172,579,5.0,2-2,other
67412,55,24,179,1021,5.0,2-4,other
67413,72,76,655,269,5.0,2-4,other
67414,61,37,320,648,5.0,2-4,other
67415,70,68,950,317,5.0,2-4,other
67416,73,69,369,2852,5.0,2-4,other
67417,62,63,852,2007,3.0,2-4,major
67418,58,46,1228,49,3.0,2-4,major
67419,57,44,1337,1520,6.0,3-7A,other
67420,61,25,1657,2012,6.0,3-7A,other
67421,66,48,1273,31,6.0,3-7A,other
67422,88,54,202,689,5.0,2-1,other
67423,87,53,450,146,5.0,2-1,other
67424,86,45,381,315,5.0,2-1,other
67425,88,82,705,570,5.0,2-1,other
67426,66,51,1229,72,5.0,2-1,other
67427,56,44,3279,85,5.0,2-1,other
67428,87,52,366,394,5.0,2-1,other
67429,86,65,296,497,5.0,2-1,other
67430,85,25,566,522,5.0,2-1,other
67431,84,57,233,407,5.0,2-1,other
67432,61,40,466,87,5.0,2-1,other
67433,65,31,396,31,5.0,2-1,other
67434,87,73,579,245,5.0,2-1,other
67435,84,36,197,594,5.0,2-1,other
67436,61,23,671,82,5.0,2-1,other
67437,85,77,527,282,5.0,2-1,other
67438,64,42,1057,686,1.0,2-3,other
67439,55,24,1106,79,1.0,2-3,other
67440,84,74,450,172,1.0,2-3,other
67441,81,36,133,589,1.0,2-3,other
67442,82,69,824,279,1.0,2-3,other
67443,80,51,310,583,1.0,2-3,other
67444,63,46,889,325,1.0,2-3,other
67445,60,37,1293,39,1.0,2-3,other
67446,79,36,704,87,1.0,2-3,other
67447,58,18,1055,133,1.0,2-3,other
67448,80,84,532,771,1.0,2-3,other
67449,60,32,492,606,1.0,2-3,other
67450,80,83,555,364,1.0,2-3,other
67451,60,39,174,576,1.0,2-3,other
67452,63,30,89,36,1.0,2-3,other
67453,79,91,371,1006,1.0,2-3,other
67454,56,31,1298,97,11.0,2-3,minor
67455,53,33,1387,44,11.0,2-3,minor
67456,79,85,415,588,11.0,2-3,minor
67457,59,29,338,231,11.0,2-3,minor
67458,80,78,391,412,11.0,2-3,minor
67459,59,29,267,688,8.0,1-1,other
67460,80,65,489,566,8.0,1-1,other
67461,79,69,735,645,8.0,1-1,other
67462,73,40,315,850,8.0,1-1,other
67463,61,30,386,34,8.0,1-1,other
67464,65,26,310,38,8.0,1-1,other
67465,56,23,233,49,8.0,1-1,other
67466,60,27,172,1630,5.0,2-4,other
67467,61,30,92,1027,5.0,2-4,other
67468,61,46,235,950,2.0,2-1,other
67469,65,36,115,28,2.0,2-1,other
67470,55,22,92,69,2.0,2-1,other
67471,49,62,215,3676,1.0,2-3,minor
67472,63,54,561,271,1.0,2-3,minor
67473,51,60,1017,105,0.0,3-7B,other
67474,49,34,367,622,0.0,3-7B,other
67475,63,31,706,359,5.0,3-9,other
67476,63,21,883,809,5.0,3-9,other
67477,51,38,940,43,5.0,3-9,other
67478,55,28,530,34,5.0,3-9,other
67479,60,36,346,985,5.0,2-2,other
67480,49,35,382,1618,10.0,2-4,other
67481,63,29,668,307,10.0,4-20,other
67482,51,46,267,645,10.0,4-20,other
67483,54,51,712,277,2.0,3-11B,major
67484,57,64,297,865,2.0,3-11B,major
67485,54,46,361,699,7.0,1-1,other
67486,58,27,120,2839,1.0,3-9,other
67487,72,68,502,246,1.0,3-9,other
67488,65,41,271,69,1.0,3-9,other
67489,63,59,1976,707,0.0,4-19B,other
67490,65,31,87,61,0.0,4-19B,other
67491,61,39,1065,1828,1.0,3-11A,minor
67492,48,29,103,2196,1.0,3-11A,minor
67493,63,39,236,1608,1.0,3-11A,minor
67494,62,36,105,33,1.0,3-11A,minor
67495,75,69,230,241,1.0,3-11A,minor
67496,77,36,200,322,1.0,3-11A,minor
67497,75,38,292,162,1.0,3-11A,minor
67498,74,55,164,271,1.0,3-11A,minor
67499,75,67,500,271,1.0,3-11A,minor
67500,77,77,323,653,1.0,3-11A,minor
67501,73,36,420,487,3.0,2-4,major
67502,75,73,547,781,3.0,2-4,major
67503,71,64,289,581,3.0,2-4,major
67504,63,31,161,59,3.0,2-4,major
67505,67,29,361,407,3.0,2-4,major
67506,57,36,133,555,1.0,2-2,other
67507,69,18,561,374,1.0,2-2,other
67508,72,74,519,886,5.0,3-4A,other
67509,65,30,128,696,1.0,2-1,other
67510,70,73,794,235,1.0,2-1,other
67511,65,55,261,671,1.0,2-1,other
67512,61,46,629,318,1.0,2-1,other
67513,61,57,367,890,1.0,2-1,other
67514,63,64,770,1570,1.0,2-1,other
67515,49,19,371,1060,0.0,4-26,minor
67516,63,32,274,404,5.0,3-11A,other
67517,51,21,369,481,5.0,3-11A,other
67518,67,56,354,315,5.0,3-11A,other
67519,60,38,249,87,3.0,3-12,augmented
67520,54,44,315,579,3.0,3-12,augmented
67521,55,37,589,1318,0.0,2-5,other
67522,61,53,197,1577,0.0,3-11B,other
67523,64,46,412,1352,8.0,2-6,other
67524,61,42,233,2708,0.0,2-4,other
67525,73,47,366,98,0.0,2-4,other
67526,64,31,107,51,0.0,2-4,other
67527,70,26,177,97,0.0,2-4,other
67528,58,25,1009,942,5.0,2-5,other
67529,65,38,437,830,5.0,2-5,other
67530,63,58,1016,581,5.0,2-5,other
67531,60,40,765,36,5.0,2-5,other
67532,58,35,1272,102,5.0,2-5,other
67533,60,34,225,937,5.0,2-5,other
67534,62,48,336,353,5.0,2-5,other
67535,64,31,256,277,5.0,2-5,other
67536,65,44,169,330,5.0,2-5,other
67537,67,38,116,212,5.0,2-5,other
67538,69,40,110,241,5.0,2-5,other
67539,71,36,105,177,5.0,2-5,other
67540,72,41,105,243,5.0,2-5,other
67541,74,43,128,179,5.0,2-5,other
67542,76,35,113,205,5.0,2-5,other
67543,77,46,97,200,5.0,2-5,other
67544,79,38,103,209,5.0,2-5,other
67545,81,44,99,175,5.0,2-5,other
67546,83,41,128,184,5.0,2-5,other
67547,84,45,187,228,5.0,2-5,other
67548,86,34,169,215,5.0,2-5,other
67549,88,34,148,238,5.0,2-5,other
67550,89,38,110,215,5.0,2-5,other
67551,64,35,486,128,5.0,2-5,other
67552,53,19,235,228,7.0,2-4,major
67553,93,32,489,189,7.0,2-4,major
67554,97,52,248,2192,4.0,2-3,minor
67555,96,71,428,117,4.0,2-3,minor
67556,95,59,297,400,4.0,2-3,minor
67557,91,74,338,532,4.0,2-3,minor
67558,62,43,102,67,4.0,2-3,minor
67559,88,13,240,548,7.0,2-4,major
67560,84,26,117,389,7.0,2-4,major
67561,59,33,704,335,7.0,1-1,other
67562,55,24,617,54,7.0,1-1,other
67563,86,66,190,2452,0.0,3-4B,other
67564,64,51,873,1017,7.0,2-5,other
67565,60,42,942,66,7.0,2-5,other
67566,53,31,300,2171,5.0,3-11B,major
67567,64,68,184,1498,5.0,3-11B,major
67568,59,50,164,30,5.0,3-11B,major
67569,53,20,123,100,5.0,3-11B,major
67570,63,57,87,1756,5.0,3-11B,major
67571,59,46,243,26,5.0,3-11B,major
67572,70,46,269,394,5.0,3-11B,major
67573,71,66,205,277,5.0,3-11B,major
67574,53,50,251,330,3.0,3-8B,other
67575,74,67,453,361,3.0,3-8B,other
67576,59,29,297,563,4.0,2-2,other
67577,55,38,297,31,4.0,2-2,other
67578,71,48,463,415,4.0,2-2,other
67579,67,64,154,529,4.0,2-2,other
67580,59,30,279,52,4.0,2-2,other
67581,55,22,166,120,4.0,2-2,other
67582,62,40,146,747,4.0,2-2,other
67583,59,38,256,116,4.0,2-2,other
67584,55,35,279,51,4.0,2-2,other
67585,71,83,655,151,4.0,2-2,other
67586,59,47,268,717,4.0,2-2,other
67587,55,28,107,82,4.0,2-2,other
67588,71,101,1621,194,4.0,2-2,other
67589,60,36,1029,988,9.0,2-5,other
67590,70,71,210,592,9.0,2-5,other
67591,69,62,186,228,9.0,2-5,other
67592,68,55,177,71,9.0,2-5,other
67593,67,50,450,190,9.0,2-5,other
67594,60,33,205,473,9.0,2-5,other
67595,71,103,853,955,9.0,2-5,other
67596,64,59,128,62,9.0,2-5,other
67597,70,46,159,445,9.0,2-3,minor
67598,69,44,363,223,9.0,2-3,minor
67599,68,55,120,389,9.0,2-3,minor
67600,57,48,1126,361,4.0,2-5,other
67601,54,33,1027,43,4.0,2-5,other
67602,64,59,100,1444,4.0,2-5,other
67603,60,31,187,67,4.0,2-5,other
67604,57,24,212,64,4.0,2-5,other
67605,66,35,504,225,4.0,2-5,other
67606,67,62,208,545,4.0,2-5,other
67607,68,35,335,482,4.0,2-5,other
67608,69,62,371,463,4.0,2-5,other
67609,70,39,376,410,2.0,3-5B,other
67610,72,28,348,967,11.0,2-2,other
67611,51,35,228,548,2.0,2-5,other
67612,75,43,274,476,2.0,2-5,other
67613,77,66,243,469,2.0,2-5,other
67614,62,32,131,79,9.0,2-6,other
67615,79,31,230,438,9.0,2-6,other
67616,81,72,314,438,9.0,2-6,other
67617,59,32,282,171,7.0,2-5,other
67618,82,67,317,318,7.0,2-5,other
67619,86,92,419,919,7.0,2-4,major
67620,86,66,550,576,7.0,2-4,major
67621,83,77,333,35,7.0,2-4,major
67622,55,27,315,54,7.0,2-4,major
67623,79,40,348,420,7.0,2-4,major
67624,76,55,120,456,7.0,2-4,major
67625,59,20,251,61,7.0,2-4,major
67626,55,18,210,77,7.0,2-4,major
67627,71,34,400,299,7.0,2-4,major
67628,67,37,233,546,7.0,2-4,major
67629,71,48,317,727,1.0,2-3,other
67630,73,56,453,532,2.0,1-1,other
67631,70,64,379,28,2.0,1-1,other
67632,74,45,361,418,2.0,1-1,other
67633,71,39,274,30,2.0,1-1,other
67634,59,20,262,279,2.0,1-1,other
67635,55,17,228,44,2.0,1-1,other
67636,67,50,578,136,2.0,1-1,other
67637,59,34,271,573,2.0,1-1,other
67638,55,32,172,41,2.0,1-1,other
67639,67,54,428,338,2.0,1-1,other
67640,61,44,320,689,2.0,1-1,other
67641,61,47,130,2309,7.0,2-2,other
67642,55,54,1154,1910,1.0,3-7A,minor
67643,71,50,289,1904,1.0,4-27A,diminished
67644,76,45,279,26,1.0,4-27A,diminished
67645,76,36,128,594,1.0,3-10,diminished
67646,83,36,327,279,1.0,3-10,diminished
67647,76,31,144,76,4.0,2-5,other
67648,76,38,133,592,11.0,1-1,other
67649,54,42,537,1239,4.0,2-4,major
67650,60,27,576,28,4.0,2-4,major
67651,81,26,174,389,4.0,2-4,major
67652,74,43,256,2184,2.0,2-5,other
67653,64,37,118,105,2.0,2-5,other
67654,49,51,251,1764,6.0,3-8B,other
67655,59,51,436,327,5.0,2-4,major
67656,63,53,617,871,5.0,2-4,major
67657,58,36,622,66,3.0,3-7A,other
67658,61,23,676,59,3.0,3-7A,other
67659,49,29,346,586,3.0,3-7A,other
67660,51,51,535,932,4.0,1-1,other
67661,67,56,446,302,4.0,1-1,other
67662,59,56,489,34,4.0,1-1,other
67663,55,64,1500,43,4.0,1-1,other
67664,62,47,343,28,4.0,1-1,other
67665,62,53,251,653,7.0,2-4,major
67666,64,35,154,87,7.0,2-4,major
67667,65,29,151,46,7.0,2-4,major
67668,55,49,138,868,7.0,2-4,major
67669,51,51,212,26,7.0,2-4,major
67670,64,38,112,1042,5.0,3-8B,other
67671,61,44,348,903,5.0,3-8B,other
67672,65,30,110,57,5.0,3-8B,other
67673,61,42,220,714,3.0,3-12,augmented
67674,55,51,445,978,1.0,2-3,other
67675,53,24,3042,1346,0.0,3-7B,other
67676,60,20,368,1662,0.0,3-7B,other
67677,67,99,525,166,0.0,3-7B,other
67678,68,73,568,968,0.0,2-4,other
67679,67,76,209,694,0.0,2-4,other
67680,67,44,784,291,8.0,2-3,minor
67681,68,77,665,989,8.0,2-3,minor
67682,67,38,121,803,8.0,2-3,minor
67683,68,71,1567,269,8.0,2-3,minor
67684,67,43,125,1508,8.0,2-3,minor
67685,56,35,691,215,5.0,3-4A,other
67686,73,75,889,837,5.0,3-4A,other
67687,61,33,215,786,5.0,3-4A,other
67688,72,57,372,376,5.0,3-4A,other
67689,73,31,263,518,5.0,3-4A,other
67690,72,54,294,189,5.0,3-4A,other
67691,61,31,378,26,5.0,3-4A,other
67692,69,33,548,291,5.0,3-4A,other
67693,55,33,141,679,1.0,3-10,minor
67694,72,53,415,376,1.0,3-10,minor
67695,61,49,236,1523,1.0,3-10,minor
67696,64,33,113,59,1.0,3-10,minor
67697,61,63,220,886,1.0,3-10,minor
67698,64,34,115,67,1.0,3-10,minor
67699,77,99,783,197,1.0,3-10,minor
67700,74,48,194,691,1.0,3-10,minor
67701,76,69,584,340,1.0,3-10,minor
67702,74,37,163,651,1.0,3-10,minor
67703,58,18,248,161,1.0,3-10,minor
67704,75,74,496,141,1.0,3-10,minor
67705,58,42,338,1595,0.0,2-3,minor
67706,78,83,568,2232,10.0,2-4,other
67707,76,53,164,653,10.0,2-4,other
67708,61,37,269,46,10.0,2-4,other
67709,77,64,404,302,10.0,2-4,other
67710,76,30,95,59,10.0,2-4,other
67711,75,71,581,822,2.0,4-15B,other
67712,60,32,310,624,2.0,4-15B,other
67713,56,26,238,128,2.0,4-15B,other
67714,56,39,1337,906,0.0,2-3,minor
67715,53,18,1073,95,0.0,2-3,minor
67716,72,82,412,1132,0.0,2-4,other
67717,56,46,361,640,0.0,2-4,other
67718,65,33,410,358,0.0,2-4,other
67719,61,53,226,655,0.0,2-4,other
67720,75,69,699,223,0.0,2-4,other
67721,58,53,345,674,0.0,3-11B,other
67722,61,50,307,76,0.0,3-11B,other
67723,58,38,233,919,8.0,2-6,other
67724,64,58,476,315,1.0,2-5,other
67725,56,45,105,622,1.0,2-5,other
67726,58,45,217,67,1.0,2-5,other
67727,72,57,410,199,1.0,2-5,other
67728,68,43,277,36,1.0,2-5,other
67729,64,32,121,41,1.0,2-5,other
67730,48,44,743,645,3.0,3-11B,major
67731,58,36,706,2901,3.0,3-4A,major
67732,88,63,271,287,4.0,3-7A,minor
67733,57,47,336,2874,6.0,2-1,other
67734,79,36,253,113,1.0,3-8A,other
67735,67,43,115,853,9.0,2-6,other
67736,74,25,85,58,9.0,2-6,other
67737,89,55,231,3318,5.0,3-11A,other
67738,89,45,259,407,0.0,3-4B,other
67739,87,56,312,2522,1.0,3-10,diminished
67740,75,57,171,1280,4.0,2-1,other
67741,82,37,112,36,4.0,2-1,other
67742,58,51,950,757,7.0,2-2,other
67743,53,32,967,34,7.0,2-2,other
67744,56,43,248,1738,7.0,2-2,other
67745,67,61,579,366,0.0,2-3,minor
67746,58,43,566,1917,6.0,2-3,other
67747,52,20,468,29,6.0,2-3,other
67748,63,55,573,914,6.0,2-3,other
67749,61,26,673,156,4.0,3-8A,other
67750,63,51,799,847,4.0,3-8A,other
67751,61,19,642,182,4.0,3-8A,other
67752,60,59,314,6216,0.0,2-4,other
67753,61,46,395,458,0.0,2-4,other
67754,62,65,265,484,0.0,2-4,other
67755,63,58,371,395,0.0,2-4,other
67756,64,65,414,507,0.0,2-4,other
67757,65,60,337,434,0.0,2-4,other
67758,66,54,320,542,0.0,2-4,other
67759,67,52,420,412,0.0,2-4,other
67760,68,59,216,524,0.0,2-4,other
67761,70,46,486,461,0.0,2-4,other
67762,63,39,234,557,0.0,2-4,other
67763,67,51,162,27,0.0,2-4,other
67764,60,34,168,68,0.0,2-4,other
67765,58,33,291,61,0.0,2-4,other
67766,68,59,527,211,0.0,2-4,other
67767,65,45,126,3519,0.0,2-4,other
67768,59,32,213,103,0.0,2-4,other
67769,79,66,743,150,0.0,2-4,other
67770,80,47,325,634,0.0,2-4,other
67771,81,46,450,388,0.0,2-4,other
67772,82,71,392,579,0.0,2-4,other
67773,56,30,265,271,5.0,3-4A,other
67774,77,51,614,230,5.0,3-4A,other
67775,73,35,427,576,5.0,3-4A,other
67776,72,37,126,1078,5.0,3-4A,other
67777,56,25,136,31,5.0,3-4A,other
67778,70,71,201,1720,5.0,3-4A,other
67779,55,30,179,126,1.0,2-3,minor
67780,68,56,354,320,1.0,2-3,minor
67781,68,46,380,668,1.0,2-3,minor
67782,67,41,389,325,1.0,2-3,minor
67783,66,49,346,562,1.0,2-3,minor
67784,61,37,176,75,1.0,2-3,minor
67785,65,37,297,360,1.0,2-3,minor
67786,64,60,337,521,1.0,2-3,minor
67787,62,24,521,504,1.0,2-3,minor
67788,60,40,248,507,1.0,2-3,minor
67789,63,51,270,369,1.0,2-3,minor
67790,62,44,219,141,1.0,2-3,minor
67791,60,24,132,527,1.0,2-3,minor
67792,51,21,190,37,1.0,2-3,minor
67793,63,68,363,366,1.0,2-3,minor
67794,63,62,380,539,1.0,2-3,minor
67795,63,50,412,573,1.0,2-3,minor
67796,63,46,437,651,1.0,2-3,minor
67797,66,62,2943,749,1.0,2-3,minor
67798,39,30,1034,37,1.0,2-3,minor
67799,54,27,1040,1918,1.0,2-3,minor
67800,44,15,207,104,1.0,2-3,minor
67801,67,63,807,921,1.0,2-3,minor
67802,49,30,1593,1135,8.0,1-1,other
67803,60,46,363,726,8.0,1-1,other
67804,56,47,124,717,8.0,1-1,other
67805,75,58,406,893,8.0,1-1,other
67806,60,22,1391,1595,0.0,2-4,other
67807,73,23,1699,1383,0.0,2-4,other
67808,64,48,1825,29,0.0,2-4,other
67809,68,30,1605,123,0.0,2-4,other
67810,58,21,757,58,0.0,2-4,other
67811,48,24,2051,1745,7.0,2-3,minor
67812,55,17,328,1184,2.0,2-3,minor
67813,63,32,723,132,2.0,2-3,minor
67814,55,16,230,784,2.0,2-3,minor
67815,62,44,443,121,2.0,2-3,minor
67816,65,37,688,69,2.0,2-3,minor
67817,63,42,541,838,2.0,2-3,minor
67818,60,35,418,66,2.0,2-3,minor
67819,41,33,2699,916,2.0,2-3,minor
67820,63,34,193,1014,5.0,3-6,other
67821,48,19,639,121,5.0,3-6,other
67822,51,33,968,740,5.0,3-6,other
67823,65,46,697,135,5.0,3-6,other
67824,61,37,389,26,5.0,3-6,other
67825,56,37,573,1751,0.0,2-3,minor
67826,61,25,440,38,0.0,2-3,minor
67827,65,44,584,26,0.0,2-3,minor
67828,46,30,1783,28,0.0,2-3,minor
67829,63,37,325,896,0.0,2-3,minor
67830,55,26,288,674,5.0,3-11B,other
67831,46,36,283,731,5.0,3-11B,other
67832,63,45,483,384,1.0,2-5,other
67833,39,35,2802,1071,4.0,2-1,other
67834,46,31,948,930,4.0,2-1,other
67835,63,30,458,130,4.0,2-1,other
67836,61,25,126,26,4.0,2-1,other
67837,65,58,415,748,4.0,2-1,other
67838,61,26,570,113,9.0,2-6,other
67839,46,33,720,708,9.0,2-6,other
67840,63,54,541,130,9.0,2-6,other
67841,55,34,273,104,9.0,2-6,other
67842,37,30,902,1474,9.0,2-6,other
67843,53,34,190,2431,3.0,3-11B,other
67844,48,37,994,668,0.0,2-2,other
67845,36,54,109,853,0.0,2-2,other
67846,67,64,956,1365,0.0,2-2,other
67847,58,35,1083,118,1.0,3-1,other
67848,66,49,1291,1808,1.0,3-1,other
67849,62,53,1538,61,1.0,3-1,other
67850,57,35,985,101,1.0,3-1,other
67851,56,47,1138,1690,2.0,2-4,major
67852,60,24,1129,1535,5.0,2-4,other
67853,56,25,1682,26,5.0,2-4,other
67854,84,79,320,867,5.0,2-4,other
67855,82,47,403,409,5.0,2-4,other
67856,77,54,328,959,5.0,3-8B,other
67857,73,45,397,864,5.0,3-8B,other
67858,63,42,472,896,5.0,3-8B,other
67859,58,23,437,265,0.0,1-1,other
67860,75,73,610,769,0.0,1-1,other
67861,63,34,282,800,0.0,1-1,other
67862,67,36,547,231,0.0,1-1,other
67863,67,55,2785,933,0.0,1-1,other
67864,62,40,118,2644,8.0,2-6,other
67865,59,26,155,115,8.0,2-6,other
67866,68,65,512,196,8.0,2-6,other
67867,67,91,892,1633,8.0,2-6,other
67868,66,39,354,760,8.0,2-6,other
67869,65,40,331,202,8.0,2-6,other
67870,64,45,395,339,8.0,2-6,other
67871,61,56,408,525,8.0,2-6,other
67872,57,46,187,1045,8.0,2-6,other
67873,60,47,518,311,8.0,2-6,other
67874,57,28,191,685,8.0,2-6,other
67875,58,33,389,392,8.0,2-6,other
67876,60,49,314,533,8.0,2-6,other
67877,61,34,412,461,8.0,2-6,other
67878,63,44,167,478,8.0,2-6,other
67879,65,48,311,409,8.0,2-6,other
67880,70,56,328,446,8.0,2-6,other
67881,73,49,349,547,8.0,2-6,other
67882,74,73,363,504,8.0,2-6,other
67883,63,60,291,95,8.0,2-6,other
67884,60,39,144,58,8.0,2-6,other
67885,75,38,521,300,8.0,2-6,other
67886,76,49,265,489,8.0,2-6,other
67887,79,82,538,366,8.0,2-6,other
67888,76,41,276,657,8.0,2-6,other
67889,77,55,588,388,8.0,2-6,other
67890,75,46,300,536,8.0,2-6,other
67891,72,33,550,461,8.0,2-6,other
67892,68,34,112,602,8.0,2-6,other
67893,73,51,3588,363,8.0,2-6,other
67894,58,44,277,627,5.0,2-4,other
67895,60,35,1094,1314,6.0,2-1,other
67896,63,36,2618,1751,6.0,2-1,other
67897,56,34,2998,106,5.0,2-5,other
67898,85,51,294,1440,5.0,2-5,other
67899,85,40,495,634,5.0,2-5,other
67900,82,40,420,654,5.0,2-5,other
67901,70,34,133,754,1.0,2-2,other
67902,58,27,175,35,1.0,2-2,other
67903,58,32,974,924,4.0,2-6,other
67904,63,43,337,1170,4.0,2-6,other
67905,63,53,254,947,1.0,2-3,other
67906,63,42,259,3989,10.0,2-4,major
67907,88,67,1060,936,3.0,5-19B,major
67908,63,69,1247,1489,5.0,4-22A,major
67909,61,33,1437,2269,8.0,2-3,other
67910,60,41,1385,29,8.0,2-3,other
67911,96,47,239,616,0.0,1-1,other
67912,84,49,176,26,0.0,1-1,other
67913,96,32,297,366,0.0,1-1,other
67914,84,38,241,61,0.0,1-1,other
67915,60,48,251,584,0.0,2-1,other
67916,84,44,259,490,5.0,3-11A,other
67917,65,57,245,705,1.0,2-1,other
67918,56,50,392,26,1.0,2-1,other
67919,94,46,844,1011,1.0,4-12A,other
67920,93,50,464,1953,1.0,2-3,minor
67921,63,60,1075,1428,1.0,2-3,minor
67922,60,30,1261,93,5.0,2-5,other
67923,58,28,1497,40,5.0,2-5,other
67924,53,24,3127,29,5.0,2-5,other
67925,60,41,444,2116,5.0,2-5,other
67926,63,59,352,582,5.0,2-5,other
67927,67,27,452,470,5.0,2-5,other
67928,70,60,317,492,5.0,2-5,other
67929,67,37,372,495,5.0,2-5,other
67930,68,34,386,504,5.0,2-5,other
67931,70,37,348,453,5.0,2-5,other
67932,71,24,334,576,5.0,2-5,other
67933,63,25,833,178,5.0,2-5,other
67934,72,24,329,288,4.0,2-6,other
67935,73,52,325,461,4.0,2-6,other
67936,74,51,242,426,4.0,2-6,other
67937,75,55,201,493,4.0,2-6,other
67938,58,33,1331,394,3.0,1-1,other
67939,75,70,346,968,3.0,1-1,other
67940,75,62,313,562,3.0,1-1,other
67941,60,26,303,169,3.0,1-1,other
67942,75,58,622,335,3.0,1-1,other
67943,60,24,155,518,3.0,1-1,other
67944,72,35,273,179,3.0,1-1,other
67945,53,60,1270,1684,4.0,2-5,other
67946,74,38,386,1172,4.0,2-5,other
67947,75,40,207,208,4.0,2-5,other
67948,76,54,271,227,4.0,2-5,other
67949,64,56,306,314,4.0,2-5,other
67950,59,20,314,29,4.0,2-5,other
67951,77,84,731,1406,7.0,2-4,major
67952,76,69,398,938,7.0,2-4,major
67953,72,36,325,646,7.0,2-4,major
67954,67,34,613,426,7.0,2-4,major
67955,55,18,130,630,7.0,2-4,major
67956,65,36,495,188,7.0,2-4,major
67957,45,22,357,898,7.0,2-4,major
67958,64,48,357,1881,4.0,2-3,minor
67959,64,47,257,1526,0.0,3-4B,other
67960,76,84,490,1348,9.0,2-3,minor
67961,79,75,349,599,9.0,2-3,minor
67962,76,45,469,444,9.0,2-3,minor
67963,64,49,118,458,9.0,2-3,minor
67964,60,24,139,106,9.0,2-3,minor
67965,57,35,178,44,9.0,2-3,minor
67966,72,41,375,215,9.0,2-3,minor
67967,64,47,556,977,9.0,2-3,minor
67968,59,30,374,118,9.0,2-3,minor
67969,59,47,444,1500,9.0,2-3,minor
67970,63,48,415,26,9.0,2-3,minor
67971,76,65,409,1339,9.0,2-3,minor
67972,79,66,368,617,9.0,2-3,minor
67973,62,60,136,57,9.0,2-3,minor
67974,57,49,138,67,9.0,2-3,minor
67975,52,24,115,40,9.0,2-3,minor
67976,74,43,513,360,9.0,2-3,minor
67977,74,56,513,829,9.0,2-3,minor
67978,67,35,132,600,9.0,2-3,minor
67979,64,44,141,48,9.0,2-3,minor
67980,62,36,115,58,9.0,2-3,minor
67981,74,65,515,245,9.0,2-3,minor
67982,59,37,464,1526,0.0,2-4,major
67983,60,33,195,997,0.0,2-4,major
67984,74,88,469,285,0.0,2-4,major
67985,76,61,357,599,0.0,2-4,major
67986,64,40,375,296,0.0,2-4,major
67987,71,49,486,188,9.0,2-3,minor
67988,71,70,602,838,9.0,2-3,minor
67989,56,54,343,915,9.0,2-3,minor
67990,72,53,340,677,4.0,2-5,other
67991,74,59,628,375,4.0,2-5,other
67992,64,49,429,610,4.0,2-5,other
67993,54,37,787,46,4.0,2-5,other
67994,71,57,257,864,9.0,2-3,minor
67995,72,60,472,352,9.0,2-3,minor
67996,57,39,1298,700,2.0,3-3A,major
67997,67,58,245,809,2.0,3-3A,major
67998,69,64,472,389,2.0,3-3A,major
67999,64,55,818,685,9.0,2-6,other
68000,66,49,354,812,9.0,2-6,other
68001,67,32,339,519,9.0,2-6,other
68002,55,30,418,702,11.0,2-2,other
68003,66,32,380,222,11.0,2-2,other
68004,67,47,389,475,11.0,2-2,other
68005,70,51,230,968,11.0,2-2,other
68006,55,20,234,282,11.0,2-2,other
68007,71,54,343,124,11.0,2-2,other
68008,74,54,400,562,11.0,2-2,other
68009,78,51,285,443,11.0,2-2,other
68010,81,58,452,556,11.0,2-2,other
68011,62,36,101,69,11.0,2-2,other
68012,59,17,245,121,11.0,2-2,other
68013,90,60,280,786,11.0,2-2,other
68014,59,22,377,32,11.0,2-2,other
68015,91,75,351,432,11.0,2-2,other
68016,89,49,127,37,11.0,2-2,other
68017,90,67,291,427,11.0,2-2,other
68018,62,30,107,138,11.0,2-2,other
68019,91,89,398,351,11.0,2-2,other
68020,59,34,230,591,2.0,2-4,major
68021,86,47,492,458,2.0,2-4,major
68022,83,49,300,518,2.0,2-4,major
68023,87,69,637,469,6.0,2-5,other
68024,55,13,735,32,6.0,2-5,other
68025,88,68,429,856,6.0,2-5,other
68026,84,71,377,573,6.0,2-5,other
68027,55,28,1221,129,6.0,2-5,other
68028,85,42,340,559,6.0,2-5,other
68029,61,14,662,294,6.0,2-5,other
68030,79,34,288,354,6.0,2-5,other
68031,55,30,784,636,6.0,2-5,other
68032,55,50,709,2817,5.0,3-8B,other
68033,61,42,1172,38,5.0,3-8B,other
68034,65,24,685,49,5.0,3-8B,other
68035,54,63,1132,3156,0.0,3-4A,major
68036,60,45,403,1547,4.0,4-21,major
68037,81,33,262,265,4.0,4-21,major
68038,60,52,979,1068,4.0,4-21,major
68039,81,50,861,72,4.0,4-21,major
68040,91,67,2171,4257,4.0,3-5B,other
68041,60,34,2676,2318,5.0,2-4,other
68042,55,33,2722,66,5.0,2-4,other
68043,61,26,1196,1555,5.0,2-4,other
68044,96,81,452,251,5.0,2-4,other
68045,94,78,190,1515,5.0,2-4,other
68046,63,36,944,170,5.0,2-4,other
68047,60,30,1512,46,5.0,2-4,other
68048,53,19,732,164,5.0,2-4,other
68049,91,62,1201,164,5.0,2-4,other
68050,92,70,383,1463,5.0,2-4,other
68051,63,47,167,35,5.0,2-4,other
68052,60,24,556,31,5.0,2-4,other
68053,87,49,1621,407,5.0,2-4,other
68054,86,38,1247,1863,8.0,2-3,minor
68055,59,28,227,513,8.0,2-3,minor
68056,89,60,380,864,8.0,2-3,minor
68057,65,60,242,2053,2.0,2-2,other
68058,84,62,642,478,2.0,2-2,other
68059,60,24,141,573,2.0,2-2,other
68060,85,69,535,254,2.0,2-2,other
68061,56,25,138,731,0.0,2-1,other
68062,84,68,294,752,0.0,2-1,other
68063,60,24,150,141,0.0,2-1,other
68064,82,54,869,392,0.0,2-1,other
68065,61,51,216,472,0.0,2-1,other
68066,78,58,355,325,7.0,2-2,other
68067,81,64,308,669,7.0,2-2,other
68068,79,46,374,553,7.0,2-2,other
68069,64,44,124,316,7.0,2-2,other
68070,77,60,496,1587,6.0,2-5,other
68071,63,49,115,504,6.0,2-5,other
68072,75,70,340,173,6.0,2-5,other
68073,72,58,233,562,6.0,2-5,other
68074,72,59,322,697,6.0,2-5,other
68075,63,33,178,429,6.0,2-5,other
68076,60,19,746,98,6.0,2-5,other
68077,72,55,559,138,6.0,2-5,other
68078,67,49,1394,783,6.0,2-5,other
68079,61,56,234,907,6.0,2-5,other
68080,65,45,196,762,6.0,2-5,other
68081,66,37,271,500,6.0,2-5,other
68082,68,46,326,193,6.0,2-5,other
68083,70,51,107,267,6.0,2-5,other
68084,72,40,167,249,6.0,2-5,other
68085,73,27,126,238,6.0,2-5,other
68086,75,47,193,239,6.0,2-5,other
68087,77,50,190,234,6.0,2-5,other
68088,78,44,98,240,6.0,2-5,other
68089,80,46,250,482,6.0,2-5,other
68090,81,32,268,238,6.0,2-5,other
68091,84,62,314,240,6.0,2-5,other
68092,86,60,195,240,6.0,2-5,other
68093,60,20,219,77,6.0,2-5,other
68094,80,67,380,119,6.0,2-5,other
68095,80,59,213,671,6.0,2-5,other
68096,80,59,297,414,6.0,2-5,other
68097,82,27,127,124,6.0,2-5,other
68098,77,47,132,395,6.0,2-5,other
68099,80,55,455,337,6.0,2-5,other
68100,60,33,285,412,6.0,2-5,other
68101,56,29,357,77,6.0,2-5,other
68102,77,42,208,314,6.0,2-5,other
68103,58,52,1601,686,1.0,2-3,minor
68104,80,42,2612,37,1.0,2-3,minor
68105,63,49,564,2097,1.0,2-3,minor
68106,63,68,317,976,4.0,2-6,other
68107,82,42,193,130,8.0,3-8A,other
68108,84,26,133,60,8.0,3-8A,other
68109,62,41,475,2929,3.0,2-5,other
68110,80,55,1100,1812,9.0,4-25,other
68111,79,47,991,1621,5.0,2-4,major
68112,84,39,550,4199,5.0,2-4,other
68113,63,35,378,5512,4.0,2-3,minor
68114,96,51,173,101,5.0,2-5,other
68115,58,27,395,78,5.0,2-5,other
68116,84,26,141,1950,8.0,2-3,other
68117,84,37,207,953,8.0,2-3,other
68118,87,25,345,968,4.0,2-4,major
68119,73,29,98,40,4.0,2-4,major
68120,84,32,222,49,4.0,2-4,major
68121,84,40,300,884,4.0,2-4,major
68122,80,34,1244,922,3.0,2-1,other
68123,84,46,386,66,3.0,2-1,other
68124,80,33,219,1598,5.0,2-2,other
68125,84,30,202,26,5.0,2-2,other
68126,87,51,392,815,5.0,2-2,other
68127,84,39,262,98,3.0,3-7A,other
68128,73,31,323,844,3.0,3-7A,other
68129,87,48,502,279,3.0,3-7A,other
68130,84,43,378,98,3.0,3-7A,other
68131,55,32,150,2575,5.0,2-4,other
68132,96,72,323,861,5.0,2-4,other
68133,84,63,193,403,5.0,2-4,other
68134,27,53,201,810,5.0,2-4,other
68135,60,41,101,2499,5.0,2-4,other
68136,67,88,478,346,5.0,2-4,other
68137,68,64,268,598,5.0,2-4,other
68138,67,46,456,432,5.0,2-4,other
68139,68,67,312,578,5.0,2-4,other
68140,67,48,525,461,5.0,2-4,other
68141,66,63,595,830,5.0,2-4,other
68142,65,50,3540,687,5.0,2-4,other
68143,56,28,2213,2260,1.0,2-1,other
68144,61,36,292,1460,1.0,2-1,other
68145,64,99,499,372,1.0,2-1,other
68146,65,66,303,568,1.0,2-1,other
68147,61,34,291,41,1.0,2-1,other
68148,56,26,602,65,1.0,2-1,other
68149,64,53,533,329,1.0,2-1,other
68150,62,42,214,595,1.0,2-1,other
68151,61,29,142,50,1.0,2-1,other
68152,64,68,621,332,1.0,2-1,other
68153,61,34,80,676,1.0,2-1,other
68154,62,46,99,36,1.0,2-1,other
68155,63,67,1711,286,1.0,2-1,other
68156,60,27,386,2002,1.0,2-6,other
68157,58,49,398,554,1.0,2-6,other
68158,56,35,516,430,1.0,2-6,other
68159,52,40,92,616,1.0,2-6,other
68160,55,53,456,274,1.0,2-6,other
68161,48,27,173,689,1.0,2-6,other
68162,51,30,425,396,1.0,2-6,other
68163,55,34,328,953,8.0,2-3,other
68164,56,72,374,487,8.0,2-3,other
68165,58,38,300,456,8.0,2-3,other
68166,60,60,389,396,8.0,2-3,other
68167,39,1,1301,26,8.0,2-3,other
68168,54,33,1905,58,8.0,2-3,other
68169,61,49,393,360,8.0,2-3,other
68170,65,67,314,571,8.0,2-3,other
68171,62,56,607,394,8.0,2-3,other
68172,63,76,288,518,8.0,2-3,other
68173,66,71,545,365,8.0,2-3,other
68174,64,57,300,547,8.0,2-3,other
68175,65,32,488,434,8.0,2-3,other
68176,53,40,154,629,3.0,2-5,other
68177,58,42,118,43,3.0,2-5,other
68178,65,41,643,332,3.0,2-5,other
68179,66,47,274,566,3.0,2-5,other
68180,49,37,271,310,3.0,2-5,other
68181,37,42,221,33,3.0,2-5,other
68182,70,51,506,51,3.0,2-5,other
68183,67,45,219,568,3.0,2-5,other
68184,68,49,482,404,3.0,2-5,other
68185,63,50,1474,554,3.0,2-5,other
68186,58,37,1699,77,0.0,2-4,major
68187,70,51,224,969,0.0,2-4,major
68188,73,60,509,334,0.0,2-4,major
68189,72,27,482,960,0.0,2-4,major
68190,58,34,242,653,1.0,2-2,other
68191,74,45,386,367,1.0,2-2,other
68192,75,69,259,516,1.0,2-2,other
68193,77,71,333,970,4.0,3-8B,other
68194,74,37,370,453,4.0,3-8B,other
68195,75,53,408,521,4.0,3-8B,other
68196,67,30,144,58,4.0,3-8B,other
68197,63,18,291,81,4.0,3-8B,other
68198,71,39,425,365,4.0,3-8B,other
68199,74,77,410,528,4.0,3-8B,other
68200,73,29,454,408,4.0,3-8B,other
68201,57,40,1161,881,3.0,2-4,major
68202,72,48,1421,26,3.0,2-4,major
68203,70,40,295,1481,3.0,2-4,major
68204,57,29,120,214,3.0,2-4,major
68205,69,34,513,252,3.0,2-4,major
68206,70,42,94,609,3.0,2-4,major
68207,60,35,101,816,5.0,2-4,other
68208,75,49,206,2890,1.0,1-1,other
68209,65,54,99,81,1.0,2-2,other
68210,82,29,271,1292,4.0,2-3,minor
68211,85,46,79,1982,1.0,4-12B,diminished
68212,89,34,286,986,4.0,2-3,minor
68213,68,49,590,910,8.0,1-1,other
68214,63,40,492,72,4.0,3-4B,other
68215,63,32,521,888,3.0,2-4,other
68216,64,40,463,36,3.0,2-4,other
68217,64,46,703,943,3.0,2-5,other
68218,85,36,291,636,3.0,2-5,other
68219,84,29,144,1872,10.0,2-4,major
68220,86,69,538,269,10.0,2-4,major
68221,82,52,641,48,10.0,2-4,major
68222,85,55,230,552,10.0,2-4,major
68223,81,44,591,74,10.0,2-4,major
68224,63,30,261,27,10.0,2-4,major
68225,84,35,307,305,10.0,2-4,major
68226,66,71,1445,830,10.0,2-4,major
68227,61,15,2884,70,2.0,2-5,other
68228,83,31,173,1624,9.0,2-4,major
68229,66,37,420,240,9.0,2-4,major
68230,80,25,87,749,9.0,2-4,major
68231,62,1,1104,187,9.0,2-4,major
68232,66,44,998,27,9.0,2-4,major
68233,56,52,1392,31,9.0,2-4,major
68234,60,36,638,1649,5.0,3-11B,other
68235,58,19,557,129,5.0,3-11B,other
68236,60,19,87,840,8.0,2-3,other
68237,65,39,206,351,1.0,2-5,other
68238,56,56,351,422,1.0,2-5,other
68239,84,27,98,154,2.0,3-3A,minor
68240,61,47,310,249,2.0,3-3A,minor
68241,87,56,276,70,3.0,3-3A,major
68242,89,60,172,898,5.0,2-1,other
68243,61,68,317,482,5.0,2-1,other
68244,84,57,101,110,6.0,2-2,other
68245,89,34,970,461,7.0,2-2,other
68246,53,53,1013,2134,0.0,3-11B,other
68247,87,33,428,69,0.0,2-2,other
68248,63,61,365,526,0.0,2-2,other
68249,89,24,321,130,0.0,2-3,minor
68250,79,55,448,612,8.0,6-29,diminished
68251,87,31,103,45,8.0,6-29,diminished
68252,86,69,1080,919,8.0,4-28,diminished
68253,53,45,300,1390,8.0,3-10,diminished
68254,86,60,283,29,8.0,3-10,diminished
68255,97,31,82,2865,8.0,2-6,other
68256,85,53,1360,668,5.0,4-20,other
68257,90,49,574,2392,1.0,4-27A,diminished
68258,83,35,427,32,1.0,4-27A,diminished
68259,81,41,334,1514,9.0,2-5,other
68260,92,51,350,850,9.0,2-5,other
68261,87,47,316,60,1.0,3-5A,other
68262,64,40,112,36,1.0,3-5A,other
68263,79,46,334,381,4.0,2-3,minor
68264,89,63,516,831,0.0,2-3,minor
68265,58,15,1023,177,5.0,1-1,other
68266,88,54,276,691,5.0,1-1,other
68267,76,55,341,36,5.0,1-1,other
68268,58,33,353,639,3.0,1-1,other
68269,74,29,94,883,0.0,3-2B,minor
68270,82,74,564,2851,10.0,3-8B,other
68271,60,34,1685,91,6.0,2-2,other
68272,81,68,374,476,6.0,2-2,other
68273,78,55,372,684,6.0,2-2,other
68274,74,36,348,732,6.0,2-2,other
68275,72,22,278,36,6.0,2-2,other
68276,53,20,1041,187,0.0,2-3,minor
68277,56,30,1140,65,0.0,2-3,minor
68278,77,67,400,408,0.0,2-3,minor
68279,73,52,559,590,0.0,2-3,minor
68280,61,48,86,593,0.0,2-3,minor
68281,72,55,279,26,0.0,2-3,minor
68282,56,34,410,111,0.0,2-3,minor
68283,60,18,168,110,0.0,2-3,minor
68284,68,48,547,307,0.0,2-3,minor
68285,60,37,221,437,0.0,2-3,minor
68286,56,23,84,50,0.0,2-3,minor
68287,65,42,425,221,0.0,2-3,minor
68288,63,60,1229,703,3.0,2-1,other
68289,74,60,393,1244,0.0,2-4,other
68290,62,50,605,67,0.0,2-4,other
68291,73,33,1483,629,0.0,2-4,other
68292,48,13,2760,2040,7.0,2-3,minor
68293,63,45,297,1615,7.0,3-7B,other
68294,60,32,223,72,7.0,3-7B,other
68295,58,28,108,809,2.0,2-3,minor
68296,63,42,434,122,2.0,2-3,minor
68297,60,39,240,67,2.0,2-3,minor
68298,60,29,151,1848,5.0,2-2,other
68299,48,31,293,118,5.0,2-2,other
68300,51,35,432,1802,5.0,2-4,other
68301,53,24,204,1995,8.0,2-2,other
68302,56,25,536,988,5.0,2-2,other
68303,56,55,202,864,10.0,2-5,other
68304,63,31,316,332,10.0,2-5,other
68305,59,73,2712,652,5.0,3-8B,other
68306,39,57,2376,36,5.0,3-8B,other
68307,27,86,2023,999,5.0,3-8B,other
68308,39,57,161,1975,5.0,3-8B,other
68309,55,35,466,312,11.0,3-8A,other
68310,61,18,175,2297,3.0,3-9,other
68311,54,79,507,609,0.0,4-26,other
68312,79,52,142,1409,7.0,3-7B,other
68313,58,38,1341,2139,6.0,2-2,other
68314,86,47,103,1788,7.0,2-3,minor
68315,53,39,324,379,3.0,2-5,other
68316,87,51,1288,917,8.0,1-1,other
68317,63,63,286,1557,10.0,2-5,other
68318,60,33,96,65,10.0,2-5,other
68319,58,29,158,34,10.0,2-5,other
68320,61,20,147,700,10.0,2-5,other
68321,64,41,237,1136,5.0,4-20,major
68322,61,33,79,156,5.0,4-20,major
68323,61,55,291,717,2.0,1-1,other
68324,79,57,662,315,3.0,3-12,augmented
68325,73,21,81,79,3.0,3-12,augmented
68326,76,36,118,410,3.0,3-12,augmented
68327,61,31,273,75,3.0,3-12,augmented
68328,58,34,238,1125,2.0,3-7B,other
68329,71,46,526,312,4.0,3-7A,minor
68330,72,47,465,34,4.0,3-7A,minor
68331,64,42,108,1601,11.0,1-1,other
68332,67,56,293,340,4.0,2-2,other
68333,61,54,202,538,4.0,2-2,other
68334,73,47,195,31,4.0,2-2,other
68335,72,41,110,255,4.0,2-2,other
68336,60,33,415,26,4.0,2-2,other
68337,64,17,240,151,4.0,2-2,other
68338,60,25,221,636,4.0,2-3,minor
68339,55,44,221,120,4.0,2-3,minor
68340,68,45,405,1126,0.0,2-4,other
68341,64,22,280,29,0.0,2-4,other
68342,57,51,821,664,9.0,3-11A,minor
68343,52,50,859,898,0.0,2-4,major
68344,51,40,218,749,0.0,2-4,major
68345,65,55,956,105,0.0,2-4,major
68346,53,47,912,65,2.0,3-7B,other
68347,52,41,264,943,2.0,3-7B,other
68348,57,51,648,1256,0.0,2-5,other
68349,55,32,552,28,0.0,2-5,other
68350,53,33,256,632,0.0,2-5,other
68351,57,38,468,312,0.0,2-5,other
68352,54,32,269,664,0.0,2-5,other
68353,56,29,86,164,0.0,2-5,other
68354,56,37,230,847,2.0,3-7B,other
68355,60,38,355,295,9.0,1-1,other
68356,65,22,432,94,9.0,1-1,other
68357,58,49,849,636,3.0,4-16A,other
68358,56,37,341,962,3.0,4-16A,other
68359,59,39,220,250,3.0,2-5,other
68360,71,60,835,655,3.0,2-5,other
68361,60,19,794,96,10.0,2-1,other
68362,68,15,708,65,5.0,2-1,other
68363,55,31,197,835,5.0,2-1,other
68364,57,44,144,101,5.0,2-1,other
68365,60,38,459,177,4.0,2-5,other
68366,67,25,211,87,4.0,2-5,other
68367,60,52,195,604,4.0,2-5,other
68368,59,31,835,1239,11.0,2-3,minor
68369,58,50,266,732,11.0,2-3,minor
68370,64,65,552,309,9.0,4-26,minor
68371,61,25,413,557,9.0,4-26,minor
68372,64,29,159,163,9.0,4-26,minor
68373,76,49,290,226,9.0,3-7A,minor
68374,83,35,104,1118,4.0,3-7A,minor
68375,74,37,112,548,7.0,2-3,minor
68376,84,35,240,295,7.0,2-3,minor
68377,76,19,437,45,7.0,2-3,minor
68378,83,44,638,1467,6.0,2-3,minor
68379,47,41,996,4039,11.0,2-2,other
68380,69,53,1425,718,6.0,2-3,other
68381,57,52,1125,36,6.0,2-3,other
68382,47,72,204,878,6.0,2-3,other
68383,59,34,1111,1356,4.0,3-7A,minor
68384,55,42,488,1922,4.0,4-4B,other
68385,90,50,220,1508,7.0,2-4,major
68386,91,24,84,264,4.0,2-3,minor
68387,89,29,99,28,4.0,2-3,minor
68388,88,46,120,869,4.0,4-26,minor
68389,76,38,231,55,4.0,4-26,minor
68390,82,50,392,696,4.0,4-26,minor
68391,55,38,430,142,4.0,2-2,other
68392,59,33,413,31,4.0,2-2,other
68393,76,32,175,154,4.0,2-2,other
68394,86,46,103,4560,7.0,1-1,other
68395,55,29,101,2088,1.0,2-3,minor
68396,83,34,132,2503,4.0,1-1,other
68397,81,46,1680,545,0.0,2-4,major
68398,54,40,396,1917,4.0,2-2,other
68399,74,53,223,3824,9.0,2-5,other
68400,54,52,692,628,2.0,3-9,other
68401,81,25,132,348,4.0,2-2,other
68402,51,33,320,6386,3.0,1-1,other
68403,54,33,123,93,3.0,1-1,other
68404,51,34,281,856,0.0,3-4A,other
68405,54,33,183,65,0.0,3-4A,other
68406,63,43,447,225,0.0,3-4A,other
68407,51,21,159,2425,0.0,4-20,other
68408,65,60,410,153,0.0,3-11B,other
68409,53,50,292,27,0.0,3-11B,other
68410,53,36,525,568,5.0,2-5,other
68411,56,46,426,3689,8.0,4-28,diminished
68412,68,54,421,28,8.0,4-28,diminished
68413,59,46,111,491,11.0,3-10,diminished
68414,67,56,167,41,11.0,3-10,diminished
68415,53,42,553,28,11.0,3-10,diminished
68416,84,62,906,1755,8.0,2-2,other
68417,83,30,848,88,5.0,3-4A,other
68418,82,37,229,2228,9.0,2-6,other
68419,82,48,947,922,9.0,2-6,other
68420,51,51,157,1686,7.0,2-3,minor
68421,52,49,74,169,7.0,2-3,minor
68422,51,39,198,606,7.0,4-27A,minor
68423,55,53,427,213,10.0,3-11A,other
68424,55,42,261,626,1.0,3-10,minor
68425,46,31,322,5166,3.0,4-14A,other
68426,58,49,693,218,6.0,2-3,other
68427,61,32,1478,30,6.0,2-3,other
68428,54,52,540,917,6.0,2-3,other
68429,64,38,74,84,2.0,4-18B,minor
68430,55,65,414,2471,5.0,2-4,other
68431,56,58,565,428,5.0,2-4,other
68432,58,68,1130,602,5.0,2-4,other
68433,57,52,372,1223,5.0,2-4,other
68434,56,62,396,602,5.0,2-4,other
68435,42,32,204,1005,11.0,2-2,other
68436,68,49,376,2327,6.0,3-7B,other
68437,48,41,394,991,3.0,3-11B,major
68438,82,52,320,2765,3.0,3-11B,major
68439,62,40,74,28,3.0,3-11B,major
68440,82,25,67,2694,0.0,2-5,other
68441,79,38,109,1144,7.0,3-2B,minor
68442,85,31,150,403,7.0,3-2B,minor
68443,58,51,169,321,5.0,4-20,other
68444,60,37,147,331,5.0,4-20,other
68445,77,47,153,54,5.0,4-20,other
68446,61,33,150,44,5.0,4-20,other
68447,65,40,204,32,5.0,4-20,other
68448,89,25,145,112,5.0,4-20,other
68449,58,28,117,162,0.0,2-4,other
68450,65,41,192,113,5.0,2-4,other
68451,58,30,164,216,5.0,3-11A,other
68452,61,51,179,96,5.0,3-11A,other
68453,77,49,153,49,5.0,3-11A,other
68454,65,42,132,40,5.0,3-11A,other
68455,61,52,166,285,0.0,2-2,other
68456,65,50,173,95,0.0,2-2,other
68457,77,44,116,36,0.0,2-2,other
68458,61,52,153,239,10.0,3-9,other
68459,65,45,176,90,10.0,3-9,other
68460,77,47,101,82,10.0,3-9,other
68461,61,52,146,238,5.0,2-5,other
68462,65,50,197,39,5.0,2-5,other
68463,77,51,118,114,5.0,2-5,other
68464,89,47,104,171,0.0,2-2,other
68465,61,46,160,63,0.0,2-2,other
68466,65,40,202,60,0.0,2-2,other
68467,77,54,152,70,0.0,2-2,other
68468,61,39,339,314,10.0,3-9,other
68469,77,53,154,68,10.0,3-9,other
68470,65,39,142,27,10.0,3-9,other
68471,56,35,149,97,10.0,3-9,other
68472,78,42,174,781,1.0,2-3,minor
68473,87,31,117,261,1.0,2-3,minor
68474,61,33,166,251,7.0,2-1,other
68475,90,37,172,46,7.0,2-1,other
68476,87,42,171,42,7.0,2-1,other
68477,55,52,220,88,7.0,2-1,other
68478,78,47,169,41,7.0,2-1,other
68479,61,45,310,112,7.0,2-1,other
68480,66,30,308,34,7.0,2-1,other
68481,78,33,178,216,6.0,2-3,other
68482,89,33,185,525,1.0,4-21,other
68483,79,43,186,336,1.0,4-21,other
68484,87,34,454,216,1.0,4-21,other
68485,61,40,125,263,1.0,4-21,other
68486,79,33,155,177,1.0,4-21,other
68487,42,36,304,2718,0.0,2-3,minor
68488,39,35,209,1042,0.0,5-35,other
68489,60,40,509,265,2.0,4-22B,minor
68490,39,35,170,689,2.0,4-22B,minor
68491,61,25,1682,197,2.0,4-22B,minor
68492,58,53,1614,74,4.0,3-6,major
68493,39,37,273,1626,4.0,3-6,major
68494,42,47,480,271,4.0,3-6,major
68495,58,33,781,74,1.0,3-11A,minor
68496,39,37,274,616,1.0,3-11A,minor
68497,43,55,670,271,1.0,3-11A,minor
68498,39,31,301,658,1.0,3-11A,minor
68499,44,56,660,2183,0.0,3-11B,other
68500,39,32,181,688,0.0,3-11B,other
68501,63,52,109,2863,4.0,2-1,other
68502,90,51,417,357,4.0,2-6,other
68503,87,37,165,699,4.0,2-6,other
68504,90,50,331,312,4.0,2-6,other
68505,75,35,677,43,4.0,2-6,other
68506,90,44,228,607,4.0,2-6,other
68507,58,33,371,165,0.0,2-3,minor
68508,92,44,518,1097,8.0,1-1,other
68509,80,43,464,37,8.0,1-1,other
68510,63,42,150,605,8.0,1-1,other
68511,60,15,274,52,8.0,1-1,other
68512,58,18,412,109,8.0,1-1,other
68513,92,53,446,179,8.0,1-1,other
68514,80,37,420,32,8.0,1-1,other
68515,63,31,285,1408,8.0,1-1,other
68516,63,55,118,2045,4.0,2-6,other
68517,52,32,144,66,4.0,2-6,other
68518,58,20,173,101,4.0,2-6,other
68519,97,62,654,1117,1.0,2-3,other
68520,82,46,460,41,1.0,2-3,other
68521,63,33,400,792,1.0,2-3,other
68522,60,29,340,40,1.0,2-3,other
68523,58,44,415,43,1.0,2-3,other
68524,53,24,262,63,1.0,2-3,other
68525,95,47,187,1861,0.0,2-3,minor
68526,96,71,394,78,0.0,2-3,minor
68527,60,33,326,541,0.0,2-3,minor
68528,96,75,481,386,0.0,2-3,minor
68529,96,71,409,657,0.0,2-3,minor
68530,63,46,936,75,0.0,2-3,minor
68531,96,56,487,593,4.0,2-6,other
68532,95,67,564,671,4.0,2-6,other
68533,58,43,1247,740,3.0,2-5,other
68534,52,30,974,37,3.0,2-5,other
68535,95,68,342,1654,3.0,2-5,other
68536,63,35,1034,195,3.0,2-5,other
68537,60,28,1221,29,3.0,2-5,other
68538,96,53,463,228,3.0,2-5,other
68539,58,15,674,334,3.0,2-5,other
68540,99,68,440,527,3.0,2-5,other
68541,60,17,345,726,3.0,2-5,other
68542,96,44,363,233,3.0,2-5,other
68543,95,54,533,947,3.0,2-5,other
68544,63,19,795,867,3.0,2-5,other
68545,58,33,449,41,3.0,2-5,other
68546,94,35,389,1025,4.0,2-6,other
68547,63,30,386,694,4.0,2-6,other
68548,52,17,121,127,4.0,2-6,other
68549,94,42,550,124,4.0,2-6,other
68550,95,31,383,1016,4.0,2-6,other
68551,63,13,775,795,4.0,2-6,other
68552,60,33,527,55,4.0,2-6,other
68553,96,32,391,29,4.0,2-6,other
68554,58,32,492,98,4.0,2-6,other
68555,58,29,1299,1621,0.0,1-1,other
68556,58,25,501,2218,4.0,2-6,other
68557,95,22,1255,1483,4.0,2-6,other
68558,53,22,1250,37,4.0,2-6,other
68559,64,22,1267,64,4.0,2-6,other
68560,83,22,1049,54,4.0,2-6,other
68561,59,21,838,357,4.0,2-6,other
68562,63,18,375,1829,4.0,2-6,other
68563,96,18,383,38,4.0,2-6,other
68564,53,18,259,69,4.0,2-6,other
68565,58,18,280,54,4.0,2-6,other
68566,63,11,622,3621,0.0,2-3,minor
68567,58,11,499,77,4.0,2-6,other
68568,63,8,1584,1412,4.0,2-6,other
68569,52,8,1258,92,10.0,1-1,other
68570,58,8,1429,54,10.0,1-1,other
68571,60,3,349,2405,0.0,2-2,other
68572,84,1,5273,1331,0.0,2-3,minor
68573,58,1,5556,37,0.0,2-3,minor
68574,60,1,5423,29,0.0,2-3,minor
68575,75,74,51,0,7.0,5-35,minor
68576,72,64,10,135,10.0,5-30B,other
68577,48,37,145,470,0.0,4-27B,major
68578,53,47,116,278,0.0,5-27B,other
68579,46,36,124,202,4.0,5-32B,other
68580,34,69,24,228,3.0,3-11B,major
68581,72,41,43,429,10.0,4-22A,major
68582,72,49,24,71,10.0,4-22A,major
68583,74,43,44,55,10.0,4-22A,major
68584,75,56,32,120,2.0,3-7A,minor
68585,75,58,35,59,2.0,3-7A,minor
68586,77,54,36,50,2.0,3-7A,minor
68587,75,33,60,484,5.0,1-1,other
68588,77,34,42,968,4.0,3-7B,other
68589,75,60,66,108,0.0,2-3,minor
68590,82,55,26,1023,0.0,2-1,other
68591,83,47,24,446,1.0,1-1,other
68592,87,74,54,460,0.0,3-7A,minor
68593,84,89,47,230,3.0,3-9,other
68594,82,69,37,74,3.0,3-9,other
68595,80,42,34,51,3.0,3-9,other
68596,77,54,20,209,8.0,2-1,other
68597,79,74,75,33,8.0,2-1,other
68598,71,57,26,980,0.0,2-3,minor
68599,63,32,12,526,3.0,4-16A,major
68600,61,38,9,1446,4.0,6-33B,major
68601,79,48,32,66,1.0,6-48,other
68602,79,27,42,135,1.0,6-48,other
68603,60,60,23,392,2.0,3-7A,minor
68604,62,46,58,48,2.0,3-7A,minor
68605,65,55,54,141,3.0,3-4A,major
68606,65,58,43,95,3.0,3-4A,major
68607,67,35,22,36,3.0,3-4A,major
68608,65,51,39,122,10.0,3-6,major
68609,60,24,12,41,10.0,3-6,major
68610,63,44,43,35,10.0,3-6,major
68611,66,31,30,111,0.0,3-8B,other
68612,70,75,51,108,7.0,2-2,other
68613,68,71,39,94,7.0,2-2,other
68614,65,42,39,91,7.0,2-2,other
68615,59,44,47,227,7.0,3-7A,minor
68616,62,58,37,214,8.0,3-10,minor
68617,71,60,70,115,7.0,3-1,other
68618,75,67,74,129,3.0,4-20,major
68619,80,52,72,2273,3.0,3-9,other
68620,79,51,57,392,3.0,4-16A,other
68621,80,60,65,81,3.0,4-16A,other
68622,75,52,108,483,2.0,3-7A,minor
68623,53,63,31,1665,0.0,5-27B,other
68624,46,62,30,210,4.0,6-27B,other
68625,55,73,47,249,10.0,1-1,other
68626,56,44,58,52,10.0,1-1,other
68627,58,74,38,67,10.0,1-1,other
68628,60,54,51,54,10.0,1-1,other
68629,62,69,44,70,10.0,1-1,other
68630,63,35,49,53,10.0,1-1,other
68631,70,45,47,125,0.0,3-9,other
68632,74,69,36,60,0.0,3-9,other
68633,70,50,68,57,0.0,3-9,other
68634,67,57,66,213,10.0,4-22A,major
68635,72,49,13,446,2.0,3-7A,minor
68636,80,76,44,192,0.0,4-16A,other
68637,82,77,30,59,0.0,4-16A,other
68638,80,61,39,53,0.0,4-16A,other
68639,77,55,48,128,0.0,2-5,other
68640,75,76,47,91,0.0,2-5,other
68641,75,53,43,139,11.0,3-10,diminished
68642,74,47,34,34,11.0,3-10,diminished
68643,71,45,53,84,0.0,2-1,other
68644,67,54,39,125,8.0,4-13B,diminished
68645,65,46,29,63,8.0,4-13B,diminished
68646,63,32,64,58,8.0,4-13B,diminished
68647,65,68,43,104,7.0,3-11A,minor
68648,62,53,27,44,7.0,3-11A,minor
68649,63,56,34,39,7.0,3-11A,minor
68650,59,42,34,40,7.0,3-11A,minor
68651,62,65,41,49,7.0,3-11A,minor
68652,55,65,46,43,7.0,3-11A,minor
68653,55,74,62,65,7.0,3-11A,minor
68654,55,61,57,75,7.0,3-11A,minor
68655,55,78,71,78,7.0,3-11A,minor
68656,60,40,12,845,5.0,4-20,other
68657,84,71,21,47,5.0,4-20,other
68658,89,79,32,31,5.0,4-20,other
68659,61,38,19,166,1.0,2-3,other
68660,81,60,31,30,1.0,2-3,other
68661,87,73,27,39,1.0,2-3,other
68662,79,56,28,121,1.0,2-5,other
68663,78,45,34,90,1.0,1-1,other
68664,84,75,25,154,5.0,2-1,other
68665,82,67,26,42,5.0,2-1,other
68666,75,62,26,132,3.0,3-11B,major
68667,72,43,47,42,3.0,3-11B,major
68668,70,51,9,98,3.0,3-11B,major
68669,71,29,14,1271,0.0,4-26,minor
68670,74,99,66,41,0.0,4-26,minor
68671,72,50,57,125,3.0,2-4,other
68672,75,38,24,126,7.0,2-5,other
68673,79,60,21,45,7.0,2-5,other
68674,83,60,15,38,7.0,2-5,other
68675,85,57,24,189,3.0,4-16A,major
68676,84,65,31,27,3.0,4-16A,major
68677,83,61,23,33,3.0,4-16A,major
68678,57,25,16,116,3.0,4-19B,augmented
68679,82,46,24,35,3.0,4-19B,augmented
68680,81,49,36,26,3.0,4-19B,augmented
68681,79,58,21,34,3.0,4-19B,augmented
68682,74,78,64,178,3.0,3-4A,major
68683,72,44,55,131,3.0,3-3B,other
68684,75,71,66,121,0.0,5-20B,other
68685,70,85,63,235,0.0,3-11A,minor
68686,67,45,25,83,0.0,3-11A,minor
68687,68,25,55,47,0.0,3-11A,minor
68688,71,52,54,116,10.0,3-12,augmented
68689,73,40,31,65,10.0,3-12,augmented
68690,74,52,46,50,10.0,3-12,augmented
68691,77,40,41,122,4.0,2-6,other
68692,80,35,48,123,7.0,4-5B,other
68693,83,60,56,121,7.0,5-35,minor
68694,86,80,74,117,2.0,2-2,other
68695,83,48,25,79,2.0,2-2,other
68696,84,85,63,37,2.0,2-2,other
68697,75,47,63,123,2.0,4-23,minor
68698,74,36,15,81,2.0,4-23,minor
68699,77,74,61,31,2.0,4-23,minor
68700,62,25,32,85,2.0,4-23,minor
68701,75,70,372,29,2.0,4-23,minor
68702,67,55,271,74,2.0,4-23,minor
68703,60,59,15,125,2.0,4-23,minor
68704,79,62,25,474,0.0,4-16A,other
68705,82,72,47,41,0.0,4-16A,other
68706,79,36,21,52,0.0,4-16A,other
68707,80,62,35,40,0.0,4-16A,other
68708,76,40,20,43,0.0,4-16A,other
68709,79,70,43,42,0.0,4-16A,other
68710,77,69,35,80,4.0,2-5,other
68711,75,74,36,82,4.0,2-5,other
68712,71,46,43,60,4.0,2-5,other
68713,71,43,43,117,11.0,4-12B,diminished
68714,65,53,50,112,9.0,3-8B,other
68715,63,67,41,73,9.0,3-8B,other
68716,62,58,100,45,9.0,3-8B,other
68717,65,84,87,138,3.0,2-1,other
68718,58,63,68,234,2.0,2-5,other
68719,55,34,11,78,2.0,2-5,other
68720,80,26,14,448,0.0,1-1,other
68721,80,17,13,167,5.0,3-4A,other
68722,80,33,21,175,5.0,3-11B,other
68723,60,30,37,1995,3.0,4-16A,major
68724,75,77,40,673,7.0,4-23,minor
68725,77,61,33,139,10.0,5-30B,other
68726,74,66,31,332,7.0,4-26,minor
68727,75,53,20,145,1.0,4-13B,other
68728,75,57,35,331,0.0,4-26,other
68729,79,53,38,175,8.0,4-27A,diminished
68730,82,55,33,182,7.0,5-35,minor
68731,86,49,37,421,2.0,4-23,minor
68732,86,62,39,112,2.0,4-23,minor
68733,86,57,53,228,2.0,3-7A,minor
68734,87,47,26,187,2.0,2-3,minor
68735,88,62,25,28,2.0,2-3,minor
68736,89,67,37,36,2.0,2-3,minor
68737,82,37,59,132,2.0,3-7A,minor
68738,79,54,15,71,2.0,3-7A,minor
68739,84,115,60,519,10.0,4-16A,other
68740,84,49,35,143,1.0,4-15B,minor
68741,83,76,38,64,1.0,4-15B,minor
68742,82,55,40,63,1.0,4-15B,minor
68743,79,47,35,111,3.0,3-11A,other
68744,75,39,50,112,5.0,2-1,other
68745,75,52,30,115,2.0,3-5B,other
68746,76,62,31,31,2.0,3-5B,other
68747,74,63,72,70,5.0,2-4,major
68748,74,67,36,122,11.0,2-2,other
68749,71,58,18,40,11.0,2-2,other
68750,67,59,28,90,9.0,2-3,minor
68751,63,37,32,49,9.0,2-3,minor
68752,62,53,23,38,9.0,2-3,minor
68753,65,72,42,40,9.0,2-3,minor
68754,62,64,26,42,9.0,2-3,minor
68755,64,47,13,53,9.0,2-3,minor
68756,62,75,53,66,9.0,2-3,minor
68757,55,66,45,83,9.0,2-3,minor
68758,55,71,41,63,9.0,2-3,minor
68759,55,60,21,67,9.0,2-3,minor
68760,55,69,26,36,9.0,2-3,minor
68761,60,65,22,305,8.0,2-2,other
68762,57,43,21,35,8.0,2-2,other
68763,66,50,12,183,3.0,2-1,other
68764,67,41,31,32,3.0,2-1,other
68765,69,55,25,34,3.0,2-1,other
68766,72,55,25,65,1.0,3-10,minor
68767,73,31,26,31,1.0,3-10,minor
68768,78,35,10,93,9.0,2-2,other
68769,79,36,29,31,9.0,2-2,other
68770,86,77,35,134,3.0,2-4,other
68771,83,60,24,33,3.0,2-4,other
68772,81,53,29,66,0.0,2-4,other
68773,55,51,10,184,0.0,2-4,other
68774,82,71,32,35,0.0,2-4,other
68775,79,50,23,36,0.0,2-4,other
68776,80,67,32,42,0.0,2-4,other
68777,77,51,44,42,0.0,2-4,other
68778,77,37,16,333,7.0,1-1,other
68779,79,53,16,369,0.0,1-1,other
68780,84,51,18,183,2.0,1-1,other
68781,86,58,11,158,3.0,1-1,other
68782,87,55,25,196,5.0,1-1,other
68783,91,55,26,359,3.0,5-20B,major
68784,91,46,25,164,4.0,6-48,minor
68785,95,29,15,197,3.0,4-16A,major
68786,98,58,13,168,3.0,4-11A,major
68787,95,43,25,183,3.0,4-16A,major
68788,91,53,29,168,3.0,5-30B,augmented
68789,90,12,18,473,0.0,4-20,other
68790,88,50,25,88,3.0,5-12,other
68791,84,43,14,173,4.0,4-15B,other
68792,79,34,13,184,2.0,4-25,major
68793,82,62,70,203,5.0,3-9,other
68794,82,64,80,118,5.0,3-9,other
68795,82,64,81,120,5.0,3-9,other
68796,81,38,64,253,0.0,2-2,other
68797,84,50,56,133,10.0,3-11B,major
68798,82,55,20,68,10.0,3-11B,major
68799,80,85,51,385,0.0,3-8B,other
68800,79,37,57,125,8.0,2-2,other
68801,82,64,53,147,3.0,4-27A,other
68802,80,57,27,70,3.0,4-27A,other
68803,80,26,38,165,7.0,4-18A,major
68804,79,54,41,32,7.0,4-18A,major
68805,76,66,61,82,8.0,3-10,minor
68806,79,78,47,139,5.0,2-4,major
68807,77,71,36,72,5.0,2-4,major
68808,75,42,31,142,2.0,3-5B,other
68809,74,48,54,36,2.0,3-5B,other
68810,67,38,60,84,2.0,3-5B,other
68811,67,66,44,425,2.0,2-5,other
68812,65,25,58,55,2.0,2-5,other
68813,68,29,70,124,5.0,4-20,other
68814,68,52,62,116,5.0,4-20,other
68815,45,66,11,416,1.0,3-10,diminished
68816,67,27,52,170,1.0,3-7A,minor
68817,73,62,53,117,11.0,2-2,other
68818,72,46,51,131,3.0,3-4B,other
68819,72,49,36,73,3.0,3-4B,other
68820,67,49,35,43,3.0,3-4B,other
68821,79,71,77,123,3.0,2-4,major
68822,75,49,76,115,3.0,2-4,major
68823,79,47,31,534,1.0,5-29A,other
68824,75,53,25,413,2.0,2-3,minor
68825,60,50,36,161,3.0,3-4A,major
68826,77,66,45,778,10.0,5-30B,other
68827,74,54,51,46,10.0,5-30B,other
68828,46,49,104,707,0.0,4-26,minor
68829,46,50,62,206,4.0,5-32B,other
68830,46,86,279,236,4.0,5-25A,diminished
68831,60,91,84,161,4.0,5-25A,diminished
68832,58,44,58,133,4.0,5-25A,diminished
68833,58,46,297,119,0.0,3-7A,minor
68834,46,33,10,309,3.0,2-5,other
68835,57,77,70,36,3.0,2-5,other
68836,54,37,36,77,3.0,2-5,other
68837,55,57,65,51,3.0,2-5,other
68838,62,85,77,228,7.0,2-3,minor
68839,60,45,50,132,7.0,2-3,minor
68840,74,65,38,376,0.0,3-8B,other
68841,67,61,21,40,0.0,3-8B,other
68842,70,71,36,43,0.0,3-8B,other
68843,67,71,37,173,3.0,3-11A,other
68844,62,62,69,330,2.0,2-3,minor
68845,59,41,15,77,2.0,2-3,minor
68846,63,46,24,166,2.0,2-2,other
68847,67,46,26,76,2.0,2-2,other
68848,71,47,46,42,2.0,2-2,other
68849,79,79,35,125,3.0,3-4A,major
68850,74,68,22,38,3.0,3-4A,major
68851,74,61,27,85,3.0,3-6,major
68852,75,52,36,45,3.0,3-6,major
68853,74,66,54,80,7.0,2-4,major
68854,67,49,29,67,7.0,2-4,major
68855,67,40,37,60,7.0,2-4,major
68856,67,54,27,115,3.0,3-4A,major
68857,89,83,37,372,5.0,3-4A,other
68858,87,80,46,87,5.0,2-5,other
68859,85,75,37,235,1.0,3-10,diminished
68860,81,47,16,41,1.0,3-10,diminished
68861,79,45,16,169,0.0,2-2,other
68862,80,54,41,50,0.0,2-2,other
68863,79,57,30,111,3.0,3-9,other
68864,75,50,25,36,3.0,3-9,other
68865,77,62,28,40,3.0,3-9,other
68866,72,50,20,120,5.0,2-2,other
68867,72,54,25,42,5.0,2-2,other
68868,75,36,16,358,7.0,1-1,other
68869,91,46,34,1637,11.0,2-3,minor
68870,83,58,33,211,7.0,2-5,other
68871,79,41,33,103,11.0,2-3,minor
68872,79,22,21,64,3.0,3-11A,other
68873,76,53,38,31,3.0,3-11A,other
68874,73,49,28,32,3.0,3-11A,other
68875,71,40,29,125,10.0,3-3B,major
68876,64,57,41,440,8.0,2-2,other
68877,46,68,49,186,4.0,4-15B,other
68878,51,35,14,313,7.0,5-35,minor
68879,62,18,23,745,5.0,2-1,other
68880,51,56,70,186,4.0,4-27A,diminished
68881,38,68,22,194,2.0,4-27A,minor
68882,81,30,13,1696,3.0,4-9,other
68883,76,32,39,900,9.0,4-27B,major
68884,73,53,39,66,9.0,4-27B,major
68885,69,35,48,60,9.0,4-27B,major
68886,60,12,34,149,7.0,2-3,minor
68887,67,22,109,50,7.0,2-3,minor
68888,63,25,72,280,7.0,2-3,minor
68889,59,51,20,56,7.0,2-3,minor
68890,65,42,103,155,8.0,2-6,other
68891,56,25,36,83,8.0,2-6,other
68892,54,46,45,197,5.0,2-5,other
68893,58,31,76,443,3.0,2-1,other
68894,60,22,62,249,3.0,3-4A,major
68895,55,53,31,3671,5.0,3-2B,other
68896,48,39,35,825,3.0,5-27A,major
68897,61,34,10,1354,9.0,4-27B,major
68898,83,39,16,86,1.0,4-28,diminished
68899,83,31,12,813,3.0,2-5,other
68900,59,33,22,199,3.0,1-1,other
68901,93,89,68,438,2.0,4-23,minor
68902,94,42,38,45,2.0,4-23,minor
68903,95,54,29,37,2.0,4-23,minor
68904,93,71,57,83,2.0,3-7A,minor
68905,86,46,49,127,2.0,2-3,minor
68906,62,36,26,73,2.0,2-3,minor
68907,82,34,46,50,2.0,2-3,minor
68908,84,90,50,122,11.0,4-13A,diminished
68909,79,58,31,196,0.0,2-1,other
68910,76,27,62,55,0.0,2-1,other
68911,74,38,67,115,3.0,3-4A,major
68912,70,69,44,766,0.0,4-20,other
68913,67,44,54,53,0.0,4-20,other
68914,70,29,59,127,3.0,3-4B,other
68915,72,69,32,74,3.0,3-4B,other
68916,74,47,51,52,3.0,3-4B,other
68917,63,29,8,199,2.0,2-3,minor
68918,62,41,20,220,0.0,3-2B,minor
68919,82,10,24,335,2.0,4-23,minor
68920,43,71,18,1104,7.0,6-29,major
68921,47,46,19,370,3.0,4-24,augmented
68922,84,96,47,1477,5.0,4-20,other
68923,82,53,30,80,5.0,4-20,other
68924,70,39,54,172,0.0,3-11B,major
68925,69,45,63,107,0.0,2-2,other
68926,67,32,45,134,1.0,3-11A,minor
68927,60,34,60,111,9.0,3-8B,other
68928,64,71,8,1640,3.0,4-16A,major
68929,63,31,77,38,3.0,4-16A,major
68930,54,61,42,196,6.0,2-6,other
68931,55,46,17,120,6.0,2-6,other
68932,43,35,36,597,7.0,4-26,minor
68933,51,62,154,1417,3.0,4-20,other
68934,60,57,873,129,3.0,4-20,other
68935,65,66,781,86,3.0,4-20,other
68936,72,39,37,63,3.0,4-20,other
68937,74,62,21,40,3.0,4-20,other
68938,77,64,42,49,3.0,4-20,other
68939,79,52,32,38,3.0,4-20,other
68940,81,64,12,36,3.0,4-20,other
68941,84,71,31,40,3.0,4-20,other
68942,86,79,12,34,3.0,4-20,other
68943,89,65,39,45,3.0,4-20,other
68944,91,57,32,39,3.0,4-20,other
68945,93,73,16,34,3.0,4-20,other
68946,96,63,28,51,3.0,4-20,other
68947,98,57,22,35,3.0,4-20,other
68948,100,66,39,46,3.0,4-20,other
68949,101,77,489,57,3.0,4-20,other
68950,63,58,437,0,,,
68951,60,30,556,38,,,
68952,60,44,768,3067,3.0,2-5,other
68953,55,47,757,32,3.0,2-5,other
68954,41,38,938,2761,6.0,2-3,other
68955,59,40,883,203,6.0,2-3,other
68956,51,23,811,41,6.0,2-3,other
68957,61,52,920,32,6.0,2-3,other
68958,63,52,967,75,6.0,2-3,other
68959,67,56,1061,72,6.0,2-3,other
68960,61,54,199,1495,6.0,2-3,other
68961,63,52,90,104,6.0,2-3,other
68962,65,38,134,54,6.0,2-3,other
68963,67,48,196,80,6.0,2-3,other
68964,69,47,119,86,6.0,2-3,other
68965,71,48,115,91,6.0,2-3,other
68966,75,28,66,190,1.0,2-1,other
68967,77,39,92,75,1.0,2-1,other
68968,79,54,100,81,1.0,2-1,other
68969,81,33,49,74,1.0,2-1,other
68970,83,50,69,43,1.0,2-1,other
68971,89,54,126,230,1.0,2-2,other
68972,91,48,125,66,1.0,2-2,other
68973,93,50,43,79,1.0,2-2,other
68974,99,60,108,187,1.0,2-2,other
68975,101,44,96,105,1.0,2-2,other
68976,103,47,101,60,1.0,2-2,other
68977,105,71,97,42,1.0,2-2,other
68978,107,73,103,108,1.0,2-2,other
68979,66,38,219,5775,7.0,2-3,minor
68980,68,42,115,138,7.0,2-3,minor
68981,72,39,141,114,7.0,2-3,minor
68982,74,57,136,87,7.0,2-3,minor
68983,76,65,74,113,7.0,2-3,minor
68984,80,48,162,134,7.0,2-3,minor
68985,84,27,96,149,7.0,2-3,minor
68986,86,42,107,60,7.0,2-3,minor
68987,88,54,40,110,7.0,2-3,minor
68988,92,36,97,167,7.0,2-3,minor
68989,94,25,50,26,7.0,2-3,minor
68990,96,33,78,63,7.0,2-3,minor
68991,98,50,119,61,7.0,2-3,minor
68992,100,51,105,105,7.0,2-3,minor
68993,103,73,86,115,7.0,2-3,minor
68994,77,56,1477,2387,7.0,2-3,minor
68995,75,67,494,911,7.0,2-3,minor
68996,65,71,249,765,11.0,2-6,other
68997,79,60,377,517,11.0,2-6,other
68998,67,60,386,66,10.0,2-4,major
68999,77,57,287,547,10.0,2-4,major
69000,75,60,372,687,5.0,2-4,major
69001,72,48,495,772,3.0,2-5,other
69002,75,56,1212,1021,0.0,2-5,other
69003,72,55,338,1589,6.0,2-3,other
69004,53,27,1778,59,9.0,3-8B,other
69005,84,58,596,1137,0.0,1-1,other
69006,74,29,2646,81,3.0,3-6,major
69007,22,62,418,1881,5.0,2-5,other
69008,70,27,435,6373,2.0,4-16A,major
69009,70,69,282,1622,7.0,4-23,minor
69010,75,51,647,4668,1.0,4-22A,other
69011,67,22,549,919,0.0,4-19B,other
69012,52,39,538,442,0.0,4-19B,other
69013,55,51,452,548,0.0,4-19B,other
69014,53,46,354,595,0.0,4-19B,other
69015,63,47,1207,746,7.0,3-8A,major
69016,68,75,373,867,7.0,3-8A,major
69017,61,47,673,801,0.0,2-2,other
69018,68,53,499,95,4.0,1-1,other
69019,70,71,420,775,4.0,1-1,other
69020,84,103,892,1593,5.0,2-2,other
69021,74,63,310,931,3.0,4-16A,major
69022,77,80,619,372,3.0,4-16A,major
69023,75,80,594,336,3.0,4-16A,major
69024,72,53,326,387,3.0,4-16A,major
69025,63,19,1334,49,3.0,4-16A,major
69026,67,41,379,374,3.0,4-16A,major
69027,70,62,895,398,3.0,4-16A,major
69028,69,58,404,402,3.0,4-16A,major
69029,65,44,411,459,3.0,4-16A,major
69030,59,56,459,442,3.0,4-16A,major
69031,62,62,527,476,3.0,4-16A,major
69032,60,45,490,464,3.0,4-16A,major
69033,46,26,2916,595,0.0,2-3,minor
69034,63,52,119,1417,8.0,2-1,other
69035,53,41,929,972,2.0,2-3,minor
69036,71,57,572,3271,2.0,2-3,minor
69037,77,40,1466,3266,8.0,2-3,other
69038,75,44,149,2844,3.0,1-1,other
69039,48,24,690,3374,5.0,3-8A,major
69040,67,28,133,1957,1.0,6-33A,other
69041,65,37,1809,1691,8.0,5-24A,other
69042,65,66,1415,2679,9.0,4-27A,diminished
69043,67,57,727,540,9.0,4-27A,diminished
69044,63,67,362,1811,0.0,2-5,other
69045,60,53,283,376,0.0,2-5,other
69046,63,69,101,330,0.0,2-5,other
69047,55,53,426,820,5.0,2-5,other
69048,57,38,466,463,5.0,2-5,other
69049,62,53,177,450,5.0,2-5,other
69050,65,41,547,437,5.0,2-5,other
69051,63,38,404,66,5.0,2-5,other
69052,68,51,436,397,5.0,2-5,other
69053,56,36,945,537,7.0,2-5,other
69054,51,47,1869,1354,5.0,2-4,other
69055,58,1,323,800,1.0,2-3,other
69056,33,54,149,2091,1.0,5-30B,other
69057,75,49,861,1811,6.0,3-5B,other
69058,75,51,3259,1094,6.0,3-5B,other
69059,52,53,171,431,3.0,4-23,other
69060,53,58,232,192,3.0,4-23,other
69061,54,61,264,213,3.0,4-23,other
69062,55,54,1269,288,3.0,4-23,other
69063,56,49,515,1267,3.0,4-23,other
69064,55,44,592,547,3.0,4-23,other
69065,65,17,345,44,3.0,4-23,other
69066,53,47,592,713,7.0,3-11B,major
69067,36,47,205,1016,8.0,2-6,other
69068,48,15,74,2505,2.0,3-2A,minor
69069,60,52,372,40,2.0,3-2A,minor
69070,51,19,196,55,2.0,3-2A,minor
69071,46,46,915,1351,8.0,3-7B,other
69072,74,64,536,4070,10.0,1-1,other
69073,63,32,2349,1402,6.0,3-8A,other
69074,70,60,1274,3000,7.0,3-11A,minor
69075,45,68,104,3326,7.0,3-11A,minor
69076,84,92,1216,26,7.0,3-11A,minor
69077,69,26,388,2341,0.0,3-3B,other
69078,55,54,2563,1256,9.0,4-18B,other
69079,66,75,475,1165,7.0,4-26,minor
69080,65,60,1027,588,9.0,2-3,minor
69081,62,52,648,578,9.0,2-3,minor
69082,65,30,227,655,7.0,3-11A,minor
69083,74,45,118,1400,0.0,1-1,other
69084,86,39,1466,710,2.0,2-2,other
69085,98,52,1354,38,2.0,2-2,other
69086,41,46,312,1054,2.0,2-2,other
69087,57,26,2617,1108,2.0,2-5,other
69088,74,22,732,879,2.0,2-5,other
69089,86,53,666,80,2.0,2-5,other
69090,62,31,1386,46,2.0,2-5,other
69091,46,59,124,2241,2.0,2-5,other
69092,43,58,1453,1828,2.0,2-3,minor
69093,72,75,300,33,2.0,2-3,minor
69094,74,75,540,2752,3.0,2-4,major
69095,29,54,76,1326,0.0,3-11A,minor
69096,51,34,574,813,2.0,3-11B,major
69097,57,32,209,780,2.0,3-3A,major
69098,64,57,565,2809,1.0,3-10,minor
69099,41,31,1700,2519,3.0,1-1,other
69100,56,76,473,1184,0.0,2-5,other
69101,60,46,405,753,3.0,2-5,other
69102,46,29,225,494,8.0,2-6,other
69103,63,60,340,392,8.0,2-6,other
69104,58,23,226,555,8.0,2-3,other
69105,66,39,548,388,8.0,2-3,other
69106,56,25,678,595,8.0,2-6,other
69107,69,44,561,557,8.0,2-6,other
69108,46,32,426,1107,3.0,2-5,other
69109,55,42,483,467,3.0,2-5,other
69110,58,37,1063,507,3.0,2-5,other
69111,63,35,408,578,3.0,2-5,other
69112,77,53,121,426,3.0,2-5,other
69113,79,83,135,235,3.0,2-5,other
69114,70,61,386,298,5.0,3-9,other
69115,75,78,1998,419,5.0,3-9,other
69116,55,52,897,29,5.0,3-9,other
69117,62,65,531,909,3.0,2-4,major
69118,60,35,672,558,3.0,2-4,major
69119,72,51,224,541,3.0,2-4,major
69120,60,24,911,1359,2.0,5-24A,minor
69121,63,21,688,567,9.0,2-4,major
69122,53,36,100,1544,9.0,3-10,diminished
69123,62,50,41,970,8.0,2-3,minor
69124,56,38,612,497,10.0,2-4,other
69125,46,47,619,450,10.0,2-4,other
69126,68,62,359,952,5.0,3-3B,major
69127,39,45,432,519,7.0,2-5,other
69128,46,42,503,427,7.0,2-5,other
69129,75,82,235,963,0.0,3-11A,minor
69130,77,90,210,398,0.0,3-11A,minor
69131,79,96,190,381,0.0,3-11A,minor
69132,60,28,720,1289,11.0,2-3,minor
69133,75,60,374,381,11.0,2-3,minor
69134,72,44,117,61,11.0,2-3,minor
69135,60,27,78,871,0.0,2-4,other
69136,79,65,220,927,3.0,4-16A,major
69137,69,32,292,478,3.0,2-4,major
69138,77,69,350,370,3.0,2-4,major
69139,57,44,108,856,3.0,2-4,major
69140,46,61,123,449,3.0,2-4,major
69141,56,56,1529,419,3.0,2-4,major
69142,75,60,182,482,10.0,2-4,major
69143,70,39,177,26,10.0,2-4,major
69144,62,35,530,962,6.0,2-5,other
69145,77,34,121,501,8.0,2-3,other
69146,61,23,549,520,10.0,3-9,other
69147,55,28,75,509,10.0,3-9,other
69148,65,41,767,489,1.0,2-3,other
69149,51,73,121,2833,1.0,2-3,other
69150,55,45,443,4103,0.0,3-11A,minor
69151,36,36,814,4075,3.0,4-27A,other
69152,52,41,917,77,4.0,3-10,diminished
69153,66,65,394,2411,0.0,5-23A,minor
69154,66,56,594,765,0.0,5-23A,minor
69155,89,42,1224,6958,3.0,1-1,other
69156,46,40,371,2209,5.0,1-1,other
69157,39,37,789,391,5.0,1-1,other
69158,50,25,676,2454,7.0,4-26,minor
69159,58,39,1128,736,0.0,3-11A,minor
69160,60,25,206,793,0.0,3-11A,minor
69161,63,46,106,317,0.0,3-11A,minor
69162,41,22,220,435,3.0,1-1,other
69163,79,76,246,709,3.0,1-1,other
69164,60,29,79,1197,0.0,4-20,other
69165,46,25,148,2349,2.0,3-11B,major
69166,46,23,1496,564,3.0,5-27A,major
69167,55,38,122,1177,3.0,5-27A,major
69168,63,60,146,288,3.0,5-27A,major
69169,65,69,143,222,3.0,5-27A,major
69170,67,88,181,222,3.0,5-27A,major
69171,58,56,123,1374,0.0,2-3,minor
69172,55,31,99,28,0.0,2-3,minor
69173,60,33,268,330,0.0,2-3,minor
69174,63,51,66,315,0.0,2-3,minor
69175,84,99,902,1206,7.0,3-9,other
69176,80,25,250,810,9.0,2-6,other
69177,81,68,311,368,9.0,2-6,other
69178,56,32,516,401,7.0,3-11B,major
69179,81,44,270,348,7.0,3-11B,major
69180,82,79,652,399,7.0,3-11B,major
69181,46,28,98,1129,8.0,2-2,other
69182,58,63,1419,1169,10.0,4-14A,other
69183,72,60,209,856,10.0,4-14A,other
69184,70,57,106,330,10.0,4-14A,other
69185,45,37,182,2461,1.0,4-24,other
69186,51,1,1972,748,0.0,5-35,other
69187,70,93,724,464,0.0,5-35,other
69188,44,35,298,1160,0.0,2-3,minor
69189,67,85,209,890,8.0,5-31B,diminished
69190,68,90,1089,377,8.0,5-31B,diminished
69191,70,70,320,779,3.0,3-8B,other
69192,71,58,328,347,3.0,3-8B,other
69193,91,85,352,1159,2.0,3-5B,other
69194,41,55,43,307,2.0,3-5B,other
69195,86,70,257,42,2.0,3-5B,other
69196,87,79,365,722,7.0,3-6,major
69197,63,36,551,407,7.0,2-4,major
69198,86,78,334,350,7.0,2-4,major
69199,84,65,530,378,7.0,2-4,major
69200,57,18,91,1090,3.0,3-6,major
69201,79,55,333,65,3.0,3-6,major
69202,82,69,250,751,0.0,2-4,other
69203,79,78,192,279,0.0,2-4,other
69204,80,69,202,260,0.0,2-4,other
69205,56,55,226,1024,7.0,2-2,other
69206,56,40,876,431,8.0,3-8B,other
69207,96,71,204,220,8.0,3-8B,other
69208,92,65,134,156,8.0,3-8B,other
69209,89,61,50,116,8.0,3-8B,other
69210,86,44,74,122,8.0,3-8B,other
69211,85,61,153,120,8.0,3-8B,other
69212,84,57,127,117,8.0,3-8B,other
69213,83,47,106,162,8.0,3-8B,other
69214,82,60,104,113,8.0,3-8B,other
69215,66,33,679,63,8.0,3-8B,other
69216,56,36,741,26,8.0,3-8B,other
69217,81,60,158,46,8.0,3-8B,other
69218,83,30,47,41,8.0,3-8B,other
69219,80,65,386,73,8.0,3-8B,other
69220,84,70,266,425,8.0,3-8B,other
69221,82,27,40,47,8.0,3-8B,other
69222,80,62,210,152,8.0,3-8B,other
69223,77,45,114,159,8.0,3-8B,other
69224,79,52,85,167,8.0,3-8B,other
69225,80,45,61,93,8.0,3-8B,other
69226,79,74,443,100,8.0,3-8B,other
69227,67,62,117,364,0.0,4-23,minor
69228,39,58,329,394,0.0,4-23,minor
69229,51,50,263,461,0.0,4-26,minor
69230,65,68,159,335,0.0,4-26,minor
69231,67,78,81,365,0.0,4-26,minor
69232,63,60,354,1609,4.0,2-2,other
69233,60,31,348,360,4.0,2-2,other
69234,63,48,284,415,4.0,2-2,other
69235,48,17,250,43,4.0,2-2,other
69236,41,33,218,378,3.0,4-16A,major
69237,89,80,121,722,3.0,4-16A,major
69238,86,69,96,153,3.0,4-16A,major
69239,84,67,103,525,9.0,2-6,other
69240,81,37,89,213,9.0,2-6,other
69241,80,51,92,138,9.0,2-6,other
69242,79,42,107,145,9.0,2-6,other
69243,78,35,67,153,9.0,2-6,other
69244,77,28,94,129,9.0,2-6,other
69245,76,24,134,498,3.0,2-4,major
69246,77,71,185,244,3.0,2-4,major
69247,75,73,220,295,3.0,2-4,major
69248,68,55,158,605,0.0,3-9,other
69249,67,35,174,321,0.0,3-9,other
69250,66,49,183,303,0.0,3-9,other
69251,53,25,49,207,0.0,3-9,other
69252,60,17,228,780,7.0,2-2,other
69253,65,36,57,488,0.0,3-7B,other
69254,47,37,385,706,0.0,3-7B,other
69255,77,82,183,847,10.0,4-22A,major
69256,77,82,231,359,10.0,4-22A,major
69257,62,57,347,416,7.0,4-26,minor
69258,69,40,48,1260,5.0,3-7B,other
69259,62,35,622,3785,1.0,5-34,minor
69260,51,51,3846,1288,10.0,3-11A,other
69261,59,65,487,728,10.0,3-11A,other
69262,72,79,254,974,10.0,4-14A,other
69263,70,71,145,348,10.0,4-14A,other
69264,45,34,132,2528,7.0,2-1,other
69265,63,42,129,1722,0.0,4-26,minor
69266,44,36,199,796,0.0,2-2,other
69267,70,62,147,2536,0.0,2-4,other
69268,63,29,360,478,2.0,4-23,minor
69269,48,47,163,299,2.0,4-23,minor
69270,60,44,200,1663,3.0,2-4,major
69271,53,9,2062,99,3.0,2-4,major
69272,63,42,327,1154,8.0,2-2,other
69273,65,58,761,946,8.0,2-2,other
69274,45,58,425,846,0.0,3-11A,minor
69275,75,93,354,769,0.0,3-11A,minor
69276,75,74,289,1254,9.0,4-27A,diminished
69277,70,88,496,4459,7.0,3-11A,minor
69278,69,64,151,371,7.0,3-11A,minor
69279,68,65,151,136,7.0,3-11A,minor
69280,67,70,1171,150,7.0,3-11A,minor
69281,33,57,62,2827,7.0,3-11A,minor
69282,38,62,117,2541,5.0,5-30B,other
69283,54,37,241,1875,2.0,3-11A,minor
69284,62,49,434,1781,7.0,3-11A,minor
69285,55,37,540,578,7.0,3-11A,minor
69286,72,68,353,1220,10.0,3-12,augmented
69287,62,57,501,566,5.0,2-5,other
69288,74,62,235,581,5.0,2-5,other
69289,98,67,137,1263,0.0,3-7B,other
69290,94,60,144,61,0.0,3-7B,other
69291,91,48,92,93,0.0,3-7B,other
69292,88,38,54,141,0.0,3-7B,other
69293,87,51,118,140,0.0,3-7B,other
69294,86,62,95,117,0.0,3-7B,other
69295,85,52,40,117,4.0,3-8B,other
69296,84,50,103,61,4.0,3-8B,other
69297,83,48,87,139,4.0,3-8B,other
69298,82,50,73,136,4.0,3-8B,other
69299,86,53,118,157,4.0,3-8B,other
69300,82,35,62,70,4.0,3-8B,other
69301,79,50,145,69,4.0,3-8B,other
69302,76,49,360,161,4.0,3-8B,other
69303,63,33,273,317,9.0,2-2,other
69304,75,41,44,139,9.0,2-2,other
69305,79,57,120,108,9.0,2-2,other
69306,75,39,104,67,9.0,2-2,other
69307,72,52,65,78,9.0,2-2,other
69308,69,33,60,123,9.0,2-2,other
69309,68,32,77,149,9.0,2-2,other
69310,67,55,72,91,9.0,2-2,other
69311,65,36,68,229,9.0,2-2,other
69312,64,41,58,91,9.0,2-2,other
69313,63,57,135,135,5.0,2-2,other
69314,67,72,108,251,5.0,2-2,other
69315,63,58,118,185,5.0,2-2,other
69316,48,14,201,93,5.0,2-2,other
69317,60,48,81,72,5.0,2-2,other
69318,57,44,94,133,5.0,2-2,other
69319,55,54,142,232,5.0,2-2,other
69320,54,64,100,140,5.0,2-2,other
69321,46,34,483,94,5.0,2-2,other
69322,53,55,330,36,5.0,2-2,other
69323,56,69,432,3032,7.0,6-32,minor
69324,70,55,743,562,7.0,6-32,minor
69325,43,50,128,597,7.0,3-7A,minor
69326,67,46,491,1789,0.0,2-3,minor
69327,57,47,159,2420,0.0,4-26,minor
69328,56,25,590,1196,10.0,2-4,major
69329,70,64,125,716,10.0,2-4,major
69330,70,76,163,267,10.0,2-4,major
69331,70,73,164,601,8.0,3-8A,other
69332,70,71,123,279,8.0,3-8A,other
69333,70,69,157,290,8.0,3-8A,other
69334,55,78,2074,297,1.0,2-3,other
69335,70,69,173,348,1.0,2-3,other
69336,70,71,150,290,1.0,2-3,other
69337,70,64,149,283,1.0,2-3,other
69338,70,64,157,626,4.0,2-6,other
69339,70,58,147,277,4.0,2-6,other
69340,70,60,190,311,4.0,2-6,other
69341,70,52,149,940,3.0,2-5,other
69342,70,56,148,298,3.0,2-5,other
69343,70,52,133,613,10.0,1-1,other
69344,70,52,125,294,10.0,1-1,other
69345,70,49,206,296,10.0,1-1,other
69346,70,51,136,653,8.0,3-8B,other
69347,70,55,138,308,8.0,3-8B,other
69348,70,55,131,296,8.0,3-8B,other
69349,70,58,138,642,10.0,2-4,other
69350,70,54,113,307,10.0,2-4,other
69351,70,62,151,322,10.0,2-4,other
69352,70,60,148,657,3.0,2-1,other
69353,70,51,138,302,3.0,2-1,other
69354,70,65,199,329,3.0,2-1,other
69355,65,80,161,907,0.0,2-3,minor
69356,58,35,134,1963,0.0,2-3,minor
69357,55,35,168,26,0.0,2-3,minor
69358,60,27,166,721,0.0,2-3,minor
69359,63,45,197,326,0.0,2-3,minor
69360,56,10,681,383,0.0,3-11A,minor
69361,63,33,942,1252,0.0,2-4,other
69362,55,80,429,587,0.0,2-4,other
69363,53,55,585,1298,3.0,2-4,major
69364,51,84,265,2596,0.0,4-23,minor
69365,51,65,232,333,0.0,4-23,minor
69366,53,74,172,695,0.0,5-14B,other
69367,55,92,259,239,0.0,5-14B,other
69368,53,36,44,32,0.0,5-14B,other
69369,55,82,232,328,0.0,5-14B,other
69370,51,52,1496,852,5.0,2-5,other
69371,67,42,149,706,5.0,2-5,other
69372,41,33,426,1370,9.0,4-27A,diminished
69373,72,94,1120,757,9.0,4-27A,diminished
69374,57,34,985,599,3.0,3-4A,major
69375,71,57,178,614,3.0,3-4A,major
69376,72,105,289,397,3.0,3-4A,major
69377,74,78,131,2021,2.0,3-4A,major
69378,77,88,268,301,2.0,3-4A,major
69379,76,81,282,338,2.0,3-4A,major
69380,72,51,496,1019,1.0,4-21,other
69381,71,24,43,41,1.0,4-21,other
69382,58,47,96,1176,10.0,4-14A,other
69383,39,57,158,621,10.0,4-14A,other
69384,51,38,179,2747,0.0,5-27A,other
69385,67,44,87,824,0.0,3-11A,minor
69386,65,31,711,1929,3.0,3-12,augmented
69387,55,33,115,616,3.0,3-12,augmented
69388,76,46,315,773,0.0,5-26A,augmented
69389,70,1,517,114,0.0,5-26A,augmented
69390,57,64,672,2222,7.0,2-5,other
69391,51,28,523,940,9.0,2-4,major
69392,51,23,141,904,9.0,2-3,minor
69393,63,25,304,4240,3.0,1-1,other
69394,77,47,1774,1026,3.0,1-1,other
69395,46,47,365,3734,3.0,2-4,major
69396,58,35,1567,873,10.0,2-5,other
69397,67,32,206,975,10.0,3-11B,major
69398,58,44,118,1038,7.0,3-11A,minor
69399,51,37,1683,1237,8.0,2-2,other
69400,58,38,928,658,2.0,2-3,minor
69401,65,62,498,2099,0.0,3-11B,other
69402,62,24,797,802,10.0,2-5,other
69403,72,49,1072,681,10.0,2-5,other
69404,81,45,1020,3713,3.0,2-5,other
69405,58,38,863,554,7.0,3-9,other
69406,62,39,334,453,7.0,3-9,other
69407,81,47,170,1015,10.0,1-1,other
69408,86,64,176,455,10.0,2-4,major
69409,93,71,197,240,10.0,2-4,major
69410,79,20,71,76,10.0,2-4,major
69411,90,62,139,142,10.0,2-4,major
69412,91,58,172,227,10.0,2-4,major
69413,93,62,168,239,10.0,2-4,major
69414,74,25,448,86,10.0,2-4,major
69415,94,54,90,136,10.0,2-4,major
69416,98,54,209,247,10.0,2-4,major
69417,108,47,274,255,10.0,2-4,major
69418,105,49,221,306,10.0,2-4,major
69419,106,32,227,295,10.0,2-4,major
69420,34,48,92,0,8.0,4-27B,other
69421,35,43,48,524,8.0,4-28,diminished
69422,60,78,60,548,5.0,3-11B,major
69423,62,66,88,212,0.0,2-1,other
69424,65,71,108,124,0.0,2-1,other
69425,67,82,132,148,0.0,2-1,other
69426,67,58,48,1008,9.0,4-18A,major
69427,69,117,324,1636,9.0,2-3,minor
69428,48,41,256,200,9.0,2-3,minor
69429,67,57,76,136,9.0,2-3,minor
69430,65,58,92,28,9.0,2-3,minor
69431,60,62,44,200,9.0,2-3,minor
69432,59,61,56,84,9.0,2-3,minor
69433,67,67,120,628,10.0,4-11A,major
69434,65,74,52,160,10.0,4-11A,major
69435,65,63,44,668,5.0,3-11B,major
69436,69,19,384,36,5.0,3-11B,major
69437,72,79,76,316,5.0,3-11B,major
69438,74,70,36,140,5.0,3-11B,major
69439,60,44,76,344,10.0,3-9,other
69440,59,56,116,156,10.0,3-9,other
69441,60,32,36,520,4.0,3-10,diminished
69442,29,67,36,472,5.0,3-11B,major
69443,65,58,112,352,9.0,3-5B,other
69444,62,29,32,192,9.0,2-2,other
69445,62,50,148,724,1.0,4-10,other
69446,65,72,52,152,1.0,4-10,other
69447,67,78,52,152,1.0,4-10,other
69448,72,88,76,520,5.0,4-29B,major
69449,70,28,60,204,0.0,3-3A,major
69450,74,68,32,140,0.0,3-3A,major
69451,32,43,96,1264,8.0,5-24A,other
69452,51,59,52,500,7.0,4-21,major
69453,53,71,176,60,4.0,5-31B,major
69454,65,73,136,328,4.0,3-11A,minor
69455,48,61,160,1684,5.0,3-11B,major
69456,41,58,108,1404,8.0,4-27B,other
69457,34,63,116,164,8.0,4-27B,other
69458,61,89,84,516,9.0,3-8A,major
69459,67,58,104,356,9.0,3-11B,major
69460,69,62,44,164,9.0,3-11B,major
69461,64,46,52,216,3.0,4-16A,major
69462,41,57,20,484,2.0,3-11A,minor
69463,29,60,40,828,3.0,4-22A,major
69464,69,48,88,244,9.0,2-1,other
69465,72,79,72,100,9.0,2-1,other
69466,77,66,56,496,10.0,2-5,other
69467,62,40,32,172,10.0,2-5,other
69468,74,57,96,344,8.0,3-10,diminished
69469,47,33,48,176,8.0,3-10,diminished
69470,74,111,140,712,5.0,3-11B,major
69471,65,57,132,2204,7.0,3-11B,major
69472,36,58,64,704,7.0,6-47A,other
69473,67,22,76,776,9.0,4-18A,major
69474,64,34,124,528,1.0,3-10,other
69475,72,84,72,872,2.0,4-26,minor
69476,50,40,144,188,0.0,3-4A,other
69477,69,63,100,28,0.0,3-4A,other
69478,65,68,36,280,0.0,2-5,other
69479,39,74,1080,356,1.0,4-22A,other
69480,67,56,44,1712,10.0,4-22A,major
69481,72,79,152,516,5.0,3-11B,major
69482,72,57,64,512,3.0,2-1,other
69483,50,61,268,212,3.0,2-1,other
69484,74,57,16,316,3.0,2-1,other
69485,50,55,56,540,10.0,5-30B,other
69486,67,75,236,504,8.0,4-12A,minor
69487,36,56,68,824,11.0,5-36A,diminished
69488,36,54,52,164,11.0,5-36A,diminished
69489,58,24,152,244,10.0,3-11A,other
69490,38,66,172,788,10.0,3-11B,major
69491,74,75,52,508,10.0,3-11B,major
69492,44,31,32,636,5.0,3-11B,major
69493,77,102,132,696,8.0,4-27B,other
69494,65,63,136,164,8.0,4-27B,other
69495,62,49,84,348,8.0,3-10,diminished
69496,71,66,72,152,8.0,3-10,diminished
69497,60,9,152,244,9.0,2-3,minor
69498,60,58,32,272,9.0,2-3,minor
69499,64,44,256,204,9.0,3-3A,major
69500,67,60,108,312,9.0,3-3A,major
69501,38,63,240,532,2.0,3-11A,minor
69502,35,49,32,524,2.0,3-11A,minor
69503,74,117,444,548,10.0,3-11B,major
69504,72,63,100,380,10.0,3-11B,major
69505,65,58,72,148,10.0,3-11B,major
69506,72,71,140,352,2.0,4-26,minor
69507,69,66,96,648,1.0,3-10,minor
69508,65,25,56,228,9.0,4-23,minor
69509,36,64,232,1348,5.0,3-11B,major
69510,69,102,244,196,5.0,3-11B,major
69511,72,63,40,312,5.0,3-11B,major
69512,50,27,32,36,5.0,3-11B,major
69513,72,66,48,316,7.0,4-21,major
69514,60,60,44,168,7.0,4-21,major
69515,67,72,112,384,0.0,5-26A,augmented
69516,60,58,72,164,0.0,5-26A,augmented
69517,40,51,52,172,0.0,5-26A,augmented
69518,60,75,88,428,5.0,3-11B,major
69519,61,61,60,212,5.0,2-5,other
69520,62,54,120,60,5.0,2-5,other
69521,65,66,60,132,5.0,2-5,other
69522,67,43,32,200,5.0,2-5,other
69523,24,33,120,308,0.0,4-16B,major
69524,65,61,68,2202,0.0,1-1,other
69525,72,65,52,252,5.0,4-14B,major
69526,59,57,76,92,5.0,4-14B,major
69527,31,80,96,464,9.0,5-35,minor
69528,32,55,60,732,0.0,3-4A,major
69529,40,28,56,164,0.0,3-1,other
69530,59,53,48,248,2.0,5-27B,minor
69531,46,75,116,244,11.0,2-2,other
69532,39,53,72,372,0.0,4-19B,augmented
69533,60,52,64,388,11.0,2-6,other
69534,72,60,48,376,4.0,4-14B,major
69535,40,23,48,508,9.0,5-35,minor
69536,59,56,28,48,9.0,5-35,minor
69537,52,31,28,420,4.0,2-5,other
69538,59,77,264,64,2.0,4-26,minor
69539,28,92,112,244,2.0,4-26,minor
69540,40,2,76,80,2.0,4-26,minor
69541,59,66,32,324,2.0,4-26,minor
69542,55,72,88,228,8.0,2-3,minor
69543,47,71,48,388,8.0,4-12B,minor
69544,44,54,20,280,10.0,2-1,other
69545,65,72,64,148,10.0,2-1,other
69546,77,68,48,320,11.0,2-3,minor
69547,59,64,56,220,3.0,4-16A,major
69548,40,25,48,72,2.0,4-23,minor
69549,59,70,268,28,2.0,4-23,minor
69550,40,36,32,208,2.0,4-23,minor
69551,34,80,32,28,2.0,4-23,minor
69552,40,32,32,348,3.0,4-16A,major
69553,65,57,360,144,0.0,6-18B,major
69554,40,37,24,232,0.0,6-18B,major
69555,59,60,28,428,1.0,5-29B,other
69556,46,99,348,68,1.0,5-29B,other
69557,40,20,72,816,11.0,4-10,minor
69558,60,65,48,104,11.0,4-10,minor
69559,65,63,52,116,11.0,4-10,minor
69560,40,26,40,28,11.0,4-10,minor
69561,72,70,48,212,4.0,5-18A,major
69562,57,34,28,48,4.0,5-18A,major
69563,40,28,64,500,5.0,7-35,major
69564,59,49,28,28,5.0,7-35,major
69565,46,61,236,60,5.0,7-35,major
69566,69,55,32,64,11.0,6-12A,diminished
69567,40,48,100,220,11.0,6-12A,diminished
69568,51,35,124,164,5.0,6-22B,other
69569,59,58,28,640,2.0,4-11A,major
69570,59,56,28,776,4.0,3-3A,major
69571,40,38,84,720,0.0,3-1,other
69572,34,106,360,124,0.0,2-1,other
69573,40,27,40,264,4.0,2-5,other
69574,53,35,44,160,4.0,6-49,other
69575,75,78,84,508,5.0,2-1,other
69576,40,41,32,84,5.0,2-1,other
69577,58,28,72,84,0.0,2-2,other
69578,75,66,84,196,0.0,5-22,augmented
69579,40,25,56,88,0.0,5-22,augmented
69580,53,66,48,64,0.0,2-2,other
69581,76,48,64,240,4.0,4-8,other
69582,59,66,44,108,3.0,2-1,other
69583,40,46,72,364,4.0,3-8B,other
69584,40,31,36,392,9.0,3-9,other
69585,40,39,56,392,9.0,4-6,other
69586,59,48,40,44,9.0,4-6,other
69587,40,29,40,360,0.0,7-6A,other
69588,44,113,80,108,0.0,7-6A,other
69589,59,68,188,32,0.0,7-6A,other
69590,40,35,32,228,0.0,7-6A,other
69591,53,57,24,40,0.0,7-6A,other
69592,36,68,48,1380,4.0,3-7B,other
69593,40,26,140,244,9.0,5-36B,other
69594,59,82,228,32,9.0,5-36B,other
69595,72,60,56,476,9.0,3-9,other
69596,57,25,32,60,9.0,3-9,other
69597,62,27,332,1012,5.0,6-38,major
69598,46,50,100,880,11.0,5-25A,diminished
69599,47,47,100,140,11.0,5-25A,diminished
69600,48,52,40,136,7.0,3-3A,major
69601,39,48,72,120,7.0,3-3A,major
69602,40,90,32,100,7.0,3-3A,major
69603,59,54,28,32,7.0,3-3A,major
69604,36,85,28,504,4.0,4-14B,major
69605,72,58,52,104,4.0,4-14B,major
69606,59,45,36,160,4.0,4-25,other
69607,40,27,48,136,7.0,5-23B,major
69608,40,33,36,228,7.0,5-23B,major
69609,40,33,48,372,9.0,2-5,other
69610,35,74,72,48,9.0,2-5,other
69611,40,33,36,332,11.0,2-3,minor
69612,36,75,44,52,11.0,2-3,minor
69613,59,57,40,368,2.0,4-26,minor
69614,39,68,124,228,11.0,2-6,other
69615,40,73,48,112,11.0,2-6,other
69616,44,55,60,260,4.0,2-5,other
69617,38,51,64,68,4.0,2-5,other
69618,45,68,100,60,4.0,2-5,other
69619,59,71,28,48,4.0,2-5,other
69620,44,63,84,160,4.0,2-5,other
69621,65,53,72,52,4.0,2-5,other
69622,70,50,64,124,4.0,2-5,other
69623,38,61,44,80,4.0,2-5,other
69624,40,29,72,88,11.0,2-3,minor
69625,77,63,44,72,11.0,2-3,minor
69626,40,28,40,184,3.0,4-16A,major
69627,40,28,196,128,7.0,6-47A,other
69628,59,58,28,244,7.0,6-47A,other
69629,54,39,104,596,4.0,3-5B,other
69630,40,35,68,532,8.0,3-2A,minor
69631,59,55,36,48,8.0,3-2A,minor
69632,70,22,44,1052,0.0,1-1,other
69633,72,61,56,332,10.0,2-1,other
69634,59,57,36,508,9.0,3-7A,minor
69635,74,82,80,368,4.0,4-14B,major
69636,67,52,64,328,5.0,4-16A,other
69637,65,58,68,40,5.0,4-16A,other
69638,64,57,44,64,5.0,4-16A,other
69639,69,74,112,596,11.0,2-3,minor
69640,37,81,140,168,11.0,2-3,minor
69641,43,91,28,588,4.0,2-5,other
69642,38,99,112,136,4.0,2-5,other
69643,44,74,104,84,4.0,2-5,other
69644,40,30,40,292,3.0,2-5,other
69645,58,40,44,424,0.0,3-6,major
69646,34,57,44,416,0.0,3-4A,major
69647,75,61,72,212,10.0,3-11B,major
69648,75,56,88,376,4.0,3-5A,other
69649,59,79,200,220,0.0,3-4A,major
69650,40,35,140,68,3.0,4-6,other
69651,77,54,72,104,3.0,4-6,other
69652,75,57,128,52,3.0,4-6,other
69653,72,54,56,84,3.0,4-6,other
69654,40,26,36,512,11.0,2-6,other
69655,40,35,48,244,11.0,2-6,other
69656,59,107,292,88,11.0,2-6,other
69657,40,51,100,292,9.0,3-4B,other
69658,40,33,32,404,7.0,2-4,major
69659,40,35,108,120,8.0,2-3,minor
69660,40,18,36,416,10.0,2-5,other
69661,44,79,72,328,4.0,3-11A,minor
69662,52,45,588,244,4.0,4-5B,other
69663,72,60,96,252,11.0,3-5A,other
69664,38,37,28,96,11.0,3-5A,other
69665,73,62,76,28,11.0,3-5A,other
69666,36,81,92,28,11.0,3-5A,other
69667,77,52,64,228,4.0,3-7B,other
69668,40,39,68,88,4.0,3-7B,other
69669,80,82,56,172,11.0,5-28B,diminished
69670,86,63,92,64,11.0,5-28B,diminished
69671,80,49,60,76,11.0,5-28B,diminished
69672,77,63,52,64,11.0,5-28B,diminished
69673,38,29,40,36,11.0,5-28B,diminished
69674,79,65,64,56,3.0,2-1,other
69675,77,75,64,176,10.0,3-3A,major
69676,79,70,72,88,10.0,3-3A,major
69677,38,46,76,68,10.0,3-3A,major
69678,77,80,60,32,10.0,3-3A,major
69679,38,32,48,356,11.0,2-2,other
69680,41,76,40,60,11.0,2-2,other
69681,59,63,32,104,10.0,2-4,major
69682,38,3,80,52,10.0,2-4,major
69683,38,47,76,156,10.0,2-4,major
69684,59,85,76,36,10.0,2-4,major
69685,48,101,352,104,10.0,2-4,major
69686,38,38,36,228,11.0,2-3,minor
69687,41,75,32,80,2.0,4-27A,minor
69688,44,60,28,100,10.0,5-2A,major
69689,69,46,136,492,4.0,6-29,major
69690,72,19,96,84,4.0,6-29,major
69691,39,78,60,492,9.0,4-23,minor
69692,59,72,220,56,9.0,4-23,minor
69693,38,53,84,1396,8.0,3-7A,minor
69694,61,27,60,776,3.0,3-3B,major
69695,38,36,36,28,3.0,3-3B,major
69696,38,27,40,152,8.0,5-19A,minor
69697,38,44,92,700,4.0,3-7B,other
69698,64,48,56,64,10.0,3-1,other
69699,40,108,400,384,11.0,2-3,minor
69700,65,44,28,184,10.0,2-4,major
69701,38,28,44,64,10.0,2-4,major
69702,65,43,212,168,10.0,4-18A,major
69703,65,42,244,400,8.0,2-6,other
69704,62,26,256,32,8.0,2-6,other
69705,38,34,80,176,8.0,2-6,other
69706,38,9,76,436,8.0,3-10,other
69707,38,35,32,144,8.0,3-10,other
69708,38,37,36,200,8.0,3-10,other
69709,53,34,64,40,8.0,3-10,other
69710,62,49,276,852,5.0,4-29B,major
69711,52,46,68,292,10.0,2-4,major
69712,52,41,60,376,11.0,2-3,minor
69713,38,32,44,100,11.0,5-25A,diminished
69714,51,52,344,628,11.0,5-26A,diminished
69715,38,105,104,868,2.0,2-4,major
69716,56,66,76,168,7.0,2-4,major
69717,50,53,836,120,11.0,3-1,other
69718,43,41,440,432,10.0,2-4,major
69719,54,48,56,96,7.0,5-23B,major
69720,57,63,72,96,7.0,5-23B,major
69721,54,55,64,76,7.0,5-23B,major
69722,55,48,36,92,7.0,3-11B,major
69723,53,47,112,32,7.0,3-11B,major
69724,58,66,44,148,11.0,2-2,other
69725,62,71,96,80,11.0,2-2,other
69726,38,26,40,52,11.0,2-2,other
69727,66,70,64,36,11.0,2-2,other
69728,66,57,52,200,10.0,3-1,other
69729,67,53,68,80,10.0,3-1,other
69730,72,57,68,292,8.0,4-12A,other
69731,73,62,56,100,8.0,4-12A,other
69732,38,36,80,52,8.0,4-12A,other
69733,75,61,20,60,11.0,1-1,other
69734,78,48,24,208,2.0,2-2,other
69735,79,40,20,120,2.0,2-2,other
69736,38,27,36,36,2.0,2-2,other
69737,82,66,44,164,8.0,3-10,diminished
69738,58,38,32,268,1.0,3-6,other
69739,57,32,148,868,11.0,5-10A,diminished
69740,38,36,36,588,8.0,4-13A,diminished
69741,59,60,124,548,8.0,3-8B,other
69742,83,50,72,512,4.0,5-19A,other
69743,80,45,44,124,10.0,2-4,major
69744,77,51,36,32,10.0,2-4,major
69745,36,107,244,480,11.0,2-3,minor
69746,77,68,108,132,11.0,2-3,minor
69747,34,78,76,368,11.0,2-6,other
69748,71,56,60,200,2.0,2-5,other
69749,57,38,144,348,4.0,2-2,other
69750,57,43,84,620,2.0,2-3,minor
69751,40,26,40,84,2.0,2-3,minor
69752,40,25,48,116,2.0,2-3,minor
69753,40,37,44,292,3.0,5-19A,other
69754,40,23,52,412,0.0,2-3,minor
69755,34,61,56,468,4.0,3-4A,major
69756,69,56,216,92,4.0,5-15,other
69757,40,23,52,1128,3.0,2-5,other
69758,40,33,32,220,9.0,4-23,minor
69759,72,29,24,76,8.0,1-1,other
69760,57,65,60,116,9.0,2-6,other
69761,65,39,28,240,2.0,5-27B,minor
69762,57,25,120,152,2.0,4-27A,minor
69763,40,32,36,184,2.0,4-27A,minor
69764,48,50,64,44,2.0,4-27A,minor
69765,42,23,36,392,3.0,3-4B,other
69766,40,25,48,348,3.0,2-4,other
69767,51,45,32,400,5.0,2-1,other
69768,27,22,32,48,5.0,2-1,other
69769,62,58,240,64,0.0,5-21B,other
69770,51,83,188,360,4.0,3-5A,other
69771,22,84,56,96,4.0,3-5A,other
69772,40,26,40,156,4.0,3-5A,other
69773,40,36,32,380,7.0,4-23,minor
69774,51,49,32,28,7.0,4-23,minor
69775,34,87,88,32,7.0,4-23,minor
69776,72,2,160,116,3.0,2-1,other
69777,40,28,72,232,3.0,2-1,other
69778,65,41,188,164,1.0,4-23,other
69779,40,39,40,1352,7.0,4-22B,minor
69780,51,61,28,28,7.0,4-22B,minor
69781,40,47,80,1508,7.0,3-9,other
69782,68,54,64,420,4.0,5-14A,minor
69783,44,58,200,1280,6.0,2-3,other
69784,40,32,36,640,0.0,2-4,major
69785,36,30,36,44,0.0,2-4,major
69786,46,55,112,100,9.0,2-6,other
69787,40,26,44,252,9.0,2-6,other
69788,34,104,364,68,9.0,2-6,other
69789,51,63,200,48,9.0,2-6,other
69790,51,54,28,264,8.0,2-2,other
69791,50,48,132,120,1.0,5-36B,other
69792,66,68,80,88,1.0,5-36B,other
69793,44,52,36,1444,4.0,3-4A,major
69794,39,79,124,640,3.0,3-1,other
69795,80,56,60,636,4.0,2-4,major
69796,85,27,24,164,2.0,5-9B,other
69797,80,43,52,116,3.0,3-7B,other
69798,80,45,72,124,3.0,3-7B,other
69799,86,74,76,116,4.0,2-1,other
69800,79,50,64,252,4.0,4-29A,minor
69801,40,35,80,92,4.0,4-29A,minor
69802,79,44,76,272,4.0,2-3,minor
69803,78,50,84,376,4.0,2-6,other
69804,86,70,172,384,6.0,3-2A,other
69805,34,66,72,40,6.0,3-2A,other
69806,35,65,32,148,10.0,2-4,major
69807,51,80,132,436,3.0,6-27A,other
69808,39,60,44,328,3.0,2-1,other
69809,38,22,56,372,2.0,4-26,minor
69810,38,39,36,360,2.0,3-7B,other
69811,50,27,44,56,2.0,3-7B,other
69812,38,29,40,364,2.0,5-25B,minor
69813,44,46,40,112,2.0,5-25B,minor
69814,38,15,44,40,2.0,5-25B,minor
69815,65,47,100,232,0.0,3-8B,other
69816,38,93,56,320,3.0,2-1,other
69817,44,62,40,160,5.0,3-1,other
69818,47,54,20,252,2.0,2-2,other
69819,41,97,92,88,2.0,2-2,other
69820,51,58,184,44,2.0,2-2,other
69821,38,25,60,600,1.0,6-27B,other
69822,49,42,52,72,1.0,6-27B,other
69823,62,39,244,104,2.0,5-25B,minor
69824,38,34,32,212,2.0,5-25B,minor
69825,38,41,92,384,0.0,3-11B,other
69826,48,36,52,32,0.0,3-11B,other
69827,38,26,40,160,11.0,6-23,diminished
69828,65,42,72,248,3.0,5-31A,other
69829,38,42,88,332,7.0,4-27B,major
69830,47,66,60,268,3.0,2-4,other
69831,38,32,52,108,3.0,2-4,other
69832,41,64,68,44,3.0,2-4,other
69833,33,104,360,100,3.0,2-4,other
69834,44,57,80,32,3.0,2-4,other
69835,24,80,28,140,3.0,2-4,other
69836,38,27,48,84,3.0,2-4,other
69837,38,14,64,596,0.0,4-19B,other
69838,54,58,88,392,1.0,3-1,other
69839,56,59,44,92,1.0,3-1,other
69840,38,37,80,60,1.0,3-1,other
69841,59,68,56,28,1.0,3-1,other
69842,61,57,60,76,6.0,2-6,other
69843,66,60,52,164,4.0,2-2,other
69844,68,50,20,64,4.0,2-2,other
69845,51,54,36,92,11.0,3-2A,minor
69846,73,53,40,52,11.0,3-2A,minor
69847,38,32,60,296,3.0,3-4B,other
69848,38,32,32,396,1.0,3-9,other
69849,72,56,64,288,3.0,2-1,other
69850,77,31,28,352,3.0,4-16A,other
69851,79,63,56,80,3.0,4-16A,other
69852,57,36,536,128,3.0,4-8,other
69853,51,66,228,28,3.0,4-8,other
69854,84,66,56,140,2.0,2-5,other
69855,86,87,72,84,2.0,2-5,other
69856,38,71,40,128,4.0,2-2,other
69857,38,18,44,124,3.0,4-5A,other
69858,84,66,60,56,3.0,4-5A,other
69859,81,57,80,96,3.0,4-5A,other
69860,38,32,44,48,3.0,4-5A,other
69861,77,52,44,52,3.0,4-5A,other
69862,38,28,64,100,5.0,2-2,other
69863,63,26,44,280,3.0,2-1,other
69864,77,51,24,204,7.0,2-1,other
69865,38,35,36,120,3.0,3-4A,major
69866,77,66,76,88,3.0,3-4A,major
69867,71,57,36,224,2.0,1-1,other
69868,40,33,48,72,2.0,1-1,other
69869,35,81,88,56,2.0,2-3,minor
69870,51,54,44,320,10.0,2-4,major
69871,38,31,44,32,10.0,2-4,major
69872,72,42,68,36,10.0,2-4,major
69873,51,75,188,44,10.0,2-4,major
69874,38,104,96,32,10.0,2-4,major
69875,74,69,92,92,10.0,2-4,major
69876,40,33,56,156,10.0,2-4,major
69877,38,30,56,208,0.0,4-27A,minor
69878,70,62,56,28,0.0,4-27A,minor
69879,69,58,28,84,0.0,4-27A,minor
69880,60,32,188,208,3.0,4-2B,major
69881,57,45,28,684,3.0,1-1,other
69882,38,39,80,340,3.0,2-5,other
69883,44,61,72,144,3.0,3-11A,other
69884,38,37,40,220,3.0,3-11A,other
69885,65,45,216,184,0.0,2-3,minor
69886,38,38,32,192,0.0,2-3,minor
69887,58,34,28,72,10.0,2-4,major
69888,57,55,548,1104,2.0,3-2A,minor
69889,41,81,32,780,4.0,2-2,other
69890,38,31,72,120,0.0,7-34,other
69891,38,29,84,400,8.0,5-24A,other
69892,38,37,64,604,10.0,2-4,major
69893,32,78,80,44,10.0,2-4,major
69894,34,69,40,740,3.0,2-1,other
69895,34,67,28,300,8.0,2-2,other
69896,34,60,40,104,2.0,5-5A,minor
69897,102,31,96,516,9.0,6-12A,diminished
69898,59,57,76,184,9.0,6-12A,diminished
69899,36,89,64,1968,1.0,4-6,other
69900,88,65,112,144,0.0,5-26B,augmented
69901,40,31,32,620,11.0,2-6,other
69902,40,23,48,764,3.0,4-4A,major
69903,59,56,28,48,3.0,4-4A,major
69904,67,45,212,120,1.0,3-6,other
69905,59,77,264,364,0.0,4-22B,minor
69906,28,92,112,244,0.0,4-22B,minor
69907,53,26,32,40,0.0,4-22B,minor
69908,59,66,32,364,8.0,4-12B,minor
69909,59,75,304,868,8.0,3-2B,other
69910,22,79,48,120,8.0,3-2B,other
69911,40,29,36,124,8.0,3-2B,other
69912,38,96,360,512,10.0,4-18A,major
69913,40,25,48,32,10.0,4-18A,major
69914,59,70,104,28,10.0,4-18A,major
69915,40,36,32,208,8.0,3-10,other
69916,34,80,32,28,8.0,3-10,other
69917,74,54,56,116,4.0,4-18A,major
69918,71,31,208,492,4.0,3-5B,other
69919,40,37,24,116,4.0,3-5B,other
69920,59,60,28,428,3.0,2-1,other
69921,46,99,348,68,3.0,2-1,other
69922,59,89,192,416,4.0,3-11B,major
69923,40,20,72,400,0.0,2-1,other
69924,40,26,40,248,8.0,4-23,minor
69925,59,49,28,788,9.0,4-26,minor
69926,46,61,236,60,9.0,4-26,minor
69927,40,48,100,284,5.0,3-11B,major
69928,76,30,40,212,0.0,2-5,other
69929,74,45,48,224,5.0,4-20,major
69930,59,58,28,368,9.0,3-11B,major
69931,64,23,28,32,9.0,3-11B,major
69932,63,39,76,240,7.0,5-23B,major
69933,40,50,96,460,3.0,2-5,other
69934,59,96,228,540,9.0,3-4B,other
69935,40,38,84,224,9.0,3-4B,other
69936,59,57,28,64,9.0,3-4B,other
69937,40,27,40,324,4.0,2-5,other
69938,40,40,48,536,9.0,3-2B,minor
69939,58,46,24,32,9.0,3-2B,minor
69940,46,48,48,32,9.0,3-2B,minor
69941,62,72,56,40,9.0,3-2B,minor
69942,53,43,36,36,9.0,3-2B,minor
69943,66,60,56,32,9.0,3-2B,minor
69944,55,32,28,228,0.0,5-21B,other
69945,70,64,48,68,9.0,1-1,other
69946,58,45,20,44,9.0,1-1,other
69947,72,61,52,28,9.0,1-1,other
69948,48,109,376,204,4.0,2-2,other
69949,80,43,20,136,11.0,2-5,other
69950,82,54,36,68,11.0,2-5,other
69951,34,74,140,88,4.0,2-5,other
69952,40,46,72,324,8.0,2-2,other
69953,40,39,56,784,0.0,1-1,other
69954,40,29,40,404,5.0,1-1,other
69955,59,68,188,140,8.0,2-3,other
69956,53,57,24,268,4.0,3-5A,other
69957,70,44,56,172,4.0,3-11A,minor
69958,68,43,100,64,4.0,3-11A,minor
69959,56,39,64,48,4.0,3-11A,minor
69960,65,57,44,44,4.0,3-11A,minor
69961,58,57,52,608,0.0,3-4A,major
69962,65,28,68,44,0.0,3-4A,major
69963,60,46,48,28,0.0,3-4A,major
69964,56,58,136,268,4.0,3-7B,other
69965,36,68,48,104,4.0,3-7B,other
69966,41,95,28,392,11.0,2-2,other
69967,72,55,80,36,11.0,2-2,other
69968,69,47,56,44,11.0,2-2,other
69969,65,63,152,208,9.0,3-9,other
69970,40,34,32,204,9.0,3-9,other
69971,59,75,168,164,9.0,3-11A,minor
69972,53,48,156,68,9.0,3-11A,minor
69973,77,57,24,1956,0.0,4-7,other
69974,59,54,28,160,5.0,3-4A,major
69975,84,78,56,108,11.0,2-6,other
69976,86,96,64,120,11.0,2-6,other
69977,57,22,28,196,5.0,2-2,other
69978,36,85,28,80,4.0,4-14B,major
69979,40,27,48,400,11.0,3-5A,other
69980,65,31,40,116,11.0,3-5A,other
69981,72,55,72,248,8.0,3-10,diminished
69982,35,74,72,284,5.0,2-1,other
69983,55,57,40,224,0.0,3-3A,minor
69984,36,75,44,160,4.0,3-5B,other
69985,53,46,72,100,4.0,3-11B,major
69986,53,45,52,516,0.0,1-1,other
69987,53,43,76,268,4.0,2-5,other
69988,38,51,64,152,0.0,2-4,other
69989,36,82,64,140,11.0,2-6,other
69990,44,63,84,128,4.0,2-5,other
69991,53,54,56,76,4.0,2-5,other
69992,38,61,44,180,0.0,3-6,other
69993,40,29,72,88,11.0,1-1,other
69994,40,28,196,384,3.0,3-4A,other
69995,53,49,36,108,3.0,3-4A,other
69996,53,52,52,500,0.0,2-4,other
69997,46,30,36,44,0.0,2-4,other
69998,40,18,172,112,10.0,4-18A,major
69999,59,55,36,656,5.0,2-1,other
70000,59,72,236,104,0.0,4-24,augmented
70001,53,48,36,92,0.0,4-24,augmented
70002,53,50,36,780,10.0,4-2A,major
70003,62,61,88,400,0.0,2-2,other
70004,62,42,162,682,4.0,4-14B,major
70005,62,56,84,226,4.0,4-14B,major
70006,60,48,192,140,4.0,2-5,other
70007,62,60,96,240,4.0,2-5,other
70008,56,55,332,164,1.0,3-7B,other
70009,57,56,228,360,11.0,2-3,minor
70010,60,56,80,240,11.0,2-3,minor
70011,37,81,140,28,11.0,2-3,minor
70012,43,49,132,484,4.0,2-5,other
70013,38,99,112,240,4.0,2-5,other
70014,44,74,104,84,4.0,2-5,other
70015,34,95,340,60,4.0,3-5A,other
70016,40,30,40,232,4.0,3-5A,other
70017,38,106,392,120,4.0,3-5A,other
70018,40,32,72,268,10.0,1-1,other
70019,62,63,44,48,10.0,1-1,other
70020,54,60,28,108,1.0,5-35,minor
70021,34,57,44,296,4.0,2-5,other
70022,40,23,164,476,1.0,4-26,minor
70023,59,79,200,332,4.0,2-5,other
70024,40,35,140,68,10.0,2-5,other
70025,41,48,96,540,6.0,1-1,other
70026,39,40,72,120,4.0,2-5,other
70027,41,45,108,304,5.0,2-1,other
70028,40,35,48,32,5.0,2-1,other
70029,59,107,292,88,5.0,2-1,other
70030,40,33,32,696,8.0,2-3,minor
70031,40,35,108,120,8.0,2-3,minor
70032,40,18,36,416,0.0,2-1,other
70033,44,79,72,328,1.0,3-7A,minor
70034,60,35,28,316,4.0,2-2,other
70035,85,54,88,176,2.0,1-1,other
70036,84,47,56,56,2.0,1-1,other
70037,36,81,92,100,11.0,1-1,other
70038,40,39,68,316,2.0,1-1,other
70039,38,39,40,28,2.0,1-1,other
70040,39,75,152,412,2.0,1-1,other
70041,41,76,40,808,11.0,2-3,minor
70042,38,3,80,156,0.0,2-1,other
70043,59,85,76,192,2.0,2-4,major
70044,92,68,104,232,11.0,2-3,minor
70045,41,75,32,180,2.0,2-4,major
70046,44,60,28,100,7.0,4-17,other
70047,87,46,48,112,7.0,4-17,other
70048,62,46,104,536,11.0,2-3,minor
70049,62,48,92,388,2.0,1-1,other
70050,39,78,60,32,2.0,1-1,other
70051,59,72,220,56,2.0,1-1,other
70052,55,46,80,544,8.0,2-3,minor
70053,56,37,184,188,10.0,2-4,major
70054,53,51,108,320,11.0,3-10,diminished
70055,53,49,96,372,2.0,2-3,minor
70056,38,57,68,1480,3.0,2-1,other
70057,38,44,92,148,4.0,1-1,other
70058,38,25,44,280,4.0,1-1,other
70059,38,28,44,416,8.0,1-1,other
70060,59,57,48,28,8.0,1-1,other
70061,38,34,80,748,8.0,2-6,other
70062,52,30,96,364,7.0,1-1,other
70063,38,35,32,216,5.0,1-1,other
70064,38,37,36,200,3.0,1-1,other
70065,59,60,156,120,0.0,2-1,other
70066,68,39,28,84,0.0,2-1,other
70067,38,24,88,312,11.0,2-6,other
70068,65,49,28,72,11.0,2-6,other
70069,44,44,116,32,11.0,2-6,other
70070,68,39,68,48,11.0,2-6,other
70071,45,38,72,100,11.0,2-3,minor
70072,36,98,372,108,10.0,2-1,other
70073,47,48,80,28,10.0,2-1,other
70074,71,49,56,32,10.0,2-1,other
70075,65,56,68,488,8.0,2-6,other
70076,38,32,44,236,11.0,3-8B,other
70077,38,33,36,236,11.0,3-8B,other
70078,38,34,44,744,11.0,3-10,diminished
70079,58,37,136,224,7.0,5-29B,minor
70080,38,47,56,164,7.0,5-29B,minor
70081,38,105,104,128,5.0,4-6,other
70082,59,43,36,32,5.0,4-6,other
70083,59,72,232,324,2.0,2-5,other
70084,34,63,28,180,2.0,2-2,other
70085,89,46,32,324,5.0,2-1,other
70086,89,46,28,128,4.0,2-5,other
70087,89,47,32,120,4.0,2-5,other
70088,89,63,56,236,4.0,2-5,other
70089,64,56,48,88,11.0,3-10,diminished
70090,77,66,64,544,8.0,4-28,diminished
70091,77,42,72,132,2.0,2-3,minor
70092,38,36,80,44,2.0,2-3,minor
70093,59,71,216,140,2.0,2-1,other
70094,34,68,112,320,11.0,3-2A,minor
70095,62,38,240,168,11.0,2-3,minor
70096,65,80,144,312,3.0,3-3B,other
70097,36,65,44,268,3.0,5-29A,other
70098,62,52,332,388,11.0,3-2A,minor
70099,49,40,40,376,2.0,3-2B,minor
70100,42,36,48,772,2.0,2-3,minor
70101,59,60,124,116,8.0,3-8B,other
70102,52,48,184,764,11.0,5-18A,diminished
70103,73,24,132,804,3.0,7-22,other
70104,34,78,76,80,3.0,7-22,other
70105,62,76,204,132,9.0,5-25A,diminished
70106,41,93,24,236,0.0,2-3,minor
70107,93,56,144,556,9.0,6-7,other
70108,40,26,40,328,9.0,5-29B,diminished
70109,40,25,48,116,9.0,5-29B,diminished
70110,51,58,56,320,4.0,5-14B,other
70111,40,23,52,384,0.0,2-3,minor
70112,84,42,208,136,1.0,6-38,other
70113,34,61,56,332,4.0,2-1,other
70114,62,52,176,68,3.0,4-13A,other
70115,51,84,160,368,4.0,2-4,major
70116,40,23,52,784,3.0,2-5,other
70117,44,61,76,752,3.0,2-4,major
70118,63,52,144,264,4.0,5-14B,other
70119,42,23,36,408,9.0,7-20B,other
70120,51,45,32,748,2.0,5-5A,minor
70121,74,45,44,616,3.0,5-29A,other
70122,65,44,36,200,4.0,2-6,other
70123,40,36,32,288,8.0,2-6,other
70124,51,49,32,28,8.0,2-6,other
70125,34,87,88,32,8.0,2-6,other
70126,40,28,72,348,3.0,2-1,other
70127,61,54,56,164,1.0,2-2,other
70128,62,49,76,56,1.0,2-2,other
70129,41,68,60,196,5.0,3-1,other
70130,61,49,24,244,5.0,2-5,other
70131,53,63,112,140,4.0,3-5A,other
70132,56,46,180,160,3.0,3-9,other
70133,56,39,208,372,3.0,3-1,other
70134,40,39,40,184,3.0,3-1,other
70135,40,31,36,376,8.0,3-8A,other
70136,56,49,64,36,8.0,3-8A,other
70137,51,55,48,376,0.0,3-12,augmented
70138,57,48,72,32,0.0,3-12,augmented
70139,50,37,72,360,4.0,2-5,other
70140,45,102,372,124,5.0,2-2,other
70141,60,56,20,1048,3.0,2-1,other
70142,65,51,52,248,3.0,3-5A,other
70143,66,52,84,48,3.0,3-5A,other
70144,70,56,20,112,4.0,3-4A,major
70145,74,74,24,120,0.0,3-2B,minor
70146,75,77,52,132,0.0,3-2B,minor
70147,33,96,76,100,4.0,3-5A,other
70148,82,71,84,244,8.0,2-6,other
70149,51,52,40,128,0.0,3-8A,major
70150,80,63,52,68,0.0,3-8A,major
70151,77,76,52,176,5.0,4-20,major
70152,74,31,48,100,5.0,4-20,major
70153,40,32,36,48,5.0,4-20,major
70154,69,59,120,324,10.0,2-1,other
70155,40,26,44,72,10.0,2-1,other
70156,34,104,364,68,10.0,2-1,other
70157,32,80,108,284,9.0,2-6,other
70158,51,54,28,28,9.0,2-6,other
70159,72,66,76,180,3.0,4-14A,other
70160,66,62,92,104,3.0,4-14A,other
70161,64,50,36,120,4.0,3-5B,other
70162,63,55,116,136,0.0,2-3,minor
70163,66,70,76,408,1.0,4-14A,other
70164,40,31,64,152,1.0,4-14A,other
70165,61,66,80,264,3.0,2-1,other
70166,60,70,56,80,3.0,2-1,other
70167,65,78,104,100,1.0,2-3,minor
70168,59,66,80,220,4.0,2-4,major
70169,58,52,40,92,4.0,2-4,major
70170,50,25,64,72,6.0,3-7B,other
70171,57,38,32,32,6.0,3-7B,other
70172,62,64,136,264,5.0,2-2,other
70173,39,79,124,68,3.0,2-1,other
70174,60,56,68,124,4.0,3-8A,major
70175,57,52,92,136,4.0,3-8A,major
70176,53,40,44,132,3.0,2-1,other
70177,40,21,160,120,0.0,2-3,minor
70178,50,43,24,388,3.0,3-7B,other
70179,40,21,124,380,3.0,2-4,major
70180,42,82,48,256,0.0,2-4,major
70181,40,35,60,116,1.0,2-2,other
70182,51,51,28,264,1.0,2-2,other
70183,34,56,28,384,3.0,2-1,other
70184,34,66,72,272,3.0,2-1,other
70185,35,65,32,148,10.0,3-11B,major
70186,60,61,44,248,2.0,2-5,other
70187,38,28,76,84,2.0,2-5,other
70188,51,80,132,104,5.0,2-2,other
70189,72,58,48,160,10.0,3-4A,major
70190,39,60,44,168,4.0,4-25,other
70191,38,22,56,372,9.0,4-23,minor
70192,64,24,92,128,9.0,4-13B,diminished
70193,52,36,28,312,3.0,2-1,other
70194,38,29,40,340,2.0,5-25B,minor
70195,44,46,40,112,0.0,2-3,minor
70196,38,15,44,40,0.0,2-3,minor
70197,39,68,204,468,3.0,2-1,other
70198,38,93,56,84,3.0,2-1,other
70199,51,52,32,36,3.0,2-1,other
70200,44,62,40,124,5.0,3-1,other
70201,51,58,184,384,2.0,2-3,minor
70202,60,62,44,128,2.0,2-3,minor
70203,29,51,24,40,2.0,2-3,minor
70204,38,35,28,48,2.0,2-3,minor
70205,72,58,52,256,9.0,5-19B,diminished
70206,65,39,28,156,1.0,5-28B,minor
70207,38,34,32,360,9.0,5-32A,other
70208,38,41,92,384,0.0,8-13A,other
70209,38,26,40,192,11.0,5-10A,diminished
70210,38,42,88,580,9.0,2-1,other
70211,59,76,160,192,11.0,2-3,minor
70212,38,32,52,184,11.0,2-3,minor
70213,44,31,100,64,11.0,2-3,minor
70214,65,56,44,624,3.0,3-4B,other
70215,53,35,120,28,3.0,3-4B,other
70216,38,14,64,280,0.0,5-24B,other
70217,77,31,28,60,0.0,5-24B,other
70218,51,54,48,148,3.0,4-16A,major
70219,38,37,80,336,0.0,5-23A,minor
70220,36,72,48,64,0.0,5-23A,minor
70221,38,21,88,120,3.0,3-9,other
70222,51,54,36,240,9.0,5-29B,diminished
70223,38,32,60,348,7.0,3-7A,minor
70224,38,32,32,396,10.0,3-9,other
70225,68,60,84,412,1.0,4-4B,other
70226,67,33,64,176,2.0,3-7B,other
70227,51,66,228,288,1.0,6-47B,other
70228,62,24,28,68,2.0,3-7B,other
70229,64,38,36,244,2.0,5-27B,minor
70230,38,71,40,40,2.0,5-27B,minor
70231,38,18,44,124,0.0,4-19B,other
70232,65,48,24,64,0.0,4-19B,other
70233,57,44,28,140,2.0,2-5,other
70234,60,5,136,588,5.0,3-3B,major
70235,38,39,80,576,1.0,4-28,diminished
70236,35,81,88,28,1.0,4-28,diminished
70237,38,22,52,156,3.0,2-5,other
70238,38,64,48,192,6.0,3-10,other
70239,51,75,188,84,6.0,3-10,other
70240,38,104,96,32,6.0,3-10,other
70241,38,34,56,276,4.0,2-2,other
70242,72,33,40,148,3.0,3-11A,other
70243,38,30,56,32,3.0,3-11A,other
70244,73,57,56,72,3.0,3-11A,other
70245,38,32,40,144,2.0,2-2,other
70246,38,25,76,164,3.0,6-26,major
70247,38,39,80,964,3.0,2-5,other
70248,44,61,72,144,3.0,2-4,other
70249,89,56,64,412,5.0,2-1,other
70250,87,58,64,96,5.0,2-1,other
70251,63,39,80,28,5.0,2-1,other
70252,38,38,32,60,5.0,2-1,other
70253,60,39,32,64,0.0,2-2,other
70254,65,37,80,132,4.0,3-1,other
70255,89,64,64,40,4.0,3-1,other
70256,38,35,32,156,3.0,1-1,other
70257,89,67,96,268,5.0,3-1,other
70258,88,54,64,64,5.0,3-1,other
70259,41,81,32,1232,4.0,2-2,other
70260,60,46,360,152,8.0,4-12B,other
70261,32,101,348,328,2.0,4-1,minor
70262,38,29,84,40,2.0,4-1,minor
70263,38,37,64,604,2.0,3-2B,minor
70264,32,78,80,44,2.0,3-2B,minor
70265,34,69,40,740,3.0,2-1,other
70266,34,60,40,204,4.0,2-6,other
70267,34,67,28,96,4.0,2-6,other
70268,36,100,114,142,2.0,6-40B,minor
70269,57,54,84,274,2.0,6-40B,minor
70270,53,40,192,138,2.0,6-40B,minor
70271,62,66,72,38,2.0,6-40B,minor
70272,67,61,136,128,2.0,6-40B,minor
70273,53,49,26,144,3.0,2-4,other
70274,91,77,104,1060,5.0,2-2,other
70275,53,38,144,180,2.0,2-3,minor
70276,86,68,76,56,2.0,2-3,minor
70277,53,37,46,90,2.0,2-3,minor
70278,87,66,28,26,2.0,2-3,minor
70279,94,62,28,348,2.0,2-3,minor
70280,53,30,96,384,11.0,2-6,other
70281,103,58,156,36,11.0,2-6,other
70282,53,29,96,128,11.0,2-6,other
70283,107,60,152,36,11.0,2-6,other
70284,103,41,204,180,11.0,2-6,other
70285,53,27,96,30,11.0,2-6,other
70286,34,44,576,694,11.0,2-6,other
70287,74,74,170,0,9.0,2-2,other
70288,55,43,109,1165,4.0,2-3,minor
70289,43,40,384,720,5.0,3-9,other
70290,62,46,67,4602,5.0,4-20,major
70291,64,51,269,4092,9.0,3-11A,minor
70292,53,22,253,608,7.0,4-14A,minor
70293,50,42,662,260,7.0,4-14A,minor
70294,62,56,362,585,7.0,4-14A,minor
70295,72,81,221,189,7.0,4-14A,minor
70296,48,48,358,659,0.0,4-24,augmented
70297,48,48,634,541,0.0,4-24,augmented
70298,53,35,336,947,9.0,3-11A,minor
70299,65,68,118,871,0.0,3-11B,major
70300,69,85,106,217,0.0,3-11B,major
70301,72,79,432,218,0.0,3-11B,major
70302,79,70,208,227,0.0,3-11B,major
70303,64,1,323,1216,8.0,2-3,other
70304,62,30,1242,762,8.0,2-3,other
70305,72,85,448,627,8.0,2-3,other
70306,73,57,125,406,8.0,2-3,other
70307,74,69,90,135,8.0,2-3,other
70308,75,76,86,121,8.0,2-3,other
70309,67,45,118,519,0.0,3-11B,major
70310,60,9,342,432,0.0,2-4,major
70311,68,1,490,2150,0.0,2-4,other
70312,74,88,163,730,0.0,2-4,other
70313,58,26,150,2902,10.0,4-14B,major
70314,60,25,186,1600,4.0,2-4,major
70315,74,84,397,1510,4.0,2-2,other
70316,74,67,243,743,4.0,2-2,other
70317,62,33,237,435,4.0,3-11A,minor
70318,31,45,269,2819,5.0,4-22A,major
70319,65,44,784,1383,5.0,4-22A,major
70320,74,46,557,96,8.0,3-10,diminished
70321,75,75,230,720,8.0,3-10,diminished
70322,77,84,198,284,8.0,3-10,diminished
70323,46,59,243,580,3.0,3-4A,major
70324,58,54,118,540,7.0,3-11A,minor
70325,55,37,634,836,0.0,5-27B,minor
70326,75,79,150,713,0.0,2-3,minor
70327,77,84,643,199,0.0,2-3,minor
70328,75,69,253,1110,9.0,3-5B,other
70329,60,28,218,2963,7.0,3-11A,minor
70330,75,46,806,1776,9.0,3-5B,other
70331,55,31,237,1927,3.0,4-20,major
70332,59,36,598,739,3.0,3-4A,major
70333,60,32,1421,621,0.0,3-11A,minor
70334,60,44,342,1718,5.0,3-4A,other
70335,58,51,272,294,5.0,3-4A,other
70336,52,37,646,2074,0.0,4-19B,other
70337,55,60,211,301,0.0,4-19B,other
70338,56,56,294,1853,3.0,3-11A,other
70339,44,31,694,1280,3.0,3-11B,other
70340,75,74,214,480,3.0,3-11B,other
70341,77,79,202,230,3.0,3-11B,other
70342,58,34,1270,781,7.0,2-3,minor
70343,75,69,550,704,7.0,3-11A,minor
70344,77,62,378,502,7.0,3-11A,minor
70345,59,37,1098,1216,3.0,2-4,major
70346,75,1,240,195,3.0,2-4,major
70347,77,62,310,692,8.0,3-10,minor
70348,67,36,227,643,10.0,2-5,other
70349,77,48,672,2441,0.0,2-5,other
70350,53,35,2064,836,3.0,3-12,augmented
70351,60,30,1910,316,3.0,3-12,augmented
70352,74,48,83,455,3.0,3-12,augmented
70353,79,50,144,192,3.0,3-12,augmented
70354,83,61,154,166,3.0,3-12,augmented
70355,86,84,189,183,3.0,3-12,augmented
70356,83,57,189,195,3.0,3-12,augmented
70357,76,14,230,1897,5.0,1-1,other
70358,77,64,1002,426,5.0,1-1,other
70359,65,50,384,1056,5.0,1-1,other
70360,65,40,384,943,5.0,1-1,other
70361,55,24,1235,923,0.0,3-7A,minor
70362,65,39,390,716,0.0,3-7A,minor
70363,46,46,646,2429,0.0,3-7A,minor
70364,31,60,384,670,0.0,3-7A,minor
70365,43,40,384,101,0.0,3-7A,minor
70366,88,50,24,4707,4.0,4-26,minor
70367,88,44,32,560,3.0,6-48,augmented
70368,84,48,128,840,1.0,6-27A,other
70369,81,64,40,92,1.0,6-27A,other
70370,79,36,28,788,6.0,6-41A,minor
70371,56,33,148,424,3.0,3-8B,other
70372,55,36,196,264,4.0,4-26,minor
70373,48,69,24,2824,9.0,3-7A,minor
70374,50,27,24,64,9.0,3-7A,minor
70375,52,40,24,40,9.0,3-7A,minor
70376,53,48,24,44,9.0,3-7A,minor
70377,55,53,24,40,9.0,3-7A,minor
70378,57,44,24,44,9.0,3-7A,minor
70379,59,44,24,40,9.0,3-7A,minor
70380,60,50,24,44,9.0,3-7A,minor
70381,62,43,24,40,9.0,3-7A,minor
70382,64,48,24,48,9.0,3-7A,minor
70383,65,44,28,52,9.0,3-7A,minor
70384,67,39,24,44,9.0,3-7A,minor
70385,69,45,24,56,9.0,3-7A,minor
70386,71,41,28,48,9.0,3-7A,minor
70387,72,46,24,48,9.0,3-7A,minor
70388,74,47,24,40,9.0,3-7A,minor
70389,76,64,1020,36,9.0,3-7A,minor
70390,84,55,64,1592,4.0,4-12A,major
70391,79,51,112,404,8.0,3-10,other
70392,65,27,24,588,8.0,2-1,other
70393,60,26,584,156,9.0,3-11A,minor
70394,92,30,32,1948,6.0,5-25A,diminished
70395,91,38,36,544,11.0,5-32B,minor
70396,58,30,60,2108,1.0,5-18A,diminished
70397,81,62,124,452,5.0,4-16A,other
70398,73,42,128,340,5.0,3-8B,other
70399,70,38,188,384,5.0,4-16A,other
70400,49,50,124,1728,2.0,2-5,other
70401,49,47,88,384,5.0,3-3B,other
70402,53,42,80,128,2.0,2-5,other
70403,74,40,136,1572,10.0,4-16A,other
70404,43,88,476,1336,6.0,5-36A,diminished
70405,50,45,28,440,6.0,5-36A,diminished
70406,55,62,240,100,6.0,5-36A,diminished
70407,57,68,64,256,6.0,5-36A,diminished
70408,59,57,240,136,6.0,5-36A,diminished
70409,60,58,80,252,6.0,5-36A,diminished
70410,62,56,80,160,6.0,5-36A,diminished
70411,64,53,152,1896,6.0,4-27A,diminished
70412,76,44,72,56,6.0,4-27A,diminished
70413,76,62,64,268,3.0,5-13A,augmented
70414,83,39,80,840,4.0,3-7A,minor
70415,88,47,48,828,5.0,6-34B,augmented
70416,54,60,168,592,9.0,3-11A,minor
70417,72,64,64,100,9.0,3-11A,minor
70418,72,58,40,132,9.0,3-11A,minor
70419,54,36,24,28,9.0,3-11A,minor
70420,78,33,24,536,0.0,5-22,augmented
70421,81,58,24,68,0.0,5-22,augmented
70422,79,55,24,244,4.0,4-6,other
70423,56,23,168,192,3.0,4-24,augmented
70424,76,35,72,88,3.0,4-24,augmented
70425,54,36,60,1408,9.0,5-27B,minor
70426,52,13,36,876,5.0,2-1,other
70427,48,45,120,436,5.0,3-11B,major
70428,42,67,140,184,5.0,3-11B,major
70429,84,89,168,496,2.0,4-23,minor
70430,76,75,96,572,9.0,3-11A,minor
70431,72,36,132,172,9.0,3-11A,minor
70432,65,31,200,352,9.0,3-11A,minor
70433,67,51,88,372,0.0,3-8B,other
70434,68,39,88,96,0.0,3-8B,other
70435,67,38,84,88,0.0,3-8B,other
70436,65,49,28,100,0.0,3-8B,other
70437,67,95,240,96,0.0,3-8B,other
70438,68,68,80,240,0.0,3-8B,other
70439,67,54,76,80,0.0,3-8B,other
70440,65,36,160,88,0.0,3-8B,other
70441,56,54,212,368,5.0,3-11A,other
70442,43,54,152,224,5.0,3-11A,other
70443,67,32,172,556,0.0,3-11B,major
70444,67,41,32,252,0.0,3-11B,major
70445,72,75,224,108,0.0,3-11B,major
70446,74,74,92,264,0.0,3-11B,major
70447,72,52,36,96,0.0,3-11B,major
70448,71,25,184,72,0.0,3-11B,major
70449,69,43,124,496,0.0,2-4,major
70450,62,45,188,200,0.0,2-4,major
70451,74,127,124,1440,7.0,3-5B,other
70452,76,92,136,180,7.0,3-5B,other
70453,76,91,100,212,7.0,3-5B,other
70454,71,72,76,232,5.0,4-16A,other
70455,72,73,128,68,5.0,4-16A,other
70456,61,33,24,128,5.0,4-16A,other
70457,69,74,212,68,5.0,4-16A,other
70458,58,26,116,276,5.0,4-16A,other
70459,93,41,316,1540,2.0,4-21,major
70460,93,33,172,516,6.0,4-12B,other
70461,88,49,32,124,6.0,4-12B,other
70462,89,33,116,668,0.0,5-33,augmented
70463,93,63,24,488,5.0,6-36A,major
70464,50,52,72,532,7.0,1-1,other
70465,54,42,24,732,7.0,2-1,other
70466,72,105,152,128,7.0,2-1,other
70467,70,83,144,412,7.0,2-1,other
70468,72,85,76,248,7.0,2-1,other
70469,66,60,80,168,7.0,2-1,other
70470,67,50,112,52,7.0,2-1,other
70471,60,52,60,180,7.0,2-1,other
70472,63,50,140,132,7.0,2-1,other
70473,65,83,80,212,7.0,2-1,other
70474,63,54,156,164,7.0,2-1,other
70475,55,62,44,216,7.0,2-1,other
70476,60,79,220,112,7.0,2-1,other
70477,75,80,168,381,7.0,2-1,other
70478,74,77,90,246,7.0,2-1,other
70479,72,46,201,153,7.0,2-1,other
70480,67,63,88,248,7.0,2-1,other
70481,65,65,186,132,7.0,2-1,other
70482,60,43,45,264,7.0,2-1,other
70483,63,62,94,91,7.0,2-1,other
70484,64,69,283,65,7.0,2-1,other
70485,84,105,80,1380,6.0,3-8B,other
70486,81,45,36,276,6.0,3-8B,other
70487,77,68,60,1112,4.0,4-26,minor
70488,72,30,24,1580,9.0,2-6,other
70489,72,57,52,264,2.0,5-34,major
70490,70,59,124,120,2.0,5-34,major
70491,67,64,60,124,2.0,5-34,major
70492,62,33,32,236,2.0,4-16B,major
70493,60,52,56,256,5.0,2-5,other
70494,63,55,60,108,5.0,2-5,other
70495,64,78,84,124,5.0,2-5,other
70496,55,31,40,152,2.0,2-3,minor
70497,67,81,80,108,2.0,2-3,minor
70498,64,71,68,128,2.0,2-3,minor
70499,55,24,28,152,2.0,2-3,minor
70500,59,24,44,136,2.0,2-3,minor
70501,62,85,108,124,2.0,2-3,minor
70502,59,58,124,124,2.0,2-3,minor
70503,60,75,88,140,2.0,2-3,minor
70504,55,72,104,108,2.0,2-3,minor
70505,55,78,184,140,2.0,2-3,minor
70506,55,84,96,224,2.0,2-3,minor
70507,55,27,28,444,2.0,2-3,minor
70508,62,105,92,84,2.0,2-3,minor
70509,59,63,64,116,2.0,2-3,minor
70510,60,66,68,128,2.0,2-3,minor
70511,62,68,80,104,2.0,2-3,minor
70512,64,65,76,112,2.0,2-3,minor
70513,60,55,52,92,2.0,2-3,minor
70514,64,74,64,204,7.0,2-5,other
70515,65,60,60,96,7.0,2-5,other
70516,62,46,52,84,7.0,2-5,other
70517,64,68,96,100,7.0,2-5,other
70518,65,78,84,88,7.0,2-5,other
70519,57,28,32,40,7.0,2-5,other
70520,67,64,64,56,7.0,2-5,other
70521,64,43,72,92,7.0,2-5,other
70522,65,68,108,88,7.0,2-5,other
70523,67,72,68,100,7.0,2-5,other
70524,69,64,56,92,7.0,2-5,other
70525,65,44,36,92,7.0,2-5,other
70526,67,49,84,88,7.0,2-5,other
70527,69,55,60,96,7.0,2-5,other
70528,70,71,60,88,7.0,2-5,other
70529,71,58,28,104,7.0,2-5,other
70530,72,39,76,84,7.0,2-5,other
70531,73,63,52,104,7.0,2-5,other
70532,74,53,52,92,7.0,2-5,other
70533,75,47,40,96,7.0,2-5,other
70534,76,68,48,76,7.0,2-5,other
70535,80,55,76,100,7.0,2-5,other
70536,62,24,48,52,7.0,2-5,other
70537,86,85,96,148,10.0,2-1,other
70538,84,58,28,104,10.0,2-1,other
70539,80,59,44,92,10.0,2-1,other
70540,83,66,68,88,10.0,2-1,other
70541,84,60,28,1760,9.0,3-11A,minor
70542,93,13,72,232,2.0,2-5,other
70543,87,67,100,32,2.0,2-5,other
70544,86,48,52,96,2.0,2-5,other
70545,84,60,24,68,2.0,2-5,other
70546,57,19,44,60,2.0,2-5,other
70547,87,57,104,196,2.0,2-5,other
70548,86,61,68,76,2.0,2-5,other
70549,84,71,64,88,2.0,2-5,other
70550,81,58,132,128,2.0,2-5,other
70551,74,52,100,212,2.0,2-5,other
70552,74,68,40,624,2.0,3-5B,other
70553,79,84,60,120,2.0,3-5B,other
70554,83,89,56,124,2.0,3-5B,other
70555,84,79,60,120,2.0,3-5B,other
70556,86,101,84,128,2.0,3-5B,other
70557,84,73,60,128,2.0,3-5B,other
70558,70,51,76,1172,4.0,3-8B,other
70559,67,32,28,128,4.0,3-8B,other
70560,55,30,28,1300,1.0,3-2A,minor
70561,64,35,80,372,1.0,2-6,other
70562,62,56,64,140,1.0,2-6,other
70563,53,24,24,256,9.0,2-3,minor
70564,64,108,120,904,9.0,2-4,major
70565,61,68,88,124,9.0,2-4,major
70566,62,71,84,96,9.0,2-4,major
70567,63,37,72,156,9.0,2-4,major
70568,64,73,68,104,9.0,2-4,major
70569,69,56,80,232,5.0,3-12,augmented
70570,72,72,40,124,5.0,3-12,augmented
70571,78,72,96,376,9.0,4-26,minor
70572,60,25,32,1740,2.0,2-3,minor
70573,78,60,56,500,4.0,3-5B,other
70574,75,45,64,260,4.0,4-18A,major
70575,75,53,60,236,5.0,4-16A,major
70576,75,37,60,248,3.0,5-7B,other
70577,76,52,60,224,4.0,3-5B,other
70578,54,27,120,416,4.0,5-32A,other
70579,82,64,56,356,4.0,4-26,minor
70580,85,47,24,276,6.0,2-2,other
70581,94,62,32,300,3.0,4-23,other
70582,94,23,32,332,5.0,4-16A,other
70583,58,32,144,208,1.0,5-34,other
70584,93,61,36,308,0.0,5-33,augmented
70585,99,74,64,748,4.0,3-5B,other
70586,100,82,72,116,4.0,3-5B,other
70587,102,64,80,248,8.0,2-3,other
70588,52,28,28,168,7.0,3-11B,major
70589,99,31,52,128,7.0,3-11B,major
70590,100,53,60,112,7.0,3-11B,major
70591,101,77,72,124,7.0,3-11B,major
70592,102,64,80,128,7.0,3-11B,major
70593,103,79,108,136,7.0,3-11B,major
70594,100,49,72,272,1.0,4-21,other
70595,101,61,52,124,1.0,4-21,other
70596,102,67,68,132,1.0,4-21,other
70597,103,78,88,128,1.0,4-21,other
70598,98,89,88,148,1.0,4-21,other
70599,99,67,120,72,6.0,3-8B,other
70600,98,52,64,92,6.0,3-8B,other
70601,96,65,44,76,6.0,3-8B,other
70602,94,71,72,100,6.0,3-8B,other
70603,91,68,56,116,6.0,3-8B,other
70604,90,76,88,108,6.0,3-8B,other
70605,89,66,52,112,6.0,3-8B,other
70606,87,50,76,100,6.0,3-8B,other
70607,84,48,32,104,6.0,3-8B,other
70608,87,48,36,104,6.0,3-8B,other
70609,88,66,56,96,6.0,3-8B,other
70610,89,63,64,96,6.0,3-8B,other
70611,90,69,52,92,6.0,3-8B,other
70612,87,74,44,192,11.0,2-6,other
70613,88,34,48,104,11.0,2-6,other
70614,84,65,44,68,11.0,2-6,other
70615,79,33,24,104,11.0,2-6,other
70616,84,80,104,56,11.0,2-6,other
70617,84,72,56,168,11.0,2-6,other
70618,84,80,80,200,11.0,2-6,other
70619,81,50,32,112,11.0,2-6,other
70620,84,84,76,108,11.0,2-6,other
70621,58,34,24,956,11.0,2-6,other
70622,93,66,24,1768,11.0,2-6,other
70623,57,29,56,424,2.0,2-2,other
70624,67,62,72,84,2.0,2-2,other
70625,65,67,60,100,2.0,2-2,other
70626,64,15,48,152,2.0,2-2,other
70627,65,38,28,68,2.0,2-2,other
70628,57,19,48,56,2.0,2-2,other
70629,70,67,108,40,2.0,2-2,other
70630,69,64,80,84,2.0,2-2,other
70631,68,55,72,100,2.0,2-2,other
70632,69,44,28,100,2.0,2-2,other
70633,75,69,92,116,2.0,2-2,other
70634,72,62,32,512,0.0,3-8B,other
70635,76,43,36,376,0.0,4-19B,other
70636,64,9,84,60,0.0,4-19B,other
70637,77,80,68,32,0.0,4-19B,other
70638,80,54,48,240,4.0,2-3,minor
70639,81,57,56,128,4.0,2-3,minor
70640,84,80,72,100,4.0,2-3,minor
70641,55,24,64,168,7.0,3-11B,major
70642,59,41,32,692,7.0,3-11B,major
70643,64,75,112,52,7.0,3-11B,major
70644,88,53,80,1112,6.0,4-12B,other
70645,76,57,84,40,6.0,4-12B,other
70646,72,51,164,332,9.0,5-15,other
70647,84,35,92,52,9.0,5-15,other
70648,78,32,24,1376,0.0,4-16A,other
70649,72,54,68,800,5.0,6-24B,other
70650,72,56,84,128,5.0,2-4,major
70651,58,32,72,708,5.0,5-20B,other
70652,81,55,28,68,5.0,5-20B,other
70653,83,33,28,28,5.0,5-20B,other
70654,81,40,32,744,0.0,4-24,augmented
70655,69,48,28,336,2.0,3-7A,minor
70656,81,58,36,464,0.0,4-24,augmented
70657,56,19,56,432,4.0,2-5,other
70658,81,55,28,348,0.0,6-17A,augmented
70659,81,22,100,676,2.0,2-2,other
70660,43,66,28,184,2.0,2-2,other
70661,58,53,24,364,4.0,1-1,other
70662,79,43,36,280,6.0,2-6,other
70663,76,49,76,736,3.0,2-4,major
70664,72,78,76,556,4.0,2-3,minor
70665,67,44,160,136,4.0,2-3,minor
70666,64,14,188,392,7.0,2-2,other
70667,65,64,232,408,6.0,2-6,other
70668,63,53,252,304,7.0,2-1,other
70669,60,51,88,260,7.0,2-1,other
70670,58,46,368,140,7.0,2-1,other
70671,60,83,264,392,7.0,2-1,other
70672,58,46,300,412,7.0,2-1,other
70673,60,82,192,356,7.0,2-1,other
70674,59,37,80,1456,3.0,3-8B,other
70675,93,113,220,92,3.0,3-8B,other
70676,58,29,40,296,3.0,2-1,other
70677,84,92,132,224,3.0,2-1,other
70678,81,91,212,252,10.0,2-4,major
70679,75,91,192,256,10.0,2-4,major
70680,72,80,100,232,10.0,2-4,major
70681,69,84,212,268,5.0,3-8B,other
70682,63,82,192,260,5.0,3-8B,other
70683,60,50,120,252,5.0,3-8B,other
70684,57,57,176,252,7.0,2-1,other
70685,51,77,160,280,7.0,2-1,other
70686,48,66,160,208,7.0,2-1,other
70687,46,61,204,276,7.0,2-1,other
70688,52,62,52,2724,11.0,2-3,minor
70689,55,51,40,116,11.0,2-3,minor
70690,59,71,92,80,11.0,2-3,minor
70691,62,78,56,104,11.0,2-3,minor
70692,59,54,88,84,11.0,2-3,minor
70693,60,57,76,104,11.0,2-3,minor
70694,64,58,64,108,11.0,2-3,minor
70695,67,59,24,92,11.0,2-3,minor
70696,69,20,96,128,11.0,2-3,minor
70697,65,48,28,584,2.0,2-3,minor
70698,71,74,76,248,9.0,2-2,other
70699,76,71,48,112,9.0,2-2,other
70700,81,66,36,140,9.0,2-2,other
70701,83,74,60,132,9.0,2-2,other
70702,86,64,96,724,2.0,4-27A,minor
70703,84,70,112,88,2.0,4-27A,minor
70704,62,35,48,132,8.0,3-10,minor
70705,81,75,144,104,8.0,3-10,minor
70706,56,36,112,248,8.0,3-10,other
70707,83,74,212,144,8.0,3-10,other
70708,55,33,32,3304,11.0,2-3,minor
70709,81,105,196,100,11.0,2-3,minor
70710,82,51,72,224,11.0,2-3,minor
70711,81,66,100,44,11.0,2-3,minor
70712,79,38,176,132,11.0,2-3,minor
70713,78,78,108,272,7.0,3-11B,major
70714,79,79,108,188,7.0,3-11B,major
70715,80,81,92,200,7.0,3-11B,major
70716,81,78,112,160,7.0,3-11B,major
70717,73,33,156,404,1.0,4-12B,diminished
70718,72,58,92,180,1.0,4-12B,diminished
70719,61,30,32,52,1.0,4-12B,diminished
70720,70,37,196,104,1.0,4-12B,diminished
70721,66,56,68,380,1.0,2-6,other
70722,67,71,72,108,1.0,2-6,other
70723,69,77,100,112,1.0,2-6,other
70724,61,37,48,68,1.0,2-6,other
70725,64,49,96,60,1.0,2-6,other
70726,66,57,60,124,1.0,2-6,other
70727,67,66,64,112,1.0,2-6,other
70728,64,43,40,268,1.0,2-6,other
70729,65,67,76,104,1.0,2-6,other
70730,61,47,72,100,1.0,2-6,other
70731,64,61,72,116,1.0,2-6,other
70732,61,38,68,108,1.0,2-6,other
70733,62,75,80,100,1.0,2-6,other
70734,57,49,32,112,1.0,2-6,other
70735,60,51,112,100,1.0,2-6,other
70736,69,89,88,1080,9.0,2-4,major
70737,64,44,40,120,9.0,2-4,major
70738,57,32,44,144,0.0,2-5,other
70739,64,33,72,144,0.0,2-5,other
70740,65,70,92,120,0.0,2-5,other
70741,60,47,100,140,0.0,2-5,other
70742,62,19,56,168,0.0,2-5,other
70743,63,49,64,96,0.0,2-5,other
70744,65,58,80,116,0.0,2-5,other
70745,70,60,92,120,0.0,2-5,other
70746,74,74,64,120,0.0,2-5,other
70747,77,65,92,268,2.0,2-3,minor
70748,82,67,84,384,7.0,2-2,other
70749,89,76,68,380,2.0,4-15B,other
70750,94,74,64,120,2.0,4-15B,other
70751,97,46,24,292,6.0,3-5B,other
70752,96,57,20,132,11.0,5-10B,diminished
70753,58,28,156,2120,5.0,4-16A,other
70754,58,23,100,684,2.0,5-19B,minor
70755,81,36,24,96,2.0,5-19B,minor
70756,81,34,28,272,0.0,4-24,augmented
70757,74,33,24,476,5.0,5-30B,augmented
70758,76,50,24,252,4.0,5-13A,minor
70759,54,39,28,1124,0.0,5-27A,major
70760,61,18,72,404,1.0,4-28,diminished
70761,49,31,44,452,0.0,4-27B,major
70762,50,50,24,228,2.0,5-34,major
70763,48,36,28,48,2.0,5-34,major
70764,62,31,96,644,5.0,4-16A,major
70765,53,44,28,400,1.0,4-24,other
70766,57,33,140,2964,2.0,4-27B,major
70767,81,73,52,712,2.0,6-31B,minor
70768,65,28,104,852,5.0,3-11B,major
70769,53,35,536,396,0.0,5-21B,other
70770,76,36,404,92,0.0,5-21B,other
70771,88,70,20,1320,0.0,6-33B,other
70772,76,57,80,184,9.0,3-11A,minor
70773,64,31,28,1824,0.0,4-24,augmented
70774,77,64,548,272,9.0,4-27A,diminished
70775,81,40,28,1792,2.0,4-27A,minor
70776,58,25,92,832,5.0,4-16A,other
70777,58,23,24,224,5.0,5-30B,other
70778,55,34,32,356,5.0,4-19B,other
70779,55,24,24,384,5.0,4-19B,other
70780,88,57,36,3900,9.0,2-5,other
70781,83,31,44,256,4.0,2-5,other
70782,84,101,72,1376,5.0,4-16A,other
70783,82,45,28,136,5.0,4-16A,other
70784,84,94,88,120,5.0,4-16A,other
70785,77,64,112,380,7.0,5-29B,minor
70786,74,70,68,416,0.0,2-4,major
70787,75,48,116,76,0.0,2-4,major
70788,74,44,72,84,0.0,2-4,major
70789,70,52,204,204,0.0,1-1,other
70790,66,32,104,364,0.0,4-29B,major
70791,43,46,36,616,5.0,2-1,other
70792,60,40,184,560,4.0,3-2B,minor
70793,48,59,80,496,5.0,2-5,other
70794,51,60,104,124,5.0,2-5,other
70795,52,59,64,128,5.0,2-5,other
70796,53,55,44,120,5.0,2-5,other
70797,54,71,76,132,5.0,2-5,other
70798,55,69,52,124,5.0,2-5,other
70799,51,69,64,128,5.0,2-5,other
70800,52,71,76,112,5.0,2-5,other
70801,48,74,76,136,5.0,2-5,other
70802,43,51,52,124,5.0,2-5,other
70803,46,90,240,284,5.0,2-5,other
70804,43,72,144,248,5.0,2-5,other
70805,41,83,96,428,5.0,2-5,other
70806,39,73,172,184,5.0,2-5,other
70807,34,57,80,264,5.0,2-5,other
70808,35,63,60,172,5.0,2-5,other
70809,42,75,384,0,,,
70810,42,52,384,384,,,
70811,42,63,384,402,,,
70812,42,52,356,394,,,
70813,36,57,608,408,9.0,5-32A,other
70814,44,101,186,326,9.0,5-32A,other
70815,51,63,14,380,9.0,4-26,minor
70816,62,43,36,1058,1.0,4-27A,minor
70817,71,22,44,1420,0.0,2-3,minor
70818,71,53,24,160,2.0,4-26,minor
70819,33,39,252,1240,1.0,2-2,other
70820,58,38,32,280,7.0,4-29B,major
70821,67,40,88,764,1.0,3-10,minor
70822,51,49,22,218,9.0,2-4,major
70823,36,52,38,124,9.0,2-4,major
70824,36,38,32,742,6.0,4-27A,diminished
70825,51,80,14,138,6.0,4-27A,diminished
70826,57,35,144,78,2.0,3-11B,major
70827,43,58,36,824,0.0,2-3,minor
70828,62,36,40,156,1.0,5-31A,diminished
70829,63,45,32,396,4.0,4-26,minor
70830,58,42,40,1896,5.0,3-4A,other
70831,34,48,148,332,3.0,2-5,other
70832,57,22,148,172,2.0,3-2B,minor
70833,57,32,36,240,5.0,4-20,major
70834,38,68,60,620,2.0,3-11B,major
70835,55,63,400,516,0.0,4-17,other
70836,61,31,76,44,0.0,4-17,other
70837,36,66,864,44,0.0,4-17,other
70838,57,44,192,104,0.0,2-4,major
70839,56,51,148,352,2.0,2-3,minor
70840,50,50,232,368,0.0,2-3,minor
70841,53,31,96,56,0.0,2-3,minor
70842,38,54,88,556,3.0,2-5,other
70843,37,64,26,642,9.0,2-5,other
70844,52,54,80,62,9.0,2-5,other
70845,39,44,88,436,5.0,5-27A,major
70846,51,82,142,378,8.0,5-31A,diminished
70847,40,41,368,126,9.0,5-32A,other
70848,72,58,44,1304,3.0,2-5,other
70849,76,64,24,124,3.0,2-5,other
70850,76,22,112,592,9.0,3-3A,major
70851,69,45,340,1000,6.0,3-8B,other
70852,37,73,50,202,3.0,2-1,other
70853,72,36,136,330,6.0,3-7A,minor
70854,37,64,66,144,6.0,3-7A,minor
70855,51,64,14,146,2.0,3-11B,major
70856,38,49,96,274,6.0,3-10,other
70857,53,49,192,216,3.0,2-5,other
70858,42,50,100,160,3.0,2-5,other
70859,42,46,124,396,8.0,1-1,other
70860,55,53,152,200,3.0,3-12,augmented
70861,37,66,50,166,3.0,3-12,augmented
70862,53,48,156,62,11.0,2-6,other
70863,46,49,60,300,8.0,3-10,diminished
70864,51,80,14,530,0.0,4-4B,other
70865,58,39,44,278,11.0,2-5,other
70866,36,61,792,1264,1.0,4-26,other
70867,35,49,48,280,4.0,2-3,minor
70868,69,75,92,164,3.0,2-5,other
70869,71,77,80,124,3.0,2-5,other
70870,37,54,34,86,3.0,2-5,other
70871,46,22,24,530,3.0,2-5,other
70872,39,56,56,100,3.0,2-5,other
70873,57,22,528,316,9.0,2-3,minor
70874,71,49,48,88,9.0,2-3,minor
70875,69,38,92,68,9.0,2-3,minor
70876,68,52,76,80,9.0,2-3,minor
70877,69,57,216,132,3.0,2-5,other
70878,36,54,92,196,3.0,2-5,other
70879,68,38,60,56,3.0,2-5,other
70880,69,40,136,112,9.0,2-6,other
70881,60,39,32,272,1.0,2-3,minor
70882,53,18,32,32,1.0,2-3,minor
70883,37,77,42,306,1.0,4-22A,other
70884,51,73,14,124,1.0,4-22A,other
70885,37,66,40,886,3.0,3-11A,other
70886,62,48,86,168,4.0,2-3,minor
70887,75,29,144,184,3.0,2-5,other
70888,37,64,70,168,3.0,2-5,other
70889,76,56,28,52,3.0,2-5,other
70890,60,32,104,376,9.0,3-2B,minor
70891,84,92,232,124,3.0,2-5,other
70892,83,56,116,248,3.0,2-5,other
70893,64,31,472,36,3.0,2-5,other
70894,51,63,14,62,9.0,3-2B,minor
70895,84,57,184,50,9.0,3-2B,minor
70896,36,74,80,200,9.0,3-2B,minor
70897,88,81,96,36,9.0,3-2B,minor
70898,84,39,156,184,1.0,3-9,other
70899,76,49,1328,400,3.0,2-1,other
70900,35,31,38,154,3.0,2-1,other
70901,60,45,164,926,4.0,3-6,major
70902,37,42,112,212,4.0,3-6,major
70903,35,38,38,786,3.0,2-5,other
70904,62,41,100,422,9.0,3-5A,other
70905,35,43,32,340,2.0,6-31B,minor
70906,44,42,32,364,3.0,2-1,other
70907,44,92,146,154,3.0,2-5,other
70908,40,56,96,634,5.0,4-19B,other
70909,60,65,36,324,1.0,3-9,other
70910,51,49,142,62,1.0,3-9,other
70911,38,63,400,126,11.0,2-3,minor
70912,39,23,84,1468,5.0,4-29A,other
70913,46,26,26,182,3.0,2-4,major
70914,35,45,38,128,2.0,4-26,minor
70915,51,75,14,528,11.0,2-6,other
70916,46,57,48,180,11.0,2-6,other
70917,35,36,32,146,11.0,2-6,other
70918,34,57,28,212,3.0,4-20,other
70919,49,54,124,96,3.0,4-20,other
70920,35,72,52,32,3.0,4-20,other
70921,51,87,14,102,9.0,4-26,minor
70922,36,63,692,38,9.0,4-26,minor
70923,59,32,152,424,2.0,4-18A,minor
70924,57,50,44,236,4.0,4-18B,other
70925,37,50,84,696,3.0,2-5,other
70926,59,48,72,428,1.0,3-2A,minor
70927,59,40,32,388,4.0,4-26,minor
70928,51,66,14,94,4.0,4-26,minor
70929,38,49,36,242,5.0,4-20,major
70930,51,63,14,526,9.0,5-27B,minor
70931,33,63,808,1518,9.0,4-27B,major
70932,35,22,20,56,9.0,4-27B,major
70933,52,62,296,2264,6.0,3-7A,minor
70934,38,43,48,628,3.0,2-5,other
70935,35,59,68,30,3.0,2-5,other
70936,69,49,280,138,0.0,5-23A,minor
70937,51,71,14,742,4.0,3-7A,minor
70938,35,64,426,26,4.0,3-7A,minor
70939,36,67,1152,732,8.0,2-3,other
70940,52,37,348,92,2.0,2-2,other
70941,57,31,280,40,2.0,2-2,other
70942,35,33,32,534,3.0,2-5,other
70943,51,63,14,112,3.0,2-5,other
70944,38,50,28,1022,6.0,4-12B,other
70945,35,29,24,32,6.0,4-12B,other
70946,44,67,174,56,6.0,4-12B,other
70947,53,48,560,324,0.0,3-3A,minor
70948,29,64,768,106,0.0,3-3A,minor
70949,83,54,128,78,0.0,3-3A,minor
70950,79,56,220,376,3.0,3-11A,other
70951,52,41,568,248,10.0,4-20,major
70952,76,48,124,128,0.0,2-1,other
70953,35,40,24,28,0.0,2-1,other
70954,77,57,40,132,0.0,2-1,other
70955,76,60,180,220,3.0,4-14A,other
70956,73,50,180,400,11.0,2-2,other
70957,40,63,72,172,11.0,2-2,other
70958,48,73,352,872,9.0,3-2B,minor
70959,74,43,192,56,8.0,2-3,minor
70960,77,82,140,432,11.0,1-1,other
70961,77,35,36,216,3.0,3-12,augmented
70962,45,61,364,64,3.0,3-12,augmented
70963,80,41,32,144,9.0,2-1,other
70964,34,66,38,34,9.0,2-1,other
70965,52,45,360,362,11.0,3-7A,minor
70966,71,52,72,164,11.0,3-7A,minor
70967,71,45,104,152,8.0,2-3,minor
70968,83,46,156,104,8.0,2-3,minor
70969,62,46,196,256,7.0,4-3,other
70970,36,38,44,280,7.0,2-5,other
70971,58,25,536,384,7.0,2-2,other
70972,35,36,26,342,11.0,2-2,other
70973,55,45,564,398,11.0,4-5A,other
70974,58,20,524,44,11.0,4-5A,other
70975,90,44,32,360,7.0,2-4,major
70976,90,87,136,224,11.0,2-1,other
70977,51,70,48,84,11.0,2-1,other
70978,59,99,292,154,2.0,5-9B,other
70979,35,40,24,94,2.0,5-9B,other
70980,45,71,360,252,9.0,2-3,minor
70981,81,81,72,160,8.0,2-3,minor
70982,72,43,148,304,11.0,2-6,other
70983,60,43,88,992,7.0,2-4,major
70984,76,57,56,256,1.0,4-22B,other
70985,77,60,124,352,5.0,2-1,other
70986,76,50,68,88,5.0,2-1,other
70987,72,57,36,72,5.0,2-1,other
70988,59,43,300,48,5.0,2-1,other
70989,44,91,144,74,7.0,2-4,major
70990,65,56,200,66,7.0,2-4,major
70991,34,66,38,78,7.0,2-4,major
70992,52,40,380,170,3.0,2-4,other
70993,36,63,368,28,3.0,2-4,other
70994,59,84,18,38,3.0,2-4,other
70995,64,36,116,74,3.0,2-4,other
70996,35,17,154,332,9.0,4-3,minor
70997,67,45,52,264,11.0,1-1,other
70998,69,39,196,532,8.0,2-3,minor
70999,67,59,36,884,8.0,2-3,minor
71000,74,70,76,368,0.0,3-4A,major
71001,46,42,112,238,3.0,2-4,other
71002,76,74,72,34,3.0,2-4,other
71003,77,69,52,112,3.0,2-4,other
71004,51,70,48,80,3.0,2-4,other
71005,35,22,38,174,0.0,2-5,other
71006,76,72,80,198,1.0,2-2,other
71007,32,61,112,28,1.0,2-2,other
71008,59,22,14,32,1.0,2-2,other
71009,69,48,36,232,8.0,2-3,minor
71010,74,54,92,320,11.0,2-2,other
71011,72,49,124,72,11.0,2-2,other
71012,38,18,88,192,8.0,3-2A,minor
71013,38,51,52,700,2.0,4-26,minor
71014,74,35,180,172,5.0,2-4,major
71015,34,40,42,440,7.0,2-4,major
71016,34,52,40,520,9.0,3-2B,minor
71017,36,63,332,120,3.0,5-13A,augmented
71018,59,94,308,26,3.0,5-13A,augmented
71019,36,72,420,354,2.0,2-5,other
71020,86,32,116,352,0.0,4-22A,major
71021,35,75,104,308,7.0,2-5,other
71022,38,85,162,342,7.0,4-18A,major
71023,37,46,114,66,5.0,5-33,augmented
71024,39,31,48,40,5.0,5-33,augmented
71025,38,74,186,124,11.0,2-2,other
71026,65,38,60,88,1.0,3-10,other
71027,59,61,52,118,1.0,3-10,other
71028,39,39,56,26,1.0,3-10,other
71029,38,45,128,40,1.0,3-10,other
71030,64,43,204,344,7.0,4-29B,major
71031,38,32,112,262,1.0,3-7A,minor
71032,38,36,118,278,1.0,3-7B,other
71033,100,59,132,32,1.0,3-7B,other
71034,35,52,22,56,1.0,3-7B,other
71035,99,40,124,344,11.0,2-3,minor
71036,100,70,60,124,11.0,2-3,minor
71037,60,35,168,68,11.0,2-3,minor
71038,99,47,120,232,7.0,5-8,major
71039,99,42,96,328,11.0,2-3,minor
71040,100,46,48,116,11.0,2-3,minor
71041,35,57,26,26,11.0,2-3,minor
71042,103,83,108,42,11.0,2-3,minor
71043,44,88,116,88,6.0,3-8B,other
71044,35,68,38,238,4.0,2-5,other
71045,53,44,448,74,0.0,3-4A,major
71046,59,87,288,98,10.0,2-1,other
71047,43,65,36,102,10.0,2-1,other
71048,38,63,76,140,10.0,2-1,other
71049,96,36,96,1128,8.0,2-3,minor
71050,34,48,96,32,8.0,2-3,minor
71051,36,54,332,124,4.0,3-11A,minor
71052,35,24,48,42,4.0,3-11A,minor
71053,89,60,148,146,4.0,3-11A,minor
71054,34,54,212,76,4.0,3-11A,minor
71055,87,76,48,168,7.0,3-3A,major
71056,84,41,120,444,11.0,2-6,other
71057,36,52,80,140,11.0,2-6,other
71058,53,36,160,92,0.0,2-4,other
71059,84,46,108,104,8.0,2-3,minor
71060,84,68,72,212,8.0,2-3,minor
71061,36,63,376,88,4.0,3-7A,minor
71062,84,54,132,68,11.0,1-1,other
71063,86,56,92,180,11.0,1-1,other
71064,83,39,140,180,0.0,3-3B,other
71065,81,5,40,128,0.0,3-3B,other
71066,82,54,96,284,11.0,2-5,other
71067,80,54,80,48,11.0,2-5,other
71068,78,53,84,52,11.0,2-5,other
71069,76,49,24,88,11.0,2-5,other
71070,59,84,68,30,11.0,2-5,other
71071,58,22,112,82,3.0,2-5,other
71072,71,38,36,164,8.0,4-23,minor
71073,68,41,84,100,10.0,1-1,other
71074,67,39,36,76,0.0,2-2,other
71075,67,56,92,188,11.0,2-2,other
71076,68,52,36,32,11.0,2-2,other
71077,69,50,84,72,11.0,2-2,other
71078,67,48,48,96,11.0,2-2,other
71079,44,112,138,90,7.0,3-8A,major
71080,67,61,208,62,7.0,3-8A,major
71081,57,34,52,288,2.0,2-5,other
71082,65,60,124,84,11.0,2-2,other
71083,57,33,44,260,7.0,2-2,other
71084,65,54,176,112,8.0,2-3,minor
71085,38,36,110,126,8.0,2-3,minor
71086,35,54,88,102,8.0,2-3,minor
71087,36,56,26,44,8.0,2-3,minor
71088,45,36,62,126,11.0,1-1,other
71089,38,47,40,222,11.0,1-1,other
71090,65,39,128,132,8.0,4-28,diminished
71091,35,50,42,202,8.0,4-28,diminished
71092,32,48,112,1186,0.0,3-11B,major
71093,54,35,40,448,0.0,2-2,other
71094,44,98,122,446,1.0,2-2,other
71095,34,23,56,310,0.0,2-1,other
71096,35,31,26,90,11.0,4-29A,minor
71097,36,32,130,36,11.0,4-29A,minor
71098,60,46,44,434,4.0,4-27B,major
71099,61,39,76,100,4.0,4-27B,major
71100,62,62,68,92,1.0,2-2,other
71101,41,58,316,56,1.0,2-2,other
71102,64,57,48,140,3.0,2-4,other
71103,35,31,32,160,3.0,3-11A,other
71104,73,61,24,200,8.0,2-3,minor
71105,74,51,24,80,8.0,2-3,minor
71106,76,60,60,128,3.0,2-1,other
71107,69,28,48,564,8.0,2-3,minor
71108,69,49,84,116,8.0,2-3,minor
71109,64,57,108,280,5.0,3-4A,major
71110,41,55,312,252,2.0,3-11A,minor
71111,65,38,60,332,5.0,2-2,other
71112,69,57,80,144,11.0,2-2,other
71113,70,50,104,96,11.0,2-2,other
71114,69,45,84,68,11.0,2-2,other
71115,67,54,52,92,11.0,2-2,other
71116,69,52,200,116,8.0,3-10,diminished
71117,55,24,604,260,1.0,2-3,other
71118,72,44,36,92,11.0,2-2,other
71119,75,45,48,92,11.0,2-2,other
71120,77,71,88,100,11.0,2-2,other
71121,35,52,26,68,11.0,2-2,other
71122,87,42,92,240,0.0,2-1,other
71123,35,56,38,142,1.0,4-15B,minor
71124,91,79,84,50,1.0,4-15B,minor
71125,86,66,132,120,11.0,2-3,minor
71126,37,61,80,208,11.0,2-3,minor
71127,86,50,48,28,11.0,2-3,minor
71128,86,51,92,132,4.0,3-11B,major
71129,38,39,40,240,4.0,3-11B,major
71130,35,31,40,344,11.0,2-6,other
71131,36,25,40,50,11.0,2-6,other
71132,51,49,22,216,0.0,7-23A,other
71133,38,39,74,312,3.0,3-12,augmented
71134,51,47,22,70,3.0,3-12,augmented
71135,35,42,26,130,3.0,3-12,augmented
71136,38,57,124,398,7.0,3-3A,major
71137,55,90,696,104,3.0,6-39A,other
71138,35,36,36,272,3.0,6-28,other
71139,54,34,160,480,1.0,5-25A,diminished
71140,45,36,36,296,9.0,3-2B,minor
71141,95,27,152,556,5.0,6-24B,other
71142,34,40,86,214,5.0,6-24B,other
71143,57,34,176,558,5.0,4-20,major
71144,37,49,96,236,5.0,4-20,major
71145,83,29,92,152,5.0,4-20,major
71146,35,36,38,210,11.0,2-3,minor
71147,40,61,352,874,4.0,4-26,minor
71148,55,46,108,332,4.0,3-7B,other
71149,81,76,72,252,0.0,2-4,other
71150,35,38,32,62,0.0,2-4,other
71151,83,77,96,66,0.0,2-4,other
71152,62,28,100,392,0.0,4-16A,other
71153,76,57,60,68,8.0,3-2B,other
71154,78,56,72,148,8.0,3-2B,other
71155,72,43,32,360,11.0,2-2,other
71156,35,38,184,648,1.0,2-2,other
71157,70,66,92,140,1.0,2-2,other
71158,35,69,72,76,1.0,2-2,other
71159,68,40,100,196,3.0,3-4A,other
71160,69,54,76,128,3.0,3-4A,other
71161,72,74,104,112,11.0,1-1,other
71162,36,36,126,122,11.0,2-3,minor
71163,69,46,248,30,11.0,2-3,minor
71164,60,23,44,236,0.0,2-1,other
71165,64,68,84,28,0.0,2-1,other
71166,36,20,52,124,8.0,3-10,diminished
71167,64,35,124,32,8.0,3-10,diminished
71168,60,45,60,216,11.0,1-1,other
71169,62,37,72,300,3.0,2-4,major
71170,59,43,66,28,3.0,2-4,major
71171,54,39,152,72,5.0,2-5,other
71172,57,50,64,360,7.0,2-5,other
71173,60,54,288,112,7.0,2-4,major
71174,31,42,42,98,7.0,2-4,major
71175,35,57,32,516,8.0,2-3,minor
71176,34,45,32,30,8.0,2-3,minor
71177,57,52,196,112,7.0,4-16B,major
71178,60,50,184,404,4.0,5-18A,major
71179,34,44,116,196,4.0,5-18A,major
71180,46,45,84,72,4.0,5-18A,major
71181,36,63,732,48,4.0,5-18A,major
71182,57,36,200,60,0.0,4-20,major
71183,59,54,4,610,0.0,5-21B,other
71184,52,41,100,418,8.0,2-2,other
71185,39,66,452,60,8.0,2-2,other
71186,64,41,160,72,1.0,5-10A,other
71187,51,42,40,276,1.0,2-2,other
71188,51,39,84,352,10.0,2-1,other
71189,58,44,84,300,8.0,7-31A,diminished
71190,36,56,28,50,8.0,7-31A,diminished
71191,35,42,38,280,1.0,7-31B,minor
71192,34,48,84,1670,7.0,5-29B,minor
71193,59,63,84,362,5.0,6-28,augmented
71194,34,48,112,394,11.0,2-3,minor
71195,35,69,400,852,3.0,5-38A,other
71196,97,26,100,176,6.0,3-1,other
71197,59,52,10,114,6.0,3-1,other
71198,35,22,36,160,0.0,2-1,other
71199,52,39,96,186,1.0,5-25A,diminished
71200,34,35,96,88,1.0,5-25A,diminished
71201,46,76,372,464,8.0,4-6,other
71202,34,33,40,124,8.0,4-6,other
71203,35,42,40,120,8.0,4-6,other
71204,61,42,248,744,11.0,3-1,other
71205,94,61,200,192,8.0,3-2B,other
71206,31,70,32,370,11.0,2-2,other
71207,94,63,112,46,11.0,2-2,other
71208,31,87,32,162,11.0,2-2,other
71209,87,53,116,226,1.0,3-7B,other
71210,88,46,80,60,1.0,3-7B,other
71211,31,77,40,32,1.0,3-7B,other
71212,85,66,84,124,7.0,2-4,major
71213,60,46,232,56,6.0,2-2,other
71214,84,48,92,168,11.0,2-3,minor
71215,44,105,112,266,7.0,2-4,major
71216,81,49,60,54,7.0,2-4,major
71217,75,55,32,356,11.0,2-6,other
71218,76,38,72,68,11.0,2-6,other
71219,60,39,248,200,6.0,4-10,other
71220,72,43,152,116,0.0,4-19B,augmented
71221,53,17,56,328,9.0,4-29A,minor
71222,69,43,140,84,11.0,3-2A,minor
71223,34,43,52,70,11.0,3-2A,minor
71224,35,45,32,126,11.0,3-2A,minor
71225,72,69,104,40,11.0,3-2A,minor
71226,59,46,76,48,11.0,3-2A,minor
71227,69,34,116,132,8.0,3-6,other
71228,34,36,72,156,8.0,3-6,other
71229,64,45,32,64,3.0,2-4,other
71230,43,67,276,60,3.0,2-4,other
71231,35,33,42,36,3.0,2-4,other
71232,41,57,296,332,5.0,2-1,other
71233,71,47,152,88,8.0,2-3,minor
71234,55,48,96,256,11.0,3-2A,minor
71235,74,71,148,156,4.0,2-5,other
71236,40,57,32,164,4.0,2-5,other
71237,55,31,52,100,11.0,3-10,diminished
71238,75,31,44,500,3.0,2-4,other
71239,33,70,392,264,4.0,3-10,diminished
71240,73,42,148,100,1.0,3-7B,other
71241,38,68,380,296,2.0,3-11A,minor
71242,59,91,294,26,2.0,3-11A,minor
71243,44,112,112,388,8.0,2-3,minor
71244,62,22,76,62,5.0,2-4,major
71245,53,45,64,240,5.0,2-4,major
71246,51,49,84,752,1.0,4-1,other
71247,36,50,168,132,4.0,5-35,minor
71248,57,37,216,372,0.0,6-31A,other
71249,35,28,40,252,0.0,6-31A,other
71250,49,51,104,424,1.0,4-28,diminished
71251,50,56,80,364,5.0,4-29B,major
71252,50,12,268,140,11.0,2-3,minor
71253,34,43,52,74,11.0,2-3,minor
71254,57,66,364,226,11.0,2-2,other
71255,51,46,40,212,4.0,2-2,other
71256,59,50,76,92,4.0,4-27A,diminished
71257,35,33,42,132,7.0,2-4,major
71258,51,41,36,268,0.0,2-1,other
71259,67,23,48,936,0.0,5-27A,major
71260,71,43,88,584,11.0,2-1,other
71261,67,38,40,164,0.0,3-12,augmented
71262,45,41,448,256,9.0,3-8A,major
71263,59,91,294,74,9.0,3-8A,major
71264,36,63,82,252,9.0,3-8A,major
71265,52,44,80,30,9.0,3-8A,major
71266,61,40,88,412,1.0,4-28,diminished
71267,38,21,122,168,1.0,2-2,other
71268,60,47,64,576,1.0,3-1,other
71269,64,33,56,132,0.0,4-3,minor
71270,60,24,52,44,0.0,4-3,minor
71271,76,66,76,88,0.0,4-3,minor
71272,38,56,124,88,0.0,4-3,minor
71273,81,84,92,32,0.0,4-3,minor
71274,76,43,72,260,4.0,3-11B,major
71275,74,46,36,268,11.0,2-6,other
71276,75,62,96,36,11.0,2-6,other
71277,74,46,92,84,11.0,2-6,other
71278,36,42,114,632,11.0,1-1,other
71279,43,50,24,76,11.0,1-1,other
71280,53,31,196,580,4.0,1-1,other
71281,74,54,148,144,7.0,2-4,major
71282,71,54,128,384,4.0,3-11B,major
71283,36,48,248,28,4.0,3-11B,major
71284,31,45,54,52,4.0,3-11B,major
71285,72,55,172,308,0.0,2-1,other
71286,57,38,36,252,7.0,2-3,minor
71287,69,49,76,292,0.0,3-3B,other
71288,65,58,52,124,0.0,2-4,other
71289,67,75,164,120,11.0,3-5A,other
71290,68,72,144,212,11.0,3-5A,other
71291,67,48,220,164,1.0,3-7B,other
71292,57,31,108,240,4.0,1-1,other
71293,67,58,340,92,0.0,2-1,other
71294,36,39,72,576,7.0,3-3A,major
71295,36,17,48,82,0.0,6-21A,augmented
71296,36,48,38,120,11.0,2-5,other
71297,37,75,160,382,8.0,4-18A,diminished
71298,61,58,120,80,8.0,4-18A,diminished
71299,31,64,58,36,8.0,4-18A,diminished
71300,34,54,96,120,0.0,2-1,other
71301,30,82,156,36,0.0,2-1,other
71302,64,68,72,44,0.0,2-1,other
71303,59,98,292,34,0.0,2-1,other
71304,29,62,360,58,0.0,3-3A,minor
71305,62,57,60,112,0.0,3-3A,minor
71306,67,78,84,88,0.0,3-3A,minor
71307,66,56,108,100,0.0,3-3A,minor
71308,65,49,68,104,0.0,3-3B,other
71309,69,82,96,96,0.0,3-3B,other
71310,60,40,32,40,0.0,3-3B,other
71311,34,46,88,76,8.0,2-3,minor
71312,71,75,104,160,7.0,3-8A,major
71313,70,50,84,108,7.0,3-8A,major
71314,69,57,56,84,7.0,3-8A,major
71315,73,48,96,196,3.0,3-11A,other
71316,72,50,48,104,3.0,3-11A,other
71317,39,49,104,480,0.0,2-4,major
71318,40,31,48,396,8.0,4-12B,diminished
71319,64,54,32,260,0.0,2-1,other
71320,70,76,96,360,8.0,3-2B,other
71321,45,66,380,236,7.0,2-4,major
71322,74,73,120,32,7.0,2-4,major
71323,71,45,32,156,7.0,2-4,major
71324,72,59,96,108,7.0,2-4,major
71325,38,46,52,646,4.0,2-5,other
71326,76,40,40,286,9.0,2-1,other
71327,78,65,72,108,9.0,2-1,other
71328,38,38,38,44,9.0,2-1,other
71329,59,35,64,42,9.0,2-1,other
71330,82,56,32,190,11.0,2-3,minor
71331,84,61,52,104,11.0,2-3,minor
71332,88,47,40,260,8.0,3-2B,other
71333,90,65,52,112,8.0,3-2B,other
71334,59,75,54,102,8.0,3-2B,other
71335,94,60,76,162,11.0,3-1,other
71336,96,68,68,112,11.0,3-1,other
71337,87,51,104,1052,8.0,3-10,diminished
71338,88,54,76,80,8.0,3-10,diminished
71339,38,41,30,26,8.0,3-10,diminished
71340,31,59,48,654,8.0,3-2B,other
71341,31,50,54,94,8.0,3-2B,other
71342,84,48,28,54,8.0,3-2B,other
71343,59,56,52,70,8.0,3-2B,other
71344,86,66,24,34,8.0,3-2B,other
71345,88,31,36,344,4.0,5-28A,other
71346,35,26,50,1914,4.0,3-7A,minor
71347,41,54,140,386,11.0,2-6,other
71348,42,66,360,112,11.0,2-6,other
71349,70,34,32,496,2.0,5-27B,minor
71350,35,43,40,560,8.0,4-13B,diminished
71351,44,94,138,510,11.0,1-1,other
71352,38,63,130,50,11.0,1-1,other
71353,34,31,72,640,2.0,3-9,other
71354,35,43,42,1114,3.0,3-11A,other
71355,37,25,40,50,3.0,3-11A,other
71356,45,61,52,552,5.0,2-5,other
71357,59,119,36,534,5.0,3-4A,major
71358,44,84,122,132,4.0,3-5B,other
71359,57,71,208,266,0.0,6-46A,major
71360,57,39,28,584,0.0,4-22A,major
71361,59,56,80,938,7.0,1-1,other
71362,59,57,20,384,5.0,6-28,augmented
71363,38,22,28,944,8.0,2-3,minor
71364,36,39,42,232,10.0,2-1,other
71365,38,48,580,126,11.0,2-2,other
71366,36,27,64,32,11.0,2-2,other
71367,81,39,116,268,0.0,3-4A,major
71368,81,48,40,368,0.0,4-16A,major
71369,60,45,48,368,6.0,4-5B,other
71370,42,65,300,120,8.0,2-3,minor
71371,59,59,96,230,8.0,2-3,minor
71372,57,45,64,410,0.0,4-8,major
71373,53,22,88,1100,8.0,2-3,minor
71374,38,54,100,56,4.0,2-5,other
71375,35,40,68,130,4.0,2-5,other
71376,54,26,372,86,4.0,4-26,minor
71377,38,50,60,916,11.0,2-1,other
71378,55,64,632,400,5.0,7-6A,other
71379,59,57,14,102,5.0,7-6A,other
71380,36,46,150,34,5.0,7-6A,other
71381,35,40,24,60,5.0,7-6A,other
71382,99,88,200,56,5.0,7-6A,other
71383,40,50,28,104,5.0,7-6A,other
71384,98,99,188,156,3.0,3-11A,other
71385,38,66,90,234,3.0,3-11A,other
71386,59,98,320,124,1.0,3-10,diminished
71387,96,82,104,158,1.0,3-10,diminished
71388,37,61,372,192,4.0,2-2,other
71389,84,57,120,556,11.0,4-10,minor
71390,60,31,328,64,11.0,4-10,minor
71391,34,43,128,60,11.0,4-10,minor
71392,35,31,32,30,11.0,4-10,minor
71393,45,72,360,62,11.0,4-10,minor
71394,86,46,68,228,0.0,3-3B,other
71395,81,39,32,108,11.0,3-5B,other
71396,34,66,38,610,6.0,6-24B,diminished
71397,38,48,48,88,6.0,6-24B,diminished
71398,79,54,28,42,6.0,6-24B,diminished
71399,88,98,68,388,5.0,4-4B,other
71400,88,102,136,388,11.0,2-3,minor
71401,91,66,92,184,11.0,1-1,other
71402,84,48,28,144,5.0,2-1,other
71403,72,59,44,352,8.0,3-10,minor
71404,76,71,84,224,11.0,1-1,other
71405,72,63,72,120,11.0,1-1,other
71406,59,70,36,482,4.0,4-18A,major
71407,59,75,180,128,3.0,2-4,major
71408,60,53,60,174,5.0,2-1,other
71409,59,77,22,82,5.0,2-1,other
71410,38,44,42,396,3.0,2-1,other
71411,51,67,88,42,3.0,2-1,other
71412,52,54,80,136,7.0,2-4,major
71413,35,40,24,32,7.0,2-4,major
71414,53,47,52,108,7.0,2-4,major
71415,33,52,116,40,7.0,2-4,major
71416,38,52,42,34,7.0,2-4,major
71417,54,55,96,50,7.0,2-4,major
71418,55,42,248,156,8.0,2-3,minor
71419,48,55,168,228,9.0,2-3,minor
71420,24,38,184,36,9.0,2-3,minor
71421,58,43,2392,648,9.0,2-3,minor
71422,64,49,2248,116,9.0,2-3,minor
71423,67,30,60,104,9.0,2-3,minor
71424,69,49,60,68,9.0,2-3,minor
71425,70,52,28,76,9.0,2-3,minor
71426,74,60,68,108,9.0,2-3,minor
71427,78,56,68,84,9.0,2-3,minor
71428,81,57,44,96,9.0,2-3,minor
71429,78,39,32,76,9.0,2-3,minor
71430,79,51,80,48,9.0,2-3,minor
71431,81,36,40,100,9.0,2-3,minor
71432,82,60,24,52,9.0,2-3,minor
71433,86,57,52,108,9.0,2-3,minor
71434,90,51,68,84,9.0,2-3,minor
71435,93,60,70,88,9.0,2-3,minor
71436,90,51,28,108,9.0,2-3,minor
71437,91,50,100,60,9.0,2-3,minor
71438,93,50,80,112,9.0,2-3,minor
71439,94,57,24,88,9.0,2-3,minor
71440,98,64,72,108,9.0,2-3,minor
71441,102,60,108,104,9.0,2-3,minor
71442,105,72,96,128,9.0,2-3,minor
71443,105,69,104,184,9.0,2-3,minor
71444,105,66,104,208,9.0,2-3,minor
71445,105,63,116,228,9.0,2-3,minor
71446,105,61,132,236,9.0,2-3,minor
71447,36,58,377,0,,,
71448,43,39,267,130,,,
71449,71,74,62,717,5.0,3-11B,major
71450,72,77,55,82,5.0,3-11B,major
71451,84,84,221,382,4.0,3-11A,minor
71452,83,54,154,324,0.0,4-24,augmented
71453,52,53,78,238,9.0,3-2B,minor
71454,59,38,80,88,9.0,3-2B,minor
71455,60,41,197,88,9.0,3-2B,minor
71456,64,57,183,83,9.0,3-2B,minor
71457,71,57,86,93,9.0,3-2B,minor
71458,55,52,151,178,7.0,3-11B,major
71459,79,90,71,175,11.0,2-3,minor
71460,47,34,20,183,7.0,2-4,major
71461,55,49,74,167,7.0,2-3,minor
71462,58,44,214,82,7.0,2-3,minor
71463,64,24,173,90,7.0,2-3,minor
71464,67,47,139,403,9.0,2-2,other
71465,72,42,366,100,9.0,2-2,other
71466,65,48,296,93,9.0,2-2,other
71467,84,90,83,89,9.0,2-2,other
71468,67,57,159,284,8.0,2-3,other
71469,68,48,159,92,8.0,2-3,other
71470,65,50,234,99,8.0,2-3,other
71471,68,29,167,102,8.0,2-3,other
71472,56,34,79,99,8.0,2-3,other
71473,64,46,104,188,7.0,1-1,other
71474,64,35,179,172,5.0,3-6,major
71475,76,68,199,93,5.0,3-6,major
71476,55,36,16,93,5.0,3-6,major
71477,76,80,135,335,0.0,4-24,augmented
71478,64,54,80,93,0.0,4-24,augmented
71479,61,51,334,391,5.0,4-20,major
71480,81,56,70,212,9.0,3-11B,major
71481,53,41,53,225,2.0,2-5,other
71482,41,41,272,243,2.0,5-29B,minor
71483,65,55,367,117,2.0,5-29B,minor
71484,56,25,65,115,2.0,5-29B,minor
71485,72,66,49,486,0.0,3-11B,major
71486,55,80,112,197,0.0,2-4,major
71487,55,44,63,200,4.0,2-2,other
71488,43,46,129,402,2.0,5-35,minor
71489,43,40,33,186,2.0,5-35,minor
71490,43,41,392,183,2.0,5-35,minor
71491,57,59,79,187,0.0,3-4A,major
71492,67,89,293,97,0.0,3-4A,major
71493,60,68,198,93,0.0,3-4A,major
71494,43,35,474,90,0.0,3-4A,major
71495,59,45,50,100,0.0,3-4A,major
71496,76,79,312,98,0.0,3-4A,major
71497,53,44,94,198,9.0,2-2,other
71498,65,47,40,100,9.0,2-2,other
71499,55,43,464,186,0.0,2-4,major
71500,62,60,64,93,0.0,2-4,major
71501,60,58,347,101,0.0,2-4,major
71502,64,61,45,88,0.0,2-4,major
71503,57,39,413,271,2.0,3-7A,minor
71504,60,54,14,75,2.0,3-7A,minor
71505,76,81,265,180,5.0,2-5,other
71506,52,30,332,178,7.0,2-5,other
71507,62,39,107,81,7.0,2-5,other
71508,84,76,215,86,7.0,2-5,other
71509,60,44,233,469,9.0,3-11A,minor
71510,74,65,108,218,4.0,2-4,major
71511,72,51,251,125,4.0,2-4,major
71512,67,64,99,76,4.0,2-4,major
71513,59,47,101,317,7.0,3-11B,major
71514,79,85,58,194,7.0,3-11B,major
71515,79,71,42,84,7.0,3-11B,major
71516,58,29,151,181,7.0,2-3,minor
71517,58,29,109,192,7.0,2-3,minor
71518,79,57,32,172,4.0,3-8A,other
71519,53,43,393,186,5.0,3-6,major
71520,60,55,37,87,5.0,3-6,major
71521,64,68,45,298,7.0,2-2,other
71522,67,68,159,148,8.0,2-3,other
71523,44,30,160,200,5.0,2-5,other
71524,53,39,90,102,5.0,2-5,other
71525,52,46,99,293,4.0,2-3,minor
71526,76,92,58,343,7.0,1-1,other
71527,58,29,50,402,4.0,2-4,major
71528,75,62,39,198,0.0,4-24,augmented
71529,76,74,47,54,0.0,4-24,augmented
71530,53,40,171,372,2.0,2-5,other
71531,64,34,81,432,5.0,4-14A,other
71532,68,29,218,463,0.0,4-16A,other
71533,74,32,81,193,0.0,4-16A,other
71534,60,46,36,205,0.0,2-4,major
71535,43,60,146,193,4.0,2-3,minor
71536,31,51,184,206,0.0,3-11B,major
71537,31,91,196,218,5.0,4-22A,major
71538,31,57,263,213,8.0,4-12A,minor
71539,43,36,186,109,8.0,4-12A,minor
71540,56,1,176,42,8.0,4-12A,minor
71541,60,50,46,160,8.0,4-12A,minor
71542,55,36,240,368,0.0,3-11B,major
71543,48,34,786,314,0.0,3-11B,major
71544,60,30,110,234,0.0,3-11B,major
71545,64,39,53,107,0.0,3-11B,major
71546,76,80,328,109,0.0,3-11B,major
71547,76,60,37,815,5.0,3-11B,major
71548,77,69,31,71,5.0,3-11B,major
71549,82,61,62,492,4.0,2-6,other
71550,61,33,273,265,5.0,3-12,augmented
71551,79,63,72,189,9.0,2-5,other
71552,65,49,85,181,7.0,3-7B,other
71553,69,50,151,91,7.0,3-7B,other
71554,76,62,92,90,7.0,3-7B,other
71555,65,22,210,210,2.0,4-26,minor
71556,69,54,81,99,2.0,4-26,minor
71557,72,41,71,222,2.0,4-26,minor
71558,65,1,23,50,2.0,4-26,minor
71559,60,6,60,1238,4.0,2-3,minor
71560,72,44,80,117,4.0,2-3,minor
71561,100,35,34,538,0.0,2-4,major
71562,82,57,59,873,0.0,2-4,major
71563,86,92,55,593,2.0,4-26,minor
71564,62,46,76,1509,10.0,3-11B,major
71565,62,58,60,103,10.0,3-11B,major
71566,62,58,73,207,2.0,5-35,minor
71567,62,54,90,103,2.0,5-35,minor
71568,62,54,58,112,2.0,5-35,minor
71569,62,48,81,384,2.0,5-29B,minor
71570,62,52,57,119,2.0,5-29B,minor
71571,62,51,78,167,2.0,5-29B,minor
71572,74,61,61,521,2.0,5-29B,minor
71573,72,78,53,622,0.0,3-11B,major
71574,74,53,37,52,0.0,3-11B,major
71575,71,71,77,444,5.0,3-11B,major
71576,72,76,68,89,5.0,3-11B,major
71577,83,57,91,982,9.0,3-9,other
71578,84,72,85,193,0.0,3-4A,major
71579,55,38,236,463,7.0,2-4,major
71580,59,46,133,186,11.0,2-3,minor
71581,57,46,96,390,7.0,4-18A,minor
71582,58,50,205,98,7.0,4-18A,minor
71583,70,34,157,93,7.0,4-18A,minor
71584,79,68,53,167,6.0,2-5,other
71585,53,38,78,164,9.0,3-7A,minor
71586,60,46,80,162,9.0,2-3,minor
71587,65,57,19,170,2.0,3-11A,minor
71588,65,39,24,199,0.0,3-4A,other
71589,60,26,48,197,0.0,3-12,augmented
71590,60,1,37,161,8.0,2-3,other
71591,53,38,14,30,8.0,2-3,other
71592,55,45,52,201,0.0,3-11B,major
71593,60,65,21,92,0.0,3-11B,major
71594,52,36,9,252,0.0,2-4,major
71595,64,69,45,166,6.0,3-7A,minor
71596,69,78,36,74,6.0,3-7A,minor
71597,60,31,101,450,5.0,3-4A,major
71598,60,33,312,184,9.0,2-5,other
71599,53,26,35,195,0.0,1-1,other
71600,64,24,65,452,9.0,2-5,other
71601,72,72,53,519,9.0,2-5,other
71602,55,38,139,340,0.0,4-22A,major
71603,55,31,207,205,4.0,3-7A,minor
71604,62,24,92,95,4.0,3-7A,minor
71605,43,34,50,84,4.0,3-7A,minor
71606,43,36,62,205,2.0,5-35,minor
71607,43,40,73,95,2.0,5-35,minor
71608,43,47,66,300,8.0,5-31B,diminished
71609,43,47,160,90,8.0,5-31B,diminished
71610,55,74,230,287,9.0,4-26,minor
71611,43,45,85,186,9.0,4-26,minor
71612,48,34,348,1077,0.0,3-11B,major
71613,83,51,30,390,5.0,3-11B,major
71614,86,74,22,40,5.0,3-11B,major
71615,83,78,27,347,8.0,3-5B,other
71616,86,90,24,39,8.0,3-5B,other
71617,80,26,24,92,9.0,3-11A,minor
71618,83,62,30,42,9.0,3-11A,minor
71619,81,53,39,44,9.0,3-11A,minor
71620,76,42,20,48,9.0,3-11A,minor
71621,74,48,35,44,9.0,3-11A,minor
71622,72,27,31,43,9.0,3-11A,minor
71623,71,50,40,46,9.0,3-11A,minor
71624,74,60,29,44,9.0,3-11A,minor
71625,72,45,30,48,9.0,3-11A,minor
71626,67,46,24,351,7.0,2-5,other
71627,74,71,21,84,7.0,2-5,other
71628,45,50,21,499,1.0,3-10,minor
71629,76,64,36,313,9.0,3-11A,minor
71630,84,88,29,74,9.0,3-11A,minor
71631,89,64,203,146,0.0,4-19B,other
71632,80,36,135,77,0.0,4-19B,other
71633,79,46,40,156,2.0,2-3,minor
71634,77,70,26,75,2.0,2-3,minor
71635,76,50,85,106,4.0,2-2,other
71636,67,39,183,160,0.0,2-5,other
71637,60,26,221,90,0.0,2-5,other
71638,76,77,64,80,0.0,2-5,other
71639,72,44,47,71,0.0,2-5,other
71640,60,20,137,415,0.0,3-12,augmented
71641,75,62,28,60,0.0,3-12,augmented
71642,76,80,32,40,0.0,3-12,augmented
71643,69,44,40,99,5.0,3-6,major
71644,76,66,42,192,1.0,2-3,minor
71645,73,25,32,41,1.0,2-3,minor
71646,81,87,35,895,4.0,2-2,other
71647,72,50,88,151,11.0,2-3,minor
71648,65,29,39,275,7.0,2-2,other
71649,76,58,17,76,7.0,2-2,other
71650,43,36,298,161,5.0,4-22A,major
71651,43,45,304,333,2.0,3-9,other
71652,43,37,143,326,5.0,4-22A,major
71653,43,41,86,171,5.0,3-11B,major
71654,43,30,130,159,4.0,4-18A,major
71655,71,66,24,342,2.0,2-2,other
71656,72,52,37,145,0.0,3-4A,major
71657,57,27,56,214,2.0,4-26,minor
71658,51,42,27,710,6.0,4-28,diminished
71659,74,89,20,422,9.0,3-7A,minor
71660,74,54,27,41,9.0,3-7A,minor
71661,79,80,30,446,7.0,2-4,major
71662,78,58,26,398,1.0,3-10,minor
71663,79,64,26,44,1.0,3-10,minor
71664,84,88,73,376,2.0,3-7A,minor
71665,77,61,148,77,2.0,3-7A,minor
71666,80,67,29,153,0.0,4-19A,augmented
71667,68,40,66,78,0.0,4-19A,augmented
71668,67,53,155,77,0.0,4-19A,augmented
71669,60,20,11,83,0.0,4-19A,augmented
71670,79,76,39,75,0.0,4-19A,augmented
71671,67,14,34,32,0.0,4-19A,augmented
71672,76,69,79,122,4.0,3-2A,minor
71673,67,52,225,77,4.0,3-2A,minor
71674,64,35,71,80,4.0,3-2A,minor
71675,60,25,143,81,4.0,3-2A,minor
71676,76,77,287,74,4.0,3-2A,minor
71677,60,39,109,156,0.0,4-24,augmented
71678,54,33,121,158,4.0,2-4,major
71679,75,37,10,294,5.0,4-20,major
71680,61,48,79,186,2.0,3-11A,minor
71681,60,38,113,87,2.0,3-11A,minor
71682,53,33,31,80,2.0,3-11A,minor
71683,62,20,15,172,8.0,3-10,other
71684,53,45,145,165,8.0,3-10,other
71685,77,89,79,155,8.0,3-10,other
71686,67,38,27,168,0.0,2-4,major
71687,64,1,63,109,0.0,1-1,other
71688,64,41,22,134,0.0,1-1,other
71689,59,34,62,593,5.0,4-22A,major
71690,43,31,71,162,0.0,1-1,other
71691,55,45,128,153,2.0,3-9,other
71692,72,70,34,154,0.0,3-9,other
71693,64,41,94,160,0.0,4-24,augmented
71694,57,36,470,397,4.0,1-1,other
71695,76,37,12,261,7.0,2-2,other
71696,89,95,163,139,5.0,1-1,other
71697,55,50,405,73,5.0,1-1,other
71698,79,54,224,162,0.0,2-4,major
71699,82,76,57,243,0.0,2-4,major
71700,72,42,63,236,5.0,2-5,other
71701,77,36,32,79,5.0,2-5,other
71702,88,87,31,157,5.0,6-17A,other
71703,57,32,150,327,2.0,4-26,minor
71704,50,33,17,154,5.0,3-11B,major
71705,40,50,162,178,0.0,3-11B,major
71706,40,20,168,174,0.0,2-5,other
71707,67,101,159,235,0.0,2-5,other
71708,55,43,73,258,11.0,3-7A,minor
71709,65,56,22,153,11.0,3-7A,minor
71710,36,61,36,88,11.0,3-7A,minor
71711,76,85,73,87,11.0,3-7A,minor
71712,64,53,137,166,4.0,4-29B,other
71713,69,85,65,85,4.0,4-29B,other
71714,72,85,242,80,4.0,4-29B,other
71715,48,52,124,162,4.0,3-8B,other
71716,53,31,186,483,9.0,3-11A,minor
71717,57,73,76,477,0.0,2-5,other
71718,58,60,181,83,0.0,2-5,other
71719,60,53,166,87,0.0,2-5,other
71720,64,57,132,78,0.0,2-5,other
71721,70,69,58,78,0.0,2-5,other
71722,49,63,76,158,5.0,2-4,major
71723,50,80,232,166,9.0,3-11B,major
71724,41,62,34,155,2.0,2-5,other
71725,50,62,16,168,2.0,3-11B,major
71726,62,82,136,84,2.0,3-11B,major
71727,74,68,47,264,2.0,2-4,major
71728,62,51,36,1182,10.0,5-30B,other
71729,55,62,56,351,2.0,5-35,minor
71730,57,76,37,64,2.0,5-35,minor
71731,57,66,36,46,2.0,5-35,minor
71732,59,75,32,40,2.0,5-35,minor
71733,59,79,34,43,2.0,5-35,minor
71734,60,72,30,41,2.0,5-35,minor
71735,62,67,39,91,0.0,2-5,other
71736,62,51,38,49,0.0,2-5,other
71737,64,65,32,48,0.0,2-5,other
71738,65,62,32,108,4.0,3-2A,minor
71739,65,20,27,65,4.0,3-2A,minor
71740,67,50,41,57,4.0,3-2A,minor
71741,69,49,41,142,5.0,3-9,other
71742,69,49,78,78,5.0,3-9,other
71743,71,57,47,70,5.0,3-9,other
71744,72,47,36,145,4.0,4-26,minor
71745,72,51,190,74,4.0,4-26,minor
71746,72,67,33,228,4.0,2-3,minor
71747,71,54,49,381,9.0,2-3,minor
71748,72,45,36,43,9.0,2-3,minor
71749,52,27,18,886,9.0,4-26,minor
71750,55,32,192,206,7.0,2-4,major
71751,79,64,23,206,7.0,2-4,major
71752,78,48,30,34,7.0,2-4,major
71753,78,62,57,329,1.0,3-10,diminished
71754,79,77,52,77,1.0,3-10,diminished
71755,77,65,59,221,5.0,2-5,other
71756,76,64,20,98,7.0,2-2,other
71757,77,60,15,52,7.0,2-2,other
71758,84,70,6,64,7.0,2-2,other
71759,89,64,29,159,5.0,4-14A,other
71760,80,39,27,55,5.0,4-14A,other
71761,79,40,30,50,5.0,4-14A,other
71762,84,59,21,46,5.0,4-14A,other
71763,65,25,123,103,5.0,4-14A,other
71764,56,44,55,82,5.0,4-14A,other
71765,76,73,49,150,4.0,2-3,minor
71766,76,73,153,77,4.0,2-3,minor
71767,67,68,37,155,0.0,3-11B,major
71768,58,32,369,246,0.0,4-24,augmented
71769,64,58,41,72,0.0,4-24,augmented
71770,75,77,49,154,3.0,3-4A,other
71771,60,33,261,424,0.0,4-22A,major
71772,53,29,20,177,9.0,3-11A,minor
71773,84,40,42,201,6.0,4-27A,diminished
71774,72,44,37,406,0.0,2-4,major
71775,55,42,91,473,0.0,4-20,major
71776,65,92,42,87,0.0,4-20,major
71777,43,40,67,1001,4.0,2-3,minor
71778,43,43,235,519,5.0,4-22A,major
71779,77,66,23,93,5.0,4-22A,major
71780,43,33,48,440,4.0,4-26,minor
71781,76,54,90,850,8.0,4-28,diminished
71782,55,33,72,420,5.0,3-11A,other
71783,56,36,268,80,5.0,3-11A,other
71784,60,42,83,59,5.0,3-11A,other
71785,82,59,18,246,5.0,2-5,other
71786,96,55,51,122,0.0,2-4,other
71787,55,37,65,141,8.0,2-2,other
71788,60,26,319,156,8.0,2-3,other
71789,67,46,171,361,5.0,3-9,other
71790,72,49,306,80,5.0,3-9,other
71791,79,49,120,261,5.0,3-9,other
71792,43,39,58,257,6.0,3-10,diminished
71793,54,35,175,157,4.0,2-2,other
71794,80,36,19,0,7.0,5-34,major
71795,83,78,20,700,8.0,3-10,other
71796,83,59,18,39,8.0,3-10,other
71797,86,105,23,91,8.0,3-10,other
71798,57,36,53,60,0.0,4-11A,major
71799,84,73,30,57,0.0,4-11A,major
71800,76,29,19,118,9.0,5-5A,minor
71801,81,44,13,120,9.0,4-26,minor
71802,81,22,10,179,5.0,5-21A,major
71803,72,49,31,546,9.0,5-36B,other
71804,74,59,17,240,2.0,4-26,minor
71805,86,91,37,775,8.0,4-28,diminished
71806,83,63,18,99,8.0,4-28,diminished
71807,86,65,16,29,8.0,4-28,diminished
71808,93,101,14,893,9.0,3-11A,minor
71809,76,65,16,292,9.0,2-3,minor
71810,74,44,28,26,9.0,2-3,minor
71811,74,51,24,47,9.0,2-3,minor
71812,74,69,45,57,9.0,2-3,minor
71813,72,41,21,55,9.0,2-3,minor
71814,66,70,25,188,6.0,3-8B,other
71815,69,58,20,59,2.0,4-16B,major
71816,69,55,14,235,10.0,1-1,other
71817,66,59,17,345,7.0,3-2B,minor
71818,69,76,25,26,7.0,3-2B,minor
71819,67,58,27,57,10.0,2-4,other
71820,62,27,8,36,10.0,2-4,other
71821,67,96,27,138,4.0,3-8B,other
71822,66,52,20,34,4.0,3-8B,other
71823,69,74,20,62,7.0,3-11A,minor
71824,69,41,19,143,9.0,4-27A,diminished
71825,84,74,12,183,0.0,4-29B,major
71826,82,62,37,301,7.0,4-26,minor
71827,70,50,22,355,0.0,2-2,other
71828,60,24,19,187,5.0,3-3B,major
71829,79,36,11,55,5.0,3-3B,major
71830,69,66,35,237,9.0,2-1,other
71831,81,80,33,238,2.0,3-7B,other
71832,81,53,24,63,9.0,3-3A,minor
71833,82,68,12,63,9.0,3-3A,minor
71834,81,95,33,58,9.0,3-3A,minor
71835,80,37,19,69,10.0,2-1,other
71836,77,27,15,87,2.0,3-11A,minor
71837,77,62,23,31,2.0,3-11A,minor
71838,74,43,16,105,2.0,3-11A,minor
71839,79,29,13,931,6.0,5-29B,diminished
71840,57,33,10,559,9.0,4-22B,minor
71841,57,44,23,177,2.0,4-26,minor
71842,76,43,17,800,11.0,4-18A,diminished
71843,76,62,17,785,0.0,2-5,other
71844,79,55,31,58,6.0,3-8B,other
71845,67,42,9,136,0.0,2-4,major
71846,60,46,17,166,4.0,2-3,minor
71847,59,36,7,1890,5.0,4-20,major
71848,92,87,30,1408,4.0,4-26,minor
71849,96,72,20,36,4.0,4-26,minor
71850,92,58,44,28,4.0,4-26,minor
71851,90,52,27,297,1.0,5-31B,diminished
71852,88,76,13,32,1.0,5-31B,diminished
71853,87,52,41,27,1.0,5-31B,diminished
71854,85,76,25,31,1.0,5-31B,diminished
71855,84,48,16,31,1.0,5-31B,diminished
71856,80,29,30,60,1.0,4-27B,minor
71857,77,62,24,179,2.0,3-11A,minor
71858,62,28,10,247,6.0,2-1,other
71859,81,88,32,29,6.0,2-1,other
71860,85,72,19,477,8.0,3-10,other
71861,84,47,28,32,8.0,3-10,other
71862,80,43,30,63,9.0,4-14A,minor
71863,83,73,29,44,9.0,4-14A,minor
71864,76,53,18,100,9.0,4-19A,minor
71865,74,32,13,32,9.0,4-19A,minor
71866,64,54,12,350,5.0,4-20,major
71867,74,58,25,534,5.0,3-11B,major
71868,74,65,12,63,5.0,3-11B,major
71869,65,48,47,784,7.0,2-5,other
71870,72,75,33,243,8.0,3-10,diminished
71871,62,71,19,99,4.0,2-3,minor
71872,60,35,36,30,4.0,2-3,minor
71873,62,62,22,290,5.0,4-16A,major
71874,74,54,24,250,4.0,5-28A,other
71875,74,69,23,113,9.0,2-3,minor
71876,72,47,23,114,9.0,4-22B,minor
71877,72,65,9,164,0.0,4-24,augmented
71878,72,41,23,90,3.0,2-1,other
71879,90,58,16,364,9.0,2-2,other
71880,87,73,16,31,9.0,2-2,other
71881,86,73,21,27,9.0,2-2,other
71882,84,64,15,29,9.0,2-2,other
71883,82,37,27,26,9.0,2-2,other
71884,74,62,17,230,7.0,5-17,minor
71885,94,63,12,216,3.0,3-11B,major
71886,89,58,13,267,7.0,5-27B,minor
71887,89,61,19,120,10.0,4-2B,major
71888,88,29,19,365,9.0,2-3,minor
71889,84,39,19,125,3.0,2-1,other
71890,82,77,20,136,10.0,5-26B,augmented
71891,77,65,29,90,7.0,5-23A,minor
71892,72,45,21,75,7.0,4-18B,minor
71893,64,44,36,234,0.0,4-27B,major
71894,61,69,35,52,0.0,4-27B,major
71895,60,78,29,129,0.0,4-27B,major
71896,60,69,41,62,0.0,4-27B,major
71897,62,58,42,412,2.0,4-14A,minor
71898,74,44,32,544,7.0,3-7B,other
71899,77,76,31,53,7.0,3-7B,other
71900,69,52,29,56,7.0,3-7B,other
71901,69,59,7,42,7.0,3-7B,other
71902,70,74,16,489,7.0,3-5B,other
71903,71,56,24,26,7.0,3-5B,other
71904,74,70,18,56,2.0,2-1,other
71905,76,59,21,54,3.0,3-5A,other
71906,83,67,22,55,9.0,4-26,minor
71907,74,49,16,60,2.0,2-2,other
71908,74,34,13,124,2.0,2-2,other
71909,88,84,37,302,5.0,3-11B,major
71910,91,78,20,59,5.0,2-4,major
71911,81,47,29,128,9.0,2-5,other
71912,79,68,22,229,2.0,2-3,minor
71913,76,38,20,66,2.0,4-26,minor
71914,77,66,16,31,2.0,4-26,minor
71915,69,54,25,27,2.0,4-26,minor
71916,69,64,26,60,2.0,4-26,minor
71917,69,82,25,178,9.0,2-2,other
71918,62,50,24,300,2.0,2-3,minor
71919,62,63,10,38,2.0,2-3,minor
71920,74,54,34,278,8.0,3-10,minor
71921,72,47,30,282,1.0,2-2,other
71922,68,19,21,69,8.0,2-3,minor
71923,71,22,6,123,0.0,2-1,other
71924,67,71,20,26,0.0,2-1,other
71925,64,33,29,29,0.0,2-1,other
71926,64,58,38,56,0.0,2-1,other
71927,52,47,23,176,0.0,5-30B,other
71928,56,37,38,307,9.0,4-23,minor
71929,87,51,22,661,2.0,4-16B,major
71930,81,34,48,122,0.0,4-14A,minor
71931,95,55,11,1098,4.0,6-47B,other
71932,100,32,7,37,4.0,6-47B,other
71933,79,77,23,540,5.0,4-20,major
71934,77,46,31,58,6.0,5-38A,diminished
71935,67,50,29,360,7.0,3-11B,major
71936,67,63,29,58,7.0,3-11B,major
71937,67,68,147,120,7.0,2-4,major
71938,90,57,14,679,10.0,5-5B,major
71939,98,77,17,826,2.0,3-1,other
71940,89,73,34,112,8.0,4-12A,other
71941,91,71,20,107,9.0,5-17,minor
71942,87,67,25,80,5.0,5-20B,major
71943,88,79,18,46,5.0,5-20B,major
71944,84,71,26,37,5.0,5-20B,major
71945,81,48,31,95,9.0,3-11A,minor
71946,57,57,12,276,5.0,4-20,major
71947,60,51,17,26,5.0,4-20,major
71948,72,51,14,180,5.0,2-4,major
71949,79,85,19,60,9.0,3-11A,minor
71950,77,46,27,61,6.0,3-10,diminished
71951,72,28,21,241,5.0,4-15B,major
71952,71,72,29,356,7.0,2-4,major
71953,67,64,18,94,7.0,2-4,major
71954,62,48,24,27,7.0,2-4,major
71955,84,83,26,567,8.0,3-10,diminished
71956,79,72,14,29,8.0,3-10,diminished
71957,79,76,13,52,8.0,3-10,diminished
71958,79,66,30,29,8.0,3-10,diminished
71959,76,66,19,80,11.0,3-5A,other
71960,74,75,24,32,11.0,3-5A,other
71961,76,47,33,176,2.0,3-11A,minor
71962,84,65,28,779,0.0,3-6,major
71963,81,62,22,30,0.0,3-6,major
71964,76,50,28,26,0.0,3-6,major
71965,62,42,7,510,9.0,2-3,minor
71966,84,51,14,1054,9.0,5-29B,diminished
71967,81,38,21,251,10.0,3-8B,other
71968,64,51,13,454,8.0,3-6,other
71969,60,33,43,75,2.0,2-1,other
71970,57,34,19,297,2.0,2-2,other
71971,57,62,15,36,2.0,2-2,other
71972,41,69,7,60,2.0,2-2,other
71973,57,73,85,383,5.0,4-20,major
71974,69,46,32,124,10.0,2-4,major
71975,65,53,20,117,11.0,4-27A,diminished
71976,65,58,8,36,11.0,4-27A,diminished
71977,77,53,22,450,8.0,3-1,other
71978,76,58,19,234,8.0,3-10,other
71979,83,30,18,1082,5.0,6-19A,other
71980,80,25,6,840,7.0,4-29B,major
71981,88,44,6,117,8.0,5-31B,diminished
71982,60,51,26,388,9.0,4-26,minor
71983,58,74,15,413,1.0,2-1,other
71984,56,70,14,26,1.0,2-1,other
71985,72,69,30,613,11.0,4-10,minor
71986,69,62,6,545,4.0,4-26,minor
71987,72,62,27,169,7.0,1-1,other
71988,82,52,39,425,2.0,6-32,minor
71989,81,118,15,2094,0.0,5-33,augmented
71990,81,91,16,35,0.0,5-33,augmented
71991,82,77,20,29,0.0,5-33,augmented
71992,82,73,25,34,0.0,5-33,augmented
71993,80,52,15,178,2.0,3-11A,minor
71994,76,55,22,515,3.0,4-13A,other
71995,84,83,30,295,8.0,3-10,other
71996,81,36,18,120,9.0,5-5A,minor
71997,71,65,21,2398,2.0,3-9,other
71998,69,51,24,61,0.0,2-1,other
71999,72,45,25,601,2.0,2-5,other
72000,64,55,17,36,2.0,2-5,other
72001,82,77,25,743,7.0,5-23A,minor
72002,79,90,26,542,10.0,3-11B,major
72003,78,55,19,59,9.0,2-2,other
72004,82,64,16,90,9.0,2-2,other
72005,84,63,22,28,9.0,2-2,other
72006,87,51,19,59,1.0,4-12A,minor
72007,88,64,20,30,1.0,4-12A,minor
72008,98,82,22,278,9.0,4-27A,diminished
72009,96,51,19,59,3.0,2-1,other
72010,70,56,21,597,0.0,5-6A,other
72011,81,61,26,177,9.0,3-11A,minor
72012,77,57,14,117,9.0,2-1,other
72013,81,74,14,59,9.0,2-1,other
72014,81,55,44,134,5.0,2-4,major
72015,81,78,33,291,8.0,3-1,other
72016,82,62,27,154,5.0,3-11B,major
72017,81,48,26,32,5.0,3-11B,major
72018,79,56,21,58,8.0,2-3,other
72019,74,45,29,118,5.0,2-4,major
72020,74,51,33,60,5.0,2-4,major
72021,69,44,27,122,5.0,2-4,major
72022,72,64,25,768,5.0,4-20,major
72023,70,49,19,133,0.0,2-1,other
72024,74,68,18,39,0.0,2-1,other
72025,69,55,17,120,0.0,3-3B,other
72026,64,22,32,28,0.0,3-3B,other
72027,76,35,18,236,9.0,3-11A,minor
72028,98,79,15,806,1.0,2-6,other
72029,94,70,15,33,1.0,2-6,other
72030,95,69,16,30,1.0,2-6,other
72031,90,54,20,28,1.0,2-6,other
72032,86,70,15,59,7.0,3-8A,major
72033,86,71,22,57,7.0,3-8A,major
72034,86,101,30,107,4.0,3-5B,other
72035,71,33,11,376,2.0,2-3,minor
72036,64,60,14,97,0.0,2-4,other
72037,62,48,65,82,6.0,3-5A,other
72038,64,72,67,55,6.0,3-5A,other
72039,88,47,6,1058,0.0,7-36B,other
72040,81,88,42,975,5.0,4-20,major
72041,64,63,10,229,0.0,2-5,other
72042,69,88,37,53,0.0,2-5,other
72043,67,43,29,159,9.0,2-2,other
72044,67,49,33,51,9.0,2-2,other
72045,73,31,25,484,5.0,4-20,major
72046,77,41,19,297,11.0,2-3,minor
72047,83,45,20,60,8.0,2-3,minor
72048,84,64,29,58,7.0,3-11B,major
72049,79,57,20,60,7.0,3-11B,major
72050,79,65,26,118,7.0,3-11B,major
72051,78,46,16,29,7.0,3-11B,major
72052,84,65,15,68,4.0,3-7A,minor
72053,52,46,14,624,3.0,4-16A,other
72054,95,64,15,726,8.0,2-2,other
72055,88,71,40,27,8.0,2-2,other
72056,91,51,7,65,5.0,2-1,other
72057,85,46,21,142,8.0,4-28,diminished
72058,84,72,25,60,9.0,5-23A,minor
72059,83,53,20,63,2.0,2-2,other
72060,83,63,28,59,9.0,4-19A,minor
72061,74,64,20,123,0.0,3-11B,major
72062,74,71,29,56,0.0,3-11B,major
72063,74,54,19,178,5.0,4-20,major
72064,74,57,25,57,5.0,4-20,major
72065,81,61,15,97,2.0,3-7B,other
72066,77,59,16,208,9.0,3-11A,minor
72067,81,60,10,34,9.0,3-11A,minor
72068,84,64,12,28,9.0,3-11A,minor
72069,67,61,13,822,8.0,4-28,diminished
72070,83,80,22,305,2.0,2-2,other
72071,80,57,20,32,2.0,2-2,other
72072,76,69,24,164,11.0,2-6,other
72073,72,63,16,88,5.0,2-1,other
72074,67,44,32,26,5.0,2-1,other
72075,65,50,19,98,5.0,2-1,other
72076,72,59,17,363,8.0,3-10,minor
72077,74,53,19,27,8.0,3-10,minor
72078,71,59,28,112,9.0,4-14A,minor
72079,57,29,49,63,9.0,4-14A,minor
72080,69,44,12,83,9.0,4-14A,minor
72081,69,53,18,98,0.0,2-1,other
72082,65,24,7,118,5.0,4-29B,major
72083,88,60,7,432,6.0,4-13A,other
72084,85,76,17,559,0.0,4-4B,other
72085,84,36,20,29,0.0,4-4B,other
72086,77,27,22,67,7.0,2-3,minor
72087,58,39,31,107,10.0,2-4,major
72088,75,93,24,60,10.0,2-4,major
72089,72,41,16,125,1.0,1-1,other
72090,69,34,24,59,1.0,2-3,other
72091,60,48,17,121,9.0,2-6,other
72092,60,45,21,129,3.0,2-1,other
72093,50,46,8,143,9.0,3-2A,minor
72094,57,66,37,29,9.0,3-2A,minor
72095,43,38,7,119,2.0,2-4,major
72096,55,50,20,126,10.0,4-16A,other
72097,58,45,35,292,1.0,3-11A,minor
72098,57,38,35,185,8.0,5-18A,diminished
72099,77,43,22,483,8.0,2-1,other
72100,77,66,26,118,4.0,2-3,minor
72101,69,51,14,35,4.0,2-3,minor
72102,100,70,21,1735,9.0,4-26,minor
72103,96,38,27,26,9.0,4-26,minor
72104,89,48,30,359,2.0,4-26,minor
72105,89,46,23,152,2.0,3-11A,minor
72106,86,34,25,26,2.0,3-11A,minor
72107,81,29,18,502,2.0,4-22B,minor
72108,96,83,58,271,11.0,2-3,minor
72109,95,77,29,67,11.0,2-3,minor
72110,92,74,23,31,11.0,2-3,minor
72111,89,58,19,28,11.0,2-3,minor
72112,83,34,36,65,11.0,2-3,minor
72113,84,63,17,156,0.0,5-23B,major
72114,79,37,22,28,0.0,5-23B,major
72115,60,54,9,501,2.0,2-1,other
72116,45,70,55,94,4.0,2-1,other
72117,62,41,32,420,2.0,3-9,other
72118,62,62,38,166,5.0,2-5,other
72119,92,49,19,2658,0.0,2-3,minor
72120,92,47,21,75,0.0,4-22A,other
72121,52,58,57,459,0.0,4-22A,other
72122,59,3,48,99,11.0,4-27A,diminished
72123,62,9,53,75,11.0,4-27A,diminished
72124,53,52,13,227,2.0,3-11A,minor
72125,81,87,23,1402,3.0,3-1,other
72126,62,55,38,720,7.0,2-2,other
72127,59,66,17,239,8.0,2-3,minor
72128,65,35,17,61,8.0,3-10,diminished
72129,68,64,17,36,8.0,3-10,diminished
72130,71,57,23,30,8.0,3-10,diminished
72131,74,73,25,30,8.0,3-10,diminished
72132,67,38,25,27,8.0,3-10,diminished
72133,73,34,20,116,8.0,2-3,minor
72134,78,51,19,115,11.0,2-6,other
72135,79,49,13,34,11.0,2-6,other
72136,81,83,25,26,11.0,2-6,other
72137,79,75,34,61,11.0,2-6,other
72138,72,58,154,63,11.0,2-6,other
72139,74,49,20,239,2.0,3-11A,minor
72140,76,61,16,67,3.0,3-5A,other
72141,76,49,22,57,2.0,2-3,minor
72142,83,49,16,273,9.0,4-14A,minor
72143,86,87,23,28,9.0,4-14A,minor
72144,80,35,24,65,0.0,1-1,other
72145,81,57,24,57,0.0,2-1,other
72146,76,61,19,29,0.0,2-1,other
72147,74,39,27,26,0.0,2-1,other
72148,72,31,22,122,4.0,2-2,other
72149,71,55,17,90,11.0,2-3,minor
72150,72,46,28,28,11.0,2-3,minor
72151,64,42,15,36,11.0,2-3,minor
72152,94,67,28,163,6.0,3-10,diminished
72153,91,66,13,29,6.0,3-10,diminished
72154,86,82,13,151,2.0,4-5A,major
72155,82,54,15,64,7.0,4-22B,minor
72156,81,64,16,33,7.0,4-22B,minor
72157,82,62,16,31,7.0,4-22B,minor
72158,81,59,17,59,0.0,2-2,other
72159,78,47,185,38,0.0,2-2,other
72160,63,59,14,90,0.0,2-2,other
72161,75,61,23,145,3.0,3-11B,major
72162,67,65,25,122,4.0,3-7A,minor
72163,58,47,23,98,4.0,3-7A,minor
72164,82,76,20,142,4.0,2-6,other
72165,79,54,15,35,4.0,2-6,other
72166,75,60,17,56,4.0,2-6,other
72167,74,44,17,29,4.0,2-6,other
72168,72,36,29,57,9.0,4-25,other
72169,72,50,22,59,9.0,4-25,other
72170,63,43,57,98,9.0,4-25,other
72171,72,36,12,275,2.0,4-18A,major
72172,73,25,15,355,1.0,2-3,other
72173,79,22,8,563,5.0,3-3B,major
72174,59,34,6,747,2.0,2-2,other
72175,64,50,59,192,11.0,5-29B,diminished
72176,64,51,14,481,10.0,4-2A,major
72177,71,69,21,118,0.0,5-2A,major
72178,72,54,23,32,0.0,5-2A,major
72179,76,33,23,30,0.0,5-2A,major
72180,83,35,22,58,0.0,3-11B,major
72181,50,46,62,1492,8.0,4-28,diminished
72182,59,14,28,253,4.0,2-4,major
72183,59,47,57,206,8.0,4-28,diminished
72184,60,33,15,690,3.0,4-18A,major
72185,62,7,33,144,9.0,5-35,minor
72186,53,40,30,150,9.0,3-7A,minor
72187,41,62,15,207,9.0,3-7A,minor
72188,66,31,19,2932,0.0,4-23,minor
72189,51,36,2849,0,7.0,2-3,minor
72190,72,83,445,2622,7.0,2-3,minor
72191,75,69,583,937,7.0,2-3,minor
72192,55,45,97,596,0.0,4-26,minor
72193,67,36,88,1166,3.0,2-4,major
72194,79,75,247,48,3.0,2-4,major
72195,79,64,409,870,3.0,2-4,major
72196,41,51,539,45,3.0,2-4,major
72197,55,55,596,603,3.0,2-4,major
72198,63,83,616,1136,0.0,2-4,other
72199,46,29,3219,762,8.0,4-28,diminished
72200,67,49,327,736,8.0,4-28,diminished
72201,53,30,981,26,8.0,4-28,diminished
72202,56,26,1576,932,8.0,2-3,other
72203,77,76,375,1080,8.0,2-3,other
72204,59,20,808,1307,2.0,3-5B,other
72205,75,64,421,796,2.0,3-5B,other
72206,67,36,203,56,0.0,3-7A,minor
72207,79,66,527,893,0.0,3-7A,minor
72208,61,19,544,68,4.0,2-3,minor
72209,86,53,370,2730,9.0,4-29A,minor
72210,51,37,647,799,7.0,2-5,other
72211,62,57,71,650,7.0,2-5,other
72212,55,36,427,28,7.0,2-5,other
72213,62,55,695,1438,3.0,3-4A,major
72214,54,35,1513,1597,6.0,3-10,minor
72215,74,70,606,847,6.0,3-10,minor
72216,77,45,946,1272,0.0,3-7A,minor
72217,74,50,390,1652,0.0,3-7A,minor
72218,68,43,413,80,0.0,2-5,other
72219,86,65,67,482,0.0,2-5,other
72220,70,45,156,31,0.0,2-5,other
72221,82,55,414,434,0.0,2-5,other
72222,67,25,547,66,0.0,2-3,minor
72223,72,16,282,607,0.0,2-4,other
72224,75,34,179,650,0.0,2-5,other
72225,41,39,2537,1030,3.0,3-9,other
72226,48,49,1991,601,3.0,3-9,other
72227,55,38,1139,814,3.0,3-9,other
72228,65,81,258,869,3.0,3-9,other
72229,67,94,249,493,3.0,3-9,other
72230,56,53,963,587,0.0,3-7A,minor
72231,65,89,1265,1415,5.0,1-1,other
72232,56,40,711,34,5.0,1-1,other
72233,43,34,1603,2818,4.0,2-3,minor
72234,71,50,330,1459,9.0,3-11A,minor
72235,52,30,808,1843,0.0,2-5,other
72236,43,50,198,2130,7.0,2-4,major
72237,31,60,1013,1243,2.0,2-5,other
72238,31,44,1507,1188,5.0,4-22A,major
72239,31,31,1464,1590,7.0,3-8A,major
72240,59,37,217,2149,7.0,2-4,major
72241,75,59,429,3230,7.0,2-4,major
72242,72,55,241,725,10.0,3-9,other
72243,56,37,358,43,10.0,3-9,other
72244,65,36,117,471,10.0,2-4,major
72245,63,32,176,1483,5.0,3-9,other
72246,41,49,1277,617,3.0,3-9,other
72247,48,47,845,466,3.0,3-9,other
72248,63,35,373,505,5.0,3-9,other
72249,67,49,456,416,5.0,3-9,other
72250,53,36,2241,1241,0.0,4-22A,other
72251,60,32,765,2084,5.0,3-11A,other
72252,46,27,670,2128,7.0,3-7A,minor
72253,39,33,555,36,7.0,3-7A,minor
72254,72,74,296,2103,7.0,4-23,minor
72255,58,53,1113,1734,5.0,2-5,other
72256,67,46,771,407,5.0,2-5,other
72257,79,74,261,430,5.0,2-5,other
72258,60,39,1071,938,7.0,2-2,other
72259,67,48,668,564,7.0,2-2,other
72260,68,53,255,527,7.0,2-2,other
72261,75,59,460,1177,8.0,2-2,other
72262,56,31,1109,748,7.0,3-11B,major
72263,77,58,475,745,7.0,3-11B,major
72264,46,28,242,33,7.0,3-11B,major
72265,59,28,699,1131,9.0,2-6,other
72266,84,71,1432,3957,7.0,2-3,minor
72267,80,28,1571,81,3.0,3-5B,other
72268,55,47,469,2575,5.0,3-7B,other
72269,56,47,823,422,5.0,3-7B,other
72270,60,41,121,271,5.0,3-7B,other
72271,63,43,72,212,5.0,3-7B,other
72272,65,55,138,189,5.0,3-7B,other
72273,67,62,191,146,5.0,3-7B,other
72274,68,69,187,185,5.0,3-7B,other
72275,70,59,132,196,5.0,3-7B,other
72276,71,71,161,119,5.0,3-7B,other
72277,72,75,134,183,5.0,3-7B,other
72278,73,61,82,68,5.0,3-7B,other
72279,74,76,196,114,5.0,3-7B,other
72280,75,60,120,145,5.0,3-7B,other
72281,76,56,100,176,5.0,3-7B,other
72282,56,30,519,1703,7.0,3-11B,major
72283,72,15,220,312,7.0,3-11B,major
72284,60,35,348,1484,3.0,3-9,other
72285,65,28,139,1155,8.0,3-8A,other
72286,60,16,346,569,3.0,3-11B,major
72287,55,37,692,433,3.0,3-11B,major
72288,67,58,277,974,0.0,3-7A,minor
72289,56,49,184,1643,0.0,2-5,other
72290,60,42,146,569,7.0,2-3,minor
72291,62,65,129,263,7.0,2-3,minor
72292,63,64,183,287,7.0,2-3,minor
72293,53,20,308,54,7.0,2-3,minor
72294,53,1,230,1320,8.0,2-2,other
72295,56,29,612,203,0.0,2-3,minor
72296,62,65,242,1152,0.0,2-3,minor
72297,59,57,183,27,0.0,2-3,minor
72298,61,49,329,450,0.0,2-3,minor
72299,59,54,186,44,0.0,2-3,minor
72300,58,63,441,515,0.0,2-3,minor
72301,55,41,348,28,0.0,2-3,minor
72302,43,37,787,27,0.0,2-3,minor
72303,50,49,527,387,0.0,2-3,minor
72304,58,69,293,392,0.0,2-3,minor
72305,62,71,187,378,0.0,2-3,minor
72306,58,25,449,489,0.0,3-2B,minor
72307,55,34,807,461,2.0,2-3,minor
72308,58,29,332,512,2.0,2-3,minor
72309,67,59,224,417,2.0,2-3,minor
72310,70,56,442,1518,3.0,2-5,other
72311,63,53,403,26,3.0,2-5,other
72312,58,43,415,33,3.0,2-5,other
72313,71,65,407,433,3.0,2-5,other
72314,71,43,414,567,3.0,2-5,other
72315,56,33,918,1280,2.0,2-2,other
72316,46,26,198,615,2.0,2-2,other
72317,74,67,621,27,2.0,2-2,other
72318,51,42,2035,763,10.0,2-4,major
72319,59,56,712,689,10.0,2-4,major
72320,67,71,3674,754,0.0,1-1,other
72321,52,80,1750,869,0.0,1-1,other
72322,64,42,861,3993,7.0,2-3,minor
72323,67,57,949,1482,7.0,2-2,other
72324,68,57,374,479,7.0,2-2,other
72325,72,60,434,491,7.0,2-2,other
72326,72,46,361,531,11.0,4-17,minor
72327,67,28,113,1894,2.0,2-4,major
72328,50,40,430,1440,7.0,2-2,other
72329,58,43,904,4341,0.0,3-12,augmented
72330,55,49,692,2845,3.0,2-5,other
72331,56,42,587,689,3.0,2-5,other
72332,60,60,348,474,3.0,2-5,other
72333,63,56,1427,502,3.0,2-5,other
72334,56,31,996,63,11.0,2-1,other
72335,53,34,1780,624,11.0,2-1,other
72336,59,38,279,804,11.0,2-1,other
72337,77,67,722,842,8.0,2-6,other
72338,75,62,576,1199,8.0,2-6,other
72339,72,60,261,1160,10.0,3-9,other
72340,74,53,101,353,10.0,3-9,other
72341,70,55,915,2146,0.0,3-11A,minor
72342,48,45,721,561,5.0,2-2,other
72343,65,57,434,493,5.0,2-2,other
72344,60,31,419,28,5.0,2-2,other
72345,65,40,782,1820,8.0,2-2,other
72346,65,42,827,966,8.0,2-2,other
72347,62,42,429,879,8.0,2-2,other
72348,46,30,517,1363,3.0,1-1,other
72349,67,68,155,1000,1.0,1-1,other
72350,68,59,360,1074,3.0,4-23,other
72351,48,11,329,209,3.0,4-23,other
72352,51,30,1900,434,6.0,3-10,minor
72353,69,58,289,1301,6.0,3-10,minor
72354,67,30,676,980,3.0,2-5,other
72355,51,35,646,437,3.0,2-5,other
72356,55,76,653,1074,3.0,2-5,other
72357,54,70,991,670,3.0,2-5,other
72358,60,50,490,635,3.0,2-5,other
72359,66,50,1192,709,3.0,2-5,other
72360,63,52,649,53,3.0,2-5,other
72361,75,60,516,1745,0.0,2-3,minor
72362,53,38,1207,32,0.0,2-3,minor
72363,60,37,1500,609,0.0,2-3,minor
72364,74,51,128,620,0.0,2-3,minor
72365,72,58,163,108,0.0,2-3,minor
72366,74,40,211,203,0.0,2-3,minor
72367,72,48,208,147,0.0,2-3,minor
72368,71,65,134,200,0.0,2-3,minor
72369,54,39,1577,235,0.0,2-3,minor
72370,60,37,1689,536,0.0,2-3,minor
72371,63,39,999,481,0.0,2-3,minor
72372,74,82,395,799,0.0,2-3,minor
72373,72,59,255,939,3.0,2-4,major
72374,60,1,3125,480,6.0,3-10,other
72375,74,69,352,423,6.0,3-10,other
72376,72,67,348,1097,3.0,3-7A,other
72377,74,64,247,342,3.0,3-7A,other
72378,63,21,852,459,6.0,2-3,other
72379,72,55,457,516,6.0,2-3,other
72380,74,51,244,380,6.0,2-3,other
72381,67,42,140,1174,0.0,2-3,minor
72382,60,40,357,806,0.0,2-3,minor
72383,45,24,309,83,0.0,2-3,minor
72384,55,9,176,29,0.0,2-3,minor
72385,65,52,1015,1003,0.0,2-3,minor
72386,63,64,424,1093,10.0,4-24,augmented
72387,62,53,466,667,10.0,4-24,augmented
72388,50,55,485,514,7.0,2-3,minor
72389,56,49,77,2502,3.0,4-24,augmented
72390,68,60,333,2373,1.0,2-5,other
72391,55,58,583,1220,0.0,3-8A,major
72392,43,63,515,1003,7.0,2-3,minor
72393,53,37,391,682,7.0,4-27A,minor
72394,43,41,1509,706,7.0,4-27A,minor
72395,61,49,1141,764,0.0,4-24,augmented
72396,67,53,309,763,0.0,4-24,augmented
72397,77,89,454,1771,5.0,2-2,other
72398,67,58,451,1359,3.0,2-4,other
72399,61,57,218,641,3.0,2-4,other
72400,53,39,653,1387,3.0,3-12,augmented
72401,50,20,582,716,5.0,2-4,other
72402,53,43,83,1540,8.0,2-2,other
72403,78,48,237,740,8.0,2-2,other
72404,66,30,1452,791,6.0,1-1,other
72405,59,105,851,3373,2.0,2-4,major
72406,46,53,1651,1883,3.0,2-5,other
72407,55,74,404,816,3.0,2-5,other
72408,60,79,196,596,3.0,2-5,other
72409,63,48,313,2977,5.0,4-14A,other
72410,55,66,124,576,5.0,4-14A,other
72411,46,57,1269,2251,7.0,3-5B,other
72412,62,68,352,2331,6.0,2-1,other
72413,47,38,588,81,6.0,2-3,minor
72414,58,55,951,2117,0.0,4-19B,other
72415,41,51,2221,1524,0.0,4-19B,other
72416,48,38,2173,115,0.0,4-19B,other
72417,63,61,154,87,0.0,4-19B,other
72418,71,45,254,164,9.0,2-2,other
72419,74,64,218,86,9.0,2-2,other
72420,74,60,165,484,9.0,2-2,other
72421,86,64,224,120,9.0,2-2,other
72422,86,54,598,586,9.0,2-2,other
72423,98,45,568,102,9.0,2-2,other
72424,86,38,320,702,9.0,2-2,other
72425,98,29,278,28,9.0,2-2,other
72426,60,31,2375,1500,3.0,1-1,other
72427,63,31,1632,784,3.0,1-1,other
72428,84,1,455,278,3.0,1-1,other
72429,86,63,457,953,3.0,1-1,other
72430,77,10,567,1412,0.0,3-7A,minor
72431,68,53,366,690,0.0,3-7A,minor
72432,84,55,233,33,0.0,3-7A,minor
72433,79,62,88,538,10.0,2-4,major
72434,72,42,354,564,7.0,2-3,minor
72435,84,67,168,443,7.0,2-3,minor
72436,41,42,765,1745,3.0,3-9,other
72437,48,48,502,524,3.0,3-9,other
72438,70,46,1293,519,3.0,3-9,other
72439,60,49,212,676,0.0,3-11A,minor
72440,67,70,301,691,0.0,3-11A,minor
72441,63,63,316,386,0.0,3-11A,minor
72442,63,62,587,492,0.0,3-11A,minor
72443,65,58,2951,443,8.0,3-7B,other
72444,60,47,2395,633,8.0,3-7B,other
72445,56,23,457,62,8.0,3-7B,other
72446,39,64,240,2328,8.0,3-7B,other
72447,46,47,608,334,8.0,3-7B,other
72448,44,53,194,1421,3.0,3-9,other
72449,37,46,1370,315,3.0,3-9,other
72450,56,48,54,579,1.0,2-2,other
72451,44,62,170,859,1.0,2-2,other
72452,39,42,842,341,1.0,2-2,other
72453,46,27,157,567,5.0,3-9,other
72454,44,59,155,854,5.0,3-9,other
72455,37,48,1055,299,5.0,3-9,other
72456,55,48,57,3308,0.0,4-23,minor
72457,60,38,1299,1830,3.0,4-22A,major
72458,46,62,757,2558,3.0,4-22A,major
72459,46,40,892,904,3.0,4-22A,major
72460,72,66,363,954,7.0,3-11A,minor
72461,46,33,319,45,7.0,3-11A,minor
72462,79,52,149,2279,3.0,4-20,major
72463,82,82,221,274,3.0,4-20,major
72464,41,49,69,247,3.0,4-20,major
72465,80,61,552,78,3.0,4-20,major
72466,56,35,157,605,0.0,3-11A,minor
72467,77,60,184,635,0.0,3-11A,minor
72468,75,69,251,260,0.0,3-11A,minor
72469,75,69,146,640,8.0,2-6,other
72470,77,81,237,267,8.0,2-6,other
72471,70,57,245,580,8.0,2-6,other
72472,67,56,688,292,8.0,2-6,other
72473,43,31,163,192,8.0,2-6,other
72474,55,28,255,36,8.0,2-6,other
72475,58,43,182,960,8.0,2-6,other
72476,62,30,136,266,8.0,2-6,other
72477,63,54,153,298,8.0,2-6,other
72478,55,44,452,378,0.0,3-11A,minor
72479,64,59,426,929,0.0,3-6,other
72480,60,25,513,1888,5.0,2-2,other
72481,53,11,304,83,5.0,2-2,other
72482,59,29,262,857,4.0,3-8B,other
72483,62,19,285,37,4.0,3-8B,other
72484,53,24,106,670,4.0,3-8B,other
72485,67,34,153,396,2.0,4-25,major
72486,55,31,1090,613,3.0,3-9,other
72487,72,67,445,422,3.0,3-9,other
72488,74,72,474,555,3.0,3-9,other
72489,70,49,474,601,3.0,3-9,other
72490,72,64,596,601,3.0,3-9,other
72491,67,37,454,51,3.0,3-9,other
72492,58,29,443,104,0.0,2-3,minor
72493,67,53,512,415,0.0,2-3,minor
72494,65,66,146,1468,8.0,2-3,other
72495,63,57,249,652,8.0,2-3,other
72496,60,39,122,272,8.0,2-3,other
72497,61,64,243,307,8.0,2-3,other
72498,62,42,201,309,8.0,3-7B,other
72499,63,75,264,299,8.0,3-7B,other
72500,64,48,261,318,8.0,3-7B,other
72501,65,76,209,315,8.0,3-7B,other
72502,62,74,671,329,8.0,3-7B,other
72503,58,50,217,524,7.0,2-2,other
72504,59,16,411,321,7.0,2-2,other
72505,55,45,451,364,7.0,2-2,other
72506,53,62,366,586,7.0,2-2,other
72507,51,38,506,433,7.0,2-2,other
72508,24,33,169,549,7.0,2-2,other
72509,56,56,122,901,7.0,2-2,other
72510,55,22,81,76,0.0,3-11A,minor
72511,53,39,229,162,0.0,3-11A,minor
72512,63,40,77,829,0.0,2-2,other
72513,67,35,77,29,0.0,2-2,other
72514,56,29,149,267,0.0,2-2,other
72515,67,34,67,255,0.0,2-3,minor
72516,71,35,104,34,0.0,2-3,minor
72517,46,33,664,505,4.0,5-32B,other
72518,46,59,1562,849,4.0,5-32B,other
72519,70,74,617,1395,4.0,2-3,minor
72520,65,37,373,85,0.0,2-5,other
72521,58,53,331,881,0.0,2-5,other
72522,51,30,320,31,0.0,2-5,other
72523,79,71,329,2511,3.0,2-5,other
72524,56,32,382,377,0.0,3-11A,minor
72525,82,60,260,103,0.0,3-11A,minor
72526,67,29,499,1693,8.0,2-2,other
72527,62,53,225,2088,2.0,2-3,minor
72528,55,41,59,1652,3.0,2-5,other
72529,41,39,700,2063,0.0,4-26,minor
72530,55,60,308,732,0.0,3-11B,other
72531,56,47,833,351,0.0,3-11B,other
72532,60,41,254,328,0.0,3-11B,other
72533,62,66,241,294,0.0,3-11B,other
72534,63,83,277,332,0.0,3-11B,other
72535,56,32,291,1094,0.0,3-11A,minor
72536,56,62,174,913,0.0,3-11A,minor
72537,74,67,132,50,0.0,3-11A,minor
72538,55,45,157,3249,0.0,3-11A,minor
72539,78,59,497,997,1.0,2-3,other
72540,67,55,774,38,1.0,2-3,other
72541,46,32,3083,1823,4.0,2-3,minor
72542,56,39,753,1014,11.0,3-11A,minor
72543,67,41,217,237,11.0,3-11A,minor
72544,69,30,177,1364,11.0,2-5,other
72545,67,36,70,981,4.0,3-10,diminished
72546,51,29,337,1360,6.0,3-10,minor
72547,60,31,74,28,6.0,3-10,minor
72548,55,41,1034,594,7.0,3-11A,minor
72549,53,30,969,40,7.0,3-11A,minor
72550,43,63,209,794,7.0,3-11A,minor
72551,60,29,92,873,6.0,2-6,other
72552,72,68,223,707,6.0,2-6,other
72553,73,59,207,299,6.0,2-6,other
72554,74,68,157,332,6.0,2-6,other
72555,75,60,165,260,6.0,2-6,other
72556,77,80,206,317,6.0,2-6,other
72557,75,69,510,333,6.0,2-6,other
72558,65,65,623,614,5.0,2-2,other
72559,66,57,166,641,0.0,2-3,minor
72560,68,67,201,291,0.0,2-3,minor
72561,54,38,1253,284,0.0,2-3,minor
72562,69,51,146,50,0.0,2-3,minor
72563,71,67,146,283,0.0,2-3,minor
72564,72,73,203,315,0.0,2-3,minor
72565,63,29,595,215,0.0,2-3,minor
72566,60,19,426,61,0.0,2-3,minor
72567,74,47,150,34,0.0,2-3,minor
72568,75,49,125,266,0.0,2-3,minor
72569,76,74,187,294,0.0,2-3,minor
72570,77,71,180,312,0.0,2-3,minor
72571,55,44,1422,54,0.0,2-3,minor
72572,74,54,93,254,0.0,2-3,minor
72573,67,48,55,571,0.0,2-3,minor
72574,62,26,522,91,0.0,2-3,minor
72575,65,18,571,44,0.0,2-3,minor
72576,86,83,348,180,0.0,2-3,minor
72577,84,78,456,461,0.0,2-3,minor
72578,81,62,136,587,6.0,3-10,other
72579,78,57,109,297,6.0,3-10,other
72580,63,40,809,327,6.0,3-10,other
72581,75,28,191,352,6.0,3-10,other
72582,74,53,167,1378,8.0,2-3,other
72583,73,51,142,144,8.0,2-3,other
72584,72,58,493,163,8.0,2-3,other
72585,74,58,167,1059,6.0,2-3,other
72586,73,35,173,146,6.0,2-3,other
72587,72,61,169,103,6.0,2-3,other
72588,75,81,305,977,0.0,2-3,minor
72589,74,58,194,267,0.0,2-3,minor
72590,73,35,147,181,0.0,2-3,minor
72591,72,50,108,131,0.0,2-3,minor
72592,72,62,345,806,3.0,2-4,major
72593,62,39,60,270,3.0,2-4,major
72594,46,48,194,612,3.0,2-4,major
72595,63,54,1812,299,3.0,2-4,major
72596,26,45,225,604,0.0,2-5,other
72597,54,59,735,379,0.0,2-5,other
72598,44,37,264,534,0.0,2-5,other
72599,31,71,214,1000,7.0,3-7A,minor
72600,55,43,92,990,5.0,1-1,other
72601,52,52,159,469,4.0,3-10,diminished
72602,68,64,486,1293,3.0,3-4A,other
72603,48,69,126,2261,0.0,2-4,major
72604,58,71,1036,879,0.0,2-4,major
72605,67,37,81,779,0.0,2-4,major
72606,72,62,313,289,0.0,2-4,major
72607,53,56,400,816,0.0,2-4,major
72608,63,47,166,349,0.0,2-4,major
72609,63,60,1761,564,0.0,2-4,major
72610,71,52,148,356,0.0,2-4,major
72611,73,52,172,284,0.0,2-4,major
72612,75,62,179,284,0.0,2-4,major
72613,65,35,557,59,0.0,2-4,major
72614,77,22,128,307,0.0,2-4,major
72615,79,38,153,245,0.0,2-4,major
72616,80,64,228,305,0.0,2-4,major
72617,66,43,163,284,0.0,2-4,major
72618,83,64,1891,355,8.0,3-8A,other
72619,46,51,187,314,8.0,3-8A,other
72620,79,57,219,1710,8.0,3-5B,other
72621,81,68,223,638,8.0,2-1,other
72622,82,72,218,295,8.0,2-1,other
72623,84,96,235,326,8.0,2-1,other
72624,62,30,275,291,8.0,2-1,other
72625,58,56,231,751,0.0,4-29B,other
72626,51,42,165,910,0.0,4-26,minor
72627,56,71,362,2331,0.0,3-11A,minor
72628,65,36,55,33,0.0,3-11A,minor
72629,53,67,264,1028,0.0,3-11A,minor
72630,77,99,193,2636,8.0,2-3,minor
72631,80,47,1269,5996,4.0,2-2,other
72632,84,38,966,82,4.0,2-2,other
72633,48,45,324,2210,2.0,3-2A,minor
72634,57,44,284,440,2.0,3-2A,minor
72635,59,41,1006,454,2.0,3-2A,minor
72636,71,37,1579,528,2.0,3-2A,minor
72637,72,73,899,656,3.0,3-4A,major
72638,60,36,1172,54,3.0,3-4A,major
72639,74,65,220,516,3.0,3-4A,major
72640,75,72,401,564,3.0,3-4A,major
72641,75,62,632,616,3.0,3-4A,major
72642,60,33,1258,611,9.0,2-6,other
72643,63,35,452,560,9.0,2-6,other
72644,69,55,622,1258,2.0,3-3A,major
72645,68,52,729,619,2.0,3-3A,major
72646,66,44,669,1560,0.0,2-5,other
72647,67,44,67,4666,0.0,3-8B,other
72648,48,39,251,669,3.0,3-11B,major
72649,70,62,2389,833,3.0,3-11B,major
72650,41,32,2862,74,3.0,2-4,other
72651,60,40,2178,667,3.0,2-4,other
72652,53,33,1561,875,3.0,2-4,other
72653,65,63,980,788,3.0,2-4,other
72654,67,60,386,609,3.0,2-4,other
72655,53,31,1307,1037,0.0,2-2,other
72656,62,58,2803,3483,10.0,2-4,major
72657,39,49,827,2853,10.0,2-4,major
72658,37,54,1103,1431,3.0,3-9,other
72659,46,64,177,1772,1.0,3-9,other
72660,39,53,791,317,1.0,3-9,other
72661,61,58,149,3347,1.0,2-5,other
72662,46,31,106,1001,3.0,3-9,other
72663,58,33,96,972,3.0,2-5,other
72664,62,48,865,3184,3.0,2-5,other
72665,27,38,1000,62,0.0,4-14A,minor
72666,86,49,537,1845,0.0,4-14A,minor
72667,94,51,227,2624,2.0,1-1,other
72668,58,43,277,26,2.0,1-1,other
72669,103,66,299,1686,7.0,1-1,other
72670,64,35,1820,0,7.0,2-5,other
72671,76,49,795,1757,7.0,2-5,other
72672,34,50,372,757,7.0,2-5,other
72673,72,35,2473,28,7.0,2-5,other
72674,82,71,4059,2396,7.0,2-5,other
72675,63,46,2578,1039,7.0,2-5,other
72676,65,45,733,1019,7.0,2-5,other
72677,67,48,678,770,7.0,2-5,other
72678,74,57,700,731,7.0,2-5,other
72679,46,48,453,1188,3.0,2-4,major
72680,55,57,555,519,3.0,2-4,major
72681,58,53,1642,549,3.0,2-4,major
72682,67,40,472,664,3.0,2-4,major
72683,62,48,866,38,3.0,2-4,major
72684,54,38,198,2025,8.0,2-3,minor
72685,66,32,440,1766,7.0,4-18A,minor
72686,60,36,1610,1122,5.0,4-18A,major
72687,81,60,424,1666,5.0,4-18A,major
72688,80,69,1773,735,5.0,4-18A,major
72689,37,55,380,38,5.0,4-18A,major
72690,44,51,716,469,5.0,4-18A,major
72691,52,62,593,635,5.0,4-18A,major
72692,53,74,725,604,5.0,4-18A,major
72693,56,81,1480,648,5.0,4-18A,major
72694,60,79,2898,782,5.0,4-18A,major
72695,63,64,1558,747,5.0,4-18A,major
72696,68,55,692,735,5.0,4-18A,major
72697,69,64,815,763,5.0,4-18A,major
72698,53,35,730,47,5.0,4-18A,major
72699,50,38,604,661,5.0,4-18A,major
72700,65,44,734,1610,7.0,1-1,other
72701,59,30,1179,885,7.0,1-1,other
72702,67,32,1300,964,7.0,1-1,other
72703,77,69,589,705,7.0,1-1,other
72704,76,67,1254,589,7.0,1-1,other
72705,48,46,2680,38,7.0,1-1,other
72706,55,41,2316,544,7.0,1-1,other
72707,60,54,547,718,7.0,1-1,other
72708,60,40,351,712,7.0,1-1,other
72709,62,76,276,354,7.0,1-1,other
72710,64,81,278,359,7.0,1-1,other
72711,62,34,55,32,7.0,1-1,other
72712,65,77,293,310,7.0,1-1,other
72713,67,79,407,352,7.0,1-1,other
72714,68,77,444,332,7.0,1-1,other
72715,72,57,238,650,10.0,1-1,other
72716,74,66,177,278,10.0,1-1,other
72717,76,61,122,179,10.0,1-1,other
72718,77,62,243,174,10.0,1-1,other
72719,79,62,199,196,10.0,1-1,other
72720,80,62,189,151,10.0,1-1,other
72721,82,54,54,164,10.0,1-1,other
72722,84,60,195,152,10.0,1-1,other
72723,86,59,162,201,10.0,1-1,other
72724,88,58,63,200,10.0,1-1,other
72725,91,59,252,502,8.0,2-3,other
72726,92,56,268,264,8.0,2-3,other
72727,94,51,151,198,8.0,2-3,other
72728,96,62,246,272,8.0,2-3,other
72729,98,55,255,253,8.0,2-3,other
72730,100,42,204,449,8.0,2-3,other
72731,98,22,64,55,8.0,2-3,other
72732,101,36,332,319,8.0,2-3,other
72733,103,44,374,425,8.0,2-3,other
72734,104,56,510,428,8.0,2-3,other
72735,54,28,3450,1835,2.0,2-5,other
72736,81,59,1382,877,2.0,2-5,other
72737,64,30,1516,1088,1.0,1-1,other
72738,69,44,660,1009,1.0,1-1,other
72739,74,74,514,746,1.0,1-1,other
72740,72,51,625,716,1.0,1-1,other
72741,45,55,595,31,1.0,1-1,other
72742,55,58,62,640,1.0,1-1,other
72743,84,91,1606,718,1.0,1-1,other
72744,60,60,688,27,1.0,1-1,other
72745,59,28,1718,753,1.0,1-1,other
72746,57,46,110,1740,0.0,2-4,major
72747,42,45,4315,1475,0.0,2-4,major
72748,49,37,4317,132,0.0,2-4,major
72749,57,44,1556,67,0.0,2-4,major
72750,71,61,2536,234,4.0,2-4,major
72751,59,63,899,4021,4.0,2-4,major
72752,57,47,280,1989,0.0,2-1,other
72753,40,55,4399,6767,9.0,3-5B,other
72754,47,61,1028,216,9.0,3-5B,other
72755,54,52,952,230,9.0,2-2,other
72756,47,46,3300,941,9.0,2-2,other
72757,62,46,999,858,9.0,2-2,other
72758,57,87,912,1648,6.0,3-2A,minor
72759,58,56,321,928,6.0,3-2A,minor
72760,57,56,259,207,6.0,3-2A,minor
72761,56,56,526,302,6.0,3-2A,minor
72762,57,58,444,561,6.0,3-2A,minor
72763,44,40,105,1229,8.0,2-2,other
72764,60,36,501,818,6.0,2-1,other
72765,60,31,1666,1042,6.0,2-1,other
72766,65,31,590,866,6.0,2-1,other
72767,72,24,1305,128,6.0,2-1,other
72768,80,56,248,764,6.0,2-1,other
72769,77,48,159,875,6.0,2-1,other
72770,49,34,785,35,6.0,2-1,other
72771,99,84,351,1179,8.0,2-3,other
72772,97,83,341,402,8.0,2-3,other
72773,96,76,146,340,8.0,2-3,other
72774,63,37,678,59,8.0,2-3,other
72775,60,32,2889,39,8.0,2-3,other
72776,94,71,384,270,8.0,2-3,other
72777,92,62,251,327,8.0,2-3,other
72778,89,50,180,308,8.0,2-3,other
72779,87,68,301,312,8.0,2-3,other
72780,85,59,233,252,8.0,2-3,other
72781,84,61,126,272,8.0,2-3,other
72782,56,34,1232,38,8.0,2-3,other
72783,63,17,594,53,8.0,2-3,other
72784,82,51,212,181,8.0,2-3,other
72785,80,52,179,227,8.0,2-3,other
72786,77,40,130,255,8.0,2-3,other
72787,75,60,181,237,8.0,2-3,other
72788,72,38,127,271,8.0,2-3,other
72789,70,55,172,271,8.0,2-3,other
72790,68,47,163,221,8.0,2-3,other
72791,65,44,89,259,8.0,2-3,other
72792,63,46,188,294,8.0,2-3,other
72793,60,35,382,271,8.0,2-3,other
72794,58,58,592,370,8.0,2-3,other
72795,56,36,712,393,8.0,2-3,other
72796,53,47,498,362,8.0,2-3,other
72797,57,55,955,2523,0.0,3-9,other
72798,59,48,886,958,2.0,3-9,other
72799,60,40,732,903,5.0,3-4A,major
72800,43,48,488,2276,0.0,3-4B,other
72801,60,67,551,1088,4.0,2-5,other
72802,55,66,1230,43,4.0,2-5,other
72803,64,74,148,600,4.0,2-5,other
72804,59,54,568,31,4.0,2-5,other
72805,76,87,714,617,4.0,2-5,other
72806,82,61,2826,2070,0.0,2-2,other
72807,56,35,2547,39,0.0,2-2,other
72808,62,38,2084,662,0.0,2-2,other
72809,70,31,2039,817,0.0,2-2,other
72810,65,24,1207,44,0.0,2-2,other
72811,80,54,418,1263,0.0,2-2,other
72812,39,32,452,804,0.0,2-2,other
72813,79,48,1449,43,0.0,2-2,other
72814,46,32,406,452,0.0,2-2,other
72815,55,57,470,499,0.0,2-2,other
72816,58,67,1361,484,0.0,2-2,other
72817,70,84,508,560,0.0,2-2,other
72818,62,36,617,86,0.0,2-2,other
72819,72,36,184,439,0.0,2-2,other
72820,70,46,311,110,0.0,2-2,other
72821,69,62,328,223,0.0,2-2,other
72822,70,80,266,281,0.0,2-2,other
72823,54,46,93,769,8.0,2-3,minor
72824,81,77,2429,548,8.0,2-3,minor
72825,60,60,2530,58,8.0,2-3,minor
72826,65,55,1771,697,8.0,2-3,minor
72827,69,50,938,855,8.0,2-3,minor
72828,54,47,375,733,8.0,2-3,minor
72829,77,63,941,1250,1.0,2-5,other
72830,53,58,1727,835,1.0,2-5,other
72831,63,48,809,861,8.0,2-3,other
72832,60,73,1653,782,8.0,2-3,other
72833,68,91,702,814,8.0,2-3,other
72834,31,74,130,2579,5.0,3-6,major
72835,55,66,1952,2054,5.0,4-22A,major
72836,55,49,1750,2242,3.0,4-27A,other
72837,64,34,1227,1119,7.0,4-22A,major
72838,55,38,935,987,7.0,4-22A,major
72839,67,36,645,753,4.0,2-5,other
72840,55,55,247,699,4.0,2-5,other
72841,35,60,200,1458,7.0,3-9,other
72842,62,78,491,2669,0.0,4-19B,other
72843,56,38,488,1813,0.0,4-22A,major
72844,81,33,156,6615,4.0,2-5,other
72845,86,95,406,806,4.0,2-5,other
72846,84,63,1625,740,4.0,2-5,other
72847,81,56,1539,97,4.0,2-5,other
72848,79,55,1311,46,4.0,2-5,other
72849,76,60,1186,119,4.0,2-5,other
72850,59,35,2672,1523,0.0,2-4,major
72851,96,69,1023,746,0.0,2-4,major
72852,88,53,1236,109,0.0,2-4,major
72853,57,36,155,1857,0.0,2-4,major
72854,57,49,2807,1855,1.0,4-26,minor
72855,71,70,481,877,1.0,4-26,minor
72856,72,54,378,823,1.0,4-26,minor
72857,64,42,1816,783,8.0,2-3,minor
72858,41,54,216,1644,8.0,2-3,minor
72859,60,58,551,981,8.0,2-2,other
72860,71,69,320,1516,0.0,5-27A,other
72861,47,70,423,1314,3.0,3-11B,major
72862,40,74,438,535,3.0,3-11B,major
72863,47,71,638,533,3.0,3-11B,major
72864,57,70,2611,1289,2.0,3-11B,major
72865,67,71,766,2409,2.0,3-11B,major
72866,68,54,750,1952,8.0,5-27A,other
72867,82,39,585,2984,0.0,2-4,other
72868,60,28,805,99,10.0,2-5,other
72869,80,36,244,907,10.0,2-5,other
72870,68,30,432,55,10.0,2-5,other
72871,77,49,1445,1299,10.0,2-5,other
72872,65,32,1585,38,10.0,2-5,other
72873,49,23,5626,53,10.0,2-5,other
72874,57,53,690,800,10.0,2-5,other
72875,58,60,4257,725,10.0,2-5,other
72876,60,70,637,587,10.0,2-5,other
72877,61,82,528,589,10.0,2-5,other
72878,63,80,716,580,10.0,2-5,other
72879,65,71,1866,771,10.0,2-5,other
72880,77,52,841,3420,10.0,2-5,other
72881,73,50,807,35,10.0,2-5,other
72882,79,64,434,1086,9.0,2-6,other
72883,75,62,739,36,9.0,2-6,other
72884,83,52,1752,2302,0.0,2-5,other
72885,79,55,3688,34,0.0,2-5,other
72886,75,36,4986,33,0.0,2-5,other
72887,69,28,3021,43,0.0,2-5,other
72888,83,49,417,3284,0.0,2-5,other
72889,54,42,2951,2529,1.0,2-2,other
72890,58,46,2050,636,1.0,2-2,other
72891,61,47,868,643,1.0,2-2,other
72892,63,40,1053,716,1.0,2-2,other
72893,66,56,750,760,1.0,2-2,other
72894,65,51,421,793,1.0,2-2,other
72895,45,39,1130,62,1.0,2-2,other
72896,54,38,172,2493,1.0,2-2,other
72897,56,51,121,126,1.0,2-2,other
72898,57,58,188,160,1.0,2-2,other
72899,60,53,235,113,1.0,2-2,other
72900,62,58,171,124,1.0,2-2,other
72901,65,55,54,149,1.0,2-2,other
72902,66,60,137,100,1.0,2-2,other
72903,68,40,143,49,1.0,2-2,other
72904,69,62,170,107,1.0,2-2,other
72905,72,37,194,146,1.0,2-2,other
72906,74,47,154,64,1.0,2-2,other
72907,77,45,114,134,1.0,2-2,other
72908,78,53,65,139,1.0,2-2,other
72909,81,24,167,192,1.0,2-2,other
72910,84,48,180,95,1.0,2-2,other
72911,86,51,88,90,1.0,2-2,other
72912,89,38,69,86,1.0,2-2,other
72913,90,45,323,127,1.0,2-2,other
72914,92,38,230,86,1.0,2-2,other
72915,93,31,298,58,1.0,2-2,other
72916,96,27,1123,177,1.0,2-2,other
72917,98,49,1100,61,1.0,2-2,other
72918,101,59,866,145,1.0,2-2,other
72919,80,44,1859,3022,1.0,2-2,other
72920,37,33,452,34,1.0,2-2,other
72921,44,43,472,527,1.0,2-2,other
72922,52,34,502,609,1.0,2-2,other
72923,53,54,690,633,1.0,2-2,other
72924,75,79,510,1333,8.0,2-3,other
72925,60,55,143,60,8.0,2-3,other
72926,73,68,225,537,8.0,2-3,other
72927,56,60,709,2124,0.0,2-2,other
72928,58,79,343,338,0.0,2-2,other
72929,59,74,225,284,0.0,2-2,other
72930,62,75,257,187,0.0,2-2,other
72931,64,66,198,159,0.0,2-2,other
72932,67,57,53,171,0.0,2-2,other
72933,68,60,252,124,0.0,2-2,other
72934,70,51,208,52,0.0,2-2,other
72935,71,62,234,145,0.0,2-2,other
72936,74,54,215,146,0.0,2-2,other
72937,76,54,186,87,0.0,2-2,other
72938,79,42,64,143,0.0,2-2,other
72939,80,59,87,121,0.0,2-2,other
72940,83,53,196,133,0.0,2-2,other
72941,86,66,177,131,0.0,2-2,other
72942,88,53,136,89,0.0,2-2,other
72943,91,36,62,106,0.0,2-2,other
72944,92,49,214,175,0.0,2-2,other
72945,94,31,128,89,0.0,2-2,other
72946,95,16,195,64,0.0,2-2,other
72947,103,89,2774,320,4.0,2-2,other
72948,58,35,3089,5523,11.0,1-1,other
72949,61,26,584,1061,10.0,2-4,other
72950,61,36,553,960,10.0,2-4,other
72951,73,51,868,850,10.0,2-4,other
72952,58,56,204,774,6.0,2-5,other
72953,62,68,637,1565,5.0,3-11B,major
72954,55,60,120,695,5.0,3-11B,major
72955,31,65,191,951,5.0,3-11B,major
72956,79,57,136,4902,5.0,3-11B,major
72957,76,55,1753,2528,5.0,3-11B,major
72958,48,38,3387,43,5.0,3-11B,major
72959,56,26,2904,1103,5.0,3-11B,major
72960,59,46,1062,676,5.0,3-11B,major
72961,64,43,735,689,5.0,3-11B,major
72962,48,37,186,1751,9.0,2-2,other
72963,32,62,727,927,9.0,2-2,other
72964,65,56,310,795,9.0,2-2,other
72965,67,64,254,328,9.0,2-2,other
72966,68,67,209,205,9.0,2-2,other
72967,70,64,120,209,9.0,2-2,other
72968,72,59,149,198,9.0,2-2,other
72969,73,44,173,161,9.0,2-2,other
72970,75,69,126,155,9.0,2-2,other
72971,77,61,218,179,9.0,2-2,other
72972,79,57,181,197,9.0,2-2,other
72973,80,39,217,110,9.0,2-2,other
72974,82,55,97,147,9.0,2-2,other
72975,84,44,140,181,6.0,3-5B,other
72976,85,51,149,186,6.0,3-5B,other
72977,87,46,67,200,6.0,3-5B,other
72978,89,52,207,168,6.0,3-5B,other
72979,91,47,209,192,6.0,3-5B,other
72980,92,51,170,146,6.0,3-5B,other
72981,94,54,85,178,6.0,3-5B,other
72982,96,49,202,216,6.0,3-5B,other
72983,97,59,222,201,6.0,3-5B,other
72984,99,55,166,306,6.0,3-5B,other
72985,100,47,165,188,6.0,3-5B,other
72986,101,66,371,238,6.0,3-5B,other
72987,100,71,298,309,6.0,3-5B,other
72988,98,61,313,292,6.0,3-5B,other
72989,100,73,428,350,6.0,3-5B,other
72990,37,39,519,492,1.0,2-2,other
72991,63,35,2143,1846,8.0,2-3,other
72992,68,94,1332,2120,8.0,2-3,other
72993,60,33,333,81,8.0,2-3,other
72994,56,47,1126,4430,4.0,3-5B,other
72995,86,71,475,1796,4.0,3-5B,other
72996,74,57,643,57,0.0,2-5,other
72997,59,31,610,63,0.0,2-5,other
72998,55,43,1310,656,0.0,2-5,other
72999,67,58,802,695,0.0,2-5,other
73000,55,31,1582,855,4.0,2-5,other
73001,67,61,815,737,4.0,2-5,other
73002,48,48,200,802,4.0,2-2,other
73003,63,42,1063,1034,4.0,2-2,other
73004,33,34,563,80,9.0,3-8A,major
73005,33,39,79,924,9.0,3-8A,major
73006,82,34,842,3445,7.0,2-1,other
73007,70,19,850,64,6.0,2-3,other
73008,55,38,52,3452,2.0,3-11A,minor
73009,79,39,1343,8318,2.0,5-35,minor
73010,91,55,1201,3523,7.0,1-1,other
73011,79,34,607,52,7.0,1-1,other
73012,62,33,1558,29,7.0,1-1,other
73013,69,37,2778,626,7.0,1-1,other
73014,79,40,754,654,7.0,1-1,other
73015,72,24,2046,30,7.0,1-1,other
73016,62,28,221,731,7.0,1-1,other
73017,84,47,1310,3057,4.0,1-1,other
73018,81,35,879,60,5.0,1-1,other
73019,72,24,344,739,5.0,1-1,other
73020,77,28,373,900,4.0,2-5,other
73021,74,11,447,70,4.0,2-5,other
73022,55,1,3319,2051,7.0,1-1,other
73023,43,36,1859,1056,7.0,1-1,other
73024,79,62,457,5267,5.0,3-11B,major
73025,79,52,512,918,5.0,3-11B,major
73026,79,47,293,1094,5.0,3-11B,major
73027,76,51,293,2291,8.0,2-2,other
73028,72,36,2537,1258,8.0,2-2,other
73029,67,45,2489,46,8.0,2-2,other
73030,53,44,805,822,10.0,2-4,major
73031,57,51,833,732,10.0,2-4,major
73032,58,51,887,827,10.0,2-4,major
73033,59,53,494,1025,11.0,3-11A,minor
73034,69,19,5381,57,11.0,3-11A,minor
73035,31,41,169,1208,11.0,3-11A,minor
73036,35,37,728,5238,6.0,2-3,other
73037,47,38,89,813,6.0,2-3,other
73038,54,37,11068,660,6.0,2-3,other
73039,58,39,546,589,6.0,2-3,other
73040,59,49,9813,596,6.0,2-3,other
73041,63,43,182,538,6.0,2-3,other
73042,70,57,468,574,6.0,2-3,other
73043,66,44,221,520,6.0,2-3,other
73044,71,60,404,510,6.0,2-3,other
73045,78,55,432,1002,6.0,2-3,other
73046,75,55,136,460,6.0,2-3,other
73047,87,57,569,589,6.0,2-3,other
73048,83,42,522,565,6.0,2-3,other
73049,85,45,124,582,6.0,2-3,other
73050,95,48,295,610,6.0,2-3,other
73051,99,46,256,663,6.0,2-3,other
73052,106,49,1278,703,6.0,2-3,other
73053,36,78,160,0,,,
73054,60,90,750,1190,3.0,3-4A,major
73055,70,49,70,1670,0.0,2-1,other
73056,74,88,510,1630,3.0,2-5,other
73057,63,57,640,30,3.0,2-5,other
73058,75,67,910,6900,5.0,2-2,other
73059,74,56,330,1140,11.0,2-6,other
73060,62,48,260,50,11.0,2-6,other
73061,68,51,1300,1240,11.0,2-6,other
73062,67,52,1080,1630,7.0,2-2,other
73063,62,52,4150,3510,3.0,2-4,other
73064,46,65,660,5440,0.0,2-5,other
73065,55,59,100,660,0.0,2-5,other
73066,46,50,180,1620,10.0,2-4,major
73067,55,47,560,890,9.0,2-6,other
73068,72,64,160,630,9.0,2-6,other
73069,60,48,210,990,0.0,2-3,minor
73070,44,77,800,1010,0.0,2-3,minor
73071,48,68,230,4580,3.0,3-11B,major
73072,78,87,180,980,3.0,3-11B,major
73073,62,81,840,960,6.0,2-3,minor
73074,55,51,1080,40,6.0,2-3,minor
73075,48,68,610,1000,3.0,3-11B,major
73076,48,89,470,950,3.0,3-11B,major
73077,74,117,350,970,3.0,3-11B,major
73078,73,80,420,2560,0.0,3-8A,major
73079,79,76,380,3570,0.0,3-4A,other
73080,53,33,330,80,0.0,3-11B,other
73081,56,40,370,30,0.0,3-11B,other
73082,66,59,1720,3720,10.0,2-4,major
73083,71,63,670,3210,8.0,2-6,other
73084,51,57,3590,60,2.0,2-4,major
73085,60,72,840,2730,5.0,4-20,other
73086,52,46,440,1880,9.0,2-4,major
73087,53,36,90,1940,8.0,3-8A,other
73088,62,45,160,780,8.0,3-7B,other
73089,59,39,240,2260,7.0,2-2,other
73090,63,45,600,840,7.0,2-2,other
73091,59,54,370,70,8.0,2-3,other
73092,43,31,980,30,8.0,2-3,other
73093,67,111,730,1480,8.0,2-3,other
73094,55,79,1440,1890,0.0,2-2,other
73095,62,83,1000,840,0.0,2-2,other
73096,67,52,80,970,7.0,2-2,other
73097,74,85,620,6440,2.0,4-18A,minor
73098,73,30,120,2530,0.0,2-1,other
73099,56,66,450,410,5.0,3-11A,other
73100,53,50,1210,1210,3.0,3-11A,other
73101,63,56,540,2430,3.0,2-4,other
73102,82,61,1470,1510,8.0,4-27B,minor
73103,79,36,1290,130,11.0,2-6,other
73104,65,42,380,2660,11.0,2-6,other
73105,65,46,300,830,0.0,2-5,other
73106,55,39,720,910,0.0,3-2B,minor
73107,63,57,410,940,0.0,3-2B,minor
73108,63,82,530,1700,3.0,4-20,major
73109,63,82,680,710,3.0,4-20,major
73110,59,49,70,1710,6.0,2-6,other
73111,75,67,510,1610,6.0,2-6,other
73112,61,61,680,1520,0.0,4-27B,other
73113,53,54,810,1670,8.0,3-10,diminished
73114,47,61,510,1090,8.0,3-10,diminished
73115,78,81,1230,2280,0.0,2-2,other
73116,77,72,930,1720,7.0,3-11B,major
73117,59,53,190,1440,0.0,2-5,other
73118,68,63,1130,320,3.0,3-5B,other
73119,72,61,910,30,3.0,3-5B,other
73120,56,56,510,1680,3.0,3-11B,major
73121,46,66,3830,4510,0.0,4-22A,other
73122,65,48,90,1830,4.0,3-11B,major
73123,51,52,90,6320,5.0,3-11B,other
73124,45,66,890,610,5.0,3-11B,other
73125,53,40,490,6320,8.0,2-3,minor
73126,77,83,230,610,8.0,2-3,minor
73127,77,90,240,510,8.0,2-3,minor
73128,77,76,240,580,8.0,2-3,minor
73129,59,75,1060,750,3.0,3-4A,major
73130,70,33,770,60,3.0,3-4A,major
73131,58,57,510,1030,0.0,3-11A,minor
73132,48,46,170,710,0.0,3-11A,minor
73133,50,1,90,50,0.0,3-11A,minor
73134,44,52,2850,920,10.0,4-16A,other
73135,54,49,890,1810,5.0,2-5,other
73136,50,66,230,1630,0.0,3-8B,other
73137,58,57,70,1020,0.0,3-11A,minor
73138,58,61,300,760,0.0,4-26,other
73139,60,63,450,30,0.0,4-26,other
73140,60,48,80,860,3.0,2-5,other
73141,75,27,590,150,3.0,2-5,other
73142,53,70,240,670,3.0,2-4,other
73143,70,82,530,870,7.0,2-3,minor
73144,53,30,110,1770,0.0,2-1,other
73145,54,28,90,530,0.0,2-1,other
73146,82,44,700,360,0.0,3-9,other
73147,55,50,1400,890,0.0,3-9,other
73148,72,66,700,1810,7.0,2-5,other
73149,55,51,890,40,7.0,2-5,other
73150,74,73,1370,840,7.0,2-5,other
73151,59,62,1200,930,11.0,1-1,other
73152,67,50,880,940,3.0,2-1,other
73153,59,75,190,800,3.0,2-1,other
73154,58,36,120,2050,1.0,4-22A,other
73155,58,48,100,890,5.0,3-4A,other
73156,85,50,850,1810,4.0,2-5,other
73157,51,49,770,3610,0.0,3-4A,other
73158,52,78,860,880,0.0,3-4A,other
73159,55,82,680,3550,0.0,3-11A,minor
73160,55,62,450,900,0.0,2-3,minor
73161,53,66,170,900,0.0,2-3,minor
73162,55,54,110,1710,1.0,4-22B,other
73163,37,36,90,50,1.0,4-22B,other
73164,55,45,160,1730,1.0,4-22B,other
73165,37,75,770,1770,1.0,5-34,other
73166,75,48,80,5470,5.0,4-14A,other
73167,62,56,60,1800,5.0,4-29A,other
73168,70,81,1040,800,5.0,4-29A,other
73169,68,52,80,60,5.0,4-29A,other
73170,44,81,1630,860,5.0,4-29A,other
73171,44,63,1450,1820,5.0,4-29A,other
73172,44,66,650,1830,5.0,3-5B,other
73173,77,122,560,2040,7.0,4-27B,major
73174,71,61,180,1340,8.0,2-3,other
73175,77,127,370,560,8.0,2-3,other
73176,55,37,1200,640,0.0,2-3,minor
73177,63,49,310,550,0.0,2-3,minor
73178,73,21,320,40,0.0,2-3,minor
73179,67,53,600,530,0.0,2-3,minor
73180,72,66,460,1290,3.0,4-19B,augmented
73181,59,66,2800,1220,3.0,3-4A,major
73182,48,59,220,3040,0.0,3-11A,minor
73183,63,56,1020,2050,7.0,2-3,minor
73184,47,92,780,3650,0.0,4-26,minor
73185,46,87,920,920,0.0,4-26,minor
73186,70,86,570,2870,5.0,3-11A,other
73187,68,52,330,100,5.0,3-11A,other
73188,67,54,270,880,0.0,2-5,other
73189,68,84,270,870,0.0,2-5,other
73190,63,43,90,100,0.0,2-5,other
73191,63,69,590,2730,0.0,4-26,other
73192,65,75,630,60,5.0,3-11A,other
73193,63,85,1570,1830,5.0,3-11A,other
73194,51,82,650,60,5.0,3-11A,other
73195,51,96,1440,990,5.0,3-11A,other
73196,51,77,230,1930,5.0,2-5,other
73197,63,85,1010,1980,0.0,4-26,other
73198,49,66,130,1810,5.0,3-11A,other
73199,50,56,3940,900,5.0,3-11A,other
73200,72,66,390,920,5.0,3-11A,other
73201,56,57,2050,1890,5.0,3-11A,other
73202,50,58,1000,1850,5.0,3-11A,other
73203,79,117,240,970,5.0,3-11A,other
73204,43,77,1140,2890,5.0,2-4,other
73205,43,82,340,1770,5.0,2-4,other
73206,53,75,350,1940,8.0,3-10,diminished
73207,62,51,190,990,11.0,3-2A,minor
73208,48,82,1180,1930,5.0,1-1,other
73209,66,52,610,2010,2.0,3-11B,major
73210,48,43,1010,1970,3.0,3-11B,major
73211,58,47,430,1890,3.0,2-5,other
73212,55,42,340,30,3.0,2-5,other
73213,34,54,80,780,3.0,2-5,other
73214,80,52,70,2000,3.0,3-9,other
73215,54,22,80,80,0.0,1-1,other
73216,60,54,350,900,0.0,5-34,other
73217,75,75,80,3780,3.0,3-8B,other
73218,53,47,70,940,3.0,2-4,other
73219,54,32,90,540,3.0,2-4,other
73220,70,45,100,440,0.0,4-14A,minor
73221,70,13,450,270,0.0,4-14A,minor
73222,63,49,80,1740,7.0,2-5,other
73223,59,107,900,790,7.0,2-5,other
73224,58,92,790,1910,7.0,3-11A,minor
73225,63,57,440,3880,0.0,3-4A,other
73226,63,78,380,1780,0.0,2-2,other
73227,67,41,160,60,0.0,2-2,other
73228,60,75,830,1890,8.0,3-7B,other
73229,39,68,760,2890,11.0,2-3,minor
73230,46,66,1260,830,11.0,2-3,minor
73231,46,82,160,1910,0.0,3-11A,minor
73232,58,78,960,1920,4.0,3-5A,other
73233,53,69,750,2990,8.0,3-8A,other
73234,53,81,250,1930,8.0,3-8A,other
73235,44,83,480,900,8.0,3-8A,other
73236,44,85,1600,1830,8.0,3-2B,other
73237,44,75,480,1910,0.0,3-9,other
73238,43,81,1670,2020,7.0,3-11A,minor
73239,43,66,200,1990,3.0,4-20,major
73240,63,52,1560,1010,7.0,3-11A,minor
73241,55,57,520,40,7.0,3-11A,minor
73242,55,57,1020,950,7.0,3-11A,minor
73243,55,50,220,1900,7.0,2-3,minor
73244,65,57,1000,980,0.0,2-4,other
73245,50,47,2620,50,0.0,2-4,other
73246,56,48,1740,910,0.0,2-4,other
73247,67,87,230,1700,5.0,2-5,other
73248,68,96,460,610,5.0,2-5,other
73249,53,48,470,650,3.0,3-4A,other
73250,71,57,380,650,3.0,3-4A,other
73251,75,80,1150,650,3.0,3-4A,other
73252,82,99,480,1170,7.0,2-2,other
73253,80,87,760,660,7.0,2-2,other
73254,71,44,490,750,0.0,2-5,other
73255,79,117,480,610,0.0,2-5,other
73256,77,90,660,620,0.0,2-5,other
73257,58,49,670,650,0.0,2-5,other
73258,74,102,820,680,0.0,2-5,other
73259,73,60,90,90,0.0,2-5,other
73260,72,84,1890,560,0.0,2-5,other
73261,55,52,1040,660,3.0,2-5,other
73262,63,68,450,790,3.0,2-5,other
73263,62,87,440,570,3.0,2-5,other
73264,63,63,470,2670,2.0,2-3,minor
73265,80,94,430,5760,7.0,1-1,other
73266,53,75,930,560,3.0,2-4,other
73267,82,111,400,80,3.0,2-4,other
73268,83,51,170,100,3.0,2-4,other
73269,80,92,530,580,3.0,2-4,other
73270,75,82,260,400,3.0,2-4,other
73271,71,52,230,340,3.0,2-4,other
73272,77,102,350,350,3.0,2-4,other
73273,74,63,210,370,0.0,2-5,other
73274,75,89,310,340,0.0,2-5,other
73275,74,75,230,340,0.0,2-5,other
73276,67,68,180,320,0.0,2-5,other
73277,63,60,160,380,0.0,2-5,other
73278,60,40,110,160,0.0,2-5,other
73279,62,56,440,160,0.0,2-5,other
73280,65,83,216,500,0.0,2-5,other
73281,64,71,160,440,0.0,2-5,other
73282,63,70,1660,360,0.0,2-5,other
73283,55,77,1160,500,0.0,2-5,other
73284,61,35,110,100,0.0,2-5,other
73285,45,37,180,1300,0.0,2-5,other
73286,44,66,210,130,0.0,2-5,other
73287,43,66,210,240,0.0,2-5,other
73288,61,48,100,310,6.0,2-3,other
73289,60,75,530,760,6.0,2-3,other
73290,53,52,460,1200,3.0,2-5,other
73291,41,45,2860,40,3.0,2-5,other
73292,48,73,970,730,3.0,2-5,other
73293,60,42,80,1990,2.0,2-3,minor
73294,63,85,300,500,2.0,2-3,minor
73295,62,31,100,120,2.0,2-3,minor
73296,63,22,100,400,2.0,2-3,minor
73297,53,55,1340,270,0.0,2-3,minor
73298,67,85,280,620,0.0,2-3,minor
73299,65,68,560,840,8.0,3-10,diminished
73300,70,89,310,780,8.0,3-10,diminished
73301,68,39,90,90,8.0,3-10,diminished
73302,72,88,210,990,11.0,2-1,other
73303,67,83,700,560,0.0,2-3,minor
73304,71,39,360,230,0.0,2-3,minor
73305,74,88,400,1170,7.0,2-3,minor
73306,67,75,380,30,7.0,2-3,minor
73307,62,79,670,640,7.0,2-5,other
73308,70,41,90,60,7.0,2-5,other
73309,51,75,340,1160,11.0,2-6,other
73310,58,66,390,1540,0.0,2-1,other
73311,70,63,890,1110,0.0,2-1,other
73312,55,57,940,80,1.0,2-3,minor
73313,67,43,520,40,1.0,2-3,minor
73314,64,30,180,770,9.0,3-8A,major
73315,53,42,580,1180,8.0,3-8A,other
73316,55,48,790,1950,2.0,2-3,minor
73317,51,16,300,170,2.0,2-3,minor
73318,77,122,440,550,2.0,2-3,minor
73319,75,88,330,580,2.0,2-3,minor
73320,62,85,960,1670,5.0,2-2,other
73321,65,63,390,1010,8.0,2-3,minor
73322,55,40,880,2030,0.0,2-1,other
73323,57,67,1000,970,0.0,3-11A,minor
73324,56,64,1090,1000,3.0,3-11A,other
73325,57,67,180,940,3.0,3-11A,other
73326,71,48,230,80,0.0,3-11A,minor
73327,65,96,280,4240,8.0,4-24,other
73328,65,90,670,740,8.0,2-6,other
73329,56,72,740,840,8.0,3-10,other
73330,65,82,930,1630,3.0,3-5A,other
73331,62,84,290,600,3.0,3-5A,other
73332,62,89,200,2300,5.0,3-11B,other
73333,53,54,1450,730,5.0,3-11A,other
73334,55,27,130,30,5.0,3-11A,other
73335,55,66,1020,2640,2.0,3-7A,minor
73336,70,48,90,1390,3.0,2-1,other
73337,70,25,150,920,3.0,2-1,other
73338,74,81,340,390,3.0,2-1,other
73339,67,46,240,100,3.0,2-1,other
73340,63,25,150,70,3.0,2-1,other
73341,72,65,280,170,3.0,2-1,other
73342,70,34,1070,480,3.0,3-4A,major
73343,59,81,460,610,3.0,3-4A,major
73344,62,74,830,1150,3.0,2-4,other
73345,70,45,1490,110,3.0,3-4A,major
73346,58,86,410,660,3.0,3-4A,major
73347,77,99,810,4180,5.0,2-1,other
73348,88,52,70,60,5.0,2-1,other
73349,53,64,260,1260,3.0,2-4,other
73350,82,56,70,130,3.0,2-4,other
73351,43,60,460,600,3.0,2-4,other
73352,80,44,70,1460,3.0,2-5,other
73353,75,68,4760,2740,7.0,3-11A,minor
73354,73,16,4460,370,7.0,3-11A,minor
73355,60,66,770,1030,3.0,2-4,major
73356,59,87,1920,790,3.0,2-4,major
73357,60,42,230,30,3.0,2-4,major
73358,58,92,560,1790,3.0,2-4,major
73359,57,82,440,590,3.0,2-4,major
73360,63,12,170,160,3.0,2-4,major
73361,56,66,170,190,3.0,2-4,major
73362,55,63,220,160,3.0,2-4,major
73363,54,83,380,260,3.0,2-4,major
73364,52,70,500,790,3.0,2-4,major
73365,42,72,500,580,3.0,2-4,major
73366,41,65,1390,710,5.0,3-11A,other
73367,67,71,820,2120,0.0,3-7A,minor
73368,74,122,500,4610,4.0,3-8B,other
73369,62,58,500,60,8.0,2-1,other
73370,77,111,450,620,8.0,2-1,other
73371,58,45,80,1110,8.0,2-1,other
73372,72,80,1500,1190,0.0,2-1,other
73373,51,70,1650,920,0.0,3-11A,minor
73374,58,63,1260,990,5.0,4-20,other
73375,51,57,360,970,5.0,4-20,other
73376,45,51,380,2030,7.0,3-11B,major
73377,52,42,290,50,7.0,3-11B,major
73378,77,84,240,2020,3.0,2-4,major
73379,77,96,300,550,3.0,2-4,major
73380,70,68,1880,630,8.0,2-3,other
73381,65,56,630,30,8.0,2-3,other
73382,77,69,350,680,8.0,2-3,other
73383,65,18,390,80,8.0,2-3,other
73384,77,75,420,530,8.0,2-3,other
73385,75,70,300,1330,7.0,2-2,other
73386,75,89,500,530,7.0,2-2,other
73387,59,15,310,170,7.0,2-2,other
73388,63,69,1130,520,3.0,2-4,other
73389,53,61,1010,30,3.0,2-4,other
73390,71,69,290,690,3.0,2-4,other
73391,71,81,180,540,3.0,2-4,other
73392,53,31,520,140,3.0,2-4,other
73393,59,14,280,80,3.0,2-4,other
73394,70,41,470,550,3.0,2-1,other
73395,74,68,630,1060,0.0,1-1,other
73396,72,58,150,2060,0.0,2-5,other
73397,72,75,270,360,0.0,2-5,other
73398,72,61,220,1030,8.0,4-27B,other
73399,74,88,690,410,8.0,4-27B,other
73400,70,57,860,880,5.0,3-5B,other
73401,72,61,270,1020,5.0,3-5B,other
73402,72,68,350,510,5.0,3-5B,other
73403,50,66,2670,540,5.0,2-5,other
73404,72,80,460,2710,0.0,2-4,other
73405,74,84,290,560,0.0,2-4,other
73406,75,68,960,1430,3.0,3-8B,other
73407,53,47,1510,1390,7.0,4-13B,other
73408,43,69,310,1120,7.0,4-13B,other
73409,77,43,80,3090,0.0,3-11A,minor
73410,35,60,350,2020,3.0,3-12,augmented
73411,65,36,250,50,3.0,3-12,augmented
73412,77,47,90,1980,5.0,2-5,other
73413,66,38,120,1050,5.0,2-5,other
73414,84,120,510,4160,5.0,4-20,other
73415,61,56,730,1020,4.0,3-2A,minor
73416,52,43,390,3230,9.0,2-4,major
73417,63,46,1840,1020,9.0,2-4,major
73418,50,75,560,2800,0.0,2-5,other
73419,51,72,690,630,0.0,2-5,other
73420,51,36,100,1290,0.0,4-23,minor
73421,55,88,1430,170,0.0,4-23,minor
73422,60,67,1340,1240,3.0,2-5,other
73423,56,87,910,710,3.0,2-5,other
73424,49,72,780,1370,3.0,2-5,other
73425,61,61,70,2080,1.0,5-32B,other
73426,49,78,730,1000,1.0,5-32B,other
73427,49,80,1670,2040,5.0,3-11B,other
73428,77,96,1300,970,5.0,3-11B,other
73429,49,76,470,1020,0.0,2-4,other
73430,65,60,160,1100,0.0,3-8B,other
73431,72,49,240,30,0.0,3-8B,other
73432,89,99,1060,920,0.0,3-8B,other
73433,80,86,430,590,0.0,3-8B,other
73434,80,65,1720,650,5.0,3-11A,other
73435,89,81,1250,590,5.0,3-11A,other
73436,60,54,860,3390,5.0,2-1,other
73437,44,58,730,2150,5.0,2-1,other
73438,32,51,1640,2220,8.0,5-27A,other
73439,63,71,580,980,8.0,5-27A,other
73440,58,58,140,30,8.0,5-27A,other
73441,31,46,750,1020,11.0,3-8B,other
73442,62,54,310,4030,0.0,2-5,other
73443,64,30,180,80,0.0,2-5,other
73444,74,90,640,900,0.0,2-5,other
73445,60,79,1280,1020,3.0,2-4,major
73446,70,29,720,80,3.0,2-4,major
73447,74,81,320,850,3.0,2-4,major
73448,63,32,370,30,3.0,2-4,major
73449,75,66,720,4960,7.0,2-4,major
73450,75,61,340,2090,3.0,1-1,other
73451,58,64,80,990,3.0,1-1,other
73452,45,38,1140,1020,9.0,2-2,other
73453,43,36,260,3550,0.0,1-1,other
73454,42,49,230,200,0.0,1-1,other
73455,41,73,780,350,0.0,4-26,other
73456,43,31,90,60,0.0,4-26,other
73457,56,66,320,2030,0.0,4-26,other
73458,63,96,580,1100,0.0,4-26,other
73459,65,92,300,940,0.0,3-11B,other
73460,66,61,70,960,0.0,3-11B,other
73461,70,82,700,840,0.0,3-11B,other
73462,66,1,240,1930,0.0,2-3,minor
73463,51,88,1120,1000,0.0,3-11B,other
73464,63,46,660,1020,5.0,3-11A,other
73465,51,76,1770,880,5.0,3-11A,other
73466,75,85,1260,960,5.0,3-11A,other
73467,51,63,1560,1040,5.0,2-5,other
73468,56,39,1280,1060,0.0,2-4,other
73469,51,57,460,860,0.0,2-4,other
73470,56,49,1450,1050,2.0,3-7A,minor
73471,67,77,490,950,2.0,3-7A,minor
73472,68,66,1300,930,2.0,3-7A,minor
73473,56,46,900,80,5.0,2-5,other
73474,70,66,400,870,5.0,2-5,other
73475,50,48,2720,940,5.0,2-5,other
73476,55,48,2620,60,0.0,4-19B,other
73477,65,69,2040,2940,0.0,4-19B,other
73478,43,65,350,2080,0.0,4-19B,other
73479,59,46,680,1020,8.0,3-10,minor
73480,53,49,580,30,8.0,3-10,minor
73481,74,96,510,870,8.0,3-10,minor
73482,77,99,530,1920,5.0,2-2,other
73483,71,50,210,2010,2.0,2-3,minor
73484,48,82,690,1080,2.0,2-3,minor
73485,48,78,770,1070,2.0,3-11B,major
73486,36,39,120,3060,0.0,4-26,minor
73487,84,80,70,4850,8.0,2-2,other
73488,65,61,1130,880,8.0,2-2,other
73489,54,46,1390,30,8.0,2-2,other
73490,60,46,1110,40,8.0,2-2,other
73491,63,54,910,1930,8.0,2-2,other
73492,77,77,420,1280,3.0,2-4,major
73493,71,40,1120,50,3.0,2-4,major
73494,71,74,480,1370,7.0,2-2,other
73495,67,68,390,40,7.0,2-2,other
73496,75,77,180,540,7.0,2-2,other
73497,68,39,90,350,7.0,2-2,other
73498,60,81,1960,1090,10.0,2-4,major
73499,63,69,1600,1290,10.0,2-4,major
73500,59,85,1330,720,0.0,2-5,other
73501,58,68,1160,1260,3.0,3-11B,major
73502,57,66,350,1320,3.0,3-11B,major
73503,56,61,170,250,3.0,3-11B,major
73504,55,64,180,190,3.0,3-11B,major
73505,41,50,2410,3350,0.0,4-20,other
73506,51,60,820,1640,8.0,2-6,other
73507,60,55,470,30,8.0,2-6,other
73508,63,84,330,490,8.0,2-6,other
73509,63,78,410,590,8.0,2-6,other
73510,41,47,670,80,0.0,3-11B,other
73511,65,82,460,650,0.0,3-11B,other
73512,63,59,450,50,0.0,3-11B,other
73513,65,78,220,580,0.0,3-11B,other
73514,63,63,220,50,0.0,3-11B,other
73515,59,73,530,620,8.0,3-5B,other
73516,63,33,390,60,8.0,3-5B,other
73517,72,87,2610,2800,7.0,2-5,other
73518,60,56,1000,1070,3.0,2-4,major
73519,51,86,1690,920,3.0,2-4,major
73520,60,84,1090,1010,5.0,4-20,other
73521,51,88,1020,960,5.0,4-20,other
73522,45,67,520,2050,4.0,3-11A,minor
73523,44,58,910,990,4.0,3-11A,minor
73524,53,63,760,60,8.0,3-8A,other
73525,53,88,510,2000,8.0,3-8A,other
73526,53,84,700,3070,8.0,3-8A,other
73527,55,88,430,4100,3.0,2-4,major
73528,62,107,1080,1050,3.0,4-20,major
73529,60,85,1040,990,3.0,4-20,major
73530,60,57,1040,2060,7.0,2-3,minor
73531,62,55,1080,1040,3.0,3-4A,major
73532,70,46,1230,40,3.0,3-4A,major
73533,50,41,2460,2200,2.0,4-27A,minor
73534,86,63,530,1010,2.0,4-27A,minor
73535,74,49,250,50,2.0,4-27A,minor
73536,74,41,290,1090,0.0,3-8B,other
73537,50,48,250,1000,0.0,3-8B,other
73538,31,74,150,6500,5.0,4-14A,other
73539,67,111,540,1050,0.0,4-16A,other
73540,74,83,550,990,0.0,3-4A,other
73541,67,117,550,1000,0.0,4-16A,other
73542,67,117,1400,950,0.0,4-16A,other
73543,78,32,400,2150,0.0,3-4A,other
73544,63,68,380,980,3.0,3-12,augmented
73545,43,77,1800,1070,11.0,2-6,other
73546,53,58,1070,1070,3.0,2-4,other
73547,43,53,3940,1080,3.0,2-4,other
73548,53,42,1180,1150,3.0,2-4,other
73549,55,51,420,4000,3.0,2-4,other
73550,64,54,530,2200,3.0,2-4,other
73551,36,45,1150,80,4.0,2-5,other
73552,43,72,710,990,4.0,2-5,other
73553,52,63,140,760,4.0,2-5,other
73554,55,88,790,780,4.0,2-5,other
73555,62,73,840,1610,4.0,4-26,minor
73556,64,58,700,870,7.0,3-9,other
73557,67,60,940,840,7.0,3-9,other
73558,83,67,820,950,7.0,3-9,other
73559,71,46,900,70,4.0,3-7A,minor
73560,91,56,1790,1980,4.0,3-7A,minor
73561,79,45,3330,2940,11.0,2-3,minor
73562,47,85,39,0,2.0,6-40B,minor
73563,46,69,19,35,2.0,6-40B,minor
73564,45,78,81,35,2.0,6-40B,minor
73565,44,58,439,94,2.0,6-40B,minor
73566,50,58,15,809,8.0,5-31B,diminished
73567,49,63,123,270,7.0,5-32A,minor
73568,46,30,41,92,7.0,5-32A,minor
73569,53,59,8,1073,2.0,3-11A,minor
73570,53,55,15,593,9.0,2-6,other
73571,46,46,190,42,9.0,2-6,other
73572,53,56,11,86,9.0,2-6,other
73573,77,91,62,961,1.0,5-34,other
73574,51,44,50,1079,0.0,4-23,minor
73575,43,50,7,704,11.0,2-6,other
73576,24,62,17,117,0.0,2-4,major
73577,70,64,14,247,1.0,5-30A,other
73578,80,36,53,44,1.0,5-30A,other
73579,60,108,50,361,0.0,3-8A,major
73580,59,37,82,119,2.0,2-2,other
73581,60,46,12,81,2.0,2-2,other
73582,72,53,156,41,2.0,2-2,other
73583,48,46,18,78,2.0,2-2,other
73584,48,40,145,48,2.0,2-2,other
73585,48,60,23,190,9.0,4-26,minor
73586,48,35,133,49,9.0,4-26,minor
73587,48,55,101,320,0.0,3-11B,major
73588,60,62,141,366,7.0,5-29B,minor
73589,48,62,195,110,7.0,5-29B,minor
73590,48,63,179,240,5.0,4-16A,other
73591,60,95,116,122,5.0,4-16A,other
73592,48,52,187,121,5.0,4-16A,other
73593,60,94,52,40,5.0,4-16A,other
73594,59,64,99,108,1.0,2-1,other
73595,48,68,158,220,0.0,3-11B,major
73596,48,82,140,225,9.0,4-26,minor
73597,56,42,35,136,9.0,4-26,minor
73598,46,39,102,1351,8.0,4-28,diminished
73599,65,58,34,76,8.0,4-28,diminished
73600,72,72,114,124,9.0,2-5,other
73601,45,30,10,123,9.0,2-5,other
73602,45,36,24,1188,6.0,4-23,minor
73603,45,44,18,249,5.0,3-11B,major
73604,68,20,13,130,5.0,4-20,major
73605,46,65,18,237,7.0,4-26,minor
73606,49,86,63,43,7.0,4-26,minor
73607,50,94,180,75,7.0,4-26,minor
73608,43,76,304,352,5.0,6-15A,augmented
73609,65,48,27,244,3.0,3-11B,major
73610,43,43,8,114,3.0,3-11B,major
73611,71,57,31,324,3.0,4-16A,other
73612,73,51,45,38,3.0,4-16A,other
73613,75,47,28,38,3.0,4-16A,other
73614,76,47,24,40,3.0,4-16A,other
73615,81,52,19,126,4.0,2-3,minor
73616,82,64,19,35,4.0,2-3,minor
73617,84,67,15,36,4.0,2-3,minor
73618,85,75,20,38,4.0,2-3,minor
73619,88,44,19,85,4.0,3-5B,other
73620,90,52,22,35,4.0,3-5B,other
73621,94,73,22,126,10.0,4-16A,major
73622,96,62,19,31,10.0,4-16A,major
73623,50,62,19,976,2.0,5-27B,minor
73624,44,62,511,41,2.0,5-27B,minor
73625,59,42,57,249,2.0,4-18A,minor
73626,49,25,26,190,4.0,3-11B,major
73627,49,77,47,355,8.0,4-28,diminished
73628,50,68,58,47,8.0,4-28,diminished
73629,43,90,436,68,8.0,4-28,diminished
73630,50,57,73,290,7.0,5-32A,minor
73631,36,46,8,314,0.0,4-27B,major
73632,65,55,28,37,0.0,4-27B,major
73633,47,67,36,685,5.0,3-9,other
73634,48,53,197,46,5.0,3-9,other
73635,36,70,365,69,5.0,3-9,other
73636,43,34,26,134,5.0,3-9,other
73637,39,50,32,232,7.0,5-35,minor
73638,36,37,105,275,2.0,2-3,minor
73639,38,35,115,114,2.0,2-3,minor
73640,41,6,63,390,0.0,1-1,other
73641,45,46,116,98,1.0,2-2,other
73642,44,63,108,126,1.0,2-2,other
73643,47,49,108,112,1.0,2-2,other
73644,59,50,21,151,8.0,2-6,other
73645,62,60,22,31,8.0,2-6,other
73646,68,40,23,64,8.0,2-3,other
73647,71,60,17,28,8.0,2-3,other
73648,76,91,43,27,8.0,2-3,other
73649,71,69,39,58,4.0,2-2,other
73650,68,54,23,39,4.0,2-2,other
73651,65,58,17,26,4.0,2-2,other
73652,62,36,21,33,4.0,2-2,other
73653,59,53,35,95,4.0,2-2,other
73654,55,39,55,170,8.0,2-6,other
73655,53,52,31,71,8.0,2-6,other
73656,49,55,31,120,8.0,2-6,other
73657,54,40,24,200,2.0,2-5,other
73658,55,54,26,41,2.0,2-5,other
73659,58,51,20,79,10.0,2-1,other
73660,62,80,21,39,10.0,2-1,other
73661,69,94,28,84,2.0,2-3,minor
73662,66,88,28,39,2.0,2-3,minor
73663,65,50,47,81,0.0,3-7B,other
73664,50,47,105,84,0.0,3-7B,other
73665,64,57,19,164,3.0,2-5,other
73666,66,74,29,37,3.0,2-5,other
73667,69,90,28,116,8.0,2-1,other
73668,71,60,21,84,2.0,3-3A,minor
73669,72,80,28,34,2.0,3-3A,minor
73670,65,52,22,76,9.0,2-3,minor
73671,60,36,33,39,9.0,2-3,minor
73672,41,30,276,42,9.0,2-3,minor
73673,53,45,79,386,3.0,4-22A,major
73674,41,38,55,77,3.0,4-22A,major
73675,48,63,17,116,2.0,4-17,other
73676,45,50,106,38,2.0,4-17,other
73677,50,61,19,196,10.0,4-20,major
73678,48,40,108,39,10.0,4-20,major
73679,65,69,69,236,9.0,2-5,other
73680,69,76,91,136,7.0,1-1,other
73681,37,32,14,315,3.0,2-4,major
73682,38,68,107,28,3.0,2-4,major
73683,39,64,116,123,3.0,2-4,major
73684,44,25,163,955,5.0,3-7B,other
73685,51,46,40,79,5.0,3-7B,other
73686,53,64,17,727,3.0,4-19A,augmented
73687,36,69,104,646,1.0,1-1,other
73688,24,80,30,84,1.0,1-1,other
73689,60,46,22,47,1.0,1-1,other
73690,62,74,68,32,1.0,1-1,other
73691,65,66,54,83,1.0,1-1,other
73692,74,89,39,73,1.0,1-1,other
73693,72,57,72,47,1.0,1-1,other
73694,69,65,152,72,1.0,1-1,other
73695,64,45,69,45,1.0,1-1,other
73696,60,33,21,322,9.0,3-11A,minor
73697,59,60,20,479,2.0,2-2,other
73698,48,78,412,112,0.0,1-1,other
73699,56,33,166,282,7.0,5-29B,minor
73700,77,58,21,212,1.0,2-2,other
73701,80,75,26,63,0.0,2-5,other
73702,82,80,26,36,0.0,2-5,other
73703,84,83,23,38,0.0,2-5,other
73704,75,48,87,254,5.0,2-5,other
73705,48,57,77,75,5.0,2-5,other
73706,48,57,27,121,7.0,3-9,other
73707,55,74,116,524,3.0,5-26B,augmented
73708,62,51,8,1278,4.0,4-18A,major
73709,45,53,87,360,9.0,3-11A,minor
73710,45,36,448,123,9.0,3-11A,minor
73711,69,36,18,78,7.0,2-1,other
73712,74,96,46,79,5.0,3-11B,major
73713,60,53,22,431,3.0,2-1,other
73714,57,37,18,29,3.0,2-1,other
73715,62,66,37,33,3.0,2-1,other
73716,60,91,157,71,3.0,2-1,other
73717,45,37,62,119,3.0,2-1,other
73718,45,60,171,116,6.0,2-3,minor
73719,53,48,63,38,6.0,2-3,minor
73720,60,40,77,125,5.0,3-4A,major
73721,45,44,46,75,5.0,3-4A,major
73722,64,45,22,65,0.0,4-17,other
73723,57,55,33,306,7.0,3-7A,minor
73724,58,53,22,41,7.0,3-7A,minor
73725,62,66,20,35,7.0,3-7A,minor
73726,65,75,23,38,7.0,3-7A,minor
73727,70,83,50,60,7.0,3-7A,minor
73728,69,83,34,73,7.0,3-7A,minor
73729,70,72,43,51,7.0,3-7A,minor
73730,72,80,38,56,7.0,3-7A,minor
73731,74,53,32,67,7.0,3-7A,minor
73732,67,48,53,97,3.0,2-4,major
73733,70,57,25,69,3.0,2-4,major
73734,75,53,29,43,3.0,2-4,major
73735,82,51,55,114,1.0,3-8A,other
73736,83,58,28,158,1.0,3-9,other
73737,85,64,29,37,1.0,3-9,other
73738,89,57,24,78,3.0,4-27A,other
73739,91,70,23,37,3.0,4-27A,other
73740,92,67,20,40,3.0,4-27A,other
73741,94,63,23,36,3.0,4-27A,other
73742,95,75,26,39,3.0,4-27A,other
73743,97,69,23,76,0.0,3-4B,other
73744,98,62,17,35,0.0,3-4B,other
73745,99,71,31,32,0.0,3-4B,other
73746,96,79,39,161,1.0,2-3,minor
73747,93,60,22,121,0.0,3-8A,major
73748,94,61,23,32,0.0,3-8A,major
73749,96,74,29,39,0.0,3-8A,major
73750,91,52,23,75,5.0,2-1,other
73751,93,76,20,43,5.0,2-1,other
73752,89,64,21,77,5.0,4-20,major
73753,91,75,21,36,5.0,4-20,major
73754,86,69,21,76,5.0,2-5,other
73755,88,80,23,39,5.0,2-5,other
73756,48,59,27,256,2.0,3-7B,other
73757,41,60,7,44,2.0,3-7B,other
73758,50,48,20,449,5.0,3-11B,major
73759,44,71,48,112,8.0,4-28,diminished
73760,57,45,19,961,10.0,3-6,major
73761,43,53,289,38,10.0,3-6,major
73762,50,45,117,77,10.0,3-6,major
73763,53,31,22,44,10.0,3-6,major
73764,57,52,18,28,10.0,3-6,major
73765,59,54,18,56,5.0,2-5,other
73766,57,59,17,26,5.0,2-5,other
73767,66,62,22,81,10.0,2-4,major
73768,69,24,31,131,7.0,2-5,other
73769,70,54,18,35,7.0,2-5,other
73770,72,50,21,33,7.0,2-5,other
73771,73,52,30,27,7.0,2-5,other
73772,75,55,22,28,7.0,2-5,other
73773,78,47,15,63,4.0,3-8B,other
73774,81,48,34,59,7.0,2-5,other
73775,82,37,23,31,7.0,2-5,other
73776,83,35,19,31,7.0,2-5,other
73777,84,68,19,33,7.0,2-5,other
73778,86,85,17,40,7.0,2-5,other
73779,81,62,82,144,0.0,1-1,other
73780,36,40,28,117,0.0,1-1,other
73781,36,58,15,78,0.0,1-1,other
73782,48,58,19,240,10.0,4-20,major
73783,48,45,47,46,10.0,4-20,major
73784,38,57,28,190,0.0,5-30B,other
73785,36,48,10,46,0.0,5-30B,other
73786,33,47,27,80,0.0,5-30B,other
73787,55,55,22,1303,8.0,2-3,minor
73788,56,67,26,34,8.0,2-3,minor
73789,58,59,28,38,8.0,2-3,minor
73790,59,55,20,39,8.0,2-3,minor
73791,61,71,30,38,8.0,2-3,minor
73792,61,62,32,207,8.0,2-3,minor
73793,62,69,26,32,8.0,2-3,minor
73794,61,60,21,53,4.0,3-3A,major
73795,64,62,46,113,8.0,2-3,other
73796,72,75,64,141,5.0,4-2B,major
73797,43,70,28,299,10.0,2-5,other
73798,36,57,25,122,1.0,2-2,other
73799,52,62,47,41,1.0,2-2,other
73800,48,57,21,193,0.0,3-8A,major
73801,81,62,23,1537,5.0,2-5,other
73802,77,53,17,39,5.0,2-5,other
73803,81,39,14,189,5.0,2-5,other
73804,81,60,22,120,2.0,3-7A,minor
73805,77,64,26,35,2.0,3-7A,minor
73806,81,45,27,203,2.0,4-4A,minor
73807,81,58,38,124,5.0,4-16A,other
73808,77,57,27,42,5.0,4-16A,other
73809,81,59,35,442,5.0,3-4A,other
73810,77,52,30,161,9.0,2-4,major
73811,81,46,31,185,5.0,4-16A,other
73812,59,64,20,692,4.0,5-31B,major
73813,43,47,13,237,3.0,4-27A,other
73814,36,67,142,128,3.0,4-27A,other
73815,43,76,274,88,3.0,4-27A,other
73816,52,65,66,472,4.0,4-23,minor
73817,86,80,25,164,4.0,4-23,minor
73818,84,48,19,37,4.0,4-23,minor
73819,86,85,36,36,4.0,4-23,minor
73820,84,64,33,35,4.0,4-23,minor
73821,81,57,39,37,4.0,4-23,minor
73822,77,44,36,43,4.0,4-23,minor
73823,86,94,28,543,9.0,2-3,minor
73824,84,60,15,41,9.0,2-3,minor
73825,84,66,48,71,2.0,2-2,other
73826,81,52,38,36,2.0,2-2,other
73827,77,54,27,34,2.0,2-2,other
73828,48,52,52,123,9.0,2-3,minor
73829,48,68,198,119,9.0,2-3,minor
73830,60,73,182,119,9.0,2-3,minor
73831,48,66,448,125,5.0,4-16A,other
73832,60,75,62,118,5.0,4-16A,other
73833,84,89,23,46,5.0,4-16A,other
73834,82,47,13,40,5.0,4-16A,other
73835,77,53,39,72,0.0,1-1,other
73836,73,42,28,34,0.0,1-1,other
73837,72,36,30,41,0.0,1-1,other
73838,60,56,135,44,0.0,1-1,other
73839,48,58,185,79,0.0,1-1,other
73840,70,77,33,50,0.0,1-1,other
73841,67,64,76,114,0.0,2-4,other
73842,65,66,32,196,9.0,2-5,other
73843,64,40,142,47,9.0,2-5,other
73844,48,58,103,188,0.0,1-1,other
73845,64,41,136,168,5.0,2-5,other
73846,55,31,12,202,0.0,1-1,other
73847,47,74,48,230,9.0,2-3,minor
73848,74,22,18,700,8.0,2-3,other
73849,45,54,336,386,9.0,4-26,minor
73850,60,53,19,45,9.0,4-26,minor
73851,64,50,23,166,2.0,3-5B,other
73852,57,51,57,91,2.0,3-5B,other
73853,45,65,28,67,2.0,3-5B,other
73854,45,58,44,54,2.0,3-5B,other
73855,45,67,81,183,5.0,2-4,major
73856,45,66,68,116,5.0,2-4,major
73857,60,50,42,54,5.0,2-4,major
73858,45,33,71,581,8.0,3-5A,other
73859,52,36,93,233,4.0,3-9,other
73860,50,36,13,101,6.0,3-7A,minor
73861,44,42,18,3945,11.0,3-10,diminished
73862,53,73,34,249,3.0,5-27A,major
73863,47,62,30,1083,5.0,5-27A,major
73864,48,52,147,46,5.0,5-27A,major
73865,36,56,22,73,5.0,5-27A,major
73866,36,46,294,43,5.0,5-27A,major
73867,43,36,28,194,7.0,5-35,minor
73868,39,52,29,117,7.0,5-35,minor
73869,40,47,109,39,7.0,5-35,minor
73870,39,35,33,78,7.0,5-35,minor
73871,35,41,111,161,2.0,4-26,minor
73872,34,25,26,84,2.0,4-26,minor
73873,37,49,27,486,11.0,4-13A,diminished
73874,40,42,123,151,2.0,4-26,minor
73875,44,55,105,246,8.0,4-28,diminished
73876,51,45,35,324,4.0,4-27B,major
73877,47,42,64,263,8.0,3-10,minor
73878,39,25,20,215,5.0,3-1,other
73879,45,60,116,143,7.0,4-26,minor
73880,46,37,28,333,4.0,4-18B,other
73881,48,51,97,476,9.0,3-11A,minor
73882,48,54,57,158,9.0,3-11B,major
73883,48,44,127,85,9.0,3-11B,major
73884,48,65,36,170,2.0,4-26,minor
73885,48,58,109,72,2.0,4-26,minor
73886,48,38,10,155,0.0,5-35,minor
73887,48,35,14,78,0.0,5-35,minor
73888,53,49,28,365,10.0,4-20,major
73889,55,49,77,42,10.0,4-20,major
73890,49,31,27,320,0.0,4-22A,major
73891,41,66,22,355,2.0,3-11A,minor
73892,40,49,113,46,2.0,3-11A,minor
73893,39,55,115,119,2.0,3-11A,minor
73894,54,54,117,361,5.0,4-16A,other
73895,39,44,90,349,8.0,4-26,other
73896,44,42,126,237,5.0,3-9,other
73897,32,46,102,241,5.0,3-9,other
73898,39,42,24,91,5.0,3-9,other
73899,39,37,38,119,8.0,4-6,other
73900,34,44,29,482,11.0,2-6,other
73901,34,49,34,116,0.0,3-11B,major
73902,36,48,87,37,0.0,3-11B,major
73903,34,37,31,84,0.0,3-11B,major
73904,34,37,33,122,2.0,2-3,minor
73905,37,45,36,122,2.0,2-3,minor
73906,60,78,38,435,0.0,2-4,major
73907,60,79,16,67,0.0,2-4,major
73908,60,56,24,152,9.0,4-26,minor
73909,60,60,23,84,9.0,4-26,minor
73910,60,59,23,82,9.0,4-26,minor
73911,60,45,93,76,9.0,4-26,minor
73912,60,51,21,185,0.0,3-11B,major
73913,60,63,33,86,0.0,3-11B,major
73914,60,58,19,81,0.0,3-11B,major
73915,60,55,22,78,0.0,3-11B,major
73916,60,53,10,85,0.0,3-11B,major
73917,60,58,9,33,0.0,3-11B,major
73918,48,63,31,115,5.0,4-16A,other
73919,48,46,454,113,5.0,4-16A,other
73920,60,60,22,163,5.0,4-16A,other
73921,60,60,22,88,5.0,4-16A,other
73922,60,64,23,86,5.0,4-16A,other
73923,48,50,32,159,5.0,3-4A,other
73924,48,60,46,76,5.0,3-4A,other
73925,48,74,33,83,5.0,3-4A,other
73926,48,54,44,148,9.0,4-23,minor
73927,48,51,28,87,9.0,4-23,minor
73928,48,71,178,82,9.0,4-23,minor
73929,48,62,100,230,9.0,4-26,minor
73930,45,14,58,1544,4.0,5-35,minor
73931,45,66,29,498,5.0,3-11B,major
73932,45,79,42,110,5.0,3-11B,major
73933,45,63,518,250,5.0,2-5,other
73934,45,73,152,600,5.0,3-11B,major
73935,65,38,32,50,5.0,3-11B,major
73936,44,62,142,189,9.0,3-11A,minor
73937,60,44,25,85,11.0,2-5,other
73938,59,43,29,26,11.0,2-5,other
73939,58,56,185,63,5.0,3-6,major
73940,50,44,27,89,5.0,3-6,major
73941,54,57,36,98,5.0,3-6,major
73942,57,69,194,46,5.0,3-6,major
73943,43,62,23,75,5.0,3-6,major
73944,55,62,102,161,7.0,2-1,other
73945,43,70,19,68,7.0,2-1,other
73946,49,44,8,601,3.0,3-11A,other
73947,58,38,31,237,8.0,3-10,minor
73948,53,54,20,607,9.0,3-11A,minor
73949,53,56,19,734,2.0,4-23,minor
73950,47,55,39,3105,5.0,4-22A,major
73951,48,44,12,54,5.0,4-22A,major
73952,40,45,65,116,5.0,4-22A,major
73953,41,47,12,74,5.0,4-22A,major
73954,35,35,60,54,5.0,4-22A,major
73955,36,35,34,68,5.0,4-22A,major
73956,29,40,56,50,5.0,4-22A,major
73957,28,39,68,113,5.0,4-22A,major
73958,73,70,42,0,0.0,1-1,other
73959,43,84,77,3624,10.0,3-11B,major
73960,72,109,73,347,7.0,4-26,minor
73961,71,104,53,97,7.0,4-26,minor
73962,72,95,22,84,7.0,4-26,minor
73963,48,57,386,1580,2.0,5-35,minor
73964,60,104,147,341,9.0,1-1,other
73965,59,79,89,133,9.0,1-1,other
73966,60,60,115,80,9.0,1-1,other
73967,60,56,119,260,2.0,2-5,other
73968,84,85,80,1029,6.0,4-28,diminished
73969,82,77,60,92,6.0,4-28,diminished
73970,81,75,60,79,6.0,4-28,diminished
73971,50,56,192,222,9.0,2-2,other
73972,56,92,115,292,10.0,4-20,major
73973,36,67,260,596,4.0,4-27A,diminished
73974,55,76,62,1023,9.0,4-26,minor
73975,44,71,112,612,2.0,2-3,minor
73976,65,74,33,108,2.0,2-3,minor
73977,43,81,57,122,2.0,2-3,minor
73978,69,52,74,883,7.0,5-17,minor
73979,69,51,60,128,7.0,5-17,minor
73980,69,38,116,146,7.0,5-17,minor
73981,60,60,154,396,9.0,4-27B,major
73982,63,85,65,226,1.0,2-6,other
73983,64,85,83,77,1.0,2-6,other
73984,66,91,61,76,1.0,2-6,other
73985,67,87,137,75,1.0,2-6,other
73986,68,77,52,134,1.0,2-6,other
73987,69,80,47,62,1.0,2-6,other
73988,72,81,69,54,1.0,2-6,other
73989,75,90,63,145,3.0,2-1,other
73990,57,48,156,182,4.0,2-2,other
73991,63,64,29,400,9.0,4-26,minor
73992,62,52,42,31,9.0,4-26,minor
73993,61,53,35,39,9.0,4-26,minor
73994,65,51,79,1038,2.0,3-11A,minor
73995,50,66,121,765,7.0,3-9,other
73996,52,55,111,243,6.0,4-13A,diminished
73997,79,67,39,1437,1.0,3-10,minor
73998,60,98,83,578,5.0,2-4,major
73999,59,91,36,77,5.0,2-4,major
74000,60,84,56,51,5.0,2-4,major
74001,52,75,92,187,8.0,3-10,minor
74002,53,80,260,95,8.0,3-10,minor
74003,44,73,89,110,8.0,3-10,minor
74004,59,88,53,288,5.0,2-5,other
74005,60,73,70,56,5.0,2-5,other
74006,59,74,56,559,9.0,2-3,minor
74007,60,63,19,69,9.0,2-3,minor
74008,38,67,68,96,9.0,2-3,minor
74009,48,80,469,1348,4.0,4-27A,diminished
74010,67,76,52,1261,0.0,3-11A,minor
74011,69,76,49,57,0.0,3-11A,minor
74012,62,46,84,199,5.0,5-33,augmented
74013,61,70,117,109,5.0,5-33,augmented
74014,65,93,46,435,5.0,2-2,other
74015,67,92,62,92,5.0,2-2,other
74016,67,93,68,91,5.0,2-2,other
74017,69,92,27,82,5.0,2-2,other
74018,69,83,332,543,9.0,1-1,other
74019,70,68,70,225,10.0,1-1,other
74020,59,52,110,366,5.0,5-26B,other
74021,83,47,56,534,5.0,4-16A,other
74022,60,95,133,771,5.0,2-4,major
74023,60,62,84,463,8.0,3-10,minor
74024,50,48,371,376,0.0,2-5,other
74025,69,56,37,438,10.0,3-4A,major
74026,69,54,18,646,9.0,5-16A,other
74027,53,44,42,326,9.0,4-26,minor
74028,53,46,113,352,9.0,3-7A,minor
74029,43,52,29,393,2.0,2-1,other
74030,52,60,118,47,2.0,2-1,other
74031,36,71,44,98,2.0,2-1,other
74032,41,45,456,158,1.0,3-10,minor
74033,46,56,38,135,2.0,4-26,minor
74034,63,53,29,619,4.0,4-18A,major
74035,62,107,125,420,8.0,2-2,other
74036,61,71,40,135,7.0,2-2,other
74037,65,65,39,144,10.0,3-4A,major
74038,72,73,37,149,5.0,3-11B,major
74039,37,68,25,32,5.0,3-11B,major
74040,69,61,41,34,5.0,3-11B,major
74041,72,97,46,78,5.0,3-11B,major
74042,68,40,54,76,0.0,2-4,major
74043,68,64,128,79,0.0,2-4,major
74044,58,48,20,31,0.0,2-4,major
74045,60,52,21,191,0.0,2-2,other
74046,64,78,43,47,0.0,2-2,other
74047,76,77,41,143,8.0,2-2,other
74048,81,87,22,98,5.0,3-3B,major
74049,81,78,23,155,5.0,4-20,major
74050,76,77,36,43,5.0,4-20,major
74051,71,64,14,55,5.0,4-20,major
74052,50,67,58,684,6.0,4-28,diminished
74053,61,79,16,99,8.0,3-8B,other
74054,60,77,26,34,8.0,3-8B,other
74055,59,70,23,39,8.0,3-8B,other
74056,57,58,53,136,0.0,2-2,other
74057,62,90,20,115,10.0,2-5,other
74058,65,97,26,41,10.0,2-5,other
74059,72,99,34,89,10.0,3-4A,major
74060,69,85,82,55,10.0,3-4A,major
74061,65,52,29,101,10.0,3-4A,major
74062,55,26,27,68,2.0,2-5,other
74063,65,88,98,26,2.0,2-5,other
74064,65,79,85,150,2.0,2-2,other
74065,60,67,36,228,4.0,2-6,other
74066,46,79,80,44,4.0,2-6,other
74067,45,90,52,103,4.0,2-6,other
74068,54,48,43,152,0.0,3-11B,major
74069,55,61,16,334,9.0,3-11A,minor
74070,57,72,42,912,0.0,2-2,other
74071,62,65,23,90,10.0,2-5,other
74072,65,97,26,43,10.0,2-5,other
74073,72,104,40,97,10.0,3-4A,major
74074,67,79,31,40,10.0,3-4A,major
74075,69,63,25,50,10.0,3-4A,major
74076,70,84,15,41,10.0,3-4A,major
74077,77,84,23,95,4.0,3-8B,other
74078,81,95,19,43,4.0,3-8B,other
74079,82,107,32,42,4.0,3-8B,other
74080,61,53,43,286,7.0,4-27A,minor
74081,50,55,43,585,5.0,2-4,major
74082,43,63,97,55,5.0,2-4,major
74083,53,73,10,94,5.0,2-4,major
74084,77,67,22,205,7.0,2-1,other
74085,53,30,112,145,0.0,3-4A,major
74086,77,91,37,52,0.0,3-4A,major
74087,74,85,31,37,0.0,3-4A,major
74088,69,59,26,99,10.0,3-4A,major
74089,69,61,35,97,10.0,3-6,major
74090,70,53,37,46,10.0,3-6,major
74091,62,75,123,39,10.0,3-6,major
74092,65,84,42,119,10.0,3-6,major
74093,67,71,28,45,10.0,3-6,major
74094,68,67,54,54,10.0,3-6,major
74095,72,87,30,251,9.0,4-29A,minor
74096,72,64,46,61,9.0,4-29A,minor
74097,72,73,44,93,9.0,4-29A,minor
74098,72,76,31,154,0.0,4-24,augmented
74099,72,57,32,57,0.0,4-24,augmented
74100,60,59,56,659,2.0,3-7B,other
74101,52,57,97,222,8.0,4-28,diminished
74102,51,42,40,88,8.0,4-28,diminished
74103,50,63,106,47,8.0,4-28,diminished
74104,44,83,148,90,8.0,4-28,diminished
74105,50,63,40,139,8.0,4-28,diminished
74106,50,47,142,165,0.0,3-2B,other
74107,59,62,29,108,2.0,2-2,other
74108,47,61,113,175,0.0,2-2,other
74109,46,47,40,83,0.0,2-2,other
74110,60,87,33,264,0.0,2-1,other
74111,52,50,77,33,0.0,2-1,other
74112,62,69,53,26,0.0,2-1,other
74113,64,57,51,129,3.0,2-1,other
74114,67,86,36,70,3.0,2-1,other
74115,60,76,86,198,9.0,2-3,minor
74116,59,41,17,93,9.0,2-3,minor
74117,60,74,174,39,9.0,2-3,minor
74118,48,74,34,78,9.0,2-3,minor
74119,51,79,82,64,9.0,2-3,minor
74120,50,90,94,87,9.0,2-3,minor
74121,38,88,7,97,9.0,2-3,minor
74122,74,57,38,1288,4.0,4-27A,diminished
74123,74,77,30,87,4.0,4-27A,diminished
74124,41,66,348,348,0.0,3-11A,minor
74125,41,105,215,871,2.0,4-29A,minor
74126,51,89,107,144,2.0,4-29A,minor
74127,65,59,16,61,2.0,4-29A,minor
74128,67,76,30,45,2.0,4-29A,minor
74129,69,100,38,46,2.0,4-29A,minor
74130,69,76,43,100,5.0,4-14B,major
74131,70,79,23,41,5.0,4-14B,major
74132,74,82,24,50,5.0,4-14B,major
74133,77,85,27,45,5.0,4-14B,major
74134,81,92,28,47,5.0,4-14B,major
74135,81,28,11,105,2.0,3-7A,minor
74136,81,62,27,82,2.0,3-7A,minor
74137,77,51,25,49,2.0,3-7A,minor
74138,72,52,11,143,5.0,3-8B,other
74139,72,64,24,147,5.0,3-8B,other
74140,70,64,32,270,9.0,2-4,major
74141,52,48,31,219,9.0,2-2,other
74142,57,55,32,126,0.0,2-5,other
74143,50,53,60,269,2.0,2-2,other
74144,75,55,700,2688,5.0,1-1,other
74145,83,54,10,94,7.0,2-5,other
74146,91,54,540,72,2.0,2-2,other
74147,95,64,507,33,2.0,2-2,other
74148,51,63,3160,0,,,
74149,66,50,3150,100,,,
74150,77,82,630,150,2.0,1-1,other
74151,76,36,110,110,2.0,1-1,other
74152,77,83,460,690,2.0,1-1,other
74153,77,81,1090,660,2.0,1-1,other
74154,75,61,470,1340,2.0,1-1,other
74155,74,61,950,690,9.0,1-1,other
74156,58,88,470,6310,5.0,2-5,other
74157,58,84,370,580,5.0,2-5,other
74158,58,76,410,490,5.0,2-5,other
74159,58,65,410,550,5.0,2-5,other
74160,58,51,260,550,5.0,2-5,other
74161,65,57,250,1640,0.0,3-7A,minor
74162,65,64,420,510,0.0,3-7A,minor
74163,63,50,270,560,0.0,3-7A,minor
74164,70,68,430,2630,5.0,3-7B,other
74165,70,59,2270,1080,5.0,3-7B,other
74166,56,36,2420,60,10.0,3-12,augmented
74167,58,94,840,2890,10.0,3-12,augmented
74168,58,81,570,940,10.0,3-12,augmented
74169,58,61,410,770,10.0,3-12,augmented
74170,47,35,1100,1220,3.0,2-4,major
74171,67,77,320,600,3.0,2-4,major
74172,66,80,380,1130,0.0,2-5,other
74173,49,54,620,560,5.0,3-8B,other
74174,69,55,300,2950,4.0,2-6,other
74175,70,68,1000,510,4.0,2-6,other
74176,72,66,200,1300,5.0,3-11A,other
74177,55,39,190,30,5.0,3-11A,other
74178,46,36,460,740,8.0,2-3,other
74179,53,49,40,440,8.0,2-3,other
74180,61,49,3520,480,8.0,2-3,other
74181,65,48,3260,440,8.0,2-3,other
74182,69,49,210,420,8.0,2-3,other
74183,70,56,140,250,8.0,2-3,other
74184,72,72,170,220,8.0,2-3,other
74185,73,75,140,180,8.0,2-3,other
74186,77,89,250,240,8.0,2-3,other
74187,80,72,120,230,8.0,2-3,other
74188,82,69,250,480,8.0,2-3,other
74189,84,63,190,330,8.0,2-3,other
74190,85,64,130,240,8.0,2-3,other
74191,89,72,190,250,8.0,2-3,other
74192,94,56,180,260,8.0,2-3,other
74193,96,72,210,230,8.0,2-3,other
74194,97,63,240,280,8.0,2-3,other
74195,99,57,220,300,8.0,2-3,other
74196,65,27,1400,370,1.0,2-6,other
74197,94,57,460,380,1.0,2-6,other
74198,92,57,340,460,1.0,2-6,other
74199,90,57,200,460,1.0,2-6,other
74200,85,59,510,1010,7.0,2-1,other
74201,84,49,350,670,7.0,2-1,other
74202,82,54,850,650,7.0,2-1,other
74203,72,76,290,4850,0.0,2-5,other
74204,50,49,270,1300,4.0,4-14A,minor
74205,64,31,70,800,3.0,3-6,major
74206,55,52,210,650,3.0,3-6,major
74207,75,85,1020,670,3.0,3-6,major
74208,58,85,520,570,3.0,3-6,major
74209,59,82,200,510,3.0,3-6,major
74210,43,64,660,400,3.0,3-6,major
74211,50,63,490,910,8.0,2-3,minor
74212,59,31,340,560,7.0,3-11B,major
74213,59,57,340,470,7.0,3-11B,major
74214,50,33,500,640,8.0,2-3,minor
74215,65,51,620,640,8.0,2-3,minor
74216,55,42,140,820,0.0,2-3,minor
74217,74,75,200,660,0.0,2-3,minor
74218,59,54,1430,680,3.0,3-4A,major
74219,73,1,540,1180,3.0,3-4A,major
74220,73,63,390,740,3.0,3-4A,major
74221,55,54,1160,1050,0.0,2-5,other
74222,65,53,160,1050,3.0,2-5,other
74223,63,61,250,60,3.0,2-5,other
74224,62,66,290,180,3.0,2-5,other
74225,63,82,280,350,3.0,2-5,other
74226,48,54,610,490,3.0,2-5,other
74227,63,66,270,590,3.0,2-5,other
74228,73,61,180,2420,1.0,3-7A,other
74229,54,36,90,320,1.0,3-7A,other
74230,73,60,290,1250,9.0,2-2,other
74231,54,48,930,4390,6.0,3-10,other
74232,55,63,150,760,6.0,3-10,other
74233,56,54,120,120,6.0,3-10,other
74234,57,62,500,150,6.0,3-10,other
74235,60,59,970,520,6.0,3-10,other
74236,69,57,200,940,6.0,3-10,other
74237,70,54,840,620,6.0,3-10,other
74238,43,46,1590,40,6.0,3-10,other
74239,57,69,1330,420,6.0,3-10,other
74240,58,66,450,730,6.0,3-10,other
74241,62,64,230,560,6.0,3-10,other
74242,48,45,1420,620,1.0,3-10,minor
74243,67,63,430,540,1.0,3-10,minor
74244,55,49,1050,30,1.0,3-10,minor
74245,64,34,180,650,1.0,3-7A,other
74246,70,66,160,560,1.0,3-7A,other
74247,41,38,1010,810,0.0,2-3,minor
74248,65,68,330,500,0.0,2-3,minor
74249,65,76,350,560,0.0,2-3,minor
74250,63,26,60,90,0.0,2-3,minor
74251,65,80,210,440,0.0,2-3,minor
74252,44,51,2600,510,0.0,2-3,minor
74253,51,39,170,30,0.0,2-3,minor
74254,70,82,530,80,0.0,2-3,minor
74255,70,76,330,700,8.0,2-3,minor
74256,70,65,800,660,8.0,2-3,minor
74257,68,58,670,850,8.0,2-3,minor
74258,68,50,340,1890,4.0,2-5,other
74259,64,42,580,700,1.0,2-5,other
74260,66,45,260,720,1.0,2-5,other
74261,70,50,490,780,1.0,2-5,other
74262,82,49,280,850,0.0,5-27A,other
74263,70,26,110,30,0.0,5-27A,other
74264,94,55,780,830,0.0,5-27A,other
74265,82,33,880,50,0.0,5-27A,other
74266,70,44,790,1630,0.0,5-27A,other
74267,72,49,180,810,0.0,5-27A,other
74268,70,54,190,170,0.0,5-27A,other
74269,69,63,410,210,0.0,5-27A,other
74270,70,62,490,440,0.0,5-27A,other
74271,51,48,3380,1150,0.0,5-27A,other
74272,66,46,1610,90,0.0,5-27A,other
74273,59,38,190,30,0.0,5-27A,other
74274,69,50,1400,70,0.0,5-27A,other
74275,62,52,1500,50,0.0,5-27A,other
74276,74,54,1450,30,0.0,5-27A,other
74277,77,66,740,30,0.0,5-27A,other
74278,77,66,460,980,0.0,5-27A,other
74279,66,49,1410,750,0.0,5-27A,other
74280,69,55,1280,50,0.0,5-27A,other
74281,74,55,890,60,2.0,2-3,minor
74282,75,63,470,1000,2.0,2-3,minor
74283,67,49,1160,1380,7.0,2-3,minor
74284,57,66,480,630,7.0,2-3,minor
74285,58,69,3180,490,7.0,2-3,minor
74286,62,77,230,440,7.0,2-3,minor
74287,70,88,180,740,7.0,2-5,other
74288,74,80,230,380,7.0,2-5,other
74289,84,120,460,440,7.0,2-5,other
74290,82,87,620,520,7.0,2-5,other
74291,84,37,60,70,7.0,2-5,other
74292,77,67,500,450,7.0,2-5,other
74293,75,56,470,550,7.0,2-5,other
74294,68,20,410,530,5.0,3-7B,other
74295,58,56,150,390,5.0,3-7B,other
74296,53,56,420,460,5.0,3-7B,other
74297,46,57,80,430,5.0,3-7B,other
74298,46,31,490,460,5.0,3-7B,other
74299,63,46,3140,60,5.0,3-11A,other
74300,41,54,290,460,5.0,3-11A,other
74301,34,51,80,460,5.0,3-11A,other
74302,22,77,1430,570,5.0,3-11A,other
74303,60,75,890,1580,5.0,3-11A,other
74304,63,81,630,500,5.0,3-11A,other
74305,67,71,530,560,5.0,3-11A,other
74306,80,47,370,2560,4.0,4-15A,other
74307,86,39,260,1010,4.0,4-29B,other
74308,47,39,700,2080,3.0,2-4,major
74309,60,39,340,760,0.0,2-5,other
74310,66,61,270,340,0.0,2-5,other
74311,61,42,150,1070,8.0,2-6,other
74312,58,41,200,1210,4.0,2-6,other
74313,65,38,180,50,4.0,2-6,other
74314,70,63,520,750,10.0,2-1,other
74315,53,43,500,50,10.0,2-1,other
74316,44,28,870,50,10.0,2-1,other
74317,72,62,180,590,10.0,2-1,other
74318,60,57,220,30,10.0,2-1,other
74319,57,73,800,1030,5.0,3-11B,other
74320,65,51,670,430,1.0,1-1,other
74321,65,63,460,780,1.0,1-1,other
74322,60,80,930,350,1.0,1-1,other
74323,61,75,910,850,5.0,2-4,other
74324,65,48,160,450,5.0,2-4,other
74325,62,62,470,440,5.0,2-4,other
74326,63,54,170,920,5.0,2-4,other
74327,63,25,160,580,3.0,2-4,major
74328,27,57,140,1350,3.0,2-4,major
74329,55,35,80,1900,9.0,3-11B,major
74330,55,58,290,1700,0.0,3-4A,other
74331,60,60,50,680,7.0,3-4A,major
74332,70,46,60,30,7.0,3-4A,major
74333,74,115,230,1910,0.0,3-4A,other
74334,73,81,280,280,0.0,3-4A,other
74335,56,51,1330,850,2.0,2-2,other
74336,68,48,90,1340,0.0,2-5,other
74337,69,68,100,90,0.0,2-5,other
74338,70,94,640,180,0.0,2-5,other
74339,68,76,270,360,0.0,2-5,other
74340,63,61,240,380,7.0,2-2,other
74341,59,54,270,300,7.0,2-2,other
74342,58,43,380,340,7.0,2-2,other
74343,56,50,390,350,7.0,2-2,other
74344,55,44,470,410,7.0,2-2,other
74345,51,61,350,1050,4.0,2-2,other
74346,53,63,290,410,4.0,2-2,other
74347,67,63,410,1310,7.0,2-5,other
74348,74,79,170,430,7.0,2-5,other
74349,74,66,200,1030,3.0,4-19B,augmented
74350,67,51,1140,580,3.0,3-4B,other
74351,72,61,390,1020,3.0,3-4B,other
74352,67,54,480,660,3.0,2-1,other
74353,75,82,320,500,3.0,2-1,other
74354,63,37,130,50,3.0,2-1,other
74355,75,83,2350,540,3.0,2-1,other
74356,45,49,470,40,3.0,2-1,other
74357,57,39,500,530,3.0,2-1,other
74358,60,55,280,680,3.0,2-1,other
74359,63,39,200,660,3.0,2-1,other
74360,55,30,450,880,3.0,3-4B,other
74361,54,48,710,680,3.0,3-4B,other
74362,55,50,540,790,3.0,3-4B,other
74363,72,60,450,900,3.0,3-4B,other
74364,55,36,240,50,3.0,3-4B,other
74365,75,68,390,990,3.0,3-4B,other
74366,75,77,280,550,3.0,2-4,major
74367,75,75,250,550,3.0,2-4,major
74368,63,44,620,30,3.0,2-4,major
74369,75,71,280,520,3.0,2-4,major
74370,75,66,450,580,9.0,2-3,minor
74371,54,39,2160,1450,9.0,3-10,diminished
74372,63,68,650,1700,9.0,3-10,diminished
74373,65,68,340,390,9.0,3-10,diminished
74374,67,56,250,1920,0.0,2-3,minor
74375,68,44,350,40,0.0,2-3,minor
74376,75,68,340,720,0.0,2-3,minor
74377,65,26,300,120,0.0,3-11B,other
74378,60,36,70,780,5.0,3-11A,other
74379,79,63,210,1970,4.0,3-8B,other
74380,79,46,1130,920,4.0,3-8B,other
74381,79,52,370,1660,8.0,2-6,other
74382,79,52,460,1970,8.0,2-6,other
74383,79,43,270,1300,8.0,2-6,other
74384,79,51,370,900,8.0,2-6,other
74385,79,49,250,800,8.0,2-6,other
74386,79,50,200,590,8.0,2-6,other
74387,79,56,330,510,8.0,2-6,other
74388,75,71,190,1969,9.0,5-33,other
74389,75,63,140,300,9.0,5-33,other
74390,75,60,240,270,9.0,5-33,other
74391,77,68,950,850,8.0,5-24A,other
74392,73,57,180,1470,5.0,5-33,augmented
74393,73,49,150,310,5.0,5-33,augmented
74394,73,46,200,310,5.0,5-33,augmented
74395,71,60,320,2110,11.0,2-2,other
74396,75,59,290,2090,10.0,2-4,major
74397,75,57,450,540,5.0,3-11A,other
74398,34,60,210,630,5.0,3-11A,other
74399,56,52,740,790,5.0,3-11A,other
74400,58,58,340,390,5.0,3-11A,other
74401,59,60,200,320,5.0,3-11A,other
74402,62,62,260,260,5.0,3-11A,other
74403,67,48,120,270,5.0,3-11A,other
74404,68,43,240,180,5.0,3-11A,other
74405,70,59,50,250,5.0,3-11A,other
74406,71,56,110,190,5.0,3-11A,other
74407,74,63,140,120,5.0,3-11A,other
74408,79,66,40,140,5.0,3-11A,other
74409,83,41,120,220,5.0,3-11A,other
74410,86,67,120,90,5.0,3-11A,other
74411,91,36,60,160,5.0,3-11A,other
74412,94,39,60,190,5.0,3-11A,other
74413,93,24,80,40,5.0,3-11A,other
74414,95,22,870,30,5.0,3-11A,other
74415,98,46,740,70,5.0,3-11A,other
74416,103,75,510,120,5.0,3-11A,other
74417,62,44,330,1720,3.0,2-5,other
74418,50,45,70,900,7.0,3-7A,minor
74419,63,50,230,600,7.0,3-7A,minor
74420,42,35,140,180,7.0,3-7A,minor
74421,44,49,60,120,7.0,3-7A,minor
74422,63,38,550,1060,0.0,2-5,other
74423,43,47,110,940,10.0,3-11B,major
74424,62,45,140,620,10.0,3-11B,major
74425,65,57,110,310,10.0,2-4,major
74426,70,36,110,350,10.0,2-4,major
74427,72,55,230,280,10.0,2-4,major
74428,52,38,70,330,0.0,2-1,other
74429,76,55,180,290,0.0,2-1,other
74430,78,75,190,300,0.0,2-1,other
74431,52,57,530,320,3.0,2-5,other
74432,84,122,210,280,3.0,2-5,other
74433,82,98,240,300,3.0,2-5,other
74434,63,40,150,310,3.0,2-5,other
74435,56,36,90,70,5.0,3-11A,other
74436,79,51,200,270,5.0,3-11A,other
74437,77,55,120,320,5.0,3-11A,other
74438,63,38,500,360,3.0,2-5,other
74439,60,31,300,60,3.0,2-5,other
74440,72,40,130,260,3.0,2-5,other
74441,73,60,110,310,3.0,2-5,other
74442,74,43,810,220,3.0,2-5,other
74443,63,39,500,200,3.0,2-5,other
74444,57,26,1070,30,3.0,2-5,other
74445,75,77,960,520,1.0,2-5,other
74446,68,42,180,320,1.0,2-5,other
74447,63,38,560,50,1.0,2-5,other
74448,61,24,410,70,1.0,2-5,other
74449,65,66,140,840,5.0,2-4,major
74450,78,37,400,70,0.0,4-20,other
74451,62,41,590,1900,8.0,3-3A,minor
74452,62,41,320,980,7.0,3-2A,minor
74453,48,53,680,1960,3.0,2-4,other
74454,67,92,250,360,3.0,2-4,other
74455,66,79,250,240,3.0,2-4,other
74456,52,59,490,3180,3.0,2-4,major
74457,70,59,170,310,3.0,2-4,major
74458,69,50,180,310,3.0,2-4,major
74459,60,50,490,370,8.0,3-7B,other
74460,60,50,340,960,0.0,2-5,other
74461,65,46,80,670,1.0,1-1,other
74462,72,42,660,970,8.0,2-2,other
74463,73,53,190,700,5.0,3-4A,other
74464,72,54,170,110,5.0,3-4A,other
74465,69,54,80,200,5.0,3-4A,other
74466,57,38,1420,240,0.0,2-1,other
74467,69,48,120,250,0.0,2-1,other
74468,70,48,120,260,0.0,2-1,other
74469,72,50,150,220,0.0,2-1,other
74470,61,35,760,130,0.0,2-1,other
74471,73,49,140,100,0.0,2-1,other
74472,75,47,50,260,0.0,2-1,other
74473,79,59,90,430,0.0,2-1,other
74474,56,43,1350,210,0.0,2-1,other
74475,82,45,50,310,1.0,2-5,other
74476,84,32,70,220,1.0,2-5,other
74477,85,51,60,240,1.0,2-5,other
74478,88,52,100,510,1.0,2-2,other
74479,89,63,100,270,1.0,2-2,other
74480,55,36,120,390,6.0,3-4B,other
74481,87,61,150,530,7.0,2-2,other
74482,79,55,110,50,7.0,2-2,other
74483,55,55,300,290,7.0,2-2,other
74484,45,66,80,350,7.0,2-2,other
74485,71,70,250,2270,0.0,2-5,other
74486,53,72,340,1890,0.0,3-11B,other
74487,54,61,540,350,0.0,3-11B,other
74488,55,62,490,610,0.0,3-11B,other
74489,50,63,1150,760,8.0,2-3,minor
74490,55,40,730,710,8.0,2-3,minor
74491,43,73,650,300,8.0,2-3,minor
74492,56,54,230,610,2.0,2-3,minor
74493,58,43,150,1810,0.0,2-5,other
74494,63,68,140,2500,0.0,3-11A,minor
74495,62,50,550,1390,11.0,3-7B,other
74496,35,41,80,620,11.0,3-7B,other
74497,61,46,380,380,8.0,3-7B,other
74498,34,50,220,550,8.0,3-7B,other
74499,55,47,420,340,8.0,3-7B,other
74500,59,35,330,80,1.0,2-3,minor
74501,33,47,80,530,1.0,2-3,minor
74502,60,44,190,410,3.0,3-4B,other
74503,67,75,150,300,3.0,3-4B,other
74504,72,92,250,280,3.0,3-4B,other
74505,51,33,150,430,0.0,3-4A,other
74506,63,47,150,260,0.0,3-4A,other
74507,65,51,190,310,0.0,3-4A,other
74508,67,34,150,30,0.0,3-4A,other
74509,68,39,200,280,0.0,3-4A,other
74510,69,63,220,280,0.0,3-4A,other
74511,54,60,1000,330,0.0,3-7A,minor
74512,71,85,370,290,0.0,3-7A,minor
74513,72,82,450,310,0.0,3-7A,minor
74514,69,57,310,300,0.0,3-7A,minor
74515,67,42,200,680,7.0,3-11A,minor
74516,43,49,150,710,7.0,3-11A,minor
74517,82,57,160,360,7.0,3-11A,minor
74518,36,48,250,610,0.0,1-1,other
74519,52,38,340,50,0.0,1-1,other
74520,63,52,590,890,3.0,1-1,other
74521,84,57,270,200,4.0,2-6,other
74522,72,39,280,50,4.0,2-6,other
74523,82,57,150,420,4.0,2-6,other
74524,71,39,360,1320,3.0,2-4,major
74525,70,82,490,960,3.0,4-16A,other
74526,77,54,200,960,3.0,3-11A,other
74527,47,57,1290,1000,9.0,4-20,major
74528,54,15,130,590,9.0,4-20,major
74529,54,24,580,350,6.0,4-14A,minor
74530,53,37,890,990,0.0,5-27A,other
74531,62,56,550,910,8.0,3-3A,minor
74532,53,38,310,1030,10.0,2-4,major
74533,58,19,170,580,3.0,2-4,major
74534,51,36,260,890,2.0,2-3,minor
74535,62,31,280,460,7.0,3-7A,minor
74536,34,65,510,3130,10.0,1-1,other
74537,46,68,190,310,10.0,1-1,other
74538,63,54,200,2460,5.0,3-11A,other
74539,34,62,790,390,5.0,3-11A,other
74540,59,25,80,560,0.0,4-22A,other
74541,34,85,770,2260,3.0,4-20,other
74542,34,49,560,1010,0.0,4-27B,major
74543,34,46,560,880,8.0,4-26,other
74544,62,51,420,360,10.0,3-3B,other
74545,34,51,440,580,10.0,3-3B,other
74546,63,49,180,370,7.0,2-3,minor
74547,63,62,170,640,8.0,2-2,other
74548,79,66,650,1010,7.0,2-3,minor
74549,65,57,60,300,7.0,2-3,minor
74550,67,56,180,330,0.0,2-5,other
74551,71,50,100,320,0.0,2-5,other
74552,72,60,420,330,3.0,2-5,other
74553,53,37,190,1010,5.0,3-11A,other
74554,53,28,280,960,10.0,2-1,other
74555,58,45,390,950,2.0,2-5,other
74556,50,46,120,590,2.0,2-5,other
74557,55,38,70,700,3.0,1-1,other
74558,56,31,140,170,3.0,1-1,other
74559,58,44,50,150,3.0,1-1,other
74560,60,58,110,150,3.0,1-1,other
74561,55,38,370,110,3.0,1-1,other
74562,62,81,180,100,3.0,1-1,other
74563,63,67,130,270,3.0,1-1,other
74564,65,63,160,220,3.0,1-1,other
74565,70,68,180,230,3.0,1-1,other
74566,72,68,240,250,8.0,2-2,other
74567,69,47,100,290,8.0,2-2,other
74568,70,58,150,190,8.0,2-2,other
74569,65,39,320,290,0.0,2-1,other
74570,60,21,240,70,0.0,2-1,other
74571,84,72,150,120,0.0,2-1,other
74572,84,73,160,280,0.0,2-1,other
74573,82,67,220,230,0.0,2-1,other
74574,65,17,220,330,9.0,2-4,major
74575,72,50,340,270,9.0,2-4,major
74576,70,56,790,320,9.0,2-4,major
74577,56,46,720,280,9.0,2-4,major
74578,65,40,590,30,9.0,2-4,major
74579,68,57,290,650,9.0,2-4,major
74580,61,49,140,340,9.0,2-4,major
74581,27,55,50,990,7.0,2-2,other
74582,87,83,620,1020,7.0,2-2,other
74583,78,57,460,60,7.0,4-16A,major
74584,85,63,510,920,7.0,4-16A,major
74585,76,48,410,80,5.0,4-24,augmented
74586,84,59,270,850,5.0,4-24,augmented
74587,72,37,310,60,0.0,5-35,minor
74588,52,36,530,930,8.0,2-1,other
74589,72,71,400,230,8.0,2-1,other
74590,53,66,620,650,8.0,2-1,other
74591,51,56,300,1590,0.0,2-5,other
74592,38,66,370,640,2.0,2-2,other
74593,44,78,530,620,2.0,2-2,other
74594,50,61,640,1270,11.0,3-10,diminished
74595,47,63,950,670,8.0,3-10,minor
74596,58,46,70,1010,0.0,3-9,other
74597,72,59,220,1300,3.0,3-4A,major
74598,67,45,380,1600,3.0,2-5,other
74599,60,43,70,1900,3.0,2-4,major
74600,79,102,200,580,3.0,2-4,major
74601,44,54,280,320,3.0,2-4,major
74602,68,49,130,360,7.0,1-1,other
74603,72,66,480,330,7.0,1-1,other
74604,63,46,320,280,7.0,1-1,other
74605,75,46,210,370,0.0,2-4,other
74606,79,66,230,290,0.0,2-4,other
74607,81,46,140,400,7.0,2-3,minor
74608,82,67,300,290,7.0,2-3,minor
74609,55,56,710,640,10.0,1-1,other
74610,75,44,210,30,10.0,1-1,other
74611,46,55,140,570,10.0,1-1,other
74612,69,31,220,1420,6.0,4-28,diminished
74613,63,46,1400,870,0.0,3-4A,other
74614,59,57,1540,1620,7.0,3-2A,minor
74615,46,57,210,880,4.0,2-2,other
74616,46,63,240,400,4.0,2-2,other
74617,46,63,150,540,4.0,2-2,other
74618,37,66,140,690,4.0,2-2,other
74619,37,55,2330,300,4.0,2-2,other
74620,66,63,1200,340,1.0,4-11A,other
74621,49,39,70,870,1.0,4-11A,other
74622,49,57,1390,320,1.0,4-11A,other
74623,37,37,100,1020,11.0,2-5,other
74624,37,61,210,290,11.0,2-5,other
74625,60,37,1150,390,3.0,4-14B,other
74626,46,23,880,240,3.0,4-14B,other
74627,34,61,1330,360,3.0,4-14B,other
74628,46,57,470,960,3.0,4-14B,other
74629,56,57,170,350,3.0,4-14B,other
74630,62,31,70,1960,7.0,3-7A,minor
74631,77,82,410,600,7.0,3-7A,minor
74632,77,66,170,610,10.0,2-4,major
74633,75,45,150,330,10.0,2-4,major
74634,46,30,240,340,7.0,4-26,minor
74635,53,27,270,1930,7.0,3-11A,minor
74636,52,69,180,800,7.0,3-11A,minor
74637,52,37,290,1130,0.0,4-27B,major
74638,61,29,280,30,0.0,4-27B,major
74639,56,66,940,2330,0.0,3-11B,other
74640,53,54,110,940,0.0,3-11A,minor
74641,47,67,1200,990,9.0,3-8B,other
74642,54,46,500,900,5.0,2-4,major
74643,56,29,330,570,0.0,3-11A,minor
74644,46,80,840,350,0.0,3-11A,minor
74645,60,78,500,510,3.0,2-5,other
74646,46,82,830,460,3.0,2-5,other
74647,46,68,680,960,8.0,4-27B,other
74648,46,58,110,960,8.0,3-7A,minor
74649,39,57,1910,550,7.0,3-11A,minor
74650,46,58,520,460,7.0,3-11A,minor
74651,67,56,710,470,7.0,3-11A,minor
74652,47,57,460,460,7.0,2-5,other
74653,57,59,50,3330,3.0,2-4,major
74654,70,62,200,280,3.0,2-4,major
74655,58,50,90,40,3.0,2-4,major
74656,63,22,90,70,3.0,2-4,major
74657,69,58,170,200,3.0,2-4,major
74658,64,49,330,400,7.0,2-3,minor
74659,55,22,110,30,7.0,2-3,minor
74660,72,61,110,1420,7.0,2-3,minor
74661,46,43,310,470,1.0,2-5,other
74662,65,30,330,50,1.0,2-5,other
74663,73,63,430,540,1.0,2-5,other
74664,60,36,440,400,5.0,2-4,other
74665,73,76,260,480,5.0,2-4,other
74666,72,76,220,210,5.0,2-4,other
74667,73,87,550,870,5.0,3-12,augmented
74668,73,81,200,720,5.0,2-4,other
74669,72,72,200,280,5.0,2-4,other
74670,69,47,370,430,1.0,2-6,other
74671,66,22,210,30,1.0,2-6,other
74672,45,42,340,850,9.0,3-11B,major
74673,55,41,110,30,9.0,3-11B,major
74674,69,39,90,380,1.0,2-3,minor
74675,71,52,230,240,1.0,2-3,minor
74676,55,54,100,1200,9.0,3-5A,other
74677,45,41,70,590,1.0,2-5,other
74678,51,39,330,420,0.0,3-4A,other
74679,52,53,280,620,0.0,3-4A,other
74680,54,58,380,950,0.0,4-22B,minor
74681,55,56,470,420,0.0,2-3,minor
74682,54,57,300,560,0.0,2-3,minor
74683,44,56,290,910,5.0,3-7B,other
74684,51,28,260,90,5.0,3-7B,other
74685,49,68,290,900,7.0,3-11B,major
74686,50,65,360,330,7.0,3-11B,major
74687,51,55,220,310,7.0,3-11B,major
74688,52,72,560,330,7.0,3-11B,major
74689,53,74,1760,630,7.0,3-11B,major
74690,55,69,370,350,7.0,3-11B,major
74691,56,70,400,330,7.0,3-11B,major
74692,58,66,240,310,7.0,3-11B,major
74693,59,78,260,310,7.0,3-11B,major
74694,62,72,250,310,7.0,3-11B,major
74695,63,68,230,310,7.0,3-11B,major
74696,67,82,210,320,0.0,2-5,other
74697,70,78,170,310,0.0,2-5,other
74698,71,84,240,270,0.0,2-5,other
74699,74,102,180,320,0.0,2-5,other
74700,67,57,560,2330,0.0,3-2B,minor
74701,70,30,420,50,0.0,3-2B,minor
74702,72,66,320,510,0.0,3-2B,minor
74703,63,22,120,30,0.0,3-2B,minor
74704,55,45,110,40,0.0,3-2B,minor
74705,63,32,150,760,3.0,3-12,augmented
74706,72,51,510,550,8.0,3-7B,other
74707,56,10,80,3580,0.0,2-4,other
74708,58,56,140,80,0.0,2-4,other
74709,59,57,140,80,0.0,2-4,other
74710,63,52,140,1630,0.0,4-18B,minor
74711,48,50,70,1750,7.0,2-2,other
74712,49,53,140,130,7.0,2-2,other
74713,51,46,50,130,7.0,2-2,other
74714,52,66,50,90,7.0,2-2,other
74715,54,57,50,130,7.0,2-2,other
74716,36,41,130,30,7.0,2-2,other
74717,48,22,60,40,7.0,2-2,other
74718,55,66,50,60,7.0,2-2,other
74719,57,40,50,180,7.0,2-2,other
74720,58,45,50,60,7.0,2-2,other
74721,60,66,80,80,7.0,2-2,other
74722,61,36,70,170,7.0,2-2,other
74723,63,54,50,90,7.0,2-2,other
74724,64,63,100,130,7.0,2-2,other
74725,65,63,100,140,4.0,3-5B,other
74726,66,54,50,130,4.0,3-5B,other
74727,67,57,60,110,4.0,3-5B,other
74728,68,44,50,170,4.0,3-5B,other
74729,69,59,40,100,4.0,3-5B,other
74730,70,43,110,120,4.0,3-5B,other
74731,71,49,50,140,4.0,3-5B,other
74732,72,56,230,70,4.0,3-5B,other
74733,63,54,130,120,4.0,3-5B,other
74734,67,78,150,460,8.0,2-3,other
74735,68,59,170,210,8.0,2-3,other
74736,67,49,110,110,8.0,2-3,other
74737,65,54,60,100,8.0,2-3,other
74738,56,32,230,170,0.0,2-3,minor
74739,67,70,170,50,0.0,2-3,minor
74740,68,75,170,240,0.0,2-3,minor
74741,70,68,140,210,0.0,2-3,minor
74742,71,68,180,240,0.0,2-3,minor
74743,73,60,200,240,8.0,2-2,other
74744,75,63,110,260,8.0,2-2,other
74745,77,50,130,210,8.0,2-2,other
74746,78,72,160,240,8.0,2-2,other
74747,56,39,120,280,0.0,3-11B,other
74748,82,67,120,200,0.0,3-11B,other
74749,83,64,130,230,0.0,3-11B,other
74750,85,61,190,210,0.0,3-11B,other
74751,54,68,540,660,4.0,2-5,other
74752,64,44,180,600,9.0,3-4A,major
74753,54,48,460,360,6.0,2-3,minor
74754,66,36,160,1130,8.0,3-2B,other
74755,46,19,440,4180,7.0,4-26,minor
74756,62,54,320,90,7.0,3-7A,minor
74757,63,52,290,440,7.0,2-3,minor
74758,52,58,90,410,7.0,2-3,minor
74759,62,52,350,70,7.0,3-7A,minor
74760,53,48,180,520,3.0,3-3A,major
74761,51,46,50,260,3.0,3-3A,major
74762,63,38,310,170,7.0,3-7A,minor
74763,62,31,340,50,7.0,3-7A,minor
74764,51,48,130,760,10.0,3-12,augmented
74765,47,50,50,1590,10.0,1-1,other
74766,48,37,60,30,10.0,1-1,other
74767,34,66,1730,1850,0.0,4-26,other
74768,46,45,730,30,0.0,4-26,other
74769,63,29,70,80,7.0,2-4,major
74770,60,30,290,980,10.0,4-19B,augmented
74771,34,55,720,840,5.0,3-11B,other
74772,60,49,260,120,4.0,2-3,minor
74773,62,59,980,430,8.0,3-7B,other
74774,34,65,970,420,8.0,3-7B,other
74775,46,67,320,470,8.0,3-7B,other
74776,64,50,410,1010,11.0,2-3,minor
74777,53,26,340,700,11.0,2-3,minor
74778,56,52,100,230,11.0,2-3,minor
74779,48,58,560,1900,11.0,2-3,minor
74780,66,63,190,580,7.0,1-1,other
74781,70,53,400,2510,3.0,2-4,major
74782,58,50,340,40,3.0,2-4,major
74783,58,49,270,650,4.0,2-6,other
74784,69,58,220,530,4.0,2-6,other
74785,70,61,610,380,4.0,2-6,other
74786,60,49,280,990,0.0,2-5,other
74787,61,45,130,670,5.0,2-4,other
74788,84,75,860,960,8.0,2-2,other
74789,60,26,440,340,5.0,2-4,other
74790,82,50,170,630,5.0,2-4,other
74791,85,64,210,970,5.0,2-4,major
74792,84,47,190,350,5.0,2-4,other
74793,85,49,170,240,5.0,2-4,other
74794,84,42,170,120,5.0,2-4,other
74795,81,52,130,210,5.0,2-4,other
74796,82,57,160,220,5.0,2-4,other
74797,84,48,130,240,7.0,2-2,other
74798,85,61,130,220,7.0,2-2,other
74799,87,80,160,230,7.0,2-2,other
74800,85,32,60,30,7.0,2-2,other
74801,88,77,130,210,7.0,2-2,other
74802,66,49,560,90,7.0,2-2,other
74803,61,43,680,30,7.0,2-2,other
74804,55,34,570,30,7.0,2-2,other
74805,82,69,280,200,7.0,2-2,other
74806,79,47,150,320,7.0,2-2,other
74807,81,81,220,270,7.0,2-2,other
74808,55,39,170,120,5.0,2-4,other
74809,84,73,170,160,5.0,2-4,other
74810,79,49,190,320,5.0,2-4,other
74811,74,52,120,300,5.0,2-4,other
74812,75,65,200,340,9.0,2-2,other
74813,79,79,180,240,9.0,2-2,other
74814,77,68,150,240,9.0,2-2,other
74815,44,44,3100,230,9.0,2-2,other
74816,72,49,140,320,3.0,2-4,major
74817,74,82,1210,2730,0.0,2-5,other
74818,55,48,150,40,0.0,2-5,other
74819,50,39,390,960,0.0,2-4,other
74820,67,59,110,3520,11.0,2-6,other
74821,60,38,210,690,3.0,2-1,other
74822,72,63,190,360,3.0,2-1,other
74823,59,63,930,340,3.0,3-4A,major
74824,67,47,230,1840,0.0,2-3,minor
74825,75,94,300,6560,7.0,2-3,minor
74826,59,80,160,460,10.0,2-1,other
74827,72,77,530,80,6.0,4-28,diminished
74828,75,89,350,580,6.0,4-28,diminished
74829,72,31,70,100,6.0,4-28,diminished
74830,54,48,80,310,6.0,4-28,diminished
74831,55,47,100,100,6.0,4-28,diminished
74832,69,69,220,80,6.0,3-10,minor
74833,72,54,180,30,6.0,3-10,minor
74834,77,85,220,570,6.0,3-10,minor
74835,29,84,270,710,6.0,3-10,minor
74836,56,46,620,5580,7.0,3-11A,minor
74837,74,54,640,1830,8.0,2-2,other
74838,74,45,750,970,7.0,4-29A,minor
74839,70,51,910,5310,8.0,3-2A,other
74840,54,42,380,570,3.0,2-4,other
74841,61,39,420,810,3.0,4-20,other
74842,82,64,270,410,3.0,4-20,other
74843,63,42,340,40,3.0,4-20,other
74844,61,45,470,410,3.0,4-20,other
74845,68,24,620,460,6.0,3-7A,other
74846,47,49,590,1000,6.0,3-7A,other
74847,54,41,300,400,6.0,3-7A,other
74848,59,39,60,370,3.0,2-5,other
74849,61,52,400,380,3.0,2-5,other
74850,67,39,1070,4490,1.0,4-23,other
74851,55,47,550,170,0.0,3-2B,minor
74852,46,44,430,610,0.0,3-2B,minor
74853,55,52,330,450,0.0,3-2B,minor
74854,58,41,4710,340,0.0,3-2B,minor
74855,60,59,4350,330,0.0,3-2B,minor
74856,65,48,4030,260,0.0,3-2B,minor
74857,69,30,60,290,0.0,3-2B,minor
74858,70,38,60,120,0.0,3-2B,minor
74859,72,57,150,130,0.0,3-2B,minor
74860,74,61,120,140,0.0,3-2B,minor
74861,75,63,50,130,0.0,3-2B,minor
74862,77,69,170,110,0.0,3-2B,minor
74863,79,75,180,130,0.0,3-2B,minor
74864,81,68,100,120,0.0,3-2B,minor
74865,82,60,50,110,0.0,3-2B,minor
74866,84,67,120,130,0.0,3-2B,minor
74867,86,60,110,150,0.0,3-2B,minor
74868,87,64,40,110,0.0,3-2B,minor
74869,89,57,160,110,0.0,3-2B,minor
74870,91,66,180,150,0.0,3-2B,minor
74871,93,39,60,130,0.0,3-2B,minor
74872,94,45,50,80,0.0,3-2B,minor
74873,96,42,150,140,0.0,3-2B,minor
74874,98,48,130,160,0.0,3-2B,minor
74875,99,56,90,110,0.0,3-2B,minor
74876,100,50,70,110,0.0,3-2B,minor
74877,101,68,800,130,0.0,3-2B,minor
74878,98,63,220,390,0.0,3-2B,minor
74879,98,61,750,390,0.0,3-2B,minor
74880,103,62,3200,440,0.0,3-2B,minor
74881,98,55,2730,500,0.0,3-2B,minor
74882,36,78,359,0,,,
74883,43,83,174,51,,,
74884,76,53,27,378,3.0,4-16A,major
74885,45,80,217,223,7.0,5-27A,major
74886,67,83,29,232,5.0,3-8B,other
74887,68,62,25,38,5.0,3-8B,other
74888,57,90,68,96,2.0,4-26,minor
74889,35,108,23,114,9.0,2-3,minor
74890,54,6,66,464,8.0,2-3,minor
74891,70,75,23,134,7.0,3-7A,minor
74892,54,71,53,550,6.0,5-31B,diminished
74893,52,105,62,180,9.0,4-26,minor
74894,31,79,6,711,4.0,3-11A,minor
74895,69,75,12,116,4.0,4-29A,minor
74896,64,61,53,489,5.0,4-11A,major
74897,36,59,122,71,5.0,4-11A,major
74898,52,60,98,51,5.0,4-11A,major
74899,67,88,32,106,3.0,2-1,other
74900,71,74,43,26,3.0,2-1,other
74901,56,65,103,136,3.0,4-24,augmented
74902,43,73,63,218,9.0,2-3,minor
74903,64,72,6,112,9.0,4-26,minor
74904,70,63,11,274,3.0,5-26A,other
74905,56,56,42,108,2.0,4-26,minor
74906,54,69,24,99,2.0,5-35,minor
74907,53,73,27,28,2.0,5-35,minor
74908,56,44,147,102,4.0,3-11B,major
74909,72,94,20,724,5.0,4-22A,major
74910,69,60,6,125,2.0,3-7B,other
74911,69,59,5,164,0.0,2-3,minor
74912,63,68,18,145,4.0,3-7A,minor
74913,64,80,19,26,4.0,3-7A,minor
74914,67,92,90,30,4.0,3-7A,minor
74915,61,79,42,39,4.0,3-7A,minor
74916,57,80,38,51,4.0,3-7A,minor
74917,58,80,31,35,4.0,3-7A,minor
74918,61,70,22,71,9.0,3-7A,minor
74919,67,73,21,112,1.0,5-31B,diminished
74920,69,74,23,28,1.0,5-31B,diminished
74921,70,85,21,32,1.0,5-31B,diminished
74922,72,90,18,65,0.0,4-16A,major
74923,72,82,17,28,0.0,4-16A,major
74924,72,78,20,27,0.0,4-16A,major
74925,69,74,25,58,6.0,3-10,diminished
74926,65,66,12,59,5.0,1-1,other
74927,64,78,12,68,4.0,5-16A,other
74928,43,68,132,271,0.0,2-4,major
74929,67,78,21,107,2.0,3-9,other
74930,76,98,46,70,2.0,3-9,other
74931,74,84,45,54,2.0,3-9,other
74932,74,70,19,120,4.0,3-8A,major
74933,76,101,37,238,9.0,3-11A,minor
74934,71,45,40,189,3.0,4-16A,major
74935,75,98,46,59,3.0,4-16A,major
74936,74,89,45,121,7.0,3-5B,other
74937,71,69,18,55,7.0,3-5B,other
74938,74,95,49,52,7.0,3-5B,other
74939,73,81,48,138,6.0,3-5B,other
74940,69,57,29,48,6.0,3-5B,other
74941,73,76,50,62,6.0,3-5B,other
74942,72,75,50,126,5.0,3-5B,other
74943,72,73,21,110,2.0,4-27B,major
74944,53,58,78,127,7.0,2-4,major
74945,64,58,36,104,3.0,2-4,other
74946,48,65,13,496,4.0,3-7A,minor
74947,42,84,23,59,4.0,3-7A,minor
74948,75,92,58,360,9.0,3-8B,other
74949,71,68,21,59,9.0,3-8B,other
74950,75,78,28,28,9.0,3-8B,other
74951,71,84,44,152,8.0,3-5B,other
74952,74,93,23,57,8.0,3-5B,other
74953,71,64,8,28,8.0,3-5B,other
74954,73,76,225,36,8.0,3-5B,other
74955,60,78,11,29,8.0,3-5B,other
74956,59,62,16,32,8.0,3-5B,other
74957,58,61,24,30,8.0,3-5B,other
74958,45,62,15,93,5.0,3-12,augmented
74959,69,68,16,176,9.0,4-22B,minor
74960,70,84,29,55,9.0,4-22B,minor
74961,50,51,66,126,4.0,4-29A,minor
74962,43,49,57,239,0.0,2-4,major
74963,50,57,46,60,0.0,2-4,major
74964,52,58,10,51,0.0,2-4,major
74965,56,66,56,369,2.0,3-9,other
74966,57,59,72,298,5.0,4-21,major
74967,40,74,9,122,4.0,2-3,minor
74968,45,79,216,238,7.0,5-27A,major
74969,67,78,41,781,9.0,3-7A,minor
74970,66,76,27,122,8.0,3-7A,minor
74971,48,58,209,361,2.0,5-35,minor
74972,57,50,74,56,2.0,5-35,minor
74973,60,60,26,206,2.0,2-1,other
74974,60,70,92,36,2.0,2-1,other
74975,57,78,42,202,4.0,2-3,minor
74976,58,90,25,35,4.0,2-3,minor
74977,60,84,38,33,4.0,2-3,minor
74978,61,84,26,32,4.0,2-3,minor
74979,63,71,24,29,4.0,2-3,minor
74980,81,71,16,470,2.0,3-8A,major
74981,79,61,120,161,4.0,4-29A,minor
74982,81,53,37,83,4.0,4-29A,minor
74983,43,58,63,102,0.0,1-1,other
74984,52,66,10,109,7.0,3-9,other
74985,60,100,83,305,7.0,1-1,other
74986,64,51,16,314,7.0,4-27B,major
74987,43,53,88,120,1.0,5-32A,other
74988,79,84,44,122,9.0,3-11A,minor
74989,77,63,18,196,1.0,5-24B,other
74990,79,72,14,32,1.0,5-24B,other
74991,83,69,22,89,10.0,2-5,other
74992,84,77,24,30,10.0,2-5,other
74993,86,80,29,34,10.0,2-5,other
74994,79,72,60,68,0.0,2-4,major
74995,69,94,11,1000,5.0,3-11B,major
74996,72,115,25,109,5.0,4-20,major
74997,69,60,37,116,11.0,2-1,other
74998,69,67,32,118,6.0,3-10,other
74999,43,58,32,43,6.0,3-10,other
75000,67,46,33,83,6.0,3-10,other
75001,76,90,23,80,9.0,4-26,minor
75002,77,108,21,39,9.0,4-26,minor
75003,82,88,28,96,6.0,4-9,other
75004,70,73,20,110,5.0,4-16A,other
75005,69,73,33,35,5.0,4-16A,other
75006,69,64,29,83,6.0,3-8B,other
75007,60,41,51,42,6.0,3-8B,other
75008,64,62,29,82,2.0,3-5B,other
75009,60,60,37,124,4.0,3-2A,minor
75010,57,40,25,39,4.0,3-2A,minor
75011,62,52,38,76,5.0,2-5,other
75012,52,55,30,155,0.0,4-24,augmented
75013,67,55,5,606,0.0,4-20,major
75014,80,100,64,83,3.0,5-30B,other
75015,75,77,17,111,3.0,4-19B,other
75016,71,53,24,31,3.0,4-19B,other
75017,70,59,20,27,3.0,4-19B,other
75018,67,55,11,65,9.0,4-22B,minor
75019,76,86,46,27,9.0,4-22B,minor
75020,67,59,15,32,9.0,4-22B,minor
75021,67,50,7,68,0.0,4-20,major
75022,67,46,28,89,5.0,4-29B,other
75023,68,66,23,29,5.0,4-29B,other
75024,67,65,22,28,5.0,4-29B,other
75025,67,65,18,93,7.0,1-1,other
75026,67,58,103,36,7.0,1-1,other
75027,67,48,95,117,0.0,2-4,major
75028,72,71,31,78,0.0,3-11B,major
75029,74,71,31,42,0.0,3-11B,major
75030,82,61,11,800,5.0,3-11B,major
75031,83,57,19,27,5.0,3-11B,major
75032,82,59,11,202,6.0,4-28,diminished
75033,83,54,20,27,6.0,4-28,diminished
75034,82,65,14,92,6.0,3-10,diminished
75035,83,64,22,27,6.0,3-10,diminished
75036,84,91,33,33,6.0,3-10,diminished
75037,79,74,15,63,0.0,4-20,major
75038,67,63,23,123,9.0,4-26,minor
75039,64,72,16,61,8.0,3-7B,other
75040,61,79,71,87,7.0,3-9,other
75041,38,77,10,252,2.0,2-5,other
75042,67,50,27,243,4.0,5-24A,minor
75043,43,67,29,240,0.0,2-4,major
75044,36,69,40,115,2.0,2-3,minor
75045,39,56,43,126,6.0,2-3,other
75046,69,57,95,120,4.0,2-3,minor
75047,76,95,75,115,6.0,3-8B,other
75048,72,56,15,85,6.0,2-2,other
75049,76,79,15,36,6.0,2-2,other
75050,66,56,7,206,9.0,2-6,other
75051,71,58,12,26,9.0,2-6,other
75052,73,73,14,27,9.0,2-6,other
75053,62,71,35,145,4.0,5-31B,major
75054,58,82,75,44,4.0,5-31B,major
75055,45,85,61,152,9.0,3-8A,major
75056,81,56,25,248,2.0,1-1,other
75057,82,79,16,203,3.0,3-8B,other
75058,80,80,17,37,3.0,3-8B,other
75059,69,49,22,118,11.0,2-1,other
75060,64,52,32,84,0.0,4-19B,other
75061,74,77,14,395,8.0,4-28,diminished
75062,76,115,98,116,9.0,4-26,minor
75063,71,70,100,242,11.0,3-7A,minor
75064,68,105,89,241,4.0,3-8A,major
75065,67,60,23,90,7.0,3-5B,other
75066,68,81,23,30,7.0,3-5B,other
75067,69,81,36,123,6.0,4-29A,minor
75068,69,57,21,81,7.0,3-2B,minor
75069,57,72,65,130,2.0,2-2,other
75070,50,51,36,146,6.0,3-10,diminished
75071,67,71,48,473,9.0,4-26,minor
75072,71,70,175,101,3.0,4-16A,other
75073,79,17,29,127,3.0,2-4,other
75074,76,82,16,259,0.0,4-20,major
75075,76,51,31,117,3.0,4-16A,major
75076,52,78,191,839,5.0,3-11B,major
75077,60,64,25,363,9.0,3-7A,minor
75078,50,38,29,126,8.0,3-7A,minor
75079,49,43,24,117,7.0,3-7A,minor
75080,81,55,18,200,5.0,3-11B,major
75081,72,43,11,154,5.0,4-20,major
75082,81,26,21,90,6.0,3-10,other
75083,51,62,14,149,6.0,4-28,diminished
75084,51,80,65,438,1.0,6-45,other
75085,39,80,29,37,1.0,6-45,other
75086,69,66,18,454,3.0,4-24,augmented
75087,72,104,121,33,3.0,4-24,augmented
75088,43,67,106,120,7.0,2-1,other
75089,43,53,65,125,3.0,4-27A,other
75090,66,47,13,199,7.0,2-4,major
75091,56,47,28,666,9.0,4-26,minor
75092,31,69,16,242,7.0,2-1,other
75093,43,68,40,82,7.0,2-1,other
75094,36,63,101,48,7.0,2-1,other
75095,43,62,55,75,7.0,2-1,other
75096,52,87,49,42,7.0,2-1,other
75097,69,117,28,77,7.0,2-1,other
75098,58,53,12,605,7.0,3-7A,minor
75099,72,82,11,127,0.0,3-8A,major
75100,72,84,29,101,5.0,2-5,other
75101,75,61,10,212,6.0,3-10,other
75102,77,95,28,27,6.0,3-10,other
75103,76,59,21,35,6.0,3-10,other
75104,72,72,13,63,0.0,2-3,minor
75105,67,98,25,150,0.0,3-11B,major
75106,62,84,39,113,4.0,3-8B,other
75107,65,88,27,325,2.0,5-35,minor
75108,64,92,32,40,2.0,5-35,minor
75109,60,58,27,45,2.0,5-35,minor
75110,57,55,32,37,2.0,5-35,minor
75111,44,62,36,43,2.0,5-35,minor
75112,43,69,93,45,2.0,5-35,minor
75113,55,73,18,40,2.0,5-35,minor
75114,60,71,30,40,2.0,5-35,minor
75115,63,59,25,78,2.0,2-3,minor
75116,64,73,25,41,2.0,2-3,minor
75117,46,63,19,126,0.0,3-8A,major
75118,33,66,70,79,11.0,3-8B,other
75119,32,74,71,121,8.0,2-6,other
75120,43,70,61,81,8.0,2-6,other
75121,43,47,23,68,8.0,2-6,other
75122,36,86,20,47,8.0,2-6,other
75123,79,114,34,80,8.0,2-6,other
75124,79,99,13,119,0.0,4-16A,major
75125,82,80,201,88,5.0,5-20B,other
75126,67,88,39,273,9.0,4-22B,minor
75127,60,70,71,117,9.0,2-5,other
75128,44,79,17,123,5.0,3-11B,other
75129,37,86,58,39,5.0,3-11B,other
75130,37,100,30,78,5.0,3-11B,other
75131,36,84,119,47,5.0,3-11B,other
75132,67,72,12,164,4.0,3-11A,minor
75133,76,96,28,35,4.0,3-11A,minor
75134,74,66,63,83,5.0,4-16A,major
75135,43,67,68,490,7.0,4-26,minor
75136,42,74,45,125,9.0,4-18A,major
75137,69,49,22,225,9.0,4-23,minor
75138,57,90,60,85,6.0,4-28,diminished
75139,54,56,31,83,8.0,2-1,other
75140,54,68,40,110,6.0,4-28,diminished
75141,43,73,90,830,5.0,4-22A,major
75142,69,53,25,127,5.0,4-22A,major
75143,56,37,26,80,9.0,4-23,minor
75144,72,107,84,515,6.0,3-7A,minor
75145,69,57,23,94,6.0,3-8B,other
75146,72,84,30,30,6.0,3-8B,other
75147,40,71,27,284,6.0,3-7A,minor
75148,68,114,91,73,6.0,3-7A,minor
75149,67,66,20,91,4.0,3-8A,major
75150,68,91,26,34,4.0,3-8A,major
75151,69,74,32,100,6.0,4-29A,minor
75152,68,67,13,37,6.0,4-29A,minor
75153,72,93,16,113,10.0,2-1,other
75154,69,71,16,65,6.0,3-8B,other
75155,60,62,28,101,6.0,2-6,other
75156,59,65,15,298,7.0,2-4,major
75157,42,55,32,80,4.0,3-11A,minor
75158,31,76,7,85,4.0,3-11A,minor
75159,76,111,29,77,4.0,3-11A,minor
75160,76,92,109,47,4.0,3-11A,minor
75161,64,62,28,118,8.0,2-6,other
75162,68,76,21,39,8.0,2-6,other
75163,74,90,29,37,8.0,2-6,other
75164,47,80,44,399,8.0,4-12B,diminished
75165,40,80,31,121,3.0,2-4,other
75166,54,52,25,676,6.0,4-27A,diminished
75167,43,71,33,164,4.0,4-29A,minor
75168,67,60,17,78,4.0,4-29A,minor
75169,76,90,11,48,4.0,4-29A,minor
75170,36,55,32,71,4.0,4-29A,minor
75171,52,63,39,44,4.0,4-29A,minor
75172,54,89,46,75,4.0,4-29A,minor
75173,59,62,15,254,7.0,3-11B,major
75174,64,117,30,113,0.0,2-4,major
75175,63,56,20,246,3.0,5-26A,other
75176,37,66,10,45,3.0,5-26A,other
75177,43,81,36,467,5.0,5-24B,major
75178,68,70,22,304,11.0,4-23,minor
75179,69,76,12,36,11.0,4-23,minor
75180,70,51,19,188,8.0,4-28,diminished
75181,71,73,11,35,8.0,4-28,diminished
75182,67,74,15,477,9.0,5-16A,other
75183,50,68,33,481,6.0,3-10,minor
75184,72,107,106,359,9.0,3-7B,other
75185,69,66,12,115,1.0,2-2,other
75186,31,72,42,644,7.0,1-1,other
75187,43,95,105,114,7.0,1-1,other
75188,67,87,32,83,7.0,1-1,other
75189,69,72,26,46,7.0,1-1,other
75190,67,53,14,37,7.0,1-1,other
75191,72,92,163,43,7.0,1-1,other
75192,24,66,9,27,7.0,1-1,other
75193,64,48,10,88,7.0,1-1,other
75194,72,66,34,86,4.0,3-10,diminished
75195,67,41,28,26,4.0,3-10,diminished
75196,64,52,15,28,4.0,3-10,diminished
75197,72,50,34,164,2.0,2-3,minor
75198,65,47,35,31,2.0,2-3,minor
75199,62,51,23,29,2.0,2-3,minor
75200,43,62,19,110,0.0,3-11B,major
75201,63,53,16,115,1.0,5-34,other
75202,57,29,248,0,0.0,4-14B,major
75203,64,48,440,932,9.0,4-26,minor
75204,77,83,336,468,9.0,4-26,minor
75205,70,66,96,940,10.0,2-5,other
75206,57,37,884,400,2.0,3-3A,major
75207,66,66,292,616,2.0,3-3A,major
75208,53,78,436,768,10.0,3-11B,major
75209,53,23,92,828,2.0,3-11A,minor
75210,77,28,32,2136,4.0,1-1,other
75211,57,42,200,972,0.0,3-9,other
75212,50,42,608,508,5.0,4-20,major
75213,62,63,180,944,5.0,4-20,major
75214,61,54,148,156,5.0,4-20,major
75215,60,46,100,88,5.0,4-20,major
75216,59,60,96,100,5.0,4-20,major
75217,50,49,60,504,7.0,3-7A,minor
75218,53,52,168,376,7.0,3-7A,minor
75219,41,61,396,4860,5.0,3-11B,major
75220,48,74,248,216,5.0,3-11B,major
75221,72,77,508,2612,2.0,4-18A,major
75222,41,59,88,28,2.0,4-18A,major
75223,70,56,204,400,2.0,4-18A,major
75224,53,42,552,644,10.0,3-4A,major
75225,65,39,204,292,10.0,3-4A,major
75226,62,42,572,320,7.0,3-7A,minor
75227,55,61,204,296,7.0,3-7A,minor
75228,53,56,236,296,7.0,3-7A,minor
75229,51,57,156,336,7.0,3-7A,minor
75230,39,58,328,300,5.0,2-4,other
75231,46,48,900,328,5.0,2-4,other
75232,55,46,564,388,1.0,2-6,other
75233,48,72,468,1036,5.0,4-20,major
75234,79,82,108,732,5.0,2-5,other
75235,59,63,368,1240,2.0,2-5,other
75236,58,62,704,424,2.0,2-5,other
75237,53,48,140,976,7.0,3-7B,other
75238,36,28,476,472,0.0,2-4,major
75239,49,57,232,2628,9.0,3-7A,minor
75240,49,43,140,1316,10.0,3-11B,major
75241,57,33,48,1416,6.0,2-6,other
75242,48,50,96,1320,1.0,3-7B,other
75243,54,57,256,1576,10.0,2-1,other
75244,60,46,40,688,6.0,4-5B,other
75245,64,66,176,2520,9.0,5-16A,other
75246,71,39,396,444,2.0,5-35,minor
75247,49,72,200,1228,9.0,3-11A,minor
75248,60,52,392,268,10.0,4-19A,augmented
75249,50,49,172,404,10.0,4-19A,augmented
75250,60,25,56,304,3.0,3-11A,other
75251,32,55,96,336,3.0,3-11A,other
75252,65,46,316,908,10.0,3-4A,major
75253,64,48,140,1624,1.0,3-10,other
75254,64,33,64,320,9.0,4-23,minor
75255,45,38,172,1020,2.0,4-26,minor
75256,50,63,220,648,5.0,3-4A,major
75257,61,46,48,2688,10.0,2-5,other
75258,67,43,108,416,5.0,4-24,augmented
75259,50,54,892,248,5.0,3-4A,major
75260,57,33,40,904,5.0,2-5,other
75261,49,68,184,360,5.0,2-5,other
75262,50,66,24,288,5.0,2-5,other
75263,38,48,88,424,2.0,2-5,other
75264,51,47,84,660,2.0,3-11A,minor
75265,53,34,236,928,0.0,4-24,augmented
75266,52,1,220,880,9.0,4-25,other
75267,50,47,44,2168,5.0,2-4,major
75268,48,55,108,1364,5.0,2-4,major
75269,35,60,44,2664,2.0,3-11A,minor
75270,55,87,308,1372,10.0,3-11B,major
75271,55,102,228,2784,2.0,2-5,other
75272,45,75,116,1344,2.0,3-11A,minor
75273,57,39,196,1656,2.0,3-11A,minor
75274,62,61,76,3688,8.0,4-28,diminished
75275,52,24,112,76,8.0,4-28,diminished
75276,45,41,484,208,9.0,4-27B,major
75277,45,68,536,632,9.0,4-27B,major
75278,49,45,236,436,9.0,4-27B,major
75279,62,122,220,952,2.0,5-31B,major
75280,61,94,128,184,2.0,5-31B,major
75281,60,96,132,156,2.0,5-31B,major
75282,61,30,36,32,2.0,5-31B,major
75283,59,82,156,124,2.0,5-31B,major
75284,41,45,788,2924,1.0,4-28,diminished
75285,48,43,260,416,1.0,4-28,diminished
75286,38,51,976,892,9.0,4-23,minor
75287,45,48,204,1168,2.0,4-15B,other
75288,43,64,56,248,2.0,4-15B,other
75289,65,48,388,712,10.0,4-16A,major
75290,52,49,296,1396,10.0,3-11B,other
75291,48,38,848,700,5.0,3-11B,major
75292,57,38,56,2012,6.0,3-10,diminished
75293,57,39,344,708,7.0,4-26,minor
75294,44,58,196,1088,10.0,2-1,other
75295,61,63,312,524,1.0,4-27B,other
75296,51,66,384,716,1.0,3-10,other
75297,47,42,356,3176,2.0,5-23B,major
75298,47,46,184,644,7.0,5-17,minor
75299,52,42,432,1412,1.0,3-10,other
75300,45,48,240,436,1.0,3-10,other
75301,57,31,48,976,2.0,4-26,minor
75302,57,92,956,396,2.0,4-26,minor
75303,50,65,248,736,2.0,4-26,minor
75304,62,41,308,268,5.0,2-5,other
75305,51,60,84,376,5.0,2-5,other
75306,64,47,224,268,10.0,4-16A,major
75307,67,56,92,956,10.0,4-16A,major
75308,65,63,88,156,10.0,4-16A,major
75309,45,45,76,1356,1.0,3-10,other
75310,50,122,232,1420,2.0,4-26,minor
75311,48,107,392,268,2.0,4-26,minor
75312,48,83,500,444,2.0,4-26,minor
75313,48,62,160,684,5.0,3-11B,major
75314,62,63,92,2324,2.0,3-11A,minor
75315,49,88,308,1744,5.0,4-20,major
75316,38,71,92,1316,9.0,2-3,minor
75317,38,98,908,5048,2.0,4-26,minor
75318,43,58,1016,944,2.0,4-26,minor
75319,36,56,1152,1424,10.0,4-22A,major
75320,36,50,920,1420,1.0,5-26A,minor
75321,36,68,124,1144,9.0,4-26,minor
75322,36,63,828,284,9.0,4-26,minor
75323,36,47,328,1104,9.0,3-7A,minor
75324,50,50,416,980,7.0,4-26,minor
75325,55,34,156,28,7.0,4-26,minor
75326,84,127,444,2440,2.0,5-27B,minor
75327,72,57,76,456,5.0,2-4,major
75328,85,50,28,472,2.0,4-15B,other
75329,84,68,96,384,2.0,4-15B,other
75330,54,49,132,264,11.0,4-10,minor
75331,43,67,72,632,0.0,1-1,other
75332,56,66,204,444,11.0,4-27A,diminished
75333,57,98,276,3396,7.0,3-9,other
75334,69,29,304,1064,6.0,4-28,diminished
75335,71,25,40,912,10.0,5-27A,major
75336,70,78,116,676,10.0,5-27A,major
75337,69,67,72,176,10.0,5-27A,major
75338,63,22,72,620,4.0,1-1,other
75339,49,78,436,1112,2.0,4-26,minor
75340,38,73,168,848,2.0,4-26,minor
75341,51,77,208,636,5.0,3-4A,major
75342,69,117,132,1160,4.0,2-3,minor
75343,70,66,124,180,4.0,2-3,minor
75344,69,36,80,92,4.0,2-3,minor
75345,67,60,88,104,4.0,3-8B,other
75346,69,84,96,176,4.0,3-8B,other
75347,70,84,96,156,4.0,3-8B,other
75348,72,82,144,156,4.0,3-8B,other
75349,77,71,72,312,5.0,3-8B,other
75350,82,92,100,140,5.0,3-8B,other
75351,84,122,116,168,5.0,3-8B,other
75352,85,87,108,332,9.0,3-8A,major
75353,84,83,92,136,9.0,3-8A,major
75354,84,85,124,164,9.0,3-8A,major
75355,82,75,104,316,10.0,3-4A,major
75356,81,78,84,152,10.0,3-4A,major
75357,81,75,60,168,10.0,3-4A,major
75358,57,44,100,48,10.0,3-4A,major
75359,72,45,40,648,6.0,3-11A,minor
75360,55,63,80,1348,2.0,2-3,minor
75361,64,36,452,1124,9.0,4-12A,major
75362,45,78,532,608,9.0,4-12A,major
75363,49,63,112,172,9.0,4-12A,major
75364,65,31,240,100,1.0,5-31B,other
75365,49,60,220,1048,2.0,4-26,minor
75366,64,59,132,32,2.0,4-26,minor
75367,57,31,36,32,2.0,4-26,minor
75368,46,68,188,584,2.0,4-26,minor
75369,58,38,44,4388,2.0,5-35,minor
75370,52,84,292,3096,2.0,4-26,minor
75371,55,80,240,636,2.0,4-26,minor
75372,45,68,108,616,2.0,4-26,minor
75373,57,70,56,972,11.0,3-7A,minor
75374,74,49,108,1076,5.0,4-16A,major
75375,73,36,96,244,2.0,5-35,minor
75376,28,58,136,2360,4.0,1-1,other
75377,52,47,36,640,4.0,2-4,major
75378,45,36,48,1360,1.0,2-6,other
75379,54,66,568,252,1.0,2-6,other
75380,38,47,1240,36,1.0,2-6,other
75381,45,20,248,1080,2.0,3-8A,major
75382,43,48,636,264,10.0,2-5,other
75383,52,40,340,1368,1.0,4-12A,minor
75384,64,39,176,672,1.0,3-10,minor
75385,60,46,280,2052,10.0,4-24,augmented
75386,60,46,32,456,10.0,4-24,augmented
75387,58,40,120,692,2.0,2-4,major
75388,50,39,52,648,7.0,4-26,minor
75389,43,45,204,740,7.0,4-26,minor
75390,36,41,96,252,7.0,4-26,minor
75391,52,36,144,40,7.0,4-26,minor
75392,58,63,388,916,1.0,3-11A,minor
75393,55,81,156,1388,9.0,4-23,minor
75394,53,69,196,172,9.0,4-23,minor
75395,54,67,440,216,9.0,4-23,minor
75396,38,55,40,1108,2.0,2-4,major
75397,76,107,196,3684,2.0,4-26,minor
75398,76,87,948,260,2.0,4-26,minor
75399,69,60,80,1956,4.0,5-29B,diminished
75400,59,63,164,852,4.0,4-15A,other
75401,61,85,828,228,4.0,4-15A,other
75402,45,78,700,244,4.0,4-15A,other
75403,49,76,212,864,1.0,4-28,diminished
75404,38,80,76,688,2.0,4-26,minor
75405,66,37,496,3136,7.0,3-11A,minor
75406,45,38,796,656,7.0,4-27A,minor
75407,49,59,244,1084,1.0,3-10,minor
75408,50,89,524,712,2.0,4-26,minor
75409,50,89,104,648,2.0,4-26,minor
75410,53,68,488,4464,9.0,3-7A,minor
75411,45,86,276,1108,8.0,3-2A,minor
75412,64,22,344,360,2.0,4-26,minor
75413,73,8,84,2880,8.0,4-27B,minor
75414,60,53,32,1972,5.0,3-11B,major
75415,73,55,944,5340,0.0,4-12A,major
75416,57,31,300,3760,5.0,3-9,other
75417,46,49,784,1604,0.0,3-12,augmented
75418,64,57,156,380,0.0,3-12,augmented
75419,64,56,332,400,0.0,3-12,augmented
75420,62,48,264,380,0.0,3-12,augmented
75421,79,80,44,0,0.0,4-16A,other
75422,31,82,14,57,0.0,4-16A,other
75423,68,100,82,317,1.0,2-6,other
75424,66,96,60,80,1.0,2-6,other
75425,72,76,65,163,0.0,3-7B,other
75426,55,47,21,38,0.0,3-7B,other
75427,67,60,70,38,0.0,3-7B,other
75428,48,57,146,134,5.0,1-1,other
75429,36,65,121,303,7.0,4-26,minor
75430,29,70,10,126,7.0,4-26,minor
75431,64,69,66,395,7.0,1-1,other
75432,50,55,54,145,8.0,5-31B,diminished
75433,55,63,35,61,8.0,5-31B,diminished
75434,67,87,22,285,11.0,4-12A,diminished
75435,67,70,52,961,3.0,5-26A,other
75436,55,30,481,173,5.0,3-9,other
75437,66,69,63,58,5.0,3-9,other
75438,68,81,159,175,7.0,2-5,other
75439,66,74,54,77,7.0,2-5,other
75440,79,102,39,188,0.0,2-4,other
75441,79,82,371,56,0.0,2-4,other
75442,43,63,43,185,11.0,2-3,minor
75443,43,62,10,52,11.0,2-3,minor
75444,80,88,12,186,7.0,4-27A,minor
75445,78,89,15,61,7.0,4-27A,minor
75446,84,91,12,118,0.0,4-27B,major
75447,84,85,10,62,0.0,4-27B,major
75448,61,58,69,299,2.0,4-27A,minor
75449,56,78,71,127,0.0,4-19A,augmented
75450,65,70,59,778,7.0,4-25,major
75451,65,69,33,108,7.0,4-25,major
75452,67,58,24,131,7.0,4-25,major
75453,43,55,7,178,0.0,3-4A,major
75454,78,79,14,107,2.0,5-23B,major
75455,74,56,15,33,2.0,5-23B,major
75456,69,58,11,36,2.0,5-23B,major
75457,69,66,16,55,2.0,5-23B,major
75458,69,51,97,66,2.0,5-23B,major
75459,68,60,62,58,2.0,5-23B,major
75460,44,92,27,544,2.0,4-26,minor
75461,43,81,333,1502,11.0,4-13B,diminished
75462,42,67,10,356,11.0,3-10,diminished
75463,43,79,25,28,11.0,3-10,diminished
75464,44,74,10,35,11.0,3-10,diminished
75465,45,77,75,545,0.0,3-11A,minor
75466,39,60,46,114,3.0,4-16A,major
75467,60,61,48,251,10.0,3-12,augmented
75468,50,54,191,111,7.0,2-4,major
75469,67,71,45,117,7.0,3-11B,major
75470,70,75,44,118,6.0,4-29A,other
75471,70,64,63,62,6.0,4-29A,other
75472,68,66,25,57,6.0,4-29A,other
75473,49,79,63,121,4.0,4-29A,minor
75474,44,66,17,240,1.0,5-34,other
75475,67,66,18,122,3.0,5-30B,other
75476,56,63,163,604,0.0,3-9,other
75477,60,57,127,53,0.0,3-9,other
75478,76,72,36,207,2.0,2-1,other
75479,77,67,24,38,2.0,2-1,other
75480,78,79,34,27,2.0,2-1,other
75481,79,66,23,32,2.0,2-1,other
75482,80,79,26,30,2.0,2-1,other
75483,53,72,135,90,1.0,3-10,other
75484,80,96,77,65,1.0,3-10,other
75485,78,100,47,66,1.0,3-10,other
75486,84,100,53,108,0.0,4-27B,major
75487,78,77,49,123,0.0,3-7B,other
75488,48,64,117,120,5.0,1-1,other
75489,79,90,16,120,0.0,3-4A,other
75490,60,55,11,239,2.0,4-27A,minor
75491,67,92,39,132,2.0,4-27A,minor
75492,67,97,45,52,2.0,4-27A,minor
75493,64,82,27,50,2.0,4-27A,minor
75494,67,84,39,125,7.0,3-8A,major
75495,67,76,51,59,7.0,3-8A,major
75496,68,91,35,53,7.0,3-8A,major
75497,67,73,41,137,0.0,3-11A,minor
75498,69,77,25,106,6.0,4-28,diminished
75499,71,64,16,123,11.0,3-10,diminished
75500,72,80,57,122,0.0,3-11A,minor
75501,32,97,23,67,0.0,3-11A,minor
75502,67,68,44,391,7.0,4-5A,major
75503,61,56,58,146,3.0,3-4A,major
75504,48,58,3,121,0.0,3-11A,minor
75505,75,84,11,113,3.0,5-26A,other
75506,62,1,960,0,,,
75507,50,55,850,16922,5.0,3-4A,major
75508,55,35,560,5150,6.0,4-17,minor
75509,88,64,430,3350,6.0,4-17,minor
75510,84,58,220,140,6.0,4-17,minor
75511,81,58,200,140,6.0,4-17,minor
75512,85,58,1130,230,6.0,4-17,minor
75513,96,75,1220,160,6.0,4-17,minor
75514,69,72,830,4730,2.0,2-5,other
75515,48,48,1010,1720,3.0,4-22A,major
75516,65,67,600,900,3.0,4-22A,major
75517,46,49,1540,2450,0.0,4-19B,other
75518,67,61,610,950,0.0,4-19B,other
75519,61,42,2460,1430,10.0,2-1,other
75520,67,33,1050,80,3.0,2-4,major
75521,52,39,920,1250,4.0,2-6,other
75522,50,51,900,2260,2.0,3-11A,minor
75523,49,60,890,850,1.0,4-28,diminished
75524,56,66,1100,7000,8.0,4-28,diminished
75525,57,55,1340,1280,0.0,4-27B,major
75526,69,68,300,3340,0.0,4-27B,major
75527,70,66,110,380,0.0,4-27B,major
75528,71,62,190,210,0.0,4-27B,major
75529,72,61,180,200,0.0,4-27B,major
75530,73,47,80,180,0.0,4-27B,major
75531,74,65,90,150,0.0,4-27B,major
75532,75,50,230,180,0.0,4-27B,major
75533,76,59,170,250,0.0,4-27B,major
75534,77,72,4150,230,0.0,4-27B,major
75535,56,48,110,690,4.0,2-2,other
75536,62,41,610,760,4.0,2-2,other
75537,64,43,90,700,4.0,2-2,other
75538,65,49,1280,840,4.0,2-2,other
75539,35,48,240,820,4.0,2-2,other
75540,71,54,370,1920,4.0,2-2,other
75541,56,36,2550,1140,0.0,3-11B,major
75542,62,30,2260,40,0.0,3-11B,major
75543,76,61,240,2180,0.0,3-11B,major
75544,77,68,670,1420,0.0,3-11B,major
75545,72,62,1620,70,0.0,3-11B,major
75546,69,63,1650,40,0.0,3-11B,major
75547,55,45,2100,80,0.0,3-11B,major
75548,61,39,2420,30,0.0,3-11B,major
75549,65,44,1330,30,0.0,3-11B,major
75550,77,83,490,770,0.0,3-11B,major
75551,77,79,390,710,0.0,3-11B,major
75552,69,69,230,430,0.0,3-11B,major
75553,76,58,530,570,0.0,3-11B,major
75554,76,77,390,680,2.0,2-2,other
75555,74,29,410,110,2.0,2-2,other
75556,76,77,620,580,2.0,2-2,other
75557,69,65,230,580,2.0,2-2,other
75558,53,42,220,830,11.0,3-8B,other
75559,31,63,180,790,11.0,3-8B,other
75560,64,59,260,2000,11.0,3-8B,other
75561,55,55,1560,2760,2.0,3-7B,other
75562,67,60,1210,1090,2.0,3-7B,other
75563,69,78,400,1050,10.0,2-4,major
75564,70,84,320,480,10.0,2-4,major
75565,71,76,320,390,10.0,2-4,major
75566,72,82,300,410,10.0,2-4,major
75567,73,75,360,420,10.0,2-4,major
75568,75,76,290,440,10.0,2-4,major
75569,41,48,750,510,10.0,2-4,major
75570,74,61,2450,30,10.0,2-4,major
75571,57,38,580,50,10.0,2-4,major
75572,48,48,110,660,10.0,2-4,major
75573,62,48,1960,880,3.0,2-4,major
75574,69,67,610,2280,3.0,2-4,major
75575,56,50,750,1640,10.0,2-4,major
75576,65,46,1130,800,7.0,3-11A,minor
75577,67,61,950,980,7.0,3-11A,minor
75578,53,48,1410,30,7.0,3-11A,minor
75579,52,45,600,1670,10.0,4-19B,augmented
75580,69,63,330,1170,10.0,4-19B,augmented
75581,55,35,1730,1560,4.0,2-2,other
75582,62,42,810,1720,10.0,3-3B,other
75583,69,45,950,7540,9.0,2-2,other
75584,68,13,980,40,9.0,2-2,other
75585,52,39,530,1220,1.0,2-3,other
75586,44,84,530,4460,2.0,4-26,minor
75587,62,55,1240,2320,7.0,2-1,other
75588,56,55,250,1220,10.0,2-5,other
75589,61,49,750,950,10.0,2-5,other
75590,52,38,450,1050,1.0,3-10,diminished
75591,45,72,620,2300,2.0,2-5,other
75592,52,82,570,590,2.0,2-5,other
75593,53,82,1870,600,2.0,2-5,other
75594,57,81,420,580,2.0,2-5,other
75595,63,28,340,130,2.0,2-5,other
75596,60,79,550,430,2.0,2-5,other
75597,62,58,230,4460,0.0,2-4,major
75598,53,47,440,40,0.0,2-4,major
75599,76,74,530,4710,2.0,4-14A,minor
75600,62,45,1060,70,2.0,4-14A,minor
75601,61,49,560,1000,5.0,2-4,major
75602,61,55,1360,800,5.0,2-4,major
75603,79,63,280,750,5.0,2-4,major
75604,74,60,1260,820,0.0,2-4,other
75605,60,52,850,930,0.0,2-4,other
75606,77,57,280,950,9.0,1-1,other
75607,79,63,290,750,0.0,2-1,other
75608,84,75,220,600,0.0,2-1,other
75609,89,74,600,1380,0.0,2-1,other
75610,47,51,750,30,0.0,2-1,other
75611,57,52,110,790,0.0,2-1,other
75612,77,58,950,870,0.0,2-1,other
75613,71,48,490,1390,2.0,2-5,other
75614,65,47,130,60,2.0,2-5,other
75615,67,59,760,5880,8.0,2-6,other
75616,56,38,240,1360,8.0,2-6,other
75617,45,39,320,1320,5.0,2-5,other
75618,60,58,810,950,5.0,2-5,other
75619,61,68,3070,790,5.0,2-5,other
75620,64,77,2180,810,5.0,2-5,other
75621,65,75,570,980,5.0,2-5,other
75622,67,81,460,670,5.0,2-5,other
75623,69,82,390,550,5.0,2-5,other
75624,73,13,120,280,5.0,2-5,other
75625,72,82,360,320,5.0,2-5,other
75626,76,78,5310,640,5.0,2-5,other
75627,50,45,1490,60,5.0,2-5,other
75628,68,57,1770,600,5.0,2-5,other
75629,60,31,580,170,5.0,2-5,other
75630,57,45,210,710,5.0,2-5,other
75631,66,43,1450,780,5.0,2-5,other
75632,64,48,940,40,5.0,2-5,other
75633,69,36,1090,140,5.0,2-5,other
75634,63,45,800,670,5.0,2-5,other
75635,62,39,790,860,10.0,2-4,other
75636,61,40,830,790,10.0,2-4,other
75637,60,38,840,920,6.0,2-3,minor
75638,69,48,1080,860,5.0,2-5,other
75639,59,45,70,30,5.0,2-5,other
75640,31,36,120,880,5.0,2-5,other
75641,64,81,400,1920,4.0,4-18A,major
75642,64,84,400,840,4.0,4-18A,major
75643,71,67,540,900,4.0,3-3A,major
75644,53,39,1120,3290,7.0,3-11B,major
75645,58,32,760,3070,7.0,2-5,other
75646,48,39,830,40,7.0,2-5,other
75647,55,52,200,840,7.0,2-5,other
75648,58,54,1620,930,7.0,2-5,other
75649,56,51,590,2770,7.0,2-5,other
75650,60,53,180,660,7.0,2-5,other
75651,62,57,230,280,7.0,2-5,other
75652,64,58,140,230,7.0,2-5,other
75653,68,63,170,140,7.0,2-5,other
75654,72,57,180,270,7.0,2-5,other
75655,74,61,160,180,7.0,2-5,other
75656,76,52,60,190,7.0,2-5,other
75657,80,52,70,170,7.0,2-5,other
75658,84,42,190,180,7.0,2-5,other
75659,86,56,160,200,7.0,2-5,other
75660,88,50,70,150,7.0,2-5,other
75661,96,40,190,390,7.0,2-5,other
75662,98,65,280,170,7.0,2-5,other
75663,100,54,300,230,7.0,2-5,other
75664,67,45,560,2610,7.0,2-5,other
75665,41,39,1330,1350,7.0,2-5,other
75666,57,43,1160,280,0.0,2-1,other
75667,67,48,3500,60,0.0,2-1,other
75668,63,54,3560,140,0.0,2-1,other
75669,59,56,660,2440,0.0,2-1,other
75670,60,63,540,690,0.0,2-1,other
75671,55,49,160,2800,10.0,3-11B,major
75672,50,42,3740,1040,10.0,3-11B,major
75673,67,54,1010,3110,10.0,3-11B,major
75674,94,77,310,4010,8.0,4-5A,other
75675,92,80,220,410,8.0,4-5A,other
75676,91,56,100,310,8.0,4-5A,other
75677,87,75,160,320,8.0,4-5A,other
75678,86,61,60,260,8.0,4-5A,other
75679,82,62,160,300,8.0,4-5A,other
75680,80,56,70,200,8.0,4-5A,other
75681,70,52,130,960,3.0,2-4,major
75682,68,52,120,210,3.0,2-4,major
75683,65,50,130,220,3.0,2-4,major
75684,63,31,100,290,3.0,2-4,major
75685,62,54,90,170,3.0,2-4,major
75686,61,33,90,280,3.0,2-4,major
75687,60,42,90,120,3.0,2-4,major
75688,59,48,100,180,3.0,2-4,major
75689,46,22,150,130,3.0,2-4,major
75690,58,56,170,80,3.0,2-4,major
75691,57,53,100,230,3.0,2-4,major
75692,55,60,110,170,3.0,2-4,major
75693,45,42,1270,210,3.0,2-4,major
75694,57,57,270,50,3.0,2-4,major
75695,58,58,240,290,3.0,2-4,major
75696,57,49,110,180,3.0,2-4,major
75697,55,51,930,130,3.0,2-4,major
75698,58,57,70,350,3.0,2-4,major
75699,60,63,70,180,3.0,2-4,major
75700,63,48,80,290,3.0,2-4,major
75701,64,60,70,180,3.0,2-4,major
75702,66,48,70,190,3.0,2-4,major
75703,67,45,110,180,3.0,2-4,major
75704,69,15,90,160,3.0,2-4,major
75705,70,60,70,120,3.0,2-4,major
75706,72,63,70,210,3.0,2-4,major
75707,73,49,70,160,3.0,2-4,major
75708,75,49,70,150,3.0,2-4,major
75709,61,34,3020,100,3.0,2-4,major
75710,76,51,100,70,4.0,2-3,minor
75711,78,28,80,250,4.0,2-3,minor
75712,81,26,170,310,4.0,2-3,minor
75713,82,56,70,180,4.0,2-3,minor
75714,84,58,90,200,4.0,2-3,minor
75715,85,45,90,180,4.0,2-3,minor
75716,87,48,160,140,4.0,2-3,minor
75717,88,57,190,170,4.0,2-3,minor
75718,91,78,220,220,4.0,2-3,minor
75719,89,69,1610,340,4.0,2-3,minor
75720,88,62,360,1520,4.0,2-3,minor
75721,86,57,310,460,4.0,2-3,minor
75722,85,63,190,330,4.0,2-3,minor
75723,86,66,210,370,4.0,2-3,minor
75724,87,65,160,280,4.0,2-3,minor
75725,88,57,200,250,4.0,2-3,minor
75726,89,54,170,220,4.0,2-3,minor
75727,90,60,90,190,4.0,2-3,minor
75728,92,45,240,410,4.0,2-3,minor
75729,93,68,210,260,4.0,2-3,minor
75730,38,47,330,130,4.0,2-3,minor
75731,53,29,470,90,4.0,2-3,minor
75732,60,40,390,1220,4.0,2-3,minor
75733,65,46,70,980,9.0,3-11A,minor
75734,56,48,470,2990,5.0,3-8A,major
75735,55,34,130,2300,1.0,3-7B,other
75736,52,38,1510,270,1.0,3-7B,other
75737,45,36,1430,50,1.0,3-7B,other
75738,57,57,180,310,1.0,3-7B,other
75739,58,52,180,340,1.0,3-7B,other
75740,60,69,180,250,1.0,3-7B,other
75741,61,63,260,280,1.0,3-7B,other
75742,55,43,1010,120,1.0,3-7B,other
75743,63,52,90,170,1.0,3-7B,other
75744,64,50,200,280,1.0,3-7B,other
75745,65,57,190,240,1.0,3-7B,other
75746,66,54,80,240,1.0,3-7B,other
75747,67,58,100,200,1.0,3-7B,other
75748,68,49,80,240,2.0,2-5,other
75749,69,51,100,270,2.0,2-5,other
75750,72,49,190,230,2.0,2-5,other
75751,76,60,150,230,2.0,2-5,other
75752,79,102,370,250,2.0,2-5,other
75753,64,49,270,160,2.0,2-5,other
75754,77,83,290,120,2.0,2-5,other
75755,73,59,160,360,2.0,2-5,other
75756,76,73,250,290,2.0,2-5,other
75757,73,70,170,300,2.0,2-5,other
75758,57,49,390,240,2.0,2-5,other
75759,69,44,160,460,2.0,2-2,other
75760,65,54,370,360,2.0,2-2,other
75761,62,16,480,760,2.0,2-5,other
75762,48,44,120,610,2.0,2-5,other
75763,56,55,990,480,2.0,2-5,other
75764,53,19,190,1010,2.0,2-3,minor
75765,58,45,240,1650,9.0,2-6,other
75766,55,31,140,50,9.0,2-6,other
75767,61,31,120,30,9.0,2-6,other
75768,61,48,90,800,4.0,2-3,minor
75769,69,73,330,1240,1.0,2-6,other
75770,50,54,780,1330,1.0,2-6,other
75771,62,48,130,490,1.0,2-6,other
75772,64,58,200,390,1.0,2-6,other
75773,57,55,1300,460,5.0,2-4,other
75774,49,45,670,1710,5.0,2-4,other
75775,67,56,110,810,5.0,2-4,other
75776,57,31,480,3190,11.0,4-13A,diminished
75777,62,38,110,1290,5.0,3-11B,major
75778,57,38,770,2620,2.0,2-3,minor
75779,71,54,120,850,2.0,2-3,minor
75780,72,56,70,140,2.0,2-3,minor
75781,71,48,240,130,2.0,2-3,minor
75782,70,56,320,210,2.0,2-3,minor
75783,65,33,720,120,2.0,2-3,minor
75784,62,33,630,30,2.0,2-3,minor
75785,57,39,1570,30,2.0,2-3,minor
75786,71,76,200,460,2.0,2-3,minor
75787,72,81,300,340,2.0,2-3,minor
75788,62,42,400,440,2.0,2-3,minor
75789,75,72,250,320,2.0,2-3,minor
75790,77,88,310,410,2.0,2-3,minor
75791,76,60,2510,490,2.0,2-3,minor
75792,67,52,670,1280,4.0,2-2,other
75793,68,56,760,1290,8.0,2-6,other
75794,67,48,510,1320,9.0,2-6,other
75795,56,41,760,30,9.0,2-6,other
75796,62,48,480,40,9.0,2-6,other
75797,72,49,220,1730,1.0,2-6,other
75798,61,39,330,510,5.0,3-11B,major
75799,65,53,230,890,5.0,3-11B,major
75800,55,34,170,150,9.0,3-3B,other
75801,69,57,210,290,9.0,3-3B,other
75802,61,60,450,390,9.0,3-3B,other
75803,55,43,300,100,5.0,3-11B,major
75804,60,52,750,1000,5.0,3-12,augmented
75805,55,46,840,50,5.0,3-12,augmented
75806,64,81,630,2580,9.0,2-3,minor
75807,72,34,1430,1000,2.0,3-6,major
75808,68,39,1430,60,2.0,3-6,major
75809,44,63,260,940,2.0,3-6,major
75810,54,53,240,1910,6.0,4-29A,other
75811,44,50,110,470,6.0,4-29A,other
75812,53,58,250,1420,4.0,3-11A,minor
75813,37,81,330,1220,4.0,3-11A,minor
75814,44,63,270,700,4.0,3-11A,minor
75815,44,31,1040,430,4.0,3-11A,minor
75816,43,48,470,1890,5.0,2-2,other
75817,36,45,230,520,5.0,2-2,other
75818,52,38,420,40,5.0,2-2,other
75819,62,23,410,1410,7.0,2-3,minor
75820,64,19,350,30,7.0,2-3,minor
75821,50,48,330,1260,10.0,3-12,augmented
75822,51,47,250,420,10.0,3-12,augmented
75823,52,48,910,530,4.0,3-10,diminished
75824,74,75,240,1130,4.0,3-10,diminished
75825,72,58,240,300,4.0,3-10,diminished
75826,60,61,390,1690,2.0,2-5,other
75827,48,48,1120,1330,2.0,2-5,other
75828,41,49,210,1270,2.0,2-5,other
75829,57,17,250,170,2.0,2-5,other
75830,69,58,220,690,2.0,2-5,other
75831,55,49,330,1820,10.0,3-11B,major
75832,53,80,1920,1950,7.0,2-5,other
75833,58,42,410,620,7.0,2-5,other
75834,67,81,620,670,7.0,2-5,other
75835,52,81,1300,590,7.0,2-5,other
75836,62,54,880,710,10.0,2-1,other
75837,57,96,3520,590,10.0,2-1,other
75838,58,55,530,680,10.0,2-1,other
75839,62,57,420,30,10.0,2-1,other
75840,45,86,2910,1330,10.0,2-4,major
75841,58,45,440,630,10.0,2-4,major
75842,62,48,300,30,10.0,2-4,major
75843,58,56,350,640,10.0,2-4,major
75844,62,54,240,30,10.0,2-4,major
75845,55,73,3900,620,1.0,3-7B,other
75846,69,1,1030,520,1.0,3-7B,other
75847,63,48,1650,120,1.0,2-3,other
75848,45,92,1620,570,1.0,2-3,other
75849,57,41,340,1340,1.0,2-2,other
75850,45,107,760,610,1.0,2-2,other
75851,63,61,370,1300,9.0,3-8A,major
75852,38,76,980,560,9.0,3-8A,major
75853,53,79,1140,30,9.0,3-8A,major
75854,65,57,70,1330,9.0,3-11A,minor
75855,74,37,90,700,5.0,4-20,major
75856,65,67,390,590,9.0,3-11A,minor
75857,72,39,100,700,2.0,3-11A,minor
75858,65,56,350,550,9.0,4-22B,minor
75859,74,67,160,610,9.0,4-22B,minor
75860,52,41,390,630,7.0,3-11A,minor
75861,84,122,320,1720,8.0,3-5B,other
75862,82,88,400,440,8.0,3-5B,other
75863,77,63,190,810,6.0,3-5B,other
75864,75,79,250,380,6.0,3-5B,other
75865,73,71,260,810,9.0,3-7B,other
75866,72,66,200,330,9.0,3-7B,other
75867,70,68,290,360,9.0,3-7B,other
75868,69,59,260,380,2.0,2-5,other
75869,67,63,240,320,2.0,2-5,other
75870,65,52,260,270,2.0,2-5,other
75871,64,47,170,300,2.0,2-5,other
75872,60,49,250,140,2.0,2-5,other
75873,67,72,330,80,2.0,2-5,other
75874,64,35,110,390,2.0,2-5,other
75875,65,60,520,220,2.0,2-5,other
75876,62,54,240,380,2.0,2-5,other
75877,50,44,1270,260,2.0,2-5,other
75878,57,49,290,40,2.0,2-5,other
75879,66,15,1550,100,2.0,2-5,other
75880,57,49,160,360,2.0,2-5,other
75881,57,60,190,360,2.0,2-5,other
75882,57,60,710,410,2.0,2-5,other
75883,50,54,90,500,2.0,2-5,other
75884,50,48,110,370,2.0,2-5,other
75885,46,54,100,2230,0.0,4-19B,other
75886,55,63,670,510,10.0,3-11B,other
75887,45,48,1690,30,10.0,3-11B,other
75888,69,68,750,780,10.0,3-11B,other
75889,64,49,610,80,1.0,3-10,other
75890,58,69,120,800,1.0,3-10,other
75891,61,49,70,40,1.0,3-10,other
75892,49,67,180,340,4.0,2-3,minor
75893,50,72,1060,470,2.0,3-11A,minor
75894,38,81,230,1110,2.0,3-11A,minor
75895,69,56,60,570,2.0,2-3,minor
75896,69,31,80,910,5.0,3-4B,other
75897,65,13,150,1170,2.0,2-5,other
75898,61,58,750,480,5.0,3-4A,major
75899,57,41,210,2430,9.0,1-1,other
75900,76,36,140,40,9.0,1-1,other
75901,57,40,1550,1760,2.0,2-2,other
75902,48,50,460,1250,2.0,2-2,other
75903,62,31,2900,2560,3.0,2-4,major
75904,57,33,2550,50,3.0,2-4,major
75905,67,40,420,1070,0.0,2-4,major
75906,83,85,390,850,2.0,3-2A,minor
75907,74,55,90,860,3.0,2-4,major
75908,56,58,1620,940,9.0,2-6,other
75909,71,42,80,450,0.0,2-4,major
75910,67,22,100,430,0.0,2-4,major
75911,65,37,190,3060,11.0,3-2B,minor
75912,61,52,430,820,11.0,3-2B,minor
75913,72,56,770,1570,5.0,3-3A,major
75914,75,39,640,60,5.0,3-3A,major
75915,63,57,160,880,6.0,2-3,other
75916,57,39,120,460,6.0,2-3,other
75917,72,60,640,380,6.0,2-3,other
75918,61,56,310,850,1.0,3-3A,minor
75919,64,48,100,830,1.0,2-3,other
75920,52,29,250,60,1.0,2-3,other
75921,49,54,80,290,1.0,2-3,other
75922,38,70,80,1040,2.0,1-1,other
75923,72,57,680,990,0.0,4-24,augmented
75924,71,56,420,1410,2.0,4-27A,minor
75925,50,45,620,30,2.0,4-27A,minor
75926,50,46,420,2160,5.0,4-29A,other
75927,43,59,60,2640,11.0,3-10,diminished
75928,64,54,460,530,9.0,2-5,other
75929,53,39,970,50,9.0,2-5,other
75930,59,31,500,40,9.0,2-5,other
75931,59,43,90,1110,9.0,2-5,other
75932,53,35,230,30,9.0,2-5,other
75933,65,42,90,30,9.0,2-5,other
75934,76,64,270,330,9.0,2-5,other
75935,69,40,210,40,9.0,2-5,other
75936,73,50,90,370,9.0,2-5,other
75937,36,45,230,360,9.0,2-5,other
75938,52,45,250,120,10.0,2-4,major
75939,74,69,240,410,2.0,3-6,major
75940,69,45,240,380,2.0,3-6,major
75941,58,35,100,500,2.0,2-2,other
75942,55,24,100,30,2.0,2-2,other
75943,62,48,120,320,2.0,2-4,major
75944,69,43,190,410,2.0,2-4,major
75945,50,49,220,830,10.0,2-4,major
75946,62,55,620,890,10.0,2-4,other
75947,52,57,430,60,10.0,2-4,other
75948,52,52,290,770,10.0,2-4,other
75949,53,61,360,460,2.0,2-3,minor
75950,41,75,120,440,2.0,2-3,minor
75951,57,81,530,970,3.0,4-19B,augmented
75952,76,65,60,30,3.0,4-19B,augmented
75953,57,64,280,1380,3.0,2-1,other
75954,82,31,120,1850,2.0,5-24A,minor
75955,55,52,140,430,2.0,4-26,minor
75956,58,28,110,60,2.0,4-26,minor
75957,79,74,280,4710,2.0,2-3,minor
75958,69,66,3220,2470,2.0,3-9,other
75959,58,48,3200,290,4.0,2-2,other
75960,57,56,1440,1260,4.0,2-2,other
75961,45,49,2720,1370,4.0,2-2,other
75962,52,38,1120,4150,1.0,3-10,other
75963,64,57,210,890,1.0,2-3,other
75964,67,31,120,70,1.0,2-3,other
75965,55,36,90,340,1.0,2-3,other
75966,68,50,80,90,1.0,2-3,other
75967,69,63,180,400,1.0,2-3,other
75968,76,83,240,400,1.0,2-3,other
75969,74,43,80,60,1.0,2-3,other
75970,38,47,270,210,1.0,2-3,other
75971,53,34,380,120,1.0,2-3,other
75972,60,58,80,2570,2.0,2-3,minor
75973,57,50,80,50,2.0,2-3,minor
75974,50,66,260,830,2.0,2-3,minor
75975,45,37,90,600,2.0,2-3,minor
75976,36,54,140,790,2.0,2-3,minor
75977,22,66,190,510,2.0,2-3,minor
75978,79,78,270,1860,0.0,2-5,other
75979,56,70,840,410,0.0,2-5,other
75980,79,51,180,540,0.0,4-22A,major
75981,81,68,170,1500,1.0,2-6,other
75982,79,67,160,930,5.0,2-4,major
75983,77,81,220,1830,9.0,2-3,minor
75984,62,59,420,50,9.0,2-3,minor
75985,61,57,1030,470,5.0,2-4,major
75986,65,49,500,1420,2.0,3-7B,other
75987,58,43,730,1340,7.0,2-5,other
75988,52,29,1540,60,7.0,2-5,other
75989,70,51,240,460,7.0,2-5,other
75990,69,56,180,140,7.0,2-5,other
75991,67,52,90,180,7.0,2-5,other
75992,69,48,100,250,7.0,2-5,other
75993,72,52,110,420,10.0,2-4,major
75994,73,64,70,240,10.0,2-4,major
75995,75,71,60,300,10.0,2-4,major
75996,76,61,180,270,10.0,2-4,major
75997,78,63,150,350,1.0,2-6,other
75998,84,94,200,380,1.0,2-6,other
75999,82,78,270,330,1.0,2-6,other
76000,73,63,310,330,1.0,2-6,other
76001,72,52,140,380,9.0,2-2,other
76002,79,78,270,290,9.0,2-2,other
76003,77,63,240,320,9.0,2-2,other
76004,76,63,220,280,9.0,2-2,other
76005,73,57,170,360,2.0,2-5,other
76006,76,63,210,340,2.0,2-5,other
76007,74,63,200,300,2.0,2-5,other
76008,69,61,160,340,2.0,2-5,other
76009,65,59,130,660,9.0,2-2,other
76010,67,69,240,320,9.0,2-2,other
76011,69,64,200,340,9.0,2-2,other
76012,65,70,320,880,5.0,3-12,augmented
76013,64,57,320,370,5.0,3-12,augmented
76014,49,40,1160,420,5.0,3-12,augmented
76015,67,56,250,480,5.0,2-4,major
76016,64,60,1240,430,5.0,2-4,major
76017,64,102,590,4280,11.0,2-2,other
76018,66,68,300,910,5.0,2-4,major
76019,67,63,310,440,5.0,2-4,major
76020,68,74,280,460,5.0,2-4,major
76021,69,79,290,420,5.0,2-4,major
76022,70,77,290,440,5.0,2-4,major
76023,71,45,140,470,5.0,2-4,major
76024,74,57,230,370,0.0,2-5,other
76025,74,39,80,550,7.0,3-8A,major
76026,76,55,670,440,7.0,3-8A,major
76027,71,43,540,70,9.0,2-5,other
76028,62,39,120,850,2.0,3-11A,minor
76029,65,48,670,460,2.0,3-11A,minor
76030,56,56,80,890,11.0,2-2,other
76031,52,31,1560,710,4.0,2-4,major
76032,58,54,260,3560,4.0,2-2,other
76033,56,41,180,30,4.0,2-2,other
76034,58,56,230,420,4.0,2-2,other
76035,56,37,110,30,4.0,2-2,other
76036,64,47,110,480,10.0,2-4,major
76037,45,46,1580,1640,1.0,2-2,other
76038,55,46,110,960,1.0,2-2,other
76039,57,52,200,760,1.0,2-2,other
76040,55,52,190,30,1.0,2-2,other
76041,55,45,160,400,1.0,2-2,other
76042,61,31,120,80,1.0,2-2,other
76043,63,58,190,360,9.0,2-4,major
76044,61,52,260,400,9.0,2-4,major
76045,63,48,140,40,9.0,2-4,major
76046,57,47,150,430,9.0,2-4,major
76047,60,30,120,890,2.0,1-1,other
76048,60,43,90,1250,8.0,2-2,other
76049,50,66,190,420,8.0,2-2,other
76050,74,99,1620,470,8.0,2-2,other
76051,62,48,420,600,8.0,2-2,other
76052,66,42,1240,1310,8.0,2-2,other
76053,44,37,350,70,8.0,2-2,other
76054,50,55,320,810,8.0,2-2,other
76055,43,62,220,480,8.0,2-2,other
76056,64,75,360,890,8.0,2-2,other
76057,71,61,90,60,5.0,3-4A,major
76058,63,57,310,350,5.0,3-4A,major
76059,64,65,780,420,5.0,3-4A,major
76060,71,60,580,70,5.0,3-4A,major
76061,62,57,1310,950,5.0,4-19B,augmented
76062,55,32,320,2240,5.0,3-12,augmented
76063,86,107,470,1380,0.0,5-34,major
76064,82,75,260,430,0.0,5-34,major
76065,58,42,100,70,0.0,5-34,major
76066,79,63,120,210,0.0,5-34,major
76067,76,61,150,190,0.0,5-34,major
76068,75,50,100,270,0.0,5-34,major
76069,74,43,70,180,0.0,5-34,major
76070,73,59,70,80,0.0,5-34,major
76071,72,43,160,170,0.0,5-34,major
76072,71,51,150,190,0.0,5-34,major
76073,58,39,250,70,0.0,5-34,major
76074,70,41,90,220,0.0,5-34,major
76075,74,69,190,120,0.0,5-34,major
76076,70,51,120,140,0.0,5-34,major
76077,63,57,180,520,0.0,5-34,major
76078,58,31,110,40,0.0,5-34,major
76079,61,57,150,290,0.0,5-34,major
76080,59,61,70,370,0.0,5-34,major
76081,58,54,70,200,0.0,5-34,major
76082,57,58,160,190,0.0,5-34,major
76083,42,29,380,160,0.0,5-34,major
76084,55,39,170,120,0.0,5-34,major
76085,48,32,190,180,0.0,5-34,major
76086,56,52,200,50,0.0,5-34,major
76087,60,66,200,730,5.0,3-8A,major
76088,62,74,230,360,5.0,3-8A,major
76089,63,74,270,380,5.0,3-8A,major
76090,48,31,1400,220,5.0,3-8A,major
76091,57,29,140,70,5.0,3-8A,major
76092,62,58,290,80,5.0,3-8A,major
76093,59,54,90,380,5.0,3-8A,major
76094,60,57,220,300,5.0,3-8A,major
76095,62,74,270,370,5.0,3-8A,major
76096,57,49,240,120,5.0,3-8A,major
76097,63,57,160,190,5.0,3-8A,major
76098,67,75,190,380,5.0,3-8A,major
76099,70,78,200,330,5.0,3-8A,major
76100,71,122,230,340,5.0,3-8A,major
76101,71,58,190,750,2.0,2-5,other
76102,72,87,300,300,2.0,2-5,other
76103,69,71,280,390,2.0,2-5,other
76104,65,51,350,380,2.0,2-2,other
76105,62,45,100,370,2.0,2-2,other
76106,72,82,270,350,2.0,2-2,other
76107,69,60,200,380,2.0,2-2,other
76108,71,43,200,390,10.0,2-4,major
76109,65,58,520,360,10.0,2-4,major
76110,58,59,700,1050,10.0,2-4,major
76111,62,57,960,40,10.0,2-4,major
76112,55,48,260,1470,5.0,1-1,other
76113,40,32,100,1360,7.0,3-11A,minor
76114,78,63,250,1180,2.0,2-5,other
76115,69,49,170,40,2.0,2-5,other
76116,78,43,230,830,2.0,3-9,other
76117,52,38,710,600,10.0,3-4A,major
76118,52,35,230,1140,10.0,2-1,other
76119,78,64,230,320,10.0,2-1,other
76120,69,56,150,470,10.0,3-4A,major
76121,78,64,200,440,10.0,3-4A,major
76122,58,35,410,550,5.0,4-16A,other
76123,55,58,550,1690,5.0,3-4A,other
76124,55,73,890,930,5.0,3-4A,other
76125,58,31,180,1510,0.0,2-5,other
76126,77,57,60,1400,1.0,2-5,other
76127,38,54,240,410,1.0,2-5,other
76128,73,61,60,70,5.0,3-3B,major
76129,77,50,280,60,5.0,3-3B,major
76130,69,63,170,310,5.0,3-3B,major
76131,81,33,100,200,5.0,3-3B,major
76132,77,54,240,40,5.0,3-3B,major
76133,69,47,280,190,5.0,3-3B,major
76134,81,31,90,250,5.0,3-3B,major
76135,74,58,60,30,5.0,3-3B,major
76136,50,41,670,270,5.0,2-5,other
76137,62,59,200,1230,5.0,3-11B,major
76138,64,63,610,170,5.0,4-7,major
76139,69,50,210,840,2.0,2-3,minor
76140,34,52,80,1340,5.0,3-11B,major
76141,62,56,970,520,0.0,3-4A,other
76142,57,47,260,30,0.0,3-4A,other
76143,56,56,590,1310,0.0,3-4A,other
76144,65,36,370,70,0.0,2-2,other
76145,62,25,320,90,0.0,2-2,other
76146,61,43,300,850,4.0,3-10,diminished
76147,68,85,210,960,9.0,2-5,other
76148,69,82,240,360,9.0,2-5,other
76149,76,50,90,850,7.0,2-5,other
76150,79,120,320,430,7.0,2-5,other
76151,38,47,250,390,7.0,2-5,other
76152,79,36,80,150,5.0,1-1,other
76153,69,48,270,410,5.0,1-1,other
76154,69,13,150,480,5.0,1-1,other
76155,74,57,840,450,9.0,2-3,minor
76156,50,34,460,70,5.0,2-4,major
76157,66,57,960,2830,2.0,2-5,other
76158,47,43,740,40,2.0,2-5,other
76159,45,43,470,4990,5.0,3-8B,other
76160,55,54,260,450,5.0,3-8B,other
76161,61,56,550,70,10.0,2-4,other
76162,38,49,350,1200,2.0,3-11A,minor
76163,53,33,440,90,2.0,3-11A,minor
76164,62,81,1060,910,2.0,3-11A,minor
76165,60,57,1330,2190,2.0,2-3,minor
76166,59,60,300,2170,7.0,2-5,other
76167,56,66,1360,3030,8.0,4-28,diminished
76168,64,70,1010,1380,0.0,2-5,other
76169,55,56,1130,50,0.0,2-5,other
76170,71,41,640,2010,5.0,3-4A,major
76171,77,63,700,880,5.0,3-4A,major
76172,59,52,1210,2020,5.0,2-4,major
76173,71,36,100,1050,5.0,2-4,major
76174,72,43,120,100,5.0,2-4,major
76175,74,44,80,130,5.0,2-4,major
76176,76,45,70,150,5.0,2-4,major
76177,77,46,60,150,5.0,2-4,major
76178,79,41,70,150,5.0,2-4,major
76179,81,48,70,120,5.0,2-4,major
76180,83,39,80,160,5.0,2-4,major
76181,84,45,70,120,5.0,2-4,major
76182,86,48,60,150,5.0,2-4,major
76183,88,51,70,120,5.0,2-4,major
76184,89,58,110,130,5.0,2-4,major
76185,88,83,500,330,4.0,2-2,other
76186,89,63,190,570,4.0,2-2,other
76187,88,60,180,180,4.0,2-2,other
76188,86,57,160,190,4.0,2-2,other
76189,84,55,250,280,4.0,2-2,other
76190,56,39,580,130,4.0,2-2,other
76191,62,35,350,60,4.0,2-2,other
76192,83,46,240,110,4.0,2-2,other
76193,86,66,230,360,4.0,2-2,other
76194,83,56,170,380,4.0,2-2,other
76195,52,20,320,480,8.0,2-6,other
76196,80,52,350,60,8.0,2-6,other
76197,76,61,310,420,8.0,2-6,other
76198,56,56,340,730,8.0,2-6,other
76199,67,41,100,30,8.0,2-6,other
76200,62,42,90,40,8.0,2-6,other
76201,74,63,270,400,8.0,2-6,other
76202,65,30,140,1340,5.0,3-6,major
76203,70,69,260,410,5.0,3-6,major
76204,69,51,550,500,5.0,3-6,major
76205,72,67,370,1380,5.0,3-6,major
76206,58,44,410,540,9.0,2-3,minor
76207,57,54,880,450,10.0,3-11A,other
76208,69,61,240,880,10.0,3-11A,other
76209,57,46,170,470,10.0,3-11A,other
76210,71,49,830,560,0.0,4-24,augmented
76211,54,45,560,30,0.0,4-24,augmented
76212,54,48,1490,2310,11.0,3-2A,minor
76213,69,85,530,3530,1.0,3-10,diminished
76214,64,68,360,30,1.0,3-10,diminished
76215,59,67,500,960,5.0,4-19B,augmented
76216,36,60,480,4930,5.0,4-19B,augmented
76217,43,47,470,130,5.0,4-19B,augmented
76218,58,46,720,3750,10.0,3-11B,major
76219,51,66,710,50,10.0,3-11B,major
76220,42,66,630,1640,0.0,2-4,major
76221,52,63,260,30,0.0,2-4,major
76222,62,83,740,3060,3.0,3-4A,major
76223,69,36,590,50,3.0,3-4A,major
76224,62,62,500,990,3.0,3-4A,major
76225,69,46,340,40,3.0,3-4A,major
76226,53,44,2540,1180,3.0,4-19B,augmented
76227,61,36,590,1080,3.0,2-5,other
76228,67,39,510,40,3.0,2-5,other
76229,67,44,1030,1050,9.0,3-10,diminished
76230,69,58,440,1120,9.0,3-10,diminished
76231,53,43,240,30,9.0,3-10,diminished
76232,56,57,210,2270,9.0,3-10,diminished
76233,70,68,220,860,9.0,4-23,minor
76234,55,52,80,60,5.0,2-5,other
76235,67,61,340,3130,7.0,3-7B,other
76236,69,58,1290,1490,7.0,3-7B,other
76237,66,57,1200,120,7.0,3-7B,other
76238,62,50,980,130,7.0,3-7B,other
76239,40,46,1470,130,7.0,3-7B,other
76240,47,36,430,1130,7.0,2-3,minor
76241,81,70,440,570,7.0,2-3,minor
76242,74,52,1570,30,7.0,2-3,minor
76243,78,68,1290,430,7.0,2-3,minor
76244,58,24,910,180,7.0,2-3,minor
76245,70,67,420,260,7.0,2-3,minor
76246,69,44,480,490,7.0,2-3,minor
76247,74,67,790,550,7.0,2-3,minor
76248,62,30,710,170,7.0,2-3,minor
76249,70,54,360,380,7.0,2-3,minor
76250,52,40,3220,660,2.0,2-5,other
76251,58,39,2370,720,2.0,2-5,other
76252,67,23,640,140,2.0,2-5,other
76253,66,40,150,890,2.0,2-5,other
76254,62,41,880,880,2.0,2-5,other
76255,45,54,210,2060,2.0,2-5,other
76256,61,42,3240,4400,7.0,2-2,other
76257,55,41,3260,60,5.0,3-11B,major
76258,69,90,480,1170,5.0,3-11B,major
76259,69,92,390,700,5.0,3-11B,major
76260,69,99,580,790,5.0,3-11B,major
76261,69,81,470,830,5.0,3-11B,major
76262,69,66,520,810,5.0,3-11B,major
76263,69,61,440,820,5.0,3-11B,major
76264,69,58,350,850,5.0,3-11B,major
76265,69,55,240,820,5.0,3-11B,major
76266,38,40,1070,1550,5.0,4-19B,augmented
76267,53,29,750,70,5.0,4-19B,augmented
76268,45,48,640,790,5.0,4-19B,augmented
76269,53,55,760,730,5.0,4-19B,augmented
76270,57,61,760,700,5.0,4-19B,augmented
76271,64,56,830,1600,1.0,2-1,other
76272,65,57,610,850,1.0,2-1,other
76273,67,39,100,960,1.0,2-1,other
76274,43,26,580,1670,9.0,2-2,other
76275,53,39,14830,1410,9.0,2-2,other
76276,59,43,14200,580,9.0,2-2,other
76277,61,51,280,520,9.0,2-2,other
76278,65,48,290,540,9.0,2-2,other
76279,69,57,330,570,9.0,2-2,other
76280,75,57,400,630,9.0,2-2,other
76281,69,45,240,420,9.0,2-2,other
76282,71,41,250,300,9.0,2-2,other
76283,73,49,260,370,9.0,2-2,other
76284,77,49,240,1120,9.0,2-2,other
76285,79,43,100,410,9.0,2-2,other
76286,83,48,190,420,9.0,2-2,other
76287,85,48,130,420,9.0,2-2,other
76288,88,54,250,470,9.0,2-2,other
76289,91,38,170,670,9.0,2-2,other
76290,93,49,130,530,9.0,2-2,other
76291,95,49,110,500,9.0,2-2,other
76292,97,37,120,510,9.0,2-2,other
76293,103,38,180,920,9.0,2-2,other
76294,68,69,45,0,3.0,4-16A,major
76295,66,60,84,44,3.0,4-16A,major
76296,67,76,78,118,3.0,4-16A,major
76297,68,67,34,80,3.0,4-16A,major
76298,66,48,73,42,3.0,4-16A,major
76299,79,90,19,169,0.0,4-16A,other
76300,78,90,28,35,0.0,4-16A,other
76301,77,76,25,41,0.0,4-16A,other
76302,72,69,25,80,0.0,4-16A,other
76303,68,61,38,76,0.0,4-16A,other
76304,67,45,30,48,0.0,4-16A,other
76305,68,96,84,277,4.0,4-29A,minor
76306,66,59,15,83,4.0,4-29A,minor
76307,67,72,61,42,4.0,4-29A,minor
76308,72,90,35,77,4.0,4-29A,minor
76309,67,65,15,78,4.0,4-29A,minor
76310,65,59,144,51,4.0,4-29A,minor
76311,43,43,10,86,4.0,4-29A,minor
76312,48,47,23,26,4.0,4-29A,minor
76313,63,11,38,185,8.0,2-2,other
76314,51,44,23,52,8.0,2-2,other
76315,49,46,28,117,0.0,4-26,other
76316,67,69,20,441,0.0,5-26A,augmented
76317,64,65,22,35,0.0,5-26A,augmented
76318,65,85,50,39,0.0,5-26A,augmented
76319,37,105,20,201,4.0,4-29A,minor
76320,44,79,14,45,4.0,4-29A,minor
76321,53,72,22,78,4.0,4-29A,minor
76322,59,83,21,1080,3.0,4-24,augmented
76323,51,60,28,487,0.0,2-5,other
76324,43,56,137,230,0.0,4-16A,other
76325,65,65,16,362,8.0,2-1,other
76326,67,73,22,35,8.0,2-1,other
76327,68,70,25,30,8.0,2-1,other
76328,70,79,14,35,8.0,2-1,other
76329,72,77,19,31,8.0,2-1,other
76330,75,60,12,62,1.0,4-12A,minor
76331,76,66,17,34,1.0,4-12A,minor
76332,78,67,20,28,1.0,4-12A,minor
76333,79,79,12,39,1.0,4-12A,minor
76334,80,90,17,34,1.0,4-12A,minor
76335,82,95,24,35,1.0,4-12A,minor
76336,79,95,73,83,2.0,4-27A,minor
76337,77,70,76,80,2.0,4-27A,minor
76338,76,78,32,78,2.0,4-27A,minor
76339,79,102,71,43,2.0,4-27A,minor
76340,77,80,31,79,2.0,4-27A,minor
76341,72,59,31,43,2.0,4-27A,minor
76342,70,68,23,71,2.0,4-27A,minor
76343,67,77,80,163,0.0,3-8B,other
76344,62,47,15,86,0.0,3-8B,other
76345,65,55,75,42,0.0,3-8B,other
76346,31,82,15,186,0.0,3-8B,other
76347,79,95,23,838,6.0,1-1,other
76348,78,77,20,44,6.0,1-1,other
76349,43,72,12,2120,4.0,3-7B,other
76350,54,53,13,83,5.0,5-15,major
76351,44,72,13,312,3.0,2-4,major
76352,83,68,25,330,10.0,5-30B,other
76353,84,102,53,275,3.0,2-4,other
76354,86,100,24,153,6.0,3-8B,other
76355,84,100,25,50,6.0,3-8B,other
76356,64,44,27,34,6.0,3-8B,other
76357,82,99,30,27,6.0,3-8B,other
76358,78,84,25,40,6.0,3-8B,other
76359,75,81,23,80,4.0,3-5B,other
76360,74,78,22,47,4.0,3-5B,other
76361,71,67,51,71,0.0,3-4A,major
76362,74,84,34,60,0.0,3-4A,major
76363,68,79,20,104,6.0,3-5B,other
76364,54,64,29,132,0.0,2-4,other
76365,43,81,35,125,4.0,4-29A,minor
76366,42,98,24,104,4.0,3-11A,minor
76367,41,86,18,47,4.0,3-11A,minor
76368,40,80,20,38,4.0,3-11A,minor
76369,39,73,26,31,4.0,3-11A,minor
76370,36,90,23,181,3.0,3-12,augmented
76371,43,75,44,560,2.0,4-27A,minor
76372,43,58,54,119,0.0,4-16A,other
76373,43,92,26,116,3.0,4-24,augmented
76374,65,70,19,248,8.0,2-1,other
76375,66,75,31,114,7.0,2-5,other
76376,72,92,26,119,0.0,3-11B,major
76377,67,65,69,42,0.0,3-11B,major
76378,60,29,11,88,0.0,3-11B,major
76379,65,68,28,111,5.0,3-11A,other
76380,64,18,65,51,5.0,3-11A,other
76381,65,69,14,77,5.0,3-11A,other
76382,44,91,12,1198,5.0,3-7B,other
76383,79,66,30,558,6.0,2-6,other
76384,75,73,12,168,5.0,2-5,other
76385,75,93,31,112,5.0,2-5,other
76386,72,64,22,39,5.0,2-5,other
76387,70,53,17,40,5.0,2-5,other
76388,67,73,97,194,9.0,4-13B,diminished
76389,72,118,55,487,5.0,4-14A,other
76390,72,80,67,131,3.0,4-16A,other
76391,74,95,35,75,3.0,4-16A,other
76392,75,80,46,56,3.0,4-16A,other
76393,77,91,32,186,7.0,4-27A,minor
76394,70,45,29,166,0.0,3-8A,major
76395,58,31,8,75,0.0,3-8A,major
76396,67,89,19,153,2.0,4-27A,minor
76397,64,64,14,101,8.0,2-3,other
76398,67,93,21,69,8.0,2-3,other
76399,56,39,19,47,8.0,2-3,other
76400,65,95,23,32,8.0,2-3,other
76401,60,73,25,33,8.0,2-3,other
76402,56,51,21,38,8.0,2-3,other
76403,60,77,28,32,8.0,2-3,other
76404,65,75,44,36,8.0,2-3,other
76405,65,89,32,81,5.0,3-11A,other
76406,68,90,33,40,5.0,3-11A,other
76407,68,50,29,77,0.0,3-8B,other
76408,72,66,24,44,0.0,3-8B,other
76409,72,72,11,75,0.0,3-8B,other
76410,76,77,20,44,0.0,3-8B,other
76411,76,81,21,74,0.0,3-8B,other
76412,44,94,122,1180,5.0,5-27A,major
76413,54,101,67,47,5.0,5-27A,major
76414,46,55,34,296,3.0,3-12,augmented
76415,55,43,31,373,9.0,3-10,diminished
76416,68,96,34,361,0.0,4-16A,other
76417,67,80,13,329,1.0,3-10,other
76418,69,87,32,32,1.0,3-10,other
76419,70,80,19,35,1.0,3-10,other
76420,72,78,13,33,1.0,3-10,other
76421,73,71,19,28,1.0,3-10,other
76422,75,76,20,31,1.0,3-10,other
76423,78,49,9,71,0.0,3-8A,major
76424,79,69,18,27,0.0,3-8A,major
76425,85,97,30,68,9.0,3-2A,minor
76426,84,93,28,51,9.0,3-2A,minor
76427,82,79,15,87,8.0,5-31A,diminished
76428,80,84,21,42,8.0,5-31A,diminished
76429,79,71,21,62,8.0,5-31A,diminished
76430,77,80,14,39,8.0,5-31A,diminished
76431,76,76,24,35,8.0,5-31A,diminished
76432,79,91,22,40,8.0,5-31A,diminished
76433,77,74,18,40,8.0,5-31A,diminished
76434,68,66,32,72,0.0,4-19A,augmented
76435,65,57,10,42,0.0,4-19A,augmented
76436,65,83,12,172,0.0,4-16A,other
76437,60,49,19,37,0.0,4-16A,other
76438,51,47,26,425,3.0,4-24,augmented
76439,43,68,16,114,3.0,3-8B,other
76440,51,55,55,162,3.0,3-12,augmented
76441,49,38,32,205,4.0,3-11A,minor
76442,67,53,97,520,4.0,1-1,other
76443,60,46,17,81,4.0,1-1,other
76444,69,72,61,37,4.0,1-1,other
76445,74,61,58,118,0.0,3-11B,major
76446,72,45,20,205,5.0,2-2,other
76447,74,83,67,34,5.0,2-2,other
76448,68,66,11,81,5.0,2-2,other
76449,72,63,64,38,5.0,2-2,other
76450,60,46,19,367,6.0,3-5B,other
76451,64,69,19,154,6.0,2-3,other
76452,65,55,17,79,6.0,4-29A,other
76453,67,83,21,76,10.0,2-4,other
76454,65,58,40,405,6.0,3-8A,other
76455,55,96,49,252,7.0,2-5,other
76456,43,87,40,72,7.0,2-5,other
76457,43,105,45,71,7.0,2-5,other
76458,43,78,17,84,7.0,2-5,other
76459,86,115,31,200,10.0,4-16A,other
76460,85,82,53,44,10.0,4-16A,other
76461,73,72,17,39,10.0,4-16A,other
76462,72,59,25,42,10.0,4-16A,other
76463,84,94,24,39,10.0,4-16A,other
76464,82,68,46,42,10.0,4-16A,other
76465,69,62,21,80,10.0,3-9,other
76466,81,88,21,35,10.0,3-9,other
76467,80,77,48,43,10.0,3-9,other
76468,67,52,21,83,9.0,5-38A,diminished
76469,79,103,26,36,9.0,5-38A,diminished
76470,78,77,53,42,9.0,5-38A,diminished
76471,66,70,13,34,9.0,5-38A,diminished
76472,65,54,24,45,9.0,5-38A,diminished
76473,75,67,52,78,2.0,3-7A,minor
76474,62,55,22,80,0.0,2-3,minor
76475,73,64,10,82,2.0,2-2,other
76476,71,76,25,163,4.0,4-15A,other
76477,42,77,26,460,4.0,4-29A,minor
76478,41,75,20,43,4.0,4-29A,minor
76479,38,64,31,79,4.0,2-1,other
76480,48,64,139,236,0.0,4-26,minor
76481,66,56,33,221,3.0,3-7B,other
76482,49,57,22,354,3.0,4-22A,major
76483,51,60,83,38,3.0,4-22A,major
76484,50,73,44,82,3.0,4-22A,major
76485,43,70,132,43,3.0,4-22A,major
76486,67,34,22,326,7.0,4-27A,minor
76487,82,80,14,467,2.0,4-27A,minor
76488,82,83,16,62,2.0,4-27A,minor
76489,80,88,12,43,2.0,4-27A,minor
76490,77,55,23,103,7.0,4-22B,minor
76491,76,64,22,118,10.0,4-22A,major
76492,79,95,26,164,2.0,4-27A,minor
76493,76,50,90,48,2.0,4-27A,minor
76494,44,84,8,828,0.0,2-3,minor
76495,54,56,13,669,7.0,2-1,other
76496,67,93,57,50,7.0,2-1,other
76497,69,95,37,119,7.0,2-1,other
76498,72,70,25,78,7.0,2-1,other
76499,75,87,77,162,6.0,4-13B,other
76500,74,76,22,1125,2.0,5-6A,other
76501,60,48,24,791,5.0,3-5B,other
76502,62,73,26,81,5.0,2-4,other
76503,64,46,22,81,6.0,2-3,other
76504,65,55,19,79,6.0,4-29A,other
76505,67,82,27,78,10.0,2-4,other
76506,69,63,22,82,9.0,5-38A,diminished
76507,74,82,21,236,6.0,4-15A,other
76508,67,63,24,239,11.0,5-36B,other
76509,53,90,21,171,4.0,2-5,other
76510,43,97,94,326,4.0,5-25B,minor
76511,37,105,42,144,3.0,3-11A,other
76512,36,73,16,362,0.0,4-26,minor
76513,68,71,68,49,0.0,4-26,minor
76514,66,56,33,78,0.0,4-26,minor
76515,68,81,25,121,9.0,4-27A,diminished
76516,66,34,78,47,9.0,4-27A,diminished
76517,65,55,16,200,8.0,2-1,other
76518,67,39,21,79,7.0,2-1,other
76519,65,49,13,26,7.0,2-1,other
76520,67,74,25,26,7.0,2-1,other
76521,68,84,25,30,7.0,2-1,other
76522,67,65,33,26,7.0,2-1,other
76523,67,95,37,396,7.0,4-27A,minor
76524,66,71,28,86,0.0,4-24,augmented
76525,72,61,30,122,0.0,2-5,other
76526,68,77,24,32,0.0,2-5,other
76527,65,81,74,126,2.0,5-29B,minor
76528,41,73,20,120,2.0,5-29B,minor
76529,51,58,49,145,0.0,2-4,other
76530,48,88,35,98,0.0,2-4,other
76531,50,44,18,493,8.0,2-3,other
76532,57,73,120,0,7.0,2-1,other
76533,60,77,132,184,7.0,2-1,other
76534,62,75,196,196,7.0,2-1,other
76535,29,62,300,668,5.0,3-11B,major
76536,40,83,68,476,5.0,3-11B,major
76537,60,38,64,476,10.0,4-19B,other
76538,36,38,48,2876,10.0,4-22A,major
76539,36,50,164,1212,10.0,4-22A,major
76540,29,61,64,244,10.0,4-22A,major
76541,62,42,32,572,9.0,4-16B,major
76542,48,48,308,188,5.0,3-9,other
76543,48,58,472,1068,5.0,4-20,major
76544,69,52,232,280,5.0,3-11B,major
76545,48,49,168,404,5.0,3-11B,major
76546,48,42,108,1364,3.0,5-20B,major
76547,41,48,316,692,5.0,2-4,major
76548,62,44,312,264,6.0,3-10,minor
76549,53,35,68,392,6.0,3-10,minor
76550,52,54,180,720,5.0,4-14B,major
76551,53,21,268,340,5.0,3-11B,major
76552,52,43,204,320,5.0,3-11B,major
76553,62,29,48,264,5.0,3-11B,major
76554,52,48,356,364,9.0,2-3,minor
76555,53,52,36,264,2.0,4-26,minor
76556,53,56,176,388,5.0,3-11B,major
76557,62,40,492,260,8.0,3-10,minor
76558,52,83,456,188,8.0,3-10,minor
76559,74,54,116,856,4.0,4-18A,major
76560,65,40,276,924,8.0,3-10,diminished
76561,48,52,116,1080,5.0,3-11B,major
76562,48,68,68,424,5.0,3-11B,major
76563,45,98,632,884,2.0,2-2,other
76564,60,41,404,308,10.0,2-4,other
76565,42,49,196,400,10.0,2-4,other
76566,24,48,196,1616,0.0,2-4,major
76567,57,44,104,2020,0.0,3-11B,major
76568,69,64,64,188,0.0,3-11B,major
76569,81,81,80,192,0.0,3-11B,major
76570,80,27,156,304,5.0,4-29A,other
76571,37,55,60,1144,5.0,4-29A,other
76572,44,51,28,72,5.0,4-29A,other
76573,67,48,64,116,3.0,5-29B,other
76574,67,46,68,400,3.0,5-29B,other
76575,67,26,44,308,3.0,5-29B,other
76576,58,56,104,1304,0.0,2-1,other
76577,62,24,112,748,5.0,3-11B,major
76578,48,62,248,368,5.0,3-11B,major
76579,62,24,368,312,2.0,4-26,minor
76580,48,60,188,400,2.0,4-26,minor
76581,36,57,160,268,2.0,4-26,minor
76582,48,54,260,408,2.0,4-26,minor
76583,62,5,304,356,2.0,4-26,minor
76584,48,60,248,328,2.0,4-26,minor
76585,62,40,424,276,3.0,4-22A,major
76586,48,78,256,388,3.0,4-22A,major
76587,62,38,52,272,3.0,4-20,major
76588,48,69,24,396,3.0,4-20,major
76589,36,63,96,244,3.0,4-20,major
76590,48,77,72,672,3.0,4-20,major
76591,46,52,940,1728,2.0,3-11A,minor
76592,53,49,240,272,2.0,4-26,minor
76593,52,81,252,372,2.0,4-26,minor
76594,62,34,92,284,5.0,3-11B,major
76595,46,56,124,364,5.0,3-11B,major
76596,88,115,92,688,4.0,3-11B,major
76597,62,63,52,200,4.0,3-11B,major
76598,49,52,128,1680,11.0,2-6,other
76599,55,68,40,1140,5.0,3-9,other
76600,27,52,176,168,5.0,3-9,other
76601,38,43,120,704,2.0,2-4,major
76602,41,51,68,484,3.0,3-11A,other
76603,42,63,104,192,3.0,3-11A,other
76604,38,84,108,672,7.0,4-26,minor
76605,24,85,164,1340,0.0,2-4,major
76606,57,59,72,312,7.0,2-1,other
76607,60,70,96,152,7.0,2-1,other
76608,62,66,92,188,7.0,2-1,other
76609,48,75,204,464,5.0,2-5,other
76610,41,69,380,192,5.0,2-5,other
76611,48,75,60,448,5.0,3-11B,major
76612,36,34,44,260,11.0,1-1,other
76613,41,71,76,1340,8.0,4-22B,other
76614,55,55,24,272,2.0,5-27B,minor
76615,46,38,100,568,2.0,5-27B,minor
76616,60,41,216,144,2.0,3-11A,minor
76617,45,43,628,652,5.0,4-24,augmented
76618,46,48,128,2548,10.0,3-11B,major
76619,53,37,124,52,10.0,3-11B,major
76620,72,38,96,1116,8.0,4-28,diminished
76621,55,120,672,1044,5.0,3-11B,major
76622,42,34,48,1148,2.0,2-4,major
76623,60,61,372,220,3.0,4-22B,other
76624,42,35,48,388,3.0,4-22B,other
76625,67,66,76,3392,2.0,4-27B,major
76626,45,76,292,1256,7.0,4-18A,minor
76627,49,61,212,696,9.0,4-18A,major
76628,49,61,604,928,5.0,4-19B,augmented
76629,45,58,192,1076,2.0,3-11A,minor
76630,43,54,92,476,2.0,3-11A,minor
76631,44,70,188,188,2.0,3-11A,minor
76632,33,81,232,464,9.0,4-26,minor
76633,44,53,124,2212,6.0,5-38A,diminished
76634,52,57,404,268,7.0,4-26,minor
76635,59,58,340,88,7.0,4-26,minor
76636,50,23,92,448,7.0,4-26,minor
76637,43,48,272,152,8.0,2-3,other
76638,50,54,212,424,8.0,2-3,other
76639,43,80,280,684,5.0,3-6,major
76640,43,58,188,692,11.0,3-10,diminished
76641,36,75,652,236,11.0,3-10,diminished
76642,84,81,164,1156,0.0,4-21,major
76643,76,37,200,268,4.0,4-25,other
76644,58,57,76,660,4.0,4-25,other
76645,48,40,36,28,4.0,4-25,other
76646,57,25,184,724,2.0,4-27A,minor
76647,81,22,80,100,2.0,4-27A,minor
76648,62,33,40,336,0.0,2-5,other
76649,55,45,80,888,8.0,4-21,other
76650,81,41,92,44,8.0,4-21,other
76651,81,41,36,676,8.0,2-6,other
76652,79,39,32,348,6.0,3-8B,other
76653,41,49,92,1328,0.0,4-26,minor
76654,62,49,404,1552,5.0,4-14B,major
76655,52,81,220,372,5.0,4-14B,major
76656,62,38,416,276,5.0,3-11B,major
76657,55,81,680,384,5.0,3-11B,major
76658,62,45,448,280,5.0,3-11B,major
76659,54,73,268,396,5.0,3-11B,major
76660,62,35,48,284,5.0,3-11B,major
76661,46,60,156,352,5.0,3-11B,major
76662,62,41,488,300,8.0,3-10,minor
76663,62,57,452,616,8.0,3-10,minor
76664,55,122,708,376,8.0,3-10,minor
76665,62,45,440,300,8.0,3-10,minor
76666,54,73,268,388,8.0,3-10,minor
76667,62,39,32,292,8.0,3-10,minor
76668,47,35,44,372,8.0,3-10,minor
76669,60,54,160,2068,10.0,4-19B,other
76670,63,19,108,52,10.0,4-19B,other
76671,63,54,40,212,10.0,5-30B,other
76672,50,63,28,396,10.0,5-30B,other
76673,37,61,156,1304,7.0,5-35,minor
76674,36,66,720,252,7.0,5-35,minor
76675,62,28,68,764,0.0,2-1,other
76676,65,81,136,120,0.0,2-1,other
76677,67,62,140,200,0.0,2-1,other
76678,48,50,416,640,5.0,3-11B,major
76679,57,55,216,236,5.0,3-11B,major
76680,72,68,64,208,5.0,3-11B,major
76681,76,94,120,204,5.0,3-11B,major
76682,57,41,300,1640,5.0,4-20,major
76683,84,122,108,384,5.0,4-20,major
76684,72,54,180,480,9.0,2-1,other
76685,76,85,160,228,9.0,2-1,other
76686,72,60,148,436,4.0,4-25,other
76687,64,49,340,208,4.0,4-25,other
76688,60,64,164,424,0.0,2-2,other
76689,49,55,136,648,5.0,3-11B,major
76690,49,56,196,460,2.0,4-26,minor
76691,48,62,200,224,2.0,4-26,minor
76692,50,76,240,244,2.0,4-26,minor
76693,60,54,132,256,2.0,4-19A,minor
76694,48,68,148,204,2.0,4-19A,minor
76695,49,73,192,448,2.0,5-27B,minor
76696,48,69,128,212,2.0,5-27B,minor
76697,81,66,84,976,6.0,2-6,other
76698,84,13,48,60,6.0,2-6,other
76699,41,75,788,532,9.0,5-29B,diminished
76700,81,127,492,1980,10.0,4-20,major
76701,60,49,400,272,2.0,2-3,minor
76702,84,88,100,312,10.0,2-1,other
76703,81,66,68,580,7.0,2-1,other
76704,74,59,124,168,7.0,2-1,other
76705,53,52,684,136,7.0,2-1,other
76706,77,67,96,132,3.0,2-1,other
76707,65,74,644,180,3.0,2-1,other
76708,53,79,308,672,8.0,3-10,diminished
76709,68,67,64,28,8.0,3-10,diminished
76710,63,68,168,396,4.0,4-18A,major
76711,60,30,36,880,8.0,4-28,diminished
76712,46,56,164,592,8.0,5-31B,other
76713,53,42,40,708,2.0,3-7B,other
76714,72,81,60,216,2.0,3-7B,other
76715,76,48,28,1292,2.0,2-5,other
76716,50,68,316,388,8.0,2-6,other
76717,69,52,36,60,8.0,2-6,other
76718,74,68,76,296,5.0,3-8B,other
76719,65,56,68,76,5.0,3-8B,other
76720,77,54,52,84,5.0,3-8B,other
76721,65,52,76,64,5.0,3-8B,other
76722,77,45,84,96,5.0,3-8B,other
76723,74,54,28,56,5.0,3-8B,other
76724,55,39,112,592,2.0,2-5,other
76725,75,50,28,184,10.0,3-9,other
76726,52,39,116,476,5.0,2-5,other
76727,72,55,72,1732,5.0,3-8B,other
76728,77,117,92,192,5.0,3-8B,other
76729,82,85,780,456,8.0,2-2,other
76730,77,66,104,768,5.0,3-5B,other
76731,82,82,156,188,5.0,3-5B,other
76732,75,60,164,228,1.0,4-15A,other
76733,53,83,252,448,3.0,3-12,augmented
76734,44,70,80,444,3.0,4-19B,other
76735,37,66,136,220,3.0,4-19B,other
76736,64,36,44,260,0.0,3-2B,other
76737,60,82,268,200,0.0,3-2B,other
76738,61,78,188,204,0.0,3-2B,other
76739,62,63,140,212,0.0,3-2B,other
76740,65,69,68,224,0.0,3-2B,other
76741,73,43,36,244,8.0,2-6,other
76742,65,46,120,204,8.0,2-6,other
76743,41,35,1144,36,8.0,2-6,other
76744,65,70,60,164,8.0,2-6,other
76745,48,57,204,216,8.0,2-6,other
76746,48,48,196,684,10.0,2-5,other
76747,41,51,948,216,8.0,2-3,other
76748,57,57,88,68,8.0,2-3,other
76749,53,83,464,168,8.0,2-3,other
76750,62,78,168,608,0.0,1-1,other
76751,62,50,228,484,5.0,5-33,augmented
76752,90,46,44,4280,5.0,4-8,major
76753,93,57,192,796,5.0,4-11A,other
76754,72,55,28,1972,8.0,4-28,diminished
76755,26,92,216,2376,2.0,2-4,major
76756,60,66,116,224,2.0,2-4,major
76757,61,49,76,48,2.0,2-4,major
76758,62,48,56,92,2.0,2-4,major
76759,65,82,72,104,2.0,2-4,major
76760,67,107,92,180,2.0,2-4,major
76761,65,57,284,252,7.0,5-27B,minor
76762,60,57,172,1572,1.0,2-3,minor
76763,61,61,128,192,1.0,2-3,minor
76764,62,56,112,208,1.0,2-3,minor
76765,65,54,72,200,1.0,2-3,minor
76766,67,67,128,212,1.0,2-3,minor
76767,65,72,1236,204,1.0,2-3,minor
76768,48,48,520,440,9.0,3-2B,minor
76769,47,59,240,628,9.0,3-2B,minor
76770,34,66,288,656,8.0,4-27B,other
76771,42,64,168,656,8.0,4-27B,other
76772,41,62,692,260,8.0,4-27B,other
76773,46,25,48,300,8.0,4-27B,other
76774,47,57,76,48,8.0,4-27B,other
76775,72,88,140,696,11.0,4-27A,diminished
76776,45,49,236,284,7.0,4-27A,minor
76777,45,50,244,400,7.0,4-27A,minor
76778,49,36,72,212,7.0,4-27A,minor
76779,57,10,156,752,10.0,3-11B,major
76780,47,74,884,1260,2.0,2-3,minor
76781,60,66,60,1968,5.0,3-11B,major
76782,55,78,96,212,5.0,3-11B,major
76783,63,39,676,892,10.0,4-16A,other
76784,50,66,72,408,10.0,4-16A,other
76785,44,68,116,216,10.0,4-16A,other
76786,53,79,56,656,7.0,4-26,minor
76787,62,61,108,228,7.0,4-26,minor
76788,69,122,108,440,7.0,4-26,minor
76789,67,42,492,328,4.0,1-1,other
76790,48,79,196,1088,1.0,3-10,minor
76791,49,69,220,680,2.0,4-26,minor
76792,43,41,36,940,9.0,1-1,other
76793,50,78,596,1312,9.0,2-2,other
76794,67,39,44,2396,2.0,4-26,minor
76795,55,82,204,1316,0.0,2-4,major
76796,38,63,248,756,2.0,2-4,major
76797,41,63,104,524,2.0,2-4,major
76798,42,57,252,200,2.0,2-4,major
76799,59,50,140,1388,3.0,3-7B,other
76800,43,92,148,680,7.0,4-27B,major
76801,53,54,120,284,7.0,4-27B,major
76802,62,19,184,28,7.0,4-27B,major
76803,64,47,92,392,7.0,4-27B,major
76804,72,61,84,664,0.0,2-4,major
76805,83,39,36,300,0.0,4-21,major
76806,74,27,52,1112,1.0,4-19A,minor
76807,65,34,36,408,4.0,4-25,other
76808,63,31,172,1144,9.0,4-26,minor
76809,52,82,184,196,9.0,4-26,minor
76810,52,49,152,220,9.0,4-26,minor
76811,49,59,220,672,2.0,3-2B,minor
76812,48,60,72,468,5.0,4-20,major
76813,45,52,164,216,5.0,4-20,major
76814,41,62,1116,240,5.0,4-20,major
76815,48,50,180,408,5.0,4-20,major
76816,60,40,280,264,7.0,3-9,other
76817,48,52,228,404,7.0,3-9,other
76818,62,41,184,344,5.0,4-24,augmented
76819,65,56,520,568,2.0,3-7B,other
76820,45,45,68,428,2.0,3-7B,other
76821,46,63,104,220,2.0,3-7B,other
76822,53,55,184,1048,2.0,4-26,minor
76823,57,74,96,632,10.0,4-20,major
76824,53,3,372,124,10.0,4-20,major
76825,46,38,48,312,2.0,3-11A,minor
76826,46,81,124,200,2.0,3-11A,minor
76827,53,41,100,44,2.0,3-11A,minor
76828,47,71,64,192,2.0,3-11A,minor
76829,62,71,276,1240,8.0,3-10,other
76830,65,74,92,388,8.0,3-10,diminished
76831,82,57,76,152,8.0,3-10,diminished
76832,48,77,128,1076,5.0,3-11B,major
76833,55,34,48,696,3.0,1-1,other
76834,26,72,684,236,3.0,1-1,other
76835,38,39,56,1300,2.0,2-4,major
76836,64,54,720,2540,6.0,4-12B,diminished
76837,79,46,632,104,6.0,4-12B,diminished
76838,62,68,76,3040,0.0,2-1,other
76839,65,96,84,132,0.0,2-1,other
76840,67,88,136,140,0.0,2-1,other
76841,62,66,52,160,0.0,2-1,other
76842,65,94,100,136,0.0,2-1,other
76843,67,66,92,156,0.0,2-1,other
76844,48,68,1140,544,5.0,1-1,other
76845,60,122,172,1116,5.0,1-1,other
76846,62,111,188,244,5.0,1-1,other
76847,60,88,96,212,5.0,1-1,other
76848,65,86,100,508,5.0,2-1,other
76849,65,35,108,392,0.0,5-26B,other
76850,62,56,92,444,0.0,4-19B,other
76851,62,57,112,448,0.0,3-4A,other
76852,77,31,76,3660,9.0,4-26,minor
76853,72,44,36,272,5.0,4-20,major
76854,48,57,84,1780,9.0,4-26,minor
76855,36,50,624,960,5.0,5-27A,major
76856,57,56,167,0,2.0,4-26,minor
76857,72,58,12,151,11.0,3-5A,other
76858,56,56,36,129,2.0,4-26,minor
76859,40,65,14,150,2.0,4-14A,minor
76860,81,68,13,174,0.0,5-30B,other
76861,68,54,47,123,9.0,4-18A,major
76862,64,58,29,110,9.0,5-31B,major
76863,79,74,14,36,9.0,5-31B,major
76864,57,69,113,98,2.0,3-7A,minor
76865,67,74,15,116,5.0,2-5,other
76866,43,71,94,366,9.0,4-14A,minor
76867,60,64,22,494,2.0,5-35,minor
76868,52,67,52,463,9.0,3-7A,minor
76869,61,69,59,482,5.0,3-11B,major
76870,31,74,23,179,9.0,1-1,other
76871,86,73,4,212,4.0,4-29A,minor
76872,66,62,14,126,4.0,3-7A,minor
76873,76,64,17,177,1.0,4-15B,other
76874,79,61,52,126,9.0,4-18A,major
76875,52,66,9,128,6.0,3-2B,minor
76876,38,69,49,962,2.0,4-26,minor
76877,49,72,38,70,2.0,4-26,minor
76878,53,62,98,180,8.0,3-10,diminished
76879,65,54,31,143,8.0,2-3,minor
76880,68,58,22,485,1.0,4-28,diminished
76881,60,68,23,121,5.0,3-11B,major
76882,56,68,65,454,0.0,2-4,major
76883,64,83,55,51,0.0,2-4,major
76884,59,66,14,178,0.0,5-26B,augmented
76885,60,52,13,114,2.0,5-34,major
76886,71,101,17,736,0.0,4-22A,major
76887,48,70,85,357,11.0,4-27A,diminished
76888,54,49,81,236,6.0,5-31B,diminished
76889,57,58,79,725,2.0,4-26,minor
76890,63,66,46,234,4.0,4-29A,minor
76891,67,50,13,121,11.0,3-10,diminished
76892,57,56,58,130,0.0,4-19B,augmented
76893,60,56,57,112,9.0,4-11B,minor
76894,64,66,34,241,0.0,4-19B,other
76895,64,40,17,164,11.0,3-7A,minor
76896,88,85,229,188,4.0,3-7A,minor
76897,86,127,14,128,7.0,3-5B,other
76898,86,63,16,27,7.0,3-5B,other
76899,52,55,57,95,2.0,2-5,other
76900,58,66,58,115,0.0,3-4A,major
76901,56,71,53,244,0.0,3-12,augmented
76902,67,54,31,950,1.0,4-28,diminished
76903,58,61,38,142,2.0,4-26,minor
76904,60,53,34,251,2.0,5-25B,minor
76905,67,86,67,278,11.0,2-2,other
76906,69,78,89,55,11.0,2-2,other
76907,45,69,13,62,11.0,2-2,other
76908,68,30,13,505,3.0,4-24,augmented
76909,67,56,57,159,3.0,4-27A,other
76910,72,65,188,354,10.0,3-11B,major
76911,67,61,78,120,0.0,4-24,augmented
76912,41,63,15,64,0.0,4-24,augmented
76913,56,84,56,540,9.0,3-7A,minor
76914,50,93,136,482,4.0,4-23,minor
76915,69,79,51,116,9.0,3-11A,minor
76916,74,61,12,236,11.0,3-10,diminished
76917,43,49,41,133,0.0,2-4,major
76918,52,50,39,51,0.0,2-4,major
76919,55,55,19,77,0.0,2-4,major
76920,60,50,26,72,9.0,2-1,other
76921,61,61,22,28,9.0,2-1,other
76922,62,20,24,35,9.0,2-1,other
76923,71,74,19,318,9.0,3-11A,minor
76924,72,69,16,31,9.0,3-11A,minor
76925,67,64,47,354,4.0,2-3,minor
76926,67,40,23,86,4.0,5-27B,minor
76927,69,70,41,29,4.0,5-27B,minor
76928,72,46,21,84,1.0,3-10,other
76929,73,48,18,28,1.0,3-10,other
76930,77,75,20,30,1.0,3-10,other
76931,84,93,25,121,0.0,2-1,other
76932,77,79,7,68,2.0,3-7B,other
76933,59,60,36,477,2.0,4-14A,minor
76934,46,55,30,157,0.0,4-19B,other
76935,46,52,25,717,2.0,4-27A,minor
76936,60,53,16,141,0.0,2-1,other
76937,63,84,11,60,7.0,2-5,other
76938,64,66,10,28,7.0,2-5,other
76939,74,78,13,91,11.0,2-5,other
76940,72,69,54,28,11.0,2-5,other
76941,69,68,50,103,0.0,3-8B,other
76942,63,81,22,140,5.0,4-20,major
76943,62,76,22,28,5.0,4-20,major
76944,61,69,24,30,5.0,4-20,major
76945,60,59,28,37,5.0,4-20,major
76946,57,62,27,38,5.0,4-20,major
76947,43,67,17,82,7.0,4-22A,major
76948,84,113,19,383,7.0,2-5,other
76949,76,75,16,150,5.0,2-4,major
76950,73,64,12,59,2.0,3-3A,minor
76951,79,98,21,29,2.0,3-3A,minor
76952,78,85,21,32,2.0,3-3A,minor
76953,77,72,26,30,2.0,3-3A,minor
76954,61,64,17,151,2.0,4-14A,minor
76955,65,54,11,872,2.0,3-7B,other
76956,67,61,20,117,5.0,3-11B,major
76957,54,74,63,122,8.0,4-18A,diminished
76958,46,74,45,353,0.0,4-19B,other
76959,45,83,15,59,0.0,4-19B,other
76960,48,55,120,306,5.0,4-20,major
76961,60,57,25,99,9.0,3-11A,minor
76962,62,66,13,33,9.0,3-11A,minor
76963,56,61,67,54,4.0,3-10,diminished
76964,56,54,45,116,2.0,2-3,minor
76965,61,81,49,724,4.0,4-23,minor
76966,60,71,56,56,4.0,4-23,minor
76967,59,65,24,59,4.0,4-23,minor
76968,50,59,68,59,4.0,4-23,minor
76969,62,56,29,123,8.0,5-31B,diminished
76970,79,83,76,122,9.0,5-35,minor
76971,69,70,15,97,0.0,3-4A,major
76972,81,82,15,118,10.0,5-27A,major
76973,76,25,21,29,10.0,5-27A,major
76974,70,67,22,111,0.0,2-2,other
76975,69,43,11,122,7.0,2-4,major
76976,65,23,13,120,7.0,3-6,major
76977,55,63,122,358,4.0,5-32B,other
76978,46,60,46,122,11.0,2-3,minor
76979,43,72,14,535,9.0,3-7A,minor
76980,58,52,115,486,4.0,4-26,minor
76981,57,56,85,127,2.0,2-3,minor
76982,74,42,7,295,11.0,5-29B,diminished
76983,47,44,11,478,9.0,3-11A,minor
76984,40,48,6,235,0.0,3-12,augmented
76985,62,79,19,34,0.0,3-12,augmented
76986,64,75,17,119,0.0,2-4,major
76987,67,69,13,59,4.0,2-3,minor
76988,71,80,12,27,4.0,2-3,minor
76989,71,85,14,31,4.0,2-3,minor
76990,64,32,11,94,11.0,2-3,minor
76991,71,77,22,30,11.0,2-3,minor
76992,44,71,11,146,2.0,3-9,other
76993,44,53,26,202,10.0,4-19B,other
76994,71,90,17,445,5.0,3-11B,major
76995,72,112,16,35,5.0,3-11B,major
76996,52,58,51,580,9.0,4-12A,major
76997,50,61,13,481,3.0,5-26A,other
76998,44,76,43,90,5.0,3-4A,other
76999,53,66,19,27,5.0,3-4A,other
77000,62,73,25,263,4.0,4-23,minor
77001,55,68,36,118,10.0,3-4A,major
77002,41,82,118,199,9.0,4-23,minor
77003,48,81,86,38,9.0,4-23,minor
77004,62,101,24,83,9.0,2-3,minor
77005,64,110,27,38,9.0,2-3,minor
77006,52,83,65,341,9.0,2-3,minor
77007,61,80,43,479,9.0,5-35,minor
77008,50,60,12,110,2.0,3-7A,minor
77009,69,72,25,129,5.0,4-22A,major
77010,78,47,28,1439,7.0,2-5,other
77011,79,48,208,119,2.0,4-14B,major
77012,62,100,285,0,,,
77013,57,87,52,245,10.0,1-1,other
77014,55,77,49,58,10.0,1-1,other
77015,53,73,10,52,10.0,1-1,other
77016,28,64,6,188,4.0,4-15B,other
77017,45,83,8,117,4.0,4-15B,other
77018,57,53,68,298,0.0,4-22A,major
77019,78,66,21,140,6.0,2-6,other
77020,62,58,36,798,7.0,3-11A,minor
77021,68,82,33,144,6.0,5-27B,minor
77022,48,70,52,127,0.0,5-27B,other
77023,54,78,58,116,0.0,4-20,other
77024,63,90,40,127,0.0,4-26,other
77025,63,73,41,54,0.0,4-26,other
77026,65,88,45,53,0.0,4-26,other
77027,53,43,151,131,0.0,5-27A,other
77028,60,52,36,56,0.0,5-27A,other
77029,59,64,65,181,10.0,4-22A,major
77030,39,79,47,244,7.0,4-23,minor
77031,46,76,143,50,7.0,4-23,minor
77032,55,78,238,61,7.0,4-23,minor
77033,58,84,50,63,7.0,4-23,minor
77034,62,82,23,59,7.0,4-23,minor
77035,67,96,19,63,7.0,4-23,minor
77036,77,106,52,55,7.0,4-23,minor
77037,74,72,64,237,10.0,2-4,major
77038,72,65,118,65,10.0,2-4,major
77039,61,60,38,77,10.0,2-4,major
77040,60,52,56,44,10.0,2-4,major
77041,58,55,57,55,10.0,2-4,major
77042,55,60,20,115,9.0,1-1,other
77043,61,77,56,130,3.0,3-4A,major
77044,60,65,120,118,9.0,4-27A,diminished
77045,58,79,67,116,3.0,2-4,major
77046,50,64,305,124,2.0,4-18A,major
77047,64,113,23,179,2.0,3-3A,major
77048,64,91,52,61,2.0,3-3A,major
77049,66,78,28,58,2.0,3-3A,major
77050,55,77,29,181,5.0,5-30A,augmented
77051,57,50,65,53,5.0,5-30A,augmented
77052,39,77,44,56,5.0,5-30A,augmented
77053,38,78,23,72,5.0,5-30A,augmented
77054,66,59,30,194,6.0,4-28,diminished
77055,55,79,132,104,7.0,1-1,other
77056,54,71,60,121,10.0,2-4,major
77057,53,87,181,62,10.0,2-4,major
77058,62,78,38,301,4.0,3-7A,minor
77059,70,66,26,116,10.0,2-4,major
77060,62,54,34,120,10.0,2-4,major
77061,62,47,153,60,10.0,2-4,major
77062,70,60,35,61,10.0,2-4,major
77063,57,56,12,30,10.0,2-4,major
77064,67,61,14,392,3.0,4-22A,major
77065,67,56,18,42,3.0,4-22A,major
77066,67,66,16,36,3.0,4-22A,major
77067,50,60,401,108,3.0,4-16A,major
77068,74,110,135,58,3.0,4-16A,major
77069,72,84,174,42,3.0,4-16A,major
77070,67,61,104,78,3.0,4-16A,major
77071,63,70,47,58,3.0,4-16A,major
77072,62,55,38,60,3.0,4-16A,major
77073,60,42,14,55,3.0,4-16A,major
77074,26,57,73,215,2.0,1-1,other
77075,55,67,43,141,2.0,1-1,other
77076,57,71,81,70,2.0,1-1,other
77077,55,44,25,85,2.0,1-1,other
77078,58,62,131,36,2.0,1-1,other
77079,43,69,23,70,2.0,1-1,other
77080,41,58,69,44,2.0,1-1,other
77081,35,56,29,197,4.0,4-15B,other
77082,32,57,73,38,4.0,4-15B,other
77083,34,63,30,198,5.0,4-24,augmented
77084,39,52,62,35,5.0,4-24,augmented
77085,34,48,37,87,5.0,4-24,augmented
77086,33,67,30,125,2.0,3-8A,major
77087,54,83,20,116,7.0,2-5,other
77088,55,80,61,44,7.0,2-5,other
77089,43,60,43,73,7.0,2-5,other
77090,51,40,22,483,10.0,3-12,augmented
77091,43,52,53,162,7.0,3-7A,minor
77092,64,62,53,80,7.0,3-7A,minor
77093,79,92,26,240,0.0,5-27B,other
77094,46,94,76,724,4.0,5-32A,other
77095,62,115,18,39,4.0,5-32A,other
77096,62,80,33,35,4.0,5-32A,other
77097,60,79,45,40,4.0,5-32A,other
77098,46,65,319,122,3.0,2-5,other
77099,55,73,188,178,3.0,2-5,other
77100,57,64,33,39,3.0,2-5,other
77101,58,65,14,33,3.0,2-5,other
77102,62,47,16,39,3.0,2-5,other
77103,65,73,20,39,3.0,2-5,other
77104,69,100,26,37,3.0,2-5,other
77105,70,93,30,42,3.0,2-5,other
77106,71,61,31,37,3.0,2-5,other
77107,74,104,41,47,3.0,2-5,other
77108,67,67,39,107,0.0,2-2,other
77109,62,55,43,118,3.0,2-4,major
77110,49,48,199,175,4.0,2-6,other
77111,57,71,35,73,4.0,2-6,other
77112,60,66,23,69,7.0,2-3,minor
77113,63,79,26,62,1.0,2-3,other
77114,64,82,38,30,1.0,2-3,other
77115,66,95,27,77,1.0,2-3,other
77116,74,79,15,203,2.0,3-7A,minor
77117,65,87,17,33,2.0,3-7A,minor
77118,67,101,26,201,2.0,3-7A,minor
77119,67,88,50,43,2.0,3-7A,minor
77120,69,76,21,78,5.0,2-4,major
77121,70,87,30,40,5.0,2-4,major
77122,59,57,31,82,9.0,4-27A,diminished
77123,54,66,34,390,6.0,3-10,diminished
77124,54,69,22,124,3.0,3-11B,major
77125,53,64,25,44,3.0,3-11B,major
77126,52,61,23,40,3.0,3-11B,major
77127,51,66,21,27,3.0,3-11B,major
77128,50,63,37,29,3.0,3-11B,major
77129,70,88,65,108,1.0,4-24,other
77130,59,53,87,46,1.0,4-24,other
77131,72,80,28,34,1.0,4-24,other
77132,49,71,19,45,1.0,4-24,other
77133,48,64,232,231,7.0,3-11A,minor
77134,51,52,34,239,10.0,3-4A,major
77135,53,68,49,51,10.0,3-4A,major
77136,41,63,9,68,10.0,3-4A,major
77137,54,51,102,524,7.0,4-23,minor
77138,51,50,35,73,7.0,4-23,minor
77139,55,70,13,122,7.0,3-7A,minor
77140,60,49,21,39,7.0,3-7A,minor
77141,63,73,17,40,7.0,3-7A,minor
77142,72,76,19,91,9.0,2-2,other
77143,75,99,24,34,9.0,2-2,other
77144,75,98,28,81,5.0,3-8B,other
77145,75,76,28,120,2.0,4-21,major
77146,74,58,34,35,2.0,4-21,major
77147,72,81,33,34,2.0,4-21,major
77148,72,92,39,132,0.0,3-8A,major
77149,50,61,69,160,7.0,2-5,other
77150,51,68,23,73,7.0,2-5,other
77151,44,52,27,127,0.0,5-30B,other
77152,44,48,20,124,0.0,5-26A,augmented
77153,39,52,79,159,6.0,4-29A,minor
77154,41,82,27,193,2.0,4-15B,other
77155,42,52,101,43,2.0,4-15B,other
77156,39,57,31,76,2.0,4-15B,other
77157,43,67,229,118,7.0,2-3,minor
77158,38,71,49,293,0.0,3-11B,major
77159,38,65,40,73,0.0,3-11B,major
77160,38,59,35,121,7.0,4-26,minor
77161,48,97,156,486,0.0,5-27B,other
77162,55,84,34,89,0.0,5-27B,other
77163,60,71,25,70,3.0,2-5,other
77164,63,74,25,38,3.0,2-5,other
77165,67,85,34,40,3.0,2-5,other
77166,67,63,28,78,0.0,5-35,other
77167,68,88,47,37,0.0,5-35,other
77168,70,86,29,39,0.0,5-35,other
77169,71,77,32,42,0.0,5-35,other
77170,74,66,28,84,1.0,4-9,other
77171,76,67,23,40,1.0,4-9,other
77172,77,71,28,42,1.0,4-9,other
77173,78,61,9,79,8.0,3-2A,other
77174,79,69,22,35,8.0,3-2A,other
77175,80,63,22,40,8.0,3-2A,other
77176,81,64,20,40,8.0,3-2A,other
77177,82,70,23,37,8.0,3-2A,other
77178,79,65,22,163,10.0,1-1,other
77179,60,31,18,220,7.0,4-26,minor
77180,55,54,37,337,3.0,4-19B,augmented
77181,55,67,14,121,0.0,4-26,minor
77182,46,65,68,46,0.0,4-26,minor
77183,52,67,30,71,0.0,4-26,minor
77184,45,61,168,47,0.0,4-26,minor
77185,85,85,46,162,7.0,2-5,other
77186,71,58,25,77,7.0,2-5,other
77187,82,73,65,121,1.0,3-2A,other
77188,69,54,82,125,10.0,3-6,major
77189,81,82,34,62,10.0,3-6,major
77190,80,63,15,59,10.0,3-6,major
77191,67,53,98,120,0.0,2-4,other
77192,78,76,27,116,0.0,2-5,other
77193,75,78,32,117,5.0,2-4,major
77194,74,67,21,82,5.0,2-2,other
77195,70,84,71,194,2.0,2-2,other
77196,67,65,61,151,9.0,1-1,other
77197,50,55,27,133,7.0,2-3,minor
77198,56,74,75,117,10.0,3-4A,major
77199,54,69,23,167,7.0,3-11A,minor
77200,53,78,30,38,7.0,3-11A,minor
77201,40,82,23,141,4.0,3-8B,other
77202,45,99,113,391,8.0,4-29A,other
77203,52,37,10,108,8.0,4-29A,other
77204,62,44,41,468,9.0,3-8B,other
77205,50,58,169,40,9.0,3-8B,other
77206,62,67,187,81,9.0,3-8B,other
77207,74,92,43,78,9.0,3-8B,other
77208,50,78,65,329,10.0,4-24,augmented
77209,50,65,358,122,10.0,4-24,augmented
77210,62,65,12,52,10.0,4-24,augmented
77211,62,62,17,36,10.0,4-24,augmented
77212,67,79,15,29,10.0,4-24,augmented
77213,67,72,24,36,10.0,4-24,augmented
77214,43,55,16,205,7.0,3-11A,minor
77215,50,61,25,1045,10.0,3-11B,major
77216,41,66,17,125,0.0,3-11B,major
77217,42,63,77,30,0.0,3-11B,major
77218,38,69,22,199,7.0,4-26,minor
77219,31,49,34,51,7.0,4-26,minor
77220,31,86,45,72,7.0,4-26,minor
77221,31,82,28,77,7.0,4-26,minor
77222,48,55,21,285,0.0,4-26,other
77223,53,59,32,81,3.0,3-4B,other
77224,46,94,187,510,4.0,7-31B,other
77225,62,121,45,50,4.0,7-31B,other
77226,60,71,49,117,8.0,2-6,other
77227,60,65,39,71,8.0,2-6,other
77228,57,54,25,119,3.0,2-5,other
77229,58,62,84,42,3.0,2-5,other
77230,46,52,92,71,3.0,2-5,other
77231,62,60,67,412,0.0,2-2,other
77232,65,35,39,129,3.0,2-5,other
77233,71,60,32,123,10.0,1-1,other
77234,72,65,30,64,10.0,1-1,other
77235,82,97,26,112,1.0,2-3,other
77236,83,68,26,34,1.0,2-3,other
77237,84,87,17,27,1.0,2-3,other
77238,85,101,32,38,1.0,2-3,other
77239,82,79,21,30,1.0,2-3,other
77240,76,53,26,58,7.0,1-1,other
77241,73,71,26,40,7.0,1-1,other
77242,70,63,22,76,0.0,2-2,other
77243,69,41,29,50,0.0,2-2,other
77244,68,66,18,35,0.0,2-2,other
77245,66,76,25,76,7.0,2-5,other
77246,65,49,27,37,7.0,2-5,other
77247,65,74,155,115,10.0,3-11B,major
77248,50,65,59,119,10.0,3-11B,major
77249,67,61,18,45,10.0,3-11B,major
77250,69,79,20,38,10.0,3-11B,major
77251,60,1,37,450,10.0,5-33,augmented
77252,67,72,16,58,10.0,5-33,augmented
77253,56,80,24,121,7.0,4-14A,minor
77254,44,67,232,229,1.0,4-24,other
77255,58,55,194,187,2.0,3-8A,major
77256,74,71,270,173,7.0,2-5,other
77257,68,65,42,121,8.0,3-8A,other
77258,69,70,23,115,10.0,3-4A,major
77259,51,55,178,124,5.0,2-4,other
77260,73,60,20,116,6.0,3-11A,minor
77261,73,45,22,117,6.0,3-11A,minor
77262,72,55,22,107,2.0,4-12A,major
77263,57,29,70,0,11.0,5-29B,diminished
77264,44,73,1055,920,11.0,5-29B,diminished
77265,64,29,200,600,5.0,3-4A,major
77266,76,41,60,230,5.0,3-4A,major
77267,57,51,320,350,2.0,2-5,other
77268,77,57,310,310,2.0,2-5,other
77269,44,77,1102,430,2.0,2-5,other
77270,58,35,40,930,4.0,1-1,other
77271,72,36,40,90,4.0,6-29,major
77272,68,29,50,310,11.0,2-6,other
77273,59,54,160,470,8.0,4-28,diminished
77274,65,27,30,30,8.0,4-28,diminished
77275,44,70,920,90,8.0,4-28,diminished
77276,45,80,1780,980,9.0,4-26,minor
77277,28,67,865,75,9.0,4-26,minor
77278,64,43,50,515,9.0,4-26,minor
77279,66,51,90,110,9.0,4-26,minor
77280,70,61,30,150,3.0,2-5,other
77281,78,61,30,400,3.0,3-5B,other
77282,80,62,20,200,3.0,3-5B,other
77283,82,61,20,130,3.0,3-5B,other
77284,84,56,20,110,3.0,3-5B,other
77285,86,42,40,110,10.0,2-4,other
77286,87,68,70,60,10.0,2-4,other
77287,57,19,1410,140,0.0,2-4,major
77288,41,63,1550,50,0.0,2-4,major
77289,91,78,70,60,0.0,2-4,major
77290,88,57,30,150,0.0,2-4,major
77291,89,69,60,120,0.0,2-4,major
77292,88,57,50,130,0.0,2-4,major
77293,84,57,80,150,0.0,2-4,major
77294,81,55,40,140,0.0,2-4,major
77295,44,52,207,60,0.0,2-4,major
77296,71,12,60,290,5.0,2-1,other
77297,36,66,90,410,5.0,2-4,major
77298,79,75,70,140,5.0,2-4,major
77299,33,67,200,40,5.0,2-4,major
77300,81,86,80,100,5.0,2-4,major
77301,43,106,1370,570,7.0,4-16B,major
77302,44,61,302,370,5.0,4-22A,major
77303,28,52,930,30,5.0,4-22A,major
77304,53,39,190,150,4.0,2-5,other
77305,59,73,120,830,0.0,3-8A,major
77306,80,96,300,820,8.0,4-28,diminished
77307,44,62,150,90,8.0,4-28,diminished
77308,28,52,905,55,8.0,4-28,diminished
77309,77,84,110,35,8.0,4-28,diminished
77310,74,71,70,130,8.0,4-28,diminished
77311,73,69,110,100,8.0,4-28,diminished
77312,72,63,90,70,8.0,4-28,diminished
77313,71,57,80,100,8.0,4-28,diminished
77314,68,54,130,100,8.0,4-28,diminished
77315,56,68,220,240,8.0,4-28,diminished
77316,28,55,938,152,8.0,4-28,diminished
77317,68,68,90,48,8.0,4-28,diminished
77318,55,53,480,50,8.0,4-28,diminished
77319,69,58,100,50,8.0,4-28,diminished
77320,70,50,60,110,8.0,4-28,diminished
77321,71,43,60,70,8.0,4-28,diminished
77322,74,81,90,90,8.0,4-28,diminished
77323,48,72,1400,100,8.0,4-28,diminished
77324,71,55,70,30,8.0,4-28,diminished
77325,72,69,90,120,8.0,4-28,diminished
77326,67,56,80,110,8.0,4-28,diminished
77327,64,46,70,130,8.0,4-28,diminished
77328,65,78,160,400,0.0,2-1,other
77329,60,76,80,250,0.0,2-4,major
77330,52,33,40,300,7.0,2-4,major
77331,44,52,160,1000,0.0,5-20B,major
77332,28,52,898,62,0.0,5-20B,major
77333,35,33,40,745,0.0,4-29B,major
77334,28,77,880,233,6.0,5-29B,diminished
77335,44,55,150,880,11.0,3-7B,other
77336,28,70,890,70,11.0,3-7B,other
77337,27,46,247,450,9.0,3-8A,other
77338,38,67,140,250,9.0,3-8A,other
77339,39,82,160,160,9.0,3-8A,other
77340,28,52,898,92,9.0,3-8A,other
77341,40,82,1380,88,10.0,4-16A,major
77342,44,56,120,810,10.0,4-16A,major
77343,28,55,930,30,10.0,4-16A,major
77344,46,105,410,490,4.0,2-3,minor
77345,35,30,113,247,5.0,2-4,major
77346,45,88,1490,673,7.0,5-32A,minor
77347,28,77,953,1447,1.0,4-26,other
77348,69,35,230,63,2.0,3-7A,minor
77349,63,61,140,770,4.0,3-10,diminished
77350,61,57,120,300,2.0,4-14A,minor
77351,27,62,440,290,2.0,4-26,minor
77352,57,57,120,40,2.0,4-26,minor
77353,53,48,20,160,2.0,3-7B,other
77354,53,42,160,1030,8.0,3-10,diminished
77355,35,48,40,987,8.0,4-12A,minor
77356,77,82,100,53,8.0,4-12A,minor
77357,74,41,40,250,8.0,4-28,diminished
77358,35,100,160,1760,9.0,2-3,minor
77359,45,53,40,500,11.0,4-23,minor
77360,41,54,50,40,11.0,4-23,minor
77361,77,66,30,1070,0.0,2-1,other
77362,81,59,20,110,7.0,2-5,other
77363,84,51,30,120,11.0,2-6,other
77364,28,70,50,80,11.0,2-6,other
77365,88,63,50,560,11.0,1-1,other
77366,88,52,100,140,11.0,2-6,other
77367,86,51,90,120,11.0,2-6,other
77368,88,60,40,110,11.0,2-6,other
77369,44,45,135,80,11.0,2-6,other
77370,60,37,210,80,4.0,1-1,other
77371,100,81,30,220,4.0,1-1,other
77372,64,46,130,280,4.0,1-1,other
77373,88,66,70,140,4.0,1-1,other
77374,40,74,90,30,4.0,1-1,other
77375,89,74,100,40,4.0,1-1,other
77376,100,66,30,480,4.0,4-12A,major
77377,100,82,70,190,4.0,4-12A,major
77378,100,80,180,200,4.0,4-12A,major
77379,98,74,160,580,4.0,2-2,other
77380,96,74,180,240,4.0,2-2,other
77381,95,71,120,190,4.0,2-2,other
77382,28,80,913,257,2.0,2-2,other
77383,95,49,100,153,2.0,2-2,other
77384,96,74,120,140,2.0,2-2,other
77385,92,68,120,130,2.0,2-2,other
77386,95,76,110,150,2.0,2-2,other
77387,92,64,80,110,2.0,2-2,other
77388,93,84,110,120,2.0,2-2,other
77389,88,64,90,130,0.0,3-12,augmented
77390,28,50,880,60,0.0,3-12,augmented
77391,86,67,97,70,0.0,3-12,augmented
77392,84,52,80,140,0.0,3-12,augmented
77393,83,52,70,130,0.0,3-12,augmented
77394,86,60,90,110,0.0,3-12,augmented
77395,83,55,80,100,0.0,3-12,augmented
77396,84,75,100,130,0.0,3-12,augmented
77397,81,64,90,130,0.0,3-12,augmented
77398,28,47,938,92,9.0,3-11A,minor
77399,76,49,120,48,9.0,3-11A,minor
77400,76,58,70,220,9.0,3-11A,minor
77401,76,58,80,180,9.0,3-11A,minor
77402,45,112,420,40,9.0,3-11A,minor
77403,76,60,60,130,9.0,3-11A,minor
77404,76,67,70,140,9.0,3-11A,minor
77405,73,40,80,730,0.0,5-30B,other
77406,28,37,945,425,1.0,5-34,minor
77407,36,73,170,775,2.0,5-35,minor
77408,44,69,295,170,2.0,5-35,minor
77409,29,87,1890,30,2.0,5-35,minor
77410,28,55,10,920,2.0,3-11A,minor
77411,81,66,110,840,5.0,2-5,other
77412,81,67,80,470,11.0,2-6,other
77413,82,43,70,310,11.0,2-6,other
77414,83,60,70,80,11.0,2-6,other
77415,86,111,110,140,11.0,2-6,other
77416,28,60,953,97,11.0,2-6,other
77417,36,96,2630,33,11.0,2-6,other
77418,84,85,130,40,11.0,2-6,other
77419,80,60,40,440,11.0,2-6,other
77420,77,60,90,150,11.0,2-6,other
77421,74,56,70,130,11.0,2-6,other
77422,28,52,890,230,8.0,3-10,diminished
77423,65,60,80,240,1.0,2-5,other
77424,74,81,110,150,1.0,2-5,other
77425,71,41,90,160,1.0,2-5,other
77426,72,80,150,140,1.0,2-5,other
77427,50,75,220,90,9.0,2-5,other
77428,67,56,120,70,9.0,2-5,other
77429,28,52,920,80,9.0,2-5,other
77430,62,46,70,240,0.0,2-4,major
77431,45,57,180,1310,9.0,4-26,minor
77432,31,79,220,140,9.0,4-26,minor
77433,30,97,2010,210,11.0,2-6,other
77434,44,55,87,940,0.0,5-20B,major
77435,28,62,920,40,0.0,5-20B,major
77436,47,105,110,950,9.0,2-3,minor
77437,69,39,130,670,6.0,3-7A,other
77438,27,68,440,202,6.0,3-7A,other
77439,28,55,505,513,3.0,3-11B,other
77440,28,67,440,1025,3.0,4-27A,other
77441,65,62,50,200,3.0,4-27A,other
77442,67,58,60,120,3.0,4-27A,other
77443,70,64,50,210,8.0,1-1,other
77444,71,54,40,110,8.0,1-1,other
77445,73,56,30,100,8.0,1-1,other
77446,75,54,30,110,8.0,1-1,other
77447,77,63,50,110,8.0,1-1,other
77448,79,69,60,110,8.0,1-1,other
77449,47,79,200,70,8.0,1-1,other
77450,80,86,80,50,8.0,1-1,other
77451,41,86,180,70,8.0,1-1,other
77452,82,84,120,50,8.0,1-1,other
77453,80,66,70,220,4.0,2-6,other
77454,78,77,160,640,4.0,2-6,other
77455,78,69,130,520,4.0,2-2,other
77456,80,82,270,180,4.0,2-2,other
77457,77,61,110,300,4.0,2-2,other
77458,28,62,880,230,10.0,4-20,other
77459,65,58,100,470,10.0,4-20,other
77460,66,63,300,130,10.0,4-20,other
77461,44,56,120,280,10.0,3-11B,other
77462,67,68,100,50,10.0,3-11B,other
77463,28,60,873,37,10.0,3-11B,other
77464,35,29,40,63,10.0,3-11B,other
77465,69,62,70,540,1.0,2-3,other
77466,74,58,80,660,5.0,2-4,other
77467,74,57,70,320,0.0,5-18A,other
77468,28,55,938,272,0.0,5-13A,augmented
77469,32,86,490,488,0.0,4-25,major
77470,80,75,140,90,6.0,3-8B,other
77471,79,64,60,150,6.0,3-8B,other
77472,84,39,30,160,9.0,3-11A,minor
77473,37,103,2090,60,9.0,3-11A,minor
77474,28,60,920,30,9.0,3-11A,minor
77475,60,57,30,380,1.0,4-22A,other
77476,44,58,70,540,0.0,4-26,other
77477,28,55,873,87,0.0,4-26,other
77478,35,28,80,495,0.0,4-26,other
77479,85,52,90,298,3.0,1-1,other
77480,28,65,938,102,3.0,1-1,other
77481,43,118,1850,108,3.0,2-4,major
77482,59,52,1420,220,3.0,2-4,major
77483,63,59,1350,110,3.0,2-4,major
77484,27,36,407,100,3.0,2-4,major
77485,67,64,80,30,3.0,2-4,major
77486,69,64,70,110,3.0,2-4,major
77487,71,68,90,130,3.0,2-4,major
77488,28,55,905,185,1.0,2-3,other
77489,75,74,60,35,1.0,2-3,other
77490,77,80,90,70,1.0,2-3,other
77491,79,78,60,80,1.0,2-3,other
77492,81,67,30,60,1.0,2-3,other
77493,83,72,70,80,1.0,2-3,other
77494,85,71,120,70,1.0,2-3,other
77495,87,81,100,270,3.0,2-4,major
77496,35,31,72,70,3.0,2-4,major
77497,87,75,80,90,3.0,2-4,major
77498,89,63,480,480,0.0,3-7A,minor
77499,89,68,230,660,4.0,2-4,major
77500,41,98,1900,860,3.0,4-29A,other
77501,57,46,40,100,2.0,3-3A,major
77502,57,49,160,300,2.0,3-2A,minor
77503,28,65,58,502,2.0,3-2A,minor
77504,44,55,135,58,2.0,3-2A,minor
77505,51,28,350,100,2.0,2-5,other
77506,69,56,230,270,2.0,2-5,other
77507,44,57,87,1550,6.0,2-6,other
77508,73,22,60,430,3.0,3-11A,other
77509,28,55,1440,50,3.0,3-11A,other
77510,58,61,180,550,1.0,2-3,other
77511,44,58,200,890,1.0,3-7B,other
77512,37,65,100,650,10.0,2-5,other
77513,44,73,1055,1270,9.0,4-16B,other
77514,28,55,930,990,10.0,7-34,augmented
77515,44,99,920,930,2.0,5-34,major
77516,28,67,905,55,2.0,5-34,major
77517,83,72,200,275,0.0,5-30B,augmented
77518,32,91,500,180,0.0,5-30B,augmented
77519,37,98,1940,460,0.0,5-30B,augmented
77520,44,70,920,950,5.0,3-11A,other
77521,28,67,865,1055,0.0,2-4,major
77522,60,52,30,35,0.0,2-4,major
77523,63,52,40,80,0.0,2-4,major
77524,65,57,30,100,0.0,2-4,major
77525,70,63,50,120,5.0,3-11B,other
77526,72,59,30,90,5.0,3-11B,other
77527,75,55,30,70,5.0,3-11B,other
77528,77,57,30,90,5.0,3-11B,other
77529,80,60,30,70,5.0,3-11B,other
77530,84,62,30,160,3.0,2-5,other
77531,46,39,47,50,3.0,2-5,other
77532,89,66,30,110,3.0,2-1,other
77533,92,51,40,80,3.0,2-1,other
77534,94,50,30,80,3.0,2-1,other
77535,96,67,60,100,3.0,2-1,other
77536,99,52,80,80,3.0,2-1,other
77537,101,65,80,90,3.0,2-1,other
77538,41,73,170,180,3.0,2-1,other
77539,42,96,200,150,3.0,2-1,other
77540,28,57,930,120,3.0,2-1,other
77541,43,106,1500,40,3.0,2-1,other
77542,58,50,1550,320,1.0,2-6,other
77543,65,39,70,180,1.0,2-6,other
77544,67,48,70,70,1.0,2-6,other
77545,68,57,70,40,1.0,2-6,other
77546,70,61,20,60,1.0,2-6,other
77547,72,68,40,70,1.0,2-6,other
77548,73,57,30,60,1.0,2-6,other
77549,75,56,20,50,1.0,2-6,other
77550,44,52,207,40,1.0,2-6,other
77551,77,60,30,30,1.0,2-6,other
77552,82,68,70,180,4.0,2-3,minor
77553,79,76,60,280,4.0,2-3,minor
77554,79,56,70,140,1.0,2-5,other
77555,77,51,70,70,1.0,2-5,other
77556,76,50,40,100,1.0,2-5,other
77557,79,69,90,90,1.0,2-5,other
77558,76,48,50,120,1.0,2-5,other
77559,77,69,80,110,0.0,2-4,major
77560,76,66,60,160,0.0,2-4,major
77561,73,67,130,120,0.0,2-4,major
77562,72,61,70,130,0.0,2-4,major
77563,70,63,110,160,0.0,2-4,major
77564,58,36,90,40,0.0,2-4,major
77565,66,61,80,130,0.0,2-4,major
77566,44,61,302,60,0.0,2-4,major
77567,28,52,930,30,0.0,2-4,major
77568,60,55,40,260,0.0,2-4,major
77569,61,58,90,50,0.0,2-4,major
77570,60,50,60,70,0.0,2-4,major
77571,59,57,50,70,0.0,2-4,major
77572,58,57,50,100,0.0,2-4,major
77573,59,62,30,80,0.0,2-4,major
77574,60,85,80,100,0.0,2-4,major
77575,36,47,130,50,0.0,2-4,major
77576,61,79,80,70,0.0,2-4,major
77577,63,64,90,220,4.0,2-2,other
77578,53,30,720,110,8.0,2-3,minor
77579,64,53,100,30,8.0,2-3,minor
77580,68,83,90,290,7.0,2-2,other
77581,70,82,90,140,7.0,2-2,other
77582,56,29,90,170,8.0,2-3,minor
77583,44,62,150,80,8.0,2-3,minor
77584,63,74,110,230,8.0,2-3,other
77585,67,75,100,140,8.0,2-3,other
77586,53,22,140,1390,1.0,3-7A,other
77587,35,27,40,920,8.0,4-13B,other
77588,46,55,100,60,8.0,4-13B,other
77589,44,52,160,1100,10.0,4-20,other
77590,28,52,898,62,10.0,3-11B,other
77591,65,46,60,88,10.0,3-11B,other
77592,66,51,110,40,10.0,3-11B,other
77593,68,54,30,90,10.0,3-11B,other
77594,70,44,30,60,10.0,3-11B,other
77595,72,41,40,90,10.0,3-11B,other
77596,73,40,40,70,10.0,3-11B,other
77597,75,57,30,50,10.0,3-11B,other
77598,77,52,30,100,10.0,3-11B,other
77599,78,47,30,70,10.0,3-11B,other
77600,82,57,50,170,8.0,2-3,minor
77601,28,77,880,150,0.0,4-24,augmented
77602,60,23,50,280,9.0,2-5,other
77603,60,46,80,280,4.0,3-9,other
77604,28,70,890,390,6.0,4-15A,other
77605,27,46,247,450,6.0,4-12B,other
77606,28,52,898,502,3.0,3-7A,other
77607,37,66,1860,48,3.0,3-7A,other
77608,87,31,120,280,0.0,5-25B,other
77609,44,56,120,570,8.0,2-3,other
77610,28,55,930,30,8.0,2-3,other
77611,35,30,113,737,0.0,5-35,other
77612,30,99,1540,193,1.0,1-1,other
77613,75,77,300,430,0.0,5-33,augmented
77614,42,99,520,1020,1.0,4-19A,minor
77615,68,18,30,290,6.0,2-6,other
77616,61,62,200,1490,10.0,2-4,other
77617,27,62,440,120,10.0,2-4,other
77618,60,61,200,190,10.0,2-4,other
77619,46,50,70,250,10.0,2-4,other
77620,48,87,60,400,3.0,4-14A,other
77621,53,82,440,140,3.0,4-14A,other
77622,69,68,70,320,3.0,4-14A,other
77623,72,77,100,720,5.0,4-24,augmented
77624,69,49,140,140,5.0,4-24,augmented
77625,70,66,350,160,11.0,2-2,other
77626,72,57,70,340,4.0,3-5A,other
77627,77,84,130,150,4.0,3-5A,other
77628,72,52,130,160,4.0,3-5A,other
77629,73,63,80,150,4.0,3-5A,other
77630,77,79,120,150,4.0,3-5A,other
77631,82,83,90,150,4.0,2-4,major
77632,84,85,110,140,4.0,2-4,major
77633,87,42,100,550,1.0,2-2,other
77634,75,48,130,110,1.0,2-2,other
77635,87,54,90,70,1.0,2-2,other
77636,28,67,953,47,1.0,2-2,other
77637,35,35,233,520,5.0,3-4A,other
77638,46,55,70,433,5.0,3-4A,other
77639,35,50,960,823,11.0,1-1,other
77640,57,48,170,234,2.0,2-3,minor
77641,44,101,465,825,2.0,2-3,minor
77642,36,42,65,640,2.0,2-5,other
77643,28,63,33,312,2.0,2-5,other
77644,74,84,610,63,2.0,3-11A,minor
77645,47,74,120,290,2.0,3-11A,minor
77646,76,67,200,270,2.0,3-11A,minor
77647,38,83,300,40,2.0,3-11A,minor
77648,39,68,1590,380,9.0,3-4B,other
77649,28,105,960,910,8.0,2-3,other
77650,40,73,1590,670,8.0,2-3,other
77651,44,101,435,265,8.0,2-3,other
77652,39,59,150,675,5.0,2-5,other
77653,28,63,33,247,5.0,2-5,other
77654,51,72,200,383,4.0,4-12A,major
77655,52,88,1100,320,4.0,4-12A,major
77656,56,31,2280,1400,2.0,1-1,other
77657,59,21,1990,30,2.0,1-1,other
77658,73,55,260,380,2.0,1-1,other
77659,72,39,140,140,2.0,1-1,other
77660,71,62,200,1540,2.0,2-2,other
77661,72,63,270,230,2.0,2-2,other
77662,76,61,220,270,2.0,2-2,other
77663,44,80,447,120,9.0,2-5,other
77664,79,44,70,140,9.0,2-5,other
77665,83,71,160,240,9.0,2-5,other
77666,86,99,270,210,9.0,2-5,other
77667,83,77,130,240,9.0,2-5,other
77668,28,64,33,97,9.0,2-5,other
77669,84,88,310,133,9.0,2-5,other
77670,76,52,90,300,9.0,2-5,other
77671,76,57,390,610,4.0,2-4,major
77672,45,82,210,940,4.0,2-6,other
77673,64,36,450,300,0.0,2-4,other
77674,45,79,150,350,0.0,2-4,other
77675,43,78,870,340,4.0,3-8B,other
77676,40,49,55,275,4.0,3-8B,other
77677,36,52,95,312,4.0,3-8B,other
77678,28,94,33,280,4.0,3-8B,other
77679,55,45,370,123,0.0,2-4,major
77680,62,51,150,1300,2.0,2-3,minor
77681,36,38,80,152,2.0,2-3,minor
77682,52,75,710,148,2.0,2-3,minor
77683,28,80,33,197,2.0,2-3,minor
77684,55,66,260,513,9.0,3-7A,minor
77685,52,63,280,270,9.0,3-7A,minor
77686,48,87,160,510,5.0,2-4,major
77687,36,36,168,282,9.0,2-2,other
77688,42,87,210,28,9.0,2-2,other
77689,28,68,33,277,2.0,4-26,minor
77690,36,33,447,48,2.0,4-26,minor
77691,43,90,3677,45,2.0,4-26,minor
77692,59,94,2020,530,4.0,2-2,other
77693,28,66,33,1297,8.0,4-28,diminished
77694,77,99,210,953,4.0,2-4,major
77695,74,52,160,280,4.0,2-4,major
77696,62,50,820,340,5.0,2-5,other
77697,46,49,180,150,8.0,3-10,minor
77698,28,78,33,127,8.0,3-10,minor
77699,74,66,140,63,8.0,3-10,minor
77700,48,72,2700,40,8.0,3-10,minor
77701,71,36,90,340,8.0,3-10,minor
77702,68,54,250,220,8.0,3-10,minor
77703,28,59,33,1257,4.0,3-3A,major
77704,65,69,70,123,4.0,3-3A,major
77705,68,61,200,100,4.0,3-3A,major
77706,65,54,130,140,4.0,3-3A,major
77707,62,55,120,170,4.0,3-3A,major
77708,60,61,140,290,1.0,2-6,other
77709,59,47,140,200,4.0,2-4,major
77710,36,88,2790,30,4.0,2-4,major
77711,58,25,70,180,4.0,2-4,major
77712,57,43,120,80,4.0,2-4,major
77713,56,83,510,150,4.0,2-4,major
77714,28,70,33,457,4.0,2-4,major
77715,59,58,220,123,4.0,2-4,major
77716,56,57,230,270,4.0,2-4,major
77717,57,66,680,250,4.0,2-4,major
77718,58,63,210,620,4.0,2-4,major
77719,59,79,230,230,4.0,2-4,major
77720,43,64,220,150,4.0,2-4,major
77721,62,83,320,160,4.0,2-4,major
77722,28,71,33,117,4.0,2-4,major
77723,48,79,1110,53,4.0,2-4,major
77724,59,63,220,110,4.0,2-4,major
77725,36,52,103,517,0.0,2-5,other
77726,64,77,300,33,0.0,2-5,other
77727,36,28,368,287,4.0,2-4,major
77728,36,42,88,600,7.0,2-4,major
77729,74,99,410,43,7.0,2-4,major
77730,40,61,80,90,7.0,2-4,major
77731,28,70,33,187,7.0,2-4,major
77732,69,55,190,353,6.0,2-6,other
77733,64,49,220,340,6.0,2-6,other
77734,54,28,110,90,6.0,2-6,other
77735,64,54,400,270,4.0,2-4,major
77736,64,52,190,610,6.0,2-6,other
77737,28,54,33,257,6.0,2-6,other
77738,27,64,65,655,9.0,2-5,other
77739,46,59,240,1088,4.0,2-4,major
77740,28,84,33,177,4.0,2-4,major
77741,47,81,2790,83,4.0,2-4,major
77742,25,64,65,1245,4.0,3-3B,other
77743,25,84,98,287,4.0,3-3B,other
77744,28,82,33,305,4.0,3-3B,other
77745,27,80,120,375,4.0,3-3B,other
77746,81,73,140,1258,9.0,3-5A,other
77747,84,69,200,970,9.0,5-24A,minor
77748,25,59,47,870,10.0,4-16A,major
77749,28,91,33,367,0.0,2-4,major
77750,58,52,200,983,4.0,4-16B,major
77751,57,26,70,40,4.0,4-16B,major
77752,58,29,110,980,5.0,6-31A,other
77753,96,89,220,180,5.0,6-31A,other
77754,93,69,190,220,5.0,6-31A,other
77755,89,63,240,230,5.0,6-31A,other
77756,40,61,70,40,5.0,6-31A,other
77757,41,55,80,30,5.0,6-31A,other
77758,45,98,650,210,1.0,3-11A,minor
77759,84,64,150,240,1.0,3-11A,minor
77760,83,54,110,240,1.0,3-11A,minor
77761,40,90,220,200,1.0,3-11A,minor
77762,28,61,33,247,1.0,3-11A,minor
77763,33,91,930,53,1.0,3-11A,minor
77764,82,80,210,50,1.0,3-11A,minor
77765,85,69,180,280,1.0,3-11A,minor
77766,79,69,110,490,1.0,2-3,other
77767,73,66,150,550,0.0,4-12A,major
77768,79,92,170,450,0.0,2-1,other
77769,78,43,50,110,4.0,1-1,other
77770,78,75,150,170,4.0,1-1,other
77771,63,48,180,50,4.0,1-1,other
77772,25,73,127,85,4.0,1-1,other
77773,69,66,50,135,4.0,1-1,other
77774,62,60,260,30,4.0,1-1,other
77775,72,79,140,200,2.0,2-3,minor
77776,61,56,260,40,2.0,2-3,minor
77777,60,41,70,320,1.0,3-11A,minor
77778,65,62,220,130,9.0,2-5,other
77779,60,57,490,60,9.0,2-5,other
77780,57,58,380,310,5.0,3-4A,other
77781,28,64,33,327,5.0,3-4A,other
77782,45,104,490,153,5.0,2-5,other
77783,38,89,410,560,5.0,2-5,other
77784,53,49,490,270,5.0,5-21A,major
77785,50,54,280,580,5.0,5-21A,major
77786,38,65,70,2020,5.0,3-8B,other
77787,50,87,160,540,7.0,2-5,other
77788,43,58,210,50,7.0,2-5,other
77789,47,84,150,230,7.0,2-5,other
77790,57,70,250,80,2.0,2-3,minor
77791,43,31,80,90,2.0,2-3,minor
77792,46,22,70,1870,0.0,2-1,other
77793,25,56,95,957,4.0,2-4,major
77794,28,68,33,280,4.0,2-4,major
77795,57,50,220,73,2.0,3-7A,minor
77796,33,87,105,542,2.0,3-7A,minor
77797,25,66,80,993,4.0,2-4,major
77798,47,48,320,75,2.0,3-11A,minor
77799,28,64,33,237,2.0,3-11A,minor
77800,35,49,120,713,11.0,2-3,minor
77801,65,48,160,310,4.0,2-4,major
77802,64,42,490,30,4.0,2-4,major
77803,41,85,170,250,4.0,2-4,major
77804,65,53,190,40,4.0,2-4,major
77805,28,66,33,577,2.0,4-3,minor
77806,56,40,1270,93,5.0,2-1,other
77807,62,31,420,50,5.0,2-1,other
77808,65,28,80,330,5.0,2-1,other
77809,64,49,180,540,4.0,2-4,major
77810,46,22,58,42,4.0,2-4,major
77811,64,55,160,268,4.0,2-4,major
77812,34,98,250,230,4.0,2-4,major
77813,76,68,220,90,4.0,2-5,other
77814,56,41,430,70,4.0,2-5,other
77815,62,23,130,50,4.0,2-5,other
77816,35,96,1957,120,4.0,2-5,other
77817,74,49,100,140,4.0,2-5,other
77818,74,64,220,260,4.0,2-5,other
77819,64,55,200,280,4.0,2-5,other
77820,56,55,70,680,4.0,2-4,major
77821,62,78,920,650,4.0,3-11B,major
77822,25,63,55,620,4.0,3-11B,major
77823,25,52,58,342,4.0,2-4,major
77824,25,77,105,593,4.0,2-4,major
77825,28,73,33,312,4.0,2-4,major
77826,56,36,1390,103,11.0,2-3,minor
77827,35,29,65,552,11.0,2-3,minor
77828,35,47,480,378,4.0,2-4,major
77829,35,54,120,600,4.0,2-4,major
77830,28,70,33,287,4.0,2-4,major
77831,56,96,240,33,4.0,2-4,major
77832,25,66,98,262,4.0,2-4,major
77833,59,65,150,128,4.0,2-4,major
77834,62,61,130,160,4.0,2-4,major
77835,67,66,50,140,4.0,2-4,major
77836,68,60,50,80,4.0,2-4,major
77837,74,55,120,310,4.0,2-4,major
77838,77,96,250,180,4.0,2-4,major
77839,25,64,175,300,4.0,2-4,major
77840,76,102,210,70,4.0,2-4,major
77841,28,77,33,257,4.0,2-4,major
77842,72,79,200,413,4.0,2-5,other
77843,45,91,2220,210,4.0,2-5,other
77844,74,66,170,80,4.0,2-5,other
77845,72,54,220,80,4.0,2-5,other
77846,71,68,230,620,4.0,2-4,major
77847,68,55,120,290,4.0,2-4,major
77848,64,47,70,170,4.0,2-4,major
77849,28,63,33,57,9.0,2-3,minor
77850,64,60,180,253,9.0,2-3,minor
77851,59,60,70,530,0.0,2-4,major
77852,52,32,70,150,0.0,2-4,major
77853,33,90,2820,70,4.0,3-8A,major
77854,55,28,90,40,4.0,3-8A,major
77855,59,34,70,230,4.0,3-8A,major
77856,52,36,140,80,4.0,3-8A,major
77857,60,60,450,90,4.0,3-8A,major
77858,45,40,1620,510,9.0,2-5,other
77859,52,26,490,50,9.0,2-5,other
77860,57,51,130,310,9.0,2-5,other
77861,35,31,95,247,9.0,2-5,other
77862,40,69,80,53,9.0,2-5,other
77863,57,61,430,330,4.0,4-29B,other
77864,55,40,730,30,4.0,4-29B,other
77865,35,24,88,1547,9.0,2-5,other
77866,33,73,190,33,9.0,2-5,other
77867,43,77,930,280,4.0,2-4,major
77868,33,62,160,650,0.0,4-24,augmented
77869,35,38,95,1885,4.0,2-4,major
77870,57,67,270,95,5.0,3-4B,other
77871,28,57,33,217,5.0,3-4B,other
77872,35,35,120,33,5.0,3-4B,other
77873,29,83,530,40,5.0,3-4B,other
77874,57,67,400,120,0.0,5-23B,major
77875,81,67,510,590,5.0,4-20,major
77876,90,38,70,30,5.0,4-20,major
77877,44,110,407,155,5.0,4-20,major
77878,31,85,1830,45,5.0,4-20,major
77879,35,43,80,580,5.0,4-20,major
77880,28,84,33,327,5.0,4-20,major
77881,93,80,370,113,5.0,5-20B,major
77882,57,68,260,640,4.0,3-5B,other
77883,27,63,145,862,5.0,5-24B,major
77884,94,33,130,988,3.0,6-28,other
77885,27,59,127,30,3.0,6-28,other
77886,27,84,55,640,8.0,2-3,other
77887,28,49,353,247,8.0,2-3,other
77888,35,35,80,95,8.0,2-3,other
77889,59,61,1160,228,8.0,2-6,other
77890,48,82,300,60,8.0,2-6,other
77891,83,92,180,410,1.0,2-2,other
77892,80,63,210,840,0.0,2-1,other
77893,77,63,130,260,11.0,2-3,minor
77894,74,56,210,250,11.0,2-3,minor
77895,28,68,33,97,11.0,2-3,minor
77896,71,43,150,173,11.0,2-3,minor
77897,77,79,210,230,11.0,2-3,minor
77898,76,74,190,580,4.0,2-4,major
77899,72,57,180,290,4.0,2-4,major
77900,47,91,630,30,4.0,2-4,major
77901,60,31,80,180,4.0,2-4,major
77902,67,57,200,70,4.0,2-4,major
77903,65,46,250,290,4.0,2-4,major
77904,28,78,33,77,4.0,2-4,major
77905,48,83,710,63,4.0,2-4,major
77906,46,26,63,217,4.0,2-4,major
77907,63,72,120,263,4.0,2-4,major
77908,35,45,95,57,4.0,2-4,major
77909,43,98,1870,143,9.0,2-5,other
77910,65,75,270,330,4.0,3-8B,other
77911,64,66,210,370,4.0,3-8B,other
77912,46,63,127,205,4.0,3-8B,other
77913,28,75,33,272,4.0,3-8B,other
77914,60,75,220,73,4.0,3-8B,other
77915,64,57,130,270,4.0,3-8B,other
77916,36,98,1250,270,0.0,2-2,other
77917,55,46,220,30,0.0,2-2,other
77918,35,36,80,172,0.0,2-2,other
77919,35,47,65,320,4.0,3-5A,other
77920,52,52,350,78,4.0,3-5A,other
77921,28,82,353,387,4.0,3-5A,other
77922,35,42,105,88,4.0,3-5A,other
77923,42,89,2050,215,4.0,3-5A,other
77924,28,66,33,1937,6.0,3-8B,other
77925,69,86,210,1043,4.0,2-4,major
77926,71,75,180,270,4.0,2-4,major
77927,72,82,320,170,4.0,2-4,major
77928,42,68,250,180,4.0,2-4,major
77929,27,63,63,617,11.0,4-15B,minor
77930,57,42,260,633,4.0,4-20,major
77931,62,44,150,410,4.0,4-20,major
77932,66,47,220,960,9.0,2-5,other
77933,62,33,100,50,9.0,2-5,other
77934,39,84,190,760,9.0,3-4B,other
77935,40,91,290,310,9.0,3-4B,other
77936,35,35,80,70,9.0,3-4B,other
77937,63,52,2140,240,9.0,3-4B,other
77938,56,34,2110,90,4.0,3-5B,other
77939,67,67,180,880,4.0,3-5B,other
77940,65,56,90,230,4.0,2-4,major
77941,67,61,210,230,4.0,2-4,major
77942,35,42,65,185,4.0,2-4,major
77943,68,84,260,75,4.0,2-4,major
77944,70,69,190,220,4.0,2-4,major
77945,28,75,33,57,4.0,2-4,major
77946,71,80,180,203,4.0,2-4,major
77947,73,83,240,200,4.0,2-4,major
77948,75,83,160,180,4.0,2-4,major
77949,59,48,730,150,3.0,2-4,other
77950,77,81,180,50,3.0,2-4,other
77951,56,27,710,30,3.0,2-4,other
77952,33,72,960,180,4.0,3-3B,other
77953,80,58,220,110,4.0,3-3B,other
77954,82,66,110,160,4.0,3-3B,other
77955,83,67,150,160,4.0,3-3B,other
77956,85,59,190,240,0.0,2-4,major
77957,86,67,150,180,0.0,2-4,major
77958,86,56,100,310,3.0,3-4A,other
77959,35,36,105,2382,8.0,4-27B,other
77960,35,49,302,378,10.0,2-4,major
77961,28,89,33,847,1.0,5-10A,minor
77962,39,88,1860,113,1.0,5-10A,minor
77963,28,73,353,1487,4.0,2-4,major
77964,46,96,630,343,4.0,2-4,major
77965,39,66,260,1660,0.0,7-30B,other
77966,87,36,590,80,0.0,7-30B,other
77967,28,85,33,157,0.0,7-30B,other
77968,44,87,870,53,0.0,7-30B,other
77969,91,51,70,1030,10.0,6-34A,augmented
77970,28,71,33,837,10.0,6-34A,augmented
77971,35,31,95,1033,4.0,2-4,major
77972,89,38,190,280,0.0,4-25,major
77973,28,75,353,287,0.0,4-25,major
77974,37,97,1940,353,1.0,3-3A,minor
77975,56,42,1420,1690,5.0,3-11A,other
77976,28,63,33,197,5.0,3-11A,other
77977,49,118,1760,63,5.0,3-11A,other
77978,37,35,55,570,5.0,3-11A,other
77979,99,90,320,490,4.0,2-4,major
77980,97,80,250,340,4.0,2-4,major
77981,94,81,220,910,0.0,2-4,major
77982,35,29,62,260,0.0,2-4,major
77983,90,81,200,80,0.0,2-4,major
77984,94,39,70,30,0.0,2-4,major
77985,88,50,250,300,4.0,2-4,major
77986,42,77,210,150,4.0,2-4,major
77987,93,83,260,160,4.0,2-4,major
77988,62,66,1930,50,4.0,2-4,major
77989,89,68,190,260,4.0,1-1,other
77990,29,64,1920,185,4.0,1-1,other
77991,41,88,1310,45,4.0,1-1,other
77992,87,57,310,90,4.0,1-1,other
77993,84,56,180,300,4.0,1-1,other
77994,82,63,210,310,4.0,1-1,other
77995,37,82,200,530,4.0,2-4,major
77996,34,74,270,290,4.0,2-4,major
77997,81,45,160,140,4.0,2-4,major
77998,36,94,1820,180,4.0,2-4,major
77999,84,46,90,131,9.0,2-6,other
78000,35,40,62,129,9.0,2-6,other
78001,34,87,280,1460,3.0,2-5,other
78002,51,98,800,227,3.0,2-5,other
78003,48,105,210,53,3.0,2-5,other
78004,49,79,290,280,3.0,2-5,other
78005,48,97,1070,330,3.0,2-5,other
78006,39,77,220,770,3.0,2-5,other
78007,51,75,93,167,3.0,2-5,other
78008,75,73,60,63,1.0,4-11A,other
78009,40,83,330,70,1.0,4-11A,other
78010,51,66,293,187,1.0,4-11A,other
78011,35,24,455,33,1.0,4-11A,other
78012,41,95,650,110,5.0,3-11B,major
78013,87,41,230,640,6.0,3-5B,other
78014,44,84,367,185,6.0,3-5B,other
78015,29,108,570,255,6.0,3-10,minor
78016,51,82,160,377,6.0,3-10,minor
78017,51,47,3,320,10.0,3-3B,other
78018,29,98,1750,63,10.0,3-3B,other
78019,80,50,560,120,6.0,3-10,minor
78020,53,64,200,457,6.0,3-10,minor
78021,60,58,340,353,3.0,2-5,other
78022,34,66,95,335,0.0,1-1,other
78023,35,17,385,1607,3.0,2-5,other
78024,51,75,135,578,3.0,2-5,other
78025,35,26,80,47,3.0,2-5,other
78026,51,87,760,280,3.0,2-5,other
78027,77,64,100,373,0.0,4-26,other
78028,78,66,180,130,0.0,4-26,other
78029,76,63,110,250,5.0,2-1,other
78030,75,60,200,160,5.0,2-1,other
78031,41,82,870,80,3.0,2-5,other
78032,72,60,120,80,3.0,2-5,other
78033,69,56,120,200,3.0,2-5,other
78034,66,52,150,180,3.0,2-5,other
78035,65,40,240,210,3.0,2-4,other
78036,56,46,630,470,3.0,2-5,other
78037,53,23,360,30,3.0,2-5,other
78038,61,78,310,180,3.0,2-5,other
78039,35,36,63,257,3.0,2-5,other
78040,61,61,210,173,5.0,2-2,other
78041,57,63,140,180,3.0,2-5,other
78042,60,66,210,220,3.0,2-5,other
78043,57,41,80,290,3.0,2-5,other
78044,58,63,180,220,3.0,2-5,other
78045,56,45,270,120,3.0,2-5,other
78046,51,75,448,37,3.0,2-5,other
78047,60,66,150,33,3.0,2-5,other
78048,41,82,360,30,3.0,2-5,other
78049,61,58,160,180,3.0,2-5,other
78050,65,73,157,240,3.0,2-5,other
78051,70,68,170,220,3.0,2-1,other
78052,56,43,260,190,3.0,2-1,other
78053,69,55,90,330,0.0,4-15B,other
78054,70,71,160,240,0.0,4-15B,other
78055,40,70,58,72,0.0,4-15B,other
78056,38,75,150,88,0.0,4-15B,other
78057,72,64,180,30,0.0,4-15B,other
78058,73,72,210,230,0.0,4-15B,other
78059,65,52,150,70,3.0,1-1,other
78060,58,40,80,60,6.0,2-5,other
78061,58,16,990,230,11.0,2-2,other
78062,70,60,240,150,11.0,2-2,other
78063,73,69,140,190,11.0,2-2,other
78064,75,74,150,260,11.0,2-2,other
78065,72,55,70,240,3.0,2-5,other
78066,73,61,190,200,3.0,2-5,other
78067,75,70,270,160,3.0,2-5,other
78068,51,98,800,397,10.0,2-4,other
78069,46,95,620,33,10.0,2-4,other
78070,74,55,70,120,10.0,2-4,other
78071,75,54,230,220,10.0,2-4,other
78072,77,48,160,220,10.0,2-4,other
78073,39,74,230,90,10.0,2-4,other
78074,78,68,210,140,10.0,2-4,other
78075,76,50,70,280,9.0,3-5B,other
78076,77,20,100,320,9.0,3-5B,other
78077,78,56,200,80,9.0,3-5B,other
78078,51,75,168,97,9.0,3-5B,other
78079,80,66,200,173,3.0,2-4,other
78080,54,30,1090,110,0.0,2-4,major
78081,51,66,720,37,0.0,2-4,major
78082,77,48,170,133,8.0,2-3,minor
78083,78,63,160,230,8.0,2-3,minor
78084,80,58,140,200,8.0,2-3,minor
78085,60,28,580,30,8.0,2-3,minor
78086,39,66,200,60,8.0,2-3,minor
78087,35,31,80,75,8.0,2-3,minor
78088,81,59,150,85,8.0,2-3,minor
78089,86,66,200,180,3.0,2-5,other
78090,90,72,120,220,3.0,2-5,other
78091,93,85,170,210,3.0,2-5,other
78092,51,82,160,177,3.0,2-5,other
78093,98,82,310,53,3.0,2-5,other
78094,60,29,550,240,6.0,2-2,other
78095,53,64,200,667,9.0,1-1,other
78096,60,52,980,293,6.0,2-2,other
78097,34,66,95,395,3.0,2-5,other
78098,51,84,808,592,3.0,2-5,other
78099,60,75,230,463,9.0,3-2B,minor
78100,58,46,250,260,9.0,3-2B,minor
78101,59,18,90,110,9.0,3-2B,minor
78102,51,75,135,760,6.0,3-10,diminished
78103,51,87,760,327,11.0,3-7B,other
78104,44,62,120,633,9.0,2-3,minor
78105,48,80,870,300,5.0,4-19B,other
78106,65,48,420,180,0.0,3-11B,other
78107,72,51,350,40,0.0,3-11B,other
78108,60,50,320,550,8.0,2-3,other
78109,51,77,735,217,1.0,2-2,other
78110,68,41,570,363,1.0,2-2,other
78111,35,36,63,317,5.0,3-11A,other
78112,51,70,88,920,5.0,3-4A,other
78113,56,41,130,103,5.0,3-4A,other
78114,51,75,448,217,5.0,3-4A,other
78115,60,47,350,73,5.0,3-4A,other
78116,37,79,270,530,5.0,3-4A,other
78117,51,77,55,37,5.0,3-4A,other
78118,44,49,820,383,4.0,4-29A,other
78119,53,59,140,410,4.0,4-29A,other
78120,40,70,120,102,4.0,4-29A,other
78121,58,56,70,708,8.0,3-10,minor
78122,60,61,90,150,8.0,3-10,minor
78123,63,54,50,270,1.0,1-1,other
78124,65,63,140,130,1.0,1-1,other
78125,35,36,535,47,1.0,1-1,other
78126,67,52,120,123,3.0,3-4B,other
78127,68,55,180,50,3.0,3-4B,other
78128,70,55,50,160,3.0,3-4B,other
78129,72,58,60,140,3.0,3-4B,other
78130,73,45,67,140,3.0,3-4B,other
78131,51,56,175,67,3.0,3-4B,other
78132,75,50,50,43,3.0,3-4B,other
78133,76,41,70,170,3.0,3-4B,other
78134,77,30,90,120,1.0,2-2,other
78135,78,62,100,110,1.0,2-2,other
78136,79,68,150,140,1.0,2-2,other
78137,80,85,140,830,3.0,3-11A,other
78138,82,59,180,240,3.0,3-11A,other
78139,80,54,240,60,3.0,3-11A,other
78140,78,75,180,430,7.0,2-4,major
78141,79,55,230,230,0.0,2-3,minor
78142,77,74,120,300,0.0,2-3,minor
78143,75,66,180,270,0.0,2-3,minor
78144,48,100,350,310,4.0,3-4A,major
78145,73,60,230,160,4.0,3-4A,major
78146,49,73,310,110,4.0,3-4A,major
78147,72,62,100,190,4.0,3-4A,major
78148,51,82,120,127,4.0,3-4A,major
78149,48,92,2220,33,4.0,3-4A,major
78150,70,63,1910,150,4.0,3-4A,major
78151,51,56,520,137,4.0,3-4A,major
78152,34,40,105,255,4.0,3-4A,major
78153,67,38,460,808,3.0,2-5,other
78154,40,87,280,590,4.0,2-6,other
78155,56,48,210,1930,8.0,3-10,minor
78156,53,58,410,370,3.0,5-17,other
78157,35,26,128,887,3.0,2-5,other
78158,29,74,210,283,4.0,5-16A,other
78159,60,41,640,1680,3.0,2-5,other
78160,45,96,300,530,3.0,2-5,other
78161,37,98,200,1030,0.0,4-22A,other
78162,35,52,55,630,3.0,5-29A,other
78163,39,75,200,320,3.0,2-4,other
78164,37,65,240,50,3.0,2-4,other
78165,53,85,1000,300,10.0,4-20,other
78166,58,50,210,990,6.0,2-3,other
78167,51,77,695,867,6.0,3-4B,other
78168,46,94,820,43,6.0,3-4B,other
78169,35,57,65,525,6.0,3-4B,other
78170,35,68,95,920,9.0,3-5B,other
78171,44,84,1230,395,10.0,2-1,other
78172,51,87,720,37,10.0,2-1,other
78173,51,87,775,960,2.0,5-34,major
78174,35,47,80,640,0.0,2-4,other
78175,51,82,800,320,0.0,2-4,other
78176,60,61,420,763,3.0,4-11A,other
78177,35,49,160,877,0.0,1-1,other
78178,37,72,320,213,0.0,1-1,other
78179,53,77,220,30,0.0,1-1,other
78180,51,73,808,37,0.0,1-1,other
78181,52,71,230,253,5.0,3-11A,other
78182,36,61,230,60,5.0,3-11A,other
78183,35,49,80,1255,3.0,2-5,other
78184,51,68,208,32,3.0,2-5,other
78185,56,48,1150,353,5.0,3-7B,other
78186,61,43,80,1790,3.0,2-5,other
78187,61,47,150,450,6.0,2-6,other
78188,72,50,170,260,3.0,3-4A,other
78189,61,39,90,320,3.0,3-4A,other
78190,75,61,220,190,3.0,2-5,other
78191,35,29,88,572,1.0,3-11A,minor
78192,51,70,560,225,1.0,3-11A,minor
78193,58,39,210,443,0.0,2-4,major
78194,34,36,88,277,4.0,2-4,major
78195,60,56,270,463,0.0,3-12,augmented
78196,49,99,270,130,0.0,3-12,augmented
78197,34,43,47,80,0.0,3-12,augmented
78198,57,19,47,575,0.0,2-3,minor
78199,35,63,143,32,0.0,2-3,minor
78200,65,56,510,1803,1.0,2-3,other
78201,51,80,760,37,1.0,2-3,other
78202,42,87,1950,63,1.0,2-3,other
78203,58,60,470,550,6.0,2-5,other
78204,65,57,430,290,6.0,2-5,other
78205,61,33,250,30,6.0,2-5,other
78206,46,36,80,650,3.0,2-5,other
78207,30,50,220,890,3.0,2-4,other
78208,57,57,760,360,5.0,3-7B,other
78209,35,50,105,615,8.0,2-2,other
78210,51,68,88,72,8.0,2-2,other
78211,29,60,170,293,8.0,2-2,other
78212,51,75,768,27,8.0,2-2,other
78213,72,76,270,653,8.0,2-2,other
78214,77,56,150,620,1.0,3-9,other
78215,36,85,210,60,1.0,3-9,other
78216,82,85,200,230,1.0,3-9,other
78217,51,84,168,37,1.0,3-9,other
78218,33,75,220,63,1.0,3-9,other
78219,35,33,440,297,0.0,3-2B,other
78220,82,57,90,273,0.0,3-2B,other
78221,65,24,80,370,0.0,1-1,other
78222,35,33,87,45,0.0,1-1,other
78223,61,33,90,265,3.0,4-23,other
78224,60,39,80,620,5.0,2-4,other
78225,35,31,65,2275,1.0,3-7B,other
78226,35,47,65,640,1.0,3-7B,other
78227,51,56,128,912,3.0,2-5,other
78228,51,112,160,960,11.0,5-5A,other
78229,60,55,50,103,5.0,2-4,other
78230,46,77,983,260,3.0,2-5,other
78231,35,90,963,734,3.0,2-5,other
78232,49,50,963,27,3.0,2-5,other
78233,51,96,771,156,3.0,2-5,other
78234,47,86,1850,36,3.0,2-5,other
78235,41,81,1870,1680,3.0,2-4,other
78236,51,96,840,207,3.0,2-4,other
78237,35,43,520,33,3.0,2-4,other
78238,39,78,240,1530,3.0,2-5,other
78239,53,124,240,37,3.0,2-5,other
78240,40,67,610,243,3.0,2-5,other
78241,35,70,250,650,11.0,2-2,other
78242,32,74,1010,300,11.0,2-2,other
78243,76,72,470,1100,4.0,2-1,other
78244,35,52,65,632,4.0,2-1,other
78245,30,34,160,68,4.0,2-1,other
78246,77,82,450,240,3.0,2-5,other
78247,51,57,160,597,3.0,2-5,other
78248,35,56,95,48,3.0,2-5,other
78249,74,77,820,375,0.0,2-4,major
78250,59,36,340,60,0.0,2-4,major
78251,35,74,760,840,3.0,2-5,other
78252,71,49,390,90,3.0,2-5,other
78253,33,62,250,590,3.0,2-5,other
78254,60,40,330,120,3.0,2-5,other
78255,36,76,1010,130,3.0,2-4,other
78256,74,81,880,110,3.0,2-4,other
78257,35,31,98,492,3.0,2-4,other
78258,71,50,350,408,3.0,3-4A,other
78259,40,49,55,257,3.0,3-4A,other
78260,51,57,168,320,3.0,3-4A,other
78261,40,47,55,633,3.0,3-4B,other
78262,35,42,63,327,3.0,3-4B,other
78263,40,45,80,288,9.0,3-11A,minor
78264,45,68,500,225,3.0,3-9,other
78265,40,78,230,450,3.0,3-9,other
78266,43,52,740,390,4.0,2-6,other
78267,60,24,120,140,4.0,2-6,other
78268,40,83,190,410,4.0,2-6,other
78269,35,36,88,32,4.0,2-6,other
78270,51,63,760,305,8.0,2-1,other
78271,64,39,330,33,8.0,2-1,other
78272,60,42,450,60,8.0,2-1,other
78273,35,50,55,235,8.0,2-1,other
78274,51,87,655,632,4.0,2-5,other
78275,53,46,1790,83,0.0,3-4A,major
78276,57,52,1190,50,0.0,3-4A,major
78277,45,64,90,150,0.0,3-4A,major
78278,41,92,210,100,0.0,3-4A,major
78279,36,87,930,400,0.0,3-4A,major
78280,51,68,168,697,3.0,2-5,other
78281,33,89,1400,253,0.0,2-4,major
78282,51,61,760,67,0.0,2-4,major
78283,81,57,230,163,0.0,2-4,major
78284,41,80,100,1130,4.0,2-5,other
78285,91,115,610,270,4.0,2-5,other
78286,43,72,70,70,4.0,2-5,other
78287,53,42,1180,140,4.0,2-5,other
78288,51,87,648,147,4.0,2-5,other
78289,89,81,450,113,9.0,2-2,other
78290,85,68,260,620,9.0,2-2,other
78291,35,36,95,915,11.0,2-3,minor
78292,63,61,1100,65,11.0,2-3,minor
78293,53,28,1340,130,11.0,2-3,minor
78294,59,41,150,900,3.0,2-4,other
78295,86,72,370,310,3.0,2-5,other
78296,89,89,350,530,7.0,2-4,major
78297,62,59,1000,60,7.0,2-4,major
78298,56,39,170,130,11.0,2-6,other
78299,86,60,350,290,3.0,2-1,other
78300,43,72,90,370,3.0,2-1,other
78301,59,38,440,50,3.0,2-1,other
78302,56,1,500,50,3.0,2-1,other
78303,83,73,280,30,3.0,2-1,other
78304,53,15,1490,80,3.0,2-1,other
78305,48,75,2530,130,3.0,2-1,other
78306,80,56,370,200,3.0,2-5,other
78307,35,38,80,475,3.0,2-5,other
78308,56,43,350,95,11.0,2-3,minor
78309,77,61,130,130,11.0,2-3,minor
78310,51,78,807,80,11.0,2-3,minor
78311,80,72,390,240,11.0,2-3,minor
78312,42,64,230,360,11.0,2-3,minor
78313,83,85,300,130,11.0,2-3,minor
78314,62,38,190,120,11.0,2-6,other
78315,86,117,530,250,3.0,2-5,other
78316,35,71,230,490,3.0,2-5,other
78317,59,47,340,170,3.0,2-5,other
78318,84,87,480,360,0.0,2-3,minor
78319,53,85,248,447,0.0,2-3,minor
78320,62,25,190,173,4.0,2-3,minor
78321,57,27,200,120,4.0,2-3,minor
78322,76,44,430,240,3.0,3-4B,other
78323,75,46,120,410,3.0,3-4B,other
78324,35,42,222,50,3.0,3-4B,other
78325,74,70,280,190,6.0,2-3,minor
78326,35,38,458,152,3.0,2-1,other
78327,72,24,510,238,3.0,2-1,other
78328,35,33,80,402,3.0,2-1,other
78329,57,36,150,68,3.0,2-1,other
78330,71,57,510,370,3.0,2-5,other
78331,53,105,520,440,3.0,2-5,other
78332,51,54,160,27,3.0,2-5,other
78333,51,101,800,320,3.0,2-5,other
78334,69,57,550,83,3.0,2-5,other
78335,64,32,950,40,3.0,2-5,other
78336,69,63,620,960,3.0,2-5,other
78337,35,45,240,485,3.0,2-5,other
78338,51,56,200,32,3.0,2-5,other
78339,60,32,400,183,3.0,2-5,other
78340,69,64,370,320,3.0,2-4,other
78341,54,46,180,520,0.0,2-3,minor
78342,71,55,220,70,0.0,2-3,minor
78343,42,67,870,220,3.0,2-5,other
78344,72,65,730,150,3.0,2-5,other
78345,39,52,120,640,3.0,2-5,other
78346,69,44,3590,280,11.0,2-3,minor
78347,31,42,103,177,11.0,2-3,minor
78348,40,73,940,703,3.0,3-4B,other
78349,51,92,800,897,2.0,3-5B,other
78350,42,66,820,63,2.0,3-5B,other
78351,31,57,95,290,2.0,3-5B,other
78352,40,72,890,1530,3.0,2-5,other
78353,52,39,1050,120,10.0,2-1,other
78354,35,47,63,557,10.0,2-1,other
78355,39,60,200,63,10.0,2-1,other
78356,46,83,1340,210,10.0,2-1,other
78357,70,53,520,180,3.0,2-5,other
78358,69,50,260,970,3.0,2-5,other
78359,50,96,200,180,3.0,2-5,other
78360,70,64,130,90,3.0,2-5,other
78361,72,64,390,300,8.0,2-1,other
78362,51,49,208,887,3.0,2-5,other
78363,45,82,2170,293,3.0,2-5,other
78364,51,98,815,27,3.0,2-5,other
78365,35,42,95,640,5.0,3-8B,other
78366,44,61,220,43,5.0,3-8B,other
78367,72,65,210,160,5.0,3-8B,other
78368,73,58,280,320,3.0,4-14A,other
78369,75,64,100,260,3.0,4-14A,other
78370,76,66,280,200,3.0,4-14A,other
78371,61,44,240,50,3.0,4-14A,other
78372,57,85,850,310,6.0,2-3,other
78373,79,78,220,220,6.0,2-3,other
78374,35,42,95,77,6.0,2-3,other
78375,61,46,340,33,6.0,2-3,other
78376,81,66,240,170,6.0,2-3,other
78377,35,33,87,85,6.0,2-3,other
78378,45,80,150,45,6.0,2-3,other
78379,82,66,90,80,6.0,2-3,other
78380,84,66,190,270,3.0,4-19A,other
78381,61,41,210,70,3.0,4-19A,other
78382,85,63,310,100,3.0,4-19A,other
78383,87,52,100,310,3.0,4-19A,other
78384,35,59,80,45,3.0,4-19A,other
78385,88,59,270,125,3.0,4-19A,other
78386,53,84,720,200,3.0,4-19A,other
78387,51,70,840,27,3.0,4-19A,other
78388,91,107,660,73,3.0,4-19A,other
78389,60,65,410,150,3.0,4-19A,other
78390,50,36,720,130,3.0,4-19A,other
78391,89,82,550,50,3.0,4-19A,other
78392,49,96,330,250,3.0,4-19A,other
78393,88,82,360,430,3.0,2-5,other
78394,51,84,200,517,3.0,2-5,other
78395,60,50,270,113,0.0,2-1,other
78396,57,43,200,90,0.0,2-1,other
78397,45,81,620,90,2.0,2-3,minor
78398,51,73,808,27,2.0,2-3,minor
78399,81,68,240,623,2.0,2-3,minor
78400,42,81,900,280,5.0,2-4,major
78401,39,58,330,770,3.0,2-1,other
78402,51,56,840,247,3.0,2-1,other
78403,64,37,920,73,11.0,1-1,other
78404,53,40,990,30,11.0,1-1,other
78405,43,77,180,200,11.0,1-1,other
78406,38,96,180,290,11.0,1-1,other
78407,63,57,100,940,3.0,2-5,other
78408,56,40,540,140,11.0,2-6,other
78409,31,90,940,290,3.0,2-5,other
78410,59,58,290,600,8.0,2-3,other
78411,63,50,100,30,8.0,2-3,other
78412,56,43,170,40,8.0,2-3,other
78413,35,83,900,280,3.0,2-5,other
78414,75,57,500,60,3.0,2-5,other
78415,52,38,280,580,3.0,2-4,other
78416,35,22,88,367,0.0,3-11A,minor
78417,59,38,160,533,0.0,3-11A,minor
78418,74,37,130,60,0.0,3-11A,minor
78419,77,84,490,370,9.0,3-5B,other
78420,36,59,230,480,9.0,3-5B,other
78421,76,72,240,50,9.0,3-5B,other
78422,51,49,848,27,9.0,3-5B,other
78423,35,29,95,48,9.0,3-5B,other
78424,43,77,880,245,9.0,2-3,minor
78425,72,47,400,160,9.0,2-3,minor
78426,34,33,102,180,9.0,2-3,minor
78427,35,42,98,302,9.0,2-3,minor
78428,57,43,120,168,0.0,2-5,other
78429,51,66,120,817,3.0,2-5,other
78430,58,44,280,103,3.0,2-5,other
78431,47,86,1000,190,0.0,2-2,other
78432,69,70,650,90,2.0,3-2A,minor
78433,64,72,650,50,2.0,3-2A,minor
78434,62,42,150,740,2.0,3-2A,minor
78435,39,88,997,70,2.0,3-2A,minor
78436,65,49,560,180,9.0,2-5,other
78437,51,103,128,497,9.0,2-5,other
78438,31,70,80,360,4.0,2-1,other
78439,68,59,520,93,11.0,3-10,diminished
78440,31,87,80,427,11.0,3-10,diminished
78441,53,127,168,80,11.0,3-10,diminished
78442,39,74,270,63,11.0,3-10,diminished
78443,56,49,830,170,11.0,3-10,diminished
78444,64,60,310,30,11.0,3-10,diminished
78445,52,105,1620,90,3.0,2-5,other
78446,71,57,760,90,8.0,3-10,other
78447,31,77,102,270,8.0,3-10,other
78448,62,31,1110,510,3.0,2-4,major
78449,69,64,550,190,2.0,2-3,minor
78450,47,107,3040,500,2.0,2-3,minor
78451,71,60,460,460,5.0,3-4A,major
78452,51,61,728,827,5.0,3-4A,major
78453,74,46,690,153,2.0,2-3,minor
78454,41,78,200,530,2.0,2-3,minor
78455,74,46,140,460,9.0,3-9,other
78456,51,127,208,457,9.0,3-9,other
78457,71,54,360,483,8.0,3-10,other
78458,34,43,128,157,8.0,3-10,other
78459,35,45,80,313,8.0,3-10,other
78460,34,36,178,942,3.0,4-14A,other
78461,56,60,380,118,3.0,4-14A,other
78462,62,42,120,70,3.0,4-14A,other
78463,35,33,105,212,5.0,2-2,other
78464,65,42,220,708,3.0,2-4,other
78465,29,58,280,150,3.0,2-4,other
78466,68,59,300,220,3.0,2-5,other
78467,35,38,138,442,3.0,2-5,other
78468,28,98,300,38,3.0,2-5,other
78469,71,85,360,30,3.0,2-5,other
78470,62,57,390,50,3.0,2-5,other
78471,59,63,390,70,3.0,2-5,other
78472,56,31,2830,50,3.0,2-5,other
78473,51,120,768,107,3.0,2-5,other
78474,68,56,520,163,11.0,2-2,other
78475,59,39,370,580,11.0,2-2,other
78476,40,86,960,290,3.0,2-5,other
78477,65,62,480,100,3.0,2-5,other
78478,68,66,370,510,3.0,2-4,other
78479,71,54,300,510,3.0,2-4,other
78480,74,92,370,450,3.0,2-4,other
78481,62,57,500,60,3.0,2-4,other
78482,37,56,90,80,3.0,2-4,other
78483,71,59,340,310,3.0,3-9,other
78484,72,87,450,490,3.0,2-4,other
78485,57,24,170,360,3.0,2-1,other
78486,69,63,260,90,3.0,2-1,other
78487,45,85,120,210,3.0,2-1,other
78488,57,52,270,240,3.0,2-1,other
78489,64,59,360,50,3.0,2-1,other
78490,65,37,150,50,3.0,2-1,other
78491,43,105,1510,320,3.0,2-5,other
78492,60,41,580,120,3.0,2-5,other
78493,52,48,290,490,3.0,2-5,other
78494,45,54,1140,70,3.0,2-5,other
78495,51,77,720,217,3.0,2-5,other
78496,55,56,810,43,3.0,2-5,other
78497,64,64,420,120,3.0,2-5,other
78498,37,50,200,517,4.0,2-5,other
78499,41,54,670,1023,1.0,4-1,other
78500,48,43,150,30,1.0,4-1,other
78501,51,96,768,187,1.0,4-1,other
78502,35,28,128,55,1.0,4-1,other
78503,63,51,290,168,1.0,4-1,other
78504,36,70,970,790,3.0,2-5,other
78505,69,66,360,40,3.0,2-5,other
78506,72,68,270,500,3.0,2-5,other
78507,35,28,98,102,3.0,2-5,other
78508,64,49,120,68,3.0,2-5,other
78509,60,54,200,930,5.0,3-4B,other
78510,57,36,180,110,5.0,3-4B,other
78511,69,39,130,280,0.0,2-4,major
78512,75,47,110,530,4.0,4-14A,minor
78513,51,73,808,267,5.0,2-5,other
78514,31,73,870,43,5.0,2-5,other
78515,72,55,610,150,0.0,2-5,other
78516,35,45,80,440,10.0,2-1,other
78517,76,66,230,390,3.0,4-16B,other
78518,57,23,180,160,3.0,4-16B,other
78519,78,33,140,90,3.0,4-16B,other
78520,34,36,178,302,3.0,4-16B,other
78521,38,61,313,65,3.0,4-16B,other
78522,35,33,105,335,3.0,2-4,other
78523,82,63,420,368,3.0,2-4,other
78524,70,56,275,70,3.0,2-4,other
78525,64,63,480,40,3.0,2-4,other
78526,75,41,310,60,3.0,2-4,other
78527,38,61,150,110,3.0,2-4,other
78528,68,57,230,470,3.0,2-5,other
78529,75,35,150,110,3.0,2-5,other
78530,78,36,150,30,3.0,2-5,other
78531,35,38,138,262,3.0,2-5,other
78532,38,72,110,28,3.0,2-5,other
78533,56,50,1370,270,0.0,2-1,other
78534,51,120,768,47,0.0,2-1,other
78535,35,31,103,40,0.0,2-1,other
78536,76,41,380,433,11.0,1-1,other
78537,59,45,360,430,11.0,1-1,other
78538,80,56,300,260,3.0,2-5,other
78539,83,65,410,1070,3.0,2-4,major
78540,71,39,300,50,3.0,2-4,major
78541,76,39,350,30,3.0,2-4,major
78542,80,25,150,110,3.0,2-4,major
78543,59,31,270,30,3.0,2-4,major
78544,60,71,1300,590,0.0,1-1,other
78545,57,69,1240,70,4.0,2-2,other
78546,55,63,1180,60,4.0,2-2,other
78547,50,120,1890,2280,3.0,2-5,other
78548,55,48,810,420,9.0,2-5,other
78549,37,50,200,567,9.0,2-5,other
78550,43,62,80,73,9.0,2-5,other
78551,36,66,100,50,9.0,2-5,other
78552,35,24,120,245,9.0,3-5A,other
78553,48,76,210,455,9.0,3-5A,other
78554,47,91,180,290,1.0,2-2,other
78555,35,28,128,182,6.0,3-10,other
78556,45,80,840,168,6.0,3-10,other
78557,42,78,1020,840,9.0,3-5B,other
78558,35,28,98,592,9.0,3-5B,other
78559,76,60,780,1328,3.0,2-5,other
78560,42,65,100,570,10.0,2-1,other
78561,35,21,135,320,3.0,2-4,other
78562,57,43,440,160,3.0,2-1,other
78563,31,50,143,407,3.0,2-1,other
78564,62,48,1220,993,3.0,3-7B,other
78565,57,43,970,80,3.0,3-7B,other
78566,31,45,135,1560,3.0,2-5,other
78567,63,57,100,240,3.0,2-5,other
78568,83,87,380,210,1.0,2-2,other
78569,56,19,250,30,1.0,2-2,other
78570,51,66,695,127,5.0,2-4,other
78571,35,52,447,33,5.0,2-4,other
78572,91,85,490,210,5.0,2-4,other
78573,59,23,420,200,5.0,2-4,other
78574,56,19,220,190,5.0,2-4,other
78575,43,88,820,300,5.0,2-4,other
78576,91,92,580,130,3.0,2-5,other
78577,63,50,100,500,3.0,2-5,other
78578,59,44,480,90,3.0,3-8B,other
78579,56,32,400,110,3.0,3-8B,other
78580,83,61,380,290,3.0,2-5,other
78581,59,35,140,650,3.0,2-5,other
78582,56,20,160,140,3.0,2-5,other
78583,51,99,735,37,3.0,2-5,other
78584,80,56,630,73,3.0,2-5,other
78585,45,96,400,570,3.0,2-5,other
78586,79,54,360,420,8.0,2-3,minor
78587,78,65,580,950,3.0,2-5,other
78588,62,47,390,510,3.0,2-5,other
78589,51,84,775,357,3.0,3-8B,other
78590,34,81,1190,73,3.0,3-8B,other
78591,77,66,1250,60,3.0,3-8B,other
78592,31,49,65,482,3.0,3-8B,other
78593,56,48,390,68,3.0,3-8B,other
78594,62,43,120,60,3.0,3-8B,other
78595,41,86,120,560,3.0,2-5,other
78596,31,64,145,32,3.0,2-5,other
78597,34,54,240,298,3.0,2-1,other
78598,76,74,380,30,3.0,2-1,other
78599,61,46,560,200,6.0,2-1,other
78600,58,45,1200,30,6.0,2-1,other
78601,51,98,728,27,6.0,2-1,other
78602,39,87,1000,43,6.0,2-1,other
78603,35,33,487,30,6.0,2-1,other
78604,78,82,560,250,6.0,2-1,other
78605,61,34,420,440,6.0,2-1,other
78606,73,74,420,310,3.0,3-9,other
78607,35,28,135,535,3.0,3-9,other
78608,39,76,150,45,3.0,3-9,other
78609,61,46,157,110,5.0,2-5,other
78610,42,71,290,810,3.0,2-4,other
78611,42,73,190,1010,0.0,2-4,major
78612,70,82,430,90,0.0,2-4,major
78613,51,98,760,167,0.0,2-4,major
78614,44,77,850,33,0.0,2-4,major
78615,69,58,2290,270,0.0,2-4,major
78616,35,26,465,1665,3.0,2-5,other
78617,35,49,80,625,3.0,2-5,other
78618,60,57,2540,80,6.0,2-2,other
78619,69,58,750,250,0.0,3-7A,minor
78620,63,49,360,1020,1.0,2-2,other
78621,56,39,1060,160,8.0,2-3,other
78622,70,44,130,520,8.0,2-3,other
78623,68,56,400,50,8.0,2-3,other
78624,67,46,420,330,3.0,2-5,other
78625,35,59,63,397,3.0,2-5,other
78626,51,68,88,40,3.0,2-5,other
78627,68,66,270,123,3.0,2-5,other
78628,53,31,230,110,0.0,2-3,minor
78629,51,75,73,87,0.0,2-3,minor
78630,70,46,290,163,1.0,2-5,other
78631,72,61,280,470,1.0,2-5,other
78632,73,52,430,410,3.0,2-5,other
78633,58,52,110,680,6.0,2-3,other
78634,51,78,760,197,6.0,2-3,other
78635,77,47,410,113,6.0,2-3,other
78636,48,44,70,240,6.0,2-3,other
78637,42,80,1530,670,3.0,2-5,other
78638,80,73,300,70,3.0,2-5,other
78639,62,74,470,550,9.0,2-6,other
78640,57,59,640,40,9.0,2-6,other
78641,80,74,260,370,3.0,2-5,other
78642,41,93,730,550,5.0,2-1,other
78643,77,57,260,410,3.0,2-5,other
78644,36,78,110,290,3.0,2-5,other
78645,75,66,370,220,3.0,2-5,other
78646,35,84,180,110,3.0,2-5,other
78647,51,84,695,207,3.0,2-5,other
78648,36,90,2200,93,3.0,2-5,other
78649,73,43,650,50,3.0,2-5,other
78650,48,35,460,570,3.0,2-5,other
78651,58,16,190,50,3.0,2-5,other
78652,72,60,630,330,3.0,2-5,other
78653,48,90,170,330,3.0,2-5,other
78654,51,52,88,177,3.0,2-5,other
78655,58,32,140,43,3.0,2-5,other
78656,49,92,270,70,3.0,2-5,other
78657,51,66,720,207,3.0,2-5,other
78658,31,50,135,1288,3.0,2-4,major
78659,41,96,180,65,3.0,2-4,major
78660,51,56,128,247,3.0,2-4,major
78661,41,70,890,33,3.0,2-4,major
78662,51,92,720,287,3.0,2-4,major
78663,57,46,440,153,2.0,2-2,other
78664,36,89,180,400,2.0,2-2,other
78665,70,75,670,460,3.0,2-5,other
78666,29,98,1530,120,3.0,2-5,other
78667,31,50,62,460,3.0,2-5,other
78668,57,35,310,40,3.0,2-5,other
78669,51,82,735,287,3.0,2-5,other
78670,69,73,350,83,3.0,2-5,other
78671,41,86,170,540,3.0,2-5,other
78672,62,42,130,60,3.0,2-5,other
78673,72,66,350,390,0.0,3-7A,minor
78674,35,50,55,527,0.0,3-7A,minor
78675,33,73,220,93,0.0,3-7A,minor
78676,65,61,1080,60,3.0,2-5,other
78677,63,76,1290,30,3.0,2-5,other
78678,51,78,568,137,3.0,2-5,other
78679,34,86,2040,93,3.0,2-5,other
78680,59,82,128,547,3.0,2-5,other
78681,61,69,920,473,3.0,2-5,other
78682,72,45,140,120,3.0,2-5,other
78683,35,26,127,335,3.0,2-5,other
78684,65,59,480,625,3.0,1-1,other
78685,61,52,370,800,3.0,2-5,other
78686,51,61,200,527,3.0,2-5,other
78687,35,38,80,33,3.0,2-5,other
78688,65,66,920,1960,1.0,3-2A,other
78689,60,60,1290,40,1.0,3-2A,other
78690,51,75,608,207,1.0,3-2A,other
78691,49,84,1370,123,1.0,3-2A,other
78692,51,64,200,517,1.0,3-2A,other
78693,58,48,250,413,3.0,2-5,other
78694,50,81,240,520,3.0,2-5,other
78695,35,36,160,35,3.0,2-5,other
78696,39,40,170,195,6.0,2-5,other
78697,58,34,1420,150,3.0,2-4,other
78698,58,41,190,1740,5.0,2-4,other
78699,51,84,575,147,5.0,2-4,other
78700,43,84,900,43,5.0,2-4,other
78701,78,67,240,70,5.0,2-4,other
78702,51,61,160,527,5.0,2-4,other
78703,80,65,120,53,5.0,2-4,other
78704,61,47,120,90,5.0,2-4,other
78705,82,83,510,330,9.0,3-5B,other
78706,51,108,840,807,7.0,2-4,major
78707,64,56,1000,133,7.0,2-4,major
78708,44,103,300,430,6.0,2-6,other
78709,39,83,980,370,6.0,2-6,other
78710,60,20,190,90,3.0,2-5,other
78711,73,41,500,970,3.0,2-5,other
78712,60,50,130,630,6.0,2-2,other
78713,72,49,340,820,3.0,2-5,other
78714,37,82,3980,410,3.0,2-4,other
78715,63,49,150,40,3.0,2-4,other
78716,56,37,150,170,0.0,2-4,other
78717,44,61,40,970,3.0,2-5,other
78718,35,36,80,440,3.0,1-1,other
78719,77,65,250,1300,3.0,2-5,other
78720,51,56,200,587,3.0,2-5,other
78721,49,78,1790,353,3.0,2-4,other
78722,51,57,48,607,1.0,4-22A,other
78723,36,74,220,1013,1.0,2-5,other
78724,37,83,910,310,3.0,2-5,other
78725,63,73,620,60,3.0,2-5,other
78726,51,36,240,537,5.0,3-11B,other
78727,34,29,80,55,5.0,3-11B,other
78728,61,59,380,48,5.0,3-11B,other
78729,75,63,520,50,5.0,3-11B,other
78730,41,83,120,560,3.0,2-5,other
78731,34,43,262,200,3.0,2-5,other
78732,55,57,760,130,6.0,2-5,other
78733,43,83,850,330,11.0,2-2,other
78734,51,40,208,547,11.0,2-2,other
78735,64,49,150,523,7.0,3-7A,minor
78736,35,50,65,452,7.0,3-7A,minor
78737,31,77,980,278,7.0,3-7A,minor
78738,51,99,800,27,7.0,3-7A,minor
78739,58,53,660,743,5.0,4-16A,other
78740,55,32,390,250,1.0,3-9,other
78741,51,59,240,607,1.0,1-1,other
78742,34,67,300,63,1.0,1-1,other
78743,51,92,800,257,1.0,1-1,other
78744,36,76,970,33,1.0,1-1,other
78745,72,81,1060,140,0.0,2-4,major
78746,74,67,100,80,0.0,2-4,major
78747,34,60,360,490,0.0,2-4,major
78748,35,35,95,890,1.0,3-9,other
78749,51,64,800,287,3.0,3-5B,other
78750,48,67,890,63,3.0,3-5B,other
78751,40,84,960,950,3.0,2-5,other
78752,56,52,550,200,11.0,2-6,other
78753,56,29,530,660,5.0,2-2,other
78754,51,91,808,47,5.0,2-2,other
78755,41,82,950,33,5.0,2-2,other
78756,35,40,168,47,5.0,2-2,other
78757,56,48,310,743,3.0,4-27A,other
78758,59,44,110,900,3.0,2-5,other
78759,59,52,350,340,10.0,2-5,other
78760,56,39,260,80,10.0,2-5,other
78761,41,52,130,540,10.0,2-5,other
78762,71,79,290,270,3.0,4-16A,other
78763,59,46,100,40,3.0,4-16A,other
78764,56,32,170,30,3.0,4-16A,other
78765,81,30,130,40,3.0,4-16A,other
78766,41,59,150,600,3.0,4-16A,other
78767,51,57,33,177,3.0,4-16A,other
78768,46,81,940,53,3.0,4-16A,other
78769,66,63,810,140,3.0,4-16B,other
78770,35,40,62,40,3.0,4-16B,other
78771,34,80,860,760,3.0,2-5,other
78772,62,63,190,630,3.0,3-7B,other
78773,41,57,120,100,3.0,3-7B,other
78774,38,88,980,1200,3.0,2-5,other
78775,51,75,168,597,10.0,3-11B,other
78776,35,28,145,55,10.0,3-11B,other
78777,61,72,490,138,6.0,2-5,other
78778,51,66,720,127,6.0,2-5,other
78779,35,24,455,33,6.0,2-5,other
78780,39,81,450,40,6.0,2-5,other
78781,78,78,340,570,6.0,2-5,other
78782,41,63,950,370,3.0,2-5,other
78783,66,57,100,540,6.0,2-5,other
78784,53,64,200,1007,1.0,6-32,other
78785,42,83,280,73,1.0,6-32,other
78786,34,66,95,615,1.0,4-26,other
78787,51,85,527,1545,0.0,3-11B,other
78788,35,17,385,62,0.0,3-11B,other
78789,51,75,135,578,0.0,3-11B,other
78790,35,26,80,47,0.0,3-11B,other
78791,44,45,110,53,0.0,3-11B,other
78792,44,58,220,960,6.0,4-15A,other
78793,51,77,735,1187,1.0,2-2,other
78794,35,36,63,680,3.0,2-5,other
78795,51,70,88,920,3.0,2-5,other
78796,77,107,440,73,3.0,2-5,other
78797,63,81,960,30,3.0,2-5,other
78798,60,57,1010,40,3.0,2-5,other
78799,41,74,810,140,3.0,2-5,other
78800,51,75,448,37,3.0,2-5,other
78801,75,82,720,383,3.0,2-5,other
78802,78,47,120,50,3.0,2-5,other
78803,51,77,55,207,3.0,2-5,other
78804,41,67,940,253,3.0,2-5,other
78805,73,81,490,330,4.0,3-5B,other
78806,75,63,360,60,4.0,3-5B,other
78807,40,70,120,252,4.0,3-5B,other
78808,42,81,1410,348,4.0,3-5B,other
78809,51,99,728,37,4.0,3-5B,other
78810,64,26,590,473,3.0,2-4,other
78811,37,68,170,800,3.0,2-5,other
78812,34,63,170,360,4.0,2-4,major
78813,51,75,168,1887,3.0,2-5,other
78814,77,66,240,273,10.0,2-1,other
78815,36,84,2990,100,0.0,2-1,other
78816,72,39,150,600,10.0,4-16A,other
78817,35,31,80,75,10.0,4-16A,other
78818,72,28,70,275,3.0,3-9,other
78819,51,82,160,597,0.0,4-27A,minor
78820,34,47,240,213,0.0,4-27A,minor
78821,41,89,510,200,1.0,4-26,other
78822,53,64,200,547,1.0,4-26,other
78823,42,96,320,73,1.0,4-26,other
78824,41,76,480,420,0.0,5-34,other
78825,34,66,95,195,0.0,5-34,other
78826,42,89,270,335,0.0,5-34,other
78827,51,84,808,257,0.0,5-34,other
78828,42,68,130,53,0.0,5-34,other
78829,35,17,385,962,3.0,2-5,other
78830,51,75,135,578,3.0,2-5,other
78831,35,26,80,47,3.0,2-5,other
78832,51,87,760,280,3.0,2-5,other
78833,41,81,1030,33,3.0,2-5,other
78834,36,63,120,650,3.0,2-5,other
78835,33,104,860,380,3.0,2-5,other
78836,34,92,1980,880,1.0,2-2,other
78837,72,65,300,1450,10.0,3-11A,other
78838,60,49,320,40,10.0,3-11A,other
78839,96,86,270,3800,10.0,1-1,other
78840,84,32,130,40,10.0,1-1,other
78841,101,75,260,1440,5.0,1-1,other
78842,101,75,190,550,5.0,1-1,other
78843,51,62,950,1310,5.0,2-2,other
78844,58,70,570,390,5.0,2-2,other
78845,61,67,240,310,5.0,2-2,other
78846,65,68,230,300,5.0,2-2,other
78847,69,74,280,180,5.0,2-2,other
78848,72,69,173,287,5.0,2-2,other
78849,73,73,310,283,5.0,2-2,other
78850,85,79,280,1010,9.0,2-3,minor
78851,93,77,230,720,5.0,2-5,other
78852,84,57,290,30,5.0,2-5,other
78853,73,64,280,370,5.0,2-5,other
78854,72,74,250,350,5.0,2-5,other
78855,77,64,200,400,5.0,2-5,other
78856,84,33,70,50,5.0,2-5,other
78857,85,67,1580,300,5.0,2-5,other
78858,93,41,420,2850,5.0,2-5,other
78859,96,57,1490,580,5.0,2-5,other
78860,69,81,1040,0,,,
78861,46,50,4810,130,1.0,3-10,minor
78862,54,77,4620,870,1.0,3-10,minor
78863,57,76,530,1090,1.0,3-10,minor
78864,58,79,370,540,1.0,3-10,minor
78865,60,85,390,390,1.0,3-10,minor
78866,61,85,410,320,1.0,3-10,minor
78867,63,87,260,310,1.0,3-10,minor
78868,64,80,370,250,1.0,3-10,minor
78869,66,77,210,300,1.0,3-10,minor
78870,67,81,250,300,1.0,3-10,minor
78871,69,75,260,260,1.0,3-10,minor
78872,70,76,110,240,1.0,3-10,minor
78873,72,79,210,210,1.0,3-10,minor
78874,73,70,250,180,1.0,3-10,minor
78875,75,68,210,340,1.0,3-10,minor
78876,76,57,230,210,1.0,3-10,minor
78877,77,90,450,230,1.0,3-10,minor
78878,53,56,630,990,10.0,2-4,major
78879,57,63,580,680,10.0,2-4,major
78880,86,89,240,1800,2.0,2-2,other
78881,62,33,80,40,2.0,2-2,other
78882,45,69,200,680,3.0,1-1,other
78883,38,57,260,2750,9.0,4-27A,diminished
78884,40,46,210,70,9.0,4-27A,diminished
78885,77,56,760,1240,10.0,2-5,other
78886,58,43,660,80,5.0,3-5B,other
78887,74,80,280,7600,10.0,3-4B,other
78888,70,75,340,1690,5.0,3-9,other
78889,57,38,900,1050,0.0,2-4,major
78890,70,72,480,790,0.0,2-4,major
78891,56,51,930,50,0.0,2-4,major
78892,64,48,850,920,1.0,2-6,other
78893,48,63,340,960,1.0,2-6,other
78894,67,66,320,50,1.0,2-6,other
78895,67,81,300,2190,0.0,1-1,other
78896,58,24,120,40,0.0,1-1,other
78897,65,62,1050,940,0.0,1-1,other
78898,63,77,560,1120,2.0,6-33A,minor
78899,63,59,970,2280,3.0,4-20,major
78900,50,31,1750,1200,7.0,3-11A,minor
78901,60,45,380,1840,7.0,3-11A,minor
78902,39,41,110,1270,7.0,3-11A,minor
78903,46,54,1060,140,7.0,3-11A,minor
78904,61,58,240,130,7.0,3-11A,minor
78905,65,59,410,140,7.0,3-11A,minor
78906,55,48,870,30,7.0,3-11A,minor
78907,69,52,250,140,7.0,3-11A,minor
78908,72,49,270,100,7.0,3-11A,minor
78909,84,74,670,570,7.0,3-11A,minor
78910,84,54,1090,1010,7.0,3-11A,minor
78911,65,34,990,40,7.0,3-11A,minor
78912,26,54,620,3220,0.0,1-1,other
78913,62,67,200,4310,1.0,2-1,other
78914,61,40,80,190,9.0,3-10,diminished
78915,81,36,770,2980,2.0,2-4,major
78916,43,37,1500,4760,2.0,2-2,other
78917,86,44,220,840,2.0,2-2,other
78918,50,39,730,40,2.0,2-2,other
78919,77,37,180,30,2.0,2-2,other
78920,55,44,840,840,2.0,2-2,other
78921,58,47,3130,800,2.0,2-2,other
78922,70,45,1890,870,2.0,2-2,other
78923,62,39,870,90,2.0,2-2,other
78924,74,39,2830,30,2.0,2-2,other
78925,67,48,1230,850,2.0,2-2,other
78926,82,62,1070,910,2.0,2-2,other
78927,62,41,950,110,2.0,2-2,other
78928,58,39,100,990,2.0,2-2,other
78929,78,45,620,1250,2.0,3-7B,other
78930,69,45,1920,4880,2.0,3-6,major
78931,74,39,2220,50,2.0,3-6,major
78932,64,35,620,50,2.0,3-6,major
78933,64,44,1750,1180,2.0,3-6,major
78934,69,48,2820,1150,2.0,3-6,major
78935,79,58,640,1980,2.0,3-6,major
78936,53,39,2120,3140,2.0,3-6,major
78937,70,68,950,140,7.0,2-3,minor
78938,63,43,870,100,7.0,2-3,minor
78939,77,67,510,90,7.0,2-3,minor
78940,79,81,370,750,7.0,2-3,minor
78941,60,49,1760,80,7.0,2-3,minor
78942,63,52,370,830,7.0,2-3,minor
78943,39,49,290,2150,7.0,2-2,other
78944,41,48,250,140,7.0,2-2,other
78945,30,39,1010,2730,6.0,2-3,other
78946,75,57,1090,1930,6.0,2-3,other
78947,67,48,210,2530,3.0,2-1,other
78948,86,57,320,1150,5.0,2-5,other
78949,74,50,110,30,5.0,2-5,other
78950,89,48,620,1240,5.0,2-5,other
78951,101,48,370,30,5.0,2-5,other
78952,53,39,1240,1800,5.0,2-5,other
78953,53,39,5460,3140,6.0,3-10,other
78954,60,38,1190,40,6.0,3-10,other
78955,60,38,4970,1820,6.0,3-10,other
78956,84,52,1160,2050,6.0,3-10,other
78957,96,47,740,100,6.0,3-10,other
78958,53,36,1410,2440,6.0,3-10,other
78959,77,74,440,1741,6.0,3-10,other
78960,46,55,180,570,6.0,3-10,other
78961,81,74,2730,30,6.0,3-10,other
78962,65,48,210,810,6.0,3-10,other
78963,65,45,250,590,2.0,2-2,other
78964,65,43,350,810,2.0,2-2,other
78965,60,48,790,1370,10.0,3-11B,major
78966,84,73,270,1010,10.0,3-11B,major
78967,86,79,210,340,10.0,3-11B,major
78968,87,89,700,500,10.0,3-11B,major
78969,46,52,4540,90,10.0,3-11B,major
78970,53,26,150,860,10.0,3-11B,major
78971,53,28,1270,470,10.0,3-11B,major
78972,60,68,430,90,10.0,3-11B,major
78973,62,75,390,390,10.0,3-11B,major
78974,63,80,230,340,10.0,3-11B,major
78975,65,79,250,290,10.0,3-11B,major
78976,66,71,270,260,10.0,3-11B,major
78977,68,60,250,250,10.0,3-11B,major
78978,70,66,200,300,10.0,3-11B,major
78979,72,56,200,245,10.0,3-11B,major
78980,74,60,240,465,10.0,3-11B,major
78981,75,72,160,270,10.0,3-11B,major
78982,77,74,170,260,10.0,3-11B,major
78983,78,67,260,170,10.0,3-11B,major
78984,80,63,190,180,10.0,3-11B,major
78985,81,40,360,250,10.0,3-11B,major
78986,82,46,160,50,10.0,3-11B,major
78987,83,52,240,180,10.0,3-11B,major
78988,84,73,230,160,10.0,3-11B,major
78989,65,37,460,180,10.0,3-11B,major
78990,62,40,1450,30,10.0,3-11B,major
78991,84,66,210,1840,5.0,1-1,other
78992,86,87,350,380,5.0,1-1,other
78993,60,33,1120,540,2.0,3-7A,minor
78994,53,41,460,820,2.0,3-7A,minor
78995,82,63,390,480,2.0,3-7A,minor
78996,76,28,80,990,9.0,2-4,major
78997,36,38,110,300,9.0,2-4,major
78998,52,39,290,70,9.0,2-4,major
78999,64,42,220,1180,10.0,1-1,other
79000,76,54,60,970,9.0,2-4,major
79001,58,51,750,350,9.0,2-4,major
79002,52,45,560,90,9.0,2-4,major
79003,76,43,380,1370,0.0,3-5B,other
79004,63,56,730,1220,0.0,3-5B,other
79005,79,98,330,850,0.0,5-35,minor
79006,63,50,70,460,0.0,5-35,minor
79007,77,85,230,30,0.0,5-35,minor
79008,63,36,120,1370,2.0,2-3,minor
79009,46,44,1500,2640,3.0,3-4A,major
79010,55,50,480,1190,3.0,3-4A,major
79011,62,60,420,30,3.0,3-4A,major
79012,61,52,510,2460,6.0,5-16A,minor
79013,74,79,1410,1330,6.0,5-16A,minor
79014,62,50,1740,860,6.0,5-16A,minor
79015,66,41,220,530,6.0,5-16A,minor
79016,50,48,5440,830,6.0,5-16A,minor
79017,81,65,1580,80,6.0,5-16A,minor
79018,62,53,1020,1290,6.0,5-16A,minor
79019,67,28,140,1110,6.0,5-16A,minor
79020,76,61,170,400,6.0,5-16A,minor
79021,75,70,3570,510,6.0,5-16A,minor
79022,62,42,480,50,6.0,5-16A,minor
79023,63,52,720,370,6.0,5-16A,minor
79024,62,34,1330,1040,3.0,2-4,major
79025,50,46,1530,840,3.0,2-4,major
79026,63,46,1020,940,3.0,2-4,major
79027,50,46,210,960,6.0,2-6,other
79028,50,36,380,990,7.0,2-5,other
79029,81,81,880,1220,7.0,2-5,other
79030,55,42,850,440,7.0,2-5,other
79031,78,52,320,520,10.0,2-4,major
79032,79,77,330,420,10.0,2-4,major
79033,81,69,330,440,2.0,2-4,major
79034,82,62,190,430,2.0,2-4,major
79035,86,80,290,440,2.0,2-4,major
79036,93,99,300,860,10.0,3-12,augmented
79037,94,92,370,420,10.0,3-12,augmented
79038,60,51,1220,1330,6.0,2-6,other
79039,66,75,660,540,6.0,2-6,other
79040,63,49,910,60,6.0,2-6,other
79041,60,55,820,820,6.0,2-3,other
79042,61,51,390,1310,2.0,2-4,major
79043,69,48,590,530,6.0,3-10,other
79044,74,68,220,2240,2.0,3-7A,minor
79045,65,39,210,40,2.0,3-7A,minor
79046,41,41,190,1850,2.0,3-7A,minor
79047,58,38,230,80,2.0,2-3,minor
79048,64,46,290,2700,4.0,2-6,other
79049,64,52,290,850,7.0,3-2B,minor
79050,64,45,120,4050,7.0,2-3,minor
79051,46,77,390,1240,7.0,2-3,minor
79052,39,66,1580,450,7.0,2-3,minor
79053,62,52,940,560,7.0,3-7A,minor
79054,45,63,440,1150,7.0,3-7A,minor
79055,38,58,1790,510,7.0,3-7A,minor
79056,60,50,680,540,5.0,2-4,major
79057,51,55,260,2830,3.0,2-4,major
79058,55,33,200,60,3.0,2-4,major
79059,58,22,210,110,3.0,2-4,major
79060,48,33,730,330,3.0,2-1,other
79061,36,57,130,880,7.0,2-3,minor
79062,72,68,450,1920,10.0,1-1,other
79063,61,49,100,40,10.0,1-1,other
79064,71,47,100,410,10.0,1-1,other
79065,72,68,1290,350,10.0,1-1,other
79066,45,58,210,480,10.0,1-1,other
79067,81,74,1230,900,10.0,1-1,other
79068,63,43,610,460,10.0,1-1,other
79069,55,38,540,30,10.0,1-1,other
79070,60,32,410,40,10.0,1-1,other
79071,74,58,330,440,10.0,1-1,other
79072,75,69,180,400,10.0,1-1,other
79073,79,74,260,440,10.0,1-1,other
79074,84,77,310,390,10.0,1-1,other
79075,85,42,90,500,0.0,2-5,other
79076,87,86,360,380,0.0,2-5,other
79077,89,85,270,460,0.0,2-5,other
79078,87,75,270,430,0.0,2-5,other
79079,84,51,240,900,2.0,2-2,other
79080,82,57,260,420,2.0,2-2,other
79081,54,32,300,530,2.0,3-7B,other
79082,82,41,120,190,2.0,3-7B,other
79083,81,50,230,120,2.0,3-7B,other
79084,79,50,190,300,2.0,3-7B,other
79085,78,47,150,300,2.0,3-7B,other
79086,78,83,220,1740,9.0,2-3,minor
79087,60,39,850,80,9.0,2-3,minor
79088,77,72,240,300,9.0,2-3,minor
79089,76,66,260,300,9.0,2-3,minor
79090,75,72,260,330,9.0,2-3,minor
79091,55,40,660,330,9.0,2-3,minor
79092,67,81,260,3840,3.0,2-4,major
79093,62,52,750,590,3.0,3-11B,major
79094,66,57,330,830,3.0,3-11B,major
79095,52,31,470,650,7.0,2-5,other
79096,74,63,780,1340,7.0,2-5,other
79097,54,55,420,500,2.0,3-7A,minor
79098,55,55,220,480,2.0,3-7A,minor
79099,60,50,370,990,0.0,3-11B,major
79100,70,53,80,1210,4.0,2-3,minor
79101,72,60,290,890,1.0,1-1,other
79102,62,62,830,730,0.0,2-5,other
79103,57,31,190,40,0.0,2-5,other
79104,57,43,510,1410,5.0,2-5,other
79105,65,56,670,520,5.0,2-5,other
79106,72,122,390,1690,5.0,4-16A,other
79107,77,115,430,560,5.0,4-16A,other
79108,65,39,100,120,5.0,4-16A,other
79109,67,64,1320,400,5.0,4-16A,other
79110,76,75,310,950,4.0,2-6,other
79111,65,61,450,960,2.0,1-1,other
79112,62,51,420,500,2.0,1-1,other
79113,57,45,290,1000,2.0,2-3,minor
79114,60,45,610,560,6.0,2-3,other
79115,50,44,670,1420,10.0,3-4A,other
79116,60,33,740,60,10.0,3-4A,other
79117,50,37,1530,1390,7.0,3-2B,minor
79118,62,26,220,50,7.0,3-2B,minor
79119,70,63,360,1330,7.0,3-2B,minor
79120,62,41,90,90,7.0,2-3,minor
79121,77,99,610,900,7.0,2-3,minor
79122,74,41,160,660,7.0,4-26,minor
79123,79,68,130,1810,10.0,2-4,major
79124,82,99,310,380,10.0,2-4,major
79125,85,44,80,570,4.0,2-2,other
79126,82,92,260,420,4.0,2-2,other
79127,81,90,180,500,4.0,2-2,other
79128,82,70,280,150,4.0,2-2,other
79129,81,57,240,200,4.0,2-2,other
79130,79,55,190,260,10.0,2-4,major
79131,77,61,210,330,10.0,2-4,major
79132,76,52,180,260,10.0,2-4,major
79133,74,51,170,380,10.0,2-4,major
79134,76,79,220,300,1.0,2-6,other
79135,73,66,60,410,1.0,2-6,other
79136,70,54,240,330,1.0,2-6,other
79137,67,52,80,360,1.0,2-6,other
79138,70,59,270,670,9.0,3-11B,major
79139,71,58,280,290,9.0,3-11B,major
79140,72,57,250,390,9.0,3-11B,major
79141,69,54,560,400,6.0,3-7B,other
79142,59,36,330,40,6.0,3-7B,other
79143,42,44,400,1390,9.0,2-4,major
79144,52,39,460,30,9.0,2-4,major
79145,53,28,2040,4500,0.0,3-7A,minor
79146,77,61,240,550,0.0,3-7A,minor
79147,79,65,190,330,0.0,3-7A,minor
79148,63,51,890,520,0.0,3-7A,minor
79149,77,58,220,550,0.0,3-7A,minor
79150,82,75,500,340,0.0,3-7A,minor
79151,87,82,290,340,0.0,3-7A,minor
79152,63,45,1010,390,5.0,3-6,major
79153,86,48,200,400,5.0,3-6,major
79154,87,75,560,380,5.0,3-6,major
79155,82,63,550,670,5.0,3-6,major
79156,65,39,530,70,5.0,3-6,major
79157,63,31,530,80,5.0,3-6,major
79158,86,77,410,390,5.0,3-6,major
79159,84,66,640,530,5.0,3-6,major
79160,65,31,280,430,5.0,3-6,major
79161,81,60,410,120,2.0,2-2,other
79162,82,74,400,530,2.0,2-2,other
79163,77,58,480,550,2.0,2-2,other
79164,53,46,2320,100,2.0,2-2,other
79165,81,67,360,470,2.0,2-2,other
79166,74,51,370,490,2.0,2-2,other
79167,62,35,1910,650,2.0,2-2,other
79168,60,33,1850,50,2.0,2-2,other
79169,69,40,400,380,2.0,2-2,other
79170,74,67,350,450,2.0,2-2,other
79171,72,66,380,520,2.0,2-2,other
79172,53,42,920,70,2.0,2-2,other
79173,69,62,270,460,2.0,2-2,other
79174,65,26,460,510,2.0,2-2,other
79175,62,48,350,460,2.0,2-2,other
79176,63,54,1030,2010,0.0,2-5,other
79177,60,25,1540,1510,6.0,2-3,other
79178,84,85,230,920,6.0,2-3,other
79179,82,51,260,1010,2.0,2-2,other
79180,84,75,1200,500,2.0,2-2,other
79181,43,45,140,440,2.0,2-2,other
79182,50,36,190,50,2.0,2-2,other
79183,82,70,220,1020,2.0,2-2,other
79184,62,30,740,490,7.0,2-3,minor
79185,84,82,270,630,7.0,2-3,minor
79186,85,94,320,430,7.0,2-3,minor
79187,84,88,280,490,7.0,2-3,minor
79188,82,63,230,450,10.0,2-4,major
79189,79,60,210,490,10.0,2-4,major
79190,74,39,100,510,10.0,2-4,major
79191,62,39,950,100,10.0,2-4,major
79192,58,31,2340,90,10.0,2-4,major
79193,72,57,830,930,10.0,2-4,major
79194,62,40,280,510,10.0,2-4,major
79195,52,39,2030,40,10.0,2-4,major
79196,78,23,130,1090,9.0,4-18A,major
79197,80,24,210,630,1.0,3-2A,minor
79198,58,61,680,830,9.0,4-17,other
79199,67,41,100,2660,1.0,2-6,other
79200,36,69,190,2480,3.0,2-5,other
79201,79,94,230,1040,3.0,2-5,other
79202,78,46,70,100,3.0,2-5,other
79203,77,85,210,510,3.0,2-5,other
79204,63,37,590,1070,2.0,3-11A,minor
79205,38,49,210,1470,2.0,3-11A,minor
79206,45,39,100,90,2.0,3-11A,minor
79207,39,50,420,560,7.0,2-5,other
79208,46,39,590,60,7.0,2-5,other
79209,46,10,2910,800,7.0,2-5,other
79210,55,47,1580,2090,2.0,2-3,minor
79211,46,57,480,1400,2.0,2-3,minor
79212,46,40,310,1000,2.0,2-3,minor
79213,72,66,700,1530,5.0,4-24,augmented
79214,65,47,1020,480,0.0,2-1,other
79215,72,70,440,830,0.0,2-1,other
79216,73,75,280,410,0.0,2-1,other
79217,77,78,300,490,5.0,3-4A,other
79218,82,72,190,340,5.0,3-4A,other
79219,84,75,320,380,5.0,3-4A,other
79220,89,82,520,330,5.0,3-4A,other
79221,55,39,1020,260,5.0,3-4A,other
79222,94,85,450,120,5.0,3-4A,other
79223,96,83,300,370,5.0,3-4A,other
79224,94,73,340,360,5.0,3-4A,other
79225,93,83,320,420,5.0,3-4A,other
79226,94,75,810,410,6.0,3-8B,other
79227,90,66,350,480,6.0,3-8B,other
79228,89,57,290,450,6.0,3-8B,other
79229,54,43,770,600,2.0,2-2,other
79230,89,25,80,390,2.0,2-2,other
79231,90,58,220,170,2.0,2-2,other
79232,89,27,90,200,2.0,2-2,other
79233,88,58,100,130,2.0,2-2,other
79234,87,61,230,260,2.0,2-2,other
79235,84,52,200,280,2.0,2-2,other
79236,81,56,170,340,6.0,2-6,other
79237,78,74,240,740,6.0,2-6,other
79238,77,78,280,430,6.0,2-6,other
79239,60,35,730,350,6.0,2-3,other
79240,77,54,260,160,6.0,2-3,other
79241,76,39,150,290,6.0,2-3,other
79242,75,43,90,300,6.0,2-3,other
79243,74,20,290,270,6.0,2-3,other
79244,73,48,250,280,6.0,2-3,other
79245,55,39,2080,250,6.0,2-3,other
79246,72,53,240,60,10.0,2-4,major
79247,74,77,400,1000,10.0,2-4,major
79248,62,50,650,3820,7.0,2-3,minor
79249,66,36,560,1650,4.0,2-2,other
79250,56,58,520,1500,2.0,3-11B,major
79251,55,53,1070,510,10.0,2-1,other
79252,64,46,1270,70,10.0,2-1,other
79253,48,58,2410,580,10.0,2-1,other
79254,64,46,430,1420,1.0,3-10,other
79255,67,75,320,940,1.0,3-10,other
79256,47,23,430,580,1.0,3-10,other
79257,58,59,910,400,1.0,3-10,other
79258,48,48,1430,60,3.0,3-6,major
79259,67,68,300,1000,3.0,3-6,major
79260,58,40,190,50,3.0,3-6,major
79261,63,56,520,560,10.0,2-5,other
79262,45,92,740,540,10.0,2-5,other
79263,44,57,260,660,10.0,2-5,other
79264,43,64,290,280,10.0,2-5,other
79265,42,57,1840,310,3.0,3-5B,other
79266,42,39,260,2720,4.0,2-6,other
79267,41,42,430,590,7.0,2-5,other
79268,74,69,2520,990,7.0,2-5,other
79269,55,46,220,1660,7.0,2-5,other
79270,53,55,2390,520,7.0,2-5,other
79271,77,66,160,2140,5.0,3-8A,major
79272,77,77,260,470,5.0,3-8A,major
79273,77,69,400,540,5.0,3-8A,major
79274,74,25,620,130,9.0,2-3,minor
79275,65,67,1490,920,2.0,4-26,minor
79276,72,55,80,1550,2.0,4-26,minor
79277,72,53,90,1010,2.0,3-11A,minor
79278,72,54,180,1020,2.0,3-11A,minor
79279,74,46,210,460,2.0,3-11A,minor
79280,65,46,1440,540,3.0,4-22A,major
79281,63,41,170,80,3.0,4-22A,major
79282,75,46,220,440,7.0,3-7A,minor
79283,75,39,230,980,7.0,3-7A,minor
79284,77,43,80,3890,3.0,3-11B,major
79285,46,63,420,1140,5.0,2-4,major
79286,74,48,880,30,5.0,2-4,major
79287,55,55,890,3340,7.0,2-3,minor
79288,58,57,890,1410,2.0,2-3,minor
79289,62,41,620,70,5.0,1-1,other
79290,46,60,2650,1520,5.0,1-1,other
79291,75,72,250,2310,5.0,2-5,other
79292,75,85,260,520,5.0,2-5,other
79293,75,86,410,530,5.0,2-5,other
79294,58,50,3050,120,10.0,3-8B,other
79295,75,64,440,460,10.0,3-8B,other
79296,70,58,360,560,6.0,2-6,other
79297,66,56,190,510,6.0,2-6,other
79298,75,68,350,1040,0.0,2-2,other
79299,66,50,340,40,0.0,2-2,other
79300,70,25,130,50,0.0,2-2,other
79301,72,23,150,70,0.0,2-2,other
79302,74,57,390,840,2.0,2-2,other
79303,69,25,200,60,2.0,2-2,other
79304,74,48,120,1550,2.0,3-11A,minor
79305,74,68,2690,450,2.0,3-11A,minor
79306,65,31,150,70,2.0,3-11A,minor
79307,52,31,480,3660,10.0,4-24,augmented
79308,69,68,160,470,10.0,4-24,augmented
79309,81,89,420,470,10.0,4-24,augmented
79310,79,60,480,1550,10.0,2-4,major
79311,74,35,520,70,10.0,2-4,major
79312,48,39,440,1940,10.0,2-4,other
79313,62,29,390,70,10.0,2-4,other
79314,63,41,740,1410,10.0,2-4,other
79315,60,40,920,90,10.0,2-5,other
79316,65,55,210,560,10.0,2-5,other
79317,70,72,470,380,10.0,2-5,other
79318,75,72,180,410,10.0,2-5,other
79319,63,49,290,30,10.0,2-5,other
79320,58,36,340,80,10.0,2-5,other
79321,60,30,250,30,10.0,2-5,other
79322,82,85,590,630,5.0,2-1,other
79323,87,88,490,350,5.0,2-1,other
79324,89,83,390,360,2.0,4-26,minor
79325,77,66,390,440,2.0,4-26,minor
79326,77,72,300,550,2.0,4-26,minor
79327,50,60,210,1550,5.0,1-1,other
79328,58,60,1060,660,3.0,2-1,other
79329,55,43,1220,40,3.0,2-1,other
79330,74,63,170,430,3.0,2-1,other
79331,75,67,270,150,3.0,2-1,other
79332,74,66,290,180,3.0,2-1,other
79333,73,61,170,260,3.0,2-1,other
79334,62,40,930,380,10.0,2-4,major
79335,75,82,170,310,10.0,2-4,major
79336,79,71,190,410,10.0,2-4,major
79337,87,45,90,50,10.0,2-4,major
79338,82,87,360,280,10.0,2-4,major
79339,87,92,340,770,2.0,4-15A,minor
79340,88,82,1130,800,7.0,2-2,other
79341,61,45,1180,370,7.0,2-2,other
79342,64,39,910,30,7.0,2-2,other
79343,87,71,440,660,7.0,2-2,other
79344,85,74,390,420,7.0,2-2,other
79345,59,45,760,530,2.0,4-11A,major
79346,81,48,300,420,2.0,4-11A,major
79347,81,63,190,470,2.0,4-11A,major
79348,64,35,410,520,6.0,2-5,other
79349,59,19,240,100,6.0,2-5,other
79350,78,50,200,380,6.0,2-5,other
79351,69,39,320,510,6.0,2-5,other
79352,69,45,340,460,6.0,2-5,other
79353,73,62,290,900,1.0,1-1,other
79354,66,68,250,470,1.0,1-1,other
79355,61,48,310,60,1.0,1-1,other
79356,64,32,100,30,1.0,1-1,other
79357,66,58,230,390,1.0,1-1,other
79358,69,66,250,490,1.0,1-1,other
79359,69,59,1230,450,1.0,1-1,other
79360,63,65,360,450,1.0,1-1,other
79361,62,39,690,110,1.0,1-1,other
79362,63,46,290,350,1.0,1-1,other
79363,60,24,400,650,2.0,3-3A,major
79364,60,58,180,1220,0.0,2-3,minor
79365,65,72,290,500,0.0,2-3,minor
79366,50,49,1450,40,0.0,2-3,minor
79367,54,54,170,40,0.0,2-3,minor
79368,60,42,100,100,0.0,2-3,minor
79369,63,56,270,1220,6.0,3-10,other
79370,44,55,400,420,6.0,2-6,other
79371,53,66,290,1500,1.0,2-3,other
79372,65,48,70,890,2.0,1-1,other
79373,53,71,180,30,2.0,1-1,other
79374,57,83,360,430,2.0,1-1,other
79375,71,46,90,530,2.0,2-2,other
79376,62,54,360,1340,10.0,3-11B,major
79377,68,42,360,80,5.0,2-4,major
79378,62,39,110,830,0.0,2-2,other
79379,69,21,220,1480,1.0,2-2,other
79380,63,52,250,500,6.0,2-6,other
79381,66,44,100,850,9.0,3-10,diminished
79382,63,49,310,780,6.0,3-10,diminished
79383,60,48,450,920,6.0,3-10,minor
79384,54,48,170,890,6.0,3-10,minor
79385,53,63,140,2420,10.0,3-11B,major
79386,65,55,150,340,10.0,3-11B,major
79387,67,51,170,220,10.0,3-11B,major
79388,65,56,210,150,10.0,3-11B,major
79389,64,39,130,240,10.0,3-11B,major
79390,65,37,240,290,10.0,3-11B,major
79391,67,57,250,340,10.0,2-4,major
79392,69,68,160,320,10.0,2-4,major
79393,70,72,220,310,10.0,2-4,major
79394,72,84,200,330,10.0,2-4,major
79395,75,79,180,690,2.0,2-3,minor
79396,77,72,190,300,2.0,2-3,minor
79397,79,76,240,350,2.0,2-3,minor
79398,81,75,290,360,2.0,2-3,minor
79399,52,41,1750,90,10.0,2-4,major
79400,82,75,290,320,10.0,2-4,major
79401,75,63,340,470,10.0,2-4,major
79402,76,52,330,450,10.0,2-4,major
79403,58,31,280,140,10.0,2-4,major
79404,79,66,300,350,10.0,2-4,major
79405,84,52,120,500,10.0,2-4,major
79406,85,1,450,1330,4.0,2-6,other
79407,84,58,190,1650,4.0,3-8B,other
79408,67,43,460,2080,10.0,2-4,major
79409,65,55,330,1400,10.0,2-4,major
79410,57,39,600,60,2.0,2-2,other
79411,70,16,320,50,2.0,2-2,other
79412,72,72,620,900,9.0,3-7B,other
79413,77,65,320,960,9.0,3-7B,other
79414,48,45,590,2000,3.0,4-20,major
79415,46,39,1700,1950,3.0,3-4A,major
79416,46,39,630,1930,3.0,2-4,major
79417,63,61,230,1890,9.0,2-3,minor
79418,70,68,250,920,7.0,2-2,other
79419,72,71,370,360,7.0,2-2,other
79420,77,81,1110,360,7.0,2-2,other
79421,82,83,610,380,7.0,2-2,other
79422,84,68,290,470,5.0,4-16A,other
79423,82,68,240,420,5.0,4-16A,other
79424,46,60,1300,610,5.0,4-16A,other
79425,39,50,380,1020,5.0,4-16A,other
79426,38,39,1360,680,9.0,2-3,minor
79427,50,54,110,1430,9.0,2-3,minor
79428,70,71,280,2540,7.0,4-26,minor
79429,65,71,260,60,7.0,2-5,other
79430,68,30,80,610,2.0,4-26,minor
79431,70,39,80,940,2.0,2-2,other
79432,43,58,240,520,7.0,3-11A,minor
79433,50,49,330,40,7.0,3-11A,minor
79434,51,47,590,3000,7.0,2-3,minor
79435,43,45,4670,30,7.0,2-3,minor
79436,51,45,440,2490,3.0,3-11B,major
79437,55,51,260,1560,1.0,2-3,other
79438,50,49,240,470,1.0,2-3,other
79439,55,50,110,510,1.0,2-3,other
79440,72,81,160,470,1.0,2-3,other
79441,59,54,60,80,1.0,2-3,other
79442,70,56,290,460,3.0,3-3A,major
79443,73,63,180,410,3.0,3-3A,major
79444,61,54,390,70,3.0,3-3A,major
79445,79,81,260,2000,10.0,1-1,other
79446,64,36,110,510,9.0,2-2,other
79447,77,53,200,380,9.0,2-5,other
79448,52,54,330,1870,9.0,1-1,other
79449,60,48,180,4230,2.0,2-3,minor
79450,53,37,440,40,2.0,2-3,minor
79451,60,52,80,1080,9.0,2-4,major
79452,60,57,850,500,9.0,2-4,major
79453,72,63,190,1000,2.0,3-11A,minor
79454,54,46,540,760,6.0,4-28,diminished
79455,72,85,260,2080,6.0,1-1,other
79456,66,26,70,130,6.0,1-1,other
79457,44,56,350,330,6.0,1-1,other
79458,55,79,430,2620,10.0,3-4A,major
79459,54,63,500,450,10.0,3-4A,major
79460,58,66,1100,510,10.0,3-4A,major
79461,62,47,800,1670,10.0,2-5,other
79462,40,45,340,1510,10.0,2-5,other
79463,55,41,540,30,10.0,2-5,other
79464,69,40,150,640,10.0,2-5,other
79465,70,63,230,190,10.0,2-5,other
79466,69,57,190,220,10.0,2-5,other
79467,69,30,160,440,10.0,2-5,other
79468,62,22,950,150,4.0,2-6,other
79469,70,58,160,50,4.0,2-6,other
79470,72,66,150,250,4.0,2-6,other
79471,73,55,120,220,4.0,2-6,other
79472,75,46,80,190,4.0,2-6,other
79473,76,46,80,180,4.0,2-6,other
79474,79,41,200,230,4.0,2-6,other
79475,82,52,160,180,4.0,2-6,other
79476,83,39,130,240,4.0,2-6,other
79477,84,78,300,90,4.0,2-6,other
79478,66,52,830,100,4.0,2-6,other
79479,55,40,2170,50,4.0,2-6,other
79480,61,41,1260,30,4.0,2-6,other
79481,82,66,80,320,4.0,2-6,other
79482,73,62,80,420,4.0,2-6,other
79483,72,63,210,410,4.0,2-6,other
79484,65,31,140,440,1.0,2-3,other
79485,69,68,240,360,1.0,2-3,other
79486,67,42,100,400,1.0,2-3,other
79487,69,72,290,330,1.0,2-3,other
79488,54,36,570,400,1.0,2-3,minor
79489,66,60,350,550,11.0,2-2,other
79490,62,55,520,480,11.0,2-2,other
79491,54,35,130,590,2.0,2-4,major
79492,57,50,430,490,2.0,2-4,major
79493,61,50,3230,550,2.0,2-4,major
79494,42,49,2220,500,2.0,2-4,major
79495,52,48,850,30,2.0,2-4,major
79496,57,57,910,1690,2.0,2-4,major
79497,52,36,140,50,2.0,2-4,major
79498,47,50,490,1020,2.0,2-4,major
79499,60,9,590,1100,0.0,1-1,other
79500,65,72,560,680,0.0,1-1,other
79501,67,76,250,340,0.0,1-1,other
79502,48,42,590,90,0.0,1-1,other
79503,63,60,260,360,0.0,1-1,other
79504,65,52,190,390,0.0,1-1,other
79505,70,56,230,290,0.0,1-1,other
79506,73,66,350,310,0.0,1-1,other
79507,69,74,290,1090,10.0,3-9,other
79508,72,72,350,380,10.0,3-9,other
79509,74,83,310,360,10.0,3-9,other
79510,67,32,800,200,9.0,2-6,other
79511,75,68,430,220,9.0,2-6,other
79512,76,70,330,410,9.0,2-6,other
79513,77,79,290,320,9.0,2-6,other
79514,84,90,430,510,9.0,2-6,other
79515,65,56,350,330,9.0,2-6,other
79516,62,49,2100,80,9.0,2-6,other
79517,60,47,2100,30,9.0,2-6,other
79518,81,81,380,90,9.0,2-6,other
79519,77,79,220,560,9.0,2-6,other
79520,74,59,310,420,9.0,2-6,other
79521,70,54,400,420,9.0,2-6,other
79522,53,42,2790,80,9.0,2-6,other
79523,76,74,260,410,9.0,2-6,other
79524,73,52,440,470,9.0,2-6,other
79525,70,66,370,450,9.0,2-6,other
79526,65,44,290,340,9.0,2-6,other
79527,60,40,2260,80,7.0,2-5,other
79528,74,75,2180,370,7.0,2-5,other
79529,53,47,1970,1370,7.0,2-5,other
79530,65,46,220,520,7.0,2-5,other
79531,72,56,2590,520,7.0,2-5,other
79532,67,29,1060,730,2.0,3-5B,other
79533,63,48,730,1450,2.0,3-5B,other
79534,70,56,830,5100,6.0,2-6,other
79535,43,49,2150,2650,7.0,4-26,minor
79536,58,60,450,580,7.0,4-26,minor
79537,65,49,890,1110,2.0,2-3,minor
79538,42,33,100,1130,10.0,1-1,other
79539,70,63,230,360,10.0,1-1,other
79540,58,33,210,80,10.0,1-1,other
79541,69,48,240,470,0.0,2-2,other
79542,61,45,380,40,0.0,2-2,other
79543,52,40,490,30,0.0,2-2,other
79544,64,18,200,190,0.0,2-2,other
79545,70,65,210,230,0.0,2-2,other
79546,61,49,1230,540,10.0,2-1,other
79547,64,48,1110,50,10.0,2-1,other
79548,57,82,220,520,10.0,2-1,other
79549,56,60,520,530,10.0,2-1,other
79550,64,55,1940,550,1.0,3-10,other
79551,48,81,1610,930,1.0,3-10,other
79552,58,63,520,1050,1.0,3-10,other
79553,67,80,220,1020,1.0,3-10,other
79554,61,54,80,60,1.0,3-10,other
79555,45,52,180,400,1.0,3-10,other
79556,46,57,160,40,1.0,3-10,other
79557,47,81,200,100,1.0,3-10,other
79558,67,84,410,1220,0.0,5-35,minor
79559,36,51,2370,1230,7.0,2-3,minor
79560,24,79,1270,900,7.0,2-3,minor
79561,75,66,340,2730,7.0,2-3,minor
79562,63,53,340,30,7.0,2-3,minor
79563,39,51,930,740,7.0,2-3,minor
79564,46,50,310,960,7.0,2-3,minor
79565,46,8,270,620,7.0,2-3,minor
79566,55,60,680,60,7.0,2-3,minor
79567,67,39,280,1030,3.0,2-4,major
79568,70,39,130,40,3.0,2-4,major
79569,55,35,210,2200,10.0,2-4,major
79570,69,37,1180,3460,5.0,2-4,other
79571,57,60,360,670,5.0,2-4,other
79572,61,42,1010,2550,9.0,2-3,minor
79573,65,50,910,30,9.0,2-3,minor
79574,69,31,900,100,9.0,2-3,minor
79575,57,39,200,870,9.0,2-3,minor
79576,63,49,530,790,9.0,2-3,minor
79577,66,48,470,60,2.0,2-2,other
79578,57,66,480,2560,0.0,2-3,minor
79579,59,70,380,720,8.0,2-2,other
79580,75,90,700,100,8.0,2-2,other
79581,58,26,240,780,6.0,3-10,diminished
79582,74,81,370,920,6.0,3-10,diminished
79583,74,82,200,830,10.0,2-5,other
79584,43,63,2160,570,10.0,2-5,other
79585,50,40,5630,160,10.0,2-5,other
79586,71,58,60,220,10.0,2-5,other
79587,57,52,210,1640,5.0,2-5,other
79588,56,63,570,800,5.0,2-5,other
79589,43,77,1120,1730,7.0,3-7A,minor
79590,58,66,520,850,7.0,3-7A,minor
79591,70,75,310,820,7.0,3-7A,minor
79592,58,48,80,60,7.0,3-7A,minor
79593,36,65,2420,540,7.0,3-7A,minor
79594,43,53,2020,110,7.0,3-7A,minor
79595,52,52,1050,170,7.0,3-7A,minor
79596,70,77,380,910,10.0,4-19B,augmented
79597,43,78,3270,1710,10.0,2-4,major
79598,52,99,2310,910,10.0,2-4,major
79599,58,60,810,900,10.0,2-4,major
79600,62,62,740,950,10.0,2-4,major
79601,67,74,180,960,10.0,2-4,major
79602,67,75,200,2000,0.0,2-5,other
79603,63,56,1150,930,7.0,3-7A,minor
79604,48,49,470,1050,7.0,3-7A,minor
79605,49,63,410,1770,7.0,2-3,minor
79606,48,68,400,470,7.0,2-3,minor
79607,47,70,290,400,7.0,2-3,minor
79608,46,82,280,330,7.0,2-3,minor
79609,45,83,450,360,7.0,2-3,minor
79610,44,76,300,350,7.0,2-3,minor
79611,43,73,180,430,7.0,2-3,minor
79612,38,57,60,450,7.0,2-3,minor
79613,36,31,100,40,7.0,2-3,minor
79614,58,53,2280,1800,0.0,5-17,other
79615,64,43,140,60,3.0,2-5,other
79616,72,47,220,30,3.0,2-5,other
79617,87,57,1370,890,3.0,2-5,other
79618,84,42,1890,110,4.0,2-4,major
79619,87,57,550,1510,4.0,2-4,major
79620,58,47,740,40,4.0,2-4,major
79621,82,20,190,2050,7.0,3-7B,other
79622,60,45,3830,550,7.0,3-7B,other
79623,67,50,2600,1040,7.0,3-7B,other
79624,63,40,990,40,7.0,3-7B,other
79625,77,52,890,1310,7.0,3-7B,other
79626,63,54,1670,2370,7.0,3-7B,other
79627,62,39,1220,60,2.0,2-4,major
79628,61,51,1230,1020,5.0,2-4,major
79629,69,52,880,3830,9.0,3-10,diminished
79630,69,46,400,1250,9.0,3-10,diminished
79631,69,44,550,970,9.0,3-10,diminished
79632,62,39,660,1090,0.0,3-7B,other
79633,57,53,740,1670,2.0,2-5,other
79634,70,68,580,720,2.0,2-5,other
79635,58,55,1130,30,2.0,2-5,other
79636,70,57,1040,2060,0.0,3-9,other
79637,58,42,100,30,0.0,3-9,other
79638,69,43,710,1090,10.0,2-4,major
79639,39,46,800,1960,5.0,3-4A,other
79640,69,32,420,40,5.0,3-4A,other
79641,61,23,260,870,10.0,1-1,other
79642,69,40,360,830,5.0,3-8B,other
79643,73,48,1940,1630,5.0,3-9,other
79644,82,60,1500,1060,5.0,3-9,other
79645,61,47,1060,80,5.0,3-9,other
79646,73,34,1480,1370,5.0,3-9,other
79647,77,18,1060,1750,1.0,3-2B,other
79648,60,45,10880,4160,10.0,1-1,other
79649,62,43,10220,600,10.0,1-1,other
79650,65,45,9510,610,10.0,1-1,other
79651,69,48,400,510,10.0,1-1,other
79652,70,57,180,430,10.0,1-1,other
79653,74,49,320,480,10.0,1-1,other
79654,81,48,1710,630,10.0,1-1,other
79655,74,46,350,1890,10.0,1-1,other
79656,81,40,430,590,10.0,1-1,other
79657,82,49,160,470,10.0,1-1,other
79658,86,52,1590,490,10.0,1-1,other
79659,98,57,750,570,10.0,1-1,other
79660,93,62,1070,550,10.0,1-1,other
79661,94,51,600,540,10.0,1-1,other
79662,98,64,1010,640,10.0,1-1,other
79663,48,91,23,0,,,
79664,46,66,14,479,10.0,3-11B,major
79665,53,61,22,237,6.0,2-3,minor
79666,52,83,80,117,8.0,5-29A,minor
79667,51,89,61,97,8.0,5-29A,minor
79668,55,71,38,196,7.0,4-26,minor
79669,78,77,28,300,7.0,4-19A,minor
79670,74,73,40,101,2.0,2-3,minor
79671,65,59,8,270,2.0,2-4,major
79672,60,57,37,85,4.0,1-1,other
79673,55,68,48,152,7.0,2-5,other
79674,59,74,26,79,4.0,2-6,other
79675,61,75,39,41,4.0,2-6,other
79676,70,86,21,209,7.0,4-26,minor
79677,67,60,6,34,7.0,4-26,minor
79678,50,88,53,820,6.0,3-10,other
79679,50,75,26,66,6.0,3-10,other
79680,44,53,9,74,6.0,3-10,other
79681,69,107,53,111,7.0,5-35,minor
79682,69,53,28,86,8.0,5-38B,other
79683,70,76,25,27,8.0,5-38B,other
79684,72,63,14,62,0.0,3-1,other
79685,60,49,74,38,0.0,3-1,other
79686,62,63,27,106,1.0,2-3,other
79687,63,49,24,33,1.0,2-3,other
79688,64,56,27,33,1.0,2-3,other
79689,60,58,21,71,5.0,3-11B,major
79690,72,88,46,32,5.0,3-11B,major
79691,69,83,26,84,5.0,4-20,major
79692,65,83,18,37,5.0,4-20,major
79693,62,59,8,231,4.0,2-4,major
79694,69,72,37,126,5.0,4-19B,other
79695,46,51,21,117,5.0,3-6,other
79696,62,60,6,240,2.0,2-4,major
79697,55,86,24,233,10.0,3-4A,major
79698,55,67,27,35,10.0,3-4A,major
79699,54,70,117,84,10.0,2-4,other
79700,55,88,28,120,10.0,2-4,major
79701,54,93,27,29,10.0,2-4,major
79702,43,86,48,147,10.0,3-11B,major
79703,90,110,29,63,10.0,3-11B,major
79704,89,101,27,37,10.0,3-11B,major
79705,74,80,97,296,3.0,4-11A,major
79706,70,72,31,121,7.0,3-11A,minor
79707,55,15,62,163,10.0,4-22A,major
79708,59,96,119,686,9.0,4-26,minor
79709,58,72,36,115,0.0,2-4,major
79710,68,1,64,141,3.0,3-11A,other
79711,43,106,12,138,8.0,3-7A,minor
79712,43,58,29,235,7.0,3-11A,minor
79713,60,66,22,347,5.0,3-11B,major
79714,65,66,17,98,9.0,2-3,minor
79715,69,88,27,26,9.0,2-3,minor
79716,72,102,160,36,9.0,2-3,minor
79717,69,82,90,175,0.0,4-19B,other
79718,65,79,42,42,0.0,4-19B,other
79719,52,25,24,138,9.0,3-7A,minor
79720,45,57,14,101,9.0,2-3,minor
79721,63,62,7,84,8.0,4-23,minor
79722,70,57,21,223,10.0,4-20,major
79723,69,62,21,35,10.0,4-20,major
79724,72,82,19,30,10.0,4-20,major
79725,62,53,12,66,10.0,2-4,major
79726,66,70,21,26,10.0,2-4,major
79727,62,53,41,100,10.0,3-4A,major
79728,54,67,27,157,10.0,2-4,major
79729,57,59,42,231,5.0,1-1,other
79730,49,91,31,366,7.0,4-26,minor
79731,67,79,25,80,2.0,1-1,other
79732,70,104,19,32,2.0,1-1,other
79733,72,96,22,27,2.0,1-1,other
79734,54,92,35,102,7.0,3-11A,minor
79735,67,74,37,118,10.0,2-5,other
79736,53,69,47,244,2.0,3-11A,minor
79737,53,38,60,96,0.0,4-24,augmented
79738,78,1,35,967,8.0,1-1,other
79739,70,38,18,260,10.0,5-27A,major
79740,43,77,11,230,10.0,2-4,major
79741,55,67,9,119,10.0,3-4A,major
79742,51,63,185,325,5.0,4-2B,other
79743,65,63,39,147,5.0,3-12,augmented
79744,67,78,29,30,5.0,3-12,augmented
79745,65,84,18,188,9.0,2-3,minor
79746,55,60,41,203,4.0,4-23,minor
79747,62,57,44,45,4.0,4-23,minor
79748,69,60,18,38,4.0,4-23,minor
79749,46,47,9,79,5.0,4-24,augmented
79750,55,54,12,33,5.0,4-24,augmented
79751,57,63,28,29,5.0,4-24,augmented
79752,61,69,35,63,5.0,4-19A,augmented
79753,51,62,21,36,5.0,4-19A,augmented
79754,43,70,32,230,9.0,3-10,diminished
79755,58,79,47,581,7.0,4-27B,major
79756,64,64,21,371,4.0,2-3,minor
79757,79,74,14,234,8.0,5-24A,other
79758,75,75,23,120,9.0,5-33,other
79759,77,55,15,118,8.0,5-24A,other
79760,73,55,15,119,5.0,5-33,augmented
79761,48,74,79,239,7.0,4-26,minor
79762,64,63,12,136,1.0,4-27A,minor
79763,65,69,18,203,5.0,3-11B,major
79764,69,110,18,40,5.0,3-11B,major
79765,43,81,12,122,5.0,3-11B,major
79766,59,61,37,239,9.0,4-26,minor
79767,51,52,33,118,0.0,3-11B,major
79768,59,81,46,82,8.0,2-3,other
79769,58,67,26,246,3.0,3-6,major
79770,62,74,10,35,3.0,3-6,major
79771,69,50,39,84,2.0,4-26,minor
79772,72,85,29,37,2.0,4-26,minor
79773,78,87,74,203,10.0,2-1,other
79774,70,77,14,151,10.0,3-11B,major
79775,65,89,34,91,10.0,2-4,major
79776,62,47,24,37,10.0,2-4,major
79777,51,73,87,76,4.0,3-8B,other
79778,66,1,90,43,4.0,3-8B,other
79779,44,75,20,115,0.0,3-8A,major
79780,43,71,16,46,0.0,3-8A,major
79781,61,52,11,60,0.0,3-8A,major
79782,67,71,16,68,7.0,3-11A,minor
79783,62,71,9,167,10.0,3-12,augmented
79784,66,89,9,37,10.0,3-12,augmented
79785,75,57,3,89,10.0,3-12,augmented
79786,74,66,16,96,7.0,4-26,minor
79787,70,50,13,27,7.0,4-26,minor
79788,75,34,6,122,9.0,3-4A,major
79789,71,87,35,100,0.0,2-4,major
79790,67,65,24,40,0.0,2-4,major
79791,74,88,28,72,4.0,2-6,other
79792,72,80,23,38,4.0,2-6,other
79793,67,75,25,82,9.0,4-26,minor
79794,72,88,10,37,9.0,4-26,minor
79795,65,84,11,362,10.0,2-4,major
79796,44,77,33,80,8.0,5-38B,minor
79797,53,71,35,36,8.0,5-38B,minor
79798,56,78,55,48,8.0,5-38B,minor
79799,44,84,9,175,0.0,3-12,augmented
79800,69,86,19,246,2.0,4-23,minor
79801,57,90,122,965,7.0,3-11A,minor
79802,55,74,53,115,10.0,2-4,major
79803,54,71,136,53,10.0,2-4,major
79804,45,52,10,428,10.0,2-4,major
79805,38,91,12,114,2.0,5-31B,major
79806,57,69,25,124,8.0,4-10,minor
79807,49,69,28,372,10.0,3-11B,major
79808,64,70,6,116,0.0,2-2,other
79809,70,90,167,1084,7.0,2-5,other
79810,67,76,38,86,7.0,4-26,minor
79811,62,72,34,41,7.0,4-26,minor
79812,63,88,28,118,10.0,3-6,major
79813,48,61,95,117,1.0,4-28,diminished
79814,65,48,38,123,5.0,3-11B,major
79815,72,96,24,116,5.0,4-20,major
79816,73,112,29,598,8.0,2-2,other
79817,73,95,15,86,1.0,5-27A,other
79818,73,81,14,27,1.0,5-27A,other
79819,74,71,18,89,7.0,2-5,other
79820,67,62,10,27,7.0,2-5,other
79821,70,73,19,88,7.0,2-3,minor
79822,62,72,13,60,7.0,2-3,minor
79823,66,62,17,153,7.0,3-3A,minor
79824,65,63,18,311,7.0,3-11A,minor
79825,52,41,23,164,10.0,2-4,major
79826,62,75,20,198,7.0,4-23,minor
79827,70,75,28,78,7.0,3-11A,minor
79828,70,79,75,248,2.0,2-3,minor
79829,67,64,9,35,2.0,2-3,minor
79830,47,53,10,227,2.0,2-5,other
79831,68,60,34,481,10.0,2-1,other
79832,69,85,32,39,10.0,2-1,other
79833,83,89,23,174,4.0,4-22B,minor
79834,81,92,27,38,4.0,4-22B,minor
79835,81,71,30,123,0.0,4-24,augmented
79836,69,62,11,117,2.0,4-27B,major
79837,59,83,15,802,5.0,4-19B,other
79838,58,84,80,43,5.0,4-19B,other
79839,57,78,36,83,5.0,2-4,other
79840,56,77,39,36,5.0,2-4,other
79841,65,79,31,204,5.0,2-4,other
79842,67,66,30,36,5.0,2-4,other
79843,69,88,15,213,9.0,2-3,minor
79844,69,1,63,460,5.0,4-24,augmented
79845,39,71,27,39,5.0,4-24,augmented
79846,62,105,22,352,7.0,4-26,minor
79847,70,100,17,119,7.0,3-11A,minor
79848,58,94,43,355,7.0,4-27B,major
79849,56,85,33,122,5.0,2-4,major
79850,54,65,26,119,0.0,3-9,other
79851,72,101,25,296,9.0,2-3,minor
79852,72,77,35,60,9.0,2-3,minor
79853,72,72,30,192,0.0,2-5,other
79854,72,61,28,54,0.0,2-5,other
79855,72,55,30,187,5.0,3-11A,other
79856,72,55,43,54,5.0,3-11A,other
79857,72,48,58,236,0.0,2-2,other
79858,58,75,228,0,,,
79859,57,14,72,296,,,
79860,58,59,216,76,,,
79861,62,29,28,684,3.0,3-11B,major
79862,63,36,36,380,3.0,3-11B,major
79863,63,48,200,3816,9.0,3-8B,other
79864,62,31,36,420,9.0,3-8B,other
79865,55,40,284,1664,2.0,3-7A,minor
79866,57,26,40,1516,5.0,2-5,other
79867,63,44,120,344,5.0,2-5,other
79868,66,49,68,764,3.0,3-11B,major
79869,63,25,40,40,3.0,3-11B,major
79870,55,22,212,428,2.0,3-7A,minor
79871,55,32,388,1512,2.0,3-7A,minor
79872,55,25,246,754,10.0,3-11B,major
79873,61,39,36,1414,6.0,2-3,other
79874,66,56,24,356,6.0,2-3,other
79875,62,55,24,1548,7.0,3-11A,minor
79876,58,26,32,36,7.0,3-11A,minor
79877,63,34,124,1492,9.0,3-8B,other
79878,58,1,140,2364,2.0,4-23,minor
79879,61,57,40,1864,3.0,2-4,other
79880,57,21,32,412,6.0,3-7A,other
79881,60,30,36,372,2.0,2-3,minor
79882,74,29,32,400,2.0,3-7A,minor
79883,54,41,36,760,2.0,3-7A,minor
79884,56,49,72,36,2.0,3-7A,minor
79885,49,54,92,344,0.0,5-37,minor
79886,50,42,58,48,0.0,5-37,minor
79887,49,57,100,720,7.0,4-22B,minor
79888,63,29,36,1568,0.0,3-11B,other
79889,66,26,32,852,6.0,2-5,other
79890,55,38,152,104,10.0,3-9,other
79891,67,48,128,784,3.0,3-11B,major
79892,50,51,192,1416,0.0,3-11B,other
79893,53,54,60,264,0.0,3-11B,other
79894,63,63,192,92,0.0,3-11B,other
79895,51,56,32,1080,7.0,4-26,minor
79896,66,41,44,32,7.0,4-26,minor
79897,51,43,48,1444,0.0,4-20,other
79898,54,48,80,828,3.0,3-11A,other
79899,49,48,68,356,7.0,3-11A,minor
79900,51,49,92,392,10.0,3-11B,other
79901,46,57,80,356,0.0,4-26,other
79902,51,44,28,784,0.0,3-11A,minor
79903,66,46,30,3854,6.0,3-7A,other
79904,63,32,48,42,6.0,3-7A,other
79905,60,38,36,708,2.0,3-7A,minor
79906,61,39,36,1992,6.0,2-3,other
79907,61,32,48,376,6.0,2-3,other
79908,55,17,412,424,2.0,3-7A,minor
79909,60,54,212,1076,8.0,3-8B,other
79910,62,24,88,736,2.0,4-23,minor
79911,58,1,124,56,2.0,4-23,minor
79912,59,32,104,1608,5.0,3-11B,major
79913,60,33,36,1044,2.0,2-3,minor
79914,53,88,72,356,2.0,2-3,minor
79915,41,89,88,396,2.0,2-3,minor
79916,58,46,152,4572,2.0,2-2,other
79917,58,43,68,412,7.0,2-2,other
79918,58,25,400,1976,2.0,4-23,minor
79919,63,41,32,668,2.0,4-23,minor
79920,60,37,96,288,3.0,3-4B,other
79921,62,47,304,204,6.0,3-8A,other
79922,58,20,56,812,2.0,4-23,minor
79923,54,33,60,680,10.0,4-16A,other
79924,58,25,40,32,10.0,4-16A,other
79925,63,52,72,1140,5.0,3-11B,major
79926,63,45,28,372,5.0,3-11B,major
79927,53,39,32,772,2.0,3-7A,minor
79928,60,41,64,368,2.0,3-7A,minor
79929,60,42,36,784,2.0,3-7A,minor
79930,55,25,28,924,10.0,2-4,major
79931,61,39,52,1764,6.0,2-3,other
79932,53,31,368,1156,7.0,3-11A,minor
79933,63,54,72,1156,3.0,2-4,major
79934,63,56,88,380,3.0,2-4,major
79935,65,39,32,1132,2.0,3-7A,minor
79936,60,45,184,920,3.0,3-4B,other
79937,62,46,268,264,8.0,2-2,other
79938,60,24,240,36,8.0,2-2,other
79939,60,24,36,344,10.0,2-4,major
79940,61,4,316,2400,6.0,4-27A,minor
79941,55,36,596,436,2.0,3-7A,minor
79942,53,51,48,1800,2.0,4-23,minor
79943,54,61,56,40,2.0,4-23,minor
79944,49,39,32,1088,3.0,3-11B,major
79945,51,54,196,488,0.0,4-20,other
79946,61,34,36,460,8.0,4-27A,diminished
79947,56,55,100,268,10.0,4-18A,major
79948,65,45,28,292,8.0,3-10,diminished
79949,54,47,64,72,8.0,3-10,diminished
79950,55,35,136,428,10.0,2-4,major
79951,49,36,88,156,10.0,2-4,major
79952,51,52,232,216,7.0,4-26,minor
79953,63,45,208,32,7.0,4-26,minor
79954,55,21,112,28,7.0,4-26,minor
79955,58,47,28,588,0.0,3-7B,other
79956,61,50,88,28,0.0,3-7B,other
79957,73,41,28,1004,7.0,4-27B,major
79958,54,21,60,1664,10.0,3-11A,other
79959,59,46,28,456,0.0,3-11A,minor
79960,58,48,156,476,7.0,2-5,other
79961,51,40,52,1812,6.0,3-11A,minor
79962,49,49,112,344,0.0,4-26,other
79963,49,35,44,756,7.0,2-3,minor
79964,49,17,136,288,1.0,4-26,other
79965,51,45,76,72,1.0,4-26,other
79966,53,49,420,76,5.0,4-27B,major
79967,41,75,68,336,5.0,4-27B,major
79968,60,36,228,468,2.0,2-3,minor
79969,66,57,28,1828,3.0,2-4,major
79970,74,42,32,1952,2.0,2-2,other
79971,53,25,28,400,7.0,3-11A,minor
79972,63,45,168,2328,2.0,2-3,minor
79973,60,34,36,376,2.0,2-3,minor
79974,58,26,52,1892,6.0,2-6,other
79975,55,39,536,1920,2.0,3-7A,minor
79976,62,54,188,352,2.0,3-7A,minor
79977,62,46,44,380,2.0,3-7A,minor
79978,60,31,44,28,2.0,3-7A,minor
79979,57,32,204,2432,6.0,3-7A,other
79980,50,25,40,1432,5.0,3-11B,major
79981,53,31,36,332,9.0,2-3,minor
79982,58,45,48,748,10.0,2-4,major
79983,57,37,56,448,10.0,2-4,major
79984,57,40,32,344,10.0,2-4,major
79985,63,42,40,396,10.0,2-4,major
79986,63,27,36,424,10.0,2-4,major
79987,63,47,88,736,10.0,2-4,major
79988,62,17,52,1072,8.0,2-2,other
79989,54,57,76,1344,5.0,3-5B,other
79990,63,32,48,1420,6.0,4-27A,minor
79991,55,31,272,396,2.0,3-7A,minor
79992,65,48,28,1904,2.0,2-2,other
79993,62,40,28,32,2.0,2-2,other
79994,58,54,48,352,2.0,2-2,other
79995,57,16,136,1676,6.0,3-7A,other
79996,58,48,80,1436,2.0,2-2,other
79997,55,26,96,32,2.0,2-2,other
79998,63,41,36,1060,3.0,2-4,major
79999,57,29,48,772,3.0,2-4,major
80000,60,37,112,1500,8.0,3-8B,other
80001,62,26,156,208,8.0,2-2,other
80002,60,40,44,1400,6.0,3-5B,other
80003,63,32,36,1112,3.0,2-4,other
80004,55,31,104,828,2.0,3-7A,minor
80005,54,36,92,344,2.0,3-7A,minor
80006,56,36,80,420,0.0,3-11A,minor
80007,54,34,44,364,0.0,4-26,minor
80008,56,39,76,48,0.0,4-26,minor
80009,54,39,96,352,0.0,4-26,minor
80010,54,46,104,368,7.0,4-23,minor
80011,51,39,128,368,7.0,4-23,minor
80012,54,42,100,40,7.0,4-23,minor
80013,54,49,128,388,0.0,4-26,minor
80014,51,46,108,368,0.0,4-26,minor
80015,51,56,88,388,0.0,5-35,other
80016,54,70,100,388,0.0,5-35,other
80017,67,56,116,276,8.0,4-27A,diminished
80018,54,49,104,128,8.0,4-27A,diminished
80019,67,62,120,176,8.0,4-27A,diminished
80020,54,39,100,120,8.0,4-27A,diminished
80021,64,48,268,568,8.0,4-10,minor
80022,55,35,32,1500,8.0,2-2,other
80023,56,49,72,56,8.0,2-2,other
80024,58,53,28,92,8.0,2-2,other
80025,60,80,76,68,8.0,2-2,other
80026,62,89,68,92,8.0,2-2,other
80027,63,96,108,96,8.0,2-2,other
80028,62,30,36,32,8.0,2-2,other
80029,65,122,132,180,8.0,2-2,other
80030,66,66,92,216,8.0,2-2,other
80031,67,77,68,88,8.0,2-2,other
80032,65,65,80,340,10.0,1-1,other
80033,67,56,52,92,10.0,1-1,other
80034,65,33,100,200,7.0,2-3,minor
80035,66,42,44,76,7.0,2-3,minor
80036,67,44,64,76,7.0,2-3,minor
80037,55,22,40,140,10.0,3-11A,other
80038,67,68,188,124,10.0,3-11A,other
80039,60,4,92,488,3.0,2-4,major
80040,44,56,72,88,3.0,2-4,major
80041,55,48,36,32,3.0,2-4,major
80042,44,49,224,360,0.0,4-26,minor
80043,49,58,116,364,3.0,3-11B,major
80044,54,56,104,760,3.0,4-27A,other
80045,51,52,112,472,7.0,3-11A,minor
80046,64,41,60,104,6.0,3-11A,minor
80047,51,49,108,256,6.0,3-11A,minor
80048,63,43,136,104,5.0,3-11A,other
80049,54,54,104,268,5.0,3-11A,other
80050,70,45,204,120,8.0,4-27A,diminished
80051,67,39,200,48,8.0,4-27A,diminished
80052,54,50,124,168,8.0,4-27A,diminished
80053,54,55,80,412,7.0,4-23,minor
80054,54,56,52,396,7.0,4-23,minor
80055,62,32,36,404,7.0,4-23,minor
80056,61,28,36,2668,6.0,2-3,other
80057,61,34,44,376,6.0,2-3,other
80058,62,29,32,428,6.0,2-3,other
80059,58,55,28,5696,2.0,2-2,other
80060,55,37,388,1976,2.0,3-7A,minor
80061,63,31,36,1148,5.0,2-2,other
80062,62,35,32,392,5.0,2-2,other
80063,56,29,36,388,5.0,2-2,other
80064,58,42,36,404,5.0,2-2,other
80065,58,46,24,332,5.0,2-2,other
80066,58,27,56,412,0.0,3-11A,minor
80067,63,50,92,348,0.0,3-11A,minor
80068,66,54,28,764,9.0,2-4,major
80069,63,39,44,36,9.0,2-4,major
80070,62,40,56,752,8.0,3-5B,other
80071,58,32,36,760,7.0,3-11A,minor
80072,62,39,44,3236,8.0,2-2,other
80073,62,63,68,212,8.0,2-2,other
80074,62,49,28,588,2.0,2-2,other
80075,66,54,64,2236,9.0,2-6,other
80076,63,30,52,36,9.0,2-6,other
80077,62,38,32,1384,2.0,3-7A,minor
80078,62,51,24,752,2.0,3-7A,minor
80079,63,48,88,1196,10.0,2-4,major
80080,63,40,56,384,10.0,2-4,major
80081,57,37,32,1516,5.0,3-11B,major
80082,58,46,28,392,5.0,3-11B,major
80083,55,28,40,28,5.0,3-11B,major
80084,58,51,28,336,5.0,3-11B,major
80085,63,52,44,392,5.0,3-11B,major
80086,63,49,88,352,5.0,3-11B,major
80087,63,55,32,416,5.0,3-11B,major
80088,63,39,32,388,5.0,3-11B,major
80089,60,25,680,516,3.0,3-4B,other
80090,55,22,120,1816,2.0,3-7A,minor
80091,53,34,56,1140,9.0,2-3,minor
80092,59,51,112,360,9.0,2-3,minor
80093,63,61,128,92,9.0,2-3,minor
80094,63,33,40,284,9.0,2-3,minor
80095,66,65,112,444,3.0,1-1,other
80096,53,39,36,1092,2.0,3-7A,minor
80097,54,40,84,60,2.0,3-7A,minor
80098,53,44,68,312,7.0,5-35,minor
80099,54,54,88,60,7.0,5-35,minor
80100,55,43,40,700,6.0,4-23,minor
80101,58,54,72,392,3.0,3-4A,major
80102,41,78,180,760,3.0,2-4,major
80103,48,26,28,32,3.0,2-4,major
80104,52,85,132,248,3.0,2-4,major
80105,55,83,112,264,5.0,2-5,other
80106,56,84,112,128,5.0,2-5,other
80107,59,66,76,300,8.0,2-2,other
80108,57,28,48,28,8.0,2-2,other
80109,61,87,116,104,8.0,2-2,other
80110,62,87,84,132,8.0,2-2,other
80111,63,71,100,108,8.0,2-2,other
80112,64,57,60,116,8.0,2-2,other
80113,65,94,232,112,8.0,2-2,other
80114,62,43,140,220,7.0,2-1,other
80115,58,63,96,100,7.0,2-1,other
80116,51,38,44,40,7.0,2-1,other
80117,70,88,264,164,9.0,2-2,other
80118,63,57,92,252,7.0,2-1,other
80119,62,56,156,108,7.0,2-1,other
80120,74,39,44,456,0.0,2-2,other
80121,70,47,76,56,0.0,2-2,other
80122,58,49,68,56,0.0,2-2,other
80123,67,50,40,28,0.0,2-2,other
80124,74,90,588,84,0.0,2-2,other
80125,73,38,36,40,0.0,2-2,other
80126,72,59,128,472,0.0,2-2,other
80127,68,51,120,80,0.0,2-2,other
80128,53,48,88,104,0.0,2-2,other
80129,67,46,180,252,8.0,4-27A,diminished
80130,67,50,84,456,8.0,4-27A,diminished
80131,65,40,268,216,0.0,3-7B,other
80132,68,45,192,1176,1.0,2-5,other
80133,51,54,64,616,0.0,3-11A,minor
80134,44,57,232,28,0.0,3-11A,minor
80135,51,39,40,260,5.0,3-7B,other
80136,65,40,168,628,8.0,2-3,minor
80137,65,33,40,256,7.0,3-11A,minor
80138,72,46,28,364,3.0,3-4A,other
80139,54,41,64,1904,7.0,4-23,minor
80140,62,44,28,1544,2.0,2-2,other
80141,60,22,24,400,2.0,2-3,minor
80142,63,27,44,468,2.0,2-3,minor
80143,63,57,36,652,0.0,3-11A,minor
80144,57,32,44,392,6.0,3-7A,other
80145,62,46,188,4732,8.0,2-2,other
80146,60,30,160,28,8.0,2-2,other
80147,58,10,60,772,2.0,4-23,minor
80148,57,51,140,1876,3.0,4-27A,other
80149,63,42,92,32,3.0,4-27A,other
80150,58,31,36,3006,2.0,3-7A,minor
80151,63,44,88,1092,0.0,3-11A,minor
80152,57,37,36,788,6.0,3-7A,other
80153,55,29,48,1192,10.0,2-4,major
80154,58,45,68,320,10.0,2-4,major
80155,58,1,96,2500,2.0,3-7A,minor
80156,58,19,228,1388,2.0,3-7A,minor
80157,60,57,28,1132,0.0,2-2,other
80158,59,48,64,436,5.0,2-4,major
80159,66,64,56,656,9.0,2-6,other
80160,63,48,24,1180,2.0,2-3,minor
80161,62,39,32,1588,2.0,2-2,other
80162,63,23,68,440,2.0,2-2,other
80163,63,29,44,360,2.0,2-2,other
80164,66,52,36,1148,6.0,3-7A,other
80165,57,29,68,2624,6.0,3-7A,other
80166,60,29,36,772,3.0,3-4B,other
80167,72,49,36,516,0.0,3-11B,other
80168,74,42,264,396,2.0,4-16A,major
80169,62,49,296,256,2.0,4-16A,major
80170,60,35,48,396,7.0,3-7B,other
80171,60,47,128,1112,10.0,4-16A,other
80172,53,32,204,772,3.0,3-4A,other
80173,61,37,200,892,6.0,3-10,minor
80174,55,43,600,272,2.0,3-7A,minor
80175,62,49,152,336,2.0,3-7A,minor
80176,62,39,32,792,2.0,3-7A,minor
80177,63,36,52,1140,10.0,2-4,major
80178,62,36,100,2668,2.0,4-23,minor
80179,58,55,52,412,2.0,4-23,minor
80180,58,43,44,396,2.0,4-23,minor
80181,60,37,40,424,3.0,3-4B,other
80182,62,45,48,748,3.0,3-4B,other
80183,58,3,520,876,7.0,2-2,other
80184,62,47,40,256,7.0,2-2,other
80185,60,1,88,200,7.0,2-2,other
80186,55,36,40,2520,10.0,2-4,major
80187,63,31,36,740,4.0,3-5B,other
80188,62,24,40,1276,5.0,2-5,other
80189,60,31,40,1064,2.0,2-3,minor
80190,55,34,44,752,10.0,2-4,major
80191,62,46,28,360,10.0,2-4,major
80192,58,24,32,28,10.0,2-4,major
80193,63,41,220,1488,9.0,2-4,major
80194,63,41,104,344,9.0,2-4,major
80195,61,27,56,32,9.0,2-4,major
80196,60,32,36,328,2.0,2-3,minor
80197,58,26,44,1264,3.0,2-4,major
80198,63,52,28,352,3.0,2-4,major
80199,61,30,40,28,3.0,2-4,major
80200,66,61,24,344,3.0,2-4,major
80201,63,37,40,36,3.0,2-4,major
80202,63,27,80,392,6.0,3-9,other
80203,63,39,32,368,6.0,3-9,other
80204,62,49,208,1028,8.0,2-1,other
80205,55,42,40,528,2.0,3-7A,minor
80206,53,30,32,1524,0.0,2-4,major
80207,63,66,88,464,5.0,3-11B,major
80208,61,25,44,420,9.0,3-8B,other
80209,61,19,108,360,6.0,2-3,other
80210,70,81,3434,0,,,
80211,43,57,2496,36,,,
80212,50,51,1912,825,,,
80213,55,30,2201,826,,,
80214,62,81,940,1261,,,
80215,63,72,571,926,,,
80216,48,44,2696,58,,,
80217,79,81,490,1353,7.0,2-3,minor
80218,79,75,509,1866,9.0,2-2,other
80219,29,57,169,536,9.0,2-2,other
80220,81,82,284,33,9.0,2-2,other
80221,75,72,226,2706,9.0,2-6,other
80222,53,36,3241,1085,7.0,2-3,minor
80223,58,41,616,800,7.0,2-3,minor
80224,57,60,688,2469,10.0,2-4,major
80225,58,77,1170,772,10.0,2-4,major
80226,62,99,468,692,10.0,2-4,major
80227,68,63,119,1265,9.0,2-2,other
80228,43,63,1056,727,2.0,3-7A,minor
80229,62,24,197,641,10.0,2-4,major
80230,73,51,56,1671,2.0,2-3,minor
80231,62,60,701,582,2.0,2-3,minor
80232,62,52,466,2704,7.0,1-1,other
80233,50,49,323,2954,10.0,2-5,other
80234,75,62,638,795,10.0,2-5,other
80235,55,48,60,665,0.0,4-26,minor
80236,46,56,446,1140,0.0,2-5,other
80237,45,64,58,641,0.0,2-5,other
80238,79,122,613,1413,9.0,3-7A,minor
80239,77,88,506,696,9.0,3-7A,minor
80240,60,45,806,797,3.0,2-1,other
80241,75,57,579,765,2.0,2-3,minor
80242,72,54,564,1188,2.0,2-2,other
80243,70,55,2313,604,2.0,2-2,other
80244,55,36,3576,27,2.0,2-2,other
80245,58,49,2223,598,2.0,2-2,other
80246,62,43,1384,722,2.0,2-2,other
80247,70,63,220,1145,2.0,2-2,other
80248,72,88,604,656,2.0,2-2,other
80249,70,75,227,671,2.0,2-2,other
80250,65,65,133,1376,5.0,1-1,other
80251,46,52,1383,1406,3.0,3-4A,major
80252,50,75,1634,744,3.0,3-4A,major
80253,55,52,484,799,3.0,3-4A,major
80254,60,59,325,1590,1.0,3-10,other
80255,61,81,239,374,1.0,3-10,other
80256,63,81,211,308,1.0,3-10,other
80257,64,76,204,240,1.0,3-10,other
80258,66,85,179,267,1.0,3-10,other
80259,58,48,1567,86,1.0,3-10,other
80260,67,77,246,199,1.0,3-10,other
80261,69,78,283,206,1.0,3-10,other
80262,70,81,155,250,1.0,3-10,other
80263,72,77,203,211,1.0,3-10,other
80264,73,79,201,253,1.0,3-10,other
80265,74,70,331,235,1.0,3-10,other
80266,75,75,286,296,1.0,3-10,other
80267,76,66,248,286,1.0,3-10,other
80268,77,74,386,304,1.0,3-10,other
80269,55,37,1187,466,3.0,1-1,other
80270,69,59,1405,462,3.0,1-1,other
80271,60,37,650,75,3.0,1-1,other
80272,50,60,1346,1312,9.0,2-6,other
80273,74,66,752,848,9.0,2-6,other
80274,72,59,3149,914,3.0,3-4A,major
80275,63,47,2346,1035,3.0,3-4A,major
80276,50,39,655,1680,7.0,2-5,other
80277,58,41,579,1314,7.0,2-5,other
80278,70,85,355,891,7.0,2-5,other
80279,68,38,98,91,7.0,2-5,other
80280,70,84,313,551,7.0,2-5,other
80281,68,38,84,84,7.0,2-3,minor
80282,55,55,147,1034,3.0,2-5,other
80283,48,52,1230,29,3.0,2-5,other
80284,69,78,369,1672,0.0,2-5,other
80285,67,74,403,453,0.0,2-5,other
80286,72,72,212,1068,5.0,2-5,other
80287,51,50,1686,84,5.0,2-5,other
80288,63,69,503,1185,11.0,2-2,other
80289,63,61,669,1155,11.0,2-2,other
80290,58,50,639,32,11.0,2-2,other
80291,53,48,717,63,11.0,2-2,other
80292,62,65,238,715,11.0,2-2,other
80293,74,68,352,1771,10.0,1-1,other
80294,57,48,555,901,5.0,2-4,major
80295,81,81,255,723,5.0,2-4,major
80296,84,62,1427,1055,9.0,1-1,other
80297,77,49,1987,57,9.0,1-1,other
80298,43,43,675,42,9.0,1-1,other
80299,57,49,773,648,9.0,1-1,other
80300,70,51,588,641,9.0,1-1,other
80301,58,41,1307,44,9.0,1-1,other
80302,77,46,1466,1302,2.0,2-3,minor
80303,62,44,4884,686,2.0,2-3,minor
80304,74,39,200,685,2.0,2-3,minor
80305,72,57,1728,983,2.0,2-3,minor
80306,53,29,195,64,2.0,2-3,minor
80307,70,49,956,1412,2.0,2-3,minor
80308,67,63,850,1720,9.0,2-6,other
80309,58,38,1750,44,9.0,2-6,other
80310,66,71,615,684,9.0,2-6,other
80311,62,42,408,52,9.0,2-6,other
80312,67,61,136,600,9.0,2-6,other
80313,51,45,472,33,9.0,2-6,other
80314,50,52,735,744,10.0,2-5,other
80315,75,72,493,707,10.0,2-5,other
80316,46,65,597,1578,0.0,3-11A,minor
80317,55,49,151,846,9.0,3-7A,minor
80318,57,56,658,1293,3.0,2-4,major
80319,55,61,512,26,3.0,2-4,major
80320,57,31,106,1598,5.0,2-2,other
80321,50,48,2448,951,0.0,1-1,other
80322,75,61,457,939,0.0,1-1,other
80323,54,42,2152,35,0.0,1-1,other
80324,60,36,869,1008,8.0,3-8B,other
80325,57,75,571,2781,7.0,3-11A,minor
80326,70,81,287,1481,7.0,3-11A,minor
80327,68,38,75,84,7.0,3-11A,minor
80328,65,72,137,2483,5.0,3-11B,major
80329,67,79,486,1549,3.0,2-5,other
80330,67,80,411,1496,7.0,2-5,other
80331,55,31,77,43,7.0,2-5,other
80332,67,72,179,1651,1.0,2-6,other
80333,69,82,475,762,1.0,2-6,other
80334,57,75,711,57,1.0,3-10,minor
80335,67,37,389,45,1.0,3-10,minor
80336,75,54,1038,7677,5.0,1-1,other
80337,75,54,3719,2094,7.0,3-7A,minor
80338,58,35,888,64,3.0,2-4,major
80339,46,31,2837,29,3.0,2-4,major
80340,57,41,477,1062,3.0,2-4,major
80341,63,40,1598,1074,3.0,2-4,major
80342,46,36,418,1216,7.0,2-3,minor
80343,60,46,5205,4915,5.0,2-1,other
80344,26,36,5259,29,5.0,2-1,other
80345,38,22,5232,46,5.0,2-1,other
80346,62,63,1340,1050,7.0,3-11A,minor
80347,55,34,443,1004,7.0,3-11A,minor
80348,62,49,397,525,7.0,3-11A,minor
80349,55,12,208,1476,10.0,2-4,major
80350,79,61,214,628,9.0,2-3,minor
80351,58,45,792,305,9.0,2-6,other
80352,53,29,1122,54,9.0,2-6,other
80353,84,58,96,287,9.0,2-6,other
80354,75,57,166,1248,9.0,2-3,minor
80355,58,43,271,793,10.0,1-1,other
80356,57,82,477,954,10.0,3-11B,major
80357,58,73,824,472,10.0,3-11B,major
80358,62,88,307,475,10.0,3-11B,major
80359,56,43,134,337,10.0,3-11B,major
80360,65,87,221,456,5.0,2-4,major
80361,69,92,130,319,5.0,2-4,major
80362,69,49,199,1691,10.0,3-4A,major
80363,70,52,254,298,10.0,3-4A,major
80364,53,40,1400,321,10.0,2-4,major
80365,94,85,257,1297,10.0,2-4,major
80366,93,68,198,270,10.0,2-4,major
80367,92,57,135,140,10.0,2-4,major
80368,91,49,93,158,10.0,2-4,major
80369,90,45,178,114,5.0,3-9,other
80370,91,53,855,198,5.0,3-9,other
80371,90,63,133,859,5.0,2-5,other
80372,91,74,83,209,5.0,2-5,other
80373,101,81,205,283,5.0,2-5,other
80374,48,46,338,250,5.0,2-5,other
80375,99,69,201,28,5.0,2-5,other
80376,55,52,125,330,5.0,2-5,other
80377,62,71,331,277,5.0,2-5,other
80378,60,76,277,335,5.0,2-5,other
80379,58,79,522,310,5.0,2-5,other
80380,63,60,150,285,5.0,2-5,other
80381,72,82,137,652,9.0,2-2,other
80382,79,127,280,301,9.0,2-2,other
80383,77,102,216,684,9.0,2-3,minor
80384,76,75,120,374,9.0,2-3,minor
80385,77,84,242,75,9.0,2-3,minor
80386,54,45,823,173,9.0,2-3,minor
80387,77,75,527,147,5.0,2-5,other
80388,75,60,447,268,5.0,2-5,other
80389,60,33,329,570,2.0,3-3B,other
80390,72,72,390,1275,7.0,4-14A,minor
80391,71,49,88,343,7.0,4-14A,minor
80392,70,46,127,79,7.0,4-14A,minor
80393,69,41,117,129,7.0,4-14A,minor
80394,70,56,573,159,10.0,2-4,major
80395,70,83,127,713,10.0,2-4,major
80396,70,82,490,564,2.0,2-2,other
80397,65,47,157,1219,2.0,3-11A,minor
80398,55,37,316,255,3.0,4-20,major
80399,49,48,1458,1807,10.0,2-4,major
80400,55,57,851,528,10.0,2-4,major
80401,69,122,253,485,10.0,2-4,major
80402,69,107,253,379,10.0,2-4,major
80403,70,75,248,302,10.0,2-4,major
80404,50,51,2743,668,7.0,3-9,other
80405,86,115,608,345,7.0,3-9,other
80406,74,49,355,665,2.0,1-1,other
80407,86,45,136,322,2.0,1-1,other
80408,74,47,404,621,2.0,2-1,other
80409,62,35,276,576,2.0,2-1,other
80410,50,45,40,454,2.0,2-1,other
80411,58,34,66,2446,2.0,1-1,other
80412,85,22,112,272,3.0,4-20,major
80413,92,52,167,582,7.0,3-11A,minor
80414,86,60,59,901,7.0,3-11A,minor
80415,57,23,173,358,5.0,5-38B,major
80416,57,39,301,888,5.0,2-5,other
80417,53,39,308,933,3.0,2-5,other
80418,82,35,153,54,3.0,2-5,other
80419,46,32,456,412,3.0,2-5,other
80420,81,111,153,754,2.0,2-5,other
80421,82,85,191,214,2.0,2-5,other
80422,81,63,186,489,10.0,2-1,other
80423,74,31,146,267,10.0,2-1,other
80424,75,39,170,190,10.0,2-1,other
80425,77,58,118,220,10.0,2-1,other
80426,74,43,123,229,10.0,2-4,major
80427,69,25,100,227,10.0,2-4,major
80428,70,38,88,232,10.0,2-4,major
80429,71,73,174,203,10.0,2-4,major
80430,70,56,173,470,7.0,4-22B,minor
80431,69,45,217,249,7.0,4-22B,minor
80432,70,61,193,238,7.0,4-22B,minor
80433,74,75,296,721,10.0,3-6,major
80434,74,56,1173,480,10.0,3-6,major
80435,66,65,226,2366,2.0,4-5A,major
80436,89,84,136,1174,3.0,4-20,major
80437,48,43,901,305,3.0,2-5,other
80438,55,34,309,515,3.0,2-5,other
80439,63,43,433,2303,9.0,3-7A,minor
80440,77,31,55,233,9.0,3-7A,minor
80441,78,67,99,73,9.0,3-7A,minor
80442,77,52,46,90,9.0,3-7A,minor
80443,76,66,42,79,9.0,3-7A,minor
80444,75,57,109,121,9.0,3-7A,minor
80445,72,60,44,108,9.0,3-7A,minor
80446,69,64,63,99,9.0,3-7A,minor
80447,66,50,52,158,9.0,3-7A,minor
80448,54,36,780,76,9.0,3-7A,minor
80449,64,49,96,155,9.0,3-7A,minor
80450,63,49,538,169,9.0,3-7A,minor
80451,54,46,107,557,9.0,3-7A,minor
80452,62,54,79,220,9.0,3-7A,minor
80453,63,56,113,90,9.0,3-7A,minor
80454,62,48,55,94,9.0,3-7A,minor
80455,60,56,91,88,9.0,3-7A,minor
80456,57,53,52,360,9.0,3-7A,minor
80457,70,94,93,1645,7.0,3-11A,minor
80458,70,89,124,265,7.0,3-11A,minor
80459,70,45,32,170,7.0,3-11A,minor
80460,72,77,410,124,2.0,2-3,minor
80461,70,87,398,456,2.0,2-3,minor
80462,62,24,216,509,10.0,2-1,other
80463,53,39,45,432,10.0,2-1,other
80464,65,56,95,231,10.0,2-1,other
80465,58,50,698,1139,7.0,2-5,other
80466,50,43,538,29,7.0,2-5,other
80467,55,35,1410,987,1.0,2-3,other
80468,85,75,170,252,1.0,2-3,other
80469,82,61,145,196,1.0,2-3,other
80470,84,73,140,215,1.0,2-3,other
80471,79,69,134,533,10.0,1-1,other
80472,76,58,157,185,10.0,1-1,other
80473,73,61,141,145,10.0,1-1,other
80474,72,54,150,190,10.0,1-1,other
80475,73,49,43,164,10.0,1-1,other
80476,53,24,1282,79,10.0,2-4,major
80477,74,56,116,257,10.0,2-4,major
80478,75,59,103,113,10.0,2-4,major
80479,76,54,87,102,10.0,2-4,major
80480,77,59,107,146,10.0,2-4,major
80481,77,66,106,233,10.0,2-4,major
80482,77,56,122,223,10.0,2-4,major
80483,65,43,64,213,10.0,2-4,major
80484,65,51,89,176,10.0,2-4,major
80485,65,48,60,191,10.0,2-4,major
80486,60,41,724,248,3.0,3-6,major
80487,60,18,496,927,3.0,2-4,major
80488,58,56,214,1388,3.0,3-11B,major
80489,57,77,478,958,10.0,3-11B,major
80490,58,84,311,950,10.0,3-11B,major
80491,57,53,50,942,2.0,4-15B,other
80492,75,77,220,221,2.0,4-15B,other
80493,74,80,169,155,2.0,4-15B,other
80494,73,52,36,124,2.0,4-15B,other
80495,72,74,257,34,2.0,4-15B,other
80496,55,40,466,55,10.0,3-4A,major
80497,70,71,666,201,10.0,3-4A,major
80498,74,66,132,1439,9.0,2-2,other
80499,82,72,30,500,3.0,2-1,other
80500,79,68,228,1148,3.0,3-11B,major
80501,82,81,141,304,3.0,3-11B,major
80502,81,54,85,352,9.0,2-1,other
80503,78,58,195,347,9.0,2-1,other
80504,77,62,197,304,9.0,2-1,other
80505,57,25,311,82,3.0,2-4,major
80506,78,52,121,156,3.0,2-4,major
80507,77,60,95,125,3.0,2-4,major
80508,76,55,111,115,3.0,2-4,major
80509,75,46,284,206,9.0,3-8B,other
80510,73,60,109,315,9.0,3-8B,other
80511,65,37,178,60,9.0,3-8B,other
80512,74,61,231,119,2.0,2-2,other
80513,67,29,50,331,2.0,2-2,other
80514,53,31,600,73,2.0,2-2,other
80515,72,75,353,79,2.0,2-2,other
80516,67,31,65,296,2.0,2-2,other
80517,70,73,254,166,2.0,2-2,other
80518,69,62,181,514,5.0,1-1,other
80519,70,89,163,264,5.0,1-1,other
80520,60,39,583,82,2.0,2-3,minor
80521,72,84,232,131,2.0,2-3,minor
80522,69,68,116,284,2.0,2-3,minor
80523,65,43,199,182,2.0,2-3,minor
80524,67,68,119,260,2.0,2-3,minor
80525,62,47,110,36,2.0,2-3,minor
80526,69,73,191,168,2.0,2-3,minor
80527,62,50,115,272,2.0,2-3,minor
80528,63,49,220,183,2.0,2-3,minor
80529,65,48,122,273,2.0,2-3,minor
80530,58,52,91,491,7.0,3-7B,other
80531,55,34,508,3556,3.0,3-4B,other
80532,73,92,208,441,3.0,3-4B,other
80533,74,89,173,271,3.0,3-4B,other
80534,77,92,174,235,10.0,2-4,major
80535,74,76,109,273,10.0,2-4,major
80536,70,39,202,227,10.0,2-4,major
80537,55,39,165,302,10.0,2-4,major
80538,66,39,69,497,0.0,2-2,other
80539,67,63,250,180,0.0,2-2,other
80540,63,54,174,928,7.0,3-7A,minor
80541,65,41,104,248,7.0,3-7A,minor
80542,63,49,147,39,7.0,3-7A,minor
80543,62,66,88,144,7.0,3-7A,minor
80544,63,52,388,155,9.0,2-2,other
80545,60,42,762,400,9.0,2-2,other
80546,55,45,400,340,9.0,2-2,other
80547,62,64,124,414,9.0,2-2,other
80548,63,66,60,153,9.0,2-2,other
80549,67,46,67,185,9.0,2-2,other
80550,72,77,108,149,9.0,2-2,other
80551,74,78,127,148,9.0,2-2,other
80552,75,79,160,194,2.0,3-8A,major
80553,77,80,113,219,2.0,3-8A,major
80554,74,63,1096,181,2.0,3-8A,major
80555,72,63,140,1144,6.0,3-5B,other
80556,69,46,78,438,7.0,4-14A,minor
80557,70,57,39,122,7.0,4-14A,minor
80558,74,55,45,242,7.0,4-14A,minor
80559,77,78,75,149,7.0,4-14A,minor
80560,81,81,97,137,7.0,4-14A,minor
80561,62,21,166,197,0.0,2-2,other
80562,55,29,104,30,0.0,2-2,other
80563,82,75,98,177,0.0,2-2,other
80564,78,54,51,220,0.0,2-2,other
80565,81,78,108,263,0.0,2-2,other
80566,55,30,713,324,7.0,2-3,minor
80567,74,59,94,106,7.0,2-3,minor
80568,74,63,332,316,7.0,2-3,minor
80569,74,56,45,625,10.0,3-11B,major
80570,74,64,362,280,10.0,3-11B,major
80571,51,36,1191,477,7.0,2-5,other
80572,79,40,40,148,7.0,2-5,other
80573,70,58,1884,339,7.0,2-5,other
80574,58,39,265,443,7.0,2-5,other
80575,62,23,155,26,7.0,2-5,other
80576,49,68,379,930,10.0,2-4,major
80577,55,34,664,930,0.0,4-12A,major
80578,81,66,94,124,0.0,4-12A,major
80579,82,55,143,151,0.0,4-12A,major
80580,79,59,78,117,0.0,4-12A,major
80581,76,53,144,106,0.0,4-12A,major
80582,73,57,81,119,0.0,4-12A,major
80583,81,81,120,145,0.0,4-12A,major
80584,78,57,114,134,0.0,4-12A,major
80585,79,68,163,151,0.0,4-12A,major
80586,75,56,218,128,0.0,4-12A,major
80587,55,23,1413,162,0.0,2-3,minor
80588,60,50,334,516,9.0,2-3,minor
80589,77,96,84,107,9.0,2-3,minor
80590,78,65,144,93,9.0,2-3,minor
80591,77,46,71,109,9.0,2-3,minor
80592,76,72,78,80,9.0,2-3,minor
80593,75,63,136,127,9.0,2-3,minor
80594,63,35,114,72,9.0,2-3,minor
80595,69,56,82,142,0.0,1-1,other
80596,66,53,106,137,0.0,1-1,other
80597,65,54,88,101,0.0,1-1,other
80598,64,43,110,137,0.0,1-1,other
80599,63,55,663,126,0.0,1-1,other
80600,62,56,288,709,0.0,1-1,other
80601,63,65,145,304,0.0,1-1,other
80602,62,67,112,81,0.0,1-1,other
80603,60,44,256,72,0.0,1-1,other
80604,58,60,191,269,0.0,1-1,other
80605,50,40,246,149,0.0,1-1,other
80606,57,48,300,32,0.0,1-1,other
80607,53,31,532,75,0.0,1-1,other
80608,58,54,118,236,0.0,1-1,other
80609,62,57,156,193,0.0,1-1,other
80610,66,71,103,296,0.0,1-1,other
80611,43,58,37,109,0.0,1-1,other
80612,69,82,229,79,0.0,1-1,other
80613,66,51,100,306,0.0,1-1,other
80614,69,58,158,480,7.0,2-3,minor
80615,70,54,199,206,7.0,2-3,minor
80616,71,50,100,284,7.0,2-3,minor
80617,48,48,40,207,7.0,3-11A,minor
80618,71,43,56,318,7.0,3-11A,minor
80619,72,54,230,194,7.0,3-11A,minor
80620,74,70,139,281,7.0,3-11A,minor
80621,75,54,71,216,3.0,4-20,major
80622,79,70,81,282,3.0,4-20,major
80623,86,85,143,492,3.0,5-30B,augmented
80624,84,57,207,195,3.0,5-30B,augmented
80625,57,34,144,493,3.0,3-4B,other
80626,81,46,63,57,3.0,3-4B,other
80627,67,30,78,435,5.0,3-8A,major
80628,75,57,456,478,5.0,3-8A,major
80629,62,37,144,48,5.0,3-8A,major
80630,60,26,62,61,5.0,3-8A,major
80631,74,50,84,595,5.0,3-8A,major
80632,75,57,104,93,5.0,3-8A,major
80633,74,52,82,89,5.0,3-8A,major
80634,73,49,49,62,5.0,3-8A,major
80635,60,39,228,1492,2.0,2-3,minor
80636,70,81,98,671,2.0,3-11A,minor
80637,72,102,298,174,2.0,3-11A,minor
80638,55,43,1077,466,10.0,3-11B,major
80639,55,44,155,1354,7.0,3-11A,minor
80640,69,54,92,276,7.0,3-11A,minor
80641,65,49,55,1235,2.0,2-3,minor
80642,62,32,65,451,2.0,2-3,minor
80643,53,27,57,26,2.0,2-3,minor
80644,60,54,196,1017,3.0,4-22A,major
80645,62,60,293,410,3.0,4-22A,major
80646,58,42,234,66,10.0,2-4,major
80647,67,42,246,1492,0.0,3-7B,other
80648,79,42,220,49,0.0,3-7B,other
80649,71,57,33,1871,9.0,4-27A,diminished
80650,75,31,145,45,9.0,4-27A,diminished
80651,69,39,230,1099,2.0,3-3A,major
80652,69,29,185,316,6.0,3-7A,other
80653,50,58,568,3223,7.0,3-11A,minor
80654,43,60,93,535,7.0,3-11A,minor
80655,59,48,35,887,2.0,6-31B,minor
80656,82,41,43,2563,0.0,3-3A,major
80657,73,49,123,964,7.0,2-3,minor
80658,63,28,91,1202,1.0,2-2,other
80659,53,45,144,469,10.0,3-11B,major
80660,41,49,279,728,10.0,3-11B,major
80661,41,52,1127,429,10.0,3-11B,major
80662,53,39,938,524,3.0,3-9,other
80663,41,50,289,862,3.0,3-9,other
80664,46,48,558,938,3.0,3-11B,major
80665,46,40,601,921,3.0,3-11B,major
80666,26,40,21,0,2.0,5-34,major
80667,33,53,69,2964,9.0,2-6,other
80668,48,58,12,1599,5.0,2-5,other
80669,79,78,37,149,4.0,3-10,diminished
80670,76,72,28,63,4.0,3-10,diminished
80671,72,59,41,63,4.0,3-10,diminished
80672,67,46,31,60,4.0,3-10,diminished
80673,65,47,14,245,9.0,2-3,minor
80674,63,60,39,61,9.0,2-3,minor
80675,60,58,25,55,9.0,2-3,minor
80676,58,62,63,135,11.0,3-5A,other
80677,53,47,23,361,0.0,2-4,other
80678,51,42,48,75,0.0,2-4,other
80679,48,39,21,75,0.0,2-4,other
80680,44,52,56,151,0.0,2-2,other
80681,45,50,13,73,0.0,2-2,other
80682,29,58,13,85,0.0,2-2,other
80683,86,73,31,987,2.0,5-34,major
80684,74,31,18,77,2.0,5-34,major
80685,74,42,30,85,2.0,5-34,major
80686,86,26,11,181,2.0,1-1,other
80687,86,51,16,62,2.0,1-1,other
80688,44,44,19,315,11.0,2-2,other
80689,55,45,14,246,10.0,2-5,other
80690,69,69,32,319,10.0,2-1,other
80691,66,55,13,60,10.0,2-1,other
80692,67,48,26,59,10.0,2-1,other
80693,69,64,38,55,10.0,2-1,other
80694,70,50,11,60,10.0,2-1,other
80695,74,55,17,60,10.0,2-1,other
80696,78,53,12,62,10.0,2-1,other
80697,81,79,21,64,10.0,2-1,other
80698,84,96,33,59,10.0,2-1,other
80699,72,60,13,62,10.0,2-1,other
80700,73,56,18,71,10.0,2-1,other
80701,99,80,45,439,3.0,3-5B,other
80702,97,77,45,71,3.0,3-5B,other
80703,88,44,41,146,0.0,2-2,other
80704,87,58,37,72,0.0,2-2,other
80705,86,52,33,73,0.0,2-2,other
80706,85,36,41,74,0.0,2-2,other
80707,84,68,31,67,0.0,2-2,other
80708,80,58,33,217,9.0,3-2A,minor
80709,81,75,41,60,9.0,3-2A,minor
80710,77,67,40,63,9.0,3-2A,minor
80711,72,45,37,114,2.0,2-2,other
80712,48,50,18,184,2.0,2-2,other
80713,88,87,42,571,10.0,2-4,major
80714,80,64,45,69,10.0,2-4,major
80715,71,30,55,73,10.0,2-4,major
80716,77,43,36,63,10.0,2-4,major
80717,86,79,33,132,10.0,2-4,major
80718,74,57,37,63,10.0,2-4,major
80719,65,46,20,59,10.0,2-4,major
80720,80,60,41,61,10.0,2-4,major
80721,71,39,43,64,10.0,2-4,major
80722,77,61,34,64,10.0,2-4,major
80723,62,53,12,70,10.0,2-4,major
80724,65,51,15,95,10.0,2-4,major
80725,74,72,39,59,10.0,2-4,major
80726,62,50,19,194,5.0,2-4,major
80727,48,66,12,50,5.0,2-4,major
80728,69,74,32,69,5.0,2-4,major
80729,57,36,13,75,5.0,2-4,major
80730,64,54,43,53,5.0,2-4,major
80731,58,29,15,67,5.0,2-4,major
80732,66,55,44,60,5.0,2-4,major
80733,42,59,25,119,5.0,2-4,major
80734,65,37,20,61,5.0,2-4,major
80735,55,63,18,125,0.0,2-1,other
80736,35,36,15,74,0.0,2-1,other
80737,57,69,25,50,0.0,2-1,other
80738,60,69,31,63,0.0,2-1,other
80739,62,78,31,54,0.0,2-1,other
80740,65,70,25,58,0.0,2-1,other
80741,67,68,34,58,0.0,2-1,other
80742,29,53,13,55,0.0,2-1,other
80743,65,68,29,145,0.0,2-1,other
80744,67,72,37,54,0.0,2-1,other
80745,69,75,30,53,0.0,2-1,other
80746,70,83,26,56,0.0,2-1,other
80747,71,48,16,128,3.0,3-4A,major
80748,72,32,19,56,3.0,3-4A,major
80749,74,64,33,61,3.0,3-4A,major
80750,75,60,22,55,3.0,3-4A,major
80751,86,89,44,187,3.0,3-4A,major
80752,84,70,31,61,3.0,3-4A,major
80753,81,58,13,72,3.0,3-4A,major
80754,72,53,25,70,3.0,3-4A,major
80755,41,48,14,226,3.0,3-4A,major
80756,87,62,18,352,3.0,3-4A,major
80757,84,63,25,105,3.0,2-4,major
80758,81,47,22,37,3.0,2-4,major
80759,78,55,20,108,8.0,2-1,other
80760,77,44,32,26,8.0,2-1,other
80761,76,57,25,34,8.0,2-1,other
80762,75,77,28,96,8.0,2-1,other
80763,79,76,40,53,8.0,2-1,other
80764,75,61,37,43,8.0,2-1,other
80765,72,56,32,48,8.0,2-1,other
80766,69,28,19,54,8.0,2-1,other
80767,70,30,10,33,8.0,2-1,other
80768,69,35,30,29,8.0,2-1,other
80769,65,34,15,50,8.0,2-1,other
80770,72,76,49,33,8.0,2-1,other
80771,62,62,20,69,8.0,2-1,other
80772,65,38,16,64,8.0,2-1,other
80773,69,66,28,37,8.0,2-1,other
80774,72,63,28,41,8.0,2-1,other
80775,69,59,14,41,8.0,2-1,other
80776,70,51,16,36,8.0,2-1,other
80777,71,67,22,37,8.0,2-1,other
80778,73,56,28,35,8.0,2-1,other
80779,75,47,21,35,8.0,2-1,other
80780,77,47,34,40,8.0,2-1,other
80781,78,33,42,176,8.0,2-1,other
80782,80,52,32,39,8.0,2-1,other
80783,82,39,11,32,8.0,2-1,other
80784,83,54,14,32,8.0,2-1,other
80785,85,57,13,90,8.0,2-1,other
80786,86,43,38,33,8.0,2-1,other
80787,87,64,28,36,8.0,2-1,other
80788,88,65,39,32,8.0,2-1,other
80789,89,68,37,44,8.0,2-1,other
80790,86,60,30,49,8.0,2-1,other
80791,81,36,17,52,8.0,2-1,other
80792,84,73,32,52,8.0,2-1,other
80793,81,57,20,52,8.0,2-1,other
80794,77,62,30,56,8.0,2-1,other
80795,84,41,14,1207,2.0,1-1,other
80796,81,67,39,918,2.0,2-5,other
80797,77,43,16,73,2.0,2-5,other
80798,69,34,158,220,11.0,4-13B,diminished
80799,68,56,187,170,11.0,4-13B,diminished
80800,61,54,35,475,4.0,2-2,other
80801,64,53,48,33,4.0,2-2,other
80802,61,51,51,41,4.0,2-2,other
80803,59,54,38,59,4.0,2-2,other
80804,57,61,76,60,4.0,2-2,other
80805,52,64,190,92,4.0,2-2,other
80806,53,69,119,204,4.0,2-2,other
80807,55,55,30,130,4.0,2-2,other
80808,53,38,25,32,4.0,2-2,other
80809,50,49,19,33,4.0,2-2,other
80810,53,41,34,65,4.0,2-2,other
80811,55,72,22,171,4.0,2-2,other
80812,36,72,23,222,5.0,2-1,other
80813,65,66,28,173,9.0,2-3,minor
80814,60,66,11,39,9.0,2-3,minor
80815,59,74,36,56,9.0,2-3,minor
80816,58,78,33,67,9.0,2-3,minor
80817,56,68,40,62,9.0,2-3,minor
80818,57,68,27,63,9.0,2-3,minor
80819,60,74,29,56,9.0,2-3,minor
80820,62,74,32,58,9.0,2-3,minor
80821,60,72,232,59,9.0,2-3,minor
80822,95,26,12,1446,10.0,5-30B,other
80823,93,59,12,229,8.0,6-27A,diminished
80824,81,40,21,210,8.0,5-38B,other
80825,53,33,24,347,8.0,5-38B,other
80826,36,48,16,551,0.0,1-1,other
80827,24,69,17,163,0.0,1-1,other
80828,58,41,212,353,0.0,4-24,augmented
80829,64,5,74,53,0.0,4-24,augmented
80830,46,61,47,3111,5.0,1-1,other
80831,47,58,62,71,5.0,1-1,other
80832,48,62,23,84,5.0,1-1,other
80833,39,55,37,323,5.0,1-1,other
80834,40,40,50,75,5.0,1-1,other
80835,41,49,35,78,5.0,1-1,other
80836,30,59,66,161,5.0,1-1,other
80837,29,47,30,103,5.0,1-1,other
80838,84,109,55,234,5.0,1-1,other
80839,86,103,35,164,5.0,1-1,other
80840,84,67,13,91,5.0,1-1,other
80841,79,78,45,342,5.0,1-1,other
80842,75,54,37,66,5.0,1-1,other
80843,78,74,34,78,5.0,1-1,other
80844,65,39,34,480,6.0,2-6,other
80845,58,60,43,520,5.0,3-6,major
80846,57,36,47,50,5.0,3-6,major
80847,54,57,34,63,5.0,3-6,major
80848,57,67,113,66,5.0,3-6,major
80849,54,56,42,157,5.0,3-6,major
80850,55,42,39,85,5.0,3-6,major
80851,57,55,42,67,5.0,3-6,major
80852,58,51,40,77,5.0,3-6,major
80853,62,38,47,81,5.0,3-6,major
80854,66,40,32,84,5.0,3-6,major
80855,69,75,67,70,5.0,3-6,major
80856,66,50,242,80,5.0,3-6,major
80857,67,38,100,258,5.0,3-6,major
80858,43,59,14,3040,2.0,3-7A,minor
80859,36,67,26,703,2.0,4-26,minor
80860,62,26,73,5180,9.0,4-25,other
80861,72,62,20,1478,5.0,3-11B,major
80862,77,64,17,73,5.0,3-11B,major
80863,81,64,18,83,5.0,3-11B,major
80864,84,89,44,79,5.0,3-11B,major
80865,82,80,84,102,5.0,3-11B,major
80866,83,62,48,98,5.0,3-11B,major
80867,82,64,44,44,5.0,3-11B,major
80868,80,51,33,53,5.0,3-11B,major
80869,82,77,63,119,10.0,2-5,other
80870,77,31,20,254,0.0,3-3B,other
80871,75,66,27,132,0.0,3-3B,other
80872,70,51,20,98,0.0,3-3B,other
80873,71,37,34,38,0.0,3-3B,other
80874,70,51,46,34,0.0,3-3B,other
80875,68,40,41,51,0.0,3-3B,other
80876,65,37,24,59,0.0,3-3B,other
80877,70,78,74,62,0.0,3-3B,other
80878,65,24,71,243,0.0,2-4,other
80879,63,61,39,133,0.0,2-4,other
80880,62,55,47,85,0.0,2-4,other
80881,67,69,40,64,0.0,2-4,other
80882,65,63,44,74,0.0,2-4,other
80883,63,49,35,65,0.0,2-4,other
80884,60,54,39,67,0.0,2-4,other
80885,57,42,33,67,0.0,2-4,other
80886,56,47,43,62,0.0,2-4,other
80887,55,51,43,75,0.0,2-4,other
80888,54,35,36,81,0.0,2-4,other
80889,52,32,13,65,0.0,2-4,other
80890,55,69,37,49,0.0,2-4,other
80891,52,49,17,65,0.0,2-4,other
80892,53,38,37,60,0.0,2-4,other
80893,62,66,24,745,3.0,4-16A,major
80894,65,74,42,63,3.0,4-16A,major
80895,62,28,32,49,3.0,4-16A,major
80896,69,84,56,29,3.0,4-16A,major
80897,72,70,46,75,3.0,4-16A,major
80898,70,53,51,155,2.0,4-26,minor
80899,71,58,38,83,2.0,4-26,minor
80900,73,55,67,68,2.0,4-26,minor
80901,75,41,37,85,2.0,4-26,minor
80902,77,37,38,79,2.0,4-26,minor
80903,80,50,58,158,3.0,3-11A,other
80904,82,58,46,85,3.0,3-11A,other
80905,85,39,50,169,7.0,4-16B,major
80906,87,62,48,79,7.0,4-16B,major
80907,91,52,41,158,5.0,1-1,other
80908,93,69,33,76,5.0,1-1,other
80909,94,57,46,76,5.0,1-1,other
80910,98,54,43,155,8.0,4-28,diminished
80911,101,64,32,71,8.0,4-28,diminished
80912,104,64,50,65,8.0,4-28,diminished
80913,107,84,37,69,8.0,4-28,diminished
80914,98,29,25,119,8.0,4-28,diminished
80915,101,72,50,55,8.0,4-28,diminished
80916,104,64,45,63,8.0,4-28,diminished
80917,93,56,26,112,8.0,4-28,diminished
80918,95,63,35,57,8.0,4-28,diminished
80919,98,55,14,68,8.0,4-28,diminished
80920,89,61,16,109,8.0,4-28,diminished
80921,76,59,59,480,8.0,4-28,diminished
80922,77,59,52,61,8.0,4-28,diminished
80923,82,73,33,73,8.0,4-28,diminished
80924,81,72,37,68,8.0,4-28,diminished
80925,71,54,22,100,8.0,4-28,diminished
80926,72,42,35,83,8.0,4-28,diminished
80927,79,79,46,83,8.0,4-28,diminished
80928,77,76,36,83,8.0,4-28,diminished
80929,73,54,49,95,8.0,4-28,diminished
80930,69,57,145,442,2.0,2-2,other
80931,65,44,17,159,2.0,2-2,other
80932,53,57,15,709,1.0,3-7A,minor
80933,64,78,55,82,1.0,3-7A,minor
80934,61,64,66,70,1.0,3-7A,minor
80935,59,50,40,75,1.0,3-7A,minor
80936,48,51,15,244,1.0,3-7A,minor
80937,58,24,40,508,1.0,5-29B,other
80938,74,55,83,1340,2.0,2-1,other
80939,74,55,60,190,2.0,3-1,other
80940,74,68,48,159,2.0,4-5A,major
80941,74,51,40,188,2.0,3-1,other
80942,77,54,87,373,5.0,2-4,major
80943,65,15,61,30,5.0,2-4,major
80944,74,39,144,191,5.0,1-1,other
80945,65,50,38,464,5.0,1-1,other
80946,84,60,54,289,4.0,3-8B,other
80947,80,48,67,37,4.0,3-8B,other
80948,69,66,38,397,0.0,3-6,other
80949,65,48,14,69,0.0,3-6,other
80950,60,44,18,145,0.0,3-3A,minor
80951,58,64,53,147,11.0,2-6,other
80952,53,62,15,76,11.0,2-6,other
80953,57,70,41,132,0.0,2-4,other
80954,53,31,17,85,0.0,2-4,other
80955,51,42,25,56,0.0,2-4,other
80956,53,58,59,56,0.0,2-4,other
80957,53,47,50,92,0.0,2-4,other
80958,53,62,46,111,0.0,2-4,other
80959,53,68,37,122,0.0,2-4,other
80960,51,46,28,64,0.0,2-4,other
80961,53,49,29,57,0.0,2-4,other
80962,58,67,144,67,0.0,2-4,other
80963,65,44,15,713,8.0,2-3,minor
80964,68,64,23,55,8.0,2-3,minor
80965,71,80,32,64,8.0,2-3,minor
80966,71,74,29,118,8.0,3-10,diminished
80967,68,61,65,48,8.0,3-10,diminished
80968,65,55,18,76,8.0,3-10,diminished
80969,69,52,18,120,9.0,2-3,minor
80970,65,40,46,44,9.0,2-3,minor
80971,65,64,30,238,5.0,2-5,other
80972,67,41,19,183,5.0,2-5,other
80973,65,43,40,26,5.0,2-5,other
80974,62,36,35,43,5.0,2-5,other
80975,65,74,97,107,5.0,2-5,other
80976,62,37,29,134,5.0,2-5,other
80977,65,61,31,116,5.0,2-5,other
80978,36,53,15,235,5.0,2-5,other
80979,48,66,27,164,5.0,2-5,other
80980,58,76,103,326,8.0,5-32B,other
80981,71,35,14,494,9.0,4-26,minor
80982,99,62,63,747,0.0,5-15,major
80983,99,75,70,119,0.0,5-15,major
80984,98,66,62,256,6.0,4-15A,other
80985,93,62,62,108,6.0,4-15A,other
80986,93,68,46,115,6.0,4-15A,other
80987,96,75,64,85,6.0,4-15A,other
80988,89,32,50,244,10.0,4-11A,major
80989,89,57,37,141,10.0,4-11A,major
80990,93,70,13,79,10.0,4-11A,major
80991,86,53,19,242,10.0,3-4A,major
80992,86,42,23,77,10.0,3-4A,major
80993,89,68,31,77,10.0,3-4A,major
80994,89,66,18,89,10.0,3-4A,major
80995,82,62,14,68,10.0,3-4A,major
80996,82,60,30,76,10.0,3-4A,major
80997,86,69,22,80,10.0,3-4A,major
80998,86,73,34,82,10.0,3-4A,major
80999,72,49,18,170,0.0,3-7A,minor
81000,85,78,30,80,0.0,3-7A,minor
81001,85,79,37,79,0.0,3-7A,minor
81002,70,56,28,77,0.0,3-7A,minor
81003,70,42,14,84,0.0,3-7A,minor
81004,82,68,31,74,0.0,3-7A,minor
81005,68,53,23,166,3.0,2-5,other
81006,69,54,32,228,8.0,1-1,other
81007,81,40,37,42,8.0,1-1,other
81008,69,55,45,51,8.0,1-1,other
81009,74,34,29,248,5.0,1-1,other
81010,79,64,46,639,5.0,3-9,other
81011,77,56,59,46,5.0,3-9,other
81012,76,59,89,57,5.0,3-9,other
81013,77,59,41,90,5.0,3-9,other
81014,82,57,75,243,5.0,4-20,other
81015,77,56,42,121,5.0,4-20,other
81016,74,39,88,93,5.0,4-20,other
81017,65,23,35,242,8.0,2-3,minor
81018,60,45,130,225,0.0,1-1,other
81019,60,35,50,153,0.0,1-1,other
81020,63,51,23,87,0.0,1-1,other
81021,64,11,87,65,0.0,1-1,other
81022,60,45,159,166,0.0,1-1,other
81023,64,68,36,325,0.0,1-1,other
81024,65,67,58,76,0.0,1-1,other
81025,70,79,47,86,0.0,1-1,other
81026,69,74,45,82,0.0,1-1,other
81027,59,61,50,98,0.0,1-1,other
81028,60,34,14,96,0.0,1-1,other
81029,67,84,76,99,0.0,1-1,other
81030,65,53,18,124,0.0,1-1,other
81031,58,64,47,111,0.0,1-1,other
81032,56,57,26,85,0.0,1-1,other
81033,57,52,52,84,0.0,1-1,other
81034,60,66,37,84,0.0,1-1,other
81035,62,84,91,89,0.0,1-1,other
81036,60,36,13,102,0.0,1-1,other
81037,63,80,147,78,0.0,1-1,other
81038,55,34,13,148,0.0,1-1,other
81039,60,65,40,50,0.0,1-1,other
81040,63,35,12,58,0.0,1-1,other
81041,67,48,20,58,0.0,1-1,other
81042,75,87,39,99,0.0,2-1,other
81043,77,85,65,58,0.0,2-1,other
81044,69,59,138,302,2.0,4-15B,other
81045,69,38,128,269,6.0,4-29A,other
81046,69,46,170,239,0.0,1-1,other
81047,69,61,174,241,8.0,3-8A,other
81048,65,39,53,156,8.0,3-8A,other
81049,62,35,118,80,8.0,3-8A,other
81050,62,39,236,467,10.0,3-11B,major
81051,66,79,110,240,10.0,3-11B,major
81052,58,29,32,183,10.0,3-11B,major
81053,63,59,118,48,10.0,3-11B,major
81054,81,45,18,1193,2.0,5-19B,major
81055,62,60,14,1705,0.0,1-1,other
81056,65,71,18,162,0.0,1-1,other
81057,65,43,48,194,7.0,1-1,other
81058,62,38,26,91,7.0,1-1,other
81059,65,70,63,198,7.0,1-1,other
81060,60,51,15,550,0.0,2-1,other
81061,62,61,46,70,0.0,2-1,other
81062,67,67,38,130,3.0,2-5,other
81063,71,69,44,56,3.0,2-5,other
81064,74,84,46,67,3.0,2-5,other
81065,71,67,33,58,3.0,2-5,other
81066,73,61,17,128,0.0,4-14A,minor
81067,76,44,33,65,0.0,4-14A,minor
81068,79,58,38,48,0.0,4-14A,minor
81069,83,74,25,71,0.0,4-14A,minor
81070,86,93,52,43,0.0,4-14A,minor
81071,83,64,13,73,0.0,4-14A,minor
81072,84,85,55,43,0.0,4-14A,minor
81073,81,57,16,74,0.0,4-14A,minor
81074,57,26,247,523,3.0,3-4A,major
81075,74,60,23,145,3.0,3-4A,major
81076,77,85,44,73,3.0,3-4A,major
81077,69,44,70,274,3.0,4-16A,major
81078,57,28,46,171,3.0,3-4A,major
81079,72,56,21,56,3.0,3-4A,major
81080,51,35,33,655,7.0,4-26,minor
81081,46,35,15,308,2.0,2-3,minor
81082,56,39,22,657,8.0,2-6,other
81083,62,52,28,41,8.0,2-6,other
81084,68,65,31,123,8.0,2-6,other
81085,71,72,31,66,8.0,2-6,other
81086,77,41,17,118,8.0,2-6,other
81087,80,61,33,67,8.0,2-6,other
81088,83,85,43,60,8.0,2-6,other
81089,84,78,37,125,2.0,3-7B,other
81090,81,68,36,52,2.0,3-7B,other
81091,77,56,50,60,2.0,3-7B,other
81092,72,46,36,66,2.0,3-7B,other
81093,73,78,41,475,2.0,3-7B,other
81094,76,87,51,62,2.0,3-7B,other
81095,73,67,57,58,2.0,3-7B,other
81096,69,71,33,62,2.0,3-7B,other
81097,61,52,33,117,9.0,3-11B,major
81098,61,51,27,251,9.0,2-5,other
81099,62,72,66,50,9.0,2-5,other
81100,57,69,20,84,9.0,2-5,other
81101,57,53,16,78,9.0,2-5,other
81102,59,43,35,593,5.0,3-6,major
81103,62,23,39,517,5.0,4-19B,augmented
81104,56,29,82,1173,9.0,4-18A,major
81105,54,54,40,1952,2.0,5-34,major
81106,54,42,63,216,7.0,4-23,minor
81107,48,44,13,937,0.0,4-24,augmented
81108,36,83,22,466,0.0,4-24,augmented
81109,77,47,36,3066,1.0,4-28,diminished
81110,79,61,33,68,1.0,4-28,diminished
81111,69,43,82,3000,8.0,5-38B,other
81112,77,40,0,624,9.0,5-31B,major
81113,77,22,96,0,2.0,4-26,minor
81114,69,45,116,364,2.0,4-26,minor
81115,63,25,32,1716,4.0,5-32A,other
81116,70,46,248,184,5.0,6-28,augmented
81117,46,45,56,1424,5.0,4-18A,major
81118,71,46,96,464,8.0,4-27B,other
81119,57,38,60,392,9.0,4-26,minor
81120,31,32,52,780,7.0,5-27B,minor
81121,48,26,68,644,1.0,4-27A,minor
81122,69,102,128,744,5.0,3-11B,major
81123,72,102,112,36,5.0,3-11B,major
81124,74,86,600,152,8.0,3-10,other
81125,72,57,72,576,5.0,3-11A,other
81126,60,39,96,1312,9.0,2-6,other
81127,49,46,68,276,9.0,2-6,other
81128,68,38,48,212,2.0,4-26,minor
81129,67,48,84,68,2.0,4-26,minor
81130,66,54,84,80,2.0,4-26,minor
81131,32,19,164,1716,8.0,6-26,other
81132,76,44,20,756,7.0,5-32A,minor
81133,61,48,108,128,7.0,5-32A,minor
81134,77,25,24,136,1.0,4-28,diminished
81135,76,31,28,908,4.0,4-26,minor
81136,81,29,92,888,4.0,4-26,minor
81137,79,17,96,1520,2.0,4-26,minor
81138,53,47,108,88,2.0,4-26,minor
81139,40,28,424,528,4.0,6-27B,other
81140,58,45,200,1896,1.0,3-11A,minor
81141,81,64,64,924,5.0,2-1,other
81142,84,117,92,124,5.0,2-1,other
81143,80,76,156,136,2.0,4-27A,minor
81144,79,82,76,196,2.0,4-27A,minor
81145,80,50,72,108,2.0,4-27A,minor
81146,64,30,308,72,0.0,4-16A,other
81147,77,63,56,40,0.0,4-16A,other
81148,76,48,56,104,0.0,4-16A,other
81149,77,65,96,84,0.0,4-16A,other
81150,55,25,540,224,0.0,2-4,major
81151,72,56,88,112,0.0,2-4,major
81152,72,63,108,996,6.0,4-28,diminished
81153,71,46,112,1492,4.0,5-16A,other
81154,52,38,212,392,9.0,6-32,minor
81155,43,72,220,240,9.0,6-32,minor
81156,60,52,60,232,9.0,6-32,minor
81157,61,64,76,72,9.0,6-32,minor
81158,63,65,24,68,9.0,6-32,minor
81159,64,63,48,48,9.0,6-32,minor
81160,66,70,48,48,9.0,6-32,minor
81161,45,43,464,36,9.0,6-32,minor
81162,67,72,52,36,9.0,6-32,minor
81163,69,63,40,60,9.0,6-32,minor
81164,70,62,20,44,9.0,6-32,minor
81165,72,59,48,56,9.0,6-32,minor
81166,76,57,44,152,3.0,2-4,major
81167,79,53,56,136,4.0,3-8A,other
81168,81,56,60,52,4.0,3-8A,other
81169,82,60,48,88,4.0,3-8A,other
81170,83,46,60,68,4.0,3-8A,other
81171,55,43,720,472,9.0,2-5,other
81172,81,70,64,272,9.0,2-5,other
81173,57,34,364,160,5.0,3-11B,major
81174,79,56,100,192,5.0,3-11B,major
81175,43,52,472,112,5.0,3-11B,major
81176,77,28,56,40,5.0,3-11B,major
81177,50,25,68,248,5.0,3-11B,major
81178,43,84,592,472,4.0,4-4A,minor
81179,79,57,188,428,7.0,4-18A,minor
81180,81,55,52,752,5.0,3-11B,major
81181,81,25,20,256,5.0,2-5,other
81182,43,46,484,884,4.0,3-11A,minor
81183,59,40,36,56,4.0,3-11A,minor
81184,59,23,40,1560,7.0,2-5,other
81185,42,41,72,228,7.0,2-5,other
81186,57,54,4,320,11.0,4-27A,diminished
81187,65,57,48,340,9.0,2-5,other
81188,71,40,72,28,9.0,2-5,other
81189,77,47,68,208,0.0,5-30B,other
81190,74,48,48,32,0.0,5-30B,other
81191,79,41,64,28,0.0,5-30B,other
81192,84,31,52,360,4.0,2-3,minor
81193,88,56,56,456,2.0,2-5,other
81194,86,52,68,48,2.0,2-5,other
81195,84,56,60,68,2.0,2-5,other
81196,60,11,344,32,2.0,2-5,other
81197,83,56,48,44,2.0,2-5,other
81198,60,49,52,1356,2.0,2-2,other
81199,61,48,20,84,2.0,2-2,other
81200,62,64,48,44,2.0,2-2,other
81201,63,63,20,64,2.0,2-2,other
81202,62,39,44,76,6.0,4-27A,diminished
81203,68,59,68,92,6.0,4-27A,diminished
81204,70,57,16,52,6.0,4-27A,diminished
81205,72,66,48,52,6.0,4-27A,diminished
81206,73,61,20,72,6.0,4-27A,diminished
81207,76,58,48,176,0.0,3-2B,minor
81208,78,65,60,56,0.0,3-2B,minor
81209,82,26,40,84,0.0,3-2B,minor
81210,84,56,52,80,0.0,3-2B,minor
81211,86,67,32,140,2.0,6-42,major
81212,87,61,64,72,2.0,6-42,major
81213,88,35,28,76,2.0,6-42,major
81214,64,57,48,476,0.0,3-9,other
81215,69,55,40,124,0.0,3-9,other
81216,71,45,24,48,0.0,3-9,other
81217,72,40,24,40,0.0,3-9,other
81218,74,48,20,40,0.0,3-9,other
81219,76,45,20,40,0.0,3-9,other
81220,77,54,16,36,0.0,3-9,other
81221,79,47,20,40,0.0,3-9,other
81222,81,54,20,28,0.0,3-9,other
81223,83,46,16,44,0.0,3-9,other
81224,84,49,28,28,0.0,3-9,other
81225,86,52,28,40,0.0,3-9,other
81226,88,45,24,44,0.0,3-9,other
81227,89,48,20,44,0.0,3-9,other
81228,91,49,24,44,0.0,3-9,other
81229,93,52,56,44,0.0,3-9,other
81230,95,47,68,44,0.0,3-9,other
81231,96,39,28,64,0.0,3-9,other
81232,50,69,548,424,1.0,5-31A,diminished
81233,45,80,64,2156,7.0,3-11B,major
81234,65,72,148,412,5.0,2-1,other
81235,76,68,244,148,6.0,2-2,other
81236,63,45,48,304,6.0,2-2,other
81237,50,41,420,84,5.0,4-20,major
81238,52,63,64,716,2.0,4-26,minor
81239,68,58,48,1248,8.0,2-2,other
81240,70,43,24,40,8.0,2-2,other
81241,71,54,64,40,8.0,2-2,other
81242,72,45,52,68,8.0,2-2,other
81243,73,65,56,40,8.0,2-2,other
81244,76,52,72,160,7.0,3-7A,minor
81245,77,73,104,36,7.0,3-7A,minor
81246,58,31,64,32,7.0,3-7A,minor
81247,74,75,44,112,7.0,3-7A,minor
81248,70,58,88,96,7.0,3-7A,minor
81249,69,41,28,116,1.0,4-27A,minor
81250,76,80,80,60,1.0,4-27A,minor
81251,73,63,76,152,1.0,4-27A,minor
81252,68,28,36,184,7.0,5-23A,minor
81253,64,50,36,48,7.0,5-23A,minor
81254,72,74,512,76,7.0,5-23A,minor
81255,69,72,92,484,5.0,4-20,major
81256,53,31,456,172,8.0,2-6,other
81257,48,31,32,720,0.0,3-11B,major
81258,55,24,36,1036,9.0,4-22B,minor
81259,50,36,24,1908,4.0,2-5,other
81260,52,20,500,148,9.0,2-2,other
81261,42,66,96,208,9.0,2-2,other
81262,60,72,120,32,9.0,2-2,other
81263,43,58,304,92,9.0,2-2,other
81264,64,56,72,164,9.0,2-4,major
81265,31,82,476,92,9.0,2-4,major
81266,67,76,80,56,9.0,2-4,major
81267,70,50,148,128,9.0,2-4,major
81268,75,58,76,120,9.0,2-4,major
81269,87,78,80,376,10.0,3-11B,other
81270,88,107,96,124,1.0,4-26,other
81271,88,66,80,268,2.0,6-32,minor
81272,89,107,92,120,2.0,6-32,minor
81273,64,31,212,140,2.0,4-26,minor
81274,84,75,76,196,2.0,4-26,minor
81275,88,96,80,104,2.0,4-26,minor
81276,86,81,204,116,4.0,4-29A,minor
81277,84,84,96,248,4.0,4-29A,minor
81278,83,60,160,152,4.0,3-5B,other
81279,86,84,108,208,4.0,3-5B,other
81280,82,65,76,172,7.0,2-4,major
81281,83,56,68,52,7.0,2-4,major
81282,78,64,96,156,7.0,2-4,major
81283,79,53,44,68,7.0,2-4,major
81284,76,59,148,136,8.0,2-2,other
81285,74,59,80,200,8.0,2-2,other
81286,64,30,212,104,6.0,5-16A,minor
81287,73,49,144,56,6.0,5-16A,minor
81288,69,57,336,204,6.0,5-16A,minor
81289,49,29,36,28,6.0,5-16A,minor
81290,49,39,52,364,4.0,2-3,minor
81291,80,85,92,312,5.0,2-1,other
81292,81,77,64,72,5.0,2-1,other
81293,48,52,276,72,5.0,2-1,other
81294,76,82,88,84,9.0,2-3,minor
81295,77,74,76,76,9.0,2-3,minor
81296,46,45,52,124,9.0,2-3,minor
81297,72,56,64,28,9.0,2-3,minor
81298,76,111,100,500,10.0,2-5,other
81299,72,81,92,228,4.0,2-2,other
81300,74,86,88,244,9.0,5-27B,minor
81301,71,58,56,116,9.0,5-27B,minor
81302,56,38,64,412,0.0,5-32B,other
81303,64,39,144,1332,6.0,2-6,other
81304,69,88,52,244,6.0,2-6,other
81305,76,122,80,368,0.0,1-1,other
81306,77,82,80,276,0.0,3-4A,other
81307,72,68,88,120,0.0,3-4A,other
81308,55,35,120,132,4.0,4-26,minor
81309,65,56,104,112,4.0,4-26,minor
81310,71,48,56,1128,6.0,2-3,minor
81311,62,43,72,496,2.0,5-37,minor
81312,55,22,48,936,1.0,2-3,other
81313,87,34,36,652,1.0,4-18B,minor
81314,89,42,24,1772,2.0,3-7B,other
81315,45,70,28,1608,5.0,4-19B,other
81316,61,57,108,520,6.0,5-16A,minor
81317,80,61,20,1592,8.0,2-3,other
81318,77,34,28,384,8.0,3-10,diminished
81319,68,29,36,632,8.0,4-21,other
81320,64,22,52,572,10.0,3-8B,other
81321,57,46,32,328,9.0,3-11A,minor
81322,57,13,96,84,9.0,3-11A,minor
81323,57,45,232,308,6.0,4-27A,diminished
81324,70,63,76,564,0.0,5-25A,other
81325,68,57,72,36,0.0,5-25A,other
81326,67,54,60,72,0.0,5-25A,other
81327,70,57,48,192,8.0,2-6,other
81328,72,68,56,84,8.0,2-6,other
81329,74,79,60,80,8.0,2-6,other
81330,75,73,60,96,4.0,4-26,minor
81331,76,75,56,104,4.0,4-26,minor
81332,79,84,60,92,4.0,4-26,minor
81333,67,61,60,112,4.0,4-26,minor
81334,59,1,56,132,7.0,2-4,major
81335,67,57,52,88,7.0,2-4,major
81336,67,63,48,100,7.0,2-4,major
81337,67,60,140,220,9.0,1-1,other
81338,69,48,64,696,2.0,4-26,minor
81339,72,62,60,124,2.0,4-26,minor
81340,78,81,80,376,7.0,2-2,other
81341,76,68,76,396,7.0,2-1,other
81342,74,74,112,120,7.0,2-1,other
81343,64,31,72,76,8.0,4-12A,minor
81344,42,60,108,708,9.0,4-22B,minor
81345,69,23,72,80,9.0,4-22B,minor
81346,43,59,672,56,9.0,4-22B,minor
81347,51,49,92,972,7.0,5-29B,minor
81348,57,42,236,948,4.0,6-22A,minor
81349,88,19,92,136,4.0,6-22A,minor
81350,58,22,108,1788,1.0,3-10,diminished
81351,91,40,28,632,5.0,4-20,major
81352,84,53,160,144,2.0,6-32,minor
81353,32,54,96,196,2.0,6-32,minor
81354,57,66,80,1624,7.0,3-11B,major
81355,69,77,44,960,11.0,4-27A,diminished
81356,66,66,96,56,11.0,4-27A,diminished
81357,70,84,64,52,11.0,4-27A,diminished
81358,67,55,108,68,11.0,4-27A,diminished
81359,71,84,56,40,11.0,4-27A,diminished
81360,72,81,60,120,4.0,5-18A,major
81361,74,72,52,224,1.0,2-3,other
81362,71,43,72,36,1.0,2-3,other
81363,72,42,28,84,4.0,5-4A,major
81364,64,68,256,284,4.0,5-4A,major
81365,73,29,32,28,4.0,5-4A,major
81366,68,66,80,208,8.0,2-3,other
81367,72,65,304,236,9.0,3-7A,minor
81368,60,48,48,228,9.0,3-7A,minor
81369,39,49,68,1128,1.0,1-1,other
81370,64,23,140,160,2.0,3-8A,major
81371,69,57,40,124,2.0,3-8A,major
81372,76,92,92,128,2.0,3-8A,major
81373,60,27,132,148,6.0,2-6,other
81374,72,63,80,116,6.0,2-6,other
81375,66,68,700,116,6.0,2-6,other
81376,54,44,148,112,0.0,2-3,minor
81377,50,52,96,644,6.0,3-8B,other
81378,53,38,380,152,5.0,4-22A,major
81379,72,66,76,236,5.0,4-22A,major
81380,74,68,64,268,2.0,5-35,minor
81381,67,61,264,124,2.0,5-35,minor
81382,70,70,68,384,10.0,4-19B,augmented
81383,53,40,304,540,2.0,4-26,minor
81384,57,45,92,336,2.0,4-26,minor
81385,60,34,40,60,2.0,4-26,minor
81386,65,55,60,636,4.0,4-29A,minor
81387,52,31,104,464,11.0,3-2A,minor
81388,52,39,24,460,7.0,2-4,major
81389,49,32,72,616,7.0,4-27A,minor
81390,44,31,36,1552,8.0,4-28,diminished
81391,60,42,244,352,9.0,5-37,minor
81392,54,23,48,2092,9.0,3-11A,minor
81393,63,54,64,360,2.0,4-27A,minor
81394,56,27,80,588,0.0,5-25A,other
81395,59,57,60,1576,10.0,5-27A,major
81396,59,37,128,2052,4.0,4-26,minor
81397,71,77,172,232,4.0,4-26,minor
81398,45,50,296,84,4.0,4-26,minor
81399,49,37,80,672,5.0,3-8B,other
81400,69,78,128,376,2.0,5-27B,minor
81401,69,57,64,268,9.0,2-1,other
81402,79,85,88,388,4.0,5-16A,other
81403,77,86,76,128,4.0,5-16A,other
81404,76,73,152,172,4.0,4-5B,other
81405,71,75,80,416,4.0,4-26,minor
81406,67,60,56,112,4.0,4-26,minor
81407,62,66,88,112,4.0,4-26,minor
81408,59,63,200,132,4.0,2-3,minor
81409,64,50,68,720,1.0,5-32B,other
81410,65,48,24,128,1.0,5-32B,other
81411,39,41,32,116,1.0,5-32B,other
81412,40,48,112,400,2.0,4-26,minor
81413,73,39,32,176,4.0,3-5B,other
81414,42,41,112,192,4.0,3-5B,other
81415,31,37,32,372,9.0,2-2,other
81416,31,41,28,48,9.0,2-2,other
81417,30,56,132,728,0.0,3-9,other
81418,31,37,208,164,0.0,3-9,other
81419,29,36,18,0,0.0,5-35,minor
81420,69,89,35,468,2.0,5-31B,major
81421,69,87,32,70,2.0,5-31B,major
81422,69,72,27,69,2.0,5-31B,major
81423,69,66,26,66,2.0,5-31B,major
81424,69,62,24,56,2.0,5-31B,major
81425,69,58,17,49,2.0,5-31B,major
81426,69,53,16,37,2.0,5-31B,major
81427,69,45,11,38,2.0,5-31B,major
81428,69,51,16,28,2.0,5-31B,major
81429,69,54,16,34,2.0,5-31B,major
81430,69,54,16,31,2.0,5-31B,major
81431,69,57,14,37,2.0,5-31B,major
81432,69,54,13,34,2.0,5-31B,major
81433,69,60,12,38,2.0,5-31B,major
81434,69,61,12,37,2.0,5-31B,major
81435,72,54,232,137,10.0,2-1,other
81436,65,75,31,883,2.0,2-2,other
81437,69,108,38,57,2.0,2-2,other
81438,63,50,68,1496,2.0,4-14A,minor
81439,53,43,102,294,2.0,2-5,other
81440,65,75,37,402,2.0,2-5,other
81441,72,80,59,173,6.0,4-29A,minor
81442,76,71,97,176,5.0,4-16A,other
81443,76,53,32,125,5.0,4-16A,other
81444,81,62,53,78,5.0,4-16A,other
81445,60,53,422,1096,0.0,3-3B,other
81446,43,37,100,699,9.0,1-1,other
81447,43,43,583,140,9.0,1-1,other
81448,63,35,87,228,5.0,4-16A,major
81449,72,74,30,855,7.0,5-27B,minor
81450,62,47,52,666,10.0,5-27A,major
81451,77,44,33,1171,5.0,2-1,other
81452,81,64,29,47,5.0,2-1,other
81453,84,67,26,42,5.0,2-1,other
81454,53,32,54,299,9.0,2-5,other
81455,60,24,431,237,3.0,4-22A,major
81456,63,30,310,106,3.0,4-22A,major
81457,77,72,29,195,3.0,4-22A,major
81458,72,82,55,66,3.0,4-22A,major
81459,69,60,27,68,3.0,4-22A,major
81460,45,48,196,492,7.0,3-7B,other
81461,45,51,174,231,7.0,3-7B,other
81462,65,73,38,144,7.0,3-11A,minor
81463,69,78,33,104,5.0,2-4,major
81464,58,37,38,329,9.0,2-5,other
81465,48,49,170,839,9.0,2-5,other
81466,72,74,34,152,5.0,3-11B,major
81467,57,40,46,151,1.0,1-1,other
81468,69,15,34,161,7.0,2-5,other
81469,57,29,265,127,2.0,2-3,minor
81470,44,49,22,485,2.0,2-5,other
81471,69,65,51,181,6.0,3-5B,other
81472,66,73,54,56,6.0,3-5B,other
81473,58,92,56,540,11.0,3-10,diminished
81474,58,88,87,81,11.0,3-10,diminished
81475,62,71,76,74,11.0,3-10,diminished
81476,65,72,37,61,11.0,3-10,diminished
81477,65,54,76,624,7.0,5-36B,minor
81478,65,35,99,306,10.0,4-22A,major
81479,48,48,53,226,5.0,1-1,other
81480,57,35,25,68,5.0,1-1,other
81481,60,40,124,61,5.0,1-1,other
81482,64,48,50,62,5.0,1-1,other
81483,72,77,36,49,5.0,1-1,other
81484,77,80,37,52,5.0,1-1,other
81485,76,80,46,52,5.0,1-1,other
81486,57,45,129,119,11.0,2-3,minor
81487,74,46,63,130,2.0,2-5,other
81488,62,38,300,169,0.0,3-8B,other
81489,74,4,15,1870,0.0,4-20,major
81490,57,52,17,253,11.0,2-2,other
81491,62,44,97,53,11.0,2-2,other
81492,69,53,11,38,11.0,2-2,other
81493,74,38,29,35,11.0,2-2,other
81494,77,62,23,42,11.0,2-2,other
81495,54,34,23,1059,0.0,3-12,augmented
81496,60,47,73,63,0.0,3-12,augmented
81497,72,43,10,52,0.0,3-12,augmented
81498,53,22,10,142,4.0,4-22B,minor
81499,50,55,71,71,4.0,4-22B,minor
81500,43,53,9,69,4.0,4-22B,minor
81501,48,61,121,166,9.0,4-27A,diminished
81502,79,76,36,321,8.0,5-31A,diminished
81503,77,71,39,54,8.0,5-31A,diminished
81504,75,68,27,56,8.0,5-31A,diminished
81505,56,37,120,143,2.0,3-7A,minor
81506,68,49,30,126,5.0,2-5,other
81507,62,39,69,165,3.0,4-27A,other
81508,59,28,90,99,3.0,4-27A,other
81509,67,42,37,95,3.0,4-27A,other
81510,76,48,109,267,0.0,5-30B,other
81511,24,27,7,74,0.0,5-30B,other
81512,76,33,22,105,0.0,5-30B,other
81513,77,42,171,174,5.0,5-30B,other
81514,24,38,20,84,5.0,5-30B,other
81515,77,48,43,130,5.0,5-30B,other
81516,74,57,172,208,10.0,5-30B,other
81517,24,62,16,86,10.0,5-30B,other
81518,74,61,37,133,10.0,5-30B,other
81519,75,56,259,204,3.0,4-24,augmented
81520,24,38,39,112,3.0,4-24,augmented
81521,75,35,41,174,3.0,4-24,augmented
81522,55,38,11,495,10.0,4-22A,major
81523,58,38,875,77,10.0,4-22A,major
81524,62,52,312,50,10.0,4-22A,major
81525,65,48,750,41,10.0,4-22A,major
81526,69,42,21,46,10.0,4-22A,major
81527,70,42,11,33,10.0,4-22A,major
81528,74,57,18,33,10.0,4-22A,major
81529,78,63,17,30,10.0,4-22A,major
81530,81,78,33,30,10.0,4-22A,major
81531,78,74,18,32,10.0,4-22A,major
81532,79,70,24,29,10.0,4-22A,major
81533,81,65,34,32,10.0,4-22A,major
81534,82,67,17,31,10.0,4-22A,major
81535,86,73,25,33,10.0,4-22A,major
81536,90,62,23,35,10.0,4-22A,major
81537,93,66,29,37,10.0,4-22A,major
81538,90,55,24,34,10.0,4-22A,major
81539,91,46,30,34,10.0,4-22A,major
81540,93,55,25,40,10.0,4-22A,major
81541,96,47,28,78,10.0,2-4,major
81542,98,53,30,38,10.0,2-4,major
81543,100,53,36,42,10.0,2-4,major
81544,101,44,34,42,10.0,2-4,major
81545,103,47,39,46,10.0,2-4,major
81546,105,51,36,47,10.0,2-4,major
81547,106,43,38,46,10.0,2-4,major
81548,107,47,42,51,10.0,2-4,major
81549,108,50,39,52,10.0,2-4,major
81550,69,56,70,1738,2.0,5-31B,major
81551,72,53,39,301,5.0,5-22,augmented
81552,62,39,30,483,7.0,5-27B,minor
81553,65,71,26,48,7.0,5-27B,minor
81554,69,85,37,46,7.0,5-27B,minor
81555,76,59,36,149,0.0,2-5,other
81556,76,60,49,191,10.0,4-16A,major
81557,76,50,39,84,10.0,4-16A,major
81558,76,35,41,70,10.0,4-16A,major
81559,61,37,157,997,2.0,5-23A,minor
81560,47,7,24,229,9.0,2-3,minor
81561,52,38,166,170,9.0,4-27B,major
81562,65,70,28,128,7.0,2-5,other
81563,69,84,42,46,7.0,2-5,other
81564,72,74,29,46,7.0,2-5,other
81565,53,44,292,1063,6.0,2-3,minor
81566,65,62,102,1479,10.0,5-11A,major
81567,65,46,65,135,10.0,5-11A,major
81568,65,44,55,97,10.0,5-11A,major
81569,65,37,58,97,10.0,5-11A,major
81570,65,44,42,98,10.0,5-11A,major
81571,48,39,49,175,5.0,1-1,other
81572,60,38,65,301,0.0,1-1,other
81573,60,36,35,97,0.0,1-1,other
81574,60,33,90,107,0.0,1-1,other
81575,60,36,54,138,0.0,1-1,other
81576,72,54,20,1651,7.0,4-18A,minor
81577,72,46,28,37,7.0,4-18A,minor
81578,79,48,181,109,5.0,4-20,major
81579,77,80,123,394,3.0,4-22A,major
81580,72,84,55,169,9.0,3-8B,other
81581,72,58,28,145,2.0,4-26,minor
81582,72,64,17,52,2.0,4-26,minor
81583,62,66,26,399,5.0,2-4,major
81584,65,61,17,46,5.0,2-4,major
81585,76,73,130,199,5.0,3-9,other
81586,84,87,20,198,10.0,4-20,major
81587,48,47,370,194,9.0,4-27B,major
81588,60,45,19,489,9.0,2-3,minor
81589,61,56,14,31,9.0,2-3,minor
81590,65,61,16,32,9.0,2-3,minor
81591,66,56,13,28,9.0,2-3,minor
81592,73,37,14,62,9.0,3-3B,other
81593,77,53,17,34,9.0,3-3B,other
81594,78,38,16,27,9.0,3-3B,other
81595,84,47,8,31,9.0,3-3B,other
81596,74,58,34,187,9.0,2-4,major
81597,77,59,22,106,9.0,4-23,minor
81598,73,37,14,33,9.0,4-23,minor
81599,69,42,12,80,4.0,2-2,other
81600,67,38,21,26,4.0,2-2,other
81601,65,34,22,28,4.0,2-2,other
81602,67,40,25,56,9.0,3-11A,minor
81603,60,15,82,122,5.0,2-1,other
81604,44,31,31,91,5.0,2-1,other
81605,72,83,38,207,10.0,4-16A,other
81606,69,74,46,54,10.0,4-16A,other
81607,69,70,315,119,4.0,3-5B,other
81608,57,67,53,460,11.0,3-10,diminished
81609,62,49,24,113,7.0,3-7A,minor
81610,65,51,26,38,7.0,3-7A,minor
81611,69,68,24,47,7.0,3-7A,minor
81612,72,62,50,112,2.0,4-22B,minor
81613,62,37,24,63,2.0,4-22B,minor
81614,62,47,66,625,10.0,4-22A,major
81615,77,80,53,408,2.0,4-26,minor
81616,88,76,26,322,1.0,2-3,other
81617,89,96,34,56,1.0,2-3,other
81618,84,45,18,146,5.0,4-22A,major
81619,86,65,17,44,5.0,4-22A,major
81620,88,83,19,40,5.0,4-22A,major
81621,82,52,16,88,5.0,4-20,major
81622,84,64,16,36,5.0,4-20,major
81623,77,50,14,38,5.0,4-20,major
81624,79,57,15,27,5.0,4-20,major
81625,81,63,16,35,5.0,4-20,major
81626,75,49,16,181,2.0,2-2,other
81627,58,39,21,363,2.0,2-3,minor
81628,53,22,154,127,9.0,2-3,minor
81629,57,50,15,50,9.0,2-3,minor
81630,58,42,19,39,9.0,2-3,minor
81631,57,74,31,312,9.0,2-3,minor
81632,62,72,19,62,9.0,2-3,minor
81633,50,45,9,185,2.0,5-35,minor
81634,58,47,138,62,2.0,5-35,minor
81635,48,35,106,549,9.0,4-18A,major
81636,48,47,110,125,9.0,4-26,minor
81637,48,60,42,227,9.0,3-11A,minor
81638,61,40,16,121,9.0,2-4,major
81639,73,34,14,128,0.0,2-2,other
81640,78,57,20,78,5.0,2-4,major
81641,82,54,15,34,5.0,2-4,major
81642,88,71,19,85,0.0,3-3A,minor
81643,88,65,13,67,7.0,3-9,other
81644,89,72,22,27,7.0,3-9,other
81645,88,66,17,31,7.0,3-9,other
81646,81,53,14,28,7.0,3-9,other
81647,79,36,24,34,7.0,3-9,other
81648,62,22,69,57,7.0,3-9,other
81649,79,59,25,60,7.0,3-9,other
81650,77,39,19,80,7.0,3-9,other
81651,79,51,18,30,7.0,3-9,other
81652,81,74,31,326,10.0,4-16A,other
81653,78,58,29,102,10.0,4-16A,other
81654,81,64,25,107,4.0,3-5B,other
81655,43,24,30,76,4.0,3-5B,other
81656,65,70,30,628,10.0,2-4,major
81657,72,79,27,167,7.0,5-27B,minor
81658,72,62,17,62,7.0,5-27B,minor
81659,36,63,167,431,10.0,5-24B,major
81660,65,45,24,217,10.0,4-22A,major
81661,72,55,221,145,5.0,2-5,other
81662,48,24,6,270,5.0,4-20,major
81663,69,42,11,143,2.0,3-11A,minor
81664,74,105,24,43,2.0,3-11A,minor
81665,77,92,30,52,2.0,3-11A,minor
81666,74,82,32,102,4.0,4-15B,other
81667,72,66,47,44,4.0,4-15B,other
81668,71,50,23,57,4.0,4-15B,other
81669,71,46,27,139,2.0,2-2,other
81670,72,71,25,51,2.0,2-2,other
81671,74,64,19,39,2.0,2-2,other
81672,76,50,18,75,2.0,4-29A,minor
81673,74,49,24,119,2.0,3-5B,other
81674,71,53,14,109,2.0,3-11B,major
81675,72,70,237,28,2.0,3-11B,major
81676,52,38,23,261,5.0,2-4,major
81677,69,71,23,178,11.0,4-27A,diminished
81678,77,80,19,51,11.0,4-27A,diminished
81679,86,99,33,49,11.0,4-27A,diminished
81680,89,82,34,104,2.0,3-11A,minor
81681,88,88,35,47,2.0,3-11A,minor
81682,88,89,35,55,2.0,3-11A,minor
81683,86,71,28,101,7.0,3-5B,other
81684,84,59,31,46,7.0,3-5B,other
81685,84,71,29,56,7.0,3-5B,other
81686,83,49,26,105,8.0,4-28,diminished
81687,86,81,40,45,8.0,4-28,diminished
81688,83,43,26,64,8.0,4-28,diminished
81689,84,58,13,114,9.0,3-11A,minor
81690,87,69,19,76,2.0,2-5,other
81691,87,65,24,76,2.0,3-9,other
81692,87,63,25,384,2.0,3-11B,major
81693,51,33,18,319,0.0,2-4,major
81694,67,69,78,406,0.0,4-24,augmented
81695,55,36,126,608,0.0,4-26,minor
81696,60,49,15,269,0.0,2-4,other
81697,62,60,25,31,0.0,2-4,other
81698,63,77,29,37,0.0,2-4,other
81699,67,69,24,82,5.0,3-11B,major
81700,65,54,334,40,5.0,3-11B,major
81701,63,53,40,306,0.0,2-5,other
81702,72,58,88,103,6.0,3-8A,other
81703,72,59,12,343,8.0,2-3,other
81704,88,28,25,58,4.0,4-5B,other
81705,43,55,9,184,2.0,1-1,other
81706,63,34,64,1966,3.0,5-26A,other
81707,62,36,60,680,10.0,3-11B,major
81708,62,40,25,216,10.0,3-11B,major
81709,77,61,20,663,7.0,5-35,minor
81710,77,53,25,46,7.0,5-35,minor
81711,81,74,23,58,7.0,5-35,minor
81712,81,66,32,41,7.0,5-35,minor
81713,84,63,19,61,7.0,5-35,minor
81714,84,55,19,45,7.0,5-35,minor
81715,88,66,18,64,7.0,5-35,minor
81716,91,59,22,103,5.0,4-20,major
81717,77,82,40,475,0.0,5-35,minor
81718,51,57,136,231,2.0,4-27B,major
81719,72,71,276,214,10.0,4-20,major
81720,62,47,21,721,0.0,2-1,other
81721,43,53,21,111,0.0,2-1,other
81722,69,66,16,143,0.0,2-1,other
81723,79,48,10,154,5.0,3-3A,major
81724,72,43,9,299,1.0,2-2,other
81725,70,59,20,43,1.0,2-2,other
81726,66,64,18,34,1.0,2-2,other
81727,58,34,17,128,1.0,2-1,other
81728,54,53,32,66,1.0,2-1,other
81729,50,50,14,81,4.0,2-1,other
81730,29,60,149,93,1.0,2-1,other
81731,41,68,110,58,1.0,2-1,other
81732,57,73,23,68,1.0,2-1,other
81733,60,80,29,54,1.0,2-1,other
81734,64,87,41,51,1.0,2-1,other
81735,67,66,41,52,1.0,2-1,other
81736,70,59,42,112,6.0,4-29A,minor
81737,72,63,37,53,6.0,4-29A,minor
81738,73,49,23,47,6.0,4-29A,minor
81739,82,58,28,84,5.0,3-8B,other
81740,87,60,13,33,5.0,3-8B,other
81741,91,71,17,31,5.0,3-8B,other
81742,94,71,18,34,5.0,3-8B,other
81743,99,64,19,33,5.0,3-8B,other
81744,101,51,20,37,5.0,3-8B,other
81745,101,47,30,84,7.0,3-9,other
81746,100,55,26,45,7.0,3-9,other
81747,91,41,26,93,9.0,2-2,other
81748,89,54,11,107,7.0,3-9,other
81749,89,39,10,83,7.0,2-5,other
81750,89,53,35,225,10.0,2-4,major
81751,64,68,21,412,4.0,3-5B,other
81752,69,60,126,429,7.0,4-27B,major
81753,43,59,27,262,11.0,3-10,diminished
81754,43,60,24,62,11.0,3-10,diminished
81755,65,61,43,274,10.0,2-5,other
81756,62,48,31,660,10.0,4-22A,major
81757,36,38,178,358,11.0,5-25A,diminished
81758,43,24,33,107,11.0,5-25A,diminished
81759,36,51,23,127,10.0,4-22A,major
81760,91,95,37,237,3.0,3-5B,other
81761,89,84,135,125,3.0,3-5B,other
81762,41,68,77,60,3.0,3-5B,other
81763,88,83,53,64,3.0,3-5B,other
81764,81,67,19,112,0.0,2-3,minor
81765,76,49,33,41,0.0,2-3,minor
81766,74,55,30,87,5.0,4-20,major
81767,69,47,16,45,5.0,4-20,major
81768,72,55,60,36,5.0,4-20,major
81769,86,96,50,537,5.0,4-24,augmented
81770,81,81,29,124,0.0,2-2,other
81771,77,71,27,39,0.0,2-2,other
81772,74,61,19,33,0.0,2-2,other
81773,72,56,25,37,0.0,2-2,other
81774,69,40,23,113,2.0,2-2,other
81775,70,48,142,33,2.0,2-2,other
81776,57,67,205,280,2.0,2-3,minor
81777,50,45,74,233,10.0,2-4,major
81778,84,103,39,275,7.0,4-26,minor
81779,82,84,36,62,7.0,4-26,minor
81780,77,71,25,92,10.0,3-4A,major
81781,74,56,20,31,10.0,3-4A,major
81782,70,47,34,34,10.0,3-4A,major
81783,69,47,17,34,10.0,3-4A,major
81784,72,69,46,38,10.0,3-4A,major
81785,70,60,75,36,10.0,3-4A,major
81786,62,47,23,71,10.0,3-9,other
81787,64,43,39,42,10.0,3-9,other
81788,48,54,21,270,0.0,2-2,other
81789,48,48,48,65,0.0,2-2,other
81790,79,85,55,168,5.0,2-4,major
81791,76,84,30,72,5.0,2-4,major
81792,77,77,34,38,5.0,2-4,major
81793,72,62,33,92,5.0,4-20,major
81794,69,54,22,39,5.0,4-20,major
81795,74,72,27,37,5.0,4-20,major
81796,72,71,25,38,5.0,4-20,major
81797,69,58,25,36,5.0,4-20,major
81798,65,54,34,37,5.0,4-20,major
81799,62,47,33,36,5.0,4-20,major
81800,46,61,67,71,5.0,4-20,major
81801,72,96,29,123,9.0,2-2,other
81802,70,69,48,48,9.0,2-2,other
81803,61,68,16,37,9.0,2-2,other
81804,53,36,28,154,9.0,2-2,other
81805,52,55,19,28,9.0,2-2,other
81806,52,40,20,62,7.0,2-5,other
81807,53,44,61,30,7.0,2-5,other
81808,65,51,25,245,2.0,4-26,minor
81809,69,52,11,40,2.0,4-26,minor
81810,72,58,17,36,2.0,4-26,minor
81811,74,55,34,34,2.0,4-26,minor
81812,75,62,21,32,2.0,4-26,minor
81813,82,42,15,76,10.0,4-16A,other
81814,84,52,16,50,10.0,4-16A,other
81815,86,65,14,32,10.0,4-16A,other
81816,89,70,19,30,10.0,4-16A,other
81817,94,75,22,59,8.0,2-1,other
81818,93,46,9,202,8.0,5-24A,other
81819,88,29,8,67,8.0,9-4A,other
81820,86,44,8,69,1.0,4-15B,minor
81821,62,58,18,809,10.0,2-4,major
81822,67,43,11,35,10.0,2-4,major
81823,67,46,17,110,10.0,3-4A,major
81824,69,48,21,39,10.0,3-4A,major
81825,70,35,11,36,10.0,3-4A,major
81826,74,54,19,34,10.0,3-4A,major
81827,78,59,25,35,10.0,3-4A,major
81828,86,87,14,241,10.0,3-1,other
81829,48,58,126,210,10.0,3-11B,major
81830,48,68,215,163,1.0,4-27A,minor
81831,48,59,29,250,9.0,4-23,minor
81832,48,45,24,52,9.0,4-23,minor
81833,48,53,91,72,9.0,4-23,minor
81834,77,89,27,121,7.0,3-9,other
81835,77,80,24,51,7.0,3-9,other
81836,48,55,155,67,7.0,3-9,other
81837,76,48,31,168,4.0,1-1,other
81838,48,59,195,679,9.0,4-26,minor
81839,48,58,72,232,3.0,3-11B,major
81840,41,64,18,160,2.0,4-18A,major
81841,75,42,20,525,0.0,3-2B,other
81842,77,55,24,79,9.0,2-2,other
81843,74,53,23,40,9.0,2-2,other
81844,69,52,19,36,9.0,2-2,other
81845,77,50,22,74,2.0,4-26,minor
81846,74,54,27,38,2.0,4-26,minor
81847,93,79,16,81,2.0,4-26,minor
81848,86,66,22,73,5.0,2-1,other
81849,81,60,17,32,5.0,2-1,other
81850,55,78,70,79,5.0,2-1,other
81851,50,49,214,125,5.0,2-1,other
81852,53,48,22,300,10.0,2-1,other
81853,74,49,18,77,10.0,2-1,other
81854,77,50,17,38,10.0,2-1,other
81855,81,46,16,34,10.0,2-1,other
81856,82,61,25,40,10.0,2-1,other
81857,76,33,49,416,9.0,4-18A,major
81858,49,53,34,1027,1.0,2-1,other
81859,38,60,9,120,2.0,4-26,minor
81860,81,44,26,735,10.0,4-16A,other
81861,78,37,59,44,10.0,4-16A,other
81862,71,18,11,83,10.0,4-16A,other
81863,81,58,13,109,4.0,3-5B,other
81864,43,32,10,125,4.0,3-5B,other
81865,65,42,26,163,7.0,2-2,other
81866,42,45,18,70,7.0,2-2,other
81867,58,54,33,280,7.0,2-1,other
81868,62,40,38,124,7.0,2-3,minor
81869,47,40,33,785,10.0,4-22A,major
81870,69,83,26,551,2.0,4-26,minor
81871,74,79,25,46,2.0,4-26,minor
81872,77,90,25,65,2.0,4-26,minor
81873,57,47,58,117,9.0,3-9,other
81874,47,41,19,248,8.0,4-28,diminished
81875,81,84,28,1390,2.0,3-11A,minor
81876,80,49,12,37,2.0,3-11A,minor
81877,81,49,31,32,2.0,3-11A,minor
81878,83,60,322,160,0.0,4-16A,other
81879,40,51,11,108,0.0,4-16A,other
81880,76,53,25,1323,0.0,4-24,augmented
81881,88,60,9,60,0.0,4-24,augmented
81882,43,66,81,587,7.0,2-2,other
81883,43,63,19,113,7.0,2-2,other
81884,54,62,18,1119,5.0,3-11A,other
81885,60,51,145,55,5.0,3-11A,other
81886,60,38,19,192,5.0,2-5,other
81887,50,55,31,84,5.0,2-5,other
81888,44,50,16,41,5.0,2-5,other
81889,56,38,20,598,0.0,4-22A,major
81890,36,32,37,127,0.0,4-22A,major
81891,36,49,15,69,0.0,4-22A,major
81892,67,40,13,133,0.0,4-22A,major
81893,72,55,18,36,0.0,4-22A,major
81894,76,74,24,35,0.0,4-22A,major
81895,77,81,27,34,0.0,4-22A,major
81896,65,55,18,114,5.0,4-5B,other
81897,36,50,22,121,5.0,4-5B,other
81898,36,49,8,67,5.0,4-5B,other
81899,74,67,34,335,6.0,2-6,other
81900,74,68,32,65,6.0,2-6,other
81901,75,53,202,482,1.0,5-33,other
81902,36,40,10,113,1.0,5-33,other
81903,63,36,95,84,1.0,5-33,other
81904,75,39,18,76,1.0,5-33,other
81905,55,33,311,171,10.0,4-22A,major
81906,58,36,256,71,10.0,4-22A,major
81907,62,40,59,64,10.0,4-22A,major
81908,65,40,55,67,10.0,4-22A,major
81909,67,58,38,56,10.0,4-22A,major
81910,69,59,25,45,10.0,4-22A,major
81911,70,59,25,42,10.0,4-22A,major
81912,72,47,27,42,10.0,4-22A,major
81913,74,51,25,40,10.0,4-22A,major
81914,76,43,18,43,10.0,4-22A,major
81915,77,54,32,34,10.0,4-22A,major
81916,79,52,29,40,10.0,4-22A,major
81917,81,65,25,37,10.0,4-22A,major
81918,82,63,16,34,10.0,4-22A,major
81919,84,76,21,30,10.0,4-22A,major
81920,86,71,30,31,10.0,4-22A,major
81921,88,78,15,29,10.0,4-22A,major
81922,89,80,19,30,10.0,4-22A,major
81923,91,71,35,28,10.0,4-22A,major
81924,93,77,20,33,10.0,4-22A,major
81925,94,62,13,33,10.0,4-22A,major
81926,96,63,27,30,10.0,4-22A,major
81927,98,56,32,36,10.0,4-22A,major
81928,100,59,31,35,10.0,4-22A,major
81929,101,57,31,37,10.0,4-22A,major
81930,103,57,33,40,10.0,4-22A,major
81931,105,58,28,41,10.0,4-22A,major
81932,106,39,27,42,10.0,4-22A,major
81933,107,51,32,41,10.0,4-22A,major
81934,108,51,23,46,10.0,4-22A,major
81935,108,44,32,54,10.0,4-22A,major
81936,108,35,32,60,10.0,4-22A,major
81937,77,78,87,1574,3.0,4-22A,major
81938,72,69,64,606,2.0,4-27B,major
81939,69,64,65,70,2.0,4-27B,major
81940,62,42,62,72,2.0,4-27B,major
81941,53,32,104,176,9.0,3-3A,major
81942,55,56,215,204,6.0,2-6,other
81943,62,37,121,92,6.0,2-6,other
81944,65,52,19,91,6.0,2-6,other
81945,62,64,41,333,7.0,4-14A,minor
81946,65,67,33,49,7.0,4-14A,minor
81947,69,76,25,46,7.0,4-14A,minor
81948,50,37,48,119,0.0,2-5,other
81949,55,46,51,57,0.0,2-5,other
81950,58,39,80,53,0.0,2-5,other
81951,55,31,100,325,0.0,4-24,augmented
81952,63,36,42,836,2.0,4-14A,minor
81953,46,43,80,161,2.0,2-5,other
81954,60,48,17,273,9.0,4-27B,major
81955,61,50,19,28,9.0,4-27B,major
81956,65,58,22,37,9.0,4-27B,major
81957,66,57,16,37,9.0,4-27B,major
81958,72,57,32,45,9.0,4-27B,major
81959,73,39,17,41,9.0,4-27B,major
81960,77,46,41,49,9.0,4-27B,major
81961,78,29,21,42,9.0,4-27B,major
81962,82,45,22,103,6.0,4-9,other
81963,81,43,22,56,6.0,4-9,other
81964,78,49,28,39,6.0,4-9,other
81965,77,55,22,31,6.0,4-9,other
81966,75,50,21,40,6.0,4-9,other
81967,74,51,26,42,6.0,4-9,other
81968,73,40,29,40,6.0,4-9,other
81969,72,45,32,46,6.0,4-9,other
81970,76,39,39,49,6.0,4-9,other
81971,57,29,178,117,2.0,2-2,other
81972,54,42,538,598,2.0,4-25,major
81973,65,36,239,240,0.0,1-1,other
81974,93,69,49,67,0.0,1-1,other
81975,90,62,53,76,0.0,1-1,other
81976,89,78,41,110,0.0,1-1,other
81977,43,56,427,207,9.0,1-1,other
81978,50,43,297,130,9.0,1-1,other
81979,72,82,71,852,2.0,4-22B,minor
81980,65,48,114,807,10.0,4-22A,major
81981,65,40,427,196,10.0,4-22A,major
81982,48,49,83,1727,7.0,1-1,other
81983,48,41,77,111,7.0,1-1,other
81984,48,52,127,115,7.0,1-1,other
81985,48,57,65,466,2.0,4-26,minor
81986,48,68,62,92,2.0,4-26,minor
81987,48,53,170,92,2.0,4-26,minor
81988,48,44,58,502,9.0,3-11A,minor
81989,48,62,621,89,9.0,3-11A,minor
81990,62,57,77,179,10.0,3-11B,major
81991,48,44,75,493,10.0,2-1,other
81992,48,39,169,103,10.0,2-1,other
81993,48,30,149,206,9.0,3-11A,minor
81994,48,27,166,197,9.0,3-11A,minor
81995,48,24,175,215,9.0,3-7A,minor
81996,48,31,207,221,9.0,4-23,minor
81997,48,36,199,238,10.0,4-20,major
81998,48,33,192,239,7.0,3-11A,minor
81999,48,44,215,262,10.0,3-11B,major
82000,48,31,103,314,10.0,3-4A,major
82001,48,32,2584,0,,,
82002,65,40,2176,228,10.0,2-4,major
82003,72,36,2188,112,10.0,2-4,major
82004,41,45,92,8340,7.0,2-1,other
82005,51,29,1180,384,7.0,2-1,other
82006,66,37,872,168,2.0,2-5,other
82007,69,46,788,52,2.0,2-5,other
82008,74,35,860,56,2.0,2-5,other
82009,69,47,184,2076,0.0,3-9,other
82010,65,25,52,384,5.0,3-11B,major
82011,77,25,160,400,10.0,3-4A,major
82012,60,24,860,756,2.0,2-2,other
82013,57,42,592,456,2.0,2-2,other
82014,57,57,752,880,2.0,2-2,other
82015,60,1,176,676,10.0,3-11B,major
82016,76,36,216,2832,2.0,5-35,minor
82017,58,27,456,452,10.0,4-29B,major
82018,76,29,212,468,10.0,4-29B,major
82019,58,32,408,712,2.0,3-7A,minor
82020,94,52,112,1356,8.0,2-3,minor
82021,65,62,332,160,6.0,2-3,minor
82022,93,24,116,344,6.0,2-3,minor
82023,92,40,68,96,6.0,2-3,minor
82024,90,59,84,128,7.0,2-5,other
82025,89,45,584,100,7.0,2-5,other
82026,60,42,668,1088,5.0,2-4,major
82027,74,60,272,548,9.0,2-2,other
82028,81,76,116,224,9.0,2-2,other
82029,84,91,208,228,9.0,2-2,other
82030,73,59,204,496,10.0,2-1,other
82031,72,52,264,288,10.0,2-1,other
82032,70,56,1724,284,10.0,2-1,other
82033,69,43,1084,408,5.0,3-8B,other
82034,62,36,168,1588,5.0,3-8B,other
82035,65,83,240,264,5.0,3-8B,other
82036,69,85,180,272,5.0,3-8B,other
82037,36,47,28,1656,4.0,3-7B,other
82038,43,48,72,60,2.0,2-3,minor
82039,48,69,28,284,4.0,2-5,other
82040,57,72,28,112,4.0,2-3,minor
82041,67,35,36,436,11.0,2-6,other
82042,72,54,44,28,11.0,2-6,other
82043,74,24,52,208,5.0,2-5,other
82044,81,32,28,116,4.0,2-3,minor
82045,77,47,40,28,4.0,2-3,minor
82046,81,46,28,144,7.0,2-4,major
82047,84,32,28,128,11.0,2-3,minor
82048,86,62,1464,92,11.0,2-3,minor
82049,54,40,1804,664,11.0,2-3,minor
82050,96,79,328,1172,9.0,2-3,minor
82051,65,39,544,28,9.0,2-3,minor
82052,93,81,340,336,9.0,2-3,minor
82053,90,70,320,280,9.0,2-3,minor
82054,83,6,696,948,1.0,2-3,minor
82055,67,51,100,268,1.0,2-3,minor
82056,71,31,268,320,1.0,2-3,minor
82057,70,39,264,2268,1.0,4-15B,minor
82058,58,38,636,28,1.0,4-15B,minor
82059,84,58,92,1672,10.0,3-4A,major
82060,72,64,208,820,9.0,4-26,minor
82061,53,31,1120,376,10.0,4-20,major
82062,69,59,316,908,10.0,4-20,major
82063,62,37,304,2048,2.0,3-7A,minor
82064,41,24,476,1780,10.0,3-11B,major
82065,65,50,112,280,10.0,3-11B,major
82066,57,45,620,496,5.0,1-1,other
82067,65,36,208,468,5.0,1-1,other
82068,77,34,72,1908,5.0,2-5,other
82069,53,18,80,32,5.0,2-5,other
82070,84,74,108,288,9.0,1-1,other
82071,63,2,584,1272,0.0,2-2,other
82072,62,24,920,2824,0.0,1-1,other
82073,57,47,124,576,2.0,2-3,minor
82074,57,56,396,292,2.0,2-3,minor
82075,55,45,696,592,2.0,2-3,minor
82076,77,75,144,572,10.0,2-4,major
82077,43,46,48,972,4.0,2-3,minor
82078,36,38,32,272,4.0,2-3,minor
82079,77,37,76,2804,6.0,5-32B,minor
82080,48,38,188,420,5.0,2-4,major
82081,57,60,104,248,5.0,2-4,major
82082,45,60,28,240,5.0,2-4,major
82083,61,28,1460,312,7.0,2-2,other
82084,84,76,116,336,7.0,2-2,other
82085,76,49,512,692,7.0,2-2,other
82086,64,34,364,28,7.0,2-2,other
82087,81,70,328,336,7.0,2-2,other
82088,76,53,672,688,2.0,2-2,other
82089,57,36,764,36,2.0,2-2,other
82090,44,42,412,1152,5.0,2-5,other
82091,66,68,188,1008,6.0,3-10,diminished
82092,69,51,112,988,7.0,2-2,other
82093,79,50,476,392,7.0,2-2,other
82094,77,47,2168,772,11.0,3-8A,other
82095,77,27,84,2864,10.0,3-4A,major
82096,45,38,80,1520,0.0,2-5,other
82097,62,44,228,728,10.0,3-11B,major
82098,53,5,1036,688,2.0,3-7A,minor
82099,65,45,684,476,2.0,3-7A,minor
82100,55,24,112,848,5.0,3-7B,other
82101,56,9,192,300,1.0,2-3,minor
82102,65,66,104,848,5.0,3-9,other
82103,57,71,312,656,11.0,2-6,other
82104,69,74,108,224,11.0,2-6,other
82105,74,71,188,228,11.0,2-6,other
82106,56,31,972,288,0.0,4-22A,major
82107,56,26,176,1072,11.0,3-10,diminished
82108,69,64,180,1624,9.0,3-11A,minor
82109,76,69,208,1016,2.0,3-11B,major
82110,72,67,172,628,2.0,3-11A,minor
82111,52,24,120,44,2.0,3-11A,minor
82112,46,68,296,688,5.0,4-24,augmented
82113,52,69,72,1360,0.0,5-30B,other
82114,28,62,28,416,0.0,5-30B,other
82115,56,21,228,1180,8.0,4-28,diminished
82116,52,54,664,1180,9.0,3-11A,minor
82117,73,29,24,1136,2.0,2-5,other
82118,62,22,108,1104,9.0,3-7A,minor
82119,54,29,116,448,0.0,3-12,augmented
82120,84,29,108,1380,4.0,3-6,major
82121,67,7,464,3480,0.0,1-1,other
82122,86,69,96,528,0.0,3-11A,minor
82123,87,75,168,184,0.0,3-11A,minor
82124,67,5,224,88,0.0,3-11A,minor
82125,67,43,768,456,5.0,2-5,other
82126,91,84,124,32,5.0,2-5,other
82127,80,28,396,1028,5.0,2-5,other
82128,87,56,304,2600,3.0,4-24,augmented
82129,60,24,484,680,2.0,1-1,other
82130,60,52,1180,3280,2.0,1-1,other
82131,88,46,316,212,0.0,2-4,major
82132,88,57,228,448,0.0,2-4,major
82133,88,59,92,608,0.0,3-6,major
82134,89,54,180,536,5.0,2-5,other
82135,89,63,156,628,5.0,4-16A,other
82136,86,51,156,648,2.0,2-2,other
82137,86,57,108,568,6.0,3-5B,other
82138,87,56,208,564,0.0,2-3,minor
82139,75,1,844,500,7.0,2-4,major
82140,87,40,388,272,7.0,2-4,major
82141,84,39,192,1692,0.0,3-7B,other
82142,84,37,164,804,2.0,4-23,minor
82143,86,40,360,1436,9.0,2-3,minor
82144,60,33,800,684,2.0,1-1,other
82145,86,38,404,764,2.0,1-1,other
82146,57,43,400,6852,9.0,1-1,other
82147,60,1,1756,1928,2.0,2-3,minor
82148,80,21,32,280,2.0,2-3,minor
82149,78,13,32,148,2.0,2-3,minor
82150,77,54,60,48,2.0,2-3,minor
82151,84,77,1920,116,2.0,2-3,minor
82152,57,51,860,1132,2.0,2-3,minor
82153,65,28,844,496,2.0,1-1,other
82154,77,71,916,300,2.0,1-1,other
82155,55,54,1604,1704,9.0,1-1,other
82156,76,35,1776,748,9.0,2-3,minor
82157,88,60,220,548,0.0,4-16B,major
82158,88,48,232,344,0.0,4-16B,major
82159,53,27,556,3468,2.0,3-9,other
82160,72,78,280,620,9.0,3-7A,minor
82161,77,74,176,568,9.0,2-4,major
82162,82,82,148,200,9.0,2-4,major
82163,84,71,888,220,9.0,2-4,major
82164,61,39,676,264,7.0,3-1,other
82165,94,82,280,264,7.0,3-1,other
82166,96,72,168,316,7.0,3-1,other
82167,97,73,180,876,2.0,3-11A,minor
82168,100,77,212,180,2.0,3-11A,minor
82169,98,72,116,136,2.0,3-11A,minor
82170,93,71,88,132,2.0,3-11A,minor
82171,91,71,136,132,2.0,3-11A,minor
82172,89,58,512,164,2.0,3-11A,minor
82173,62,37,480,28,2.0,3-11A,minor
82174,88,63,136,512,2.0,3-11A,minor
82175,89,73,176,156,2.0,3-11A,minor
82176,89,62,140,384,8.0,2-1,other
82177,86,61,116,192,8.0,2-1,other
82178,82,58,76,168,8.0,2-1,other
82179,77,44,104,240,8.0,2-1,other
82180,73,33,32,248,5.0,3-5B,other
82181,74,53,192,28,5.0,3-5B,other
82182,70,44,412,252,5.0,3-5B,other
82183,65,28,196,256,5.0,3-5B,other
82184,69,64,160,560,7.0,2-2,other
82185,73,70,96,408,9.0,3-9,other
82186,73,56,76,156,9.0,3-9,other
82187,76,58,88,144,9.0,3-9,other
82188,76,71,104,148,9.0,3-9,other
82189,64,44,272,180,9.0,2-5,other
82190,64,24,192,720,9.0,2-5,other
82191,64,20,600,656,9.0,3-11B,major
82192,62,64,396,2956,1.0,3-2A,other
82193,65,47,416,412,1.0,3-2A,other
82194,62,17,332,28,1.0,3-2A,other
82195,58,20,248,36,1.0,3-2A,other
82196,48,26,840,820,10.0,4-22A,major
82197,58,33,292,3204,10.0,3-11B,major
82198,57,42,1252,884,5.0,1-1,other
82199,65,62,36,3144,0.0,2-5,other
82200,69,44,116,172,0.0,2-5,other
82201,72,49,72,368,0.0,2-5,other
82202,62,2,112,792,5.0,3-11B,major
82203,41,55,36,516,5.0,3-11B,major
82204,60,33,448,1212,2.0,3-11A,minor
82205,69,43,152,136,2.0,3-11A,minor
82206,72,62,900,164,2.0,3-11A,minor
82207,74,74,368,1304,2.0,3-11A,minor
82208,77,53,76,368,2.0,2-3,minor
82209,76,34,212,708,3.0,1-1,other
82210,88,43,84,96,3.0,1-1,other
82211,57,22,24,148,10.0,2-4,major
82212,48,47,152,336,10.0,2-4,major
82213,64,34,264,832,9.0,4-18A,major
82214,48,4,120,448,2.0,3-9,other
82215,41,25,44,144,2.0,3-9,other
82216,72,58,84,740,2.0,4-26,minor
82217,73,56,52,104,2.0,4-26,minor
82218,77,50,68,124,2.0,4-26,minor
82219,82,71,80,88,2.0,4-26,minor
82220,82,57,40,244,9.0,2-3,minor
82221,77,30,28,152,9.0,2-3,minor
82222,73,56,64,468,5.0,3-8B,other
82223,75,65,52,120,5.0,3-8B,other
82224,76,70,64,108,5.0,3-8B,other
82225,79,83,76,116,5.0,3-8B,other
82226,77,64,84,112,5.0,3-8B,other
82227,73,42,32,112,2.0,2-5,other
82228,76,48,96,112,2.0,2-5,other
82229,74,42,68,92,2.0,2-5,other
82230,69,54,44,104,2.0,2-5,other
82231,65,56,52,248,7.0,2-5,other
82232,57,28,380,28,7.0,2-5,other
82233,67,68,128,120,7.0,2-5,other
82234,67,65,116,240,7.0,2-5,other
82235,65,58,60,140,7.0,2-5,other
82236,70,53,72,316,6.0,3-5A,other
82237,74,67,84,164,6.0,3-5A,other
82238,77,71,124,156,6.0,3-5A,other
82239,86,62,76,312,10.0,4-16A,other
82240,89,65,100,144,10.0,4-16A,other
82241,93,75,60,164,10.0,4-16A,other
82242,88,1,52,1532,5.0,4-16A,major
82243,60,82,116,2160,9.0,4-26,minor
82244,62,64,108,244,1.0,2-3,other
82245,62,44,116,1016,10.0,4-22A,major
82246,53,42,232,868,8.0,2-3,other
82247,57,51,336,40,8.0,2-3,other
82248,36,54,28,972,10.0,4-22A,major
82249,60,51,180,1348,9.0,4-23,minor
82250,66,49,228,1948,9.0,2-6,other
82251,53,25,136,372,10.0,3-11B,major
82252,69,45,32,364,10.0,3-11B,major
82253,70,51,28,68,10.0,3-11B,major
82254,72,57,52,80,10.0,3-11B,major
82255,73,40,40,72,10.0,3-11B,major
82256,76,33,52,132,2.0,3-2A,minor
82257,79,42,56,148,6.0,2-6,other
82258,81,49,64,72,6.0,2-6,other
82259,82,52,24,72,6.0,2-6,other
82260,86,53,80,168,6.0,2-6,other
82261,87,74,72,92,6.0,2-6,other
82262,89,62,72,160,2.0,4-11B,minor
82263,81,51,72,312,2.0,2-3,minor
82264,77,35,76,148,2.0,2-3,minor
82265,65,28,164,164,2.0,2-2,other
82266,82,65,76,132,2.0,2-2,other
82267,81,53,68,144,2.0,2-2,other
82268,79,56,100,148,2.0,2-2,other
82269,57,20,440,192,10.0,3-11B,major
82270,74,40,84,128,10.0,3-11B,major
82271,69,43,44,312,10.0,3-11B,major
82272,70,52,84,328,7.0,3-11A,minor
82273,65,57,116,180,7.0,3-11A,minor
82274,62,47,80,164,7.0,3-11A,minor
82275,64,54,84,344,0.0,3-7A,minor
82276,66,56,80,144,0.0,3-7A,minor
82277,68,59,84,120,0.0,3-7A,minor
82278,70,58,36,88,0.0,3-7A,minor
82279,72,68,44,92,0.0,1-1,other
82280,73,47,68,100,0.0,1-1,other
82281,75,34,28,92,0.0,1-1,other
82282,76,40,72,48,0.0,1-1,other
82283,78,44,72,92,0.0,1-1,other
82284,80,49,72,56,0.0,1-1,other
82285,41,43,212,300,0.0,1-1,other
82286,91,80,116,196,9.0,3-11A,minor
82287,88,74,732,152,9.0,3-11A,minor
82288,89,28,40,40,9.0,3-11A,minor
82289,53,22,156,324,9.0,3-11A,minor
82290,45,71,60,632,9.0,3-11A,minor
82291,96,99,156,228,9.0,3-11A,minor
82292,94,75,152,128,9.0,3-11A,minor
82293,90,71,100,112,9.0,3-11A,minor
82294,88,57,72,108,9.0,3-11A,minor
82295,85,59,72,212,1.0,4-15B,other
82296,84,53,52,100,1.0,4-15B,other
82297,82,58,88,108,1.0,4-15B,other
82298,81,44,76,112,1.0,4-15B,other
82299,80,47,88,100,1.0,4-15B,other
82300,79,38,32,112,1.0,4-15B,other
82301,78,38,112,108,2.0,2-5,other
82302,76,44,68,224,2.0,2-5,other
82303,79,70,92,104,2.0,2-5,other
82304,77,58,84,204,2.0,2-5,other
82305,73,35,24,128,2.0,2-5,other
82306,69,36,32,224,9.0,3-11A,minor
82307,74,63,92,80,9.0,3-11A,minor
82308,69,30,32,148,9.0,3-11A,minor
82309,72,63,100,80,9.0,3-11A,minor
82310,69,31,32,140,9.0,3-11A,minor
82311,53,24,164,1176,8.0,3-8A,other
82312,60,38,104,768,5.0,4-19B,augmented
82313,62,68,484,2436,7.0,4-27A,minor
82314,65,71,348,160,7.0,4-27A,minor
82315,62,79,492,1372,5.0,2-2,other
82316,53,41,304,172,10.0,2-5,other
82317,62,61,272,860,10.0,4-22A,major
82318,65,50,416,1088,10.0,3-11B,major
82319,41,46,36,376,5.0,2-4,major
82320,77,84,284,768,11.0,3-7A,minor
82321,74,41,92,844,4.0,4-15B,other
82322,72,49,84,76,4.0,4-15B,other
82323,71,45,60,100,4.0,4-15B,other
82324,55,10,164,148,9.0,2-5,other
82325,54,56,1064,1384,9.0,3-11A,minor
82326,76,99,288,360,9.0,3-11A,minor
82327,74,80,140,588,0.0,3-6,major
82328,72,70,144,184,0.0,3-6,major
82329,71,64,136,176,0.0,3-6,major
82330,69,55,384,440,11.0,2-2,other
82331,64,31,296,4064,2.0,4-27B,major
82332,32,67,68,1420,6.0,3-5A,other
82333,86,34,24,424,0.0,5-15,major
82334,89,39,24,1532,4.0,4-29A,minor
82335,89,41,32,392,4.0,4-29A,minor
82336,60,24,396,884,0.0,3-11A,minor
82337,84,47,440,412,0.0,3-11A,minor
82338,86,65,96,600,0.0,3-11A,minor
82339,87,71,96,220,0.0,3-11A,minor
82340,91,58,108,684,5.0,4-22A,major
82341,87,53,84,748,0.0,4-22B,minor
82342,60,38,572,796,5.0,3-5B,other
82343,65,32,144,388,5.0,2-5,other
82344,43,59,28,628,5.0,2-5,other
82345,48,41,1220,1840,8.0,4-28,diminished
82346,72,31,24,624,4.0,4-15B,other
82347,48,62,1296,960,0.0,5-30B,other
82348,72,58,216,268,5.0,4-24,augmented
82349,65,44,192,512,5.0,3-9,other
82350,65,44,560,308,5.0,3-9,other
82351,55,34,420,60,5.0,4-19B,other
82352,48,62,160,212,5.0,4-19B,other
82353,48,67,1212,236,5.0,4-19B,other
82354,76,12,232,584,10.0,5-30B,other
82355,48,74,152,796,10.0,5-30B,other
82356,48,68,1352,240,10.0,5-30B,other
82357,75,72,180,292,11.0,3-5B,other
82358,73,27,176,40,11.0,3-5B,other
82359,73,26,216,276,3.0,2-4,other
82360,48,46,88,892,3.0,3-12,augmented
82361,48,55,908,344,2.0,3-7A,minor
82362,36,22,452,2096,10.0,4-22A,major
82363,36,31,588,1160,10.0,3-11B,major
82364,89,38,320,2752,10.0,3-11B,major
82365,93,46,292,724,6.0,2-1,other
82366,96,53,292,544,10.0,2-1,other
82367,100,48,156,1476,0.0,2-1,other
82368,77,44,608,1468,7.0,2-1,other
82369,70,70,376,308,7.0,2-1,other
82370,89,69,1276,700,10.0,2-5,other
82371,67,31,404,1328,0.0,2-3,minor
82372,63,1,456,1232,9.0,4-23,minor
82373,81,47,212,752,5.0,2-4,major
82374,60,40,1816,740,5.0,2-5,other
82375,62,44,1916,304,5.0,2-5,other
82376,96,68,352,32,5.0,2-5,other
82377,65,42,1844,432,5.0,2-5,other
82378,85,51,144,296,5.0,2-5,other
82379,84,54,128,208,5.0,2-5,other
82380,82,61,144,204,5.0,2-5,other
82381,81,57,144,172,5.0,2-5,other
82382,84,59,140,172,5.0,2-5,other
82383,81,53,164,180,5.0,2-5,other
82384,79,48,456,488,2.0,2-5,other
82385,62,28,1120,36,2.0,2-5,other
82386,77,46,336,240,2.0,2-5,other
82387,70,53,244,268,2.0,2-5,other
82388,65,16,216,52,2.0,2-5,other
82389,69,48,136,244,2.0,2-5,other
82390,69,50,116,384,2.0,2-2,other
82391,62,57,128,160,2.0,2-2,other
82392,60,44,144,188,2.0,2-2,other
82393,57,51,204,196,2.0,2-2,other
82394,50,31,292,584,7.0,2-3,minor
82395,45,12,160,144,7.0,2-3,minor
82396,57,44,48,172,7.0,2-3,minor
82397,60,36,108,856,7.0,3-11A,minor
82398,24,42,76,1372,0.0,4-16B,major
82399,53,32,368,3468,2.0,3-9,other
82400,60,38,420,272,2.0,3-9,other
82401,45,66,68,684,7.0,3-9,other
82402,81,70,292,1316,6.0,5-7B,other
82403,73,71,208,204,6.0,5-7B,other
82404,72,77,164,196,6.0,5-7B,other
82405,76,57,200,216,6.0,5-7B,other
82406,65,32,400,28,6.0,5-7B,other
82407,70,56,200,184,6.0,5-7B,other
82408,69,51,252,272,6.0,5-7B,other
82409,67,55,188,260,6.0,5-7B,other
82410,65,57,288,244,6.0,5-7B,other
82411,64,60,120,304,6.0,5-7B,other
82412,63,44,92,144,6.0,5-7B,other
82413,62,49,92,116,6.0,5-7B,other
82414,61,59,116,112,6.0,5-7B,other
82415,57,42,412,480,2.0,2-2,other
82416,76,41,680,604,0.0,2-4,major
82417,57,46,808,32,0.0,2-4,major
82418,76,36,328,736,5.0,3-4A,major
82419,60,29,176,1692,6.0,1-1,other
82420,79,25,424,1800,9.0,4-22A,major
82421,53,35,56,428,9.0,4-22A,major
82422,65,40,444,6584,10.0,2-4,major
82423,65,44,904,2788,5.0,2-5,other
82424,48,8,316,2368,5.0,2-4,major
82425,78,63,100,0,,,
82426,57,48,220,536,10.0,2-5,other
82427,58,46,2296,248,10.0,2-5,other
82428,60,61,2012,152,10.0,2-5,other
82429,65,59,44,96,10.0,2-5,other
82430,70,54,32,88,10.0,2-5,other
82431,72,61,52,100,10.0,2-5,other
82432,77,70,76,108,10.0,2-5,other
82433,82,71,96,96,10.0,2-5,other
82434,77,55,28,112,10.0,2-5,other
82435,84,50,80,212,10.0,2-5,other
82436,89,54,72,104,10.0,2-5,other
82437,94,55,88,92,10.0,2-5,other
82438,96,73,76,128,10.0,2-5,other
82439,94,70,104,120,10.0,2-5,other
82440,89,57,92,152,10.0,2-5,other
82441,84,52,80,180,10.0,2-5,other
82442,77,40,40,880,10.0,2-5,other
82443,55,43,44,80,7.0,3-1,other
82444,84,64,164,488,8.0,1-1,other
82445,60,42,944,32,8.0,1-1,other
82446,80,60,236,2900,0.0,2-4,major
82447,79,50,84,820,3.0,2-4,other
82448,78,62,128,352,4.0,2-2,other
82449,74,55,60,1564,9.0,5-33,other
82450,73,60,96,56,9.0,5-33,other
82451,72,70,356,108,9.0,5-33,other
82452,67,53,104,804,9.0,5-33,other
82453,65,38,124,48,9.0,5-33,other
82454,62,56,1444,32,9.0,5-33,other
82455,59,55,1172,48,9.0,5-33,other
82456,55,59,1048,104,9.0,5-33,other
82457,44,41,3204,76,9.0,5-33,other
82458,52,45,400,968,9.0,5-33,other
82459,53,59,328,2212,0.0,3-11B,other
82460,66,64,196,1712,2.0,2-2,other
82461,57,37,44,60,2.0,2-2,other
82462,74,81,156,564,4.0,3-3A,major
82463,62,54,336,32,4.0,3-3A,major
82464,56,27,284,1964,10.0,3-11B,major
82465,60,46,1032,588,10.0,3-11B,major
82466,75,56,24,204,8.0,2-6,other
82467,77,62,76,76,8.0,2-6,other
82468,79,60,72,88,8.0,2-6,other
82469,80,61,64,48,8.0,2-6,other
82470,82,37,36,92,8.0,2-6,other
82471,84,30,36,84,8.0,2-6,other
82472,86,40,96,68,8.0,2-6,other
82473,87,59,24,56,8.0,2-6,other
82474,88,40,68,60,8.0,2-6,other
82475,89,70,72,80,8.0,2-6,other
82476,56,31,1728,576,8.0,2-6,other
82477,62,42,1072,264,8.0,2-6,other
82478,67,58,60,336,8.0,2-6,other
82479,68,73,76,164,8.0,2-6,other
82480,70,75,72,144,8.0,2-6,other
82481,72,68,80,156,8.0,2-6,other
82482,73,59,40,156,8.0,2-6,other
82483,77,65,92,144,8.0,2-6,other
82484,72,44,96,168,8.0,2-6,other
82485,73,70,84,160,8.0,2-6,other
82486,75,76,124,180,8.0,2-6,other
82487,60,28,1536,228,5.0,3-11B,other
82488,72,62,88,760,5.0,3-11B,other
82489,73,90,96,148,5.0,3-11B,other
82490,75,92,100,144,5.0,3-11B,other
82491,68,55,96,300,5.0,3-11B,other
82492,70,58,88,124,5.0,3-11B,other
82493,72,66,92,132,5.0,3-11B,other
82494,73,66,92,120,5.0,3-11B,other
82495,65,10,228,152,1.0,3-8A,other
82496,81,78,104,220,1.0,3-8A,other
82497,85,76,40,116,1.0,3-8A,other
82498,88,88,84,112,1.0,3-8A,other
82499,93,97,148,120,1.0,3-8A,other
82500,97,99,120,112,1.0,3-8A,other
82501,100,109,96,136,1.0,3-8A,other
82502,99,87,120,176,1.0,3-8A,other
82503,90,64,228,164,1.0,3-8A,other
82504,95,80,248,496,1.0,3-8A,other
82505,87,55,104,184,1.0,3-8A,other
82506,86,53,152,204,1.0,3-8A,other
82507,94,67,100,180,1.0,3-8A,other
82508,58,47,276,244,1.0,3-8A,other
82509,61,28,232,888,0.0,2-2,other
82510,75,70,252,300,0.0,2-2,other
82511,66,65,108,240,0.0,2-2,other
82512,70,73,204,228,0.0,2-2,other
82513,78,104,196,236,0.0,2-2,other
82514,78,94,160,292,0.0,2-2,other
82515,80,76,180,256,0.0,2-2,other
82516,78,61,604,276,0.0,2-2,other
82517,70,45,260,292,0.0,2-2,other
82518,63,44,328,1640,5.0,2-4,major
82519,64,41,120,276,5.0,2-4,major
82520,65,62,92,128,5.0,2-4,major
82521,66,54,36,116,5.0,2-4,major
82522,69,75,88,76,5.0,2-4,major
82523,72,65,64,108,5.0,2-4,major
82524,75,57,28,92,5.0,2-4,major
82525,76,76,80,68,5.0,2-4,major
82526,77,56,28,108,5.0,2-4,major
82527,78,64,40,44,5.0,2-4,major
82528,81,70,60,116,5.0,2-4,major
82529,87,55,24,268,5.0,2-4,major
82530,88,60,40,208,5.0,2-4,major
82531,89,70,56,132,5.0,2-4,major
82532,93,70,24,176,5.0,2-4,major
82533,96,82,80,192,5.0,2-4,major
82534,94,67,112,232,5.0,2-4,major
82535,93,70,180,248,5.0,2-4,major
82536,92,60,180,244,5.0,2-4,major
82537,91,76,188,252,5.0,2-4,major
82538,90,76,140,212,5.0,2-4,major
82539,89,70,172,224,5.0,2-4,major
82540,88,70,220,224,5.0,2-4,major
82541,56,50,40,540,10.0,2-5,other
82542,61,50,588,260,10.0,2-5,other
82543,65,46,328,260,10.0,2-5,other
82544,57,59,624,276,10.0,2-5,other
82545,56,56,848,636,5.0,2-4,other
82546,68,45,96,308,5.0,2-4,other
82547,72,73,128,188,5.0,2-4,other
82548,75,99,176,200,5.0,2-4,other
82549,74,40,616,576,6.0,4-15B,minor
82550,74,77,184,916,6.0,4-15B,minor
82551,75,71,140,204,6.0,4-15B,minor
82552,77,62,192,196,6.0,4-15B,minor
82553,73,58,204,472,2.0,3-5B,other
82554,72,48,496,988,0.0,5-30B,other
82555,74,62,148,240,0.0,5-30B,other
82556,76,68,152,216,0.0,5-30B,other
82557,71,51,72,516,1.0,3-8A,other
82558,63,56,204,516,1.0,3-8A,other
82559,52,35,452,424,8.0,3-10,diminished
82560,67,64,196,208,8.0,3-10,diminished
82561,54,73,296,664,5.0,2-5,other
82562,54,65,208,636,0.0,2-5,other
82563,52,58,144,744,0.0,4-22B,minor
82564,32,64,84,796,0.0,4-27B,other
82565,49,48,192,1504,11.0,3-10,diminished
82566,52,45,72,344,1.0,4-12A,minor
82567,47,50,472,424,6.0,4-28,diminished
82568,69,20,392,48,6.0,4-28,diminished
82569,46,47,376,648,8.0,3-10,other
82570,77,51,604,696,5.0,1-1,other
82571,72,50,224,320,0.0,3-11B,other
82572,62,29,2444,408,0.0,4-16A,other
82573,79,67,76,896,0.0,4-16A,other
82574,78,61,96,60,0.0,4-16A,other
82575,77,62,180,64,0.0,4-16A,other
82576,79,63,80,224,0.0,4-16A,other
82577,80,72,112,272,0.0,4-16A,other
82578,84,84,288,400,0.0,4-16A,other
82579,83,54,36,272,0.0,4-16A,other
82580,82,56,80,36,0.0,4-16A,other
82581,81,43,112,96,0.0,4-16A,other
82582,89,91,176,204,0.0,4-16A,other
82583,84,43,88,200,0.0,4-16A,other
82584,85,55,84,172,0.0,4-16A,other
82585,86,65,84,148,0.0,4-16A,other
82586,84,46,36,328,5.0,4-11A,other
82587,79,64,80,568,5.0,4-11A,other
82588,84,83,72,128,5.0,4-11A,other
82589,82,63,140,152,5.0,4-11A,other
82590,73,60,40,112,5.0,4-11A,other
82591,72,51,80,132,5.0,4-11A,other
82592,70,56,60,140,5.0,4-11A,other
82593,68,52,92,160,5.0,4-11A,other
82594,65,50,84,172,5.0,4-11A,other
82595,55,32,1376,224,1.0,2-6,other
82596,69,44,40,460,1.0,2-6,other
82597,70,62,56,112,1.0,2-6,other
82598,72,67,48,124,1.0,2-6,other
82599,63,58,84,312,1.0,2-6,other
82600,65,60,64,108,1.0,2-6,other
82601,67,68,56,108,1.0,2-6,other
82602,60,51,36,164,1.0,2-6,other
82603,61,63,72,96,1.0,2-6,other
82604,63,62,28,108,1.0,2-6,other
82605,55,57,32,188,1.0,2-6,other
82606,56,61,84,100,1.0,2-6,other
82607,58,54,56,112,1.0,2-6,other
82608,55,58,40,368,1.0,2-6,other
82609,56,64,80,124,1.0,2-6,other
82610,58,62,88,132,1.0,2-6,other
82611,60,48,124,140,1.0,2-6,other
82612,56,61,456,128,1.0,2-6,other
82613,44,48,2772,116,1.0,2-6,other
82614,51,44,376,272,1.0,2-6,other
82615,55,45,48,100,1.0,2-6,other
82616,56,59,40,84,1.0,2-6,other
82617,58,48,36,96,1.0,2-6,other
82618,60,50,32,96,1.0,2-6,other
82619,55,43,2136,32,1.0,2-6,other
82620,63,61,36,36,1.0,2-6,other
82621,65,62,72,120,1.0,2-6,other
82622,70,88,344,96,1.0,2-6,other
82623,67,55,80,348,1.0,2-6,other
82624,68,58,80,112,1.0,2-6,other
82625,70,62,40,100,1.0,2-6,other
82626,72,76,80,108,1.0,2-6,other
82627,75,78,44,124,1.0,2-6,other
82628,77,47,32,200,1.0,2-6,other
82629,82,75,56,176,1.0,2-6,other
82630,84,67,84,180,1.0,2-6,other
82631,86,80,92,180,1.0,2-6,other
82632,87,64,108,180,1.0,2-6,other
82633,91,66,288,196,1.0,2-6,other
82634,86,57,200,288,1.0,2-6,other
82635,45,54,408,32,1.0,2-6,other
82636,52,35,136,256,1.0,2-6,other
82637,55,51,32,180,1.0,2-6,other
82638,60,61,704,160,1.0,2-6,other
82639,64,50,48,108,1.0,2-6,other
82640,67,46,32,72,1.0,2-6,other
82641,74,56,24,68,1.0,2-6,other
82642,79,61,44,164,1.0,2-6,other
82643,88,71,84,160,1.0,2-6,other
82644,91,73,88,76,1.0,2-6,other
82645,98,76,460,76,1.0,2-6,other
82646,96,73,172,416,1.0,2-6,other
82647,94,60,156,228,1.0,2-6,other
82648,92,76,120,196,1.0,2-6,other
82649,93,70,120,96,1.0,2-6,other
82650,89,53,76,408,2.0,3-8A,major
82651,87,54,76,232,2.0,3-8A,major
82652,86,40,100,248,2.0,3-8A,major
82653,87,45,48,164,2.0,3-8A,major
82654,86,55,76,48,2.0,3-8A,major
82655,84,36,88,100,2.0,3-8A,major
82656,83,48,76,212,2.0,3-8A,major
82657,86,61,996,244,2.0,3-8A,major
82658,78,42,272,240,2.0,3-8A,major
82659,76,49,308,376,2.0,3-8A,major
82660,75,46,448,496,2.0,3-8A,major
82661,59,33,1060,1012,7.0,2-5,other
82662,86,122,460,1160,7.0,2-5,other
82663,85,58,104,436,7.0,2-5,other
82664,84,50,88,52,7.0,2-5,other
82665,83,53,88,80,7.0,2-5,other
82666,86,73,72,144,7.0,2-5,other
82667,82,62,76,156,7.0,2-5,other
82668,83,68,64,140,7.0,2-5,other
82669,79,55,76,152,7.0,2-5,other
82670,76,43,40,132,7.0,2-5,other
82671,74,68,24,100,7.0,2-5,other
82672,78,73,208,340,7.0,2-5,other
82673,52,37,1128,56,7.0,2-5,other
82674,59,51,296,160,7.0,2-5,other
82675,62,47,52,180,7.0,2-5,other
82676,66,41,60,144,7.0,2-5,other
82677,74,64,76,156,7.0,2-5,other
82678,59,41,60,376,7.0,2-5,other
82679,64,55,32,152,7.0,2-5,other
82680,66,62,72,124,7.0,2-5,other
82681,71,88,92,116,7.0,2-5,other
82682,69,78,84,128,7.0,2-5,other
82683,67,62,60,140,7.0,2-5,other
82684,64,58,92,120,7.0,2-5,other
82685,62,47,88,112,7.0,2-5,other
82686,60,23,80,152,7.0,2-5,other
82687,59,36,76,116,7.0,2-5,other
82688,59,49,48,260,7.0,3-9,other
82689,60,42,72,132,7.0,3-9,other
82690,64,28,56,176,7.0,3-9,other
82691,67,84,68,72,7.0,3-9,other
82692,71,74,76,140,7.0,3-9,other
82693,74,82,60,152,7.0,3-9,other
82694,74,64,24,188,7.0,3-9,other
82695,74,69,56,372,7.0,3-9,other
82696,74,49,36,188,7.0,3-9,other
82697,74,50,32,160,7.0,3-9,other
82698,75,68,104,396,11.0,5-16A,minor
82699,54,55,664,72,11.0,5-16A,minor
82700,75,75,100,124,11.0,5-16A,minor
82701,75,69,100,176,11.0,5-16A,minor
82702,76,80,116,808,1.0,3-2A,minor
82703,76,87,104,196,9.0,2-4,major
82704,76,92,132,168,9.0,2-4,major
82705,62,61,308,52,9.0,2-4,major
82706,65,68,84,188,9.0,2-5,other
82707,28,72,132,592,9.0,2-5,other
82708,55,29,48,4740,0.0,3-11B,other
82709,28,77,104,2700,7.0,3-11B,major
82710,83,92,236,2428,4.0,5-35,minor
82711,84,78,120,228,4.0,5-35,minor
82712,85,85,64,108,4.0,5-35,minor
82713,86,78,60,88,4.0,5-35,minor
82714,87,78,36,76,4.0,5-35,minor
82715,88,58,72,92,4.0,5-35,minor
82716,89,65,92,60,4.0,5-35,minor
82717,90,83,124,72,4.0,5-35,minor
82718,88,91,184,1100,7.0,2-4,major
82719,89,68,92,184,7.0,2-4,major
82720,90,72,44,80,7.0,2-4,major
82721,91,70,80,80,7.0,2-4,major
82722,92,69,52,88,7.0,2-4,major
82723,93,38,36,108,7.0,2-4,major
82724,94,40,64,154,7.0,2-4,major
82725,38,59,96,578,0.0,4-16A,major
82726,82,68,268,3228,0.0,5-30B,augmented
82727,55,48,68,868,7.0,2-4,major
82728,68,55,216,760,8.0,4-28,diminished
82729,75,62,452,1612,0.0,2-5,other
82730,58,43,108,1524,0.0,3-7A,minor
82731,67,55,80,2120,8.0,4-26,other
82732,70,76,180,324,8.0,4-26,other
82733,73,93,144,280,8.0,4-26,other
82734,75,60,188,740,0.0,3-11B,other
82735,41,51,172,660,0.0,3-11B,other
82736,51,53,188,356,0.0,3-11B,other
82737,57,53,176,216,0.0,3-11B,other
82738,63,57,1672,268,0.0,3-11B,other
82739,64,60,272,312,0.0,3-11B,other
82740,65,60,284,316,0.0,3-11B,other
82741,72,57,408,752,6.0,2-3,minor
82742,75,70,400,244,6.0,2-3,minor
82743,76,76,200,204,6.0,2-3,minor
82744,72,27,48,180,6.0,2-3,minor
82745,56,51,40,336,10.0,2-5,other
82746,61,58,692,344,10.0,2-5,other
82747,65,78,544,280,10.0,2-5,other
82748,57,78,640,268,10.0,2-5,other
82749,61,56,1116,276,10.0,2-5,other
82750,56,55,692,368,10.0,2-5,other
82751,68,61,312,220,10.0,2-5,other
82752,75,93,196,400,5.0,2-5,other
82753,54,44,316,268,10.0,5-30B,augmented
82754,53,39,228,440,5.0,5-30B,augmented
82755,52,35,208,456,0.0,5-30B,other
82756,72,50,104,1532,1.0,3-8B,other
82757,56,64,24,520,1.0,3-8B,other
82758,61,67,28,324,7.0,3-11B,major
82759,65,62,80,144,7.0,3-11B,major
82760,66,64,28,160,2.0,2-2,other
82761,70,57,28,504,7.0,2-5,other
82762,73,65,32,252,0.0,2-1,other
82763,78,76,108,256,4.0,2-2,other
82764,91,83,120,132,4.0,2-2,other
82765,83,62,64,144,4.0,2-2,other
82766,91,56,96,724,2.0,1-1,other
82767,94,60,100,124,2.0,1-1,other
82768,96,71,140,132,2.0,1-1,other
82769,44,42,196,132,2.0,1-1,other
82770,91,41,152,28,2.0,1-1,other
82771,84,52,64,484,3.0,2-5,other
82772,89,81,116,128,3.0,2-5,other
82773,60,30,152,88,3.0,2-5,other
82774,84,62,68,44,3.0,2-5,other
82775,79,55,92,300,3.0,1-1,other
82776,75,48,124,156,3.0,1-1,other
82777,72,48,72,152,3.0,1-1,other
82778,82,85,112,116,3.0,1-1,other
82779,75,59,68,128,3.0,1-1,other
82780,79,86,128,136,3.0,1-1,other
82781,75,81,132,144,3.0,1-1,other
82782,72,62,104,156,3.0,1-1,other
82783,60,16,452,32,3.0,1-1,other
82784,70,67,156,132,3.0,1-1,other
82785,67,50,184,192,3.0,1-1,other
82786,66,61,172,212,3.0,1-1,other
82787,65,55,124,208,3.0,1-1,other
82788,64,57,200,192,3.0,1-1,other
82789,54,48,44,480,3.0,2-5,other
82790,60,48,348,240,3.0,2-5,other
82791,72,50,144,256,5.0,3-2B,other
82792,59,51,188,460,11.0,4-13B,diminished
82793,53,50,28,224,11.0,4-13B,diminished
82794,43,70,60,224,11.0,4-13B,diminished
82795,30,90,88,268,11.0,4-13B,diminished
82796,64,58,168,244,11.0,4-13B,diminished
82797,58,61,228,212,11.0,4-13B,diminished
82798,64,44,48,236,3.0,2-5,other
82799,58,61,236,464,2.0,3-5B,other
82800,53,50,280,552,9.0,3-10,diminished
82801,79,56,28,1172,0.0,3-11B,other
82802,65,58,596,540,0.0,2-3,minor
82803,75,4,964,620,3.0,3-4B,other
82804,62,50,440,848,8.0,2-6,other
82805,22,90,372,1512,0.0,2-2,other
82806,80,55,284,3544,1.0,4-22A,other
82807,55,40,196,864,5.0,3-4A,other
82808,27,60,208,628,5.0,3-4A,other
82809,27,47,192,752,5.0,3-4A,other
82810,52,50,304,4880,8.0,2-6,other
82811,53,50,516,320,8.0,2-6,other
82812,55,61,2008,512,8.0,2-6,other
82813,56,41,1604,404,8.0,2-6,other
82814,58,53,1244,244,8.0,2-6,other
82815,59,55,48,144,8.0,2-6,other
82816,61,44,36,104,8.0,2-6,other
82817,62,73,76,80,8.0,2-6,other
82818,64,69,60,96,8.0,2-6,other
82819,65,82,52,60,8.0,2-6,other
82820,67,92,72,92,8.0,2-6,other
82821,68,88,84,80,8.0,2-6,other
82822,70,87,60,68,8.0,2-6,other
82823,71,91,72,76,8.0,2-6,other
82824,73,98,52,100,8.0,2-6,other
82825,74,95,76,96,8.0,2-6,other
82826,75,98,84,116,8.0,2-6,other
82827,76,93,84,112,8.0,2-6,other
82828,77,79,96,112,8.0,2-6,other
82829,78,74,56,96,8.0,2-6,other
82830,79,80,64,88,8.0,2-6,other
82831,80,75,28,88,8.0,2-6,other
82832,81,76,56,84,8.0,2-6,other
82833,82,73,92,76,8.0,2-6,other
82834,83,64,72,100,8.0,2-6,other
82835,84,76,1040,108,8.0,2-6,other
82836,44,60,556,272,8.0,2-6,other
82837,51,40,236,332,8.0,2-6,other
82838,55,53,208,260,8.0,2-6,other
82839,56,47,4364,216,8.0,2-6,other
82840,60,39,4136,204,8.0,2-6,other
82841,63,49,3956,196,8.0,2-6,other
82842,67,43,96,184,8.0,2-6,other
82843,75,55,228,196,8.0,2-6,other
82844,71,50,156,232,8.0,2-6,other
82845,72,51,128,220,8.0,2-6,other
82846,75,58,72,184,8.0,2-6,other
82847,79,40,88,204,8.0,2-6,other
82848,84,52,96,164,8.0,2-6,other
82849,87,60,108,116,8.0,2-6,other
82850,83,55,68,108,8.0,2-6,other
82851,84,62,60,108,8.0,2-6,other
82852,87,58,28,112,8.0,2-6,other
82853,91,61,68,116,8.0,2-6,other
82854,96,63,116,104,8.0,2-6,other
82855,99,64,116,136,8.0,2-6,other
82856,95,64,92,116,8.0,2-6,other
82857,96,60,72,104,8.0,2-6,other
82858,99,73,60,120,8.0,2-6,other
82859,103,75,56,116,8.0,2-6,other
82860,106,74,152,152,8.0,2-6,other
82861,108,78,208,172,8.0,2-6,other
82862,55,49,114,0,,,
82863,68,47,110,173,0.0,4-25,major
82864,68,43,11,488,0.0,4-24,augmented
82865,55,91,135,381,8.0,1-1,other
82866,70,53,37,514,2.0,2-2,other
82867,68,27,235,119,0.0,4-24,augmented
82868,43,43,248,522,7.0,5-23B,major
82869,68,25,93,1350,0.0,6-34A,augmented
82870,73,34,12,218,6.0,4-9,other
82871,76,22,12,37,6.0,4-9,other
82872,82,63,20,27,6.0,4-9,other
82873,84,68,23,34,6.0,4-9,other
82874,86,64,20,35,6.0,4-9,other
82875,54,52,118,122,6.0,4-9,other
82876,86,51,11,109,0.0,5-22,augmented
82877,50,40,453,44,0.0,5-22,augmented
82878,56,23,22,151,10.0,2-1,other
82879,55,36,33,28,10.0,2-1,other
82880,54,38,263,33,10.0,2-1,other
82881,60,34,46,147,10.0,2-1,other
82882,63,57,36,168,5.0,3-4A,major
82883,62,57,38,36,5.0,3-4A,major
82884,61,54,37,39,5.0,3-4A,major
82885,60,50,38,47,5.0,3-4A,major
82886,57,52,54,56,5.0,3-4A,major
82887,53,49,12,56,5.0,3-4A,major
82888,50,54,18,81,5.0,3-4A,major
82889,72,56,36,1427,9.0,5-35,minor
82890,70,60,54,197,6.0,4-13A,other
82891,68,57,133,224,8.0,5-27A,other
82892,66,19,6,161,8.0,5-27A,other
82893,74,45,55,1012,1.0,5-33,other
82894,83,81,33,397,0.0,5-27A,major
82895,76,55,18,156,4.0,3-11A,minor
82896,67,54,55,165,9.0,3-7B,other
82897,76,77,17,503,0.0,2-5,other
82898,83,80,44,763,0.0,4-24,augmented
82899,80,38,18,76,10.0,2-1,other
82900,74,56,15,168,4.0,2-1,other
82901,38,40,30,268,9.0,2-1,other
82902,39,35,27,312,2.0,4-27B,major
82903,53,46,6,591,5.0,3-11B,major
82904,43,34,105,598,11.0,3-10,diminished
82905,43,68,33,147,11.0,4-23,minor
82906,48,55,35,1132,2.0,5-35,minor
82907,57,69,13,40,2.0,5-35,minor
82908,60,73,191,38,2.0,5-35,minor
82909,60,44,9,321,0.0,3-11B,major
82910,48,35,85,91,0.0,3-11B,major
82911,51,20,30,378,2.0,5-37,minor
82912,69,60,61,183,0.0,7-28B,augmented
82913,48,38,31,376,5.0,3-11B,major
82914,50,31,31,339,9.0,3-11A,minor
82915,41,62,59,124,5.0,4-20,major
82916,74,17,19,740,6.0,6-41B,diminished
82917,58,50,21,55,6.0,6-41B,diminished
82918,60,39,110,2233,8.0,2-2,other
82919,76,45,14,111,4.0,3-11B,major
82920,50,35,265,551,5.0,3-11B,major
82921,57,37,128,68,5.0,3-11B,major
82922,60,35,77,87,5.0,3-11B,major
82923,43,50,15,1233,5.0,4-18A,major
82924,73,32,100,308,5.0,5-30B,augmented
82925,72,72,37,450,9.0,4-23,minor
82926,72,70,93,89,9.0,4-23,minor
82927,70,55,57,104,9.0,4-23,minor
82928,70,51,46,177,6.0,5-16A,minor
82929,70,59,45,67,6.0,5-16A,minor
82930,70,51,43,69,6.0,5-16A,minor
82931,68,46,60,271,4.0,4-22A,major
82932,68,42,34,87,4.0,4-22A,major
82933,68,42,88,92,4.0,4-22A,major
82934,31,36,17,320,3.0,5-33,augmented
82935,54,33,15,1435,4.0,3-11B,major
82936,39,58,23,162,0.0,4-24,augmented
82937,39,60,71,133,7.0,2-3,minor
82938,38,52,11,99,7.0,2-3,minor
82939,50,57,50,351,6.0,2-6,other
82940,43,71,14,386,2.0,3-7B,other
82941,67,27,29,1229,9.0,2-3,minor
82942,74,79,28,56,9.0,2-3,minor
82943,79,34,23,142,6.0,3-2A,minor
82944,84,34,21,90,7.0,2-5,other
82945,93,89,23,54,7.0,2-5,other
82946,88,66,19,97,7.0,3-9,other
82947,40,57,6,182,5.0,2-5,other
82948,45,36,27,311,4.0,4-22A,major
82949,55,62,6,102,4.0,4-22A,major
82950,45,70,49,61,4.0,4-22A,major
82951,41,71,19,96,6.0,3-8B,other
82952,54,76,143,30,6.0,3-8B,other
82953,38,90,73,61,6.0,3-8B,other
82954,43,42,157,329,9.0,4-26,minor
82955,43,41,110,190,5.0,4-22A,major
82956,43,53,19,151,3.0,4-27A,other
82957,43,42,84,39,3.0,4-27A,other
82958,73,18,18,686,1.0,6-42,other
82959,66,13,19,136,7.0,5-36A,minor
82960,82,25,9,77,6.0,7-10B,minor
82961,81,1,31,103,2.0,3-2B,minor
82962,81,63,28,528,2.0,2-2,other
82963,48,35,17,146,2.0,4-26,minor
82964,84,37,6,405,2.0,4-26,minor
82965,52,54,45,159,2.0,4-14A,minor
82966,44,61,20,933,5.0,4-29A,other
82967,44,54,119,35,5.0,4-29A,other
82968,44,59,16,147,10.0,3-11B,major
82969,44,54,35,34,10.0,3-11B,major
82970,70,83,20,136,5.0,4-22A,major
82971,68,60,22,29,5.0,4-22A,major
82972,63,52,17,28,5.0,4-22A,major
82973,59,40,18,31,5.0,4-22A,major
82974,58,51,22,28,5.0,4-22A,major
82975,56,35,50,36,5.0,4-22A,major
82976,53,55,30,92,7.0,2-1,other
82977,80,34,50,890,4.0,3-11B,major
82978,63,52,16,667,5.0,4-20,major
82979,62,52,21,28,5.0,4-20,major
82980,60,60,47,56,5.0,4-19B,other
82981,72,71,15,242,5.0,2-5,other
82982,50,40,19,363,4.0,4-18A,major
82983,51,42,25,97,4.0,4-23,minor
82984,54,42,22,182,7.0,4-18A,minor
82985,43,60,27,530,9.0,4-23,minor
82986,52,51,10,30,9.0,4-23,minor
82987,43,59,35,224,4.0,4-23,minor
82988,36,68,72,34,4.0,4-23,minor
82989,43,58,31,53,4.0,4-23,minor
82990,50,50,13,38,4.0,4-23,minor
82991,70,30,7,1041,0.0,5-28A,other
82992,43,43,97,554,3.0,5-26A,other
82993,43,56,21,792,7.0,2-2,other
82994,36,47,72,33,7.0,2-2,other
82995,62,28,26,97,4.0,1-1,other
82996,67,32,24,96,2.0,3-9,other
82997,74,26,18,94,4.0,3-9,other
82998,79,20,21,85,5.0,4-22A,major
82999,86,24,31,89,2.0,3-9,other
83000,88,36,31,86,0.0,2-5,other
83001,58,35,26,556,4.0,3-11B,major
83002,50,36,46,409,5.0,4-27B,major
83003,49,56,24,52,5.0,4-27B,major
83004,48,47,63,36,5.0,4-27B,major
83005,43,76,29,532,4.0,5-16A,other
83006,43,74,17,76,4.0,5-16A,other
83007,84,37,41,693,2.0,3-11A,minor
83008,24,68,15,698,5.0,4-14B,major
83009,50,42,15,303,9.0,4-26,minor
83010,51,84,58,1071,4.0,2-2,other
83011,65,51,24,181,4.0,2-2,other
83012,61,50,51,190,2.0,4-26,minor
83013,43,82,157,319,3.0,4-27A,other
83014,50,33,14,97,3.0,4-27A,other
83015,52,46,49,128,7.0,4-22A,major
83016,43,80,147,315,0.0,3-11B,major
83017,43,44,47,186,9.0,3-11A,minor
83018,26,72,16,180,2.0,4-25,major
83019,71,40,23,2962,0.0,2-2,other
83020,69,39,18,59,10.0,2-1,other
83021,50,44,7,175,8.0,1-1,other
83022,45,66,23,355,4.0,2-4,major
83023,38,51,8,32,4.0,2-4,major
83024,73,30,17,63,4.0,2-4,major
83025,72,49,38,394,11.0,4-13B,diminished
83026,71,40,39,184,3.0,4-23,other
83027,74,61,38,130,4.0,4-23,minor
83028,67,42,25,38,4.0,4-23,minor
83029,70,57,34,129,6.0,3-5B,other
83030,69,51,26,172,6.0,3-5B,other
83031,65,29,22,36,6.0,3-5B,other
83032,70,19,17,799,7.0,4-18A,minor
83033,51,78,71,728,4.0,3-11B,major
83034,43,74,24,349,5.0,3-11B,major
83035,43,65,35,37,5.0,3-11B,major
83036,43,83,407,60,5.0,3-11B,major
83037,43,77,23,463,11.0,4-23,minor
83038,58,55,19,191,0.0,4-18A,major
83039,69,53,24,678,9.0,2-3,minor
83040,65,59,38,316,0.0,2-5,other
83041,69,57,17,58,0.0,2-5,other
83042,72,62,37,27,0.0,2-5,other
83043,48,50,10,216,5.0,5-27A,major
83044,61,61,76,1306,2.0,5-27B,minor
83045,43,68,17,315,4.0,4-29A,minor
83046,36,74,79,448,4.0,4-23,minor
83047,43,80,80,90,4.0,4-23,minor
83048,52,82,14,85,4.0,4-23,minor
83049,67,46,25,202,0.0,3-3B,other
83050,72,51,13,87,0.0,3-3B,other
83051,74,63,15,1451,5.0,2-1,other
83052,65,81,29,222,5.0,2-2,other
83053,58,34,19,888,2.0,4-27B,major
83054,65,1,960,0,,,
83055,72,89,123,2145,,,
83056,74,87,658,374,,,
83057,64,50,1348,58,7.0,2-5,other
83058,76,79,177,736,7.0,2-5,other
83059,55,34,1549,412,7.0,2-5,other
83060,74,44,314,50,7.0,2-5,other
83061,55,57,1029,2069,4.0,2-5,other
83062,79,56,1306,422,4.0,2-5,other
83063,71,37,1284,51,4.0,2-5,other
83064,55,55,320,759,4.0,3-7A,minor
83065,55,49,1344,475,4.0,3-7A,minor
83066,65,48,470,725,4.0,3-7A,minor
83067,57,22,475,99,5.0,3-11B,major
83068,31,44,141,1150,5.0,3-11B,major
83069,43,36,168,1751,10.0,2-5,other
83070,68,50,200,849,10.0,2-5,other
83071,52,36,1081,1119,10.0,3-4A,major
83072,67,51,144,333,10.0,3-4A,major
83073,69,80,312,374,10.0,3-4A,major
83074,67,52,107,392,10.0,3-4A,major
83075,69,80,1099,373,10.0,3-4A,major
83076,45,50,88,1097,5.0,3-8B,other
83077,81,54,125,1413,7.0,3-3A,minor
83078,43,25,924,3775,7.0,2-2,other
83079,79,34,141,2022,0.0,2-4,major
83080,84,58,149,702,0.0,2-1,other
83081,86,74,295,376,0.0,2-1,other
83082,83,58,173,439,0.0,2-1,other
83083,64,27,454,32,0.0,2-1,other
83084,84,49,172,325,0.0,2-1,other
83085,86,74,209,395,0.0,2-1,other
83086,84,43,179,779,4.0,2-5,other
83087,86,75,327,379,4.0,2-5,other
83088,83,62,262,413,4.0,2-5,other
83089,84,45,240,363,4.0,2-5,other
83090,86,79,300,375,4.0,2-5,other
83091,83,61,584,412,3.0,4-16A,major
83092,79,36,205,383,3.0,4-16A,major
83093,74,41,245,323,3.0,4-16A,major
83094,71,50,284,398,3.0,4-16A,major
83095,67,36,125,384,3.0,2-4,major
83096,74,85,226,1224,3.0,2-4,major
83097,72,68,327,325,3.0,2-4,major
83098,74,40,75,26,3.0,2-4,major
83099,71,62,332,369,3.0,2-4,major
83100,70,44,1338,381,4.0,3-8B,other
83101,67,48,467,824,4.0,3-8B,other
83102,67,41,699,1327,2.0,2-5,other
83103,82,46,194,292,2.0,2-5,other
83104,83,52,101,181,2.0,2-5,other
83105,84,73,208,192,2.0,2-5,other
83106,82,71,195,351,2.0,2-5,other
83107,79,51,259,299,7.0,2-5,other
83108,74,37,195,334,7.0,2-5,other
83109,75,67,518,1551,7.0,2-2,other
83110,61,25,253,2321,1.0,2-6,other
83111,63,45,305,847,1.0,4-28,diminished
83112,62,50,672,406,5.0,3-11A,other
83113,50,42,1311,662,5.0,3-11A,other
83114,53,34,588,2764,2.0,2-3,minor
83115,60,27,324,400,2.0,2-3,minor
83116,61,40,121,99,2.0,2-3,minor
83117,62,44,200,150,2.0,2-3,minor
83118,65,91,1209,591,2.0,2-3,minor
83119,53,33,872,484,9.0,3-7A,minor
83120,58,61,415,800,9.0,3-7A,minor
83121,59,28,105,1268,7.0,3-8A,major
83122,59,50,699,521,8.0,4-28,diminished
83123,71,9,149,1386,8.0,3-10,other
83124,55,34,465,2224,0.0,3-9,other
83125,57,44,177,2048,0.0,3-9,other
83126,52,35,226,1803,6.0,3-7A,minor
83127,72,73,258,792,6.0,3-7A,minor
83128,60,29,129,450,6.0,3-7A,minor
83129,72,62,423,52,6.0,3-7A,minor
83130,47,44,200,3381,9.0,2-3,minor
83131,59,57,298,1299,3.0,3-11A,other
83132,59,45,373,519,3.0,3-11A,other
83133,59,47,624,753,3.0,3-11A,other
83134,59,26,287,1029,3.0,4-20,other
83135,68,57,226,1125,1.0,1-1,other
83136,64,50,147,26,1.0,1-1,other
83137,63,28,230,1243,9.0,4-20,major
83138,47,50,105,1925,6.0,3-11A,minor
83139,51,38,351,2180,2.0,5-25B,minor
83140,52,45,1351,525,3.0,2-5,other
83141,59,39,675,751,3.0,2-5,other
83142,63,45,275,449,3.0,2-5,other
83143,55,68,424,776,6.0,4-16B,other
83144,81,67,186,264,6.0,4-16B,other
83145,74,41,174,826,6.0,4-29A,minor
83146,72,24,250,635,9.0,2-5,other
83147,69,37,275,725,5.0,2-5,other
83148,57,50,574,701,5.0,2-4,major
83149,65,56,224,724,5.0,2-4,major
83150,60,29,66,98,11.0,2-6,other
83151,53,22,1006,1946,7.0,4-18A,major
83152,43,38,424,1256,7.0,4-18A,major
83153,56,25,275,1475,0.0,2-4,major
83154,58,37,176,1174,4.0,4-27B,major
83155,65,20,69,1051,8.0,3-10,diminished
83156,72,43,185,364,0.0,2-4,major
83157,77,59,52,3060,3.0,5-13A,augmented
83158,79,58,252,3748,4.0,4-26,minor
83159,81,72,222,478,4.0,5-35,minor
83160,79,57,150,800,4.0,4-26,minor
83161,91,49,218,798,5.0,5-26B,augmented
83162,91,28,103,445,9.0,4-18A,major
83163,79,40,151,331,1.0,5-31A,diminished
83164,50,29,424,3599,9.0,2-3,minor
83165,43,24,314,27,9.0,2-3,minor
83166,59,12,389,99,9.0,2-3,minor
83167,63,48,427,1023,9.0,2-3,minor
83168,60,32,264,1240,0.0,5-32B,other
83169,66,18,200,1388,8.0,2-3,minor
83170,48,58,966,1850,9.0,4-23,minor
83171,51,46,179,914,9.0,4-23,minor
83172,52,57,326,398,9.0,4-23,minor
83173,41,51,448,835,3.0,3-6,major
83174,48,47,125,403,3.0,3-6,major
83175,71,54,319,3800,3.0,4-24,augmented
83176,77,36,426,549,4.0,2-6,other
83177,58,58,143,1171,4.0,2-6,other
83178,58,40,170,301,0.0,2-1,other
83179,57,39,153,167,0.0,2-1,other
83180,58,64,165,187,0.0,2-1,other
83181,60,51,155,315,0.0,2-1,other
83182,61,71,190,285,0.0,2-1,other
83183,58,35,634,91,0.0,2-1,other
83184,63,53,125,184,0.0,2-1,other
83185,64,66,114,174,0.0,2-1,other
83186,66,45,56,191,0.0,2-1,other
83187,67,51,150,160,0.0,2-1,other
83188,69,33,128,163,0.0,2-1,other
83189,70,57,99,138,0.0,2-1,other
83190,72,45,129,195,0.0,2-1,other
83191,73,47,176,149,0.0,2-1,other
83192,75,37,69,155,0.0,2-1,other
83193,76,57,176,125,0.0,2-1,other
83194,78,30,120,104,0.0,2-1,other
83195,79,38,87,196,0.0,2-1,other
83196,82,46,327,949,2.0,2-2,other
83197,81,66,424,416,2.0,2-2,other
83198,73,40,296,458,2.0,2-2,other
83199,63,50,404,793,1.0,4-28,diminished
83200,61,20,723,884,10.0,4-22A,major
83201,67,48,317,100,4.0,2-6,other
83202,57,33,561,788,6.0,2-5,other
83203,64,43,519,36,6.0,2-5,other
83204,56,33,176,800,4.0,2-6,other
83205,68,45,427,420,4.0,2-6,other
83206,56,27,675,56,2.0,3-7A,minor
83207,80,51,276,724,2.0,3-7A,minor
83208,68,59,182,519,8.0,1-1,other
83209,71,22,101,432,8.0,1-1,other
83210,77,66,888,374,8.0,1-1,other
83211,65,47,450,451,0.0,2-4,other
83212,63,50,406,418,0.0,2-4,other
83213,60,22,105,1402,2.0,4-27A,minor
83214,50,33,147,376,2.0,4-27A,minor
83215,62,60,234,2646,5.0,4-16A,major
83216,62,37,154,1696,8.0,4-28,diminished
83217,52,41,354,784,8.0,4-28,diminished
83218,67,44,223,470,9.0,2-3,minor
83219,71,36,286,3772,0.0,4-8,major
83220,54,45,249,5912,6.0,4-28,diminished
83221,74,38,400,1774,5.0,4-11A,major
83222,69,38,5002,792,0.0,4-14B,major
83223,55,58,362,2446,7.0,1-1,other
83224,55,44,2131,530,7.0,1-1,other
83225,43,33,247,707,7.0,1-1,other
83226,43,43,351,499,7.0,1-1,other
83227,43,34,2005,791,7.0,1-1,other
83228,43,33,150,2485,4.0,5-16A,other
83229,67,49,701,475,2.0,3-7B,other
83230,56,31,289,824,2.0,3-7B,other
83231,62,37,303,1198,9.0,3-7A,minor
83232,50,39,424,2517,5.0,3-11B,major
83233,43,24,381,1229,5.0,4-22A,major
83234,53,34,2201,1280,4.0,4-17,other
83235,43,66,350,1227,4.0,4-17,other
83236,43,54,625,474,4.0,4-17,other
83237,60,96,296,824,4.0,4-17,other
83238,36,33,1861,441,4.0,4-17,other
83239,52,27,799,136,11.0,3-7A,minor
83240,43,44,1776,699,11.0,3-7A,minor
83241,64,62,387,26,11.0,3-7A,minor
83242,42,56,427,2522,0.0,4-20,major
83243,43,42,281,496,0.0,4-20,major
